!function(){function i(i){return i&&i.__esModule?i.default:i}var t="undefined"!=typeof globalThis?globalThis:"undefined"!=typeof self?self:"undefined"!=typeof window?window:"undefined"!=typeof global?global:{},e={},n={},o=t.parcelRequire0c5f;null==o&&((o=function(i){if(i in e)return e[i].exports;if(i in n){var t=n[i];delete n[i];var o={id:i,exports:{}};return e[i]=o,t.call(o.exports,o,o.exports),o.exports}var a=new Error("Cannot find module '"+i+"'");throw a.code="MODULE_NOT_FOUND",a}).register=function(i,t){n[i]=t},t.parcelRequire0c5f=o),o.register("4tpRD",(function(i,t){"use strict";Object.defineProperty(i.exports,"__esModule",{value:!0}),i.exports.default=function(i,t,e){t in i?Object.defineProperty(i,t,{value:e,enumerable:!0,configurable:!0,writable:!0}):i[t]=e;return i}})),o.register("6jfOa",(function(i,t){var e=o("kmOKC"),n=o("gFcm2"),a=o("9f6A8"),r=o("hHTJo");i.exports=function(i,t){return e(i)||n(i,t)||a(i,t)||r()},i.exports.__esModule=!0,i.exports.default=i.exports})),o.register("kmOKC",(function(i,t){i.exports=function(i){if(Array.isArray(i))return i},i.exports.__esModule=!0,i.exports.default=i.exports})),o.register("gFcm2",(function(i,t){i.exports=function(i,t){var e=null==i?null:"undefined"!=typeof Symbol&&i[Symbol.iterator]||i["@@iterator"];if(null!=e){var n,o,a=[],r=!0,c=!1;try{for(e=e.call(i);!(r=(n=e.next()).done)&&(a.push(n.value),!t||a.length!==t);r=!0);}catch(i){c=!0,o=i}finally{try{r||null==e.return||e.return()}finally{if(c)throw o}}return a}},i.exports.__esModule=!0,i.exports.default=i.exports})),o.register("9f6A8",(function(i,t){var e=o("ikq8R");i.exports=function(i,t){if(i){if("string"==typeof i)return e(i,t);var n=Object.prototype.toString.call(i).slice(8,-1);return"Object"===n&&i.constructor&&(n=i.constructor.name),"Map"===n||"Set"===n?Array.from(i):"Arguments"===n||/^(?:Ui|I)nt(?:8|16|32)(?:Clamped)?Array$/.test(n)?e(i,t):void 0}},i.exports.__esModule=!0,i.exports.default=i.exports})),o.register("ikq8R",(function(i,t){i.exports=function(i,t){(null==t||t>i.length)&&(t=i.length);for(var e=0,n=new Array(t);e<t;e++)n[e]=i[e];return n},i.exports.__esModule=!0,i.exports.default=i.exports})),o.register("hHTJo",(function(i,t){i.exports=function(){throw new TypeError("Invalid attempt to destructure non-iterable instance.\nIn order to be iterable, non-array objects must have a [Symbol.iterator]() method.")},i.exports.__esModule=!0,i.exports.default=i.exports})),o.register("6RjbW",(function(i,t){i.exports=function(i,t){if(!(i instanceof t))throw new TypeError("Cannot call a class as a function")},i.exports.__esModule=!0,i.exports.default=i.exports})),o.register("2tlwz",(function(i,t){function e(i,t){for(var e=0;e<t.length;e++){var n=t[e];n.enumerable=n.enumerable||!1,n.configurable=!0,"value"in n&&(n.writable=!0),Object.defineProperty(i,n.key,n)}}i.exports=function(i,t,n){return t&&e(i.prototype,t),n&&e(i,n),Object.defineProperty(i,"prototype",{writable:!1}),i},i.exports.__esModule=!0,i.exports.default=i.exports})),o.register("6F58o",(function(i,t){"use strict";Object.defineProperty(i.exports,"__esModule",{value:!0}),i.exports.default=function(i){if(Array.isArray(i))return i}})),o.register("bruQ1",(function(i,t){"use strict";Object.defineProperty(i.exports,"__esModule",{value:!0}),i.exports.default=function(i){if("undefined"!=typeof Symbol&&null!=i[Symbol.iterator]||null!=i["@@iterator"])return Array.from(i)}})),o.register("1Z0IF",(function(i,t){"use strict";Object.defineProperty(i.exports,"__esModule",{value:!0}),i.exports.default=function(){throw new TypeError("Invalid attempt to destructure non-iterable instance.\\nIn order to be iterable, non-array objects must have a [Symbol.iterator]() method.")}})),o.register("hVAyQ",(function(i,t){"use strict";Object.defineProperty(i.exports,"__esModule",{value:!0}),i.exports.default=function(i,t){if(!i)return;if("string"==typeof i)return n.default(i,t);var e=Object.prototype.toString.call(i).slice(8,-1);"Object"===e&&i.constructor&&(e=i.constructor.name);if("Map"===e||"Set"===e)return Array.from(e);if("Arguments"===e||/^(?:Ui|I)nt(?:8|16|32)(?:Clamped)?Array$/.test(e))return n.default(i,t)};var e,n=(e=o("dIOTE"))&&e.__esModule?e:{default:e}})),o.register("dIOTE",(function(i,t){"use strict";Object.defineProperty(i.exports,"__esModule",{value:!0}),i.exports.default=function(i,t){(null==t||t>i.length)&&(t=i.length);for(var e=0,n=new Array(t);e<t;e++)n[e]=i[e];return n}})),o.register("7PVYz",(function(i,t){"use strict";function e(i,t){return(e=Object.setPrototypeOf||function(i,t){return i.__proto__=t,i})(i,t)}Object.defineProperty(i.exports,"__esModule",{value:!0}),i.exports.default=function(i,t){return e(i,t)}})),o.register("jpFNf",(function(i,t){"use strict";Object.defineProperty(i.exports,"__esModule",{value:!0}),i.exports.default=function(){if("undefined"==typeof Reflect||!Reflect.construct)return!1;if(Reflect.construct.sham)return!1;if("function"==typeof Proxy)return!0;try{return Boolean.prototype.valueOf.call(Reflect.construct(Boolean,[],(function(){}))),!0}catch(i){return!1}}})),o.register("jlIh9",(function(i,t){"use strict";function e(i){return(e=Object.setPrototypeOf?Object.getPrototypeOf:function(i){return i.__proto__||Object.getPrototypeOf(i)})(i)}Object.defineProperty(i.exports,"__esModule",{value:!0}),i.exports.default=function(i){return e(i)}})),o.register("h4dhK",(function(i,t){"use strict";Object.defineProperty(i.exports,"__esModule",{value:!0}),i.exports.default=function(i,t){return!t||"object"!==n.default(t)&&"function"!=typeof t?e.default(i):t};var e=a(o("kumvF")),n=a(o("7gkGg"));function a(i){return i&&i.__esModule?i:{default:i}}})),o.register("kumvF",(function(i,t){"use strict";Object.defineProperty(i.exports,"__esModule",{value:!0}),i.exports.default=function(i){if(void 0===i)throw new ReferenceError("this hasn't been initialised - super() hasn't been called");return i}})),o.register("7gkGg",(function(i,t){"use strict";Object.defineProperty(i.exports,"__esModule",{value:!0}),i.exports.default=function(i){return i&&i.constructor===Symbol?"symbol":typeof i}})),o.register("7zhRv",(function(i,t){"use strict";Object.defineProperty(i.exports,"__esModule",{value:!0}),i.exports.default=function(i){if(Array.isArray(i))return n.default(i)};var e,n=(e=o("dIOTE"))&&e.__esModule?e:{default:e}})),o.register("1at2p",(function(i,t){"use strict";Object.defineProperty(i.exports,"__esModule",{value:!0}),i.exports.default=function(){throw new TypeError("Invalid attempt to spread non-iterable instance.\\nIn order to be iterable, non-array objects must have a [Symbol.iterator]() method.")}})),o.register("5ZOHt",(function(i,t){"use strict";Object.defineProperty(i.exports,"__esModule",{value:!0}),i.exports.default=function(i,t){if(null==i)return{};var e,n,o={},a=Object.keys(i);for(n=0;n<a.length;n++)e=a[n],t.indexOf(e)>=0||(o[e]=i[e]);return o}})),o.register("5ECwK",(function(i,t){"use strict";Object.defineProperty(i.exports,"__esModule",{value:!0}),i.exports.default=function(i,t){for(;!Object.prototype.hasOwnProperty.call(i,t)&&null!==(i=n.default(i)););return i};var e,n=(e=o("jlIh9"))&&e.__esModule?e:{default:e}}));var a={};Object.defineProperty(a,"__esModule",{value:!0}),a.default=function(i,t){if(!(i instanceof t))throw new TypeError("Cannot call a class as a function")};var r={};function c(i,t){for(var e=0;e<t.length;e++){var n=t[e];n.enumerable=n.enumerable||!1,n.configurable=!0,"value"in n&&(n.writable=!0),Object.defineProperty(i,n.key,n)}}Object.defineProperty(r,"__esModule",{value:!0}),r.default=function(i,t,e){t&&c(i.prototype,t);e&&c(i,e);return i};var s,u=o("4tpRD");s=JSON.parse('{"header":{"keySignatures":[],"meta":[],"name":"Track 0","ppq":960,"tempos":[{"bpm":120,"ticks":0}],"timeSignatures":[]},"tracks":[{"channel":0,"controlChanges":{"7":[{"number":7,"ticks":0,"time":0,"value":1}],"10":[{"number":10,"ticks":0,"time":0,"value":0.5039370078740157}]},"pitchBends":[],"instrument":{"family":"piano","number":0,"name":"acoustic grand piano"},"name":"Voice","notes":[],"endOfTrackTicks":334560},{"channel":0,"controlChanges":{"10":[{"number":10,"ticks":0,"time":0,"value":0.5039370078740157}]},"pitchBends":[],"instrument":{"family":"ensemble","number":53,"name":"voice oohs"},"name":"","notes":[{"duration":0.25,"durationTicks":480,"midi":79,"name":"G5","ticks":1920,"time":1,"velocity":1},{"duration":0.25,"durationTicks":480,"midi":78,"name":"F#5","ticks":2400,"time":1.25,"velocity":1},{"duration":0.25,"durationTicks":480,"midi":76,"name":"E5","ticks":2880,"time":1.5,"velocity":1},{"duration":0.25,"durationTicks":480,"midi":76,"name":"E5","ticks":3360,"time":1.75,"velocity":1},{"duration":0.25,"durationTicks":480,"midi":78,"name":"F#5","ticks":3840,"time":2,"velocity":1},{"duration":0.25,"durationTicks":480,"midi":69,"name":"A4","ticks":9120,"time":4.75,"velocity":1},{"duration":0.25,"durationTicks":480,"midi":79,"name":"G5","ticks":9600,"time":5,"velocity":1},{"duration":0.25,"durationTicks":480,"midi":78,"name":"F#5","ticks":10080,"time":5.25,"velocity":1},{"duration":0.25,"durationTicks":480,"midi":76,"name":"E5","ticks":10560,"time":5.5,"velocity":1},{"duration":0.5,"durationTicks":960,"midi":76,"name":"E5","ticks":11040,"time":5.75,"velocity":1},{"duration":0.25,"durationTicks":480,"midi":78,"name":"F#5","ticks":12000,"time":6.25,"velocity":1},{"duration":0.5,"durationTicks":960,"midi":74,"name":"D5","ticks":13440,"time":7,"velocity":1},{"duration":0.25,"durationTicks":480,"midi":76,"name":"E5","ticks":14400,"time":7.5,"velocity":1},{"duration":0.5,"durationTicks":960,"midi":69,"name":"A4","ticks":14880,"time":7.75,"velocity":1},{"duration":0.25,"durationTicks":480,"midi":69,"name":"A4","ticks":18720,"time":9.75,"velocity":1},{"duration":0.5,"durationTicks":960,"midi":76,"name":"E5","ticks":19200,"time":10,"velocity":1},{"duration":0.25,"durationTicks":480,"midi":78,"name":"F#5","ticks":20160,"time":10.5,"velocity":1},{"duration":0.75,"durationTicks":1440,"midi":79,"name":"G5","ticks":20640,"time":10.75,"velocity":1},{"duration":0.25,"durationTicks":480,"midi":76,"name":"E5","ticks":22080,"time":11.5,"velocity":1},{"duration":0.5,"durationTicks":960,"midi":73,"name":"C#5","ticks":22560,"time":11.75,"velocity":1},{"duration":0.75,"durationTicks":1440,"midi":74,"name":"D5","ticks":23520,"time":12.25,"velocity":1},{"duration":0.5,"durationTicks":960,"midi":76,"name":"E5","ticks":24960,"time":13,"velocity":1},{"duration":0.25,"durationTicks":480,"midi":69,"name":"A4","ticks":25920,"time":13.5,"velocity":1},{"duration":0.5,"durationTicks":960,"midi":69,"name":"A4","ticks":26400,"time":13.75,"velocity":1},{"duration":0.5,"durationTicks":960,"midi":78,"name":"F#5","ticks":27360,"time":14.25,"velocity":1},{"duration":0.25,"durationTicks":480,"midi":79,"name":"G5","ticks":32640,"time":17,"velocity":1},{"duration":0.25,"durationTicks":480,"midi":78,"name":"F#5","ticks":33120,"time":17.25,"velocity":1},{"duration":0.25,"durationTicks":480,"midi":76,"name":"E5","ticks":33600,"time":17.5,"velocity":1},{"duration":0.25,"durationTicks":480,"midi":76,"name":"E5","ticks":34080,"time":17.75,"velocity":1},{"duration":0.25,"durationTicks":480,"midi":78,"name":"F#5","ticks":34560,"time":18,"velocity":1},{"duration":0.25,"durationTicks":480,"midi":69,"name":"A4","ticks":39840,"time":20.75,"velocity":1},{"duration":0.25,"durationTicks":480,"midi":79,"name":"G5","ticks":40320,"time":21,"velocity":1},{"duration":0.25,"durationTicks":480,"midi":78,"name":"F#5","ticks":40800,"time":21.25,"velocity":1},{"duration":0.25,"durationTicks":480,"midi":76,"name":"E5","ticks":41280,"time":21.5,"velocity":1},{"duration":0.5,"durationTicks":960,"midi":76,"name":"E5","ticks":41760,"time":21.75,"velocity":1},{"duration":0.25,"durationTicks":480,"midi":78,"name":"F#5","ticks":43200,"time":22.5,"velocity":1},{"duration":0.5,"durationTicks":960,"midi":74,"name":"D5","ticks":43680,"time":22.75,"velocity":1},{"duration":0.25,"durationTicks":480,"midi":76,"name":"E5","ticks":45120,"time":23.5,"velocity":1},{"duration":0.5,"durationTicks":960,"midi":69,"name":"A4","ticks":45600,"time":23.75,"velocity":1},{"duration":0.5,"durationTicks":960,"midi":76,"name":"E5","ticks":49920,"time":26,"velocity":1},{"duration":0.25,"durationTicks":480,"midi":78,"name":"F#5","ticks":50880,"time":26.5,"velocity":1},{"duration":0.75,"durationTicks":1440,"midi":79,"name":"G5","ticks":51360,"time":26.75,"velocity":1},{"duration":0.25,"durationTicks":480,"midi":76,"name":"E5","ticks":52800,"time":27.5,"velocity":1},{"duration":0.75,"durationTicks":1440,"midi":73,"name":"C#5","ticks":53280,"time":27.75,"velocity":1},{"duration":0.25,"durationTicks":480,"midi":74,"name":"D5","ticks":54720,"time":28.5,"velocity":1},{"duration":0.25,"durationTicks":480,"midi":76,"name":"E5","ticks":55200,"time":28.75,"velocity":1},{"duration":0.25,"durationTicks":480,"midi":69,"name":"A4","ticks":56160,"time":29.25,"velocity":1},{"duration":0.25,"durationTicks":480,"midi":74,"name":"D5","ticks":56640,"time":29.5,"velocity":1},{"duration":0.25,"durationTicks":480,"midi":76,"name":"E5","ticks":57120,"time":29.75,"velocity":1},{"duration":0.25,"durationTicks":480,"midi":77,"name":"F5","ticks":57600,"time":30,"velocity":1},{"duration":0.25,"durationTicks":480,"midi":76,"name":"E5","ticks":58080,"time":30.25,"velocity":1},{"duration":0.25,"durationTicks":480,"midi":74,"name":"D5","ticks":58560,"time":30.5,"velocity":1},{"duration":0.25,"durationTicks":480,"midi":72,"name":"C5","ticks":59040,"time":30.75,"velocity":1},{"duration":0.25,"durationTicks":480,"midi":69,"name":"A4","ticks":60480,"time":31.5,"velocity":1},{"duration":0.25,"durationTicks":480,"midi":70,"name":"A#4","ticks":60960,"time":31.75,"velocity":1},{"duration":0.5,"durationTicks":960,"midi":72,"name":"C5","ticks":61440,"time":32,"velocity":1},{"duration":0.5,"durationTicks":960,"midi":77,"name":"F5","ticks":62400,"time":32.5,"velocity":1},{"duration":0.25,"durationTicks":480,"midi":76,"name":"E5","ticks":63360,"time":33,"velocity":1},{"duration":0.25,"durationTicks":480,"midi":74,"name":"D5","ticks":63840,"time":33.25,"velocity":1},{"duration":0.25,"durationTicks":480,"midi":74,"name":"D5","ticks":64320,"time":33.5,"velocity":1},{"duration":0.25,"durationTicks":480,"midi":72,"name":"C5","ticks":64800,"time":33.75,"velocity":1},{"duration":0.25,"durationTicks":480,"midi":74,"name":"D5","ticks":65280,"time":34,"velocity":1},{"duration":0.25,"durationTicks":480,"midi":72,"name":"C5","ticks":65760,"time":34.25,"velocity":1},{"duration":0.5,"durationTicks":960,"midi":72,"name":"C5","ticks":66240,"time":34.5,"velocity":1},{"duration":0.25,"durationTicks":480,"midi":72,"name":"C5","ticks":67200,"time":35,"velocity":1},{"duration":0.25,"durationTicks":480,"midi":69,"name":"A4","ticks":68160,"time":35.5,"velocity":1},{"duration":0.25,"durationTicks":480,"midi":70,"name":"A#4","ticks":68640,"time":35.75,"velocity":1},{"duration":0.5,"durationTicks":960,"midi":72,"name":"C5","ticks":69120,"time":36,"velocity":1},{"duration":0.5,"durationTicks":960,"midi":77,"name":"F5","ticks":70080,"time":36.5,"velocity":1},{"duration":0.25,"durationTicks":480,"midi":79,"name":"G5","ticks":71040,"time":37,"velocity":1},{"duration":0.25,"durationTicks":480,"midi":77,"name":"F5","ticks":71520,"time":37.25,"velocity":1},{"duration":0.25,"durationTicks":480,"midi":76,"name":"E5","ticks":72000,"time":37.5,"velocity":1},{"duration":0.25,"durationTicks":480,"midi":74,"name":"D5","ticks":72480,"time":37.75,"velocity":1},{"duration":0.25,"durationTicks":480,"midi":74,"name":"D5","ticks":72960,"time":38,"velocity":1},{"duration":0.25,"durationTicks":480,"midi":76,"name":"E5","ticks":73440,"time":38.25,"velocity":1},{"duration":0.5,"durationTicks":960,"midi":77,"name":"F5","ticks":73920,"time":38.5,"velocity":1},{"duration":0.25,"durationTicks":480,"midi":77,"name":"F5","ticks":74880,"time":39,"velocity":1},{"duration":0.25,"durationTicks":480,"midi":79,"name":"G5","ticks":75840,"time":39.5,"velocity":1},{"duration":0.25,"durationTicks":480,"midi":81,"name":"A5","ticks":76320,"time":39.75,"velocity":1},{"duration":0.25,"durationTicks":480,"midi":82,"name":"A#5","ticks":76800,"time":40,"velocity":1},{"duration":0.25,"durationTicks":480,"midi":82,"name":"A#5","ticks":77280,"time":40.25,"velocity":1},{"duration":0.5,"durationTicks":960,"midi":81,"name":"A5","ticks":77760,"time":40.5,"velocity":1},{"duration":0.5,"durationTicks":960,"midi":79,"name":"G5","ticks":78720,"time":41,"velocity":1},{"duration":0.25,"durationTicks":480,"midi":77,"name":"F5","ticks":79680,"time":41.5,"velocity":1},{"duration":0.25,"durationTicks":480,"midi":79,"name":"G5","ticks":80160,"time":41.75,"velocity":1},{"duration":0.25,"durationTicks":480,"midi":81,"name":"A5","ticks":80640,"time":42,"velocity":1},{"duration":0.25,"durationTicks":480,"midi":81,"name":"A5","ticks":81120,"time":42.25,"velocity":1},{"duration":0.5,"durationTicks":960,"midi":79,"name":"G5","ticks":81600,"time":42.5,"velocity":1},{"duration":0.5,"durationTicks":960,"midi":77,"name":"F5","ticks":82560,"time":43,"velocity":1},{"duration":0.25,"durationTicks":480,"midi":74,"name":"D5","ticks":83520,"time":43.5,"velocity":1},{"duration":0.25,"durationTicks":480,"midi":72,"name":"C5","ticks":84000,"time":43.75,"velocity":1},{"duration":0.25,"durationTicks":480,"midi":74,"name":"D5","ticks":84480,"time":44,"velocity":1},{"duration":0.25,"durationTicks":480,"midi":77,"name":"F5","ticks":84960,"time":44.25,"velocity":1},{"duration":0.25,"durationTicks":480,"midi":77,"name":"F5","ticks":85440,"time":44.5,"velocity":1},{"duration":0.5,"durationTicks":960,"midi":76,"name":"E5","ticks":85920,"time":44.75,"velocity":1},{"duration":0.25,"durationTicks":480,"midi":76,"name":"E5","ticks":86880,"time":45.25,"velocity":1},{"duration":0.25,"durationTicks":480,"midi":78,"name":"F#5","ticks":87360,"time":45.5,"velocity":1},{"duration":1,"durationTicks":1920,"midi":78,"name":"F#5","ticks":87840,"time":45.75,"velocity":1},{"duration":0.25,"durationTicks":480,"midi":69,"name":"A4","ticks":101280,"time":52.75,"velocity":1},{"duration":0.25,"durationTicks":480,"midi":79,"name":"G5","ticks":101760,"time":53,"velocity":1},{"duration":0.25,"durationTicks":480,"midi":78,"name":"F#5","ticks":102240,"time":53.25,"velocity":1},{"duration":0.25,"durationTicks":480,"midi":76,"name":"E5","ticks":102720,"time":53.5,"velocity":1},{"duration":0.25,"durationTicks":480,"midi":76,"name":"E5","ticks":103200,"time":53.75,"velocity":1},{"duration":0.25,"durationTicks":480,"midi":78,"name":"F#5","ticks":103680,"time":54,"velocity":1},{"duration":0.25,"durationTicks":480,"midi":79,"name":"G5","ticks":109440,"time":57,"velocity":1},{"duration":0.25,"durationTicks":480,"midi":78,"name":"F#5","ticks":109920,"time":57.25,"velocity":1},{"duration":0.25,"durationTicks":480,"midi":76,"name":"E5","ticks":110400,"time":57.5,"velocity":1},{"duration":0.75,"durationTicks":1440,"midi":76,"name":"E5","ticks":110880,"time":57.75,"velocity":1},{"duration":0.25,"durationTicks":480,"midi":78,"name":"F#5","ticks":112320,"time":58.5,"velocity":1},{"duration":0.5,"durationTicks":960,"midi":74,"name":"D5","ticks":112800,"time":58.75,"velocity":1},{"duration":0.5,"durationTicks":960,"midi":76,"name":"E5","ticks":113760,"time":59.25,"velocity":1},{"duration":0.5,"durationTicks":960,"midi":69,"name":"A4","ticks":114720,"time":59.75,"velocity":1},{"duration":0.5,"durationTicks":960,"midi":76,"name":"E5","ticks":119040,"time":62,"velocity":1},{"duration":0.25,"durationTicks":480,"midi":78,"name":"F#5","ticks":120000,"time":62.5,"velocity":1},{"duration":0.75,"durationTicks":1440,"midi":79,"name":"G5","ticks":120480,"time":62.75,"velocity":1},{"duration":0.5,"durationTicks":960,"midi":76,"name":"E5","ticks":121920,"time":63.5,"velocity":1},{"duration":0.5,"durationTicks":960,"midi":73,"name":"C#5","ticks":122880,"time":64,"velocity":1},{"duration":0.25,"durationTicks":480,"midi":74,"name":"D5","ticks":123840,"time":64.5,"velocity":1},{"duration":0.75,"durationTicks":1440,"midi":76,"name":"E5","ticks":124320,"time":64.75,"velocity":1},{"duration":0.25,"durationTicks":480,"midi":69,"name":"A4","ticks":125760,"time":65.5,"velocity":1},{"duration":0.5,"durationTicks":960,"midi":69,"name":"A4","ticks":126240,"time":65.75,"velocity":1},{"duration":0.5,"durationTicks":960,"midi":78,"name":"F#5","ticks":127200,"time":66.25,"velocity":1},{"duration":0.25,"durationTicks":480,"midi":74,"name":"D5","ticks":132000,"time":68.75,"velocity":1},{"duration":0.25,"durationTicks":480,"midi":69,"name":"A4","ticks":132000,"time":68.75,"velocity":1},{"duration":0.25,"durationTicks":480,"midi":83,"name":"B5","ticks":132480,"time":69,"velocity":1},{"duration":0.25,"durationTicks":480,"midi":79,"name":"G5","ticks":132480,"time":69,"velocity":1},{"duration":0.25,"durationTicks":480,"midi":81,"name":"A5","ticks":132960,"time":69.25,"velocity":1},{"duration":0.25,"durationTicks":480,"midi":78,"name":"F#5","ticks":132960,"time":69.25,"velocity":1},{"duration":0.25,"durationTicks":480,"midi":79,"name":"G5","ticks":133440,"time":69.5,"velocity":1},{"duration":0.25,"durationTicks":480,"midi":76,"name":"E5","ticks":133440,"time":69.5,"velocity":1},{"duration":0.25,"durationTicks":480,"midi":79,"name":"G5","ticks":133920,"time":69.75,"velocity":1},{"duration":0.25,"durationTicks":480,"midi":76,"name":"E5","ticks":133920,"time":69.75,"velocity":1},{"duration":0.25,"durationTicks":480,"midi":81,"name":"A5","ticks":134400,"time":70,"velocity":1},{"duration":0.25,"durationTicks":480,"midi":78,"name":"F#5","ticks":134400,"time":70,"velocity":1},{"duration":0.25,"durationTicks":480,"midi":74,"name":"D5","ticks":139680,"time":72.75,"velocity":1},{"duration":0.25,"durationTicks":480,"midi":69,"name":"A4","ticks":139680,"time":72.75,"velocity":1},{"duration":0.25,"durationTicks":480,"midi":83,"name":"B5","ticks":140160,"time":73,"velocity":1},{"duration":0.25,"durationTicks":480,"midi":79,"name":"G5","ticks":140160,"time":73,"velocity":1},{"duration":0.25,"durationTicks":480,"midi":81,"name":"A5","ticks":140640,"time":73.25,"velocity":1},{"duration":0.25,"durationTicks":480,"midi":78,"name":"F#5","ticks":140640,"time":73.25,"velocity":1},{"duration":0.25,"durationTicks":480,"midi":79,"name":"G5","ticks":141120,"time":73.5,"velocity":1},{"duration":0.25,"durationTicks":480,"midi":76,"name":"E5","ticks":141120,"time":73.5,"velocity":1},{"duration":0.5,"durationTicks":960,"midi":79,"name":"G5","ticks":141600,"time":73.75,"velocity":1},{"duration":0.5,"durationTicks":960,"midi":76,"name":"E5","ticks":141600,"time":73.75,"velocity":1},{"duration":0.25,"durationTicks":480,"midi":81,"name":"A5","ticks":143040,"time":74.5,"velocity":1},{"duration":0.25,"durationTicks":480,"midi":78,"name":"F#5","ticks":143040,"time":74.5,"velocity":1},{"duration":0.5,"durationTicks":960,"midi":78,"name":"F#5","ticks":143520,"time":74.75,"velocity":1},{"duration":0.5,"durationTicks":960,"midi":74,"name":"D5","ticks":143520,"time":74.75,"velocity":1},{"duration":0.25,"durationTicks":480,"midi":79,"name":"G5","ticks":144960,"time":75.5,"velocity":1},{"duration":0.25,"durationTicks":480,"midi":76,"name":"E5","ticks":144960,"time":75.5,"velocity":1},{"duration":0.5,"durationTicks":960,"midi":74,"name":"D5","ticks":145440,"time":75.75,"velocity":1},{"duration":0.5,"durationTicks":960,"midi":69,"name":"A4","ticks":145440,"time":75.75,"velocity":1},{"duration":0.5,"durationTicks":960,"midi":76,"name":"E5","ticks":149760,"time":78,"velocity":1},{"duration":0.25,"durationTicks":480,"midi":78,"name":"F#5","ticks":150720,"time":78.5,"velocity":1},{"duration":0.75,"durationTicks":1440,"midi":79,"name":"G5","ticks":151200,"time":78.75,"velocity":1},{"duration":0.5,"durationTicks":960,"midi":76,"name":"E5","ticks":152640,"time":79.5,"velocity":1},{"duration":0.5,"durationTicks":960,"midi":73,"name":"C#5","ticks":153600,"time":80,"velocity":1},{"duration":0.25,"durationTicks":480,"midi":74,"name":"D5","ticks":154560,"time":80.5,"velocity":1},{"duration":0.25,"durationTicks":480,"midi":76,"name":"E5","ticks":155040,"time":80.75,"velocity":1},{"duration":0.25,"durationTicks":480,"midi":69,"name":"A4","ticks":156000,"time":81.25,"velocity":1},{"duration":0.25,"durationTicks":480,"midi":74,"name":"D5","ticks":156480,"time":81.5,"velocity":1},{"duration":0.25,"durationTicks":480,"midi":76,"name":"E5","ticks":156960,"time":81.75,"velocity":1},{"duration":0.25,"durationTicks":480,"midi":77,"name":"F5","ticks":157440,"time":82,"velocity":1},{"duration":0.25,"durationTicks":480,"midi":76,"name":"E5","ticks":157920,"time":82.25,"velocity":1},{"duration":0.25,"durationTicks":480,"midi":74,"name":"D5","ticks":158400,"time":82.5,"velocity":1},{"duration":0.25,"durationTicks":480,"midi":72,"name":"C5","ticks":158880,"time":82.75,"velocity":1},{"duration":0.25,"durationTicks":480,"midi":69,"name":"A4","ticks":160320,"time":83.5,"velocity":1},{"duration":0.25,"durationTicks":480,"midi":70,"name":"A#4","ticks":160800,"time":83.75,"velocity":1},{"duration":0.5,"durationTicks":960,"midi":72,"name":"C5","ticks":161280,"time":84,"velocity":1},{"duration":0.5,"durationTicks":960,"midi":77,"name":"F5","ticks":162240,"time":84.5,"velocity":1},{"duration":0.25,"durationTicks":480,"midi":76,"name":"E5","ticks":163200,"time":85,"velocity":1},{"duration":0.25,"durationTicks":480,"midi":74,"name":"D5","ticks":163680,"time":85.25,"velocity":1},{"duration":0.25,"durationTicks":480,"midi":74,"name":"D5","ticks":164160,"time":85.5,"velocity":1},{"duration":0.25,"durationTicks":480,"midi":72,"name":"C5","ticks":164640,"time":85.75,"velocity":1},{"duration":0.25,"durationTicks":480,"midi":74,"name":"D5","ticks":165120,"time":86,"velocity":1},{"duration":0.25,"durationTicks":480,"midi":72,"name":"C5","ticks":165600,"time":86.25,"velocity":1},{"duration":0.5,"durationTicks":960,"midi":72,"name":"C5","ticks":166080,"time":86.5,"velocity":1},{"duration":0.5,"durationTicks":960,"midi":72,"name":"C5","ticks":167040,"time":87,"velocity":1},{"duration":0.25,"durationTicks":480,"midi":69,"name":"A4","ticks":168000,"time":87.5,"velocity":1},{"duration":0.25,"durationTicks":480,"midi":70,"name":"A#4","ticks":168480,"time":87.75,"velocity":1},{"duration":0.5,"durationTicks":960,"midi":72,"name":"C5","ticks":168960,"time":88,"velocity":1},{"duration":0.5,"durationTicks":960,"midi":77,"name":"F5","ticks":169920,"time":88.5,"velocity":1},{"duration":0.25,"durationTicks":480,"midi":79,"name":"G5","ticks":170880,"time":89,"velocity":1},{"duration":0.25,"durationTicks":480,"midi":77,"name":"F5","ticks":171360,"time":89.25,"velocity":1},{"duration":0.25,"durationTicks":480,"midi":76,"name":"E5","ticks":171840,"time":89.5,"velocity":1},{"duration":0.25,"durationTicks":480,"midi":74,"name":"D5","ticks":172320,"time":89.75,"velocity":1},{"duration":0.25,"durationTicks":480,"midi":74,"name":"D5","ticks":172800,"time":90,"velocity":1},{"duration":0.25,"durationTicks":480,"midi":76,"name":"E5","ticks":173280,"time":90.25,"velocity":1},{"duration":0.5,"durationTicks":960,"midi":77,"name":"F5","ticks":173760,"time":90.5,"velocity":1},{"duration":0.5,"durationTicks":960,"midi":77,"name":"F5","ticks":174720,"time":91,"velocity":1},{"duration":0.25,"durationTicks":480,"midi":79,"name":"G5","ticks":175680,"time":91.5,"velocity":1},{"duration":0.25,"durationTicks":480,"midi":81,"name":"A5","ticks":176160,"time":91.75,"velocity":1},{"duration":0.25,"durationTicks":480,"midi":82,"name":"A#5","ticks":176640,"time":92,"velocity":1},{"duration":0.25,"durationTicks":480,"midi":82,"name":"A#5","ticks":177120,"time":92.25,"velocity":1},{"duration":0.5,"durationTicks":960,"midi":81,"name":"A5","ticks":177600,"time":92.5,"velocity":1},{"duration":0.5,"durationTicks":960,"midi":79,"name":"G5","ticks":178560,"time":93,"velocity":1},{"duration":0.25,"durationTicks":480,"midi":77,"name":"F5","ticks":179520,"time":93.5,"velocity":1},{"duration":0.25,"durationTicks":480,"midi":79,"name":"G5","ticks":180000,"time":93.75,"velocity":1},{"duration":0.25,"durationTicks":480,"midi":81,"name":"A5","ticks":180480,"time":94,"velocity":1},{"duration":0.25,"durationTicks":480,"midi":81,"name":"A5","ticks":180960,"time":94.25,"velocity":1},{"duration":0.25,"durationTicks":480,"midi":79,"name":"G5","ticks":181440,"time":94.5,"velocity":1},{"duration":0.25,"durationTicks":480,"midi":77,"name":"F5","ticks":181920,"time":94.75,"velocity":1},{"duration":0.5,"durationTicks":960,"midi":77,"name":"F5","ticks":182400,"time":95,"velocity":1},{"duration":0.25,"durationTicks":480,"midi":74,"name":"D5","ticks":183360,"time":95.5,"velocity":1},{"duration":0.25,"durationTicks":480,"midi":72,"name":"C5","ticks":183840,"time":95.75,"velocity":1},{"duration":0.25,"durationTicks":480,"midi":74,"name":"D5","ticks":184320,"time":96,"velocity":1},{"duration":0.25,"durationTicks":480,"midi":77,"name":"F5","ticks":184800,"time":96.25,"velocity":1},{"duration":0.25,"durationTicks":480,"midi":77,"name":"F5","ticks":185280,"time":96.5,"velocity":1},{"duration":0.5,"durationTicks":960,"midi":76,"name":"E5","ticks":185760,"time":96.75,"velocity":1},{"duration":0.25,"durationTicks":480,"midi":76,"name":"E5","ticks":186720,"time":97.25,"velocity":1},{"duration":0.25,"durationTicks":480,"midi":78,"name":"F#5","ticks":187200,"time":97.5,"velocity":1},{"duration":1,"durationTicks":1920,"midi":78,"name":"F#5","ticks":187680,"time":97.75,"velocity":1},{"duration":0.125,"durationTicks":240,"midi":79,"name":"G5","ticks":201600,"time":105,"velocity":1},{"duration":0.125,"durationTicks":240,"midi":79,"name":"G5","ticks":201840,"time":105.125,"velocity":1},{"duration":0.25,"durationTicks":480,"midi":78,"name":"F#5","ticks":202080,"time":105.25,"velocity":1},{"duration":0.25,"durationTicks":480,"midi":76,"name":"E5","ticks":202560,"time":105.5,"velocity":1},{"duration":0.375,"durationTicks":720,"midi":76,"name":"E5","ticks":203040,"time":105.75,"velocity":1},{"duration":0.375,"durationTicks":720,"midi":78,"name":"F#5","ticks":203760,"time":106.125,"velocity":1},{"duration":0.25,"durationTicks":480,"midi":69,"name":"A4","ticks":208800,"time":108.75,"velocity":1},{"duration":0.25,"durationTicks":480,"midi":79,"name":"G5","ticks":209280,"time":109,"velocity":1},{"duration":0.25,"durationTicks":480,"midi":78,"name":"F#5","ticks":209760,"time":109.25,"velocity":1},{"duration":0.25,"durationTicks":480,"midi":76,"name":"E5","ticks":210240,"time":109.5,"velocity":1},{"duration":0.5,"durationTicks":960,"midi":76,"name":"E5","ticks":210720,"time":109.75,"velocity":1},{"duration":0.25,"durationTicks":480,"midi":78,"name":"F#5","ticks":212160,"time":110.5,"velocity":1},{"duration":0.5,"durationTicks":960,"midi":74,"name":"D5","ticks":212640,"time":110.75,"velocity":1},{"duration":0.25,"durationTicks":480,"midi":76,"name":"E5","ticks":214080,"time":111.5,"velocity":1},{"duration":0.5,"durationTicks":960,"midi":69,"name":"A4","ticks":214560,"time":111.75,"velocity":1},{"duration":0.5,"durationTicks":960,"midi":76,"name":"E5","ticks":218880,"time":114,"velocity":1},{"duration":0.25,"durationTicks":480,"midi":78,"name":"F#5","ticks":219840,"time":114.5,"velocity":1},{"duration":0.75,"durationTicks":1440,"midi":79,"name":"G5","ticks":220320,"time":114.75,"velocity":1},{"duration":0.5,"durationTicks":960,"midi":76,"name":"E5","ticks":221760,"time":115.5,"velocity":1},{"duration":0.5,"durationTicks":960,"midi":73,"name":"C#5","ticks":222720,"time":116,"velocity":1},{"duration":0.25,"durationTicks":480,"midi":74,"name":"D5","ticks":223680,"time":116.5,"velocity":1},{"duration":0.75,"durationTicks":1440,"midi":76,"name":"E5","ticks":224160,"time":116.75,"velocity":1},{"duration":0.25,"durationTicks":480,"midi":69,"name":"A4","ticks":225600,"time":117.5,"velocity":1},{"duration":0.5,"durationTicks":960,"midi":69,"name":"A4","ticks":226080,"time":117.75,"velocity":1},{"duration":0.5,"durationTicks":960,"midi":78,"name":"F#5","ticks":227040,"time":118.25,"velocity":1},{"duration":0.25,"durationTicks":480,"midi":83,"name":"B5","ticks":232320,"time":121,"velocity":1},{"duration":0.25,"durationTicks":480,"midi":79,"name":"G5","ticks":232320,"time":121,"velocity":1},{"duration":0.25,"durationTicks":480,"midi":81,"name":"A5","ticks":232800,"time":121.25,"velocity":1},{"duration":0.25,"durationTicks":480,"midi":78,"name":"F#5","ticks":232800,"time":121.25,"velocity":1},{"duration":0.25,"durationTicks":480,"midi":79,"name":"G5","ticks":233280,"time":121.5,"velocity":1},{"duration":0.25,"durationTicks":480,"midi":76,"name":"E5","ticks":233280,"time":121.5,"velocity":1},{"duration":0.3125,"durationTicks":600,"midi":79,"name":"G5","ticks":233760,"time":121.75,"velocity":1},{"duration":0.3125,"durationTicks":600,"midi":76,"name":"E5","ticks":233760,"time":121.75,"velocity":1},{"duration":0.25,"durationTicks":480,"midi":81,"name":"A5","ticks":234360,"time":122.0625,"velocity":1},{"duration":0.25,"durationTicks":480,"midi":78,"name":"F#5","ticks":234360,"time":122.0625,"velocity":1},{"duration":0.25,"durationTicks":480,"midi":83,"name":"B5","ticks":240000,"time":125,"velocity":1},{"duration":0.25,"durationTicks":480,"midi":79,"name":"G5","ticks":240000,"time":125,"velocity":1},{"duration":0.25,"durationTicks":480,"midi":81,"name":"A5","ticks":240480,"time":125.25,"velocity":1},{"duration":0.25,"durationTicks":480,"midi":78,"name":"F#5","ticks":240480,"time":125.25,"velocity":1},{"duration":0.25,"durationTicks":480,"midi":79,"name":"G5","ticks":240960,"time":125.5,"velocity":1},{"duration":0.25,"durationTicks":480,"midi":76,"name":"E5","ticks":240960,"time":125.5,"velocity":1},{"duration":0.5,"durationTicks":960,"midi":79,"name":"G5","ticks":241440,"time":125.75,"velocity":1},{"duration":0.5,"durationTicks":960,"midi":76,"name":"E5","ticks":241440,"time":125.75,"velocity":1},{"duration":0.25,"durationTicks":480,"midi":81,"name":"A5","ticks":242880,"time":126.5,"velocity":1},{"duration":0.25,"durationTicks":480,"midi":78,"name":"F#5","ticks":242880,"time":126.5,"velocity":1},{"duration":0.5,"durationTicks":960,"midi":78,"name":"F#5","ticks":243360,"time":126.75,"velocity":1},{"duration":0.5,"durationTicks":960,"midi":74,"name":"D5","ticks":243360,"time":126.75,"velocity":1},{"duration":0.25,"durationTicks":480,"midi":79,"name":"G5","ticks":244800,"time":127.5,"velocity":1},{"duration":0.25,"durationTicks":480,"midi":76,"name":"E5","ticks":244800,"time":127.5,"velocity":1},{"duration":0.5,"durationTicks":960,"midi":74,"name":"D5","ticks":245280,"time":127.75,"velocity":1},{"duration":0.5,"durationTicks":960,"midi":69,"name":"A4","ticks":245280,"time":127.75,"velocity":1},{"duration":0.5,"durationTicks":960,"midi":76,"name":"E5","ticks":249600,"time":130,"velocity":1},{"duration":0.25,"durationTicks":480,"midi":78,"name":"F#5","ticks":250560,"time":130.5,"velocity":1},{"duration":0.75,"durationTicks":1440,"midi":79,"name":"G5","ticks":251040,"time":130.75,"velocity":1},{"duration":0.5,"durationTicks":960,"midi":76,"name":"E5","ticks":252480,"time":131.5,"velocity":1},{"duration":0.5,"durationTicks":960,"midi":73,"name":"C#5","ticks":253440,"time":132,"velocity":1},{"duration":0.25,"durationTicks":480,"midi":74,"name":"D5","ticks":254400,"time":132.5,"velocity":1},{"duration":0.25,"durationTicks":480,"midi":76,"name":"E5","ticks":254880,"time":132.75,"velocity":1},{"duration":0.25,"durationTicks":480,"midi":69,"name":"A4","ticks":255840,"time":133.25,"velocity":1},{"duration":0.25,"durationTicks":480,"midi":74,"name":"D5","ticks":256320,"time":133.5,"velocity":1},{"duration":0.25,"durationTicks":480,"midi":76,"name":"E5","ticks":256800,"time":133.75,"velocity":1},{"duration":0.25,"durationTicks":480,"midi":77,"name":"F5","ticks":257280,"time":134,"velocity":1},{"duration":0.25,"durationTicks":480,"midi":76,"name":"E5","ticks":257760,"time":134.25,"velocity":1},{"duration":0.25,"durationTicks":480,"midi":74,"name":"D5","ticks":258240,"time":134.5,"velocity":1},{"duration":0.25,"durationTicks":480,"midi":72,"name":"C5","ticks":258720,"time":134.75,"velocity":1},{"duration":0.25,"durationTicks":480,"midi":69,"name":"A4","ticks":260160,"time":135.5,"velocity":1},{"duration":0.25,"durationTicks":480,"midi":70,"name":"A#4","ticks":260640,"time":135.75,"velocity":1},{"duration":0.5,"durationTicks":960,"midi":72,"name":"C5","ticks":261120,"time":136,"velocity":1},{"duration":0.5,"durationTicks":960,"midi":77,"name":"F5","ticks":262080,"time":136.5,"velocity":1},{"duration":0.25,"durationTicks":480,"midi":76,"name":"E5","ticks":263040,"time":137,"velocity":1},{"duration":0.25,"durationTicks":480,"midi":74,"name":"D5","ticks":263520,"time":137.25,"velocity":1},{"duration":0.25,"durationTicks":480,"midi":74,"name":"D5","ticks":264000,"time":137.5,"velocity":1},{"duration":0.25,"durationTicks":480,"midi":72,"name":"C5","ticks":264480,"time":137.75,"velocity":1},{"duration":0.25,"durationTicks":480,"midi":74,"name":"D5","ticks":264960,"time":138,"velocity":1},{"duration":0.25,"durationTicks":480,"midi":72,"name":"C5","ticks":265440,"time":138.25,"velocity":1},{"duration":0.5,"durationTicks":960,"midi":72,"name":"C5","ticks":265920,"time":138.5,"velocity":1},{"duration":0.5,"durationTicks":960,"midi":72,"name":"C5","ticks":266880,"time":139,"velocity":1},{"duration":0.25,"durationTicks":480,"midi":69,"name":"A4","ticks":267840,"time":139.5,"velocity":1},{"duration":0.25,"durationTicks":480,"midi":70,"name":"A#4","ticks":268320,"time":139.75,"velocity":1},{"duration":0.5,"durationTicks":960,"midi":72,"name":"C5","ticks":268800,"time":140,"velocity":1},{"duration":0.5,"durationTicks":960,"midi":77,"name":"F5","ticks":269760,"time":140.5,"velocity":1},{"duration":0.25,"durationTicks":480,"midi":79,"name":"G5","ticks":270720,"time":141,"velocity":1},{"duration":0.25,"durationTicks":480,"midi":77,"name":"F5","ticks":271200,"time":141.25,"velocity":1},{"duration":0.25,"durationTicks":480,"midi":76,"name":"E5","ticks":271680,"time":141.5,"velocity":1},{"duration":0.25,"durationTicks":480,"midi":74,"name":"D5","ticks":272160,"time":141.75,"velocity":1},{"duration":0.25,"durationTicks":480,"midi":74,"name":"D5","ticks":272640,"time":142,"velocity":1},{"duration":0.25,"durationTicks":480,"midi":76,"name":"E5","ticks":273120,"time":142.25,"velocity":1},{"duration":0.5,"durationTicks":960,"midi":77,"name":"F5","ticks":273600,"time":142.5,"velocity":1},{"duration":0.5,"durationTicks":960,"midi":77,"name":"F5","ticks":274560,"time":143,"velocity":1},{"duration":0.25,"durationTicks":480,"midi":79,"name":"G5","ticks":275520,"time":143.5,"velocity":1},{"duration":0.25,"durationTicks":480,"midi":81,"name":"A5","ticks":276000,"time":143.75,"velocity":1},{"duration":0.25,"durationTicks":480,"midi":82,"name":"A#5","ticks":276480,"time":144,"velocity":1},{"duration":0.25,"durationTicks":480,"midi":82,"name":"A#5","ticks":276960,"time":144.25,"velocity":1},{"duration":0.25,"durationTicks":480,"midi":81,"name":"A5","ticks":277440,"time":144.5,"velocity":1},{"duration":0.25,"durationTicks":480,"midi":79,"name":"G5","ticks":277920,"time":144.75,"velocity":1},{"duration":0.5,"durationTicks":960,"midi":79,"name":"G5","ticks":278400,"time":145,"velocity":1},{"duration":0.25,"durationTicks":480,"midi":77,"name":"F5","ticks":279360,"time":145.5,"velocity":1},{"duration":0.25,"durationTicks":480,"midi":79,"name":"G5","ticks":279840,"time":145.75,"velocity":1},{"duration":0.25,"durationTicks":480,"midi":81,"name":"A5","ticks":280320,"time":146,"velocity":1},{"duration":0.25,"durationTicks":480,"midi":81,"name":"A5","ticks":280800,"time":146.25,"velocity":1},{"duration":0.25,"durationTicks":480,"midi":79,"name":"G5","ticks":281280,"time":146.5,"velocity":1},{"duration":0.25,"durationTicks":480,"midi":77,"name":"F5","ticks":281760,"time":146.75,"velocity":1},{"duration":0.5,"durationTicks":960,"midi":77,"name":"F5","ticks":282240,"time":147,"velocity":1},{"duration":0.25,"durationTicks":480,"midi":74,"name":"D5","ticks":283200,"time":147.5,"velocity":1},{"duration":0.25,"durationTicks":480,"midi":72,"name":"C5","ticks":283680,"time":147.75,"velocity":1},{"duration":0.25,"durationTicks":480,"midi":74,"name":"D5","ticks":284160,"time":148,"velocity":1},{"duration":0.25,"durationTicks":480,"midi":77,"name":"F5","ticks":284640,"time":148.25,"velocity":1},{"duration":0.25,"durationTicks":480,"midi":77,"name":"F5","ticks":285120,"time":148.5,"velocity":1},{"duration":0.5,"durationTicks":960,"midi":76,"name":"E5","ticks":285600,"time":148.75,"velocity":1},{"duration":0.25,"durationTicks":480,"midi":76,"name":"E5","ticks":286560,"time":149.25,"velocity":1},{"duration":0.25,"durationTicks":480,"midi":78,"name":"F#5","ticks":287040,"time":149.5,"velocity":1},{"duration":1,"durationTicks":1920,"midi":78,"name":"F#5","ticks":287520,"time":149.75,"velocity":1},{"duration":0.25,"durationTicks":480,"midi":81,"name":"A5","ticks":290880,"time":151.5,"velocity":1},{"duration":0.25,"durationTicks":480,"midi":81,"name":"A5","ticks":291360,"time":151.75,"velocity":1},{"duration":0.25,"durationTicks":480,"midi":83,"name":"B5","ticks":291840,"time":152,"velocity":1},{"duration":0.25,"durationTicks":480,"midi":81,"name":"A5","ticks":292320,"time":152.25,"velocity":1},{"duration":0.25,"durationTicks":480,"midi":78,"name":"F#5","ticks":292800,"time":152.5,"velocity":1},{"duration":0.5,"durationTicks":960,"midi":74,"name":"D5","ticks":293280,"time":152.75,"velocity":1},{"duration":0.25,"durationTicks":480,"midi":79,"name":"G5","ticks":294240,"time":153.25,"velocity":1},{"duration":0.25,"durationTicks":480,"midi":76,"name":"E5","ticks":294240,"time":153.25,"velocity":1},{"duration":0.25,"durationTicks":480,"midi":78,"name":"F#5","ticks":294720,"time":153.5,"velocity":1},{"duration":0.25,"durationTicks":480,"midi":81,"name":"A5","ticks":294720,"time":153.5,"velocity":1},{"duration":0.5,"durationTicks":960,"midi":78,"name":"F#5","ticks":295200,"time":153.75,"velocity":1},{"duration":0.5,"durationTicks":960,"midi":81,"name":"A5","ticks":295200,"time":153.75,"velocity":1},{"duration":0.25,"durationTicks":480,"midi":81,"name":"A5","ticks":298080,"time":155.25,"velocity":1},{"duration":0.25,"durationTicks":480,"midi":81,"name":"A5","ticks":298560,"time":155.5,"velocity":1},{"duration":0.25,"durationTicks":480,"midi":81,"name":"A5","ticks":299040,"time":155.75,"velocity":1},{"duration":0.25,"durationTicks":480,"midi":83,"name":"B5","ticks":299520,"time":156,"velocity":1},{"duration":0.25,"durationTicks":480,"midi":81,"name":"A5","ticks":300000,"time":156.25,"velocity":1},{"duration":0.25,"durationTicks":480,"midi":78,"name":"F#5","ticks":300480,"time":156.5,"velocity":1},{"duration":0.5,"durationTicks":960,"midi":74,"name":"D5","ticks":300960,"time":156.75,"velocity":1},{"duration":0.25,"durationTicks":480,"midi":79,"name":"G5","ticks":301920,"time":157.25,"velocity":1},{"duration":0.25,"durationTicks":480,"midi":76,"name":"E5","ticks":301920,"time":157.25,"velocity":1},{"duration":0.25,"durationTicks":480,"midi":81,"name":"A5","ticks":302400,"time":157.5,"velocity":1},{"duration":0.25,"durationTicks":480,"midi":78,"name":"F#5","ticks":302400,"time":157.5,"velocity":1},{"duration":0.5,"durationTicks":960,"midi":81,"name":"A5","ticks":302880,"time":157.75,"velocity":1},{"duration":0.5,"durationTicks":960,"midi":78,"name":"F#5","ticks":302880,"time":157.75,"velocity":1},{"duration":0.25,"durationTicks":480,"midi":81,"name":"A5","ticks":305760,"time":159.25,"velocity":1},{"duration":0.25,"durationTicks":480,"midi":81,"name":"A5","ticks":306240,"time":159.5,"velocity":1},{"duration":0.25,"durationTicks":480,"midi":81,"name":"A5","ticks":306720,"time":159.75,"velocity":1},{"duration":0.25,"durationTicks":480,"midi":83,"name":"B5","ticks":307200,"time":160,"velocity":1},{"duration":0.25,"durationTicks":480,"midi":81,"name":"A5","ticks":307680,"time":160.25,"velocity":1},{"duration":0.25,"durationTicks":480,"midi":78,"name":"F#5","ticks":308160,"time":160.5,"velocity":1},{"duration":0.5,"durationTicks":960,"midi":74,"name":"D5","ticks":308640,"time":160.75,"velocity":1},{"duration":0.25,"durationTicks":480,"midi":79,"name":"G5","ticks":309600,"time":161.25,"velocity":1},{"duration":0.25,"durationTicks":480,"midi":76,"name":"E5","ticks":309600,"time":161.25,"velocity":1},{"duration":0.25,"durationTicks":480,"midi":81,"name":"A5","ticks":310080,"time":161.5,"velocity":1},{"duration":0.25,"durationTicks":480,"midi":78,"name":"F#5","ticks":310080,"time":161.5,"velocity":1},{"duration":0.5,"durationTicks":960,"midi":81,"name":"A5","ticks":310560,"time":161.75,"velocity":1},{"duration":0.5,"durationTicks":960,"midi":78,"name":"F#5","ticks":310560,"time":161.75,"velocity":1},{"duration":0.25,"durationTicks":480,"midi":81,"name":"A5","ticks":313920,"time":163.5,"velocity":1},{"duration":0.25,"durationTicks":480,"midi":81,"name":"A5","ticks":314400,"time":163.75,"velocity":1},{"duration":0.25,"durationTicks":480,"midi":83,"name":"B5","ticks":314880,"time":164,"velocity":1},{"duration":0.25,"durationTicks":480,"midi":81,"name":"A5","ticks":315360,"time":164.25,"velocity":1},{"duration":0.25,"durationTicks":480,"midi":78,"name":"F#5","ticks":315840,"time":164.5,"velocity":1},{"duration":0.5,"durationTicks":960,"midi":74,"name":"D5","ticks":316320,"time":164.75,"velocity":1},{"duration":0.25,"durationTicks":480,"midi":79,"name":"G5","ticks":317280,"time":165.25,"velocity":1},{"duration":0.25,"durationTicks":480,"midi":76,"name":"E5","ticks":317280,"time":165.25,"velocity":1},{"duration":0.25,"durationTicks":480,"midi":81,"name":"A5","ticks":317760,"time":165.5,"velocity":1},{"duration":0.25,"durationTicks":480,"midi":78,"name":"F#5","ticks":317760,"time":165.5,"velocity":1},{"duration":0.5,"durationTicks":960,"midi":81,"name":"A5","ticks":318240,"time":165.75,"velocity":1},{"duration":0.5,"durationTicks":960,"midi":78,"name":"F#5","ticks":318240,"time":165.75,"velocity":1},{"duration":0.25,"durationTicks":480,"midi":81,"name":"A5","ticks":321120,"time":167.25,"velocity":1},{"duration":0.25,"durationTicks":480,"midi":81,"name":"A5","ticks":321600,"time":167.5,"velocity":1},{"duration":0.25,"durationTicks":480,"midi":81,"name":"A5","ticks":322080,"time":167.75,"velocity":1},{"duration":0.25,"durationTicks":480,"midi":83,"name":"B5","ticks":322560,"time":168,"velocity":1},{"duration":0.25,"durationTicks":480,"midi":81,"name":"A5","ticks":323040,"time":168.25,"velocity":1},{"duration":0.25,"durationTicks":480,"midi":78,"name":"F#5","ticks":323520,"time":168.5,"velocity":1},{"duration":0.5,"durationTicks":960,"midi":74,"name":"D5","ticks":324000,"time":168.75,"velocity":1},{"duration":0.25,"durationTicks":480,"midi":79,"name":"G5","ticks":324960,"time":169.25,"velocity":1},{"duration":0.25,"durationTicks":480,"midi":76,"name":"E5","ticks":324960,"time":169.25,"velocity":1},{"duration":0.25,"durationTicks":480,"midi":81,"name":"A5","ticks":325440,"time":169.5,"velocity":1},{"duration":0.25,"durationTicks":480,"midi":78,"name":"F#5","ticks":325440,"time":169.5,"velocity":1},{"duration":0.5,"durationTicks":960,"midi":81,"name":"A5","ticks":325920,"time":169.75,"velocity":1},{"duration":0.5,"durationTicks":960,"midi":78,"name":"F#5","ticks":325920,"time":169.75,"velocity":1},{"duration":0.25,"durationTicks":480,"midi":79,"name":"G5","ticks":328800,"time":171.25,"velocity":1},{"duration":0.25,"durationTicks":480,"midi":81,"name":"A5","ticks":329280,"time":171.5,"velocity":1},{"duration":0.5,"durationTicks":960,"midi":81,"name":"A5","ticks":329760,"time":171.75,"velocity":1},{"duration":0.25,"durationTicks":480,"midi":79,"name":"G5","ticks":332640,"time":173.25,"velocity":1},{"duration":0.25,"durationTicks":480,"midi":78,"name":"F#5","ticks":333120,"time":173.5,"velocity":1},{"duration":0.5,"durationTicks":960,"midi":78,"name":"F#5","ticks":333600,"time":173.75,"velocity":1}]},{"channel":1,"controlChanges":{"7":[{"number":7,"ticks":0,"time":0,"value":0.7480314960629921}],"10":[{"number":10,"ticks":0,"time":0,"value":0.10236220472440945}]},"pitchBends":[],"instrument":{"family":"strings","number":46,"name":"orchestral harp"},"name":"Guitar 1","notes":[{"duration":0.25,"durationTicks":480,"midi":57,"name":"A3","ticks":3840,"time":2,"velocity":1},{"duration":0.25,"durationTicks":480,"midi":62,"name":"D4","ticks":4320,"time":2.25,"velocity":1},{"duration":0.25,"durationTicks":480,"midi":66,"name":"F#4","ticks":4800,"time":2.5,"velocity":1},{"duration":0.25,"durationTicks":480,"midi":62,"name":"D4","ticks":5280,"time":2.75,"velocity":1},{"duration":0.25,"durationTicks":480,"midi":59,"name":"B3","ticks":5760,"time":3,"velocity":1},{"duration":0.25,"durationTicks":480,"midi":62,"name":"D4","ticks":6240,"time":3.25,"velocity":1},{"duration":0.25,"durationTicks":480,"midi":66,"name":"F#4","ticks":6720,"time":3.5,"velocity":1},{"duration":0.25,"durationTicks":480,"midi":62,"name":"D4","ticks":7200,"time":3.75,"velocity":1},{"duration":0.25,"durationTicks":480,"midi":57,"name":"A3","ticks":7680,"time":4,"velocity":1},{"duration":0.25,"durationTicks":480,"midi":62,"name":"D4","ticks":8160,"time":4.25,"velocity":1},{"duration":0.25,"durationTicks":480,"midi":66,"name":"F#4","ticks":8640,"time":4.5,"velocity":1},{"duration":0.25,"durationTicks":480,"midi":62,"name":"D4","ticks":9120,"time":4.75,"velocity":1},{"duration":0.25,"durationTicks":480,"midi":59,"name":"B3","ticks":9600,"time":5,"velocity":1},{"duration":0.25,"durationTicks":480,"midi":62,"name":"D4","ticks":10080,"time":5.25,"velocity":1},{"duration":0.25,"durationTicks":480,"midi":66,"name":"F#4","ticks":10560,"time":5.5,"velocity":1},{"duration":0.25,"durationTicks":480,"midi":62,"name":"D4","ticks":11040,"time":5.75,"velocity":1},{"duration":0.25,"durationTicks":480,"midi":57,"name":"A3","ticks":11520,"time":6,"velocity":1},{"duration":0.25,"durationTicks":480,"midi":62,"name":"D4","ticks":12000,"time":6.25,"velocity":1},{"duration":0.25,"durationTicks":480,"midi":66,"name":"F#4","ticks":12480,"time":6.5,"velocity":1},{"duration":0.25,"durationTicks":480,"midi":62,"name":"D4","ticks":12960,"time":6.75,"velocity":1},{"duration":0.25,"durationTicks":480,"midi":59,"name":"B3","ticks":13440,"time":7,"velocity":1},{"duration":0.25,"durationTicks":480,"midi":62,"name":"D4","ticks":13920,"time":7.25,"velocity":1},{"duration":0.25,"durationTicks":480,"midi":66,"name":"F#4","ticks":14400,"time":7.5,"velocity":1},{"duration":0.25,"durationTicks":480,"midi":62,"name":"D4","ticks":14880,"time":7.75,"velocity":1},{"duration":0.25,"durationTicks":480,"midi":57,"name":"A3","ticks":15360,"time":8,"velocity":1},{"duration":0.25,"durationTicks":480,"midi":62,"name":"D4","ticks":15840,"time":8.25,"velocity":1},{"duration":0.25,"durationTicks":480,"midi":66,"name":"F#4","ticks":16320,"time":8.5,"velocity":1},{"duration":0.25,"durationTicks":480,"midi":62,"name":"D4","ticks":16800,"time":8.75,"velocity":1},{"duration":0.25,"durationTicks":480,"midi":59,"name":"B3","ticks":17280,"time":9,"velocity":1},{"duration":0.25,"durationTicks":480,"midi":62,"name":"D4","ticks":17760,"time":9.25,"velocity":1},{"duration":0.25,"durationTicks":480,"midi":66,"name":"F#4","ticks":18240,"time":9.5,"velocity":1},{"duration":0.25,"durationTicks":480,"midi":62,"name":"D4","ticks":18720,"time":9.75,"velocity":1},{"duration":0.25,"durationTicks":480,"midi":59,"name":"B3","ticks":19200,"time":10,"velocity":1},{"duration":0.25,"durationTicks":480,"midi":64,"name":"E4","ticks":19680,"time":10.25,"velocity":1},{"duration":0.25,"durationTicks":480,"midi":67,"name":"G4","ticks":20160,"time":10.5,"velocity":1},{"duration":0.25,"durationTicks":480,"midi":64,"name":"E4","ticks":20640,"time":10.75,"velocity":1},{"duration":0.25,"durationTicks":480,"midi":59,"name":"B3","ticks":21120,"time":11,"velocity":1},{"duration":0.25,"durationTicks":480,"midi":64,"name":"E4","ticks":21600,"time":11.25,"velocity":1},{"duration":0.25,"durationTicks":480,"midi":67,"name":"G4","ticks":22080,"time":11.5,"velocity":1},{"duration":0.25,"durationTicks":480,"midi":64,"name":"E4","ticks":22560,"time":11.75,"velocity":1},{"duration":0.25,"durationTicks":480,"midi":57,"name":"A3","ticks":23040,"time":12,"velocity":1},{"duration":0.25,"durationTicks":480,"midi":61,"name":"C#4","ticks":23520,"time":12.25,"velocity":1},{"duration":0.25,"durationTicks":480,"midi":67,"name":"G4","ticks":24000,"time":12.5,"velocity":1},{"duration":0.25,"durationTicks":480,"midi":61,"name":"C#4","ticks":24480,"time":12.75,"velocity":1},{"duration":0.25,"durationTicks":480,"midi":57,"name":"A3","ticks":24960,"time":13,"velocity":1},{"duration":0.25,"durationTicks":480,"midi":61,"name":"C#4","ticks":25440,"time":13.25,"velocity":1},{"duration":0.25,"durationTicks":480,"midi":67,"name":"G4","ticks":25920,"time":13.5,"velocity":1},{"duration":0.25,"durationTicks":480,"midi":61,"name":"C#4","ticks":26400,"time":13.75,"velocity":1},{"duration":0.25,"durationTicks":480,"midi":57,"name":"A3","ticks":26880,"time":14,"velocity":1},{"duration":0.25,"durationTicks":480,"midi":62,"name":"D4","ticks":27360,"time":14.25,"velocity":1},{"duration":0.25,"durationTicks":480,"midi":66,"name":"F#4","ticks":27840,"time":14.5,"velocity":1},{"duration":0.25,"durationTicks":480,"midi":62,"name":"D4","ticks":28320,"time":14.75,"velocity":1},{"duration":0.25,"durationTicks":480,"midi":59,"name":"B3","ticks":28800,"time":15,"velocity":1},{"duration":0.25,"durationTicks":480,"midi":62,"name":"D4","ticks":29280,"time":15.25,"velocity":1},{"duration":0.25,"durationTicks":480,"midi":66,"name":"F#4","ticks":29760,"time":15.5,"velocity":1},{"duration":0.25,"durationTicks":480,"midi":62,"name":"D4","ticks":30240,"time":15.75,"velocity":1},{"duration":0.25,"durationTicks":480,"midi":57,"name":"A3","ticks":30720,"time":16,"velocity":1},{"duration":0.25,"durationTicks":480,"midi":62,"name":"D4","ticks":31200,"time":16.25,"velocity":1},{"duration":0.25,"durationTicks":480,"midi":66,"name":"F#4","ticks":31680,"time":16.5,"velocity":1},{"duration":0.25,"durationTicks":480,"midi":62,"name":"D4","ticks":32160,"time":16.75,"velocity":1},{"duration":0.25,"durationTicks":480,"midi":59,"name":"B3","ticks":32640,"time":17,"velocity":1},{"duration":0.25,"durationTicks":480,"midi":62,"name":"D4","ticks":33120,"time":17.25,"velocity":1},{"duration":0.25,"durationTicks":480,"midi":66,"name":"F#4","ticks":33600,"time":17.5,"velocity":1},{"duration":0.25,"durationTicks":480,"midi":62,"name":"D4","ticks":34080,"time":17.75,"velocity":1},{"duration":0.25,"durationTicks":480,"midi":57,"name":"A3","ticks":34560,"time":18,"velocity":1},{"duration":0.25,"durationTicks":480,"midi":62,"name":"D4","ticks":35040,"time":18.25,"velocity":1},{"duration":0.25,"durationTicks":480,"midi":66,"name":"F#4","ticks":35520,"time":18.5,"velocity":1},{"duration":0.25,"durationTicks":480,"midi":62,"name":"D4","ticks":36000,"time":18.75,"velocity":1},{"duration":0.25,"durationTicks":480,"midi":59,"name":"B3","ticks":36480,"time":19,"velocity":1},{"duration":0.25,"durationTicks":480,"midi":62,"name":"D4","ticks":36960,"time":19.25,"velocity":1},{"duration":0.25,"durationTicks":480,"midi":66,"name":"F#4","ticks":37440,"time":19.5,"velocity":1},{"duration":0.25,"durationTicks":480,"midi":62,"name":"D4","ticks":37920,"time":19.75,"velocity":1},{"duration":0.25,"durationTicks":480,"midi":57,"name":"A3","ticks":38400,"time":20,"velocity":1},{"duration":0.25,"durationTicks":480,"midi":62,"name":"D4","ticks":38880,"time":20.25,"velocity":1},{"duration":0.25,"durationTicks":480,"midi":66,"name":"F#4","ticks":39360,"time":20.5,"velocity":1},{"duration":0.25,"durationTicks":480,"midi":62,"name":"D4","ticks":39840,"time":20.75,"velocity":1},{"duration":0.25,"durationTicks":480,"midi":59,"name":"B3","ticks":40320,"time":21,"velocity":1},{"duration":0.25,"durationTicks":480,"midi":62,"name":"D4","ticks":40800,"time":21.25,"velocity":1},{"duration":0.25,"durationTicks":480,"midi":66,"name":"F#4","ticks":41280,"time":21.5,"velocity":1},{"duration":0.25,"durationTicks":480,"midi":62,"name":"D4","ticks":41760,"time":21.75,"velocity":1},{"duration":0.25,"durationTicks":480,"midi":57,"name":"A3","ticks":42240,"time":22,"velocity":1},{"duration":0.25,"durationTicks":480,"midi":62,"name":"D4","ticks":42720,"time":22.25,"velocity":1},{"duration":0.25,"durationTicks":480,"midi":66,"name":"F#4","ticks":43200,"time":22.5,"velocity":1},{"duration":0.25,"durationTicks":480,"midi":62,"name":"D4","ticks":43680,"time":22.75,"velocity":1},{"duration":0.25,"durationTicks":480,"midi":59,"name":"B3","ticks":44160,"time":23,"velocity":1},{"duration":0.25,"durationTicks":480,"midi":62,"name":"D4","ticks":44640,"time":23.25,"velocity":1},{"duration":0.25,"durationTicks":480,"midi":66,"name":"F#4","ticks":45120,"time":23.5,"velocity":1},{"duration":0.25,"durationTicks":480,"midi":62,"name":"D4","ticks":45600,"time":23.75,"velocity":1},{"duration":0.25,"durationTicks":480,"midi":57,"name":"A3","ticks":46080,"time":24,"velocity":1},{"duration":0.25,"durationTicks":480,"midi":62,"name":"D4","ticks":46560,"time":24.25,"velocity":1},{"duration":0.25,"durationTicks":480,"midi":66,"name":"F#4","ticks":47040,"time":24.5,"velocity":1},{"duration":0.25,"durationTicks":480,"midi":62,"name":"D4","ticks":47520,"time":24.75,"velocity":1},{"duration":0.25,"durationTicks":480,"midi":59,"name":"B3","ticks":48000,"time":25,"velocity":1},{"duration":0.25,"durationTicks":480,"midi":62,"name":"D4","ticks":48480,"time":25.25,"velocity":1},{"duration":0.25,"durationTicks":480,"midi":66,"name":"F#4","ticks":48960,"time":25.5,"velocity":1},{"duration":0.25,"durationTicks":480,"midi":62,"name":"D4","ticks":49440,"time":25.75,"velocity":1},{"duration":0.25,"durationTicks":480,"midi":59,"name":"B3","ticks":49920,"time":26,"velocity":1},{"duration":0.25,"durationTicks":480,"midi":64,"name":"E4","ticks":50400,"time":26.25,"velocity":1},{"duration":0.25,"durationTicks":480,"midi":67,"name":"G4","ticks":50880,"time":26.5,"velocity":1},{"duration":0.25,"durationTicks":480,"midi":64,"name":"E4","ticks":51360,"time":26.75,"velocity":1},{"duration":0.25,"durationTicks":480,"midi":59,"name":"B3","ticks":51840,"time":27,"velocity":1},{"duration":0.25,"durationTicks":480,"midi":64,"name":"E4","ticks":52320,"time":27.25,"velocity":1},{"duration":0.25,"durationTicks":480,"midi":67,"name":"G4","ticks":52800,"time":27.5,"velocity":1},{"duration":0.25,"durationTicks":480,"midi":64,"name":"E4","ticks":53280,"time":27.75,"velocity":1},{"duration":0.25,"durationTicks":480,"midi":57,"name":"A3","ticks":53760,"time":28,"velocity":1},{"duration":0.25,"durationTicks":480,"midi":61,"name":"C#4","ticks":54240,"time":28.25,"velocity":1},{"duration":0.25,"durationTicks":480,"midi":67,"name":"G4","ticks":54720,"time":28.5,"velocity":1},{"duration":0.25,"durationTicks":480,"midi":61,"name":"C#4","ticks":55200,"time":28.75,"velocity":1},{"duration":0.25,"durationTicks":480,"midi":57,"name":"A3","ticks":55680,"time":29,"velocity":1},{"duration":0.25,"durationTicks":480,"midi":61,"name":"C#4","ticks":56160,"time":29.25,"velocity":1},{"duration":0.25,"durationTicks":480,"midi":67,"name":"G4","ticks":56640,"time":29.5,"velocity":1},{"duration":0.25,"durationTicks":480,"midi":61,"name":"C#4","ticks":57120,"time":29.75,"velocity":1},{"duration":0.25,"durationTicks":480,"midi":58,"name":"A#3","ticks":57600,"time":30,"velocity":1},{"duration":0.25,"durationTicks":480,"midi":62,"name":"D4","ticks":58080,"time":30.25,"velocity":1},{"duration":0.25,"durationTicks":480,"midi":65,"name":"F4","ticks":58560,"time":30.5,"velocity":1},{"duration":1,"durationTicks":1920,"midi":69,"name":"A4","ticks":59040,"time":30.75,"velocity":1},{"duration":0.25,"durationTicks":480,"midi":60,"name":"C4","ticks":61440,"time":32,"velocity":1},{"duration":0.25,"durationTicks":480,"midi":65,"name":"F4","ticks":61440,"time":32,"velocity":1},{"duration":0.25,"durationTicks":480,"midi":69,"name":"A4","ticks":61920,"time":32.25,"velocity":1},{"duration":0.25,"durationTicks":480,"midi":60,"name":"C4","ticks":62400,"time":32.5,"velocity":1},{"duration":0.25,"durationTicks":480,"midi":65,"name":"F4","ticks":62400,"time":32.5,"velocity":1},{"duration":0.25,"durationTicks":480,"midi":60,"name":"C4","ticks":63360,"time":33,"velocity":1},{"duration":0.25,"durationTicks":480,"midi":64,"name":"E4","ticks":63360,"time":33,"velocity":1},{"duration":0.25,"durationTicks":480,"midi":67,"name":"G4","ticks":63840,"time":33.25,"velocity":1},{"duration":0.25,"durationTicks":480,"midi":60,"name":"C4","ticks":64320,"time":33.5,"velocity":1},{"duration":0.25,"durationTicks":480,"midi":64,"name":"E4","ticks":64320,"time":33.5,"velocity":1},{"duration":0.25,"durationTicks":480,"midi":58,"name":"A#3","ticks":65280,"time":34,"velocity":1},{"duration":0.25,"durationTicks":480,"midi":62,"name":"D4","ticks":65280,"time":34,"velocity":1},{"duration":0.25,"durationTicks":480,"midi":70,"name":"A#4","ticks":65760,"time":34.25,"velocity":1},{"duration":0.25,"durationTicks":480,"midi":58,"name":"A#3","ticks":66240,"time":34.5,"velocity":1},{"duration":0.25,"durationTicks":480,"midi":62,"name":"D4","ticks":66240,"time":34.5,"velocity":1},{"duration":0.25,"durationTicks":480,"midi":64,"name":"E4","ticks":66720,"time":34.75,"velocity":1},{"duration":0.25,"durationTicks":480,"midi":60,"name":"C4","ticks":67200,"time":35,"velocity":1},{"duration":0.25,"durationTicks":480,"midi":65,"name":"F4","ticks":67200,"time":35,"velocity":1},{"duration":0.25,"durationTicks":480,"midi":69,"name":"A4","ticks":67680,"time":35.25,"velocity":1},{"duration":0.25,"durationTicks":480,"midi":60,"name":"C4","ticks":68160,"time":35.5,"velocity":1},{"duration":0.25,"durationTicks":480,"midi":65,"name":"F4","ticks":68160,"time":35.5,"velocity":1},{"duration":0.25,"durationTicks":480,"midi":60,"name":"C4","ticks":69120,"time":36,"velocity":1},{"duration":0.25,"durationTicks":480,"midi":65,"name":"F4","ticks":69120,"time":36,"velocity":1},{"duration":0.25,"durationTicks":480,"midi":69,"name":"A4","ticks":69600,"time":36.25,"velocity":1},{"duration":0.25,"durationTicks":480,"midi":60,"name":"C4","ticks":70080,"time":36.5,"velocity":1},{"duration":0.25,"durationTicks":480,"midi":65,"name":"F4","ticks":70080,"time":36.5,"velocity":1},{"duration":0.25,"durationTicks":480,"midi":60,"name":"C4","ticks":71040,"time":37,"velocity":1},{"duration":0.25,"durationTicks":480,"midi":64,"name":"E4","ticks":71040,"time":37,"velocity":1},{"duration":0.25,"durationTicks":480,"midi":67,"name":"G4","ticks":71520,"time":37.25,"velocity":1},{"duration":0.25,"durationTicks":480,"midi":60,"name":"C4","ticks":72000,"time":37.5,"velocity":1},{"duration":0.25,"durationTicks":480,"midi":64,"name":"E4","ticks":72000,"time":37.5,"velocity":1},{"duration":0.25,"durationTicks":480,"midi":58,"name":"A#3","ticks":72960,"time":38,"velocity":1},{"duration":0.25,"durationTicks":480,"midi":62,"name":"D4","ticks":72960,"time":38,"velocity":1},{"duration":0.25,"durationTicks":480,"midi":70,"name":"A#4","ticks":73440,"time":38.25,"velocity":1},{"duration":0.25,"durationTicks":480,"midi":58,"name":"A#3","ticks":73920,"time":38.5,"velocity":1},{"duration":0.25,"durationTicks":480,"midi":62,"name":"D4","ticks":73920,"time":38.5,"velocity":1},{"duration":0.25,"durationTicks":480,"midi":64,"name":"E4","ticks":74400,"time":38.75,"velocity":1},{"duration":0.25,"durationTicks":480,"midi":60,"name":"C4","ticks":74880,"time":39,"velocity":1},{"duration":0.25,"durationTicks":480,"midi":65,"name":"F4","ticks":74880,"time":39,"velocity":1},{"duration":0.25,"durationTicks":480,"midi":69,"name":"A4","ticks":75360,"time":39.25,"velocity":1},{"duration":0.25,"durationTicks":480,"midi":60,"name":"C4","ticks":75840,"time":39.5,"velocity":1},{"duration":0.25,"durationTicks":480,"midi":65,"name":"F4","ticks":75840,"time":39.5,"velocity":1},{"duration":0.25,"durationTicks":480,"midi":58,"name":"A#3","ticks":76800,"time":40,"velocity":1},{"duration":0.25,"durationTicks":480,"midi":62,"name":"D4","ticks":76800,"time":40,"velocity":1},{"duration":0.25,"durationTicks":480,"midi":67,"name":"G4","ticks":77280,"time":40.25,"velocity":1},{"duration":0.25,"durationTicks":480,"midi":58,"name":"A#3","ticks":77760,"time":40.5,"velocity":1},{"duration":0.25,"durationTicks":480,"midi":62,"name":"D4","ticks":77760,"time":40.5,"velocity":1},{"duration":0.25,"durationTicks":480,"midi":67,"name":"G4","ticks":78240,"time":40.75,"velocity":1},{"duration":0.25,"durationTicks":480,"midi":60,"name":"C4","ticks":78720,"time":41,"velocity":1},{"duration":0.25,"durationTicks":480,"midi":64,"name":"E4","ticks":78720,"time":41,"velocity":1},{"duration":0.25,"durationTicks":480,"midi":67,"name":"G4","ticks":79200,"time":41.25,"velocity":1},{"duration":0.25,"durationTicks":480,"midi":60,"name":"C4","ticks":79680,"time":41.5,"velocity":1},{"duration":0.25,"durationTicks":480,"midi":64,"name":"E4","ticks":79680,"time":41.5,"velocity":1},{"duration":0.25,"durationTicks":480,"midi":67,"name":"G4","ticks":80160,"time":41.75,"velocity":1},{"duration":0.25,"durationTicks":480,"midi":60,"name":"C4","ticks":80640,"time":42,"velocity":1},{"duration":0.25,"durationTicks":480,"midi":65,"name":"F4","ticks":80640,"time":42,"velocity":1},{"duration":0.25,"durationTicks":480,"midi":69,"name":"A4","ticks":81120,"time":42.25,"velocity":1},{"duration":0.25,"durationTicks":480,"midi":60,"name":"C4","ticks":81600,"time":42.5,"velocity":1},{"duration":0.25,"durationTicks":480,"midi":65,"name":"F4","ticks":81600,"time":42.5,"velocity":1},{"duration":0.25,"durationTicks":480,"midi":69,"name":"A4","ticks":82080,"time":42.75,"velocity":1},{"duration":0.25,"durationTicks":480,"midi":62,"name":"D4","ticks":82560,"time":43,"velocity":1},{"duration":0.25,"durationTicks":480,"midi":65,"name":"F4","ticks":82560,"time":43,"velocity":1},{"duration":0.25,"durationTicks":480,"midi":69,"name":"A4","ticks":83040,"time":43.25,"velocity":1},{"duration":0.25,"durationTicks":480,"midi":62,"name":"D4","ticks":83520,"time":43.5,"velocity":1},{"duration":0.25,"durationTicks":480,"midi":65,"name":"F4","ticks":83520,"time":43.5,"velocity":1},{"duration":0.25,"durationTicks":480,"midi":69,"name":"A4","ticks":84000,"time":43.75,"velocity":1},{"duration":0.25,"durationTicks":480,"midi":58,"name":"A#3","ticks":84480,"time":44,"velocity":1},{"duration":0.25,"durationTicks":480,"midi":62,"name":"D4","ticks":84480,"time":44,"velocity":1},{"duration":0.25,"durationTicks":480,"midi":67,"name":"G4","ticks":84960,"time":44.25,"velocity":1},{"duration":0.25,"durationTicks":480,"midi":58,"name":"A#3","ticks":85440,"time":44.5,"velocity":1},{"duration":0.25,"durationTicks":480,"midi":62,"name":"D4","ticks":85440,"time":44.5,"velocity":1},{"duration":0.25,"durationTicks":480,"midi":67,"name":"G4","ticks":85920,"time":44.75,"velocity":1},{"duration":0.25,"durationTicks":480,"midi":57,"name":"A3","ticks":86400,"time":45,"velocity":1},{"duration":0.25,"durationTicks":480,"midi":61,"name":"C#4","ticks":86400,"time":45,"velocity":1},{"duration":0.25,"durationTicks":480,"midi":67,"name":"G4","ticks":86880,"time":45.25,"velocity":1},{"duration":0.25,"durationTicks":480,"midi":57,"name":"A3","ticks":87360,"time":45.5,"velocity":1},{"duration":0.25,"durationTicks":480,"midi":61,"name":"C#4","ticks":87360,"time":45.5,"velocity":1},{"duration":0.25,"durationTicks":480,"midi":67,"name":"G4","ticks":87840,"time":45.75,"velocity":1},{"duration":0.25,"durationTicks":480,"midi":57,"name":"A3","ticks":88320,"time":46,"velocity":1},{"duration":0.25,"durationTicks":480,"midi":62,"name":"D4","ticks":88800,"time":46.25,"velocity":1},{"duration":0.25,"durationTicks":480,"midi":66,"name":"F#4","ticks":89280,"time":46.5,"velocity":1},{"duration":0.25,"durationTicks":480,"midi":62,"name":"D4","ticks":89760,"time":46.75,"velocity":1},{"duration":0.25,"durationTicks":480,"midi":59,"name":"B3","ticks":90240,"time":47,"velocity":1},{"duration":0.25,"durationTicks":480,"midi":62,"name":"D4","ticks":90720,"time":47.25,"velocity":1},{"duration":0.25,"durationTicks":480,"midi":66,"name":"F#4","ticks":91200,"time":47.5,"velocity":1},{"duration":0.25,"durationTicks":480,"midi":62,"name":"D4","ticks":91680,"time":47.75,"velocity":1},{"duration":0.25,"durationTicks":480,"midi":57,"name":"A3","ticks":92160,"time":48,"velocity":1},{"duration":0.25,"durationTicks":480,"midi":62,"name":"D4","ticks":92640,"time":48.25,"velocity":1},{"duration":0.25,"durationTicks":480,"midi":66,"name":"F#4","ticks":93120,"time":48.5,"velocity":1},{"duration":0.25,"durationTicks":480,"midi":62,"name":"D4","ticks":93600,"time":48.75,"velocity":1},{"duration":0.25,"durationTicks":480,"midi":59,"name":"B3","ticks":94080,"time":49,"velocity":1},{"duration":0.25,"durationTicks":480,"midi":62,"name":"D4","ticks":94560,"time":49.25,"velocity":1},{"duration":0.25,"durationTicks":480,"midi":66,"name":"F#4","ticks":95040,"time":49.5,"velocity":1},{"duration":0.25,"durationTicks":480,"midi":62,"name":"D4","ticks":95520,"time":49.75,"velocity":1},{"duration":0.25,"durationTicks":480,"midi":57,"name":"A3","ticks":96000,"time":50,"velocity":1},{"duration":0.25,"durationTicks":480,"midi":62,"name":"D4","ticks":96480,"time":50.25,"velocity":1},{"duration":0.25,"durationTicks":480,"midi":66,"name":"F#4","ticks":96960,"time":50.5,"velocity":1},{"duration":0.25,"durationTicks":480,"midi":62,"name":"D4","ticks":97440,"time":50.75,"velocity":1},{"duration":0.25,"durationTicks":480,"midi":59,"name":"B3","ticks":97920,"time":51,"velocity":1},{"duration":0.25,"durationTicks":480,"midi":62,"name":"D4","ticks":98400,"time":51.25,"velocity":1},{"duration":0.25,"durationTicks":480,"midi":66,"name":"F#4","ticks":98880,"time":51.5,"velocity":1},{"duration":0.25,"durationTicks":480,"midi":62,"name":"D4","ticks":99360,"time":51.75,"velocity":1},{"duration":0.25,"durationTicks":480,"midi":57,"name":"A3","ticks":99840,"time":52,"velocity":1},{"duration":0.25,"durationTicks":480,"midi":62,"name":"D4","ticks":100320,"time":52.25,"velocity":1},{"duration":0.25,"durationTicks":480,"midi":66,"name":"F#4","ticks":100800,"time":52.5,"velocity":1},{"duration":0.25,"durationTicks":480,"midi":62,"name":"D4","ticks":101280,"time":52.75,"velocity":1},{"duration":0.25,"durationTicks":480,"midi":59,"name":"B3","ticks":101760,"time":53,"velocity":1},{"duration":0.25,"durationTicks":480,"midi":62,"name":"D4","ticks":102240,"time":53.25,"velocity":1},{"duration":0.25,"durationTicks":480,"midi":66,"name":"F#4","ticks":102720,"time":53.5,"velocity":1},{"duration":0.25,"durationTicks":480,"midi":62,"name":"D4","ticks":103200,"time":53.75,"velocity":1},{"duration":0.25,"durationTicks":480,"midi":57,"name":"A3","ticks":103680,"time":54,"velocity":1},{"duration":0.25,"durationTicks":480,"midi":62,"name":"D4","ticks":104160,"time":54.25,"velocity":1},{"duration":0.25,"durationTicks":480,"midi":66,"name":"F#4","ticks":104640,"time":54.5,"velocity":1},{"duration":0.25,"durationTicks":480,"midi":62,"name":"D4","ticks":105120,"time":54.75,"velocity":1},{"duration":0.25,"durationTicks":480,"midi":59,"name":"B3","ticks":105600,"time":55,"velocity":1},{"duration":0.25,"durationTicks":480,"midi":62,"name":"D4","ticks":106080,"time":55.25,"velocity":1},{"duration":0.25,"durationTicks":480,"midi":66,"name":"F#4","ticks":106560,"time":55.5,"velocity":1},{"duration":0.25,"durationTicks":480,"midi":62,"name":"D4","ticks":107040,"time":55.75,"velocity":1},{"duration":0.25,"durationTicks":480,"midi":57,"name":"A3","ticks":107520,"time":56,"velocity":1},{"duration":0.25,"durationTicks":480,"midi":62,"name":"D4","ticks":108000,"time":56.25,"velocity":1},{"duration":0.25,"durationTicks":480,"midi":66,"name":"F#4","ticks":108480,"time":56.5,"velocity":1},{"duration":0.25,"durationTicks":480,"midi":62,"name":"D4","ticks":108960,"time":56.75,"velocity":1},{"duration":0.25,"durationTicks":480,"midi":59,"name":"B3","ticks":109440,"time":57,"velocity":1},{"duration":0.25,"durationTicks":480,"midi":62,"name":"D4","ticks":109920,"time":57.25,"velocity":1},{"duration":0.25,"durationTicks":480,"midi":66,"name":"F#4","ticks":110400,"time":57.5,"velocity":1},{"duration":0.25,"durationTicks":480,"midi":62,"name":"D4","ticks":110880,"time":57.75,"velocity":1},{"duration":0.25,"durationTicks":480,"midi":57,"name":"A3","ticks":111360,"time":58,"velocity":1},{"duration":0.25,"durationTicks":480,"midi":62,"name":"D4","ticks":111840,"time":58.25,"velocity":1},{"duration":0.25,"durationTicks":480,"midi":66,"name":"F#4","ticks":112320,"time":58.5,"velocity":1},{"duration":0.25,"durationTicks":480,"midi":62,"name":"D4","ticks":112800,"time":58.75,"velocity":1},{"duration":0.25,"durationTicks":480,"midi":59,"name":"B3","ticks":113280,"time":59,"velocity":1},{"duration":0.25,"durationTicks":480,"midi":62,"name":"D4","ticks":113760,"time":59.25,"velocity":1},{"duration":0.25,"durationTicks":480,"midi":66,"name":"F#4","ticks":114240,"time":59.5,"velocity":1},{"duration":0.25,"durationTicks":480,"midi":62,"name":"D4","ticks":114720,"time":59.75,"velocity":1},{"duration":0.25,"durationTicks":480,"midi":57,"name":"A3","ticks":115200,"time":60,"velocity":1},{"duration":0.25,"durationTicks":480,"midi":62,"name":"D4","ticks":115680,"time":60.25,"velocity":1},{"duration":0.25,"durationTicks":480,"midi":66,"name":"F#4","ticks":116160,"time":60.5,"velocity":1},{"duration":0.25,"durationTicks":480,"midi":62,"name":"D4","ticks":116640,"time":60.75,"velocity":1},{"duration":0.25,"durationTicks":480,"midi":59,"name":"B3","ticks":117120,"time":61,"velocity":1},{"duration":0.25,"durationTicks":480,"midi":62,"name":"D4","ticks":117600,"time":61.25,"velocity":1},{"duration":0.25,"durationTicks":480,"midi":66,"name":"F#4","ticks":118080,"time":61.5,"velocity":1},{"duration":0.25,"durationTicks":480,"midi":62,"name":"D4","ticks":118560,"time":61.75,"velocity":1},{"duration":0.25,"durationTicks":480,"midi":59,"name":"B3","ticks":119040,"time":62,"velocity":1},{"duration":0.25,"durationTicks":480,"midi":64,"name":"E4","ticks":119520,"time":62.25,"velocity":1},{"duration":0.25,"durationTicks":480,"midi":67,"name":"G4","ticks":120000,"time":62.5,"velocity":1},{"duration":0.25,"durationTicks":480,"midi":64,"name":"E4","ticks":120480,"time":62.75,"velocity":1},{"duration":0.25,"durationTicks":480,"midi":59,"name":"B3","ticks":120960,"time":63,"velocity":1},{"duration":0.25,"durationTicks":480,"midi":64,"name":"E4","ticks":121440,"time":63.25,"velocity":1},{"duration":0.25,"durationTicks":480,"midi":67,"name":"G4","ticks":121920,"time":63.5,"velocity":1},{"duration":0.25,"durationTicks":480,"midi":64,"name":"E4","ticks":122400,"time":63.75,"velocity":1},{"duration":0.25,"durationTicks":480,"midi":57,"name":"A3","ticks":122880,"time":64,"velocity":1},{"duration":0.25,"durationTicks":480,"midi":61,"name":"C#4","ticks":123360,"time":64.25,"velocity":1},{"duration":0.25,"durationTicks":480,"midi":67,"name":"G4","ticks":123840,"time":64.5,"velocity":1},{"duration":0.25,"durationTicks":480,"midi":61,"name":"C#4","ticks":124320,"time":64.75,"velocity":1},{"duration":0.25,"durationTicks":480,"midi":57,"name":"A3","ticks":124800,"time":65,"velocity":1},{"duration":0.25,"durationTicks":480,"midi":61,"name":"C#4","ticks":125280,"time":65.25,"velocity":1},{"duration":0.25,"durationTicks":480,"midi":67,"name":"G4","ticks":125760,"time":65.5,"velocity":1},{"duration":0.25,"durationTicks":480,"midi":61,"name":"C#4","ticks":126240,"time":65.75,"velocity":1},{"duration":0.25,"durationTicks":480,"midi":57,"name":"A3","ticks":126720,"time":66,"velocity":1},{"duration":0.25,"durationTicks":480,"midi":62,"name":"D4","ticks":127200,"time":66.25,"velocity":1},{"duration":0.25,"durationTicks":480,"midi":66,"name":"F#4","ticks":127680,"time":66.5,"velocity":1},{"duration":0.25,"durationTicks":480,"midi":62,"name":"D4","ticks":128160,"time":66.75,"velocity":1},{"duration":0.25,"durationTicks":480,"midi":59,"name":"B3","ticks":128640,"time":67,"velocity":1},{"duration":0.25,"durationTicks":480,"midi":62,"name":"D4","ticks":129120,"time":67.25,"velocity":1},{"duration":0.25,"durationTicks":480,"midi":66,"name":"F#4","ticks":129600,"time":67.5,"velocity":1},{"duration":0.25,"durationTicks":480,"midi":62,"name":"D4","ticks":130080,"time":67.75,"velocity":1},{"duration":0.25,"durationTicks":480,"midi":57,"name":"A3","ticks":130560,"time":68,"velocity":1},{"duration":0.25,"durationTicks":480,"midi":62,"name":"D4","ticks":131040,"time":68.25,"velocity":1},{"duration":0.25,"durationTicks":480,"midi":66,"name":"F#4","ticks":131520,"time":68.5,"velocity":1},{"duration":0.25,"durationTicks":480,"midi":62,"name":"D4","ticks":132000,"time":68.75,"velocity":1},{"duration":0.25,"durationTicks":480,"midi":59,"name":"B3","ticks":132480,"time":69,"velocity":1},{"duration":0.25,"durationTicks":480,"midi":62,"name":"D4","ticks":132960,"time":69.25,"velocity":1},{"duration":0.25,"durationTicks":480,"midi":66,"name":"F#4","ticks":133440,"time":69.5,"velocity":1},{"duration":0.25,"durationTicks":480,"midi":62,"name":"D4","ticks":133920,"time":69.75,"velocity":1},{"duration":0.25,"durationTicks":480,"midi":57,"name":"A3","ticks":134400,"time":70,"velocity":1},{"duration":0.25,"durationTicks":480,"midi":62,"name":"D4","ticks":134880,"time":70.25,"velocity":1},{"duration":0.25,"durationTicks":480,"midi":66,"name":"F#4","ticks":135360,"time":70.5,"velocity":1},{"duration":0.25,"durationTicks":480,"midi":62,"name":"D4","ticks":135840,"time":70.75,"velocity":1},{"duration":0.25,"durationTicks":480,"midi":59,"name":"B3","ticks":136320,"time":71,"velocity":1},{"duration":0.25,"durationTicks":480,"midi":62,"name":"D4","ticks":136800,"time":71.25,"velocity":1},{"duration":0.25,"durationTicks":480,"midi":66,"name":"F#4","ticks":137280,"time":71.5,"velocity":1},{"duration":0.25,"durationTicks":480,"midi":62,"name":"D4","ticks":137760,"time":71.75,"velocity":1},{"duration":0.25,"durationTicks":480,"midi":57,"name":"A3","ticks":138240,"time":72,"velocity":1},{"duration":0.25,"durationTicks":480,"midi":62,"name":"D4","ticks":138720,"time":72.25,"velocity":1},{"duration":0.25,"durationTicks":480,"midi":66,"name":"F#4","ticks":139200,"time":72.5,"velocity":1},{"duration":0.25,"durationTicks":480,"midi":62,"name":"D4","ticks":139680,"time":72.75,"velocity":1},{"duration":0.25,"durationTicks":480,"midi":59,"name":"B3","ticks":140160,"time":73,"velocity":1},{"duration":0.25,"durationTicks":480,"midi":62,"name":"D4","ticks":140640,"time":73.25,"velocity":1},{"duration":0.25,"durationTicks":480,"midi":66,"name":"F#4","ticks":141120,"time":73.5,"velocity":1},{"duration":0.25,"durationTicks":480,"midi":62,"name":"D4","ticks":141600,"time":73.75,"velocity":1},{"duration":0.25,"durationTicks":480,"midi":57,"name":"A3","ticks":142080,"time":74,"velocity":1},{"duration":0.25,"durationTicks":480,"midi":62,"name":"D4","ticks":142560,"time":74.25,"velocity":1},{"duration":0.25,"durationTicks":480,"midi":66,"name":"F#4","ticks":143040,"time":74.5,"velocity":1},{"duration":0.25,"durationTicks":480,"midi":62,"name":"D4","ticks":143520,"time":74.75,"velocity":1},{"duration":0.25,"durationTicks":480,"midi":59,"name":"B3","ticks":144000,"time":75,"velocity":1},{"duration":0.25,"durationTicks":480,"midi":62,"name":"D4","ticks":144480,"time":75.25,"velocity":1},{"duration":0.25,"durationTicks":480,"midi":66,"name":"F#4","ticks":144960,"time":75.5,"velocity":1},{"duration":0.25,"durationTicks":480,"midi":62,"name":"D4","ticks":145440,"time":75.75,"velocity":1},{"duration":0.25,"durationTicks":480,"midi":57,"name":"A3","ticks":145920,"time":76,"velocity":1},{"duration":0.25,"durationTicks":480,"midi":62,"name":"D4","ticks":146400,"time":76.25,"velocity":1},{"duration":0.25,"durationTicks":480,"midi":66,"name":"F#4","ticks":146880,"time":76.5,"velocity":1},{"duration":0.25,"durationTicks":480,"midi":62,"name":"D4","ticks":147360,"time":76.75,"velocity":1},{"duration":0.25,"durationTicks":480,"midi":59,"name":"B3","ticks":147840,"time":77,"velocity":1},{"duration":0.25,"durationTicks":480,"midi":62,"name":"D4","ticks":148320,"time":77.25,"velocity":1},{"duration":0.25,"durationTicks":480,"midi":66,"name":"F#4","ticks":148800,"time":77.5,"velocity":1},{"duration":0.25,"durationTicks":480,"midi":62,"name":"D4","ticks":149280,"time":77.75,"velocity":1},{"duration":0.25,"durationTicks":480,"midi":59,"name":"B3","ticks":149760,"time":78,"velocity":1},{"duration":0.25,"durationTicks":480,"midi":64,"name":"E4","ticks":150240,"time":78.25,"velocity":1},{"duration":0.25,"durationTicks":480,"midi":67,"name":"G4","ticks":150720,"time":78.5,"velocity":1},{"duration":0.25,"durationTicks":480,"midi":64,"name":"E4","ticks":151200,"time":78.75,"velocity":1},{"duration":0.25,"durationTicks":480,"midi":59,"name":"B3","ticks":151680,"time":79,"velocity":1},{"duration":0.25,"durationTicks":480,"midi":64,"name":"E4","ticks":152160,"time":79.25,"velocity":1},{"duration":0.25,"durationTicks":480,"midi":67,"name":"G4","ticks":152640,"time":79.5,"velocity":1},{"duration":0.25,"durationTicks":480,"midi":64,"name":"E4","ticks":153120,"time":79.75,"velocity":1},{"duration":0.25,"durationTicks":480,"midi":57,"name":"A3","ticks":153600,"time":80,"velocity":1},{"duration":0.25,"durationTicks":480,"midi":61,"name":"C#4","ticks":154080,"time":80.25,"velocity":1},{"duration":0.25,"durationTicks":480,"midi":67,"name":"G4","ticks":154560,"time":80.5,"velocity":1},{"duration":0.25,"durationTicks":480,"midi":61,"name":"C#4","ticks":155040,"time":80.75,"velocity":1},{"duration":0.25,"durationTicks":480,"midi":57,"name":"A3","ticks":155520,"time":81,"velocity":1},{"duration":0.25,"durationTicks":480,"midi":61,"name":"C#4","ticks":156000,"time":81.25,"velocity":1},{"duration":0.25,"durationTicks":480,"midi":67,"name":"G4","ticks":156480,"time":81.5,"velocity":1},{"duration":0.25,"durationTicks":480,"midi":61,"name":"C#4","ticks":156960,"time":81.75,"velocity":1},{"duration":0.25,"durationTicks":480,"midi":58,"name":"A#3","ticks":157440,"time":82,"velocity":1},{"duration":0.25,"durationTicks":480,"midi":62,"name":"D4","ticks":157920,"time":82.25,"velocity":1},{"duration":0.25,"durationTicks":480,"midi":69,"name":"A4","ticks":158400,"time":82.5,"velocity":1},{"duration":0.25,"durationTicks":480,"midi":65,"name":"F4","ticks":158880,"time":82.75,"velocity":1},{"duration":0.25,"durationTicks":480,"midi":69,"name":"A4","ticks":159360,"time":83,"velocity":1},{"duration":0.25,"durationTicks":480,"midi":65,"name":"F4","ticks":159840,"time":83.25,"velocity":1},{"duration":0.25,"durationTicks":480,"midi":69,"name":"A4","ticks":160320,"time":83.5,"velocity":1},{"duration":0.25,"durationTicks":480,"midi":65,"name":"F4","ticks":160800,"time":83.75,"velocity":1},{"duration":0.25,"durationTicks":480,"midi":60,"name":"C4","ticks":161280,"time":84,"velocity":1},{"duration":0.25,"durationTicks":480,"midi":65,"name":"F4","ticks":161280,"time":84,"velocity":1},{"duration":0.25,"durationTicks":480,"midi":69,"name":"A4","ticks":161760,"time":84.25,"velocity":1},{"duration":0.25,"durationTicks":480,"midi":60,"name":"C4","ticks":162240,"time":84.5,"velocity":1},{"duration":0.25,"durationTicks":480,"midi":65,"name":"F4","ticks":162240,"time":84.5,"velocity":1},{"duration":0.25,"durationTicks":480,"midi":60,"name":"C4","ticks":163200,"time":85,"velocity":1},{"duration":0.25,"durationTicks":480,"midi":64,"name":"E4","ticks":163200,"time":85,"velocity":1},{"duration":0.25,"durationTicks":480,"midi":67,"name":"G4","ticks":163680,"time":85.25,"velocity":1},{"duration":0.25,"durationTicks":480,"midi":60,"name":"C4","ticks":164160,"time":85.5,"velocity":1},{"duration":0.25,"durationTicks":480,"midi":64,"name":"E4","ticks":164160,"time":85.5,"velocity":1},{"duration":0.25,"durationTicks":480,"midi":58,"name":"A#3","ticks":165120,"time":86,"velocity":1},{"duration":0.25,"durationTicks":480,"midi":62,"name":"D4","ticks":165120,"time":86,"velocity":1},{"duration":0.25,"durationTicks":480,"midi":70,"name":"A#4","ticks":165600,"time":86.25,"velocity":1},{"duration":0.25,"durationTicks":480,"midi":58,"name":"A#3","ticks":166080,"time":86.5,"velocity":1},{"duration":0.25,"durationTicks":480,"midi":62,"name":"D4","ticks":166080,"time":86.5,"velocity":1},{"duration":0.25,"durationTicks":480,"midi":64,"name":"E4","ticks":166560,"time":86.75,"velocity":1},{"duration":0.25,"durationTicks":480,"midi":60,"name":"C4","ticks":167040,"time":87,"velocity":1},{"duration":0.25,"durationTicks":480,"midi":65,"name":"F4","ticks":167040,"time":87,"velocity":1},{"duration":0.25,"durationTicks":480,"midi":69,"name":"A4","ticks":167520,"time":87.25,"velocity":1},{"duration":0.25,"durationTicks":480,"midi":60,"name":"C4","ticks":168000,"time":87.5,"velocity":1},{"duration":0.25,"durationTicks":480,"midi":65,"name":"F4","ticks":168000,"time":87.5,"velocity":1},{"duration":0.25,"durationTicks":480,"midi":60,"name":"C4","ticks":168960,"time":88,"velocity":1},{"duration":0.25,"durationTicks":480,"midi":65,"name":"F4","ticks":168960,"time":88,"velocity":1},{"duration":0.25,"durationTicks":480,"midi":69,"name":"A4","ticks":169440,"time":88.25,"velocity":1},{"duration":0.25,"durationTicks":480,"midi":60,"name":"C4","ticks":169920,"time":88.5,"velocity":1},{"duration":0.25,"durationTicks":480,"midi":65,"name":"F4","ticks":169920,"time":88.5,"velocity":1},{"duration":0.25,"durationTicks":480,"midi":60,"name":"C4","ticks":170880,"time":89,"velocity":1},{"duration":0.25,"durationTicks":480,"midi":64,"name":"E4","ticks":170880,"time":89,"velocity":1},{"duration":0.25,"durationTicks":480,"midi":67,"name":"G4","ticks":171360,"time":89.25,"velocity":1},{"duration":0.25,"durationTicks":480,"midi":60,"name":"C4","ticks":171840,"time":89.5,"velocity":1},{"duration":0.25,"durationTicks":480,"midi":64,"name":"E4","ticks":171840,"time":89.5,"velocity":1},{"duration":0.25,"durationTicks":480,"midi":58,"name":"A#3","ticks":172800,"time":90,"velocity":1},{"duration":0.25,"durationTicks":480,"midi":62,"name":"D4","ticks":172800,"time":90,"velocity":1},{"duration":0.25,"durationTicks":480,"midi":70,"name":"A#4","ticks":173280,"time":90.25,"velocity":1},{"duration":0.25,"durationTicks":480,"midi":58,"name":"A#3","ticks":173760,"time":90.5,"velocity":1},{"duration":0.25,"durationTicks":480,"midi":62,"name":"D4","ticks":173760,"time":90.5,"velocity":1},{"duration":0.25,"durationTicks":480,"midi":64,"name":"E4","ticks":174240,"time":90.75,"velocity":1},{"duration":0.25,"durationTicks":480,"midi":60,"name":"C4","ticks":174720,"time":91,"velocity":1},{"duration":0.25,"durationTicks":480,"midi":65,"name":"F4","ticks":174720,"time":91,"velocity":1},{"duration":0.25,"durationTicks":480,"midi":69,"name":"A4","ticks":175200,"time":91.25,"velocity":1},{"duration":0.25,"durationTicks":480,"midi":60,"name":"C4","ticks":175680,"time":91.5,"velocity":1},{"duration":0.25,"durationTicks":480,"midi":65,"name":"F4","ticks":175680,"time":91.5,"velocity":1},{"duration":0.25,"durationTicks":480,"midi":58,"name":"A#3","ticks":176640,"time":92,"velocity":1},{"duration":0.25,"durationTicks":480,"midi":62,"name":"D4","ticks":176640,"time":92,"velocity":1},{"duration":0.25,"durationTicks":480,"midi":67,"name":"G4","ticks":177120,"time":92.25,"velocity":1},{"duration":0.25,"durationTicks":480,"midi":58,"name":"A#3","ticks":177600,"time":92.5,"velocity":1},{"duration":0.25,"durationTicks":480,"midi":62,"name":"D4","ticks":177600,"time":92.5,"velocity":1},{"duration":0.25,"durationTicks":480,"midi":67,"name":"G4","ticks":178080,"time":92.75,"velocity":1},{"duration":0.25,"durationTicks":480,"midi":60,"name":"C4","ticks":178560,"time":93,"velocity":1},{"duration":0.25,"durationTicks":480,"midi":64,"name":"E4","ticks":178560,"time":93,"velocity":1},{"duration":0.25,"durationTicks":480,"midi":67,"name":"G4","ticks":179040,"time":93.25,"velocity":1},{"duration":0.25,"durationTicks":480,"midi":60,"name":"C4","ticks":179520,"time":93.5,"velocity":1},{"duration":0.25,"durationTicks":480,"midi":64,"name":"E4","ticks":179520,"time":93.5,"velocity":1},{"duration":0.25,"durationTicks":480,"midi":67,"name":"G4","ticks":180000,"time":93.75,"velocity":1},{"duration":0.25,"durationTicks":480,"midi":60,"name":"C4","ticks":180480,"time":94,"velocity":1},{"duration":0.25,"durationTicks":480,"midi":65,"name":"F4","ticks":180480,"time":94,"velocity":1},{"duration":0.25,"durationTicks":480,"midi":69,"name":"A4","ticks":180960,"time":94.25,"velocity":1},{"duration":0.25,"durationTicks":480,"midi":60,"name":"C4","ticks":181440,"time":94.5,"velocity":1},{"duration":0.25,"durationTicks":480,"midi":65,"name":"F4","ticks":181440,"time":94.5,"velocity":1},{"duration":0.25,"durationTicks":480,"midi":69,"name":"A4","ticks":181920,"time":94.75,"velocity":1},{"duration":0.25,"durationTicks":480,"midi":62,"name":"D4","ticks":182400,"time":95,"velocity":1},{"duration":0.25,"durationTicks":480,"midi":65,"name":"F4","ticks":182400,"time":95,"velocity":1},{"duration":0.25,"durationTicks":480,"midi":69,"name":"A4","ticks":182880,"time":95.25,"velocity":1},{"duration":0.25,"durationTicks":480,"midi":62,"name":"D4","ticks":183360,"time":95.5,"velocity":1},{"duration":0.25,"durationTicks":480,"midi":65,"name":"F4","ticks":183360,"time":95.5,"velocity":1},{"duration":0.25,"durationTicks":480,"midi":69,"name":"A4","ticks":183840,"time":95.75,"velocity":1},{"duration":0.25,"durationTicks":480,"midi":58,"name":"A#3","ticks":184320,"time":96,"velocity":1},{"duration":0.25,"durationTicks":480,"midi":62,"name":"D4","ticks":184320,"time":96,"velocity":1},{"duration":0.25,"durationTicks":480,"midi":67,"name":"G4","ticks":184800,"time":96.25,"velocity":1},{"duration":0.25,"durationTicks":480,"midi":58,"name":"A#3","ticks":185280,"time":96.5,"velocity":1},{"duration":0.25,"durationTicks":480,"midi":62,"name":"D4","ticks":185280,"time":96.5,"velocity":1},{"duration":0.25,"durationTicks":480,"midi":67,"name":"G4","ticks":185760,"time":96.75,"velocity":1},{"duration":0.25,"durationTicks":480,"midi":57,"name":"A3","ticks":186240,"time":97,"velocity":1},{"duration":0.25,"durationTicks":480,"midi":61,"name":"C#4","ticks":186240,"time":97,"velocity":1},{"duration":0.25,"durationTicks":480,"midi":67,"name":"G4","ticks":186720,"time":97.25,"velocity":1},{"duration":0.25,"durationTicks":480,"midi":57,"name":"A3","ticks":187200,"time":97.5,"velocity":1},{"duration":0.25,"durationTicks":480,"midi":61,"name":"C#4","ticks":187200,"time":97.5,"velocity":1},{"duration":0.25,"durationTicks":480,"midi":67,"name":"G4","ticks":187680,"time":97.75,"velocity":1},{"duration":0.25,"durationTicks":480,"midi":57,"name":"A3","ticks":188160,"time":98,"velocity":1},{"duration":0.25,"durationTicks":480,"midi":62,"name":"D4","ticks":188640,"time":98.25,"velocity":1},{"duration":0.25,"durationTicks":480,"midi":66,"name":"F#4","ticks":189120,"time":98.5,"velocity":1},{"duration":0.25,"durationTicks":480,"midi":62,"name":"D4","ticks":189600,"time":98.75,"velocity":1},{"duration":0.25,"durationTicks":480,"midi":59,"name":"B3","ticks":190080,"time":99,"velocity":1},{"duration":0.25,"durationTicks":480,"midi":62,"name":"D4","ticks":190560,"time":99.25,"velocity":1},{"duration":0.25,"durationTicks":480,"midi":66,"name":"F#4","ticks":191040,"time":99.5,"velocity":1},{"duration":0.25,"durationTicks":480,"midi":62,"name":"D4","ticks":191520,"time":99.75,"velocity":1},{"duration":0.25,"durationTicks":480,"midi":57,"name":"A3","ticks":192000,"time":100,"velocity":1},{"duration":0.25,"durationTicks":480,"midi":62,"name":"D4","ticks":192480,"time":100.25,"velocity":1},{"duration":0.25,"durationTicks":480,"midi":66,"name":"F#4","ticks":192960,"time":100.5,"velocity":1},{"duration":0.25,"durationTicks":480,"midi":62,"name":"D4","ticks":193440,"time":100.75,"velocity":1},{"duration":0.25,"durationTicks":480,"midi":59,"name":"B3","ticks":193920,"time":101,"velocity":1},{"duration":0.25,"durationTicks":480,"midi":62,"name":"D4","ticks":194400,"time":101.25,"velocity":1},{"duration":0.25,"durationTicks":480,"midi":66,"name":"F#4","ticks":194880,"time":101.5,"velocity":1},{"duration":0.25,"durationTicks":480,"midi":62,"name":"D4","ticks":195360,"time":101.75,"velocity":1},{"duration":0.25,"durationTicks":480,"midi":57,"name":"A3","ticks":195840,"time":102,"velocity":1},{"duration":0.25,"durationTicks":480,"midi":62,"name":"D4","ticks":196320,"time":102.25,"velocity":1},{"duration":0.25,"durationTicks":480,"midi":66,"name":"F#4","ticks":196800,"time":102.5,"velocity":1},{"duration":0.25,"durationTicks":480,"midi":62,"name":"D4","ticks":197280,"time":102.75,"velocity":1},{"duration":0.25,"durationTicks":480,"midi":59,"name":"B3","ticks":197760,"time":103,"velocity":1},{"duration":0.25,"durationTicks":480,"midi":62,"name":"D4","ticks":198240,"time":103.25,"velocity":1},{"duration":0.25,"durationTicks":480,"midi":66,"name":"F#4","ticks":198720,"time":103.5,"velocity":1},{"duration":0.25,"durationTicks":480,"midi":62,"name":"D4","ticks":199200,"time":103.75,"velocity":1},{"duration":0.25,"durationTicks":480,"midi":57,"name":"A3","ticks":199680,"time":104,"velocity":1},{"duration":0.25,"durationTicks":480,"midi":62,"name":"D4","ticks":200160,"time":104.25,"velocity":1},{"duration":0.25,"durationTicks":480,"midi":66,"name":"F#4","ticks":200640,"time":104.5,"velocity":1},{"duration":0.25,"durationTicks":480,"midi":62,"name":"D4","ticks":201120,"time":104.75,"velocity":1},{"duration":0.25,"durationTicks":480,"midi":59,"name":"B3","ticks":201600,"time":105,"velocity":1},{"duration":0.25,"durationTicks":480,"midi":62,"name":"D4","ticks":202080,"time":105.25,"velocity":1},{"duration":0.25,"durationTicks":480,"midi":66,"name":"F#4","ticks":202560,"time":105.5,"velocity":1},{"duration":0.25,"durationTicks":480,"midi":62,"name":"D4","ticks":203040,"time":105.75,"velocity":1},{"duration":0.25,"durationTicks":480,"midi":57,"name":"A3","ticks":203520,"time":106,"velocity":1},{"duration":0.25,"durationTicks":480,"midi":62,"name":"D4","ticks":204000,"time":106.25,"velocity":1},{"duration":0.25,"durationTicks":480,"midi":66,"name":"F#4","ticks":204480,"time":106.5,"velocity":1},{"duration":0.25,"durationTicks":480,"midi":62,"name":"D4","ticks":204960,"time":106.75,"velocity":1},{"duration":0.25,"durationTicks":480,"midi":59,"name":"B3","ticks":205440,"time":107,"velocity":1},{"duration":0.25,"durationTicks":480,"midi":62,"name":"D4","ticks":205920,"time":107.25,"velocity":1},{"duration":0.25,"durationTicks":480,"midi":66,"name":"F#4","ticks":206400,"time":107.5,"velocity":1},{"duration":0.25,"durationTicks":480,"midi":62,"name":"D4","ticks":206880,"time":107.75,"velocity":1},{"duration":0.25,"durationTicks":480,"midi":57,"name":"A3","ticks":207360,"time":108,"velocity":1},{"duration":0.25,"durationTicks":480,"midi":62,"name":"D4","ticks":207840,"time":108.25,"velocity":1},{"duration":0.25,"durationTicks":480,"midi":66,"name":"F#4","ticks":208320,"time":108.5,"velocity":1},{"duration":0.25,"durationTicks":480,"midi":62,"name":"D4","ticks":208800,"time":108.75,"velocity":1},{"duration":0.25,"durationTicks":480,"midi":59,"name":"B3","ticks":209280,"time":109,"velocity":1},{"duration":0.25,"durationTicks":480,"midi":62,"name":"D4","ticks":209760,"time":109.25,"velocity":1},{"duration":0.25,"durationTicks":480,"midi":66,"name":"F#4","ticks":210240,"time":109.5,"velocity":1},{"duration":0.25,"durationTicks":480,"midi":62,"name":"D4","ticks":210720,"time":109.75,"velocity":1},{"duration":0.25,"durationTicks":480,"midi":57,"name":"A3","ticks":211200,"time":110,"velocity":1},{"duration":0.25,"durationTicks":480,"midi":62,"name":"D4","ticks":211680,"time":110.25,"velocity":1},{"duration":0.25,"durationTicks":480,"midi":66,"name":"F#4","ticks":212160,"time":110.5,"velocity":1},{"duration":0.25,"durationTicks":480,"midi":62,"name":"D4","ticks":212640,"time":110.75,"velocity":1},{"duration":0.25,"durationTicks":480,"midi":59,"name":"B3","ticks":213120,"time":111,"velocity":1},{"duration":0.25,"durationTicks":480,"midi":62,"name":"D4","ticks":213600,"time":111.25,"velocity":1},{"duration":0.25,"durationTicks":480,"midi":66,"name":"F#4","ticks":214080,"time":111.5,"velocity":1},{"duration":0.25,"durationTicks":480,"midi":62,"name":"D4","ticks":214560,"time":111.75,"velocity":1},{"duration":0.25,"durationTicks":480,"midi":57,"name":"A3","ticks":215040,"time":112,"velocity":1},{"duration":0.25,"durationTicks":480,"midi":62,"name":"D4","ticks":215520,"time":112.25,"velocity":1},{"duration":0.25,"durationTicks":480,"midi":66,"name":"F#4","ticks":216000,"time":112.5,"velocity":1},{"duration":0.25,"durationTicks":480,"midi":62,"name":"D4","ticks":216480,"time":112.75,"velocity":1},{"duration":0.25,"durationTicks":480,"midi":59,"name":"B3","ticks":216960,"time":113,"velocity":1},{"duration":0.25,"durationTicks":480,"midi":62,"name":"D4","ticks":217440,"time":113.25,"velocity":1},{"duration":0.25,"durationTicks":480,"midi":66,"name":"F#4","ticks":217920,"time":113.5,"velocity":1},{"duration":0.25,"durationTicks":480,"midi":62,"name":"D4","ticks":218400,"time":113.75,"velocity":1},{"duration":0.25,"durationTicks":480,"midi":59,"name":"B3","ticks":218880,"time":114,"velocity":1},{"duration":0.25,"durationTicks":480,"midi":64,"name":"E4","ticks":219360,"time":114.25,"velocity":1},{"duration":0.25,"durationTicks":480,"midi":67,"name":"G4","ticks":219840,"time":114.5,"velocity":1},{"duration":0.25,"durationTicks":480,"midi":64,"name":"E4","ticks":220320,"time":114.75,"velocity":1},{"duration":0.25,"durationTicks":480,"midi":59,"name":"B3","ticks":220800,"time":115,"velocity":1},{"duration":0.25,"durationTicks":480,"midi":64,"name":"E4","ticks":221280,"time":115.25,"velocity":1},{"duration":0.25,"durationTicks":480,"midi":67,"name":"G4","ticks":221760,"time":115.5,"velocity":1},{"duration":0.25,"durationTicks":480,"midi":64,"name":"E4","ticks":222240,"time":115.75,"velocity":1},{"duration":0.25,"durationTicks":480,"midi":57,"name":"A3","ticks":222720,"time":116,"velocity":1},{"duration":0.25,"durationTicks":480,"midi":61,"name":"C#4","ticks":223200,"time":116.25,"velocity":1},{"duration":0.25,"durationTicks":480,"midi":67,"name":"G4","ticks":223680,"time":116.5,"velocity":1},{"duration":0.25,"durationTicks":480,"midi":61,"name":"C#4","ticks":224160,"time":116.75,"velocity":1},{"duration":0.25,"durationTicks":480,"midi":57,"name":"A3","ticks":224640,"time":117,"velocity":1},{"duration":0.25,"durationTicks":480,"midi":61,"name":"C#4","ticks":225120,"time":117.25,"velocity":1},{"duration":0.25,"durationTicks":480,"midi":67,"name":"G4","ticks":225600,"time":117.5,"velocity":1},{"duration":0.25,"durationTicks":480,"midi":61,"name":"C#4","ticks":226080,"time":117.75,"velocity":1},{"duration":0.25,"durationTicks":480,"midi":57,"name":"A3","ticks":226560,"time":118,"velocity":1},{"duration":0.25,"durationTicks":480,"midi":62,"name":"D4","ticks":227040,"time":118.25,"velocity":1},{"duration":0.25,"durationTicks":480,"midi":66,"name":"F#4","ticks":227520,"time":118.5,"velocity":1},{"duration":0.25,"durationTicks":480,"midi":62,"name":"D4","ticks":228000,"time":118.75,"velocity":1},{"duration":0.25,"durationTicks":480,"midi":59,"name":"B3","ticks":228480,"time":119,"velocity":1},{"duration":0.25,"durationTicks":480,"midi":62,"name":"D4","ticks":228960,"time":119.25,"velocity":1},{"duration":0.25,"durationTicks":480,"midi":66,"name":"F#4","ticks":229440,"time":119.5,"velocity":1},{"duration":0.25,"durationTicks":480,"midi":62,"name":"D4","ticks":229920,"time":119.75,"velocity":1},{"duration":0.25,"durationTicks":480,"midi":57,"name":"A3","ticks":230400,"time":120,"velocity":1},{"duration":0.25,"durationTicks":480,"midi":62,"name":"D4","ticks":230880,"time":120.25,"velocity":1},{"duration":0.25,"durationTicks":480,"midi":66,"name":"F#4","ticks":231360,"time":120.5,"velocity":1},{"duration":0.25,"durationTicks":480,"midi":62,"name":"D4","ticks":231840,"time":120.75,"velocity":1},{"duration":0.25,"durationTicks":480,"midi":59,"name":"B3","ticks":232320,"time":121,"velocity":1},{"duration":0.25,"durationTicks":480,"midi":62,"name":"D4","ticks":232800,"time":121.25,"velocity":1},{"duration":0.25,"durationTicks":480,"midi":66,"name":"F#4","ticks":233280,"time":121.5,"velocity":1},{"duration":0.25,"durationTicks":480,"midi":62,"name":"D4","ticks":233760,"time":121.75,"velocity":1},{"duration":0.25,"durationTicks":480,"midi":57,"name":"A3","ticks":234240,"time":122,"velocity":1},{"duration":0.25,"durationTicks":480,"midi":62,"name":"D4","ticks":234720,"time":122.25,"velocity":1},{"duration":0.25,"durationTicks":480,"midi":66,"name":"F#4","ticks":235200,"time":122.5,"velocity":1},{"duration":0.25,"durationTicks":480,"midi":62,"name":"D4","ticks":235680,"time":122.75,"velocity":1},{"duration":0.25,"durationTicks":480,"midi":59,"name":"B3","ticks":236160,"time":123,"velocity":1},{"duration":0.25,"durationTicks":480,"midi":62,"name":"D4","ticks":236640,"time":123.25,"velocity":1},{"duration":0.25,"durationTicks":480,"midi":66,"name":"F#4","ticks":237120,"time":123.5,"velocity":1},{"duration":0.25,"durationTicks":480,"midi":62,"name":"D4","ticks":237600,"time":123.75,"velocity":1},{"duration":0.25,"durationTicks":480,"midi":57,"name":"A3","ticks":238080,"time":124,"velocity":1},{"duration":0.25,"durationTicks":480,"midi":62,"name":"D4","ticks":238560,"time":124.25,"velocity":1},{"duration":0.25,"durationTicks":480,"midi":66,"name":"F#4","ticks":239040,"time":124.5,"velocity":1},{"duration":0.25,"durationTicks":480,"midi":62,"name":"D4","ticks":239520,"time":124.75,"velocity":1},{"duration":0.25,"durationTicks":480,"midi":59,"name":"B3","ticks":240000,"time":125,"velocity":1},{"duration":0.25,"durationTicks":480,"midi":62,"name":"D4","ticks":240480,"time":125.25,"velocity":1},{"duration":0.25,"durationTicks":480,"midi":66,"name":"F#4","ticks":240960,"time":125.5,"velocity":1},{"duration":0.25,"durationTicks":480,"midi":62,"name":"D4","ticks":241440,"time":125.75,"velocity":1},{"duration":0.25,"durationTicks":480,"midi":57,"name":"A3","ticks":241920,"time":126,"velocity":1},{"duration":0.25,"durationTicks":480,"midi":62,"name":"D4","ticks":242400,"time":126.25,"velocity":1},{"duration":0.25,"durationTicks":480,"midi":66,"name":"F#4","ticks":242880,"time":126.5,"velocity":1},{"duration":0.25,"durationTicks":480,"midi":62,"name":"D4","ticks":243360,"time":126.75,"velocity":1},{"duration":0.25,"durationTicks":480,"midi":59,"name":"B3","ticks":243840,"time":127,"velocity":1},{"duration":0.25,"durationTicks":480,"midi":62,"name":"D4","ticks":244320,"time":127.25,"velocity":1},{"duration":0.25,"durationTicks":480,"midi":66,"name":"F#4","ticks":244800,"time":127.5,"velocity":1},{"duration":0.25,"durationTicks":480,"midi":62,"name":"D4","ticks":245280,"time":127.75,"velocity":1},{"duration":0.25,"durationTicks":480,"midi":57,"name":"A3","ticks":245760,"time":128,"velocity":1},{"duration":0.25,"durationTicks":480,"midi":62,"name":"D4","ticks":246240,"time":128.25,"velocity":1},{"duration":0.25,"durationTicks":480,"midi":66,"name":"F#4","ticks":246720,"time":128.5,"velocity":1},{"duration":0.25,"durationTicks":480,"midi":62,"name":"D4","ticks":247200,"time":128.75,"velocity":1},{"duration":0.25,"durationTicks":480,"midi":59,"name":"B3","ticks":247680,"time":129,"velocity":1},{"duration":0.25,"durationTicks":480,"midi":62,"name":"D4","ticks":248160,"time":129.25,"velocity":1},{"duration":0.25,"durationTicks":480,"midi":66,"name":"F#4","ticks":248640,"time":129.5,"velocity":1},{"duration":0.25,"durationTicks":480,"midi":62,"name":"D4","ticks":249120,"time":129.75,"velocity":1},{"duration":0.25,"durationTicks":480,"midi":59,"name":"B3","ticks":249600,"time":130,"velocity":1},{"duration":0.25,"durationTicks":480,"midi":64,"name":"E4","ticks":250080,"time":130.25,"velocity":1},{"duration":0.25,"durationTicks":480,"midi":67,"name":"G4","ticks":250560,"time":130.5,"velocity":1},{"duration":0.25,"durationTicks":480,"midi":64,"name":"E4","ticks":251040,"time":130.75,"velocity":1},{"duration":0.25,"durationTicks":480,"midi":59,"name":"B3","ticks":251520,"time":131,"velocity":1},{"duration":0.25,"durationTicks":480,"midi":64,"name":"E4","ticks":252000,"time":131.25,"velocity":1},{"duration":0.25,"durationTicks":480,"midi":67,"name":"G4","ticks":252480,"time":131.5,"velocity":1},{"duration":0.25,"durationTicks":480,"midi":64,"name":"E4","ticks":252960,"time":131.75,"velocity":1},{"duration":0.25,"durationTicks":480,"midi":57,"name":"A3","ticks":253440,"time":132,"velocity":1},{"duration":0.25,"durationTicks":480,"midi":61,"name":"C#4","ticks":253920,"time":132.25,"velocity":1},{"duration":0.25,"durationTicks":480,"midi":67,"name":"G4","ticks":254400,"time":132.5,"velocity":1},{"duration":0.25,"durationTicks":480,"midi":61,"name":"C#4","ticks":254880,"time":132.75,"velocity":1},{"duration":0.25,"durationTicks":480,"midi":57,"name":"A3","ticks":255360,"time":133,"velocity":1},{"duration":0.25,"durationTicks":480,"midi":61,"name":"C#4","ticks":255840,"time":133.25,"velocity":1},{"duration":0.25,"durationTicks":480,"midi":67,"name":"G4","ticks":256320,"time":133.5,"velocity":1},{"duration":0.25,"durationTicks":480,"midi":61,"name":"C#4","ticks":256800,"time":133.75,"velocity":1},{"duration":0.25,"durationTicks":480,"midi":58,"name":"A#3","ticks":257280,"time":134,"velocity":1},{"duration":0.25,"durationTicks":480,"midi":62,"name":"D4","ticks":257760,"time":134.25,"velocity":1},{"duration":0.25,"durationTicks":480,"midi":69,"name":"A4","ticks":258240,"time":134.5,"velocity":1},{"duration":0.25,"durationTicks":480,"midi":65,"name":"F4","ticks":258720,"time":134.75,"velocity":1},{"duration":0.25,"durationTicks":480,"midi":69,"name":"A4","ticks":259200,"time":135,"velocity":1},{"duration":0.25,"durationTicks":480,"midi":65,"name":"F4","ticks":259680,"time":135.25,"velocity":1},{"duration":0.25,"durationTicks":480,"midi":69,"name":"A4","ticks":260160,"time":135.5,"velocity":1},{"duration":0.25,"durationTicks":480,"midi":65,"name":"F4","ticks":260640,"time":135.75,"velocity":1},{"duration":0.25,"durationTicks":480,"midi":60,"name":"C4","ticks":261120,"time":136,"velocity":1},{"duration":0.25,"durationTicks":480,"midi":65,"name":"F4","ticks":261120,"time":136,"velocity":1},{"duration":0.25,"durationTicks":480,"midi":69,"name":"A4","ticks":261600,"time":136.25,"velocity":1},{"duration":0.25,"durationTicks":480,"midi":60,"name":"C4","ticks":262080,"time":136.5,"velocity":1},{"duration":0.25,"durationTicks":480,"midi":65,"name":"F4","ticks":262080,"time":136.5,"velocity":1},{"duration":0.25,"durationTicks":480,"midi":60,"name":"C4","ticks":263040,"time":137,"velocity":1},{"duration":0.25,"durationTicks":480,"midi":64,"name":"E4","ticks":263040,"time":137,"velocity":1},{"duration":0.25,"durationTicks":480,"midi":67,"name":"G4","ticks":263520,"time":137.25,"velocity":1},{"duration":0.25,"durationTicks":480,"midi":60,"name":"C4","ticks":264000,"time":137.5,"velocity":1},{"duration":0.25,"durationTicks":480,"midi":64,"name":"E4","ticks":264000,"time":137.5,"velocity":1},{"duration":0.25,"durationTicks":480,"midi":58,"name":"A#3","ticks":264960,"time":138,"velocity":1},{"duration":0.25,"durationTicks":480,"midi":62,"name":"D4","ticks":264960,"time":138,"velocity":1},{"duration":0.25,"durationTicks":480,"midi":70,"name":"A#4","ticks":265440,"time":138.25,"velocity":1},{"duration":0.25,"durationTicks":480,"midi":58,"name":"A#3","ticks":265920,"time":138.5,"velocity":1},{"duration":0.25,"durationTicks":480,"midi":62,"name":"D4","ticks":265920,"time":138.5,"velocity":1},{"duration":0.25,"durationTicks":480,"midi":64,"name":"E4","ticks":266400,"time":138.75,"velocity":1},{"duration":0.25,"durationTicks":480,"midi":60,"name":"C4","ticks":266880,"time":139,"velocity":1},{"duration":0.25,"durationTicks":480,"midi":65,"name":"F4","ticks":266880,"time":139,"velocity":1},{"duration":0.25,"durationTicks":480,"midi":69,"name":"A4","ticks":267360,"time":139.25,"velocity":1},{"duration":0.25,"durationTicks":480,"midi":60,"name":"C4","ticks":267840,"time":139.5,"velocity":1},{"duration":0.25,"durationTicks":480,"midi":65,"name":"F4","ticks":267840,"time":139.5,"velocity":1},{"duration":0.25,"durationTicks":480,"midi":60,"name":"C4","ticks":268800,"time":140,"velocity":1},{"duration":0.25,"durationTicks":480,"midi":65,"name":"F4","ticks":268800,"time":140,"velocity":1},{"duration":0.25,"durationTicks":480,"midi":69,"name":"A4","ticks":269280,"time":140.25,"velocity":1},{"duration":0.25,"durationTicks":480,"midi":60,"name":"C4","ticks":269760,"time":140.5,"velocity":1},{"duration":0.25,"durationTicks":480,"midi":65,"name":"F4","ticks":269760,"time":140.5,"velocity":1},{"duration":0.25,"durationTicks":480,"midi":60,"name":"C4","ticks":270720,"time":141,"velocity":1},{"duration":0.25,"durationTicks":480,"midi":64,"name":"E4","ticks":270720,"time":141,"velocity":1},{"duration":0.25,"durationTicks":480,"midi":67,"name":"G4","ticks":271200,"time":141.25,"velocity":1},{"duration":0.25,"durationTicks":480,"midi":60,"name":"C4","ticks":271680,"time":141.5,"velocity":1},{"duration":0.25,"durationTicks":480,"midi":64,"name":"E4","ticks":271680,"time":141.5,"velocity":1},{"duration":0.25,"durationTicks":480,"midi":58,"name":"A#3","ticks":272640,"time":142,"velocity":1},{"duration":0.25,"durationTicks":480,"midi":62,"name":"D4","ticks":272640,"time":142,"velocity":1},{"duration":0.25,"durationTicks":480,"midi":70,"name":"A#4","ticks":273120,"time":142.25,"velocity":1},{"duration":0.25,"durationTicks":480,"midi":58,"name":"A#3","ticks":273600,"time":142.5,"velocity":1},{"duration":0.25,"durationTicks":480,"midi":62,"name":"D4","ticks":273600,"time":142.5,"velocity":1},{"duration":0.25,"durationTicks":480,"midi":64,"name":"E4","ticks":274080,"time":142.75,"velocity":1},{"duration":0.25,"durationTicks":480,"midi":60,"name":"C4","ticks":274560,"time":143,"velocity":1},{"duration":0.25,"durationTicks":480,"midi":65,"name":"F4","ticks":274560,"time":143,"velocity":1},{"duration":0.25,"durationTicks":480,"midi":69,"name":"A4","ticks":275040,"time":143.25,"velocity":1},{"duration":0.25,"durationTicks":480,"midi":60,"name":"C4","ticks":275520,"time":143.5,"velocity":1},{"duration":0.25,"durationTicks":480,"midi":65,"name":"F4","ticks":275520,"time":143.5,"velocity":1},{"duration":0.25,"durationTicks":480,"midi":58,"name":"A#3","ticks":276480,"time":144,"velocity":1},{"duration":0.25,"durationTicks":480,"midi":62,"name":"D4","ticks":276480,"time":144,"velocity":1},{"duration":0.25,"durationTicks":480,"midi":67,"name":"G4","ticks":276960,"time":144.25,"velocity":1},{"duration":0.25,"durationTicks":480,"midi":58,"name":"A#3","ticks":277440,"time":144.5,"velocity":1},{"duration":0.25,"durationTicks":480,"midi":62,"name":"D4","ticks":277440,"time":144.5,"velocity":1},{"duration":0.25,"durationTicks":480,"midi":67,"name":"G4","ticks":277920,"time":144.75,"velocity":1},{"duration":0.25,"durationTicks":480,"midi":60,"name":"C4","ticks":278400,"time":145,"velocity":1},{"duration":0.25,"durationTicks":480,"midi":64,"name":"E4","ticks":278400,"time":145,"velocity":1},{"duration":0.25,"durationTicks":480,"midi":67,"name":"G4","ticks":278880,"time":145.25,"velocity":1},{"duration":0.25,"durationTicks":480,"midi":60,"name":"C4","ticks":279360,"time":145.5,"velocity":1},{"duration":0.25,"durationTicks":480,"midi":64,"name":"E4","ticks":279360,"time":145.5,"velocity":1},{"duration":0.25,"durationTicks":480,"midi":67,"name":"G4","ticks":279840,"time":145.75,"velocity":1},{"duration":0.25,"durationTicks":480,"midi":60,"name":"C4","ticks":280320,"time":146,"velocity":1},{"duration":0.25,"durationTicks":480,"midi":65,"name":"F4","ticks":280320,"time":146,"velocity":1},{"duration":0.25,"durationTicks":480,"midi":69,"name":"A4","ticks":280800,"time":146.25,"velocity":1},{"duration":0.25,"durationTicks":480,"midi":60,"name":"C4","ticks":281280,"time":146.5,"velocity":1},{"duration":0.25,"durationTicks":480,"midi":65,"name":"F4","ticks":281280,"time":146.5,"velocity":1},{"duration":0.25,"durationTicks":480,"midi":69,"name":"A4","ticks":281760,"time":146.75,"velocity":1},{"duration":0.25,"durationTicks":480,"midi":62,"name":"D4","ticks":282240,"time":147,"velocity":1},{"duration":0.25,"durationTicks":480,"midi":65,"name":"F4","ticks":282240,"time":147,"velocity":1},{"duration":0.25,"durationTicks":480,"midi":69,"name":"A4","ticks":282720,"time":147.25,"velocity":1},{"duration":0.25,"durationTicks":480,"midi":62,"name":"D4","ticks":283200,"time":147.5,"velocity":1},{"duration":0.25,"durationTicks":480,"midi":65,"name":"F4","ticks":283200,"time":147.5,"velocity":1},{"duration":0.25,"durationTicks":480,"midi":69,"name":"A4","ticks":283680,"time":147.75,"velocity":1},{"duration":0.25,"durationTicks":480,"midi":58,"name":"A#3","ticks":284160,"time":148,"velocity":1},{"duration":0.25,"durationTicks":480,"midi":62,"name":"D4","ticks":284160,"time":148,"velocity":1},{"duration":0.25,"durationTicks":480,"midi":67,"name":"G4","ticks":284640,"time":148.25,"velocity":1},{"duration":0.25,"durationTicks":480,"midi":58,"name":"A#3","ticks":285120,"time":148.5,"velocity":1},{"duration":0.25,"durationTicks":480,"midi":62,"name":"D4","ticks":285120,"time":148.5,"velocity":1},{"duration":0.25,"durationTicks":480,"midi":67,"name":"G4","ticks":285600,"time":148.75,"velocity":1},{"duration":0.25,"durationTicks":480,"midi":57,"name":"A3","ticks":286080,"time":149,"velocity":1},{"duration":0.25,"durationTicks":480,"midi":61,"name":"C#4","ticks":286080,"time":149,"velocity":1},{"duration":0.25,"durationTicks":480,"midi":67,"name":"G4","ticks":286560,"time":149.25,"velocity":1},{"duration":0.25,"durationTicks":480,"midi":57,"name":"A3","ticks":287040,"time":149.5,"velocity":1},{"duration":0.25,"durationTicks":480,"midi":61,"name":"C#4","ticks":287040,"time":149.5,"velocity":1},{"duration":0.25,"durationTicks":480,"midi":67,"name":"G4","ticks":287520,"time":149.75,"velocity":1},{"duration":0.25,"durationTicks":480,"midi":57,"name":"A3","ticks":288000,"time":150,"velocity":1},{"duration":0.25,"durationTicks":480,"midi":62,"name":"D4","ticks":288480,"time":150.25,"velocity":1},{"duration":0.25,"durationTicks":480,"midi":66,"name":"F#4","ticks":288960,"time":150.5,"velocity":1},{"duration":0.25,"durationTicks":480,"midi":62,"name":"D4","ticks":289440,"time":150.75,"velocity":1},{"duration":0.25,"durationTicks":480,"midi":59,"name":"B3","ticks":289920,"time":151,"velocity":1},{"duration":0.25,"durationTicks":480,"midi":62,"name":"D4","ticks":290400,"time":151.25,"velocity":1},{"duration":0.25,"durationTicks":480,"midi":66,"name":"F#4","ticks":290880,"time":151.5,"velocity":1},{"duration":0.25,"durationTicks":480,"midi":62,"name":"D4","ticks":291360,"time":151.75,"velocity":1},{"duration":0.25,"durationTicks":480,"midi":57,"name":"A3","ticks":291840,"time":152,"velocity":1},{"duration":0.25,"durationTicks":480,"midi":62,"name":"D4","ticks":292320,"time":152.25,"velocity":1},{"duration":0.25,"durationTicks":480,"midi":66,"name":"F#4","ticks":292800,"time":152.5,"velocity":1},{"duration":0.25,"durationTicks":480,"midi":62,"name":"D4","ticks":293280,"time":152.75,"velocity":1},{"duration":0.25,"durationTicks":480,"midi":59,"name":"B3","ticks":293760,"time":153,"velocity":1},{"duration":0.25,"durationTicks":480,"midi":62,"name":"D4","ticks":294240,"time":153.25,"velocity":1},{"duration":0.25,"durationTicks":480,"midi":66,"name":"F#4","ticks":294720,"time":153.5,"velocity":1},{"duration":0.25,"durationTicks":480,"midi":62,"name":"D4","ticks":295200,"time":153.75,"velocity":1},{"duration":0.25,"durationTicks":480,"midi":57,"name":"A3","ticks":295680,"time":154,"velocity":1},{"duration":0.25,"durationTicks":480,"midi":62,"name":"D4","ticks":296160,"time":154.25,"velocity":1},{"duration":0.25,"durationTicks":480,"midi":66,"name":"F#4","ticks":296640,"time":154.5,"velocity":1},{"duration":0.25,"durationTicks":480,"midi":62,"name":"D4","ticks":297120,"time":154.75,"velocity":1},{"duration":0.25,"durationTicks":480,"midi":59,"name":"B3","ticks":297600,"time":155,"velocity":1},{"duration":0.25,"durationTicks":480,"midi":62,"name":"D4","ticks":298080,"time":155.25,"velocity":1},{"duration":0.25,"durationTicks":480,"midi":66,"name":"F#4","ticks":298560,"time":155.5,"velocity":1},{"duration":0.25,"durationTicks":480,"midi":62,"name":"D4","ticks":299040,"time":155.75,"velocity":1},{"duration":0.25,"durationTicks":480,"midi":57,"name":"A3","ticks":299520,"time":156,"velocity":1},{"duration":0.25,"durationTicks":480,"midi":62,"name":"D4","ticks":300000,"time":156.25,"velocity":1},{"duration":0.25,"durationTicks":480,"midi":66,"name":"F#4","ticks":300480,"time":156.5,"velocity":1},{"duration":0.25,"durationTicks":480,"midi":62,"name":"D4","ticks":300960,"time":156.75,"velocity":1},{"duration":0.25,"durationTicks":480,"midi":59,"name":"B3","ticks":301440,"time":157,"velocity":1},{"duration":0.25,"durationTicks":480,"midi":62,"name":"D4","ticks":301920,"time":157.25,"velocity":1},{"duration":0.25,"durationTicks":480,"midi":66,"name":"F#4","ticks":302400,"time":157.5,"velocity":1},{"duration":0.25,"durationTicks":480,"midi":62,"name":"D4","ticks":302880,"time":157.75,"velocity":1},{"duration":0.25,"durationTicks":480,"midi":57,"name":"A3","ticks":303360,"time":158,"velocity":1},{"duration":0.25,"durationTicks":480,"midi":62,"name":"D4","ticks":303840,"time":158.25,"velocity":1},{"duration":0.25,"durationTicks":480,"midi":66,"name":"F#4","ticks":304320,"time":158.5,"velocity":1},{"duration":0.25,"durationTicks":480,"midi":62,"name":"D4","ticks":304800,"time":158.75,"velocity":1},{"duration":0.25,"durationTicks":480,"midi":59,"name":"B3","ticks":305280,"time":159,"velocity":1},{"duration":0.25,"durationTicks":480,"midi":62,"name":"D4","ticks":305760,"time":159.25,"velocity":1},{"duration":0.25,"durationTicks":480,"midi":66,"name":"F#4","ticks":306240,"time":159.5,"velocity":1},{"duration":0.25,"durationTicks":480,"midi":62,"name":"D4","ticks":306720,"time":159.75,"velocity":1},{"duration":0.25,"durationTicks":480,"midi":57,"name":"A3","ticks":307200,"time":160,"velocity":1},{"duration":0.25,"durationTicks":480,"midi":62,"name":"D4","ticks":307680,"time":160.25,"velocity":1},{"duration":0.25,"durationTicks":480,"midi":66,"name":"F#4","ticks":308160,"time":160.5,"velocity":1},{"duration":0.25,"durationTicks":480,"midi":62,"name":"D4","ticks":308640,"time":160.75,"velocity":1},{"duration":0.25,"durationTicks":480,"midi":59,"name":"B3","ticks":309120,"time":161,"velocity":1},{"duration":0.25,"durationTicks":480,"midi":62,"name":"D4","ticks":309600,"time":161.25,"velocity":1},{"duration":0.25,"durationTicks":480,"midi":66,"name":"F#4","ticks":310080,"time":161.5,"velocity":1},{"duration":0.25,"durationTicks":480,"midi":62,"name":"D4","ticks":310560,"time":161.75,"velocity":1},{"duration":0.25,"durationTicks":480,"midi":57,"name":"A3","ticks":311040,"time":162,"velocity":1},{"duration":0.25,"durationTicks":480,"midi":62,"name":"D4","ticks":311520,"time":162.25,"velocity":1},{"duration":0.25,"durationTicks":480,"midi":66,"name":"F#4","ticks":312000,"time":162.5,"velocity":1},{"duration":0.25,"durationTicks":480,"midi":62,"name":"D4","ticks":312480,"time":162.75,"velocity":1},{"duration":0.25,"durationTicks":480,"midi":59,"name":"B3","ticks":312960,"time":163,"velocity":1},{"duration":0.25,"durationTicks":480,"midi":62,"name":"D4","ticks":313440,"time":163.25,"velocity":1},{"duration":0.25,"durationTicks":480,"midi":66,"name":"F#4","ticks":313920,"time":163.5,"velocity":1},{"duration":0.25,"durationTicks":480,"midi":62,"name":"D4","ticks":314400,"time":163.75,"velocity":1},{"duration":0.25,"durationTicks":480,"midi":57,"name":"A3","ticks":314880,"time":164,"velocity":1},{"duration":0.25,"durationTicks":480,"midi":62,"name":"D4","ticks":315360,"time":164.25,"velocity":1},{"duration":0.25,"durationTicks":480,"midi":66,"name":"F#4","ticks":315840,"time":164.5,"velocity":1},{"duration":0.25,"durationTicks":480,"midi":62,"name":"D4","ticks":316320,"time":164.75,"velocity":1},{"duration":0.25,"durationTicks":480,"midi":59,"name":"B3","ticks":316800,"time":165,"velocity":1},{"duration":0.25,"durationTicks":480,"midi":62,"name":"D4","ticks":317280,"time":165.25,"velocity":1},{"duration":0.25,"durationTicks":480,"midi":66,"name":"F#4","ticks":317760,"time":165.5,"velocity":1},{"duration":0.25,"durationTicks":480,"midi":62,"name":"D4","ticks":318240,"time":165.75,"velocity":1},{"duration":0.25,"durationTicks":480,"midi":57,"name":"A3","ticks":318720,"time":166,"velocity":1},{"duration":0.25,"durationTicks":480,"midi":62,"name":"D4","ticks":319200,"time":166.25,"velocity":1},{"duration":0.25,"durationTicks":480,"midi":66,"name":"F#4","ticks":319680,"time":166.5,"velocity":1},{"duration":0.25,"durationTicks":480,"midi":62,"name":"D4","ticks":320160,"time":166.75,"velocity":1},{"duration":0.25,"durationTicks":480,"midi":59,"name":"B3","ticks":320640,"time":167,"velocity":1},{"duration":0.25,"durationTicks":480,"midi":62,"name":"D4","ticks":321120,"time":167.25,"velocity":1},{"duration":0.25,"durationTicks":480,"midi":66,"name":"F#4","ticks":321600,"time":167.5,"velocity":1},{"duration":0.25,"durationTicks":480,"midi":62,"name":"D4","ticks":322080,"time":167.75,"velocity":1},{"duration":0.25,"durationTicks":480,"midi":57,"name":"A3","ticks":322560,"time":168,"velocity":1},{"duration":0.25,"durationTicks":480,"midi":62,"name":"D4","ticks":323040,"time":168.25,"velocity":1},{"duration":0.25,"durationTicks":480,"midi":66,"name":"F#4","ticks":323520,"time":168.5,"velocity":1},{"duration":0.25,"durationTicks":480,"midi":62,"name":"D4","ticks":324000,"time":168.75,"velocity":1},{"duration":0.25,"durationTicks":480,"midi":59,"name":"B3","ticks":324480,"time":169,"velocity":1},{"duration":0.25,"durationTicks":480,"midi":62,"name":"D4","ticks":324960,"time":169.25,"velocity":1},{"duration":0.25,"durationTicks":480,"midi":66,"name":"F#4","ticks":325440,"time":169.5,"velocity":1},{"duration":0.25,"durationTicks":480,"midi":62,"name":"D4","ticks":325920,"time":169.75,"velocity":1},{"duration":0.25,"durationTicks":480,"midi":57,"name":"A3","ticks":326400,"time":170,"velocity":1},{"duration":0.25,"durationTicks":480,"midi":62,"name":"D4","ticks":326880,"time":170.25,"velocity":1},{"duration":0.25,"durationTicks":480,"midi":66,"name":"F#4","ticks":327360,"time":170.5,"velocity":1},{"duration":0.25,"durationTicks":480,"midi":62,"name":"D4","ticks":327840,"time":170.75,"velocity":1},{"duration":0.25,"durationTicks":480,"midi":59,"name":"B3","ticks":328320,"time":171,"velocity":1},{"duration":0.25,"durationTicks":480,"midi":62,"name":"D4","ticks":328800,"time":171.25,"velocity":1},{"duration":0.25,"durationTicks":480,"midi":66,"name":"F#4","ticks":329280,"time":171.5,"velocity":1},{"duration":0.25,"durationTicks":480,"midi":62,"name":"D4","ticks":329760,"time":171.75,"velocity":1},{"duration":0.25,"durationTicks":480,"midi":57,"name":"A3","ticks":330240,"time":172,"velocity":1},{"duration":0.25,"durationTicks":480,"midi":62,"name":"D4","ticks":330720,"time":172.25,"velocity":1},{"duration":0.25,"durationTicks":480,"midi":66,"name":"F#4","ticks":331200,"time":172.5,"velocity":1},{"duration":0.25,"durationTicks":480,"midi":62,"name":"D4","ticks":331680,"time":172.75,"velocity":1},{"duration":0.25,"durationTicks":480,"midi":59,"name":"B3","ticks":332160,"time":173,"velocity":1},{"duration":0.25,"durationTicks":480,"midi":62,"name":"D4","ticks":332640,"time":173.25,"velocity":1},{"duration":0.25,"durationTicks":480,"midi":66,"name":"F#4","ticks":333120,"time":173.5,"velocity":1},{"duration":0.25,"durationTicks":480,"midi":62,"name":"D4","ticks":333600,"time":173.75,"velocity":1}],"endOfTrackTicks":334080},{"channel":2,"controlChanges":{"7":[{"number":7,"ticks":0,"time":0,"value":0.6141732283464567}],"10":[{"number":10,"ticks":0,"time":0,"value":0.8976377952755905}]},"pitchBends":[],"instrument":{"family":"guitar","number":25,"name":"acoustic guitar (steel)"},"name":"Guitar 2","notes":[{"duration":0.25,"durationTicks":480,"midi":57,"name":"A3","ticks":126720,"time":66,"velocity":1},{"duration":0.25,"durationTicks":480,"midi":62,"name":"D4","ticks":127200,"time":66.25,"velocity":1},{"duration":0.25,"durationTicks":480,"midi":66,"name":"F#4","ticks":127680,"time":66.5,"velocity":1},{"duration":0.25,"durationTicks":480,"midi":62,"name":"D4","ticks":128160,"time":66.75,"velocity":1},{"duration":0.25,"durationTicks":480,"midi":59,"name":"B3","ticks":128640,"time":67,"velocity":1},{"duration":0.25,"durationTicks":480,"midi":62,"name":"D4","ticks":129120,"time":67.25,"velocity":1},{"duration":0.25,"durationTicks":480,"midi":66,"name":"F#4","ticks":129600,"time":67.5,"velocity":1},{"duration":0.25,"durationTicks":480,"midi":62,"name":"D4","ticks":130080,"time":67.75,"velocity":1},{"duration":0.25,"durationTicks":480,"midi":57,"name":"A3","ticks":130560,"time":68,"velocity":1},{"duration":0.25,"durationTicks":480,"midi":62,"name":"D4","ticks":131040,"time":68.25,"velocity":1},{"duration":0.25,"durationTicks":480,"midi":66,"name":"F#4","ticks":131520,"time":68.5,"velocity":1},{"duration":0.25,"durationTicks":480,"midi":62,"name":"D4","ticks":132000,"time":68.75,"velocity":1},{"duration":0.25,"durationTicks":480,"midi":59,"name":"B3","ticks":132480,"time":69,"velocity":1},{"duration":0.25,"durationTicks":480,"midi":62,"name":"D4","ticks":132960,"time":69.25,"velocity":1},{"duration":0.25,"durationTicks":480,"midi":66,"name":"F#4","ticks":133440,"time":69.5,"velocity":1},{"duration":0.25,"durationTicks":480,"midi":62,"name":"D4","ticks":133920,"time":69.75,"velocity":1},{"duration":0.25,"durationTicks":480,"midi":57,"name":"A3","ticks":134400,"time":70,"velocity":1},{"duration":0.25,"durationTicks":480,"midi":62,"name":"D4","ticks":134880,"time":70.25,"velocity":1},{"duration":0.25,"durationTicks":480,"midi":66,"name":"F#4","ticks":135360,"time":70.5,"velocity":1},{"duration":0.25,"durationTicks":480,"midi":62,"name":"D4","ticks":135840,"time":70.75,"velocity":1},{"duration":0.25,"durationTicks":480,"midi":59,"name":"B3","ticks":136320,"time":71,"velocity":1},{"duration":0.25,"durationTicks":480,"midi":62,"name":"D4","ticks":136800,"time":71.25,"velocity":1},{"duration":0.25,"durationTicks":480,"midi":66,"name":"F#4","ticks":137280,"time":71.5,"velocity":1},{"duration":0.25,"durationTicks":480,"midi":62,"name":"D4","ticks":137760,"time":71.75,"velocity":1},{"duration":0.25,"durationTicks":480,"midi":57,"name":"A3","ticks":138240,"time":72,"velocity":1},{"duration":0.25,"durationTicks":480,"midi":62,"name":"D4","ticks":138720,"time":72.25,"velocity":1},{"duration":0.25,"durationTicks":480,"midi":66,"name":"F#4","ticks":139200,"time":72.5,"velocity":1},{"duration":0.25,"durationTicks":480,"midi":62,"name":"D4","ticks":139680,"time":72.75,"velocity":1},{"duration":0.25,"durationTicks":480,"midi":59,"name":"B3","ticks":140160,"time":73,"velocity":1},{"duration":0.25,"durationTicks":480,"midi":62,"name":"D4","ticks":140640,"time":73.25,"velocity":1},{"duration":0.25,"durationTicks":480,"midi":66,"name":"F#4","ticks":141120,"time":73.5,"velocity":1},{"duration":0.25,"durationTicks":480,"midi":62,"name":"D4","ticks":141600,"time":73.75,"velocity":1},{"duration":0.25,"durationTicks":480,"midi":57,"name":"A3","ticks":142080,"time":74,"velocity":1},{"duration":0.25,"durationTicks":480,"midi":62,"name":"D4","ticks":142560,"time":74.25,"velocity":1},{"duration":0.25,"durationTicks":480,"midi":66,"name":"F#4","ticks":143040,"time":74.5,"velocity":1},{"duration":0.25,"durationTicks":480,"midi":62,"name":"D4","ticks":143520,"time":74.75,"velocity":1},{"duration":0.25,"durationTicks":480,"midi":59,"name":"B3","ticks":144000,"time":75,"velocity":1},{"duration":0.25,"durationTicks":480,"midi":62,"name":"D4","ticks":144480,"time":75.25,"velocity":1},{"duration":0.25,"durationTicks":480,"midi":66,"name":"F#4","ticks":144960,"time":75.5,"velocity":1},{"duration":0.25,"durationTicks":480,"midi":62,"name":"D4","ticks":145440,"time":75.75,"velocity":1},{"duration":0.25,"durationTicks":480,"midi":57,"name":"A3","ticks":145920,"time":76,"velocity":1},{"duration":0.25,"durationTicks":480,"midi":62,"name":"D4","ticks":146400,"time":76.25,"velocity":1},{"duration":0.25,"durationTicks":480,"midi":66,"name":"F#4","ticks":146880,"time":76.5,"velocity":1},{"duration":0.25,"durationTicks":480,"midi":62,"name":"D4","ticks":147360,"time":76.75,"velocity":1},{"duration":0.25,"durationTicks":480,"midi":59,"name":"B3","ticks":147840,"time":77,"velocity":1},{"duration":0.25,"durationTicks":480,"midi":62,"name":"D4","ticks":148320,"time":77.25,"velocity":1},{"duration":0.25,"durationTicks":480,"midi":66,"name":"F#4","ticks":148800,"time":77.5,"velocity":1},{"duration":0.25,"durationTicks":480,"midi":62,"name":"D4","ticks":149280,"time":77.75,"velocity":1},{"duration":0.25,"durationTicks":480,"midi":59,"name":"B3","ticks":149760,"time":78,"velocity":1},{"duration":0.25,"durationTicks":480,"midi":64,"name":"E4","ticks":150240,"time":78.25,"velocity":1},{"duration":0.25,"durationTicks":480,"midi":67,"name":"G4","ticks":150720,"time":78.5,"velocity":1},{"duration":0.25,"durationTicks":480,"midi":64,"name":"E4","ticks":151200,"time":78.75,"velocity":1},{"duration":0.25,"durationTicks":480,"midi":59,"name":"B3","ticks":151680,"time":79,"velocity":1},{"duration":0.25,"durationTicks":480,"midi":64,"name":"E4","ticks":152160,"time":79.25,"velocity":1},{"duration":0.25,"durationTicks":480,"midi":67,"name":"G4","ticks":152640,"time":79.5,"velocity":1},{"duration":0.25,"durationTicks":480,"midi":64,"name":"E4","ticks":153120,"time":79.75,"velocity":1},{"duration":0.25,"durationTicks":480,"midi":57,"name":"A3","ticks":153600,"time":80,"velocity":1},{"duration":0.25,"durationTicks":480,"midi":61,"name":"C#4","ticks":154080,"time":80.25,"velocity":1},{"duration":0.25,"durationTicks":480,"midi":67,"name":"G4","ticks":154560,"time":80.5,"velocity":1},{"duration":0.25,"durationTicks":480,"midi":61,"name":"C#4","ticks":155040,"time":80.75,"velocity":1},{"duration":0.25,"durationTicks":480,"midi":57,"name":"A3","ticks":155520,"time":81,"velocity":1},{"duration":0.25,"durationTicks":480,"midi":61,"name":"C#4","ticks":156000,"time":81.25,"velocity":1},{"duration":0.25,"durationTicks":480,"midi":67,"name":"G4","ticks":156480,"time":81.5,"velocity":1},{"duration":0.25,"durationTicks":480,"midi":61,"name":"C#4","ticks":156960,"time":81.75,"velocity":1},{"duration":0.25,"durationTicks":480,"midi":58,"name":"A#3","ticks":157440,"time":82,"velocity":1},{"duration":0.25,"durationTicks":480,"midi":62,"name":"D4","ticks":157920,"time":82.25,"velocity":1},{"duration":0.25,"durationTicks":480,"midi":69,"name":"A4","ticks":158400,"time":82.5,"velocity":1},{"duration":0.25,"durationTicks":480,"midi":65,"name":"F4","ticks":158880,"time":82.75,"velocity":1},{"duration":0.25,"durationTicks":480,"midi":69,"name":"A4","ticks":159360,"time":83,"velocity":1},{"duration":0.25,"durationTicks":480,"midi":65,"name":"F4","ticks":159840,"time":83.25,"velocity":1},{"duration":0.25,"durationTicks":480,"midi":69,"name":"A4","ticks":160320,"time":83.5,"velocity":1},{"duration":0.25,"durationTicks":480,"midi":65,"name":"F4","ticks":160800,"time":83.75,"velocity":1},{"duration":0.25,"durationTicks":480,"midi":65,"name":"F4","ticks":161280,"time":84,"velocity":1},{"duration":0.25,"durationTicks":480,"midi":60,"name":"C4","ticks":161280,"time":84,"velocity":1},{"duration":0.25,"durationTicks":480,"midi":69,"name":"A4","ticks":161760,"time":84.25,"velocity":1},{"duration":0.25,"durationTicks":480,"midi":65,"name":"F4","ticks":162240,"time":84.5,"velocity":1},{"duration":0.25,"durationTicks":480,"midi":60,"name":"C4","ticks":162240,"time":84.5,"velocity":1},{"duration":0.25,"durationTicks":480,"midi":64,"name":"E4","ticks":163200,"time":85,"velocity":1},{"duration":0.25,"durationTicks":480,"midi":60,"name":"C4","ticks":163200,"time":85,"velocity":1},{"duration":0.25,"durationTicks":480,"midi":67,"name":"G4","ticks":163680,"time":85.25,"velocity":1},{"duration":0.25,"durationTicks":480,"midi":64,"name":"E4","ticks":164160,"time":85.5,"velocity":1},{"duration":0.25,"durationTicks":480,"midi":60,"name":"C4","ticks":164160,"time":85.5,"velocity":1},{"duration":0.25,"durationTicks":480,"midi":62,"name":"D4","ticks":165120,"time":86,"velocity":1},{"duration":0.25,"durationTicks":480,"midi":58,"name":"A#3","ticks":165120,"time":86,"velocity":1},{"duration":0.25,"durationTicks":480,"midi":70,"name":"A#4","ticks":165600,"time":86.25,"velocity":1},{"duration":0.25,"durationTicks":480,"midi":62,"name":"D4","ticks":166080,"time":86.5,"velocity":1},{"duration":0.25,"durationTicks":480,"midi":58,"name":"A#3","ticks":166080,"time":86.5,"velocity":1},{"duration":0.25,"durationTicks":480,"midi":64,"name":"E4","ticks":166560,"time":86.75,"velocity":1},{"duration":0.25,"durationTicks":480,"midi":65,"name":"F4","ticks":167040,"time":87,"velocity":1},{"duration":0.25,"durationTicks":480,"midi":60,"name":"C4","ticks":167040,"time":87,"velocity":1},{"duration":0.25,"durationTicks":480,"midi":69,"name":"A4","ticks":167520,"time":87.25,"velocity":1},{"duration":0.25,"durationTicks":480,"midi":65,"name":"F4","ticks":168000,"time":87.5,"velocity":1},{"duration":0.25,"durationTicks":480,"midi":60,"name":"C4","ticks":168000,"time":87.5,"velocity":1},{"duration":0.25,"durationTicks":480,"midi":65,"name":"F4","ticks":168960,"time":88,"velocity":1},{"duration":0.25,"durationTicks":480,"midi":60,"name":"C4","ticks":168960,"time":88,"velocity":1},{"duration":0.25,"durationTicks":480,"midi":69,"name":"A4","ticks":169440,"time":88.25,"velocity":1},{"duration":0.25,"durationTicks":480,"midi":65,"name":"F4","ticks":169920,"time":88.5,"velocity":1},{"duration":0.25,"durationTicks":480,"midi":60,"name":"C4","ticks":169920,"time":88.5,"velocity":1},{"duration":0.25,"durationTicks":480,"midi":64,"name":"E4","ticks":170880,"time":89,"velocity":1},{"duration":0.25,"durationTicks":480,"midi":60,"name":"C4","ticks":170880,"time":89,"velocity":1},{"duration":0.25,"durationTicks":480,"midi":67,"name":"G4","ticks":171360,"time":89.25,"velocity":1},{"duration":0.25,"durationTicks":480,"midi":64,"name":"E4","ticks":171840,"time":89.5,"velocity":1},{"duration":0.25,"durationTicks":480,"midi":60,"name":"C4","ticks":171840,"time":89.5,"velocity":1},{"duration":0.25,"durationTicks":480,"midi":62,"name":"D4","ticks":172800,"time":90,"velocity":1},{"duration":0.25,"durationTicks":480,"midi":58,"name":"A#3","ticks":172800,"time":90,"velocity":1},{"duration":0.25,"durationTicks":480,"midi":70,"name":"A#4","ticks":173280,"time":90.25,"velocity":1},{"duration":0.25,"durationTicks":480,"midi":62,"name":"D4","ticks":173760,"time":90.5,"velocity":1},{"duration":0.25,"durationTicks":480,"midi":58,"name":"A#3","ticks":173760,"time":90.5,"velocity":1},{"duration":0.25,"durationTicks":480,"midi":64,"name":"E4","ticks":174240,"time":90.75,"velocity":1},{"duration":0.25,"durationTicks":480,"midi":65,"name":"F4","ticks":174720,"time":91,"velocity":1},{"duration":0.25,"durationTicks":480,"midi":60,"name":"C4","ticks":174720,"time":91,"velocity":1},{"duration":0.25,"durationTicks":480,"midi":69,"name":"A4","ticks":175200,"time":91.25,"velocity":1},{"duration":0.25,"durationTicks":480,"midi":65,"name":"F4","ticks":175680,"time":91.5,"velocity":1},{"duration":0.25,"durationTicks":480,"midi":60,"name":"C4","ticks":175680,"time":91.5,"velocity":1},{"duration":0.25,"durationTicks":480,"midi":62,"name":"D4","ticks":176640,"time":92,"velocity":1},{"duration":0.25,"durationTicks":480,"midi":58,"name":"A#3","ticks":176640,"time":92,"velocity":1},{"duration":0.25,"durationTicks":480,"midi":67,"name":"G4","ticks":177120,"time":92.25,"velocity":1},{"duration":0.25,"durationTicks":480,"midi":62,"name":"D4","ticks":177600,"time":92.5,"velocity":1},{"duration":0.25,"durationTicks":480,"midi":58,"name":"A#3","ticks":177600,"time":92.5,"velocity":1},{"duration":0.25,"durationTicks":480,"midi":67,"name":"G4","ticks":178080,"time":92.75,"velocity":1},{"duration":0.25,"durationTicks":480,"midi":64,"name":"E4","ticks":178560,"time":93,"velocity":1},{"duration":0.25,"durationTicks":480,"midi":60,"name":"C4","ticks":178560,"time":93,"velocity":1},{"duration":0.25,"durationTicks":480,"midi":67,"name":"G4","ticks":179040,"time":93.25,"velocity":1},{"duration":0.25,"durationTicks":480,"midi":64,"name":"E4","ticks":179520,"time":93.5,"velocity":1},{"duration":0.25,"durationTicks":480,"midi":60,"name":"C4","ticks":179520,"time":93.5,"velocity":1},{"duration":0.25,"durationTicks":480,"midi":67,"name":"G4","ticks":180000,"time":93.75,"velocity":1},{"duration":0.25,"durationTicks":480,"midi":65,"name":"F4","ticks":180480,"time":94,"velocity":1},{"duration":0.25,"durationTicks":480,"midi":60,"name":"C4","ticks":180480,"time":94,"velocity":1},{"duration":0.25,"durationTicks":480,"midi":69,"name":"A4","ticks":180960,"time":94.25,"velocity":1},{"duration":0.25,"durationTicks":480,"midi":65,"name":"F4","ticks":181440,"time":94.5,"velocity":1},{"duration":0.25,"durationTicks":480,"midi":60,"name":"C4","ticks":181440,"time":94.5,"velocity":1},{"duration":0.25,"durationTicks":480,"midi":69,"name":"A4","ticks":181920,"time":94.75,"velocity":1},{"duration":0.25,"durationTicks":480,"midi":65,"name":"F4","ticks":182400,"time":95,"velocity":1},{"duration":0.25,"durationTicks":480,"midi":62,"name":"D4","ticks":182400,"time":95,"velocity":1},{"duration":0.25,"durationTicks":480,"midi":69,"name":"A4","ticks":182880,"time":95.25,"velocity":1},{"duration":0.25,"durationTicks":480,"midi":65,"name":"F4","ticks":183360,"time":95.5,"velocity":1},{"duration":0.25,"durationTicks":480,"midi":62,"name":"D4","ticks":183360,"time":95.5,"velocity":1},{"duration":0.25,"durationTicks":480,"midi":69,"name":"A4","ticks":183840,"time":95.75,"velocity":1},{"duration":0.25,"durationTicks":480,"midi":62,"name":"D4","ticks":184320,"time":96,"velocity":1},{"duration":0.25,"durationTicks":480,"midi":58,"name":"A#3","ticks":184320,"time":96,"velocity":1},{"duration":0.25,"durationTicks":480,"midi":67,"name":"G4","ticks":184800,"time":96.25,"velocity":1},{"duration":0.25,"durationTicks":480,"midi":62,"name":"D4","ticks":185280,"time":96.5,"velocity":1},{"duration":0.25,"durationTicks":480,"midi":58,"name":"A#3","ticks":185280,"time":96.5,"velocity":1},{"duration":0.25,"durationTicks":480,"midi":67,"name":"G4","ticks":185760,"time":96.75,"velocity":1},{"duration":0.25,"durationTicks":480,"midi":61,"name":"C#4","ticks":186240,"time":97,"velocity":1},{"duration":0.25,"durationTicks":480,"midi":57,"name":"A3","ticks":186240,"time":97,"velocity":1},{"duration":0.25,"durationTicks":480,"midi":67,"name":"G4","ticks":186720,"time":97.25,"velocity":1},{"duration":0.25,"durationTicks":480,"midi":61,"name":"C#4","ticks":187200,"time":97.5,"velocity":1},{"duration":0.25,"durationTicks":480,"midi":57,"name":"A3","ticks":187200,"time":97.5,"velocity":1},{"duration":0.25,"durationTicks":480,"midi":67,"name":"G4","ticks":187680,"time":97.75,"velocity":1},{"duration":0.25,"durationTicks":480,"midi":57,"name":"A3","ticks":188160,"time":98,"velocity":1},{"duration":0.25,"durationTicks":480,"midi":62,"name":"D4","ticks":188640,"time":98.25,"velocity":1},{"duration":0.25,"durationTicks":480,"midi":66,"name":"F#4","ticks":189120,"time":98.5,"velocity":1},{"duration":0.25,"durationTicks":480,"midi":62,"name":"D4","ticks":189600,"time":98.75,"velocity":1},{"duration":0.25,"durationTicks":480,"midi":59,"name":"B3","ticks":190080,"time":99,"velocity":1},{"duration":0.25,"durationTicks":480,"midi":62,"name":"D4","ticks":190560,"time":99.25,"velocity":1},{"duration":0.25,"durationTicks":480,"midi":66,"name":"F#4","ticks":191040,"time":99.5,"velocity":1},{"duration":0.25,"durationTicks":480,"midi":62,"name":"D4","ticks":191520,"time":99.75,"velocity":1},{"duration":0.25,"durationTicks":480,"midi":57,"name":"A3","ticks":192000,"time":100,"velocity":1},{"duration":0.25,"durationTicks":480,"midi":62,"name":"D4","ticks":192480,"time":100.25,"velocity":1},{"duration":0.25,"durationTicks":480,"midi":66,"name":"F#4","ticks":192960,"time":100.5,"velocity":1},{"duration":0.25,"durationTicks":480,"midi":62,"name":"D4","ticks":193440,"time":100.75,"velocity":1},{"duration":0.25,"durationTicks":480,"midi":59,"name":"B3","ticks":193920,"time":101,"velocity":1},{"duration":0.25,"durationTicks":480,"midi":62,"name":"D4","ticks":194400,"time":101.25,"velocity":1},{"duration":0.25,"durationTicks":480,"midi":66,"name":"F#4","ticks":194880,"time":101.5,"velocity":1},{"duration":0.25,"durationTicks":480,"midi":62,"name":"D4","ticks":195360,"time":101.75,"velocity":1},{"duration":0.25,"durationTicks":480,"midi":57,"name":"A3","ticks":195840,"time":102,"velocity":1},{"duration":0.25,"durationTicks":480,"midi":62,"name":"D4","ticks":196320,"time":102.25,"velocity":1},{"duration":0.25,"durationTicks":480,"midi":66,"name":"F#4","ticks":196800,"time":102.5,"velocity":1},{"duration":0.25,"durationTicks":480,"midi":62,"name":"D4","ticks":197280,"time":102.75,"velocity":1},{"duration":0.25,"durationTicks":480,"midi":59,"name":"B3","ticks":197760,"time":103,"velocity":1},{"duration":0.25,"durationTicks":480,"midi":62,"name":"D4","ticks":198240,"time":103.25,"velocity":1},{"duration":0.25,"durationTicks":480,"midi":66,"name":"F#4","ticks":198720,"time":103.5,"velocity":1},{"duration":0.25,"durationTicks":480,"midi":62,"name":"D4","ticks":199200,"time":103.75,"velocity":1},{"duration":0.25,"durationTicks":480,"midi":57,"name":"A3","ticks":199680,"time":104,"velocity":1},{"duration":0.25,"durationTicks":480,"midi":62,"name":"D4","ticks":200160,"time":104.25,"velocity":1},{"duration":0.25,"durationTicks":480,"midi":66,"name":"F#4","ticks":200640,"time":104.5,"velocity":1},{"duration":0.25,"durationTicks":480,"midi":62,"name":"D4","ticks":201120,"time":104.75,"velocity":1},{"duration":0.25,"durationTicks":480,"midi":59,"name":"B3","ticks":201600,"time":105,"velocity":1},{"duration":0.25,"durationTicks":480,"midi":62,"name":"D4","ticks":202080,"time":105.25,"velocity":1},{"duration":0.25,"durationTicks":480,"midi":66,"name":"F#4","ticks":202560,"time":105.5,"velocity":1},{"duration":0.25,"durationTicks":480,"midi":62,"name":"D4","ticks":203040,"time":105.75,"velocity":1},{"duration":0.25,"durationTicks":480,"midi":57,"name":"A3","ticks":226560,"time":118,"velocity":1},{"duration":0.25,"durationTicks":480,"midi":62,"name":"D4","ticks":227040,"time":118.25,"velocity":1},{"duration":0.25,"durationTicks":480,"midi":66,"name":"F#4","ticks":227520,"time":118.5,"velocity":1},{"duration":0.25,"durationTicks":480,"midi":62,"name":"D4","ticks":228000,"time":118.75,"velocity":1},{"duration":0.25,"durationTicks":480,"midi":59,"name":"B3","ticks":228480,"time":119,"velocity":1},{"duration":0.25,"durationTicks":480,"midi":62,"name":"D4","ticks":228960,"time":119.25,"velocity":1},{"duration":0.25,"durationTicks":480,"midi":66,"name":"F#4","ticks":229440,"time":119.5,"velocity":1},{"duration":0.25,"durationTicks":480,"midi":62,"name":"D4","ticks":229920,"time":119.75,"velocity":1},{"duration":0.25,"durationTicks":480,"midi":57,"name":"A3","ticks":230400,"time":120,"velocity":1},{"duration":0.25,"durationTicks":480,"midi":62,"name":"D4","ticks":230880,"time":120.25,"velocity":1},{"duration":0.25,"durationTicks":480,"midi":66,"name":"F#4","ticks":231360,"time":120.5,"velocity":1},{"duration":0.25,"durationTicks":480,"midi":62,"name":"D4","ticks":231840,"time":120.75,"velocity":1},{"duration":0.25,"durationTicks":480,"midi":59,"name":"B3","ticks":232320,"time":121,"velocity":1},{"duration":0.25,"durationTicks":480,"midi":62,"name":"D4","ticks":232800,"time":121.25,"velocity":1},{"duration":0.25,"durationTicks":480,"midi":66,"name":"F#4","ticks":233280,"time":121.5,"velocity":1},{"duration":0.25,"durationTicks":480,"midi":62,"name":"D4","ticks":233760,"time":121.75,"velocity":1},{"duration":0.25,"durationTicks":480,"midi":57,"name":"A3","ticks":234240,"time":122,"velocity":1},{"duration":0.25,"durationTicks":480,"midi":62,"name":"D4","ticks":234720,"time":122.25,"velocity":1},{"duration":0.25,"durationTicks":480,"midi":66,"name":"F#4","ticks":235200,"time":122.5,"velocity":1},{"duration":0.25,"durationTicks":480,"midi":62,"name":"D4","ticks":235680,"time":122.75,"velocity":1},{"duration":0.25,"durationTicks":480,"midi":59,"name":"B3","ticks":236160,"time":123,"velocity":1},{"duration":0.25,"durationTicks":480,"midi":62,"name":"D4","ticks":236640,"time":123.25,"velocity":1},{"duration":0.25,"durationTicks":480,"midi":66,"name":"F#4","ticks":237120,"time":123.5,"velocity":1},{"duration":0.25,"durationTicks":480,"midi":62,"name":"D4","ticks":237600,"time":123.75,"velocity":1},{"duration":0.25,"durationTicks":480,"midi":57,"name":"A3","ticks":238080,"time":124,"velocity":1},{"duration":0.25,"durationTicks":480,"midi":62,"name":"D4","ticks":238560,"time":124.25,"velocity":1},{"duration":0.25,"durationTicks":480,"midi":66,"name":"F#4","ticks":239040,"time":124.5,"velocity":1},{"duration":0.25,"durationTicks":480,"midi":62,"name":"D4","ticks":239520,"time":124.75,"velocity":1},{"duration":0.25,"durationTicks":480,"midi":59,"name":"B3","ticks":240000,"time":125,"velocity":1},{"duration":0.25,"durationTicks":480,"midi":62,"name":"D4","ticks":240480,"time":125.25,"velocity":1},{"duration":0.25,"durationTicks":480,"midi":66,"name":"F#4","ticks":240960,"time":125.5,"velocity":1},{"duration":0.25,"durationTicks":480,"midi":62,"name":"D4","ticks":241440,"time":125.75,"velocity":1},{"duration":0.25,"durationTicks":480,"midi":57,"name":"A3","ticks":241920,"time":126,"velocity":1},{"duration":0.25,"durationTicks":480,"midi":62,"name":"D4","ticks":242400,"time":126.25,"velocity":1},{"duration":0.25,"durationTicks":480,"midi":66,"name":"F#4","ticks":242880,"time":126.5,"velocity":1},{"duration":0.25,"durationTicks":480,"midi":62,"name":"D4","ticks":243360,"time":126.75,"velocity":1},{"duration":0.25,"durationTicks":480,"midi":59,"name":"B3","ticks":243840,"time":127,"velocity":1},{"duration":0.25,"durationTicks":480,"midi":62,"name":"D4","ticks":244320,"time":127.25,"velocity":1},{"duration":0.25,"durationTicks":480,"midi":66,"name":"F#4","ticks":244800,"time":127.5,"velocity":1},{"duration":0.25,"durationTicks":480,"midi":62,"name":"D4","ticks":245280,"time":127.75,"velocity":1},{"duration":0.25,"durationTicks":480,"midi":57,"name":"A3","ticks":245760,"time":128,"velocity":1},{"duration":0.25,"durationTicks":480,"midi":62,"name":"D4","ticks":246240,"time":128.25,"velocity":1},{"duration":0.25,"durationTicks":480,"midi":66,"name":"F#4","ticks":246720,"time":128.5,"velocity":1},{"duration":0.25,"durationTicks":480,"midi":62,"name":"D4","ticks":247200,"time":128.75,"velocity":1},{"duration":0.25,"durationTicks":480,"midi":59,"name":"B3","ticks":247680,"time":129,"velocity":1},{"duration":0.25,"durationTicks":480,"midi":62,"name":"D4","ticks":248160,"time":129.25,"velocity":1},{"duration":0.25,"durationTicks":480,"midi":66,"name":"F#4","ticks":248640,"time":129.5,"velocity":1},{"duration":0.25,"durationTicks":480,"midi":62,"name":"D4","ticks":249120,"time":129.75,"velocity":1},{"duration":0.25,"durationTicks":480,"midi":59,"name":"B3","ticks":249600,"time":130,"velocity":1},{"duration":0.25,"durationTicks":480,"midi":64,"name":"E4","ticks":250080,"time":130.25,"velocity":1},{"duration":0.25,"durationTicks":480,"midi":67,"name":"G4","ticks":250560,"time":130.5,"velocity":1},{"duration":0.25,"durationTicks":480,"midi":64,"name":"E4","ticks":251040,"time":130.75,"velocity":1},{"duration":0.25,"durationTicks":480,"midi":59,"name":"B3","ticks":251520,"time":131,"velocity":1},{"duration":0.25,"durationTicks":480,"midi":64,"name":"E4","ticks":252000,"time":131.25,"velocity":1},{"duration":0.25,"durationTicks":480,"midi":67,"name":"G4","ticks":252480,"time":131.5,"velocity":1},{"duration":0.25,"durationTicks":480,"midi":64,"name":"E4","ticks":252960,"time":131.75,"velocity":1},{"duration":0.25,"durationTicks":480,"midi":57,"name":"A3","ticks":253440,"time":132,"velocity":1},{"duration":0.25,"durationTicks":480,"midi":61,"name":"C#4","ticks":253920,"time":132.25,"velocity":1},{"duration":0.25,"durationTicks":480,"midi":67,"name":"G4","ticks":254400,"time":132.5,"velocity":1},{"duration":0.25,"durationTicks":480,"midi":61,"name":"C#4","ticks":254880,"time":132.75,"velocity":1},{"duration":0.25,"durationTicks":480,"midi":57,"name":"A3","ticks":255360,"time":133,"velocity":1},{"duration":0.25,"durationTicks":480,"midi":61,"name":"C#4","ticks":255840,"time":133.25,"velocity":1},{"duration":0.25,"durationTicks":480,"midi":67,"name":"G4","ticks":256320,"time":133.5,"velocity":1},{"duration":0.25,"durationTicks":480,"midi":61,"name":"C#4","ticks":256800,"time":133.75,"velocity":1},{"duration":0.25,"durationTicks":480,"midi":58,"name":"A#3","ticks":257280,"time":134,"velocity":1},{"duration":0.25,"durationTicks":480,"midi":62,"name":"D4","ticks":257760,"time":134.25,"velocity":1},{"duration":0.25,"durationTicks":480,"midi":69,"name":"A4","ticks":258240,"time":134.5,"velocity":1},{"duration":0.25,"durationTicks":480,"midi":65,"name":"F4","ticks":258720,"time":134.75,"velocity":1},{"duration":0.25,"durationTicks":480,"midi":69,"name":"A4","ticks":259200,"time":135,"velocity":1},{"duration":0.25,"durationTicks":480,"midi":65,"name":"F4","ticks":259680,"time":135.25,"velocity":1},{"duration":0.25,"durationTicks":480,"midi":69,"name":"A4","ticks":260160,"time":135.5,"velocity":1},{"duration":0.25,"durationTicks":480,"midi":65,"name":"F4","ticks":260640,"time":135.75,"velocity":1},{"duration":0.25,"durationTicks":480,"midi":65,"name":"F4","ticks":261120,"time":136,"velocity":1},{"duration":0.25,"durationTicks":480,"midi":60,"name":"C4","ticks":261120,"time":136,"velocity":1},{"duration":0.25,"durationTicks":480,"midi":69,"name":"A4","ticks":261600,"time":136.25,"velocity":1},{"duration":0.25,"durationTicks":480,"midi":65,"name":"F4","ticks":262080,"time":136.5,"velocity":1},{"duration":0.25,"durationTicks":480,"midi":60,"name":"C4","ticks":262080,"time":136.5,"velocity":1},{"duration":0.25,"durationTicks":480,"midi":64,"name":"E4","ticks":263040,"time":137,"velocity":1},{"duration":0.25,"durationTicks":480,"midi":60,"name":"C4","ticks":263040,"time":137,"velocity":1},{"duration":0.25,"durationTicks":480,"midi":67,"name":"G4","ticks":263520,"time":137.25,"velocity":1},{"duration":0.25,"durationTicks":480,"midi":64,"name":"E4","ticks":264000,"time":137.5,"velocity":1},{"duration":0.25,"durationTicks":480,"midi":60,"name":"C4","ticks":264000,"time":137.5,"velocity":1},{"duration":0.25,"durationTicks":480,"midi":62,"name":"D4","ticks":264960,"time":138,"velocity":1},{"duration":0.25,"durationTicks":480,"midi":58,"name":"A#3","ticks":264960,"time":138,"velocity":1},{"duration":0.25,"durationTicks":480,"midi":70,"name":"A#4","ticks":265440,"time":138.25,"velocity":1},{"duration":0.25,"durationTicks":480,"midi":62,"name":"D4","ticks":265920,"time":138.5,"velocity":1},{"duration":0.25,"durationTicks":480,"midi":58,"name":"A#3","ticks":265920,"time":138.5,"velocity":1},{"duration":0.25,"durationTicks":480,"midi":64,"name":"E4","ticks":266400,"time":138.75,"velocity":1},{"duration":0.25,"durationTicks":480,"midi":65,"name":"F4","ticks":266880,"time":139,"velocity":1},{"duration":0.25,"durationTicks":480,"midi":60,"name":"C4","ticks":266880,"time":139,"velocity":1},{"duration":0.25,"durationTicks":480,"midi":69,"name":"A4","ticks":267360,"time":139.25,"velocity":1},{"duration":0.25,"durationTicks":480,"midi":65,"name":"F4","ticks":267840,"time":139.5,"velocity":1},{"duration":0.25,"durationTicks":480,"midi":60,"name":"C4","ticks":267840,"time":139.5,"velocity":1},{"duration":0.25,"durationTicks":480,"midi":65,"name":"F4","ticks":268800,"time":140,"velocity":1},{"duration":0.25,"durationTicks":480,"midi":60,"name":"C4","ticks":268800,"time":140,"velocity":1},{"duration":0.25,"durationTicks":480,"midi":69,"name":"A4","ticks":269280,"time":140.25,"velocity":1},{"duration":0.25,"durationTicks":480,"midi":65,"name":"F4","ticks":269760,"time":140.5,"velocity":1},{"duration":0.25,"durationTicks":480,"midi":60,"name":"C4","ticks":269760,"time":140.5,"velocity":1},{"duration":0.25,"durationTicks":480,"midi":64,"name":"E4","ticks":270720,"time":141,"velocity":1},{"duration":0.25,"durationTicks":480,"midi":60,"name":"C4","ticks":270720,"time":141,"velocity":1},{"duration":0.25,"durationTicks":480,"midi":67,"name":"G4","ticks":271200,"time":141.25,"velocity":1},{"duration":0.25,"durationTicks":480,"midi":64,"name":"E4","ticks":271680,"time":141.5,"velocity":1},{"duration":0.25,"durationTicks":480,"midi":60,"name":"C4","ticks":271680,"time":141.5,"velocity":1},{"duration":0.25,"durationTicks":480,"midi":62,"name":"D4","ticks":272640,"time":142,"velocity":1},{"duration":0.25,"durationTicks":480,"midi":58,"name":"A#3","ticks":272640,"time":142,"velocity":1},{"duration":0.25,"durationTicks":480,"midi":70,"name":"A#4","ticks":273120,"time":142.25,"velocity":1},{"duration":0.25,"durationTicks":480,"midi":62,"name":"D4","ticks":273600,"time":142.5,"velocity":1},{"duration":0.25,"durationTicks":480,"midi":58,"name":"A#3","ticks":273600,"time":142.5,"velocity":1},{"duration":0.25,"durationTicks":480,"midi":64,"name":"E4","ticks":274080,"time":142.75,"velocity":1},{"duration":0.25,"durationTicks":480,"midi":65,"name":"F4","ticks":274560,"time":143,"velocity":1},{"duration":0.25,"durationTicks":480,"midi":60,"name":"C4","ticks":274560,"time":143,"velocity":1},{"duration":0.25,"durationTicks":480,"midi":69,"name":"A4","ticks":275040,"time":143.25,"velocity":1},{"duration":0.25,"durationTicks":480,"midi":65,"name":"F4","ticks":275520,"time":143.5,"velocity":1},{"duration":0.25,"durationTicks":480,"midi":60,"name":"C4","ticks":275520,"time":143.5,"velocity":1},{"duration":0.25,"durationTicks":480,"midi":62,"name":"D4","ticks":276480,"time":144,"velocity":1},{"duration":0.25,"durationTicks":480,"midi":58,"name":"A#3","ticks":276480,"time":144,"velocity":1},{"duration":0.25,"durationTicks":480,"midi":67,"name":"G4","ticks":276960,"time":144.25,"velocity":1},{"duration":0.25,"durationTicks":480,"midi":62,"name":"D4","ticks":277440,"time":144.5,"velocity":1},{"duration":0.25,"durationTicks":480,"midi":58,"name":"A#3","ticks":277440,"time":144.5,"velocity":1},{"duration":0.25,"durationTicks":480,"midi":67,"name":"G4","ticks":277920,"time":144.75,"velocity":1},{"duration":0.25,"durationTicks":480,"midi":64,"name":"E4","ticks":278400,"time":145,"velocity":1},{"duration":0.25,"durationTicks":480,"midi":60,"name":"C4","ticks":278400,"time":145,"velocity":1},{"duration":0.25,"durationTicks":480,"midi":67,"name":"G4","ticks":278880,"time":145.25,"velocity":1},{"duration":0.25,"durationTicks":480,"midi":64,"name":"E4","ticks":279360,"time":145.5,"velocity":1},{"duration":0.25,"durationTicks":480,"midi":60,"name":"C4","ticks":279360,"time":145.5,"velocity":1},{"duration":0.25,"durationTicks":480,"midi":67,"name":"G4","ticks":279840,"time":145.75,"velocity":1},{"duration":0.25,"durationTicks":480,"midi":65,"name":"F4","ticks":280320,"time":146,"velocity":1},{"duration":0.25,"durationTicks":480,"midi":60,"name":"C4","ticks":280320,"time":146,"velocity":1},{"duration":0.25,"durationTicks":480,"midi":69,"name":"A4","ticks":280800,"time":146.25,"velocity":1},{"duration":0.25,"durationTicks":480,"midi":65,"name":"F4","ticks":281280,"time":146.5,"velocity":1},{"duration":0.25,"durationTicks":480,"midi":60,"name":"C4","ticks":281280,"time":146.5,"velocity":1},{"duration":0.25,"durationTicks":480,"midi":69,"name":"A4","ticks":281760,"time":146.75,"velocity":1},{"duration":0.25,"durationTicks":480,"midi":65,"name":"F4","ticks":282240,"time":147,"velocity":1},{"duration":0.25,"durationTicks":480,"midi":62,"name":"D4","ticks":282240,"time":147,"velocity":1},{"duration":0.25,"durationTicks":480,"midi":69,"name":"A4","ticks":282720,"time":147.25,"velocity":1},{"duration":0.25,"durationTicks":480,"midi":65,"name":"F4","ticks":283200,"time":147.5,"velocity":1},{"duration":0.25,"durationTicks":480,"midi":62,"name":"D4","ticks":283200,"time":147.5,"velocity":1},{"duration":0.25,"durationTicks":480,"midi":69,"name":"A4","ticks":283680,"time":147.75,"velocity":1},{"duration":0.25,"durationTicks":480,"midi":62,"name":"D4","ticks":284160,"time":148,"velocity":1},{"duration":0.25,"durationTicks":480,"midi":58,"name":"A#3","ticks":284160,"time":148,"velocity":1},{"duration":0.25,"durationTicks":480,"midi":67,"name":"G4","ticks":284640,"time":148.25,"velocity":1},{"duration":0.25,"durationTicks":480,"midi":62,"name":"D4","ticks":285120,"time":148.5,"velocity":1},{"duration":0.25,"durationTicks":480,"midi":58,"name":"A#3","ticks":285120,"time":148.5,"velocity":1},{"duration":0.25,"durationTicks":480,"midi":67,"name":"G4","ticks":285600,"time":148.75,"velocity":1},{"duration":0.25,"durationTicks":480,"midi":61,"name":"C#4","ticks":286080,"time":149,"velocity":1},{"duration":0.25,"durationTicks":480,"midi":57,"name":"A3","ticks":286080,"time":149,"velocity":1},{"duration":0.25,"durationTicks":480,"midi":67,"name":"G4","ticks":286560,"time":149.25,"velocity":1},{"duration":0.25,"durationTicks":480,"midi":61,"name":"C#4","ticks":287040,"time":149.5,"velocity":1},{"duration":0.25,"durationTicks":480,"midi":57,"name":"A3","ticks":287040,"time":149.5,"velocity":1},{"duration":0.25,"durationTicks":480,"midi":67,"name":"G4","ticks":287520,"time":149.75,"velocity":1},{"duration":0.25,"durationTicks":480,"midi":57,"name":"A3","ticks":288000,"time":150,"velocity":1},{"duration":0.25,"durationTicks":480,"midi":62,"name":"D4","ticks":288480,"time":150.25,"velocity":1},{"duration":0.25,"durationTicks":480,"midi":66,"name":"F#4","ticks":288960,"time":150.5,"velocity":1},{"duration":0.25,"durationTicks":480,"midi":62,"name":"D4","ticks":289440,"time":150.75,"velocity":1},{"duration":0.25,"durationTicks":480,"midi":59,"name":"B3","ticks":289920,"time":151,"velocity":1},{"duration":0.25,"durationTicks":480,"midi":62,"name":"D4","ticks":290400,"time":151.25,"velocity":1},{"duration":0.25,"durationTicks":480,"midi":66,"name":"F#4","ticks":290880,"time":151.5,"velocity":1},{"duration":0.25,"durationTicks":480,"midi":62,"name":"D4","ticks":291360,"time":151.75,"velocity":1},{"duration":0.25,"durationTicks":480,"midi":57,"name":"A3","ticks":291840,"time":152,"velocity":1},{"duration":0.25,"durationTicks":480,"midi":62,"name":"D4","ticks":292320,"time":152.25,"velocity":1},{"duration":0.25,"durationTicks":480,"midi":66,"name":"F#4","ticks":292800,"time":152.5,"velocity":1},{"duration":0.25,"durationTicks":480,"midi":62,"name":"D4","ticks":293280,"time":152.75,"velocity":1},{"duration":0.25,"durationTicks":480,"midi":59,"name":"B3","ticks":293760,"time":153,"velocity":1},{"duration":0.25,"durationTicks":480,"midi":62,"name":"D4","ticks":294240,"time":153.25,"velocity":1},{"duration":0.25,"durationTicks":480,"midi":66,"name":"F#4","ticks":294720,"time":153.5,"velocity":1},{"duration":0.25,"durationTicks":480,"midi":62,"name":"D4","ticks":295200,"time":153.75,"velocity":1},{"duration":0.25,"durationTicks":480,"midi":57,"name":"A3","ticks":295680,"time":154,"velocity":1},{"duration":0.25,"durationTicks":480,"midi":62,"name":"D4","ticks":296160,"time":154.25,"velocity":1},{"duration":0.25,"durationTicks":480,"midi":66,"name":"F#4","ticks":296640,"time":154.5,"velocity":1},{"duration":0.25,"durationTicks":480,"midi":62,"name":"D4","ticks":297120,"time":154.75,"velocity":1},{"duration":0.25,"durationTicks":480,"midi":59,"name":"B3","ticks":297600,"time":155,"velocity":1},{"duration":0.25,"durationTicks":480,"midi":62,"name":"D4","ticks":298080,"time":155.25,"velocity":1},{"duration":0.25,"durationTicks":480,"midi":66,"name":"F#4","ticks":298560,"time":155.5,"velocity":1},{"duration":0.25,"durationTicks":480,"midi":62,"name":"D4","ticks":299040,"time":155.75,"velocity":1},{"duration":0.25,"durationTicks":480,"midi":57,"name":"A3","ticks":299520,"time":156,"velocity":1},{"duration":0.25,"durationTicks":480,"midi":62,"name":"D4","ticks":300000,"time":156.25,"velocity":1},{"duration":0.25,"durationTicks":480,"midi":66,"name":"F#4","ticks":300480,"time":156.5,"velocity":1},{"duration":0.25,"durationTicks":480,"midi":62,"name":"D4","ticks":300960,"time":156.75,"velocity":1},{"duration":0.25,"durationTicks":480,"midi":59,"name":"B3","ticks":301440,"time":157,"velocity":1},{"duration":0.25,"durationTicks":480,"midi":62,"name":"D4","ticks":301920,"time":157.25,"velocity":1},{"duration":0.25,"durationTicks":480,"midi":66,"name":"F#4","ticks":302400,"time":157.5,"velocity":1},{"duration":0.25,"durationTicks":480,"midi":62,"name":"D4","ticks":302880,"time":157.75,"velocity":1},{"duration":0.25,"durationTicks":480,"midi":57,"name":"A3","ticks":303360,"time":158,"velocity":1},{"duration":0.25,"durationTicks":480,"midi":62,"name":"D4","ticks":303840,"time":158.25,"velocity":1},{"duration":0.25,"durationTicks":480,"midi":66,"name":"F#4","ticks":304320,"time":158.5,"velocity":1},{"duration":0.25,"durationTicks":480,"midi":62,"name":"D4","ticks":304800,"time":158.75,"velocity":1},{"duration":0.25,"durationTicks":480,"midi":59,"name":"B3","ticks":305280,"time":159,"velocity":1},{"duration":0.25,"durationTicks":480,"midi":62,"name":"D4","ticks":305760,"time":159.25,"velocity":1},{"duration":0.25,"durationTicks":480,"midi":66,"name":"F#4","ticks":306240,"time":159.5,"velocity":1},{"duration":0.25,"durationTicks":480,"midi":62,"name":"D4","ticks":306720,"time":159.75,"velocity":1},{"duration":0.25,"durationTicks":480,"midi":57,"name":"A3","ticks":307200,"time":160,"velocity":1},{"duration":0.25,"durationTicks":480,"midi":62,"name":"D4","ticks":307680,"time":160.25,"velocity":1},{"duration":0.25,"durationTicks":480,"midi":66,"name":"F#4","ticks":308160,"time":160.5,"velocity":1},{"duration":0.25,"durationTicks":480,"midi":62,"name":"D4","ticks":308640,"time":160.75,"velocity":1},{"duration":0.25,"durationTicks":480,"midi":59,"name":"B3","ticks":309120,"time":161,"velocity":1},{"duration":0.25,"durationTicks":480,"midi":62,"name":"D4","ticks":309600,"time":161.25,"velocity":1},{"duration":0.25,"durationTicks":480,"midi":66,"name":"F#4","ticks":310080,"time":161.5,"velocity":1},{"duration":0.25,"durationTicks":480,"midi":62,"name":"D4","ticks":310560,"time":161.75,"velocity":1},{"duration":0.25,"durationTicks":480,"midi":57,"name":"A3","ticks":311040,"time":162,"velocity":1},{"duration":0.25,"durationTicks":480,"midi":62,"name":"D4","ticks":311520,"time":162.25,"velocity":1},{"duration":0.25,"durationTicks":480,"midi":66,"name":"F#4","ticks":312000,"time":162.5,"velocity":1},{"duration":0.25,"durationTicks":480,"midi":62,"name":"D4","ticks":312480,"time":162.75,"velocity":1},{"duration":0.25,"durationTicks":480,"midi":59,"name":"B3","ticks":312960,"time":163,"velocity":1},{"duration":0.25,"durationTicks":480,"midi":62,"name":"D4","ticks":313440,"time":163.25,"velocity":1},{"duration":0.25,"durationTicks":480,"midi":66,"name":"F#4","ticks":313920,"time":163.5,"velocity":1},{"duration":0.25,"durationTicks":480,"midi":62,"name":"D4","ticks":314400,"time":163.75,"velocity":1},{"duration":0.25,"durationTicks":480,"midi":57,"name":"A3","ticks":314880,"time":164,"velocity":1},{"duration":0.25,"durationTicks":480,"midi":62,"name":"D4","ticks":315360,"time":164.25,"velocity":1},{"duration":0.25,"durationTicks":480,"midi":66,"name":"F#4","ticks":315840,"time":164.5,"velocity":1},{"duration":0.25,"durationTicks":480,"midi":62,"name":"D4","ticks":316320,"time":164.75,"velocity":1},{"duration":0.25,"durationTicks":480,"midi":59,"name":"B3","ticks":316800,"time":165,"velocity":1},{"duration":0.25,"durationTicks":480,"midi":62,"name":"D4","ticks":317280,"time":165.25,"velocity":1},{"duration":0.25,"durationTicks":480,"midi":66,"name":"F#4","ticks":317760,"time":165.5,"velocity":1},{"duration":0.25,"durationTicks":480,"midi":62,"name":"D4","ticks":318240,"time":165.75,"velocity":1},{"duration":0.25,"durationTicks":480,"midi":57,"name":"A3","ticks":318720,"time":166,"velocity":1},{"duration":0.25,"durationTicks":480,"midi":62,"name":"D4","ticks":319200,"time":166.25,"velocity":1},{"duration":0.25,"durationTicks":480,"midi":66,"name":"F#4","ticks":319680,"time":166.5,"velocity":1},{"duration":0.25,"durationTicks":480,"midi":62,"name":"D4","ticks":320160,"time":166.75,"velocity":1},{"duration":0.25,"durationTicks":480,"midi":59,"name":"B3","ticks":320640,"time":167,"velocity":1},{"duration":0.25,"durationTicks":480,"midi":62,"name":"D4","ticks":321120,"time":167.25,"velocity":1},{"duration":0.25,"durationTicks":480,"midi":66,"name":"F#4","ticks":321600,"time":167.5,"velocity":1},{"duration":0.25,"durationTicks":480,"midi":62,"name":"D4","ticks":322080,"time":167.75,"velocity":1},{"duration":0.25,"durationTicks":480,"midi":57,"name":"A3","ticks":322560,"time":168,"velocity":1},{"duration":0.25,"durationTicks":480,"midi":62,"name":"D4","ticks":323040,"time":168.25,"velocity":1},{"duration":0.25,"durationTicks":480,"midi":66,"name":"F#4","ticks":323520,"time":168.5,"velocity":1},{"duration":0.25,"durationTicks":480,"midi":62,"name":"D4","ticks":324000,"time":168.75,"velocity":1},{"duration":0.25,"durationTicks":480,"midi":59,"name":"B3","ticks":324480,"time":169,"velocity":1},{"duration":0.25,"durationTicks":480,"midi":62,"name":"D4","ticks":324960,"time":169.25,"velocity":1},{"duration":0.25,"durationTicks":480,"midi":66,"name":"F#4","ticks":325440,"time":169.5,"velocity":1},{"duration":0.25,"durationTicks":480,"midi":62,"name":"D4","ticks":325920,"time":169.75,"velocity":1},{"duration":0.25,"durationTicks":480,"midi":57,"name":"A3","ticks":326400,"time":170,"velocity":1},{"duration":0.25,"durationTicks":480,"midi":62,"name":"D4","ticks":326880,"time":170.25,"velocity":1},{"duration":0.25,"durationTicks":480,"midi":66,"name":"F#4","ticks":327360,"time":170.5,"velocity":1},{"duration":0.25,"durationTicks":480,"midi":62,"name":"D4","ticks":327840,"time":170.75,"velocity":1},{"duration":0.25,"durationTicks":480,"midi":59,"name":"B3","ticks":328320,"time":171,"velocity":1},{"duration":0.25,"durationTicks":480,"midi":62,"name":"D4","ticks":328800,"time":171.25,"velocity":1},{"duration":0.25,"durationTicks":480,"midi":66,"name":"F#4","ticks":329280,"time":171.5,"velocity":1},{"duration":0.25,"durationTicks":480,"midi":62,"name":"D4","ticks":329760,"time":171.75,"velocity":1},{"duration":0.25,"durationTicks":480,"midi":57,"name":"A3","ticks":330240,"time":172,"velocity":1},{"duration":0.25,"durationTicks":480,"midi":62,"name":"D4","ticks":330720,"time":172.25,"velocity":1},{"duration":0.25,"durationTicks":480,"midi":66,"name":"F#4","ticks":331200,"time":172.5,"velocity":1},{"duration":0.25,"durationTicks":480,"midi":62,"name":"D4","ticks":331680,"time":172.75,"velocity":1},{"duration":0.25,"durationTicks":480,"midi":59,"name":"B3","ticks":332160,"time":173,"velocity":1},{"duration":0.25,"durationTicks":480,"midi":62,"name":"D4","ticks":332640,"time":173.25,"velocity":1},{"duration":0.25,"durationTicks":480,"midi":66,"name":"F#4","ticks":333120,"time":173.5,"velocity":1},{"duration":0.25,"durationTicks":480,"midi":62,"name":"D4","ticks":333600,"time":173.75,"velocity":1}],"endOfTrackTicks":334080},{"channel":3,"controlChanges":{"7":[{"number":7,"ticks":0,"time":0,"value":0.7480314960629921}],"10":[{"number":10,"ticks":0,"time":0,"value":0.5039370078740157}]},"pitchBends":[],"instrument":{"family":"guitar","number":25,"name":"acoustic guitar (steel)"},"name":"Guitar 3","notes":[{"duration":0.5,"durationTicks":960,"midi":50,"name":"D3","ticks":88320,"time":46,"velocity":1},{"duration":0.75,"durationTicks":1440,"midi":54,"name":"F#3","ticks":89280,"time":46.5,"velocity":1},{"duration":0.75,"durationTicks":1440,"midi":50,"name":"D3","ticks":89280,"time":46.5,"velocity":1},{"duration":0.75,"durationTicks":1440,"midi":57,"name":"A3","ticks":89280,"time":46.5,"velocity":1},{"duration":0.75,"durationTicks":1440,"midi":62,"name":"D4","ticks":89280,"time":46.5,"velocity":1},{"duration":0.75,"durationTicks":1440,"midi":66,"name":"F#4","ticks":89280,"time":46.5,"velocity":1},{"duration":0.25,"durationTicks":480,"midi":55,"name":"G3","ticks":90720,"time":47.25,"velocity":1},{"duration":0.25,"durationTicks":480,"midi":62,"name":"D4","ticks":90720,"time":47.25,"velocity":1},{"duration":0.25,"durationTicks":480,"midi":67,"name":"G4","ticks":90720,"time":47.25,"velocity":1},{"duration":0.25,"durationTicks":480,"midi":54,"name":"F#3","ticks":91200,"time":47.5,"velocity":1},{"duration":0.25,"durationTicks":480,"midi":62,"name":"D4","ticks":91200,"time":47.5,"velocity":1},{"duration":0.25,"durationTicks":480,"midi":66,"name":"F#4","ticks":91200,"time":47.5,"velocity":1},{"duration":0.25,"durationTicks":480,"midi":57,"name":"A3","ticks":91680,"time":47.75,"velocity":1},{"duration":0.25,"durationTicks":480,"midi":62,"name":"D4","ticks":91680,"time":47.75,"velocity":1},{"duration":0.5,"durationTicks":960,"midi":50,"name":"D3","ticks":92160,"time":48,"velocity":1},{"duration":1.25,"durationTicks":2400,"midi":50,"name":"D3","ticks":92160,"time":48,"velocity":1},{"duration":0.75,"durationTicks":1440,"midi":54,"name":"F#3","ticks":93120,"time":48.5,"velocity":1},{"duration":0.75,"durationTicks":1440,"midi":57,"name":"A3","ticks":93120,"time":48.5,"velocity":1},{"duration":0.75,"durationTicks":1440,"midi":62,"name":"D4","ticks":93120,"time":48.5,"velocity":1},{"duration":0.75,"durationTicks":1440,"midi":66,"name":"F#4","ticks":93120,"time":48.5,"velocity":1},{"duration":1.5,"durationTicks":2880,"midi":50,"name":"D3","ticks":93120,"time":48.5,"velocity":1},{"duration":0.25,"durationTicks":480,"midi":55,"name":"G3","ticks":94560,"time":49.25,"velocity":1},{"duration":0.25,"durationTicks":480,"midi":62,"name":"D4","ticks":94560,"time":49.25,"velocity":1},{"duration":0.25,"durationTicks":480,"midi":67,"name":"G4","ticks":94560,"time":49.25,"velocity":1},{"duration":0.25,"durationTicks":480,"midi":54,"name":"F#3","ticks":95040,"time":49.5,"velocity":1},{"duration":0.25,"durationTicks":480,"midi":62,"name":"D4","ticks":95040,"time":49.5,"velocity":1},{"duration":0.25,"durationTicks":480,"midi":66,"name":"F#4","ticks":95040,"time":49.5,"velocity":1},{"duration":0.25,"durationTicks":480,"midi":57,"name":"A3","ticks":95520,"time":49.75,"velocity":1},{"duration":0.25,"durationTicks":480,"midi":62,"name":"D4","ticks":95520,"time":49.75,"velocity":1},{"duration":0.75,"durationTicks":1440,"midi":50,"name":"D3","ticks":95520,"time":49.75,"velocity":1},{"duration":1.25,"durationTicks":2400,"midi":50,"name":"D3","ticks":96000,"time":50,"velocity":1},{"duration":0.75,"durationTicks":1440,"midi":54,"name":"F#3","ticks":96960,"time":50.5,"velocity":1},{"duration":0.75,"durationTicks":1440,"midi":57,"name":"A3","ticks":96960,"time":50.5,"velocity":1},{"duration":0.75,"durationTicks":1440,"midi":62,"name":"D4","ticks":96960,"time":50.5,"velocity":1},{"duration":0.75,"durationTicks":1440,"midi":66,"name":"F#4","ticks":96960,"time":50.5,"velocity":1},{"duration":1.5,"durationTicks":2880,"midi":50,"name":"D3","ticks":96960,"time":50.5,"velocity":1},{"duration":0.25,"durationTicks":480,"midi":55,"name":"G3","ticks":98400,"time":51.25,"velocity":1},{"duration":0.25,"durationTicks":480,"midi":62,"name":"D4","ticks":98400,"time":51.25,"velocity":1},{"duration":0.25,"durationTicks":480,"midi":67,"name":"G4","ticks":98400,"time":51.25,"velocity":1},{"duration":0.25,"durationTicks":480,"midi":54,"name":"F#3","ticks":98880,"time":51.5,"velocity":1},{"duration":0.25,"durationTicks":480,"midi":62,"name":"D4","ticks":98880,"time":51.5,"velocity":1},{"duration":0.25,"durationTicks":480,"midi":66,"name":"F#4","ticks":98880,"time":51.5,"velocity":1},{"duration":0.25,"durationTicks":480,"midi":57,"name":"A3","ticks":99360,"time":51.75,"velocity":1},{"duration":0.25,"durationTicks":480,"midi":62,"name":"D4","ticks":99360,"time":51.75,"velocity":1},{"duration":0.5,"durationTicks":960,"midi":50,"name":"D3","ticks":99840,"time":52,"velocity":1},{"duration":1.25,"durationTicks":2400,"midi":50,"name":"D3","ticks":99840,"time":52,"velocity":1},{"duration":0.75,"durationTicks":1440,"midi":54,"name":"F#3","ticks":100800,"time":52.5,"velocity":1},{"duration":0.75,"durationTicks":1440,"midi":57,"name":"A3","ticks":100800,"time":52.5,"velocity":1},{"duration":0.75,"durationTicks":1440,"midi":62,"name":"D4","ticks":100800,"time":52.5,"velocity":1},{"duration":0.75,"durationTicks":1440,"midi":66,"name":"F#4","ticks":100800,"time":52.5,"velocity":1},{"duration":1.5,"durationTicks":2880,"midi":50,"name":"D3","ticks":100800,"time":52.5,"velocity":1},{"duration":0.25,"durationTicks":480,"midi":55,"name":"G3","ticks":102240,"time":53.25,"velocity":1},{"duration":0.25,"durationTicks":480,"midi":62,"name":"D4","ticks":102240,"time":53.25,"velocity":1},{"duration":0.25,"durationTicks":480,"midi":67,"name":"G4","ticks":102240,"time":53.25,"velocity":1},{"duration":0.25,"durationTicks":480,"midi":54,"name":"F#3","ticks":102720,"time":53.5,"velocity":1},{"duration":0.25,"durationTicks":480,"midi":62,"name":"D4","ticks":102720,"time":53.5,"velocity":1},{"duration":0.25,"durationTicks":480,"midi":66,"name":"F#4","ticks":102720,"time":53.5,"velocity":1},{"duration":0.25,"durationTicks":480,"midi":57,"name":"A3","ticks":103200,"time":53.75,"velocity":1},{"duration":0.25,"durationTicks":480,"midi":62,"name":"D4","ticks":103200,"time":53.75,"velocity":1},{"duration":0.75,"durationTicks":1440,"midi":50,"name":"D3","ticks":103200,"time":53.75,"velocity":1},{"duration":1.25,"durationTicks":2400,"midi":50,"name":"D3","ticks":103680,"time":54,"velocity":1},{"duration":0.75,"durationTicks":1440,"midi":54,"name":"F#3","ticks":104640,"time":54.5,"velocity":1},{"duration":0.75,"durationTicks":1440,"midi":57,"name":"A3","ticks":104640,"time":54.5,"velocity":1},{"duration":0.75,"durationTicks":1440,"midi":62,"name":"D4","ticks":104640,"time":54.5,"velocity":1},{"duration":0.75,"durationTicks":1440,"midi":66,"name":"F#4","ticks":104640,"time":54.5,"velocity":1},{"duration":1.5,"durationTicks":2880,"midi":50,"name":"D3","ticks":104640,"time":54.5,"velocity":1},{"duration":0.25,"durationTicks":480,"midi":55,"name":"G3","ticks":106080,"time":55.25,"velocity":1},{"duration":0.25,"durationTicks":480,"midi":62,"name":"D4","ticks":106080,"time":55.25,"velocity":1},{"duration":0.25,"durationTicks":480,"midi":67,"name":"G4","ticks":106080,"time":55.25,"velocity":1},{"duration":0.25,"durationTicks":480,"midi":54,"name":"F#3","ticks":106560,"time":55.5,"velocity":1},{"duration":0.25,"durationTicks":480,"midi":62,"name":"D4","ticks":106560,"time":55.5,"velocity":1},{"duration":0.25,"durationTicks":480,"midi":66,"name":"F#4","ticks":106560,"time":55.5,"velocity":1},{"duration":0.25,"durationTicks":480,"midi":57,"name":"A3","ticks":107040,"time":55.75,"velocity":1},{"duration":0.25,"durationTicks":480,"midi":62,"name":"D4","ticks":107040,"time":55.75,"velocity":1},{"duration":0.5,"durationTicks":960,"midi":50,"name":"D3","ticks":107520,"time":56,"velocity":1},{"duration":1.25,"durationTicks":2400,"midi":50,"name":"D3","ticks":107520,"time":56,"velocity":1},{"duration":0.75,"durationTicks":1440,"midi":54,"name":"F#3","ticks":108480,"time":56.5,"velocity":1},{"duration":0.75,"durationTicks":1440,"midi":57,"name":"A3","ticks":108480,"time":56.5,"velocity":1},{"duration":0.75,"durationTicks":1440,"midi":62,"name":"D4","ticks":108480,"time":56.5,"velocity":1},{"duration":0.75,"durationTicks":1440,"midi":66,"name":"F#4","ticks":108480,"time":56.5,"velocity":1},{"duration":1.5,"durationTicks":2880,"midi":50,"name":"D3","ticks":108480,"time":56.5,"velocity":1},{"duration":0.25,"durationTicks":480,"midi":55,"name":"G3","ticks":109920,"time":57.25,"velocity":1},{"duration":0.25,"durationTicks":480,"midi":62,"name":"D4","ticks":109920,"time":57.25,"velocity":1},{"duration":0.25,"durationTicks":480,"midi":67,"name":"G4","ticks":109920,"time":57.25,"velocity":1},{"duration":0.25,"durationTicks":480,"midi":54,"name":"F#3","ticks":110400,"time":57.5,"velocity":1},{"duration":0.25,"durationTicks":480,"midi":62,"name":"D4","ticks":110400,"time":57.5,"velocity":1},{"duration":0.25,"durationTicks":480,"midi":66,"name":"F#4","ticks":110400,"time":57.5,"velocity":1},{"duration":0.25,"durationTicks":480,"midi":57,"name":"A3","ticks":110880,"time":57.75,"velocity":1},{"duration":0.25,"durationTicks":480,"midi":62,"name":"D4","ticks":110880,"time":57.75,"velocity":1},{"duration":0.75,"durationTicks":1440,"midi":50,"name":"D3","ticks":110880,"time":57.75,"velocity":1},{"duration":1.25,"durationTicks":2400,"midi":50,"name":"D3","ticks":111360,"time":58,"velocity":1},{"duration":0.75,"durationTicks":1440,"midi":54,"name":"F#3","ticks":112320,"time":58.5,"velocity":1},{"duration":0.75,"durationTicks":1440,"midi":57,"name":"A3","ticks":112320,"time":58.5,"velocity":1},{"duration":0.75,"durationTicks":1440,"midi":62,"name":"D4","ticks":112320,"time":58.5,"velocity":1},{"duration":0.75,"durationTicks":1440,"midi":66,"name":"F#4","ticks":112320,"time":58.5,"velocity":1},{"duration":1.5,"durationTicks":2880,"midi":50,"name":"D3","ticks":112320,"time":58.5,"velocity":1},{"duration":0.25,"durationTicks":480,"midi":55,"name":"G3","ticks":113760,"time":59.25,"velocity":1},{"duration":0.25,"durationTicks":480,"midi":62,"name":"D4","ticks":113760,"time":59.25,"velocity":1},{"duration":0.25,"durationTicks":480,"midi":67,"name":"G4","ticks":113760,"time":59.25,"velocity":1},{"duration":0.25,"durationTicks":480,"midi":54,"name":"F#3","ticks":114240,"time":59.5,"velocity":1},{"duration":0.25,"durationTicks":480,"midi":62,"name":"D4","ticks":114240,"time":59.5,"velocity":1},{"duration":0.25,"durationTicks":480,"midi":66,"name":"F#4","ticks":114240,"time":59.5,"velocity":1},{"duration":0.25,"durationTicks":480,"midi":57,"name":"A3","ticks":114720,"time":59.75,"velocity":1},{"duration":0.25,"durationTicks":480,"midi":62,"name":"D4","ticks":114720,"time":59.75,"velocity":1},{"duration":0.5,"durationTicks":960,"midi":50,"name":"D3","ticks":115200,"time":60,"velocity":1},{"duration":1.25,"durationTicks":2400,"midi":50,"name":"D3","ticks":115200,"time":60,"velocity":1},{"duration":0.75,"durationTicks":1440,"midi":54,"name":"F#3","ticks":116160,"time":60.5,"velocity":1},{"duration":0.75,"durationTicks":1440,"midi":57,"name":"A3","ticks":116160,"time":60.5,"velocity":1},{"duration":0.75,"durationTicks":1440,"midi":62,"name":"D4","ticks":116160,"time":60.5,"velocity":1},{"duration":0.75,"durationTicks":1440,"midi":66,"name":"F#4","ticks":116160,"time":60.5,"velocity":1},{"duration":1.5,"durationTicks":2880,"midi":50,"name":"D3","ticks":116160,"time":60.5,"velocity":1},{"duration":0.25,"durationTicks":480,"midi":55,"name":"G3","ticks":117600,"time":61.25,"velocity":1},{"duration":0.25,"durationTicks":480,"midi":62,"name":"D4","ticks":117600,"time":61.25,"velocity":1},{"duration":0.25,"durationTicks":480,"midi":67,"name":"G4","ticks":117600,"time":61.25,"velocity":1},{"duration":0.25,"durationTicks":480,"midi":54,"name":"F#3","ticks":118080,"time":61.5,"velocity":1},{"duration":0.25,"durationTicks":480,"midi":62,"name":"D4","ticks":118080,"time":61.5,"velocity":1},{"duration":0.25,"durationTicks":480,"midi":66,"name":"F#4","ticks":118080,"time":61.5,"velocity":1},{"duration":0.25,"durationTicks":480,"midi":57,"name":"A3","ticks":118560,"time":61.75,"velocity":1},{"duration":0.25,"durationTicks":480,"midi":62,"name":"D4","ticks":118560,"time":61.75,"velocity":1},{"duration":4.75,"durationTicks":9120,"midi":50,"name":"D3","ticks":118560,"time":61.75,"velocity":1},{"duration":0.5,"durationTicks":960,"midi":40,"name":"E2","ticks":119040,"time":62,"velocity":1},{"duration":0.5,"durationTicks":960,"midi":40,"name":"E2","ticks":120000,"time":62.5,"velocity":1},{"duration":0.5,"durationTicks":960,"midi":47,"name":"B2","ticks":120000,"time":62.5,"velocity":1},{"duration":0.5,"durationTicks":960,"midi":52,"name":"E3","ticks":120000,"time":62.5,"velocity":1},{"duration":0.5,"durationTicks":960,"midi":55,"name":"G3","ticks":120000,"time":62.5,"velocity":1},{"duration":0.5,"durationTicks":960,"midi":62,"name":"D4","ticks":120000,"time":62.5,"velocity":1},{"duration":0.5,"durationTicks":960,"midi":67,"name":"G4","ticks":120000,"time":62.5,"velocity":1},{"duration":0.25,"durationTicks":480,"midi":40,"name":"E2","ticks":120960,"time":63,"velocity":1},{"duration":0.25,"durationTicks":480,"midi":67,"name":"G4","ticks":120960,"time":63,"velocity":1},{"duration":0.25,"durationTicks":480,"midi":62,"name":"D4","ticks":120960,"time":63,"velocity":1},{"duration":0.25,"durationTicks":480,"midi":55,"name":"G3","ticks":120960,"time":63,"velocity":1},{"duration":0.25,"durationTicks":480,"midi":52,"name":"E3","ticks":120960,"time":63,"velocity":1},{"duration":0.25,"durationTicks":480,"midi":47,"name":"B2","ticks":120960,"time":63,"velocity":1},{"duration":0.25,"durationTicks":480,"midi":40,"name":"E2","ticks":121440,"time":63.25,"velocity":1},{"duration":0.25,"durationTicks":480,"midi":67,"name":"G4","ticks":121440,"time":63.25,"velocity":1},{"duration":0.25,"durationTicks":480,"midi":62,"name":"D4","ticks":121440,"time":63.25,"velocity":1},{"duration":0.25,"durationTicks":480,"midi":55,"name":"G3","ticks":121440,"time":63.25,"velocity":1},{"duration":0.25,"durationTicks":480,"midi":52,"name":"E3","ticks":121440,"time":63.25,"velocity":1},{"duration":0.25,"durationTicks":480,"midi":47,"name":"B2","ticks":121440,"time":63.25,"velocity":1},{"duration":0.25,"durationTicks":480,"midi":40,"name":"E2","ticks":121920,"time":63.5,"velocity":1},{"duration":0.25,"durationTicks":480,"midi":67,"name":"G4","ticks":121920,"time":63.5,"velocity":1},{"duration":0.25,"durationTicks":480,"midi":62,"name":"D4","ticks":121920,"time":63.5,"velocity":1},{"duration":0.25,"durationTicks":480,"midi":55,"name":"G3","ticks":121920,"time":63.5,"velocity":1},{"duration":0.25,"durationTicks":480,"midi":52,"name":"E3","ticks":121920,"time":63.5,"velocity":1},{"duration":0.25,"durationTicks":480,"midi":47,"name":"B2","ticks":121920,"time":63.5,"velocity":1},{"duration":0.25,"durationTicks":480,"midi":40,"name":"E2","ticks":122400,"time":63.75,"velocity":1},{"duration":0.25,"durationTicks":480,"midi":67,"name":"G4","ticks":122400,"time":63.75,"velocity":1},{"duration":0.25,"durationTicks":480,"midi":62,"name":"D4","ticks":122400,"time":63.75,"velocity":1},{"duration":0.25,"durationTicks":480,"midi":55,"name":"G3","ticks":122400,"time":63.75,"velocity":1},{"duration":0.25,"durationTicks":480,"midi":52,"name":"E3","ticks":122400,"time":63.75,"velocity":1},{"duration":0.25,"durationTicks":480,"midi":47,"name":"B2","ticks":122400,"time":63.75,"velocity":1},{"duration":0.5,"durationTicks":960,"midi":45,"name":"A2","ticks":122880,"time":64,"velocity":1},{"duration":0.5,"durationTicks":960,"midi":45,"name":"A2","ticks":123840,"time":64.5,"velocity":1},{"duration":0.5,"durationTicks":960,"midi":52,"name":"E3","ticks":123840,"time":64.5,"velocity":1},{"duration":0.5,"durationTicks":960,"midi":55,"name":"G3","ticks":123840,"time":64.5,"velocity":1},{"duration":0.5,"durationTicks":960,"midi":62,"name":"D4","ticks":123840,"time":64.5,"velocity":1},{"duration":0.5,"durationTicks":960,"midi":64,"name":"E4","ticks":123840,"time":64.5,"velocity":1},{"duration":0.25,"durationTicks":480,"midi":45,"name":"A2","ticks":124800,"time":65,"velocity":1},{"duration":0.25,"durationTicks":480,"midi":52,"name":"E3","ticks":124800,"time":65,"velocity":1},{"duration":0.25,"durationTicks":480,"midi":55,"name":"G3","ticks":124800,"time":65,"velocity":1},{"duration":0.25,"durationTicks":480,"midi":62,"name":"D4","ticks":124800,"time":65,"velocity":1},{"duration":0.25,"durationTicks":480,"midi":64,"name":"E4","ticks":124800,"time":65,"velocity":1},{"duration":0.25,"durationTicks":480,"midi":45,"name":"A2","ticks":125280,"time":65.25,"velocity":1},{"duration":0.25,"durationTicks":480,"midi":52,"name":"E3","ticks":125280,"time":65.25,"velocity":1},{"duration":0.25,"durationTicks":480,"midi":55,"name":"G3","ticks":125280,"time":65.25,"velocity":1},{"duration":0.25,"durationTicks":480,"midi":62,"name":"D4","ticks":125280,"time":65.25,"velocity":1},{"duration":0.25,"durationTicks":480,"midi":64,"name":"E4","ticks":125280,"time":65.25,"velocity":1},{"duration":0.25,"durationTicks":480,"midi":45,"name":"A2","ticks":125760,"time":65.5,"velocity":1},{"duration":0.25,"durationTicks":480,"midi":52,"name":"E3","ticks":125760,"time":65.5,"velocity":1},{"duration":0.25,"durationTicks":480,"midi":55,"name":"G3","ticks":125760,"time":65.5,"velocity":1},{"duration":0.25,"durationTicks":480,"midi":62,"name":"D4","ticks":125760,"time":65.5,"velocity":1},{"duration":0.25,"durationTicks":480,"midi":64,"name":"E4","ticks":125760,"time":65.5,"velocity":1},{"duration":0.25,"durationTicks":480,"midi":45,"name":"A2","ticks":126240,"time":65.75,"velocity":1},{"duration":0.25,"durationTicks":480,"midi":52,"name":"E3","ticks":126240,"time":65.75,"velocity":1},{"duration":0.25,"durationTicks":480,"midi":55,"name":"G3","ticks":126240,"time":65.75,"velocity":1},{"duration":0.25,"durationTicks":480,"midi":62,"name":"D4","ticks":126240,"time":65.75,"velocity":1},{"duration":0.25,"durationTicks":480,"midi":64,"name":"E4","ticks":126240,"time":65.75,"velocity":1},{"duration":1.25,"durationTicks":2400,"midi":50,"name":"D3","ticks":126720,"time":66,"velocity":1},{"duration":0.75,"durationTicks":1440,"midi":54,"name":"F#3","ticks":127680,"time":66.5,"velocity":1},{"duration":0.75,"durationTicks":1440,"midi":57,"name":"A3","ticks":127680,"time":66.5,"velocity":1},{"duration":0.75,"durationTicks":1440,"midi":62,"name":"D4","ticks":127680,"time":66.5,"velocity":1},{"duration":0.75,"durationTicks":1440,"midi":66,"name":"F#4","ticks":127680,"time":66.5,"velocity":1},{"duration":1.5,"durationTicks":2880,"midi":50,"name":"D3","ticks":127680,"time":66.5,"velocity":1},{"duration":0.25,"durationTicks":480,"midi":55,"name":"G3","ticks":129120,"time":67.25,"velocity":1},{"duration":0.25,"durationTicks":480,"midi":62,"name":"D4","ticks":129120,"time":67.25,"velocity":1},{"duration":0.25,"durationTicks":480,"midi":67,"name":"G4","ticks":129120,"time":67.25,"velocity":1},{"duration":0.25,"durationTicks":480,"midi":54,"name":"F#3","ticks":129600,"time":67.5,"velocity":1},{"duration":0.25,"durationTicks":480,"midi":62,"name":"D4","ticks":129600,"time":67.5,"velocity":1},{"duration":0.25,"durationTicks":480,"midi":66,"name":"F#4","ticks":129600,"time":67.5,"velocity":1},{"duration":0.25,"durationTicks":480,"midi":57,"name":"A3","ticks":130080,"time":67.75,"velocity":1},{"duration":0.25,"durationTicks":480,"midi":62,"name":"D4","ticks":130080,"time":67.75,"velocity":1},{"duration":0.5,"durationTicks":960,"midi":50,"name":"D3","ticks":130560,"time":68,"velocity":1},{"duration":1.25,"durationTicks":2400,"midi":50,"name":"D3","ticks":130560,"time":68,"velocity":1},{"duration":0.75,"durationTicks":1440,"midi":54,"name":"F#3","ticks":131520,"time":68.5,"velocity":1},{"duration":0.75,"durationTicks":1440,"midi":57,"name":"A3","ticks":131520,"time":68.5,"velocity":1},{"duration":0.75,"durationTicks":1440,"midi":62,"name":"D4","ticks":131520,"time":68.5,"velocity":1},{"duration":0.75,"durationTicks":1440,"midi":66,"name":"F#4","ticks":131520,"time":68.5,"velocity":1},{"duration":1.5,"durationTicks":2880,"midi":50,"name":"D3","ticks":131520,"time":68.5,"velocity":1},{"duration":0.25,"durationTicks":480,"midi":55,"name":"G3","ticks":132960,"time":69.25,"velocity":1},{"duration":0.25,"durationTicks":480,"midi":62,"name":"D4","ticks":132960,"time":69.25,"velocity":1},{"duration":0.25,"durationTicks":480,"midi":67,"name":"G4","ticks":132960,"time":69.25,"velocity":1},{"duration":0.25,"durationTicks":480,"midi":54,"name":"F#3","ticks":133440,"time":69.5,"velocity":1},{"duration":0.25,"durationTicks":480,"midi":62,"name":"D4","ticks":133440,"time":69.5,"velocity":1},{"duration":0.25,"durationTicks":480,"midi":66,"name":"F#4","ticks":133440,"time":69.5,"velocity":1},{"duration":0.25,"durationTicks":480,"midi":57,"name":"A3","ticks":133920,"time":69.75,"velocity":1},{"duration":0.25,"durationTicks":480,"midi":62,"name":"D4","ticks":133920,"time":69.75,"velocity":1},{"duration":0.75,"durationTicks":1440,"midi":50,"name":"D3","ticks":133920,"time":69.75,"velocity":1},{"duration":1.25,"durationTicks":2400,"midi":50,"name":"D3","ticks":134400,"time":70,"velocity":1},{"duration":0.75,"durationTicks":1440,"midi":54,"name":"F#3","ticks":135360,"time":70.5,"velocity":1},{"duration":0.75,"durationTicks":1440,"midi":57,"name":"A3","ticks":135360,"time":70.5,"velocity":1},{"duration":0.75,"durationTicks":1440,"midi":62,"name":"D4","ticks":135360,"time":70.5,"velocity":1},{"duration":0.75,"durationTicks":1440,"midi":66,"name":"F#4","ticks":135360,"time":70.5,"velocity":1},{"duration":1.5,"durationTicks":2880,"midi":50,"name":"D3","ticks":135360,"time":70.5,"velocity":1},{"duration":0.25,"durationTicks":480,"midi":55,"name":"G3","ticks":136800,"time":71.25,"velocity":1},{"duration":0.25,"durationTicks":480,"midi":62,"name":"D4","ticks":136800,"time":71.25,"velocity":1},{"duration":0.25,"durationTicks":480,"midi":67,"name":"G4","ticks":136800,"time":71.25,"velocity":1},{"duration":0.25,"durationTicks":480,"midi":54,"name":"F#3","ticks":137280,"time":71.5,"velocity":1},{"duration":0.25,"durationTicks":480,"midi":62,"name":"D4","ticks":137280,"time":71.5,"velocity":1},{"duration":0.25,"durationTicks":480,"midi":66,"name":"F#4","ticks":137280,"time":71.5,"velocity":1},{"duration":0.25,"durationTicks":480,"midi":57,"name":"A3","ticks":137760,"time":71.75,"velocity":1},{"duration":0.25,"durationTicks":480,"midi":62,"name":"D4","ticks":137760,"time":71.75,"velocity":1},{"duration":0.5,"durationTicks":960,"midi":50,"name":"D3","ticks":138240,"time":72,"velocity":1},{"duration":1.25,"durationTicks":2400,"midi":50,"name":"D3","ticks":138240,"time":72,"velocity":1},{"duration":0.75,"durationTicks":1440,"midi":54,"name":"F#3","ticks":139200,"time":72.5,"velocity":1},{"duration":0.75,"durationTicks":1440,"midi":57,"name":"A3","ticks":139200,"time":72.5,"velocity":1},{"duration":0.75,"durationTicks":1440,"midi":62,"name":"D4","ticks":139200,"time":72.5,"velocity":1},{"duration":0.75,"durationTicks":1440,"midi":66,"name":"F#4","ticks":139200,"time":72.5,"velocity":1},{"duration":1.5,"durationTicks":2880,"midi":50,"name":"D3","ticks":139200,"time":72.5,"velocity":1},{"duration":0.25,"durationTicks":480,"midi":55,"name":"G3","ticks":140640,"time":73.25,"velocity":1},{"duration":0.25,"durationTicks":480,"midi":62,"name":"D4","ticks":140640,"time":73.25,"velocity":1},{"duration":0.25,"durationTicks":480,"midi":67,"name":"G4","ticks":140640,"time":73.25,"velocity":1},{"duration":0.25,"durationTicks":480,"midi":54,"name":"F#3","ticks":141120,"time":73.5,"velocity":1},{"duration":0.25,"durationTicks":480,"midi":62,"name":"D4","ticks":141120,"time":73.5,"velocity":1},{"duration":0.25,"durationTicks":480,"midi":66,"name":"F#4","ticks":141120,"time":73.5,"velocity":1},{"duration":0.25,"durationTicks":480,"midi":57,"name":"A3","ticks":141600,"time":73.75,"velocity":1},{"duration":0.25,"durationTicks":480,"midi":62,"name":"D4","ticks":141600,"time":73.75,"velocity":1},{"duration":0.75,"durationTicks":1440,"midi":50,"name":"D3","ticks":141600,"time":73.75,"velocity":1},{"duration":1.25,"durationTicks":2400,"midi":50,"name":"D3","ticks":142080,"time":74,"velocity":1},{"duration":0.75,"durationTicks":1440,"midi":54,"name":"F#3","ticks":143040,"time":74.5,"velocity":1},{"duration":0.75,"durationTicks":1440,"midi":57,"name":"A3","ticks":143040,"time":74.5,"velocity":1},{"duration":0.75,"durationTicks":1440,"midi":62,"name":"D4","ticks":143040,"time":74.5,"velocity":1},{"duration":0.75,"durationTicks":1440,"midi":66,"name":"F#4","ticks":143040,"time":74.5,"velocity":1},{"duration":1.5,"durationTicks":2880,"midi":50,"name":"D3","ticks":143040,"time":74.5,"velocity":1},{"duration":0.25,"durationTicks":480,"midi":55,"name":"G3","ticks":144480,"time":75.25,"velocity":1},{"duration":0.25,"durationTicks":480,"midi":62,"name":"D4","ticks":144480,"time":75.25,"velocity":1},{"duration":0.25,"durationTicks":480,"midi":67,"name":"G4","ticks":144480,"time":75.25,"velocity":1},{"duration":0.25,"durationTicks":480,"midi":54,"name":"F#3","ticks":144960,"time":75.5,"velocity":1},{"duration":0.25,"durationTicks":480,"midi":62,"name":"D4","ticks":144960,"time":75.5,"velocity":1},{"duration":0.25,"durationTicks":480,"midi":66,"name":"F#4","ticks":144960,"time":75.5,"velocity":1},{"duration":0.25,"durationTicks":480,"midi":57,"name":"A3","ticks":145440,"time":75.75,"velocity":1},{"duration":0.25,"durationTicks":480,"midi":62,"name":"D4","ticks":145440,"time":75.75,"velocity":1},{"duration":0.5,"durationTicks":960,"midi":50,"name":"D3","ticks":145920,"time":76,"velocity":1},{"duration":1.25,"durationTicks":2400,"midi":50,"name":"D3","ticks":145920,"time":76,"velocity":1},{"duration":0.75,"durationTicks":1440,"midi":54,"name":"F#3","ticks":146880,"time":76.5,"velocity":1},{"duration":0.75,"durationTicks":1440,"midi":57,"name":"A3","ticks":146880,"time":76.5,"velocity":1},{"duration":0.75,"durationTicks":1440,"midi":62,"name":"D4","ticks":146880,"time":76.5,"velocity":1},{"duration":0.75,"durationTicks":1440,"midi":66,"name":"F#4","ticks":146880,"time":76.5,"velocity":1},{"duration":1.5,"durationTicks":2880,"midi":50,"name":"D3","ticks":146880,"time":76.5,"velocity":1},{"duration":0.25,"durationTicks":480,"midi":55,"name":"G3","ticks":148320,"time":77.25,"velocity":1},{"duration":0.25,"durationTicks":480,"midi":62,"name":"D4","ticks":148320,"time":77.25,"velocity":1},{"duration":0.25,"durationTicks":480,"midi":67,"name":"G4","ticks":148320,"time":77.25,"velocity":1},{"duration":0.25,"durationTicks":480,"midi":54,"name":"F#3","ticks":148800,"time":77.5,"velocity":1},{"duration":0.25,"durationTicks":480,"midi":62,"name":"D4","ticks":148800,"time":77.5,"velocity":1},{"duration":0.25,"durationTicks":480,"midi":66,"name":"F#4","ticks":148800,"time":77.5,"velocity":1},{"duration":0.25,"durationTicks":480,"midi":57,"name":"A3","ticks":149280,"time":77.75,"velocity":1},{"duration":0.25,"durationTicks":480,"midi":62,"name":"D4","ticks":149280,"time":77.75,"velocity":1},{"duration":14.75,"durationTicks":28320,"midi":50,"name":"D3","ticks":149280,"time":77.75,"velocity":1},{"duration":0.5,"durationTicks":960,"midi":40,"name":"E2","ticks":149760,"time":78,"velocity":1},{"duration":0.5,"durationTicks":960,"midi":40,"name":"E2","ticks":150720,"time":78.5,"velocity":1},{"duration":0.5,"durationTicks":960,"midi":47,"name":"B2","ticks":150720,"time":78.5,"velocity":1},{"duration":0.5,"durationTicks":960,"midi":52,"name":"E3","ticks":150720,"time":78.5,"velocity":1},{"duration":0.5,"durationTicks":960,"midi":55,"name":"G3","ticks":150720,"time":78.5,"velocity":1},{"duration":0.5,"durationTicks":960,"midi":62,"name":"D4","ticks":150720,"time":78.5,"velocity":1},{"duration":0.5,"durationTicks":960,"midi":67,"name":"G4","ticks":150720,"time":78.5,"velocity":1},{"duration":0.25,"durationTicks":480,"midi":40,"name":"E2","ticks":151680,"time":79,"velocity":1},{"duration":0.25,"durationTicks":480,"midi":67,"name":"G4","ticks":151680,"time":79,"velocity":1},{"duration":0.25,"durationTicks":480,"midi":62,"name":"D4","ticks":151680,"time":79,"velocity":1},{"duration":0.25,"durationTicks":480,"midi":55,"name":"G3","ticks":151680,"time":79,"velocity":1},{"duration":0.25,"durationTicks":480,"midi":52,"name":"E3","ticks":151680,"time":79,"velocity":1},{"duration":0.25,"durationTicks":480,"midi":47,"name":"B2","ticks":151680,"time":79,"velocity":1},{"duration":0.25,"durationTicks":480,"midi":40,"name":"E2","ticks":152160,"time":79.25,"velocity":1},{"duration":0.25,"durationTicks":480,"midi":67,"name":"G4","ticks":152160,"time":79.25,"velocity":1},{"duration":0.25,"durationTicks":480,"midi":62,"name":"D4","ticks":152160,"time":79.25,"velocity":1},{"duration":0.25,"durationTicks":480,"midi":55,"name":"G3","ticks":152160,"time":79.25,"velocity":1},{"duration":0.25,"durationTicks":480,"midi":52,"name":"E3","ticks":152160,"time":79.25,"velocity":1},{"duration":0.25,"durationTicks":480,"midi":47,"name":"B2","ticks":152160,"time":79.25,"velocity":1},{"duration":0.25,"durationTicks":480,"midi":40,"name":"E2","ticks":152640,"time":79.5,"velocity":1},{"duration":0.25,"durationTicks":480,"midi":67,"name":"G4","ticks":152640,"time":79.5,"velocity":1},{"duration":0.25,"durationTicks":480,"midi":62,"name":"D4","ticks":152640,"time":79.5,"velocity":1},{"duration":0.25,"durationTicks":480,"midi":55,"name":"G3","ticks":152640,"time":79.5,"velocity":1},{"duration":0.25,"durationTicks":480,"midi":52,"name":"E3","ticks":152640,"time":79.5,"velocity":1},{"duration":0.25,"durationTicks":480,"midi":47,"name":"B2","ticks":152640,"time":79.5,"velocity":1},{"duration":0.25,"durationTicks":480,"midi":40,"name":"E2","ticks":153120,"time":79.75,"velocity":1},{"duration":0.25,"durationTicks":480,"midi":67,"name":"G4","ticks":153120,"time":79.75,"velocity":1},{"duration":0.25,"durationTicks":480,"midi":62,"name":"D4","ticks":153120,"time":79.75,"velocity":1},{"duration":0.25,"durationTicks":480,"midi":55,"name":"G3","ticks":153120,"time":79.75,"velocity":1},{"duration":0.25,"durationTicks":480,"midi":52,"name":"E3","ticks":153120,"time":79.75,"velocity":1},{"duration":0.25,"durationTicks":480,"midi":47,"name":"B2","ticks":153120,"time":79.75,"velocity":1},{"duration":0.5,"durationTicks":960,"midi":45,"name":"A2","ticks":153600,"time":80,"velocity":1},{"duration":0.5,"durationTicks":960,"midi":45,"name":"A2","ticks":154560,"time":80.5,"velocity":1},{"duration":0.5,"durationTicks":960,"midi":52,"name":"E3","ticks":154560,"time":80.5,"velocity":1},{"duration":0.5,"durationTicks":960,"midi":55,"name":"G3","ticks":154560,"time":80.5,"velocity":1},{"duration":0.5,"durationTicks":960,"midi":62,"name":"D4","ticks":154560,"time":80.5,"velocity":1},{"duration":0.5,"durationTicks":960,"midi":64,"name":"E4","ticks":154560,"time":80.5,"velocity":1},{"duration":0.25,"durationTicks":480,"midi":45,"name":"A2","ticks":155520,"time":81,"velocity":1},{"duration":0.25,"durationTicks":480,"midi":52,"name":"E3","ticks":155520,"time":81,"velocity":1},{"duration":0.25,"durationTicks":480,"midi":55,"name":"G3","ticks":155520,"time":81,"velocity":1},{"duration":0.25,"durationTicks":480,"midi":62,"name":"D4","ticks":155520,"time":81,"velocity":1},{"duration":0.25,"durationTicks":480,"midi":64,"name":"E4","ticks":155520,"time":81,"velocity":1},{"duration":0.25,"durationTicks":480,"midi":45,"name":"A2","ticks":156000,"time":81.25,"velocity":1},{"duration":0.25,"durationTicks":480,"midi":52,"name":"E3","ticks":156000,"time":81.25,"velocity":1},{"duration":0.25,"durationTicks":480,"midi":55,"name":"G3","ticks":156000,"time":81.25,"velocity":1},{"duration":0.25,"durationTicks":480,"midi":62,"name":"D4","ticks":156000,"time":81.25,"velocity":1},{"duration":0.25,"durationTicks":480,"midi":64,"name":"E4","ticks":156000,"time":81.25,"velocity":1},{"duration":0.25,"durationTicks":480,"midi":45,"name":"A2","ticks":156480,"time":81.5,"velocity":1},{"duration":0.25,"durationTicks":480,"midi":52,"name":"E3","ticks":156480,"time":81.5,"velocity":1},{"duration":0.25,"durationTicks":480,"midi":55,"name":"G3","ticks":156480,"time":81.5,"velocity":1},{"duration":0.25,"durationTicks":480,"midi":62,"name":"D4","ticks":156480,"time":81.5,"velocity":1},{"duration":0.25,"durationTicks":480,"midi":64,"name":"E4","ticks":156480,"time":81.5,"velocity":1},{"duration":0.25,"durationTicks":480,"midi":45,"name":"A2","ticks":156960,"time":81.75,"velocity":1},{"duration":0.25,"durationTicks":480,"midi":52,"name":"E3","ticks":156960,"time":81.75,"velocity":1},{"duration":0.25,"durationTicks":480,"midi":55,"name":"G3","ticks":156960,"time":81.75,"velocity":1},{"duration":0.25,"durationTicks":480,"midi":62,"name":"D4","ticks":156960,"time":81.75,"velocity":1},{"duration":0.25,"durationTicks":480,"midi":64,"name":"E4","ticks":156960,"time":81.75,"velocity":1},{"duration":0.5,"durationTicks":960,"midi":46,"name":"A#2","ticks":157440,"time":82,"velocity":1},{"duration":0.5,"durationTicks":960,"midi":53,"name":"F3","ticks":157440,"time":82,"velocity":1},{"duration":0.5,"durationTicks":960,"midi":58,"name":"A#3","ticks":157440,"time":82,"velocity":1},{"duration":0.5,"durationTicks":960,"midi":62,"name":"D4","ticks":157440,"time":82,"velocity":1},{"duration":0.25,"durationTicks":480,"midi":46,"name":"A#2","ticks":158400,"time":82.5,"velocity":1},{"duration":0.25,"durationTicks":480,"midi":53,"name":"F3","ticks":158400,"time":82.5,"velocity":1},{"duration":0.25,"durationTicks":480,"midi":58,"name":"A#3","ticks":158400,"time":82.5,"velocity":1},{"duration":0.25,"durationTicks":480,"midi":62,"name":"D4","ticks":158400,"time":82.5,"velocity":1},{"duration":0.25,"durationTicks":480,"midi":46,"name":"A#2","ticks":158880,"time":82.75,"velocity":1},{"duration":0.25,"durationTicks":480,"midi":53,"name":"F3","ticks":158880,"time":82.75,"velocity":1},{"duration":0.25,"durationTicks":480,"midi":58,"name":"A#3","ticks":158880,"time":82.75,"velocity":1},{"duration":0.25,"durationTicks":480,"midi":62,"name":"D4","ticks":158880,"time":82.75,"velocity":1},{"duration":0.25,"durationTicks":480,"midi":46,"name":"A#2","ticks":159360,"time":83,"velocity":1},{"duration":0.25,"durationTicks":480,"midi":53,"name":"F3","ticks":159360,"time":83,"velocity":1},{"duration":0.25,"durationTicks":480,"midi":58,"name":"A#3","ticks":159360,"time":83,"velocity":1},{"duration":0.25,"durationTicks":480,"midi":62,"name":"D4","ticks":159360,"time":83,"velocity":1},{"duration":0.25,"durationTicks":480,"midi":46,"name":"A#2","ticks":159840,"time":83.25,"velocity":1},{"duration":0.25,"durationTicks":480,"midi":53,"name":"F3","ticks":159840,"time":83.25,"velocity":1},{"duration":0.25,"durationTicks":480,"midi":58,"name":"A#3","ticks":159840,"time":83.25,"velocity":1},{"duration":0.25,"durationTicks":480,"midi":62,"name":"D4","ticks":159840,"time":83.25,"velocity":1},{"duration":0.25,"durationTicks":480,"midi":46,"name":"A#2","ticks":160320,"time":83.5,"velocity":1},{"duration":0.25,"durationTicks":480,"midi":53,"name":"F3","ticks":160320,"time":83.5,"velocity":1},{"duration":0.25,"durationTicks":480,"midi":58,"name":"A#3","ticks":160320,"time":83.5,"velocity":1},{"duration":0.25,"durationTicks":480,"midi":62,"name":"D4","ticks":160320,"time":83.5,"velocity":1},{"duration":0.25,"durationTicks":480,"midi":46,"name":"A#2","ticks":160800,"time":83.75,"velocity":1},{"duration":0.25,"durationTicks":480,"midi":53,"name":"F3","ticks":160800,"time":83.75,"velocity":1},{"duration":0.25,"durationTicks":480,"midi":58,"name":"A#3","ticks":160800,"time":83.75,"velocity":1},{"duration":0.25,"durationTicks":480,"midi":62,"name":"D4","ticks":160800,"time":83.75,"velocity":1},{"duration":0.25,"durationTicks":480,"midi":65,"name":"F4","ticks":161280,"time":84,"velocity":1},{"duration":0.25,"durationTicks":480,"midi":60,"name":"C4","ticks":161280,"time":84,"velocity":1},{"duration":0.25,"durationTicks":480,"midi":57,"name":"A3","ticks":161280,"time":84,"velocity":1},{"duration":0.25,"durationTicks":480,"midi":53,"name":"F3","ticks":161280,"time":84,"velocity":1},{"duration":0.25,"durationTicks":480,"midi":48,"name":"C3","ticks":161280,"time":84,"velocity":1},{"duration":0.25,"durationTicks":480,"midi":41,"name":"F2","ticks":161280,"time":84,"velocity":1},{"duration":0.25,"durationTicks":480,"midi":41,"name":"F2","ticks":161760,"time":84.25,"velocity":1},{"duration":0.25,"durationTicks":480,"midi":48,"name":"C3","ticks":161760,"time":84.25,"velocity":1},{"duration":0.25,"durationTicks":480,"midi":53,"name":"F3","ticks":161760,"time":84.25,"velocity":1},{"duration":0.25,"durationTicks":480,"midi":57,"name":"A3","ticks":161760,"time":84.25,"velocity":1},{"duration":0.25,"durationTicks":480,"midi":60,"name":"C4","ticks":161760,"time":84.25,"velocity":1},{"duration":0.25,"durationTicks":480,"midi":65,"name":"F4","ticks":161760,"time":84.25,"velocity":1},{"duration":0.25,"durationTicks":480,"midi":41,"name":"F2","ticks":162240,"time":84.5,"velocity":1},{"duration":0.25,"durationTicks":480,"midi":48,"name":"C3","ticks":162240,"time":84.5,"velocity":1},{"duration":0.25,"durationTicks":480,"midi":53,"name":"F3","ticks":162240,"time":84.5,"velocity":1},{"duration":0.25,"durationTicks":480,"midi":57,"name":"A3","ticks":162240,"time":84.5,"velocity":1},{"duration":0.25,"durationTicks":480,"midi":60,"name":"C4","ticks":162240,"time":84.5,"velocity":1},{"duration":0.25,"durationTicks":480,"midi":65,"name":"F4","ticks":162240,"time":84.5,"velocity":1},{"duration":0.25,"durationTicks":480,"midi":41,"name":"F2","ticks":162720,"time":84.75,"velocity":1},{"duration":0.25,"durationTicks":480,"midi":48,"name":"C3","ticks":162720,"time":84.75,"velocity":1},{"duration":0.25,"durationTicks":480,"midi":53,"name":"F3","ticks":162720,"time":84.75,"velocity":1},{"duration":0.25,"durationTicks":480,"midi":57,"name":"A3","ticks":162720,"time":84.75,"velocity":1},{"duration":0.25,"durationTicks":480,"midi":60,"name":"C4","ticks":162720,"time":84.75,"velocity":1},{"duration":0.25,"durationTicks":480,"midi":65,"name":"F4","ticks":162720,"time":84.75,"velocity":1},{"duration":0.25,"durationTicks":480,"midi":48,"name":"C3","ticks":163200,"time":85,"velocity":1},{"duration":0.25,"durationTicks":480,"midi":52,"name":"E3","ticks":163200,"time":85,"velocity":1},{"duration":0.25,"durationTicks":480,"midi":55,"name":"G3","ticks":163200,"time":85,"velocity":1},{"duration":0.25,"durationTicks":480,"midi":60,"name":"C4","ticks":163200,"time":85,"velocity":1},{"duration":0.25,"durationTicks":480,"midi":64,"name":"E4","ticks":163200,"time":85,"velocity":1},{"duration":0.25,"durationTicks":480,"midi":48,"name":"C3","ticks":163680,"time":85.25,"velocity":1},{"duration":0.25,"durationTicks":480,"midi":52,"name":"E3","ticks":163680,"time":85.25,"velocity":1},{"duration":0.25,"durationTicks":480,"midi":55,"name":"G3","ticks":163680,"time":85.25,"velocity":1},{"duration":0.25,"durationTicks":480,"midi":60,"name":"C4","ticks":163680,"time":85.25,"velocity":1},{"duration":0.25,"durationTicks":480,"midi":64,"name":"E4","ticks":163680,"time":85.25,"velocity":1},{"duration":0.25,"durationTicks":480,"midi":48,"name":"C3","ticks":164160,"time":85.5,"velocity":1},{"duration":0.25,"durationTicks":480,"midi":52,"name":"E3","ticks":164160,"time":85.5,"velocity":1},{"duration":0.25,"durationTicks":480,"midi":55,"name":"G3","ticks":164160,"time":85.5,"velocity":1},{"duration":0.25,"durationTicks":480,"midi":60,"name":"C4","ticks":164160,"time":85.5,"velocity":1},{"duration":0.25,"durationTicks":480,"midi":64,"name":"E4","ticks":164160,"time":85.5,"velocity":1},{"duration":0.25,"durationTicks":480,"midi":48,"name":"C3","ticks":164640,"time":85.75,"velocity":1},{"duration":0.25,"durationTicks":480,"midi":52,"name":"E3","ticks":164640,"time":85.75,"velocity":1},{"duration":0.25,"durationTicks":480,"midi":55,"name":"G3","ticks":164640,"time":85.75,"velocity":1},{"duration":0.25,"durationTicks":480,"midi":60,"name":"C4","ticks":164640,"time":85.75,"velocity":1},{"duration":0.25,"durationTicks":480,"midi":64,"name":"E4","ticks":164640,"time":85.75,"velocity":1},{"duration":0.25,"durationTicks":480,"midi":46,"name":"A#2","ticks":165120,"time":86,"velocity":1},{"duration":0.25,"durationTicks":480,"midi":53,"name":"F3","ticks":165120,"time":86,"velocity":1},{"duration":0.25,"durationTicks":480,"midi":58,"name":"A#3","ticks":165120,"time":86,"velocity":1},{"duration":0.25,"durationTicks":480,"midi":62,"name":"D4","ticks":165120,"time":86,"velocity":1},{"duration":0.25,"durationTicks":480,"midi":46,"name":"A#2","ticks":165600,"time":86.25,"velocity":1},{"duration":0.25,"durationTicks":480,"midi":53,"name":"F3","ticks":165600,"time":86.25,"velocity":1},{"duration":0.25,"durationTicks":480,"midi":58,"name":"A#3","ticks":165600,"time":86.25,"velocity":1},{"duration":0.25,"durationTicks":480,"midi":62,"name":"D4","ticks":165600,"time":86.25,"velocity":1},{"duration":0.25,"durationTicks":480,"midi":46,"name":"A#2","ticks":166080,"time":86.5,"velocity":1},{"duration":0.25,"durationTicks":480,"midi":53,"name":"F3","ticks":166080,"time":86.5,"velocity":1},{"duration":0.25,"durationTicks":480,"midi":58,"name":"A#3","ticks":166080,"time":86.5,"velocity":1},{"duration":0.25,"durationTicks":480,"midi":62,"name":"D4","ticks":166080,"time":86.5,"velocity":1},{"duration":0.25,"durationTicks":480,"midi":46,"name":"A#2","ticks":166560,"time":86.75,"velocity":1},{"duration":0.25,"durationTicks":480,"midi":53,"name":"F3","ticks":166560,"time":86.75,"velocity":1},{"duration":0.25,"durationTicks":480,"midi":58,"name":"A#3","ticks":166560,"time":86.75,"velocity":1},{"duration":0.25,"durationTicks":480,"midi":62,"name":"D4","ticks":166560,"time":86.75,"velocity":1},{"duration":0.25,"durationTicks":480,"midi":65,"name":"F4","ticks":167040,"time":87,"velocity":1},{"duration":0.25,"durationTicks":480,"midi":60,"name":"C4","ticks":167040,"time":87,"velocity":1},{"duration":0.25,"durationTicks":480,"midi":57,"name":"A3","ticks":167040,"time":87,"velocity":1},{"duration":0.25,"durationTicks":480,"midi":53,"name":"F3","ticks":167040,"time":87,"velocity":1},{"duration":0.25,"durationTicks":480,"midi":48,"name":"C3","ticks":167040,"time":87,"velocity":1},{"duration":0.25,"durationTicks":480,"midi":41,"name":"F2","ticks":167040,"time":87,"velocity":1},{"duration":0.25,"durationTicks":480,"midi":41,"name":"F2","ticks":167520,"time":87.25,"velocity":1},{"duration":0.25,"durationTicks":480,"midi":48,"name":"C3","ticks":167520,"time":87.25,"velocity":1},{"duration":0.25,"durationTicks":480,"midi":53,"name":"F3","ticks":167520,"time":87.25,"velocity":1},{"duration":0.25,"durationTicks":480,"midi":57,"name":"A3","ticks":167520,"time":87.25,"velocity":1},{"duration":0.25,"durationTicks":480,"midi":60,"name":"C4","ticks":167520,"time":87.25,"velocity":1},{"duration":0.25,"durationTicks":480,"midi":65,"name":"F4","ticks":167520,"time":87.25,"velocity":1},{"duration":0.25,"durationTicks":480,"midi":41,"name":"F2","ticks":168000,"time":87.5,"velocity":1},{"duration":0.25,"durationTicks":480,"midi":48,"name":"C3","ticks":168000,"time":87.5,"velocity":1},{"duration":0.25,"durationTicks":480,"midi":53,"name":"F3","ticks":168000,"time":87.5,"velocity":1},{"duration":0.25,"durationTicks":480,"midi":57,"name":"A3","ticks":168000,"time":87.5,"velocity":1},{"duration":0.25,"durationTicks":480,"midi":60,"name":"C4","ticks":168000,"time":87.5,"velocity":1},{"duration":0.25,"durationTicks":480,"midi":65,"name":"F4","ticks":168000,"time":87.5,"velocity":1},{"duration":0.25,"durationTicks":480,"midi":41,"name":"F2","ticks":168480,"time":87.75,"velocity":1},{"duration":0.25,"durationTicks":480,"midi":48,"name":"C3","ticks":168480,"time":87.75,"velocity":1},{"duration":0.25,"durationTicks":480,"midi":53,"name":"F3","ticks":168480,"time":87.75,"velocity":1},{"duration":0.25,"durationTicks":480,"midi":57,"name":"A3","ticks":168480,"time":87.75,"velocity":1},{"duration":0.25,"durationTicks":480,"midi":60,"name":"C4","ticks":168480,"time":87.75,"velocity":1},{"duration":0.25,"durationTicks":480,"midi":65,"name":"F4","ticks":168480,"time":87.75,"velocity":1},{"duration":0.25,"durationTicks":480,"midi":65,"name":"F4","ticks":168960,"time":88,"velocity":1},{"duration":0.25,"durationTicks":480,"midi":60,"name":"C4","ticks":168960,"time":88,"velocity":1},{"duration":0.25,"durationTicks":480,"midi":57,"name":"A3","ticks":168960,"time":88,"velocity":1},{"duration":0.25,"durationTicks":480,"midi":53,"name":"F3","ticks":168960,"time":88,"velocity":1},{"duration":0.25,"durationTicks":480,"midi":48,"name":"C3","ticks":168960,"time":88,"velocity":1},{"duration":0.25,"durationTicks":480,"midi":41,"name":"F2","ticks":168960,"time":88,"velocity":1},{"duration":0.25,"durationTicks":480,"midi":41,"name":"F2","ticks":169440,"time":88.25,"velocity":1},{"duration":0.25,"durationTicks":480,"midi":48,"name":"C3","ticks":169440,"time":88.25,"velocity":1},{"duration":0.25,"durationTicks":480,"midi":53,"name":"F3","ticks":169440,"time":88.25,"velocity":1},{"duration":0.25,"durationTicks":480,"midi":57,"name":"A3","ticks":169440,"time":88.25,"velocity":1},{"duration":0.25,"durationTicks":480,"midi":60,"name":"C4","ticks":169440,"time":88.25,"velocity":1},{"duration":0.25,"durationTicks":480,"midi":65,"name":"F4","ticks":169440,"time":88.25,"velocity":1},{"duration":0.25,"durationTicks":480,"midi":41,"name":"F2","ticks":169920,"time":88.5,"velocity":1},{"duration":0.25,"durationTicks":480,"midi":48,"name":"C3","ticks":169920,"time":88.5,"velocity":1},{"duration":0.25,"durationTicks":480,"midi":53,"name":"F3","ticks":169920,"time":88.5,"velocity":1},{"duration":0.25,"durationTicks":480,"midi":57,"name":"A3","ticks":169920,"time":88.5,"velocity":1},{"duration":0.25,"durationTicks":480,"midi":60,"name":"C4","ticks":169920,"time":88.5,"velocity":1},{"duration":0.25,"durationTicks":480,"midi":65,"name":"F4","ticks":169920,"time":88.5,"velocity":1},{"duration":0.25,"durationTicks":480,"midi":41,"name":"F2","ticks":170400,"time":88.75,"velocity":1},{"duration":0.25,"durationTicks":480,"midi":48,"name":"C3","ticks":170400,"time":88.75,"velocity":1},{"duration":0.25,"durationTicks":480,"midi":53,"name":"F3","ticks":170400,"time":88.75,"velocity":1},{"duration":0.25,"durationTicks":480,"midi":57,"name":"A3","ticks":170400,"time":88.75,"velocity":1},{"duration":0.25,"durationTicks":480,"midi":60,"name":"C4","ticks":170400,"time":88.75,"velocity":1},{"duration":0.25,"durationTicks":480,"midi":65,"name":"F4","ticks":170400,"time":88.75,"velocity":1},{"duration":0.25,"durationTicks":480,"midi":48,"name":"C3","ticks":170880,"time":89,"velocity":1},{"duration":0.25,"durationTicks":480,"midi":52,"name":"E3","ticks":170880,"time":89,"velocity":1},{"duration":0.25,"durationTicks":480,"midi":55,"name":"G3","ticks":170880,"time":89,"velocity":1},{"duration":0.25,"durationTicks":480,"midi":60,"name":"C4","ticks":170880,"time":89,"velocity":1},{"duration":0.25,"durationTicks":480,"midi":64,"name":"E4","ticks":170880,"time":89,"velocity":1},{"duration":0.25,"durationTicks":480,"midi":48,"name":"C3","ticks":171360,"time":89.25,"velocity":1},{"duration":0.25,"durationTicks":480,"midi":52,"name":"E3","ticks":171360,"time":89.25,"velocity":1},{"duration":0.25,"durationTicks":480,"midi":55,"name":"G3","ticks":171360,"time":89.25,"velocity":1},{"duration":0.25,"durationTicks":480,"midi":60,"name":"C4","ticks":171360,"time":89.25,"velocity":1},{"duration":0.25,"durationTicks":480,"midi":64,"name":"E4","ticks":171360,"time":89.25,"velocity":1},{"duration":0.25,"durationTicks":480,"midi":48,"name":"C3","ticks":171840,"time":89.5,"velocity":1},{"duration":0.25,"durationTicks":480,"midi":52,"name":"E3","ticks":171840,"time":89.5,"velocity":1},{"duration":0.25,"durationTicks":480,"midi":55,"name":"G3","ticks":171840,"time":89.5,"velocity":1},{"duration":0.25,"durationTicks":480,"midi":60,"name":"C4","ticks":171840,"time":89.5,"velocity":1},{"duration":0.25,"durationTicks":480,"midi":64,"name":"E4","ticks":171840,"time":89.5,"velocity":1},{"duration":0.25,"durationTicks":480,"midi":48,"name":"C3","ticks":172320,"time":89.75,"velocity":1},{"duration":0.25,"durationTicks":480,"midi":52,"name":"E3","ticks":172320,"time":89.75,"velocity":1},{"duration":0.25,"durationTicks":480,"midi":55,"name":"G3","ticks":172320,"time":89.75,"velocity":1},{"duration":0.25,"durationTicks":480,"midi":60,"name":"C4","ticks":172320,"time":89.75,"velocity":1},{"duration":0.25,"durationTicks":480,"midi":64,"name":"E4","ticks":172320,"time":89.75,"velocity":1},{"duration":0.25,"durationTicks":480,"midi":46,"name":"A#2","ticks":172800,"time":90,"velocity":1},{"duration":0.25,"durationTicks":480,"midi":53,"name":"F3","ticks":172800,"time":90,"velocity":1},{"duration":0.25,"durationTicks":480,"midi":58,"name":"A#3","ticks":172800,"time":90,"velocity":1},{"duration":0.25,"durationTicks":480,"midi":62,"name":"D4","ticks":172800,"time":90,"velocity":1},{"duration":0.25,"durationTicks":480,"midi":46,"name":"A#2","ticks":173280,"time":90.25,"velocity":1},{"duration":0.25,"durationTicks":480,"midi":53,"name":"F3","ticks":173280,"time":90.25,"velocity":1},{"duration":0.25,"durationTicks":480,"midi":58,"name":"A#3","ticks":173280,"time":90.25,"velocity":1},{"duration":0.25,"durationTicks":480,"midi":62,"name":"D4","ticks":173280,"time":90.25,"velocity":1},{"duration":0.25,"durationTicks":480,"midi":46,"name":"A#2","ticks":173760,"time":90.5,"velocity":1},{"duration":0.25,"durationTicks":480,"midi":53,"name":"F3","ticks":173760,"time":90.5,"velocity":1},{"duration":0.25,"durationTicks":480,"midi":58,"name":"A#3","ticks":173760,"time":90.5,"velocity":1},{"duration":0.25,"durationTicks":480,"midi":62,"name":"D4","ticks":173760,"time":90.5,"velocity":1},{"duration":0.25,"durationTicks":480,"midi":46,"name":"A#2","ticks":174240,"time":90.75,"velocity":1},{"duration":0.25,"durationTicks":480,"midi":53,"name":"F3","ticks":174240,"time":90.75,"velocity":1},{"duration":0.25,"durationTicks":480,"midi":58,"name":"A#3","ticks":174240,"time":90.75,"velocity":1},{"duration":0.25,"durationTicks":480,"midi":62,"name":"D4","ticks":174240,"time":90.75,"velocity":1},{"duration":0.25,"durationTicks":480,"midi":65,"name":"F4","ticks":174720,"time":91,"velocity":1},{"duration":0.25,"durationTicks":480,"midi":60,"name":"C4","ticks":174720,"time":91,"velocity":1},{"duration":0.25,"durationTicks":480,"midi":57,"name":"A3","ticks":174720,"time":91,"velocity":1},{"duration":0.25,"durationTicks":480,"midi":53,"name":"F3","ticks":174720,"time":91,"velocity":1},{"duration":0.25,"durationTicks":480,"midi":48,"name":"C3","ticks":174720,"time":91,"velocity":1},{"duration":0.25,"durationTicks":480,"midi":41,"name":"F2","ticks":174720,"time":91,"velocity":1},{"duration":0.25,"durationTicks":480,"midi":41,"name":"F2","ticks":175200,"time":91.25,"velocity":1},{"duration":0.25,"durationTicks":480,"midi":48,"name":"C3","ticks":175200,"time":91.25,"velocity":1},{"duration":0.25,"durationTicks":480,"midi":53,"name":"F3","ticks":175200,"time":91.25,"velocity":1},{"duration":0.25,"durationTicks":480,"midi":57,"name":"A3","ticks":175200,"time":91.25,"velocity":1},{"duration":0.25,"durationTicks":480,"midi":60,"name":"C4","ticks":175200,"time":91.25,"velocity":1},{"duration":0.25,"durationTicks":480,"midi":65,"name":"F4","ticks":175200,"time":91.25,"velocity":1},{"duration":0.25,"durationTicks":480,"midi":41,"name":"F2","ticks":175680,"time":91.5,"velocity":1},{"duration":0.25,"durationTicks":480,"midi":48,"name":"C3","ticks":175680,"time":91.5,"velocity":1},{"duration":0.25,"durationTicks":480,"midi":53,"name":"F3","ticks":175680,"time":91.5,"velocity":1},{"duration":0.25,"durationTicks":480,"midi":57,"name":"A3","ticks":175680,"time":91.5,"velocity":1},{"duration":0.25,"durationTicks":480,"midi":60,"name":"C4","ticks":175680,"time":91.5,"velocity":1},{"duration":0.25,"durationTicks":480,"midi":65,"name":"F4","ticks":175680,"time":91.5,"velocity":1},{"duration":0.25,"durationTicks":480,"midi":41,"name":"F2","ticks":176160,"time":91.75,"velocity":1},{"duration":0.25,"durationTicks":480,"midi":48,"name":"C3","ticks":176160,"time":91.75,"velocity":1},{"duration":0.25,"durationTicks":480,"midi":53,"name":"F3","ticks":176160,"time":91.75,"velocity":1},{"duration":0.25,"durationTicks":480,"midi":57,"name":"A3","ticks":176160,"time":91.75,"velocity":1},{"duration":0.25,"durationTicks":480,"midi":60,"name":"C4","ticks":176160,"time":91.75,"velocity":1},{"duration":0.25,"durationTicks":480,"midi":65,"name":"F4","ticks":176160,"time":91.75,"velocity":1},{"duration":0.5,"durationTicks":960,"midi":43,"name":"G2","ticks":176640,"time":92,"velocity":1},{"duration":0.5,"durationTicks":960,"midi":55,"name":"G3","ticks":176640,"time":92,"velocity":1},{"duration":0.5,"durationTicks":960,"midi":58,"name":"A#3","ticks":176640,"time":92,"velocity":1},{"duration":0.5,"durationTicks":960,"midi":62,"name":"D4","ticks":176640,"time":92,"velocity":1},{"duration":0.5,"durationTicks":960,"midi":67,"name":"G4","ticks":176640,"time":92,"velocity":1},{"duration":0.75,"durationTicks":1440,"midi":50,"name":"D3","ticks":176640,"time":92,"velocity":1},{"duration":0.25,"durationTicks":480,"midi":67,"name":"G4","ticks":177600,"time":92.5,"velocity":1},{"duration":0.25,"durationTicks":480,"midi":62,"name":"D4","ticks":177600,"time":92.5,"velocity":1},{"duration":0.25,"durationTicks":480,"midi":58,"name":"A#3","ticks":177600,"time":92.5,"velocity":1},{"duration":0.25,"durationTicks":480,"midi":55,"name":"G3","ticks":177600,"time":92.5,"velocity":1},{"duration":0.25,"durationTicks":480,"midi":43,"name":"G2","ticks":177600,"time":92.5,"velocity":1},{"duration":0.5,"durationTicks":960,"midi":50,"name":"D3","ticks":177600,"time":92.5,"velocity":1},{"duration":0.25,"durationTicks":480,"midi":67,"name":"G4","ticks":178080,"time":92.75,"velocity":1},{"duration":0.25,"durationTicks":480,"midi":62,"name":"D4","ticks":178080,"time":92.75,"velocity":1},{"duration":0.25,"durationTicks":480,"midi":58,"name":"A#3","ticks":178080,"time":92.75,"velocity":1},{"duration":0.25,"durationTicks":480,"midi":55,"name":"G3","ticks":178080,"time":92.75,"velocity":1},{"duration":0.25,"durationTicks":480,"midi":43,"name":"G2","ticks":178080,"time":92.75,"velocity":1},{"duration":2.75,"durationTicks":5280,"midi":50,"name":"D3","ticks":178080,"time":92.75,"velocity":1},{"duration":0.5,"durationTicks":960,"midi":48,"name":"C3","ticks":178560,"time":93,"velocity":1},{"duration":0.5,"durationTicks":960,"midi":52,"name":"E3","ticks":178560,"time":93,"velocity":1},{"duration":0.5,"durationTicks":960,"midi":55,"name":"G3","ticks":178560,"time":93,"velocity":1},{"duration":0.5,"durationTicks":960,"midi":60,"name":"C4","ticks":178560,"time":93,"velocity":1},{"duration":0.5,"durationTicks":960,"midi":64,"name":"E4","ticks":178560,"time":93,"velocity":1},{"duration":0.25,"durationTicks":480,"midi":64,"name":"E4","ticks":179520,"time":93.5,"velocity":1},{"duration":0.25,"durationTicks":480,"midi":60,"name":"C4","ticks":179520,"time":93.5,"velocity":1},{"duration":0.25,"durationTicks":480,"midi":55,"name":"G3","ticks":179520,"time":93.5,"velocity":1},{"duration":0.25,"durationTicks":480,"midi":52,"name":"E3","ticks":179520,"time":93.5,"velocity":1},{"duration":0.25,"durationTicks":480,"midi":48,"name":"C3","ticks":179520,"time":93.5,"velocity":1},{"duration":0.25,"durationTicks":480,"midi":64,"name":"E4","ticks":180000,"time":93.75,"velocity":1},{"duration":0.25,"durationTicks":480,"midi":60,"name":"C4","ticks":180000,"time":93.75,"velocity":1},{"duration":0.25,"durationTicks":480,"midi":55,"name":"G3","ticks":180000,"time":93.75,"velocity":1},{"duration":0.25,"durationTicks":480,"midi":52,"name":"E3","ticks":180000,"time":93.75,"velocity":1},{"duration":0.25,"durationTicks":480,"midi":48,"name":"C3","ticks":180000,"time":93.75,"velocity":1},{"duration":0.5,"durationTicks":960,"midi":41,"name":"F2","ticks":180480,"time":94,"velocity":1},{"duration":0.5,"durationTicks":960,"midi":48,"name":"C3","ticks":180480,"time":94,"velocity":1},{"duration":0.5,"durationTicks":960,"midi":53,"name":"F3","ticks":180480,"time":94,"velocity":1},{"duration":0.5,"durationTicks":960,"midi":57,"name":"A3","ticks":180480,"time":94,"velocity":1},{"duration":0.5,"durationTicks":960,"midi":60,"name":"C4","ticks":180480,"time":94,"velocity":1},{"duration":0.5,"durationTicks":960,"midi":65,"name":"F4","ticks":180480,"time":94,"velocity":1},{"duration":0.25,"durationTicks":480,"midi":65,"name":"F4","ticks":181440,"time":94.5,"velocity":1},{"duration":0.25,"durationTicks":480,"midi":60,"name":"C4","ticks":181440,"time":94.5,"velocity":1},{"duration":0.25,"durationTicks":480,"midi":57,"name":"A3","ticks":181440,"time":94.5,"velocity":1},{"duration":0.25,"durationTicks":480,"midi":53,"name":"F3","ticks":181440,"time":94.5,"velocity":1},{"duration":0.25,"durationTicks":480,"midi":48,"name":"C3","ticks":181440,"time":94.5,"velocity":1},{"duration":0.25,"durationTicks":480,"midi":41,"name":"F2","ticks":181440,"time":94.5,"velocity":1},{"duration":0.25,"durationTicks":480,"midi":65,"name":"F4","ticks":181920,"time":94.75,"velocity":1},{"duration":0.25,"durationTicks":480,"midi":60,"name":"C4","ticks":181920,"time":94.75,"velocity":1},{"duration":0.25,"durationTicks":480,"midi":57,"name":"A3","ticks":181920,"time":94.75,"velocity":1},{"duration":0.25,"durationTicks":480,"midi":53,"name":"F3","ticks":181920,"time":94.75,"velocity":1},{"duration":0.25,"durationTicks":480,"midi":48,"name":"C3","ticks":181920,"time":94.75,"velocity":1},{"duration":0.25,"durationTicks":480,"midi":41,"name":"F2","ticks":181920,"time":94.75,"velocity":1},{"duration":0.5,"durationTicks":960,"midi":57,"name":"A3","ticks":182400,"time":95,"velocity":1},{"duration":0.5,"durationTicks":960,"midi":62,"name":"D4","ticks":182400,"time":95,"velocity":1},{"duration":0.5,"durationTicks":960,"midi":65,"name":"F4","ticks":182400,"time":95,"velocity":1},{"duration":0.75,"durationTicks":1440,"midi":50,"name":"D3","ticks":182400,"time":95,"velocity":1},{"duration":0.25,"durationTicks":480,"midi":65,"name":"F4","ticks":183360,"time":95.5,"velocity":1},{"duration":0.25,"durationTicks":480,"midi":62,"name":"D4","ticks":183360,"time":95.5,"velocity":1},{"duration":0.25,"durationTicks":480,"midi":57,"name":"A3","ticks":183360,"time":95.5,"velocity":1},{"duration":0.5,"durationTicks":960,"midi":50,"name":"D3","ticks":183360,"time":95.5,"velocity":1},{"duration":0.25,"durationTicks":480,"midi":65,"name":"F4","ticks":183840,"time":95.75,"velocity":1},{"duration":0.25,"durationTicks":480,"midi":62,"name":"D4","ticks":183840,"time":95.75,"velocity":1},{"duration":0.25,"durationTicks":480,"midi":57,"name":"A3","ticks":183840,"time":95.75,"velocity":1},{"duration":2.75,"durationTicks":5280,"midi":50,"name":"D3","ticks":183840,"time":95.75,"velocity":1},{"duration":0.5,"durationTicks":960,"midi":62,"name":"D4","ticks":184320,"time":96,"velocity":1},{"duration":0.5,"durationTicks":960,"midi":46,"name":"A#2","ticks":184320,"time":96,"velocity":1},{"duration":0.5,"durationTicks":960,"midi":53,"name":"F3","ticks":184320,"time":96,"velocity":1},{"duration":0.5,"durationTicks":960,"midi":58,"name":"A#3","ticks":184320,"time":96,"velocity":1},{"duration":0.25,"durationTicks":480,"midi":62,"name":"D4","ticks":185280,"time":96.5,"velocity":1},{"duration":0.25,"durationTicks":480,"midi":58,"name":"A#3","ticks":185280,"time":96.5,"velocity":1},{"duration":0.25,"durationTicks":480,"midi":53,"name":"F3","ticks":185280,"time":96.5,"velocity":1},{"duration":0.25,"durationTicks":480,"midi":46,"name":"A#2","ticks":185280,"time":96.5,"velocity":1},{"duration":0.25,"durationTicks":480,"midi":62,"name":"D4","ticks":185760,"time":96.75,"velocity":1},{"duration":0.25,"durationTicks":480,"midi":58,"name":"A#3","ticks":185760,"time":96.75,"velocity":1},{"duration":0.25,"durationTicks":480,"midi":53,"name":"F3","ticks":185760,"time":96.75,"velocity":1},{"duration":0.25,"durationTicks":480,"midi":46,"name":"A#2","ticks":185760,"time":96.75,"velocity":1},{"duration":0.5,"durationTicks":960,"midi":61,"name":"C#4","ticks":186240,"time":97,"velocity":1},{"duration":0.5,"durationTicks":960,"midi":45,"name":"A2","ticks":186240,"time":97,"velocity":1},{"duration":0.5,"durationTicks":960,"midi":52,"name":"E3","ticks":186240,"time":97,"velocity":1},{"duration":0.5,"durationTicks":960,"midi":57,"name":"A3","ticks":186240,"time":97,"velocity":1},{"duration":0.25,"durationTicks":480,"midi":45,"name":"A2","ticks":187200,"time":97.5,"velocity":1},{"duration":0.25,"durationTicks":480,"midi":52,"name":"E3","ticks":187200,"time":97.5,"velocity":1},{"duration":0.25,"durationTicks":480,"midi":57,"name":"A3","ticks":187200,"time":97.5,"velocity":1},{"duration":0.25,"durationTicks":480,"midi":61,"name":"C#4","ticks":187200,"time":97.5,"velocity":1},{"duration":0.25,"durationTicks":480,"midi":45,"name":"A2","ticks":187680,"time":97.75,"velocity":1},{"duration":0.25,"durationTicks":480,"midi":52,"name":"E3","ticks":187680,"time":97.75,"velocity":1},{"duration":0.25,"durationTicks":480,"midi":57,"name":"A3","ticks":187680,"time":97.75,"velocity":1},{"duration":0.25,"durationTicks":480,"midi":61,"name":"C#4","ticks":187680,"time":97.75,"velocity":1},{"duration":1.25,"durationTicks":2400,"midi":50,"name":"D3","ticks":188160,"time":98,"velocity":1},{"duration":0.75,"durationTicks":1440,"midi":54,"name":"F#3","ticks":189120,"time":98.5,"velocity":1},{"duration":0.75,"durationTicks":1440,"midi":57,"name":"A3","ticks":189120,"time":98.5,"velocity":1},{"duration":0.75,"durationTicks":1440,"midi":62,"name":"D4","ticks":189120,"time":98.5,"velocity":1},{"duration":0.75,"durationTicks":1440,"midi":66,"name":"F#4","ticks":189120,"time":98.5,"velocity":1},{"duration":1.5,"durationTicks":2880,"midi":50,"name":"D3","ticks":189120,"time":98.5,"velocity":1},{"duration":0.25,"durationTicks":480,"midi":55,"name":"G3","ticks":190560,"time":99.25,"velocity":1},{"duration":0.25,"durationTicks":480,"midi":62,"name":"D4","ticks":190560,"time":99.25,"velocity":1},{"duration":0.25,"durationTicks":480,"midi":67,"name":"G4","ticks":190560,"time":99.25,"velocity":1},{"duration":0.25,"durationTicks":480,"midi":54,"name":"F#3","ticks":191040,"time":99.5,"velocity":1},{"duration":0.25,"durationTicks":480,"midi":62,"name":"D4","ticks":191040,"time":99.5,"velocity":1},{"duration":0.25,"durationTicks":480,"midi":66,"name":"F#4","ticks":191040,"time":99.5,"velocity":1},{"duration":0.25,"durationTicks":480,"midi":57,"name":"A3","ticks":191520,"time":99.75,"velocity":1},{"duration":0.25,"durationTicks":480,"midi":62,"name":"D4","ticks":191520,"time":99.75,"velocity":1},{"duration":0.5,"durationTicks":960,"midi":50,"name":"D3","ticks":192000,"time":100,"velocity":1},{"duration":1.25,"durationTicks":2400,"midi":50,"name":"D3","ticks":192000,"time":100,"velocity":1},{"duration":0.75,"durationTicks":1440,"midi":54,"name":"F#3","ticks":192960,"time":100.5,"velocity":1},{"duration":0.75,"durationTicks":1440,"midi":57,"name":"A3","ticks":192960,"time":100.5,"velocity":1},{"duration":0.75,"durationTicks":1440,"midi":62,"name":"D4","ticks":192960,"time":100.5,"velocity":1},{"duration":0.75,"durationTicks":1440,"midi":66,"name":"F#4","ticks":192960,"time":100.5,"velocity":1},{"duration":1.5,"durationTicks":2880,"midi":50,"name":"D3","ticks":192960,"time":100.5,"velocity":1},{"duration":0.25,"durationTicks":480,"midi":55,"name":"G3","ticks":194400,"time":101.25,"velocity":1},{"duration":0.25,"durationTicks":480,"midi":62,"name":"D4","ticks":194400,"time":101.25,"velocity":1},{"duration":0.25,"durationTicks":480,"midi":67,"name":"G4","ticks":194400,"time":101.25,"velocity":1},{"duration":0.25,"durationTicks":480,"midi":54,"name":"F#3","ticks":194880,"time":101.5,"velocity":1},{"duration":0.25,"durationTicks":480,"midi":62,"name":"D4","ticks":194880,"time":101.5,"velocity":1},{"duration":0.25,"durationTicks":480,"midi":66,"name":"F#4","ticks":194880,"time":101.5,"velocity":1},{"duration":0.25,"durationTicks":480,"midi":57,"name":"A3","ticks":195360,"time":101.75,"velocity":1},{"duration":0.25,"durationTicks":480,"midi":62,"name":"D4","ticks":195360,"time":101.75,"velocity":1},{"duration":0.75,"durationTicks":1440,"midi":50,"name":"D3","ticks":195360,"time":101.75,"velocity":1},{"duration":1.25,"durationTicks":2400,"midi":50,"name":"D3","ticks":195840,"time":102,"velocity":1},{"duration":0.75,"durationTicks":1440,"midi":54,"name":"F#3","ticks":196800,"time":102.5,"velocity":1},{"duration":0.75,"durationTicks":1440,"midi":57,"name":"A3","ticks":196800,"time":102.5,"velocity":1},{"duration":0.75,"durationTicks":1440,"midi":62,"name":"D4","ticks":196800,"time":102.5,"velocity":1},{"duration":0.75,"durationTicks":1440,"midi":66,"name":"F#4","ticks":196800,"time":102.5,"velocity":1},{"duration":1.5,"durationTicks":2880,"midi":50,"name":"D3","ticks":196800,"time":102.5,"velocity":1},{"duration":0.25,"durationTicks":480,"midi":55,"name":"G3","ticks":198240,"time":103.25,"velocity":1},{"duration":0.25,"durationTicks":480,"midi":62,"name":"D4","ticks":198240,"time":103.25,"velocity":1},{"duration":0.25,"durationTicks":480,"midi":67,"name":"G4","ticks":198240,"time":103.25,"velocity":1},{"duration":0.25,"durationTicks":480,"midi":54,"name":"F#3","ticks":198720,"time":103.5,"velocity":1},{"duration":0.25,"durationTicks":480,"midi":62,"name":"D4","ticks":198720,"time":103.5,"velocity":1},{"duration":0.25,"durationTicks":480,"midi":66,"name":"F#4","ticks":198720,"time":103.5,"velocity":1},{"duration":0.25,"durationTicks":480,"midi":57,"name":"A3","ticks":199200,"time":103.75,"velocity":1},{"duration":0.25,"durationTicks":480,"midi":62,"name":"D4","ticks":199200,"time":103.75,"velocity":1},{"duration":0.5,"durationTicks":960,"midi":50,"name":"D3","ticks":199680,"time":104,"velocity":1},{"duration":1.25,"durationTicks":2400,"midi":50,"name":"D3","ticks":199680,"time":104,"velocity":1},{"duration":0.75,"durationTicks":1440,"midi":54,"name":"F#3","ticks":200640,"time":104.5,"velocity":1},{"duration":0.75,"durationTicks":1440,"midi":57,"name":"A3","ticks":200640,"time":104.5,"velocity":1},{"duration":0.75,"durationTicks":1440,"midi":62,"name":"D4","ticks":200640,"time":104.5,"velocity":1},{"duration":0.75,"durationTicks":1440,"midi":66,"name":"F#4","ticks":200640,"time":104.5,"velocity":1},{"duration":1.5,"durationTicks":2880,"midi":50,"name":"D3","ticks":200640,"time":104.5,"velocity":1},{"duration":0.25,"durationTicks":480,"midi":55,"name":"G3","ticks":202080,"time":105.25,"velocity":1},{"duration":0.25,"durationTicks":480,"midi":62,"name":"D4","ticks":202080,"time":105.25,"velocity":1},{"duration":0.25,"durationTicks":480,"midi":67,"name":"G4","ticks":202080,"time":105.25,"velocity":1},{"duration":0.25,"durationTicks":480,"midi":54,"name":"F#3","ticks":202560,"time":105.5,"velocity":1},{"duration":0.25,"durationTicks":480,"midi":62,"name":"D4","ticks":202560,"time":105.5,"velocity":1},{"duration":0.25,"durationTicks":480,"midi":66,"name":"F#4","ticks":202560,"time":105.5,"velocity":1},{"duration":0.25,"durationTicks":480,"midi":57,"name":"A3","ticks":203040,"time":105.75,"velocity":1},{"duration":0.25,"durationTicks":480,"midi":62,"name":"D4","ticks":203040,"time":105.75,"velocity":1},{"duration":16.75,"durationTicks":32160,"midi":50,"name":"D3","ticks":203040,"time":105.75,"velocity":1},{"duration":1.25,"durationTicks":2400,"midi":50,"name":"D3","ticks":234240,"time":122,"velocity":1},{"duration":0.75,"durationTicks":1440,"midi":54,"name":"F#3","ticks":235200,"time":122.5,"velocity":1},{"duration":0.75,"durationTicks":1440,"midi":57,"name":"A3","ticks":235200,"time":122.5,"velocity":1},{"duration":0.75,"durationTicks":1440,"midi":62,"name":"D4","ticks":235200,"time":122.5,"velocity":1},{"duration":0.75,"durationTicks":1440,"midi":66,"name":"F#4","ticks":235200,"time":122.5,"velocity":1},{"duration":1.5,"durationTicks":2880,"midi":50,"name":"D3","ticks":235200,"time":122.5,"velocity":1},{"duration":0.25,"durationTicks":480,"midi":55,"name":"G3","ticks":236640,"time":123.25,"velocity":1},{"duration":0.25,"durationTicks":480,"midi":62,"name":"D4","ticks":236640,"time":123.25,"velocity":1},{"duration":0.25,"durationTicks":480,"midi":67,"name":"G4","ticks":236640,"time":123.25,"velocity":1},{"duration":0.25,"durationTicks":480,"midi":54,"name":"F#3","ticks":237120,"time":123.5,"velocity":1},{"duration":0.25,"durationTicks":480,"midi":62,"name":"D4","ticks":237120,"time":123.5,"velocity":1},{"duration":0.25,"durationTicks":480,"midi":66,"name":"F#4","ticks":237120,"time":123.5,"velocity":1},{"duration":0.25,"durationTicks":480,"midi":57,"name":"A3","ticks":237600,"time":123.75,"velocity":1},{"duration":0.25,"durationTicks":480,"midi":62,"name":"D4","ticks":237600,"time":123.75,"velocity":1},{"duration":0.5,"durationTicks":960,"midi":50,"name":"D3","ticks":238080,"time":124,"velocity":1},{"duration":1.25,"durationTicks":2400,"midi":50,"name":"D3","ticks":238080,"time":124,"velocity":1},{"duration":0.75,"durationTicks":1440,"midi":54,"name":"F#3","ticks":239040,"time":124.5,"velocity":1},{"duration":0.75,"durationTicks":1440,"midi":57,"name":"A3","ticks":239040,"time":124.5,"velocity":1},{"duration":0.75,"durationTicks":1440,"midi":62,"name":"D4","ticks":239040,"time":124.5,"velocity":1},{"duration":0.75,"durationTicks":1440,"midi":66,"name":"F#4","ticks":239040,"time":124.5,"velocity":1},{"duration":1.5,"durationTicks":2880,"midi":50,"name":"D3","ticks":239040,"time":124.5,"velocity":1},{"duration":0.25,"durationTicks":480,"midi":55,"name":"G3","ticks":240480,"time":125.25,"velocity":1},{"duration":0.25,"durationTicks":480,"midi":62,"name":"D4","ticks":240480,"time":125.25,"velocity":1},{"duration":0.25,"durationTicks":480,"midi":67,"name":"G4","ticks":240480,"time":125.25,"velocity":1},{"duration":0.25,"durationTicks":480,"midi":54,"name":"F#3","ticks":240960,"time":125.5,"velocity":1},{"duration":0.25,"durationTicks":480,"midi":62,"name":"D4","ticks":240960,"time":125.5,"velocity":1},{"duration":0.25,"durationTicks":480,"midi":66,"name":"F#4","ticks":240960,"time":125.5,"velocity":1},{"duration":0.25,"durationTicks":480,"midi":57,"name":"A3","ticks":241440,"time":125.75,"velocity":1},{"duration":0.25,"durationTicks":480,"midi":62,"name":"D4","ticks":241440,"time":125.75,"velocity":1},{"duration":0.75,"durationTicks":1440,"midi":50,"name":"D3","ticks":241440,"time":125.75,"velocity":1},{"duration":1.25,"durationTicks":2400,"midi":50,"name":"D3","ticks":241920,"time":126,"velocity":1},{"duration":0.75,"durationTicks":1440,"midi":54,"name":"F#3","ticks":242880,"time":126.5,"velocity":1},{"duration":0.75,"durationTicks":1440,"midi":57,"name":"A3","ticks":242880,"time":126.5,"velocity":1},{"duration":0.75,"durationTicks":1440,"midi":62,"name":"D4","ticks":242880,"time":126.5,"velocity":1},{"duration":0.75,"durationTicks":1440,"midi":66,"name":"F#4","ticks":242880,"time":126.5,"velocity":1},{"duration":1.5,"durationTicks":2880,"midi":50,"name":"D3","ticks":242880,"time":126.5,"velocity":1},{"duration":0.25,"durationTicks":480,"midi":55,"name":"G3","ticks":244320,"time":127.25,"velocity":1},{"duration":0.25,"durationTicks":480,"midi":62,"name":"D4","ticks":244320,"time":127.25,"velocity":1},{"duration":0.25,"durationTicks":480,"midi":67,"name":"G4","ticks":244320,"time":127.25,"velocity":1},{"duration":0.25,"durationTicks":480,"midi":54,"name":"F#3","ticks":244800,"time":127.5,"velocity":1},{"duration":0.25,"durationTicks":480,"midi":62,"name":"D4","ticks":244800,"time":127.5,"velocity":1},{"duration":0.25,"durationTicks":480,"midi":66,"name":"F#4","ticks":244800,"time":127.5,"velocity":1},{"duration":0.25,"durationTicks":480,"midi":57,"name":"A3","ticks":245280,"time":127.75,"velocity":1},{"duration":0.25,"durationTicks":480,"midi":62,"name":"D4","ticks":245280,"time":127.75,"velocity":1},{"duration":0.5,"durationTicks":960,"midi":50,"name":"D3","ticks":245760,"time":128,"velocity":1},{"duration":1.25,"durationTicks":2400,"midi":50,"name":"D3","ticks":245760,"time":128,"velocity":1},{"duration":0.75,"durationTicks":1440,"midi":54,"name":"F#3","ticks":246720,"time":128.5,"velocity":1},{"duration":0.75,"durationTicks":1440,"midi":57,"name":"A3","ticks":246720,"time":128.5,"velocity":1},{"duration":0.75,"durationTicks":1440,"midi":62,"name":"D4","ticks":246720,"time":128.5,"velocity":1},{"duration":0.75,"durationTicks":1440,"midi":66,"name":"F#4","ticks":246720,"time":128.5,"velocity":1},{"duration":1.5,"durationTicks":2880,"midi":50,"name":"D3","ticks":246720,"time":128.5,"velocity":1},{"duration":0.25,"durationTicks":480,"midi":55,"name":"G3","ticks":248160,"time":129.25,"velocity":1},{"duration":0.25,"durationTicks":480,"midi":62,"name":"D4","ticks":248160,"time":129.25,"velocity":1},{"duration":0.25,"durationTicks":480,"midi":67,"name":"G4","ticks":248160,"time":129.25,"velocity":1},{"duration":0.25,"durationTicks":480,"midi":54,"name":"F#3","ticks":248640,"time":129.5,"velocity":1},{"duration":0.25,"durationTicks":480,"midi":62,"name":"D4","ticks":248640,"time":129.5,"velocity":1},{"duration":0.25,"durationTicks":480,"midi":66,"name":"F#4","ticks":248640,"time":129.5,"velocity":1},{"duration":0.25,"durationTicks":480,"midi":57,"name":"A3","ticks":249120,"time":129.75,"velocity":1},{"duration":0.25,"durationTicks":480,"midi":62,"name":"D4","ticks":249120,"time":129.75,"velocity":1},{"duration":14.75,"durationTicks":28320,"midi":50,"name":"D3","ticks":249120,"time":129.75,"velocity":1},{"duration":0.5,"durationTicks":960,"midi":40,"name":"E2","ticks":249600,"time":130,"velocity":1},{"duration":0.5,"durationTicks":960,"midi":40,"name":"E2","ticks":250560,"time":130.5,"velocity":1},{"duration":0.5,"durationTicks":960,"midi":47,"name":"B2","ticks":250560,"time":130.5,"velocity":1},{"duration":0.5,"durationTicks":960,"midi":52,"name":"E3","ticks":250560,"time":130.5,"velocity":1},{"duration":0.5,"durationTicks":960,"midi":55,"name":"G3","ticks":250560,"time":130.5,"velocity":1},{"duration":0.5,"durationTicks":960,"midi":62,"name":"D4","ticks":250560,"time":130.5,"velocity":1},{"duration":0.5,"durationTicks":960,"midi":67,"name":"G4","ticks":250560,"time":130.5,"velocity":1},{"duration":0.25,"durationTicks":480,"midi":40,"name":"E2","ticks":251520,"time":131,"velocity":1},{"duration":0.25,"durationTicks":480,"midi":67,"name":"G4","ticks":251520,"time":131,"velocity":1},{"duration":0.25,"durationTicks":480,"midi":62,"name":"D4","ticks":251520,"time":131,"velocity":1},{"duration":0.25,"durationTicks":480,"midi":55,"name":"G3","ticks":251520,"time":131,"velocity":1},{"duration":0.25,"durationTicks":480,"midi":52,"name":"E3","ticks":251520,"time":131,"velocity":1},{"duration":0.25,"durationTicks":480,"midi":47,"name":"B2","ticks":251520,"time":131,"velocity":1},{"duration":0.25,"durationTicks":480,"midi":40,"name":"E2","ticks":252000,"time":131.25,"velocity":1},{"duration":0.25,"durationTicks":480,"midi":67,"name":"G4","ticks":252000,"time":131.25,"velocity":1},{"duration":0.25,"durationTicks":480,"midi":62,"name":"D4","ticks":252000,"time":131.25,"velocity":1},{"duration":0.25,"durationTicks":480,"midi":55,"name":"G3","ticks":252000,"time":131.25,"velocity":1},{"duration":0.25,"durationTicks":480,"midi":52,"name":"E3","ticks":252000,"time":131.25,"velocity":1},{"duration":0.25,"durationTicks":480,"midi":47,"name":"B2","ticks":252000,"time":131.25,"velocity":1},{"duration":0.25,"durationTicks":480,"midi":40,"name":"E2","ticks":252480,"time":131.5,"velocity":1},{"duration":0.25,"durationTicks":480,"midi":67,"name":"G4","ticks":252480,"time":131.5,"velocity":1},{"duration":0.25,"durationTicks":480,"midi":62,"name":"D4","ticks":252480,"time":131.5,"velocity":1},{"duration":0.25,"durationTicks":480,"midi":55,"name":"G3","ticks":252480,"time":131.5,"velocity":1},{"duration":0.25,"durationTicks":480,"midi":52,"name":"E3","ticks":252480,"time":131.5,"velocity":1},{"duration":0.25,"durationTicks":480,"midi":47,"name":"B2","ticks":252480,"time":131.5,"velocity":1},{"duration":0.25,"durationTicks":480,"midi":40,"name":"E2","ticks":252960,"time":131.75,"velocity":1},{"duration":0.25,"durationTicks":480,"midi":67,"name":"G4","ticks":252960,"time":131.75,"velocity":1},{"duration":0.25,"durationTicks":480,"midi":62,"name":"D4","ticks":252960,"time":131.75,"velocity":1},{"duration":0.25,"durationTicks":480,"midi":55,"name":"G3","ticks":252960,"time":131.75,"velocity":1},{"duration":0.25,"durationTicks":480,"midi":52,"name":"E3","ticks":252960,"time":131.75,"velocity":1},{"duration":0.25,"durationTicks":480,"midi":47,"name":"B2","ticks":252960,"time":131.75,"velocity":1},{"duration":0.5,"durationTicks":960,"midi":45,"name":"A2","ticks":253440,"time":132,"velocity":1},{"duration":0.5,"durationTicks":960,"midi":45,"name":"A2","ticks":254400,"time":132.5,"velocity":1},{"duration":0.5,"durationTicks":960,"midi":52,"name":"E3","ticks":254400,"time":132.5,"velocity":1},{"duration":0.5,"durationTicks":960,"midi":55,"name":"G3","ticks":254400,"time":132.5,"velocity":1},{"duration":0.5,"durationTicks":960,"midi":62,"name":"D4","ticks":254400,"time":132.5,"velocity":1},{"duration":0.5,"durationTicks":960,"midi":64,"name":"E4","ticks":254400,"time":132.5,"velocity":1},{"duration":0.25,"durationTicks":480,"midi":45,"name":"A2","ticks":255360,"time":133,"velocity":1},{"duration":0.25,"durationTicks":480,"midi":52,"name":"E3","ticks":255360,"time":133,"velocity":1},{"duration":0.25,"durationTicks":480,"midi":55,"name":"G3","ticks":255360,"time":133,"velocity":1},{"duration":0.25,"durationTicks":480,"midi":62,"name":"D4","ticks":255360,"time":133,"velocity":1},{"duration":0.25,"durationTicks":480,"midi":64,"name":"E4","ticks":255360,"time":133,"velocity":1},{"duration":0.25,"durationTicks":480,"midi":45,"name":"A2","ticks":255840,"time":133.25,"velocity":1},{"duration":0.25,"durationTicks":480,"midi":52,"name":"E3","ticks":255840,"time":133.25,"velocity":1},{"duration":0.25,"durationTicks":480,"midi":55,"name":"G3","ticks":255840,"time":133.25,"velocity":1},{"duration":0.25,"durationTicks":480,"midi":62,"name":"D4","ticks":255840,"time":133.25,"velocity":1},{"duration":0.25,"durationTicks":480,"midi":64,"name":"E4","ticks":255840,"time":133.25,"velocity":1},{"duration":0.25,"durationTicks":480,"midi":45,"name":"A2","ticks":256320,"time":133.5,"velocity":1},{"duration":0.25,"durationTicks":480,"midi":52,"name":"E3","ticks":256320,"time":133.5,"velocity":1},{"duration":0.25,"durationTicks":480,"midi":55,"name":"G3","ticks":256320,"time":133.5,"velocity":1},{"duration":0.25,"durationTicks":480,"midi":62,"name":"D4","ticks":256320,"time":133.5,"velocity":1},{"duration":0.25,"durationTicks":480,"midi":64,"name":"E4","ticks":256320,"time":133.5,"velocity":1},{"duration":0.25,"durationTicks":480,"midi":45,"name":"A2","ticks":256800,"time":133.75,"velocity":1},{"duration":0.25,"durationTicks":480,"midi":52,"name":"E3","ticks":256800,"time":133.75,"velocity":1},{"duration":0.25,"durationTicks":480,"midi":55,"name":"G3","ticks":256800,"time":133.75,"velocity":1},{"duration":0.25,"durationTicks":480,"midi":62,"name":"D4","ticks":256800,"time":133.75,"velocity":1},{"duration":0.25,"durationTicks":480,"midi":64,"name":"E4","ticks":256800,"time":133.75,"velocity":1},{"duration":0.5,"durationTicks":960,"midi":46,"name":"A#2","ticks":257280,"time":134,"velocity":1},{"duration":0.5,"durationTicks":960,"midi":53,"name":"F3","ticks":257280,"time":134,"velocity":1},{"duration":0.5,"durationTicks":960,"midi":58,"name":"A#3","ticks":257280,"time":134,"velocity":1},{"duration":0.5,"durationTicks":960,"midi":62,"name":"D4","ticks":257280,"time":134,"velocity":1},{"duration":0.25,"durationTicks":480,"midi":46,"name":"A#2","ticks":258240,"time":134.5,"velocity":1},{"duration":0.25,"durationTicks":480,"midi":53,"name":"F3","ticks":258240,"time":134.5,"velocity":1},{"duration":0.25,"durationTicks":480,"midi":58,"name":"A#3","ticks":258240,"time":134.5,"velocity":1},{"duration":0.25,"durationTicks":480,"midi":62,"name":"D4","ticks":258240,"time":134.5,"velocity":1},{"duration":0.25,"durationTicks":480,"midi":46,"name":"A#2","ticks":258720,"time":134.75,"velocity":1},{"duration":0.25,"durationTicks":480,"midi":53,"name":"F3","ticks":258720,"time":134.75,"velocity":1},{"duration":0.25,"durationTicks":480,"midi":58,"name":"A#3","ticks":258720,"time":134.75,"velocity":1},{"duration":0.25,"durationTicks":480,"midi":62,"name":"D4","ticks":258720,"time":134.75,"velocity":1},{"duration":0.25,"durationTicks":480,"midi":46,"name":"A#2","ticks":259200,"time":135,"velocity":1},{"duration":0.25,"durationTicks":480,"midi":53,"name":"F3","ticks":259200,"time":135,"velocity":1},{"duration":0.25,"durationTicks":480,"midi":58,"name":"A#3","ticks":259200,"time":135,"velocity":1},{"duration":0.25,"durationTicks":480,"midi":62,"name":"D4","ticks":259200,"time":135,"velocity":1},{"duration":0.25,"durationTicks":480,"midi":46,"name":"A#2","ticks":259680,"time":135.25,"velocity":1},{"duration":0.25,"durationTicks":480,"midi":53,"name":"F3","ticks":259680,"time":135.25,"velocity":1},{"duration":0.25,"durationTicks":480,"midi":58,"name":"A#3","ticks":259680,"time":135.25,"velocity":1},{"duration":0.25,"durationTicks":480,"midi":62,"name":"D4","ticks":259680,"time":135.25,"velocity":1},{"duration":0.25,"durationTicks":480,"midi":46,"name":"A#2","ticks":260160,"time":135.5,"velocity":1},{"duration":0.25,"durationTicks":480,"midi":53,"name":"F3","ticks":260160,"time":135.5,"velocity":1},{"duration":0.25,"durationTicks":480,"midi":58,"name":"A#3","ticks":260160,"time":135.5,"velocity":1},{"duration":0.25,"durationTicks":480,"midi":62,"name":"D4","ticks":260160,"time":135.5,"velocity":1},{"duration":0.25,"durationTicks":480,"midi":46,"name":"A#2","ticks":260640,"time":135.75,"velocity":1},{"duration":0.25,"durationTicks":480,"midi":53,"name":"F3","ticks":260640,"time":135.75,"velocity":1},{"duration":0.25,"durationTicks":480,"midi":58,"name":"A#3","ticks":260640,"time":135.75,"velocity":1},{"duration":0.25,"durationTicks":480,"midi":62,"name":"D4","ticks":260640,"time":135.75,"velocity":1},{"duration":0.25,"durationTicks":480,"midi":65,"name":"F4","ticks":261120,"time":136,"velocity":1},{"duration":0.25,"durationTicks":480,"midi":60,"name":"C4","ticks":261120,"time":136,"velocity":1},{"duration":0.25,"durationTicks":480,"midi":57,"name":"A3","ticks":261120,"time":136,"velocity":1},{"duration":0.25,"durationTicks":480,"midi":53,"name":"F3","ticks":261120,"time":136,"velocity":1},{"duration":0.25,"durationTicks":480,"midi":48,"name":"C3","ticks":261120,"time":136,"velocity":1},{"duration":0.25,"durationTicks":480,"midi":41,"name":"F2","ticks":261120,"time":136,"velocity":1},{"duration":0.25,"durationTicks":480,"midi":41,"name":"F2","ticks":261600,"time":136.25,"velocity":1},{"duration":0.25,"durationTicks":480,"midi":48,"name":"C3","ticks":261600,"time":136.25,"velocity":1},{"duration":0.25,"durationTicks":480,"midi":53,"name":"F3","ticks":261600,"time":136.25,"velocity":1},{"duration":0.25,"durationTicks":480,"midi":57,"name":"A3","ticks":261600,"time":136.25,"velocity":1},{"duration":0.25,"durationTicks":480,"midi":60,"name":"C4","ticks":261600,"time":136.25,"velocity":1},{"duration":0.25,"durationTicks":480,"midi":65,"name":"F4","ticks":261600,"time":136.25,"velocity":1},{"duration":0.25,"durationTicks":480,"midi":41,"name":"F2","ticks":262080,"time":136.5,"velocity":1},{"duration":0.25,"durationTicks":480,"midi":48,"name":"C3","ticks":262080,"time":136.5,"velocity":1},{"duration":0.25,"durationTicks":480,"midi":53,"name":"F3","ticks":262080,"time":136.5,"velocity":1},{"duration":0.25,"durationTicks":480,"midi":57,"name":"A3","ticks":262080,"time":136.5,"velocity":1},{"duration":0.25,"durationTicks":480,"midi":60,"name":"C4","ticks":262080,"time":136.5,"velocity":1},{"duration":0.25,"durationTicks":480,"midi":65,"name":"F4","ticks":262080,"time":136.5,"velocity":1},{"duration":0.25,"durationTicks":480,"midi":41,"name":"F2","ticks":262560,"time":136.75,"velocity":1},{"duration":0.25,"durationTicks":480,"midi":48,"name":"C3","ticks":262560,"time":136.75,"velocity":1},{"duration":0.25,"durationTicks":480,"midi":53,"name":"F3","ticks":262560,"time":136.75,"velocity":1},{"duration":0.25,"durationTicks":480,"midi":57,"name":"A3","ticks":262560,"time":136.75,"velocity":1},{"duration":0.25,"durationTicks":480,"midi":60,"name":"C4","ticks":262560,"time":136.75,"velocity":1},{"duration":0.25,"durationTicks":480,"midi":65,"name":"F4","ticks":262560,"time":136.75,"velocity":1},{"duration":0.25,"durationTicks":480,"midi":48,"name":"C3","ticks":263040,"time":137,"velocity":1},{"duration":0.25,"durationTicks":480,"midi":52,"name":"E3","ticks":263040,"time":137,"velocity":1},{"duration":0.25,"durationTicks":480,"midi":55,"name":"G3","ticks":263040,"time":137,"velocity":1},{"duration":0.25,"durationTicks":480,"midi":60,"name":"C4","ticks":263040,"time":137,"velocity":1},{"duration":0.25,"durationTicks":480,"midi":64,"name":"E4","ticks":263040,"time":137,"velocity":1},{"duration":0.25,"durationTicks":480,"midi":48,"name":"C3","ticks":263520,"time":137.25,"velocity":1},{"duration":0.25,"durationTicks":480,"midi":52,"name":"E3","ticks":263520,"time":137.25,"velocity":1},{"duration":0.25,"durationTicks":480,"midi":55,"name":"G3","ticks":263520,"time":137.25,"velocity":1},{"duration":0.25,"durationTicks":480,"midi":60,"name":"C4","ticks":263520,"time":137.25,"velocity":1},{"duration":0.25,"durationTicks":480,"midi":64,"name":"E4","ticks":263520,"time":137.25,"velocity":1},{"duration":0.25,"durationTicks":480,"midi":48,"name":"C3","ticks":264000,"time":137.5,"velocity":1},{"duration":0.25,"durationTicks":480,"midi":52,"name":"E3","ticks":264000,"time":137.5,"velocity":1},{"duration":0.25,"durationTicks":480,"midi":55,"name":"G3","ticks":264000,"time":137.5,"velocity":1},{"duration":0.25,"durationTicks":480,"midi":60,"name":"C4","ticks":264000,"time":137.5,"velocity":1},{"duration":0.25,"durationTicks":480,"midi":64,"name":"E4","ticks":264000,"time":137.5,"velocity":1},{"duration":0.25,"durationTicks":480,"midi":48,"name":"C3","ticks":264480,"time":137.75,"velocity":1},{"duration":0.25,"durationTicks":480,"midi":52,"name":"E3","ticks":264480,"time":137.75,"velocity":1},{"duration":0.25,"durationTicks":480,"midi":55,"name":"G3","ticks":264480,"time":137.75,"velocity":1},{"duration":0.25,"durationTicks":480,"midi":60,"name":"C4","ticks":264480,"time":137.75,"velocity":1},{"duration":0.25,"durationTicks":480,"midi":64,"name":"E4","ticks":264480,"time":137.75,"velocity":1},{"duration":0.25,"durationTicks":480,"midi":46,"name":"A#2","ticks":264960,"time":138,"velocity":1},{"duration":0.25,"durationTicks":480,"midi":53,"name":"F3","ticks":264960,"time":138,"velocity":1},{"duration":0.25,"durationTicks":480,"midi":58,"name":"A#3","ticks":264960,"time":138,"velocity":1},{"duration":0.25,"durationTicks":480,"midi":62,"name":"D4","ticks":264960,"time":138,"velocity":1},{"duration":0.25,"durationTicks":480,"midi":46,"name":"A#2","ticks":265440,"time":138.25,"velocity":1},{"duration":0.25,"durationTicks":480,"midi":53,"name":"F3","ticks":265440,"time":138.25,"velocity":1},{"duration":0.25,"durationTicks":480,"midi":58,"name":"A#3","ticks":265440,"time":138.25,"velocity":1},{"duration":0.25,"durationTicks":480,"midi":62,"name":"D4","ticks":265440,"time":138.25,"velocity":1},{"duration":0.25,"durationTicks":480,"midi":46,"name":"A#2","ticks":265920,"time":138.5,"velocity":1},{"duration":0.25,"durationTicks":480,"midi":53,"name":"F3","ticks":265920,"time":138.5,"velocity":1},{"duration":0.25,"durationTicks":480,"midi":58,"name":"A#3","ticks":265920,"time":138.5,"velocity":1},{"duration":0.25,"durationTicks":480,"midi":62,"name":"D4","ticks":265920,"time":138.5,"velocity":1},{"duration":0.25,"durationTicks":480,"midi":46,"name":"A#2","ticks":266400,"time":138.75,"velocity":1},{"duration":0.25,"durationTicks":480,"midi":53,"name":"F3","ticks":266400,"time":138.75,"velocity":1},{"duration":0.25,"durationTicks":480,"midi":58,"name":"A#3","ticks":266400,"time":138.75,"velocity":1},{"duration":0.25,"durationTicks":480,"midi":62,"name":"D4","ticks":266400,"time":138.75,"velocity":1},{"duration":0.25,"durationTicks":480,"midi":65,"name":"F4","ticks":266880,"time":139,"velocity":1},{"duration":0.25,"durationTicks":480,"midi":60,"name":"C4","ticks":266880,"time":139,"velocity":1},{"duration":0.25,"durationTicks":480,"midi":57,"name":"A3","ticks":266880,"time":139,"velocity":1},{"duration":0.25,"durationTicks":480,"midi":53,"name":"F3","ticks":266880,"time":139,"velocity":1},{"duration":0.25,"durationTicks":480,"midi":48,"name":"C3","ticks":266880,"time":139,"velocity":1},{"duration":0.25,"durationTicks":480,"midi":41,"name":"F2","ticks":266880,"time":139,"velocity":1},{"duration":0.25,"durationTicks":480,"midi":41,"name":"F2","ticks":267360,"time":139.25,"velocity":1},{"duration":0.25,"durationTicks":480,"midi":48,"name":"C3","ticks":267360,"time":139.25,"velocity":1},{"duration":0.25,"durationTicks":480,"midi":53,"name":"F3","ticks":267360,"time":139.25,"velocity":1},{"duration":0.25,"durationTicks":480,"midi":57,"name":"A3","ticks":267360,"time":139.25,"velocity":1},{"duration":0.25,"durationTicks":480,"midi":60,"name":"C4","ticks":267360,"time":139.25,"velocity":1},{"duration":0.25,"durationTicks":480,"midi":65,"name":"F4","ticks":267360,"time":139.25,"velocity":1},{"duration":0.25,"durationTicks":480,"midi":41,"name":"F2","ticks":267840,"time":139.5,"velocity":1},{"duration":0.25,"durationTicks":480,"midi":48,"name":"C3","ticks":267840,"time":139.5,"velocity":1},{"duration":0.25,"durationTicks":480,"midi":53,"name":"F3","ticks":267840,"time":139.5,"velocity":1},{"duration":0.25,"durationTicks":480,"midi":57,"name":"A3","ticks":267840,"time":139.5,"velocity":1},{"duration":0.25,"durationTicks":480,"midi":60,"name":"C4","ticks":267840,"time":139.5,"velocity":1},{"duration":0.25,"durationTicks":480,"midi":65,"name":"F4","ticks":267840,"time":139.5,"velocity":1},{"duration":0.25,"durationTicks":480,"midi":41,"name":"F2","ticks":268320,"time":139.75,"velocity":1},{"duration":0.25,"durationTicks":480,"midi":48,"name":"C3","ticks":268320,"time":139.75,"velocity":1},{"duration":0.25,"durationTicks":480,"midi":53,"name":"F3","ticks":268320,"time":139.75,"velocity":1},{"duration":0.25,"durationTicks":480,"midi":57,"name":"A3","ticks":268320,"time":139.75,"velocity":1},{"duration":0.25,"durationTicks":480,"midi":60,"name":"C4","ticks":268320,"time":139.75,"velocity":1},{"duration":0.25,"durationTicks":480,"midi":65,"name":"F4","ticks":268320,"time":139.75,"velocity":1},{"duration":0.25,"durationTicks":480,"midi":65,"name":"F4","ticks":268800,"time":140,"velocity":1},{"duration":0.25,"durationTicks":480,"midi":60,"name":"C4","ticks":268800,"time":140,"velocity":1},{"duration":0.25,"durationTicks":480,"midi":57,"name":"A3","ticks":268800,"time":140,"velocity":1},{"duration":0.25,"durationTicks":480,"midi":53,"name":"F3","ticks":268800,"time":140,"velocity":1},{"duration":0.25,"durationTicks":480,"midi":48,"name":"C3","ticks":268800,"time":140,"velocity":1},{"duration":0.25,"durationTicks":480,"midi":41,"name":"F2","ticks":268800,"time":140,"velocity":1},{"duration":0.25,"durationTicks":480,"midi":41,"name":"F2","ticks":269280,"time":140.25,"velocity":1},{"duration":0.25,"durationTicks":480,"midi":48,"name":"C3","ticks":269280,"time":140.25,"velocity":1},{"duration":0.25,"durationTicks":480,"midi":53,"name":"F3","ticks":269280,"time":140.25,"velocity":1},{"duration":0.25,"durationTicks":480,"midi":57,"name":"A3","ticks":269280,"time":140.25,"velocity":1},{"duration":0.25,"durationTicks":480,"midi":60,"name":"C4","ticks":269280,"time":140.25,"velocity":1},{"duration":0.25,"durationTicks":480,"midi":65,"name":"F4","ticks":269280,"time":140.25,"velocity":1},{"duration":0.25,"durationTicks":480,"midi":41,"name":"F2","ticks":269760,"time":140.5,"velocity":1},{"duration":0.25,"durationTicks":480,"midi":48,"name":"C3","ticks":269760,"time":140.5,"velocity":1},{"duration":0.25,"durationTicks":480,"midi":53,"name":"F3","ticks":269760,"time":140.5,"velocity":1},{"duration":0.25,"durationTicks":480,"midi":57,"name":"A3","ticks":269760,"time":140.5,"velocity":1},{"duration":0.25,"durationTicks":480,"midi":60,"name":"C4","ticks":269760,"time":140.5,"velocity":1},{"duration":0.25,"durationTicks":480,"midi":65,"name":"F4","ticks":269760,"time":140.5,"velocity":1},{"duration":0.25,"durationTicks":480,"midi":41,"name":"F2","ticks":270240,"time":140.75,"velocity":1},{"duration":0.25,"durationTicks":480,"midi":48,"name":"C3","ticks":270240,"time":140.75,"velocity":1},{"duration":0.25,"durationTicks":480,"midi":53,"name":"F3","ticks":270240,"time":140.75,"velocity":1},{"duration":0.25,"durationTicks":480,"midi":57,"name":"A3","ticks":270240,"time":140.75,"velocity":1},{"duration":0.25,"durationTicks":480,"midi":60,"name":"C4","ticks":270240,"time":140.75,"velocity":1},{"duration":0.25,"durationTicks":480,"midi":65,"name":"F4","ticks":270240,"time":140.75,"velocity":1},{"duration":0.25,"durationTicks":480,"midi":48,"name":"C3","ticks":270720,"time":141,"velocity":1},{"duration":0.25,"durationTicks":480,"midi":52,"name":"E3","ticks":270720,"time":141,"velocity":1},{"duration":0.25,"durationTicks":480,"midi":55,"name":"G3","ticks":270720,"time":141,"velocity":1},{"duration":0.25,"durationTicks":480,"midi":60,"name":"C4","ticks":270720,"time":141,"velocity":1},{"duration":0.25,"durationTicks":480,"midi":64,"name":"E4","ticks":270720,"time":141,"velocity":1},{"duration":0.25,"durationTicks":480,"midi":48,"name":"C3","ticks":271200,"time":141.25,"velocity":1},{"duration":0.25,"durationTicks":480,"midi":52,"name":"E3","ticks":271200,"time":141.25,"velocity":1},{"duration":0.25,"durationTicks":480,"midi":55,"name":"G3","ticks":271200,"time":141.25,"velocity":1},{"duration":0.25,"durationTicks":480,"midi":60,"name":"C4","ticks":271200,"time":141.25,"velocity":1},{"duration":0.25,"durationTicks":480,"midi":64,"name":"E4","ticks":271200,"time":141.25,"velocity":1},{"duration":0.25,"durationTicks":480,"midi":48,"name":"C3","ticks":271680,"time":141.5,"velocity":1},{"duration":0.25,"durationTicks":480,"midi":52,"name":"E3","ticks":271680,"time":141.5,"velocity":1},{"duration":0.25,"durationTicks":480,"midi":55,"name":"G3","ticks":271680,"time":141.5,"velocity":1},{"duration":0.25,"durationTicks":480,"midi":60,"name":"C4","ticks":271680,"time":141.5,"velocity":1},{"duration":0.25,"durationTicks":480,"midi":64,"name":"E4","ticks":271680,"time":141.5,"velocity":1},{"duration":0.25,"durationTicks":480,"midi":48,"name":"C3","ticks":272160,"time":141.75,"velocity":1},{"duration":0.25,"durationTicks":480,"midi":52,"name":"E3","ticks":272160,"time":141.75,"velocity":1},{"duration":0.25,"durationTicks":480,"midi":55,"name":"G3","ticks":272160,"time":141.75,"velocity":1},{"duration":0.25,"durationTicks":480,"midi":60,"name":"C4","ticks":272160,"time":141.75,"velocity":1},{"duration":0.25,"durationTicks":480,"midi":64,"name":"E4","ticks":272160,"time":141.75,"velocity":1},{"duration":0.25,"durationTicks":480,"midi":46,"name":"A#2","ticks":272640,"time":142,"velocity":1},{"duration":0.25,"durationTicks":480,"midi":53,"name":"F3","ticks":272640,"time":142,"velocity":1},{"duration":0.25,"durationTicks":480,"midi":58,"name":"A#3","ticks":272640,"time":142,"velocity":1},{"duration":0.25,"durationTicks":480,"midi":62,"name":"D4","ticks":272640,"time":142,"velocity":1},{"duration":0.25,"durationTicks":480,"midi":46,"name":"A#2","ticks":273120,"time":142.25,"velocity":1},{"duration":0.25,"durationTicks":480,"midi":53,"name":"F3","ticks":273120,"time":142.25,"velocity":1},{"duration":0.25,"durationTicks":480,"midi":58,"name":"A#3","ticks":273120,"time":142.25,"velocity":1},{"duration":0.25,"durationTicks":480,"midi":62,"name":"D4","ticks":273120,"time":142.25,"velocity":1},{"duration":0.25,"durationTicks":480,"midi":46,"name":"A#2","ticks":273600,"time":142.5,"velocity":1},{"duration":0.25,"durationTicks":480,"midi":53,"name":"F3","ticks":273600,"time":142.5,"velocity":1},{"duration":0.25,"durationTicks":480,"midi":58,"name":"A#3","ticks":273600,"time":142.5,"velocity":1},{"duration":0.25,"durationTicks":480,"midi":62,"name":"D4","ticks":273600,"time":142.5,"velocity":1},{"duration":0.25,"durationTicks":480,"midi":46,"name":"A#2","ticks":274080,"time":142.75,"velocity":1},{"duration":0.25,"durationTicks":480,"midi":53,"name":"F3","ticks":274080,"time":142.75,"velocity":1},{"duration":0.25,"durationTicks":480,"midi":58,"name":"A#3","ticks":274080,"time":142.75,"velocity":1},{"duration":0.25,"durationTicks":480,"midi":62,"name":"D4","ticks":274080,"time":142.75,"velocity":1},{"duration":0.25,"durationTicks":480,"midi":65,"name":"F4","ticks":274560,"time":143,"velocity":1},{"duration":0.25,"durationTicks":480,"midi":60,"name":"C4","ticks":274560,"time":143,"velocity":1},{"duration":0.25,"durationTicks":480,"midi":57,"name":"A3","ticks":274560,"time":143,"velocity":1},{"duration":0.25,"durationTicks":480,"midi":53,"name":"F3","ticks":274560,"time":143,"velocity":1},{"duration":0.25,"durationTicks":480,"midi":48,"name":"C3","ticks":274560,"time":143,"velocity":1},{"duration":0.25,"durationTicks":480,"midi":41,"name":"F2","ticks":274560,"time":143,"velocity":1},{"duration":0.25,"durationTicks":480,"midi":41,"name":"F2","ticks":275040,"time":143.25,"velocity":1},{"duration":0.25,"durationTicks":480,"midi":48,"name":"C3","ticks":275040,"time":143.25,"velocity":1},{"duration":0.25,"durationTicks":480,"midi":53,"name":"F3","ticks":275040,"time":143.25,"velocity":1},{"duration":0.25,"durationTicks":480,"midi":57,"name":"A3","ticks":275040,"time":143.25,"velocity":1},{"duration":0.25,"durationTicks":480,"midi":60,"name":"C4","ticks":275040,"time":143.25,"velocity":1},{"duration":0.25,"durationTicks":480,"midi":65,"name":"F4","ticks":275040,"time":143.25,"velocity":1},{"duration":0.25,"durationTicks":480,"midi":41,"name":"F2","ticks":275520,"time":143.5,"velocity":1},{"duration":0.25,"durationTicks":480,"midi":48,"name":"C3","ticks":275520,"time":143.5,"velocity":1},{"duration":0.25,"durationTicks":480,"midi":53,"name":"F3","ticks":275520,"time":143.5,"velocity":1},{"duration":0.25,"durationTicks":480,"midi":57,"name":"A3","ticks":275520,"time":143.5,"velocity":1},{"duration":0.25,"durationTicks":480,"midi":60,"name":"C4","ticks":275520,"time":143.5,"velocity":1},{"duration":0.25,"durationTicks":480,"midi":65,"name":"F4","ticks":275520,"time":143.5,"velocity":1},{"duration":0.25,"durationTicks":480,"midi":41,"name":"F2","ticks":276000,"time":143.75,"velocity":1},{"duration":0.25,"durationTicks":480,"midi":48,"name":"C3","ticks":276000,"time":143.75,"velocity":1},{"duration":0.25,"durationTicks":480,"midi":53,"name":"F3","ticks":276000,"time":143.75,"velocity":1},{"duration":0.25,"durationTicks":480,"midi":57,"name":"A3","ticks":276000,"time":143.75,"velocity":1},{"duration":0.25,"durationTicks":480,"midi":60,"name":"C4","ticks":276000,"time":143.75,"velocity":1},{"duration":0.25,"durationTicks":480,"midi":65,"name":"F4","ticks":276000,"time":143.75,"velocity":1},{"duration":0.5,"durationTicks":960,"midi":43,"name":"G2","ticks":276480,"time":144,"velocity":1},{"duration":0.5,"durationTicks":960,"midi":55,"name":"G3","ticks":276480,"time":144,"velocity":1},{"duration":0.5,"durationTicks":960,"midi":58,"name":"A#3","ticks":276480,"time":144,"velocity":1},{"duration":0.5,"durationTicks":960,"midi":62,"name":"D4","ticks":276480,"time":144,"velocity":1},{"duration":0.5,"durationTicks":960,"midi":67,"name":"G4","ticks":276480,"time":144,"velocity":1},{"duration":0.75,"durationTicks":1440,"midi":50,"name":"D3","ticks":276480,"time":144,"velocity":1},{"duration":0.25,"durationTicks":480,"midi":67,"name":"G4","ticks":277440,"time":144.5,"velocity":1},{"duration":0.25,"durationTicks":480,"midi":62,"name":"D4","ticks":277440,"time":144.5,"velocity":1},{"duration":0.25,"durationTicks":480,"midi":58,"name":"A#3","ticks":277440,"time":144.5,"velocity":1},{"duration":0.25,"durationTicks":480,"midi":55,"name":"G3","ticks":277440,"time":144.5,"velocity":1},{"duration":0.25,"durationTicks":480,"midi":43,"name":"G2","ticks":277440,"time":144.5,"velocity":1},{"duration":0.5,"durationTicks":960,"midi":50,"name":"D3","ticks":277440,"time":144.5,"velocity":1},{"duration":0.25,"durationTicks":480,"midi":67,"name":"G4","ticks":277920,"time":144.75,"velocity":1},{"duration":0.25,"durationTicks":480,"midi":62,"name":"D4","ticks":277920,"time":144.75,"velocity":1},{"duration":0.25,"durationTicks":480,"midi":58,"name":"A#3","ticks":277920,"time":144.75,"velocity":1},{"duration":0.25,"durationTicks":480,"midi":55,"name":"G3","ticks":277920,"time":144.75,"velocity":1},{"duration":0.25,"durationTicks":480,"midi":43,"name":"G2","ticks":277920,"time":144.75,"velocity":1},{"duration":2.75,"durationTicks":5280,"midi":50,"name":"D3","ticks":277920,"time":144.75,"velocity":1},{"duration":0.5,"durationTicks":960,"midi":48,"name":"C3","ticks":278400,"time":145,"velocity":1},{"duration":0.5,"durationTicks":960,"midi":52,"name":"E3","ticks":278400,"time":145,"velocity":1},{"duration":0.5,"durationTicks":960,"midi":55,"name":"G3","ticks":278400,"time":145,"velocity":1},{"duration":0.5,"durationTicks":960,"midi":60,"name":"C4","ticks":278400,"time":145,"velocity":1},{"duration":0.5,"durationTicks":960,"midi":64,"name":"E4","ticks":278400,"time":145,"velocity":1},{"duration":0.25,"durationTicks":480,"midi":64,"name":"E4","ticks":279360,"time":145.5,"velocity":1},{"duration":0.25,"durationTicks":480,"midi":60,"name":"C4","ticks":279360,"time":145.5,"velocity":1},{"duration":0.25,"durationTicks":480,"midi":55,"name":"G3","ticks":279360,"time":145.5,"velocity":1},{"duration":0.25,"durationTicks":480,"midi":52,"name":"E3","ticks":279360,"time":145.5,"velocity":1},{"duration":0.25,"durationTicks":480,"midi":48,"name":"C3","ticks":279360,"time":145.5,"velocity":1},{"duration":0.25,"durationTicks":480,"midi":64,"name":"E4","ticks":279840,"time":145.75,"velocity":1},{"duration":0.25,"durationTicks":480,"midi":60,"name":"C4","ticks":279840,"time":145.75,"velocity":1},{"duration":0.25,"durationTicks":480,"midi":55,"name":"G3","ticks":279840,"time":145.75,"velocity":1},{"duration":0.25,"durationTicks":480,"midi":52,"name":"E3","ticks":279840,"time":145.75,"velocity":1},{"duration":0.25,"durationTicks":480,"midi":48,"name":"C3","ticks":279840,"time":145.75,"velocity":1},{"duration":0.5,"durationTicks":960,"midi":41,"name":"F2","ticks":280320,"time":146,"velocity":1},{"duration":0.5,"durationTicks":960,"midi":48,"name":"C3","ticks":280320,"time":146,"velocity":1},{"duration":0.5,"durationTicks":960,"midi":53,"name":"F3","ticks":280320,"time":146,"velocity":1},{"duration":0.5,"durationTicks":960,"midi":57,"name":"A3","ticks":280320,"time":146,"velocity":1},{"duration":0.5,"durationTicks":960,"midi":60,"name":"C4","ticks":280320,"time":146,"velocity":1},{"duration":0.5,"durationTicks":960,"midi":65,"name":"F4","ticks":280320,"time":146,"velocity":1},{"duration":0.25,"durationTicks":480,"midi":65,"name":"F4","ticks":281280,"time":146.5,"velocity":1},{"duration":0.25,"durationTicks":480,"midi":60,"name":"C4","ticks":281280,"time":146.5,"velocity":1},{"duration":0.25,"durationTicks":480,"midi":57,"name":"A3","ticks":281280,"time":146.5,"velocity":1},{"duration":0.25,"durationTicks":480,"midi":53,"name":"F3","ticks":281280,"time":146.5,"velocity":1},{"duration":0.25,"durationTicks":480,"midi":48,"name":"C3","ticks":281280,"time":146.5,"velocity":1},{"duration":0.25,"durationTicks":480,"midi":41,"name":"F2","ticks":281280,"time":146.5,"velocity":1},{"duration":0.25,"durationTicks":480,"midi":65,"name":"F4","ticks":281760,"time":146.75,"velocity":1},{"duration":0.25,"durationTicks":480,"midi":60,"name":"C4","ticks":281760,"time":146.75,"velocity":1},{"duration":0.25,"durationTicks":480,"midi":57,"name":"A3","ticks":281760,"time":146.75,"velocity":1},{"duration":0.25,"durationTicks":480,"midi":53,"name":"F3","ticks":281760,"time":146.75,"velocity":1},{"duration":0.25,"durationTicks":480,"midi":48,"name":"C3","ticks":281760,"time":146.75,"velocity":1},{"duration":0.25,"durationTicks":480,"midi":41,"name":"F2","ticks":281760,"time":146.75,"velocity":1},{"duration":0.5,"durationTicks":960,"midi":57,"name":"A3","ticks":282240,"time":147,"velocity":1},{"duration":0.5,"durationTicks":960,"midi":62,"name":"D4","ticks":282240,"time":147,"velocity":1},{"duration":0.5,"durationTicks":960,"midi":65,"name":"F4","ticks":282240,"time":147,"velocity":1},{"duration":0.75,"durationTicks":1440,"midi":50,"name":"D3","ticks":282240,"time":147,"velocity":1},{"duration":0.25,"durationTicks":480,"midi":65,"name":"F4","ticks":283200,"time":147.5,"velocity":1},{"duration":0.25,"durationTicks":480,"midi":62,"name":"D4","ticks":283200,"time":147.5,"velocity":1},{"duration":0.25,"durationTicks":480,"midi":57,"name":"A3","ticks":283200,"time":147.5,"velocity":1},{"duration":0.5,"durationTicks":960,"midi":50,"name":"D3","ticks":283200,"time":147.5,"velocity":1},{"duration":0.25,"durationTicks":480,"midi":65,"name":"F4","ticks":283680,"time":147.75,"velocity":1},{"duration":0.25,"durationTicks":480,"midi":62,"name":"D4","ticks":283680,"time":147.75,"velocity":1},{"duration":0.25,"durationTicks":480,"midi":57,"name":"A3","ticks":283680,"time":147.75,"velocity":1},{"duration":2.75,"durationTicks":5280,"midi":50,"name":"D3","ticks":283680,"time":147.75,"velocity":1},{"duration":0.5,"durationTicks":960,"midi":62,"name":"D4","ticks":284160,"time":148,"velocity":1},{"duration":0.5,"durationTicks":960,"midi":46,"name":"A#2","ticks":284160,"time":148,"velocity":1},{"duration":0.5,"durationTicks":960,"midi":53,"name":"F3","ticks":284160,"time":148,"velocity":1},{"duration":0.5,"durationTicks":960,"midi":58,"name":"A#3","ticks":284160,"time":148,"velocity":1},{"duration":0.25,"durationTicks":480,"midi":62,"name":"D4","ticks":285120,"time":148.5,"velocity":1},{"duration":0.25,"durationTicks":480,"midi":58,"name":"A#3","ticks":285120,"time":148.5,"velocity":1},{"duration":0.25,"durationTicks":480,"midi":53,"name":"F3","ticks":285120,"time":148.5,"velocity":1},{"duration":0.25,"durationTicks":480,"midi":46,"name":"A#2","ticks":285120,"time":148.5,"velocity":1},{"duration":0.25,"durationTicks":480,"midi":62,"name":"D4","ticks":285600,"time":148.75,"velocity":1},{"duration":0.25,"durationTicks":480,"midi":58,"name":"A#3","ticks":285600,"time":148.75,"velocity":1},{"duration":0.25,"durationTicks":480,"midi":53,"name":"F3","ticks":285600,"time":148.75,"velocity":1},{"duration":0.25,"durationTicks":480,"midi":46,"name":"A#2","ticks":285600,"time":148.75,"velocity":1},{"duration":0.5,"durationTicks":960,"midi":61,"name":"C#4","ticks":286080,"time":149,"velocity":1},{"duration":0.5,"durationTicks":960,"midi":45,"name":"A2","ticks":286080,"time":149,"velocity":1},{"duration":0.5,"durationTicks":960,"midi":52,"name":"E3","ticks":286080,"time":149,"velocity":1},{"duration":0.5,"durationTicks":960,"midi":57,"name":"A3","ticks":286080,"time":149,"velocity":1},{"duration":0.25,"durationTicks":480,"midi":45,"name":"A2","ticks":287040,"time":149.5,"velocity":1},{"duration":0.25,"durationTicks":480,"midi":52,"name":"E3","ticks":287040,"time":149.5,"velocity":1},{"duration":0.25,"durationTicks":480,"midi":57,"name":"A3","ticks":287040,"time":149.5,"velocity":1},{"duration":0.25,"durationTicks":480,"midi":61,"name":"C#4","ticks":287040,"time":149.5,"velocity":1},{"duration":0.25,"durationTicks":480,"midi":45,"name":"A2","ticks":287520,"time":149.75,"velocity":1},{"duration":0.25,"durationTicks":480,"midi":52,"name":"E3","ticks":287520,"time":149.75,"velocity":1},{"duration":0.25,"durationTicks":480,"midi":57,"name":"A3","ticks":287520,"time":149.75,"velocity":1},{"duration":0.25,"durationTicks":480,"midi":61,"name":"C#4","ticks":287520,"time":149.75,"velocity":1},{"duration":1.25,"durationTicks":2400,"midi":50,"name":"D3","ticks":288000,"time":150,"velocity":1},{"duration":0.75,"durationTicks":1440,"midi":54,"name":"F#3","ticks":288960,"time":150.5,"velocity":1},{"duration":0.75,"durationTicks":1440,"midi":57,"name":"A3","ticks":288960,"time":150.5,"velocity":1},{"duration":0.75,"durationTicks":1440,"midi":62,"name":"D4","ticks":288960,"time":150.5,"velocity":1},{"duration":0.75,"durationTicks":1440,"midi":66,"name":"F#4","ticks":288960,"time":150.5,"velocity":1},{"duration":1.5,"durationTicks":2880,"midi":50,"name":"D3","ticks":288960,"time":150.5,"velocity":1},{"duration":0.25,"durationTicks":480,"midi":55,"name":"G3","ticks":290400,"time":151.25,"velocity":1},{"duration":0.25,"durationTicks":480,"midi":62,"name":"D4","ticks":290400,"time":151.25,"velocity":1},{"duration":0.25,"durationTicks":480,"midi":67,"name":"G4","ticks":290400,"time":151.25,"velocity":1},{"duration":0.25,"durationTicks":480,"midi":54,"name":"F#3","ticks":290880,"time":151.5,"velocity":1},{"duration":0.25,"durationTicks":480,"midi":62,"name":"D4","ticks":290880,"time":151.5,"velocity":1},{"duration":0.25,"durationTicks":480,"midi":66,"name":"F#4","ticks":290880,"time":151.5,"velocity":1},{"duration":0.25,"durationTicks":480,"midi":57,"name":"A3","ticks":291360,"time":151.75,"velocity":1},{"duration":0.25,"durationTicks":480,"midi":62,"name":"D4","ticks":291360,"time":151.75,"velocity":1},{"duration":0.5,"durationTicks":960,"midi":50,"name":"D3","ticks":291840,"time":152,"velocity":1},{"duration":1.25,"durationTicks":2400,"midi":50,"name":"D3","ticks":291840,"time":152,"velocity":1},{"duration":0.75,"durationTicks":1440,"midi":54,"name":"F#3","ticks":292800,"time":152.5,"velocity":1},{"duration":0.75,"durationTicks":1440,"midi":57,"name":"A3","ticks":292800,"time":152.5,"velocity":1},{"duration":0.75,"durationTicks":1440,"midi":62,"name":"D4","ticks":292800,"time":152.5,"velocity":1},{"duration":0.75,"durationTicks":1440,"midi":66,"name":"F#4","ticks":292800,"time":152.5,"velocity":1},{"duration":1.5,"durationTicks":2880,"midi":50,"name":"D3","ticks":292800,"time":152.5,"velocity":1},{"duration":0.25,"durationTicks":480,"midi":55,"name":"G3","ticks":294240,"time":153.25,"velocity":1},{"duration":0.25,"durationTicks":480,"midi":62,"name":"D4","ticks":294240,"time":153.25,"velocity":1},{"duration":0.25,"durationTicks":480,"midi":67,"name":"G4","ticks":294240,"time":153.25,"velocity":1},{"duration":0.25,"durationTicks":480,"midi":54,"name":"F#3","ticks":294720,"time":153.5,"velocity":1},{"duration":0.25,"durationTicks":480,"midi":62,"name":"D4","ticks":294720,"time":153.5,"velocity":1},{"duration":0.25,"durationTicks":480,"midi":66,"name":"F#4","ticks":294720,"time":153.5,"velocity":1},{"duration":0.25,"durationTicks":480,"midi":57,"name":"A3","ticks":295200,"time":153.75,"velocity":1},{"duration":0.25,"durationTicks":480,"midi":62,"name":"D4","ticks":295200,"time":153.75,"velocity":1},{"duration":0.75,"durationTicks":1440,"midi":50,"name":"D3","ticks":295200,"time":153.75,"velocity":1},{"duration":1.25,"durationTicks":2400,"midi":50,"name":"D3","ticks":295680,"time":154,"velocity":1},{"duration":0.75,"durationTicks":1440,"midi":54,"name":"F#3","ticks":296640,"time":154.5,"velocity":1},{"duration":0.75,"durationTicks":1440,"midi":57,"name":"A3","ticks":296640,"time":154.5,"velocity":1},{"duration":0.75,"durationTicks":1440,"midi":62,"name":"D4","ticks":296640,"time":154.5,"velocity":1},{"duration":0.75,"durationTicks":1440,"midi":66,"name":"F#4","ticks":296640,"time":154.5,"velocity":1},{"duration":1.5,"durationTicks":2880,"midi":50,"name":"D3","ticks":296640,"time":154.5,"velocity":1},{"duration":0.25,"durationTicks":480,"midi":55,"name":"G3","ticks":298080,"time":155.25,"velocity":1},{"duration":0.25,"durationTicks":480,"midi":62,"name":"D4","ticks":298080,"time":155.25,"velocity":1},{"duration":0.25,"durationTicks":480,"midi":67,"name":"G4","ticks":298080,"time":155.25,"velocity":1},{"duration":0.25,"durationTicks":480,"midi":54,"name":"F#3","ticks":298560,"time":155.5,"velocity":1},{"duration":0.25,"durationTicks":480,"midi":62,"name":"D4","ticks":298560,"time":155.5,"velocity":1},{"duration":0.25,"durationTicks":480,"midi":66,"name":"F#4","ticks":298560,"time":155.5,"velocity":1},{"duration":0.25,"durationTicks":480,"midi":57,"name":"A3","ticks":299040,"time":155.75,"velocity":1},{"duration":0.25,"durationTicks":480,"midi":62,"name":"D4","ticks":299040,"time":155.75,"velocity":1},{"duration":0.5,"durationTicks":960,"midi":50,"name":"D3","ticks":299520,"time":156,"velocity":1},{"duration":1.25,"durationTicks":2400,"midi":50,"name":"D3","ticks":299520,"time":156,"velocity":1},{"duration":0.75,"durationTicks":1440,"midi":54,"name":"F#3","ticks":300480,"time":156.5,"velocity":1},{"duration":0.75,"durationTicks":1440,"midi":57,"name":"A3","ticks":300480,"time":156.5,"velocity":1},{"duration":0.75,"durationTicks":1440,"midi":62,"name":"D4","ticks":300480,"time":156.5,"velocity":1},{"duration":0.75,"durationTicks":1440,"midi":66,"name":"F#4","ticks":300480,"time":156.5,"velocity":1},{"duration":1.5,"durationTicks":2880,"midi":50,"name":"D3","ticks":300480,"time":156.5,"velocity":1},{"duration":0.25,"durationTicks":480,"midi":55,"name":"G3","ticks":301920,"time":157.25,"velocity":1},{"duration":0.25,"durationTicks":480,"midi":62,"name":"D4","ticks":301920,"time":157.25,"velocity":1},{"duration":0.25,"durationTicks":480,"midi":67,"name":"G4","ticks":301920,"time":157.25,"velocity":1},{"duration":0.25,"durationTicks":480,"midi":54,"name":"F#3","ticks":302400,"time":157.5,"velocity":1},{"duration":0.25,"durationTicks":480,"midi":62,"name":"D4","ticks":302400,"time":157.5,"velocity":1},{"duration":0.25,"durationTicks":480,"midi":66,"name":"F#4","ticks":302400,"time":157.5,"velocity":1},{"duration":0.25,"durationTicks":480,"midi":57,"name":"A3","ticks":302880,"time":157.75,"velocity":1},{"duration":0.25,"durationTicks":480,"midi":62,"name":"D4","ticks":302880,"time":157.75,"velocity":1},{"duration":0.75,"durationTicks":1440,"midi":50,"name":"D3","ticks":302880,"time":157.75,"velocity":1},{"duration":1.25,"durationTicks":2400,"midi":50,"name":"D3","ticks":303360,"time":158,"velocity":1},{"duration":0.75,"durationTicks":1440,"midi":54,"name":"F#3","ticks":304320,"time":158.5,"velocity":1},{"duration":0.75,"durationTicks":1440,"midi":57,"name":"A3","ticks":304320,"time":158.5,"velocity":1},{"duration":0.75,"durationTicks":1440,"midi":62,"name":"D4","ticks":304320,"time":158.5,"velocity":1},{"duration":0.75,"durationTicks":1440,"midi":66,"name":"F#4","ticks":304320,"time":158.5,"velocity":1},{"duration":1.5,"durationTicks":2880,"midi":50,"name":"D3","ticks":304320,"time":158.5,"velocity":1},{"duration":0.25,"durationTicks":480,"midi":55,"name":"G3","ticks":305760,"time":159.25,"velocity":1},{"duration":0.25,"durationTicks":480,"midi":62,"name":"D4","ticks":305760,"time":159.25,"velocity":1},{"duration":0.25,"durationTicks":480,"midi":67,"name":"G4","ticks":305760,"time":159.25,"velocity":1},{"duration":0.25,"durationTicks":480,"midi":54,"name":"F#3","ticks":306240,"time":159.5,"velocity":1},{"duration":0.25,"durationTicks":480,"midi":62,"name":"D4","ticks":306240,"time":159.5,"velocity":1},{"duration":0.25,"durationTicks":480,"midi":66,"name":"F#4","ticks":306240,"time":159.5,"velocity":1},{"duration":0.25,"durationTicks":480,"midi":57,"name":"A3","ticks":306720,"time":159.75,"velocity":1},{"duration":0.25,"durationTicks":480,"midi":62,"name":"D4","ticks":306720,"time":159.75,"velocity":1},{"duration":0.5,"durationTicks":960,"midi":50,"name":"D3","ticks":307200,"time":160,"velocity":1},{"duration":1.25,"durationTicks":2400,"midi":50,"name":"D3","ticks":307200,"time":160,"velocity":1},{"duration":0.75,"durationTicks":1440,"midi":54,"name":"F#3","ticks":308160,"time":160.5,"velocity":1},{"duration":0.75,"durationTicks":1440,"midi":57,"name":"A3","ticks":308160,"time":160.5,"velocity":1},{"duration":0.75,"durationTicks":1440,"midi":62,"name":"D4","ticks":308160,"time":160.5,"velocity":1},{"duration":0.75,"durationTicks":1440,"midi":66,"name":"F#4","ticks":308160,"time":160.5,"velocity":1},{"duration":1.5,"durationTicks":2880,"midi":50,"name":"D3","ticks":308160,"time":160.5,"velocity":1},{"duration":0.25,"durationTicks":480,"midi":55,"name":"G3","ticks":309600,"time":161.25,"velocity":1},{"duration":0.25,"durationTicks":480,"midi":62,"name":"D4","ticks":309600,"time":161.25,"velocity":1},{"duration":0.25,"durationTicks":480,"midi":67,"name":"G4","ticks":309600,"time":161.25,"velocity":1},{"duration":0.25,"durationTicks":480,"midi":54,"name":"F#3","ticks":310080,"time":161.5,"velocity":1},{"duration":0.25,"durationTicks":480,"midi":62,"name":"D4","ticks":310080,"time":161.5,"velocity":1},{"duration":0.25,"durationTicks":480,"midi":66,"name":"F#4","ticks":310080,"time":161.5,"velocity":1},{"duration":0.25,"durationTicks":480,"midi":57,"name":"A3","ticks":310560,"time":161.75,"velocity":1},{"duration":0.25,"durationTicks":480,"midi":62,"name":"D4","ticks":310560,"time":161.75,"velocity":1},{"duration":0.75,"durationTicks":1440,"midi":50,"name":"D3","ticks":310560,"time":161.75,"velocity":1},{"duration":1.25,"durationTicks":2400,"midi":50,"name":"D3","ticks":311040,"time":162,"velocity":1},{"duration":0.75,"durationTicks":1440,"midi":54,"name":"F#3","ticks":312000,"time":162.5,"velocity":1},{"duration":0.75,"durationTicks":1440,"midi":57,"name":"A3","ticks":312000,"time":162.5,"velocity":1},{"duration":0.75,"durationTicks":1440,"midi":62,"name":"D4","ticks":312000,"time":162.5,"velocity":1},{"duration":0.75,"durationTicks":1440,"midi":66,"name":"F#4","ticks":312000,"time":162.5,"velocity":1},{"duration":1.5,"durationTicks":2880,"midi":50,"name":"D3","ticks":312000,"time":162.5,"velocity":1},{"duration":0.25,"durationTicks":480,"midi":55,"name":"G3","ticks":313440,"time":163.25,"velocity":1},{"duration":0.25,"durationTicks":480,"midi":62,"name":"D4","ticks":313440,"time":163.25,"velocity":1},{"duration":0.25,"durationTicks":480,"midi":67,"name":"G4","ticks":313440,"time":163.25,"velocity":1},{"duration":0.25,"durationTicks":480,"midi":54,"name":"F#3","ticks":313920,"time":163.5,"velocity":1},{"duration":0.25,"durationTicks":480,"midi":62,"name":"D4","ticks":313920,"time":163.5,"velocity":1},{"duration":0.25,"durationTicks":480,"midi":66,"name":"F#4","ticks":313920,"time":163.5,"velocity":1},{"duration":0.25,"durationTicks":480,"midi":57,"name":"A3","ticks":314400,"time":163.75,"velocity":1},{"duration":0.25,"durationTicks":480,"midi":62,"name":"D4","ticks":314400,"time":163.75,"velocity":1},{"duration":0.5,"durationTicks":960,"midi":50,"name":"D3","ticks":314880,"time":164,"velocity":1},{"duration":1.25,"durationTicks":2400,"midi":50,"name":"D3","ticks":314880,"time":164,"velocity":1},{"duration":0.75,"durationTicks":1440,"midi":54,"name":"F#3","ticks":315840,"time":164.5,"velocity":1},{"duration":0.75,"durationTicks":1440,"midi":57,"name":"A3","ticks":315840,"time":164.5,"velocity":1},{"duration":0.75,"durationTicks":1440,"midi":62,"name":"D4","ticks":315840,"time":164.5,"velocity":1},{"duration":0.75,"durationTicks":1440,"midi":66,"name":"F#4","ticks":315840,"time":164.5,"velocity":1},{"duration":1.5,"durationTicks":2880,"midi":50,"name":"D3","ticks":315840,"time":164.5,"velocity":1},{"duration":0.25,"durationTicks":480,"midi":55,"name":"G3","ticks":317280,"time":165.25,"velocity":1},{"duration":0.25,"durationTicks":480,"midi":62,"name":"D4","ticks":317280,"time":165.25,"velocity":1},{"duration":0.25,"durationTicks":480,"midi":67,"name":"G4","ticks":317280,"time":165.25,"velocity":1},{"duration":0.25,"durationTicks":480,"midi":54,"name":"F#3","ticks":317760,"time":165.5,"velocity":1},{"duration":0.25,"durationTicks":480,"midi":62,"name":"D4","ticks":317760,"time":165.5,"velocity":1},{"duration":0.25,"durationTicks":480,"midi":66,"name":"F#4","ticks":317760,"time":165.5,"velocity":1},{"duration":0.25,"durationTicks":480,"midi":57,"name":"A3","ticks":318240,"time":165.75,"velocity":1},{"duration":0.25,"durationTicks":480,"midi":62,"name":"D4","ticks":318240,"time":165.75,"velocity":1},{"duration":0.75,"durationTicks":1440,"midi":50,"name":"D3","ticks":318240,"time":165.75,"velocity":1},{"duration":1.25,"durationTicks":2400,"midi":50,"name":"D3","ticks":318720,"time":166,"velocity":1},{"duration":0.75,"durationTicks":1440,"midi":54,"name":"F#3","ticks":319680,"time":166.5,"velocity":1},{"duration":0.75,"durationTicks":1440,"midi":57,"name":"A3","ticks":319680,"time":166.5,"velocity":1},{"duration":0.75,"durationTicks":1440,"midi":62,"name":"D4","ticks":319680,"time":166.5,"velocity":1},{"duration":0.75,"durationTicks":1440,"midi":66,"name":"F#4","ticks":319680,"time":166.5,"velocity":1},{"duration":1.5,"durationTicks":2880,"midi":50,"name":"D3","ticks":319680,"time":166.5,"velocity":1},{"duration":0.25,"durationTicks":480,"midi":55,"name":"G3","ticks":321120,"time":167.25,"velocity":1},{"duration":0.25,"durationTicks":480,"midi":62,"name":"D4","ticks":321120,"time":167.25,"velocity":1},{"duration":0.25,"durationTicks":480,"midi":67,"name":"G4","ticks":321120,"time":167.25,"velocity":1},{"duration":0.25,"durationTicks":480,"midi":54,"name":"F#3","ticks":321600,"time":167.5,"velocity":1},{"duration":0.25,"durationTicks":480,"midi":62,"name":"D4","ticks":321600,"time":167.5,"velocity":1},{"duration":0.25,"durationTicks":480,"midi":66,"name":"F#4","ticks":321600,"time":167.5,"velocity":1},{"duration":0.25,"durationTicks":480,"midi":57,"name":"A3","ticks":322080,"time":167.75,"velocity":1},{"duration":0.25,"durationTicks":480,"midi":62,"name":"D4","ticks":322080,"time":167.75,"velocity":1},{"duration":0.5,"durationTicks":960,"midi":50,"name":"D3","ticks":322560,"time":168,"velocity":1},{"duration":1.25,"durationTicks":2400,"midi":50,"name":"D3","ticks":322560,"time":168,"velocity":1},{"duration":0.75,"durationTicks":1440,"midi":54,"name":"F#3","ticks":323520,"time":168.5,"velocity":1},{"duration":0.75,"durationTicks":1440,"midi":57,"name":"A3","ticks":323520,"time":168.5,"velocity":1},{"duration":0.75,"durationTicks":1440,"midi":62,"name":"D4","ticks":323520,"time":168.5,"velocity":1},{"duration":0.75,"durationTicks":1440,"midi":66,"name":"F#4","ticks":323520,"time":168.5,"velocity":1},{"duration":1.5,"durationTicks":2880,"midi":50,"name":"D3","ticks":323520,"time":168.5,"velocity":1},{"duration":0.25,"durationTicks":480,"midi":55,"name":"G3","ticks":324960,"time":169.25,"velocity":1},{"duration":0.25,"durationTicks":480,"midi":62,"name":"D4","ticks":324960,"time":169.25,"velocity":1},{"duration":0.25,"durationTicks":480,"midi":67,"name":"G4","ticks":324960,"time":169.25,"velocity":1},{"duration":0.25,"durationTicks":480,"midi":54,"name":"F#3","ticks":325440,"time":169.5,"velocity":1},{"duration":0.25,"durationTicks":480,"midi":62,"name":"D4","ticks":325440,"time":169.5,"velocity":1},{"duration":0.25,"durationTicks":480,"midi":66,"name":"F#4","ticks":325440,"time":169.5,"velocity":1},{"duration":0.25,"durationTicks":480,"midi":57,"name":"A3","ticks":325920,"time":169.75,"velocity":1},{"duration":0.25,"durationTicks":480,"midi":62,"name":"D4","ticks":325920,"time":169.75,"velocity":1},{"duration":0.75,"durationTicks":1440,"midi":50,"name":"D3","ticks":325920,"time":169.75,"velocity":1},{"duration":1.25,"durationTicks":2400,"midi":50,"name":"D3","ticks":326400,"time":170,"velocity":1},{"duration":0.75,"durationTicks":1440,"midi":54,"name":"F#3","ticks":327360,"time":170.5,"velocity":1},{"duration":0.75,"durationTicks":1440,"midi":57,"name":"A3","ticks":327360,"time":170.5,"velocity":1},{"duration":0.75,"durationTicks":1440,"midi":62,"name":"D4","ticks":327360,"time":170.5,"velocity":1},{"duration":0.75,"durationTicks":1440,"midi":66,"name":"F#4","ticks":327360,"time":170.5,"velocity":1},{"duration":1.5,"durationTicks":2880,"midi":50,"name":"D3","ticks":327360,"time":170.5,"velocity":1},{"duration":0.25,"durationTicks":480,"midi":55,"name":"G3","ticks":328800,"time":171.25,"velocity":1},{"duration":0.25,"durationTicks":480,"midi":62,"name":"D4","ticks":328800,"time":171.25,"velocity":1},{"duration":0.25,"durationTicks":480,"midi":67,"name":"G4","ticks":328800,"time":171.25,"velocity":1},{"duration":0.25,"durationTicks":480,"midi":54,"name":"F#3","ticks":329280,"time":171.5,"velocity":1},{"duration":0.25,"durationTicks":480,"midi":62,"name":"D4","ticks":329280,"time":171.5,"velocity":1},{"duration":0.25,"durationTicks":480,"midi":66,"name":"F#4","ticks":329280,"time":171.5,"velocity":1},{"duration":0.25,"durationTicks":480,"midi":57,"name":"A3","ticks":329760,"time":171.75,"velocity":1},{"duration":0.25,"durationTicks":480,"midi":62,"name":"D4","ticks":329760,"time":171.75,"velocity":1},{"duration":0.5,"durationTicks":960,"midi":50,"name":"D3","ticks":330240,"time":172,"velocity":1},{"duration":1.25,"durationTicks":2400,"midi":50,"name":"D3","ticks":330240,"time":172,"velocity":1},{"duration":0.75,"durationTicks":1440,"midi":54,"name":"F#3","ticks":331200,"time":172.5,"velocity":1},{"duration":0.75,"durationTicks":1440,"midi":57,"name":"A3","ticks":331200,"time":172.5,"velocity":1},{"duration":0.75,"durationTicks":1440,"midi":62,"name":"D4","ticks":331200,"time":172.5,"velocity":1},{"duration":0.75,"durationTicks":1440,"midi":66,"name":"F#4","ticks":331200,"time":172.5,"velocity":1},{"duration":1.5,"durationTicks":2880,"midi":50,"name":"D3","ticks":331200,"time":172.5,"velocity":1},{"duration":0.25,"durationTicks":480,"midi":55,"name":"G3","ticks":332640,"time":173.25,"velocity":1},{"duration":0.25,"durationTicks":480,"midi":62,"name":"D4","ticks":332640,"time":173.25,"velocity":1},{"duration":0.25,"durationTicks":480,"midi":67,"name":"G4","ticks":332640,"time":173.25,"velocity":1},{"duration":0.25,"durationTicks":480,"midi":54,"name":"F#3","ticks":333120,"time":173.5,"velocity":1},{"duration":0.25,"durationTicks":480,"midi":62,"name":"D4","ticks":333120,"time":173.5,"velocity":1},{"duration":0.25,"durationTicks":480,"midi":66,"name":"F#4","ticks":333120,"time":173.5,"velocity":1},{"duration":0.25,"durationTicks":480,"midi":57,"name":"A3","ticks":333600,"time":173.75,"velocity":1},{"duration":0.25,"durationTicks":480,"midi":62,"name":"D4","ticks":333600,"time":173.75,"velocity":1}],"endOfTrackTicks":334080},{"channel":4,"controlChanges":{"7":[{"number":7,"ticks":0,"time":0,"value":0.8031496062992126}],"10":[{"number":10,"ticks":0,"time":0,"value":0.5039370078740157}]},"pitchBends":[],"instrument":{"family":"guitar","number":30,"name":"distortion guitar"},"name":"Guitar 4","notes":[{"duration":0.0625,"durationTicks":120,"midi":58,"name":"A#3","ticks":158400,"time":82.5,"velocity":1},{"duration":0.0625,"durationTicks":120,"midi":53,"name":"F3","ticks":158400,"time":82.5,"velocity":1},{"duration":0.0625,"durationTicks":120,"midi":58,"name":"A#3","ticks":158880,"time":82.75,"velocity":1},{"duration":0.0625,"durationTicks":120,"midi":53,"name":"F3","ticks":158880,"time":82.75,"velocity":1},{"duration":0.0625,"durationTicks":120,"midi":58,"name":"A#3","ticks":159360,"time":83,"velocity":1},{"duration":0.0625,"durationTicks":120,"midi":53,"name":"F3","ticks":159360,"time":83,"velocity":1},{"duration":0.0625,"durationTicks":120,"midi":58,"name":"A#3","ticks":159840,"time":83.25,"velocity":1},{"duration":0.0625,"durationTicks":120,"midi":53,"name":"F3","ticks":159840,"time":83.25,"velocity":1},{"duration":0.0625,"durationTicks":120,"midi":58,"name":"A#3","ticks":160320,"time":83.5,"velocity":1},{"duration":0.0625,"durationTicks":120,"midi":53,"name":"F3","ticks":160320,"time":83.5,"velocity":1},{"duration":0.0625,"durationTicks":120,"midi":58,"name":"A#3","ticks":160800,"time":83.75,"velocity":1},{"duration":0.0625,"durationTicks":120,"midi":53,"name":"F3","ticks":160800,"time":83.75,"velocity":1},{"duration":0.25,"durationTicks":480,"midi":40,"name":"E2","ticks":160800,"time":83.75,"velocity":1},{"duration":0.5,"durationTicks":960,"midi":48,"name":"C3","ticks":161280,"time":84,"velocity":1},{"duration":0.5,"durationTicks":960,"midi":41,"name":"F2","ticks":161280,"time":84,"velocity":1},{"duration":0.5,"durationTicks":960,"midi":53,"name":"F3","ticks":161280,"time":84,"velocity":1},{"duration":0.5,"durationTicks":960,"midi":57,"name":"A3","ticks":161280,"time":84,"velocity":1},{"duration":0.03125,"durationTicks":60,"midi":57,"name":"A3","ticks":162240,"time":84.5,"velocity":1},{"duration":0.0625,"durationTicks":120,"midi":41,"name":"F2","ticks":162240,"time":84.5,"velocity":1},{"duration":0.03125,"durationTicks":60,"midi":57,"name":"A3","ticks":162720,"time":84.75,"velocity":1},{"duration":0.25,"durationTicks":480,"midi":40,"name":"E2","ticks":162720,"time":84.75,"velocity":1},{"duration":0.5,"durationTicks":960,"midi":60,"name":"C4","ticks":163200,"time":85,"velocity":1},{"duration":0.5,"durationTicks":960,"midi":55,"name":"G3","ticks":163200,"time":85,"velocity":1},{"duration":0.5,"durationTicks":960,"midi":48,"name":"C3","ticks":163200,"time":85,"velocity":1},{"duration":0.5,"durationTicks":960,"midi":64,"name":"E4","ticks":163200,"time":85,"velocity":1},{"duration":0.03125,"durationTicks":60,"midi":64,"name":"E4","ticks":164160,"time":85.5,"velocity":1},{"duration":0.0625,"durationTicks":120,"midi":48,"name":"C3","ticks":164160,"time":85.5,"velocity":1},{"duration":0.03125,"durationTicks":60,"midi":64,"name":"E4","ticks":164640,"time":85.75,"velocity":1},{"duration":0.25,"durationTicks":480,"midi":45,"name":"A2","ticks":164640,"time":85.75,"velocity":1},{"duration":0.5,"durationTicks":960,"midi":46,"name":"A#2","ticks":165120,"time":86,"velocity":1},{"duration":0.5,"durationTicks":960,"midi":58,"name":"A#3","ticks":165120,"time":86,"velocity":1},{"duration":0.5,"durationTicks":960,"midi":53,"name":"F3","ticks":165120,"time":86,"velocity":1},{"duration":0.5,"durationTicks":960,"midi":62,"name":"D4","ticks":165120,"time":86,"velocity":1},{"duration":0.03125,"durationTicks":60,"midi":62,"name":"D4","ticks":166080,"time":86.5,"velocity":1},{"duration":0.0625,"durationTicks":120,"midi":46,"name":"A#2","ticks":166080,"time":86.5,"velocity":1},{"duration":0.03125,"durationTicks":60,"midi":62,"name":"D4","ticks":166560,"time":86.75,"velocity":1},{"duration":0.25,"durationTicks":480,"midi":40,"name":"E2","ticks":166560,"time":86.75,"velocity":1},{"duration":0.5,"durationTicks":960,"midi":48,"name":"C3","ticks":167040,"time":87,"velocity":1},{"duration":0.5,"durationTicks":960,"midi":41,"name":"F2","ticks":167040,"time":87,"velocity":1},{"duration":0.5,"durationTicks":960,"midi":53,"name":"F3","ticks":167040,"time":87,"velocity":1},{"duration":0.5,"durationTicks":960,"midi":57,"name":"A3","ticks":167040,"time":87,"velocity":1},{"duration":0.03125,"durationTicks":60,"midi":57,"name":"A3","ticks":168000,"time":87.5,"velocity":1},{"duration":0.0625,"durationTicks":120,"midi":41,"name":"F2","ticks":168000,"time":87.5,"velocity":1},{"duration":0.03125,"durationTicks":60,"midi":57,"name":"A3","ticks":168480,"time":87.75,"velocity":1},{"duration":0.0625,"durationTicks":120,"midi":41,"name":"F2","ticks":168480,"time":87.75,"velocity":1},{"duration":0.5,"durationTicks":960,"midi":48,"name":"C3","ticks":168960,"time":88,"velocity":1},{"duration":0.5,"durationTicks":960,"midi":41,"name":"F2","ticks":168960,"time":88,"velocity":1},{"duration":0.5,"durationTicks":960,"midi":53,"name":"F3","ticks":168960,"time":88,"velocity":1},{"duration":0.5,"durationTicks":960,"midi":57,"name":"A3","ticks":168960,"time":88,"velocity":1},{"duration":0.03125,"durationTicks":60,"midi":57,"name":"A3","ticks":169920,"time":88.5,"velocity":1},{"duration":0.0625,"durationTicks":120,"midi":41,"name":"F2","ticks":169920,"time":88.5,"velocity":1},{"duration":0.03125,"durationTicks":60,"midi":57,"name":"A3","ticks":170400,"time":88.75,"velocity":1},{"duration":0.25,"durationTicks":480,"midi":40,"name":"E2","ticks":170400,"time":88.75,"velocity":1},{"duration":0.5,"durationTicks":960,"midi":60,"name":"C4","ticks":170880,"time":89,"velocity":1},{"duration":0.5,"durationTicks":960,"midi":55,"name":"G3","ticks":170880,"time":89,"velocity":1},{"duration":0.5,"durationTicks":960,"midi":48,"name":"C3","ticks":170880,"time":89,"velocity":1},{"duration":0.5,"durationTicks":960,"midi":64,"name":"E4","ticks":170880,"time":89,"velocity":1},{"duration":0.03125,"durationTicks":60,"midi":64,"name":"E4","ticks":171840,"time":89.5,"velocity":1},{"duration":0.0625,"durationTicks":120,"midi":48,"name":"C3","ticks":171840,"time":89.5,"velocity":1},{"duration":0.03125,"durationTicks":60,"midi":64,"name":"E4","ticks":172320,"time":89.75,"velocity":1},{"duration":0.25,"durationTicks":480,"midi":45,"name":"A2","ticks":172320,"time":89.75,"velocity":1},{"duration":0.5,"durationTicks":960,"midi":46,"name":"A#2","ticks":172800,"time":90,"velocity":1},{"duration":0.5,"durationTicks":960,"midi":58,"name":"A#3","ticks":172800,"time":90,"velocity":1},{"duration":0.5,"durationTicks":960,"midi":53,"name":"F3","ticks":172800,"time":90,"velocity":1},{"duration":0.5,"durationTicks":960,"midi":62,"name":"D4","ticks":172800,"time":90,"velocity":1},{"duration":0.03125,"durationTicks":60,"midi":62,"name":"D4","ticks":173760,"time":90.5,"velocity":1},{"duration":0.0625,"durationTicks":120,"midi":46,"name":"A#2","ticks":173760,"time":90.5,"velocity":1},{"duration":0.03125,"durationTicks":60,"midi":62,"name":"D4","ticks":174240,"time":90.75,"velocity":1},{"duration":0.25,"durationTicks":480,"midi":40,"name":"E2","ticks":174240,"time":90.75,"velocity":1},{"duration":0.5,"durationTicks":960,"midi":48,"name":"C3","ticks":174720,"time":91,"velocity":1},{"duration":0.5,"durationTicks":960,"midi":41,"name":"F2","ticks":174720,"time":91,"velocity":1},{"duration":0.5,"durationTicks":960,"midi":53,"name":"F3","ticks":174720,"time":91,"velocity":1},{"duration":0.5,"durationTicks":960,"midi":57,"name":"A3","ticks":174720,"time":91,"velocity":1},{"duration":0.03125,"durationTicks":60,"midi":57,"name":"A3","ticks":175680,"time":91.5,"velocity":1},{"duration":0.0625,"durationTicks":120,"midi":41,"name":"F2","ticks":175680,"time":91.5,"velocity":1},{"duration":0.03125,"durationTicks":60,"midi":57,"name":"A3","ticks":176160,"time":91.75,"velocity":1},{"duration":0.0625,"durationTicks":120,"midi":41,"name":"F2","ticks":176160,"time":91.75,"velocity":1},{"duration":0.5,"durationTicks":960,"midi":55,"name":"G3","ticks":176640,"time":92,"velocity":1},{"duration":0.5,"durationTicks":960,"midi":43,"name":"G2","ticks":176640,"time":92,"velocity":1},{"duration":0.5,"durationTicks":960,"midi":50,"name":"D3","ticks":176640,"time":92,"velocity":1},{"duration":0.5,"durationTicks":960,"midi":58,"name":"A#3","ticks":176640,"time":92,"velocity":1},{"duration":0.5,"durationTicks":960,"midi":58,"name":"A#3","ticks":177600,"time":92.5,"velocity":1},{"duration":0.5,"durationTicks":960,"midi":55,"name":"G3","ticks":177600,"time":92.5,"velocity":1},{"duration":0.5,"durationTicks":960,"midi":50,"name":"D3","ticks":177600,"time":92.5,"velocity":1},{"duration":0.5,"durationTicks":960,"midi":43,"name":"G2","ticks":177600,"time":92.5,"velocity":1},{"duration":0.5,"durationTicks":960,"midi":60,"name":"C4","ticks":178560,"time":93,"velocity":1},{"duration":0.5,"durationTicks":960,"midi":48,"name":"C3","ticks":178560,"time":93,"velocity":1},{"duration":0.5,"durationTicks":960,"midi":55,"name":"G3","ticks":178560,"time":93,"velocity":1},{"duration":0.5,"durationTicks":960,"midi":52,"name":"E3","ticks":178560,"time":93,"velocity":1},{"duration":0.5,"durationTicks":960,"midi":60,"name":"C4","ticks":179520,"time":93.5,"velocity":1},{"duration":0.5,"durationTicks":960,"midi":48,"name":"C3","ticks":179520,"time":93.5,"velocity":1},{"duration":0.5,"durationTicks":960,"midi":55,"name":"G3","ticks":179520,"time":93.5,"velocity":1},{"duration":0.5,"durationTicks":960,"midi":52,"name":"E3","ticks":179520,"time":93.5,"velocity":1},{"duration":0.5,"durationTicks":960,"midi":53,"name":"F3","ticks":180480,"time":94,"velocity":1},{"duration":0.5,"durationTicks":960,"midi":60,"name":"C4","ticks":180480,"time":94,"velocity":1},{"duration":0.5,"durationTicks":960,"midi":65,"name":"F4","ticks":180480,"time":94,"velocity":1},{"duration":0.5,"durationTicks":960,"midi":45,"name":"A2","ticks":180480,"time":94,"velocity":1},{"duration":0.5,"durationTicks":960,"midi":53,"name":"F3","ticks":181440,"time":94.5,"velocity":1},{"duration":0.5,"durationTicks":960,"midi":60,"name":"C4","ticks":181440,"time":94.5,"velocity":1},{"duration":0.5,"durationTicks":960,"midi":65,"name":"F4","ticks":181440,"time":94.5,"velocity":1},{"duration":0.5,"durationTicks":960,"midi":45,"name":"A2","ticks":181440,"time":94.5,"velocity":1},{"duration":0.5,"durationTicks":960,"midi":50,"name":"D3","ticks":182400,"time":95,"velocity":1},{"duration":0.5,"durationTicks":960,"midi":57,"name":"A3","ticks":182400,"time":95,"velocity":1},{"duration":0.5,"durationTicks":960,"midi":62,"name":"D4","ticks":182400,"time":95,"velocity":1},{"duration":0.5,"durationTicks":960,"midi":53,"name":"F3","ticks":182400,"time":95,"velocity":1},{"duration":0.5,"durationTicks":960,"midi":50,"name":"D3","ticks":183360,"time":95.5,"velocity":1},{"duration":0.5,"durationTicks":960,"midi":62,"name":"D4","ticks":183360,"time":95.5,"velocity":1},{"duration":0.5,"durationTicks":960,"midi":57,"name":"A3","ticks":183360,"time":95.5,"velocity":1},{"duration":0.5,"durationTicks":960,"midi":53,"name":"F3","ticks":183360,"time":95.5,"velocity":1},{"duration":0.5,"durationTicks":960,"midi":62,"name":"D4","ticks":184320,"time":96,"velocity":1},{"duration":0.5,"durationTicks":960,"midi":46,"name":"A#2","ticks":184320,"time":96,"velocity":1},{"duration":0.5,"durationTicks":960,"midi":53,"name":"F3","ticks":184320,"time":96,"velocity":1},{"duration":0.5,"durationTicks":960,"midi":58,"name":"A#3","ticks":184320,"time":96,"velocity":1},{"duration":0.5,"durationTicks":960,"midi":62,"name":"D4","ticks":185280,"time":96.5,"velocity":1},{"duration":0.5,"durationTicks":960,"midi":53,"name":"F3","ticks":185280,"time":96.5,"velocity":1},{"duration":0.5,"durationTicks":960,"midi":58,"name":"A#3","ticks":185280,"time":96.5,"velocity":1},{"duration":0.5,"durationTicks":960,"midi":46,"name":"A#2","ticks":185280,"time":96.5,"velocity":1},{"duration":0.5,"durationTicks":960,"midi":61,"name":"C#4","ticks":186240,"time":97,"velocity":1},{"duration":0.5,"durationTicks":960,"midi":45,"name":"A2","ticks":186240,"time":97,"velocity":1},{"duration":0.5,"durationTicks":960,"midi":52,"name":"E3","ticks":186240,"time":97,"velocity":1},{"duration":0.5,"durationTicks":960,"midi":57,"name":"A3","ticks":186240,"time":97,"velocity":1},{"duration":0.5,"durationTicks":960,"midi":61,"name":"C#4","ticks":187200,"time":97.5,"velocity":1},{"duration":0.5,"durationTicks":960,"midi":52,"name":"E3","ticks":187200,"time":97.5,"velocity":1},{"duration":0.5,"durationTicks":960,"midi":57,"name":"A3","ticks":187200,"time":97.5,"velocity":1},{"duration":0.5,"durationTicks":960,"midi":45,"name":"A2","ticks":187200,"time":97.5,"velocity":1},{"duration":2,"durationTicks":3840,"midi":50,"name":"D3","ticks":188160,"time":98,"velocity":1},{"duration":2,"durationTicks":3840,"midi":62,"name":"D4","ticks":188160,"time":98,"velocity":1},{"duration":2,"durationTicks":3840,"midi":57,"name":"A3","ticks":188160,"time":98,"velocity":1},{"duration":2,"durationTicks":3840,"midi":66,"name":"F#4","ticks":188160,"time":98,"velocity":1},{"duration":1.0625,"durationTicks":2040,"midi":50,"name":"D3","ticks":193800,"time":100.9375,"velocity":1},{"duration":1.03125,"durationTicks":1980,"midi":57,"name":"A3","ticks":193860,"time":100.96875,"velocity":1},{"duration":0.3333333333333286,"durationTicks":640,"midi":67,"name":"G4","ticks":193920,"time":101,"velocity":1},{"duration":0.65625,"durationTicks":1260,"midi":62,"name":"D4","ticks":193920,"time":101,"velocity":1},{"duration":0.3333333333333428,"durationTicks":640,"midi":66,"name":"F#4","ticks":194560,"time":101.33333333333333,"velocity":1},{"duration":0.3333333333333286,"durationTicks":640,"midi":62,"name":"D4","ticks":195200,"time":101.66666666666667,"velocity":1},{"duration":2,"durationTicks":3840,"midi":50,"name":"D3","ticks":195840,"time":102,"velocity":1},{"duration":2,"durationTicks":3840,"midi":57,"name":"A3","ticks":195840,"time":102,"velocity":1},{"duration":0.375,"durationTicks":720,"midi":59,"name":"B3","ticks":201600,"time":105,"velocity":1},{"duration":0.375,"durationTicks":720,"midi":54,"name":"F#3","ticks":201600,"time":105,"velocity":1},{"duration":0.125,"durationTicks":240,"midi":59,"name":"B3","ticks":202320,"time":105.375,"velocity":1},{"duration":0.125,"durationTicks":240,"midi":54,"name":"F#3","ticks":202320,"time":105.375,"velocity":1},{"duration":0.25,"durationTicks":480,"midi":57,"name":"A3","ticks":203040,"time":105.75,"velocity":1},{"duration":0.25,"durationTicks":480,"midi":52,"name":"E3","ticks":203040,"time":105.75,"velocity":1},{"duration":0.25,"durationTicks":480,"midi":45,"name":"A2","ticks":203040,"time":105.75,"velocity":1},{"duration":2,"durationTicks":3840,"midi":62,"name":"D4","ticks":203520,"time":106,"velocity":1},{"duration":2,"durationTicks":3840,"midi":50,"name":"D3","ticks":203520,"time":106,"velocity":1},{"duration":2,"durationTicks":3840,"midi":57,"name":"A3","ticks":203520,"time":106,"velocity":1},{"duration":2,"durationTicks":3840,"midi":66,"name":"F#4","ticks":203520,"time":106,"velocity":1},{"duration":0.0625,"durationTicks":120,"midi":58,"name":"A#3","ticks":258240,"time":134.5,"velocity":1},{"duration":0.0625,"durationTicks":120,"midi":53,"name":"F3","ticks":258240,"time":134.5,"velocity":1},{"duration":0.0625,"durationTicks":120,"midi":58,"name":"A#3","ticks":258720,"time":134.75,"velocity":1},{"duration":0.0625,"durationTicks":120,"midi":53,"name":"F3","ticks":258720,"time":134.75,"velocity":1},{"duration":0.0625,"durationTicks":120,"midi":58,"name":"A#3","ticks":259200,"time":135,"velocity":1},{"duration":0.0625,"durationTicks":120,"midi":53,"name":"F3","ticks":259200,"time":135,"velocity":1},{"duration":0.0625,"durationTicks":120,"midi":58,"name":"A#3","ticks":259680,"time":135.25,"velocity":1},{"duration":0.0625,"durationTicks":120,"midi":53,"name":"F3","ticks":259680,"time":135.25,"velocity":1},{"duration":0.0625,"durationTicks":120,"midi":58,"name":"A#3","ticks":260160,"time":135.5,"velocity":1},{"duration":0.0625,"durationTicks":120,"midi":53,"name":"F3","ticks":260160,"time":135.5,"velocity":1},{"duration":0.0625,"durationTicks":120,"midi":58,"name":"A#3","ticks":260640,"time":135.75,"velocity":1},{"duration":0.0625,"durationTicks":120,"midi":53,"name":"F3","ticks":260640,"time":135.75,"velocity":1},{"duration":0.25,"durationTicks":480,"midi":40,"name":"E2","ticks":260640,"time":135.75,"velocity":1},{"duration":0.5,"durationTicks":960,"midi":48,"name":"C3","ticks":261120,"time":136,"velocity":1},{"duration":0.5,"durationTicks":960,"midi":41,"name":"F2","ticks":261120,"time":136,"velocity":1},{"duration":0.5,"durationTicks":960,"midi":53,"name":"F3","ticks":261120,"time":136,"velocity":1},{"duration":0.5,"durationTicks":960,"midi":57,"name":"A3","ticks":261120,"time":136,"velocity":1},{"duration":0.03125,"durationTicks":60,"midi":57,"name":"A3","ticks":262080,"time":136.5,"velocity":1},{"duration":0.0625,"durationTicks":120,"midi":41,"name":"F2","ticks":262080,"time":136.5,"velocity":1},{"duration":0.03125,"durationTicks":60,"midi":57,"name":"A3","ticks":262560,"time":136.75,"velocity":1},{"duration":0.25,"durationTicks":480,"midi":40,"name":"E2","ticks":262560,"time":136.75,"velocity":1},{"duration":0.5,"durationTicks":960,"midi":60,"name":"C4","ticks":263040,"time":137,"velocity":1},{"duration":0.5,"durationTicks":960,"midi":55,"name":"G3","ticks":263040,"time":137,"velocity":1},{"duration":0.5,"durationTicks":960,"midi":48,"name":"C3","ticks":263040,"time":137,"velocity":1},{"duration":0.5,"durationTicks":960,"midi":64,"name":"E4","ticks":263040,"time":137,"velocity":1},{"duration":0.03125,"durationTicks":60,"midi":64,"name":"E4","ticks":264000,"time":137.5,"velocity":1},{"duration":0.0625,"durationTicks":120,"midi":48,"name":"C3","ticks":264000,"time":137.5,"velocity":1},{"duration":0.03125,"durationTicks":60,"midi":64,"name":"E4","ticks":264480,"time":137.75,"velocity":1},{"duration":0.25,"durationTicks":480,"midi":45,"name":"A2","ticks":264480,"time":137.75,"velocity":1},{"duration":0.5,"durationTicks":960,"midi":46,"name":"A#2","ticks":264960,"time":138,"velocity":1},{"duration":0.5,"durationTicks":960,"midi":58,"name":"A#3","ticks":264960,"time":138,"velocity":1},{"duration":0.5,"durationTicks":960,"midi":53,"name":"F3","ticks":264960,"time":138,"velocity":1},{"duration":0.5,"durationTicks":960,"midi":62,"name":"D4","ticks":264960,"time":138,"velocity":1},{"duration":0.03125,"durationTicks":60,"midi":62,"name":"D4","ticks":265920,"time":138.5,"velocity":1},{"duration":0.0625,"durationTicks":120,"midi":46,"name":"A#2","ticks":265920,"time":138.5,"velocity":1},{"duration":0.03125,"durationTicks":60,"midi":62,"name":"D4","ticks":266400,"time":138.75,"velocity":1},{"duration":0.25,"durationTicks":480,"midi":40,"name":"E2","ticks":266400,"time":138.75,"velocity":1},{"duration":0.5,"durationTicks":960,"midi":48,"name":"C3","ticks":266880,"time":139,"velocity":1},{"duration":0.5,"durationTicks":960,"midi":41,"name":"F2","ticks":266880,"time":139,"velocity":1},{"duration":0.5,"durationTicks":960,"midi":53,"name":"F3","ticks":266880,"time":139,"velocity":1},{"duration":0.5,"durationTicks":960,"midi":57,"name":"A3","ticks":266880,"time":139,"velocity":1},{"duration":0.03125,"durationTicks":60,"midi":57,"name":"A3","ticks":267840,"time":139.5,"velocity":1},{"duration":0.0625,"durationTicks":120,"midi":41,"name":"F2","ticks":267840,"time":139.5,"velocity":1},{"duration":0.03125,"durationTicks":60,"midi":57,"name":"A3","ticks":268320,"time":139.75,"velocity":1},{"duration":0.0625,"durationTicks":120,"midi":41,"name":"F2","ticks":268320,"time":139.75,"velocity":1},{"duration":0.5,"durationTicks":960,"midi":48,"name":"C3","ticks":268800,"time":140,"velocity":1},{"duration":0.5,"durationTicks":960,"midi":41,"name":"F2","ticks":268800,"time":140,"velocity":1},{"duration":0.5,"durationTicks":960,"midi":53,"name":"F3","ticks":268800,"time":140,"velocity":1},{"duration":0.5,"durationTicks":960,"midi":57,"name":"A3","ticks":268800,"time":140,"velocity":1},{"duration":0.03125,"durationTicks":60,"midi":57,"name":"A3","ticks":269760,"time":140.5,"velocity":1},{"duration":0.0625,"durationTicks":120,"midi":41,"name":"F2","ticks":269760,"time":140.5,"velocity":1},{"duration":0.03125,"durationTicks":60,"midi":57,"name":"A3","ticks":270240,"time":140.75,"velocity":1},{"duration":0.25,"durationTicks":480,"midi":40,"name":"E2","ticks":270240,"time":140.75,"velocity":1},{"duration":0.5,"durationTicks":960,"midi":60,"name":"C4","ticks":270720,"time":141,"velocity":1},{"duration":0.5,"durationTicks":960,"midi":55,"name":"G3","ticks":270720,"time":141,"velocity":1},{"duration":0.5,"durationTicks":960,"midi":48,"name":"C3","ticks":270720,"time":141,"velocity":1},{"duration":0.5,"durationTicks":960,"midi":64,"name":"E4","ticks":270720,"time":141,"velocity":1},{"duration":0.03125,"durationTicks":60,"midi":64,"name":"E4","ticks":271680,"time":141.5,"velocity":1},{"duration":0.0625,"durationTicks":120,"midi":48,"name":"C3","ticks":271680,"time":141.5,"velocity":1},{"duration":0.03125,"durationTicks":60,"midi":64,"name":"E4","ticks":272160,"time":141.75,"velocity":1},{"duration":0.25,"durationTicks":480,"midi":45,"name":"A2","ticks":272160,"time":141.75,"velocity":1},{"duration":0.5,"durationTicks":960,"midi":46,"name":"A#2","ticks":272640,"time":142,"velocity":1},{"duration":0.5,"durationTicks":960,"midi":58,"name":"A#3","ticks":272640,"time":142,"velocity":1},{"duration":0.5,"durationTicks":960,"midi":53,"name":"F3","ticks":272640,"time":142,"velocity":1},{"duration":0.5,"durationTicks":960,"midi":62,"name":"D4","ticks":272640,"time":142,"velocity":1},{"duration":0.03125,"durationTicks":60,"midi":62,"name":"D4","ticks":273600,"time":142.5,"velocity":1},{"duration":0.0625,"durationTicks":120,"midi":46,"name":"A#2","ticks":273600,"time":142.5,"velocity":1},{"duration":0.03125,"durationTicks":60,"midi":62,"name":"D4","ticks":274080,"time":142.75,"velocity":1},{"duration":0.25,"durationTicks":480,"midi":40,"name":"E2","ticks":274080,"time":142.75,"velocity":1},{"duration":0.5,"durationTicks":960,"midi":48,"name":"C3","ticks":274560,"time":143,"velocity":1},{"duration":0.5,"durationTicks":960,"midi":41,"name":"F2","ticks":274560,"time":143,"velocity":1},{"duration":0.5,"durationTicks":960,"midi":53,"name":"F3","ticks":274560,"time":143,"velocity":1},{"duration":0.5,"durationTicks":960,"midi":57,"name":"A3","ticks":274560,"time":143,"velocity":1},{"duration":0.03125,"durationTicks":60,"midi":57,"name":"A3","ticks":275520,"time":143.5,"velocity":1},{"duration":0.0625,"durationTicks":120,"midi":41,"name":"F2","ticks":275520,"time":143.5,"velocity":1},{"duration":0.03125,"durationTicks":60,"midi":57,"name":"A3","ticks":276000,"time":143.75,"velocity":1},{"duration":0.0625,"durationTicks":120,"midi":41,"name":"F2","ticks":276000,"time":143.75,"velocity":1},{"duration":0.5,"durationTicks":960,"midi":55,"name":"G3","ticks":276480,"time":144,"velocity":1},{"duration":0.5,"durationTicks":960,"midi":43,"name":"G2","ticks":276480,"time":144,"velocity":1},{"duration":0.5,"durationTicks":960,"midi":50,"name":"D3","ticks":276480,"time":144,"velocity":1},{"duration":0.5,"durationTicks":960,"midi":58,"name":"A#3","ticks":276480,"time":144,"velocity":1},{"duration":0.5,"durationTicks":960,"midi":58,"name":"A#3","ticks":277440,"time":144.5,"velocity":1},{"duration":0.5,"durationTicks":960,"midi":55,"name":"G3","ticks":277440,"time":144.5,"velocity":1},{"duration":0.5,"durationTicks":960,"midi":50,"name":"D3","ticks":277440,"time":144.5,"velocity":1},{"duration":0.5,"durationTicks":960,"midi":43,"name":"G2","ticks":277440,"time":144.5,"velocity":1},{"duration":0.5,"durationTicks":960,"midi":60,"name":"C4","ticks":278400,"time":145,"velocity":1},{"duration":0.5,"durationTicks":960,"midi":48,"name":"C3","ticks":278400,"time":145,"velocity":1},{"duration":0.5,"durationTicks":960,"midi":55,"name":"G3","ticks":278400,"time":145,"velocity":1},{"duration":0.5,"durationTicks":960,"midi":52,"name":"E3","ticks":278400,"time":145,"velocity":1},{"duration":0.5,"durationTicks":960,"midi":60,"name":"C4","ticks":279360,"time":145.5,"velocity":1},{"duration":0.5,"durationTicks":960,"midi":48,"name":"C3","ticks":279360,"time":145.5,"velocity":1},{"duration":0.5,"durationTicks":960,"midi":55,"name":"G3","ticks":279360,"time":145.5,"velocity":1},{"duration":0.5,"durationTicks":960,"midi":52,"name":"E3","ticks":279360,"time":145.5,"velocity":1},{"duration":0.5,"durationTicks":960,"midi":53,"name":"F3","ticks":280320,"time":146,"velocity":1},{"duration":0.5,"durationTicks":960,"midi":60,"name":"C4","ticks":280320,"time":146,"velocity":1},{"duration":0.5,"durationTicks":960,"midi":65,"name":"F4","ticks":280320,"time":146,"velocity":1},{"duration":0.5,"durationTicks":960,"midi":45,"name":"A2","ticks":280320,"time":146,"velocity":1},{"duration":0.5,"durationTicks":960,"midi":53,"name":"F3","ticks":281280,"time":146.5,"velocity":1},{"duration":0.5,"durationTicks":960,"midi":60,"name":"C4","ticks":281280,"time":146.5,"velocity":1},{"duration":0.5,"durationTicks":960,"midi":65,"name":"F4","ticks":281280,"time":146.5,"velocity":1},{"duration":0.5,"durationTicks":960,"midi":45,"name":"A2","ticks":281280,"time":146.5,"velocity":1},{"duration":0.5,"durationTicks":960,"midi":50,"name":"D3","ticks":282240,"time":147,"velocity":1},{"duration":0.5,"durationTicks":960,"midi":57,"name":"A3","ticks":282240,"time":147,"velocity":1},{"duration":0.5,"durationTicks":960,"midi":62,"name":"D4","ticks":282240,"time":147,"velocity":1},{"duration":0.5,"durationTicks":960,"midi":53,"name":"F3","ticks":282240,"time":147,"velocity":1},{"duration":0.5,"durationTicks":960,"midi":50,"name":"D3","ticks":283200,"time":147.5,"velocity":1},{"duration":0.5,"durationTicks":960,"midi":62,"name":"D4","ticks":283200,"time":147.5,"velocity":1},{"duration":0.5,"durationTicks":960,"midi":57,"name":"A3","ticks":283200,"time":147.5,"velocity":1},{"duration":0.5,"durationTicks":960,"midi":53,"name":"F3","ticks":283200,"time":147.5,"velocity":1},{"duration":0.5,"durationTicks":960,"midi":62,"name":"D4","ticks":284160,"time":148,"velocity":1},{"duration":0.5,"durationTicks":960,"midi":46,"name":"A#2","ticks":284160,"time":148,"velocity":1},{"duration":0.5,"durationTicks":960,"midi":53,"name":"F3","ticks":284160,"time":148,"velocity":1},{"duration":0.5,"durationTicks":960,"midi":58,"name":"A#3","ticks":284160,"time":148,"velocity":1},{"duration":0.5,"durationTicks":960,"midi":62,"name":"D4","ticks":285120,"time":148.5,"velocity":1},{"duration":0.5,"durationTicks":960,"midi":53,"name":"F3","ticks":285120,"time":148.5,"velocity":1},{"duration":0.5,"durationTicks":960,"midi":58,"name":"A#3","ticks":285120,"time":148.5,"velocity":1},{"duration":0.5,"durationTicks":960,"midi":46,"name":"A#2","ticks":285120,"time":148.5,"velocity":1},{"duration":0.5,"durationTicks":960,"midi":61,"name":"C#4","ticks":286080,"time":149,"velocity":1},{"duration":0.5,"durationTicks":960,"midi":45,"name":"A2","ticks":286080,"time":149,"velocity":1},{"duration":0.5,"durationTicks":960,"midi":52,"name":"E3","ticks":286080,"time":149,"velocity":1},{"duration":0.5,"durationTicks":960,"midi":57,"name":"A3","ticks":286080,"time":149,"velocity":1},{"duration":0.5,"durationTicks":960,"midi":61,"name":"C#4","ticks":287040,"time":149.5,"velocity":1},{"duration":0.5,"durationTicks":960,"midi":52,"name":"E3","ticks":287040,"time":149.5,"velocity":1},{"duration":0.5,"durationTicks":960,"midi":57,"name":"A3","ticks":287040,"time":149.5,"velocity":1},{"duration":0.5,"durationTicks":960,"midi":45,"name":"A2","ticks":287040,"time":149.5,"velocity":1},{"duration":2,"durationTicks":3840,"midi":50,"name":"D3","ticks":288000,"time":150,"velocity":1},{"duration":2,"durationTicks":3840,"midi":62,"name":"D4","ticks":288000,"time":150,"velocity":1},{"duration":2,"durationTicks":3840,"midi":57,"name":"A3","ticks":288000,"time":150,"velocity":1},{"duration":2,"durationTicks":3840,"midi":66,"name":"F#4","ticks":288000,"time":150,"velocity":1},{"duration":1.0625,"durationTicks":2040,"midi":50,"name":"D3","ticks":293640,"time":152.9375,"velocity":1},{"duration":1.03125,"durationTicks":1980,"midi":57,"name":"A3","ticks":293700,"time":152.96875,"velocity":1},{"duration":0.3333333333333428,"durationTicks":640,"midi":67,"name":"G4","ticks":293760,"time":153,"velocity":1},{"duration":0.65625,"durationTicks":1260,"midi":62,"name":"D4","ticks":293760,"time":153,"velocity":1},{"duration":0.3333333333333144,"durationTicks":640,"midi":66,"name":"F#4","ticks":294400,"time":153.33333333333334,"velocity":1},{"duration":0.3333333333333428,"durationTicks":640,"midi":62,"name":"D4","ticks":295040,"time":153.66666666666666,"velocity":1},{"duration":2,"durationTicks":3840,"midi":50,"name":"D3","ticks":295680,"time":154,"velocity":1},{"duration":2,"durationTicks":3840,"midi":57,"name":"A3","ticks":295680,"time":154,"velocity":1},{"duration":0.375,"durationTicks":720,"midi":59,"name":"B3","ticks":301440,"time":157,"velocity":1},{"duration":0.375,"durationTicks":720,"midi":54,"name":"F#3","ticks":301440,"time":157,"velocity":1},{"duration":0.125,"durationTicks":240,"midi":59,"name":"B3","ticks":302160,"time":157.375,"velocity":1},{"duration":0.125,"durationTicks":240,"midi":54,"name":"F#3","ticks":302160,"time":157.375,"velocity":1},{"duration":0.25,"durationTicks":480,"midi":57,"name":"A3","ticks":302880,"time":157.75,"velocity":1},{"duration":0.25,"durationTicks":480,"midi":52,"name":"E3","ticks":302880,"time":157.75,"velocity":1},{"duration":0.25,"durationTicks":480,"midi":45,"name":"A2","ticks":302880,"time":157.75,"velocity":1},{"duration":2,"durationTicks":3840,"midi":62,"name":"D4","ticks":303360,"time":158,"velocity":1},{"duration":2,"durationTicks":3840,"midi":50,"name":"D3","ticks":303360,"time":158,"velocity":1},{"duration":2,"durationTicks":3840,"midi":57,"name":"A3","ticks":303360,"time":158,"velocity":1},{"duration":2,"durationTicks":3840,"midi":66,"name":"F#4","ticks":303360,"time":158,"velocity":1},{"duration":1.0625,"durationTicks":2040,"midi":50,"name":"D3","ticks":309000,"time":160.9375,"velocity":1},{"duration":0.3333333333333428,"durationTicks":640,"midi":57,"name":"A3","ticks":309120,"time":161,"velocity":1},{"duration":0.3333333333333428,"durationTicks":640,"midi":67,"name":"G4","ticks":309120,"time":161,"velocity":1},{"duration":0.65625,"durationTicks":1260,"midi":62,"name":"D4","ticks":309120,"time":161,"velocity":1},{"duration":0.3333333333333144,"durationTicks":640,"midi":66,"name":"F#4","ticks":309760,"time":161.33333333333334,"velocity":1},{"duration":0.3333333333333428,"durationTicks":640,"midi":62,"name":"D4","ticks":310400,"time":161.66666666666666,"velocity":1},{"duration":2,"durationTicks":3840,"midi":50,"name":"D3","ticks":311040,"time":162,"velocity":1},{"duration":2,"durationTicks":3840,"midi":57,"name":"A3","ticks":311040,"time":162,"velocity":1},{"duration":0.375,"durationTicks":720,"midi":59,"name":"B3","ticks":316800,"time":165,"velocity":1},{"duration":0.375,"durationTicks":720,"midi":54,"name":"F#3","ticks":316800,"time":165,"velocity":1},{"duration":0.125,"durationTicks":240,"midi":59,"name":"B3","ticks":317520,"time":165.375,"velocity":1},{"duration":0.125,"durationTicks":240,"midi":54,"name":"F#3","ticks":317520,"time":165.375,"velocity":1},{"duration":0.25,"durationTicks":480,"midi":57,"name":"A3","ticks":318240,"time":165.75,"velocity":1},{"duration":0.25,"durationTicks":480,"midi":52,"name":"E3","ticks":318240,"time":165.75,"velocity":1},{"duration":0.25,"durationTicks":480,"midi":45,"name":"A2","ticks":318240,"time":165.75,"velocity":1},{"duration":2,"durationTicks":3840,"midi":66,"name":"F#4","ticks":318720,"time":166,"velocity":1},{"duration":2,"durationTicks":3840,"midi":57,"name":"A3","ticks":318720,"time":166,"velocity":1},{"duration":2,"durationTicks":3840,"midi":62,"name":"D4","ticks":318720,"time":166,"velocity":1},{"duration":2,"durationTicks":3840,"midi":50,"name":"D3","ticks":318720,"time":166,"velocity":1}],"endOfTrackTicks":322560},{"channel":5,"controlChanges":{"7":[{"number":7,"ticks":0,"time":0,"value":0.31496062992125984}],"10":[{"number":10,"ticks":0,"time":0,"value":0.8976377952755905}]},"pitchBends":[],"instrument":{"family":"chromatic percussion","number":8,"name":"celesta"},"name":"Celesta","notes":[{"duration":1.015625,"durationTicks":1950,"midi":77,"name":"F5","ticks":61410,"time":31.984375,"velocity":1},{"duration":0.25,"durationTicks":480,"midi":93,"name":"A6","ticks":61440,"time":32,"velocity":1},{"duration":0.25,"durationTicks":480,"midi":84,"name":"C6","ticks":61920,"time":32.25,"velocity":1},{"duration":0.25,"durationTicks":480,"midi":96,"name":"C7","ticks":62400,"time":32.5,"velocity":1},{"duration":0.25,"durationTicks":480,"midi":84,"name":"C6","ticks":62880,"time":32.75,"velocity":1},{"duration":0.25,"durationTicks":480,"midi":91,"name":"G6","ticks":63360,"time":33,"velocity":1},{"duration":1,"durationTicks":1920,"midi":76,"name":"E5","ticks":63360,"time":33,"velocity":1},{"duration":0.25,"durationTicks":480,"midi":84,"name":"C6","ticks":63840,"time":33.25,"velocity":1},{"duration":0.25,"durationTicks":480,"midi":96,"name":"C7","ticks":64320,"time":33.5,"velocity":1},{"duration":0.25,"durationTicks":480,"midi":84,"name":"C6","ticks":64800,"time":33.75,"velocity":1},{"duration":0.25,"durationTicks":480,"midi":94,"name":"A#6","ticks":65280,"time":34,"velocity":1},{"duration":1,"durationTicks":1920,"midi":74,"name":"D5","ticks":65280,"time":34,"velocity":1},{"duration":0.25,"durationTicks":480,"midi":84,"name":"C6","ticks":65760,"time":34.25,"velocity":1},{"duration":0.25,"durationTicks":480,"midi":93,"name":"A6","ticks":65760,"time":34.25,"velocity":1},{"duration":0.25,"durationTicks":480,"midi":91,"name":"G6","ticks":66240,"time":34.5,"velocity":1},{"duration":0.25,"durationTicks":480,"midi":84,"name":"C6","ticks":66720,"time":34.75,"velocity":1},{"duration":0.25,"durationTicks":480,"midi":93,"name":"A6","ticks":67200,"time":35,"velocity":1},{"duration":0.984375,"durationTicks":1890,"midi":77,"name":"F5","ticks":67200,"time":35,"velocity":1},{"duration":0.25,"durationTicks":480,"midi":84,"name":"C6","ticks":67680,"time":35.25,"velocity":1},{"duration":0.25,"durationTicks":480,"midi":89,"name":"F6","ticks":68160,"time":35.5,"velocity":1},{"duration":0.25,"durationTicks":480,"midi":84,"name":"C6","ticks":68640,"time":35.75,"velocity":1},{"duration":1.015625,"durationTicks":1950,"midi":77,"name":"F5","ticks":69090,"time":35.984375,"velocity":1},{"duration":0.25,"durationTicks":480,"midi":93,"name":"A6","ticks":69120,"time":36,"velocity":1},{"duration":0.25,"durationTicks":480,"midi":84,"name":"C6","ticks":69600,"time":36.25,"velocity":1},{"duration":0.25,"durationTicks":480,"midi":96,"name":"C7","ticks":70080,"time":36.5,"velocity":1},{"duration":0.25,"durationTicks":480,"midi":84,"name":"C6","ticks":70560,"time":36.75,"velocity":1},{"duration":0.25,"durationTicks":480,"midi":91,"name":"G6","ticks":71040,"time":37,"velocity":1},{"duration":1,"durationTicks":1920,"midi":76,"name":"E5","ticks":71040,"time":37,"velocity":1},{"duration":0.25,"durationTicks":480,"midi":84,"name":"C6","ticks":71520,"time":37.25,"velocity":1},{"duration":0.25,"durationTicks":480,"midi":96,"name":"C7","ticks":72000,"time":37.5,"velocity":1},{"duration":0.25,"durationTicks":480,"midi":84,"name":"C6","ticks":72480,"time":37.75,"velocity":1},{"duration":0.25,"durationTicks":480,"midi":94,"name":"A#6","ticks":72960,"time":38,"velocity":1},{"duration":1,"durationTicks":1920,"midi":74,"name":"D5","ticks":72960,"time":38,"velocity":1},{"duration":0.25,"durationTicks":480,"midi":84,"name":"C6","ticks":73440,"time":38.25,"velocity":1},{"duration":0.25,"durationTicks":480,"midi":93,"name":"A6","ticks":73440,"time":38.25,"velocity":1},{"duration":0.25,"durationTicks":480,"midi":91,"name":"G6","ticks":73920,"time":38.5,"velocity":1},{"duration":0.25,"durationTicks":480,"midi":84,"name":"C6","ticks":74400,"time":38.75,"velocity":1},{"duration":0.25,"durationTicks":480,"midi":93,"name":"A6","ticks":74880,"time":39,"velocity":1},{"duration":1,"durationTicks":1920,"midi":77,"name":"F5","ticks":74880,"time":39,"velocity":1},{"duration":0.25,"durationTicks":480,"midi":84,"name":"C6","ticks":75360,"time":39.25,"velocity":1},{"duration":0.25,"durationTicks":480,"midi":89,"name":"F6","ticks":75840,"time":39.5,"velocity":1},{"duration":0.25,"durationTicks":480,"midi":84,"name":"C6","ticks":76320,"time":39.75,"velocity":1},{"duration":0.25,"durationTicks":480,"midi":91,"name":"G6","ticks":76800,"time":40,"velocity":1},{"duration":1,"durationTicks":1920,"midi":79,"name":"G5","ticks":76800,"time":40,"velocity":1},{"duration":0.25,"durationTicks":480,"midi":94,"name":"A#6","ticks":77280,"time":40.25,"velocity":1},{"duration":0.25,"durationTicks":480,"midi":93,"name":"A6","ticks":77760,"time":40.5,"velocity":1},{"duration":0.25,"durationTicks":480,"midi":91,"name":"G6","ticks":78240,"time":40.75,"velocity":1},{"duration":0.25,"durationTicks":480,"midi":88,"name":"E6","ticks":78720,"time":41,"velocity":1},{"duration":1,"durationTicks":1920,"midi":79,"name":"G5","ticks":78720,"time":41,"velocity":1},{"duration":0.25,"durationTicks":480,"midi":89,"name":"F6","ticks":79200,"time":41.25,"velocity":1},{"duration":0.25,"durationTicks":480,"midi":91,"name":"G6","ticks":79680,"time":41.5,"velocity":1},{"duration":0.25,"durationTicks":480,"midi":96,"name":"C7","ticks":80160,"time":41.75,"velocity":1},{"duration":0.25,"durationTicks":480,"midi":93,"name":"A6","ticks":80640,"time":42,"velocity":1},{"duration":0.5,"durationTicks":960,"midi":77,"name":"F5","ticks":80640,"time":42,"velocity":1},{"duration":0.25,"durationTicks":480,"midi":96,"name":"C7","ticks":81120,"time":42.25,"velocity":1},{"duration":0.25,"durationTicks":480,"midi":91,"name":"G6","ticks":81600,"time":42.5,"velocity":1},{"duration":0.5,"durationTicks":960,"midi":76,"name":"E5","ticks":81600,"time":42.5,"velocity":1},{"duration":0.25,"durationTicks":480,"midi":96,"name":"C7","ticks":82080,"time":42.75,"velocity":1},{"duration":0.25,"durationTicks":480,"midi":89,"name":"F6","ticks":82560,"time":43,"velocity":1},{"duration":1,"durationTicks":1920,"midi":74,"name":"D5","ticks":82560,"time":43,"velocity":1},{"duration":0.25,"durationTicks":480,"midi":81,"name":"A5","ticks":83040,"time":43.25,"velocity":1},{"duration":0.25,"durationTicks":480,"midi":93,"name":"A6","ticks":83520,"time":43.5,"velocity":1},{"duration":1.015625,"durationTicks":1950,"midi":77,"name":"F5","ticks":84450,"time":43.984375,"velocity":1},{"duration":0.25,"durationTicks":480,"midi":94,"name":"A#6","ticks":84480,"time":44,"velocity":1},{"duration":0.25,"durationTicks":480,"midi":86,"name":"D6","ticks":84960,"time":44.25,"velocity":1},{"duration":0.25,"durationTicks":480,"midi":89,"name":"F6","ticks":85440,"time":44.5,"velocity":1},{"duration":0.25,"durationTicks":480,"midi":86,"name":"D6","ticks":85920,"time":44.75,"velocity":1},{"duration":0.25,"durationTicks":480,"midi":93,"name":"A6","ticks":86400,"time":45,"velocity":1},{"duration":1,"durationTicks":1920,"midi":76,"name":"E5","ticks":86400,"time":45,"velocity":1},{"duration":0.25,"durationTicks":480,"midi":85,"name":"C#6","ticks":86880,"time":45.25,"velocity":1},{"duration":0.5,"durationTicks":960,"midi":91,"name":"G6","ticks":87360,"time":45.5,"velocity":1},{"duration":0.5,"durationTicks":960,"midi":88,"name":"E6","ticks":87360,"time":45.5,"velocity":1},{"duration":0.25,"durationTicks":480,"midi":81,"name":"A5","ticks":88320,"time":46,"velocity":1},{"duration":0.25,"durationTicks":480,"midi":86,"name":"D6","ticks":88800,"time":46.25,"velocity":1},{"duration":0.25,"durationTicks":480,"midi":90,"name":"F#6","ticks":89280,"time":46.5,"velocity":1},{"duration":0.25,"durationTicks":480,"midi":86,"name":"D6","ticks":89760,"time":46.75,"velocity":1},{"duration":0.25,"durationTicks":480,"midi":83,"name":"B5","ticks":90240,"time":47,"velocity":1},{"duration":0.25,"durationTicks":480,"midi":86,"name":"D6","ticks":90720,"time":47.25,"velocity":1},{"duration":0.25,"durationTicks":480,"midi":90,"name":"F#6","ticks":91200,"time":47.5,"velocity":1},{"duration":0.25,"durationTicks":480,"midi":86,"name":"D6","ticks":91680,"time":47.75,"velocity":1},{"duration":0.25,"durationTicks":480,"midi":81,"name":"A5","ticks":92160,"time":48,"velocity":1},{"duration":0.25,"durationTicks":480,"midi":86,"name":"D6","ticks":92640,"time":48.25,"velocity":1},{"duration":0.25,"durationTicks":480,"midi":90,"name":"F#6","ticks":93120,"time":48.5,"velocity":1},{"duration":0.25,"durationTicks":480,"midi":86,"name":"D6","ticks":93600,"time":48.75,"velocity":1},{"duration":0.25,"durationTicks":480,"midi":83,"name":"B5","ticks":94080,"time":49,"velocity":1},{"duration":0.25,"durationTicks":480,"midi":86,"name":"D6","ticks":94560,"time":49.25,"velocity":1},{"duration":0.25,"durationTicks":480,"midi":90,"name":"F#6","ticks":95040,"time":49.5,"velocity":1},{"duration":0.25,"durationTicks":480,"midi":86,"name":"D6","ticks":95520,"time":49.75,"velocity":1},{"duration":0.25,"durationTicks":480,"midi":81,"name":"A5","ticks":96000,"time":50,"velocity":1},{"duration":0.25,"durationTicks":480,"midi":86,"name":"D6","ticks":96480,"time":50.25,"velocity":1},{"duration":0.25,"durationTicks":480,"midi":90,"name":"F#6","ticks":96960,"time":50.5,"velocity":1},{"duration":0.25,"durationTicks":480,"midi":86,"name":"D6","ticks":97440,"time":50.75,"velocity":1},{"duration":0.25,"durationTicks":480,"midi":83,"name":"B5","ticks":97920,"time":51,"velocity":1},{"duration":0.25,"durationTicks":480,"midi":86,"name":"D6","ticks":98400,"time":51.25,"velocity":1},{"duration":0.25,"durationTicks":480,"midi":90,"name":"F#6","ticks":98880,"time":51.5,"velocity":1},{"duration":0.25,"durationTicks":480,"midi":86,"name":"D6","ticks":99360,"time":51.75,"velocity":1},{"duration":0.25,"durationTicks":480,"midi":81,"name":"A5","ticks":99840,"time":52,"velocity":1},{"duration":0.25,"durationTicks":480,"midi":86,"name":"D6","ticks":100320,"time":52.25,"velocity":1},{"duration":0.25,"durationTicks":480,"midi":90,"name":"F#6","ticks":100800,"time":52.5,"velocity":1},{"duration":0.25,"durationTicks":480,"midi":86,"name":"D6","ticks":101280,"time":52.75,"velocity":1},{"duration":0.25,"durationTicks":480,"midi":83,"name":"B5","ticks":101760,"time":53,"velocity":1},{"duration":0.25,"durationTicks":480,"midi":86,"name":"D6","ticks":102240,"time":53.25,"velocity":1},{"duration":0.25,"durationTicks":480,"midi":90,"name":"F#6","ticks":102720,"time":53.5,"velocity":1},{"duration":0.25,"durationTicks":480,"midi":86,"name":"D6","ticks":103200,"time":53.75,"velocity":1}],"endOfTrackTicks":103680},{"channel":6,"controlChanges":{"7":[{"number":7,"ticks":0,"time":0,"value":0.7480314960629921}],"10":[{"number":10,"ticks":0,"time":0,"value":0.5039370078740157}]},"pitchBends":[],"instrument":{"family":"bass","number":33,"name":"electric bass (finger)"},"name":"Bass","notes":[{"duration":0.5,"durationTicks":960,"midi":50,"name":"D3","ticks":87360,"time":45.5,"velocity":1},{"duration":0.5,"durationTicks":960,"midi":38,"name":"D2","ticks":88320,"time":46,"velocity":1},{"duration":0.25,"durationTicks":480,"midi":38,"name":"D2","ticks":89760,"time":46.75,"velocity":1},{"duration":0.5,"durationTicks":960,"midi":35,"name":"B1","ticks":90240,"time":47,"velocity":1},{"duration":0.25,"durationTicks":480,"midi":35,"name":"B1","ticks":91680,"time":47.75,"velocity":1},{"duration":0.5,"durationTicks":960,"midi":38,"name":"D2","ticks":92160,"time":48,"velocity":1},{"duration":0.25,"durationTicks":480,"midi":38,"name":"D2","ticks":93600,"time":48.75,"velocity":1},{"duration":0.5,"durationTicks":960,"midi":35,"name":"B1","ticks":94080,"time":49,"velocity":1},{"duration":0.25,"durationTicks":480,"midi":35,"name":"B1","ticks":95520,"time":49.75,"velocity":1},{"duration":0.5,"durationTicks":960,"midi":38,"name":"D2","ticks":96000,"time":50,"velocity":1},{"duration":0.25,"durationTicks":480,"midi":38,"name":"D2","ticks":97440,"time":50.75,"velocity":1},{"duration":0.5,"durationTicks":960,"midi":35,"name":"B1","ticks":97920,"time":51,"velocity":1},{"duration":0.25,"durationTicks":480,"midi":35,"name":"B1","ticks":99360,"time":51.75,"velocity":1},{"duration":0.5,"durationTicks":960,"midi":38,"name":"D2","ticks":99840,"time":52,"velocity":1},{"duration":0.25,"durationTicks":480,"midi":38,"name":"D2","ticks":101280,"time":52.75,"velocity":1},{"duration":0.5,"durationTicks":960,"midi":47,"name":"B2","ticks":101760,"time":53,"velocity":1},{"duration":0.25,"durationTicks":480,"midi":47,"name":"B2","ticks":102720,"time":53.5,"velocity":1},{"duration":0.25,"durationTicks":480,"midi":45,"name":"A2","ticks":103200,"time":53.75,"velocity":1},{"duration":0.5,"durationTicks":960,"midi":38,"name":"D2","ticks":103680,"time":54,"velocity":1},{"duration":0.25,"durationTicks":480,"midi":38,"name":"D2","ticks":105120,"time":54.75,"velocity":1},{"duration":0.5,"durationTicks":960,"midi":35,"name":"B1","ticks":105600,"time":55,"velocity":1},{"duration":0.25,"durationTicks":480,"midi":35,"name":"B1","ticks":107040,"time":55.75,"velocity":1},{"duration":0.5,"durationTicks":960,"midi":38,"name":"D2","ticks":107520,"time":56,"velocity":1},{"duration":0.25,"durationTicks":480,"midi":38,"name":"D2","ticks":108960,"time":56.75,"velocity":1},{"duration":0.5,"durationTicks":960,"midi":35,"name":"B1","ticks":109440,"time":57,"velocity":1},{"duration":0.25,"durationTicks":480,"midi":35,"name":"B1","ticks":110880,"time":57.75,"velocity":1},{"duration":0.5,"durationTicks":960,"midi":38,"name":"D2","ticks":111360,"time":58,"velocity":1},{"duration":0.25,"durationTicks":480,"midi":38,"name":"D2","ticks":112800,"time":58.75,"velocity":1},{"duration":0.5,"durationTicks":960,"midi":35,"name":"B1","ticks":113280,"time":59,"velocity":1},{"duration":0.25,"durationTicks":480,"midi":35,"name":"B1","ticks":114720,"time":59.75,"velocity":1},{"duration":0.5,"durationTicks":960,"midi":38,"name":"D2","ticks":115200,"time":60,"velocity":1},{"duration":0.25,"durationTicks":480,"midi":38,"name":"D2","ticks":116640,"time":60.75,"velocity":1},{"duration":0.5,"durationTicks":960,"midi":35,"name":"B1","ticks":117120,"time":61,"velocity":1},{"duration":0.25,"durationTicks":480,"midi":35,"name":"B1","ticks":118560,"time":61.75,"velocity":1},{"duration":0.5,"durationTicks":960,"midi":40,"name":"E2","ticks":119040,"time":62,"velocity":1},{"duration":0.25,"durationTicks":480,"midi":40,"name":"E2","ticks":120480,"time":62.75,"velocity":1},{"duration":0.25,"durationTicks":480,"midi":40,"name":"E2","ticks":120960,"time":63,"velocity":1},{"duration":0.25,"durationTicks":480,"midi":42,"name":"F#2","ticks":121440,"time":63.25,"velocity":1},{"duration":0.5,"durationTicks":960,"midi":43,"name":"G2","ticks":121920,"time":63.5,"velocity":1},{"duration":0.75,"durationTicks":1440,"midi":33,"name":"A1","ticks":122880,"time":64,"velocity":1},{"duration":0.25,"durationTicks":480,"midi":33,"name":"A1","ticks":124320,"time":64.75,"velocity":1},{"duration":0.25,"durationTicks":480,"midi":33,"name":"A1","ticks":124800,"time":65,"velocity":1},{"duration":0.25,"durationTicks":480,"midi":35,"name":"B1","ticks":125280,"time":65.25,"velocity":1},{"duration":0.5,"durationTicks":960,"midi":37,"name":"C#2","ticks":125760,"time":65.5,"velocity":1},{"duration":0.5,"durationTicks":960,"midi":38,"name":"D2","ticks":126720,"time":66,"velocity":1},{"duration":0.25,"durationTicks":480,"midi":38,"name":"D2","ticks":128160,"time":66.75,"velocity":1},{"duration":0.5,"durationTicks":960,"midi":35,"name":"B1","ticks":128640,"time":67,"velocity":1},{"duration":0.25,"durationTicks":480,"midi":35,"name":"B1","ticks":130080,"time":67.75,"velocity":1},{"duration":0.5,"durationTicks":960,"midi":38,"name":"D2","ticks":130560,"time":68,"velocity":1},{"duration":0.25,"durationTicks":480,"midi":38,"name":"D2","ticks":132000,"time":68.75,"velocity":1},{"duration":0.5,"durationTicks":960,"midi":47,"name":"B2","ticks":132480,"time":69,"velocity":1},{"duration":0.25,"durationTicks":480,"midi":47,"name":"B2","ticks":133440,"time":69.5,"velocity":1},{"duration":0.25,"durationTicks":480,"midi":45,"name":"A2","ticks":133920,"time":69.75,"velocity":1},{"duration":0.5,"durationTicks":960,"midi":38,"name":"D2","ticks":134400,"time":70,"velocity":1},{"duration":0.25,"durationTicks":480,"midi":38,"name":"D2","ticks":135840,"time":70.75,"velocity":1},{"duration":0.5,"durationTicks":960,"midi":35,"name":"B1","ticks":136320,"time":71,"velocity":1},{"duration":0.25,"durationTicks":480,"midi":35,"name":"B1","ticks":137760,"time":71.75,"velocity":1},{"duration":0.5,"durationTicks":960,"midi":38,"name":"D2","ticks":138240,"time":72,"velocity":1},{"duration":0.25,"durationTicks":480,"midi":38,"name":"D2","ticks":139680,"time":72.75,"velocity":1},{"duration":0.5,"durationTicks":960,"midi":35,"name":"B1","ticks":140160,"time":73,"velocity":1},{"duration":0.25,"durationTicks":480,"midi":35,"name":"B1","ticks":141600,"time":73.75,"velocity":1},{"duration":0.5,"durationTicks":960,"midi":38,"name":"D2","ticks":142080,"time":74,"velocity":1},{"duration":0.25,"durationTicks":480,"midi":38,"name":"D2","ticks":143520,"time":74.75,"velocity":1},{"duration":0.5,"durationTicks":960,"midi":35,"name":"B1","ticks":144000,"time":75,"velocity":1},{"duration":0.25,"durationTicks":480,"midi":35,"name":"B1","ticks":145440,"time":75.75,"velocity":1},{"duration":0.5,"durationTicks":960,"midi":38,"name":"D2","ticks":145920,"time":76,"velocity":1},{"duration":0.25,"durationTicks":480,"midi":38,"name":"D2","ticks":147360,"time":76.75,"velocity":1},{"duration":0.5,"durationTicks":960,"midi":35,"name":"B1","ticks":147840,"time":77,"velocity":1},{"duration":0.25,"durationTicks":480,"midi":35,"name":"B1","ticks":149280,"time":77.75,"velocity":1},{"duration":0.5,"durationTicks":960,"midi":40,"name":"E2","ticks":149760,"time":78,"velocity":1},{"duration":0.25,"durationTicks":480,"midi":40,"name":"E2","ticks":151200,"time":78.75,"velocity":1},{"duration":0.25,"durationTicks":480,"midi":40,"name":"E2","ticks":151680,"time":79,"velocity":1},{"duration":0.25,"durationTicks":480,"midi":42,"name":"F#2","ticks":152160,"time":79.25,"velocity":1},{"duration":0.5,"durationTicks":960,"midi":43,"name":"G2","ticks":152640,"time":79.5,"velocity":1},{"duration":0.75,"durationTicks":1440,"midi":33,"name":"A1","ticks":153600,"time":80,"velocity":1},{"duration":0.25,"durationTicks":480,"midi":33,"name":"A1","ticks":155040,"time":80.75,"velocity":1},{"duration":0.25,"durationTicks":480,"midi":33,"name":"A1","ticks":155520,"time":81,"velocity":1},{"duration":0.25,"durationTicks":480,"midi":35,"name":"B1","ticks":156000,"time":81.25,"velocity":1},{"duration":0.25,"durationTicks":480,"midi":37,"name":"C#2","ticks":156480,"time":81.5,"velocity":1},{"duration":0.25,"durationTicks":480,"midi":33,"name":"A1","ticks":156960,"time":81.75,"velocity":1},{"duration":1.75,"durationTicks":3360,"midi":34,"name":"A#1","ticks":157440,"time":82,"velocity":1},{"duration":0.75,"durationTicks":1440,"midi":46,"name":"A#2","ticks":158880,"time":82.75,"velocity":1},{"duration":0.25,"durationTicks":480,"midi":46,"name":"A#2","ticks":160320,"time":83.5,"velocity":1},{"duration":0.25,"durationTicks":480,"midi":33,"name":"A1","ticks":160800,"time":83.75,"velocity":1},{"duration":0.5,"durationTicks":960,"midi":41,"name":"F2","ticks":161280,"time":84,"velocity":1},{"duration":0.25,"durationTicks":480,"midi":41,"name":"F2","ticks":162720,"time":84.75,"velocity":1},{"duration":0.5,"durationTicks":960,"midi":36,"name":"C2","ticks":163200,"time":85,"velocity":1},{"duration":0.25,"durationTicks":480,"midi":36,"name":"C2","ticks":164640,"time":85.75,"velocity":1},{"duration":0.5,"durationTicks":960,"midi":34,"name":"A#1","ticks":165120,"time":86,"velocity":1},{"duration":0.25,"durationTicks":480,"midi":34,"name":"A#1","ticks":166560,"time":86.75,"velocity":1},{"duration":0.5,"durationTicks":960,"midi":41,"name":"F2","ticks":167040,"time":87,"velocity":1},{"duration":0.5,"durationTicks":960,"midi":41,"name":"F2","ticks":168960,"time":88,"velocity":1},{"duration":0.25,"durationTicks":480,"midi":41,"name":"F2","ticks":170400,"time":88.75,"velocity":1},{"duration":0.5,"durationTicks":960,"midi":36,"name":"C2","ticks":170880,"time":89,"velocity":1},{"duration":0.25,"durationTicks":480,"midi":36,"name":"C2","ticks":172320,"time":89.75,"velocity":1},{"duration":0.5,"durationTicks":960,"midi":34,"name":"A#1","ticks":172800,"time":90,"velocity":1},{"duration":0.25,"durationTicks":480,"midi":34,"name":"A#1","ticks":174240,"time":90.75,"velocity":1},{"duration":0.5,"durationTicks":960,"midi":41,"name":"F2","ticks":174720,"time":91,"velocity":1},{"duration":0.25,"durationTicks":480,"midi":41,"name":"F2","ticks":175680,"time":91.5,"velocity":1},{"duration":0.25,"durationTicks":480,"midi":36,"name":"C2","ticks":176160,"time":91.75,"velocity":1},{"duration":0.5,"durationTicks":960,"midi":34,"name":"A#1","ticks":176640,"time":92,"velocity":1},{"duration":0.5,"durationTicks":960,"midi":34,"name":"A#1","ticks":177600,"time":92.5,"velocity":1},{"duration":0.5,"durationTicks":960,"midi":36,"name":"C2","ticks":178560,"time":93,"velocity":1},{"duration":0.5,"durationTicks":960,"midi":36,"name":"C2","ticks":179520,"time":93.5,"velocity":1},{"duration":0.5,"durationTicks":960,"midi":41,"name":"F2","ticks":180480,"time":94,"velocity":1},{"duration":0.5,"durationTicks":960,"midi":40,"name":"E2","ticks":181440,"time":94.5,"velocity":1},{"duration":0.5,"durationTicks":960,"midi":38,"name":"D2","ticks":182400,"time":95,"velocity":1},{"duration":0.5,"durationTicks":960,"midi":36,"name":"C2","ticks":183360,"time":95.5,"velocity":1},{"duration":0.5,"durationTicks":960,"midi":34,"name":"A#1","ticks":184320,"time":96,"velocity":1},{"duration":0.5,"durationTicks":960,"midi":41,"name":"F2","ticks":185280,"time":96.5,"velocity":1},{"duration":0.5,"durationTicks":960,"midi":33,"name":"A1","ticks":186240,"time":97,"velocity":1},{"duration":0.5,"durationTicks":960,"midi":40,"name":"E2","ticks":187200,"time":97.5,"velocity":1},{"duration":0.5,"durationTicks":960,"midi":38,"name":"D2","ticks":188160,"time":98,"velocity":1},{"duration":0.25,"durationTicks":480,"midi":38,"name":"D2","ticks":189600,"time":98.75,"velocity":1},{"duration":0.5,"durationTicks":960,"midi":35,"name":"B1","ticks":190080,"time":99,"velocity":1},{"duration":0.25,"durationTicks":480,"midi":35,"name":"B1","ticks":191520,"time":99.75,"velocity":1},{"duration":0.5,"durationTicks":960,"midi":38,"name":"D2","ticks":192000,"time":100,"velocity":1},{"duration":0.25,"durationTicks":480,"midi":38,"name":"D2","ticks":193440,"time":100.75,"velocity":1},{"duration":0.5,"durationTicks":960,"midi":35,"name":"B1","ticks":193920,"time":101,"velocity":1},{"duration":0.25,"durationTicks":480,"midi":35,"name":"B1","ticks":195360,"time":101.75,"velocity":1},{"duration":0.5,"durationTicks":960,"midi":38,"name":"D2","ticks":195840,"time":102,"velocity":1},{"duration":0.25,"durationTicks":480,"midi":38,"name":"D2","ticks":197280,"time":102.75,"velocity":1},{"duration":0.5,"durationTicks":960,"midi":35,"name":"B1","ticks":197760,"time":103,"velocity":1},{"duration":0.25,"durationTicks":480,"midi":35,"name":"B1","ticks":199200,"time":103.75,"velocity":1},{"duration":0.5,"durationTicks":960,"midi":38,"name":"D2","ticks":199680,"time":104,"velocity":1},{"duration":0.25,"durationTicks":480,"midi":38,"name":"D2","ticks":201120,"time":104.75,"velocity":1},{"duration":0.5,"durationTicks":960,"midi":47,"name":"B2","ticks":201600,"time":105,"velocity":1},{"duration":0.25,"durationTicks":480,"midi":47,"name":"B2","ticks":202560,"time":105.5,"velocity":1},{"duration":0.25,"durationTicks":480,"midi":45,"name":"A2","ticks":203040,"time":105.75,"velocity":1},{"duration":0.5,"durationTicks":960,"midi":38,"name":"D2","ticks":234240,"time":122,"velocity":1},{"duration":0.25,"durationTicks":480,"midi":38,"name":"D2","ticks":235680,"time":122.75,"velocity":1},{"duration":0.5,"durationTicks":960,"midi":35,"name":"B1","ticks":236160,"time":123,"velocity":1},{"duration":0.25,"durationTicks":480,"midi":35,"name":"B1","ticks":237600,"time":123.75,"velocity":1},{"duration":0.5,"durationTicks":960,"midi":38,"name":"D2","ticks":238080,"time":124,"velocity":1},{"duration":0.25,"durationTicks":480,"midi":38,"name":"D2","ticks":239520,"time":124.75,"velocity":1},{"duration":0.5,"durationTicks":960,"midi":35,"name":"B1","ticks":240000,"time":125,"velocity":1},{"duration":0.25,"durationTicks":480,"midi":35,"name":"B1","ticks":241440,"time":125.75,"velocity":1},{"duration":0.5,"durationTicks":960,"midi":38,"name":"D2","ticks":241920,"time":126,"velocity":1},{"duration":0.25,"durationTicks":480,"midi":38,"name":"D2","ticks":243360,"time":126.75,"velocity":1},{"duration":0.5,"durationTicks":960,"midi":35,"name":"B1","ticks":243840,"time":127,"velocity":1},{"duration":0.25,"durationTicks":480,"midi":35,"name":"B1","ticks":245280,"time":127.75,"velocity":1},{"duration":0.5,"durationTicks":960,"midi":38,"name":"D2","ticks":245760,"time":128,"velocity":1},{"duration":0.25,"durationTicks":480,"midi":38,"name":"D2","ticks":247200,"time":128.75,"velocity":1},{"duration":0.5,"durationTicks":960,"midi":35,"name":"B1","ticks":247680,"time":129,"velocity":1},{"duration":0.25,"durationTicks":480,"midi":35,"name":"B1","ticks":249120,"time":129.75,"velocity":1},{"duration":0.5,"durationTicks":960,"midi":40,"name":"E2","ticks":249600,"time":130,"velocity":1},{"duration":0.25,"durationTicks":480,"midi":40,"name":"E2","ticks":251040,"time":130.75,"velocity":1},{"duration":0.25,"durationTicks":480,"midi":40,"name":"E2","ticks":251520,"time":131,"velocity":1},{"duration":0.25,"durationTicks":480,"midi":42,"name":"F#2","ticks":252000,"time":131.25,"velocity":1},{"duration":0.5,"durationTicks":960,"midi":43,"name":"G2","ticks":252480,"time":131.5,"velocity":1},{"duration":0.75,"durationTicks":1440,"midi":33,"name":"A1","ticks":253440,"time":132,"velocity":1},{"duration":0.25,"durationTicks":480,"midi":33,"name":"A1","ticks":254880,"time":132.75,"velocity":1},{"duration":0.25,"durationTicks":480,"midi":33,"name":"A1","ticks":255360,"time":133,"velocity":1},{"duration":0.25,"durationTicks":480,"midi":35,"name":"B1","ticks":255840,"time":133.25,"velocity":1},{"duration":0.25,"durationTicks":480,"midi":37,"name":"C#2","ticks":256320,"time":133.5,"velocity":1},{"duration":0.25,"durationTicks":480,"midi":33,"name":"A1","ticks":256800,"time":133.75,"velocity":1},{"duration":1.75,"durationTicks":3360,"midi":34,"name":"A#1","ticks":257280,"time":134,"velocity":1},{"duration":0.75,"durationTicks":1440,"midi":46,"name":"A#2","ticks":258720,"time":134.75,"velocity":1},{"duration":0.25,"durationTicks":480,"midi":46,"name":"A#2","ticks":260160,"time":135.5,"velocity":1},{"duration":0.25,"durationTicks":480,"midi":33,"name":"A1","ticks":260640,"time":135.75,"velocity":1},{"duration":0.5,"durationTicks":960,"midi":41,"name":"F2","ticks":261120,"time":136,"velocity":1},{"duration":0.25,"durationTicks":480,"midi":41,"name":"F2","ticks":262560,"time":136.75,"velocity":1},{"duration":0.5,"durationTicks":960,"midi":36,"name":"C2","ticks":263040,"time":137,"velocity":1},{"duration":0.25,"durationTicks":480,"midi":36,"name":"C2","ticks":264480,"time":137.75,"velocity":1},{"duration":0.5,"durationTicks":960,"midi":34,"name":"A#1","ticks":264960,"time":138,"velocity":1},{"duration":0.25,"durationTicks":480,"midi":34,"name":"A#1","ticks":266400,"time":138.75,"velocity":1},{"duration":0.5,"durationTicks":960,"midi":41,"name":"F2","ticks":266880,"time":139,"velocity":1},{"duration":0.25,"durationTicks":480,"midi":41,"name":"F2","ticks":268320,"time":139.75,"velocity":1},{"duration":0.5,"durationTicks":960,"midi":41,"name":"F2","ticks":268800,"time":140,"velocity":1},{"duration":0.25,"durationTicks":480,"midi":41,"name":"F2","ticks":270240,"time":140.75,"velocity":1},{"duration":0.5,"durationTicks":960,"midi":36,"name":"C2","ticks":270720,"time":141,"velocity":1},{"duration":0.25,"durationTicks":480,"midi":36,"name":"C2","ticks":272160,"time":141.75,"velocity":1},{"duration":0.5,"durationTicks":960,"midi":34,"name":"A#1","ticks":272640,"time":142,"velocity":1},{"duration":0.25,"durationTicks":480,"midi":34,"name":"A#1","ticks":274080,"time":142.75,"velocity":1},{"duration":0.5,"durationTicks":960,"midi":41,"name":"F2","ticks":274560,"time":143,"velocity":1},{"duration":0.25,"durationTicks":480,"midi":41,"name":"F2","ticks":275520,"time":143.5,"velocity":1},{"duration":0.25,"durationTicks":480,"midi":36,"name":"C2","ticks":276000,"time":143.75,"velocity":1},{"duration":0.5,"durationTicks":960,"midi":34,"name":"A#1","ticks":276480,"time":144,"velocity":1},{"duration":0.5,"durationTicks":960,"midi":34,"name":"A#1","ticks":277440,"time":144.5,"velocity":1},{"duration":0.5,"durationTicks":960,"midi":36,"name":"C2","ticks":278400,"time":145,"velocity":1},{"duration":0.5,"durationTicks":960,"midi":36,"name":"C2","ticks":279360,"time":145.5,"velocity":1},{"duration":0.5,"durationTicks":960,"midi":41,"name":"F2","ticks":280320,"time":146,"velocity":1},{"duration":0.5,"durationTicks":960,"midi":40,"name":"E2","ticks":281280,"time":146.5,"velocity":1},{"duration":0.5,"durationTicks":960,"midi":38,"name":"D2","ticks":282240,"time":147,"velocity":1},{"duration":0.5,"durationTicks":960,"midi":36,"name":"C2","ticks":283200,"time":147.5,"velocity":1},{"duration":0.5,"durationTicks":960,"midi":34,"name":"A#1","ticks":284160,"time":148,"velocity":1},{"duration":0.5,"durationTicks":960,"midi":41,"name":"F2","ticks":285120,"time":148.5,"velocity":1},{"duration":0.5,"durationTicks":960,"midi":33,"name":"A1","ticks":286080,"time":149,"velocity":1},{"duration":0.5,"durationTicks":960,"midi":40,"name":"E2","ticks":287040,"time":149.5,"velocity":1},{"duration":0.5,"durationTicks":960,"midi":38,"name":"D2","ticks":288000,"time":150,"velocity":1},{"duration":0.25,"durationTicks":480,"midi":38,"name":"D2","ticks":289440,"time":150.75,"velocity":1},{"duration":0.5,"durationTicks":960,"midi":35,"name":"B1","ticks":289920,"time":151,"velocity":1},{"duration":0.25,"durationTicks":480,"midi":35,"name":"B1","ticks":291360,"time":151.75,"velocity":1},{"duration":0.5,"durationTicks":960,"midi":38,"name":"D2","ticks":291840,"time":152,"velocity":1},{"duration":0.25,"durationTicks":480,"midi":38,"name":"D2","ticks":293280,"time":152.75,"velocity":1},{"duration":0.5,"durationTicks":960,"midi":35,"name":"B1","ticks":293760,"time":153,"velocity":1},{"duration":0.25,"durationTicks":480,"midi":35,"name":"B1","ticks":295200,"time":153.75,"velocity":1},{"duration":0.5,"durationTicks":960,"midi":38,"name":"D2","ticks":295680,"time":154,"velocity":1},{"duration":0.25,"durationTicks":480,"midi":38,"name":"D2","ticks":297120,"time":154.75,"velocity":1},{"duration":0.5,"durationTicks":960,"midi":35,"name":"B1","ticks":297600,"time":155,"velocity":1},{"duration":0.25,"durationTicks":480,"midi":35,"name":"B1","ticks":299040,"time":155.75,"velocity":1},{"duration":0.5,"durationTicks":960,"midi":38,"name":"D2","ticks":299520,"time":156,"velocity":1},{"duration":0.25,"durationTicks":480,"midi":38,"name":"D2","ticks":300960,"time":156.75,"velocity":1},{"duration":0.5,"durationTicks":960,"midi":35,"name":"B1","ticks":301440,"time":157,"velocity":1},{"duration":0.25,"durationTicks":480,"midi":35,"name":"B1","ticks":302880,"time":157.75,"velocity":1},{"duration":0.5,"durationTicks":960,"midi":38,"name":"D2","ticks":303360,"time":158,"velocity":1},{"duration":0.25,"durationTicks":480,"midi":38,"name":"D2","ticks":304800,"time":158.75,"velocity":1},{"duration":0.5,"durationTicks":960,"midi":35,"name":"B1","ticks":305280,"time":159,"velocity":1},{"duration":0.25,"durationTicks":480,"midi":35,"name":"B1","ticks":306720,"time":159.75,"velocity":1},{"duration":0.5,"durationTicks":960,"midi":38,"name":"D2","ticks":307200,"time":160,"velocity":1},{"duration":0.25,"durationTicks":480,"midi":38,"name":"D2","ticks":308640,"time":160.75,"velocity":1},{"duration":0.5,"durationTicks":960,"midi":35,"name":"B1","ticks":309120,"time":161,"velocity":1},{"duration":0.25,"durationTicks":480,"midi":35,"name":"B1","ticks":310560,"time":161.75,"velocity":1},{"duration":0.5,"durationTicks":960,"midi":38,"name":"D2","ticks":311040,"time":162,"velocity":1},{"duration":0.25,"durationTicks":480,"midi":38,"name":"D2","ticks":312480,"time":162.75,"velocity":1},{"duration":0.5,"durationTicks":960,"midi":35,"name":"B1","ticks":312960,"time":163,"velocity":1},{"duration":0.25,"durationTicks":480,"midi":35,"name":"B1","ticks":314400,"time":163.75,"velocity":1},{"duration":0.5,"durationTicks":960,"midi":38,"name":"D2","ticks":314880,"time":164,"velocity":1},{"duration":0.25,"durationTicks":480,"midi":38,"name":"D2","ticks":316320,"time":164.75,"velocity":1},{"duration":0.5,"durationTicks":960,"midi":35,"name":"B1","ticks":316800,"time":165,"velocity":1},{"duration":0.25,"durationTicks":480,"midi":35,"name":"B1","ticks":318240,"time":165.75,"velocity":1},{"duration":0.5,"durationTicks":960,"midi":38,"name":"D2","ticks":318720,"time":166,"velocity":1},{"duration":0.25,"durationTicks":480,"midi":38,"name":"D2","ticks":320160,"time":166.75,"velocity":1},{"duration":0.5,"durationTicks":960,"midi":35,"name":"B1","ticks":320640,"time":167,"velocity":1},{"duration":0.25,"durationTicks":480,"midi":35,"name":"B1","ticks":322080,"time":167.75,"velocity":1},{"duration":0.5,"durationTicks":960,"midi":38,"name":"D2","ticks":322560,"time":168,"velocity":1},{"duration":0.25,"durationTicks":480,"midi":38,"name":"D2","ticks":324000,"time":168.75,"velocity":1},{"duration":0.5,"durationTicks":960,"midi":35,"name":"B1","ticks":324480,"time":169,"velocity":1},{"duration":0.25,"durationTicks":480,"midi":35,"name":"B1","ticks":325920,"time":169.75,"velocity":1},{"duration":0.5,"durationTicks":960,"midi":38,"name":"D2","ticks":326400,"time":170,"velocity":1},{"duration":0.25,"durationTicks":480,"midi":38,"name":"D2","ticks":327840,"time":170.75,"velocity":1},{"duration":0.5,"durationTicks":960,"midi":35,"name":"B1","ticks":328320,"time":171,"velocity":1},{"duration":0.25,"durationTicks":480,"midi":35,"name":"B1","ticks":329760,"time":171.75,"velocity":1},{"duration":0.5,"durationTicks":960,"midi":38,"name":"D2","ticks":330240,"time":172,"velocity":1},{"duration":0.25,"durationTicks":480,"midi":38,"name":"D2","ticks":331680,"time":172.75,"velocity":1},{"duration":0.5,"durationTicks":960,"midi":47,"name":"B2","ticks":332160,"time":173,"velocity":1},{"duration":0.25,"durationTicks":480,"midi":47,"name":"B2","ticks":333120,"time":173.5,"velocity":1},{"duration":0.25,"durationTicks":480,"midi":45,"name":"A2","ticks":333600,"time":173.75,"velocity":1}],"endOfTrackTicks":334080},{"channel":0,"controlChanges":{"7":[{"number":7,"ticks":0,"time":0,"value":0.905511811023622}]},"pitchBends":[],"instrument":{"family":"piano","number":0,"name":"acoustic grand piano"},"name":"Lead (square)","notes":[],"endOfTrackTicks":288960},{"channel":7,"controlChanges":{"10":[{"number":10,"ticks":0,"time":0,"value":0.5039370078740157}]},"pitchBends":[],"instrument":{"family":"synth lead","number":80,"name":"lead 1 (square)"},"name":"","notes":[{"duration":0.25,"durationTicks":480,"midi":65,"name":"F4","ticks":160320,"time":83.5,"velocity":1},{"duration":0.25,"durationTicks":480,"midi":67,"name":"G4","ticks":160800,"time":83.75,"velocity":1},{"duration":0.5,"durationTicks":960,"midi":69,"name":"A4","ticks":161280,"time":84,"velocity":1},{"duration":0.5,"durationTicks":960,"midi":72,"name":"C5","ticks":162240,"time":84.5,"velocity":1},{"duration":0.5,"durationTicks":960,"midi":72,"name":"C5","ticks":163200,"time":85,"velocity":1},{"duration":0.25,"durationTicks":480,"midi":70,"name":"A#4","ticks":164160,"time":85.5,"velocity":1},{"duration":0.25,"durationTicks":480,"midi":69,"name":"A4","ticks":164640,"time":85.75,"velocity":1},{"duration":0.25,"durationTicks":480,"midi":70,"name":"A#4","ticks":165120,"time":86,"velocity":1},{"duration":0.25,"durationTicks":480,"midi":69,"name":"A4","ticks":165600,"time":86.25,"velocity":1},{"duration":0.5,"durationTicks":960,"midi":69,"name":"A4","ticks":166080,"time":86.5,"velocity":1},{"duration":0.5,"durationTicks":960,"midi":69,"name":"A4","ticks":167040,"time":87,"velocity":1},{"duration":0.25,"durationTicks":480,"midi":67,"name":"G4","ticks":168000,"time":87.5,"velocity":1},{"duration":0.25,"durationTicks":480,"midi":65,"name":"F4","ticks":168480,"time":87.75,"velocity":1},{"duration":0.5,"durationTicks":960,"midi":65,"name":"F4","ticks":168960,"time":88,"velocity":1},{"duration":0.5,"durationTicks":960,"midi":69,"name":"A4","ticks":169920,"time":88.5,"velocity":1},{"duration":0.25,"durationTicks":480,"midi":70,"name":"A#4","ticks":170880,"time":89,"velocity":1},{"duration":0.25,"durationTicks":480,"midi":69,"name":"A4","ticks":171360,"time":89.25,"velocity":1},{"duration":0.25,"durationTicks":480,"midi":67,"name":"G4","ticks":171840,"time":89.5,"velocity":1},{"duration":0.25,"durationTicks":480,"midi":65,"name":"F4","ticks":172320,"time":89.75,"velocity":1},{"duration":0.25,"durationTicks":480,"midi":65,"name":"F4","ticks":172800,"time":90,"velocity":1},{"duration":0.25,"durationTicks":480,"midi":67,"name":"G4","ticks":173280,"time":90.25,"velocity":1},{"duration":0.5,"durationTicks":960,"midi":69,"name":"A4","ticks":173760,"time":90.5,"velocity":1},{"duration":0.5,"durationTicks":960,"midi":69,"name":"A4","ticks":174720,"time":91,"velocity":1},{"duration":0.25,"durationTicks":480,"midi":70,"name":"A#4","ticks":175680,"time":91.5,"velocity":1},{"duration":0.25,"durationTicks":480,"midi":72,"name":"C5","ticks":176160,"time":91.75,"velocity":1},{"duration":0.25,"durationTicks":480,"midi":74,"name":"D5","ticks":176640,"time":92,"velocity":1},{"duration":0.25,"durationTicks":480,"midi":74,"name":"D5","ticks":177120,"time":92.25,"velocity":1},{"duration":0.5,"durationTicks":960,"midi":72,"name":"C5","ticks":177600,"time":92.5,"velocity":1},{"duration":0.5,"durationTicks":960,"midi":72,"name":"C5","ticks":178560,"time":93,"velocity":1},{"duration":0.25,"durationTicks":480,"midi":69,"name":"A4","ticks":179520,"time":93.5,"velocity":1},{"duration":0.25,"durationTicks":480,"midi":70,"name":"A#4","ticks":180000,"time":93.75,"velocity":1},{"duration":0.25,"durationTicks":480,"midi":72,"name":"C5","ticks":180480,"time":94,"velocity":1},{"duration":0.25,"durationTicks":480,"midi":72,"name":"C5","ticks":180960,"time":94.25,"velocity":1},{"duration":0.5,"durationTicks":960,"midi":70,"name":"A#4","ticks":181440,"time":94.5,"velocity":1},{"duration":0.5,"durationTicks":960,"midi":69,"name":"A4","ticks":182400,"time":95,"velocity":1},{"duration":0.25,"durationTicks":480,"midi":67,"name":"G4","ticks":183360,"time":95.5,"velocity":1},{"duration":0.25,"durationTicks":480,"midi":65,"name":"F4","ticks":183840,"time":95.75,"velocity":1},{"duration":0.25,"durationTicks":480,"midi":65,"name":"F4","ticks":184320,"time":96,"velocity":1},{"duration":0.25,"durationTicks":480,"midi":67,"name":"G4","ticks":184800,"time":96.25,"velocity":1},{"duration":0.25,"durationTicks":480,"midi":69,"name":"A4","ticks":185280,"time":96.5,"velocity":1},{"duration":0.5,"durationTicks":960,"midi":67,"name":"G4","ticks":185760,"time":96.75,"velocity":1},{"duration":0.25,"durationTicks":480,"midi":67,"name":"G4","ticks":186720,"time":97.25,"velocity":1},{"duration":0.25,"durationTicks":480,"midi":69,"name":"A4","ticks":187200,"time":97.5,"velocity":1},{"duration":0.75,"durationTicks":1440,"midi":69,"name":"A4","ticks":187680,"time":97.75,"velocity":1},{"duration":0.25,"durationTicks":480,"midi":65,"name":"F4","ticks":260160,"time":135.5,"velocity":1},{"duration":0.25,"durationTicks":480,"midi":67,"name":"G4","ticks":260640,"time":135.75,"velocity":1},{"duration":0.5,"durationTicks":960,"midi":69,"name":"A4","ticks":261120,"time":136,"velocity":1},{"duration":0.5,"durationTicks":960,"midi":72,"name":"C5","ticks":262080,"time":136.5,"velocity":1},{"duration":0.5,"durationTicks":960,"midi":72,"name":"C5","ticks":263040,"time":137,"velocity":1},{"duration":0.25,"durationTicks":480,"midi":70,"name":"A#4","ticks":264000,"time":137.5,"velocity":1},{"duration":0.25,"durationTicks":480,"midi":69,"name":"A4","ticks":264480,"time":137.75,"velocity":1},{"duration":0.25,"durationTicks":480,"midi":70,"name":"A#4","ticks":264960,"time":138,"velocity":1},{"duration":0.25,"durationTicks":480,"midi":69,"name":"A4","ticks":265440,"time":138.25,"velocity":1},{"duration":0.5,"durationTicks":960,"midi":69,"name":"A4","ticks":265920,"time":138.5,"velocity":1},{"duration":0.5,"durationTicks":960,"midi":69,"name":"A4","ticks":266880,"time":139,"velocity":1},{"duration":0.25,"durationTicks":480,"midi":67,"name":"G4","ticks":267840,"time":139.5,"velocity":1},{"duration":0.25,"durationTicks":480,"midi":65,"name":"F4","ticks":268320,"time":139.75,"velocity":1},{"duration":0.5,"durationTicks":960,"midi":65,"name":"F4","ticks":268800,"time":140,"velocity":1},{"duration":0.5,"durationTicks":960,"midi":69,"name":"A4","ticks":269760,"time":140.5,"velocity":1},{"duration":0.25,"durationTicks":480,"midi":70,"name":"A#4","ticks":270720,"time":141,"velocity":1},{"duration":0.25,"durationTicks":480,"midi":69,"name":"A4","ticks":271200,"time":141.25,"velocity":1},{"duration":0.25,"durationTicks":480,"midi":67,"name":"G4","ticks":271680,"time":141.5,"velocity":1},{"duration":0.25,"durationTicks":480,"midi":65,"name":"F4","ticks":272160,"time":141.75,"velocity":1},{"duration":0.25,"durationTicks":480,"midi":65,"name":"F4","ticks":272640,"time":142,"velocity":1},{"duration":0.25,"durationTicks":480,"midi":67,"name":"G4","ticks":273120,"time":142.25,"velocity":1},{"duration":0.5,"durationTicks":960,"midi":69,"name":"A4","ticks":273600,"time":142.5,"velocity":1},{"duration":0.5,"durationTicks":960,"midi":69,"name":"A4","ticks":274560,"time":143,"velocity":1},{"duration":0.25,"durationTicks":480,"midi":70,"name":"A#4","ticks":275520,"time":143.5,"velocity":1},{"duration":0.25,"durationTicks":480,"midi":72,"name":"C5","ticks":276000,"time":143.75,"velocity":1},{"duration":0.25,"durationTicks":480,"midi":74,"name":"D5","ticks":276480,"time":144,"velocity":1},{"duration":0.25,"durationTicks":480,"midi":74,"name":"D5","ticks":276960,"time":144.25,"velocity":1},{"duration":0.5,"durationTicks":960,"midi":72,"name":"C5","ticks":277440,"time":144.5,"velocity":1},{"duration":0.5,"durationTicks":960,"midi":72,"name":"C5","ticks":278400,"time":145,"velocity":1},{"duration":0.25,"durationTicks":480,"midi":69,"name":"A4","ticks":279360,"time":145.5,"velocity":1},{"duration":0.25,"durationTicks":480,"midi":70,"name":"A#4","ticks":279840,"time":145.75,"velocity":1},{"duration":0.25,"durationTicks":480,"midi":72,"name":"C5","ticks":280320,"time":146,"velocity":1},{"duration":0.25,"durationTicks":480,"midi":72,"name":"C5","ticks":280800,"time":146.25,"velocity":1},{"duration":0.5,"durationTicks":960,"midi":70,"name":"A#4","ticks":281280,"time":146.5,"velocity":1},{"duration":0.5,"durationTicks":960,"midi":69,"name":"A4","ticks":282240,"time":147,"velocity":1},{"duration":0.25,"durationTicks":480,"midi":67,"name":"G4","ticks":283200,"time":147.5,"velocity":1},{"duration":0.25,"durationTicks":480,"midi":65,"name":"F4","ticks":283680,"time":147.75,"velocity":1},{"duration":0.25,"durationTicks":480,"midi":65,"name":"F4","ticks":284160,"time":148,"velocity":1},{"duration":0.25,"durationTicks":480,"midi":67,"name":"G4","ticks":284640,"time":148.25,"velocity":1},{"duration":0.25,"durationTicks":480,"midi":69,"name":"A4","ticks":285120,"time":148.5,"velocity":1},{"duration":0.5,"durationTicks":960,"midi":67,"name":"G4","ticks":285600,"time":148.75,"velocity":1},{"duration":0.25,"durationTicks":480,"midi":67,"name":"G4","ticks":286560,"time":149.25,"velocity":1},{"duration":0.25,"durationTicks":480,"midi":69,"name":"A4","ticks":287040,"time":149.5,"velocity":1},{"duration":0.75,"durationTicks":1440,"midi":69,"name":"A4","ticks":287520,"time":149.75,"velocity":1}]},{"channel":9,"controlChanges":{"7":[{"number":7,"ticks":0,"time":0,"value":0.8031496062992126}],"10":[{"number":10,"ticks":0,"time":0,"value":0.5039370078740157}]},"pitchBends":[],"instrument":{"family":"drums","number":0,"name":"standard kit"},"name":"Drums 1","notes":[{"duration":0.25,"durationTicks":480,"midi":36,"name":"C2","ticks":61440,"time":32,"velocity":1},{"duration":0.25,"durationTicks":480,"midi":36,"name":"C2","ticks":62880,"time":32.75,"velocity":1},{"duration":0.25,"durationTicks":480,"midi":36,"name":"C2","ticks":63360,"time":33,"velocity":1},{"duration":0.25,"durationTicks":480,"midi":36,"name":"C2","ticks":65280,"time":34,"velocity":1},{"duration":0.25,"durationTicks":480,"midi":36,"name":"C2","ticks":66720,"time":34.75,"velocity":1},{"duration":0.25,"durationTicks":480,"midi":36,"name":"C2","ticks":67200,"time":35,"velocity":1},{"duration":0.25,"durationTicks":480,"midi":36,"name":"C2","ticks":69120,"time":36,"velocity":1},{"duration":0.25,"durationTicks":480,"midi":36,"name":"C2","ticks":70560,"time":36.75,"velocity":1},{"duration":0.25,"durationTicks":480,"midi":36,"name":"C2","ticks":71040,"time":37,"velocity":1},{"duration":0.25,"durationTicks":480,"midi":36,"name":"C2","ticks":72960,"time":38,"velocity":1},{"duration":0.25,"durationTicks":480,"midi":36,"name":"C2","ticks":74400,"time":38.75,"velocity":1},{"duration":0.25,"durationTicks":480,"midi":36,"name":"C2","ticks":74880,"time":39,"velocity":1},{"duration":0.25,"durationTicks":480,"midi":36,"name":"C2","ticks":76800,"time":40,"velocity":1},{"duration":0.25,"durationTicks":480,"midi":36,"name":"C2","ticks":78240,"time":40.75,"velocity":1},{"duration":0.25,"durationTicks":480,"midi":36,"name":"C2","ticks":78720,"time":41,"velocity":1},{"duration":0.25,"durationTicks":480,"midi":36,"name":"C2","ticks":80640,"time":42,"velocity":1},{"duration":0.25,"durationTicks":480,"midi":36,"name":"C2","ticks":82080,"time":42.75,"velocity":1},{"duration":0.25,"durationTicks":480,"midi":36,"name":"C2","ticks":82560,"time":43,"velocity":1},{"duration":0.25,"durationTicks":480,"midi":36,"name":"C2","ticks":84480,"time":44,"velocity":1},{"duration":0.25,"durationTicks":480,"midi":36,"name":"C2","ticks":85920,"time":44.75,"velocity":1},{"duration":0.25,"durationTicks":480,"midi":36,"name":"C2","ticks":86400,"time":45,"velocity":1},{"duration":0.25,"durationTicks":480,"midi":57,"name":"A3","ticks":88320,"time":46,"velocity":1},{"duration":0.25,"durationTicks":480,"midi":36,"name":"C2","ticks":88320,"time":46,"velocity":1},{"duration":0.25,"durationTicks":480,"midi":59,"name":"B3","ticks":89280,"time":46.5,"velocity":1},{"duration":0.25,"durationTicks":480,"midi":40,"name":"E2","ticks":89280,"time":46.5,"velocity":1},{"duration":0.25,"durationTicks":480,"midi":36,"name":"C2","ticks":89760,"time":46.75,"velocity":1},{"duration":0.25,"durationTicks":480,"midi":59,"name":"B3","ticks":90240,"time":47,"velocity":1},{"duration":0.25,"durationTicks":480,"midi":36,"name":"C2","ticks":90240,"time":47,"velocity":1},{"duration":0.25,"durationTicks":480,"midi":59,"name":"B3","ticks":91200,"time":47.5,"velocity":1},{"duration":0.25,"durationTicks":480,"midi":40,"name":"E2","ticks":91200,"time":47.5,"velocity":1},{"duration":0.25,"durationTicks":480,"midi":59,"name":"B3","ticks":92160,"time":48,"velocity":1},{"duration":0.25,"durationTicks":480,"midi":36,"name":"C2","ticks":92160,"time":48,"velocity":1},{"duration":0.25,"durationTicks":480,"midi":59,"name":"B3","ticks":93120,"time":48.5,"velocity":1},{"duration":0.25,"durationTicks":480,"midi":40,"name":"E2","ticks":93120,"time":48.5,"velocity":1},{"duration":0.25,"durationTicks":480,"midi":36,"name":"C2","ticks":93600,"time":48.75,"velocity":1},{"duration":0.25,"durationTicks":480,"midi":59,"name":"B3","ticks":94080,"time":49,"velocity":1},{"duration":0.25,"durationTicks":480,"midi":36,"name":"C2","ticks":94080,"time":49,"velocity":1},{"duration":0.25,"durationTicks":480,"midi":59,"name":"B3","ticks":95040,"time":49.5,"velocity":1},{"duration":0.25,"durationTicks":480,"midi":40,"name":"E2","ticks":95040,"time":49.5,"velocity":1},{"duration":0.25,"durationTicks":480,"midi":59,"name":"B3","ticks":96000,"time":50,"velocity":1},{"duration":0.25,"durationTicks":480,"midi":36,"name":"C2","ticks":96000,"time":50,"velocity":1},{"duration":0.25,"durationTicks":480,"midi":59,"name":"B3","ticks":96960,"time":50.5,"velocity":1},{"duration":0.25,"durationTicks":480,"midi":40,"name":"E2","ticks":96960,"time":50.5,"velocity":1},{"duration":0.25,"durationTicks":480,"midi":36,"name":"C2","ticks":97440,"time":50.75,"velocity":1},{"duration":0.25,"durationTicks":480,"midi":59,"name":"B3","ticks":97920,"time":51,"velocity":1},{"duration":0.25,"durationTicks":480,"midi":36,"name":"C2","ticks":97920,"time":51,"velocity":1},{"duration":0.25,"durationTicks":480,"midi":59,"name":"B3","ticks":98880,"time":51.5,"velocity":1},{"duration":0.25,"durationTicks":480,"midi":40,"name":"E2","ticks":98880,"time":51.5,"velocity":1},{"duration":0.25,"durationTicks":480,"midi":59,"name":"B3","ticks":99840,"time":52,"velocity":1},{"duration":0.25,"durationTicks":480,"midi":36,"name":"C2","ticks":99840,"time":52,"velocity":1},{"duration":0.25,"durationTicks":480,"midi":59,"name":"B3","ticks":100800,"time":52.5,"velocity":1},{"duration":0.25,"durationTicks":480,"midi":40,"name":"E2","ticks":100800,"time":52.5,"velocity":1},{"duration":0.25,"durationTicks":480,"midi":36,"name":"C2","ticks":101280,"time":52.75,"velocity":1},{"duration":0.25,"durationTicks":480,"midi":59,"name":"B3","ticks":101760,"time":53,"velocity":1},{"duration":0.25,"durationTicks":480,"midi":36,"name":"C2","ticks":101760,"time":53,"velocity":1},{"duration":0.125,"durationTicks":240,"midi":36,"name":"C2","ticks":102240,"time":53.25,"velocity":1},{"duration":0.125,"durationTicks":240,"midi":36,"name":"C2","ticks":102480,"time":53.375,"velocity":1},{"duration":0.25,"durationTicks":480,"midi":40,"name":"E2","ticks":102720,"time":53.5,"velocity":1},{"duration":0.25,"durationTicks":480,"midi":59,"name":"B3","ticks":102720,"time":53.5,"velocity":1},{"duration":0.5,"durationTicks":960,"midi":57,"name":"A3","ticks":102720,"time":53.5,"velocity":1},{"duration":0.25,"durationTicks":480,"midi":59,"name":"B3","ticks":103680,"time":54,"velocity":1},{"duration":0.25,"durationTicks":480,"midi":36,"name":"C2","ticks":103680,"time":54,"velocity":1},{"duration":0.25,"durationTicks":480,"midi":57,"name":"A3","ticks":103680,"time":54,"velocity":1},{"duration":0.25,"durationTicks":480,"midi":59,"name":"B3","ticks":104640,"time":54.5,"velocity":1},{"duration":0.25,"durationTicks":480,"midi":40,"name":"E2","ticks":104640,"time":54.5,"velocity":1},{"duration":0.25,"durationTicks":480,"midi":36,"name":"C2","ticks":105120,"time":54.75,"velocity":1},{"duration":0.25,"durationTicks":480,"midi":59,"name":"B3","ticks":105600,"time":55,"velocity":1},{"duration":0.25,"durationTicks":480,"midi":36,"name":"C2","ticks":105600,"time":55,"velocity":1},{"duration":0.25,"durationTicks":480,"midi":59,"name":"B3","ticks":106560,"time":55.5,"velocity":1},{"duration":0.25,"durationTicks":480,"midi":40,"name":"E2","ticks":106560,"time":55.5,"velocity":1},{"duration":0.25,"durationTicks":480,"midi":59,"name":"B3","ticks":107520,"time":56,"velocity":1},{"duration":0.25,"durationTicks":480,"midi":36,"name":"C2","ticks":107520,"time":56,"velocity":1},{"duration":0.25,"durationTicks":480,"midi":59,"name":"B3","ticks":108480,"time":56.5,"velocity":1},{"duration":0.25,"durationTicks":480,"midi":40,"name":"E2","ticks":108480,"time":56.5,"velocity":1},{"duration":0.25,"durationTicks":480,"midi":36,"name":"C2","ticks":108960,"time":56.75,"velocity":1},{"duration":0.25,"durationTicks":480,"midi":59,"name":"B3","ticks":109440,"time":57,"velocity":1},{"duration":0.25,"durationTicks":480,"midi":36,"name":"C2","ticks":109440,"time":57,"velocity":1},{"duration":0.25,"durationTicks":480,"midi":59,"name":"B3","ticks":110400,"time":57.5,"velocity":1},{"duration":0.25,"durationTicks":480,"midi":40,"name":"E2","ticks":110400,"time":57.5,"velocity":1},{"duration":0.25,"durationTicks":480,"midi":59,"name":"B3","ticks":111360,"time":58,"velocity":1},{"duration":0.25,"durationTicks":480,"midi":36,"name":"C2","ticks":111360,"time":58,"velocity":1},{"duration":0.25,"durationTicks":480,"midi":59,"name":"B3","ticks":112320,"time":58.5,"velocity":1},{"duration":0.25,"durationTicks":480,"midi":40,"name":"E2","ticks":112320,"time":58.5,"velocity":1},{"duration":0.25,"durationTicks":480,"midi":36,"name":"C2","ticks":112800,"time":58.75,"velocity":1},{"duration":0.25,"durationTicks":480,"midi":59,"name":"B3","ticks":113280,"time":59,"velocity":1},{"duration":0.25,"durationTicks":480,"midi":36,"name":"C2","ticks":113280,"time":59,"velocity":1},{"duration":0.25,"durationTicks":480,"midi":59,"name":"B3","ticks":114240,"time":59.5,"velocity":1},{"duration":0.25,"durationTicks":480,"midi":40,"name":"E2","ticks":114240,"time":59.5,"velocity":1},{"duration":0.25,"durationTicks":480,"midi":59,"name":"B3","ticks":115200,"time":60,"velocity":1},{"duration":0.25,"durationTicks":480,"midi":36,"name":"C2","ticks":115200,"time":60,"velocity":1},{"duration":0.25,"durationTicks":480,"midi":59,"name":"B3","ticks":116160,"time":60.5,"velocity":1},{"duration":0.25,"durationTicks":480,"midi":40,"name":"E2","ticks":116160,"time":60.5,"velocity":1},{"duration":0.25,"durationTicks":480,"midi":36,"name":"C2","ticks":116640,"time":60.75,"velocity":1},{"duration":0.25,"durationTicks":480,"midi":59,"name":"B3","ticks":117120,"time":61,"velocity":1},{"duration":0.25,"durationTicks":480,"midi":36,"name":"C2","ticks":117120,"time":61,"velocity":1},{"duration":0.25,"durationTicks":480,"midi":59,"name":"B3","ticks":118080,"time":61.5,"velocity":1},{"duration":0.25,"durationTicks":480,"midi":40,"name":"E2","ticks":118080,"time":61.5,"velocity":1},{"duration":0.25,"durationTicks":480,"midi":59,"name":"B3","ticks":119040,"time":62,"velocity":1},{"duration":0.25,"durationTicks":480,"midi":36,"name":"C2","ticks":119040,"time":62,"velocity":1},{"duration":0.25,"durationTicks":480,"midi":59,"name":"B3","ticks":120000,"time":62.5,"velocity":1},{"duration":0.25,"durationTicks":480,"midi":40,"name":"E2","ticks":120000,"time":62.5,"velocity":1},{"duration":0.25,"durationTicks":480,"midi":36,"name":"C2","ticks":120480,"time":62.75,"velocity":1},{"duration":0.25,"durationTicks":480,"midi":59,"name":"B3","ticks":120960,"time":63,"velocity":1},{"duration":0.25,"durationTicks":480,"midi":36,"name":"C2","ticks":120960,"time":63,"velocity":1},{"duration":0.25,"durationTicks":480,"midi":59,"name":"B3","ticks":121920,"time":63.5,"velocity":1},{"duration":0.25,"durationTicks":480,"midi":40,"name":"E2","ticks":121920,"time":63.5,"velocity":1},{"duration":0.25,"durationTicks":480,"midi":59,"name":"B3","ticks":122880,"time":64,"velocity":1},{"duration":0.25,"durationTicks":480,"midi":36,"name":"C2","ticks":122880,"time":64,"velocity":1},{"duration":0.25,"durationTicks":480,"midi":59,"name":"B3","ticks":123840,"time":64.5,"velocity":1},{"duration":0.25,"durationTicks":480,"midi":40,"name":"E2","ticks":123840,"time":64.5,"velocity":1},{"duration":0.25,"durationTicks":480,"midi":36,"name":"C2","ticks":124320,"time":64.75,"velocity":1},{"duration":0.25,"durationTicks":480,"midi":59,"name":"B3","ticks":124800,"time":65,"velocity":1},{"duration":0.25,"durationTicks":480,"midi":36,"name":"C2","ticks":124800,"time":65,"velocity":1},{"duration":0.25,"durationTicks":480,"midi":59,"name":"B3","ticks":125760,"time":65.5,"velocity":1},{"duration":0.25,"durationTicks":480,"midi":40,"name":"E2","ticks":125760,"time":65.5,"velocity":1},{"duration":0.25,"durationTicks":480,"midi":59,"name":"B3","ticks":126720,"time":66,"velocity":1},{"duration":0.25,"durationTicks":480,"midi":36,"name":"C2","ticks":126720,"time":66,"velocity":1},{"duration":0.25,"durationTicks":480,"midi":59,"name":"B3","ticks":127680,"time":66.5,"velocity":1},{"duration":0.25,"durationTicks":480,"midi":40,"name":"E2","ticks":127680,"time":66.5,"velocity":1},{"duration":0.25,"durationTicks":480,"midi":36,"name":"C2","ticks":128160,"time":66.75,"velocity":1},{"duration":0.25,"durationTicks":480,"midi":59,"name":"B3","ticks":128640,"time":67,"velocity":1},{"duration":0.25,"durationTicks":480,"midi":36,"name":"C2","ticks":128640,"time":67,"velocity":1},{"duration":0.25,"durationTicks":480,"midi":59,"name":"B3","ticks":129600,"time":67.5,"velocity":1},{"duration":0.25,"durationTicks":480,"midi":40,"name":"E2","ticks":129600,"time":67.5,"velocity":1},{"duration":0.25,"durationTicks":480,"midi":59,"name":"B3","ticks":130560,"time":68,"velocity":1},{"duration":0.25,"durationTicks":480,"midi":36,"name":"C2","ticks":130560,"time":68,"velocity":1},{"duration":0.25,"durationTicks":480,"midi":59,"name":"B3","ticks":131520,"time":68.5,"velocity":1},{"duration":0.25,"durationTicks":480,"midi":40,"name":"E2","ticks":131520,"time":68.5,"velocity":1},{"duration":0.25,"durationTicks":480,"midi":36,"name":"C2","ticks":132000,"time":68.75,"velocity":1},{"duration":0.25,"durationTicks":480,"midi":59,"name":"B3","ticks":132480,"time":69,"velocity":1},{"duration":0.25,"durationTicks":480,"midi":36,"name":"C2","ticks":132480,"time":69,"velocity":1},{"duration":0.125,"durationTicks":240,"midi":36,"name":"C2","ticks":132960,"time":69.25,"velocity":1},{"duration":0.125,"durationTicks":240,"midi":36,"name":"C2","ticks":133200,"time":69.375,"velocity":1},{"duration":0.25,"durationTicks":480,"midi":40,"name":"E2","ticks":133440,"time":69.5,"velocity":1},{"duration":0.25,"durationTicks":480,"midi":59,"name":"B3","ticks":133440,"time":69.5,"velocity":1},{"duration":0.5,"durationTicks":960,"midi":57,"name":"A3","ticks":133440,"time":69.5,"velocity":1},{"duration":0.25,"durationTicks":480,"midi":59,"name":"B3","ticks":134400,"time":70,"velocity":1},{"duration":0.25,"durationTicks":480,"midi":36,"name":"C2","ticks":134400,"time":70,"velocity":1},{"duration":0.25,"durationTicks":480,"midi":57,"name":"A3","ticks":134400,"time":70,"velocity":1},{"duration":0.25,"durationTicks":480,"midi":59,"name":"B3","ticks":135360,"time":70.5,"velocity":1},{"duration":0.25,"durationTicks":480,"midi":40,"name":"E2","ticks":135360,"time":70.5,"velocity":1},{"duration":0.25,"durationTicks":480,"midi":36,"name":"C2","ticks":135840,"time":70.75,"velocity":1},{"duration":0.25,"durationTicks":480,"midi":59,"name":"B3","ticks":136320,"time":71,"velocity":1},{"duration":0.25,"durationTicks":480,"midi":36,"name":"C2","ticks":136320,"time":71,"velocity":1},{"duration":0.25,"durationTicks":480,"midi":59,"name":"B3","ticks":137280,"time":71.5,"velocity":1},{"duration":0.25,"durationTicks":480,"midi":40,"name":"E2","ticks":137280,"time":71.5,"velocity":1},{"duration":0.25,"durationTicks":480,"midi":59,"name":"B3","ticks":138240,"time":72,"velocity":1},{"duration":0.25,"durationTicks":480,"midi":36,"name":"C2","ticks":138240,"time":72,"velocity":1},{"duration":0.25,"durationTicks":480,"midi":59,"name":"B3","ticks":139200,"time":72.5,"velocity":1},{"duration":0.25,"durationTicks":480,"midi":40,"name":"E2","ticks":139200,"time":72.5,"velocity":1},{"duration":0.25,"durationTicks":480,"midi":36,"name":"C2","ticks":139680,"time":72.75,"velocity":1},{"duration":0.25,"durationTicks":480,"midi":59,"name":"B3","ticks":140160,"time":73,"velocity":1},{"duration":0.25,"durationTicks":480,"midi":36,"name":"C2","ticks":140160,"time":73,"velocity":1},{"duration":0.25,"durationTicks":480,"midi":59,"name":"B3","ticks":141120,"time":73.5,"velocity":1},{"duration":0.25,"durationTicks":480,"midi":40,"name":"E2","ticks":141120,"time":73.5,"velocity":1},{"duration":0.25,"durationTicks":480,"midi":59,"name":"B3","ticks":142080,"time":74,"velocity":1},{"duration":0.25,"durationTicks":480,"midi":36,"name":"C2","ticks":142080,"time":74,"velocity":1},{"duration":0.25,"durationTicks":480,"midi":59,"name":"B3","ticks":143040,"time":74.5,"velocity":1},{"duration":0.25,"durationTicks":480,"midi":40,"name":"E2","ticks":143040,"time":74.5,"velocity":1},{"duration":0.25,"durationTicks":480,"midi":36,"name":"C2","ticks":143520,"time":74.75,"velocity":1},{"duration":0.25,"durationTicks":480,"midi":59,"name":"B3","ticks":144000,"time":75,"velocity":1},{"duration":0.25,"durationTicks":480,"midi":36,"name":"C2","ticks":144000,"time":75,"velocity":1},{"duration":0.25,"durationTicks":480,"midi":59,"name":"B3","ticks":144960,"time":75.5,"velocity":1},{"duration":0.25,"durationTicks":480,"midi":40,"name":"E2","ticks":144960,"time":75.5,"velocity":1},{"duration":0.25,"durationTicks":480,"midi":59,"name":"B3","ticks":145920,"time":76,"velocity":1},{"duration":0.25,"durationTicks":480,"midi":36,"name":"C2","ticks":145920,"time":76,"velocity":1},{"duration":0.25,"durationTicks":480,"midi":59,"name":"B3","ticks":146880,"time":76.5,"velocity":1},{"duration":0.25,"durationTicks":480,"midi":40,"name":"E2","ticks":146880,"time":76.5,"velocity":1},{"duration":0.25,"durationTicks":480,"midi":36,"name":"C2","ticks":147360,"time":76.75,"velocity":1},{"duration":0.25,"durationTicks":480,"midi":59,"name":"B3","ticks":147840,"time":77,"velocity":1},{"duration":0.25,"durationTicks":480,"midi":36,"name":"C2","ticks":147840,"time":77,"velocity":1},{"duration":0.25,"durationTicks":480,"midi":59,"name":"B3","ticks":148800,"time":77.5,"velocity":1},{"duration":0.25,"durationTicks":480,"midi":40,"name":"E2","ticks":148800,"time":77.5,"velocity":1},{"duration":0.25,"durationTicks":480,"midi":59,"name":"B3","ticks":149760,"time":78,"velocity":1},{"duration":0.25,"durationTicks":480,"midi":36,"name":"C2","ticks":149760,"time":78,"velocity":1},{"duration":0.25,"durationTicks":480,"midi":59,"name":"B3","ticks":150720,"time":78.5,"velocity":1},{"duration":0.25,"durationTicks":480,"midi":40,"name":"E2","ticks":150720,"time":78.5,"velocity":1},{"duration":0.25,"durationTicks":480,"midi":36,"name":"C2","ticks":151200,"time":78.75,"velocity":1},{"duration":0.25,"durationTicks":480,"midi":59,"name":"B3","ticks":151680,"time":79,"velocity":1},{"duration":0.25,"durationTicks":480,"midi":36,"name":"C2","ticks":151680,"time":79,"velocity":1},{"duration":0.25,"durationTicks":480,"midi":59,"name":"B3","ticks":152640,"time":79.5,"velocity":1},{"duration":0.25,"durationTicks":480,"midi":40,"name":"E2","ticks":152640,"time":79.5,"velocity":1},{"duration":0.25,"durationTicks":480,"midi":59,"name":"B3","ticks":153600,"time":80,"velocity":1},{"duration":0.25,"durationTicks":480,"midi":36,"name":"C2","ticks":153600,"time":80,"velocity":1},{"duration":0.25,"durationTicks":480,"midi":59,"name":"B3","ticks":154560,"time":80.5,"velocity":1},{"duration":0.25,"durationTicks":480,"midi":40,"name":"E2","ticks":154560,"time":80.5,"velocity":1},{"duration":0.25,"durationTicks":480,"midi":36,"name":"C2","ticks":155040,"time":80.75,"velocity":1},{"duration":0.25,"durationTicks":480,"midi":59,"name":"B3","ticks":155520,"time":81,"velocity":1},{"duration":0.25,"durationTicks":480,"midi":36,"name":"C2","ticks":155520,"time":81,"velocity":1},{"duration":0.25,"durationTicks":480,"midi":59,"name":"B3","ticks":156480,"time":81.5,"velocity":1},{"duration":0.25,"durationTicks":480,"midi":40,"name":"E2","ticks":156480,"time":81.5,"velocity":1},{"duration":0.25,"durationTicks":480,"midi":59,"name":"B3","ticks":157440,"time":82,"velocity":1},{"duration":0.25,"durationTicks":480,"midi":36,"name":"C2","ticks":157440,"time":82,"velocity":1},{"duration":0.25,"durationTicks":480,"midi":59,"name":"B3","ticks":158400,"time":82.5,"velocity":1},{"duration":0.25,"durationTicks":480,"midi":40,"name":"E2","ticks":158400,"time":82.5,"velocity":1},{"duration":0.25,"durationTicks":480,"midi":36,"name":"C2","ticks":158880,"time":82.75,"velocity":1},{"duration":0.25,"durationTicks":480,"midi":59,"name":"B3","ticks":159360,"time":83,"velocity":1},{"duration":0.25,"durationTicks":480,"midi":36,"name":"C2","ticks":159360,"time":83,"velocity":1},{"duration":0.25,"durationTicks":480,"midi":59,"name":"B3","ticks":160320,"time":83.5,"velocity":1},{"duration":0.25,"durationTicks":480,"midi":40,"name":"E2","ticks":160320,"time":83.5,"velocity":1},{"duration":0.25,"durationTicks":480,"midi":36,"name":"C2","ticks":161280,"time":84,"velocity":1},{"duration":0.25,"durationTicks":480,"midi":57,"name":"A3","ticks":161280,"time":84,"velocity":1},{"duration":0.25,"durationTicks":480,"midi":36,"name":"C2","ticks":161760,"time":84.25,"velocity":1},{"duration":0.25,"durationTicks":480,"midi":40,"name":"E2","ticks":162240,"time":84.5,"velocity":1},{"duration":0.25,"durationTicks":480,"midi":59,"name":"B3","ticks":162240,"time":84.5,"velocity":1},{"duration":0.25,"durationTicks":480,"midi":36,"name":"C2","ticks":162720,"time":84.75,"velocity":1},{"duration":0.25,"durationTicks":480,"midi":36,"name":"C2","ticks":163200,"time":85,"velocity":1},{"duration":0.25,"durationTicks":480,"midi":59,"name":"B3","ticks":163200,"time":85,"velocity":1},{"duration":0.25,"durationTicks":480,"midi":36,"name":"C2","ticks":163680,"time":85.25,"velocity":1},{"duration":0.25,"durationTicks":480,"midi":40,"name":"E2","ticks":164160,"time":85.5,"velocity":1},{"duration":0.25,"durationTicks":480,"midi":59,"name":"B3","ticks":164160,"time":85.5,"velocity":1},{"duration":0.25,"durationTicks":480,"midi":36,"name":"C2","ticks":164640,"time":85.75,"velocity":1},{"duration":0.25,"durationTicks":480,"midi":36,"name":"C2","ticks":165120,"time":86,"velocity":1},{"duration":0.25,"durationTicks":480,"midi":59,"name":"B3","ticks":165120,"time":86,"velocity":1},{"duration":0.25,"durationTicks":480,"midi":36,"name":"C2","ticks":165600,"time":86.25,"velocity":1},{"duration":0.25,"durationTicks":480,"midi":40,"name":"E2","ticks":166080,"time":86.5,"velocity":1},{"duration":0.25,"durationTicks":480,"midi":59,"name":"B3","ticks":166080,"time":86.5,"velocity":1},{"duration":0.25,"durationTicks":480,"midi":36,"name":"C2","ticks":166560,"time":86.75,"velocity":1},{"duration":0.25,"durationTicks":480,"midi":36,"name":"C2","ticks":167040,"time":87,"velocity":1},{"duration":0.25,"durationTicks":480,"midi":59,"name":"B3","ticks":167040,"time":87,"velocity":1},{"duration":0.25,"durationTicks":480,"midi":36,"name":"C2","ticks":167520,"time":87.25,"velocity":1},{"duration":0.25,"durationTicks":480,"midi":40,"name":"E2","ticks":168000,"time":87.5,"velocity":1},{"duration":0.25,"durationTicks":480,"midi":59,"name":"B3","ticks":168000,"time":87.5,"velocity":1},{"duration":0.25,"durationTicks":480,"midi":36,"name":"C2","ticks":168480,"time":87.75,"velocity":1},{"duration":0.25,"durationTicks":480,"midi":36,"name":"C2","ticks":168960,"time":88,"velocity":1},{"duration":0.25,"durationTicks":480,"midi":59,"name":"B3","ticks":168960,"time":88,"velocity":1},{"duration":0.25,"durationTicks":480,"midi":36,"name":"C2","ticks":169440,"time":88.25,"velocity":1},{"duration":0.25,"durationTicks":480,"midi":40,"name":"E2","ticks":169920,"time":88.5,"velocity":1},{"duration":0.25,"durationTicks":480,"midi":59,"name":"B3","ticks":169920,"time":88.5,"velocity":1},{"duration":0.25,"durationTicks":480,"midi":36,"name":"C2","ticks":170400,"time":88.75,"velocity":1},{"duration":0.25,"durationTicks":480,"midi":36,"name":"C2","ticks":170880,"time":89,"velocity":1},{"duration":0.25,"durationTicks":480,"midi":59,"name":"B3","ticks":170880,"time":89,"velocity":1},{"duration":0.25,"durationTicks":480,"midi":36,"name":"C2","ticks":171360,"time":89.25,"velocity":1},{"duration":0.25,"durationTicks":480,"midi":40,"name":"E2","ticks":171840,"time":89.5,"velocity":1},{"duration":0.25,"durationTicks":480,"midi":59,"name":"B3","ticks":171840,"time":89.5,"velocity":1},{"duration":0.25,"durationTicks":480,"midi":36,"name":"C2","ticks":172320,"time":89.75,"velocity":1},{"duration":0.25,"durationTicks":480,"midi":36,"name":"C2","ticks":172800,"time":90,"velocity":1},{"duration":0.25,"durationTicks":480,"midi":59,"name":"B3","ticks":172800,"time":90,"velocity":1},{"duration":0.25,"durationTicks":480,"midi":36,"name":"C2","ticks":173280,"time":90.25,"velocity":1},{"duration":0.25,"durationTicks":480,"midi":40,"name":"E2","ticks":173760,"time":90.5,"velocity":1},{"duration":0.25,"durationTicks":480,"midi":59,"name":"B3","ticks":173760,"time":90.5,"velocity":1},{"duration":0.25,"durationTicks":480,"midi":36,"name":"C2","ticks":174240,"time":90.75,"velocity":1},{"duration":0.25,"durationTicks":480,"midi":36,"name":"C2","ticks":174720,"time":91,"velocity":1},{"duration":0.25,"durationTicks":480,"midi":59,"name":"B3","ticks":174720,"time":91,"velocity":1},{"duration":0.25,"durationTicks":480,"midi":36,"name":"C2","ticks":175200,"time":91.25,"velocity":1},{"duration":0.25,"durationTicks":480,"midi":38,"name":"D2","ticks":175680,"time":91.5,"velocity":1},{"duration":0.25,"durationTicks":480,"midi":59,"name":"B3","ticks":175680,"time":91.5,"velocity":1},{"duration":0.25,"durationTicks":480,"midi":40,"name":"E2","ticks":175740,"time":91.53125,"velocity":1},{"duration":0.125,"durationTicks":240,"midi":36,"name":"C2","ticks":176160,"time":91.75,"velocity":1},{"duration":0.125,"durationTicks":240,"midi":40,"name":"E2","ticks":176400,"time":91.875,"velocity":1},{"duration":0.25,"durationTicks":480,"midi":36,"name":"C2","ticks":176640,"time":92,"velocity":1},{"duration":0.25,"durationTicks":480,"midi":57,"name":"A3","ticks":176640,"time":92,"velocity":1},{"duration":0.25,"durationTicks":480,"midi":36,"name":"C2","ticks":177120,"time":92.25,"velocity":1},{"duration":0.25,"durationTicks":480,"midi":59,"name":"B3","ticks":177600,"time":92.5,"velocity":1},{"duration":0.25,"durationTicks":480,"midi":40,"name":"E2","ticks":177600,"time":92.5,"velocity":1},{"duration":0.25,"durationTicks":480,"midi":36,"name":"C2","ticks":178080,"time":92.75,"velocity":1},{"duration":0.25,"durationTicks":480,"midi":59,"name":"B3","ticks":178560,"time":93,"velocity":1},{"duration":0.25,"durationTicks":480,"midi":36,"name":"C2","ticks":178560,"time":93,"velocity":1},{"duration":0.25,"durationTicks":480,"midi":36,"name":"C2","ticks":179040,"time":93.25,"velocity":1},{"duration":0.25,"durationTicks":480,"midi":59,"name":"B3","ticks":179520,"time":93.5,"velocity":1},{"duration":0.25,"durationTicks":480,"midi":40,"name":"E2","ticks":179520,"time":93.5,"velocity":1},{"duration":0.25,"durationTicks":480,"midi":36,"name":"C2","ticks":180000,"time":93.75,"velocity":1},{"duration":0.25,"durationTicks":480,"midi":59,"name":"B3","ticks":180480,"time":94,"velocity":1},{"duration":0.25,"durationTicks":480,"midi":36,"name":"C2","ticks":180480,"time":94,"velocity":1},{"duration":0.25,"durationTicks":480,"midi":36,"name":"C2","ticks":180960,"time":94.25,"velocity":1},{"duration":0.25,"durationTicks":480,"midi":59,"name":"B3","ticks":181440,"time":94.5,"velocity":1},{"duration":0.25,"durationTicks":480,"midi":40,"name":"E2","ticks":181440,"time":94.5,"velocity":1},{"duration":0.25,"durationTicks":480,"midi":36,"name":"C2","ticks":181920,"time":94.75,"velocity":1},{"duration":0.25,"durationTicks":480,"midi":59,"name":"B3","ticks":182400,"time":95,"velocity":1},{"duration":0.25,"durationTicks":480,"midi":36,"name":"C2","ticks":182400,"time":95,"velocity":1},{"duration":0.25,"durationTicks":480,"midi":36,"name":"C2","ticks":182880,"time":95.25,"velocity":1},{"duration":0.25,"durationTicks":480,"midi":59,"name":"B3","ticks":183360,"time":95.5,"velocity":1},{"duration":0.25,"durationTicks":480,"midi":40,"name":"E2","ticks":183360,"time":95.5,"velocity":1},{"duration":0.25,"durationTicks":480,"midi":36,"name":"C2","ticks":183840,"time":95.75,"velocity":1},{"duration":0.25,"durationTicks":480,"midi":59,"name":"B3","ticks":184320,"time":96,"velocity":1},{"duration":0.25,"durationTicks":480,"midi":36,"name":"C2","ticks":184320,"time":96,"velocity":1},{"duration":0.25,"durationTicks":480,"midi":36,"name":"C2","ticks":184800,"time":96.25,"velocity":1},{"duration":0.25,"durationTicks":480,"midi":59,"name":"B3","ticks":185280,"time":96.5,"velocity":1},{"duration":0.25,"durationTicks":480,"midi":40,"name":"E2","ticks":185280,"time":96.5,"velocity":1},{"duration":0.25,"durationTicks":480,"midi":36,"name":"C2","ticks":185760,"time":96.75,"velocity":1},{"duration":0.125,"durationTicks":240,"midi":40,"name":"E2","ticks":186240,"time":97,"velocity":1},{"duration":0.25,"durationTicks":480,"midi":59,"name":"B3","ticks":186240,"time":97,"velocity":1},{"duration":0.125,"durationTicks":240,"midi":40,"name":"E2","ticks":186480,"time":97.125,"velocity":1},{"duration":0.25,"durationTicks":480,"midi":36,"name":"C2","ticks":186720,"time":97.25,"velocity":1},{"duration":0.25,"durationTicks":480,"midi":59,"name":"B3","ticks":187200,"time":97.5,"velocity":1},{"duration":0.25,"durationTicks":480,"midi":40,"name":"E2","ticks":187200,"time":97.5,"velocity":1},{"duration":0.125,"durationTicks":240,"midi":40,"name":"E2","ticks":187680,"time":97.75,"velocity":1},{"duration":0.125,"durationTicks":240,"midi":36,"name":"C2","ticks":187680,"time":97.75,"velocity":1},{"duration":0.125,"durationTicks":240,"midi":40,"name":"E2","ticks":187920,"time":97.875,"velocity":1},{"duration":0.25,"durationTicks":480,"midi":36,"name":"C2","ticks":188160,"time":98,"velocity":1},{"duration":0.25,"durationTicks":480,"midi":57,"name":"A3","ticks":188160,"time":98,"velocity":1},{"duration":0.25,"durationTicks":480,"midi":40,"name":"E2","ticks":189120,"time":98.5,"velocity":1},{"duration":0.25,"durationTicks":480,"midi":59,"name":"B3","ticks":189120,"time":98.5,"velocity":1},{"duration":0.25,"durationTicks":480,"midi":36,"name":"C2","ticks":189600,"time":98.75,"velocity":1},{"duration":0.25,"durationTicks":480,"midi":36,"name":"C2","ticks":190080,"time":99,"velocity":1},{"duration":0.25,"durationTicks":480,"midi":59,"name":"B3","ticks":190080,"time":99,"velocity":1},{"duration":0.25,"durationTicks":480,"midi":40,"name":"E2","ticks":191040,"time":99.5,"velocity":1},{"duration":0.25,"durationTicks":480,"midi":59,"name":"B3","ticks":191040,"time":99.5,"velocity":1},{"duration":0.25,"durationTicks":480,"midi":59,"name":"B3","ticks":192000,"time":100,"velocity":1},{"duration":0.25,"durationTicks":480,"midi":36,"name":"C2","ticks":192000,"time":100,"velocity":1},{"duration":0.25,"durationTicks":480,"midi":59,"name":"B3","ticks":192960,"time":100.5,"velocity":1},{"duration":0.25,"durationTicks":480,"midi":40,"name":"E2","ticks":192960,"time":100.5,"velocity":1},{"duration":0.25,"durationTicks":480,"midi":36,"name":"C2","ticks":193440,"time":100.75,"velocity":1},{"duration":0.25,"durationTicks":480,"midi":59,"name":"B3","ticks":193920,"time":101,"velocity":1},{"duration":0.25,"durationTicks":480,"midi":36,"name":"C2","ticks":193920,"time":101,"velocity":1},{"duration":0.25,"durationTicks":480,"midi":59,"name":"B3","ticks":194880,"time":101.5,"velocity":1},{"duration":0.25,"durationTicks":480,"midi":40,"name":"E2","ticks":194880,"time":101.5,"velocity":1},{"duration":0.25,"durationTicks":480,"midi":59,"name":"B3","ticks":195840,"time":102,"velocity":1},{"duration":0.25,"durationTicks":480,"midi":36,"name":"C2","ticks":195840,"time":102,"velocity":1},{"duration":0.25,"durationTicks":480,"midi":59,"name":"B3","ticks":196800,"time":102.5,"velocity":1},{"duration":0.25,"durationTicks":480,"midi":40,"name":"E2","ticks":196800,"time":102.5,"velocity":1},{"duration":0.25,"durationTicks":480,"midi":36,"name":"C2","ticks":197280,"time":102.75,"velocity":1},{"duration":0.25,"durationTicks":480,"midi":59,"name":"B3","ticks":197760,"time":103,"velocity":1},{"duration":0.25,"durationTicks":480,"midi":36,"name":"C2","ticks":197760,"time":103,"velocity":1},{"duration":0.25,"durationTicks":480,"midi":59,"name":"B3","ticks":198720,"time":103.5,"velocity":1},{"duration":0.25,"durationTicks":480,"midi":40,"name":"E2","ticks":198720,"time":103.5,"velocity":1},{"duration":0.25,"durationTicks":480,"midi":59,"name":"B3","ticks":199680,"time":104,"velocity":1},{"duration":0.25,"durationTicks":480,"midi":36,"name":"C2","ticks":199680,"time":104,"velocity":1},{"duration":0.25,"durationTicks":480,"midi":59,"name":"B3","ticks":200640,"time":104.5,"velocity":1},{"duration":0.25,"durationTicks":480,"midi":40,"name":"E2","ticks":200640,"time":104.5,"velocity":1},{"duration":0.25,"durationTicks":480,"midi":36,"name":"C2","ticks":201120,"time":104.75,"velocity":1},{"duration":0.25,"durationTicks":480,"midi":59,"name":"B3","ticks":201600,"time":105,"velocity":1},{"duration":0.25,"durationTicks":480,"midi":36,"name":"C2","ticks":201600,"time":105,"velocity":1},{"duration":0.25,"durationTicks":480,"midi":59,"name":"B3","ticks":202560,"time":105.5,"velocity":1},{"duration":0.25,"durationTicks":480,"midi":40,"name":"E2","ticks":202560,"time":105.5,"velocity":1},{"duration":0.25,"durationTicks":480,"midi":36,"name":"C2","ticks":232800,"time":121.25,"velocity":1},{"duration":0.125,"durationTicks":240,"midi":38,"name":"D2","ticks":233280,"time":121.5,"velocity":1},{"duration":0.125,"durationTicks":240,"midi":40,"name":"E2","ticks":233310,"time":121.515625,"velocity":1},{"duration":0.125,"durationTicks":240,"midi":38,"name":"D2","ticks":234000,"time":121.875,"velocity":1},{"duration":0.125,"durationTicks":240,"midi":40,"name":"E2","ticks":234000,"time":121.875,"velocity":1},{"duration":0.25,"durationTicks":480,"midi":57,"name":"A3","ticks":234240,"time":122,"velocity":1},{"duration":0.25,"durationTicks":480,"midi":36,"name":"C2","ticks":234240,"time":122,"velocity":1},{"duration":0.25,"durationTicks":480,"midi":59,"name":"B3","ticks":235200,"time":122.5,"velocity":1},{"duration":0.25,"durationTicks":480,"midi":40,"name":"E2","ticks":235200,"time":122.5,"velocity":1},{"duration":0.25,"durationTicks":480,"midi":36,"name":"C2","ticks":235680,"time":122.75,"velocity":1},{"duration":0.25,"durationTicks":480,"midi":59,"name":"B3","ticks":236160,"time":123,"velocity":1},{"duration":0.25,"durationTicks":480,"midi":36,"name":"C2","ticks":236160,"time":123,"velocity":1},{"duration":0.25,"durationTicks":480,"midi":59,"name":"B3","ticks":237120,"time":123.5,"velocity":1},{"duration":0.25,"durationTicks":480,"midi":40,"name":"E2","ticks":237120,"time":123.5,"velocity":1},{"duration":0.25,"durationTicks":480,"midi":59,"name":"B3","ticks":238080,"time":124,"velocity":1},{"duration":0.25,"durationTicks":480,"midi":36,"name":"C2","ticks":238080,"time":124,"velocity":1},{"duration":0.25,"durationTicks":480,"midi":59,"name":"B3","ticks":239040,"time":124.5,"velocity":1},{"duration":0.25,"durationTicks":480,"midi":40,"name":"E2","ticks":239040,"time":124.5,"velocity":1},{"duration":0.25,"durationTicks":480,"midi":36,"name":"C2","ticks":239520,"time":124.75,"velocity":1},{"duration":0.25,"durationTicks":480,"midi":59,"name":"B3","ticks":240000,"time":125,"velocity":1},{"duration":0.25,"durationTicks":480,"midi":36,"name":"C2","ticks":240000,"time":125,"velocity":1},{"duration":0.25,"durationTicks":480,"midi":59,"name":"B3","ticks":240960,"time":125.5,"velocity":1},{"duration":0.25,"durationTicks":480,"midi":40,"name":"E2","ticks":240960,"time":125.5,"velocity":1},{"duration":0.25,"durationTicks":480,"midi":59,"name":"B3","ticks":241920,"time":126,"velocity":1},{"duration":0.25,"durationTicks":480,"midi":36,"name":"C2","ticks":241920,"time":126,"velocity":1},{"duration":0.25,"durationTicks":480,"midi":59,"name":"B3","ticks":242880,"time":126.5,"velocity":1},{"duration":0.25,"durationTicks":480,"midi":40,"name":"E2","ticks":242880,"time":126.5,"velocity":1},{"duration":0.25,"durationTicks":480,"midi":36,"name":"C2","ticks":243360,"time":126.75,"velocity":1},{"duration":0.25,"durationTicks":480,"midi":59,"name":"B3","ticks":243840,"time":127,"velocity":1},{"duration":0.25,"durationTicks":480,"midi":36,"name":"C2","ticks":243840,"time":127,"velocity":1},{"duration":0.25,"durationTicks":480,"midi":59,"name":"B3","ticks":244800,"time":127.5,"velocity":1},{"duration":0.25,"durationTicks":480,"midi":40,"name":"E2","ticks":244800,"time":127.5,"velocity":1},{"duration":0.25,"durationTicks":480,"midi":59,"name":"B3","ticks":245760,"time":128,"velocity":1},{"duration":0.25,"durationTicks":480,"midi":36,"name":"C2","ticks":245760,"time":128,"velocity":1},{"duration":0.25,"durationTicks":480,"midi":59,"name":"B3","ticks":246720,"time":128.5,"velocity":1},{"duration":0.25,"durationTicks":480,"midi":40,"name":"E2","ticks":246720,"time":128.5,"velocity":1},{"duration":0.25,"durationTicks":480,"midi":36,"name":"C2","ticks":247200,"time":128.75,"velocity":1},{"duration":0.25,"durationTicks":480,"midi":59,"name":"B3","ticks":247680,"time":129,"velocity":1},{"duration":0.25,"durationTicks":480,"midi":36,"name":"C2","ticks":247680,"time":129,"velocity":1},{"duration":0.25,"durationTicks":480,"midi":59,"name":"B3","ticks":248640,"time":129.5,"velocity":1},{"duration":0.25,"durationTicks":480,"midi":40,"name":"E2","ticks":248640,"time":129.5,"velocity":1},{"duration":0.25,"durationTicks":480,"midi":59,"name":"B3","ticks":249600,"time":130,"velocity":1},{"duration":0.25,"durationTicks":480,"midi":36,"name":"C2","ticks":249600,"time":130,"velocity":1},{"duration":0.25,"durationTicks":480,"midi":59,"name":"B3","ticks":250560,"time":130.5,"velocity":1},{"duration":0.25,"durationTicks":480,"midi":40,"name":"E2","ticks":250560,"time":130.5,"velocity":1},{"duration":0.25,"durationTicks":480,"midi":36,"name":"C2","ticks":251040,"time":130.75,"velocity":1},{"duration":0.25,"durationTicks":480,"midi":59,"name":"B3","ticks":251520,"time":131,"velocity":1},{"duration":0.25,"durationTicks":480,"midi":36,"name":"C2","ticks":251520,"time":131,"velocity":1},{"duration":0.25,"durationTicks":480,"midi":59,"name":"B3","ticks":252480,"time":131.5,"velocity":1},{"duration":0.25,"durationTicks":480,"midi":40,"name":"E2","ticks":252480,"time":131.5,"velocity":1},{"duration":0.25,"durationTicks":480,"midi":59,"name":"B3","ticks":253440,"time":132,"velocity":1},{"duration":0.25,"durationTicks":480,"midi":36,"name":"C2","ticks":253440,"time":132,"velocity":1},{"duration":0.25,"durationTicks":480,"midi":59,"name":"B3","ticks":254400,"time":132.5,"velocity":1},{"duration":0.25,"durationTicks":480,"midi":40,"name":"E2","ticks":254400,"time":132.5,"velocity":1},{"duration":0.25,"durationTicks":480,"midi":36,"name":"C2","ticks":254880,"time":132.75,"velocity":1},{"duration":0.25,"durationTicks":480,"midi":59,"name":"B3","ticks":255360,"time":133,"velocity":1},{"duration":0.25,"durationTicks":480,"midi":36,"name":"C2","ticks":255360,"time":133,"velocity":1},{"duration":0.25,"durationTicks":480,"midi":59,"name":"B3","ticks":256320,"time":133.5,"velocity":1},{"duration":0.25,"durationTicks":480,"midi":40,"name":"E2","ticks":256320,"time":133.5,"velocity":1},{"duration":0.25,"durationTicks":480,"midi":59,"name":"B3","ticks":257280,"time":134,"velocity":1},{"duration":0.25,"durationTicks":480,"midi":36,"name":"C2","ticks":257280,"time":134,"velocity":1},{"duration":0.25,"durationTicks":480,"midi":59,"name":"B3","ticks":258240,"time":134.5,"velocity":1},{"duration":0.25,"durationTicks":480,"midi":40,"name":"E2","ticks":258240,"time":134.5,"velocity":1},{"duration":0.25,"durationTicks":480,"midi":36,"name":"C2","ticks":258720,"time":134.75,"velocity":1},{"duration":0.25,"durationTicks":480,"midi":59,"name":"B3","ticks":259200,"time":135,"velocity":1},{"duration":0.25,"durationTicks":480,"midi":36,"name":"C2","ticks":259200,"time":135,"velocity":1},{"duration":0.25,"durationTicks":480,"midi":59,"name":"B3","ticks":260160,"time":135.5,"velocity":1},{"duration":0.25,"durationTicks":480,"midi":40,"name":"E2","ticks":260160,"time":135.5,"velocity":1},{"duration":0.25,"durationTicks":480,"midi":36,"name":"C2","ticks":261120,"time":136,"velocity":1},{"duration":0.25,"durationTicks":480,"midi":57,"name":"A3","ticks":261120,"time":136,"velocity":1},{"duration":0.25,"durationTicks":480,"midi":36,"name":"C2","ticks":261600,"time":136.25,"velocity":1},{"duration":0.25,"durationTicks":480,"midi":40,"name":"E2","ticks":262080,"time":136.5,"velocity":1},{"duration":0.25,"durationTicks":480,"midi":59,"name":"B3","ticks":262080,"time":136.5,"velocity":1},{"duration":0.25,"durationTicks":480,"midi":36,"name":"C2","ticks":262560,"time":136.75,"velocity":1},{"duration":0.25,"durationTicks":480,"midi":59,"name":"B3","ticks":263040,"time":137,"velocity":1},{"duration":0.25,"durationTicks":480,"midi":36,"name":"C2","ticks":263040,"time":137,"velocity":1},{"duration":0.25,"durationTicks":480,"midi":36,"name":"C2","ticks":263520,"time":137.25,"velocity":1},{"duration":0.25,"durationTicks":480,"midi":40,"name":"E2","ticks":264000,"time":137.5,"velocity":1},{"duration":0.25,"durationTicks":480,"midi":59,"name":"B3","ticks":264000,"time":137.5,"velocity":1},{"duration":0.25,"durationTicks":480,"midi":36,"name":"C2","ticks":264480,"time":137.75,"velocity":1},{"duration":0.25,"durationTicks":480,"midi":36,"name":"C2","ticks":264960,"time":138,"velocity":1},{"duration":0.25,"durationTicks":480,"midi":59,"name":"B3","ticks":264960,"time":138,"velocity":1},{"duration":0.25,"durationTicks":480,"midi":36,"name":"C2","ticks":265440,"time":138.25,"velocity":1},{"duration":0.25,"durationTicks":480,"midi":40,"name":"E2","ticks":265920,"time":138.5,"velocity":1},{"duration":0.25,"durationTicks":480,"midi":59,"name":"B3","ticks":265920,"time":138.5,"velocity":1},{"duration":0.25,"durationTicks":480,"midi":36,"name":"C2","ticks":266400,"time":138.75,"velocity":1},{"duration":0.25,"durationTicks":480,"midi":36,"name":"C2","ticks":266880,"time":139,"velocity":1},{"duration":0.25,"durationTicks":480,"midi":59,"name":"B3","ticks":266880,"time":139,"velocity":1},{"duration":0.25,"durationTicks":480,"midi":36,"name":"C2","ticks":267360,"time":139.25,"velocity":1},{"duration":0.25,"durationTicks":480,"midi":40,"name":"E2","ticks":267840,"time":139.5,"velocity":1},{"duration":0.25,"durationTicks":480,"midi":59,"name":"B3","ticks":267840,"time":139.5,"velocity":1},{"duration":0.25,"durationTicks":480,"midi":36,"name":"C2","ticks":268320,"time":139.75,"velocity":1},{"duration":0.25,"durationTicks":480,"midi":36,"name":"C2","ticks":268800,"time":140,"velocity":1},{"duration":0.25,"durationTicks":480,"midi":59,"name":"B3","ticks":268800,"time":140,"velocity":1},{"duration":0.25,"durationTicks":480,"midi":36,"name":"C2","ticks":269280,"time":140.25,"velocity":1},{"duration":0.25,"durationTicks":480,"midi":40,"name":"E2","ticks":269760,"time":140.5,"velocity":1},{"duration":0.25,"durationTicks":480,"midi":59,"name":"B3","ticks":269760,"time":140.5,"velocity":1},{"duration":0.25,"durationTicks":480,"midi":36,"name":"C2","ticks":270240,"time":140.75,"velocity":1},{"duration":0.25,"durationTicks":480,"midi":36,"name":"C2","ticks":270720,"time":141,"velocity":1},{"duration":0.25,"durationTicks":480,"midi":59,"name":"B3","ticks":270720,"time":141,"velocity":1},{"duration":0.25,"durationTicks":480,"midi":36,"name":"C2","ticks":271200,"time":141.25,"velocity":1},{"duration":0.25,"durationTicks":480,"midi":40,"name":"E2","ticks":271680,"time":141.5,"velocity":1},{"duration":0.25,"durationTicks":480,"midi":59,"name":"B3","ticks":271680,"time":141.5,"velocity":1},{"duration":0.25,"durationTicks":480,"midi":36,"name":"C2","ticks":272160,"time":141.75,"velocity":1},{"duration":0.25,"durationTicks":480,"midi":36,"name":"C2","ticks":272640,"time":142,"velocity":1},{"duration":0.25,"durationTicks":480,"midi":59,"name":"B3","ticks":272640,"time":142,"velocity":1},{"duration":0.25,"durationTicks":480,"midi":36,"name":"C2","ticks":273120,"time":142.25,"velocity":1},{"duration":0.25,"durationTicks":480,"midi":40,"name":"E2","ticks":273600,"time":142.5,"velocity":1},{"duration":0.25,"durationTicks":480,"midi":59,"name":"B3","ticks":273600,"time":142.5,"velocity":1},{"duration":0.25,"durationTicks":480,"midi":36,"name":"C2","ticks":274080,"time":142.75,"velocity":1},{"duration":0.25,"durationTicks":480,"midi":36,"name":"C2","ticks":274560,"time":143,"velocity":1},{"duration":0.25,"durationTicks":480,"midi":59,"name":"B3","ticks":274560,"time":143,"velocity":1},{"duration":0.25,"durationTicks":480,"midi":36,"name":"C2","ticks":275040,"time":143.25,"velocity":1},{"duration":0.125,"durationTicks":240,"midi":38,"name":"D2","ticks":275520,"time":143.5,"velocity":1},{"duration":0.25,"durationTicks":480,"midi":59,"name":"B3","ticks":275520,"time":143.5,"velocity":1},{"duration":0.125,"durationTicks":240,"midi":40,"name":"E2","ticks":275550,"time":143.515625,"velocity":1},{"duration":0.125,"durationTicks":240,"midi":36,"name":"C2","ticks":276000,"time":143.75,"velocity":1},{"duration":0.125,"durationTicks":240,"midi":40,"name":"E2","ticks":276240,"time":143.875,"velocity":1},{"duration":0.25,"durationTicks":480,"midi":36,"name":"C2","ticks":276480,"time":144,"velocity":1},{"duration":0.25,"durationTicks":480,"midi":57,"name":"A3","ticks":276480,"time":144,"velocity":1},{"duration":0.25,"durationTicks":480,"midi":36,"name":"C2","ticks":276960,"time":144.25,"velocity":1},{"duration":0.25,"durationTicks":480,"midi":59,"name":"B3","ticks":277440,"time":144.5,"velocity":1},{"duration":0.25,"durationTicks":480,"midi":40,"name":"E2","ticks":277440,"time":144.5,"velocity":1},{"duration":0.25,"durationTicks":480,"midi":36,"name":"C2","ticks":277920,"time":144.75,"velocity":1},{"duration":0.25,"durationTicks":480,"midi":59,"name":"B3","ticks":278400,"time":145,"velocity":1},{"duration":0.25,"durationTicks":480,"midi":36,"name":"C2","ticks":278400,"time":145,"velocity":1},{"duration":0.25,"durationTicks":480,"midi":36,"name":"C2","ticks":278880,"time":145.25,"velocity":1},{"duration":0.25,"durationTicks":480,"midi":59,"name":"B3","ticks":279360,"time":145.5,"velocity":1},{"duration":0.25,"durationTicks":480,"midi":40,"name":"E2","ticks":279360,"time":145.5,"velocity":1},{"duration":0.25,"durationTicks":480,"midi":36,"name":"C2","ticks":279840,"time":145.75,"velocity":1},{"duration":0.25,"durationTicks":480,"midi":59,"name":"B3","ticks":280320,"time":146,"velocity":1},{"duration":0.25,"durationTicks":480,"midi":36,"name":"C2","ticks":280320,"time":146,"velocity":1},{"duration":0.25,"durationTicks":480,"midi":36,"name":"C2","ticks":280800,"time":146.25,"velocity":1},{"duration":0.25,"durationTicks":480,"midi":59,"name":"B3","ticks":281280,"time":146.5,"velocity":1},{"duration":0.25,"durationTicks":480,"midi":40,"name":"E2","ticks":281280,"time":146.5,"velocity":1},{"duration":0.25,"durationTicks":480,"midi":36,"name":"C2","ticks":281760,"time":146.75,"velocity":1},{"duration":0.25,"durationTicks":480,"midi":59,"name":"B3","ticks":282240,"time":147,"velocity":1},{"duration":0.25,"durationTicks":480,"midi":36,"name":"C2","ticks":282240,"time":147,"velocity":1},{"duration":0.25,"durationTicks":480,"midi":36,"name":"C2","ticks":282720,"time":147.25,"velocity":1},{"duration":0.25,"durationTicks":480,"midi":59,"name":"B3","ticks":283200,"time":147.5,"velocity":1},{"duration":0.25,"durationTicks":480,"midi":40,"name":"E2","ticks":283200,"time":147.5,"velocity":1},{"duration":0.25,"durationTicks":480,"midi":36,"name":"C2","ticks":283680,"time":147.75,"velocity":1},{"duration":0.25,"durationTicks":480,"midi":59,"name":"B3","ticks":284160,"time":148,"velocity":1},{"duration":0.25,"durationTicks":480,"midi":36,"name":"C2","ticks":284160,"time":148,"velocity":1},{"duration":0.25,"durationTicks":480,"midi":36,"name":"C2","ticks":284640,"time":148.25,"velocity":1},{"duration":0.25,"durationTicks":480,"midi":59,"name":"B3","ticks":285120,"time":148.5,"velocity":1},{"duration":0.25,"durationTicks":480,"midi":40,"name":"E2","ticks":285120,"time":148.5,"velocity":1},{"duration":0.25,"durationTicks":480,"midi":36,"name":"C2","ticks":285600,"time":148.75,"velocity":1},{"duration":0.125,"durationTicks":240,"midi":40,"name":"E2","ticks":286080,"time":149,"velocity":1},{"duration":0.25,"durationTicks":480,"midi":59,"name":"B3","ticks":286080,"time":149,"velocity":1},{"duration":0.125,"durationTicks":240,"midi":40,"name":"E2","ticks":286320,"time":149.125,"velocity":1},{"duration":0.25,"durationTicks":480,"midi":36,"name":"C2","ticks":286560,"time":149.25,"velocity":1},{"duration":0.25,"durationTicks":480,"midi":59,"name":"B3","ticks":287040,"time":149.5,"velocity":1},{"duration":0.25,"durationTicks":480,"midi":40,"name":"E2","ticks":287040,"time":149.5,"velocity":1},{"duration":0.125,"durationTicks":240,"midi":36,"name":"C2","ticks":287520,"time":149.75,"velocity":1},{"duration":0.125,"durationTicks":240,"midi":40,"name":"E2","ticks":287760,"time":149.875,"velocity":1},{"duration":0.25,"durationTicks":480,"midi":36,"name":"C2","ticks":288000,"time":150,"velocity":1},{"duration":0.25,"durationTicks":480,"midi":57,"name":"A3","ticks":288000,"time":150,"velocity":1},{"duration":0.25,"durationTicks":480,"midi":40,"name":"E2","ticks":288960,"time":150.5,"velocity":1},{"duration":0.25,"durationTicks":480,"midi":59,"name":"B3","ticks":288960,"time":150.5,"velocity":1},{"duration":0.25,"durationTicks":480,"midi":36,"name":"C2","ticks":289440,"time":150.75,"velocity":1},{"duration":0.25,"durationTicks":480,"midi":36,"name":"C2","ticks":289920,"time":151,"velocity":1},{"duration":0.25,"durationTicks":480,"midi":59,"name":"B3","ticks":289920,"time":151,"velocity":1},{"duration":0.25,"durationTicks":480,"midi":40,"name":"E2","ticks":290880,"time":151.5,"velocity":1},{"duration":0.25,"durationTicks":480,"midi":59,"name":"B3","ticks":290880,"time":151.5,"velocity":1},{"duration":0.25,"durationTicks":480,"midi":59,"name":"B3","ticks":291840,"time":152,"velocity":1},{"duration":0.25,"durationTicks":480,"midi":36,"name":"C2","ticks":291840,"time":152,"velocity":1},{"duration":0.25,"durationTicks":480,"midi":59,"name":"B3","ticks":292800,"time":152.5,"velocity":1},{"duration":0.25,"durationTicks":480,"midi":40,"name":"E2","ticks":292800,"time":152.5,"velocity":1},{"duration":0.25,"durationTicks":480,"midi":36,"name":"C2","ticks":293280,"time":152.75,"velocity":1},{"duration":0.25,"durationTicks":480,"midi":59,"name":"B3","ticks":293760,"time":153,"velocity":1},{"duration":0.25,"durationTicks":480,"midi":36,"name":"C2","ticks":293760,"time":153,"velocity":1},{"duration":0.25,"durationTicks":480,"midi":59,"name":"B3","ticks":294720,"time":153.5,"velocity":1},{"duration":0.25,"durationTicks":480,"midi":40,"name":"E2","ticks":294720,"time":153.5,"velocity":1},{"duration":0.25,"durationTicks":480,"midi":59,"name":"B3","ticks":295680,"time":154,"velocity":1},{"duration":0.25,"durationTicks":480,"midi":36,"name":"C2","ticks":295680,"time":154,"velocity":1},{"duration":0.25,"durationTicks":480,"midi":59,"name":"B3","ticks":296640,"time":154.5,"velocity":1},{"duration":0.25,"durationTicks":480,"midi":40,"name":"E2","ticks":296640,"time":154.5,"velocity":1},{"duration":0.25,"durationTicks":480,"midi":36,"name":"C2","ticks":297120,"time":154.75,"velocity":1},{"duration":0.25,"durationTicks":480,"midi":59,"name":"B3","ticks":297600,"time":155,"velocity":1},{"duration":0.25,"durationTicks":480,"midi":36,"name":"C2","ticks":297600,"time":155,"velocity":1},{"duration":0.25,"durationTicks":480,"midi":59,"name":"B3","ticks":298560,"time":155.5,"velocity":1},{"duration":0.25,"durationTicks":480,"midi":40,"name":"E2","ticks":298560,"time":155.5,"velocity":1},{"duration":0.25,"durationTicks":480,"midi":59,"name":"B3","ticks":299520,"time":156,"velocity":1},{"duration":0.25,"durationTicks":480,"midi":36,"name":"C2","ticks":299520,"time":156,"velocity":1},{"duration":0.25,"durationTicks":480,"midi":59,"name":"B3","ticks":300480,"time":156.5,"velocity":1},{"duration":0.25,"durationTicks":480,"midi":40,"name":"E2","ticks":300480,"time":156.5,"velocity":1},{"duration":0.25,"durationTicks":480,"midi":36,"name":"C2","ticks":300960,"time":156.75,"velocity":1},{"duration":0.25,"durationTicks":480,"midi":59,"name":"B3","ticks":301440,"time":157,"velocity":1},{"duration":0.25,"durationTicks":480,"midi":36,"name":"C2","ticks":301440,"time":157,"velocity":1},{"duration":0.125,"durationTicks":240,"midi":36,"name":"C2","ticks":301920,"time":157.25,"velocity":1},{"duration":0.125,"durationTicks":240,"midi":36,"name":"C2","ticks":302160,"time":157.375,"velocity":1},{"duration":0.25,"durationTicks":480,"midi":59,"name":"B3","ticks":302400,"time":157.5,"velocity":1},{"duration":0.25,"durationTicks":480,"midi":40,"name":"E2","ticks":302400,"time":157.5,"velocity":1},{"duration":0.5,"durationTicks":960,"midi":57,"name":"A3","ticks":302400,"time":157.5,"velocity":1},{"duration":0.25,"durationTicks":480,"midi":59,"name":"B3","ticks":303360,"time":158,"velocity":1},{"duration":0.25,"durationTicks":480,"midi":36,"name":"C2","ticks":303360,"time":158,"velocity":1},{"duration":0.25,"durationTicks":480,"midi":57,"name":"A3","ticks":303360,"time":158,"velocity":1},{"duration":0.25,"durationTicks":480,"midi":59,"name":"B3","ticks":304320,"time":158.5,"velocity":1},{"duration":0.25,"durationTicks":480,"midi":40,"name":"E2","ticks":304320,"time":158.5,"velocity":1},{"duration":0.25,"durationTicks":480,"midi":36,"name":"C2","ticks":304800,"time":158.75,"velocity":1},{"duration":0.25,"durationTicks":480,"midi":59,"name":"B3","ticks":305280,"time":159,"velocity":1},{"duration":0.25,"durationTicks":480,"midi":36,"name":"C2","ticks":305280,"time":159,"velocity":1},{"duration":0.25,"durationTicks":480,"midi":59,"name":"B3","ticks":306240,"time":159.5,"velocity":1},{"duration":0.25,"durationTicks":480,"midi":40,"name":"E2","ticks":306240,"time":159.5,"velocity":1},{"duration":0.25,"durationTicks":480,"midi":59,"name":"B3","ticks":307200,"time":160,"velocity":1},{"duration":0.25,"durationTicks":480,"midi":36,"name":"C2","ticks":307200,"time":160,"velocity":1},{"duration":0.25,"durationTicks":480,"midi":59,"name":"B3","ticks":308160,"time":160.5,"velocity":1},{"duration":0.25,"durationTicks":480,"midi":40,"name":"E2","ticks":308160,"time":160.5,"velocity":1},{"duration":0.25,"durationTicks":480,"midi":36,"name":"C2","ticks":308640,"time":160.75,"velocity":1},{"duration":0.25,"durationTicks":480,"midi":59,"name":"B3","ticks":309120,"time":161,"velocity":1},{"duration":0.25,"durationTicks":480,"midi":36,"name":"C2","ticks":309120,"time":161,"velocity":1},{"duration":0.25,"durationTicks":480,"midi":59,"name":"B3","ticks":310080,"time":161.5,"velocity":1},{"duration":0.25,"durationTicks":480,"midi":40,"name":"E2","ticks":310080,"time":161.5,"velocity":1},{"duration":0.25,"durationTicks":480,"midi":59,"name":"B3","ticks":311040,"time":162,"velocity":1},{"duration":0.25,"durationTicks":480,"midi":36,"name":"C2","ticks":311040,"time":162,"velocity":1},{"duration":0.25,"durationTicks":480,"midi":59,"name":"B3","ticks":312000,"time":162.5,"velocity":1},{"duration":0.25,"durationTicks":480,"midi":40,"name":"E2","ticks":312000,"time":162.5,"velocity":1},{"duration":0.25,"durationTicks":480,"midi":36,"name":"C2","ticks":312480,"time":162.75,"velocity":1},{"duration":0.25,"durationTicks":480,"midi":59,"name":"B3","ticks":312960,"time":163,"velocity":1},{"duration":0.25,"durationTicks":480,"midi":36,"name":"C2","ticks":312960,"time":163,"velocity":1},{"duration":0.25,"durationTicks":480,"midi":59,"name":"B3","ticks":313920,"time":163.5,"velocity":1},{"duration":0.25,"durationTicks":480,"midi":40,"name":"E2","ticks":313920,"time":163.5,"velocity":1},{"duration":0.25,"durationTicks":480,"midi":59,"name":"B3","ticks":314880,"time":164,"velocity":1},{"duration":0.25,"durationTicks":480,"midi":36,"name":"C2","ticks":314880,"time":164,"velocity":1},{"duration":0.25,"durationTicks":480,"midi":59,"name":"B3","ticks":315840,"time":164.5,"velocity":1},{"duration":0.25,"durationTicks":480,"midi":40,"name":"E2","ticks":315840,"time":164.5,"velocity":1},{"duration":0.25,"durationTicks":480,"midi":36,"name":"C2","ticks":316320,"time":164.75,"velocity":1},{"duration":0.25,"durationTicks":480,"midi":59,"name":"B3","ticks":316800,"time":165,"velocity":1},{"duration":0.25,"durationTicks":480,"midi":36,"name":"C2","ticks":316800,"time":165,"velocity":1},{"duration":0.25,"durationTicks":480,"midi":57,"name":"A3","ticks":317760,"time":165.5,"velocity":1},{"duration":0.25,"durationTicks":480,"midi":40,"name":"E2","ticks":317760,"time":165.5,"velocity":1},{"duration":0.25,"durationTicks":480,"midi":57,"name":"A3","ticks":318720,"time":166,"velocity":1},{"duration":0.25,"durationTicks":480,"midi":36,"name":"C2","ticks":318720,"time":166,"velocity":1},{"duration":0.25,"durationTicks":480,"midi":59,"name":"B3","ticks":319680,"time":166.5,"velocity":1},{"duration":0.25,"durationTicks":480,"midi":40,"name":"E2","ticks":319680,"time":166.5,"velocity":1},{"duration":0.25,"durationTicks":480,"midi":36,"name":"C2","ticks":320160,"time":166.75,"velocity":1},{"duration":0.25,"durationTicks":480,"midi":59,"name":"B3","ticks":320640,"time":167,"velocity":1},{"duration":0.25,"durationTicks":480,"midi":36,"name":"C2","ticks":320640,"time":167,"velocity":1},{"duration":0.25,"durationTicks":480,"midi":59,"name":"B3","ticks":321600,"time":167.5,"velocity":1},{"duration":0.25,"durationTicks":480,"midi":40,"name":"E2","ticks":321600,"time":167.5,"velocity":1},{"duration":0.25,"durationTicks":480,"midi":59,"name":"B3","ticks":322560,"time":168,"velocity":1},{"duration":0.25,"durationTicks":480,"midi":36,"name":"C2","ticks":322560,"time":168,"velocity":1},{"duration":0.25,"durationTicks":480,"midi":59,"name":"B3","ticks":323520,"time":168.5,"velocity":1},{"duration":0.25,"durationTicks":480,"midi":40,"name":"E2","ticks":323520,"time":168.5,"velocity":1},{"duration":0.25,"durationTicks":480,"midi":36,"name":"C2","ticks":324000,"time":168.75,"velocity":1},{"duration":0.25,"durationTicks":480,"midi":59,"name":"B3","ticks":324480,"time":169,"velocity":1},{"duration":0.25,"durationTicks":480,"midi":36,"name":"C2","ticks":324480,"time":169,"velocity":1},{"duration":0.25,"durationTicks":480,"midi":59,"name":"B3","ticks":325440,"time":169.5,"velocity":1},{"duration":0.25,"durationTicks":480,"midi":40,"name":"E2","ticks":325440,"time":169.5,"velocity":1},{"duration":0.25,"durationTicks":480,"midi":59,"name":"B3","ticks":326400,"time":170,"velocity":1},{"duration":0.25,"durationTicks":480,"midi":36,"name":"C2","ticks":326400,"time":170,"velocity":1},{"duration":0.25,"durationTicks":480,"midi":59,"name":"B3","ticks":327360,"time":170.5,"velocity":1},{"duration":0.25,"durationTicks":480,"midi":40,"name":"E2","ticks":327360,"time":170.5,"velocity":1},{"duration":0.25,"durationTicks":480,"midi":36,"name":"C2","ticks":327840,"time":170.75,"velocity":1},{"duration":0.25,"durationTicks":480,"midi":59,"name":"B3","ticks":328320,"time":171,"velocity":1},{"duration":0.25,"durationTicks":480,"midi":36,"name":"C2","ticks":328320,"time":171,"velocity":1},{"duration":0.25,"durationTicks":480,"midi":59,"name":"B3","ticks":329280,"time":171.5,"velocity":1},{"duration":0.25,"durationTicks":480,"midi":40,"name":"E2","ticks":329280,"time":171.5,"velocity":1},{"duration":0.25,"durationTicks":480,"midi":59,"name":"B3","ticks":330240,"time":172,"velocity":1},{"duration":0.25,"durationTicks":480,"midi":36,"name":"C2","ticks":330240,"time":172,"velocity":1},{"duration":0.25,"durationTicks":480,"midi":59,"name":"B3","ticks":331200,"time":172.5,"velocity":1},{"duration":0.25,"durationTicks":480,"midi":40,"name":"E2","ticks":331200,"time":172.5,"velocity":1},{"duration":0.25,"durationTicks":480,"midi":36,"name":"C2","ticks":331680,"time":172.75,"velocity":1},{"duration":0.25,"durationTicks":480,"midi":59,"name":"B3","ticks":332160,"time":173,"velocity":1},{"duration":0.25,"durationTicks":480,"midi":36,"name":"C2","ticks":332160,"time":173,"velocity":1}],"endOfTrackTicks":332640},{"channel":9,"controlChanges":{"7":[{"number":7,"ticks":0,"time":0,"value":0.8031496062992126}],"10":[{"number":10,"ticks":0,"time":0,"value":0.5039370078740157}]},"pitchBends":[],"instrument":{"family":"drums","number":0,"name":"standard kit"},"name":"Drums 2","notes":[{"duration":0.25,"durationTicks":480,"midi":69,"name":"A4","ticks":34560,"time":18,"velocity":1},{"duration":0.25,"durationTicks":480,"midi":70,"name":"A#4","ticks":34560,"time":18,"velocity":1},{"duration":0.25,"durationTicks":480,"midi":69,"name":"A4","ticks":35040,"time":18.25,"velocity":1},{"duration":0.25,"durationTicks":480,"midi":69,"name":"A4","ticks":35520,"time":18.5,"velocity":1},{"duration":0.25,"durationTicks":480,"midi":69,"name":"A4","ticks":36000,"time":18.75,"velocity":1},{"duration":0.0625,"durationTicks":120,"midi":69,"name":"A4","ticks":36480,"time":19,"velocity":1},{"duration":0.25,"durationTicks":480,"midi":70,"name":"A#4","ticks":36480,"time":19,"velocity":1},{"duration":0.0625,"durationTicks":120,"midi":69,"name":"A4","ticks":36600,"time":19.0625,"velocity":1},{"duration":0.0625,"durationTicks":120,"midi":69,"name":"A4","ticks":36720,"time":19.125,"velocity":1},{"duration":0.25,"durationTicks":480,"midi":69,"name":"A4","ticks":36960,"time":19.25,"velocity":1},{"duration":0.25,"durationTicks":480,"midi":69,"name":"A4","ticks":37440,"time":19.5,"velocity":1},{"duration":0.25,"durationTicks":480,"midi":69,"name":"A4","ticks":37920,"time":19.75,"velocity":1},{"duration":0.25,"durationTicks":480,"midi":69,"name":"A4","ticks":38400,"time":20,"velocity":1},{"duration":0.25,"durationTicks":480,"midi":70,"name":"A#4","ticks":38400,"time":20,"velocity":1},{"duration":0.25,"durationTicks":480,"midi":69,"name":"A4","ticks":38880,"time":20.25,"velocity":1},{"duration":0.25,"durationTicks":480,"midi":69,"name":"A4","ticks":39360,"time":20.5,"velocity":1},{"duration":0.25,"durationTicks":480,"midi":69,"name":"A4","ticks":39840,"time":20.75,"velocity":1},{"duration":0.0625,"durationTicks":120,"midi":69,"name":"A4","ticks":40320,"time":21,"velocity":1},{"duration":0.25,"durationTicks":480,"midi":70,"name":"A#4","ticks":40320,"time":21,"velocity":1},{"duration":0.0625,"durationTicks":120,"midi":69,"name":"A4","ticks":40440,"time":21.0625,"velocity":1},{"duration":0.0625,"durationTicks":120,"midi":69,"name":"A4","ticks":40560,"time":21.125,"velocity":1},{"duration":0.25,"durationTicks":480,"midi":69,"name":"A4","ticks":40800,"time":21.25,"velocity":1},{"duration":0.25,"durationTicks":480,"midi":69,"name":"A4","ticks":41280,"time":21.5,"velocity":1},{"duration":0.25,"durationTicks":480,"midi":69,"name":"A4","ticks":41760,"time":21.75,"velocity":1},{"duration":0.25,"durationTicks":480,"midi":69,"name":"A4","ticks":42240,"time":22,"velocity":1},{"duration":0.25,"durationTicks":480,"midi":70,"name":"A#4","ticks":42240,"time":22,"velocity":1},{"duration":0.25,"durationTicks":480,"midi":69,"name":"A4","ticks":42720,"time":22.25,"velocity":1},{"duration":0.25,"durationTicks":480,"midi":69,"name":"A4","ticks":43200,"time":22.5,"velocity":1},{"duration":0.25,"durationTicks":480,"midi":69,"name":"A4","ticks":43680,"time":22.75,"velocity":1},{"duration":0.0625,"durationTicks":120,"midi":69,"name":"A4","ticks":44160,"time":23,"velocity":1},{"duration":0.25,"durationTicks":480,"midi":70,"name":"A#4","ticks":44160,"time":23,"velocity":1},{"duration":0.0625,"durationTicks":120,"midi":69,"name":"A4","ticks":44280,"time":23.0625,"velocity":1},{"duration":0.0625,"durationTicks":120,"midi":69,"name":"A4","ticks":44400,"time":23.125,"velocity":1},{"duration":0.25,"durationTicks":480,"midi":69,"name":"A4","ticks":44640,"time":23.25,"velocity":1},{"duration":0.25,"durationTicks":480,"midi":69,"name":"A4","ticks":45120,"time":23.5,"velocity":1},{"duration":0.25,"durationTicks":480,"midi":69,"name":"A4","ticks":45600,"time":23.75,"velocity":1},{"duration":0.25,"durationTicks":480,"midi":69,"name":"A4","ticks":46080,"time":24,"velocity":1},{"duration":0.25,"durationTicks":480,"midi":70,"name":"A#4","ticks":46080,"time":24,"velocity":1},{"duration":0.25,"durationTicks":480,"midi":69,"name":"A4","ticks":46560,"time":24.25,"velocity":1},{"duration":0.25,"durationTicks":480,"midi":69,"name":"A4","ticks":47040,"time":24.5,"velocity":1},{"duration":0.25,"durationTicks":480,"midi":69,"name":"A4","ticks":47520,"time":24.75,"velocity":1},{"duration":0.0625,"durationTicks":120,"midi":69,"name":"A4","ticks":48000,"time":25,"velocity":1},{"duration":0.25,"durationTicks":480,"midi":70,"name":"A#4","ticks":48000,"time":25,"velocity":1},{"duration":0.0625,"durationTicks":120,"midi":69,"name":"A4","ticks":48120,"time":25.0625,"velocity":1},{"duration":0.0625,"durationTicks":120,"midi":69,"name":"A4","ticks":48240,"time":25.125,"velocity":1},{"duration":0.25,"durationTicks":480,"midi":69,"name":"A4","ticks":48480,"time":25.25,"velocity":1},{"duration":0.25,"durationTicks":480,"midi":69,"name":"A4","ticks":48960,"time":25.5,"velocity":1},{"duration":0.25,"durationTicks":480,"midi":69,"name":"A4","ticks":49440,"time":25.75,"velocity":1},{"duration":0.25,"durationTicks":480,"midi":69,"name":"A4","ticks":49920,"time":26,"velocity":1},{"duration":0.25,"durationTicks":480,"midi":70,"name":"A#4","ticks":49920,"time":26,"velocity":1},{"duration":0.25,"durationTicks":480,"midi":69,"name":"A4","ticks":50400,"time":26.25,"velocity":1},{"duration":0.25,"durationTicks":480,"midi":69,"name":"A4","ticks":50880,"time":26.5,"velocity":1},{"duration":0.25,"durationTicks":480,"midi":69,"name":"A4","ticks":51360,"time":26.75,"velocity":1},{"duration":0.0625,"durationTicks":120,"midi":69,"name":"A4","ticks":51840,"time":27,"velocity":1},{"duration":0.25,"durationTicks":480,"midi":70,"name":"A#4","ticks":51840,"time":27,"velocity":1},{"duration":0.0625,"durationTicks":120,"midi":69,"name":"A4","ticks":51960,"time":27.0625,"velocity":1},{"duration":0.0625,"durationTicks":120,"midi":69,"name":"A4","ticks":52080,"time":27.125,"velocity":1},{"duration":0.25,"durationTicks":480,"midi":69,"name":"A4","ticks":52320,"time":27.25,"velocity":1},{"duration":0.25,"durationTicks":480,"midi":69,"name":"A4","ticks":52800,"time":27.5,"velocity":1},{"duration":0.25,"durationTicks":480,"midi":69,"name":"A4","ticks":53280,"time":27.75,"velocity":1},{"duration":0.25,"durationTicks":480,"midi":69,"name":"A4","ticks":53760,"time":28,"velocity":1},{"duration":0.25,"durationTicks":480,"midi":70,"name":"A#4","ticks":53760,"time":28,"velocity":1},{"duration":0.25,"durationTicks":480,"midi":69,"name":"A4","ticks":54240,"time":28.25,"velocity":1},{"duration":0.25,"durationTicks":480,"midi":69,"name":"A4","ticks":54720,"time":28.5,"velocity":1},{"duration":0.25,"durationTicks":480,"midi":69,"name":"A4","ticks":55200,"time":28.75,"velocity":1},{"duration":0.0625,"durationTicks":120,"midi":69,"name":"A4","ticks":55680,"time":29,"velocity":1},{"duration":0.25,"durationTicks":480,"midi":70,"name":"A#4","ticks":55680,"time":29,"velocity":1},{"duration":0.0625,"durationTicks":120,"midi":69,"name":"A4","ticks":55800,"time":29.0625,"velocity":1},{"duration":0.0625,"durationTicks":120,"midi":69,"name":"A4","ticks":55920,"time":29.125,"velocity":1},{"duration":0.25,"durationTicks":480,"midi":69,"name":"A4","ticks":56160,"time":29.25,"velocity":1},{"duration":0.25,"durationTicks":480,"midi":69,"name":"A4","ticks":56640,"time":29.5,"velocity":1},{"duration":0.25,"durationTicks":480,"midi":69,"name":"A4","ticks":57120,"time":29.75,"velocity":1},{"duration":0.25,"durationTicks":480,"midi":69,"name":"A4","ticks":57600,"time":30,"velocity":1},{"duration":0.25,"durationTicks":480,"midi":70,"name":"A#4","ticks":57600,"time":30,"velocity":1},{"duration":0.25,"durationTicks":480,"midi":69,"name":"A4","ticks":58080,"time":30.25,"velocity":1},{"duration":0.25,"durationTicks":480,"midi":69,"name":"A4","ticks":58560,"time":30.5,"velocity":1},{"duration":0.25,"durationTicks":480,"midi":69,"name":"A4","ticks":59040,"time":30.75,"velocity":1},{"duration":0.25,"durationTicks":480,"midi":69,"name":"A4","ticks":61440,"time":32,"velocity":1},{"duration":0.25,"durationTicks":480,"midi":70,"name":"A#4","ticks":61440,"time":32,"velocity":1},{"duration":0.25,"durationTicks":480,"midi":69,"name":"A4","ticks":61920,"time":32.25,"velocity":1},{"duration":0.25,"durationTicks":480,"midi":54,"name":"F#3","ticks":62400,"time":32.5,"velocity":1},{"duration":0.25,"durationTicks":480,"midi":69,"name":"A4","ticks":62400,"time":32.5,"velocity":1},{"duration":0.25,"durationTicks":480,"midi":69,"name":"A4","ticks":62880,"time":32.75,"velocity":1},{"duration":0.0625,"durationTicks":120,"midi":69,"name":"A4","ticks":63360,"time":33,"velocity":1},{"duration":0.25,"durationTicks":480,"midi":70,"name":"A#4","ticks":63360,"time":33,"velocity":1},{"duration":0.0625,"durationTicks":120,"midi":69,"name":"A4","ticks":63480,"time":33.0625,"velocity":1},{"duration":0.0625,"durationTicks":120,"midi":69,"name":"A4","ticks":63600,"time":33.125,"velocity":1},{"duration":0.25,"durationTicks":480,"midi":69,"name":"A4","ticks":63840,"time":33.25,"velocity":1},{"duration":0.25,"durationTicks":480,"midi":54,"name":"F#3","ticks":64320,"time":33.5,"velocity":1},{"duration":0.25,"durationTicks":480,"midi":69,"name":"A4","ticks":64320,"time":33.5,"velocity":1},{"duration":0.25,"durationTicks":480,"midi":69,"name":"A4","ticks":64800,"time":33.75,"velocity":1},{"duration":0.25,"durationTicks":480,"midi":69,"name":"A4","ticks":65280,"time":34,"velocity":1},{"duration":0.25,"durationTicks":480,"midi":70,"name":"A#4","ticks":65280,"time":34,"velocity":1},{"duration":0.25,"durationTicks":480,"midi":69,"name":"A4","ticks":65760,"time":34.25,"velocity":1},{"duration":0.25,"durationTicks":480,"midi":54,"name":"F#3","ticks":66240,"time":34.5,"velocity":1},{"duration":0.25,"durationTicks":480,"midi":69,"name":"A4","ticks":66240,"time":34.5,"velocity":1},{"duration":0.25,"durationTicks":480,"midi":69,"name":"A4","ticks":66720,"time":34.75,"velocity":1},{"duration":0.0625,"durationTicks":120,"midi":69,"name":"A4","ticks":67200,"time":35,"velocity":1},{"duration":0.25,"durationTicks":480,"midi":70,"name":"A#4","ticks":67200,"time":35,"velocity":1},{"duration":0.0625,"durationTicks":120,"midi":69,"name":"A4","ticks":67320,"time":35.0625,"velocity":1},{"duration":0.0625,"durationTicks":120,"midi":69,"name":"A4","ticks":67440,"time":35.125,"velocity":1},{"duration":0.25,"durationTicks":480,"midi":69,"name":"A4","ticks":67680,"time":35.25,"velocity":1},{"duration":0.25,"durationTicks":480,"midi":54,"name":"F#3","ticks":68160,"time":35.5,"velocity":1},{"duration":0.25,"durationTicks":480,"midi":69,"name":"A4","ticks":68160,"time":35.5,"velocity":1},{"duration":0.25,"durationTicks":480,"midi":69,"name":"A4","ticks":68640,"time":35.75,"velocity":1},{"duration":0.25,"durationTicks":480,"midi":69,"name":"A4","ticks":69120,"time":36,"velocity":1},{"duration":0.25,"durationTicks":480,"midi":70,"name":"A#4","ticks":69120,"time":36,"velocity":1},{"duration":0.25,"durationTicks":480,"midi":69,"name":"A4","ticks":69600,"time":36.25,"velocity":1},{"duration":0.25,"durationTicks":480,"midi":54,"name":"F#3","ticks":70080,"time":36.5,"velocity":1},{"duration":0.25,"durationTicks":480,"midi":69,"name":"A4","ticks":70080,"time":36.5,"velocity":1},{"duration":0.25,"durationTicks":480,"midi":69,"name":"A4","ticks":70560,"time":36.75,"velocity":1},{"duration":0.0625,"durationTicks":120,"midi":69,"name":"A4","ticks":71040,"time":37,"velocity":1},{"duration":0.25,"durationTicks":480,"midi":70,"name":"A#4","ticks":71040,"time":37,"velocity":1},{"duration":0.0625,"durationTicks":120,"midi":69,"name":"A4","ticks":71160,"time":37.0625,"velocity":1},{"duration":0.0625,"durationTicks":120,"midi":69,"name":"A4","ticks":71280,"time":37.125,"velocity":1},{"duration":0.25,"durationTicks":480,"midi":69,"name":"A4","ticks":71520,"time":37.25,"velocity":1},{"duration":0.25,"durationTicks":480,"midi":54,"name":"F#3","ticks":72000,"time":37.5,"velocity":1},{"duration":0.25,"durationTicks":480,"midi":69,"name":"A4","ticks":72000,"time":37.5,"velocity":1},{"duration":0.25,"durationTicks":480,"midi":69,"name":"A4","ticks":72480,"time":37.75,"velocity":1},{"duration":0.25,"durationTicks":480,"midi":69,"name":"A4","ticks":72960,"time":38,"velocity":1},{"duration":0.25,"durationTicks":480,"midi":70,"name":"A#4","ticks":72960,"time":38,"velocity":1},{"duration":0.25,"durationTicks":480,"midi":69,"name":"A4","ticks":73440,"time":38.25,"velocity":1},{"duration":0.25,"durationTicks":480,"midi":54,"name":"F#3","ticks":73920,"time":38.5,"velocity":1},{"duration":0.25,"durationTicks":480,"midi":69,"name":"A4","ticks":73920,"time":38.5,"velocity":1},{"duration":0.25,"durationTicks":480,"midi":69,"name":"A4","ticks":74400,"time":38.75,"velocity":1},{"duration":0.0625,"durationTicks":120,"midi":69,"name":"A4","ticks":74880,"time":39,"velocity":1},{"duration":0.25,"durationTicks":480,"midi":70,"name":"A#4","ticks":74880,"time":39,"velocity":1},{"duration":0.0625,"durationTicks":120,"midi":69,"name":"A4","ticks":75000,"time":39.0625,"velocity":1},{"duration":0.0625,"durationTicks":120,"midi":69,"name":"A4","ticks":75120,"time":39.125,"velocity":1},{"duration":0.25,"durationTicks":480,"midi":69,"name":"A4","ticks":75360,"time":39.25,"velocity":1},{"duration":0.25,"durationTicks":480,"midi":54,"name":"F#3","ticks":75840,"time":39.5,"velocity":1},{"duration":0.25,"durationTicks":480,"midi":69,"name":"A4","ticks":75840,"time":39.5,"velocity":1},{"duration":0.25,"durationTicks":480,"midi":69,"name":"A4","ticks":76320,"time":39.75,"velocity":1},{"duration":0.25,"durationTicks":480,"midi":69,"name":"A4","ticks":76800,"time":40,"velocity":1},{"duration":0.25,"durationTicks":480,"midi":70,"name":"A#4","ticks":76800,"time":40,"velocity":1},{"duration":0.25,"durationTicks":480,"midi":69,"name":"A4","ticks":77280,"time":40.25,"velocity":1},{"duration":0.25,"durationTicks":480,"midi":54,"name":"F#3","ticks":77760,"time":40.5,"velocity":1},{"duration":0.25,"durationTicks":480,"midi":69,"name":"A4","ticks":77760,"time":40.5,"velocity":1},{"duration":0.25,"durationTicks":480,"midi":69,"name":"A4","ticks":78240,"time":40.75,"velocity":1},{"duration":0.0625,"durationTicks":120,"midi":69,"name":"A4","ticks":78720,"time":41,"velocity":1},{"duration":0.25,"durationTicks":480,"midi":70,"name":"A#4","ticks":78720,"time":41,"velocity":1},{"duration":0.0625,"durationTicks":120,"midi":69,"name":"A4","ticks":78840,"time":41.0625,"velocity":1},{"duration":0.0625,"durationTicks":120,"midi":69,"name":"A4","ticks":78960,"time":41.125,"velocity":1},{"duration":0.25,"durationTicks":480,"midi":69,"name":"A4","ticks":79200,"time":41.25,"velocity":1},{"duration":0.25,"durationTicks":480,"midi":54,"name":"F#3","ticks":79680,"time":41.5,"velocity":1},{"duration":0.25,"durationTicks":480,"midi":69,"name":"A4","ticks":79680,"time":41.5,"velocity":1},{"duration":0.25,"durationTicks":480,"midi":69,"name":"A4","ticks":80160,"time":41.75,"velocity":1},{"duration":0.25,"durationTicks":480,"midi":69,"name":"A4","ticks":80640,"time":42,"velocity":1},{"duration":0.25,"durationTicks":480,"midi":70,"name":"A#4","ticks":80640,"time":42,"velocity":1},{"duration":0.25,"durationTicks":480,"midi":69,"name":"A4","ticks":81120,"time":42.25,"velocity":1},{"duration":0.25,"durationTicks":480,"midi":54,"name":"F#3","ticks":81600,"time":42.5,"velocity":1},{"duration":0.25,"durationTicks":480,"midi":69,"name":"A4","ticks":81600,"time":42.5,"velocity":1},{"duration":0.25,"durationTicks":480,"midi":69,"name":"A4","ticks":82080,"time":42.75,"velocity":1},{"duration":0.0625,"durationTicks":120,"midi":69,"name":"A4","ticks":82560,"time":43,"velocity":1},{"duration":0.25,"durationTicks":480,"midi":70,"name":"A#4","ticks":82560,"time":43,"velocity":1},{"duration":0.0625,"durationTicks":120,"midi":69,"name":"A4","ticks":82680,"time":43.0625,"velocity":1},{"duration":0.0625,"durationTicks":120,"midi":69,"name":"A4","ticks":82800,"time":43.125,"velocity":1},{"duration":0.25,"durationTicks":480,"midi":69,"name":"A4","ticks":83040,"time":43.25,"velocity":1},{"duration":0.25,"durationTicks":480,"midi":54,"name":"F#3","ticks":83520,"time":43.5,"velocity":1},{"duration":0.25,"durationTicks":480,"midi":69,"name":"A4","ticks":83520,"time":43.5,"velocity":1},{"duration":0.25,"durationTicks":480,"midi":69,"name":"A4","ticks":84000,"time":43.75,"velocity":1},{"duration":0.25,"durationTicks":480,"midi":69,"name":"A4","ticks":84480,"time":44,"velocity":1},{"duration":0.25,"durationTicks":480,"midi":70,"name":"A#4","ticks":84480,"time":44,"velocity":1},{"duration":0.25,"durationTicks":480,"midi":69,"name":"A4","ticks":84960,"time":44.25,"velocity":1},{"duration":0.25,"durationTicks":480,"midi":54,"name":"F#3","ticks":85440,"time":44.5,"velocity":1},{"duration":0.25,"durationTicks":480,"midi":69,"name":"A4","ticks":85440,"time":44.5,"velocity":1},{"duration":0.25,"durationTicks":480,"midi":69,"name":"A4","ticks":85920,"time":44.75,"velocity":1},{"duration":0.0625,"durationTicks":120,"midi":69,"name":"A4","ticks":86400,"time":45,"velocity":1},{"duration":0.25,"durationTicks":480,"midi":70,"name":"A#4","ticks":86400,"time":45,"velocity":1},{"duration":0.0625,"durationTicks":120,"midi":69,"name":"A4","ticks":86520,"time":45.0625,"velocity":1},{"duration":0.0625,"durationTicks":120,"midi":69,"name":"A4","ticks":86640,"time":45.125,"velocity":1},{"duration":0.25,"durationTicks":480,"midi":69,"name":"A4","ticks":86880,"time":45.25,"velocity":1},{"duration":0.25,"durationTicks":480,"midi":54,"name":"F#3","ticks":87360,"time":45.5,"velocity":1},{"duration":0.25,"durationTicks":480,"midi":69,"name":"A4","ticks":87360,"time":45.5,"velocity":1},{"duration":0.25,"durationTicks":480,"midi":69,"name":"A4","ticks":87840,"time":45.75,"velocity":1},{"duration":0.25,"durationTicks":480,"midi":69,"name":"A4","ticks":88320,"time":46,"velocity":1},{"duration":0.25,"durationTicks":480,"midi":70,"name":"A#4","ticks":88320,"time":46,"velocity":1},{"duration":0.25,"durationTicks":480,"midi":69,"name":"A4","ticks":88800,"time":46.25,"velocity":1},{"duration":0.25,"durationTicks":480,"midi":69,"name":"A4","ticks":89280,"time":46.5,"velocity":1},{"duration":0.25,"durationTicks":480,"midi":69,"name":"A4","ticks":89760,"time":46.75,"velocity":1},{"duration":0.0625,"durationTicks":120,"midi":69,"name":"A4","ticks":90240,"time":47,"velocity":1},{"duration":0.25,"durationTicks":480,"midi":70,"name":"A#4","ticks":90240,"time":47,"velocity":1},{"duration":0.0625,"durationTicks":120,"midi":69,"name":"A4","ticks":90360,"time":47.0625,"velocity":1},{"duration":0.0625,"durationTicks":120,"midi":69,"name":"A4","ticks":90480,"time":47.125,"velocity":1},{"duration":0.25,"durationTicks":480,"midi":69,"name":"A4","ticks":90720,"time":47.25,"velocity":1},{"duration":0.25,"durationTicks":480,"midi":69,"name":"A4","ticks":91200,"time":47.5,"velocity":1},{"duration":0.25,"durationTicks":480,"midi":69,"name":"A4","ticks":91680,"time":47.75,"velocity":1},{"duration":0.25,"durationTicks":480,"midi":69,"name":"A4","ticks":92160,"time":48,"velocity":1},{"duration":0.25,"durationTicks":480,"midi":70,"name":"A#4","ticks":92160,"time":48,"velocity":1},{"duration":0.25,"durationTicks":480,"midi":69,"name":"A4","ticks":92640,"time":48.25,"velocity":1},{"duration":0.25,"durationTicks":480,"midi":69,"name":"A4","ticks":93120,"time":48.5,"velocity":1},{"duration":0.25,"durationTicks":480,"midi":69,"name":"A4","ticks":93600,"time":48.75,"velocity":1},{"duration":0.0625,"durationTicks":120,"midi":69,"name":"A4","ticks":94080,"time":49,"velocity":1},{"duration":0.25,"durationTicks":480,"midi":70,"name":"A#4","ticks":94080,"time":49,"velocity":1},{"duration":0.0625,"durationTicks":120,"midi":69,"name":"A4","ticks":94200,"time":49.0625,"velocity":1},{"duration":0.0625,"durationTicks":120,"midi":69,"name":"A4","ticks":94320,"time":49.125,"velocity":1},{"duration":0.25,"durationTicks":480,"midi":69,"name":"A4","ticks":94560,"time":49.25,"velocity":1},{"duration":0.25,"durationTicks":480,"midi":69,"name":"A4","ticks":95040,"time":49.5,"velocity":1},{"duration":0.25,"durationTicks":480,"midi":69,"name":"A4","ticks":95520,"time":49.75,"velocity":1},{"duration":0.25,"durationTicks":480,"midi":69,"name":"A4","ticks":96000,"time":50,"velocity":1},{"duration":0.25,"durationTicks":480,"midi":70,"name":"A#4","ticks":96000,"time":50,"velocity":1},{"duration":0.25,"durationTicks":480,"midi":69,"name":"A4","ticks":96480,"time":50.25,"velocity":1},{"duration":0.25,"durationTicks":480,"midi":69,"name":"A4","ticks":96960,"time":50.5,"velocity":1},{"duration":0.25,"durationTicks":480,"midi":69,"name":"A4","ticks":97440,"time":50.75,"velocity":1},{"duration":0.0625,"durationTicks":120,"midi":69,"name":"A4","ticks":97920,"time":51,"velocity":1},{"duration":0.25,"durationTicks":480,"midi":70,"name":"A#4","ticks":97920,"time":51,"velocity":1},{"duration":0.0625,"durationTicks":120,"midi":69,"name":"A4","ticks":98040,"time":51.0625,"velocity":1},{"duration":0.0625,"durationTicks":120,"midi":69,"name":"A4","ticks":98160,"time":51.125,"velocity":1},{"duration":0.25,"durationTicks":480,"midi":69,"name":"A4","ticks":98400,"time":51.25,"velocity":1},{"duration":0.25,"durationTicks":480,"midi":69,"name":"A4","ticks":98880,"time":51.5,"velocity":1},{"duration":0.25,"durationTicks":480,"midi":69,"name":"A4","ticks":99360,"time":51.75,"velocity":1},{"duration":0.25,"durationTicks":480,"midi":69,"name":"A4","ticks":99840,"time":52,"velocity":1},{"duration":0.25,"durationTicks":480,"midi":70,"name":"A#4","ticks":99840,"time":52,"velocity":1},{"duration":0.25,"durationTicks":480,"midi":69,"name":"A4","ticks":100320,"time":52.25,"velocity":1},{"duration":0.25,"durationTicks":480,"midi":69,"name":"A4","ticks":100800,"time":52.5,"velocity":1},{"duration":0.25,"durationTicks":480,"midi":69,"name":"A4","ticks":101280,"time":52.75,"velocity":1},{"duration":0.0625,"durationTicks":120,"midi":69,"name":"A4","ticks":101760,"time":53,"velocity":1},{"duration":0.25,"durationTicks":480,"midi":70,"name":"A#4","ticks":101760,"time":53,"velocity":1},{"duration":0.0625,"durationTicks":120,"midi":69,"name":"A4","ticks":101880,"time":53.0625,"velocity":1},{"duration":0.0625,"durationTicks":120,"midi":69,"name":"A4","ticks":102000,"time":53.125,"velocity":1},{"duration":0.25,"durationTicks":480,"midi":69,"name":"A4","ticks":102240,"time":53.25,"velocity":1},{"duration":0.25,"durationTicks":480,"midi":69,"name":"A4","ticks":102720,"time":53.5,"velocity":1},{"duration":0.25,"durationTicks":480,"midi":69,"name":"A4","ticks":103200,"time":53.75,"velocity":1},{"duration":0.25,"durationTicks":480,"midi":69,"name":"A4","ticks":103680,"time":54,"velocity":1},{"duration":0.25,"durationTicks":480,"midi":70,"name":"A#4","ticks":103680,"time":54,"velocity":1},{"duration":0.25,"durationTicks":480,"midi":69,"name":"A4","ticks":104160,"time":54.25,"velocity":1},{"duration":0.25,"durationTicks":480,"midi":69,"name":"A4","ticks":104640,"time":54.5,"velocity":1},{"duration":0.25,"durationTicks":480,"midi":69,"name":"A4","ticks":105120,"time":54.75,"velocity":1},{"duration":0.0625,"durationTicks":120,"midi":69,"name":"A4","ticks":105600,"time":55,"velocity":1},{"duration":0.25,"durationTicks":480,"midi":70,"name":"A#4","ticks":105600,"time":55,"velocity":1},{"duration":0.0625,"durationTicks":120,"midi":69,"name":"A4","ticks":105720,"time":55.0625,"velocity":1},{"duration":0.0625,"durationTicks":120,"midi":69,"name":"A4","ticks":105840,"time":55.125,"velocity":1},{"duration":0.25,"durationTicks":480,"midi":69,"name":"A4","ticks":106080,"time":55.25,"velocity":1},{"duration":0.25,"durationTicks":480,"midi":69,"name":"A4","ticks":106560,"time":55.5,"velocity":1},{"duration":0.25,"durationTicks":480,"midi":69,"name":"A4","ticks":107040,"time":55.75,"velocity":1},{"duration":0.25,"durationTicks":480,"midi":69,"name":"A4","ticks":107520,"time":56,"velocity":1},{"duration":0.25,"durationTicks":480,"midi":70,"name":"A#4","ticks":107520,"time":56,"velocity":1},{"duration":0.25,"durationTicks":480,"midi":69,"name":"A4","ticks":108000,"time":56.25,"velocity":1},{"duration":0.25,"durationTicks":480,"midi":69,"name":"A4","ticks":108480,"time":56.5,"velocity":1},{"duration":0.25,"durationTicks":480,"midi":69,"name":"A4","ticks":108960,"time":56.75,"velocity":1},{"duration":0.0625,"durationTicks":120,"midi":69,"name":"A4","ticks":109440,"time":57,"velocity":1},{"duration":0.25,"durationTicks":480,"midi":70,"name":"A#4","ticks":109440,"time":57,"velocity":1},{"duration":0.0625,"durationTicks":120,"midi":69,"name":"A4","ticks":109560,"time":57.0625,"velocity":1},{"duration":0.0625,"durationTicks":120,"midi":69,"name":"A4","ticks":109680,"time":57.125,"velocity":1},{"duration":0.25,"durationTicks":480,"midi":69,"name":"A4","ticks":109920,"time":57.25,"velocity":1},{"duration":0.25,"durationTicks":480,"midi":69,"name":"A4","ticks":110400,"time":57.5,"velocity":1},{"duration":0.25,"durationTicks":480,"midi":69,"name":"A4","ticks":110880,"time":57.75,"velocity":1},{"duration":0.25,"durationTicks":480,"midi":69,"name":"A4","ticks":111360,"time":58,"velocity":1},{"duration":0.25,"durationTicks":480,"midi":70,"name":"A#4","ticks":111360,"time":58,"velocity":1},{"duration":0.25,"durationTicks":480,"midi":69,"name":"A4","ticks":111840,"time":58.25,"velocity":1},{"duration":0.25,"durationTicks":480,"midi":69,"name":"A4","ticks":112320,"time":58.5,"velocity":1},{"duration":0.25,"durationTicks":480,"midi":69,"name":"A4","ticks":112800,"time":58.75,"velocity":1},{"duration":0.0625,"durationTicks":120,"midi":69,"name":"A4","ticks":113280,"time":59,"velocity":1},{"duration":0.25,"durationTicks":480,"midi":70,"name":"A#4","ticks":113280,"time":59,"velocity":1},{"duration":0.0625,"durationTicks":120,"midi":69,"name":"A4","ticks":113400,"time":59.0625,"velocity":1},{"duration":0.0625,"durationTicks":120,"midi":69,"name":"A4","ticks":113520,"time":59.125,"velocity":1},{"duration":0.25,"durationTicks":480,"midi":69,"name":"A4","ticks":113760,"time":59.25,"velocity":1},{"duration":0.25,"durationTicks":480,"midi":69,"name":"A4","ticks":114240,"time":59.5,"velocity":1},{"duration":0.25,"durationTicks":480,"midi":69,"name":"A4","ticks":114720,"time":59.75,"velocity":1},{"duration":0.25,"durationTicks":480,"midi":69,"name":"A4","ticks":115200,"time":60,"velocity":1},{"duration":0.25,"durationTicks":480,"midi":70,"name":"A#4","ticks":115200,"time":60,"velocity":1},{"duration":0.25,"durationTicks":480,"midi":69,"name":"A4","ticks":115680,"time":60.25,"velocity":1},{"duration":0.25,"durationTicks":480,"midi":69,"name":"A4","ticks":116160,"time":60.5,"velocity":1},{"duration":0.25,"durationTicks":480,"midi":69,"name":"A4","ticks":116640,"time":60.75,"velocity":1},{"duration":0.0625,"durationTicks":120,"midi":69,"name":"A4","ticks":117120,"time":61,"velocity":1},{"duration":0.25,"durationTicks":480,"midi":70,"name":"A#4","ticks":117120,"time":61,"velocity":1},{"duration":0.0625,"durationTicks":120,"midi":69,"name":"A4","ticks":117240,"time":61.0625,"velocity":1},{"duration":0.0625,"durationTicks":120,"midi":69,"name":"A4","ticks":117360,"time":61.125,"velocity":1},{"duration":0.25,"durationTicks":480,"midi":69,"name":"A4","ticks":117600,"time":61.25,"velocity":1},{"duration":0.25,"durationTicks":480,"midi":69,"name":"A4","ticks":118080,"time":61.5,"velocity":1},{"duration":0.25,"durationTicks":480,"midi":69,"name":"A4","ticks":118560,"time":61.75,"velocity":1},{"duration":0.25,"durationTicks":480,"midi":69,"name":"A4","ticks":119040,"time":62,"velocity":1},{"duration":0.25,"durationTicks":480,"midi":70,"name":"A#4","ticks":119040,"time":62,"velocity":1},{"duration":0.25,"durationTicks":480,"midi":69,"name":"A4","ticks":119520,"time":62.25,"velocity":1},{"duration":0.25,"durationTicks":480,"midi":69,"name":"A4","ticks":120000,"time":62.5,"velocity":1},{"duration":0.25,"durationTicks":480,"midi":69,"name":"A4","ticks":120480,"time":62.75,"velocity":1},{"duration":0.0625,"durationTicks":120,"midi":69,"name":"A4","ticks":120960,"time":63,"velocity":1},{"duration":0.25,"durationTicks":480,"midi":70,"name":"A#4","ticks":120960,"time":63,"velocity":1},{"duration":0.0625,"durationTicks":120,"midi":69,"name":"A4","ticks":121080,"time":63.0625,"velocity":1},{"duration":0.0625,"durationTicks":120,"midi":69,"name":"A4","ticks":121200,"time":63.125,"velocity":1},{"duration":0.25,"durationTicks":480,"midi":69,"name":"A4","ticks":121440,"time":63.25,"velocity":1},{"duration":0.25,"durationTicks":480,"midi":69,"name":"A4","ticks":121920,"time":63.5,"velocity":1},{"duration":0.25,"durationTicks":480,"midi":69,"name":"A4","ticks":122400,"time":63.75,"velocity":1},{"duration":0.25,"durationTicks":480,"midi":69,"name":"A4","ticks":122880,"time":64,"velocity":1},{"duration":0.25,"durationTicks":480,"midi":70,"name":"A#4","ticks":122880,"time":64,"velocity":1},{"duration":0.25,"durationTicks":480,"midi":69,"name":"A4","ticks":123360,"time":64.25,"velocity":1},{"duration":0.25,"durationTicks":480,"midi":69,"name":"A4","ticks":123840,"time":64.5,"velocity":1},{"duration":0.25,"durationTicks":480,"midi":69,"name":"A4","ticks":124320,"time":64.75,"velocity":1},{"duration":0.0625,"durationTicks":120,"midi":69,"name":"A4","ticks":124800,"time":65,"velocity":1},{"duration":0.25,"durationTicks":480,"midi":70,"name":"A#4","ticks":124800,"time":65,"velocity":1},{"duration":0.0625,"durationTicks":120,"midi":69,"name":"A4","ticks":124920,"time":65.0625,"velocity":1},{"duration":0.0625,"durationTicks":120,"midi":69,"name":"A4","ticks":125040,"time":65.125,"velocity":1},{"duration":0.25,"durationTicks":480,"midi":69,"name":"A4","ticks":125280,"time":65.25,"velocity":1},{"duration":0.25,"durationTicks":480,"midi":69,"name":"A4","ticks":125760,"time":65.5,"velocity":1},{"duration":0.25,"durationTicks":480,"midi":69,"name":"A4","ticks":126240,"time":65.75,"velocity":1},{"duration":0.25,"durationTicks":480,"midi":69,"name":"A4","ticks":126720,"time":66,"velocity":1},{"duration":0.25,"durationTicks":480,"midi":70,"name":"A#4","ticks":126720,"time":66,"velocity":1},{"duration":0.25,"durationTicks":480,"midi":69,"name":"A4","ticks":127200,"time":66.25,"velocity":1},{"duration":0.25,"durationTicks":480,"midi":69,"name":"A4","ticks":127680,"time":66.5,"velocity":1},{"duration":0.25,"durationTicks":480,"midi":69,"name":"A4","ticks":128160,"time":66.75,"velocity":1},{"duration":0.0625,"durationTicks":120,"midi":69,"name":"A4","ticks":128640,"time":67,"velocity":1},{"duration":0.25,"durationTicks":480,"midi":70,"name":"A#4","ticks":128640,"time":67,"velocity":1},{"duration":0.0625,"durationTicks":120,"midi":69,"name":"A4","ticks":128760,"time":67.0625,"velocity":1},{"duration":0.0625,"durationTicks":120,"midi":69,"name":"A4","ticks":128880,"time":67.125,"velocity":1},{"duration":0.25,"durationTicks":480,"midi":69,"name":"A4","ticks":129120,"time":67.25,"velocity":1},{"duration":0.25,"durationTicks":480,"midi":69,"name":"A4","ticks":129600,"time":67.5,"velocity":1},{"duration":0.25,"durationTicks":480,"midi":69,"name":"A4","ticks":130080,"time":67.75,"velocity":1},{"duration":0.25,"durationTicks":480,"midi":69,"name":"A4","ticks":130560,"time":68,"velocity":1},{"duration":0.25,"durationTicks":480,"midi":70,"name":"A#4","ticks":130560,"time":68,"velocity":1},{"duration":0.25,"durationTicks":480,"midi":69,"name":"A4","ticks":131040,"time":68.25,"velocity":1},{"duration":0.25,"durationTicks":480,"midi":69,"name":"A4","ticks":131520,"time":68.5,"velocity":1},{"duration":0.25,"durationTicks":480,"midi":69,"name":"A4","ticks":132000,"time":68.75,"velocity":1},{"duration":0.0625,"durationTicks":120,"midi":69,"name":"A4","ticks":132480,"time":69,"velocity":1},{"duration":0.25,"durationTicks":480,"midi":70,"name":"A#4","ticks":132480,"time":69,"velocity":1},{"duration":0.0625,"durationTicks":120,"midi":69,"name":"A4","ticks":132600,"time":69.0625,"velocity":1},{"duration":0.0625,"durationTicks":120,"midi":69,"name":"A4","ticks":132720,"time":69.125,"velocity":1},{"duration":0.25,"durationTicks":480,"midi":69,"name":"A4","ticks":132960,"time":69.25,"velocity":1},{"duration":0.25,"durationTicks":480,"midi":69,"name":"A4","ticks":133440,"time":69.5,"velocity":1},{"duration":0.25,"durationTicks":480,"midi":69,"name":"A4","ticks":133920,"time":69.75,"velocity":1},{"duration":0.25,"durationTicks":480,"midi":69,"name":"A4","ticks":134400,"time":70,"velocity":1},{"duration":0.25,"durationTicks":480,"midi":70,"name":"A#4","ticks":134400,"time":70,"velocity":1},{"duration":0.25,"durationTicks":480,"midi":69,"name":"A4","ticks":134880,"time":70.25,"velocity":1},{"duration":0.25,"durationTicks":480,"midi":69,"name":"A4","ticks":135360,"time":70.5,"velocity":1},{"duration":0.25,"durationTicks":480,"midi":69,"name":"A4","ticks":135840,"time":70.75,"velocity":1},{"duration":0.0625,"durationTicks":120,"midi":69,"name":"A4","ticks":136320,"time":71,"velocity":1},{"duration":0.25,"durationTicks":480,"midi":70,"name":"A#4","ticks":136320,"time":71,"velocity":1},{"duration":0.0625,"durationTicks":120,"midi":69,"name":"A4","ticks":136440,"time":71.0625,"velocity":1},{"duration":0.0625,"durationTicks":120,"midi":69,"name":"A4","ticks":136560,"time":71.125,"velocity":1},{"duration":0.25,"durationTicks":480,"midi":69,"name":"A4","ticks":136800,"time":71.25,"velocity":1},{"duration":0.25,"durationTicks":480,"midi":69,"name":"A4","ticks":137280,"time":71.5,"velocity":1},{"duration":0.25,"durationTicks":480,"midi":69,"name":"A4","ticks":137760,"time":71.75,"velocity":1},{"duration":0.25,"durationTicks":480,"midi":69,"name":"A4","ticks":138240,"time":72,"velocity":1},{"duration":0.25,"durationTicks":480,"midi":70,"name":"A#4","ticks":138240,"time":72,"velocity":1},{"duration":0.25,"durationTicks":480,"midi":69,"name":"A4","ticks":138720,"time":72.25,"velocity":1},{"duration":0.25,"durationTicks":480,"midi":69,"name":"A4","ticks":139200,"time":72.5,"velocity":1},{"duration":0.25,"durationTicks":480,"midi":69,"name":"A4","ticks":139680,"time":72.75,"velocity":1},{"duration":0.0625,"durationTicks":120,"midi":69,"name":"A4","ticks":140160,"time":73,"velocity":1},{"duration":0.25,"durationTicks":480,"midi":70,"name":"A#4","ticks":140160,"time":73,"velocity":1},{"duration":0.0625,"durationTicks":120,"midi":69,"name":"A4","ticks":140280,"time":73.0625,"velocity":1},{"duration":0.0625,"durationTicks":120,"midi":69,"name":"A4","ticks":140400,"time":73.125,"velocity":1},{"duration":0.25,"durationTicks":480,"midi":69,"name":"A4","ticks":140640,"time":73.25,"velocity":1},{"duration":0.25,"durationTicks":480,"midi":69,"name":"A4","ticks":141120,"time":73.5,"velocity":1},{"duration":0.25,"durationTicks":480,"midi":69,"name":"A4","ticks":141600,"time":73.75,"velocity":1},{"duration":0.25,"durationTicks":480,"midi":69,"name":"A4","ticks":142080,"time":74,"velocity":1},{"duration":0.25,"durationTicks":480,"midi":70,"name":"A#4","ticks":142080,"time":74,"velocity":1},{"duration":0.25,"durationTicks":480,"midi":69,"name":"A4","ticks":142560,"time":74.25,"velocity":1},{"duration":0.25,"durationTicks":480,"midi":69,"name":"A4","ticks":143040,"time":74.5,"velocity":1},{"duration":0.25,"durationTicks":480,"midi":69,"name":"A4","ticks":143520,"time":74.75,"velocity":1},{"duration":0.0625,"durationTicks":120,"midi":69,"name":"A4","ticks":144000,"time":75,"velocity":1},{"duration":0.25,"durationTicks":480,"midi":70,"name":"A#4","ticks":144000,"time":75,"velocity":1},{"duration":0.0625,"durationTicks":120,"midi":69,"name":"A4","ticks":144120,"time":75.0625,"velocity":1},{"duration":0.0625,"durationTicks":120,"midi":69,"name":"A4","ticks":144240,"time":75.125,"velocity":1},{"duration":0.25,"durationTicks":480,"midi":69,"name":"A4","ticks":144480,"time":75.25,"velocity":1},{"duration":0.25,"durationTicks":480,"midi":69,"name":"A4","ticks":144960,"time":75.5,"velocity":1},{"duration":0.25,"durationTicks":480,"midi":69,"name":"A4","ticks":145440,"time":75.75,"velocity":1},{"duration":0.25,"durationTicks":480,"midi":69,"name":"A4","ticks":145920,"time":76,"velocity":1},{"duration":0.25,"durationTicks":480,"midi":70,"name":"A#4","ticks":145920,"time":76,"velocity":1},{"duration":0.25,"durationTicks":480,"midi":69,"name":"A4","ticks":146400,"time":76.25,"velocity":1},{"duration":0.25,"durationTicks":480,"midi":69,"name":"A4","ticks":146880,"time":76.5,"velocity":1},{"duration":0.25,"durationTicks":480,"midi":69,"name":"A4","ticks":147360,"time":76.75,"velocity":1},{"duration":0.0625,"durationTicks":120,"midi":69,"name":"A4","ticks":147840,"time":77,"velocity":1},{"duration":0.25,"durationTicks":480,"midi":70,"name":"A#4","ticks":147840,"time":77,"velocity":1},{"duration":0.0625,"durationTicks":120,"midi":69,"name":"A4","ticks":147960,"time":77.0625,"velocity":1},{"duration":0.0625,"durationTicks":120,"midi":69,"name":"A4","ticks":148080,"time":77.125,"velocity":1},{"duration":0.25,"durationTicks":480,"midi":69,"name":"A4","ticks":148320,"time":77.25,"velocity":1},{"duration":0.25,"durationTicks":480,"midi":69,"name":"A4","ticks":148800,"time":77.5,"velocity":1},{"duration":0.25,"durationTicks":480,"midi":69,"name":"A4","ticks":149280,"time":77.75,"velocity":1},{"duration":0.25,"durationTicks":480,"midi":69,"name":"A4","ticks":149760,"time":78,"velocity":1},{"duration":0.25,"durationTicks":480,"midi":70,"name":"A#4","ticks":149760,"time":78,"velocity":1},{"duration":0.25,"durationTicks":480,"midi":69,"name":"A4","ticks":150240,"time":78.25,"velocity":1},{"duration":0.25,"durationTicks":480,"midi":69,"name":"A4","ticks":150720,"time":78.5,"velocity":1},{"duration":0.25,"durationTicks":480,"midi":69,"name":"A4","ticks":151200,"time":78.75,"velocity":1},{"duration":0.0625,"durationTicks":120,"midi":69,"name":"A4","ticks":151680,"time":79,"velocity":1},{"duration":0.25,"durationTicks":480,"midi":70,"name":"A#4","ticks":151680,"time":79,"velocity":1},{"duration":0.0625,"durationTicks":120,"midi":69,"name":"A4","ticks":151800,"time":79.0625,"velocity":1},{"duration":0.0625,"durationTicks":120,"midi":69,"name":"A4","ticks":151920,"time":79.125,"velocity":1},{"duration":0.25,"durationTicks":480,"midi":69,"name":"A4","ticks":152160,"time":79.25,"velocity":1},{"duration":0.25,"durationTicks":480,"midi":69,"name":"A4","ticks":152640,"time":79.5,"velocity":1},{"duration":0.25,"durationTicks":480,"midi":69,"name":"A4","ticks":153120,"time":79.75,"velocity":1},{"duration":0.25,"durationTicks":480,"midi":69,"name":"A4","ticks":153600,"time":80,"velocity":1},{"duration":0.25,"durationTicks":480,"midi":70,"name":"A#4","ticks":153600,"time":80,"velocity":1},{"duration":0.25,"durationTicks":480,"midi":69,"name":"A4","ticks":154080,"time":80.25,"velocity":1},{"duration":0.25,"durationTicks":480,"midi":69,"name":"A4","ticks":154560,"time":80.5,"velocity":1},{"duration":0.25,"durationTicks":480,"midi":69,"name":"A4","ticks":155040,"time":80.75,"velocity":1},{"duration":0.0625,"durationTicks":120,"midi":69,"name":"A4","ticks":155520,"time":81,"velocity":1},{"duration":0.25,"durationTicks":480,"midi":70,"name":"A#4","ticks":155520,"time":81,"velocity":1},{"duration":0.0625,"durationTicks":120,"midi":69,"name":"A4","ticks":155640,"time":81.0625,"velocity":1},{"duration":0.0625,"durationTicks":120,"midi":69,"name":"A4","ticks":155760,"time":81.125,"velocity":1},{"duration":0.25,"durationTicks":480,"midi":69,"name":"A4","ticks":156000,"time":81.25,"velocity":1},{"duration":0.25,"durationTicks":480,"midi":69,"name":"A4","ticks":156480,"time":81.5,"velocity":1},{"duration":0.25,"durationTicks":480,"midi":69,"name":"A4","ticks":156960,"time":81.75,"velocity":1},{"duration":0.25,"durationTicks":480,"midi":69,"name":"A4","ticks":157440,"time":82,"velocity":1},{"duration":0.25,"durationTicks":480,"midi":70,"name":"A#4","ticks":157440,"time":82,"velocity":1},{"duration":0.25,"durationTicks":480,"midi":69,"name":"A4","ticks":157920,"time":82.25,"velocity":1},{"duration":0.25,"durationTicks":480,"midi":69,"name":"A4","ticks":158400,"time":82.5,"velocity":1},{"duration":0.25,"durationTicks":480,"midi":69,"name":"A4","ticks":158880,"time":82.75,"velocity":1},{"duration":0.0625,"durationTicks":120,"midi":69,"name":"A4","ticks":159360,"time":83,"velocity":1},{"duration":0.25,"durationTicks":480,"midi":70,"name":"A#4","ticks":159360,"time":83,"velocity":1},{"duration":0.0625,"durationTicks":120,"midi":69,"name":"A4","ticks":159480,"time":83.0625,"velocity":1},{"duration":0.0625,"durationTicks":120,"midi":69,"name":"A4","ticks":159600,"time":83.125,"velocity":1},{"duration":0.25,"durationTicks":480,"midi":69,"name":"A4","ticks":159840,"time":83.25,"velocity":1},{"duration":0.25,"durationTicks":480,"midi":69,"name":"A4","ticks":160320,"time":83.5,"velocity":1},{"duration":0.25,"durationTicks":480,"midi":69,"name":"A4","ticks":160800,"time":83.75,"velocity":1},{"duration":0.25,"durationTicks":480,"midi":69,"name":"A4","ticks":161280,"time":84,"velocity":1},{"duration":0.25,"durationTicks":480,"midi":70,"name":"A#4","ticks":161280,"time":84,"velocity":1},{"duration":0.25,"durationTicks":480,"midi":69,"name":"A4","ticks":161760,"time":84.25,"velocity":1},{"duration":0.25,"durationTicks":480,"midi":69,"name":"A4","ticks":162240,"time":84.5,"velocity":1},{"duration":0.25,"durationTicks":480,"midi":69,"name":"A4","ticks":162720,"time":84.75,"velocity":1},{"duration":0.0625,"durationTicks":120,"midi":69,"name":"A4","ticks":163200,"time":85,"velocity":1},{"duration":0.25,"durationTicks":480,"midi":70,"name":"A#4","ticks":163200,"time":85,"velocity":1},{"duration":0.0625,"durationTicks":120,"midi":69,"name":"A4","ticks":163320,"time":85.0625,"velocity":1},{"duration":0.0625,"durationTicks":120,"midi":69,"name":"A4","ticks":163440,"time":85.125,"velocity":1},{"duration":0.25,"durationTicks":480,"midi":69,"name":"A4","ticks":163680,"time":85.25,"velocity":1},{"duration":0.25,"durationTicks":480,"midi":69,"name":"A4","ticks":164160,"time":85.5,"velocity":1},{"duration":0.25,"durationTicks":480,"midi":69,"name":"A4","ticks":164640,"time":85.75,"velocity":1},{"duration":0.25,"durationTicks":480,"midi":69,"name":"A4","ticks":165120,"time":86,"velocity":1},{"duration":0.25,"durationTicks":480,"midi":70,"name":"A#4","ticks":165120,"time":86,"velocity":1},{"duration":0.25,"durationTicks":480,"midi":69,"name":"A4","ticks":165600,"time":86.25,"velocity":1},{"duration":0.25,"durationTicks":480,"midi":69,"name":"A4","ticks":166080,"time":86.5,"velocity":1},{"duration":0.25,"durationTicks":480,"midi":69,"name":"A4","ticks":166560,"time":86.75,"velocity":1},{"duration":0.0625,"durationTicks":120,"midi":69,"name":"A4","ticks":167040,"time":87,"velocity":1},{"duration":0.25,"durationTicks":480,"midi":70,"name":"A#4","ticks":167040,"time":87,"velocity":1},{"duration":0.0625,"durationTicks":120,"midi":69,"name":"A4","ticks":167160,"time":87.0625,"velocity":1},{"duration":0.0625,"durationTicks":120,"midi":69,"name":"A4","ticks":167280,"time":87.125,"velocity":1},{"duration":0.25,"durationTicks":480,"midi":69,"name":"A4","ticks":167520,"time":87.25,"velocity":1},{"duration":0.25,"durationTicks":480,"midi":69,"name":"A4","ticks":168000,"time":87.5,"velocity":1},{"duration":0.25,"durationTicks":480,"midi":69,"name":"A4","ticks":168480,"time":87.75,"velocity":1},{"duration":0.25,"durationTicks":480,"midi":69,"name":"A4","ticks":168960,"time":88,"velocity":1},{"duration":0.25,"durationTicks":480,"midi":70,"name":"A#4","ticks":168960,"time":88,"velocity":1},{"duration":0.25,"durationTicks":480,"midi":69,"name":"A4","ticks":169440,"time":88.25,"velocity":1},{"duration":0.25,"durationTicks":480,"midi":69,"name":"A4","ticks":169920,"time":88.5,"velocity":1},{"duration":0.25,"durationTicks":480,"midi":69,"name":"A4","ticks":170400,"time":88.75,"velocity":1},{"duration":0.0625,"durationTicks":120,"midi":69,"name":"A4","ticks":170880,"time":89,"velocity":1},{"duration":0.25,"durationTicks":480,"midi":70,"name":"A#4","ticks":170880,"time":89,"velocity":1},{"duration":0.0625,"durationTicks":120,"midi":69,"name":"A4","ticks":171000,"time":89.0625,"velocity":1},{"duration":0.0625,"durationTicks":120,"midi":69,"name":"A4","ticks":171120,"time":89.125,"velocity":1},{"duration":0.25,"durationTicks":480,"midi":69,"name":"A4","ticks":171360,"time":89.25,"velocity":1},{"duration":0.25,"durationTicks":480,"midi":69,"name":"A4","ticks":171840,"time":89.5,"velocity":1},{"duration":0.25,"durationTicks":480,"midi":69,"name":"A4","ticks":172320,"time":89.75,"velocity":1},{"duration":0.25,"durationTicks":480,"midi":69,"name":"A4","ticks":172800,"time":90,"velocity":1},{"duration":0.25,"durationTicks":480,"midi":70,"name":"A#4","ticks":172800,"time":90,"velocity":1},{"duration":0.25,"durationTicks":480,"midi":69,"name":"A4","ticks":173280,"time":90.25,"velocity":1},{"duration":0.25,"durationTicks":480,"midi":69,"name":"A4","ticks":173760,"time":90.5,"velocity":1},{"duration":0.25,"durationTicks":480,"midi":69,"name":"A4","ticks":174240,"time":90.75,"velocity":1},{"duration":0.0625,"durationTicks":120,"midi":69,"name":"A4","ticks":174720,"time":91,"velocity":1},{"duration":0.25,"durationTicks":480,"midi":70,"name":"A#4","ticks":174720,"time":91,"velocity":1},{"duration":0.0625,"durationTicks":120,"midi":69,"name":"A4","ticks":174840,"time":91.0625,"velocity":1},{"duration":0.0625,"durationTicks":120,"midi":69,"name":"A4","ticks":174960,"time":91.125,"velocity":1},{"duration":0.25,"durationTicks":480,"midi":69,"name":"A4","ticks":175200,"time":91.25,"velocity":1},{"duration":0.25,"durationTicks":480,"midi":69,"name":"A4","ticks":175680,"time":91.5,"velocity":1},{"duration":0.25,"durationTicks":480,"midi":69,"name":"A4","ticks":176160,"time":91.75,"velocity":1},{"duration":0.25,"durationTicks":480,"midi":69,"name":"A4","ticks":176640,"time":92,"velocity":1},{"duration":0.25,"durationTicks":480,"midi":70,"name":"A#4","ticks":176640,"time":92,"velocity":1},{"duration":0.25,"durationTicks":480,"midi":69,"name":"A4","ticks":177120,"time":92.25,"velocity":1},{"duration":0.25,"durationTicks":480,"midi":69,"name":"A4","ticks":177600,"time":92.5,"velocity":1},{"duration":0.25,"durationTicks":480,"midi":69,"name":"A4","ticks":178080,"time":92.75,"velocity":1},{"duration":0.0625,"durationTicks":120,"midi":69,"name":"A4","ticks":178560,"time":93,"velocity":1},{"duration":0.25,"durationTicks":480,"midi":70,"name":"A#4","ticks":178560,"time":93,"velocity":1},{"duration":0.0625,"durationTicks":120,"midi":69,"name":"A4","ticks":178680,"time":93.0625,"velocity":1},{"duration":0.0625,"durationTicks":120,"midi":69,"name":"A4","ticks":178800,"time":93.125,"velocity":1},{"duration":0.25,"durationTicks":480,"midi":69,"name":"A4","ticks":179040,"time":93.25,"velocity":1},{"duration":0.25,"durationTicks":480,"midi":69,"name":"A4","ticks":179520,"time":93.5,"velocity":1},{"duration":0.25,"durationTicks":480,"midi":69,"name":"A4","ticks":180000,"time":93.75,"velocity":1},{"duration":0.25,"durationTicks":480,"midi":69,"name":"A4","ticks":180480,"time":94,"velocity":1},{"duration":0.25,"durationTicks":480,"midi":70,"name":"A#4","ticks":180480,"time":94,"velocity":1},{"duration":0.25,"durationTicks":480,"midi":69,"name":"A4","ticks":180960,"time":94.25,"velocity":1},{"duration":0.25,"durationTicks":480,"midi":69,"name":"A4","ticks":181440,"time":94.5,"velocity":1},{"duration":0.25,"durationTicks":480,"midi":69,"name":"A4","ticks":181920,"time":94.75,"velocity":1},{"duration":0.0625,"durationTicks":120,"midi":69,"name":"A4","ticks":182400,"time":95,"velocity":1},{"duration":0.25,"durationTicks":480,"midi":70,"name":"A#4","ticks":182400,"time":95,"velocity":1},{"duration":0.0625,"durationTicks":120,"midi":69,"name":"A4","ticks":182520,"time":95.0625,"velocity":1},{"duration":0.0625,"durationTicks":120,"midi":69,"name":"A4","ticks":182640,"time":95.125,"velocity":1},{"duration":0.25,"durationTicks":480,"midi":69,"name":"A4","ticks":182880,"time":95.25,"velocity":1},{"duration":0.25,"durationTicks":480,"midi":69,"name":"A4","ticks":183360,"time":95.5,"velocity":1},{"duration":0.25,"durationTicks":480,"midi":69,"name":"A4","ticks":183840,"time":95.75,"velocity":1},{"duration":0.25,"durationTicks":480,"midi":69,"name":"A4","ticks":184320,"time":96,"velocity":1},{"duration":0.25,"durationTicks":480,"midi":70,"name":"A#4","ticks":184320,"time":96,"velocity":1},{"duration":0.25,"durationTicks":480,"midi":69,"name":"A4","ticks":184800,"time":96.25,"velocity":1},{"duration":0.25,"durationTicks":480,"midi":69,"name":"A4","ticks":185280,"time":96.5,"velocity":1},{"duration":0.25,"durationTicks":480,"midi":69,"name":"A4","ticks":185760,"time":96.75,"velocity":1},{"duration":0.0625,"durationTicks":120,"midi":69,"name":"A4","ticks":186240,"time":97,"velocity":1},{"duration":0.25,"durationTicks":480,"midi":70,"name":"A#4","ticks":186240,"time":97,"velocity":1},{"duration":0.0625,"durationTicks":120,"midi":69,"name":"A4","ticks":186360,"time":97.0625,"velocity":1},{"duration":0.0625,"durationTicks":120,"midi":69,"name":"A4","ticks":186480,"time":97.125,"velocity":1},{"duration":0.25,"durationTicks":480,"midi":69,"name":"A4","ticks":186720,"time":97.25,"velocity":1},{"duration":0.25,"durationTicks":480,"midi":69,"name":"A4","ticks":187200,"time":97.5,"velocity":1},{"duration":0.25,"durationTicks":480,"midi":69,"name":"A4","ticks":187680,"time":97.75,"velocity":1},{"duration":0.25,"durationTicks":480,"midi":69,"name":"A4","ticks":188160,"time":98,"velocity":1},{"duration":0.25,"durationTicks":480,"midi":70,"name":"A#4","ticks":188160,"time":98,"velocity":1},{"duration":0.25,"durationTicks":480,"midi":69,"name":"A4","ticks":188640,"time":98.25,"velocity":1},{"duration":0.25,"durationTicks":480,"midi":69,"name":"A4","ticks":189120,"time":98.5,"velocity":1},{"duration":0.25,"durationTicks":480,"midi":69,"name":"A4","ticks":189600,"time":98.75,"velocity":1},{"duration":0.0625,"durationTicks":120,"midi":69,"name":"A4","ticks":190080,"time":99,"velocity":1},{"duration":0.25,"durationTicks":480,"midi":70,"name":"A#4","ticks":190080,"time":99,"velocity":1},{"duration":0.0625,"durationTicks":120,"midi":69,"name":"A4","ticks":190200,"time":99.0625,"velocity":1},{"duration":0.0625,"durationTicks":120,"midi":69,"name":"A4","ticks":190320,"time":99.125,"velocity":1},{"duration":0.25,"durationTicks":480,"midi":69,"name":"A4","ticks":190560,"time":99.25,"velocity":1},{"duration":0.25,"durationTicks":480,"midi":69,"name":"A4","ticks":191040,"time":99.5,"velocity":1},{"duration":0.25,"durationTicks":480,"midi":69,"name":"A4","ticks":191520,"time":99.75,"velocity":1},{"duration":0.25,"durationTicks":480,"midi":69,"name":"A4","ticks":192000,"time":100,"velocity":1},{"duration":0.25,"durationTicks":480,"midi":70,"name":"A#4","ticks":192000,"time":100,"velocity":1},{"duration":0.25,"durationTicks":480,"midi":69,"name":"A4","ticks":192480,"time":100.25,"velocity":1},{"duration":0.25,"durationTicks":480,"midi":69,"name":"A4","ticks":192960,"time":100.5,"velocity":1},{"duration":0.25,"durationTicks":480,"midi":69,"name":"A4","ticks":193440,"time":100.75,"velocity":1},{"duration":0.0625,"durationTicks":120,"midi":69,"name":"A4","ticks":193920,"time":101,"velocity":1},{"duration":0.25,"durationTicks":480,"midi":70,"name":"A#4","ticks":193920,"time":101,"velocity":1},{"duration":0.0625,"durationTicks":120,"midi":69,"name":"A4","ticks":194040,"time":101.0625,"velocity":1},{"duration":0.0625,"durationTicks":120,"midi":69,"name":"A4","ticks":194160,"time":101.125,"velocity":1},{"duration":0.25,"durationTicks":480,"midi":69,"name":"A4","ticks":194400,"time":101.25,"velocity":1},{"duration":0.25,"durationTicks":480,"midi":69,"name":"A4","ticks":194880,"time":101.5,"velocity":1},{"duration":0.25,"durationTicks":480,"midi":69,"name":"A4","ticks":195360,"time":101.75,"velocity":1},{"duration":0.25,"durationTicks":480,"midi":69,"name":"A4","ticks":195840,"time":102,"velocity":1},{"duration":0.25,"durationTicks":480,"midi":70,"name":"A#4","ticks":195840,"time":102,"velocity":1},{"duration":0.25,"durationTicks":480,"midi":69,"name":"A4","ticks":196320,"time":102.25,"velocity":1},{"duration":0.25,"durationTicks":480,"midi":69,"name":"A4","ticks":196800,"time":102.5,"velocity":1},{"duration":0.25,"durationTicks":480,"midi":69,"name":"A4","ticks":197280,"time":102.75,"velocity":1},{"duration":0.0625,"durationTicks":120,"midi":69,"name":"A4","ticks":197760,"time":103,"velocity":1},{"duration":0.25,"durationTicks":480,"midi":70,"name":"A#4","ticks":197760,"time":103,"velocity":1},{"duration":0.0625,"durationTicks":120,"midi":69,"name":"A4","ticks":197880,"time":103.0625,"velocity":1},{"duration":0.0625,"durationTicks":120,"midi":69,"name":"A4","ticks":198000,"time":103.125,"velocity":1},{"duration":0.25,"durationTicks":480,"midi":69,"name":"A4","ticks":198240,"time":103.25,"velocity":1},{"duration":0.25,"durationTicks":480,"midi":69,"name":"A4","ticks":198720,"time":103.5,"velocity":1},{"duration":0.25,"durationTicks":480,"midi":69,"name":"A4","ticks":199200,"time":103.75,"velocity":1},{"duration":0.25,"durationTicks":480,"midi":69,"name":"A4","ticks":199680,"time":104,"velocity":1},{"duration":0.25,"durationTicks":480,"midi":70,"name":"A#4","ticks":199680,"time":104,"velocity":1},{"duration":0.25,"durationTicks":480,"midi":69,"name":"A4","ticks":200160,"time":104.25,"velocity":1},{"duration":0.25,"durationTicks":480,"midi":69,"name":"A4","ticks":200640,"time":104.5,"velocity":1},{"duration":0.25,"durationTicks":480,"midi":69,"name":"A4","ticks":201120,"time":104.75,"velocity":1},{"duration":0.0625,"durationTicks":120,"midi":69,"name":"A4","ticks":201600,"time":105,"velocity":1},{"duration":0.25,"durationTicks":480,"midi":70,"name":"A#4","ticks":201600,"time":105,"velocity":1},{"duration":0.0625,"durationTicks":120,"midi":69,"name":"A4","ticks":201720,"time":105.0625,"velocity":1},{"duration":0.0625,"durationTicks":120,"midi":69,"name":"A4","ticks":201840,"time":105.125,"velocity":1},{"duration":0.25,"durationTicks":480,"midi":69,"name":"A4","ticks":202080,"time":105.25,"velocity":1},{"duration":0.25,"durationTicks":480,"midi":69,"name":"A4","ticks":202560,"time":105.5,"velocity":1},{"duration":0.25,"durationTicks":480,"midi":69,"name":"A4","ticks":203040,"time":105.75,"velocity":1},{"duration":0.25,"durationTicks":480,"midi":69,"name":"A4","ticks":203520,"time":106,"velocity":1},{"duration":0.25,"durationTicks":480,"midi":70,"name":"A#4","ticks":203520,"time":106,"velocity":1},{"duration":0.25,"durationTicks":480,"midi":69,"name":"A4","ticks":204000,"time":106.25,"velocity":1},{"duration":0.25,"durationTicks":480,"midi":69,"name":"A4","ticks":204480,"time":106.5,"velocity":1},{"duration":0.25,"durationTicks":480,"midi":69,"name":"A4","ticks":204960,"time":106.75,"velocity":1},{"duration":0.0625,"durationTicks":120,"midi":69,"name":"A4","ticks":205440,"time":107,"velocity":1},{"duration":0.25,"durationTicks":480,"midi":70,"name":"A#4","ticks":205440,"time":107,"velocity":1},{"duration":0.0625,"durationTicks":120,"midi":69,"name":"A4","ticks":205560,"time":107.0625,"velocity":1},{"duration":0.0625,"durationTicks":120,"midi":69,"name":"A4","ticks":205680,"time":107.125,"velocity":1},{"duration":0.25,"durationTicks":480,"midi":69,"name":"A4","ticks":205920,"time":107.25,"velocity":1},{"duration":0.25,"durationTicks":480,"midi":69,"name":"A4","ticks":206400,"time":107.5,"velocity":1},{"duration":0.25,"durationTicks":480,"midi":69,"name":"A4","ticks":206880,"time":107.75,"velocity":1},{"duration":0.25,"durationTicks":480,"midi":69,"name":"A4","ticks":207360,"time":108,"velocity":1},{"duration":0.25,"durationTicks":480,"midi":70,"name":"A#4","ticks":207360,"time":108,"velocity":1},{"duration":0.25,"durationTicks":480,"midi":69,"name":"A4","ticks":207840,"time":108.25,"velocity":1},{"duration":0.25,"durationTicks":480,"midi":69,"name":"A4","ticks":208320,"time":108.5,"velocity":1},{"duration":0.25,"durationTicks":480,"midi":69,"name":"A4","ticks":208800,"time":108.75,"velocity":1},{"duration":0.0625,"durationTicks":120,"midi":69,"name":"A4","ticks":209280,"time":109,"velocity":1},{"duration":0.25,"durationTicks":480,"midi":70,"name":"A#4","ticks":209280,"time":109,"velocity":1},{"duration":0.0625,"durationTicks":120,"midi":69,"name":"A4","ticks":209400,"time":109.0625,"velocity":1},{"duration":0.0625,"durationTicks":120,"midi":69,"name":"A4","ticks":209520,"time":109.125,"velocity":1},{"duration":0.25,"durationTicks":480,"midi":69,"name":"A4","ticks":209760,"time":109.25,"velocity":1},{"duration":0.25,"durationTicks":480,"midi":69,"name":"A4","ticks":210240,"time":109.5,"velocity":1},{"duration":0.25,"durationTicks":480,"midi":69,"name":"A4","ticks":210720,"time":109.75,"velocity":1},{"duration":0.25,"durationTicks":480,"midi":69,"name":"A4","ticks":211200,"time":110,"velocity":1},{"duration":0.25,"durationTicks":480,"midi":70,"name":"A#4","ticks":211200,"time":110,"velocity":1},{"duration":0.25,"durationTicks":480,"midi":69,"name":"A4","ticks":211680,"time":110.25,"velocity":1},{"duration":0.25,"durationTicks":480,"midi":69,"name":"A4","ticks":212160,"time":110.5,"velocity":1},{"duration":0.25,"durationTicks":480,"midi":69,"name":"A4","ticks":212640,"time":110.75,"velocity":1},{"duration":0.0625,"durationTicks":120,"midi":69,"name":"A4","ticks":213120,"time":111,"velocity":1},{"duration":0.25,"durationTicks":480,"midi":70,"name":"A#4","ticks":213120,"time":111,"velocity":1},{"duration":0.0625,"durationTicks":120,"midi":69,"name":"A4","ticks":213240,"time":111.0625,"velocity":1},{"duration":0.0625,"durationTicks":120,"midi":69,"name":"A4","ticks":213360,"time":111.125,"velocity":1},{"duration":0.25,"durationTicks":480,"midi":69,"name":"A4","ticks":213600,"time":111.25,"velocity":1},{"duration":0.25,"durationTicks":480,"midi":69,"name":"A4","ticks":214080,"time":111.5,"velocity":1},{"duration":0.25,"durationTicks":480,"midi":69,"name":"A4","ticks":214560,"time":111.75,"velocity":1},{"duration":0.25,"durationTicks":480,"midi":69,"name":"A4","ticks":215040,"time":112,"velocity":1},{"duration":0.25,"durationTicks":480,"midi":70,"name":"A#4","ticks":215040,"time":112,"velocity":1},{"duration":0.25,"durationTicks":480,"midi":69,"name":"A4","ticks":215520,"time":112.25,"velocity":1},{"duration":0.25,"durationTicks":480,"midi":69,"name":"A4","ticks":216000,"time":112.5,"velocity":1},{"duration":0.25,"durationTicks":480,"midi":69,"name":"A4","ticks":216480,"time":112.75,"velocity":1},{"duration":0.0625,"durationTicks":120,"midi":69,"name":"A4","ticks":216960,"time":113,"velocity":1},{"duration":0.25,"durationTicks":480,"midi":70,"name":"A#4","ticks":216960,"time":113,"velocity":1},{"duration":0.0625,"durationTicks":120,"midi":69,"name":"A4","ticks":217080,"time":113.0625,"velocity":1},{"duration":0.0625,"durationTicks":120,"midi":69,"name":"A4","ticks":217200,"time":113.125,"velocity":1},{"duration":0.25,"durationTicks":480,"midi":69,"name":"A4","ticks":217440,"time":113.25,"velocity":1},{"duration":0.25,"durationTicks":480,"midi":69,"name":"A4","ticks":217920,"time":113.5,"velocity":1},{"duration":0.25,"durationTicks":480,"midi":69,"name":"A4","ticks":218400,"time":113.75,"velocity":1},{"duration":0.25,"durationTicks":480,"midi":69,"name":"A4","ticks":218880,"time":114,"velocity":1},{"duration":0.25,"durationTicks":480,"midi":70,"name":"A#4","ticks":218880,"time":114,"velocity":1},{"duration":0.25,"durationTicks":480,"midi":69,"name":"A4","ticks":219360,"time":114.25,"velocity":1},{"duration":0.25,"durationTicks":480,"midi":69,"name":"A4","ticks":219840,"time":114.5,"velocity":1},{"duration":0.25,"durationTicks":480,"midi":69,"name":"A4","ticks":220320,"time":114.75,"velocity":1},{"duration":0.0625,"durationTicks":120,"midi":69,"name":"A4","ticks":220800,"time":115,"velocity":1},{"duration":0.25,"durationTicks":480,"midi":70,"name":"A#4","ticks":220800,"time":115,"velocity":1},{"duration":0.0625,"durationTicks":120,"midi":69,"name":"A4","ticks":220920,"time":115.0625,"velocity":1},{"duration":0.0625,"durationTicks":120,"midi":69,"name":"A4","ticks":221040,"time":115.125,"velocity":1},{"duration":0.25,"durationTicks":480,"midi":69,"name":"A4","ticks":221280,"time":115.25,"velocity":1},{"duration":0.25,"durationTicks":480,"midi":69,"name":"A4","ticks":221760,"time":115.5,"velocity":1},{"duration":0.25,"durationTicks":480,"midi":69,"name":"A4","ticks":222240,"time":115.75,"velocity":1},{"duration":0.25,"durationTicks":480,"midi":69,"name":"A4","ticks":222720,"time":116,"velocity":1},{"duration":0.25,"durationTicks":480,"midi":70,"name":"A#4","ticks":222720,"time":116,"velocity":1},{"duration":0.25,"durationTicks":480,"midi":69,"name":"A4","ticks":223200,"time":116.25,"velocity":1},{"duration":0.25,"durationTicks":480,"midi":69,"name":"A4","ticks":223680,"time":116.5,"velocity":1},{"duration":0.25,"durationTicks":480,"midi":69,"name":"A4","ticks":224160,"time":116.75,"velocity":1},{"duration":0.0625,"durationTicks":120,"midi":69,"name":"A4","ticks":224640,"time":117,"velocity":1},{"duration":0.25,"durationTicks":480,"midi":70,"name":"A#4","ticks":224640,"time":117,"velocity":1},{"duration":0.0625,"durationTicks":120,"midi":69,"name":"A4","ticks":224760,"time":117.0625,"velocity":1},{"duration":0.0625,"durationTicks":120,"midi":69,"name":"A4","ticks":224880,"time":117.125,"velocity":1},{"duration":0.25,"durationTicks":480,"midi":69,"name":"A4","ticks":225120,"time":117.25,"velocity":1},{"duration":0.25,"durationTicks":480,"midi":69,"name":"A4","ticks":225600,"time":117.5,"velocity":1},{"duration":0.25,"durationTicks":480,"midi":69,"name":"A4","ticks":226080,"time":117.75,"velocity":1},{"duration":0.25,"durationTicks":480,"midi":69,"name":"A4","ticks":226560,"time":118,"velocity":1},{"duration":0.25,"durationTicks":480,"midi":70,"name":"A#4","ticks":226560,"time":118,"velocity":1},{"duration":0.25,"durationTicks":480,"midi":69,"name":"A4","ticks":227040,"time":118.25,"velocity":1},{"duration":0.25,"durationTicks":480,"midi":69,"name":"A4","ticks":227520,"time":118.5,"velocity":1},{"duration":0.25,"durationTicks":480,"midi":69,"name":"A4","ticks":228000,"time":118.75,"velocity":1},{"duration":0.0625,"durationTicks":120,"midi":69,"name":"A4","ticks":228480,"time":119,"velocity":1},{"duration":0.25,"durationTicks":480,"midi":70,"name":"A#4","ticks":228480,"time":119,"velocity":1},{"duration":0.0625,"durationTicks":120,"midi":69,"name":"A4","ticks":228600,"time":119.0625,"velocity":1},{"duration":0.0625,"durationTicks":120,"midi":69,"name":"A4","ticks":228720,"time":119.125,"velocity":1},{"duration":0.25,"durationTicks":480,"midi":69,"name":"A4","ticks":228960,"time":119.25,"velocity":1},{"duration":0.25,"durationTicks":480,"midi":69,"name":"A4","ticks":229440,"time":119.5,"velocity":1},{"duration":0.25,"durationTicks":480,"midi":69,"name":"A4","ticks":229920,"time":119.75,"velocity":1},{"duration":0.25,"durationTicks":480,"midi":69,"name":"A4","ticks":230400,"time":120,"velocity":1},{"duration":0.25,"durationTicks":480,"midi":70,"name":"A#4","ticks":230400,"time":120,"velocity":1},{"duration":0.25,"durationTicks":480,"midi":69,"name":"A4","ticks":230880,"time":120.25,"velocity":1},{"duration":0.25,"durationTicks":480,"midi":69,"name":"A4","ticks":231360,"time":120.5,"velocity":1},{"duration":0.25,"durationTicks":480,"midi":69,"name":"A4","ticks":231840,"time":120.75,"velocity":1},{"duration":0.0625,"durationTicks":120,"midi":69,"name":"A4","ticks":232320,"time":121,"velocity":1},{"duration":0.25,"durationTicks":480,"midi":70,"name":"A#4","ticks":232320,"time":121,"velocity":1},{"duration":0.0625,"durationTicks":120,"midi":69,"name":"A4","ticks":232440,"time":121.0625,"velocity":1},{"duration":0.0625,"durationTicks":120,"midi":69,"name":"A4","ticks":232560,"time":121.125,"velocity":1},{"duration":0.25,"durationTicks":480,"midi":69,"name":"A4","ticks":232800,"time":121.25,"velocity":1},{"duration":0.25,"durationTicks":480,"midi":69,"name":"A4","ticks":233280,"time":121.5,"velocity":1},{"duration":0.25,"durationTicks":480,"midi":69,"name":"A4","ticks":233760,"time":121.75,"velocity":1},{"duration":0.25,"durationTicks":480,"midi":69,"name":"A4","ticks":234240,"time":122,"velocity":1},{"duration":0.25,"durationTicks":480,"midi":70,"name":"A#4","ticks":234240,"time":122,"velocity":1},{"duration":0.25,"durationTicks":480,"midi":69,"name":"A4","ticks":234720,"time":122.25,"velocity":1},{"duration":0.25,"durationTicks":480,"midi":69,"name":"A4","ticks":235200,"time":122.5,"velocity":1},{"duration":0.25,"durationTicks":480,"midi":69,"name":"A4","ticks":235680,"time":122.75,"velocity":1},{"duration":0.0625,"durationTicks":120,"midi":69,"name":"A4","ticks":236160,"time":123,"velocity":1},{"duration":0.25,"durationTicks":480,"midi":70,"name":"A#4","ticks":236160,"time":123,"velocity":1},{"duration":0.0625,"durationTicks":120,"midi":69,"name":"A4","ticks":236280,"time":123.0625,"velocity":1},{"duration":0.0625,"durationTicks":120,"midi":69,"name":"A4","ticks":236400,"time":123.125,"velocity":1},{"duration":0.25,"durationTicks":480,"midi":69,"name":"A4","ticks":236640,"time":123.25,"velocity":1},{"duration":0.25,"durationTicks":480,"midi":69,"name":"A4","ticks":237120,"time":123.5,"velocity":1},{"duration":0.25,"durationTicks":480,"midi":69,"name":"A4","ticks":237600,"time":123.75,"velocity":1},{"duration":0.25,"durationTicks":480,"midi":69,"name":"A4","ticks":238080,"time":124,"velocity":1},{"duration":0.25,"durationTicks":480,"midi":70,"name":"A#4","ticks":238080,"time":124,"velocity":1},{"duration":0.25,"durationTicks":480,"midi":69,"name":"A4","ticks":238560,"time":124.25,"velocity":1},{"duration":0.25,"durationTicks":480,"midi":69,"name":"A4","ticks":239040,"time":124.5,"velocity":1},{"duration":0.25,"durationTicks":480,"midi":69,"name":"A4","ticks":239520,"time":124.75,"velocity":1},{"duration":0.0625,"durationTicks":120,"midi":69,"name":"A4","ticks":240000,"time":125,"velocity":1},{"duration":0.25,"durationTicks":480,"midi":70,"name":"A#4","ticks":240000,"time":125,"velocity":1},{"duration":0.0625,"durationTicks":120,"midi":69,"name":"A4","ticks":240120,"time":125.0625,"velocity":1},{"duration":0.0625,"durationTicks":120,"midi":69,"name":"A4","ticks":240240,"time":125.125,"velocity":1},{"duration":0.25,"durationTicks":480,"midi":69,"name":"A4","ticks":240480,"time":125.25,"velocity":1},{"duration":0.25,"durationTicks":480,"midi":69,"name":"A4","ticks":240960,"time":125.5,"velocity":1},{"duration":0.25,"durationTicks":480,"midi":69,"name":"A4","ticks":241440,"time":125.75,"velocity":1},{"duration":0.25,"durationTicks":480,"midi":69,"name":"A4","ticks":241920,"time":126,"velocity":1},{"duration":0.25,"durationTicks":480,"midi":70,"name":"A#4","ticks":241920,"time":126,"velocity":1},{"duration":0.25,"durationTicks":480,"midi":69,"name":"A4","ticks":242400,"time":126.25,"velocity":1},{"duration":0.25,"durationTicks":480,"midi":69,"name":"A4","ticks":242880,"time":126.5,"velocity":1},{"duration":0.25,"durationTicks":480,"midi":69,"name":"A4","ticks":243360,"time":126.75,"velocity":1},{"duration":0.0625,"durationTicks":120,"midi":69,"name":"A4","ticks":243840,"time":127,"velocity":1},{"duration":0.25,"durationTicks":480,"midi":70,"name":"A#4","ticks":243840,"time":127,"velocity":1},{"duration":0.0625,"durationTicks":120,"midi":69,"name":"A4","ticks":243960,"time":127.0625,"velocity":1},{"duration":0.0625,"durationTicks":120,"midi":69,"name":"A4","ticks":244080,"time":127.125,"velocity":1},{"duration":0.25,"durationTicks":480,"midi":69,"name":"A4","ticks":244320,"time":127.25,"velocity":1},{"duration":0.25,"durationTicks":480,"midi":69,"name":"A4","ticks":244800,"time":127.5,"velocity":1},{"duration":0.25,"durationTicks":480,"midi":69,"name":"A4","ticks":245280,"time":127.75,"velocity":1},{"duration":0.25,"durationTicks":480,"midi":69,"name":"A4","ticks":245760,"time":128,"velocity":1},{"duration":0.25,"durationTicks":480,"midi":70,"name":"A#4","ticks":245760,"time":128,"velocity":1},{"duration":0.25,"durationTicks":480,"midi":69,"name":"A4","ticks":246240,"time":128.25,"velocity":1},{"duration":0.25,"durationTicks":480,"midi":69,"name":"A4","ticks":246720,"time":128.5,"velocity":1},{"duration":0.25,"durationTicks":480,"midi":69,"name":"A4","ticks":247200,"time":128.75,"velocity":1},{"duration":0.0625,"durationTicks":120,"midi":69,"name":"A4","ticks":247680,"time":129,"velocity":1},{"duration":0.25,"durationTicks":480,"midi":70,"name":"A#4","ticks":247680,"time":129,"velocity":1},{"duration":0.0625,"durationTicks":120,"midi":69,"name":"A4","ticks":247800,"time":129.0625,"velocity":1},{"duration":0.0625,"durationTicks":120,"midi":69,"name":"A4","ticks":247920,"time":129.125,"velocity":1},{"duration":0.25,"durationTicks":480,"midi":69,"name":"A4","ticks":248160,"time":129.25,"velocity":1},{"duration":0.25,"durationTicks":480,"midi":69,"name":"A4","ticks":248640,"time":129.5,"velocity":1},{"duration":0.25,"durationTicks":480,"midi":69,"name":"A4","ticks":249120,"time":129.75,"velocity":1},{"duration":0.25,"durationTicks":480,"midi":69,"name":"A4","ticks":249600,"time":130,"velocity":1},{"duration":0.25,"durationTicks":480,"midi":70,"name":"A#4","ticks":249600,"time":130,"velocity":1},{"duration":0.25,"durationTicks":480,"midi":69,"name":"A4","ticks":250080,"time":130.25,"velocity":1},{"duration":0.25,"durationTicks":480,"midi":69,"name":"A4","ticks":250560,"time":130.5,"velocity":1},{"duration":0.25,"durationTicks":480,"midi":69,"name":"A4","ticks":251040,"time":130.75,"velocity":1},{"duration":0.0625,"durationTicks":120,"midi":69,"name":"A4","ticks":251520,"time":131,"velocity":1},{"duration":0.25,"durationTicks":480,"midi":70,"name":"A#4","ticks":251520,"time":131,"velocity":1},{"duration":0.0625,"durationTicks":120,"midi":69,"name":"A4","ticks":251640,"time":131.0625,"velocity":1},{"duration":0.0625,"durationTicks":120,"midi":69,"name":"A4","ticks":251760,"time":131.125,"velocity":1},{"duration":0.25,"durationTicks":480,"midi":69,"name":"A4","ticks":252000,"time":131.25,"velocity":1},{"duration":0.25,"durationTicks":480,"midi":69,"name":"A4","ticks":252480,"time":131.5,"velocity":1},{"duration":0.25,"durationTicks":480,"midi":69,"name":"A4","ticks":252960,"time":131.75,"velocity":1},{"duration":0.25,"durationTicks":480,"midi":69,"name":"A4","ticks":253440,"time":132,"velocity":1},{"duration":0.25,"durationTicks":480,"midi":70,"name":"A#4","ticks":253440,"time":132,"velocity":1},{"duration":0.25,"durationTicks":480,"midi":69,"name":"A4","ticks":253920,"time":132.25,"velocity":1},{"duration":0.25,"durationTicks":480,"midi":69,"name":"A4","ticks":254400,"time":132.5,"velocity":1},{"duration":0.25,"durationTicks":480,"midi":69,"name":"A4","ticks":254880,"time":132.75,"velocity":1},{"duration":0.0625,"durationTicks":120,"midi":69,"name":"A4","ticks":255360,"time":133,"velocity":1},{"duration":0.25,"durationTicks":480,"midi":70,"name":"A#4","ticks":255360,"time":133,"velocity":1},{"duration":0.0625,"durationTicks":120,"midi":69,"name":"A4","ticks":255480,"time":133.0625,"velocity":1},{"duration":0.0625,"durationTicks":120,"midi":69,"name":"A4","ticks":255600,"time":133.125,"velocity":1},{"duration":0.25,"durationTicks":480,"midi":69,"name":"A4","ticks":255840,"time":133.25,"velocity":1},{"duration":0.25,"durationTicks":480,"midi":69,"name":"A4","ticks":256320,"time":133.5,"velocity":1},{"duration":0.25,"durationTicks":480,"midi":69,"name":"A4","ticks":256800,"time":133.75,"velocity":1},{"duration":0.25,"durationTicks":480,"midi":69,"name":"A4","ticks":257280,"time":134,"velocity":1},{"duration":0.25,"durationTicks":480,"midi":70,"name":"A#4","ticks":257280,"time":134,"velocity":1},{"duration":0.25,"durationTicks":480,"midi":69,"name":"A4","ticks":257760,"time":134.25,"velocity":1},{"duration":0.25,"durationTicks":480,"midi":69,"name":"A4","ticks":258240,"time":134.5,"velocity":1},{"duration":0.25,"durationTicks":480,"midi":69,"name":"A4","ticks":258720,"time":134.75,"velocity":1},{"duration":0.0625,"durationTicks":120,"midi":69,"name":"A4","ticks":259200,"time":135,"velocity":1},{"duration":0.25,"durationTicks":480,"midi":70,"name":"A#4","ticks":259200,"time":135,"velocity":1},{"duration":0.0625,"durationTicks":120,"midi":69,"name":"A4","ticks":259320,"time":135.0625,"velocity":1},{"duration":0.0625,"durationTicks":120,"midi":69,"name":"A4","ticks":259440,"time":135.125,"velocity":1},{"duration":0.25,"durationTicks":480,"midi":69,"name":"A4","ticks":259680,"time":135.25,"velocity":1},{"duration":0.25,"durationTicks":480,"midi":69,"name":"A4","ticks":260160,"time":135.5,"velocity":1},{"duration":0.25,"durationTicks":480,"midi":69,"name":"A4","ticks":260640,"time":135.75,"velocity":1},{"duration":0.25,"durationTicks":480,"midi":69,"name":"A4","ticks":261120,"time":136,"velocity":1},{"duration":0.25,"durationTicks":480,"midi":70,"name":"A#4","ticks":261120,"time":136,"velocity":1},{"duration":0.25,"durationTicks":480,"midi":69,"name":"A4","ticks":261600,"time":136.25,"velocity":1},{"duration":0.25,"durationTicks":480,"midi":69,"name":"A4","ticks":262080,"time":136.5,"velocity":1},{"duration":0.25,"durationTicks":480,"midi":69,"name":"A4","ticks":262560,"time":136.75,"velocity":1},{"duration":0.0625,"durationTicks":120,"midi":69,"name":"A4","ticks":263040,"time":137,"velocity":1},{"duration":0.25,"durationTicks":480,"midi":70,"name":"A#4","ticks":263040,"time":137,"velocity":1},{"duration":0.0625,"durationTicks":120,"midi":69,"name":"A4","ticks":263160,"time":137.0625,"velocity":1},{"duration":0.0625,"durationTicks":120,"midi":69,"name":"A4","ticks":263280,"time":137.125,"velocity":1},{"duration":0.25,"durationTicks":480,"midi":69,"name":"A4","ticks":263520,"time":137.25,"velocity":1},{"duration":0.25,"durationTicks":480,"midi":69,"name":"A4","ticks":264000,"time":137.5,"velocity":1},{"duration":0.25,"durationTicks":480,"midi":69,"name":"A4","ticks":264480,"time":137.75,"velocity":1},{"duration":0.25,"durationTicks":480,"midi":69,"name":"A4","ticks":264960,"time":138,"velocity":1},{"duration":0.25,"durationTicks":480,"midi":70,"name":"A#4","ticks":264960,"time":138,"velocity":1},{"duration":0.25,"durationTicks":480,"midi":69,"name":"A4","ticks":265440,"time":138.25,"velocity":1},{"duration":0.25,"durationTicks":480,"midi":69,"name":"A4","ticks":265920,"time":138.5,"velocity":1},{"duration":0.25,"durationTicks":480,"midi":69,"name":"A4","ticks":266400,"time":138.75,"velocity":1},{"duration":0.0625,"durationTicks":120,"midi":69,"name":"A4","ticks":266880,"time":139,"velocity":1},{"duration":0.25,"durationTicks":480,"midi":70,"name":"A#4","ticks":266880,"time":139,"velocity":1},{"duration":0.0625,"durationTicks":120,"midi":69,"name":"A4","ticks":267000,"time":139.0625,"velocity":1},{"duration":0.0625,"durationTicks":120,"midi":69,"name":"A4","ticks":267120,"time":139.125,"velocity":1},{"duration":0.25,"durationTicks":480,"midi":69,"name":"A4","ticks":267360,"time":139.25,"velocity":1},{"duration":0.25,"durationTicks":480,"midi":69,"name":"A4","ticks":267840,"time":139.5,"velocity":1},{"duration":0.25,"durationTicks":480,"midi":69,"name":"A4","ticks":268320,"time":139.75,"velocity":1},{"duration":0.25,"durationTicks":480,"midi":69,"name":"A4","ticks":268800,"time":140,"velocity":1},{"duration":0.25,"durationTicks":480,"midi":70,"name":"A#4","ticks":268800,"time":140,"velocity":1},{"duration":0.25,"durationTicks":480,"midi":69,"name":"A4","ticks":269280,"time":140.25,"velocity":1},{"duration":0.25,"durationTicks":480,"midi":69,"name":"A4","ticks":269760,"time":140.5,"velocity":1},{"duration":0.25,"durationTicks":480,"midi":69,"name":"A4","ticks":270240,"time":140.75,"velocity":1},{"duration":0.0625,"durationTicks":120,"midi":69,"name":"A4","ticks":270720,"time":141,"velocity":1},{"duration":0.25,"durationTicks":480,"midi":70,"name":"A#4","ticks":270720,"time":141,"velocity":1},{"duration":0.0625,"durationTicks":120,"midi":69,"name":"A4","ticks":270840,"time":141.0625,"velocity":1},{"duration":0.0625,"durationTicks":120,"midi":69,"name":"A4","ticks":270960,"time":141.125,"velocity":1},{"duration":0.25,"durationTicks":480,"midi":69,"name":"A4","ticks":271200,"time":141.25,"velocity":1},{"duration":0.25,"durationTicks":480,"midi":69,"name":"A4","ticks":271680,"time":141.5,"velocity":1},{"duration":0.25,"durationTicks":480,"midi":69,"name":"A4","ticks":272160,"time":141.75,"velocity":1},{"duration":0.25,"durationTicks":480,"midi":69,"name":"A4","ticks":272640,"time":142,"velocity":1},{"duration":0.25,"durationTicks":480,"midi":70,"name":"A#4","ticks":272640,"time":142,"velocity":1},{"duration":0.25,"durationTicks":480,"midi":69,"name":"A4","ticks":273120,"time":142.25,"velocity":1},{"duration":0.25,"durationTicks":480,"midi":69,"name":"A4","ticks":273600,"time":142.5,"velocity":1},{"duration":0.25,"durationTicks":480,"midi":69,"name":"A4","ticks":274080,"time":142.75,"velocity":1},{"duration":0.0625,"durationTicks":120,"midi":69,"name":"A4","ticks":274560,"time":143,"velocity":1},{"duration":0.25,"durationTicks":480,"midi":70,"name":"A#4","ticks":274560,"time":143,"velocity":1},{"duration":0.0625,"durationTicks":120,"midi":69,"name":"A4","ticks":274680,"time":143.0625,"velocity":1},{"duration":0.0625,"durationTicks":120,"midi":69,"name":"A4","ticks":274800,"time":143.125,"velocity":1},{"duration":0.25,"durationTicks":480,"midi":69,"name":"A4","ticks":275040,"time":143.25,"velocity":1},{"duration":0.25,"durationTicks":480,"midi":69,"name":"A4","ticks":275520,"time":143.5,"velocity":1},{"duration":0.25,"durationTicks":480,"midi":69,"name":"A4","ticks":276000,"time":143.75,"velocity":1},{"duration":0.25,"durationTicks":480,"midi":69,"name":"A4","ticks":276480,"time":144,"velocity":1},{"duration":0.25,"durationTicks":480,"midi":70,"name":"A#4","ticks":276480,"time":144,"velocity":1},{"duration":0.25,"durationTicks":480,"midi":69,"name":"A4","ticks":276960,"time":144.25,"velocity":1},{"duration":0.25,"durationTicks":480,"midi":69,"name":"A4","ticks":277440,"time":144.5,"velocity":1},{"duration":0.25,"durationTicks":480,"midi":69,"name":"A4","ticks":277920,"time":144.75,"velocity":1},{"duration":0.0625,"durationTicks":120,"midi":69,"name":"A4","ticks":278400,"time":145,"velocity":1},{"duration":0.25,"durationTicks":480,"midi":70,"name":"A#4","ticks":278400,"time":145,"velocity":1},{"duration":0.0625,"durationTicks":120,"midi":69,"name":"A4","ticks":278520,"time":145.0625,"velocity":1},{"duration":0.0625,"durationTicks":120,"midi":69,"name":"A4","ticks":278640,"time":145.125,"velocity":1},{"duration":0.25,"durationTicks":480,"midi":69,"name":"A4","ticks":278880,"time":145.25,"velocity":1},{"duration":0.25,"durationTicks":480,"midi":69,"name":"A4","ticks":279360,"time":145.5,"velocity":1},{"duration":0.25,"durationTicks":480,"midi":69,"name":"A4","ticks":279840,"time":145.75,"velocity":1},{"duration":0.25,"durationTicks":480,"midi":69,"name":"A4","ticks":280320,"time":146,"velocity":1},{"duration":0.25,"durationTicks":480,"midi":70,"name":"A#4","ticks":280320,"time":146,"velocity":1},{"duration":0.25,"durationTicks":480,"midi":69,"name":"A4","ticks":280800,"time":146.25,"velocity":1},{"duration":0.25,"durationTicks":480,"midi":69,"name":"A4","ticks":281280,"time":146.5,"velocity":1},{"duration":0.25,"durationTicks":480,"midi":69,"name":"A4","ticks":281760,"time":146.75,"velocity":1},{"duration":0.0625,"durationTicks":120,"midi":69,"name":"A4","ticks":282240,"time":147,"velocity":1},{"duration":0.25,"durationTicks":480,"midi":70,"name":"A#4","ticks":282240,"time":147,"velocity":1},{"duration":0.0625,"durationTicks":120,"midi":69,"name":"A4","ticks":282360,"time":147.0625,"velocity":1},{"duration":0.0625,"durationTicks":120,"midi":69,"name":"A4","ticks":282480,"time":147.125,"velocity":1},{"duration":0.25,"durationTicks":480,"midi":69,"name":"A4","ticks":282720,"time":147.25,"velocity":1},{"duration":0.25,"durationTicks":480,"midi":69,"name":"A4","ticks":283200,"time":147.5,"velocity":1},{"duration":0.25,"durationTicks":480,"midi":69,"name":"A4","ticks":283680,"time":147.75,"velocity":1},{"duration":0.25,"durationTicks":480,"midi":69,"name":"A4","ticks":284160,"time":148,"velocity":1},{"duration":0.25,"durationTicks":480,"midi":70,"name":"A#4","ticks":284160,"time":148,"velocity":1},{"duration":0.25,"durationTicks":480,"midi":69,"name":"A4","ticks":284640,"time":148.25,"velocity":1},{"duration":0.25,"durationTicks":480,"midi":69,"name":"A4","ticks":285120,"time":148.5,"velocity":1},{"duration":0.25,"durationTicks":480,"midi":69,"name":"A4","ticks":285600,"time":148.75,"velocity":1},{"duration":0.0625,"durationTicks":120,"midi":69,"name":"A4","ticks":286080,"time":149,"velocity":1},{"duration":0.25,"durationTicks":480,"midi":70,"name":"A#4","ticks":286080,"time":149,"velocity":1},{"duration":0.0625,"durationTicks":120,"midi":69,"name":"A4","ticks":286200,"time":149.0625,"velocity":1},{"duration":0.0625,"durationTicks":120,"midi":69,"name":"A4","ticks":286320,"time":149.125,"velocity":1},{"duration":0.25,"durationTicks":480,"midi":69,"name":"A4","ticks":286560,"time":149.25,"velocity":1},{"duration":0.25,"durationTicks":480,"midi":69,"name":"A4","ticks":287040,"time":149.5,"velocity":1},{"duration":0.25,"durationTicks":480,"midi":69,"name":"A4","ticks":287520,"time":149.75,"velocity":1},{"duration":0.25,"durationTicks":480,"midi":69,"name":"A4","ticks":288000,"time":150,"velocity":1},{"duration":0.25,"durationTicks":480,"midi":70,"name":"A#4","ticks":288000,"time":150,"velocity":1},{"duration":0.25,"durationTicks":480,"midi":69,"name":"A4","ticks":288480,"time":150.25,"velocity":1},{"duration":0.25,"durationTicks":480,"midi":69,"name":"A4","ticks":288960,"time":150.5,"velocity":1},{"duration":0.25,"durationTicks":480,"midi":69,"name":"A4","ticks":289440,"time":150.75,"velocity":1},{"duration":0.0625,"durationTicks":120,"midi":69,"name":"A4","ticks":289920,"time":151,"velocity":1},{"duration":0.25,"durationTicks":480,"midi":70,"name":"A#4","ticks":289920,"time":151,"velocity":1},{"duration":0.0625,"durationTicks":120,"midi":69,"name":"A4","ticks":290040,"time":151.0625,"velocity":1},{"duration":0.0625,"durationTicks":120,"midi":69,"name":"A4","ticks":290160,"time":151.125,"velocity":1},{"duration":0.25,"durationTicks":480,"midi":69,"name":"A4","ticks":290400,"time":151.25,"velocity":1},{"duration":0.25,"durationTicks":480,"midi":69,"name":"A4","ticks":290880,"time":151.5,"velocity":1},{"duration":0.25,"durationTicks":480,"midi":69,"name":"A4","ticks":291360,"time":151.75,"velocity":1},{"duration":0.25,"durationTicks":480,"midi":69,"name":"A4","ticks":291840,"time":152,"velocity":1},{"duration":0.25,"durationTicks":480,"midi":70,"name":"A#4","ticks":291840,"time":152,"velocity":1},{"duration":0.25,"durationTicks":480,"midi":69,"name":"A4","ticks":292320,"time":152.25,"velocity":1},{"duration":0.25,"durationTicks":480,"midi":69,"name":"A4","ticks":292800,"time":152.5,"velocity":1},{"duration":0.25,"durationTicks":480,"midi":69,"name":"A4","ticks":293280,"time":152.75,"velocity":1},{"duration":0.0625,"durationTicks":120,"midi":69,"name":"A4","ticks":293760,"time":153,"velocity":1},{"duration":0.25,"durationTicks":480,"midi":70,"name":"A#4","ticks":293760,"time":153,"velocity":1},{"duration":0.0625,"durationTicks":120,"midi":69,"name":"A4","ticks":293880,"time":153.0625,"velocity":1},{"duration":0.0625,"durationTicks":120,"midi":69,"name":"A4","ticks":294000,"time":153.125,"velocity":1},{"duration":0.25,"durationTicks":480,"midi":69,"name":"A4","ticks":294240,"time":153.25,"velocity":1},{"duration":0.25,"durationTicks":480,"midi":69,"name":"A4","ticks":294720,"time":153.5,"velocity":1},{"duration":0.25,"durationTicks":480,"midi":69,"name":"A4","ticks":295200,"time":153.75,"velocity":1},{"duration":0.25,"durationTicks":480,"midi":69,"name":"A4","ticks":295680,"time":154,"velocity":1},{"duration":0.25,"durationTicks":480,"midi":70,"name":"A#4","ticks":295680,"time":154,"velocity":1},{"duration":0.25,"durationTicks":480,"midi":69,"name":"A4","ticks":296160,"time":154.25,"velocity":1},{"duration":0.25,"durationTicks":480,"midi":69,"name":"A4","ticks":296640,"time":154.5,"velocity":1},{"duration":0.25,"durationTicks":480,"midi":69,"name":"A4","ticks":297120,"time":154.75,"velocity":1},{"duration":0.0625,"durationTicks":120,"midi":69,"name":"A4","ticks":297600,"time":155,"velocity":1},{"duration":0.25,"durationTicks":480,"midi":70,"name":"A#4","ticks":297600,"time":155,"velocity":1},{"duration":0.0625,"durationTicks":120,"midi":69,"name":"A4","ticks":297720,"time":155.0625,"velocity":1},{"duration":0.0625,"durationTicks":120,"midi":69,"name":"A4","ticks":297840,"time":155.125,"velocity":1},{"duration":0.25,"durationTicks":480,"midi":69,"name":"A4","ticks":298080,"time":155.25,"velocity":1},{"duration":0.25,"durationTicks":480,"midi":69,"name":"A4","ticks":298560,"time":155.5,"velocity":1},{"duration":0.25,"durationTicks":480,"midi":69,"name":"A4","ticks":299040,"time":155.75,"velocity":1},{"duration":0.25,"durationTicks":480,"midi":69,"name":"A4","ticks":299520,"time":156,"velocity":1},{"duration":0.25,"durationTicks":480,"midi":70,"name":"A#4","ticks":299520,"time":156,"velocity":1},{"duration":0.25,"durationTicks":480,"midi":69,"name":"A4","ticks":300000,"time":156.25,"velocity":1},{"duration":0.25,"durationTicks":480,"midi":69,"name":"A4","ticks":300480,"time":156.5,"velocity":1},{"duration":0.25,"durationTicks":480,"midi":69,"name":"A4","ticks":300960,"time":156.75,"velocity":1},{"duration":0.0625,"durationTicks":120,"midi":69,"name":"A4","ticks":301440,"time":157,"velocity":1},{"duration":0.25,"durationTicks":480,"midi":70,"name":"A#4","ticks":301440,"time":157,"velocity":1},{"duration":0.0625,"durationTicks":120,"midi":69,"name":"A4","ticks":301560,"time":157.0625,"velocity":1},{"duration":0.0625,"durationTicks":120,"midi":69,"name":"A4","ticks":301680,"time":157.125,"velocity":1},{"duration":0.25,"durationTicks":480,"midi":69,"name":"A4","ticks":301920,"time":157.25,"velocity":1},{"duration":0.25,"durationTicks":480,"midi":69,"name":"A4","ticks":302400,"time":157.5,"velocity":1},{"duration":0.25,"durationTicks":480,"midi":69,"name":"A4","ticks":302880,"time":157.75,"velocity":1},{"duration":0.25,"durationTicks":480,"midi":69,"name":"A4","ticks":303360,"time":158,"velocity":1},{"duration":0.25,"durationTicks":480,"midi":70,"name":"A#4","ticks":303360,"time":158,"velocity":1},{"duration":0.25,"durationTicks":480,"midi":69,"name":"A4","ticks":303840,"time":158.25,"velocity":1},{"duration":0.25,"durationTicks":480,"midi":69,"name":"A4","ticks":304320,"time":158.5,"velocity":1},{"duration":0.25,"durationTicks":480,"midi":69,"name":"A4","ticks":304800,"time":158.75,"velocity":1},{"duration":0.0625,"durationTicks":120,"midi":69,"name":"A4","ticks":305280,"time":159,"velocity":1},{"duration":0.25,"durationTicks":480,"midi":70,"name":"A#4","ticks":305280,"time":159,"velocity":1},{"duration":0.0625,"durationTicks":120,"midi":69,"name":"A4","ticks":305400,"time":159.0625,"velocity":1},{"duration":0.0625,"durationTicks":120,"midi":69,"name":"A4","ticks":305520,"time":159.125,"velocity":1},{"duration":0.25,"durationTicks":480,"midi":69,"name":"A4","ticks":305760,"time":159.25,"velocity":1},{"duration":0.25,"durationTicks":480,"midi":69,"name":"A4","ticks":306240,"time":159.5,"velocity":1},{"duration":0.25,"durationTicks":480,"midi":69,"name":"A4","ticks":306720,"time":159.75,"velocity":1},{"duration":0.25,"durationTicks":480,"midi":69,"name":"A4","ticks":307200,"time":160,"velocity":1},{"duration":0.25,"durationTicks":480,"midi":70,"name":"A#4","ticks":307200,"time":160,"velocity":1},{"duration":0.25,"durationTicks":480,"midi":69,"name":"A4","ticks":307680,"time":160.25,"velocity":1},{"duration":0.25,"durationTicks":480,"midi":69,"name":"A4","ticks":308160,"time":160.5,"velocity":1},{"duration":0.25,"durationTicks":480,"midi":69,"name":"A4","ticks":308640,"time":160.75,"velocity":1},{"duration":0.0625,"durationTicks":120,"midi":69,"name":"A4","ticks":309120,"time":161,"velocity":1},{"duration":0.25,"durationTicks":480,"midi":70,"name":"A#4","ticks":309120,"time":161,"velocity":1},{"duration":0.0625,"durationTicks":120,"midi":69,"name":"A4","ticks":309240,"time":161.0625,"velocity":1},{"duration":0.0625,"durationTicks":120,"midi":69,"name":"A4","ticks":309360,"time":161.125,"velocity":1},{"duration":0.25,"durationTicks":480,"midi":69,"name":"A4","ticks":309600,"time":161.25,"velocity":1},{"duration":0.25,"durationTicks":480,"midi":69,"name":"A4","ticks":310080,"time":161.5,"velocity":1},{"duration":0.25,"durationTicks":480,"midi":69,"name":"A4","ticks":310560,"time":161.75,"velocity":1},{"duration":0.25,"durationTicks":480,"midi":69,"name":"A4","ticks":311040,"time":162,"velocity":1},{"duration":0.25,"durationTicks":480,"midi":70,"name":"A#4","ticks":311040,"time":162,"velocity":1},{"duration":0.25,"durationTicks":480,"midi":69,"name":"A4","ticks":311520,"time":162.25,"velocity":1},{"duration":0.25,"durationTicks":480,"midi":69,"name":"A4","ticks":312000,"time":162.5,"velocity":1},{"duration":0.25,"durationTicks":480,"midi":69,"name":"A4","ticks":312480,"time":162.75,"velocity":1},{"duration":0.0625,"durationTicks":120,"midi":69,"name":"A4","ticks":312960,"time":163,"velocity":1},{"duration":0.25,"durationTicks":480,"midi":70,"name":"A#4","ticks":312960,"time":163,"velocity":1},{"duration":0.0625,"durationTicks":120,"midi":69,"name":"A4","ticks":313080,"time":163.0625,"velocity":1},{"duration":0.0625,"durationTicks":120,"midi":69,"name":"A4","ticks":313200,"time":163.125,"velocity":1},{"duration":0.25,"durationTicks":480,"midi":69,"name":"A4","ticks":313440,"time":163.25,"velocity":1},{"duration":0.25,"durationTicks":480,"midi":69,"name":"A4","ticks":313920,"time":163.5,"velocity":1},{"duration":0.25,"durationTicks":480,"midi":69,"name":"A4","ticks":314400,"time":163.75,"velocity":1},{"duration":0.25,"durationTicks":480,"midi":69,"name":"A4","ticks":314880,"time":164,"velocity":1},{"duration":0.25,"durationTicks":480,"midi":70,"name":"A#4","ticks":314880,"time":164,"velocity":1},{"duration":0.25,"durationTicks":480,"midi":69,"name":"A4","ticks":315360,"time":164.25,"velocity":1},{"duration":0.25,"durationTicks":480,"midi":69,"name":"A4","ticks":315840,"time":164.5,"velocity":1},{"duration":0.25,"durationTicks":480,"midi":69,"name":"A4","ticks":316320,"time":164.75,"velocity":1},{"duration":0.0625,"durationTicks":120,"midi":69,"name":"A4","ticks":316800,"time":165,"velocity":1},{"duration":0.25,"durationTicks":480,"midi":70,"name":"A#4","ticks":316800,"time":165,"velocity":1},{"duration":0.0625,"durationTicks":120,"midi":69,"name":"A4","ticks":316920,"time":165.0625,"velocity":1},{"duration":0.0625,"durationTicks":120,"midi":69,"name":"A4","ticks":317040,"time":165.125,"velocity":1},{"duration":0.25,"durationTicks":480,"midi":69,"name":"A4","ticks":317280,"time":165.25,"velocity":1},{"duration":0.25,"durationTicks":480,"midi":69,"name":"A4","ticks":317760,"time":165.5,"velocity":1},{"duration":0.25,"durationTicks":480,"midi":69,"name":"A4","ticks":318240,"time":165.75,"velocity":1},{"duration":0.25,"durationTicks":480,"midi":69,"name":"A4","ticks":318720,"time":166,"velocity":1},{"duration":0.25,"durationTicks":480,"midi":70,"name":"A#4","ticks":318720,"time":166,"velocity":1},{"duration":0.25,"durationTicks":480,"midi":69,"name":"A4","ticks":319200,"time":166.25,"velocity":1},{"duration":0.25,"durationTicks":480,"midi":69,"name":"A4","ticks":319680,"time":166.5,"velocity":1},{"duration":0.25,"durationTicks":480,"midi":69,"name":"A4","ticks":320160,"time":166.75,"velocity":1},{"duration":0.0625,"durationTicks":120,"midi":69,"name":"A4","ticks":320640,"time":167,"velocity":1},{"duration":0.25,"durationTicks":480,"midi":70,"name":"A#4","ticks":320640,"time":167,"velocity":1},{"duration":0.0625,"durationTicks":120,"midi":69,"name":"A4","ticks":320760,"time":167.0625,"velocity":1},{"duration":0.0625,"durationTicks":120,"midi":69,"name":"A4","ticks":320880,"time":167.125,"velocity":1},{"duration":0.25,"durationTicks":480,"midi":69,"name":"A4","ticks":321120,"time":167.25,"velocity":1},{"duration":0.25,"durationTicks":480,"midi":69,"name":"A4","ticks":321600,"time":167.5,"velocity":1},{"duration":0.25,"durationTicks":480,"midi":69,"name":"A4","ticks":322080,"time":167.75,"velocity":1},{"duration":0.25,"durationTicks":480,"midi":69,"name":"A4","ticks":322560,"time":168,"velocity":1},{"duration":0.25,"durationTicks":480,"midi":70,"name":"A#4","ticks":322560,"time":168,"velocity":1},{"duration":0.25,"durationTicks":480,"midi":69,"name":"A4","ticks":323040,"time":168.25,"velocity":1},{"duration":0.25,"durationTicks":480,"midi":69,"name":"A4","ticks":323520,"time":168.5,"velocity":1},{"duration":0.25,"durationTicks":480,"midi":69,"name":"A4","ticks":324000,"time":168.75,"velocity":1},{"duration":0.0625,"durationTicks":120,"midi":69,"name":"A4","ticks":324480,"time":169,"velocity":1},{"duration":0.25,"durationTicks":480,"midi":70,"name":"A#4","ticks":324480,"time":169,"velocity":1},{"duration":0.0625,"durationTicks":120,"midi":69,"name":"A4","ticks":324600,"time":169.0625,"velocity":1},{"duration":0.0625,"durationTicks":120,"midi":69,"name":"A4","ticks":324720,"time":169.125,"velocity":1},{"duration":0.25,"durationTicks":480,"midi":69,"name":"A4","ticks":324960,"time":169.25,"velocity":1},{"duration":0.25,"durationTicks":480,"midi":69,"name":"A4","ticks":325440,"time":169.5,"velocity":1},{"duration":0.25,"durationTicks":480,"midi":69,"name":"A4","ticks":325920,"time":169.75,"velocity":1},{"duration":0.25,"durationTicks":480,"midi":69,"name":"A4","ticks":326400,"time":170,"velocity":1},{"duration":0.25,"durationTicks":480,"midi":70,"name":"A#4","ticks":326400,"time":170,"velocity":1},{"duration":0.25,"durationTicks":480,"midi":69,"name":"A4","ticks":326880,"time":170.25,"velocity":1},{"duration":0.25,"durationTicks":480,"midi":69,"name":"A4","ticks":327360,"time":170.5,"velocity":1},{"duration":0.25,"durationTicks":480,"midi":69,"name":"A4","ticks":327840,"time":170.75,"velocity":1},{"duration":0.0625,"durationTicks":120,"midi":69,"name":"A4","ticks":328320,"time":171,"velocity":1},{"duration":0.25,"durationTicks":480,"midi":70,"name":"A#4","ticks":328320,"time":171,"velocity":1},{"duration":0.0625,"durationTicks":120,"midi":69,"name":"A4","ticks":328440,"time":171.0625,"velocity":1},{"duration":0.0625,"durationTicks":120,"midi":69,"name":"A4","ticks":328560,"time":171.125,"velocity":1},{"duration":0.25,"durationTicks":480,"midi":69,"name":"A4","ticks":328800,"time":171.25,"velocity":1},{"duration":0.25,"durationTicks":480,"midi":69,"name":"A4","ticks":329280,"time":171.5,"velocity":1},{"duration":0.25,"durationTicks":480,"midi":69,"name":"A4","ticks":329760,"time":171.75,"velocity":1},{"duration":0.25,"durationTicks":480,"midi":69,"name":"A4","ticks":330240,"time":172,"velocity":1},{"duration":0.25,"durationTicks":480,"midi":70,"name":"A#4","ticks":330240,"time":172,"velocity":1},{"duration":0.25,"durationTicks":480,"midi":69,"name":"A4","ticks":330720,"time":172.25,"velocity":1},{"duration":0.25,"durationTicks":480,"midi":69,"name":"A4","ticks":331200,"time":172.5,"velocity":1},{"duration":0.25,"durationTicks":480,"midi":69,"name":"A4","ticks":331680,"time":172.75,"velocity":1},{"duration":0.0625,"durationTicks":120,"midi":69,"name":"A4","ticks":332160,"time":173,"velocity":1},{"duration":0.25,"durationTicks":480,"midi":70,"name":"A#4","ticks":332160,"time":173,"velocity":1},{"duration":0.0625,"durationTicks":120,"midi":69,"name":"A4","ticks":332280,"time":173.0625,"velocity":1},{"duration":0.0625,"durationTicks":120,"midi":69,"name":"A4","ticks":332400,"time":173.125,"velocity":1},{"duration":0.25,"durationTicks":480,"midi":69,"name":"A4","ticks":332640,"time":173.25,"velocity":1},{"duration":0.25,"durationTicks":480,"midi":69,"name":"A4","ticks":333120,"time":173.5,"velocity":1},{"duration":0.25,"durationTicks":480,"midi":69,"name":"A4","ticks":333600,"time":173.75,"velocity":1}],"endOfTrackTicks":334080},{"channel":0,"controlChanges":{"1":[{"number":1,"ticks":0,"time":0,"value":0}],"6":[{"number":6,"ticks":0,"time":0,"value":0.5039370078740157},{"number":6,"ticks":0,"time":0,"value":0.5039370078740157},{"number":6,"ticks":0,"time":0,"value":0.09448818897637795}],"7":[{"number":7,"ticks":0,"time":0,"value":0.7874015748031497}],"10":[{"number":10,"ticks":0,"time":0,"value":0.5039370078740157}],"11":[{"number":11,"ticks":0,"time":0,"value":1}],"38":[{"number":38,"ticks":0,"time":0,"value":0}],"100":[{"number":100,"ticks":0,"time":0,"value":0.015748031496062992},{"number":100,"ticks":0,"time":0,"value":0.007874015748031496},{"number":100,"ticks":0,"time":0,"value":0}],"101":[{"number":101,"ticks":0,"time":0,"value":0},{"number":101,"ticks":0,"time":0,"value":0},{"number":101,"ticks":0,"time":0,"value":0}],"121":[{"number":121,"ticks":0,"time":0,"value":0}]},"pitchBends":[{"ticks":0,"time":0,"value":0}],"instrument":{"family":"piano","number":0,"name":"acoustic grand piano"},"name":"lyrics","notes":[],"endOfTrackTicks":87840},{"channel":15,"controlChanges":{},"pitchBends":[],"instrument":{"family":"sound effects","number":121,"name":"breath noise"},"name":"lyrics","notes":[{"duration":0.25,"durationTicks":480,"midi":84,"name":"C6","ticks":1920,"time":1,"velocity":1,"text":"This was a triumph"},{"duration":0.25,"durationTicks":480,"midi":84,"name":"C6","ticks":9120,"time":4.75,"velocity":1,"text":"I\'m making a note here;"},{"duration":0.25,"durationTicks":480,"midi":84,"name":"C6","ticks":13440,"time":7,"velocity":1,"text":"Huge success"},{"duration":0.25,"durationTicks":480,"midi":84,"name":"C6","ticks":18720,"time":9.75,"velocity":1,"text":"It\'s hard to overstate"},{"duration":0.25,"durationTicks":480,"midi":84,"name":"C6","ticks":23520,"time":12.25,"velocity":1,"text":"My satisfaction"},{"duration":0.25,"durationTicks":480,"midi":84,"name":"C6","ticks":32640,"time":17,"velocity":1,"text":"Aperture Science:"},{"duration":0.25,"durationTicks":480,"midi":84,"name":"C6","ticks":39840,"time":20.75,"velocity":1,"text":"We do what we must"},{"duration":0.25,"durationTicks":480,"midi":84,"name":"C6","ticks":43200,"time":22.5,"velocity":1,"text":"Because"},{"duration":0.25,"durationTicks":480,"midi":84,"name":"C6","ticks":45120,"time":23.5,"velocity":1,"text":"we can"},{"duration":0.25,"durationTicks":480,"midi":84,"name":"C6","ticks":49920,"time":26,"velocity":1,"text":"For the good of all of us"},{"duration":0.25,"durationTicks":480,"midi":84,"name":"C6","ticks":56160,"time":29.25,"velocity":1,"text":"Except the ones who are dead"},{"duration":0.25,"durationTicks":480,"midi":84,"name":"C6","ticks":60480,"time":31.5,"velocity":1,"text":"But there\'s no sense crying"},{"duration":0.25,"durationTicks":480,"midi":84,"name":"C6","ticks":64800,"time":33.75,"velocity":1,"text":"Over every mistake"},{"duration":0.25,"durationTicks":480,"midi":84,"name":"C6","ticks":68160,"time":35.5,"velocity":1,"text":"You just keep on trying"},{"duration":0.25,"durationTicks":480,"midi":84,"name":"C6","ticks":72480,"time":37.75,"velocity":1,"text":"Till you run out of cake"},{"duration":0.25,"durationTicks":480,"midi":84,"name":"C6","ticks":75840,"time":39.5,"velocity":1,"text":"And the science gets done"},{"duration":0.25,"durationTicks":480,"midi":84,"name":"C6","ticks":79680,"time":41.5,"velocity":1,"text":"And you make a neat gun"},{"duration":0.25,"durationTicks":480,"midi":84,"name":"C6","ticks":84000,"time":43.75,"velocity":1,"text":"For the people who are"},{"duration":0.25,"durationTicks":480,"midi":84,"name":"C6","ticks":87360,"time":45.5,"velocity":1,"text":"Still alive"}]}]}');var d="14.7.77",m={};!function(i,t,e,n){"use strict";function o(i){return i&&"object"==typeof i&&"default"in i?i:{default:i}}var a=o(t),r=o(e),c=o(n),s=function(i,t,e){return{endTime:t,insertTime:e,type:"exponentialRampToValue",value:i}},u=function(i,t,e){return{endTime:t,insertTime:e,type:"linearRampToValue",value:i}},d=function(i,t){return{startTime:t,type:"setValue",value:i}},m=function(i,t,e){return{duration:e,startTime:t,type:"setValueCurve",values:i}},l=function(i,t,e){var n=e.startTime,o=e.target,a=e.timeConstant;return o+(t-o)*Math.exp((n-i)/a)},k=function(i){return"exponentialRampToValue"===i.type},v=function(i){return"linearRampToValue"===i.type},y=function(i){return k(i)||v(i)},h=function(i){return"setValue"===i.type},T=function(i){return"setValueCurve"===i.type},f=function i(t,e,n,o){var a=t[e];return void 0===a?o:y(a)||h(a)?a.value:T(a)?a.values[a.values.length-1]:l(n,i(t,e-1,a.startTime,o),a)},p=function(i,t,e,n,o){return void 0===e?[n.insertTime,o]:y(e)?[e.endTime,e.value]:h(e)?[e.startTime,e.value]:T(e)?[e.startTime+e.duration,e.values[e.values.length-1]]:[e.startTime,f(i,t-1,e.startTime,o)]},g=function(i){return"cancelAndHold"===i.type},_=function(i){return"cancelScheduledValues"===i.type},A=function(i){return g(i)||_(i)?i.cancelTime:k(i)||v(i)?i.endTime:i.startTime},C=function(i,t,e,n){var o=n.endTime,a=n.value;return e===a?a:0<e&&0<a||e<0&&a<0?e*Math.pow(a/e,(i-t)/(o-t)):0},x=function(i,t,e,n){return e+(i-t)/(n.endTime-t)*(n.value-e)},b=function(i,t){var e=Math.floor(t),n=Math.ceil(t);return e===n?i[e]:(1-(t-e))*i[e]+(1-(n-t))*i[n]},D=function(i,t){var e=t.duration,n=t.startTime,o=t.values,a=(i-n)/e*(o.length-1);return b(o,a)},w=function(i){return"setTarget"===i.type},F=function(i){function t(i){r.default(this,t),this._automationEvents=[],this._currenTime=0,this._defaultValue=i}return c.default(t,[{key:i,value:function(){return this._automationEvents[Symbol.iterator]()}},{key:"add",value:function(i){var t=A(i);if(g(i)||_(i)){var e=this._automationEvents.findIndex((function(e){return _(i)&&T(e)?e.startTime+e.duration>=t:A(e)>=t})),n=this._automationEvents[e];if(-1!==e&&(this._automationEvents=this._automationEvents.slice(0,e)),g(i)){var o=this._automationEvents[this._automationEvents.length-1];if(void 0!==n&&y(n)){if(w(o))throw new Error("The internal list is malformed.");var a=T(o)?o.startTime+o.duration:A(o),r=T(o)?o.values[o.values.length-1]:o.value,c=k(n)?C(t,a,r,n):x(t,a,r,n),l=k(n)?s(c,t,this._currenTime):u(c,t,this._currenTime);this._automationEvents.push(l)}void 0!==o&&w(o)&&this._automationEvents.push(d(this.getValue(t),t)),void 0!==o&&T(o)&&o.startTime+o.duration>t&&(this._automationEvents[this._automationEvents.length-1]=m(new Float32Array([6,7]),o.startTime,t-o.startTime))}}else{var h=this._automationEvents.findIndex((function(i){return A(i)>t})),f=-1===h?this._automationEvents[this._automationEvents.length-1]:this._automationEvents[h-1];if(void 0!==f&&T(f)&&A(f)+f.duration>t)return!1;var p=k(i)?s(i.value,i.endTime,this._currenTime):v(i)?u(i.value,t,this._currenTime):i;if(-1===h)this._automationEvents.push(p);else{if(T(i)&&t+i.duration>A(this._automationEvents[h]))return!1;this._automationEvents.splice(h,0,p)}}return!0}},{key:"flush",value:function(i){var t=this._automationEvents.findIndex((function(t){return A(t)>i}));if(t>1){var e=this._automationEvents.slice(t-1),n=e[0];w(n)&&e.unshift(d(f(this._automationEvents,t-2,n.startTime,this._defaultValue),n.startTime)),this._automationEvents=e}}},{key:"getValue",value:function(i){if(0===this._automationEvents.length)return this._defaultValue;var t=this._automationEvents.findIndex((function(t){return A(t)>i})),e=this._automationEvents[t],n=(-1===t?this._automationEvents.length:t)-1,o=this._automationEvents[n];if(void 0!==o&&w(o)&&(void 0===e||!y(e)||e.insertTime>i))return l(i,f(this._automationEvents,n-1,o.startTime,this._defaultValue),o);if(void 0!==o&&h(o)&&(void 0===e||!y(e)))return o.value;if(void 0!==o&&T(o)&&(void 0===e||!y(e)||o.startTime+o.duration>i))return i<o.startTime+o.duration?D(i,o):o.values[o.values.length-1];if(void 0!==o&&y(o)&&(void 0===e||!y(e)))return o.value;if(void 0!==e&&k(e)){var r=p(this._automationEvents,n,o,e,this._defaultValue),c=a.default(r,2),s=c[0],u=c[1];return C(i,s,u,e)}if(void 0!==e&&v(e)){var d=p(this._automationEvents,n,o,e,this._defaultValue),m=a.default(d,2),g=m[0],_=m[1];return x(i,g,_,e)}return this._defaultValue}}]),t}(Symbol.iterator),E=function(i){return{cancelTime:i,type:"cancelAndHold"}},S=function(i){return{cancelTime:i,type:"cancelScheduledValues"}},O=function(i,t){return{endTime:t,type:"exponentialRampToValue",value:i}},B=function(i,t){return{endTime:t,type:"linearRampToValue",value:i}},M=function(i,t,e){return{startTime:t,target:i,timeConstant:e,type:"setTarget"}};i.AutomationEventList=F,i.createCancelAndHoldAutomationEvent=E,i.createCancelScheduledValuesAutomationEvent=S,i.createExponentialRampToValueAutomationEvent=O,i.createLinearRampToValueAutomationEvent=B,i.createSetTargetAutomationEvent=M,i.createSetValueAutomationEvent=d,i.createSetValueCurveAutomationEvent=m,Object.defineProperty(i,"__esModule",{value:!0})}(m,o("6jfOa"),o("6RjbW"),o("2tlwz"));var l={};Object.defineProperty(l,"__esModule",{value:!0}),l.default=function(i,t){return k.default(i)||v.default(i,t)||h.default(i,t)||y.default()};var k=T(o("6F58o")),v=T(o("bruQ1")),y=T(o("1Z0IF")),h=T(o("hVAyQ"));function T(i){return i&&i.__esModule?i:{default:i}}var f=new WeakSet,p=new WeakMap,g=new WeakMap,_=new WeakMap,A=new WeakMap,C=new WeakMap,x=new WeakMap,b=new WeakMap,D=new WeakMap,w=new WeakMap,F={construct:function(){return F}},E=function(i){try{new new Proxy(i,F)}catch(i){return!1}return!0},S=/^import(?:(?:[\s]+[\w]+|(?:[\s]+[\w]+[\s]*,)?[\s]*\{[\s]*[\w]+(?:[\s]+as[\s]+[\w]+)?(?:[\s]*,[\s]*[\w]+(?:[\s]+as[\s]+[\w]+)?)*[\s]*}|(?:[\s]+[\w]+[\s]*,)?[\s]*\*[\s]+as[\s]+[\w]+)[\s]+from)?(?:[\s]*)("([^"\\]|\\.)+"|'([^'\\]|\\.)+')(?:[\s]*);?/,O=function(i,t){for(var e=[],n=i.replace(/^[\s]+/,""),o=n.match(S);null!==o;){var a=o[1].slice(1,-1),r=o[0].replace(/([\s]+)?;?$/,"").replace(a,new URL(a,t).toString());e.push(r),o=(n=n.slice(o[0].length).replace(/^[\s]+/,"")).match(S)}return[e.join(";"),n]},B=function(i){if(void 0!==i&&!Array.isArray(i))throw new TypeError("The parameterDescriptors property of given value for processorCtor is not an array.")},M=function(i){if(!E(i))throw new TypeError("The given value for processorCtor should be a constructor.");if(null===i.prototype||"object"!=typeof i.prototype)throw new TypeError("The given value for processorCtor should have a prototype.")},I=function(i,t){var e=i.get(t);if(void 0===e)throw new Error("A value with the given key could not be found.");return e},G=function(t,e){var n=Array.from(t).filter(e);if(n.length>1)throw Error("More than one element was found.");if(0===n.length)throw Error("No element was found.");var o=i(l)(n,1)[0];return t.delete(o),o},R=function(i,t,e,n){var o=I(i,t),a=G(o,(function(i){return i[0]===e&&i[1]===n}));return 0===o.size&&i.delete(t),a},j=function(i){return I(x,i)},V=function(i){if(f.has(i))throw new Error("The AudioNode is already stored.");f.add(i),j(i).forEach((function(i){return i(!0)}))},P=function(i){return"port"in i},N=function(i){if(!f.has(i))throw new Error("The AudioNode is not stored.");f.delete(i),j(i).forEach((function(i){return i(!1)}))},q=function(i,t){!P(i)&&t.every((function(i){return 0===i.size}))&&N(i)},L={};Object.defineProperty(L,"__esModule",{value:!0}),L.default=function(i,t){if("function"!=typeof t&&null!==t)throw new TypeError("Super expression must either be null or a function");i.prototype=Object.create(t&&t.prototype,{constructor:{value:i,writable:!0,configurable:!0}}),t&&U.default(i,t)};var W,U=(W=o("7PVYz"))&&W.__esModule?W:{default:W};var z={};Object.defineProperty(z,"__esModule",{value:!0}),z.default=function(i){for(var t=1;t<arguments.length;t++){var e=null!=arguments[t]?arguments[t]:{},n=Object.keys(e);"function"==typeof Object.getOwnPropertySymbols&&(n=n.concat(Object.getOwnPropertySymbols(e).filter((function(i){return Object.getOwnPropertyDescriptor(e,i).enumerable})))),n.forEach((function(t){Y.default(i,t,e[t])}))}return i};var Y=function(i){return i&&i.__esModule?i:{default:i}}(o("4tpRD"));var Z={};Object.defineProperty(Z,"__esModule",{value:!0}),Z.default=function(i){var t=X.default();return function(){var e,n=H.default(i);if(t){var o=H.default(this).constructor;e=Reflect.construct(n,arguments,o)}else e=n.apply(this,arguments);return Q.default(this,e)}};var X=$(o("jpFNf")),H=$(o("jlIh9")),Q=$(o("h4dhK"));function $(i){return i&&i.__esModule?i:{default:i}}var J={channelCount:2,channelCountMode:"max",channelInterpretation:"speakers",fftSize:2048,maxDecibels:-30,minDecibels:-100,smoothingTimeConstant:.8},K={};function ii(i,t,e,n,o,a,r){try{var c=i[a](r),s=c.value}catch(i){return void e(i)}c.done?t(s):Promise.resolve(s).then(n,o)}Object.defineProperty(K,"__esModule",{value:!0}),K.default=function(i){return function(){var t=this,e=arguments;return new Promise((function(n,o){var a=i.apply(t,e);function r(i){ii(a,n,o,r,c,"next",i)}function c(i){ii(a,n,o,r,c,"throw",i)}r(void 0)}))}};var ti={},ei=function(i){"use strict";var t,e=Object.prototype,n=e.hasOwnProperty,o="function"==typeof Symbol?Symbol:{},a=o.iterator||"@@iterator",r=o.asyncIterator||"@@asyncIterator",c=o.toStringTag||"@@toStringTag";function s(i,t,e){return Object.defineProperty(i,t,{value:e,enumerable:!0,configurable:!0,writable:!0}),i[t]}try{s({},"")}catch(i){s=function(i,t,e){return i[t]=e}}function u(i,t,e,n){var o=t&&t.prototype instanceof h?t:h,a=Object.create(o.prototype),r=new F(n||[]);return a._invoke=function(i,t,e){var n=m;return function(o,a){if(n===k)throw new Error("Generator is already running");if(n===v){if("throw"===o)throw a;return S()}for(e.method=o,e.arg=a;;){var r=e.delegate;if(r){var c=b(r,e);if(c){if(c===y)continue;return c}}if("next"===e.method)e.sent=e._sent=e.arg;else if("throw"===e.method){if(n===m)throw n=v,e.arg;e.dispatchException(e.arg)}else"return"===e.method&&e.abrupt("return",e.arg);n=k;var s=d(i,t,e);if("normal"===s.type){if(n=e.done?v:l,s.arg===y)continue;return{value:s.arg,done:e.done}}"throw"===s.type&&(n=v,e.method="throw",e.arg=s.arg)}}}(i,e,r),a}function d(i,t,e){try{return{type:"normal",arg:i.call(t,e)}}catch(i){return{type:"throw",arg:i}}}i.wrap=u;var m="suspendedStart",l="suspendedYield",k="executing",v="completed",y={};function h(){}function T(){}function f(){}var p={};s(p,a,(function(){return this}));var g=Object.getPrototypeOf,_=g&&g(g(E([])));_&&_!==e&&n.call(_,a)&&(p=_);var A=f.prototype=h.prototype=Object.create(p);function C(i){["next","throw","return"].forEach((function(t){s(i,t,(function(i){return this._invoke(t,i)}))}))}function x(i,t){function e(o,a,r,c){var s=d(i[o],i,a);if("throw"!==s.type){var u=s.arg,m=u.value;return m&&"object"==typeof m&&n.call(m,"__await")?t.resolve(m.__await).then((function(i){e("next",i,r,c)}),(function(i){e("throw",i,r,c)})):t.resolve(m).then((function(i){u.value=i,r(u)}),(function(i){return e("throw",i,r,c)}))}c(s.arg)}var o;this._invoke=function(i,n){function a(){return new t((function(t,o){e(i,n,t,o)}))}return o=o?o.then(a,a):a()}}function b(i,e){var n=i.iterator[e.method];if(n===t){if(e.delegate=null,"throw"===e.method){if(i.iterator.return&&(e.method="return",e.arg=t,b(i,e),"throw"===e.method))return y;e.method="throw",e.arg=new TypeError("The iterator does not provide a 'throw' method")}return y}var o=d(n,i.iterator,e.arg);if("throw"===o.type)return e.method="throw",e.arg=o.arg,e.delegate=null,y;var a=o.arg;return a?a.done?(e[i.resultName]=a.value,e.next=i.nextLoc,"return"!==e.method&&(e.method="next",e.arg=t),e.delegate=null,y):a:(e.method="throw",e.arg=new TypeError("iterator result is not an object"),e.delegate=null,y)}function D(i){var t={tryLoc:i[0]};1 in i&&(t.catchLoc=i[1]),2 in i&&(t.finallyLoc=i[2],t.afterLoc=i[3]),this.tryEntries.push(t)}function w(i){var t=i.completion||{};t.type="normal",delete t.arg,i.completion=t}function F(i){this.tryEntries=[{tryLoc:"root"}],i.forEach(D,this),this.reset(!0)}function E(i){if(i){var e=i[a];if(e)return e.call(i);if("function"==typeof i.next)return i;if(!isNaN(i.length)){var o=-1,r=function e(){for(;++o<i.length;)if(n.call(i,o))return e.value=i[o],e.done=!1,e;return e.value=t,e.done=!0,e};return r.next=r}}return{next:S}}function S(){return{value:t,done:!0}}return T.prototype=f,s(A,"constructor",f),s(f,"constructor",T),T.displayName=s(f,c,"GeneratorFunction"),i.isGeneratorFunction=function(i){var t="function"==typeof i&&i.constructor;return!!t&&(t===T||"GeneratorFunction"===(t.displayName||t.name))},i.mark=function(i){return Object.setPrototypeOf?Object.setPrototypeOf(i,f):(i.__proto__=f,s(i,c,"GeneratorFunction")),i.prototype=Object.create(A),i},i.awrap=function(i){return{__await:i}},C(x.prototype),s(x.prototype,r,(function(){return this})),i.AsyncIterator=x,i.async=function(t,e,n,o,a){void 0===a&&(a=Promise);var r=new x(u(t,e,n,o),a);return i.isGeneratorFunction(e)?r:r.next().then((function(i){return i.done?i.value:r.next()}))},C(A),s(A,c,"Generator"),s(A,a,(function(){return this})),s(A,"toString",(function(){return"[object Generator]"})),i.keys=function(i){var t=[];for(var e in i)t.push(e);return t.reverse(),function e(){for(;t.length;){var n=t.pop();if(n in i)return e.value=n,e.done=!1,e}return e.done=!0,e}},i.values=E,F.prototype={constructor:F,reset:function(i){if(this.prev=0,this.next=0,this.sent=this._sent=t,this.done=!1,this.delegate=null,this.method="next",this.arg=t,this.tryEntries.forEach(w),!i)for(var e in this)"t"===e.charAt(0)&&n.call(this,e)&&!isNaN(+e.slice(1))&&(this[e]=t)},stop:function(){this.done=!0;var i=this.tryEntries[0].completion;if("throw"===i.type)throw i.arg;return this.rval},dispatchException:function(i){if(this.done)throw i;var e=this;function o(n,o){return c.type="throw",c.arg=i,e.next=n,o&&(e.method="next",e.arg=t),!!o}for(var a=this.tryEntries.length-1;a>=0;--a){var r=this.tryEntries[a],c=r.completion;if("root"===r.tryLoc)return o("end");if(r.tryLoc<=this.prev){var s=n.call(r,"catchLoc"),u=n.call(r,"finallyLoc");if(s&&u){if(this.prev<r.catchLoc)return o(r.catchLoc,!0);if(this.prev<r.finallyLoc)return o(r.finallyLoc)}else if(s){if(this.prev<r.catchLoc)return o(r.catchLoc,!0)}else{if(!u)throw new Error("try statement without catch or finally");if(this.prev<r.finallyLoc)return o(r.finallyLoc)}}}},abrupt:function(i,t){for(var e=this.tryEntries.length-1;e>=0;--e){var o=this.tryEntries[e];if(o.tryLoc<=this.prev&&n.call(o,"finallyLoc")&&this.prev<o.finallyLoc){var a=o;break}}a&&("break"===i||"continue"===i)&&a.tryLoc<=t&&t<=a.finallyLoc&&(a=null);var r=a?a.completion:{};return r.type=i,r.arg=t,a?(this.method="next",this.next=a.finallyLoc,y):this.complete(r)},complete:function(i,t){if("throw"===i.type)throw i.arg;return"break"===i.type||"continue"===i.type?this.next=i.arg:"return"===i.type?(this.rval=this.arg=i.arg,this.method="return",this.next="end"):"normal"===i.type&&t&&(this.next=t),y},finish:function(i){for(var t=this.tryEntries.length-1;t>=0;--t){var e=this.tryEntries[t];if(e.finallyLoc===i)return this.complete(e.completion,e.afterLoc),w(e),y}},catch:function(i){for(var t=this.tryEntries.length-1;t>=0;--t){var e=this.tryEntries[t];if(e.tryLoc===i){var n=e.completion;if("throw"===n.type){var o=n.arg;w(e)}return o}}throw new Error("illegal catch attempt")},delegateYield:function(i,e,n){return this.delegate={iterator:E(i),resultName:e,nextLoc:n},"next"===this.method&&(this.arg=t),y}},i}(ti);try{regeneratorRuntime=ei}catch(i){"object"==typeof globalThis?globalThis.regeneratorRuntime=ei:Function("r","regeneratorRuntime = r")(ei)}var ni=function(i,t){return i.context===t},oi=function(i){try{i.copyToChannel(new Float32Array(1),0,-1)}catch(i){return!1}return!0},ai=function(){return new DOMException("","IndexSizeError")},ri=function(i){var t;i.getChannelData=(t=i.getChannelData,function(e){try{return t.call(i,e)}catch(i){if(12===i.code)throw ai();throw i}})},ci={numberOfChannels:1},si=o("kumvF"),ui=-34028234663852886e22,di=34028234663852886e22,mi=function(i){return f.has(i)},li={buffer:null,channelCount:2,channelCountMode:"max",channelInterpretation:"speakers",loop:!1,loopEnd:0,loopStart:0,playbackRate:1},ki={};Object.defineProperty(ki,"__esModule",{value:!0}),ki.default=function(i){return vi.default(i)||yi.default(i)||Ti.default(i)||hi.default()};var vi=fi(o("7zhRv")),yi=fi(o("bruQ1")),hi=fi(o("1at2p")),Ti=fi(o("hVAyQ"));function fi(i){return i&&i.__esModule?i:{default:i}}var pi=function(i){return"playbackRate"in i},gi=function(i){return"frequency"in i&&"gain"in i},_i=function(i){return"offset"in i},Ai=function(i){return!("frequency"in i)&&"gain"in i},Ci=function(i){return"detune"in i&&"frequency"in i},xi=function(i){return"pan"in i},bi=function(i){return I(p,i)},Di=function(i){return I(_,i)},wi=function(t,e){bi(t).activeInputs.forEach((function(n){return n.forEach((function(n){var o=i(l)(n,1)[0];e.includes(t)||wi(o,i(ki)(e).concat([t]))}))}));var n=pi(t)?[t.playbackRate]:P(t)?Array.from(t.parameters.values()):gi(t)?[t.Q,t.detune,t.frequency,t.gain]:_i(t)?[t.offset]:Ai(t)?[t.gain]:Ci(t)?[t.detune,t.frequency]:xi(t)?[t.pan]:[],o=!0,a=!1,r=void 0;try{for(var c,s=n[Symbol.iterator]();!(o=(c=s.next()).done);o=!0){var u=c.value,d=Di(u);void 0!==d&&d.activeInputs.forEach((function(t){var n=i(l)(t,1)[0];return wi(n,e)}))}}catch(i){a=!0,r=i}finally{try{o||null==s.return||s.return()}finally{if(a)throw r}}mi(t)&&N(t)},Fi=function(i){wi(i.destination,[])},Ei=function(i){return void 0===i||"number"==typeof i||"string"==typeof i&&("balanced"===i||"interactive"===i||"playback"===i)},Si=(si=o("kumvF"),function(i){return"context"in i}),Oi=function(i){return Si(i[0])},Bi=function(i,t,e,n){var o=!0,a=!1,r=void 0;try{for(var c,s=i[Symbol.iterator]();!(o=(c=s.next()).done);o=!0){if(e(c.value)){if(n)return!1;throw Error("The set contains at least one similar element.")}}}catch(i){a=!0,r=i}finally{try{o||null==s.return||s.return()}finally{if(a)throw r}}return i.add(t),!0},Mi=function(t,e,n,o){var a=i(l)(n,2),r=a[0],c=a[1];Bi(t,[e,r,c],(function(i){return i[0]===e&&i[1]===r}),o)},Ii=function(t,e,n){var o=i(l)(e,3),a=o[0],r=o[1],c=o[2],s=t.get(a);void 0===s?t.set(a,new Set([[r,c]])):Bi(s,[r,c],(function(i){return i[0]===r}),n)},Gi=function(i){return"inputs"in i},Ri=function(i,t,e,n){if(Gi(t)){var o=t.inputs[n];return i.connect(o,e,0),[o,e,0]}return i.connect(t,e,n),[t,e,n]},ji=function(i,t,e){var n=!0,o=!1,a=void 0;try{for(var r,c=i[Symbol.iterator]();!(n=(r=c.next()).done);n=!0){var s=r.value;if(s[0]===t&&s[1]===e)return i.delete(s),s}}catch(i){o=!0,a=i}finally{try{n||null==c.return||c.return()}finally{if(o)throw a}}return null},Vi=function(i,t,e){return G(i,(function(i){return i[0]===t&&i[1]===e}))},Pi=function(i,t){if(!j(i).delete(t))throw new Error("Missing the expected event listener.")},Ni=function(i,t,e){var n=I(i,t),o=G(n,(function(i){return i[0]===e}));return 0===n.size&&i.delete(t),o},qi=function(i,t,e,n){Gi(t)?i.disconnect(t.inputs[n],e,0):i.disconnect(t,e,n)},Li=function(i){return I(g,i)},Wi=function(i){return I(A,i)},Ui=function(i){return b.has(i)},zi=function(i){return!f.has(i)},Yi=function(i,t){return new Promise((function(e){if(null!==t)e(!0);else{var n=i.createScriptProcessor(256,1,1),o=i.createGain(),a=i.createBuffer(1,2,44100),r=a.getChannelData(0);r[0]=1,r[1]=1;var c=i.createBufferSource();c.buffer=a,c.loop=!0,c.connect(n).connect(i.destination),c.connect(o),c.disconnect(o),n.onaudioprocess=function(t){var o=t.inputBuffer.getChannelData(0);Array.prototype.some.call(o,(function(i){return 1===i}))?e(!0):e(!1),c.stop(),n.onaudioprocess=null,c.disconnect(n),n.disconnect(i.destination)},c.start()}}))},Zi=function(i,t){var e=new Map,n=!0,o=!1,a=void 0,r=!0,c=!1,s=void 0;try{for(var u,d=i[Symbol.iterator]();!(r=(u=d.next()).done);r=!0){var m=u.value;try{for(var l,k=m[Symbol.iterator]();!(n=(l=k.next()).done);n=!0){var v=l.value,y=e.get(v);e.set(v,void 0===y?1:y+1)}}catch(i){o=!0,a=i}finally{try{n||null==k.return||k.return()}finally{if(o)throw a}}}}catch(i){c=!0,s=i}finally{try{r||null==d.return||d.return()}finally{if(c)throw s}}e.forEach((function(i,e){return t(e,i)}))},Xi=function(i){return"context"in i},Hi=function(t){var e,n,o=new Map;t.connect=(e=t.connect.bind(t),function(i){var t=arguments.length>1&&void 0!==arguments[1]?arguments[1]:0,n=arguments.length>2&&void 0!==arguments[2]?arguments[2]:0,a=Xi(i)?e(i,t,n):e(i,t),r=o.get(i);return void 0===r?o.set(i,[{input:n,output:t}]):r.every((function(i){return i.input!==n||i.output!==t}))&&r.push({input:n,output:t}),a}),t.disconnect=(n=t.disconnect,function(e,a,r){n.apply(t);var c=!0,s=!1,u=void 0;if(void 0===e)o.clear();else if("number"==typeof e)try{for(var d,m=o[Symbol.iterator]();!(c=(d=m.next()).done);c=!0){var k=i(l)(d.value,2),v=k[0],y=k[1].filter((function(i){return i.output!==e}));0===y.length?o.delete(v):o.set(v,y)}}catch(i){s=!0,u=i}finally{try{c||null==m.return||m.return()}finally{if(s)throw u}}else if(o.has(e))if(void 0===a)o.delete(e);else{var h=o.get(e);if(void 0!==h){var T=h.filter((function(i){return i.output!==a&&(i.input!==r||void 0===r)}));0===T.length?o.delete(e):o.set(e,T)}}var f=!0,p=!1,g=void 0;try{for(var _,A=function(e,n){var o=i(l)(n.value,2),a=o[0];o[1].forEach((function(i){Xi(a)?t.connect(a,i.output,i.input):t.connect(a,i.output)}))},C=o[Symbol.iterator]();!(f=(_=C.next()).done);f=!0)A(0,_)}catch(i){p=!0,g=i}finally{try{f||null==C.return||C.return()}finally{if(p)throw g}}})},Qi=function(i,t,e,n){var o=Di(t),a=o.activeInputs,r=o.passiveInputs,c=bi(i).outputs,s=j(i),u=function(o){var c=Li(i),s=Wi(t);if(o){var u=Ni(r,i,e);Mi(a,i,u,!1),n||Ui(i)||c.connect(s,e)}else{var d=Vi(a,i,e);Ii(r,d,!1),n||Ui(i)||c.disconnect(s,e)}};return!!Bi(c,[t,e],(function(i){return i[0]===t&&i[1]===e}),!0)&&(s.add(u),mi(i)?Mi(a,i,[e,u],!0):Ii(r,[i,e,u],!0),!0)},$i=function(t,e,n,o,a){var r=i(l)(function(i,t,e,n){var o=bi(t),a=o.activeInputs,r=o.passiveInputs,c=ji(a[n],i,e);return null===c?[R(r,i,e,n)[2],!1]:[c[2],!0]}(t,n,o,a),2),c=r[0],s=r[1];if(null!==c&&(Pi(t,c),!s||e||Ui(t)||qi(Li(t),Li(n),o,a)),mi(n)){var u=bi(n).activeInputs;q(n,u)}},Ji=function(t,e,n,o){var a=i(l)(function(i,t,e){var n=Di(t),o=n.activeInputs,a=n.passiveInputs,r=ji(o,i,e);return null===r?[Ni(a,i,e)[1],!1]:[r[2],!0]}(t,n,o),2),r=a[0],c=a[1];null!==r&&(Pi(t,r),!c||e||Ui(t)||Li(t).disconnect(Wi(n),o))},Ki=(si=o("kumvF"),function(){"use strict";function t(e){i(a)(this,t),this._map=new Map(e)}return i(r)(t,[{key:"size",get:function(){return this._map.size}},{key:"entries",value:function(){return this._map.entries()}},{key:"forEach",value:function(i){var t=arguments.length>1&&void 0!==arguments[1]?arguments[1]:null,e=this;return this._map.forEach((function(n,o){return i.call(t,n,o,e)}))}},{key:"get",value:function(i){return this._map.get(i)}},{key:"has",value:function(i){return this._map.has(i)}},{key:"keys",value:function(){return this._map.keys()}},{key:"values",value:function(){return this._map.values()}}]),t}()),it={channelCount:2,channelCountMode:"explicit",channelInterpretation:"speakers",numberOfInputs:1,numberOfOutputs:1,parameterData:{},processorOptions:{}};u=o("4tpRD");function tt(i,t,e,n,o){if("function"==typeof i.copyFromChannel)0===t[e].byteLength&&(t[e]=new Float32Array(128)),i.copyFromChannel(t[e],n,o);else{var a=i.getChannelData(n);if(0===t[e].byteLength)t[e]=a.slice(o,o+128);else{var r=new Float32Array(a.buffer,o*Float32Array.BYTES_PER_ELEMENT,128);t[e].set(r)}}}var et,nt=function(i,t,e,n,o){"function"==typeof i.copyToChannel?0!==t[e].byteLength&&i.copyToChannel(t[e],n,o):0!==t[e].byteLength&&i.getChannelData(n).set(t[e],o)},ot=function(i,t){for(var e=[],n=0;n<i;n+=1){for(var o=[],a="number"==typeof t?t:t[n],r=0;r<a;r+=1)o.push(new Float32Array(128));e.push(o)}return e},at=function(i,t){var e=I(w,i),n=Li(t);return I(e,n)},rt=(et=i(K)(i(ti).mark((function t(e,n,o,a,r,c,s){var d,m,l,k,v,y,h,T,f,p,g,_,A,C,x,b,D,w,F;return i(ti).wrap((function(t){for(;;)switch(t.prev=t.next){case 0:if(d=null===n?128*Math.ceil(e.context.length/128):n.length,m=a.channelCount*a.numberOfInputs,l=r.reduce((function(i,t){return i+t}),0),k=0===l?null:o.createBuffer(l,d,o.sampleRate),void 0!==c){t.next=6;break}throw new Error("Missing the processor constructor.");case 6:return v=bi(e),t.next=9,at(o,e);case 9:y=t.sent,h=ot(a.numberOfInputs,a.channelCount),T=ot(a.numberOfOutputs,r),f=Array.from(e.parameters.keys()).reduce((function(t,e){return i(z)({},t,i(u)({},e,new Float32Array(128)))}),{}),p=0;case 14:if(!(p<d)){t.next=33;break}if(a.numberOfInputs>0&&null!==n)for(g=0;g<a.numberOfInputs;g+=1)for(_=0;_<a.channelCount;_+=1)tt(n,h[g],_,_,p);for(void 0!==c.parameterDescriptors&&null!==n&&c.parameterDescriptors.forEach((function(i,t){var e=i.name;tt(n,f,e,m+t,p)})),A=0;A<a.numberOfInputs;A+=1)for(C=0;C<r[A];C+=1)0===T[A][C].byteLength&&(T[A][C]=new Float32Array(128));if(t.prev=18,x=h.map((function(i,t){return 0===v.activeInputs[t].size?[]:i})),b=s(p/o.sampleRate,o.sampleRate,(function(){return y.process(x,T,f)})),null!==k)for(D=0,w=0;D<a.numberOfOutputs;D+=1){for(F=0;F<r[D];F+=1)nt(k,T[D],F,w+F,p);w+=r[D]}if(b){t.next=24;break}return t.abrupt("break",33);case 24:t.next=30;break;case 26:return t.prev=26,t.t0=t.catch(18),e.dispatchEvent(new ErrorEvent("processorerror",{colno:t.t0.colno,filename:t.t0.filename,lineno:t.t0.lineno,message:t.t0.message})),t.abrupt("break",33);case 30:p+=128,t.next=14;break;case 33:return t.abrupt("return",k);case 34:case"end":return t.stop()}}),t,null,[[18,26]])}))),function(i,t,e,n,o,a,r){return et.apply(this,arguments)}),ct=(si=o("kumvF"),si=o("kumvF"),{Q:1,channelCount:2,channelCountMode:"max",channelInterpretation:"speakers",detune:0,frequency:350,gain:0,type:"lowpass"}),st={channelCount:1,channelCountMode:"explicit",channelInterpretation:"speakers",numberOfInputs:6},ut={channelCount:6,channelCountMode:"explicit",channelInterpretation:"discrete",numberOfOutputs:6},dt=(si=o("kumvF"),{channelCount:2,channelCountMode:"max",channelInterpretation:"speakers",offset:1}),mt=(si=o("kumvF"),{buffer:null,channelCount:2,channelCountMode:"clamped-max",channelInterpretation:"speakers",disableNormalization:!1}),lt=function(i){var t=new MessageChannel,e=t.port1,n=t.port2;return new Promise((function(t){var o=function(){n.onmessage=null,e.close(),n.close(),t()};n.onmessage=function(){return o()};try{e.postMessage(i,[i])}finally{o()}}))},kt=(si=o("kumvF"),{channelCount:2,channelCountMode:"max",channelInterpretation:"speakers",delayTime:0,maxDelayTime:1}),vt=function(i){return"delayTime"in i},yt=function(i,t,e){var n=t[e];if(void 0===n)throw i();return n},ht=(si=o("kumvF"),{attack:.003,channelCount:2,channelCountMode:"clamped-max",channelInterpretation:"speakers",knee:30,ratio:12,release:.25,threshold:-24}),Tt=(si=o("kumvF"),{channelCount:2,channelCountMode:"max",channelInterpretation:"speakers",gain:1}),ft=function(){return new DOMException("","InvalidStateError")},pt=(si=o("kumvF"),function(){return new DOMException("","InvalidAccessError")}),gt=function(i){var t;i.getFrequencyResponse=(t=i.getFrequencyResponse,function(e,n,o){if(e.length!==n.length||n.length!==o.length)throw pt();return t.call(i,e,n,o)})},_t={channelCount:2,channelCountMode:"max",channelInterpretation:"speakers"},At=function(i,t,e,n,o,a,r,c,s,u,d){for(var m=u.length,l=c,k=0;k<m;k+=1){for(var v=e[0]*u[k],y=1;y<o;y+=1){var h=l-y&s-1;v+=e[y]*a[h],v-=i[y]*r[h]}for(var T=o;T<n;T+=1)v+=e[T]*a[l-T&s-1];for(var f=o;f<t;f+=1)v-=i[f]*r[l-f&s-1];a[l]=u[k],r[l]=v,l=l+1&s-1,d[k]=v}return l},Ct=function(i,t,e,n){var o=e instanceof Float64Array?e:new Float64Array(e),a=n instanceof Float64Array?n:new Float64Array(n),r=o.length,c=a.length,s=Math.min(r,c);if(1!==o[0]){for(var u=0;u<r;u+=1)a[u]/=o[0];for(var d=1;d<c;d+=1)o[d]/=o[0]}for(var m=new Float32Array(32),l=new Float32Array(32),k=t.createBuffer(i.numberOfChannels,i.length,i.sampleRate),v=i.numberOfChannels,y=0;y<v;y+=1){var h=i.getChannelData(y),T=k.getChannelData(y);m.fill(0),l.fill(0),At(o,r,a,c,s,m,l,0,32,h,T)}return k},xt=(function(){var t=i(K)(i(ti).mark((function t(e,n,o,a,r,c,s,u,d,m,l,k,v,y,h,T){var f;return i(ti).wrap((function(i){for(;;)switch(i.prev=i.next){case 0:if(!(e(n,n)&&e(o,o)&&e(r,r)&&e(c,c)&&e(u,u)&&e(d,d)&&e(m,m)&&e(l,l)&&e(k,k)&&e(v,v)&&e(y,y))){i.next=5;break}return i.next=3,Promise.all([e(a,a),e(s,s),e(h,h),e(T,T)]);case 3:return f=i.sent,i.abrupt("return",f.every((function(i){return i})));case 5:return i.abrupt("return",!1);case 6:case"end":return i.stop()}}),t)})))}(),{channelCount:2,channelCountMode:"explicit",channelInterpretation:"speakers"}),bt=(si=o("kumvF"),function(i){var t=new Uint32Array([1179011410,40,1163280727,544501094,16,131073,44100,176400,1048580,1635017060,4,0]);try{var e=i.decodeAudioData(t.buffer,(function(){}));return void 0!==e&&(e.catch((function(){})),!0)}catch(i){}return!1}),Dt={numberOfChannels:1},wt=function(i,t,e){var n=t[e];void 0!==n&&n!==i[e]&&(i[e]=n)},Ft=function(i,t){wt(i,t,"channelCount"),wt(i,t,"channelCountMode"),wt(i,t,"channelInterpretation")},Et=function(i){return"function"==typeof i.getFloatTimeDomainData},St=function(i,t,e){var n=t[e];void 0!==n&&n!==i[e].value&&(i[e].value=n)},Ot=function(i){var t,e;i.start=(t=i.start,e=!1,function(){var n=arguments.length>0&&void 0!==arguments[0]?arguments[0]:0,o=arguments.length>1&&void 0!==arguments[1]?arguments[1]:0,a=arguments.length>2?arguments[2]:void 0;if(e)throw ft();t.call(i,n,o,a),e=!0})},Bt=function(i){var t;i.start=(t=i.start,function(){var e=arguments.length>0&&void 0!==arguments[0]?arguments[0]:0,n=arguments.length>1&&void 0!==arguments[1]?arguments[1]:0,o=arguments.length>2?arguments[2]:void 0;if("number"==typeof o&&o<0||n<0||e<0)throw new RangeError("The parameters can't be negative.");t.call(i,e,n,o)})},Mt=function(i){var t;i.stop=(t=i.stop,function(){var e=arguments.length>0&&void 0!==arguments[0]?arguments[0]:0;if(e<0)throw new RangeError("The parameter can't be negative.");t.call(i,e)})},It=function(i){var t=(new MessageChannel).port1;try{t.postMessage(i)}finally{t.close()}},Gt=(u=o("4tpRD"),function(i,t){return null===i?512:Math.max(512,Math.min(16384,Math.pow(2,Math.round(Math.log2(i*t)))))}),Rt=function(i){return new Promise((function(t,e){var n=new MessageChannel,o=n.port1,a=n.port2;o.onmessage=function(i){var e=i.data;o.close(),a.close(),t(e)},o.onmessageerror=function(i){var t=i.data;o.close(),a.close(),e(t)},a.postMessage(i)}))},jt=function(){var t=i(K)(i(ti).mark((function t(e,n){var o;return i(ti).wrap((function(i){for(;;)switch(i.prev=i.next){case 0:return i.next=2,Rt(n);case 2:return o=i.sent,i.abrupt("return",new e(o));case 4:case"end":return i.stop()}}),t)})));return function(i,e){return t.apply(this,arguments)}}(),Vt=function(i,t,e,n){var o=w.get(i);void 0===o&&(o=new WeakMap,w.set(i,o));var a=jt(e,n);return o.set(t,a),a},Pt=function(i,t){var e=i.createBiquadFilter();return Ft(e,t),St(e,t,"Q"),St(e,t,"detune"),St(e,t,"frequency"),St(e,t,"gain"),wt(e,t,"type"),e},Nt=function(i,t){var e,n,o=i.createChannelSplitter(t.numberOfOutputs);return Ft(o,t),n=(e=o).numberOfOutputs,Object.defineProperty(e,"channelCount",{get:function(){return n},set:function(i){if(i!==n)throw ft()}}),Object.defineProperty(e,"channelCountMode",{get:function(){return"explicit"},set:function(i){if("explicit"!==i)throw ft()}}),Object.defineProperty(e,"channelInterpretation",{get:function(){return"discrete"},set:function(i){if("discrete"!==i)throw ft()}}),o},qt={};Object.defineProperty(qt,"__esModule",{value:!0}),qt.default=function(i,t){if(null==i)return{};var e,n,o=Lt.default(i,t);if(Object.getOwnPropertySymbols){var a=Object.getOwnPropertySymbols(i);for(n=0;n<a.length;n++)e=a[n],t.indexOf(e)>=0||Object.prototype.propertyIsEnumerable.call(i,e)&&(o[e]=i[e])}return o};var Lt=function(i){return i&&i.__esModule?i:{default:i}}(o("5ZOHt"));var Wt=function(i,t){return i.connect=t.connect.bind(t),i.disconnect=t.disconnect.bind(t),i},Ut=function(i,t){var e=i.createDelay(t.maxDelayTime);return Ft(e,t),St(e,t,"delayTime"),e},zt=function(i,t){var e=i.createGain();return Ft(e,t),St(e,t,"gain"),e};function Yt(i,t){var e=t[0]*t[0]+t[1]*t[1];return[(i[0]*t[0]+i[1]*t[1])/e,(i[1]*t[0]-i[0]*t[1])/e]}function Zt(i,t){for(var e,n,o=[0,0],a=i.length-1;a>=0;a-=1)n=t,(o=[(e=o)[0]*n[0]-e[1]*n[1],e[0]*n[1]+e[1]*n[0]])[0]+=i[a];return o}var Xt,Ht,Qt,$t,Jt,Kt,ie,te,ee,ne,oe,ae,re,ce,se,ue,de,me,le,ke,ve,ye,he,Te,fe,pe,ge,_e,Ae,Ce,xe,be,De,we,Fe,Ee,Se,Oe,Be,Me,Ie,Ge,Re,je,Ve,Pe,Ne,qe,Le,We,Ue,ze,Ye,Ze,Xe,He,Qe,$e,Je,Ke,tn,en,nn,on,an,rn,cn,sn,un,dn=function(i,t,e,n){return i.createScriptProcessor(t,e,n)},mn=function(){return new DOMException("","NotSupportedError")},ln={numberOfChannels:1},kn=(si=o("kumvF"),{channelCount:2,channelCountMode:"max",channelInterpretation:"speakers",detune:0,frequency:440,periodicWave:void 0,type:"sine"}),vn=(si=o("kumvF"),{channelCount:2,channelCountMode:"clamped-max",channelInterpretation:"speakers",coneInnerAngle:360,coneOuterAngle:360,coneOuterGain:0,distanceModel:"inverse",maxDistance:1e4,orientationX:1,orientationY:0,orientationZ:0,panningModel:"equalpower",positionX:0,positionY:0,positionZ:0,refDistance:1,rolloffFactor:1}),yn={disableNormalization:!1},hn=(si=o("kumvF"),{channelCount:2,channelCountMode:"explicit",channelInterpretation:"speakers",pan:0}),Tn=function(){return new DOMException("","UnknownError")},fn=(si=o("kumvF"),{channelCount:2,channelCountMode:"max",channelInterpretation:"speakers",curve:null,oversample:"none"}),pn=function(i,t,e){return void 0===i.copyFromChannel?i.getChannelData(e)[0]:(i.copyFromChannel(t,e),t[0])},gn=function(i){if(null===i)return!1;var t=i.length;return t%2!=0?0!==i[Math.floor(t/2)]:i[t/2-1]+i[t/2]!==0},_n=function(i,t,e,n){for(var o=i;!o.hasOwnProperty(t);)o=Object.getPrototypeOf(o);var a=Object.getOwnPropertyDescriptor(o,t),r=a.get,c=a.set;Object.defineProperty(i,t,{get:e(r),set:n(c)})},An=function(i,t,e){try{i.setValueAtTime(t,e)}catch(n){if(9!==n.code)throw n;An(i,t,e+1e-7)}},Cn=function(i){var t=i.createOscillator();try{t.start(-1)}catch(i){return i instanceof RangeError}return!1},xn=function(i){var t=i.createBuffer(1,1,44100),e=i.createBufferSource();e.buffer=t,e.start(),e.stop();try{return e.stop(),!0}catch(i){return!1}},bn=function(i){var t=i.createOscillator();try{t.stop(-1)}catch(i){return i instanceof RangeError}return!1},Dn=function(i,t){var e=t.createGain();i.connect(e);var n,o,a,r=(n=i.disconnect,function(){n.call(i,e),i.removeEventListener("ended",r)});i.addEventListener("ended",r),Wt(i,e),i.stop=(o=i.stop,a=!1,function(){var t=arguments.length>0&&void 0!==arguments[0]?arguments[0]:0;if(a)try{o.call(i,t)}catch(i){e.gain.setValueAtTime(0,t)}else o.call(i,t),a=!0})},wn=function(i,t){return function(e){var n={value:i};return Object.defineProperties(e,{currentTarget:n,target:n}),"function"==typeof t?t.call(i,e):t.handleEvent.call(i,e)}},Fn=(Xt=Bi,function(t,e,n,o){var a=i(l)(n,3),r=a[0],c=a[1],s=a[2];Xt(t[c],[e,r,s],(function(i){return i[0]===e&&i[1]===r}),o)}),En=function(t){return function(e,n,o,a){var r=i(l)(o,3),c=r[0],s=r[1],u=r[2],d=e.get(c);void 0===d?e.set(c,new Set([[s,n,u]])):t(d,[s,n,u],(function(i){return i[0]===s&&i[1]===n}),a)}}(Bi),Sn=(Ht=G,function(i,t,e,n){return Ht(i[n],(function(i){return i[0]===t&&i[1]===e}))}),On=new WeakMap,Bn=(Qt=On,function(i){var t;return null!==(t=Qt.get(i))&&void 0!==t?t:0}),Mn=($t=new Map,Jt=new WeakMap,function(i,t){var e=Jt.get(i);if(void 0!==e)return e;var n=$t.get(i);if(void 0!==n)return n;try{var o=t();return o instanceof Promise?($t.set(i,o),o.catch((function(){return!1})).then((function(t){return $t.delete(i),Jt.set(i,t),t}))):(Jt.set(i,o),o)}catch(t){return Jt.set(i,!1),!1}}),In="undefined"==typeof window?null:window,Gn=(Kt=Mn,ie=ai,function(i,t){var e=i.createAnalyser();if(Ft(e,t),!(t.maxDecibels>t.minDecibels))throw ie();return wt(e,t,"fftSize"),wt(e,t,"maxDecibels"),wt(e,t,"minDecibels"),wt(e,t,"smoothingTimeConstant"),Kt(Et,(function(){return Et(e)}))||function(i){i.getFloatTimeDomainData=function(t){var e=new Uint8Array(t.length);i.getByteTimeDomainData(e);for(var n=Math.max(e.length,i.fftSize),o=0;o<n;o+=1)t[o]=.0078125*(e[o]-128);return t}}(e),e}),Rn=(te=bi,function(i){var t=te(i);if(null===t.renderer)throw new Error("Missing the renderer of the given AudioNode in the audio graph.");return t.renderer}),jn=function(t,e,n){return o=i(K)(i(ti).mark((function o(a,r,c){var s;return i(ti).wrap((function(o){for(;;)switch(o.prev=o.next){case 0:return s=t(a),o.next=3,Promise.all(s.activeInputs.map((function(t,o){return Array.from(t).map(function(){var t=i(K)(i(ti).mark((function t(s){var u,d,m,k,v,y;return i(ti).wrap((function(t){for(;;)switch(t.prev=t.next){case 0:return u=i(l)(s,2),d=u[0],m=u[1],k=e(d),t.next=4,k.render(d,r);case 4:v=t.sent,y=a.context.destination,n(d)||a===y&&n(a)||v.connect(c,m,o);case 7:case"end":return t.stop()}}),t)})));return function(i){return t.apply(this,arguments)}}())})).reduce((function(t,e){return i(ki)(t).concat(i(ki)(e))}),[]));case 3:case"end":return o.stop()}}),o)}))),function(i,t,e){return o.apply(this,arguments)};var o}(bi,Rn,Ui),Vn=(ee=Gn,ne=Li,oe=jn,function(){var t,e=new WeakMap,n=(t=i(K)(i(ti).mark((function t(n,o){var a,r;return i(ti).wrap((function(i){for(;;)switch(i.prev=i.next){case 0:return a=ne(n),ni(a,o)||(r={channelCount:a.channelCount,channelCountMode:a.channelCountMode,channelInterpretation:a.channelInterpretation,fftSize:a.fftSize,maxDecibels:a.maxDecibels,minDecibels:a.minDecibels,smoothingTimeConstant:a.smoothingTimeConstant},a=ee(o,r)),e.set(o,a),i.next=6,oe(n,o,a);case 6:return i.abrupt("return",a);case 7:case"end":return i.stop()}}),t)}))),function(i,e){return t.apply(this,arguments)});return{render:function(i,t){var o=e.get(t);return void 0!==o?Promise.resolve(o):n(i,t)}}}),Pn=(ae=C,function(i){var t=ae.get(i);if(void 0===t)throw ft();return t}),Nn=function(i){return null===i?null:i.hasOwnProperty("OfflineAudioContext")?i.OfflineAudioContext:i.hasOwnProperty("webkitOfflineAudioContext")?i.webkitOfflineAudioContext:null}(In),qn=(re=Nn,function(i){return null!==re&&i instanceof re}),Ln=new WeakMap,Wn=(ce=wn,function(){"use strict";function t(e){i(a)(this,t),this._nativeEventTarget=e,this._listeners=new WeakMap}return i(r)(t,[{key:"addEventListener",value:function(i,t,e){if(null!==t){var n=this._listeners.get(t);void 0===n&&(n=ce(this,t),"function"==typeof t&&this._listeners.set(t,n)),this._nativeEventTarget.addEventListener(i,n,e)}}},{key:"dispatchEvent",value:function(i){return this._nativeEventTarget.dispatchEvent(i)}},{key:"removeEventListener",value:function(i,t,e){var n=null===t?void 0:this._listeners.get(t);this._nativeEventTarget.removeEventListener(i,void 0===n?null:n,e)}}]),t}()),Un=function(i){return null===i?null:i.hasOwnProperty("AudioContext")?i.AudioContext:i.hasOwnProperty("webkitAudioContext")?i.webkitAudioContext:null}(In),zn=(se=Un,function(i){return null!==se&&i instanceof se}),Yn=function(i){return function(t){return null!==i&&"function"==typeof i.AudioNode&&t instanceof i.AudioNode}}(In),Zn=function(i){return function(t){return null!==i&&"function"==typeof i.AudioParam&&t instanceof i.AudioParam}}(In),Xn=function(i){return null===i?null:i.hasOwnProperty("AudioWorkletNode")?i.AudioWorkletNode:null}(In),Hn=function(t,e,n,o,c,s,u,d,m,l,k,v,y,h,T,f){return function(l){"use strict";i(L)(_,l);var p=i(Z)(_);function _(e,o,r,c){var s;i(a)(this,_),(s=p.call(this,r))._context=e,s._nativeAudioNode=r;var u=k(e);return v(u)&&!0!==n(Yi,(function(){return Yi(u,f)}))&&Hi(r),g.set(i(si)(s),r),x.set(i(si)(s),new Set),"closed"!==e.state&&o&&V(i(si)(s)),t(i(si)(s),c,r),s}return i(r)(_,[{key:"channelCount",get:function(){return this._nativeAudioNode.channelCount},set:function(i){this._nativeAudioNode.channelCount=i}},{key:"channelCountMode",get:function(){return this._nativeAudioNode.channelCountMode},set:function(i){this._nativeAudioNode.channelCountMode=i}},{key:"channelInterpretation",get:function(){return this._nativeAudioNode.channelInterpretation},set:function(i){this._nativeAudioNode.channelInterpretation=i}},{key:"context",get:function(){return this._context}},{key:"numberOfInputs",get:function(){return this._nativeAudioNode.numberOfInputs}},{key:"numberOfOutputs",get:function(){return this._nativeAudioNode.numberOfOutputs}},{key:"connect",value:function(t){var n=arguments.length>1&&void 0!==arguments[1]?arguments[1]:0,a=arguments.length>2&&void 0!==arguments[2]?arguments[2]:0;if(n<0||n>=this._nativeAudioNode.numberOfOutputs)throw c();var r=k(this._context),d=T(r);if(y(t)||h(t))throw s();if(Si(t)){var l=Li(t);try{var v,f=Ri(this._nativeAudioNode,l,n,a),p=zi(this);(d||p)&&(v=this._nativeAudioNode).disconnect.apply(v,i(ki)(f)),"closed"!==this.context.state&&!p&&zi(t)&&V(t)}catch(i){if(12===i.code)throw s();throw i}var g=e(this,t,n,a,d);if(g){var _=m([this],t);Zi(_,o(d))}return t}var A=Wi(t);if("playbackRate"===A.name&&1024===A.maxValue)throw u();try{this._nativeAudioNode.connect(A,n),(d||zi(this))&&this._nativeAudioNode.disconnect(A,n)}catch(i){if(12===i.code)throw s();throw i}var C=Qi(this,t,n,d);if(C){var x=m([this],t);Zi(x,o(d))}}},{key:"disconnect",value:function(t,e,n){var o,a=k(this._context),r=T(a);if(void 0===t)o=function(t,e){var n=bi(t),o=[],a=!0,r=!1,c=void 0;try{for(var s,u=n.outputs[Symbol.iterator]();!(a=(s=u.next()).done);a=!0){var d=s.value;Oi(d)?$i.apply(void 0,[t,e].concat(i(ki)(d))):Ji.apply(void 0,[t,e].concat(i(ki)(d))),o.push(d[0])}}catch(i){r=!0,c=i}finally{try{a||null==u.return||u.return()}finally{if(r)throw c}}return n.outputs.clear(),o}(this,r);else if("number"==typeof t){if(t<0||t>=this.numberOfOutputs)throw c();o=function(t,e,n){var o=bi(t),a=[],r=!0,c=!1,s=void 0;try{for(var u,d=o.outputs[Symbol.iterator]();!(r=(u=d.next()).done);r=!0){var m=u.value;m[1]===n&&(Oi(m)?$i.apply(void 0,[t,e].concat(i(ki)(m))):Ji.apply(void 0,[t,e].concat(i(ki)(m))),a.push(m[0]),o.outputs.delete(m))}}catch(i){c=!0,s=i}finally{try{r||null==d.return||d.return()}finally{if(c)throw s}}return a}(this,r,t)}else{if(void 0!==e&&(e<0||e>=this.numberOfOutputs))throw c();if(Si(t)&&void 0!==n&&(n<0||n>=t.numberOfInputs))throw c();if(o=function(t,e,n,o,a){var r=bi(t);return Array.from(r.outputs).filter((function(i){return!(i[0]!==n||void 0!==o&&i[1]!==o||void 0!==a&&i[2]!==a)})).map((function(n){return Oi(n)?$i.apply(void 0,[t,e].concat(i(ki)(n))):Ji.apply(void 0,[t,e].concat(i(ki)(n))),r.outputs.delete(n),n[0]}))}(this,r,t,e,n),0===o.length)throw s()}var u=!0,l=!1,v=void 0;try{for(var y,h=o[Symbol.iterator]();!(u=(y=h.next()).done);u=!0){var f=y.value,p=m([this],f);Zi(p,d)}}catch(i){l=!0,v=i}finally{try{u||null==h.return||h.return()}finally{if(l)throw v}}}}]),_}(l)}((ue=p,function(i,t,e){for(var n=[],o=0;o<e.numberOfInputs;o+=1)n.push(new Set);ue.set(i,{activeInputs:n,outputs:new Set,passiveInputs:new WeakMap,renderer:t})}),function(i,t,e,n,o,a,r,c,s,u,d,m,l){var k=new WeakMap;return function(v,y,h,T,f){var p=a(y),g=p.activeInputs,_=p.passiveInputs,A=a(v).outputs,C=c(v),x=function(a){var c=s(y),u=s(v);if(a){var p=R(_,v,h,T);i(g,v,p,!1),f||m(v)||e(u,c,h,T),l(y)&&V(y)}else{var A=n(g,v,h,T);t(_,T,A,!1),f||m(v)||o(u,c,h,T);var C=r(y);if(0===C)d(y)&&q(y,g);else{var x=k.get(y);void 0!==x&&clearTimeout(x),k.set(y,setTimeout((function(){d(y)&&q(y,g)}),1e3*C))}}};return!!u(A,[y,h,T],(function(i){return i[0]===y&&i[1]===h&&i[2]===T}),!0)&&(C.add(x),d(v)?i(g,v,[h,T,x],!0):t(_,T,[v,h,x],!0),!0)}}(Fn,En,Ri,Sn,qi,bi,Bn,j,Li,Bi,mi,Ui,zi),Mn,function(i,t,e,n,o,a){return function(r){return function(c,s){var u=i.get(c);if(void 0===u){if(!r&&a(c)){var d=n(c),m=e(c).outputs,l=!0,k=!1,v=void 0;try{for(var y,h=m[Symbol.iterator]();!(l=(y=h.next()).done);l=!0){var T=y.value;if(Oi(T)){var f=n(T[0]);t(d,f,T[1],T[2])}else{var p=o(T[0]);d.disconnect(p,T[1])}}}catch(i){k=!0,v=i}finally{try{l||null==h.return||h.return()}finally{if(k)throw v}}}i.set(c,s)}else i.set(c,u+s)}}}(b,qi,bi,Li,Wi,mi),ai,pt,mn,function(i,t,e,n,o,a,r,c){return function(s,u){var d=t.get(s);if(void 0===d)throw new Error("Missing the expected cycle count.");var m=a(s.context),l=c(m);if(d===u){if(t.delete(s),!l&&r(s)){var k=n(s),v=e(s).outputs,y=!0,h=!1,T=void 0;try{for(var f,p=v[Symbol.iterator]();!(y=(f=p.next()).done);y=!0){var g=f.value;if(Oi(g)){var _=n(g[0]);i(k,_,g[1],g[2])}else{var A=o(g[0]);k.connect(A,g[1])}}}catch(i){h=!0,T=i}finally{try{y||null==p.return||p.return()}finally{if(h)throw T}}}}else t.set(s,d-u)}}(Ri,b,bi,Li,Wi,Pn,mi,qn),function(t,e,n){return function o(a,r){var c=Si(r)?r:n(t,r);if(vt(c))return[];if(a[0]===c)return[a];if(a.includes(c))return[];var s=e(c).outputs;return Array.from(s).map((function(t){return o(i(ki)(a).concat([c]),t[0])})).reduce((function(i,t){return i.concat(t)}),[])}}(Ln,bi,I),Wn,Pn,zn,Yn,Zn,qn,Xn),Qn=function(t,e,n,o,c,s){return function(t){"use strict";i(L)(d,t);var u=i(Z)(d);function d(t,n){var r;i(a)(this,d);var m=c(t),l=i(z)({},J,n),k=o(m,l),v=s(m)?e():null;return(r=u.call(this,t,!1,k,v))._nativeAnalyserNode=k,r}return i(r)(d,[{key:"fftSize",get:function(){return this._nativeAnalyserNode.fftSize},set:function(i){this._nativeAnalyserNode.fftSize=i}},{key:"frequencyBinCount",get:function(){return this._nativeAnalyserNode.frequencyBinCount}},{key:"maxDecibels",get:function(){return this._nativeAnalyserNode.maxDecibels},set:function(i){var t=this._nativeAnalyserNode.maxDecibels;if(this._nativeAnalyserNode.maxDecibels=i,!(i>this._nativeAnalyserNode.minDecibels))throw this._nativeAnalyserNode.maxDecibels=t,n()}},{key:"minDecibels",get:function(){return this._nativeAnalyserNode.minDecibels},set:function(i){var t=this._nativeAnalyserNode.minDecibels;if(this._nativeAnalyserNode.minDecibels=i,!(this._nativeAnalyserNode.maxDecibels>i))throw this._nativeAnalyserNode.minDecibels=t,n()}},{key:"smoothingTimeConstant",get:function(){return this._nativeAnalyserNode.smoothingTimeConstant},set:function(i){this._nativeAnalyserNode.smoothingTimeConstant=i}},{key:"getByteFrequencyData",value:function(i){this._nativeAnalyserNode.getByteFrequencyData(i)}},{key:"getByteTimeDomainData",value:function(i){this._nativeAnalyserNode.getByteTimeDomainData(i)}},{key:"getFloatFrequencyData",value:function(i){this._nativeAnalyserNode.getFloatFrequencyData(i)}},{key:"getFloatTimeDomainData",value:function(i){this._nativeAnalyserNode.getFloatTimeDomainData(i)}}]),d}(t)}(Hn,Vn,ai,Gn,Pn,qn),$n=new WeakSet,Jn=function(i){return null===i?null:i.hasOwnProperty("AudioBuffer")?i.AudioBuffer:null}(In),Kn=(de=new Uint32Array(1),function(i){return de[0]=i,de[0]}),io=function(i,t){return function(e){e.copyFromChannel=function(n,o){var a=arguments.length>2&&void 0!==arguments[2]?arguments[2]:0,r=i(a),c=i(o);if(c>=e.numberOfChannels)throw t();for(var s=e.length,u=e.getChannelData(c),d=n.length,m=r<0?-r:0;m+r<s&&m<d;m+=1)n[m]=u[m+r]},e.copyToChannel=function(n,o){var a=arguments.length>2&&void 0!==arguments[2]?arguments[2]:0,r=i(a),c=i(o);if(c>=e.numberOfChannels)throw t();for(var s=e.length,u=e.getChannelData(c),d=n.length,m=r<0?-r:0;m+r<s&&m<d;m+=1)u[m+r]=n[m]}}}(Kn,ai),to=(me=Kn,function(i){var t,e;i.copyFromChannel=(t=i.copyFromChannel,function(e,n){var o=arguments.length>2&&void 0!==arguments[2]?arguments[2]:0,a=me(o),r=me(n);if(a<i.length)return t.call(i,e,r,a)}),i.copyToChannel=(e=i.copyToChannel,function(t,n){var o=arguments.length>2&&void 0!==arguments[2]?arguments[2]:0,a=me(o),r=me(n);if(a<i.length)return e.call(i,t,r,a)})}),eo=function(t,e,n,o,c,s,u,d){var m,l=null;return m=Symbol.hasInstance,function(){"use strict";function k(r){if(i(a)(this,k),null===c)throw new Error("Missing the native OfflineAudioContext constructor.");var m=i(z)({},ci,r),v=m.length,y=m.numberOfChannels,h=m.sampleRate;null===l&&(l=new c(1,1,44100));var T=null!==o&&e(s,s)?new o({length:v,numberOfChannels:y,sampleRate:h}):l.createBuffer(y,v,h);if(0===T.numberOfChannels)throw n();return"function"!=typeof T.copyFromChannel?(u(T),ri(T)):e(oi,(function(){return oi(T)}))||d(T),t.add(T),T}return i(r)(k,null,[{key:m,value:function(i){return null!==i&&"object"==typeof i&&Object.getPrototypeOf(i)===k.prototype||t.has(i)}}]),k}()}($n,Mn,mn,Jn,Nn,(le=Jn,function(){if(null===le)return!1;try{new le({length:1,sampleRate:44100})}catch(i){return!1}return!0}),io,to),no=(ke=zt,function(i,t){var e=ke(i,{channelCount:1,channelCountMode:"explicit",channelInterpretation:"discrete",gain:0});t.connect(e).connect(i.destination);var n=function(){t.removeEventListener("ended",n),t.disconnect(e),e.disconnect()};t.addEventListener("ended",n)}),oo=(ve=Rn,ye=Di,he=Ui,Te=i(K)(i(ti).mark((function t(e,n,o){var a;return i(ti).wrap((function(t){for(;;)switch(t.prev=t.next){case 0:return a=ye(e),t.next=3,Promise.all(Array.from(a.activeInputs).map(function(){var t=i(K)(i(ti).mark((function t(e){var a,r,c,s,u;return i(ti).wrap((function(t){for(;;)switch(t.prev=t.next){case 0:return a=i(l)(e,2),r=a[0],c=a[1],s=ve(r),t.next=4,s.render(r,n);case 4:u=t.sent,he(r)||u.connect(o,c);case 6:case"end":return t.stop()}}),t)})));return function(i){return t.apply(this,arguments)}}()));case 3:case"end":return t.stop()}}),t)}))),function(i,t,e){return Te.apply(this,arguments)}),ao=(fe=oo,function(i,t,e){return fe(t,i,e)}),ro=function(i,t,e,n,o,a,r,c,s,u,d){return function(m,l){var k=m.createBufferSource();return Ft(k,l),St(k,l,"playbackRate"),wt(k,l,"buffer"),wt(k,l,"loop"),wt(k,l,"loopEnd"),wt(k,l,"loopStart"),t(e,(function(){return e(m)}))||Ot(k),t(n,(function(){return n(m)}))||s(k),t(o,(function(){return o(m)}))||u(k,m),t(a,(function(){return a(m)}))||Bt(k),t(r,(function(){return r(m)}))||d(k,m),t(c,(function(){return c(m)}))||Mt(k),i(m,k),k}}(no,Mn,(function(i){var t=i.createBufferSource();t.start();try{t.start()}catch(i){return!0}return!1}),(function(i){var t=i.createBufferSource(),e=i.createBuffer(1,1,44100);t.buffer=e;try{t.start(0,1)}catch(i){return!1}return!0}),(function(i){var t=i.createBufferSource();t.start();try{t.stop()}catch(i){return!1}return!0}),Cn,xn,bn,(function(i){var t;i.start=(t=i.start,function(){var e=arguments.length>0&&void 0!==arguments[0]?arguments[0]:0,n=arguments.length>1&&void 0!==arguments[1]?arguments[1]:0,o=arguments.length>2?arguments[2]:void 0,a=i.buffer,r=null===a?n:Math.min(a.duration,n);null!==a&&r>a.duration-.5/i.context.sampleRate?t.call(i,e,0,0):t.call(i,e,r,o)})}),(pe=_n,function(i,t){var e=t.createBuffer(1,1,44100);null===i.buffer&&(i.buffer=e),pe(i,"buffer",(function(t){return function(){var n=t.call(i);return n===e?null:n}}),(function(t){return function(n){return t.call(i,null===n?e:n)}}))}),Dn),co=function(i,t){return function(e,n,o){return i(n).replay(o),t(n,e,o)}}(function(i){return function(t){var e=i(t);if(null===e.renderer)throw new Error("Missing the renderer of the given AudioParam in the audio graph.");return e.renderer}}(Di),oo),so=function(t,e,n,o,a){return function(){var r,c=new WeakMap,s=null,u=null,d=(r=i(K)(i(ti).mark((function r(d,m){var l,k,v,y;return i(ti).wrap((function(r){for(;;)switch(r.prev=r.next){case 0:if(l=n(d),(k=ni(l,m))||(y={buffer:l.buffer,channelCount:l.channelCount,channelCountMode:l.channelCountMode,channelInterpretation:l.channelInterpretation,loop:l.loop,loopEnd:l.loopEnd,loopStart:l.loopStart,playbackRate:l.playbackRate.value},l=e(m,y),null!==s&&(v=l).start.apply(v,i(ki)(s)),null!==u&&l.stop(u)),c.set(m,l),k){r.next=9;break}return r.next=7,o(m,d.playbackRate,l.playbackRate);case 7:r.next=11;break;case 9:return r.next=11,t(m,d.playbackRate,l.playbackRate);case 11:return r.next=13,a(d,m,l);case 13:return r.abrupt("return",l);case 14:case"end":return r.stop()}}),r)}))),function(i,t){return r.apply(this,arguments)});return{set start(i){s=i},set stop(i){u=i},render:function(i,t){var e=c.get(t);return void 0!==e?Promise.resolve(e):d(i,t)}}}}(ao,ro,Li,co,jn),uo=function(i,t,e,n,o,a,r,c,s,u,d,l,k){return function(v,y,h){var T=arguments.length>3&&void 0!==arguments[3]?arguments[3]:null,f=arguments.length>4&&void 0!==arguments[4]?arguments[4]:null,p=new(0,m.AutomationEventList)(h.defaultValue),g=y?n(p):null,_={get defaultValue(){return h.defaultValue},get maxValue(){return null===T?h.maxValue:T},get minValue(){return null===f?h.minValue:f},get value(){return h.value},set value(i){h.value=i,_.setValueAtTime(i,v.context.currentTime)},cancelAndHoldAtTime:function(i){if("function"==typeof h.cancelAndHoldAtTime)null===g&&p.flush(v.context.currentTime),p.add(o(i)),h.cancelAndHoldAtTime(i);else{var t=Array.from(p).pop();null===g&&p.flush(v.context.currentTime),p.add(o(i));var e=Array.from(p).pop();h.cancelScheduledValues(i),t!==e&&void 0!==e&&("exponentialRampToValue"===e.type?h.exponentialRampToValueAtTime(e.value,e.endTime):"linearRampToValue"===e.type?h.linearRampToValueAtTime(e.value,e.endTime):"setValue"===e.type?h.setValueAtTime(e.value,e.startTime):"setValueCurve"===e.type&&h.setValueCurveAtTime(e.values,e.startTime,e.duration))}return _},cancelScheduledValues:function(i){return null===g&&p.flush(v.context.currentTime),p.add(a(i)),h.cancelScheduledValues(i),_},exponentialRampToValueAtTime:function(i,t){if(0===i)throw new RangeError;if(!Number.isFinite(t)||t<0)throw new RangeError;return null===g&&p.flush(v.context.currentTime),p.add(r(i,t)),h.exponentialRampToValueAtTime(i,t),_},linearRampToValueAtTime:function(i,t){return null===g&&p.flush(v.context.currentTime),p.add(c(i,t)),h.linearRampToValueAtTime(i,t),_},setTargetAtTime:function(i,t,e){return null===g&&p.flush(v.context.currentTime),p.add(s(i,t,e)),h.setTargetAtTime(i,t,e),_},setValueAtTime:function(i,t){return null===g&&p.flush(v.context.currentTime),p.add(u(i,t)),h.setValueAtTime(i,t),_},setValueCurveAtTime:function(i,t,e){var n=i instanceof Float32Array?i:new Float32Array(i);if(null!==l&&"webkitAudioContext"===l.name){for(var o=t+e,a=v.context.sampleRate,r=Math.ceil(t*a),c=Math.floor(o*a),s=c-r,u=new Float32Array(s),m=0;m<s;m+=1){var y=(n.length-1)/e*((r+m)/a-t),T=Math.floor(y),f=Math.ceil(y);u[m]=T===f?n[T]:(1-(y-T))*n[T]+(1-(f-y))*n[f]}null===g&&p.flush(v.context.currentTime),p.add(d(u,t,e)),h.setValueCurveAtTime(u,t,e);var A=c/a;A<o&&k(_,u[u.length-1],A),k(_,n[n.length-1],o)}else null===g&&p.flush(v.context.currentTime),p.add(d(n,t,e)),h.setValueCurveAtTime(n,t,e);return _}};return e.set(_,h),t.set(_,v),i(_,g),_}}((ge=_,function(i,t){ge.set(i,{activeInputs:new Set,passiveInputs:new WeakMap,renderer:t})}),Ln,A,(function(i){return{replay:function(t){var e=!0,n=!1,o=void 0;try{for(var a,r=i[Symbol.iterator]();!(e=(a=r.next()).done);e=!0){var c=a.value;if("exponentialRampToValue"===c.type){var s=c.endTime,u=c.value;t.exponentialRampToValueAtTime(u,s)}else if("linearRampToValue"===c.type){var d=c.endTime,m=c.value;t.linearRampToValueAtTime(m,d)}else if("setTarget"===c.type){var l=c.startTime,k=c.target,v=c.timeConstant;t.setTargetAtTime(k,l,v)}else if("setValue"===c.type){var y=c.startTime,h=c.value;t.setValueAtTime(h,y)}else{if("setValueCurve"!==c.type)throw new Error("Can't apply an unknown automation.");var T=c.duration,f=c.startTime,p=c.values;t.setValueCurveAtTime(p,f,T)}}}catch(i){n=!0,o=i}finally{try{e||null==r.return||r.return()}finally{if(n)throw o}}}}}),m.createCancelAndHoldAutomationEvent,m.createCancelScheduledValuesAutomationEvent,m.createExponentialRampToValueAutomationEvent,m.createLinearRampToValueAutomationEvent,m.createSetTargetAutomationEvent,m.createSetValueAutomationEvent,m.createSetValueCurveAutomationEvent,Un,An),mo=function(t,e,n,o,c,s,u,d){return function(t){"use strict";i(L)(l,t);var m=i(Z)(l);function l(t,o){var r;i(a)(this,l);var d=s(t),k=i(z)({},li,o),v=c(d,k),y=u(d),h=y?e():null;return(r=m.call(this,t,!1,v,h))._audioBufferSourceNodeRenderer=h,r._isBufferNullified=!1,r._isBufferSet=null!==k.buffer,r._nativeAudioBufferSourceNode=v,r._onended=null,r._playbackRate=n(i(si)(r),y,v.playbackRate,di,ui),r}return i(r)(l,[{key:"buffer",get:function(){return this._isBufferNullified?null:this._nativeAudioBufferSourceNode.buffer},set:function(i){if(this._nativeAudioBufferSourceNode.buffer=i,null!==i){if(this._isBufferSet)throw o();this._isBufferSet=!0}}},{key:"loop",get:function(){return this._nativeAudioBufferSourceNode.loop},set:function(i){this._nativeAudioBufferSourceNode.loop=i}},{key:"loopEnd",get:function(){return this._nativeAudioBufferSourceNode.loopEnd},set:function(i){this._nativeAudioBufferSourceNode.loopEnd=i}},{key:"loopStart",get:function(){return this._nativeAudioBufferSourceNode.loopStart},set:function(i){this._nativeAudioBufferSourceNode.loopStart=i}},{key:"onended",get:function(){return this._onended},set:function(i){var t="function"==typeof i?d(this,i):null;this._nativeAudioBufferSourceNode.onended=t;var e=this._nativeAudioBufferSourceNode.onended;this._onended=null!==e&&e===t?i:e}},{key:"playbackRate",get:function(){return this._playbackRate}},{key:"start",value:function(){var i=arguments.length>0&&void 0!==arguments[0]?arguments[0]:0,t=arguments.length>1&&void 0!==arguments[1]?arguments[1]:0,e=arguments.length>2?arguments[2]:void 0;if(this._nativeAudioBufferSourceNode.start(i,t,e),null!==this._audioBufferSourceNodeRenderer&&(this._audioBufferSourceNodeRenderer.start=void 0===e?[i,t]:[i,t,e]),"closed"!==this.context.state){var n=this;V(this);var o=function(){n._nativeAudioBufferSourceNode.removeEventListener("ended",o),mi(n)&&N(n)};this._nativeAudioBufferSourceNode.addEventListener("ended",o)}}},{key:"stop",value:function(){var i=arguments.length>0&&void 0!==arguments[0]?arguments[0]:0;this._nativeAudioBufferSourceNode.stop(i),null!==this._audioBufferSourceNodeRenderer&&(this._audioBufferSourceNodeRenderer.stop=i)}}]),l}(t)}(Hn,so,uo,ft,ro,Pn,qn,wn),lo=function(t,e,n,o,c,s,u,d){return function(t){"use strict";i(L)(l,t);var m=i(Z)(l);function l(t,n){var o;i(a)(this,l);var r=s(t),k=u(r),v=c(r,n,k),y=k?e(d):null;return(o=m.call(this,t,!1,v,y))._isNodeOfNativeOfflineAudioContext=k,o._nativeAudioDestinationNode=v,o}return i(r)(l,[{key:"channelCount",get:function(){return this._nativeAudioDestinationNode.channelCount},set:function(i){if(this._isNodeOfNativeOfflineAudioContext)throw o();if(i>this._nativeAudioDestinationNode.maxChannelCount)throw n();this._nativeAudioDestinationNode.channelCount=i}},{key:"channelCountMode",get:function(){return this._nativeAudioDestinationNode.channelCountMode},set:function(i){if(this._isNodeOfNativeOfflineAudioContext)throw o();this._nativeAudioDestinationNode.channelCountMode=i}},{key:"maxChannelCount",get:function(){return this._nativeAudioDestinationNode.maxChannelCount}}]),l}(t)}(Hn,(function(t){var e,n=new WeakMap,o=(e=i(K)(i(ti).mark((function e(o,a){var r;return i(ti).wrap((function(i){for(;;)switch(i.prev=i.next){case 0:return r=a.destination,n.set(a,r),i.next=4,t(o,a,r);case 4:return i.abrupt("return",r);case 5:case"end":return i.stop()}}),e)}))),function(i,t){return e.apply(this,arguments)});return{render:function(i,t){var e=n.get(t);return void 0!==e?Promise.resolve(e):o(i,t)}}}),ai,ft,function(i,t){return function(e,n,o){var a=e.destination;if(a.channelCount!==n)try{a.channelCount=n}catch(i){}o&&"explicit"!==a.channelCountMode&&(a.channelCountMode="explicit"),0===a.maxChannelCount&&Object.defineProperty(a,"maxChannelCount",{value:n});var r=i(e,{channelCount:n,channelCountMode:a.channelCountMode,channelInterpretation:a.channelInterpretation,gain:1});return t(r,"channelCount",(function(i){return function(){return i.call(r)}}),(function(i){return function(t){i.call(r,t);try{a.channelCount=t}catch(i){if(t>a.maxChannelCount)throw i}}})),t(r,"channelCountMode",(function(i){return function(){return i.call(r)}}),(function(i){return function(t){i.call(r,t),a.channelCountMode=t}})),t(r,"channelInterpretation",(function(i){return function(){return i.call(r)}}),(function(i){return function(t){i.call(r,t),a.channelInterpretation=t}})),Object.defineProperty(r,"maxChannelCount",{get:function(){return a.maxChannelCount}}),r.connect(a),r}}(zt,_n),Pn,qn,jn),ko=function(t,e,n,o,a){return function(){var r=new WeakMap,c=function(){var c=i(K)(i(ti).mark((function c(s,u){var d,m,l;return i(ti).wrap((function(i){for(;;)switch(i.prev=i.next){case 0:if(d=n(s),(m=ni(d,u))||(l={Q:d.Q.value,channelCount:d.channelCount,channelCountMode:d.channelCountMode,channelInterpretation:d.channelInterpretation,detune:d.detune.value,frequency:d.frequency.value,gain:d.gain.value,type:d.type},d=e(u,l)),r.set(u,d),m){i.next=15;break}return i.next=7,o(u,s.Q,d.Q);case 7:return i.next=9,o(u,s.detune,d.detune);case 9:return i.next=11,o(u,s.frequency,d.frequency);case 11:return i.next=13,o(u,s.gain,d.gain);case 13:i.next=23;break;case 15:return i.next=17,t(u,s.Q,d.Q);case 17:return i.next=19,t(u,s.detune,d.detune);case 19:return i.next=21,t(u,s.frequency,d.frequency);case 21:return i.next=23,t(u,s.gain,d.gain);case 23:return i.next=25,a(s,u,d);case 25:return i.abrupt("return",d);case 26:case"end":return i.stop()}}),c)})));return function(i,t){return c.apply(this,arguments)}}();return{render:function(i,t){var e=r.get(t);return void 0!==e?Promise.resolve(e):c(i,t)}}}}(ao,Pt,Li,co,jn),vo=function(i){return function(t,e){return i.set(t,e)}}(On),yo=(_e=uo,Ae=ko,Ce=pt,xe=Pt,be=Pn,De=qn,we=vo,function(t){"use strict";i(L)(n,t);var e=i(Z)(n);function n(t,o){var r;i(a)(this,n);var c=be(t),s=i(z)({},ct,o),u=xe(c,s),d=De(c),m=d?Ae():null;return(r=e.call(this,t,!1,u,m))._Q=_e(i(si)(r),d,u.Q,di,ui),r._detune=_e(i(si)(r),d,u.detune,1200*Math.log2(di),-1200*Math.log2(di)),r._frequency=_e(i(si)(r),d,u.frequency,t.sampleRate/2,0),r._gain=_e(i(si)(r),d,u.gain,40*Math.log10(di),ui),r._nativeBiquadFilterNode=u,we(i(si)(r),1),r}return i(r)(n,[{key:"detune",get:function(){return this._detune}},{key:"frequency",get:function(){return this._frequency}},{key:"gain",get:function(){return this._gain}},{key:"Q",get:function(){return this._Q}},{key:"type",get:function(){return this._nativeBiquadFilterNode.type},set:function(i){this._nativeBiquadFilterNode.type=i}},{key:"getFrequencyResponse",value:function(i,t,e){try{this._nativeBiquadFilterNode.getFrequencyResponse(i,t,e)}catch(i){if(11===i.code)throw Ce();throw i}if(i.length!==t.length||t.length!==e.length)throw Ce()}}]),n}(Hn)),ho=function(i,t){return function(e,n,o){var a,r,c=new Set;return e.connect=(a=e.connect,function(o){var r=arguments.length>1&&void 0!==arguments[1]?arguments[1]:0,s=arguments.length>2&&void 0!==arguments[2]?arguments[2]:0,u=0===c.size;if(t(o))return a.call(e,o,r,s),i(c,[o,r,s],(function(i){return i[0]===o&&i[1]===r&&i[2]===s}),!0),u&&n(),o;a.call(e,o,r),i(c,[o,r],(function(i){return i[0]===o&&i[1]===r}),!0),u&&n()}),e.disconnect=(r=e.disconnect,function(i,n,a){var s=c.size>0;if(void 0===i)r.apply(e),c.clear();else if("number"==typeof i){r.call(e,i);var u=!0,d=!1,m=void 0;try{for(var l,k=c[Symbol.iterator]();!(u=(l=k.next()).done);u=!0){var v=l.value;v[1]===i&&c.delete(v)}}catch(i){d=!0,m=i}finally{try{u||null==k.return||k.return()}finally{if(d)throw m}}}else{t(i)?r.call(e,i,n,a):r.call(e,i,n);var y=!0,h=!1,T=void 0;try{for(var f,p=c[Symbol.iterator]();!(y=(f=p.next()).done);y=!0){var g=f.value;g[0]!==i||void 0!==n&&g[1]!==n||void 0!==a&&g[2]!==a||c.delete(g)}}catch(i){h=!0,T=i}finally{try{y||null==p.return||p.return()}finally{if(h)throw T}}}var _=0===c.size;s&&_&&o()}),e}}(Bi,Yn),To=(Fe=ft,Ee=ho,function(i,t){t.channelCount=1,t.channelCountMode="explicit",Object.defineProperty(t,"channelCount",{get:function(){return 1},set:function(){throw Fe()}}),Object.defineProperty(t,"channelCountMode",{get:function(){return"explicit"},set:function(){throw Fe()}});var e=i.createBufferSource();Ee(t,(function(){for(var i=t.numberOfInputs,n=0;n<i;n+=1)e.connect(t,0,n)}),(function(){return e.disconnect(t)}))}),fo=function(i,t){return function(e,n){var o=e.createChannelMerger(n.numberOfInputs);return null!==i&&"webkitAudioContext"===i.name&&t(e,o),Ft(o,n),o}}(Un,To),po=function(t,e,n){return function(){var o=new WeakMap,a=function(){var a=i(K)(i(ti).mark((function a(r,c){var s,u;return i(ti).wrap((function(i){for(;;)switch(i.prev=i.next){case 0:return s=e(r),ni(s,c)||(u={channelCount:s.channelCount,channelCountMode:s.channelCountMode,channelInterpretation:s.channelInterpretation,numberOfInputs:s.numberOfInputs},s=t(c,u)),o.set(c,s),i.next=6,n(r,c,s);case 6:return i.abrupt("return",s);case 7:case"end":return i.stop()}}),a)})));return function(i,t){return a.apply(this,arguments)}}();return{render:function(i,t){var e=o.get(t);return void 0!==e?Promise.resolve(e):a(i,t)}}}}(fo,Li,jn),go=function(t,e,n,o,r){return function(t){"use strict";i(L)(s,t);var c=i(Z)(s);function s(t,u){i(a)(this,s);var d=o(t),m=i(z)({},st,u),l=n(d,m),k=r(d)?e():null;return c.call(this,t,!1,l,k)}return s}(t)}(Hn,po,fo,Pn,qn),_o=function(t,e,n){return function(){var o=new WeakMap,a=function(){var a=i(K)(i(ti).mark((function a(r,c){var s,u;return i(ti).wrap((function(i){for(;;)switch(i.prev=i.next){case 0:return s=e(r),ni(s,c)||(u={channelCount:s.channelCount,channelCountMode:s.channelCountMode,channelInterpretation:s.channelInterpretation,numberOfOutputs:s.numberOfOutputs},s=t(c,u)),o.set(c,s),i.next=6,n(r,c,s);case 6:return i.abrupt("return",s);case 7:case"end":return i.stop()}}),a)})));return function(i,t){return a.apply(this,arguments)}}();return{render:function(i,t){var e=o.get(t);return void 0!==e?Promise.resolve(e):a(i,t)}}}}(Nt,Li,jn),Ao=function(t,e,n,o,r,c){return function(t){"use strict";i(L)(u,t);var s=i(Z)(u);function u(t,d){i(a)(this,u);var m=o(t),l=c(i(z)({},ut,d)),k=n(m,l),v=r(m)?e():null;return s.call(this,t,!1,k,v)}return u}(t)}(Hn,_o,Nt,Pn,qn,(function(t){return i(z)({},t,{channelCount:t.numberOfOutputs})})),Co=function(t,e,n,o){return function(a,r){var c=r.offset,s=i(qt)(r,["offset"]),u=a.createBuffer(1,2,44100),d=e(a,{buffer:null,channelCount:2,channelCountMode:"max",channelInterpretation:"speakers",loop:!1,loopEnd:0,loopStart:0,playbackRate:1}),m=n(a,i(z)({},s,{gain:c})),l=u.getChannelData(0);l[0]=1,l[1]=1,d.buffer=u,d.loop=!0;var k={get bufferSize(){},get channelCount(){return m.channelCount},set channelCount(i){m.channelCount=i},get channelCountMode(){return m.channelCountMode},set channelCountMode(i){m.channelCountMode=i},get channelInterpretation(){return m.channelInterpretation},set channelInterpretation(i){m.channelInterpretation=i},get context(){return m.context},get inputs(){return[]},get numberOfInputs(){return d.numberOfInputs},get numberOfOutputs(){return m.numberOfOutputs},get offset(){return m.gain},get onended(){return d.onended},set onended(i){d.onended=i},addEventListener:function(){for(var i=arguments.length,t=new Array(i),e=0;e<i;e++)t[e]=arguments[e];return d.addEventListener(t[0],t[1],t[2])},dispatchEvent:function(){for(var i=arguments.length,t=new Array(i),e=0;e<i;e++)t[e]=arguments[e];return d.dispatchEvent(t[0])},removeEventListener:function(){for(var i=arguments.length,t=new Array(i),e=0;e<i;e++)t[e]=arguments[e];return d.removeEventListener(t[0],t[1],t[2])},start:function(){var i=arguments.length>0&&void 0!==arguments[0]?arguments[0]:0;d.start.call(d,i)},stop:function(){var i=arguments.length>0&&void 0!==arguments[0]?arguments[0]:0;d.stop.call(d,i)}};return t(a,d),o(Wt(k,m),(function(){return d.connect(m)}),(function(){return d.disconnect(m)}))}}(no,ro,zt,ho),xo=function(i,t,e,n,o){return function(a,r){if(void 0===a.createConstantSource)return e(a,r);var c=a.createConstantSource();return Ft(c,r),St(c,r,"offset"),t(n,(function(){return n(a)}))||Bt(c),t(o,(function(){return o(a)}))||Mt(c),i(a,c),c}}(no,Mn,Co,Cn,bn),bo=function(t,e,n,o,a){return function(){var r=new WeakMap,c=null,s=null,u=function(){var u=i(K)(i(ti).mark((function u(d,m){var l,k,v;return i(ti).wrap((function(i){for(;;)switch(i.prev=i.next){case 0:if(l=n(d),(k=ni(l,m))||(v={channelCount:l.channelCount,channelCountMode:l.channelCountMode,channelInterpretation:l.channelInterpretation,offset:l.offset.value},l=e(m,v),null!==c&&l.start(c),null!==s&&l.stop(s)),r.set(m,l),k){i.next=9;break}return i.next=7,o(m,d.offset,l.offset);case 7:i.next=11;break;case 9:return i.next=11,t(m,d.offset,l.offset);case 11:return i.next=13,a(d,m,l);case 13:return i.abrupt("return",l);case 14:case"end":return i.stop()}}),u)})));return function(i,t){return u.apply(this,arguments)}}();return{set start(i){c=i},set stop(i){s=i},render:function(i,t){var e=r.get(t);return void 0!==e?Promise.resolve(e):u(i,t)}}}}(ao,xo,Li,co,jn),Do=function(t,e,n,o,c,s,u){return function(t){"use strict";i(L)(m,t);var d=i(Z)(m);function m(t,r){var u;i(a)(this,m);var l=c(t),k=i(z)({},dt,r),v=o(l,k),y=s(l),h=y?n():null;return(u=d.call(this,t,!1,v,h))._constantSourceNodeRenderer=h,u._nativeConstantSourceNode=v,u._offset=e(i(si)(u),y,v.offset,di,ui),u._onended=null,u}return i(r)(m,[{key:"offset",get:function(){return this._offset}},{key:"onended",get:function(){return this._onended},set:function(i){var t="function"==typeof i?u(this,i):null;this._nativeConstantSourceNode.onended=t;var e=this._nativeConstantSourceNode.onended;this._onended=null!==e&&e===t?i:e}},{key:"start",value:function(){var i=arguments.length>0&&void 0!==arguments[0]?arguments[0]:0;if(this._nativeConstantSourceNode.start(i),null!==this._constantSourceNodeRenderer&&(this._constantSourceNodeRenderer.start=i),"closed"!==this.context.state){var t=this;V(this);var e=function(){t._nativeConstantSourceNode.removeEventListener("ended",e),mi(t)&&N(t)};this._nativeConstantSourceNode.addEventListener("ended",e)}}},{key:"stop",value:function(){var i=arguments.length>0&&void 0!==arguments[0]?arguments[0]:0;this._nativeConstantSourceNode.stop(i),null!==this._constantSourceNodeRenderer&&(this._constantSourceNodeRenderer.stop=i)}}]),m}(t)}(Hn,uo,bo,xo,Pn,qn,wn),wo=function(i,t){return function(e,n){var o=e.createConvolver();if(Ft(o,n),n.disableNormalization===o.normalize&&(o.normalize=!n.disableNormalization),wt(o,n,"buffer"),n.channelCount>2)throw i();if(t(o,"channelCount",(function(i){return function(){return i.call(o)}}),(function(t){return function(e){if(e>2)throw i();return t.call(o,e)}})),"max"===n.channelCountMode)throw i();return t(o,"channelCountMode",(function(i){return function(){return i.call(o)}}),(function(t){return function(e){if("max"===e)throw i();return t.call(o,e)}})),o}}(mn,_n),Fo=function(t,e,n){return function(){var o=new WeakMap,a=function(){var a=i(K)(i(ti).mark((function a(r,c){var s,u;return i(ti).wrap((function(i){for(;;)switch(i.prev=i.next){case 0:if(s=e(r),ni(s,c)||(u={buffer:s.buffer,channelCount:s.channelCount,channelCountMode:s.channelCountMode,channelInterpretation:s.channelInterpretation,disableNormalization:!s.normalize},s=t(c,u)),o.set(c,s),!Gi(s)){i.next=9;break}return i.next=7,n(r,c,s.inputs[0]);case 7:i.next=11;break;case 9:return i.next=11,n(r,c,s);case 11:return i.abrupt("return",s);case 12:case"end":return i.stop()}}),a)})));return function(i,t){return a.apply(this,arguments)}}();return{render:function(i,t){var e=o.get(t);return void 0!==e?Promise.resolve(e):a(i,t)}}}}(wo,Li,jn),Eo=function(t,e,n,o,c,s){return function(t){"use strict";i(L)(d,t);var u=i(Z)(d);function d(t,r){var m;i(a)(this,d);var l=o(t),k=i(z)({},mt,r),v=n(l,k),y=c(l)?e():null;return(m=u.call(this,t,!1,v,y))._isBufferNullified=!1,m._nativeConvolverNode=v,null!==k.buffer&&s(i(si)(m),k.buffer.duration),m}return i(r)(d,[{key:"buffer",get:function(){return this._isBufferNullified?null:this._nativeConvolverNode.buffer},set:function(i){if(this._nativeConvolverNode.buffer=i,null===i&&null!==this._nativeConvolverNode.buffer){var t=this._nativeConvolverNode.context;this._nativeConvolverNode.buffer=t.createBuffer(1,1,44100),this._isBufferNullified=!0,s(this,0)}else this._isBufferNullified=!1,s(this,null===this._nativeConvolverNode.buffer?0:this._nativeConvolverNode.buffer.duration)}},{key:"normalize",get:function(){return this._nativeConvolverNode.normalize},set:function(i){this._nativeConvolverNode.normalize=i}}]),d}(t)}(Hn,Fo,wo,Pn,qn,vo),So=function(t,e,n,o,a){return function(r){var c=new WeakMap,s=function(){var s=i(K)(i(ti).mark((function s(u,d){var m,l,k;return i(ti).wrap((function(i){for(;;)switch(i.prev=i.next){case 0:if(m=n(u),(l=ni(m,d))||(k={channelCount:m.channelCount,channelCountMode:m.channelCountMode,channelInterpretation:m.channelInterpretation,delayTime:m.delayTime.value,maxDelayTime:r},m=e(d,k)),c.set(d,m),l){i.next=9;break}return i.next=7,o(d,u.delayTime,m.delayTime);case 7:i.next=11;break;case 9:return i.next=11,t(d,u.delayTime,m.delayTime);case 11:return i.next=13,a(u,d,m);case 13:return i.abrupt("return",m);case 14:case"end":return i.stop()}}),s)})));return function(i,t){return s.apply(this,arguments)}}();return{render:function(i,t){var e=c.get(t);return void 0!==e?Promise.resolve(e):s(i,t)}}}}(ao,Ut,Li,co,jn),Oo=function(t,e,n,o,c,s,u){return function(t){"use strict";i(L)(m,t);var d=i(Z)(m);function m(t,r){var l;i(a)(this,m);var k=c(t),v=i(z)({},kt,r),y=o(k,v),h=s(k),T=h?n(v.maxDelayTime):null;return(l=d.call(this,t,!1,y,T))._delayTime=e(i(si)(l),h,y.delayTime),u(i(si)(l),v.maxDelayTime),l}return i(r)(m,[{key:"delayTime",get:function(){return this._delayTime}}]),m}(t)}(Hn,uo,So,Ut,Pn,qn,vo),Bo=(Se=mn,function(i,t){var e=i.createDynamicsCompressor();if(Ft(e,t),t.channelCount>2)throw Se();if("max"===t.channelCountMode)throw Se();return St(e,t,"attack"),St(e,t,"knee"),St(e,t,"ratio"),St(e,t,"release"),St(e,t,"threshold"),e}),Mo=function(t,e,n,o,a){return function(){var r=new WeakMap,c=function(){var c=i(K)(i(ti).mark((function c(s,u){var d,m,l;return i(ti).wrap((function(i){for(;;)switch(i.prev=i.next){case 0:if(d=n(s),(m=ni(d,u))||(l={attack:d.attack.value,channelCount:d.channelCount,channelCountMode:d.channelCountMode,channelInterpretation:d.channelInterpretation,knee:d.knee.value,ratio:d.ratio.value,release:d.release.value,threshold:d.threshold.value},d=e(u,l)),r.set(u,d),m){i.next=17;break}return i.next=7,o(u,s.attack,d.attack);case 7:return i.next=9,o(u,s.knee,d.knee);case 9:return i.next=11,o(u,s.ratio,d.ratio);case 11:return i.next=13,o(u,s.release,d.release);case 13:return i.next=15,o(u,s.threshold,d.threshold);case 15:i.next=27;break;case 17:return i.next=19,t(u,s.attack,d.attack);case 19:return i.next=21,t(u,s.knee,d.knee);case 21:return i.next=23,t(u,s.ratio,d.ratio);case 23:return i.next=25,t(u,s.release,d.release);case 25:return i.next=27,t(u,s.threshold,d.threshold);case 27:return i.next=29,a(s,u,d);case 29:return i.abrupt("return",d);case 30:case"end":return i.stop()}}),c)})));return function(i,t){return c.apply(this,arguments)}}();return{render:function(i,t){var e=r.get(t);return void 0!==e?Promise.resolve(e):c(i,t)}}}}(ao,Bo,Li,co,jn),Io=function(t,e,n,o,c,s,u,d){return function(t){"use strict";i(L)(l,t);var m=i(Z)(l);function l(t,r){var c;i(a)(this,l);var k=s(t),v=i(z)({},ht,r),y=o(k,v),h=u(k),T=h?n():null;return(c=m.call(this,t,!1,y,T))._attack=e(i(si)(c),h,y.attack),c._knee=e(i(si)(c),h,y.knee),c._nativeDynamicsCompressorNode=y,c._ratio=e(i(si)(c),h,y.ratio),c._release=e(i(si)(c),h,y.release),c._threshold=e(i(si)(c),h,y.threshold),d(i(si)(c),.006),c}return i(r)(l,[{key:"attack",get:function(){return this._attack}},{key:"channelCount",get:function(){return this._nativeDynamicsCompressorNode.channelCount},set:function(i){var t=this._nativeDynamicsCompressorNode.channelCount;if(this._nativeDynamicsCompressorNode.channelCount=i,i>2)throw this._nativeDynamicsCompressorNode.channelCount=t,c()}},{key:"channelCountMode",get:function(){return this._nativeDynamicsCompressorNode.channelCountMode},set:function(i){var t=this._nativeDynamicsCompressorNode.channelCountMode;if(this._nativeDynamicsCompressorNode.channelCountMode=i,"max"===i)throw this._nativeDynamicsCompressorNode.channelCountMode=t,c()}},{key:"knee",get:function(){return this._knee}},{key:"ratio",get:function(){return this._ratio}},{key:"reduction",get:function(){return"number"==typeof this._nativeDynamicsCompressorNode.reduction.value?this._nativeDynamicsCompressorNode.reduction.value:this._nativeDynamicsCompressorNode.reduction}},{key:"release",get:function(){return this._release}},{key:"threshold",get:function(){return this._threshold}}]),l}(t)}(Hn,uo,Mo,Bo,mn,Pn,qn,vo),Go=function(t,e,n,o,a){return function(){var r=new WeakMap,c=function(){var c=i(K)(i(ti).mark((function c(s,u){var d,m,l;return i(ti).wrap((function(i){for(;;)switch(i.prev=i.next){case 0:if(d=n(s),(m=ni(d,u))||(l={channelCount:d.channelCount,channelCountMode:d.channelCountMode,channelInterpretation:d.channelInterpretation,gain:d.gain.value},d=e(u,l)),r.set(u,d),m){i.next=9;break}return i.next=7,o(u,s.gain,d.gain);case 7:i.next=11;break;case 9:return i.next=11,t(u,s.gain,d.gain);case 11:return i.next=13,a(s,u,d);case 13:return i.abrupt("return",d);case 14:case"end":return i.stop()}}),c)})));return function(i,t){return c.apply(this,arguments)}}();return{render:function(i,t){var e=r.get(t);return void 0!==e?Promise.resolve(e):c(i,t)}}}}(ao,zt,Li,co,jn),Ro=function(t,e,n,o,c,s){return function(t){"use strict";i(L)(d,t);var u=i(Z)(d);function d(t,r){var m;i(a)(this,d);var l=c(t),k=i(z)({},Tt,r),v=o(l,k),y=s(l),h=y?n():null;return(m=u.call(this,t,!1,v,h))._gain=e(i(si)(m),y,v.gain,di,ui),m}return i(r)(d,[{key:"gain",get:function(){return this._gain}}]),d}(t)}(Hn,uo,Go,zt,Pn,qn),jo=function(i,t,e,n){return function(o,a,r){var c=r.channelCount,s=r.channelCountMode,u=r.channelInterpretation,d=r.feedback,m=r.feedforward,l=Gt(a,o.sampleRate),k=d instanceof Float64Array?d:new Float64Array(d),v=m instanceof Float64Array?m:new Float64Array(m),y=k.length,h=v.length,T=Math.min(y,h);if(0===y||y>20)throw n();if(0===k[0])throw t();if(0===h||h>20)throw n();if(0===v[0])throw t();if(1!==k[0]){for(var f=0;f<h;f+=1)v[f]/=k[0];for(var p=1;p<y;p+=1)k[p]/=k[0]}var g=e(o,l,c,c);g.channelCount=c,g.channelCountMode=s,g.channelInterpretation=u;for(var _=[],A=[],C=[],x=0;x<c;x+=1){_.push(0);var b=new Float32Array(32),D=new Float32Array(32);b.fill(0),D.fill(0),A.push(b),C.push(D)}g.onaudioprocess=function(i){for(var t=i.inputBuffer,e=i.outputBuffer,n=t.numberOfChannels,o=0;o<n;o+=1){var a=t.getChannelData(o),r=e.getChannelData(o);_[o]=At(k,y,v,h,T,A[o],C[o],_[o],32,a,r)}};var w=o.sampleRate/2,F={get bufferSize(){return l},get channelCount(){return g.channelCount},set channelCount(i){g.channelCount=i},get channelCountMode(){return g.channelCountMode},set channelCountMode(i){g.channelCountMode=i},get channelInterpretation(){return g.channelInterpretation},set channelInterpretation(i){g.channelInterpretation=i},get context(){return g.context},get inputs(){return[g]},get numberOfInputs(){return g.numberOfInputs},get numberOfOutputs(){return g.numberOfOutputs},addEventListener:function(){for(var i=arguments.length,t=new Array(i),e=0;e<i;e++)t[e]=arguments[e];return g.addEventListener(t[0],t[1],t[2])},dispatchEvent:function(){for(var i=arguments.length,t=new Array(i),e=0;e<i;e++)t[e]=arguments[e];return g.dispatchEvent(t[0])},getFrequencyResponse:function(t,e,n){if(t.length!==e.length||e.length!==n.length)throw i();for(var o=t.length,a=0;a<o;a+=1){var r=-Math.PI*(t[a]/w),c=[Math.cos(r),Math.sin(r)],s=Yt(Zt(v,c),Zt(k,c));e[a]=Math.sqrt(s[0]*s[0]+s[1]*s[1]),n[a]=Math.atan2(s[1],s[0])}},removeEventListener:function(){for(var i=arguments.length,t=new Array(i),e=0;e<i;e++)t[e]=arguments[e];return g.removeEventListener(t[0],t[1],t[2])}};return Wt(F,g)}}(pt,ft,dn,mn),Vo=function(i,t,e,n){return function(o){return i(bt,(function(){return bt(o)}))?Promise.resolve(i(n,n)).then((function(i){if(!i){var t=e(o,512,0,1);o.oncomplete=function(){t.onaudioprocess=null,t.disconnect()},t.onaudioprocess=function(){return o.currentTime},t.connect(o.destination)}return o.startRendering()})):new Promise((function(i){var e=t(o,{channelCount:1,channelCountMode:"explicit",channelInterpretation:"discrete",gain:0});o.oncomplete=function(t){e.disconnect(),i(t.renderedBuffer)},e.connect(o.destination),o.startRendering()}))}}(Mn,zt,dn,function(i,t){return function(){if(null===t)return Promise.resolve(!1);var e=new t(1,1,44100),n=i(e,{channelCount:1,channelCountMode:"explicit",channelInterpretation:"discrete",gain:0});return new Promise((function(i){e.oncomplete=function(){n.disconnect(),i(0!==e.currentTime)},e.startRendering()}))}}(zt,Nn)),Po=function(t,e,n,o,a){return function(r,c){var s=new WeakMap,u=null,d=function(){var d=i(K)(i(ti).mark((function d(m,l){var k,v,y,h,T;return i(ti).wrap((function(d){for(;;)switch(d.prev=d.next){case 0:if(k=null,v=e(m),y=ni(v,l),void 0===l.createIIRFilter?k=t(l,{buffer:null,channelCount:2,channelCountMode:"max",channelInterpretation:"speakers",loop:!1,loopEnd:0,loopStart:0,playbackRate:1}):y||(v=l.createIIRFilter(c,r)),s.set(l,null===k?v:k),null===k){d.next=17;break}if(null!==u){d.next=11;break}if(null!==n){d.next=9;break}throw new Error("Missing the native OfflineAudioContext constructor.");case 9:h=new n(m.context.destination.channelCount,m.context.length,l.sampleRate),u=i(K)(i(ti).mark((function t(){var e;return i(ti).wrap((function(i){for(;;)switch(i.prev=i.next){case 0:return i.next=2,o(m,h,h.destination);case 2:return i.next=4,a(h);case 4:return e=i.sent,i.abrupt("return",Ct(e,l,r,c));case 6:case"end":return i.stop()}}),t)})))();case 11:return d.next=13,u;case 13:return T=d.sent,k.buffer=T,k.start(0),d.abrupt("return",k);case 17:return d.next=19,o(m,l,v);case 19:return d.abrupt("return",v);case 20:case"end":return d.stop()}}),d)})));return function(i,t){return d.apply(this,arguments)}}();return{render:function(i,t){var e=s.get(t);return void 0!==e?Promise.resolve(e):d(i,t)}}}}(ro,Li,Nn,jn,Vo),No=function(t,e,n,o,c,s){return function(t){"use strict";i(L)(d,t);var u=i(Z)(d);function d(t,r){var m;i(a)(this,d);var l=o(t),k=c(l),v=i(z)({},_t,r),y=e(l,k?null:t.baseLatency,v),h=k?n(v.feedback,v.feedforward):null;return m=u.call(this,t,!1,y,h),gt(y),m._nativeIIRFilterNode=y,s(i(si)(m),1),m}return i(r)(d,[{key:"getFrequencyResponse",value:function(i,t,e){return this._nativeIIRFilterNode.getFrequencyResponse(i,t,e)}}]),d}(t)}(Hn,(Oe=jo,function(i,t,e){if(void 0===i.createIIRFilter)return Oe(i,t,e);var n=i.createIIRFilter(e.feedforward,e.feedback);return Ft(n,e),n}),Po,Pn,qn,vo),qo=function(t,e,n,o,a,r,c,s){return function(u,d){var m,l,k,v,y,h,T,f,p,g,_=d.listener,A=void 0===_.forwardX?(m=new Float32Array(1),l=e(d,{channelCount:1,channelCountMode:"explicit",channelInterpretation:"speakers",numberOfInputs:9}),k=c(d),v=!1,y=[0,0,-1,0,1,0],h=[0,0,0],T=function(){if(!v){v=!0;var t=o(d,256,9,0);t.onaudioprocess=function(t){var e,n=t.inputBuffer,o=[r(n,m,0),r(n,m,1),r(n,m,2),r(n,m,3),r(n,m,4),r(n,m,5)];o.some((function(i,t){return i!==y[t]}))&&((e=_).setOrientation.apply(e,i(ki)(o)),y=o);var a,c=[r(n,m,6),r(n,m,7),r(n,m,8)];c.some((function(i,t){return i!==h[t]}))&&((a=_).setPosition.apply(a,i(ki)(c)),h=c)},l.connect(t)}},p=function(t){return function(e){var n;e!==h[t]&&(h[t]=e,(n=_).setPosition.apply(n,i(ki)(h)))}},g=function(i,e,o){var r=n(d,{channelCount:1,channelCountMode:"explicit",channelInterpretation:"discrete",offset:e});r.connect(l,0,i),r.start(),Object.defineProperty(r.offset,"defaultValue",{get:function(){return e}});var c,m,v,y,h,f,p,g=t({context:u},k,r.offset,di,ui);return s(g,"value",(function(i){return function(){return i.call(g)}}),(function(i){return function(t){try{i.call(g,t)}catch(i){if(9!==i.code)throw i}T(),k&&o(t)}})),g.cancelAndHoldAtTime=(c=g.cancelAndHoldAtTime,k?function(){throw a()}:function(){for(var i=arguments.length,t=new Array(i),e=0;e<i;e++)t[e]=arguments[e];var n=c.apply(g,t);return T(),n}),g.cancelScheduledValues=(m=g.cancelScheduledValues,k?function(){throw a()}:function(){for(var i=arguments.length,t=new Array(i),e=0;e<i;e++)t[e]=arguments[e];var n=m.apply(g,t);return T(),n}),g.exponentialRampToValueAtTime=(v=g.exponentialRampToValueAtTime,k?function(){throw a()}:function(){for(var i=arguments.length,t=new Array(i),e=0;e<i;e++)t[e]=arguments[e];var n=v.apply(g,t);return T(),n}),g.linearRampToValueAtTime=(y=g.linearRampToValueAtTime,k?function(){throw a()}:function(){for(var i=arguments.length,t=new Array(i),e=0;e<i;e++)t[e]=arguments[e];var n=y.apply(g,t);return T(),n}),g.setTargetAtTime=(h=g.setTargetAtTime,k?function(){throw a()}:function(){for(var i=arguments.length,t=new Array(i),e=0;e<i;e++)t[e]=arguments[e];var n=h.apply(g,t);return T(),n}),g.setValueAtTime=(f=g.setValueAtTime,k?function(){throw a()}:function(){for(var i=arguments.length,t=new Array(i),e=0;e<i;e++)t[e]=arguments[e];var n=f.apply(g,t);return T(),n}),g.setValueCurveAtTime=(p=g.setValueCurveAtTime,k?function(){throw a()}:function(){for(var i=arguments.length,t=new Array(i),e=0;e<i;e++)t[e]=arguments[e];var n=p.apply(g,t);return T(),n}),g},{forwardX:g(0,0,(f=function(t){return function(e){var n;e!==y[t]&&(y[t]=e,(n=_).setOrientation.apply(n,i(ki)(y)))}})(0)),forwardY:g(1,0,f(1)),forwardZ:g(2,-1,f(2)),positionX:g(6,0,p(0)),positionY:g(7,0,p(1)),positionZ:g(8,0,p(2)),upX:g(3,0,f(3)),upY:g(4,1,f(4)),upZ:g(5,0,f(5))}):_,C=A.forwardX,x=A.forwardY,b=A.forwardZ,D=A.positionX,w=A.positionY,F=A.positionZ,E=A.upX,S=A.upY,O=A.upZ;return{get forwardX(){return C},get forwardY(){return x},get forwardZ(){return b},get positionX(){return D},get positionY(){return w},get positionZ(){return F},get upX(){return E},get upY(){return S},get upZ(){return O}}}}(uo,fo,xo,dn,mn,pn,qn,_n),Lo=new WeakMap,Wo=function(t,e,n,o,c,s){return function(n){"use strict";i(L)(d,n);var u=i(Z)(d);function d(n,r){var s;return i(a)(this,d),(s=u.call(this,n))._nativeContext=n,C.set(i(si)(s),n),o(n)&&c.set(n,new Set),s._destination=new t(i(si)(s),r),s._listener=e(i(si)(s),n),s._onstatechange=null,s}return i(r)(d,[{key:"currentTime",get:function(){return this._nativeContext.currentTime}},{key:"destination",get:function(){return this._destination}},{key:"listener",get:function(){return this._listener}},{key:"onstatechange",get:function(){return this._onstatechange},set:function(i){var t="function"==typeof i?s(this,i):null;this._nativeContext.onstatechange=t;var e=this._nativeContext.onstatechange;this._onstatechange=null!==e&&e===t?i:e}},{key:"sampleRate",get:function(){return this._nativeContext.sampleRate}},{key:"state",get:function(){return this._nativeContext.state}}]),d}(n)}(lo,qo,Wn,qn,Lo,wn),Uo=function(i,t,e,n,o,a){return function(r,c){var s=r.createOscillator();return Ft(s,c),St(s,c,"detune"),St(s,c,"frequency"),void 0!==c.periodicWave?s.setPeriodicWave(c.periodicWave):wt(s,c,"type"),t(e,(function(){return e(r)}))||Bt(s),t(n,(function(){return n(r)}))||a(s,r),t(o,(function(){return o(r)}))||Mt(s),i(r,s),s}}(no,Mn,Cn,xn,bn,Dn),zo=function(t,e,n,o,a){return function(){var r=new WeakMap,c=null,s=null,u=null,d=function(){var d=i(K)(i(ti).mark((function d(m,l){var k,v,y;return i(ti).wrap((function(i){for(;;)switch(i.prev=i.next){case 0:if(k=n(m),(v=ni(k,l))||(y={channelCount:k.channelCount,channelCountMode:k.channelCountMode,channelInterpretation:k.channelInterpretation,detune:k.detune.value,frequency:k.frequency.value,periodicWave:null===c?void 0:c,type:k.type},k=e(l,y),null!==s&&k.start(s),null!==u&&k.stop(u)),r.set(l,k),v){i.next=11;break}return i.next=7,o(l,m.detune,k.detune);case 7:return i.next=9,o(l,m.frequency,k.frequency);case 9:i.next=15;break;case 11:return i.next=13,t(l,m.detune,k.detune);case 13:return i.next=15,t(l,m.frequency,k.frequency);case 15:return i.next=17,a(m,l,k);case 17:return i.abrupt("return",k);case 18:case"end":return i.stop()}}),d)})));return function(i,t){return d.apply(this,arguments)}}();return{set periodicWave(i){c=i},set start(i){s=i},set stop(i){u=i},render:function(i,t){var e=r.get(t);return void 0!==e?Promise.resolve(e):d(i,t)}}}}(ao,Uo,Li,co,jn),Yo=function(t,e,n,o,c,s,u){return function(t){"use strict";i(L)(m,t);var d=i(Z)(m);function m(t,r){var u;i(a)(this,m);var l=c(t),k=i(z)({},kn,r),v=n(l,k),y=s(l),h=y?o():null,T=t.sampleRate/2;return(u=d.call(this,t,!1,v,h))._detune=e(i(si)(u),y,v.detune,153600,-153600),u._frequency=e(i(si)(u),y,v.frequency,T,-T),u._nativeOscillatorNode=v,u._onended=null,u._oscillatorNodeRenderer=h,null!==u._oscillatorNodeRenderer&&void 0!==k.periodicWave&&(u._oscillatorNodeRenderer.periodicWave=k.periodicWave),u}return i(r)(m,[{key:"detune",get:function(){return this._detune}},{key:"frequency",get:function(){return this._frequency}},{key:"onended",get:function(){return this._onended},set:function(i){var t="function"==typeof i?u(this,i):null;this._nativeOscillatorNode.onended=t;var e=this._nativeOscillatorNode.onended;this._onended=null!==e&&e===t?i:e}},{key:"type",get:function(){return this._nativeOscillatorNode.type},set:function(i){this._nativeOscillatorNode.type=i,null!==this._oscillatorNodeRenderer&&(this._oscillatorNodeRenderer.periodicWave=null)}},{key:"setPeriodicWave",value:function(i){this._nativeOscillatorNode.setPeriodicWave(i),null!==this._oscillatorNodeRenderer&&(this._oscillatorNodeRenderer.periodicWave=i)}},{key:"start",value:function(){var i=arguments.length>0&&void 0!==arguments[0]?arguments[0]:0;if(this._nativeOscillatorNode.start(i),null!==this._oscillatorNodeRenderer&&(this._oscillatorNodeRenderer.start=i),"closed"!==this.context.state){var t=this;V(this);var e=function(){t._nativeOscillatorNode.removeEventListener("ended",e),mi(t)&&N(t)};this._nativeOscillatorNode.addEventListener("ended",e)}}},{key:"stop",value:function(){var i=arguments.length>0&&void 0!==arguments[0]?arguments[0]:0;this._nativeOscillatorNode.stop(i),null!==this._oscillatorNodeRenderer&&(this._oscillatorNodeRenderer.stop=i)}}]),m}(t)}(Hn,uo,Uo,zo,Pn,qn,wn),Zo=(Be=ro,function(i,t){var e=Be(i,{buffer:null,channelCount:2,channelCountMode:"max",channelInterpretation:"speakers",loop:!1,loopEnd:0,loopStart:0,playbackRate:1}),n=i.createBuffer(1,2,44100);return e.buffer=n,e.loop=!0,e.connect(t),e.start(),function(){e.stop(),e.disconnect(t)}}),Xo=function(t,e,n,o,a){return function(r,c){var s=c.curve,u=c.oversample,d=i(qt)(c,["curve","oversample"]),m=r.createWaveShaper(),l=r.createWaveShaper();Ft(m,d),Ft(l,d);var k=n(r,i(z)({},d,{gain:1})),v=n(r,i(z)({},d,{gain:-1})),y=n(r,i(z)({},d,{gain:1})),h=n(r,i(z)({},d,{gain:-1})),T=null,f=!1,p=null,g={get bufferSize(){},get channelCount(){return m.channelCount},set channelCount(i){k.channelCount=i,v.channelCount=i,m.channelCount=i,y.channelCount=i,l.channelCount=i,h.channelCount=i},get channelCountMode(){return m.channelCountMode},set channelCountMode(i){k.channelCountMode=i,v.channelCountMode=i,m.channelCountMode=i,y.channelCountMode=i,l.channelCountMode=i,h.channelCountMode=i},get channelInterpretation(){return m.channelInterpretation},set channelInterpretation(i){k.channelInterpretation=i,v.channelInterpretation=i,m.channelInterpretation=i,y.channelInterpretation=i,l.channelInterpretation=i,h.channelInterpretation=i},get context(){return m.context},get curve(){return p},set curve(i){if(null!==i&&i.length<2)throw e();if(null===i)m.curve=i,l.curve=i;else{var n=i.length,a=new Float32Array(n+2-n%2),c=new Float32Array(n+2-n%2);a[0]=i[0],c[0]=-i[n-1];for(var s=Math.ceil((n+1)/2),u=(n+1)/2-1,d=1;d<s;d+=1){var v=d/s*u,y=Math.floor(v),h=Math.ceil(v);a[d]=y===h?i[y]:(1-(v-y))*i[y]+(1-(h-v))*i[h],c[d]=y===h?-i[n-1-y]:-(1-(v-y))*i[n-1-y]-(1-(h-v))*i[n-1-h]}a[s]=n%2==1?i[s-1]:(i[s-2]+i[s-1])/2,m.curve=a,l.curve=c}p=i,f&&(o(p)&&null===T?T=t(r,k):null!==T&&(T(),T=null))},get inputs(){return[k]},get numberOfInputs(){return m.numberOfInputs},get numberOfOutputs(){return m.numberOfOutputs},get oversample(){return m.oversample},set oversample(i){m.oversample=i,l.oversample=i},addEventListener:function(){for(var i=arguments.length,t=new Array(i),e=0;e<i;e++)t[e]=arguments[e];return k.addEventListener(t[0],t[1],t[2])},dispatchEvent:function(){for(var i=arguments.length,t=new Array(i),e=0;e<i;e++)t[e]=arguments[e];return k.dispatchEvent(t[0])},removeEventListener:function(){for(var i=arguments.length,t=new Array(i),e=0;e<i;e++)t[e]=arguments[e];return k.removeEventListener(t[0],t[1],t[2])}};null!==s&&(g.curve=s instanceof Float32Array?s:new Float32Array(s)),u!==g.oversample&&(g.oversample=u);return a(Wt(g,y),(function(){k.connect(m).connect(y),k.connect(v).connect(l).connect(h).connect(y),f=!0,o(p)&&(T=t(r,k))}),(function(){k.disconnect(m),m.disconnect(y),k.disconnect(v),v.disconnect(l),l.disconnect(h),h.disconnect(y),f=!1,null!==T&&(T(),T=null)}))}}(Zo,ft,zt,gn,ho),Ho=function(i,t,e,n,o,a,r){return function(c,s){var u=c.createWaveShaper();if(null!==a&&"webkitAudioContext"===a.name&&void 0===c.createGain().gain.automationRate)return e(c,s);Ft(u,s);var d=null===s.curve||s.curve instanceof Float32Array?s.curve:new Float32Array(s.curve);if(null!==d&&d.length<2)throw t();wt(u,{curve:d},"curve"),wt(u,s,"oversample");var m=null,l=!1;r(u,"curve",(function(i){return function(){return i.call(u)}}),(function(t){return function(e){return t.call(u,e),l&&(n(e)&&null===m?m=i(c,u):n(e)||null===m||(m(),m=null)),e}}));return o(u,(function(){l=!0,n(u.curve)&&(m=i(c,u))}),(function(){l=!1,null!==m&&(m(),m=null)}))}}(Zo,ft,Xo,gn,ho,Un,_n),Qo=function(t,e,n,o,a,r,c,s,u,d){return function(m,l){var k,v,y=l.coneInnerAngle,h=l.coneOuterAngle,T=l.coneOuterGain,f=l.distanceModel,p=l.maxDistance,g=l.orientationX,_=l.orientationY,A=l.orientationZ,C=l.panningModel,x=l.positionX,b=l.positionY,D=l.positionZ,w=l.refDistance,F=l.rolloffFactor,E=i(qt)(l,["coneInnerAngle","coneOuterAngle","coneOuterGain","distanceModel","maxDistance","orientationX","orientationY","orientationZ","panningModel","positionX","positionY","positionZ","refDistance","rolloffFactor"]),S=m.createPanner();if(E.channelCount>2)throw c();if("max"===E.channelCountMode)throw c();Ft(S,E);var O={channelCount:1,channelCountMode:"explicit",channelInterpretation:"discrete"},B=n(m,i(z)({},O,{channelInterpretation:"speakers",numberOfInputs:6})),M=o(m,i(z)({},E,{gain:1})),I=o(m,i(z)({},O,{gain:1})),G=o(m,i(z)({},O,{gain:0})),R=o(m,i(z)({},O,{gain:0})),j=o(m,i(z)({},O,{gain:0})),V=o(m,i(z)({},O,{gain:0})),P=o(m,i(z)({},O,{gain:0})),N=a(m,256,6,1),q=r(m,i(z)({},O,{curve:new Float32Array([1,1]),oversample:"none"})),L=[g,_,A],W=[x,b,D],U=new Float32Array(1);N.onaudioprocess=function(t){var e,n=t.inputBuffer,o=[u(n,U,0),u(n,U,1),u(n,U,2)];o.some((function(i,t){return i!==L[t]}))&&((e=S).setOrientation.apply(e,i(ki)(o)),L=o);var a,r=[u(n,U,3),u(n,U,4),u(n,U,5)];r.some((function(i,t){return i!==W[t]}))&&((a=S).setPosition.apply(a,i(ki)(r)),W=r)},Object.defineProperty(G.gain,"defaultValue",{get:function(){return 0}}),Object.defineProperty(R.gain,"defaultValue",{get:function(){return 0}}),Object.defineProperty(j.gain,"defaultValue",{get:function(){return 0}}),Object.defineProperty(V.gain,"defaultValue",{get:function(){return 0}}),Object.defineProperty(P.gain,"defaultValue",{get:function(){return 0}});var Y={get bufferSize(){},get channelCount(){return S.channelCount},set channelCount(i){if(i>2)throw c();M.channelCount=i,S.channelCount=i},get channelCountMode(){return S.channelCountMode},set channelCountMode(i){if("max"===i)throw c();M.channelCountMode=i,S.channelCountMode=i},get channelInterpretation(){return S.channelInterpretation},set channelInterpretation(i){M.channelInterpretation=i,S.channelInterpretation=i},get coneInnerAngle(){return S.coneInnerAngle},set coneInnerAngle(i){S.coneInnerAngle=i},get coneOuterAngle(){return S.coneOuterAngle},set coneOuterAngle(i){S.coneOuterAngle=i},get coneOuterGain(){return S.coneOuterGain},set coneOuterGain(i){if(i<0||i>1)throw e();S.coneOuterGain=i},get context(){return S.context},get distanceModel(){return S.distanceModel},set distanceModel(i){S.distanceModel=i},get inputs(){return[M]},get maxDistance(){return S.maxDistance},set maxDistance(i){if(i<0)throw new RangeError;S.maxDistance=i},get numberOfInputs(){return S.numberOfInputs},get numberOfOutputs(){return S.numberOfOutputs},get orientationX(){return I.gain},get orientationY(){return G.gain},get orientationZ(){return R.gain},get panningModel(){return S.panningModel},set panningModel(i){S.panningModel=i},get positionX(){return j.gain},get positionY(){return V.gain},get positionZ(){return P.gain},get refDistance(){return S.refDistance},set refDistance(i){if(i<0)throw new RangeError;S.refDistance=i},get rolloffFactor(){return S.rolloffFactor},set rolloffFactor(i){if(i<0)throw new RangeError;S.rolloffFactor=i},addEventListener:function(){for(var i=arguments.length,t=new Array(i),e=0;e<i;e++)t[e]=arguments[e];return M.addEventListener(t[0],t[1],t[2])},dispatchEvent:function(){for(var i=arguments.length,t=new Array(i),e=0;e<i;e++)t[e]=arguments[e];return M.dispatchEvent(t[0])},removeEventListener:function(){for(var i=arguments.length,t=new Array(i),e=0;e<i;e++)t[e]=arguments[e];return M.removeEventListener(t[0],t[1],t[2])}};y!==Y.coneInnerAngle&&(Y.coneInnerAngle=y),h!==Y.coneOuterAngle&&(Y.coneOuterAngle=h),T!==Y.coneOuterGain&&(Y.coneOuterGain=T),f!==Y.distanceModel&&(Y.distanceModel=f),p!==Y.maxDistance&&(Y.maxDistance=p),g!==Y.orientationX.value&&(Y.orientationX.value=g),_!==Y.orientationY.value&&(Y.orientationY.value=_),A!==Y.orientationZ.value&&(Y.orientationZ.value=A),C!==Y.panningModel&&(Y.panningModel=C),x!==Y.positionX.value&&(Y.positionX.value=x),b!==Y.positionY.value&&(Y.positionY.value=b),D!==Y.positionZ.value&&(Y.positionZ.value=D),w!==Y.refDistance&&(Y.refDistance=w),F!==Y.rolloffFactor&&(Y.rolloffFactor=F),1===L[0]&&0===L[1]&&0===L[2]||(k=S).setOrientation.apply(k,i(ki)(L)),0===W[0]&&0===W[1]&&0===W[2]||(v=S).setPosition.apply(v,i(ki)(W));return d(Wt(Y,S),(function(){M.connect(S),t(M,q,0,0),q.connect(I).connect(B,0,0),q.connect(G).connect(B,0,1),q.connect(R).connect(B,0,2),q.connect(j).connect(B,0,3),q.connect(V).connect(B,0,4),q.connect(P).connect(B,0,5),B.connect(N).connect(m.destination)}),(function(){M.disconnect(S),s(M,q,0,0),q.disconnect(I),I.disconnect(B),q.disconnect(G),G.disconnect(B),q.disconnect(R),R.disconnect(B),q.disconnect(j),j.disconnect(B),q.disconnect(V),V.disconnect(B),q.disconnect(P),P.disconnect(B),B.disconnect(N),N.disconnect(m.destination)}))}}(Ri,ft,fo,zt,dn,Ho,mn,qi,pn,ho),$o=(Me=Qo,function(i,t){var e=i.createPanner();return void 0===e.orientationX?Me(i,t):(Ft(e,t),St(e,t,"orientationX"),St(e,t,"orientationY"),St(e,t,"orientationZ"),St(e,t,"positionX"),St(e,t,"positionY"),St(e,t,"positionZ"),wt(e,t,"coneInnerAngle"),wt(e,t,"coneOuterAngle"),wt(e,t,"coneOuterGain"),wt(e,t,"distanceModel"),wt(e,t,"maxDistance"),wt(e,t,"panningModel"),wt(e,t,"refDistance"),wt(e,t,"rolloffFactor"),e)}),Jo=function(t,e,n,o,a,r,c,s,u,d){return function(){var m,l=new WeakMap,k=null,v=(m=i(K)(i(ti).mark((function m(v,y){var h,T,f,p,g,_,A,C,x,b,D,w,F,E,S,O,B,M,I,G;return i(ti).wrap((function(m){for(;;)switch(m.prev=m.next){case 0:if(h=null,T=r(v),f={channelCount:T.channelCount,channelCountMode:T.channelCountMode,channelInterpretation:T.channelInterpretation},p=i(z)({},f,{coneInnerAngle:T.coneInnerAngle,coneOuterAngle:T.coneOuterAngle,coneOuterGain:T.coneOuterGain,distanceModel:T.distanceModel,maxDistance:T.maxDistance,panningModel:T.panningModel,refDistance:T.refDistance,rolloffFactor:T.rolloffFactor}),g=ni(T,y),"bufferSize"in T?h=o(y,i(z)({},f,{gain:1})):g||(_=i(z)({},p,{orientationX:T.orientationX.value,orientationY:T.orientationY.value,orientationZ:T.orientationZ.value,positionX:T.positionX.value,positionY:T.positionY.value,positionZ:T.positionZ.value}),T=a(y,_)),l.set(y,null===h?T:h),null===h){m.next=31;break}if(null!==k){m.next=15;break}if(null!==c){m.next=11;break}throw new Error("Missing the native OfflineAudioContext constructor.");case 11:A=new c(6,v.context.length,y.sampleRate),(C=e(A,{channelCount:1,channelCountMode:"explicit",channelInterpretation:"speakers",numberOfInputs:6})).connect(A.destination),k=i(K)(i(ti).mark((function t(){var e,o;return i(ti).wrap((function(t){for(;;)switch(t.prev=t.next){case 0:return t.next=2,Promise.all([v.orientationX,v.orientationY,v.orientationZ,v.positionX,v.positionY,v.positionZ].map(function(){var t=i(K)(i(ti).mark((function t(e,o){var a;return i(ti).wrap((function(i){for(;;)switch(i.prev=i.next){case 0:return a=n(A,{channelCount:1,channelCountMode:"explicit",channelInterpretation:"discrete",offset:0===o?1:0}),i.next=3,s(A,e,a.offset);case 3:return i.abrupt("return",a);case 4:case"end":return i.stop()}}),t)})));return function(i,e){return t.apply(this,arguments)}}()));case 2:for(e=t.sent,o=0;o<6;o+=1)e[o].connect(C,0,o),e[o].start(0);return t.abrupt("return",d(A));case 5:case"end":return t.stop()}}),t)})))();case 15:return m.next=17,k;case 17:return x=m.sent,b=o(y,i(z)({},f,{gain:1})),m.next=21,u(v,y,b);case 21:for(D=[],w=0;w<x.numberOfChannels;w+=1)D.push(x.getChannelData(w));for(F=[D[0][0],D[1][0],D[2][0]],E=[D[3][0],D[4][0],D[5][0]],S=o(y,i(z)({},f,{gain:1})),O=a(y,i(z)({},p,{orientationX:F[0],orientationY:F[1],orientationZ:F[2],positionX:E[0],positionY:E[1],positionZ:E[2]})),b.connect(S).connect(O.inputs[0]),O.connect(h),B=128;B<x.length;B+=128)M=[D[0][B],D[1][B],D[2][B]],I=[D[3][B],D[4][B],D[5][B]],(M.some((function(i,t){return i!==F[t]}))||I.some((function(i,t){return i!==E[t]})))&&(F=M,E=I,G=B/y.sampleRate,S.gain.setValueAtTime(0,G),S=o(y,i(z)({},f,{gain:0})),O=a(y,i(z)({},p,{orientationX:F[0],orientationY:F[1],orientationZ:F[2],positionX:E[0],positionY:E[1],positionZ:E[2]})),S.gain.setValueAtTime(1,G),b.connect(S).connect(O.inputs[0]),O.connect(h));return m.abrupt("return",h);case 31:if(g){m.next=46;break}return m.next=34,s(y,v.orientationX,T.orientationX);case 34:return m.next=36,s(y,v.orientationY,T.orientationY);case 36:return m.next=38,s(y,v.orientationZ,T.orientationZ);case 38:return m.next=40,s(y,v.positionX,T.positionX);case 40:return m.next=42,s(y,v.positionY,T.positionY);case 42:return m.next=44,s(y,v.positionZ,T.positionZ);case 44:m.next=58;break;case 46:return m.next=48,t(y,v.orientationX,T.orientationX);case 48:return m.next=50,t(y,v.orientationY,T.orientationY);case 50:return m.next=52,t(y,v.orientationZ,T.orientationZ);case 52:return m.next=54,t(y,v.positionX,T.positionX);case 54:return m.next=56,t(y,v.positionY,T.positionY);case 56:return m.next=58,t(y,v.positionZ,T.positionZ);case 58:if(!Gi(T)){m.next=63;break}return m.next=61,u(v,y,T.inputs[0]);case 61:m.next=65;break;case 63:return m.next=65,u(v,y,T);case 65:return m.abrupt("return",T);case 66:case"end":return m.stop()}}),m)}))),function(i,t){return m.apply(this,arguments)});return{render:function(i,t){var e=l.get(t);return void 0!==e?Promise.resolve(e):v(i,t)}}}}(ao,fo,xo,zt,$o,Li,Nn,co,jn,Vo),Ko=function(t,e,n,o,c,s,u){return function(t){"use strict";i(L)(m,t);var d=i(Z)(m);function m(t,r){var l;i(a)(this,m);var k=c(t),v=i(z)({},vn,r),y=n(k,v),h=s(k),T=h?o():null;return(l=d.call(this,t,!1,y,T))._nativePannerNode=y,l._orientationX=e(i(si)(l),h,y.orientationX,di,ui),l._orientationY=e(i(si)(l),h,y.orientationY,di,ui),l._orientationZ=e(i(si)(l),h,y.orientationZ,di,ui),l._positionX=e(i(si)(l),h,y.positionX,di,ui),l._positionY=e(i(si)(l),h,y.positionY,di,ui),l._positionZ=e(i(si)(l),h,y.positionZ,di,ui),u(i(si)(l),1),l}return i(r)(m,[{key:"coneInnerAngle",get:function(){return this._nativePannerNode.coneInnerAngle},set:function(i){this._nativePannerNode.coneInnerAngle=i}},{key:"coneOuterAngle",get:function(){return this._nativePannerNode.coneOuterAngle},set:function(i){this._nativePannerNode.coneOuterAngle=i}},{key:"coneOuterGain",get:function(){return this._nativePannerNode.coneOuterGain},set:function(i){this._nativePannerNode.coneOuterGain=i}},{key:"distanceModel",get:function(){return this._nativePannerNode.distanceModel},set:function(i){this._nativePannerNode.distanceModel=i}},{key:"maxDistance",get:function(){return this._nativePannerNode.maxDistance},set:function(i){this._nativePannerNode.maxDistance=i}},{key:"orientationX",get:function(){return this._orientationX}},{key:"orientationY",get:function(){return this._orientationY}},{key:"orientationZ",get:function(){return this._orientationZ}},{key:"panningModel",get:function(){return this._nativePannerNode.panningModel},set:function(i){this._nativePannerNode.panningModel=i}},{key:"positionX",get:function(){return this._positionX}},{key:"positionY",get:function(){return this._positionY}},{key:"positionZ",get:function(){return this._positionZ}},{key:"refDistance",get:function(){return this._nativePannerNode.refDistance},set:function(i){this._nativePannerNode.refDistance=i}},{key:"rolloffFactor",get:function(){return this._nativePannerNode.rolloffFactor},set:function(i){this._nativePannerNode.rolloffFactor=i}}]),m}(t)}(Hn,uo,$o,Jo,Pn,qn,vo),ia=function(i){return function(t,e){var n=e.disableNormalization,o=e.imag,a=e.real,r=o instanceof Float32Array?o:new Float32Array(o),c=a instanceof Float32Array?a:new Float32Array(a),s=t.createPeriodicWave(c,r,{disableNormalization:n});if(Array.from(o).length<2)throw i();return s}}(ai),ta=function(t,e,n,o){var c;return c=Symbol.hasInstance,function(){"use strict";function s(r,c){i(a)(this,s);var u=e(r),d=o(i(z)({},yn,c)),m=t(u,d);return n.add(m),m}return i(r)(s,null,[{key:c,value:function(i){return null!==i&&"object"==typeof i&&Object.getPrototypeOf(i)===s.prototype||n.has(i)}}]),s}()}(ia,Pn,new WeakSet,(function(t){var e=t.imag,n=t.real;return i(z)({},t,void 0===e?void 0===n?{imag:[0,0],real:[0,0]}:{imag:Array.from(n,(function(){return 0})),real:n}:void 0===n?{imag:e,real:Array.from(e,(function(){return 0}))}:{imag:e,real:n})})),ea=function(t,e,n,o,a,r){var c=16385,s=new Float32Array([1,1]),u=Math.PI/2,d={channelCount:1,channelCountMode:"explicit",channelInterpretation:"discrete"},m=i(z)({},d,{oversample:"none"}),l=function(t,r,l,k,v){if(1===r)return function(t,e,a,r){for(var l=new Float32Array(c),k=new Float32Array(c),v=0;v<c;v+=1){var y=v/16384*u;l[v]=Math.cos(y),k[v]=Math.sin(y)}var h=n(t,i(z)({},d,{gain:0})),T=o(t,i(z)({},m,{curve:l})),f=o(t,i(z)({},m,{curve:s})),p=n(t,i(z)({},d,{gain:0})),g=o(t,i(z)({},m,{curve:k}));return{connectGraph:function(){e.connect(h),e.connect(void 0===f.inputs?f:f.inputs[0]),e.connect(p),f.connect(a),a.connect(void 0===T.inputs?T:T.inputs[0]),a.connect(void 0===g.inputs?g:g.inputs[0]),T.connect(h.gain),g.connect(p.gain),h.connect(r,0,0),p.connect(r,0,1)},disconnectGraph:function(){e.disconnect(h),e.disconnect(void 0===f.inputs?f:f.inputs[0]),e.disconnect(p),f.disconnect(a),a.disconnect(void 0===T.inputs?T:T.inputs[0]),a.disconnect(void 0===g.inputs?g:g.inputs[0]),T.disconnect(h.gain),g.disconnect(p.gain),h.disconnect(r,0,0),p.disconnect(r,0,1)}}}(t,l,k,v);if(2===r)return function(t,a,r,l){for(var k=new Float32Array(c),v=new Float32Array(c),y=new Float32Array(c),h=new Float32Array(c),T=Math.floor(8192.5),f=0;f<c;f+=1)if(f>T){var p=(f-T)/(16384-T)*u;k[f]=Math.cos(p),v[f]=Math.sin(p),y[f]=0,h[f]=1}else{var g=f/(16384-T)*u;k[f]=1,v[f]=0,y[f]=Math.cos(g),h[f]=Math.sin(g)}var _=e(t,{channelCount:2,channelCountMode:"explicit",channelInterpretation:"discrete",numberOfOutputs:2}),A=n(t,i(z)({},d,{gain:0})),C=o(t,i(z)({},m,{curve:k})),x=n(t,i(z)({},d,{gain:0})),b=o(t,i(z)({},m,{curve:v})),D=o(t,i(z)({},m,{curve:s})),w=n(t,i(z)({},d,{gain:0})),F=o(t,i(z)({},m,{curve:y})),E=n(t,i(z)({},d,{gain:0})),S=o(t,i(z)({},m,{curve:h}));return{connectGraph:function(){a.connect(_),a.connect(void 0===D.inputs?D:D.inputs[0]),_.connect(A,0),_.connect(x,0),_.connect(w,1),_.connect(E,1),D.connect(r),r.connect(void 0===C.inputs?C:C.inputs[0]),r.connect(void 0===b.inputs?b:b.inputs[0]),r.connect(void 0===F.inputs?F:F.inputs[0]),r.connect(void 0===S.inputs?S:S.inputs[0]),C.connect(A.gain),b.connect(x.gain),F.connect(w.gain),S.connect(E.gain),A.connect(l,0,0),w.connect(l,0,0),x.connect(l,0,1),E.connect(l,0,1)},disconnectGraph:function(){a.disconnect(_),a.disconnect(void 0===D.inputs?D:D.inputs[0]),_.disconnect(A,0),_.disconnect(x,0),_.disconnect(w,1),_.disconnect(E,1),D.disconnect(r),r.disconnect(void 0===C.inputs?C:C.inputs[0]),r.disconnect(void 0===b.inputs?b:b.inputs[0]),r.disconnect(void 0===F.inputs?F:F.inputs[0]),r.disconnect(void 0===S.inputs?S:S.inputs[0]),C.disconnect(A.gain),b.disconnect(x.gain),F.disconnect(w.gain),S.disconnect(E.gain),A.disconnect(l,0,0),w.disconnect(l,0,0),x.disconnect(l,0,1),E.disconnect(l,0,1)}}}(t,l,k,v);throw a()};return function(e,o){var c=o.channelCount,s=o.channelCountMode,u=o.pan,d=i(qt)(o,["channelCount","channelCountMode","pan"]);if("max"===s)throw a();var m=t(e,i(z)({},d,{channelCount:1,channelCountMode:s,numberOfInputs:2})),k=n(e,i(z)({},d,{channelCount:c,channelCountMode:s,gain:1})),v=n(e,{channelCount:1,channelCountMode:"explicit",channelInterpretation:"discrete",gain:u}),y=l(e,c,k,v,m),h=y.connectGraph,T=y.disconnectGraph;Object.defineProperty(v.gain,"defaultValue",{get:function(){return 0}}),Object.defineProperty(v.gain,"maxValue",{get:function(){return 1}}),Object.defineProperty(v.gain,"minValue",{get:function(){return-1}});var f={get bufferSize(){},get channelCount(){return k.channelCount},set channelCount(i){var t;k.channelCount!==i&&(p&&T(),t=l(e,i,k,v,m),h=t.connectGraph,T=t.disconnectGraph,p&&h());k.channelCount=i},get channelCountMode(){return k.channelCountMode},set channelCountMode(i){if("clamped-max"===i||"max"===i)throw a();k.channelCountMode=i},get channelInterpretation(){return k.channelInterpretation},set channelInterpretation(i){k.channelInterpretation=i},get context(){return k.context},get inputs(){return[k]},get numberOfInputs(){return k.numberOfInputs},get numberOfOutputs(){return k.numberOfOutputs},get pan(){return v.gain},addEventListener:function(){for(var i=arguments.length,t=new Array(i),e=0;e<i;e++)t[e]=arguments[e];return k.addEventListener(t[0],t[1],t[2])},dispatchEvent:function(){for(var i=arguments.length,t=new Array(i),e=0;e<i;e++)t[e]=arguments[e];return k.dispatchEvent(t[0])},removeEventListener:function(){for(var i=arguments.length,t=new Array(i),e=0;e<i;e++)t[e]=arguments[e];return k.removeEventListener(t[0],t[1],t[2])}},p=!1;return r(Wt(f,m),(function(){h(),p=!0}),(function(){T(),p=!1}))}}(fo,Nt,zt,Ho,mn,ho),na=function(i,t){return function(e,n){var o=n.channelCountMode;if("clamped-max"===o)throw t();if(void 0===e.createStereoPanner)return i(e,n);var a=e.createStereoPanner();return Ft(a,n),St(a,n,"pan"),Object.defineProperty(a,"channelCountMode",{get:function(){return o},set:function(i){if(i!==o)throw t()}}),a}}(ea,mn),oa=function(t,e,n,o,a){return function(){var r=new WeakMap,c=function(){var c=i(K)(i(ti).mark((function c(s,u){var d,m,l;return i(ti).wrap((function(i){for(;;)switch(i.prev=i.next){case 0:if(d=n(s),(m=ni(d,u))||(l={channelCount:d.channelCount,channelCountMode:d.channelCountMode,channelInterpretation:d.channelInterpretation,pan:d.pan.value},d=e(u,l)),r.set(u,d),m){i.next=9;break}return i.next=7,o(u,s.pan,d.pan);case 7:i.next=11;break;case 9:return i.next=11,t(u,s.pan,d.pan);case 11:if(!Gi(d)){i.next=16;break}return i.next=14,a(s,u,d.inputs[0]);case 14:i.next=18;break;case 16:return i.next=18,a(s,u,d);case 18:return i.abrupt("return",d);case 19:case"end":return i.stop()}}),c)})));return function(i,t){return c.apply(this,arguments)}}();return{render:function(i,t){var e=r.get(t);return void 0!==e?Promise.resolve(e):c(i,t)}}}}(ao,na,Li,co,jn),aa=function(t,e,n,o,c,s){return function(t){"use strict";i(L)(d,t);var u=i(Z)(d);function d(t,r){var m;i(a)(this,d);var l=c(t),k=i(z)({},hn,r),v=n(l,k),y=s(l),h=y?o():null;return(m=u.call(this,t,!1,v,h))._pan=e(i(si)(m),y,v.pan),m}return i(r)(d,[{key:"pan",get:function(){return this._pan}}]),d}(t)}(Hn,uo,na,oa,Pn,qn),ra=function(t,e,n){return function(){var o=new WeakMap,a=function(){var a=i(K)(i(ti).mark((function a(r,c){var s,u;return i(ti).wrap((function(i){for(;;)switch(i.prev=i.next){case 0:if(s=e(r),ni(s,c)||(u={channelCount:s.channelCount,channelCountMode:s.channelCountMode,channelInterpretation:s.channelInterpretation,curve:s.curve,oversample:s.oversample},s=t(c,u)),o.set(c,s),!Gi(s)){i.next=9;break}return i.next=7,n(r,c,s.inputs[0]);case 7:i.next=11;break;case 9:return i.next=11,n(r,c,s);case 11:return i.abrupt("return",s);case 12:case"end":return i.stop()}}),a)})));return function(i,t){return a.apply(this,arguments)}}();return{render:function(i,t){var e=o.get(t);return void 0!==e?Promise.resolve(e):a(i,t)}}}}(Ho,Li,jn),ca=function(t,e,n,o,c,s,u){return function(t){"use strict";i(L)(m,t);var d=i(Z)(m);function m(t,e){var r;i(a)(this,m);var l=c(t),k=i(z)({},fn,e),v=n(l,k),y=s(l)?o():null;return(r=d.call(this,t,!0,v,y))._isCurveNullified=!1,r._nativeWaveShaperNode=v,u(i(si)(r),1),r}return i(r)(m,[{key:"curve",get:function(){return this._isCurveNullified?null:this._nativeWaveShaperNode.curve},set:function(i){if(null===i)this._isCurveNullified=!0,this._nativeWaveShaperNode.curve=new Float32Array([0,0]);else{if(i.length<2)throw e();this._isCurveNullified=!1,this._nativeWaveShaperNode.curve=i}}},{key:"oversample",get:function(){return this._nativeWaveShaperNode.oversample},set:function(i){this._nativeWaveShaperNode.oversample=i}}]),m}(t)}(Hn,ft,Ho,ra,Pn,qn,vo),sa=function(i){return null!==i&&i.isSecureContext}(In),ua=function(i){return function(t,e,n){Object.defineProperties(i,{currentFrame:{configurable:!0,get:function(){return Math.round(t*e)}},currentTime:{configurable:!0,get:function(){return t}}});try{return n()}finally{null!==i&&(delete i.currentFrame,delete i.currentTime)}}}(In),da=new WeakMap,ma=function(i,t){return function(e){var n=i.get(e);if(void 0!==n)return n;if(null===t)throw new Error("Missing the native OfflineAudioContext constructor.");return n=new t(1,1,44100),i.set(e,n),n}}(da,Nn),la=sa?function(t,e,n,o,r,c,s,u,d,m,k,v,y){var h=0;return function(T,f){var p=arguments.length>2&&void 0!==arguments[2]?arguments[2]:{credentials:"omit"},g=k.get(T);if(void 0!==g&&g.has(f))return Promise.resolve();var _=m.get(T);if(void 0!==_){var A=_.get(f);if(void 0!==A)return A}var C=c(T),x=void 0===C.audioWorklet?r(f).then((function(t){var e=i(l)(t,2),o=e[0],a=e[1],r=i(l)(O(o,a),2),c=r[0],s=r[1],u="".concat(c,";((a,b)=>{(a[b]=a[b]||[]).push((AudioWorkletProcessor,global,registerProcessor,sampleRate,self,window)=>{").concat(s,"\n})})(window,'_AWGS')");return n(u)})).then((function(){var t=y._AWGS.pop();if(void 0===t)throw new SyntaxError;o(C.currentTime,C.sampleRate,(function(){return t((function t(){"use strict";i(a)(this,t)}),void 0,(function(i,t){if(""===i.trim())throw e();var n=D.get(C);if(void 0!==n){if(n.has(i))throw e();M(t),B(t.parameterDescriptors),n.set(i,t)}else M(t),B(t.parameterDescriptors),D.set(C,new Map([[i,t]]))}),C.sampleRate,void 0,void 0)}))})):Promise.all([r(f),Promise.resolve(t(v,v))]).then((function(t){var e=i(l)(t,2),n=i(l)(e[0],2),o=n[0],a=n[1],r=e[1],c=h+1;h=c;var m=i(l)(O(o,a),2),k=m[0],v=m[1],y=r?"AudioWorkletProcessor":"class extends AudioWorkletProcessor {__b=new WeakSet();constructor(){super();(p=>p.postMessage=(q=>(m,t)=>q.call(p,m,t?t.filter(u=>!this.__b.has(u)):t))(p.postMessage))(this.port)}}",T=r?"":"__c = (a) => a.forEach(e=>this.__b.add(e.buffer));",f=r?"":"i.forEach(this.__c);o.forEach(this.__c);this.__c(Object.values(p));",g="".concat(k,";((AudioWorkletProcessor,registerProcessor)=>{").concat(v,"\n})(").concat(y,",(n,p)=>registerProcessor(n,class extends p{").concat(T,"process(i,o,p){").concat(f,"return super.process(i.map(j=>j.some(k=>k.length===0)?[]:j),o,p)}}));registerProcessor('__sac").concat(c,"',class extends AudioWorkletProcessor{process(){return !1}})"),_=new Blob([g],{type:"application/javascript; charset=utf-8"}),A=URL.createObjectURL(_);return C.audioWorklet.addModule(A,p).then((function(){if(u(C))return C;var i=s(C);return i.audioWorklet.addModule(A,p).then((function(){return i}))})).then((function(i){if(null===d)throw new SyntaxError;try{new d(i,"__sac".concat(c))}catch(i){throw new SyntaxError}})).finally((function(){return URL.revokeObjectURL(A)}))}));return void 0===_?m.set(T,new Map([[f,x]])):_.set(f,x),x.then((function(){var i=k.get(T);void 0===i?k.set(T,new Set([f])):i.add(f)})).finally((function(){var i=m.get(T);void 0!==i&&i.delete(f)})),x}}(Mn,mn,function(i){return function(t){return new Promise((function(e,n){if(null!==i){var o=i.document.head;if(null===o)n(new SyntaxError);else{var a=i.document.createElement("script"),r=new Blob([t],{type:"application/javascript"}),c=URL.createObjectURL(r),s=i.onerror,u=function(){i.onerror=s,URL.revokeObjectURL(c)};i.onerror=function(t,e,o,a,r){return e===c||e===i.location.href&&1===o&&1===a?(u(),n(r),!1):null!==s?s(t,e,o,a,r):void 0},a.onerror=function(){u(),n(new SyntaxError)},a.onload=function(){u(),e()},a.src=c,a.type="module",o.appendChild(a)}}else n(new SyntaxError)}))}}(In),ua,(Ie=function(){return new DOMException("","AbortError")},function(){var t=i(K)(i(ti).mark((function t(e){var n;return i(ti).wrap((function(i){for(;;)switch(i.prev=i.next){case 0:return i.prev=0,i.next=3,fetch(e);case 3:if(!(n=i.sent).ok){i.next=10;break}return i.next=7,n.text();case 7:return i.t0=i.sent,i.t1=n.url,i.abrupt("return",[i.t0,i.t1]);case 10:i.next=14;break;case 12:i.prev=12,i.t2=i.catch(0);case 14:throw Ie();case 15:case"end":return i.stop()}}),t,null,[[0,12]])})));return function(i){return t.apply(this,arguments)}}()),Pn,ma,qn,Xn,new WeakMap,new WeakMap,function(t,e){return i(K)(i(ti).mark((function n(){var o,a,r,c,s,u,d;return i(ti).wrap((function(i){for(;;)switch(i.prev=i.next){case 0:if(null!==t){i.next=2;break}return i.abrupt("return",!0);case 2:if(null!==e){i.next=4;break}return i.abrupt("return",!1);case 4:return o=new Blob(['class A extends AudioWorkletProcessor{process(i){this.port.postMessage(i,[i[0][0].buffer])}}registerProcessor("a",A)'],{type:"application/javascript; charset=utf-8"}),a=new e(1,128,44100),r=URL.createObjectURL(o),c=!1,s=!1,i.prev=9,i.next=12,a.audioWorklet.addModule(r);case 12:return u=new t(a,"a",{numberOfOutputs:0}),d=a.createOscillator(),u.port.onmessage=function(){return c=!0},u.onprocessorerror=function(){return s=!0},d.connect(u),d.start(0),i.next=20,a.startRendering();case 20:i.next=24;break;case 22:i.prev=22,i.t0=i.catch(9);case 24:return i.prev=24,URL.revokeObjectURL(r),i.finish(24);case 27:return i.abrupt("return",c&&!s);case 28:case"end":return i.stop()}}),n,null,[[9,22,24,27]])})))}(Xn,Nn),In):void 0,ka=function(i,t){return function(e){return i(e)||t(e)}}(zn,qn),va=function(t,e,n,o,a,r,c,s,u,d,m){return function(l,k){var v=c(l)?l:r(l);if(a.has(k)){var y=n();return Promise.reject(y)}try{a.add(k)}catch(i){}return e(u,(function(){return u(v)}))?v.decodeAudioData(k).then((function(i){return lt(k).catch((function(){})),e(s,(function(){return s(i)}))||m(i),t.add(i),i})):new Promise((function(e,n){var a=function(){var t=i(K)(i(ti).mark((function t(){return i(ti).wrap((function(i){for(;;)switch(i.prev=i.next){case 0:return i.prev=0,i.next=3,lt(k);case 3:i.next=7;break;case 5:i.prev=5,i.t0=i.catch(0);case 7:case"end":return i.stop()}}),t,null,[[0,5]])})));return function(){return t.apply(this,arguments)}}(),r=function(i){n(i),a()};try{v.decodeAudioData(k,(function(i){"function"!=typeof i.copyFromChannel&&(d(i),ri(i)),t.add(i),a().then((function(){return e(i)}))}),(function(i){r(null===i?o():i)}))}catch(i){r(i)}}))}}($n,Mn,(function(){return new DOMException("","DataCloneError")}),(function(){return new DOMException("","EncodingError")}),new WeakSet,Pn,ka,oi,bt,io,to),ya=(Ge=la,Re=Qn,je=eo,Ve=mo,Pe=yo,Ne=go,qe=Ao,Le=Do,We=Eo,Ue=va,ze=Oo,Ye=Io,Ze=Ro,Xe=No,He=Yo,Qe=Ko,$e=ta,Je=aa,Ke=ca,function(t){"use strict";i(L)(n,t);var e=i(Z)(n);function n(t,o){var r;return i(a)(this,n),(r=e.call(this,t,o))._nativeContext=t,r._audioWorklet=void 0===Ge?void 0:{addModule:function(t,e){return Ge(i(si)(r),t,e)}},r}return i(r)(n,[{key:"audioWorklet",get:function(){return this._audioWorklet}},{key:"createAnalyser",value:function(){return new Re(this)}},{key:"createBiquadFilter",value:function(){return new Pe(this)}},{key:"createBuffer",value:function(i,t,e){return new je({length:t,numberOfChannels:i,sampleRate:e})}},{key:"createBufferSource",value:function(){return new Ve(this)}},{key:"createChannelMerger",value:function(){var i=arguments.length>0&&void 0!==arguments[0]?arguments[0]:6;return new Ne(this,{numberOfInputs:i})}},{key:"createChannelSplitter",value:function(){var i=arguments.length>0&&void 0!==arguments[0]?arguments[0]:6;return new qe(this,{numberOfOutputs:i})}},{key:"createConstantSource",value:function(){return new Le(this)}},{key:"createConvolver",value:function(){return new We(this)}},{key:"createDelay",value:function(){var i=arguments.length>0&&void 0!==arguments[0]?arguments[0]:1;return new ze(this,{maxDelayTime:i})}},{key:"createDynamicsCompressor",value:function(){return new Ye(this)}},{key:"createGain",value:function(){return new Ze(this)}},{key:"createIIRFilter",value:function(i,t){return new Xe(this,{feedback:t,feedforward:i})}},{key:"createOscillator",value:function(){return new He(this)}},{key:"createPanner",value:function(){return new Qe(this)}},{key:"createPeriodicWave",value:function(t,e){var n=arguments.length>2&&void 0!==arguments[2]?arguments[2]:{disableNormalization:!1};return new $e(this,i(z)({},n,{imag:e,real:t}))}},{key:"createStereoPanner",value:function(){return new Je(this)}},{key:"createWaveShaper",value:function(){return new Ke(this)}},{key:"decodeAudioData",value:function(i,t,e){return Ue(this._nativeContext,i).then((function(i){return"function"==typeof t&&t(i),i}),(function(i){throw"function"==typeof e&&e(i),i}))}}]),n}(Wo)),ha=function(t,e,n,o){return function(t){"use strict";i(L)(s,t);var c=i(Z)(s);function s(t,r){var u;i(a)(this,s);var d=n(t),m=e(d,r);if(o(d))throw TypeError();return(u=c.call(this,t,!0,m,null))._nativeMediaElementAudioSourceNode=m,u}return i(r)(s,[{key:"mediaElement",get:function(){return this._nativeMediaElementAudioSourceNode.mediaElement}}]),s}(t)}(Hn,(function(i,t){return i.createMediaElementSource(t.mediaElement)}),Pn,qn),Ta=function(t,e,n,o){return function(t){"use strict";i(L)(s,t);var c=i(Z)(s);function s(t,r){var u;i(a)(this,s);var d=n(t);if(o(d))throw new TypeError;var m=i(z)({},xt,r),l=e(d,m);return(u=c.call(this,t,!1,l,null))._nativeMediaStreamAudioDestinationNode=l,u}return i(r)(s,[{key:"stream",get:function(){return this._nativeMediaStreamAudioDestinationNode.stream}}]),s}(t)}(Hn,(function(i,t){var e=i.createMediaStreamDestination();return Ft(e,t),1===e.numberOfOutputs&&Object.defineProperty(e,"numberOfOutputs",{get:function(){return 0}}),e}),Pn,qn),fa=function(t,e,n,o){return function(t){"use strict";i(L)(s,t);var c=i(Z)(s);function s(t,r){var u;i(a)(this,s);var d=n(t),m=e(d,r);if(o(d))throw new TypeError;return(u=c.call(this,t,!0,m,null))._nativeMediaStreamAudioSourceNode=m,u}return i(r)(s,[{key:"mediaStream",get:function(){return this._nativeMediaStreamAudioSourceNode.mediaStream}}]),s}(t)}(Hn,(function(i,t){var e=t.mediaStream,n=e.getAudioTracks();n.sort((function(i,t){return i.id<t.id?-1:i.id>t.id?1:0}));var o=n.slice(0,1),a=i.createMediaStreamSource(new MediaStream(o));return Object.defineProperty(a,"mediaStream",{value:e}),a}),Pn,qn),pa=function(i,t){return function(e,n){var o=n.mediaStreamTrack;if("function"==typeof e.createMediaStreamTrackSource)return e.createMediaStreamTrackSource(o);var a=new MediaStream([o]),r=e.createMediaStreamSource(a);if("audio"!==o.kind)throw i();if(t(e))throw new TypeError;return r}}(ft,qn),ga=function(t,e,n){return function(t){"use strict";i(L)(r,t);var o=i(Z)(r);function r(t,c){i(a)(this,r);var s=n(t),u=e(s,c);return o.call(this,t,!0,u,null)}return r}(t)}(Hn,pa,Pn),_a=function(t,e,n,o,c,s,u,d,m){return function(t){"use strict";i(L)(k,t);var l=i(Z)(k);function k(){var t,e,r=arguments.length>0&&void 0!==arguments[0]?arguments[0]:{};if(i(a)(this,k),null===m)throw new Error("Missing the native AudioContext constructor.");try{e=new m(r)}catch(i){if(12===i.code&&"sampleRate is not in range"===i.message)throw n();throw i}if(null===e)throw o();if(!Ei(r.latencyHint))throw new TypeError("The provided value '".concat(r.latencyHint,"' is not a valid enum value of type AudioContextLatencyCategory."));if(void 0!==r.sampleRate&&e.sampleRate!==r.sampleRate)throw n();t=l.call(this,e,2);var c=r.latencyHint,s=e.sampleRate;if(t._baseLatency="number"==typeof e.baseLatency?e.baseLatency:"balanced"===c?512/s:"interactive"===c||void 0===c?256/s:"playback"===c?1024/s:128*Math.max(2,Math.min(128,Math.round(c*s/128)))/s,t._nativeAudioContext=e,"webkitAudioContext"===m.name?(t._nativeGainNode=e.createGain(),t._nativeOscillatorNode=e.createOscillator(),t._nativeGainNode.gain.value=1e-37,t._nativeOscillatorNode.connect(t._nativeGainNode).connect(e.destination),t._nativeOscillatorNode.start()):(t._nativeGainNode=null,t._nativeOscillatorNode=null),t._state=null,"running"===e.state){t._state="suspended";var u=function(){"suspended"===t._state&&(t._state=null),e.removeEventListener("statechange",u)};e.addEventListener("statechange",u)}return t}return i(r)(k,[{key:"baseLatency",get:function(){return this._baseLatency}},{key:"state",get:function(){return null!==this._state?this._state:this._nativeAudioContext.state}},{key:"close",value:function(){var i=this;return"closed"===this.state?this._nativeAudioContext.close().then((function(){throw e()})):("suspended"===this._state&&(this._state=null),this._nativeAudioContext.close().then((function(){null!==i._nativeGainNode&&null!==i._nativeOscillatorNode&&(i._nativeOscillatorNode.stop(),i._nativeGainNode.disconnect(),i._nativeOscillatorNode.disconnect()),Fi(i)})))}},{key:"createMediaElementSource",value:function(i){return new c(this,{mediaElement:i})}},{key:"createMediaStreamDestination",value:function(){return new s(this)}},{key:"createMediaStreamSource",value:function(i){return new u(this,{mediaStream:i})}},{key:"createMediaStreamTrackSource",value:function(i){return new d(this,{mediaStreamTrack:i})}},{key:"resume",value:function(){var i=this;return"suspended"===this._state?new Promise((function(t,e){var n=i,o=function(){n._nativeAudioContext.removeEventListener("statechange",o),"running"===n._nativeAudioContext.state?t():n.resume().then(t,e)};i._nativeAudioContext.addEventListener("statechange",o)})):this._nativeAudioContext.resume().catch((function(i){if(void 0===i||15===i.code)throw e();throw i}))}},{key:"suspend",value:function(){return this._nativeAudioContext.suspend().catch((function(i){if(void 0===i)throw e();throw i}))}}]),k}(t)}(ya,ft,mn,Tn,ha,Ta,fa,ga,Un),Aa=(tn=Lo,function(i){var t=tn.get(i);if(void 0===t)throw new Error("The context has no set of AudioWorkletNodes.");return t}),Ca=(en=Aa,function(i,t){en(i).add(t)}),xa=function(i){return function(t,e){var n=arguments.length>2&&void 0!==arguments[2]?arguments[2]:0,o=arguments.length>3&&void 0!==arguments[3]?arguments[3]:0,a=t[n];if(void 0===a)throw i();return Xi(e)?a.connect(e,0,o):a.connect(e,0)}}(ai),ba=function(i){return function(t,e){i(t).delete(e)}}(Aa),Da=function(i){return function(t,e,n){var o=arguments.length>3&&void 0!==arguments[3]?arguments[3]:0;return void 0===e?t.forEach((function(i){return i.disconnect()})):"number"==typeof e?yt(i,t,e).disconnect():Xi(e)?void 0===n?t.forEach((function(i){return i.disconnect(e)})):void 0===o?yt(i,t,n).disconnect(e,0):yt(i,t,n).disconnect(e,0,o):void 0===n?t.forEach((function(i){return i.disconnect(e)})):yt(i,t,n).disconnect(e,0)}}(ai),wa=new WeakMap,Fa=(nn=wa,on=I,function(i){return on(nn,i)}),Ea=function(t,e,n,o,a,r,c,s,d,m,l,k,v){return function(y,h,T,f){if(0===f.numberOfInputs&&0===f.numberOfOutputs)throw d();var p=Array.isArray(f.outputChannelCount)?f.outputChannelCount:Array.from(f.outputChannelCount);if(p.some((function(i){return i<1})))throw d();if(p.length!==f.numberOfOutputs)throw e();if("explicit"!==f.channelCountMode)throw d();var g=f.channelCount*f.numberOfInputs,_=p.reduce((function(i,t){return i+t}),0),A=void 0===T.parameterDescriptors?0:T.parameterDescriptors.length;if(g+A>6||_>6)throw d();for(var C=new MessageChannel,x=[],b=[],D=0;D<f.numberOfInputs;D+=1)x.push(c(y,{channelCount:f.channelCount,channelCountMode:f.channelCountMode,channelInterpretation:f.channelInterpretation,gain:1})),b.push(a(y,{channelCount:f.channelCount,channelCountMode:"explicit",channelInterpretation:"discrete",numberOfOutputs:f.channelCount}));var w=[],F=!0,E=!1,S=void 0;if(void 0!==T.parameterDescriptors)try{for(var O,B=function(i,t){var e=t.value,n=e.defaultValue,o=e.maxValue,a=e.minValue,c=e.name,s=r(y,{channelCount:1,channelCountMode:"explicit",channelInterpretation:"discrete",offset:void 0!==f.parameterData[c]?f.parameterData[c]:void 0===n?0:n});Object.defineProperties(s.offset,{defaultValue:{get:function(){return void 0===n?0:n}},maxValue:{get:function(){return void 0===o?di:o}},minValue:{get:function(){return void 0===a?ui:a}}}),w.push(s)},M=T.parameterDescriptors[Symbol.iterator]();!(F=(O=M.next()).done);F=!0)B(0,O)}catch(i){E=!0,S=i}finally{try{F||null==M.return||M.return()}finally{if(E)throw S}}for(var I=o(y,{channelCount:1,channelCountMode:"explicit",channelInterpretation:"speakers",numberOfInputs:Math.max(1,g+A)}),G=Gt(h,y.sampleRate),R=s(y,G,g+A,Math.max(1,_)),j=a(y,{channelCount:Math.max(1,_),channelCountMode:"explicit",channelInterpretation:"discrete",numberOfOutputs:Math.max(1,_)}),V=[],P=0;P<f.numberOfOutputs;P+=1)V.push(o(y,{channelCount:1,channelCountMode:"explicit",channelInterpretation:"speakers",numberOfInputs:p[P]}));for(var N=0;N<f.numberOfInputs;N+=1){x[N].connect(b[N]);for(var q=0;q<f.channelCount;q+=1)b[N].connect(I,q,N*f.channelCount+q)}var L=new Ki(void 0===T.parameterDescriptors?[]:T.parameterDescriptors.map((function(i,t){var e=i.name,n=w[t];return n.connect(I,0,g+t),n.start(0),[e,n.offset]})));I.connect(R);var W,U,Y=f.channelInterpretation,Z=null,X=0===f.numberOfOutputs?[R]:V,H={get bufferSize(){return G},get channelCount(){return f.channelCount},set channelCount(i){throw n()},get channelCountMode(){return f.channelCountMode},set channelCountMode(i){throw n()},get channelInterpretation(){return Y},set channelInterpretation(i){var t=!0,e=!1,n=void 0;try{for(var o,a=x[Symbol.iterator]();!(t=(o=a.next()).done);t=!0){o.value.channelInterpretation=i}}catch(i){e=!0,n=i}finally{try{t||null==a.return||a.return()}finally{if(e)throw n}}Y=i},get context(){return R.context},get inputs(){return x},get numberOfInputs(){return f.numberOfInputs},get numberOfOutputs(){return f.numberOfOutputs},get onprocessorerror(){return Z},set onprocessorerror(i){"function"==typeof Z&&H.removeEventListener("processorerror",Z),"function"==typeof(Z="function"==typeof i?i:null)&&H.addEventListener("processorerror",Z)},get parameters(){return L},get port(){return C.port2},addEventListener:function(){for(var i=arguments.length,t=new Array(i),e=0;e<i;e++)t[e]=arguments[e];return R.addEventListener(t[0],t[1],t[2])},connect:t.bind(null,X),disconnect:m.bind(null,X),dispatchEvent:function(){for(var i=arguments.length,t=new Array(i),e=0;e<i;e++)t[e]=arguments[e];return R.dispatchEvent(t[0])},removeEventListener:function(){for(var i=arguments.length,t=new Array(i),e=0;e<i;e++)t[e]=arguments[e];return R.removeEventListener(t[0],t[1],t[2])}},Q=new Map;C.port1.addEventListener=(W=C.port1.addEventListener,function(){for(var i=arguments.length,t=new Array(i),e=0;e<i;e++)t[e]=arguments[e];if("message"===t[0]){var n="function"==typeof t[1]?t[1]:"object"==typeof t[1]&&null!==t[1]&&"function"==typeof t[1].handleEvent?t[1].handleEvent:null;if(null!==n){var o=Q.get(t[1]);void 0!==o?t[1]=o:(t[1]=function(i){l(y.currentTime,y.sampleRate,(function(){return n(i)}))},Q.set(n,t[1]))}}return W.call(C.port1,t[0],t[1],t[2])}),C.port1.removeEventListener=(U=C.port1.removeEventListener,function(){for(var i=arguments.length,t=new Array(i),e=0;e<i;e++)t[e]=arguments[e];if("message"===t[0]){var n=Q.get(t[1]);void 0!==n&&(Q.delete(t[1]),t[1]=n)}return U.call(C.port1,t[0],t[1],t[2])});var $=null;Object.defineProperty(C.port1,"onmessage",{get:function(){return $},set:function(i){"function"==typeof $&&C.port1.removeEventListener("message",$),"function"==typeof($="function"==typeof i?i:null)&&(C.port1.addEventListener("message",$),C.port1.start())}}),T.prototype.port=C.port1;var J=null;Vt(y,H,T,f).then((function(i){return J=i}));var K=ot(f.numberOfInputs,f.channelCount),ii=ot(f.numberOfOutputs,p),ti=void 0===T.parameterDescriptors?[]:T.parameterDescriptors.reduce((function(t,e){var n=e.name;return i(z)({},t,i(u)({},n,new Float32Array(128)))}),{}),ei=!0,ni=function(){f.numberOfOutputs>0&&R.disconnect(j);for(var i=0,t=0;i<f.numberOfOutputs;i+=1){for(var e=V[i],n=0;n<p[i];n+=1)j.disconnect(e,t+n,n);t+=p[i]}},oi=new Map;R.onaudioprocess=function(i){var t=i.inputBuffer,e=i.outputBuffer;if(null!==J)for(var n=function(i){for(var n=0;n<f.numberOfInputs;n+=1)for(var a=0;a<f.channelCount;a+=1)tt(t,K[n],a,a,i);void 0!==T.parameterDescriptors&&T.parameterDescriptors.forEach((function(e,n){var o=e.name;tt(t,ti,o,g+n,i)}));for(var r=0;r<f.numberOfInputs;r+=1)for(var c=0;c<p[r];c+=1)0===ii[r][c].byteLength&&(ii[r][c]=new Float32Array(128));try{var s=K.map((function(i,t){if(o[t].size>0)return oi.set(t,G/128),i;var e=oi.get(t);return void 0===e?[]:(i.every((function(i){return i.every((function(i){return 0===i}))}))&&(1===e?oi.delete(t):oi.set(t,e-1)),i)})),u=l(y.currentTime+i/y.sampleRate,y.sampleRate,(function(){return J.process(s,ii,ti)}));ei=u;for(var d=0,m=0;d<f.numberOfOutputs;d+=1){for(var k=0;k<p[d];k+=1)nt(e,ii[d],k,m+k,i);m+=p[d]}}catch(i){ei=!1,H.dispatchEvent(new ErrorEvent("processorerror",{colno:i.colno,filename:i.filename,lineno:i.lineno,message:i.message}))}if(!ei){for(var v=0;v<f.numberOfInputs;v+=1){x[v].disconnect(b[v]);for(var h=0;h<f.channelCount;h+=1)b[i].disconnect(I,h,v*f.channelCount+h)}if(void 0!==T.parameterDescriptors)for(var _=T.parameterDescriptors.length,A=0;A<_;A+=1){var C=w[A];C.disconnect(I,0,g+A),C.stop()}return I.disconnect(R),R.onaudioprocess=null,ai?ni():si(),"break"}},o=k(H),a=0;a<G;a+=128){if("break"===n(a))break}};var ai=!1,ri=c(y,{channelCount:1,channelCountMode:"explicit",channelInterpretation:"discrete",gain:0}),ci=function(){return R.connect(ri).connect(y.destination)},si=function(){R.disconnect(ri),ri.disconnect()};return ci(),v(H,(function(){if(ei){si(),f.numberOfOutputs>0&&R.connect(j);for(var i=0,t=0;i<f.numberOfOutputs;i+=1){for(var e=V[i],n=0;n<p[i];n+=1)j.connect(e,t+n,n);t+=p[i]}}ai=!0}),(function(){ei&&(ci(),ni()),ai=!1}))}}(xa,ai,ft,fo,Nt,xo,zt,dn,mn,Da,ua,Fa,ho),Sa=function(t,e,n,o,a){return function(r,c,s,u,d,m){if(null!==s)try{var l=new s(r,u,m),k=new Map,v=null;if(Object.defineProperties(l,{channelCount:{get:function(){return m.channelCount},set:function(){throw t()}},channelCountMode:{get:function(){return"explicit"},set:function(){throw t()}},onprocessorerror:{get:function(){return v},set:function(i){"function"==typeof v&&l.removeEventListener("processorerror",v),"function"==typeof(v="function"==typeof i?i:null)&&l.addEventListener("processorerror",v)}}}),l.addEventListener=(T=l.addEventListener,function(){for(var t=arguments.length,e=new Array(t),n=0;n<t;n++)e[n]=arguments[n];var o;if("processorerror"===e[0]){var a="function"==typeof e[1]?e[1]:"object"==typeof e[1]&&null!==e[1]&&"function"==typeof e[1].handleEvent?e[1].handleEvent:null;if(null!==a){var r=k.get(e[1]);void 0!==r?e[1]=r:(e[1]=function(t){"error"===t.type?(Object.defineProperties(t,{type:{value:"processorerror"}}),a(t)):a(new ErrorEvent(e[0],i(z)({},t)))},k.set(a,e[1]))}}return T.call(l,"error",e[1],e[2]),(o=T).call.apply(o,[l].concat(i(ki)(e)))}),l.removeEventListener=(h=l.removeEventListener,function(){for(var i=arguments.length,t=new Array(i),e=0;e<i;e++)t[e]=arguments[e];if("processorerror"===t[0]){var n=k.get(t[1]);void 0!==n&&(k.delete(t[1]),t[1]=n)}return h.call(l,"error",t[1],t[2]),h.call(l,t[0],t[1],t[2])}),0!==m.numberOfOutputs){var y=n(r,{channelCount:1,channelCountMode:"explicit",channelInterpretation:"discrete",gain:0});l.connect(y).connect(r.destination);return a(l,(function(){return y.disconnect()}),(function(){return y.connect(r.destination)}))}return l}catch(i){if(11===i.code)throw o();throw i}var h,T;if(void 0===d)throw o();return It(m),e(r,c,d,m)}}(ft,Ea,zt,mn,ho),Oa=function(t,e,n,o,a,r,c,s,u,d,m,k,v,y,h,T){return function(f,p,g){var _,A=new WeakMap,C=null,x=(_=i(K)(i(ti).mark((function s(_,x){var b,D,w,F,E,S,O,B,M,I,G,R,j,V,P,N,q,L,W,U,z,Y,Z,X,H,Q,$,J,ii,ei,oi,ai,ri,ci,si,ui,di,mi,li;return i(ti).wrap((function(s){for(;;)switch(s.prev=s.next){case 0:if(b=m(_),D=null,w=ni(b,x),F=Array.isArray(p.outputChannelCount)?p.outputChannelCount:Array.from(p.outputChannelCount),null===k){for(E=F.reduce((function(i,t){return i+t}),0),S=a(x,{channelCount:Math.max(1,E),channelCountMode:"explicit",channelInterpretation:"discrete",numberOfOutputs:Math.max(1,E)}),O=[],B=0;B<_.numberOfOutputs;B+=1)O.push(o(x,{channelCount:1,channelCountMode:"explicit",channelInterpretation:"speakers",numberOfInputs:F[B]}));(M=c(x,{channelCount:p.channelCount,channelCountMode:p.channelCountMode,channelInterpretation:p.channelInterpretation,gain:1})).connect=e.bind(null,O),M.disconnect=u.bind(null,O),D=[S,O,M]}else w||(b=new k(x,f));if(A.set(x,null===D?b:D[2]),null===D){s.next=41;break}if(null!==C){s.next=32;break}if(void 0!==g){s.next=10;break}throw new Error("Missing the processor constructor.");case 10:if(null!==v){s.next=12;break}throw new Error("Missing the native OfflineAudioContext constructor.");case 12:if(I=_.channelCount*_.numberOfInputs,G=void 0===g.parameterDescriptors?0:g.parameterDescriptors.length,R=I+G,j=function(){var t=i(K)(i(ti).mark((function t(){var e,n,s,u,d,m,k,f,g,A,C,b,D,w,F,E;return i(ti).wrap((function(t){for(;;)switch(t.prev=t.next){case 0:for(e=new v(R,128*Math.ceil(_.context.length/128),x.sampleRate),n=[],s=[],u=0;u<p.numberOfInputs;u+=1)n.push(c(e,{channelCount:p.channelCount,channelCountMode:p.channelCountMode,channelInterpretation:p.channelInterpretation,gain:1})),s.push(a(e,{channelCount:p.channelCount,channelCountMode:"explicit",channelInterpretation:"discrete",numberOfOutputs:p.channelCount}));return t.next=6,Promise.all(Array.from(_.parameters.values()).map(function(){var t=i(K)(i(ti).mark((function t(n){var o;return i(ti).wrap((function(i){for(;;)switch(i.prev=i.next){case 0:return o=r(e,{channelCount:1,channelCountMode:"explicit",channelInterpretation:"discrete",offset:n.value}),i.next=3,y(e,n,o.offset);case 3:return i.abrupt("return",o);case 4:case"end":return i.stop()}}),t)})));return function(i){return t.apply(this,arguments)}}()));case 6:for(d=t.sent,m=o(e,{channelCount:1,channelCountMode:"explicit",channelInterpretation:"speakers",numberOfInputs:Math.max(1,I+G)}),k=0;k<p.numberOfInputs;k+=1)for(n[k].connect(s[k]),f=0;f<p.channelCount;f+=1)s[k].connect(m,f,k*p.channelCount+f);for(g=!0,A=!1,C=void 0,t.prev=10,b=d.entries()[Symbol.iterator]();!(g=(D=b.next()).done);g=!0)w=i(l)(D.value,2),F=w[0],(E=w[1]).connect(m,0,I+F),E.start(0);t.next=18;break;case 14:t.prev=14,t.t0=t.catch(10),A=!0,C=t.t0;case 18:t.prev=18,t.prev=19,g||null==b.return||b.return();case 21:if(t.prev=21,!A){t.next=24;break}throw C;case 24:return t.finish(21);case 25:return t.finish(18);case 26:return m.connect(e.destination),t.next=29,Promise.all(n.map((function(i){return h(_,e,i)})));case 29:return t.abrupt("return",T(e));case 30:case"end":return t.stop()}}),t,null,[[10,14,18,26],[19,,21,25]])})));return function(){return t.apply(this,arguments)}}(),s.t0=rt,s.t1=_,0!==R){s.next=22;break}s.t2=null,s.next=25;break;case 22:return s.next=24,j();case 24:s.t2=s.sent;case 25:s.t3=s.t2,s.t4=x,s.t5=p,s.t6=F,s.t7=g,s.t8=d,C=(0,s.t0)(s.t1,s.t3,s.t4,s.t5,s.t6,s.t7,s.t8);case 32:return s.next=34,C;case 34:for(V=s.sent,P=n(x,{buffer:null,channelCount:2,channelCountMode:"max",channelInterpretation:"speakers",loop:!1,loopEnd:0,loopStart:0,playbackRate:1}),N=i(l)(D,3),q=N[0],L=N[1],W=N[2],null!==V&&(P.buffer=V,P.start(0)),P.connect(q),U=0,z=0;U<_.numberOfOutputs;U+=1){for(Y=L[U],Z=0;Z<F[U];Z+=1)q.connect(Y,z+Z,Z);z+=F[U]}return s.abrupt("return",W);case 41:if(X=!0,H=!1,Q=void 0,$=!0,J=!1,ii=void 0,w){s.next=68;break}s.prev=43,ei=_.parameters.entries()[Symbol.iterator]();case 45:if(X=(oi=ei.next()).done){s.next=52;break}return ai=i(l)(oi.value,2),ri=ai[0],ci=ai[1],s.next=49,y(x,ci,b.parameters.get(ri));case 49:X=!0,s.next=45;break;case 52:s.next=58;break;case 54:s.prev=54,s.t9=s.catch(43),H=!0,Q=s.t9;case 58:s.prev=58,s.prev=59,X||null==ei.return||ei.return();case 61:if(s.prev=61,!H){s.next=64;break}throw Q;case 64:return s.finish(61);case 65:return s.finish(58);case 66:s.next=91;break;case 68:s.prev=68,si=_.parameters.entries()[Symbol.iterator]();case 70:if($=(ui=si.next()).done){s.next=77;break}return di=i(l)(ui.value,2),mi=di[0],li=di[1],s.next=74,t(x,li,b.parameters.get(mi));case 74:$=!0,s.next=70;break;case 77:s.next=83;break;case 79:s.prev=79,s.t10=s.catch(68),J=!0,ii=s.t10;case 83:s.prev=83,s.prev=84,$||null==si.return||si.return();case 86:if(s.prev=86,!J){s.next=89;break}throw ii;case 89:return s.finish(86);case 90:return s.finish(83);case 91:return s.next=93,h(_,x,b);case 93:return s.abrupt("return",b);case 94:case"end":return s.stop()}}),s,null,[[43,54,58,66],[59,,61,65],[68,79,83,91],[84,,86,90]])}))),function(i,t){return _.apply(this,arguments)});return{render:function(i,t){s(t,i);var e=A.get(t);return void 0!==e?Promise.resolve(e):x(i,t)}}}}(ao,xa,ro,fo,Nt,xo,zt,ba,Da,ua,Li,Xn,Nn,co,jn,Vo),Ba=(an=da,function(i){return an.get(i)}),Ma=function(i){return function(t,e){i.set(t,e)}}(wa),Ia=sa?function(t,e,n,o,c,s,u,d,m,l,k,v,y,h){return function(e){"use strict";i(L)(f,e);var T=i(Z)(f);function f(e,r,h){var p,g;i(a)(this,f);var _=d(e),A=m(_),C=k(i(z)({},it,h));y(C);var x=D.get(_),b=null==x?void 0:x.get(r),w=A||"closed"!==_.state?_:null!==(g=u(_))&&void 0!==g?g:_,F=c(w,A?null:e.baseLatency,l,r,b,C),E=A?o(r,C,b):null;p=T.call(this,e,!0,F,E);var S=[];F.parameters.forEach((function(t,e){var o=n(i(si)(p),A,t);S.push([e,o])})),p._nativeAudioWorkletNode=F,p._onprocessorerror=null,p._parameters=new Ki(S),A&&t(_,i(si)(p));var O=s(i(si)(p)).activeInputs;return v(F,O),p}return i(r)(f,[{key:"onprocessorerror",get:function(){return this._onprocessorerror},set:function(i){var t="function"==typeof i?h(this,i):null;this._nativeAudioWorkletNode.onprocessorerror=t;var e=this._nativeAudioWorkletNode.onprocessorerror;this._onprocessorerror=null!==e&&e===t?i:e}},{key:"parameters",get:function(){return null===this._parameters?this._nativeAudioWorkletNode.parameters:this._parameters}},{key:"port",get:function(){return this._nativeAudioWorkletNode.port}}]),f}(e)}(Ca,Hn,uo,Oa,Sa,bi,Ba,Pn,qn,Xn,(function(t){return i(z)({},t,{outputChannelCount:void 0!==t.outputChannelCount?t.outputChannelCount:1===t.numberOfInputs&&1===t.numberOfOutputs?[t.channelCount]:Array.from({length:t.numberOfOutputs},(function(){return 1}))})}),Ma,(function(i){var t=new MessageChannel,e=t.port1,n=t.port2;try{e.postMessage(i)}finally{e.close(),n.close()}}),wn):void 0,Ga=(function(i,t,e,n,o){}(ft,mn,Tn,Wo,Un),function(i,t){return function(e,n,o){if(null===t)throw new Error("Missing the native OfflineAudioContext constructor.");try{return new t(e,n,o)}catch(t){if("SyntaxError"===t.name)throw i();throw t}}}(mn,Nn)),Ra=function(i,t,e,n,o,a,r,c){return function(s,u){return e(s).render(s,u).then((function(){return Promise.all(Array.from(n(u)).map((function(i){return e(i).render(i,u)})))})).then((function(){return o(u)})).then((function(e){return"function"!=typeof e.copyFromChannel?(r(e),ri(e)):t(a,(function(){return a(e)}))||c(e),i.add(e),e}))}}($n,Mn,Rn,Aa,Vo,oi,io,to),ja=(function(i,t,e,n,o){}(Mn,ft,Ga,Wo,Ra),function(t,e,n,o,c){return function(t){"use strict";i(L)(u,t);var s=i(Z)(u);function u(t,n,r){var c,d;if(i(a)(this,u),"number"==typeof t&&void 0!==n&&void 0!==r)d={length:n,numberOfChannels:t,sampleRate:r};else{if("object"!=typeof t)throw new Error("The given parameters are not valid.");d=t}var m,l,k=i(z)({},ln,d),v=k.length,y=k.numberOfChannels,h=k.sampleRate,T=o(y,v,h);return e(bt,(function(){return bt(T)}))||T.addEventListener("statechange",(m=0,l=function(i){"running"===c._state&&(m>0?(T.removeEventListener("statechange",l),i.stopImmediatePropagation(),c._waitForThePromiseToSettle(i)):m+=1)})),(c=s.call(this,T,y))._length=v,c._nativeOfflineAudioContext=T,c._state=null,c}return i(r)(u,[{key:"length",get:function(){return void 0===this._nativeOfflineAudioContext.length?this._length:this._nativeOfflineAudioContext.length}},{key:"state",get:function(){return null===this._state?this._nativeOfflineAudioContext.state:this._state}},{key:"startRendering",value:function(){var i=this;return"running"===this._state?Promise.reject(n()):(this._state="running",c(this.destination,this._nativeOfflineAudioContext).finally((function(){i._state=null,Fi(i)})))}},{key:"_waitForThePromiseToSettle",value:function(i){var t=this;null===this._state?this._nativeOfflineAudioContext.dispatchEvent(i):setTimeout((function(){return t._waitForThePromiseToSettle(i)}))}}]),u}(t)}(ya,Mn,ft,Ga,Ra)),Va=function(i,t){return function(e){var n=i.get(e);return t(n)||t(e)}}(C,zn),Pa=(rn=g,cn=Yn,function(i){return rn.has(i)||cn(i)}),Na=(sn=A,un=Zn,function(i){return sn.has(i)||un(i)}),qa=function(i,t){return function(e){var n=i.get(e);return t(n)||t(e)}}(C,qn);function La(i,t){if(!i)throw new Error(t)}function Wa(i,t){var e=arguments.length>2&&void 0!==arguments[2]?arguments[2]:1/0;if(!(t<=i&&i<=e))throw new RangeError("Value must be within [".concat(t,", ").concat(e,"], got: ").concat(i))}function Ua(i){i.isOffline||"running"===i.state||Za('The AudioContext is "suspended". Invoke Tone.start() from a user action to start the audio.')}var za=console;function Ya(){for(var t=arguments.length,e=new Array(t),n=0;n<t;n++)e[n]=arguments[n];var o;(o=za).log.apply(o,i(ki)(e))}function Za(){for(var t=arguments.length,e=new Array(t),n=0;n<t;n++)e[n]=arguments[n];var o;(o=za).warn.apply(o,i(ki)(e))}function Xa(i){return void 0===i}function Ha(i){return!Xa(i)}function Qa(i){return"function"==typeof i}function $a(i){return"number"==typeof i}function Ja(i){return"[object Object]"===Object.prototype.toString.call(i)&&i.constructor===Object}function Ka(i){return"boolean"==typeof i}function ir(i){return Array.isArray(i)}function tr(i){return"string"==typeof i}function er(i){return tr(i)&&/^([a-g]{1}(?:b|#|x|bb)?)(-?[0-9]+)/i.test(i)}function nr(i){return new _a(i)}function or(i,t,e){return new ja(i,t,e)}var ar="object"==typeof self?self:null,rr=ar&&(ar.hasOwnProperty("AudioContext")||ar.hasOwnProperty("webkitAudioContext"));function cr(i,t,e){return La(Ha(Ia),"This node only works in a secure context (https or localhost)"),new Ia(i,t,e)}si=o("kumvF");var sr={};Object.defineProperty(sr,"__esModule",{value:!0}),sr.default=function(i,t,e){return dr(i,t,e)};var ur=function(i){return i&&i.__esModule?i:{default:i}}(o("5ECwK"));function dr(i,t,e){return(dr="undefined"!=typeof Reflect&&Reflect.get?Reflect.get:function(i,t,e){var n=ur.default(i,t);if(n){var o=Object.getOwnPropertyDescriptor(n,t);return o.get?o.get.call(e||i):o.value}})(i,t,e)}var mr=o("jlIh9");function lr(i,t,e,n){var o,a=arguments.length,r=a<3?t:null===n?n=Object.getOwnPropertyDescriptor(t,e):n;if("object"==typeof Reflect&&"function"==typeof Reflect.decorate)r=Reflect.decorate(i,t,e,n);else for(var c=i.length-1;c>=0;c--)(o=i[c])&&(r=(a<3?o(r):a>3?o(t,e,r):o(t,e))||r);return a>3&&r&&Object.defineProperty(t,e,r),r}function kr(i,t,e,n){return new(e||(e=Promise))((function(o,a){function r(i){try{s(n.next(i))}catch(i){a(i)}}function c(i){try{s(n.throw(i))}catch(i){a(i)}}function s(i){var t;i.done?o(i.value):(t=i.value,t instanceof e?t:new e((function(i){i(t)}))).then(r,c)}s((n=n.apply(i,t||[])).next())}))}Object.create;Object.create;var vr=function(){"use strict";function t(e,n,o){i(a)(this,t),this._callback=e,this._type=n,this._updateInterval=o,this._createClock()}return i(r)(t,[{key:"_createWorker",value:function(){var i=new Blob(["\n\t\t\t// the initial timeout time\n\t\t\tlet timeoutTime =  ".concat((1e3*this._updateInterval).toFixed(1),";\n\t\t\t// onmessage callback\n\t\t\tself.onmessage = function(msg){\n\t\t\t\ttimeoutTime = parseInt(msg.data);\n\t\t\t};\n\t\t\t// the tick function which posts a message\n\t\t\t// and schedules a new tick\n\t\t\tfunction tick(){\n\t\t\t\tsetTimeout(tick, timeoutTime);\n\t\t\t\tself.postMessage('tick');\n\t\t\t}\n\t\t\t// call tick initially\n\t\t\ttick();\n\t\t\t")],{type:"text/javascript"}),t=URL.createObjectURL(i),e=new Worker(t);e.onmessage=this._callback.bind(this),this._worker=e}},{key:"_createTimeout",value:function(){var i=this;this._timeout=setTimeout((function(){i._createTimeout(),i._callback()}),1e3*this._updateInterval)}},{key:"_createClock",value:function(){if("worker"===this._type)try{this._createWorker()}catch(i){this._type="timeout",this._createClock()}else"timeout"===this._type&&this._createTimeout()}},{key:"_disposeClock",value:function(){this._timeout&&(clearTimeout(this._timeout),this._timeout=0),this._worker&&(this._worker.terminate(),this._worker.onmessage=null)}},{key:"updateInterval",get:function(){return this._updateInterval},set:function(i){this._updateInterval=Math.max(i,128/44100),"worker"===this._type&&this._worker.postMessage(Math.max(1e3*i,1))}},{key:"type",get:function(){return this._type},set:function(i){this._disposeClock(),this._type=i,this._createClock()}},{key:"dispose",value:function(){this._disposeClock()}}]),t}();function yr(i){return Na(i)}function hr(i){return Pa(i)}function Tr(i){return qa(i)}function fr(i){return Va(i)}function pr(i){return i instanceof AudioBuffer}u=o("4tpRD");function gr(i,t){return"value"===i||yr(t)||hr(t)||pr(t)}function _r(t){for(var e=arguments.length,n=new Array(e>1?e-1:0),o=1;o<e;o++)n[o-1]=arguments[o];if(!n.length)return t;var a=n.shift();if(Ja(t)&&Ja(a))for(var r in a)gr(r,a[r])?t[r]=a[r]:Ja(a[r])?(t[r]||Object.assign(t,i(u)({},r,{})),_r(t[r],a[r])):Object.assign(t,i(u)({},r,a[r]));return _r.apply(void 0,[t].concat(i(ki)(n)))}function Ar(t,e){var n=arguments.length>2&&void 0!==arguments[2]?arguments[2]:[],o=arguments.length>3?arguments[3]:void 0,a={},r=Array.from(e);if(Ja(r[0])&&o&&!Reflect.has(r[0],o)){var c=Object.keys(r[0]).some((function(i){return Reflect.has(t,i)}));c||(_r(a,i(u)({},o,r[0])),n.splice(n.indexOf(o),1),r.shift())}if(1===r.length&&Ja(r[0]))_r(a,r[0]);else for(var s=0;s<n.length;s++)Ha(r[s])&&(a[n[s]]=r[s]);return _r(t,a)}function Cr(i,t){return Xa(i)?t:i}function xr(i,t){return t.forEach((function(t){Reflect.has(i,t)&&delete i[t]})),i}mr=o("jlIh9");var br=function(){"use strict";function t(){i(a)(this,t),this.debug=!1,this._wasDisposed=!1}return i(r)(t,[{key:"log",value:function(){for(var t=arguments.length,e=new Array(t),n=0;n<t;n++)e[n]=arguments[n];(this.debug||ar&&this.toString()===ar.TONE_DEBUG_CLASS)&&Ya.apply(void 0,[this].concat(i(ki)(e)))}},{key:"dispose",value:function(){return this._wasDisposed=!0,this}},{key:"disposed",get:function(){return this._wasDisposed}},{key:"toString",value:function(){return this.name}}],[{key:"getDefaults",value:function(){return{}}}]),t}();br.version=d;var Dr=1e-6;function wr(i,t){return i>t+Dr}function Fr(i,t){return wr(i,t)||Sr(i,t)}function Er(i,t){return i+Dr<t}function Sr(i,t){return Math.abs(i-t)<Dr}function Or(i,t,e){return Math.max(Math.min(i,e),t)}var Br=function(t){"use strict";i(L)(n,t);var e=i(Z)(n);function n(){var t;i(a)(this,n),(t=e.call(this)).name="Timeline",t._timeline=[];var o=Ar(n.getDefaults(),arguments,["memory"]);return t.memory=o.memory,t.increasing=o.increasing,t}return i(r)(n,[{key:"length",get:function(){return this._timeline.length}},{key:"add",value:function(i){if(La(Reflect.has(i,"time"),"Timeline: events must have a time attribute"),i.time=i.time.valueOf(),this.increasing&&this.length){var t=this._timeline[this.length-1];La(Fr(i.time,t.time),"The time must be greater than or equal to the last scheduled time"),this._timeline.push(i)}else{var e=this._search(i.time);this._timeline.splice(e+1,0,i)}if(this.length>this.memory){var n=this.length-this.memory;this._timeline.splice(0,n)}return this}},{key:"remove",value:function(i){var t=this._timeline.indexOf(i);return-1!==t&&this._timeline.splice(t,1),this}},{key:"get",value:function(i){var t=arguments.length>1&&void 0!==arguments[1]?arguments[1]:"time",e=this._search(i,t);return-1!==e?this._timeline[e]:null}},{key:"peek",value:function(){return this._timeline[0]}},{key:"shift",value:function(){return this._timeline.shift()}},{key:"getAfter",value:function(i){var t=arguments.length>1&&void 0!==arguments[1]?arguments[1]:"time",e=this._search(i,t);return e+1<this._timeline.length?this._timeline[e+1]:null}},{key:"getBefore",value:function(i){var t=this._timeline.length;if(t>0&&this._timeline[t-1].time<i)return this._timeline[t-1];var e=this._search(i);return e-1>=0?this._timeline[e-1]:null}},{key:"cancel",value:function(i){if(this._timeline.length>1){var t=this._search(i);if(t>=0)if(Sr(this._timeline[t].time,i)){for(var e=t;e>=0&&Sr(this._timeline[e].time,i);e--)t=e;this._timeline=this._timeline.slice(0,t)}else this._timeline=this._timeline.slice(0,t+1);else this._timeline=[]}else 1===this._timeline.length&&Fr(this._timeline[0].time,i)&&(this._timeline=[]);return this}},{key:"cancelBefore",value:function(i){var t=this._search(i);return t>=0&&(this._timeline=this._timeline.slice(t+1)),this}},{key:"previousEvent",value:function(i){var t=this._timeline.indexOf(i);return t>0?this._timeline[t-1]:null}},{key:"_search",value:function(i){var t=arguments.length>1&&void 0!==arguments[1]?arguments[1]:"time";if(0===this._timeline.length)return-1;var e=0,n=this._timeline.length,o=n;if(n>0&&this._timeline[n-1][t]<=i)return n-1;for(;e<o;){var a=Math.floor(e+(o-e)/2),r=this._timeline[a],c=this._timeline[a+1];if(Sr(r[t],i)){for(var s=a;s<this._timeline.length;s++){var u=this._timeline[s];if(!Sr(u[t],i))break;a=s}return a}if(Er(r[t],i)&&wr(c[t],i))return a;wr(r[t],i)?o=a:e=a+1}return-1}},{key:"_iterate",value:function(i){var t=arguments.length>1&&void 0!==arguments[1]?arguments[1]:0,e=arguments.length>2&&void 0!==arguments[2]?arguments[2]:this._timeline.length-1;this._timeline.slice(t,e+1).forEach(i)}},{key:"forEach",value:function(i){return this._iterate(i),this}},{key:"forEachBefore",value:function(i,t){var e=this._search(i);return-1!==e&&this._iterate(t,0,e),this}},{key:"forEachAfter",value:function(i,t){var e=this._search(i);return this._iterate(t,e+1),this}},{key:"forEachBetween",value:function(i,t,e){var n=this._search(i),o=this._search(t);return-1!==n&&-1!==o?(this._timeline[n].time!==i&&(n+=1),this._timeline[o].time===t&&(o-=1),this._iterate(e,n,o)):-1===n&&this._iterate(e,0,o),this}},{key:"forEachFrom",value:function(i,t){for(var e=this._search(i);e>=0&&this._timeline[e].time>=i;)e--;return this._iterate(t,e+1),this}},{key:"forEachAtTime",value:function(i,t){var e=this._search(i);if(-1!==e&&Sr(this._timeline[e].time,i)){for(var n=e,o=e;o>=0&&Sr(this._timeline[o].time,i);o--)n=o;this._iterate((function(i){t(i)}),n,e)}return this}},{key:"dispose",value:function(){return i(sr)(i(mr)(n.prototype),"dispose",this).call(this),this._timeline=[],this}}],[{key:"getDefaults",value:function(){return{memory:1/0,increasing:!1}}}]),n}(br),Mr=[];function Ir(i){Mr.push(i)}var Gr=[];function Rr(i){Gr.push(i)}function jr(i){Gr.forEach((function(t){return t(i)}))}mr=o("jlIh9");var Vr=function(t){"use strict";i(L)(n,t);var e=i(Z)(n);function n(){var t;return i(a)(this,n),(t=e.call.apply(e,[this].concat(Array.prototype.slice.call(arguments)))).name="Emitter",t}return i(r)(n,[{key:"on",value:function(i,t){var e=this;return i.split(/\W+/).forEach((function(i){Xa(e._events)&&(e._events={}),e._events.hasOwnProperty(i)||(e._events[i]=[]),e._events[i].push(t)})),this}},{key:"once",value:function(t,e){var n=this,o=function(){for(var a=arguments.length,r=new Array(a),c=0;c<a;c++)r[c]=arguments[c];e.apply(void 0,i(ki)(r)),n.off(t,o)};return this.on(t,o),this}},{key:"off",value:function(i,t){var e=this;return i.split(/\W+/).forEach((function(n){if(Xa(e._events)&&(e._events={}),e._events.hasOwnProperty(i))if(Xa(t))e._events[i]=[];else for(var o=e._events[i],a=o.length-1;a>=0;a--)o[a]===t&&o.splice(a,1)})),this}},{key:"emit",value:function(i){for(var t=arguments.length,e=new Array(t>1?t-1:0),n=1;n<t;n++)e[n-1]=arguments[n];if(this._events&&this._events.hasOwnProperty(i))for(var o=this._events[i].slice(0),a=0,r=o.length;a<r;a++)o[a].apply(this,e);return this}},{key:"dispose",value:function(){return i(sr)(i(mr)(n.prototype),"dispose",this).call(this),this._events=void 0,this}}],[{key:"mixin",value:function(i){["on","once","off","emit"].forEach((function(t){var e=Object.getOwnPropertyDescriptor(n.prototype,t);Object.defineProperty(i.prototype,t,e)}))}}]),n}(br),Pr=function(t){"use strict";i(L)(n,t);var e=i(Z)(n);function n(){var t;return i(a)(this,n),(t=e.call.apply(e,[this].concat(Array.prototype.slice.call(arguments)))).isOffline=!1,t}return i(r)(n,[{key:"toJSON",value:function(){return{}}}]),n}(Vr),Nr=function(t){"use strict";i(L)(n,t);var e=i(Z)(n);function n(){var t;i(a)(this,n),(t=e.call(this)).name="Context",t._constants=new Map,t._timeouts=new Br,t._timeoutIds=0,t._initialized=!1,t.isOffline=!1,t._workletModules=new Map;var o=Ar(n.getDefaults(),arguments,["context"]);return o.context?t._context=o.context:t._context=nr({latencyHint:o.latencyHint}),t._ticker=new vr(t.emit.bind(i(si)(t),"tick"),o.clockSource,o.updateInterval),t.on("tick",t._timeoutLoop.bind(i(si)(t))),t._context.onstatechange=function(){t.emit("statechange",t.state)},t._setLatencyHint(o.latencyHint),t.lookAhead=o.lookAhead,t}return i(r)(n,[{key:"initialize",value:function(){var i;return this._initialized||(i=this,Mr.forEach((function(t){return t(i)})),this._initialized=!0),this}},{key:"createAnalyser",value:function(){return this._context.createAnalyser()}},{key:"createOscillator",value:function(){return this._context.createOscillator()}},{key:"createBufferSource",value:function(){return this._context.createBufferSource()}},{key:"createBiquadFilter",value:function(){return this._context.createBiquadFilter()}},{key:"createBuffer",value:function(i,t,e){return this._context.createBuffer(i,t,e)}},{key:"createChannelMerger",value:function(i){return this._context.createChannelMerger(i)}},{key:"createChannelSplitter",value:function(i){return this._context.createChannelSplitter(i)}},{key:"createConstantSource",value:function(){return this._context.createConstantSource()}},{key:"createConvolver",value:function(){return this._context.createConvolver()}},{key:"createDelay",value:function(i){return this._context.createDelay(i)}},{key:"createDynamicsCompressor",value:function(){return this._context.createDynamicsCompressor()}},{key:"createGain",value:function(){return this._context.createGain()}},{key:"createIIRFilter",value:function(i,t){return this._context.createIIRFilter(i,t)}},{key:"createPanner",value:function(){return this._context.createPanner()}},{key:"createPeriodicWave",value:function(i,t,e){return this._context.createPeriodicWave(i,t,e)}},{key:"createStereoPanner",value:function(){return this._context.createStereoPanner()}},{key:"createWaveShaper",value:function(){return this._context.createWaveShaper()}},{key:"createMediaStreamSource",value:function(i){return La(fr(this._context),"Not available if OfflineAudioContext"),this._context.createMediaStreamSource(i)}},{key:"createMediaElementSource",value:function(i){return La(fr(this._context),"Not available if OfflineAudioContext"),this._context.createMediaElementSource(i)}},{key:"createMediaStreamDestination",value:function(){return La(fr(this._context),"Not available if OfflineAudioContext"),this._context.createMediaStreamDestination()}},{key:"decodeAudioData",value:function(i){return this._context.decodeAudioData(i)}},{key:"currentTime",get:function(){return this._context.currentTime}},{key:"state",get:function(){return this._context.state}},{key:"sampleRate",get:function(){return this._context.sampleRate}},{key:"listener",get:function(){return this.initialize(),this._listener},set:function(i){La(!this._initialized,"The listener cannot be set after initialization."),this._listener=i}},{key:"transport",get:function(){return this.initialize(),this._transport},set:function(i){La(!this._initialized,"The transport cannot be set after initialization."),this._transport=i}},{key:"draw",get:function(){return this.initialize(),this._draw},set:function(i){La(!this._initialized,"Draw cannot be set after initialization."),this._draw=i}},{key:"destination",get:function(){return this.initialize(),this._destination},set:function(i){La(!this._initialized,"The destination cannot be set after initialization."),this._destination=i}},{key:"createAudioWorkletNode",value:function(i,t){return cr(this.rawContext,i,t)}},{key:"addAudioWorkletModule",value:function(t,e){return kr(this,void 0,void 0,i(ti).mark((function n(){return i(ti).wrap((function(i){for(;;)switch(i.prev=i.next){case 0:return La(Ha(this.rawContext.audioWorklet),"AudioWorkletNode is only available in a secure context (https or localhost)"),this._workletModules.has(e)||this._workletModules.set(e,this.rawContext.audioWorklet.addModule(t)),i.next=4,this._workletModules.get(e);case 4:case"end":return i.stop()}}),n,this)})))}},{key:"workletsAreReady",value:function(){return kr(this,void 0,void 0,i(ti).mark((function t(){var e;return i(ti).wrap((function(i){for(;;)switch(i.prev=i.next){case 0:return e=[],this._workletModules.forEach((function(i){return e.push(i)})),i.next=4,Promise.all(e);case 4:case"end":return i.stop()}}),t,this)})))}},{key:"updateInterval",get:function(){return this._ticker.updateInterval},set:function(i){this._ticker.updateInterval=i}},{key:"clockSource",get:function(){return this._ticker.type},set:function(i){this._ticker.type=i}},{key:"latencyHint",get:function(){return this._latencyHint}},{key:"_setLatencyHint",value:function(i){var t=0;if(this._latencyHint=i,tr(i))switch(i){case"interactive":t=.1;break;case"playback":t=.5;break;case"balanced":t=.25}this.lookAhead=t,this.updateInterval=t/2}},{key:"rawContext",get:function(){return this._context}},{key:"now",value:function(){return this._context.currentTime+this.lookAhead}},{key:"immediate",value:function(){return this._context.currentTime}},{key:"resume",value:function(){return fr(this._context)?this._context.resume():Promise.resolve()}},{key:"close",value:function(){return kr(this,void 0,void 0,i(ti).mark((function t(){return i(ti).wrap((function(i){for(;;)switch(i.prev=i.next){case 0:if(!fr(this._context)){i.next=3;break}return i.next=3,this._context.close();case 3:this._initialized&&jr(this);case 4:case"end":return i.stop()}}),t,this)})))}},{key:"getConstant",value:function(i){if(this._constants.has(i))return this._constants.get(i);for(var t=this._context.createBuffer(1,128,this._context.sampleRate),e=t.getChannelData(0),n=0;n<e.length;n++)e[n]=i;var o=this._context.createBufferSource();return o.channelCount=1,o.channelCountMode="explicit",o.buffer=t,o.loop=!0,o.start(0),this._constants.set(i,o),o}},{key:"dispose",value:function(){var t=this;return i(sr)(i(mr)(n.prototype),"dispose",this).call(this),this._ticker.dispose(),this._timeouts.dispose(),Object.keys(this._constants).map((function(i){return t._constants[i].disconnect()})),this}},{key:"_timeoutLoop",value:function(){for(var i=this.now(),t=this._timeouts.peek();this._timeouts.length&&t&&t.time<=i;)t.callback(),this._timeouts.shift(),t=this._timeouts.peek()}},{key:"setTimeout",value:function(i,t){this._timeoutIds++;var e=this.now();return this._timeouts.add({callback:i,id:this._timeoutIds,time:e+t}),this._timeoutIds}},{key:"clearTimeout",value:function(i){var t=this;return this._timeouts.forEach((function(e){e.id===i&&t._timeouts.remove(e)})),this}},{key:"clearInterval",value:function(i){return this.clearTimeout(i)}},{key:"setInterval",value:function(i,t){var e=this,n=++this._timeoutIds,o=function(){var a=e.now();e._timeouts.add({callback:function(){i(),o()},id:n,time:a+t})};return o(),n}}],[{key:"getDefaults",value:function(){return{clockSource:"worker",latencyHint:"interactive",lookAhead:.1,updateInterval:.05}}}]),n}(Pr),qr=function(t){"use strict";i(L)(n,t);var e=i(Z)(n);function n(){var t;return i(a)(this,n),(t=e.call.apply(e,[this].concat(Array.prototype.slice.call(arguments)))).lookAhead=0,t.latencyHint=0,t.isOffline=!1,t}return i(r)(n,[{key:"createAnalyser",value:function(){return{}}},{key:"createOscillator",value:function(){return{}}},{key:"createBufferSource",value:function(){return{}}},{key:"createBiquadFilter",value:function(){return{}}},{key:"createBuffer",value:function(i,t,e){return{}}},{key:"createChannelMerger",value:function(i){return{}}},{key:"createChannelSplitter",value:function(i){return{}}},{key:"createConstantSource",value:function(){return{}}},{key:"createConvolver",value:function(){return{}}},{key:"createDelay",value:function(i){return{}}},{key:"createDynamicsCompressor",value:function(){return{}}},{key:"createGain",value:function(){return{}}},{key:"createIIRFilter",value:function(i,t){return{}}},{key:"createPanner",value:function(){return{}}},{key:"createPeriodicWave",value:function(i,t,e){return{}}},{key:"createStereoPanner",value:function(){return{}}},{key:"createWaveShaper",value:function(){return{}}},{key:"createMediaStreamSource",value:function(i){return{}}},{key:"createMediaElementSource",value:function(i){return{}}},{key:"createMediaStreamDestination",value:function(){return{}}},{key:"decodeAudioData",value:function(i){return Promise.resolve({})}},{key:"createAudioWorkletNode",value:function(i,t){return{}}},{key:"rawContext",get:function(){return{}}},{key:"addAudioWorkletModule",value:function(t,e){return kr(this,void 0,void 0,i(ti).mark((function t(){return i(ti).wrap((function(i){for(;;)switch(i.prev=i.next){case 0:return i.abrupt("return",Promise.resolve());case 1:case"end":return i.stop()}}),t)})))}},{key:"resume",value:function(){return Promise.resolve()}},{key:"setTimeout",value:function(i,t){return 0}},{key:"clearTimeout",value:function(i){return this}},{key:"setInterval",value:function(i,t){return 0}},{key:"clearInterval",value:function(i){return this}},{key:"getConstant",value:function(i){return{}}},{key:"currentTime",get:function(){return 0}},{key:"state",get:function(){return{}}},{key:"sampleRate",get:function(){return 0}},{key:"listener",get:function(){return{}}},{key:"transport",get:function(){return{}}},{key:"draw",get:function(){return{}},set:function(i){}},{key:"destination",get:function(){return{}},set:function(i){}},{key:"now",value:function(){return 0}},{key:"immediate",value:function(){return 0}}]),n}(Pr);mr=o("jlIh9");function Lr(i,t){ir(t)?t.forEach((function(t){return Lr(i,t)})):Object.defineProperty(i,t,{enumerable:!0,writable:!1})}function Wr(i,t){ir(t)?t.forEach((function(t){return Wr(i,t)})):Object.defineProperty(i,t,{writable:!0})}var Ur=function(){},zr=function(t){"use strict";i(L)(n,t);var e=i(Z)(n);function n(){var t;i(a)(this,n),(t=e.call(this)).name="ToneAudioBuffer",t.onload=Ur;var o=Ar(n.getDefaults(),arguments,["url","onload","onerror"]);return t.reverse=o.reverse,t.onload=o.onload,o.url&&pr(o.url)||o.url instanceof n?t.set(o.url):tr(o.url)&&t.load(o.url).catch(o.onerror),t}return i(r)(n,[{key:"sampleRate",get:function(){return this._buffer?this._buffer.sampleRate:Hr().sampleRate}},{key:"set",value:function(i){if(i instanceof n){var t=this;i.loaded?this._buffer=i.get():i.onload=function(){t.set(i),t.onload(t)}}else this._buffer=i;return this._reversed&&this._reverse(),this}},{key:"get",value:function(){return this._buffer}},{key:"load",value:function(t){return kr(this,void 0,void 0,i(ti).mark((function e(){var o,a,r;return i(ti).wrap((function(i){for(;;)switch(i.prev=i.next){case 0:return o=this,a=n.load(t).then((function(i){o.set(i),o.onload(o)})),n.downloads.push(a),i.prev=3,i.next=6,a;case 6:return i.prev=6,r=n.downloads.indexOf(a),n.downloads.splice(r,1),i.finish(6);case 10:return i.abrupt("return",this);case 11:case"end":return i.stop()}}),e,this,[[3,,6,10]])})))}},{key:"dispose",value:function(){return i(sr)(i(mr)(n.prototype),"dispose",this).call(this),this._buffer=void 0,this}},{key:"fromArray",value:function(i){for(var t=ir(i)&&i[0].length>0,e=t?i.length:1,n=t?i[0].length:i.length,o=Hr(),a=o.createBuffer(e,n,o.sampleRate),r=t||1!==e?i:[i],c=0;c<e;c++)a.copyToChannel(r[c],c);return this._buffer=a,this}},{key:"toMono",value:function(i){if($a(i))this.fromArray(this.toArray(i));else{for(var t=new Float32Array(this.length),e=this.numberOfChannels,n=0;n<e;n++)for(var o=this.toArray(n),a=0;a<o.length;a++)t[a]+=o[a];t=t.map((function(i){return i/e})),this.fromArray(t)}return this}},{key:"toArray",value:function(i){if($a(i))return this.getChannelData(i);if(1===this.numberOfChannels)return this.toArray(0);for(var t=[],e=0;e<this.numberOfChannels;e++)t[e]=this.getChannelData(e);return t}},{key:"getChannelData",value:function(i){return this._buffer?this._buffer.getChannelData(i):new Float32Array(0)}},{key:"slice",value:function(i){var t=arguments.length>1&&void 0!==arguments[1]?arguments[1]:this.duration,e=Math.floor(i*this.sampleRate),o=Math.floor(t*this.sampleRate);La(e<o,"The start time must be less than the end time");for(var a=o-e,r=Hr().createBuffer(this.numberOfChannels,a,this.sampleRate),c=0;c<this.numberOfChannels;c++)r.copyToChannel(this.getChannelData(c).subarray(e,o),c);return new n(r)}},{key:"_reverse",value:function(){if(this.loaded)for(var i=0;i<this.numberOfChannels;i++)this.getChannelData(i).reverse();return this}},{key:"loaded",get:function(){return this.length>0}},{key:"duration",get:function(){return this._buffer?this._buffer.duration:0}},{key:"length",get:function(){return this._buffer?this._buffer.length:0}},{key:"numberOfChannels",get:function(){return this._buffer?this._buffer.numberOfChannels:0}},{key:"reverse",get:function(){return this._reversed},set:function(i){this._reversed!==i&&(this._reversed=i,this._reverse())}}],[{key:"getDefaults",value:function(){return{onerror:Ur,onload:Ur,reverse:!1}}},{key:"fromArray",value:function(i){return(new n).fromArray(i)}},{key:"fromUrl",value:function(t){return kr(this,void 0,void 0,i(ti).mark((function e(){var o;return i(ti).wrap((function(i){for(;;)switch(i.prev=i.next){case 0:return o=new n,i.next=3,o.load(t);case 3:return i.abrupt("return",i.sent);case 4:case"end":return i.stop()}}),e)})))}},{key:"load",value:function(t){return kr(this,void 0,void 0,i(ti).mark((function e(){var o,a,r,c,s,u,d,m,l,k,v,y,h;return i(ti).wrap((function(i){for(;;)switch(i.prev=i.next){case 0:if(!(o=t.match(/\[([^\]\[]+\|.+)\]$/))){i.next=30;break}a=o[1].split("|"),r=a[0],c=!0,s=!1,u=void 0,i.prev=5,d=a[Symbol.iterator]();case 7:if(c=(m=d.next()).done){i.next=15;break}if(l=m.value,!n.supportsType(l)){i.next=12;break}return r=l,i.abrupt("break",15);case 12:c=!0,i.next=7;break;case 15:i.next=21;break;case 17:i.prev=17,i.t0=i.catch(5),s=!0,u=i.t0;case 21:i.prev=21,i.prev=22,c||null==d.return||d.return();case 24:if(i.prev=24,!s){i.next=27;break}throw u;case 27:return i.finish(24);case 28:return i.finish(21);case 29:t=t.replace(o[0],r);case 30:return k=""===n.baseUrl||n.baseUrl.endsWith("/")?n.baseUrl:n.baseUrl+"/",i.next=33,fetch(k+t);case 33:if((v=i.sent).ok){i.next=36;break}throw new Error("could not load url: ".concat(t));case 36:return i.next=38,v.arrayBuffer();case 38:return y=i.sent,i.next=41,Hr().decodeAudioData(y);case 41:return h=i.sent,i.abrupt("return",h);case 43:case"end":return i.stop()}}),e,null,[[5,17,21,29],[22,,24,28]])})))}},{key:"supportsType",value:function(i){var t=i.split("."),e=t[t.length-1];return""!==document.createElement("audio").canPlayType("audio/"+e)}},{key:"loaded",value:function(){return kr(this,void 0,void 0,i(ti).mark((function t(){return i(ti).wrap((function(i){for(;;)switch(i.prev=i.next){case 0:return i.next=2,Promise.resolve();case 2:if(!n.downloads.length){i.next=7;break}return i.next=5,n.downloads[0];case 5:i.next=2;break;case 7:case"end":return i.stop()}}),t)})))}}]),n}(br);zr.baseUrl="",zr.downloads=[];var Yr=function(t){"use strict";i(L)(n,t);var e=i(Z)(n);function n(){var t;return i(a)(this,n),(t=e.call(this,{clockSource:"offline",context:Tr(arguments[0])?arguments[0]:or(arguments[0],arguments[1]*arguments[2],arguments[2]),lookAhead:0,updateInterval:Tr(arguments[0])?128/arguments[0].sampleRate:128/arguments[2]})).name="OfflineContext",t._currentTime=0,t.isOffline=!0,t._duration=Tr(arguments[0])?arguments[0].length/arguments[0].sampleRate:arguments[1],t}return i(r)(n,[{key:"now",value:function(){return this._currentTime}},{key:"currentTime",get:function(){return this._currentTime}},{key:"_renderClock",value:function(t){return kr(this,void 0,void 0,i(ti).mark((function e(){var n,o;return i(ti).wrap((function(i){for(;;)switch(i.prev=i.next){case 0:n=0;case 1:if(!(this._duration-this._currentTime>=0)){i.next=11;break}if(this.emit("tick"),this._currentTime+=128/this.sampleRate,n++,o=Math.floor(this.sampleRate/128),!t||n%o!=0){i.next=9;break}return i.next=9,new Promise((function(i){return setTimeout(i,1)}));case 9:i.next=1;break;case 11:case"end":return i.stop()}}),e,this)})))}},{key:"render",value:function(){var t=!(arguments.length>0&&void 0!==arguments[0])||arguments[0];return kr(this,void 0,void 0,i(ti).mark((function e(){var n;return i(ti).wrap((function(i){for(;;)switch(i.prev=i.next){case 0:return i.next=2,this.workletsAreReady();case 2:return i.next=4,this._renderClock(t);case 4:return i.next=6,this._context.startRendering();case 6:return n=i.sent,i.abrupt("return",new zr(n));case 8:case"end":return i.stop()}}),e,this)})))}},{key:"close",value:function(){return Promise.resolve()}}]),n}(Nr),Zr=new qr,Xr=Zr;function Hr(){return Xr===Zr&&rr&&Qr(new Nr),Xr}function Qr(i){Xr=fr(i)?new Nr(i):Tr(i)?new Yr(i):i}if(ar&&!ar.TONE_SILENCE_LOGGING){var $r="v";0;var Jr=" * Tone.js ".concat($r).concat(d," * ");console.log("%c".concat(Jr),"background: #000; color: #fff")}si=o("kumvF"),mr=o("jlIh9");var Kr=function(t){"use strict";i(L)(n,t);var e=i(Z)(n);function n(){var t;i(a)(this,n),(t=e.call(this)).name="ToneAudioBuffers",t._buffers=new Map,t._loadingCount=0;var o=Ar(n.getDefaults(),arguments,["urls","onload","baseUrl"],"urls");return t.baseUrl=o.baseUrl,Object.keys(o.urls).forEach((function(e){t._loadingCount++;var n=o.urls[e];t.add(e,n,t._bufferLoaded.bind(i(si)(t),o.onload),o.onerror)})),t}return i(r)(n,[{key:"has",value:function(i){return this._buffers.has(i.toString())}},{key:"get",value:function(i){return La(this.has(i),"ToneAudioBuffers has no buffer named: ".concat(i)),this._buffers.get(i.toString())}},{key:"_bufferLoaded",value:function(i){this._loadingCount--,0===this._loadingCount&&i&&i()}},{key:"loaded",get:function(){return Array.from(this._buffers).every((function(t){var e=i(l)(t,2);e[0];return e[1].loaded}))}},{key:"add",value:function(i,t){var e=arguments.length>2&&void 0!==arguments[2]?arguments[2]:Ur,n=arguments.length>3&&void 0!==arguments[3]?arguments[3]:Ur;return tr(t)?this._buffers.set(i.toString(),new zr(this.baseUrl+t,e,n)):this._buffers.set(i.toString(),new zr(t,e,n)),this}},{key:"dispose",value:function(){return i(sr)(i(mr)(n.prototype),"dispose",this).call(this),this._buffers.forEach((function(i){return i.dispose()})),this._buffers.clear(),this}}],[{key:"getDefaults",value:function(){return{baseUrl:"",onerror:Ur,onload:Ur,urls:{}}}}]),n}(br);mr=o("jlIh9"),mr=o("jlIh9"),mr=o("jlIh9");function ic(i){return Math.pow(10,i/20)}function tc(i){return Math.log(i)/Math.LN10*20}function ec(i){return Math.pow(2,i/12)}var nc=440;function oc(i){nc=i}function ac(i){return Math.round(rc(i))}function rc(i){return 69+12*Math.log2(i/nc)}function cc(i){return nc*Math.pow(2,(i-69)/12)}mr=o("jlIh9"),mr=o("jlIh9");var sc=function(t){"use strict";i(L)(n,t);var e=i(Z)(n);function n(){var t;return i(a)(this,n),(t=e.call.apply(e,[this].concat(Array.prototype.slice.call(arguments)))).name="TimeClass",t}return i(r)(n,[{key:"_getExpressions",value:function(){var t=this;return Object.assign(i(sr)(i(mr)(n.prototype),"_getExpressions",this).call(this),{now:{method:function(i){return t._now()+new t.constructor(t.context,i).valueOf()},regexp:/^\+(.+)/},quantize:{method:function(i){var e=new n(t.context,i).valueOf();return t._secondsToUnits(t.context.transport.nextSubdivision(e))},regexp:/^@(.+)/}})}},{key:"quantize",value:function(i){var t=arguments.length>1&&void 0!==arguments[1]?arguments[1]:1,e=new this.constructor(this.context,i).valueOf(),n=this.valueOf(),o=Math.round(n/e),a=o*e,r=a-n;return n+r*t}},{key:"toNotation",value:function(){for(var i=this,t=this.toSeconds(),e=["1m"],o=1;o<9;o++){var a=Math.pow(2,o);e.push(a+"n."),e.push(a+"n"),e.push(a+"t")}e.push("0");var r=e[0],c=new n(this.context,e[0]).toSeconds();return e.forEach((function(e){var o=new n(i.context,e).toSeconds();Math.abs(o-t)<Math.abs(c-t)&&(r=e,c=o)})),r}},{key:"toBarsBeatsSixteenths",value:function(){var i=this._beatsToUnits(1),t=this.valueOf()/i;t=parseFloat(t.toFixed(4));var e=Math.floor(t/this._getTimeSignature()),n=t%1*4;t=Math.floor(t)%this._getTimeSignature();var o=n.toString();return o.length>3&&(n=parseFloat(parseFloat(o).toFixed(3))),[e,t,n].join(":")}},{key:"toTicks",value:function(){var i=this._beatsToUnits(1),t=this.valueOf()/i;return Math.round(t*this._getPPQ())}},{key:"toSeconds",value:function(){return this.valueOf()}},{key:"toMidi",value:function(){return ac(this.toFrequency())}},{key:"_now",value:function(){return this.context.now()}}]),n}(function(t){"use strict";i(L)(n,t);var e=i(Z)(n);function n(t,o,r){var c;return i(a)(this,n),(c=e.call(this)).defaultUnits="s",c._val=o,c._units=r,c.context=t,c._expressions=c._getExpressions(),c}return i(r)(n,[{key:"_getExpressions",value:function(){var i=this;return{hz:{method:function(t){return i._frequencyToUnits(parseFloat(t))},regexp:/^(\d+(?:\.\d+)?)hz$/i},i:{method:function(t){return i._ticksToUnits(parseInt(t,10))},regexp:/^(\d+)i$/i},m:{method:function(t){return i._beatsToUnits(parseInt(t,10)*i._getTimeSignature())},regexp:/^(\d+)m$/i},n:{method:function(t,e){var n=parseInt(t,10),o="."===e?1.5:1;return 1===n?i._beatsToUnits(i._getTimeSignature())*o:i._beatsToUnits(4/n)*o},regexp:/^(\d+)n(\.?)$/i},number:{method:function(t){return i._expressions[i.defaultUnits].method.call(i,t)},regexp:/^(\d+(?:\.\d+)?)$/},s:{method:function(t){return i._secondsToUnits(parseFloat(t))},regexp:/^(\d+(?:\.\d+)?)s$/},samples:{method:function(t){return parseInt(t,10)/i.context.sampleRate},regexp:/^(\d+)samples$/},t:{method:function(t){var e=parseInt(t,10);return i._beatsToUnits(8/(3*Math.floor(e)))},regexp:/^(\d+)t$/i},tr:{method:function(t,e,n){var o=0;return t&&"0"!==t&&(o+=i._beatsToUnits(i._getTimeSignature()*parseFloat(t))),e&&"0"!==e&&(o+=i._beatsToUnits(parseFloat(e))),n&&"0"!==n&&(o+=i._beatsToUnits(parseFloat(n)/4)),o},regexp:/^(\d+(?:\.\d+)?):(\d+(?:\.\d+)?):?(\d+(?:\.\d+)?)?$/}}}},{key:"valueOf",value:function(){if(this._val instanceof n&&this.fromType(this._val),Xa(this._val))return this._noArg();if(tr(this._val)&&Xa(this._units)){for(var i in this._expressions)if(this._expressions[i].regexp.test(this._val.trim())){this._units=i;break}}else if(Ja(this._val)){var t=0;for(var e in this._val)if(Ha(this._val[e])){var o=this._val[e];t+=new this.constructor(this.context,e).valueOf()*o}return t}if(Ha(this._units)){var a=this._expressions[this._units],r=this._val.toString().trim().match(a.regexp);return r?a.method.apply(this,r.slice(1)):a.method.call(this,this._val)}return tr(this._val)?parseFloat(this._val):this._val}},{key:"_frequencyToUnits",value:function(i){return 1/i}},{key:"_beatsToUnits",value:function(i){return 60/this._getBpm()*i}},{key:"_secondsToUnits",value:function(i){return i}},{key:"_ticksToUnits",value:function(i){return i*this._beatsToUnits(1)/this._getPPQ()}},{key:"_noArg",value:function(){return this._now()}},{key:"_getBpm",value:function(){return this.context.transport.bpm.value}},{key:"_getTimeSignature",value:function(){return this.context.transport.timeSignature}},{key:"_getPPQ",value:function(){return this.context.transport.PPQ}},{key:"fromType",value:function(i){switch(this._units=void 0,this.defaultUnits){case"s":this._val=i.toSeconds();break;case"i":this._val=i.toTicks();break;case"hz":this._val=i.toFrequency();break;case"midi":this._val=i.toMidi()}return this}},{key:"toFrequency",value:function(){return 1/this.toSeconds()}},{key:"toSamples",value:function(){return this.toSeconds()*this.context.sampleRate}},{key:"toMilliseconds",value:function(){return 1e3*this.toSeconds()}}]),n}(br));var uc=function(t){"use strict";i(L)(n,t);var e=i(Z)(n);function n(){var t;return i(a)(this,n),(t=e.call.apply(e,[this].concat(Array.prototype.slice.call(arguments)))).name="Frequency",t.defaultUnits="hz",t}return i(r)(n,[{key:"_getExpressions",value:function(){return Object.assign({},i(sr)(i(mr)(n.prototype),"_getExpressions",this).call(this),{midi:{regexp:/^(\d+(?:\.\d+)?midi)/,method:function(i){return"midi"===this.defaultUnits?i:n.mtof(i)}},note:{regexp:/^([a-g]{1}(?:b|#|x|bb)?)(-?[0-9]+)/i,method:function(i,t){var e=dc[i.toLowerCase()]+12*(parseInt(t,10)+1);return"midi"===this.defaultUnits?e:n.mtof(e)}},tr:{regexp:/^(\d+(?:\.\d+)?):(\d+(?:\.\d+)?):?(\d+(?:\.\d+)?)?/,method:function(i,t,e){var n=1;return i&&"0"!==i&&(n*=this._beatsToUnits(this._getTimeSignature()*parseFloat(i))),t&&"0"!==t&&(n*=this._beatsToUnits(parseFloat(t))),e&&"0"!==e&&(n*=this._beatsToUnits(parseFloat(e)/4)),n}}})}},{key:"transpose",value:function(i){return new n(this.context,this.valueOf()*ec(i))}},{key:"harmonize",value:function(i){var t=this;return i.map((function(i){return t.transpose(i)}))}},{key:"toMidi",value:function(){return ac(this.valueOf())}},{key:"toNote",value:function(){var i=this.toFrequency(),t=Math.log2(i/n.A4),e=Math.round(12*t)+57,o=Math.floor(e/12);return o<0&&(e+=-12*o),mc[e%12]+o.toString()}},{key:"toSeconds",value:function(){return 1/i(sr)(i(mr)(n.prototype),"toSeconds",this).call(this)}},{key:"toTicks",value:function(){var i=this._beatsToUnits(1),t=this.valueOf()/i;return Math.floor(t*this._getPPQ())}},{key:"_noArg",value:function(){return 0}},{key:"_frequencyToUnits",value:function(i){return i}},{key:"_ticksToUnits",value:function(i){return 1/(60*i/(this._getBpm()*this._getPPQ()))}},{key:"_beatsToUnits",value:function(t){return 1/i(sr)(i(mr)(n.prototype),"_beatsToUnits",this).call(this,t)}},{key:"_secondsToUnits",value:function(i){return 1/i}}],[{key:"A4",get:function(){return nc},set:function(i){oc(i)}},{key:"mtof",value:function(i){return cc(i)}},{key:"ftom",value:function(i){return ac(i)}}]),n}(sc),dc={cbb:-2,cb:-1,c:0,"c#":1,cx:2,dbb:0,db:1,d:2,"d#":3,dx:4,ebb:2,eb:3,e:4,"e#":5,ex:6,fbb:3,fb:4,f:5,"f#":6,fx:7,gbb:5,gb:6,g:7,"g#":8,gx:9,abb:7,ab:8,a:9,"a#":10,ax:11,bbb:9,bb:10,b:11,"b#":12,bx:13},mc=["C","C#","D","D#","E","F","F#","G","G#","A","A#","B"];var lc=function(t){"use strict";i(L)(n,t);var e=i(Z)(n);function n(){var t;return i(a)(this,n),(t=e.call.apply(e,[this].concat(Array.prototype.slice.call(arguments)))).name="TransportTime",t}return i(r)(n,[{key:"_now",value:function(){return this.context.transport.seconds}}]),n}(sc);var kc=function(t){"use strict";i(L)(n,t);var e=i(Z)(n);function n(){var t;i(a)(this,n),t=e.call(this);var o=Ar(n.getDefaults(),arguments,["context"]);return t.defaultContext?t.context=t.defaultContext:t.context=o.context,t}return i(r)(n,[{key:"now",value:function(){return this.context.currentTime+this.context.lookAhead}},{key:"immediate",value:function(){return this.context.currentTime}},{key:"sampleTime",get:function(){return 1/this.context.sampleRate}},{key:"blockTime",get:function(){return 128/this.context.sampleRate}},{key:"toSeconds",value:function(i){return new sc(this.context,i).toSeconds()}},{key:"toFrequency",value:function(i){return new uc(this.context,i).toFrequency()}},{key:"toTicks",value:function(i){return new lc(this.context,i).toTicks()}},{key:"_getPartialProperties",value:function(i){var t=this.get();return Object.keys(t).forEach((function(e){Xa(i[e])&&delete t[e]})),t}},{key:"get",value:function(){var i=this,t=this.constructor.getDefaults();return Object.keys(t).forEach((function(e){if(Reflect.has(i,e)){var o=i[e];Ha(o)&&Ha(o.value)&&Ha(o.setValueAtTime)?t[e]=o.value:o instanceof n?t[e]=o._getPartialProperties(t[e]):ir(o)||$a(o)||tr(o)||Ka(o)?t[e]=o:delete t[e]}})),t}},{key:"set",value:function(i){var t=this;return Object.keys(i).forEach((function(e){Reflect.has(t,e)&&Ha(t[e])&&(t[e]&&Ha(t[e].value)&&Ha(t[e].setValueAtTime)?t[e].value!==i[e]&&(t[e].value=i[e]):t[e]instanceof n?t[e].set(i[e]):t[e]=i[e])})),this}}],[{key:"getDefaults",value:function(){return{context:Hr()}}}]),n}(br),vc=function(t){"use strict";i(L)(n,t);var e=i(Z)(n);function n(){var t;i(a)(this,n),(t=e.call(this,Ar(n.getDefaults(),arguments,["param","units","convert"]))).name="Param",t.overridden=!1,t._minOutput=1e-7;var o=Ar(n.getDefaults(),arguments,["param","units","convert"]);for(La(Ha(o.param)&&(yr(o.param)||o.param instanceof n),"param must be an AudioParam");!yr(o.param);)o.param=o.param._param;return t._swappable=!!Ha(o.swappable)&&o.swappable,t._swappable?(t.input=t.context.createGain(),t._param=o.param,t.input.connect(t._param)):t._param=t.input=o.param,t._events=new Br(1e3),t._initialValue=t._param.defaultValue,t.units=o.units,t.convert=o.convert,t._minValue=o.minValue,t._maxValue=o.maxValue,Ha(o.value)&&o.value!==t._toType(t._initialValue)&&t.setValueAtTime(o.value,0),t}return i(r)(n,[{key:"value",get:function(){var i=this.now();return this.getValueAtTime(i)},set:function(i){this.cancelScheduledValues(this.now()),this.setValueAtTime(i,this.now())}},{key:"minValue",get:function(){return Ha(this._minValue)?this._minValue:"time"===this.units||"frequency"===this.units||"normalRange"===this.units||"positive"===this.units||"transportTime"===this.units||"ticks"===this.units||"bpm"===this.units||"hertz"===this.units||"samples"===this.units?0:"audioRange"===this.units?-1:"decibels"===this.units?-1/0:this._param.minValue}},{key:"maxValue",get:function(){return Ha(this._maxValue)?this._maxValue:"normalRange"===this.units||"audioRange"===this.units?1:this._param.maxValue}},{key:"_is",value:function(i,t){return this.units===t}},{key:"_assertRange",value:function(i){return Ha(this.maxValue)&&Ha(this.minValue)&&Wa(i,this._fromType(this.minValue),this._fromType(this.maxValue)),i}},{key:"_fromType",value:function(i){return this.convert&&!this.overridden?this._is(i,"time")?this.toSeconds(i):this._is(i,"decibels")?ic(i):this._is(i,"frequency")?this.toFrequency(i):i:this.overridden?0:i}},{key:"_toType",value:function(i){return this.convert&&"decibels"===this.units?tc(i):i}},{key:"setValueAtTime",value:function(i,t){var e=this.toSeconds(t),n=this._fromType(i);return La(isFinite(n)&&isFinite(e),"Invalid argument(s) to setValueAtTime: ".concat(JSON.stringify(i),", ").concat(JSON.stringify(t))),this._assertRange(n),this.log(this.units,"setValueAtTime",i,e),this._events.add({time:e,type:"setValueAtTime",value:n}),this._param.setValueAtTime(n,e),this}},{key:"getValueAtTime",value:function(i){var t=Math.max(this.toSeconds(i),0),e=this._events.getAfter(t),n=this._events.get(t),o=this._initialValue;if(null===n)o=this._initialValue;else if("setTargetAtTime"!==n.type||null!==e&&"setValueAtTime"!==e.type)if(null===e)o=n.value;else if("linearRampToValueAtTime"===e.type||"exponentialRampToValueAtTime"===e.type){var a=n.value;if("setTargetAtTime"===n.type){var r=this._events.getBefore(n.time);a=null===r?this._initialValue:r.value}o="linearRampToValueAtTime"===e.type?this._linearInterpolate(n.time,a,e.time,e.value,t):this._exponentialInterpolate(n.time,a,e.time,e.value,t)}else o=n.value;else{var c,s=this._events.getBefore(n.time);c=null===s?this._initialValue:s.value,"setTargetAtTime"===n.type&&(o=this._exponentialApproach(n.time,c,n.value,n.constant,t))}return this._toType(o)}},{key:"setRampPoint",value:function(i){i=this.toSeconds(i);var t=this.getValueAtTime(i);return this.cancelAndHoldAtTime(i),0===this._fromType(t)&&(t=this._toType(this._minOutput)),this.setValueAtTime(t,i),this}},{key:"linearRampToValueAtTime",value:function(i,t){var e=this._fromType(i),n=this.toSeconds(t);return La(isFinite(e)&&isFinite(n),"Invalid argument(s) to linearRampToValueAtTime: ".concat(JSON.stringify(i),", ").concat(JSON.stringify(t))),this._assertRange(e),this._events.add({time:n,type:"linearRampToValueAtTime",value:e}),this.log(this.units,"linearRampToValueAtTime",i,n),this._param.linearRampToValueAtTime(e,n),this}},{key:"exponentialRampToValueAtTime",value:function(i,t){var e=this._fromType(i);e=Sr(e,0)?this._minOutput:e,this._assertRange(e);var n=this.toSeconds(t);return La(isFinite(e)&&isFinite(n),"Invalid argument(s) to exponentialRampToValueAtTime: ".concat(JSON.stringify(i),", ").concat(JSON.stringify(t))),this._events.add({time:n,type:"exponentialRampToValueAtTime",value:e}),this.log(this.units,"exponentialRampToValueAtTime",i,n),this._param.exponentialRampToValueAtTime(e,n),this}},{key:"exponentialRampTo",value:function(i,t,e){return e=this.toSeconds(e),this.setRampPoint(e),this.exponentialRampToValueAtTime(i,e+this.toSeconds(t)),this}},{key:"linearRampTo",value:function(i,t,e){return e=this.toSeconds(e),this.setRampPoint(e),this.linearRampToValueAtTime(i,e+this.toSeconds(t)),this}},{key:"targetRampTo",value:function(i,t,e){return e=this.toSeconds(e),this.setRampPoint(e),this.exponentialApproachValueAtTime(i,e,t),this}},{key:"exponentialApproachValueAtTime",value:function(i,t,e){t=this.toSeconds(t),e=this.toSeconds(e);var n=Math.log(e+1)/Math.log(200);return this.setTargetAtTime(i,t,n),this.cancelAndHoldAtTime(t+.9*e),this.linearRampToValueAtTime(i,t+e),this}},{key:"setTargetAtTime",value:function(i,t,e){var n=this._fromType(i);La(isFinite(e)&&e>0,"timeConstant must be a number greater than 0");var o=this.toSeconds(t);return this._assertRange(n),La(isFinite(n)&&isFinite(o),"Invalid argument(s) to setTargetAtTime: ".concat(JSON.stringify(i),", ").concat(JSON.stringify(t))),this._events.add({constant:e,time:o,type:"setTargetAtTime",value:n}),this.log(this.units,"setTargetAtTime",i,o,e),this._param.setTargetAtTime(n,o,e),this}},{key:"setValueCurveAtTime",value:function(i,t,e){var n=arguments.length>3&&void 0!==arguments[3]?arguments[3]:1;e=this.toSeconds(e),t=this.toSeconds(t);var o=this._fromType(i[0])*n;this.setValueAtTime(this._toType(o),t);for(var a=e/(i.length-1),r=1;r<i.length;r++){var c=this._fromType(i[r])*n;this.linearRampToValueAtTime(this._toType(c),t+r*a)}return this}},{key:"cancelScheduledValues",value:function(i){var t=this.toSeconds(i);return La(isFinite(t),"Invalid argument to cancelScheduledValues: ".concat(JSON.stringify(i))),this._events.cancel(t),this._param.cancelScheduledValues(t),this.log(this.units,"cancelScheduledValues",t),this}},{key:"cancelAndHoldAtTime",value:function(i){var t=this.toSeconds(i),e=this._fromType(this.getValueAtTime(t));La(isFinite(t),"Invalid argument to cancelAndHoldAtTime: ".concat(JSON.stringify(i))),this.log(this.units,"cancelAndHoldAtTime",t,"value="+e);var n=this._events.get(t),o=this._events.getAfter(t);return n&&Sr(n.time,t)?o?(this._param.cancelScheduledValues(o.time),this._events.cancel(o.time)):(this._param.cancelAndHoldAtTime(t),this._events.cancel(t+this.sampleTime)):o&&(this._param.cancelScheduledValues(o.time),this._events.cancel(o.time),"linearRampToValueAtTime"===o.type?this.linearRampToValueAtTime(this._toType(e),t):"exponentialRampToValueAtTime"===o.type&&this.exponentialRampToValueAtTime(this._toType(e),t)),this._events.add({time:t,type:"setValueAtTime",value:e}),this._param.setValueAtTime(e,t),this}},{key:"rampTo",value:function(i){var t=arguments.length>1&&void 0!==arguments[1]?arguments[1]:.1,e=arguments.length>2?arguments[2]:void 0;return"frequency"===this.units||"bpm"===this.units||"decibels"===this.units?this.exponentialRampTo(i,t,e):this.linearRampTo(i,t,e),this}},{key:"apply",value:function(i){var t=this.context.currentTime;i.setValueAtTime(this.getValueAtTime(t),t);var e=this._events.get(t);if(e&&"setTargetAtTime"===e.type)for(var n=this._events.getAfter(e.time),o=n?n.time:t+2,a=(o-t)/10,r=t;r<o;r+=a)i.linearRampToValueAtTime(this.getValueAtTime(r),r);return this._events.forEachAfter(this.context.currentTime,(function(t){"cancelScheduledValues"===t.type?i.cancelScheduledValues(t.time):"setTargetAtTime"===t.type?i.setTargetAtTime(t.value,t.time,t.constant):i[t.type](t.value,t.time)})),this}},{key:"setParam",value:function(i){La(this._swappable,"The Param must be assigned as 'swappable' in the constructor");var t=this.input;return t.disconnect(this._param),this.apply(i),this._param=i,t.connect(this._param),this}},{key:"dispose",value:function(){return i(sr)(i(mr)(n.prototype),"dispose",this).call(this),this._events.dispose(),this}},{key:"defaultValue",get:function(){return this._toType(this._param.defaultValue)}},{key:"_exponentialApproach",value:function(i,t,e,n,o){return e+(t-e)*Math.exp(-(o-i)/n)}},{key:"_linearInterpolate",value:function(i,t,e,n,o){return t+(o-i)/(e-i)*(n-t)}},{key:"_exponentialInterpolate",value:function(i,t,e,n,o){return t*Math.pow(n/t,(o-i)/(e-i))}}],[{key:"getDefaults",value:function(){return Object.assign(kc.getDefaults(),{convert:!0,units:"number"})}}]),n}(kc),yc=function(t){"use strict";i(L)(n,t);var e=i(Z)(n);function n(){var t;return i(a)(this,n),(t=e.call.apply(e,[this].concat(Array.prototype.slice.call(arguments)))).name="ToneAudioNode",t._internalChannels=[],t}return i(r)(n,[{key:"numberOfInputs",get:function(){return Ha(this.input)?yr(this.input)||this.input instanceof vc?1:this.input.numberOfInputs:0}},{key:"numberOfOutputs",get:function(){return Ha(this.output)?this.output.numberOfOutputs:0}},{key:"_isAudioNode",value:function(i){return Ha(i)&&(i instanceof n||hr(i))}},{key:"_getInternalNodes",value:function(){var i=this._internalChannels.slice(0);return this._isAudioNode(this.input)&&i.push(this.input),this._isAudioNode(this.output)&&this.input!==this.output&&i.push(this.output),i}},{key:"_setChannelProperties",value:function(i){this._getInternalNodes().forEach((function(t){t.channelCount=i.channelCount,t.channelCountMode=i.channelCountMode,t.channelInterpretation=i.channelInterpretation}))}},{key:"_getChannelProperties",value:function(){var i=this._getInternalNodes();La(i.length>0,"ToneAudioNode does not have any internal nodes");var t=i[0];return{channelCount:t.channelCount,channelCountMode:t.channelCountMode,channelInterpretation:t.channelInterpretation}}},{key:"channelCount",get:function(){return this._getChannelProperties().channelCount},set:function(i){var t=this._getChannelProperties();this._setChannelProperties(Object.assign(t,{channelCount:i}))}},{key:"channelCountMode",get:function(){return this._getChannelProperties().channelCountMode},set:function(i){var t=this._getChannelProperties();this._setChannelProperties(Object.assign(t,{channelCountMode:i}))}},{key:"channelInterpretation",get:function(){return this._getChannelProperties().channelInterpretation},set:function(i){var t=this._getChannelProperties();this._setChannelProperties(Object.assign(t,{channelInterpretation:i}))}},{key:"connect",value:function(i){var t=arguments.length>1&&void 0!==arguments[1]?arguments[1]:0,e=arguments.length>2&&void 0!==arguments[2]?arguments[2]:0;return Tc(this,i,t,e),this}},{key:"toDestination",value:function(){return this.connect(this.context.destination),this}},{key:"toMaster",value:function(){return Za("toMaster() has been renamed toDestination()"),this.toDestination()}},{key:"disconnect",value:function(i){var t=arguments.length>1&&void 0!==arguments[1]?arguments[1]:0,e=arguments.length>2&&void 0!==arguments[2]?arguments[2]:0;return fc(this,i,t,e),this}},{key:"chain",value:function(){for(var t=arguments.length,e=new Array(t),n=0;n<t;n++)e[n]=arguments[n];return hc.apply(void 0,[this].concat(i(ki)(e))),this}},{key:"fan",value:function(){for(var i=arguments.length,t=new Array(i),e=0;e<i;e++)t[e]=arguments[e];var n=this;return t.forEach((function(i){return n.connect(i)})),this}},{key:"dispose",value:function(){return i(sr)(i(mr)(n.prototype),"dispose",this).call(this),Ha(this.input)&&(this.input instanceof n?this.input.dispose():hr(this.input)&&this.input.disconnect()),Ha(this.output)&&(this.output instanceof n?this.output.dispose():hr(this.output)&&this.output.disconnect()),this._internalChannels=[],this}}]),n}(kc);function hc(){for(var i=arguments.length,t=new Array(i),e=0;e<i;e++)t[e]=arguments[e];var n=t.shift();t.reduce((function(i,t){return i instanceof yc?i.connect(t):hr(i)&&Tc(i,t),t}),n)}function Tc(i,t){var e=arguments.length>2&&void 0!==arguments[2]?arguments[2]:0,n=arguments.length>3&&void 0!==arguments[3]?arguments[3]:0;for(La(Ha(i),"Cannot connect from undefined node"),La(Ha(t),"Cannot connect to undefined node"),(t instanceof yc||hr(t))&&La(t.numberOfInputs>0,"Cannot connect to node with no inputs"),La(i.numberOfOutputs>0,"Cannot connect from node with no outputs");t instanceof yc||t instanceof vc;)Ha(t.input)&&(t=t.input);for(;i instanceof yc;)Ha(i.output)&&(i=i.output);yr(t)?i.connect(t,e):i.connect(t,e,n)}function fc(i,t){var e=arguments.length>2&&void 0!==arguments[2]?arguments[2]:0,n=arguments.length>3&&void 0!==arguments[3]?arguments[3]:0;if(Ha(t))for(;t instanceof yc;)t=t.input;for(;!hr(i);)Ha(i.output)&&(i=i.output);yr(t)?i.disconnect(t,e):hr(t)?i.disconnect(t,e,n):i.disconnect()}mr=o("jlIh9"),si=o("kumvF"),mr=o("jlIh9");var pc=function(t){"use strict";i(L)(n,t);var e=i(Z)(n);function n(){var t;i(a)(this,n),(t=e.call(this,Ar(n.getDefaults(),arguments,["gain","units"]))).name="Gain",t._gainNode=t.context.createGain(),t.input=t._gainNode,t.output=t._gainNode;var o=Ar(n.getDefaults(),arguments,["gain","units"]);return t.gain=new vc({context:t.context,convert:o.convert,param:t._gainNode.gain,units:o.units,value:o.gain,minValue:o.minValue,maxValue:o.maxValue}),Lr(i(si)(t),"gain"),t}return i(r)(n,[{key:"dispose",value:function(){return i(sr)(i(mr)(n.prototype),"dispose",this).call(this),this._gainNode.disconnect(),this.gain.dispose(),this}}],[{key:"getDefaults",value:function(){return Object.assign(yc.getDefaults(),{convert:!0,gain:1,units:"gain"})}}]),n}(yc),gc=function(t){"use strict";i(L)(n,t);var e=i(Z)(n);function n(t){var o;return i(a)(this,n),(o=e.call(this,t)).onended=Ur,o._startTime=-1,o._stopTime=-1,o._timeout=-1,o.output=new pc({context:o.context,gain:0}),o._gainNode=o.output,o.getStateAtTime=function(i){var t=this.toSeconds(i);return-1!==this._startTime&&t>=this._startTime&&(-1===this._stopTime||t<=this._stopTime)?"started":"stopped"},o._fadeIn=t.fadeIn,o._fadeOut=t.fadeOut,o._curve=t.curve,o.onended=t.onended,o}return i(r)(n,[{key:"_startGain",value:function(i){var t=arguments.length>1&&void 0!==arguments[1]?arguments[1]:1;La(-1===this._startTime,"Source cannot be started more than once");var e=this.toSeconds(this._fadeIn);return this._startTime=i+e,this._startTime=Math.max(this._startTime,this.context.currentTime),e>0?(this._gainNode.gain.setValueAtTime(0,i),"linear"===this._curve?this._gainNode.gain.linearRampToValueAtTime(t,i+e):this._gainNode.gain.exponentialApproachValueAtTime(t,i,e)):this._gainNode.gain.setValueAtTime(t,i),this}},{key:"stop",value:function(i){return this.log("stop",i),this._stopGain(this.toSeconds(i)),this}},{key:"_stopGain",value:function(i){var t=this;La(-1!==this._startTime,"'start' must be called before 'stop'"),this.cancelStop();var e=this.toSeconds(this._fadeOut);return this._stopTime=this.toSeconds(i)+e,this._stopTime=Math.max(this._stopTime,this.context.currentTime),e>0?"linear"===this._curve?this._gainNode.gain.linearRampTo(0,e,i):this._gainNode.gain.targetRampTo(0,e,i):(this._gainNode.gain.cancelAndHoldAtTime(i),this._gainNode.gain.setValueAtTime(0,i)),this.context.clearTimeout(this._timeout),this._timeout=this.context.setTimeout((function(){var i="exponential"===t._curve?2*e:0;t._stopSource(t.now()+i),t._onended()}),this._stopTime-this.context.currentTime),this}},{key:"_onended",value:function(){if(this.onended!==Ur&&(this.onended(this),this.onended=Ur,!this.context.isOffline)){var i=this,t=function(){return i.dispose()};void 0!==window.requestIdleCallback?window.requestIdleCallback(t):setTimeout(t,1e3)}}},{key:"state",get:function(){return this.getStateAtTime(this.now())}},{key:"cancelStop",value:function(){return this.log("cancelStop"),La(-1!==this._startTime,"Source is not started"),this._gainNode.gain.cancelScheduledValues(this._startTime+this.sampleTime),this.context.clearTimeout(this._timeout),this._stopTime=-1,this}},{key:"dispose",value:function(){return i(sr)(i(mr)(n.prototype),"dispose",this).call(this),this._gainNode.disconnect(),this}}],[{key:"getDefaults",value:function(){return Object.assign(yc.getDefaults(),{curve:"linear",fadeIn:0,fadeOut:0,onended:Ur})}}]),n}(yc),_c=function(t){"use strict";i(L)(n,t);var e=i(Z)(n);function n(){var t;i(a)(this,n),(t=e.call(this,Ar(n.getDefaults(),arguments,["url","onload"]))).name="ToneBufferSource",t._source=t.context.createBufferSource(),t._internalChannels=[t._source],t._sourceStarted=!1,t._sourceStopped=!1;var o=Ar(n.getDefaults(),arguments,["url","onload"]);return Tc(t._source,t._gainNode),t._source.onended=function(){return t._stopSource()},t.playbackRate=new vc({context:t.context,param:t._source.playbackRate,units:"positive",value:o.playbackRate}),t.loop=o.loop,t.loopStart=o.loopStart,t.loopEnd=o.loopEnd,t._buffer=new zr(o.url,o.onload,o.onerror),t._internalChannels.push(t._source),t}return i(r)(n,[{key:"fadeIn",get:function(){return this._fadeIn},set:function(i){this._fadeIn=i}},{key:"fadeOut",get:function(){return this._fadeOut},set:function(i){this._fadeOut=i}},{key:"curve",get:function(){return this._curve},set:function(i){this._curve=i}},{key:"start",value:function(i,t,e){var n=arguments.length>3&&void 0!==arguments[3]?arguments[3]:1;La(this.buffer.loaded,"buffer is either not set or not loaded");var o=this.toSeconds(i);this._startGain(o,n),t=this.loop?Cr(t,this.loopStart):Cr(t,0);var a=Math.max(this.toSeconds(t),0);if(this.loop){var r=this.toSeconds(this.loopEnd)||this.buffer.duration,c=this.toSeconds(this.loopStart),s=r-c;Fr(a,r)&&(a=(a-c)%s+c),Sr(a,this.buffer.duration)&&(a=0)}if(this._source.buffer=this.buffer.get(),this._source.loopEnd=this.toSeconds(this.loopEnd)||this.buffer.duration,Er(a,this.buffer.duration)&&(this._sourceStarted=!0,this._source.start(o,a)),Ha(e)){var u=this.toSeconds(e);u=Math.max(u,0),this.stop(o+u)}return this}},{key:"_stopSource",value:function(i){!this._sourceStopped&&this._sourceStarted&&(this._sourceStopped=!0,this._source.stop(this.toSeconds(i)),this._onended())}},{key:"loopStart",get:function(){return this._source.loopStart},set:function(i){this._source.loopStart=this.toSeconds(i)}},{key:"loopEnd",get:function(){return this._source.loopEnd},set:function(i){this._source.loopEnd=this.toSeconds(i)}},{key:"buffer",get:function(){return this._buffer},set:function(i){this._buffer.set(i)}},{key:"loop",get:function(){return this._source.loop},set:function(i){this._source.loop=i,this._sourceStarted&&this.cancelStop()}},{key:"dispose",value:function(){return i(sr)(i(mr)(n.prototype),"dispose",this).call(this),this._source.onended=null,this._source.disconnect(),this._buffer.dispose(),this.playbackRate.dispose(),this}}],[{key:"getDefaults",value:function(){return Object.assign(gc.getDefaults(),{url:new zr,loop:!1,loopEnd:0,loopStart:0,onload:Ur,onerror:Ur,playbackRate:1})}}]),n}(gc),Ac=(si=o("kumvF"),mr=o("jlIh9"),function(t){"use strict";i(L)(n,t);var e=i(Z)(n);function n(){var t;return i(a)(this,n),(t=e.call.apply(e,[this].concat(Array.prototype.slice.call(arguments)))).name="Draw",t.expiration=.25,t.anticipation=.008,t._events=new Br,t._boundDrawLoop=t._drawLoop.bind(i(si)(t)),t._animationFrame=-1,t}return i(r)(n,[{key:"schedule",value:function(i,t){return this._events.add({callback:i,time:this.toSeconds(t)}),1===this._events.length&&(this._animationFrame=requestAnimationFrame(this._boundDrawLoop)),this}},{key:"cancel",value:function(i){return this._events.cancel(this.toSeconds(i)),this}},{key:"_drawLoop",value:function(){for(var i=this.context.currentTime;this._events.length&&this._events.peek().time-this.anticipation<=i;){var t=this._events.shift();t&&i-t.time<=this.expiration&&t.callback()}this._events.length>0&&(this._animationFrame=requestAnimationFrame(this._boundDrawLoop))}},{key:"dispose",value:function(){return i(sr)(i(mr)(n.prototype),"dispose",this).call(this),this._events.dispose(),cancelAnimationFrame(this._animationFrame),this}}]),n}(kc));Ir((function(i){i.draw=new Ac({context:i})})),Rr((function(i){i.draw.dispose()}));si=o("kumvF"),mr=o("jlIh9");var Cc=function(t){"use strict";i(L)(n,t);var e=i(Z)(n);function n(){var t,o=arguments.length>0&&void 0!==arguments[0]?arguments[0]:"stopped";return i(a)(this,n),(t=e.call(this)).name="StateTimeline",t._initial=o,t.setStateAtTime(t._initial,0),t}return i(r)(n,[{key:"getValueAtTime",value:function(i){var t=this.get(i);return null!==t?t.state:this._initial}},{key:"setStateAtTime",value:function(i,t,e){return Wa(t,0),this.add(Object.assign({},e,{state:i,time:t})),this}},{key:"getLastState",value:function(i,t){for(var e=this._search(t);e>=0;e--){var n=this._timeline[e];if(n.state===i)return n}}},{key:"getNextState",value:function(i,t){var e=this._search(t);if(-1!==e)for(var n=e;n<this._timeline.length;n++){var o=this._timeline[n];if(o.state===i)return o}}}]),n}(Br),xc=(si=o("kumvF"),mr=o("jlIh9"),mr=o("jlIh9"),mr=o("jlIh9"),mr=o("jlIh9"),function(t){"use strict";i(L)(n,t);var e=i(Z)(n);function n(){var t;i(a)(this,n),(t=e.call(this,Ar(n.getDefaults(),arguments,["offset"]))).name="ToneConstantSource",t._source=t.context.createConstantSource();var o=Ar(n.getDefaults(),arguments,["offset"]);return Tc(t._source,t._gainNode),t.offset=new vc({context:t.context,convert:o.convert,param:t._source.offset,units:o.units,value:o.offset,minValue:o.minValue,maxValue:o.maxValue}),t}return i(r)(n,[{key:"start",value:function(i){var t=this.toSeconds(i);return this.log("start",t),this._startGain(t),this._source.start(t),this}},{key:"_stopSource",value:function(i){this._source.stop(i)}},{key:"dispose",value:function(){return i(sr)(i(mr)(n.prototype),"dispose",this).call(this),"started"===this.state&&this.stop(),this._source.disconnect(),this.offset.dispose(),this}}],[{key:"getDefaults",value:function(){return Object.assign(gc.getDefaults(),{convert:!0,offset:1,units:"number"})}}]),n}(gc)),bc=function(t){"use strict";i(L)(n,t);var e=i(Z)(n);function n(){var t;i(a)(this,n),(t=e.call(this,Ar(n.getDefaults(),arguments,["value","units"]))).name="Signal",t.override=!0;var o=Ar(n.getDefaults(),arguments,["value","units"]);return t.output=t._constantSource=new xc({context:t.context,convert:o.convert,offset:o.value,units:o.units,minValue:o.minValue,maxValue:o.maxValue}),t._constantSource.start(0),t.input=t._param=t._constantSource.offset,t}return i(r)(n,[{key:"connect",value:function(i){var t=arguments.length>1&&void 0!==arguments[1]?arguments[1]:0,e=arguments.length>2&&void 0!==arguments[2]?arguments[2]:0;return Dc(this,i,t,e),this}},{key:"dispose",value:function(){return i(sr)(i(mr)(n.prototype),"dispose",this).call(this),this._param.dispose(),this._constantSource.dispose(),this}},{key:"setValueAtTime",value:function(i,t){return this._param.setValueAtTime(i,t),this}},{key:"getValueAtTime",value:function(i){return this._param.getValueAtTime(i)}},{key:"setRampPoint",value:function(i){return this._param.setRampPoint(i),this}},{key:"linearRampToValueAtTime",value:function(i,t){return this._param.linearRampToValueAtTime(i,t),this}},{key:"exponentialRampToValueAtTime",value:function(i,t){return this._param.exponentialRampToValueAtTime(i,t),this}},{key:"exponentialRampTo",value:function(i,t,e){return this._param.exponentialRampTo(i,t,e),this}},{key:"linearRampTo",value:function(i,t,e){return this._param.linearRampTo(i,t,e),this}},{key:"targetRampTo",value:function(i,t,e){return this._param.targetRampTo(i,t,e),this}},{key:"exponentialApproachValueAtTime",value:function(i,t,e){return this._param.exponentialApproachValueAtTime(i,t,e),this}},{key:"setTargetAtTime",value:function(i,t,e){return this._param.setTargetAtTime(i,t,e),this}},{key:"setValueCurveAtTime",value:function(i,t,e,n){return this._param.setValueCurveAtTime(i,t,e,n),this}},{key:"cancelScheduledValues",value:function(i){return this._param.cancelScheduledValues(i),this}},{key:"cancelAndHoldAtTime",value:function(i){return this._param.cancelAndHoldAtTime(i),this}},{key:"rampTo",value:function(i,t,e){return this._param.rampTo(i,t,e),this}},{key:"value",get:function(){return this._param.value},set:function(i){this._param.value=i}},{key:"convert",get:function(){return this._param.convert},set:function(i){this._param.convert=i}},{key:"units",get:function(){return this._param.units}},{key:"overridden",get:function(){return this._param.overridden},set:function(i){this._param.overridden=i}},{key:"maxValue",get:function(){return this._param.maxValue}},{key:"minValue",get:function(){return this._param.minValue}},{key:"apply",value:function(i){return this._param.apply(i),this}}],[{key:"getDefaults",value:function(){return Object.assign(yc.getDefaults(),{convert:!0,units:"number",value:0})}}]),n}(yc);function Dc(i,t,e,n){(t instanceof vc||yr(t)||t instanceof bc&&t.override)&&(t.cancelScheduledValues(0),t.setValueAtTime(0,0),t instanceof bc&&(t.overridden=!0)),Tc(i,t,e,n)}mr=o("jlIh9");var wc=function(t){"use strict";i(L)(n,t);var e=i(Z)(n);function n(){var t;i(a)(this,n),(t=e.call(this,Ar(n.getDefaults(),arguments,["value"]))).name="TickParam",t._events=new Br(1/0),t._multiplier=1;var o=Ar(n.getDefaults(),arguments,["value"]);return t._multiplier=o.multiplier,t._events.cancel(0),t._events.add({ticks:0,time:0,type:"setValueAtTime",value:t._fromType(o.value)}),t.setValueAtTime(o.value,0),t}return i(r)(n,[{key:"setTargetAtTime",value:function(i,t,e){t=this.toSeconds(t),this.setRampPoint(t);for(var n=this._fromType(i),o=this._events.get(t),a=Math.round(Math.max(1/e,1)),r=0;r<=a;r++){var c=e*r+t,s=this._exponentialApproach(o.time,o.value,n,e,c);this.linearRampToValueAtTime(this._toType(s),c)}return this}},{key:"setValueAtTime",value:function(t,e){var o=this.toSeconds(e);i(sr)(i(mr)(n.prototype),"setValueAtTime",this).call(this,t,e);var a=this._events.get(o),r=this._events.previousEvent(a),c=this._getTicksUntilEvent(r,o);return a.ticks=Math.max(c,0),this}},{key:"linearRampToValueAtTime",value:function(t,e){var o=this.toSeconds(e);i(sr)(i(mr)(n.prototype),"linearRampToValueAtTime",this).call(this,t,e);var a=this._events.get(o),r=this._events.previousEvent(a),c=this._getTicksUntilEvent(r,o);return a.ticks=Math.max(c,0),this}},{key:"exponentialRampToValueAtTime",value:function(i,t){t=this.toSeconds(t);for(var e=this._fromType(i),n=this._events.get(t),o=Math.round(Math.max(10*(t-n.time),1)),a=(t-n.time)/o,r=0;r<=o;r++){var c=a*r+n.time,s=this._exponentialInterpolate(n.time,n.value,t,e,c);this.linearRampToValueAtTime(this._toType(s),c)}return this}},{key:"_getTicksUntilEvent",value:function(i,t){if(null===i)i={ticks:0,time:0,type:"setValueAtTime",value:0};else if(Xa(i.ticks)){var e=this._events.previousEvent(i);i.ticks=this._getTicksUntilEvent(e,i.time)}var n=this._fromType(this.getValueAtTime(i.time)),o=this._fromType(this.getValueAtTime(t)),a=this._events.get(t);return a&&a.time===t&&"setValueAtTime"===a.type&&(o=this._fromType(this.getValueAtTime(t-this.sampleTime))),.5*(t-i.time)*(n+o)+i.ticks}},{key:"getTicksAtTime",value:function(i){var t=this.toSeconds(i),e=this._events.get(t);return Math.max(this._getTicksUntilEvent(e,t),0)}},{key:"getDurationOfTicks",value:function(i,t){var e=this.toSeconds(t),n=this.getTicksAtTime(t);return this.getTimeOfTick(n+i)-e}},{key:"getTimeOfTick",value:function(i){var t=this._events.get(i,"ticks"),e=this._events.getAfter(i,"ticks");if(t&&t.ticks===i)return t.time;if(t&&e&&"linearRampToValueAtTime"===e.type&&t.value!==e.value){var n=this._fromType(this.getValueAtTime(t.time)),o=(this._fromType(this.getValueAtTime(e.time))-n)/(e.time-t.time),a=Math.sqrt(Math.pow(n,2)-2*o*(t.ticks-i)),r=(-n+a)/o;return(r>0?r:(-n-a)/o)+t.time}return t?0===t.value?1/0:t.time+(i-t.ticks)/t.value:i/this._initialValue}},{key:"ticksToTime",value:function(i,t){return this.getDurationOfTicks(i,t)}},{key:"timeToTicks",value:function(i,t){var e=this.toSeconds(t),n=this.toSeconds(i),o=this.getTicksAtTime(e);return this.getTicksAtTime(e+n)-o}},{key:"_fromType",value:function(t){return"bpm"===this.units&&this.multiplier?1/(60/t/this.multiplier):i(sr)(i(mr)(n.prototype),"_fromType",this).call(this,t)}},{key:"_toType",value:function(t){return"bpm"===this.units&&this.multiplier?t/this.multiplier*60:i(sr)(i(mr)(n.prototype),"_toType",this).call(this,t)}},{key:"multiplier",get:function(){return this._multiplier},set:function(i){var t=this.value;this._multiplier=i,this.cancelScheduledValues(0),this.setValueAtTime(t,0)}}],[{key:"getDefaults",value:function(){return Object.assign(vc.getDefaults(),{multiplier:1,units:"hertz",value:1})}}]),n}(vc),Fc=function(t){"use strict";i(L)(n,t);var e=i(Z)(n);function n(){var t;i(a)(this,n),(t=e.call(this,Ar(n.getDefaults(),arguments,["value"]))).name="TickSignal";var o=Ar(n.getDefaults(),arguments,["value"]);return t.input=t._param=new wc({context:t.context,convert:o.convert,multiplier:o.multiplier,param:t._constantSource.offset,units:o.units,value:o.value}),t}return i(r)(n,[{key:"ticksToTime",value:function(i,t){return this._param.ticksToTime(i,t)}},{key:"timeToTicks",value:function(i,t){return this._param.timeToTicks(i,t)}},{key:"getTimeOfTick",value:function(i){return this._param.getTimeOfTick(i)}},{key:"getDurationOfTicks",value:function(i,t){return this._param.getDurationOfTicks(i,t)}},{key:"getTicksAtTime",value:function(i){return this._param.getTicksAtTime(i)}},{key:"multiplier",get:function(){return this._param.multiplier},set:function(i){this._param.multiplier=i}},{key:"dispose",value:function(){return i(sr)(i(mr)(n.prototype),"dispose",this).call(this),this._param.dispose(),this}}],[{key:"getDefaults",value:function(){return Object.assign(bc.getDefaults(),{multiplier:1,units:"hertz",value:1})}}]),n}(bc),Ec=function(t){"use strict";i(L)(n,t);var e=i(Z)(n);function n(){var t;i(a)(this,n),(t=e.call(this,Ar(n.getDefaults(),arguments,["frequency"]))).name="TickSource",t._state=new Cc,t._tickOffset=new Br;var o=Ar(n.getDefaults(),arguments,["frequency"]);return t.frequency=new Fc({context:t.context,units:o.units,value:o.frequency}),Lr(i(si)(t),"frequency"),t._state.setStateAtTime("stopped",0),t.setTicksAtTime(0,0),t}return i(r)(n,[{key:"state",get:function(){return this.getStateAtTime(this.now())}},{key:"start",value:function(i,t){var e=this.toSeconds(i);return"started"!==this._state.getValueAtTime(e)&&(this._state.setStateAtTime("started",e),Ha(t)&&this.setTicksAtTime(t,e)),this}},{key:"stop",value:function(i){var t=this.toSeconds(i);if("stopped"===this._state.getValueAtTime(t)){var e=this._state.get(t);e&&e.time>0&&(this._tickOffset.cancel(e.time),this._state.cancel(e.time))}return this._state.cancel(t),this._state.setStateAtTime("stopped",t),this.setTicksAtTime(0,t),this}},{key:"pause",value:function(i){var t=this.toSeconds(i);return"started"===this._state.getValueAtTime(t)&&this._state.setStateAtTime("paused",t),this}},{key:"cancel",value:function(i){return i=this.toSeconds(i),this._state.cancel(i),this._tickOffset.cancel(i),this}},{key:"getTicksAtTime",value:function(i){var t=this,e=this.toSeconds(i),n=this._state.getLastState("stopped",e),o={state:"paused",time:e};this._state.add(o);var a=n,r=0;return this._state.forEachBetween(n.time,e+this.sampleTime,(function(i){var e=a.time,n=t._tickOffset.get(i.time);n&&n.time>=a.time&&(r=n.ticks,e=n.time),"started"===a.state&&"started"!==i.state&&(r+=t.frequency.getTicksAtTime(i.time)-t.frequency.getTicksAtTime(e)),a=i})),this._state.remove(o),r}},{key:"ticks",get:function(){return this.getTicksAtTime(this.now())},set:function(i){this.setTicksAtTime(i,this.now())}},{key:"seconds",get:function(){return this.getSecondsAtTime(this.now())},set:function(i){var t=this.now(),e=this.frequency.timeToTicks(i,t);this.setTicksAtTime(e,t)}},{key:"getSecondsAtTime",value:function(i){var t=this;i=this.toSeconds(i);var e=this._state.getLastState("stopped",i),n={state:"paused",time:i};this._state.add(n);var o=e,a=0;return this._state.forEachBetween(e.time,i+this.sampleTime,(function(i){var e=o.time,n=t._tickOffset.get(i.time);n&&n.time>=o.time&&(a=n.seconds,e=n.time),"started"===o.state&&"started"!==i.state&&(a+=i.time-e),o=i})),this._state.remove(n),a}},{key:"setTicksAtTime",value:function(i,t){return t=this.toSeconds(t),this._tickOffset.cancel(t),this._tickOffset.add({seconds:this.frequency.getDurationOfTicks(i,t),ticks:i,time:t}),this}},{key:"getStateAtTime",value:function(i){return i=this.toSeconds(i),this._state.getValueAtTime(i)}},{key:"getTimeOfTick",value:function(i){var t=arguments.length>1&&void 0!==arguments[1]?arguments[1]:this.now(),e=this._tickOffset.get(t),n=this._state.get(t),o=Math.max(e.time,n.time),a=this.frequency.getTicksAtTime(o)+i-e.ticks;return this.frequency.getTimeOfTick(a)}},{key:"forEachTickBetween",value:function(i,t,e){var n=this,o=this._state.get(i);this._state.forEachBetween(i,t,(function(t){o&&"started"===o.state&&"started"!==t.state&&n.forEachTickBetween(Math.max(o.time,i),t.time-n.sampleTime,e),o=t}));var a=null;if(o&&"started"===o.state){var r=Math.max(o.time,i),c=this.frequency.getTicksAtTime(r),s=c-this.frequency.getTicksAtTime(o.time),u=Math.ceil(s)-s;u=Sr(u,1)?0:u;for(var d=this.frequency.getTimeOfTick(c+u);d<t;){try{e(d,Math.round(this.getTicksAtTime(d)))}catch(i){a=i;break}d+=this.frequency.getDurationOfTicks(1,d)}}if(a)throw a;return this}},{key:"dispose",value:function(){return i(sr)(i(mr)(n.prototype),"dispose",this).call(this),this._state.dispose(),this._tickOffset.dispose(),this.frequency.dispose(),this}}],[{key:"getDefaults",value:function(){return Object.assign({frequency:1,units:"hertz"},kc.getDefaults())}}]),n}(kc),Sc=function(t){"use strict";i(L)(n,t);var e=i(Z)(n);function n(){var t;i(a)(this,n),(t=e.call(this,Ar(n.getDefaults(),arguments,["callback","frequency"]))).name="Clock",t.callback=Ur,t._lastUpdate=0,t._state=new Cc("stopped"),t._boundLoop=t._loop.bind(i(si)(t));var o=Ar(n.getDefaults(),arguments,["callback","frequency"]);return t.callback=o.callback,t._tickSource=new Ec({context:t.context,frequency:o.frequency,units:o.units}),t._lastUpdate=0,t.frequency=t._tickSource.frequency,Lr(i(si)(t),"frequency"),t._state.setStateAtTime("stopped",0),t.context.on("tick",t._boundLoop),t}return i(r)(n,[{key:"state",get:function(){return this._state.getValueAtTime(this.now())}},{key:"start",value:function(i,t){Ua(this.context);var e=this.toSeconds(i);return this.log("start",e),"started"!==this._state.getValueAtTime(e)&&(this._state.setStateAtTime("started",e),this._tickSource.start(e,t),e<this._lastUpdate&&this.emit("start",e,t)),this}},{key:"stop",value:function(i){var t=this.toSeconds(i);return this.log("stop",t),this._state.cancel(t),this._state.setStateAtTime("stopped",t),this._tickSource.stop(t),t<this._lastUpdate&&this.emit("stop",t),this}},{key:"pause",value:function(i){var t=this.toSeconds(i);return"started"===this._state.getValueAtTime(t)&&(this._state.setStateAtTime("paused",t),this._tickSource.pause(t),t<this._lastUpdate&&this.emit("pause",t)),this}},{key:"ticks",get:function(){return Math.ceil(this.getTicksAtTime(this.now()))},set:function(i){this._tickSource.ticks=i}},{key:"seconds",get:function(){return this._tickSource.seconds},set:function(i){this._tickSource.seconds=i}},{key:"getSecondsAtTime",value:function(i){return this._tickSource.getSecondsAtTime(i)}},{key:"setTicksAtTime",value:function(i,t){return this._tickSource.setTicksAtTime(i,t),this}},{key:"getTimeOfTick",value:function(i){var t=arguments.length>1&&void 0!==arguments[1]?arguments[1]:this.now();return this._tickSource.getTimeOfTick(i,t)}},{key:"getTicksAtTime",value:function(i){return this._tickSource.getTicksAtTime(i)}},{key:"nextTickTime",value:function(i,t){var e=this.toSeconds(t),n=this.getTicksAtTime(e);return this._tickSource.getTimeOfTick(n+i,e)}},{key:"_loop",value:function(){var i=this._lastUpdate,t=this.now();if(this._lastUpdate=t,this.log("loop",i,t),i!==t){var e=this;this._state.forEachBetween(i,t,(function(i){switch(i.state){case"started":var t=e._tickSource.getTicksAtTime(i.time);e.emit("start",i.time,t);break;case"stopped":0!==i.time&&e.emit("stop",i.time);break;case"paused":e.emit("pause",i.time)}})),this._tickSource.forEachTickBetween(i,t,(function(i,t){e.callback(i,t)}))}}},{key:"getStateAtTime",value:function(i){var t=this.toSeconds(i);return this._state.getValueAtTime(t)}},{key:"dispose",value:function(){return i(sr)(i(mr)(n.prototype),"dispose",this).call(this),this.context.off("tick",this._boundLoop),this._tickSource.dispose(),this._state.dispose(),this}}],[{key:"getDefaults",value:function(){return Object.assign(kc.getDefaults(),{callback:Ur,frequency:1,units:"hertz"})}}]),n}(kc);Vr.mixin(Sc);si=o("kumvF"),mr=o("jlIh9");mr=o("jlIh9");var Oc=function(t){"use strict";i(L)(n,t);var e=i(Z)(n);function n(){var t;return i(a)(this,n),(t=e.call.apply(e,[this].concat(Array.prototype.slice.call(arguments)))).name="MidiClass",t.defaultUnits="midi",t}return i(r)(n,[{key:"_frequencyToUnits",value:function(t){return ac(i(sr)(i(mr)(n.prototype),"_frequencyToUnits",this).call(this,t))}},{key:"_ticksToUnits",value:function(t){return ac(i(sr)(i(mr)(n.prototype),"_ticksToUnits",this).call(this,t))}},{key:"_beatsToUnits",value:function(t){return ac(i(sr)(i(mr)(n.prototype),"_beatsToUnits",this).call(this,t))}},{key:"_secondsToUnits",value:function(t){return ac(i(sr)(i(mr)(n.prototype),"_secondsToUnits",this).call(this,t))}},{key:"toMidi",value:function(){return this.valueOf()}},{key:"toFrequency",value:function(){return cc(this.toMidi())}},{key:"transpose",value:function(i){return new n(this.context,this.toMidi()+i)}}]),n}(uc);var Bc=function(t){"use strict";i(L)(n,t);var e=i(Z)(n);function n(){var t;return i(a)(this,n),(t=e.call.apply(e,[this].concat(Array.prototype.slice.call(arguments)))).name="Ticks",t.defaultUnits="i",t}return i(r)(n,[{key:"_now",value:function(){return this.context.transport.ticks}},{key:"_beatsToUnits",value:function(i){return this._getPPQ()*i}},{key:"_secondsToUnits",value:function(i){return Math.floor(i/(60/this._getBpm())*this._getPPQ())}},{key:"_ticksToUnits",value:function(i){return i}},{key:"toTicks",value:function(){return this.valueOf()}},{key:"toSeconds",value:function(){return this.valueOf()/this._getPPQ()*(60/this._getBpm())}}]),n}(lc);mr=o("jlIh9");var Mc=function(t){"use strict";i(L)(n,t);var e=i(Z)(n);function n(){var t;return i(a)(this,n),(t=e.call.apply(e,[this].concat(Array.prototype.slice.call(arguments)))).name="IntervalTimeline",t._root=null,t._length=0,t}return i(r)(n,[{key:"add",value:function(i){La(Ha(i.time),"Events must have a time property"),La(Ha(i.duration),"Events must have a duration parameter"),i.time=i.time.valueOf();var t=new Ic(i.time,i.time+i.duration,i);for(null===this._root?this._root=t:this._root.insert(t),this._length++;null!==t;)t.updateHeight(),t.updateMax(),this._rebalance(t),t=t.parent;return this}},{key:"remove",value:function(i){if(null!==this._root){var t=[];this._root.search(i.time,t);var e=!0,n=!1,o=void 0;try{for(var a,r=t[Symbol.iterator]();!(e=(a=r.next()).done);e=!0){var c=a.value;if(c.event===i){this._removeNode(c),this._length--;break}}}catch(i){n=!0,o=i}finally{try{e||null==r.return||r.return()}finally{if(n)throw o}}}return this}},{key:"length",get:function(){return this._length}},{key:"cancel",value:function(i){var t=this;return this.forEachFrom(i,(function(i){return t.remove(i)})),this}},{key:"_setRoot",value:function(i){this._root=i,null!==this._root&&(this._root.parent=null)}},{key:"_replaceNodeInParent",value:function(i,t){null!==i.parent?(i.isLeftChild()?i.parent.left=t:i.parent.right=t,this._rebalance(i.parent)):this._setRoot(t)}},{key:"_removeNode",value:function(i){if(null===i.left&&null===i.right)this._replaceNodeInParent(i,null);else if(null===i.right)this._replaceNodeInParent(i,i.left);else if(null===i.left)this._replaceNodeInParent(i,i.right);else{var t,e=null;if(i.getBalance()>0)if(null===i.left.right)(t=i.left).right=i.right,e=t;else{for(t=i.left.right;null!==t.right;)t=t.right;t.parent&&(t.parent.right=t.left,e=t.parent,t.left=i.left,t.right=i.right)}else if(null===i.right.left)(t=i.right).left=i.left,e=t;else{for(t=i.right.left;null!==t.left;)t=t.left;t.parent&&(t.parent.left=t.right,e=t.parent,t.left=i.left,t.right=i.right)}null!==i.parent?i.isLeftChild()?i.parent.left=t:i.parent.right=t:this._setRoot(t),e&&this._rebalance(e)}i.dispose()}},{key:"_rotateLeft",value:function(i){var t=i.parent,e=i.isLeftChild(),n=i.right;n&&(i.right=n.left,n.left=i),null!==t?e?t.left=n:t.right=n:this._setRoot(n)}},{key:"_rotateRight",value:function(i){var t=i.parent,e=i.isLeftChild(),n=i.left;n&&(i.left=n.right,n.right=i),null!==t?e?t.left=n:t.right=n:this._setRoot(n)}},{key:"_rebalance",value:function(i){var t=i.getBalance();t>1&&i.left?i.left.getBalance()<0?this._rotateLeft(i.left):this._rotateRight(i):t<-1&&i.right&&(i.right.getBalance()>0?this._rotateRight(i.right):this._rotateLeft(i))}},{key:"get",value:function(i){if(null!==this._root){var t=[];if(this._root.search(i,t),t.length>0){for(var e=t[0],n=1;n<t.length;n++)t[n].low>e.low&&(e=t[n]);return e.event}}return null}},{key:"forEach",value:function(i){if(null!==this._root){var t=[];this._root.traverse((function(i){return t.push(i)})),t.forEach((function(t){t.event&&i(t.event)}))}return this}},{key:"forEachAtTime",value:function(i,t){if(null!==this._root){var e=[];this._root.search(i,e),e.forEach((function(i){i.event&&t(i.event)}))}return this}},{key:"forEachFrom",value:function(i,t){if(null!==this._root){var e=[];this._root.searchAfter(i,e),e.forEach((function(i){i.event&&t(i.event)}))}return this}},{key:"dispose",value:function(){return i(sr)(i(mr)(n.prototype),"dispose",this).call(this),null!==this._root&&this._root.traverse((function(i){return i.dispose()})),this._root=null,this}}]),n}(br),Ic=function(){"use strict";function t(e,n,o){i(a)(this,t),this._left=null,this._right=null,this.parent=null,this.height=0,this.event=o,this.low=e,this.high=n,this.max=this.high}return i(r)(t,[{key:"insert",value:function(i){i.low<=this.low?null===this.left?this.left=i:this.left.insert(i):null===this.right?this.right=i:this.right.insert(i)}},{key:"search",value:function(i,t){i>this.max||(null!==this.left&&this.left.search(i,t),this.low<=i&&this.high>i&&t.push(this),this.low>i||null!==this.right&&this.right.search(i,t))}},{key:"searchAfter",value:function(i,t){this.low>=i&&(t.push(this),null!==this.left&&this.left.searchAfter(i,t)),null!==this.right&&this.right.searchAfter(i,t)}},{key:"traverse",value:function(i){i(this),null!==this.left&&this.left.traverse(i),null!==this.right&&this.right.traverse(i)}},{key:"updateHeight",value:function(){null!==this.left&&null!==this.right?this.height=Math.max(this.left.height,this.right.height)+1:null!==this.right?this.height=this.right.height+1:null!==this.left?this.height=this.left.height+1:this.height=0}},{key:"updateMax",value:function(){this.max=this.high,null!==this.left&&(this.max=Math.max(this.max,this.left.max)),null!==this.right&&(this.max=Math.max(this.max,this.right.max))}},{key:"getBalance",value:function(){var i=0;return null!==this.left&&null!==this.right?i=this.left.height-this.right.height:null!==this.left?i=this.left.height+1:null!==this.right&&(i=-(this.right.height+1)),i}},{key:"isLeftChild",value:function(){return null!==this.parent&&this.parent.left===this}},{key:"left",get:function(){return this._left},set:function(i){this._left=i,null!==i&&(i.parent=this),this.updateHeight(),this.updateMax()}},{key:"right",get:function(){return this._right},set:function(i){this._right=i,null!==i&&(i.parent=this),this.updateHeight(),this.updateMax()}},{key:"dispose",value:function(){this.parent=null,this._left=null,this._right=null,this.event=null}}]),t}(),Gc=(mr=o("jlIh9"),si=o("kumvF"),mr=o("jlIh9"),si=o("kumvF"),mr=o("jlIh9"),function(t){"use strict";i(L)(n,t);var e=i(Z)(n);function n(){var t;i(a)(this,n),(t=e.call(this,Ar(n.getDefaults(),arguments,["volume"]))).name="Volume";var o=Ar(n.getDefaults(),arguments,["volume"]);return t.input=t.output=new pc({context:t.context,gain:o.volume,units:"decibels"}),t.volume=t.output.gain,Lr(i(si)(t),"volume"),t._unmutedVolume=o.volume,t.mute=o.mute,t}return i(r)(n,[{key:"mute",get:function(){return this.volume.value===-1/0},set:function(i){!this.mute&&i?(this._unmutedVolume=this.volume.value,this.volume.value=-1/0):this.mute&&!i&&(this.volume.value=this._unmutedVolume)}},{key:"dispose",value:function(){return i(sr)(i(mr)(n.prototype),"dispose",this).call(this),this.input.dispose(),this.volume.dispose(),this}}],[{key:"getDefaults",value:function(){return Object.assign(yc.getDefaults(),{mute:!1,volume:0})}}]),n}(yc)),Rc=(mr=o("jlIh9"),function(t){"use strict";i(L)(n,t);var e=i(Z)(n);function n(){var t;i(a)(this,n),(t=e.call(this,Ar(n.getDefaults(),arguments))).name="Destination",t.input=new Gc({context:t.context}),t.output=new pc({context:t.context}),t.volume=t.input.volume;var o=Ar(n.getDefaults(),arguments);return hc(t.input,t.output,t.context.rawContext.destination),t.mute=o.mute,t._internalChannels=[t.input,t.context.rawContext.destination,t.output],t}return i(r)(n,[{key:"mute",get:function(){return this.input.mute},set:function(i){this.input.mute=i}},{key:"chain",value:function(){for(var t=arguments.length,e=new Array(t),n=0;n<t;n++)e[n]=arguments[n];return this.input.disconnect(),e.unshift(this.input),e.push(this.output),hc.apply(void 0,i(ki)(e)),this}},{key:"maxChannelCount",get:function(){return this.context.rawContext.destination.maxChannelCount}},{key:"dispose",value:function(){return i(sr)(i(mr)(n.prototype),"dispose",this).call(this),this.volume.dispose(),this}}],[{key:"getDefaults",value:function(){return Object.assign(yc.getDefaults(),{mute:!1,volume:0})}}]),n}(yc));Ir((function(i){i.destination=new Rc({context:i})})),Rr((function(i){i.destination.dispose()}));si=o("kumvF"),mr=o("jlIh9");var jc=function(t){"use strict";i(L)(n,t);var e=i(Z)(n);function n(t){var o;return i(a)(this,n),(o=e.call(this)).name="TimelineValue",o._timeline=new Br({memory:10}),o._initialValue=t,o}return i(r)(n,[{key:"set",value:function(i,t){return this._timeline.add({value:i,time:t}),this}},{key:"get",value:function(i){var t=this._timeline.get(i);return t?t.value:this._initialValue}}]),n}(br),Vc=function(){"use strict";function t(e,n){i(a)(this,t),this.id=t._eventId++;var o=Object.assign(t.getDefaults(),n);this.transport=e,this.callback=o.callback,this._once=o.once,this.time=o.time}return i(r)(t,[{key:"invoke",value:function(i){this.callback&&(this.callback(i),this._once&&this.transport.clear(this.id))}},{key:"dispose",value:function(){return this.callback=void 0,this}}],[{key:"getDefaults",value:function(){return{callback:Ur,once:!1,time:0}}}]),t}();Vc._eventId=0;si=o("kumvF"),mr=o("jlIh9");var Pc=function(t){"use strict";i(L)(n,t);var e=i(Z)(n);function n(t,o){var r;i(a)(this,n),(r=e.call(this,t,o))._currentId=-1,r._nextId=-1,r._nextTick=r.time,r._boundRestart=r._restart.bind(i(si)(r));var c=Object.assign(n.getDefaults(),o);return r.duration=new Bc(t.context,c.duration).valueOf(),r._interval=new Bc(t.context,c.interval).valueOf(),r._nextTick=c.time,r.transport.on("start",r._boundRestart),r.transport.on("loopStart",r._boundRestart),r.context=r.transport.context,r._restart(),r}return i(r)(n,[{key:"invoke",value:function(t){this._createEvents(t),i(sr)(i(mr)(n.prototype),"invoke",this).call(this,t)}},{key:"_createEvents",value:function(i){var t=this.transport.getTicksAtTime(i);t>=this.time&&t>=this._nextTick&&this._nextTick+this._interval<this.time+this.duration&&(this._nextTick+=this._interval,this._currentId=this._nextId,this._nextId=this.transport.scheduleOnce(this.invoke.bind(this),new Bc(this.context,this._nextTick).toSeconds()))}},{key:"_restart",value:function(i){this.transport.clear(this._currentId),this.transport.clear(this._nextId),this._nextTick=this.time;var t=this.transport.getTicksAtTime(i);t>this.time&&(this._nextTick=this.time+Math.ceil((t-this.time)/this._interval)*this._interval),this._currentId=this.transport.scheduleOnce(this.invoke.bind(this),new Bc(this.context,this._nextTick).toSeconds()),this._nextTick+=this._interval,this._nextId=this.transport.scheduleOnce(this.invoke.bind(this),new Bc(this.context,this._nextTick).toSeconds())}},{key:"dispose",value:function(){return i(sr)(i(mr)(n.prototype),"dispose",this).call(this),this.transport.clear(this._currentId),this.transport.clear(this._nextId),this.transport.off("start",this._boundRestart),this.transport.off("loopStart",this._boundRestart),this}}],[{key:"getDefaults",value:function(){return Object.assign({},Vc.getDefaults(),{duration:1/0,interval:1,once:!1})}}]),n}(Vc),Nc=function(t){"use strict";i(L)(n,t);var e=i(Z)(n);function n(){var t;i(a)(this,n),(t=e.call(this,Ar(n.getDefaults(),arguments))).name="Transport",t._loop=new jc(!1),t._loopStart=0,t._loopEnd=0,t._scheduledEvents={},t._timeline=new Br,t._repeatedEvents=new Mc,t._syncedSignals=[],t._swingAmount=0;var o=Ar(n.getDefaults(),arguments);return t._ppq=o.ppq,t._clock=new Sc({callback:t._processTick.bind(i(si)(t)),context:t.context,frequency:0,units:"bpm"}),t._bindClockEvents(),t.bpm=t._clock.frequency,t._clock.frequency.multiplier=o.ppq,t.bpm.setValueAtTime(o.bpm,0),Lr(i(si)(t),"bpm"),t._timeSignature=o.timeSignature,t._swingTicks=o.ppq/2,t}return i(r)(n,[{key:"_processTick",value:function(i,t){if(this._loop.get(i)&&t>=this._loopEnd&&(this.emit("loopEnd",i),this._clock.setTicksAtTime(this._loopStart,i),t=this._loopStart,this.emit("loopStart",i,this._clock.getSecondsAtTime(i)),this.emit("loop",i)),this._swingAmount>0&&t%this._ppq!=0&&t%(2*this._swingTicks)!=0){var e=t%(2*this._swingTicks)/(2*this._swingTicks),n=Math.sin(e*Math.PI)*this._swingAmount;i+=new Bc(this.context,2*this._swingTicks/3).toSeconds()*n}this._timeline.forEachAtTime(t,(function(t){return t.invoke(i)}))}},{key:"schedule",value:function(i,t){var e=new Vc(this,{callback:i,time:new lc(this.context,t).toTicks()});return this._addEvent(e,this._timeline)}},{key:"scheduleRepeat",value:function(i,t,e){var n=arguments.length>3&&void 0!==arguments[3]?arguments[3]:1/0,o=new Pc(this,{callback:i,duration:new sc(this.context,n).toTicks(),interval:new sc(this.context,t).toTicks(),time:new lc(this.context,e).toTicks()});return this._addEvent(o,this._repeatedEvents)}},{key:"scheduleOnce",value:function(i,t){var e=new Vc(this,{callback:i,once:!0,time:new lc(this.context,t).toTicks()});return this._addEvent(e,this._timeline)}},{key:"clear",value:function(i){if(this._scheduledEvents.hasOwnProperty(i)){var t=this._scheduledEvents[i.toString()];t.timeline.remove(t.event),t.event.dispose(),delete this._scheduledEvents[i.toString()]}return this}},{key:"_addEvent",value:function(i,t){return this._scheduledEvents[i.id.toString()]={event:i,timeline:t},t.add(i),i.id}},{key:"cancel",value:function(){var i=arguments.length>0&&void 0!==arguments[0]?arguments[0]:0,t=this,e=this.toTicks(i);return this._timeline.forEachFrom(e,(function(i){return t.clear(i.id)})),this._repeatedEvents.forEachFrom(e,(function(i){return t.clear(i.id)})),this}},{key:"_bindClockEvents",value:function(){var i=this;this._clock.on("start",(function(t,e){e=new Bc(i.context,e).toSeconds(),i.emit("start",t,e)})),this._clock.on("stop",(function(t){i.emit("stop",t)})),this._clock.on("pause",(function(t){i.emit("pause",t)}))}},{key:"state",get:function(){return this._clock.getStateAtTime(this.now())}},{key:"start",value:function(i,t){var e;return Ha(t)&&(e=this.toTicks(t)),this._clock.start(i,e),this}},{key:"stop",value:function(i){return this._clock.stop(i),this}},{key:"pause",value:function(i){return this._clock.pause(i),this}},{key:"toggle",value:function(i){return i=this.toSeconds(i),"started"!==this._clock.getStateAtTime(i)?this.start(i):this.stop(i),this}},{key:"timeSignature",get:function(){return this._timeSignature},set:function(i){ir(i)&&(i=i[0]/i[1]*4),this._timeSignature=i}},{key:"loopStart",get:function(){return new sc(this.context,this._loopStart,"i").toSeconds()},set:function(i){this._loopStart=this.toTicks(i)}},{key:"loopEnd",get:function(){return new sc(this.context,this._loopEnd,"i").toSeconds()},set:function(i){this._loopEnd=this.toTicks(i)}},{key:"loop",get:function(){return this._loop.get(this.now())},set:function(i){this._loop.set(i,this.now())}},{key:"setLoopPoints",value:function(i,t){return this.loopStart=i,this.loopEnd=t,this}},{key:"swing",get:function(){return this._swingAmount},set:function(i){this._swingAmount=i}},{key:"swingSubdivision",get:function(){return new Bc(this.context,this._swingTicks).toNotation()},set:function(i){this._swingTicks=this.toTicks(i)}},{key:"position",get:function(){var i=this.now(),t=this._clock.getTicksAtTime(i);return new Bc(this.context,t).toBarsBeatsSixteenths()},set:function(i){var t=this.toTicks(i);this.ticks=t}},{key:"seconds",get:function(){return this._clock.seconds},set:function(i){var t=this.now(),e=this._clock.frequency.timeToTicks(i,t);this.ticks=e}},{key:"progress",get:function(){if(this.loop){var i=this.now();return(this._clock.getTicksAtTime(i)-this._loopStart)/(this._loopEnd-this._loopStart)}return 0}},{key:"ticks",get:function(){return this._clock.ticks},set:function(i){if(this._clock.ticks!==i){var t=this.now();if("started"===this.state){var e=this._clock.getTicksAtTime(t),n=t+this._clock.frequency.getDurationOfTicks(Math.ceil(e)-e,t);this.emit("stop",n),this._clock.setTicksAtTime(i,n),this.emit("start",n,this._clock.getSecondsAtTime(n))}else this._clock.setTicksAtTime(i,t)}}},{key:"getTicksAtTime",value:function(i){return Math.round(this._clock.getTicksAtTime(i))}},{key:"getSecondsAtTime",value:function(i){return this._clock.getSecondsAtTime(i)}},{key:"PPQ",get:function(){return this._clock.frequency.multiplier},set:function(i){this._clock.frequency.multiplier=i}},{key:"nextSubdivision",value:function(i){if(i=this.toTicks(i),"started"!==this.state)return 0;var t=this.now(),e=i-this.getTicksAtTime(t)%i;return this._clock.nextTickTime(e,t)}},{key:"syncSignal",value:function(i,t){if(!t){var e=this.now();if(0!==i.getValueAtTime(e)){var n=1/(60/this.bpm.getValueAtTime(e)/this.PPQ);t=i.getValueAtTime(e)/n}else t=0}var o=new pc(t);return this.bpm.connect(o),o.connect(i._param),this._syncedSignals.push({initial:i.value,ratio:o,signal:i}),i.value=0,this}},{key:"unsyncSignal",value:function(i){for(var t=this._syncedSignals.length-1;t>=0;t--){var e=this._syncedSignals[t];e.signal===i&&(e.ratio.dispose(),e.signal.value=e.initial,this._syncedSignals.splice(t,1))}return this}},{key:"dispose",value:function(){return i(sr)(i(mr)(n.prototype),"dispose",this).call(this),this._clock.dispose(),Wr(this,"bpm"),this._timeline.dispose(),this._repeatedEvents.dispose(),this}}],[{key:"getDefaults",value:function(){return Object.assign(kc.getDefaults(),{bpm:120,loopEnd:"4m",loopStart:0,ppq:192,swing:0,swingSubdivision:"8n",timeSignature:4})}}]),n}(kc);Vr.mixin(Nc),Ir((function(i){i.transport=new Nc({context:i})})),Rr((function(i){i.transport.dispose()}));var qc=function(t){"use strict";i(L)(n,t);var e=i(Z)(n);function n(t){var o;return i(a)(this,n),(o=e.call(this,t)).input=void 0,o._state=new Cc("stopped"),o._synced=!1,o._scheduled=[],o._syncedStart=Ur,o._syncedStop=Ur,o._state.memory=100,o._state.increasing=!0,o._volume=o.output=new Gc({context:o.context,mute:t.mute,volume:t.volume}),o.volume=o._volume.volume,Lr(i(si)(o),"volume"),o.onstop=t.onstop,o}return i(r)(n,[{key:"state",get:function(){return this._synced?"started"===this.context.transport.state?this._state.getValueAtTime(this.context.transport.seconds):"stopped":this._state.getValueAtTime(this.now())}},{key:"mute",get:function(){return this._volume.mute},set:function(i){this._volume.mute=i}},{key:"_clampToCurrentTime",value:function(i){return this._synced?i:Math.max(i,this.context.currentTime)}},{key:"start",value:function(i,t,e){var n=Xa(i)&&this._synced?this.context.transport.seconds:this.toSeconds(i);if(n=this._clampToCurrentTime(n),this._synced||"started"!==this._state.getValueAtTime(n))if(this.log("start",n),this._state.setStateAtTime("started",n),this._synced){var o=this,a=this._state.get(n);a&&(a.offset=this.toSeconds(Cr(t,0)),a.duration=e?this.toSeconds(e):void 0);var r=this.context.transport.schedule((function(i){o._start(i,t,e)}),n);this._scheduled.push(r),"started"===this.context.transport.state&&this.context.transport.getSecondsAtTime(this.immediate())>n&&this._syncedStart(this.now(),this.context.transport.seconds)}else Ua(this.context),this._start(n,t,e);else La(wr(n,this._state.get(n).time),"Start time must be strictly greater than previous start time"),this._state.cancel(n),this._state.setStateAtTime("started",n),this.log("restart",n),this.restart(n,t,e);return this}},{key:"stop",value:function(i){var t=Xa(i)&&this._synced?this.context.transport.seconds:this.toSeconds(i);if(t=this._clampToCurrentTime(t),"started"===this._state.getValueAtTime(t)||Ha(this._state.getNextState("started",t))){if(this.log("stop",t),this._synced){var e=this.context.transport.schedule(this._stop.bind(this),t);this._scheduled.push(e)}else this._stop(t);this._state.cancel(t),this._state.setStateAtTime("stopped",t)}return this}},{key:"restart",value:function(i,t,e){return i=this.toSeconds(i),"started"===this._state.getValueAtTime(i)&&(this._state.cancel(i),this._restart(i,t,e)),this}},{key:"sync",value:function(){if(!this._synced){var i=this;this._synced=!0,this._syncedStart=function(t,e){if(e>0){var n=i._state.get(e);if(n&&"started"===n.state&&n.time!==e){var o,a=e-i.toSeconds(n.time);n.duration&&(o=i.toSeconds(n.duration)-a),i._start(t,i.toSeconds(n.offset)+a,o)}}},this._syncedStop=function(t){var e=i.context.transport.getSecondsAtTime(Math.max(t-i.sampleTime,0));"started"===i._state.getValueAtTime(e)&&i._stop(t)},this.context.transport.on("start",this._syncedStart),this.context.transport.on("loopStart",this._syncedStart),this.context.transport.on("stop",this._syncedStop),this.context.transport.on("pause",this._syncedStop),this.context.transport.on("loopEnd",this._syncedStop)}return this}},{key:"unsync",value:function(){var i=this;return this._synced&&(this.context.transport.off("stop",this._syncedStop),this.context.transport.off("pause",this._syncedStop),this.context.transport.off("loopEnd",this._syncedStop),this.context.transport.off("start",this._syncedStart),this.context.transport.off("loopStart",this._syncedStart)),this._synced=!1,this._scheduled.forEach((function(t){return i.context.transport.clear(t)})),this._scheduled=[],this._state.cancel(0),this._stop(0),this}},{key:"dispose",value:function(){return i(sr)(i(mr)(n.prototype),"dispose",this).call(this),this.onstop=Ur,this.unsync(),this._volume.dispose(),this._state.dispose(),this}}],[{key:"getDefaults",value:function(){return Object.assign(yc.getDefaults(),{mute:!1,onstop:Ur,volume:0})}}]),n}(yc);si=o("kumvF"),mr=o("jlIh9"),si=o("kumvF"),mr=o("jlIh9");function Lc(t,e){return kr(this,void 0,void 0,i(ti).mark((function n(){var o,a,r;return i(ti).wrap((function(i){for(;;)switch(i.prev=i.next){case 0:return o=e/t.context.sampleRate,a=new Yr(1,o,t.context.sampleRate),new t.constructor(Object.assign(t.get(),{frequency:2/o,detune:0,context:a})).toDestination().start(0),i.next=6,a.render();case 6:return r=i.sent,i.abrupt("return",r.getChannelData(0));case 8:case"end":return i.stop()}}),n)})))}si=o("kumvF"),mr=o("jlIh9");var Wc=function(t){"use strict";i(L)(n,t);var e=i(Z)(n);function n(){var t;i(a)(this,n),(t=e.call(this,Ar(n.getDefaults(),arguments,["frequency","type"]))).name="ToneOscillatorNode",t._oscillator=t.context.createOscillator(),t._internalChannels=[t._oscillator];var o=Ar(n.getDefaults(),arguments,["frequency","type"]);return Tc(t._oscillator,t._gainNode),t.type=o.type,t.frequency=new vc({context:t.context,param:t._oscillator.frequency,units:"frequency",value:o.frequency}),t.detune=new vc({context:t.context,param:t._oscillator.detune,units:"cents",value:o.detune}),Lr(i(si)(t),["frequency","detune"]),t}return i(r)(n,[{key:"start",value:function(i){var t=this.toSeconds(i);return this.log("start",t),this._startGain(t),this._oscillator.start(t),this}},{key:"_stopSource",value:function(i){this._oscillator.stop(i)}},{key:"setPeriodicWave",value:function(i){return this._oscillator.setPeriodicWave(i),this}},{key:"type",get:function(){return this._oscillator.type},set:function(i){this._oscillator.type=i}},{key:"dispose",value:function(){return i(sr)(i(mr)(n.prototype),"dispose",this).call(this),"started"===this.state&&this.stop(),this._oscillator.disconnect(),this.frequency.dispose(),this.detune.dispose(),this}}],[{key:"getDefaults",value:function(){return Object.assign(gc.getDefaults(),{detune:0,frequency:440,type:"sine"})}}]),n}(gc),Uc=function(t){"use strict";i(L)(n,t);var e=i(Z)(n);function n(){var t;i(a)(this,n),(t=e.call(this,Ar(n.getDefaults(),arguments,["frequency","type"]))).name="Oscillator",t._oscillator=null;var o=Ar(n.getDefaults(),arguments,["frequency","type"]);return t.frequency=new bc({context:t.context,units:"frequency",value:o.frequency}),Lr(i(si)(t),"frequency"),t.detune=new bc({context:t.context,units:"cents",value:o.detune}),Lr(i(si)(t),"detune"),t._partials=o.partials,t._partialCount=o.partialCount,t._type=o.type,o.partialCount&&"custom"!==o.type&&(t._type=t.baseType+o.partialCount.toString()),t.phase=o.phase,t}return i(r)(n,[{key:"_start",value:function(i){var t=this,e=this.toSeconds(i),n=new Wc({context:this.context,onended:function(){return t.onstop(t)}});this._oscillator=n,this._wave?this._oscillator.setPeriodicWave(this._wave):this._oscillator.type=this._type,this._oscillator.connect(this.output),this.frequency.connect(this._oscillator.frequency),this.detune.connect(this._oscillator.detune),this._oscillator.start(e)}},{key:"_stop",value:function(i){var t=this.toSeconds(i);this._oscillator&&this._oscillator.stop(t)}},{key:"_restart",value:function(i){var t=this.toSeconds(i);return this.log("restart",t),this._oscillator&&this._oscillator.cancelStop(),this._state.cancel(t),this}},{key:"syncFrequency",value:function(){return this.context.transport.syncSignal(this.frequency),this}},{key:"unsyncFrequency",value:function(){return this.context.transport.unsyncSignal(this.frequency),this}},{key:"_getCachedPeriodicWave",value:function(){if("custom"===this._type){var i=this;return n._periodicWaveCache.find((function(t){return t.phase===i._phase&&(e=t.partials,n=i._partials,e.length===n.length&&e.every((function(i,t){return n[t]===i})));var e,n}))}var t=this,e=n._periodicWaveCache.find((function(i){return i.type===t._type&&i.phase===t._phase}));return this._partialCount=e?e.partialCount:this._partialCount,e}},{key:"type",get:function(){return this._type},set:function(t){this._type=t;var e=-1!==["sine","square","sawtooth","triangle"].indexOf(t);if(0===this._phase&&e)this._wave=void 0,this._partialCount=0,null!==this._oscillator&&(this._oscillator.type=t);else{var o=this._getCachedPeriodicWave();if(Ha(o)){var a=o.partials,r=o.wave;this._wave=r,this._partials=a,null!==this._oscillator&&this._oscillator.setPeriodicWave(this._wave)}else{var c=i(l)(this._getRealImaginary(t,this._phase),2),s=c[0],u=c[1],d=this.context.createPeriodicWave(s,u);this._wave=d,null!==this._oscillator&&this._oscillator.setPeriodicWave(this._wave),n._periodicWaveCache.push({imag:u,partialCount:this._partialCount,partials:this._partials,phase:this._phase,real:s,type:this._type,wave:this._wave}),n._periodicWaveCache.length>100&&n._periodicWaveCache.shift()}}}},{key:"baseType",get:function(){return this._type.replace(this.partialCount.toString(),"")},set:function(i){this.partialCount&&"custom"!==this._type&&"custom"!==i?this.type=i+this.partialCount:this.type=i}},{key:"partialCount",get:function(){return this._partialCount},set:function(i){Wa(i,0);var t=this._type,e=/^(sine|triangle|square|sawtooth)(\d+)$/.exec(this._type);if(e&&(t=e[1]),"custom"!==this._type)this.type=0===i?t:t+i.toString();else{var n=new Float32Array(i);this._partials.forEach((function(i,t){return n[t]=i})),this._partials=Array.from(n),this.type=this._type}}},{key:"_getRealImaginary",value:function(i,t){var e=2048,n=new Float32Array(e),o=new Float32Array(e),a=1;if("custom"===i){if(a=this._partials.length+1,this._partialCount=this._partials.length,e=a,0===this._partials.length)return[n,o]}else{var r=/^(sine|triangle|square|sawtooth)(\d+)$/.exec(i);r?(a=parseInt(r[2],10)+1,this._partialCount=parseInt(r[2],10),i=r[1],e=a=Math.max(a,2)):this._partialCount=0,this._partials=[]}for(var c=1;c<e;++c){var s=2/(c*Math.PI),u=void 0;switch(i){case"sine":u=c<=a?1:0,this._partials[c-1]=u;break;case"square":u=1&c?2*s:0,this._partials[c-1]=u;break;case"sawtooth":u=s*(1&c?1:-1),this._partials[c-1]=u;break;case"triangle":u=1&c?s*s*2*(c-1>>1&1?-1:1):0,this._partials[c-1]=u;break;case"custom":u=this._partials[c-1];break;default:throw new TypeError("Oscillator: invalid type: "+i)}0!==u?(n[c]=-u*Math.sin(t*c),o[c]=u*Math.cos(t*c)):(n[c]=0,o[c]=0)}return[n,o]}},{key:"_inverseFFT",value:function(i,t,e){for(var n=0,o=i.length,a=0;a<o;a++)n+=i[a]*Math.cos(a*e)+t[a]*Math.sin(a*e);return n}},{key:"getInitialValue",value:function(){for(var t=i(l)(this._getRealImaginary(this._type,0),2),e=t[0],n=t[1],o=0,a=2*Math.PI,r=0;r<32;r++)o=Math.max(this._inverseFFT(e,n,r/32*a),o);return Or(-this._inverseFFT(e,n,this._phase)/o,-1,1)}},{key:"partials",get:function(){return this._partials.slice(0,this.partialCount)},set:function(i){this._partials=i,this._partialCount=this._partials.length,i.length&&(this.type="custom")}},{key:"phase",get:function(){return this._phase*(180/Math.PI)},set:function(i){this._phase=i*Math.PI/180,this.type=this._type}},{key:"asArray",value:function(){var t=arguments.length>0&&void 0!==arguments[0]?arguments[0]:1024;return kr(this,void 0,void 0,i(ti).mark((function e(){return i(ti).wrap((function(i){for(;;)switch(i.prev=i.next){case 0:return i.abrupt("return",Lc(this,t));case 1:case"end":return i.stop()}}),e,this)})))}},{key:"dispose",value:function(){return i(sr)(i(mr)(n.prototype),"dispose",this).call(this),null!==this._oscillator&&this._oscillator.dispose(),this._wave=void 0,this.frequency.dispose(),this.detune.dispose(),this}}],[{key:"getDefaults",value:function(){return Object.assign(qc.getDefaults(),{detune:0,frequency:440,partialCount:0,partials:[],phase:0,type:"sine"})}}]),n}(qc);Uc._periodicWaveCache=[];si=o("kumvF"),mr=o("jlIh9"),mr=o("jlIh9");var zc=function(t){"use strict";i(L)(n,t);var e=i(Z)(n);function n(){return i(a)(this,n),e.call(this,Object.assign(Ar(n.getDefaults(),arguments,["context"])))}return i(r)(n,[{key:"connect",value:function(i){var t=arguments.length>1&&void 0!==arguments[1]?arguments[1]:0,e=arguments.length>2&&void 0!==arguments[2]?arguments[2]:0;return Dc(this,i,t,e),this}}]),n}(yc),Yc=(mr=o("jlIh9"),function(t){"use strict";i(L)(n,t);var e=i(Z)(n);function n(){var t;i(a)(this,n),(t=e.call(this,Object.assign(Ar(n.getDefaults(),arguments,["mapping","length"])))).name="WaveShaper",t._shaper=t.context.createWaveShaper(),t.input=t._shaper,t.output=t._shaper;var o=Ar(n.getDefaults(),arguments,["mapping","length"]);return ir(o.mapping)||o.mapping instanceof Float32Array?t.curve=Float32Array.from(o.mapping):Qa(o.mapping)&&t.setMap(o.mapping,o.length),t}return i(r)(n,[{key:"setMap",value:function(i){for(var t=arguments.length>1&&void 0!==arguments[1]?arguments[1]:1024,e=new Float32Array(t),n=0,o=t;n<o;n++){var a=n/(o-1)*2-1;e[n]=i(a,n)}return this.curve=e,this}},{key:"curve",get:function(){return this._shaper.curve},set:function(i){this._shaper.curve=i}},{key:"oversample",get:function(){return this._shaper.oversample},set:function(i){La(["none","2x","4x"].some((function(t){return t.includes(i)})),"oversampling must be either 'none', '2x', or '4x'"),this._shaper.oversample=i}},{key:"dispose",value:function(){return i(sr)(i(mr)(n.prototype),"dispose",this).call(this),this._shaper.disconnect(),this}}],[{key:"getDefaults",value:function(){return Object.assign(bc.getDefaults(),{length:1024})}}]),n}(zc)),Zc=function(t){"use strict";i(L)(n,t);var e=i(Z)(n);function n(){var t;return i(a)(this,n),(t=e.call.apply(e,[this].concat(Array.prototype.slice.call(arguments)))).name="AudioToGain",t._norm=new Yc({context:t.context,mapping:function(i){return(i+1)/2}}),t.input=t._norm,t.output=t._norm,t}return i(r)(n,[{key:"dispose",value:function(){return i(sr)(i(mr)(n.prototype),"dispose",this).call(this),this._norm.dispose(),this}}]),n}(zc),Xc=(mr=o("jlIh9"),function(t){"use strict";i(L)(n,t);var e=i(Z)(n);function n(){var t;i(a)(this,n),(t=e.call(this,Object.assign(Ar(n.getDefaults(),arguments,["value"])))).name="Multiply",t.override=!1;var o=Ar(n.getDefaults(),arguments,["value"]);return t._mult=t.input=t.output=new pc({context:t.context,minValue:o.minValue,maxValue:o.maxValue}),t.factor=t._param=t._mult.gain,t.factor.setValueAtTime(o.value,0),t}return i(r)(n,[{key:"dispose",value:function(){return i(sr)(i(mr)(n.prototype),"dispose",this).call(this),this._mult.dispose(),this}}],[{key:"getDefaults",value:function(){return Object.assign(bc.getDefaults(),{value:0})}}]),n}(bc)),Hc=function(t){"use strict";i(L)(n,t);var e=i(Z)(n);function n(){var t;i(a)(this,n),(t=e.call(this,Ar(n.getDefaults(),arguments,["frequency","type","modulationType"]))).name="AMOscillator",t._modulationScale=new Zc({context:t.context}),t._modulationNode=new pc({context:t.context});var o=Ar(n.getDefaults(),arguments,["frequency","type","modulationType"]);return t._carrier=new Uc({context:t.context,detune:o.detune,frequency:o.frequency,onstop:function(){return t.onstop(i(si)(t))},phase:o.phase,type:o.type}),t.frequency=t._carrier.frequency,t.detune=t._carrier.detune,t._modulator=new Uc({context:t.context,phase:o.phase,type:o.modulationType}),t.harmonicity=new Xc({context:t.context,units:"positive",value:o.harmonicity}),t.frequency.chain(t.harmonicity,t._modulator.frequency),t._modulator.chain(t._modulationScale,t._modulationNode.gain),t._carrier.chain(t._modulationNode,t.output),Lr(i(si)(t),["frequency","detune","harmonicity"]),t}return i(r)(n,[{key:"_start",value:function(i){this._modulator.start(i),this._carrier.start(i)}},{key:"_stop",value:function(i){this._modulator.stop(i),this._carrier.stop(i)}},{key:"_restart",value:function(i){this._modulator.restart(i),this._carrier.restart(i)}},{key:"type",get:function(){return this._carrier.type},set:function(i){this._carrier.type=i}},{key:"baseType",get:function(){return this._carrier.baseType},set:function(i){this._carrier.baseType=i}},{key:"partialCount",get:function(){return this._carrier.partialCount},set:function(i){this._carrier.partialCount=i}},{key:"modulationType",get:function(){return this._modulator.type},set:function(i){this._modulator.type=i}},{key:"phase",get:function(){return this._carrier.phase},set:function(i){this._carrier.phase=i,this._modulator.phase=i}},{key:"partials",get:function(){return this._carrier.partials},set:function(i){this._carrier.partials=i}},{key:"asArray",value:function(){var t=arguments.length>0&&void 0!==arguments[0]?arguments[0]:1024;return kr(this,void 0,void 0,i(ti).mark((function e(){return i(ti).wrap((function(i){for(;;)switch(i.prev=i.next){case 0:return i.abrupt("return",Lc(this,t));case 1:case"end":return i.stop()}}),e,this)})))}},{key:"dispose",value:function(){return i(sr)(i(mr)(n.prototype),"dispose",this).call(this),this.frequency.dispose(),this.detune.dispose(),this.harmonicity.dispose(),this._carrier.dispose(),this._modulator.dispose(),this._modulationNode.dispose(),this._modulationScale.dispose(),this}}],[{key:"getDefaults",value:function(){return Object.assign(Uc.getDefaults(),{harmonicity:1,modulationType:"square"})}}]),n}(qc),Qc=(si=o("kumvF"),mr=o("jlIh9"),function(t){"use strict";i(L)(n,t);var e=i(Z)(n);function n(){var t;i(a)(this,n),(t=e.call(this,Ar(n.getDefaults(),arguments,["frequency","type","modulationType"]))).name="FMOscillator",t._modulationNode=new pc({context:t.context,gain:0});var o=Ar(n.getDefaults(),arguments,["frequency","type","modulationType"]);return t._carrier=new Uc({context:t.context,detune:o.detune,frequency:0,onstop:function(){return t.onstop(i(si)(t))},phase:o.phase,type:o.type}),t.detune=t._carrier.detune,t.frequency=new bc({context:t.context,units:"frequency",value:o.frequency}),t._modulator=new Uc({context:t.context,phase:o.phase,type:o.modulationType}),t.harmonicity=new Xc({context:t.context,units:"positive",value:o.harmonicity}),t.modulationIndex=new Xc({context:t.context,units:"positive",value:o.modulationIndex}),t.frequency.connect(t._carrier.frequency),t.frequency.chain(t.harmonicity,t._modulator.frequency),t.frequency.chain(t.modulationIndex,t._modulationNode),t._modulator.connect(t._modulationNode.gain),t._modulationNode.connect(t._carrier.frequency),t._carrier.connect(t.output),t.detune.connect(t._modulator.detune),Lr(i(si)(t),["modulationIndex","frequency","detune","harmonicity"]),t}return i(r)(n,[{key:"_start",value:function(i){this._modulator.start(i),this._carrier.start(i)}},{key:"_stop",value:function(i){this._modulator.stop(i),this._carrier.stop(i)}},{key:"_restart",value:function(i){return this._modulator.restart(i),this._carrier.restart(i),this}},{key:"type",get:function(){return this._carrier.type},set:function(i){this._carrier.type=i}},{key:"baseType",get:function(){return this._carrier.baseType},set:function(i){this._carrier.baseType=i}},{key:"partialCount",get:function(){return this._carrier.partialCount},set:function(i){this._carrier.partialCount=i}},{key:"modulationType",get:function(){return this._modulator.type},set:function(i){this._modulator.type=i}},{key:"phase",get:function(){return this._carrier.phase},set:function(i){this._carrier.phase=i,this._modulator.phase=i}},{key:"partials",get:function(){return this._carrier.partials},set:function(i){this._carrier.partials=i}},{key:"asArray",value:function(){var t=arguments.length>0&&void 0!==arguments[0]?arguments[0]:1024;return kr(this,void 0,void 0,i(ti).mark((function e(){return i(ti).wrap((function(i){for(;;)switch(i.prev=i.next){case 0:return i.abrupt("return",Lc(this,t));case 1:case"end":return i.stop()}}),e,this)})))}},{key:"dispose",value:function(){return i(sr)(i(mr)(n.prototype),"dispose",this).call(this),this.frequency.dispose(),this.harmonicity.dispose(),this._carrier.dispose(),this._modulator.dispose(),this._modulationNode.dispose(),this.modulationIndex.dispose(),this}}],[{key:"getDefaults",value:function(){return Object.assign(Uc.getDefaults(),{harmonicity:1,modulationIndex:2,modulationType:"square"})}}]),n}(qc)),$c=(si=o("kumvF"),mr=o("jlIh9"),function(t){"use strict";i(L)(n,t);var e=i(Z)(n);function n(){var t;i(a)(this,n),(t=e.call(this,Ar(n.getDefaults(),arguments,["frequency","width"]))).name="PulseOscillator",t._widthGate=new pc({context:t.context,gain:0}),t._thresh=new Yc({context:t.context,mapping:function(i){return i<=0?-1:1}});var o=Ar(n.getDefaults(),arguments,["frequency","width"]);return t.width=new bc({context:t.context,units:"audioRange",value:o.width}),t._triangle=new Uc({context:t.context,detune:o.detune,frequency:o.frequency,onstop:function(){return t.onstop(i(si)(t))},phase:o.phase,type:"triangle"}),t.frequency=t._triangle.frequency,t.detune=t._triangle.detune,t._triangle.chain(t._thresh,t.output),t.width.chain(t._widthGate,t._thresh),Lr(i(si)(t),["width","frequency","detune"]),t}return i(r)(n,[{key:"_start",value:function(i){i=this.toSeconds(i),this._triangle.start(i),this._widthGate.gain.setValueAtTime(1,i)}},{key:"_stop",value:function(i){i=this.toSeconds(i),this._triangle.stop(i),this._widthGate.gain.cancelScheduledValues(i),this._widthGate.gain.setValueAtTime(0,i)}},{key:"_restart",value:function(i){this._triangle.restart(i),this._widthGate.gain.cancelScheduledValues(i),this._widthGate.gain.setValueAtTime(1,i)}},{key:"phase",get:function(){return this._triangle.phase},set:function(i){this._triangle.phase=i}},{key:"type",get:function(){return"pulse"}},{key:"baseType",get:function(){return"pulse"}},{key:"partials",get:function(){return[]}},{key:"partialCount",get:function(){return 0}},{key:"carrierType",set:function(i){this._triangle.type=i}},{key:"asArray",value:function(){var t=arguments.length>0&&void 0!==arguments[0]?arguments[0]:1024;return kr(this,void 0,void 0,i(ti).mark((function e(){return i(ti).wrap((function(i){for(;;)switch(i.prev=i.next){case 0:return i.abrupt("return",Lc(this,t));case 1:case"end":return i.stop()}}),e,this)})))}},{key:"dispose",value:function(){return i(sr)(i(mr)(n.prototype),"dispose",this).call(this),this._triangle.dispose(),this.width.dispose(),this._widthGate.dispose(),this._thresh.dispose(),this}}],[{key:"getDefaults",value:function(){return Object.assign(qc.getDefaults(),{detune:0,frequency:440,phase:0,type:"pulse",width:.2})}}]),n}(qc)),Jc=(si=o("kumvF"),mr=o("jlIh9"),function(t){"use strict";i(L)(n,t);var e=i(Z)(n);function n(){var t;i(a)(this,n),(t=e.call(this,Ar(n.getDefaults(),arguments,["frequency","type","spread"]))).name="FatOscillator",t._oscillators=[];var o=Ar(n.getDefaults(),arguments,["frequency","type","spread"]);return t.frequency=new bc({context:t.context,units:"frequency",value:o.frequency}),t.detune=new bc({context:t.context,units:"cents",value:o.detune}),t._spread=o.spread,t._type=o.type,t._phase=o.phase,t._partials=o.partials,t._partialCount=o.partialCount,t.count=o.count,Lr(i(si)(t),["frequency","detune"]),t}return i(r)(n,[{key:"_start",value:function(i){i=this.toSeconds(i),this._forEach((function(t){return t.start(i)}))}},{key:"_stop",value:function(i){i=this.toSeconds(i),this._forEach((function(t){return t.stop(i)}))}},{key:"_restart",value:function(i){this._forEach((function(t){return t.restart(i)}))}},{key:"_forEach",value:function(i){for(var t=0;t<this._oscillators.length;t++)i(this._oscillators[t],t)}},{key:"type",get:function(){return this._type},set:function(i){this._type=i,this._forEach((function(t){return t.type=i}))}},{key:"spread",get:function(){return this._spread},set:function(i){if(this._spread=i,this._oscillators.length>1){var t=-i/2,e=i/(this._oscillators.length-1);this._forEach((function(i,n){return i.detune.value=t+e*n}))}}},{key:"count",get:function(){return this._oscillators.length},set:function(i){if(Wa(i,1),this._oscillators.length!==i){this._forEach((function(i){return i.dispose()})),this._oscillators=[];for(var t=0;t<i;t++){var e=this,n=new Uc({context:this.context,volume:-6-1.1*i,type:this._type,phase:this._phase+t/i*360,partialCount:this._partialCount,onstop:0===t?function(){return e.onstop(e)}:Ur});"custom"===this.type&&(n.partials=this._partials),this.frequency.connect(n.frequency),this.detune.connect(n.detune),n.detune.overridden=!1,n.connect(this.output),this._oscillators[t]=n}this.spread=this._spread,"started"===this.state&&this._forEach((function(i){return i.start()}))}}},{key:"phase",get:function(){return this._phase},set:function(i){var t=this;this._phase=i,this._forEach((function(i,e){return i.phase=t._phase+e/t.count*360}))}},{key:"baseType",get:function(){return this._oscillators[0].baseType},set:function(i){this._forEach((function(t){return t.baseType=i})),this._type=this._oscillators[0].type}},{key:"partials",get:function(){return this._oscillators[0].partials},set:function(i){this._partials=i,this._partialCount=this._partials.length,i.length&&(this._type="custom",this._forEach((function(t){return t.partials=i})))}},{key:"partialCount",get:function(){return this._oscillators[0].partialCount},set:function(i){this._partialCount=i,this._forEach((function(t){return t.partialCount=i})),this._type=this._oscillators[0].type}},{key:"asArray",value:function(){var t=arguments.length>0&&void 0!==arguments[0]?arguments[0]:1024;return kr(this,void 0,void 0,i(ti).mark((function e(){return i(ti).wrap((function(i){for(;;)switch(i.prev=i.next){case 0:return i.abrupt("return",Lc(this,t));case 1:case"end":return i.stop()}}),e,this)})))}},{key:"dispose",value:function(){return i(sr)(i(mr)(n.prototype),"dispose",this).call(this),this.frequency.dispose(),this.detune.dispose(),this._forEach((function(i){return i.dispose()})),this}}],[{key:"getDefaults",value:function(){return Object.assign(Uc.getDefaults(),{count:3,spread:20,type:"sawtooth"})}}]),n}(qc)),Kc=(si=o("kumvF"),mr=o("jlIh9"),function(t){"use strict";i(L)(n,t);var e=i(Z)(n);function n(){var t;i(a)(this,n),(t=e.call(this,Ar(n.getDefaults(),arguments,["frequency","modulationFrequency"]))).name="PWMOscillator",t.sourceType="pwm",t._scale=new Xc({context:t.context,value:2});var o=Ar(n.getDefaults(),arguments,["frequency","modulationFrequency"]);return t._pulse=new $c({context:t.context,frequency:o.modulationFrequency}),t._pulse.carrierType="sine",t.modulationFrequency=t._pulse.frequency,t._modulator=new Uc({context:t.context,detune:o.detune,frequency:o.frequency,onstop:function(){return t.onstop(i(si)(t))},phase:o.phase}),t.frequency=t._modulator.frequency,t.detune=t._modulator.detune,t._modulator.chain(t._scale,t._pulse.width),t._pulse.connect(t.output),Lr(i(si)(t),["modulationFrequency","frequency","detune"]),t}return i(r)(n,[{key:"_start",value:function(i){i=this.toSeconds(i),this._modulator.start(i),this._pulse.start(i)}},{key:"_stop",value:function(i){i=this.toSeconds(i),this._modulator.stop(i),this._pulse.stop(i)}},{key:"_restart",value:function(i){this._modulator.restart(i),this._pulse.restart(i)}},{key:"type",get:function(){return"pwm"}},{key:"baseType",get:function(){return"pwm"}},{key:"partials",get:function(){return[]}},{key:"partialCount",get:function(){return 0}},{key:"phase",get:function(){return this._modulator.phase},set:function(i){this._modulator.phase=i}},{key:"asArray",value:function(){var t=arguments.length>0&&void 0!==arguments[0]?arguments[0]:1024;return kr(this,void 0,void 0,i(ti).mark((function e(){return i(ti).wrap((function(i){for(;;)switch(i.prev=i.next){case 0:return i.abrupt("return",Lc(this,t));case 1:case"end":return i.stop()}}),e,this)})))}},{key:"dispose",value:function(){return i(sr)(i(mr)(n.prototype),"dispose",this).call(this),this._pulse.dispose(),this._scale.dispose(),this._modulator.dispose(),this}}],[{key:"getDefaults",value:function(){return Object.assign(qc.getDefaults(),{detune:0,frequency:440,modulationFrequency:.4,phase:0,type:"pwm"})}}]),n}(qc)),is=(si=o("kumvF"),mr=o("jlIh9"),{am:Hc,fat:Jc,fm:Qc,oscillator:Uc,pulse:$c,pwm:Kc}),ts=function(t){"use strict";i(L)(n,t);var e=i(Z)(n);function n(){var t;i(a)(this,n),(t=e.call(this,Ar(n.getDefaults(),arguments,["frequency","type"]))).name="OmniOscillator";var o=Ar(n.getDefaults(),arguments,["frequency","type"]);return t.frequency=new bc({context:t.context,units:"frequency",value:o.frequency}),t.detune=new bc({context:t.context,units:"cents",value:o.detune}),Lr(i(si)(t),["frequency","detune"]),t.set(o),t}return i(r)(n,[{key:"_start",value:function(i){this._oscillator.start(i)}},{key:"_stop",value:function(i){this._oscillator.stop(i)}},{key:"_restart",value:function(i){return this._oscillator.restart(i),this}},{key:"type",get:function(){var i=this,t="";return["am","fm","fat"].some((function(t){return i._sourceType===t}))&&(t=this._sourceType),t+this._oscillator.type},set:function(i){"fm"===i.substr(0,2)?(this._createNewOscillator("fm"),this._oscillator=this._oscillator,this._oscillator.type=i.substr(2)):"am"===i.substr(0,2)?(this._createNewOscillator("am"),this._oscillator=this._oscillator,this._oscillator.type=i.substr(2)):"fat"===i.substr(0,3)?(this._createNewOscillator("fat"),this._oscillator=this._oscillator,this._oscillator.type=i.substr(3)):"pwm"===i?(this._createNewOscillator("pwm"),this._oscillator=this._oscillator):"pulse"===i?this._createNewOscillator("pulse"):(this._createNewOscillator("oscillator"),this._oscillator=this._oscillator,this._oscillator.type=i)}},{key:"partials",get:function(){return this._oscillator.partials},set:function(i){this._getOscType(this._oscillator,"pulse")||this._getOscType(this._oscillator,"pwm")||(this._oscillator.partials=i)}},{key:"partialCount",get:function(){return this._oscillator.partialCount},set:function(i){this._getOscType(this._oscillator,"pulse")||this._getOscType(this._oscillator,"pwm")||(this._oscillator.partialCount=i)}},{key:"set",value:function(t){return Reflect.has(t,"type")&&t.type&&(this.type=t.type),i(sr)(i(mr)(n.prototype),"set",this).call(this,t),this}},{key:"_createNewOscillator",value:function(i){if(i!==this._sourceType){var t=this;this._sourceType=i;var e=is[i],n=this.now();if(this._oscillator){var o=this._oscillator;o.stop(n),this.context.setTimeout((function(){return o.dispose()}),this.blockTime)}this._oscillator=new e({context:this.context}),this.frequency.connect(this._oscillator.frequency),this.detune.connect(this._oscillator.detune),this._oscillator.connect(this.output),this._oscillator.onstop=function(){return t.onstop(t)},"started"===this.state&&this._oscillator.start(n)}}},{key:"phase",get:function(){return this._oscillator.phase},set:function(i){this._oscillator.phase=i}},{key:"sourceType",get:function(){return this._sourceType},set:function(i){var t="sine";"pwm"!==this._oscillator.type&&"pulse"!==this._oscillator.type&&(t=this._oscillator.type),"fm"===i?this.type="fm"+t:"am"===i?this.type="am"+t:"fat"===i?this.type="fat"+t:"oscillator"===i?this.type=t:"pulse"===i?this.type="pulse":"pwm"===i&&(this.type="pwm")}},{key:"_getOscType",value:function(i,t){return i instanceof is[t]}},{key:"baseType",get:function(){return this._oscillator.baseType},set:function(i){this._getOscType(this._oscillator,"pulse")||this._getOscType(this._oscillator,"pwm")||"pulse"===i||"pwm"===i||(this._oscillator.baseType=i)}},{key:"width",get:function(){return this._getOscType(this._oscillator,"pulse")?this._oscillator.width:void 0}},{key:"count",get:function(){return this._getOscType(this._oscillator,"fat")?this._oscillator.count:void 0},set:function(i){this._getOscType(this._oscillator,"fat")&&$a(i)&&(this._oscillator.count=i)}},{key:"spread",get:function(){return this._getOscType(this._oscillator,"fat")?this._oscillator.spread:void 0},set:function(i){this._getOscType(this._oscillator,"fat")&&$a(i)&&(this._oscillator.spread=i)}},{key:"modulationType",get:function(){return this._getOscType(this._oscillator,"fm")||this._getOscType(this._oscillator,"am")?this._oscillator.modulationType:void 0},set:function(i){(this._getOscType(this._oscillator,"fm")||this._getOscType(this._oscillator,"am"))&&tr(i)&&(this._oscillator.modulationType=i)}},{key:"modulationIndex",get:function(){return this._getOscType(this._oscillator,"fm")?this._oscillator.modulationIndex:void 0}},{key:"harmonicity",get:function(){return this._getOscType(this._oscillator,"fm")||this._getOscType(this._oscillator,"am")?this._oscillator.harmonicity:void 0}},{key:"modulationFrequency",get:function(){return this._getOscType(this._oscillator,"pwm")?this._oscillator.modulationFrequency:void 0}},{key:"asArray",value:function(){var t=arguments.length>0&&void 0!==arguments[0]?arguments[0]:1024;return kr(this,void 0,void 0,i(ti).mark((function e(){return i(ti).wrap((function(i){for(;;)switch(i.prev=i.next){case 0:return i.abrupt("return",Lc(this,t));case 1:case"end":return i.stop()}}),e,this)})))}},{key:"dispose",value:function(){return i(sr)(i(mr)(n.prototype),"dispose",this).call(this),this.detune.dispose(),this.frequency.dispose(),this._oscillator.dispose(),this}}],[{key:"getDefaults",value:function(){return Object.assign(Uc.getDefaults(),Qc.getDefaults(),Hc.getDefaults(),Jc.getDefaults(),$c.getDefaults(),Kc.getDefaults())}}]),n}(qc),es=(si=o("kumvF"),mr=o("jlIh9"),mr=o("jlIh9"),mr=o("jlIh9"),function(t){"use strict";i(L)(n,t);var e=i(Z)(n);function n(){var t;return i(a)(this,n),(t=e.call(this,Object.assign(Ar(n.getDefaults(),arguments,["value"])))).override=!1,t.name="Add",t._sum=new pc({context:t.context}),t.input=t._sum,t.output=t._sum,t.addend=t._param,hc(t._constantSource,t._sum),t}return i(r)(n,[{key:"dispose",value:function(){return i(sr)(i(mr)(n.prototype),"dispose",this).call(this),this._sum.dispose(),this}}],[{key:"getDefaults",value:function(){return Object.assign(bc.getDefaults(),{value:0})}}]),n}(bc)),ns=function(t){"use strict";i(L)(n,t);var e=i(Z)(n);function n(){var t;i(a)(this,n),(t=e.call(this,Object.assign(Ar(n.getDefaults(),arguments,["min","max"])))).name="Scale";var o=Ar(n.getDefaults(),arguments,["min","max"]);return t._mult=t.input=new Xc({context:t.context,value:o.max-o.min}),t._add=t.output=new es({context:t.context,value:o.min}),t._min=o.min,t._max=o.max,t.input.connect(t.output),t}return i(r)(n,[{key:"min",get:function(){return this._min},set:function(i){this._min=i,this._setRange()}},{key:"max",get:function(){return this._max},set:function(i){this._max=i,this._setRange()}},{key:"_setRange",value:function(){this._add.value=this._min,this._mult.value=this._max-this._min}},{key:"dispose",value:function(){return i(sr)(i(mr)(n.prototype),"dispose",this).call(this),this._add.dispose(),this._mult.dispose(),this}}],[{key:"getDefaults",value:function(){return Object.assign(zc.getDefaults(),{max:1,min:0})}}]),n}(zc);mr=o("jlIh9"),si=o("kumvF"),mr=o("jlIh9");function os(i){var t=arguments.length>1&&void 0!==arguments[1]?arguments[1]:1/0,e=new WeakMap;return function(n,o){Reflect.defineProperty(n,o,{configurable:!0,enumerable:!0,get:function(){return e.get(this)},set:function(n){Wa(n,i,t),e.set(this,n)}})}}function as(i){var t=arguments.length>1&&void 0!==arguments[1]?arguments[1]:1/0,e=new WeakMap;return function(n,o){Reflect.defineProperty(n,o,{configurable:!0,enumerable:!0,get:function(){return e.get(this)},set:function(n){Wa(this.toSeconds(n),i,t),e.set(this,n)}})}}var rs=function(t){"use strict";i(L)(n,t);var e=i(Z)(n);function n(){var t;i(a)(this,n),(t=e.call(this,Ar(n.getDefaults(),arguments,["url","onload"]))).name="Player",t._activeSources=new Set;var o=Ar(n.getDefaults(),arguments,["url","onload"]);return t._buffer=new zr({onload:t._onload.bind(i(si)(t),o.onload),onerror:o.onerror,reverse:o.reverse,url:o.url}),t.autostart=o.autostart,t._loop=o.loop,t._loopStart=o.loopStart,t._loopEnd=o.loopEnd,t._playbackRate=o.playbackRate,t.fadeIn=o.fadeIn,t.fadeOut=o.fadeOut,t}return i(r)(n,[{key:"load",value:function(t){return kr(this,void 0,void 0,i(ti).mark((function e(){return i(ti).wrap((function(i){for(;;)switch(i.prev=i.next){case 0:return i.next=2,this._buffer.load(t);case 2:return this._onload(),i.abrupt("return",this);case 4:case"end":return i.stop()}}),e,this)})))}},{key:"_onload",value:function(){var i=arguments.length>0&&void 0!==arguments[0]?arguments[0]:Ur;i(),this.autostart&&this.start()}},{key:"_onSourceEnd",value:function(i){this.onstop(this),this._activeSources.delete(i),0!==this._activeSources.size||this._synced||"started"!==this._state.getValueAtTime(this.now())||(this._state.cancel(this.now()),this._state.setStateAtTime("stopped",this.now()))}},{key:"start",value:function(t,e,o){return i(sr)(i(mr)(n.prototype),"start",this).call(this,t,e,o),this}},{key:"_start",value:function(i,t,e){t=this._loop?Cr(t,this._loopStart):Cr(t,0);var n=this.toSeconds(t),o=e;e=Cr(e,Math.max(this._buffer.duration-n,0));var a=this.toSeconds(e);a/=this._playbackRate,i=this.toSeconds(i);var r=new _c({url:this._buffer,context:this.context,fadeIn:this.fadeIn,fadeOut:this.fadeOut,loop:this._loop,loopEnd:this._loopEnd,loopStart:this._loopStart,onended:this._onSourceEnd.bind(this),playbackRate:this._playbackRate}).connect(this.output);this._loop||this._synced||(this._state.cancel(i+a),this._state.setStateAtTime("stopped",i+a,{implicitEnd:!0})),this._activeSources.add(r),this._loop&&Xa(o)?r.start(i,n):r.start(i,n,a-this.toSeconds(this.fadeOut))}},{key:"_stop",value:function(i){var t=this.toSeconds(i);this._activeSources.forEach((function(i){return i.stop(t)}))}},{key:"restart",value:function(t,e,o){return i(sr)(i(mr)(n.prototype),"restart",this).call(this,t,e,o),this}},{key:"_restart",value:function(i,t,e){this._stop(i),this._start(i,t,e)}},{key:"seek",value:function(i,t){var e=this.toSeconds(t);if("started"===this._state.getValueAtTime(e)){var n=this.toSeconds(i);this._stop(e),this._start(e,n)}return this}},{key:"setLoopPoints",value:function(i,t){return this.loopStart=i,this.loopEnd=t,this}},{key:"loopStart",get:function(){return this._loopStart},set:function(i){this._loopStart=i,this.buffer.loaded&&Wa(this.toSeconds(i),0,this.buffer.duration),this._activeSources.forEach((function(t){t.loopStart=i}))}},{key:"loopEnd",get:function(){return this._loopEnd},set:function(i){this._loopEnd=i,this.buffer.loaded&&Wa(this.toSeconds(i),0,this.buffer.duration),this._activeSources.forEach((function(t){t.loopEnd=i}))}},{key:"buffer",get:function(){return this._buffer},set:function(i){this._buffer.set(i)}},{key:"loop",get:function(){return this._loop},set:function(i){if(this._loop!==i&&(this._loop=i,this._activeSources.forEach((function(t){t.loop=i})),i)){var t=this._state.getNextState("stopped",this.now());t&&this._state.cancel(t.time)}}},{key:"playbackRate",get:function(){return this._playbackRate},set:function(i){this._playbackRate=i;var t=this.now(),e=this._state.getNextState("stopped",t);e&&e.implicitEnd&&(this._state.cancel(e.time),this._activeSources.forEach((function(i){return i.cancelStop()}))),this._activeSources.forEach((function(e){e.playbackRate.setValueAtTime(i,t)}))}},{key:"reverse",get:function(){return this._buffer.reverse},set:function(i){this._buffer.reverse=i}},{key:"loaded",get:function(){return this._buffer.loaded}},{key:"dispose",value:function(){return i(sr)(i(mr)(n.prototype),"dispose",this).call(this),this._activeSources.forEach((function(i){return i.dispose()})),this._activeSources.clear(),this._buffer.dispose(),this}}],[{key:"getDefaults",value:function(){return Object.assign(qc.getDefaults(),{autostart:!1,fadeIn:0,fadeOut:0,loop:!1,loopEnd:0,loopStart:0,onload:Ur,onerror:Ur,playbackRate:1,reverse:!1})}}]),n}(qc);lr([as(0)],rs.prototype,"fadeIn",void 0),lr([as(0)],rs.prototype,"fadeOut",void 0);si=o("kumvF"),mr=o("jlIh9"),si=o("kumvF"),mr=o("jlIh9"),mr=o("jlIh9"),mr=o("jlIh9"),si=o("kumvF"),mr=o("jlIh9"),mr=o("jlIh9"),mr=o("jlIh9"),mr=o("jlIh9"),mr=o("jlIh9");var cs=function(t){"use strict";i(L)(n,t);var e=i(Z)(n);function n(){var t;i(a)(this,n),(t=e.call(this,Object.assign(Ar(n.getDefaults(),arguments,["value"])))).name="Pow";var o=Ar(n.getDefaults(),arguments,["value"]);return t._exponentScaler=t.input=t.output=new Yc({context:t.context,mapping:t._expFunc(o.value),length:8192}),t._exponent=o.value,t}return i(r)(n,[{key:"_expFunc",value:function(i){return function(t){return Math.pow(Math.abs(t),i)}}},{key:"value",get:function(){return this._exponent},set:function(i){this._exponent=i,this._exponentScaler.setMap(this._expFunc(this._exponent))}},{key:"dispose",value:function(){return i(sr)(i(mr)(n.prototype),"dispose",this).call(this),this._exponentScaler.dispose(),this}}],[{key:"getDefaults",value:function(){return Object.assign(zc.getDefaults(),{value:1})}}]),n}(zc),ss=(mr=o("jlIh9"),si=o("kumvF"),mr=o("jlIh9"),mr=o("jlIh9"),si=o("kumvF"),mr=o("jlIh9"),mr=o("jlIh9"),function(t){"use strict";i(L)(n,t);var e=i(Z)(n);function n(){var t;i(a)(this,n),(t=e.call(this,Ar(n.getDefaults(),arguments,["attack","decay","sustain","release"]))).name="Envelope",t._sig=new bc({context:t.context,value:0}),t.output=t._sig,t.input=void 0;var o=Ar(n.getDefaults(),arguments,["attack","decay","sustain","release"]);return t.attack=o.attack,t.decay=o.decay,t.sustain=o.sustain,t.release=o.release,t.attackCurve=o.attackCurve,t.releaseCurve=o.releaseCurve,t.decayCurve=o.decayCurve,t}return i(r)(n,[{key:"value",get:function(){return this.getValueAtTime(this.now())}},{key:"_getCurve",value:function(i,t){if(tr(i))return i;var e;for(e in us)if(us[e][t]===i)return e;return i}},{key:"_setCurve",value:function(i,t,e){if(tr(e)&&Reflect.has(us,e)){var n=us[e];Ja(n)?"_decayCurve"!==i&&(this[i]=n[t]):this[i]=n}else{if(!ir(e)||"_decayCurve"===i)throw new Error("Envelope: invalid curve: "+e);this[i]=e}}},{key:"attackCurve",get:function(){return this._getCurve(this._attackCurve,"In")},set:function(i){this._setCurve("_attackCurve","In",i)}},{key:"releaseCurve",get:function(){return this._getCurve(this._releaseCurve,"Out")},set:function(i){this._setCurve("_releaseCurve","Out",i)}},{key:"decayCurve",get:function(){return this._decayCurve},set:function(i){La(["linear","exponential"].some((function(t){return t===i})),"Invalid envelope curve: ".concat(i)),this._decayCurve=i}},{key:"triggerAttack",value:function(i){var t=arguments.length>1&&void 0!==arguments[1]?arguments[1]:1;this.log("triggerAttack",i,t),i=this.toSeconds(i);var e=this.toSeconds(this.attack),n=e,o=this.toSeconds(this.decay),a=this.getValueAtTime(i);if(a>0){var r=1/n,c=1-a;n=c/r}if(n<this.sampleTime)this._sig.cancelScheduledValues(i),this._sig.setValueAtTime(t,i);else if("linear"===this._attackCurve)this._sig.linearRampTo(t,n,i);else if("exponential"===this._attackCurve)this._sig.targetRampTo(t,n,i);else{this._sig.cancelAndHoldAtTime(i);for(var s=this._attackCurve,u=1;u<s.length;u++)if(s[u-1]<=a&&a<=s[u]){(s=this._attackCurve.slice(u))[0]=a;break}this._sig.setValueCurveAtTime(s,i,n,t)}if(o&&this.sustain<1){var d=t*this.sustain,m=i+n;this.log("decay",m),"linear"===this._decayCurve?this._sig.linearRampToValueAtTime(d,o+m):this._sig.exponentialApproachValueAtTime(d,m,o)}return this}},{key:"triggerRelease",value:function(i){this.log("triggerRelease",i),i=this.toSeconds(i);var t=this.getValueAtTime(i);if(t>0){var e=this.toSeconds(this.release);e<this.sampleTime?this._sig.setValueAtTime(0,i):"linear"===this._releaseCurve?this._sig.linearRampTo(0,e,i):"exponential"===this._releaseCurve?this._sig.targetRampTo(0,e,i):(La(ir(this._releaseCurve),"releaseCurve must be either 'linear', 'exponential' or an array"),this._sig.cancelAndHoldAtTime(i),this._sig.setValueCurveAtTime(this._releaseCurve,i,e,t))}return this}},{key:"getValueAtTime",value:function(i){return this._sig.getValueAtTime(i)}},{key:"triggerAttackRelease",value:function(i,t){var e=arguments.length>2&&void 0!==arguments[2]?arguments[2]:1;return t=this.toSeconds(t),this.triggerAttack(t,e),this.triggerRelease(t+this.toSeconds(i)),this}},{key:"cancel",value:function(i){return this._sig.cancelScheduledValues(this.toSeconds(i)),this}},{key:"connect",value:function(i){var t=arguments.length>1&&void 0!==arguments[1]?arguments[1]:0,e=arguments.length>2&&void 0!==arguments[2]?arguments[2]:0;return Dc(this,i,t,e),this}},{key:"asArray",value:function(){var t=arguments.length>0&&void 0!==arguments[0]?arguments[0]:1024;return kr(this,void 0,void 0,i(ti).mark((function e(){var n,o,a,r,c,s,u,d;return i(ti).wrap((function(i){for(;;)switch(i.prev=i.next){case 0:return n=t/this.context.sampleRate,o=new Yr(1,n,this.context.sampleRate),a=this.toSeconds(this.attack)+this.toSeconds(this.decay),r=a+this.toSeconds(this.release),s=r+(c=.1*r),(u=new this.constructor(Object.assign(this.get(),{attack:n*this.toSeconds(this.attack)/s,decay:n*this.toSeconds(this.decay)/s,release:n*this.toSeconds(this.release)/s,context:o})))._sig.toDestination(),u.triggerAttackRelease(n*(a+c)/s,0),i.next=11,o.render();case 11:return d=i.sent,i.abrupt("return",d.getChannelData(0));case 13:case"end":return i.stop()}}),e,this)})))}},{key:"dispose",value:function(){return i(sr)(i(mr)(n.prototype),"dispose",this).call(this),this._sig.dispose(),this}}],[{key:"getDefaults",value:function(){return Object.assign(yc.getDefaults(),{attack:.01,attackCurve:"linear",decay:.1,decayCurve:"exponential",release:1,releaseCurve:"exponential",sustain:.5})}}]),n}(yc));lr([as(0)],ss.prototype,"attack",void 0),lr([as(0)],ss.prototype,"decay",void 0),lr([os(0,1)],ss.prototype,"sustain",void 0),lr([as(0)],ss.prototype,"release",void 0);var us=function(){var i,t,e=128,n=[];for(i=0;i<e;i++)n[i]=Math.sin(i/127*(Math.PI/2));var o=[];for(i=0;i<127;i++){t=i/127;var a=Math.sin(t*(2*Math.PI)*6.4-Math.PI/2)+1;o[i]=a/10+.83*t}o[127]=1;var r=[];for(i=0;i<e;i++)r[i]=Math.ceil(i/127*5)/5;var c=[];for(i=0;i<e;i++)t=i/127,c[i]=.5*(1-Math.cos(Math.PI*t));var s,u=[];for(i=0;i<e;i++){t=i/127;var d=4*Math.pow(t,3)+.2,m=Math.cos(d*Math.PI*2*t);u[i]=Math.abs(m*(1-t))}function l(i){for(var t=new Array(i.length),e=0;e<i.length;e++)t[e]=1-i[e];return t}return{bounce:{In:l(u),Out:u},cosine:{In:n,Out:(s=n,s.slice(0).reverse())},exponential:"exponential",linear:"linear",ripple:{In:o,Out:l(o)},sine:{In:c,Out:l(c)},step:{In:r,Out:l(r)}}}(),ds=(si=o("kumvF"),mr=o("jlIh9"),function(t){"use strict";i(L)(n,t);var e=i(Z)(n);function n(){var t;i(a)(this,n),(t=e.call(this,Ar(n.getDefaults(),arguments)))._scheduledEvents=[],t._synced=!1,t._original_triggerAttack=t.triggerAttack,t._original_triggerRelease=t.triggerRelease;var o=Ar(n.getDefaults(),arguments);return t._volume=t.output=new Gc({context:t.context,volume:o.volume}),t.volume=t._volume.volume,Lr(i(si)(t),"volume"),t}return i(r)(n,[{key:"sync",value:function(){return this._syncState()&&(this._syncMethod("triggerAttack",1),this._syncMethod("triggerRelease",0)),this}},{key:"_syncState",value:function(){var i=!1;return this._synced||(this._synced=!0,i=!0),i}},{key:"_syncMethod",value:function(i,t){var e=this,n=this["_original_"+i]=this[i];this[i]=function(){for(var i=arguments.length,o=new Array(i),a=0;a<i;a++)o[a]=arguments[a];var r=e,c=o[t],s=e.context.transport.schedule((function(i){o[t]=i,n.apply(r,o)}),c);e._scheduledEvents.push(s)}}},{key:"unsync",value:function(){var i=this;return this._scheduledEvents.forEach((function(t){return i.context.transport.clear(t)})),this._scheduledEvents=[],this._synced&&(this._synced=!1,this.triggerAttack=this._original_triggerAttack,this.triggerRelease=this._original_triggerRelease),this}},{key:"triggerAttackRelease",value:function(i,t,e,n){var o=this.toSeconds(e),a=this.toSeconds(t);return this.triggerAttack(i,o,n),this.triggerRelease(o+a),this}},{key:"dispose",value:function(){return i(sr)(i(mr)(n.prototype),"dispose",this).call(this),this._volume.dispose(),this.unsync(),this._scheduledEvents=[],this}}],[{key:"getDefaults",value:function(){return Object.assign(yc.getDefaults(),{volume:0})}}]),n}(yc)),ms=function(t){"use strict";i(L)(n,t);var e=i(Z)(n);function n(){var t;i(a)(this,n),t=e.call(this,Ar(n.getDefaults(),arguments));var o=Ar(n.getDefaults(),arguments);return t.portamento=o.portamento,t.onsilence=o.onsilence,t}return i(r)(n,[{key:"triggerAttack",value:function(i,t){var e=arguments.length>2&&void 0!==arguments[2]?arguments[2]:1;this.log("triggerAttack",i,t,e);var n=this.toSeconds(t);return this._triggerEnvelopeAttack(n,e),this.setNote(i,n),this}},{key:"triggerRelease",value:function(i){this.log("triggerRelease",i);var t=this.toSeconds(i);return this._triggerEnvelopeRelease(t),this}},{key:"setNote",value:function(i,t){var e=this.toSeconds(t),n=i instanceof uc?i.toFrequency():i;if(this.portamento>0&&this.getLevelAtTime(e)>.05){var o=this.toSeconds(this.portamento);this.frequency.exponentialRampTo(n,o,e)}else this.frequency.setValueAtTime(n,e);return this}}],[{key:"getDefaults",value:function(){return Object.assign(ds.getDefaults(),{detune:0,onsilence:Ur,portamento:0})}}]),n}(ds);lr([as(0)],ms.prototype,"portamento",void 0);si=o("kumvF"),mr=o("jlIh9"),mr=o("jlIh9");var ls=function(t){"use strict";i(L)(n,t);var e=i(Z)(n);function n(){var t;return i(a)(this,n),(t=e.call(this,Ar(n.getDefaults(),arguments,["attack","decay","sustain","release"]))).name="AmplitudeEnvelope",t._gainNode=new pc({context:t.context,gain:0}),t.output=t._gainNode,t.input=t._gainNode,t._sig.connect(t._gainNode.gain),t.output=t._gainNode,t.input=t._gainNode,t}return i(r)(n,[{key:"dispose",value:function(){return i(sr)(i(mr)(n.prototype),"dispose",this).call(this),this._gainNode.dispose(),this}}]),n}(ss),ks=function(t){"use strict";i(L)(n,t);var e=i(Z)(n);function n(){var t;i(a)(this,n),(t=e.call(this,Ar(n.getDefaults(),arguments))).name="Synth";var o=Ar(n.getDefaults(),arguments);return t.oscillator=new ts(Object.assign({context:t.context,detune:o.detune,onstop:function(){return t.onsilence(i(si)(t))}},o.oscillator)),t.frequency=t.oscillator.frequency,t.detune=t.oscillator.detune,t.envelope=new ls(Object.assign({context:t.context},o.envelope)),t.oscillator.chain(t.envelope,t.output),Lr(i(si)(t),["oscillator","frequency","detune","envelope"]),t}return i(r)(n,[{key:"_triggerEnvelopeAttack",value:function(i,t){if(this.envelope.triggerAttack(i,t),this.oscillator.start(i),0===this.envelope.sustain){var e=this.toSeconds(this.envelope.attack),n=this.toSeconds(this.envelope.decay);this.oscillator.stop(i+e+n)}}},{key:"_triggerEnvelopeRelease",value:function(i){this.envelope.triggerRelease(i),this.oscillator.stop(i+this.toSeconds(this.envelope.release))}},{key:"getLevelAtTime",value:function(i){return i=this.toSeconds(i),this.envelope.getValueAtTime(i)}},{key:"dispose",value:function(){return i(sr)(i(mr)(n.prototype),"dispose",this).call(this),this.oscillator.dispose(),this.envelope.dispose(),this}}],[{key:"getDefaults",value:function(){return Object.assign(ms.getDefaults(),{envelope:Object.assign(xr(ss.getDefaults(),Object.keys(yc.getDefaults())),{attack:.005,decay:.1,release:1,sustain:.3}),oscillator:Object.assign(xr(ts.getDefaults(),i(ki)(Object.keys(qc.getDefaults())).concat(["frequency","detune"])),{type:"triangle"})})}}]),n}(ms),vs=(si=o("kumvF"),mr=o("jlIh9"),si=o("kumvF"),mr=o("jlIh9"),si=o("kumvF"),mr=o("jlIh9"),mr=o("jlIh9"),function(t){"use strict";i(L)(n,t);var e=i(Z)(n);function n(){var t;i(a)(this,n),(t=e.call(this,Ar(n.getDefaults(),arguments,["frequency","type"]))).name="BiquadFilter";var o=Ar(n.getDefaults(),arguments,["frequency","type"]);return t._filter=t.context.createBiquadFilter(),t.input=t.output=t._filter,t.Q=new vc({context:t.context,units:"number",value:o.Q,param:t._filter.Q}),t.frequency=new vc({context:t.context,units:"frequency",value:o.frequency,param:t._filter.frequency}),t.detune=new vc({context:t.context,units:"cents",value:o.detune,param:t._filter.detune}),t.gain=new vc({context:t.context,units:"decibels",convert:!1,value:o.gain,param:t._filter.gain}),t.type=o.type,t}return i(r)(n,[{key:"type",get:function(){return this._filter.type},set:function(i){La(-1!==["lowpass","highpass","bandpass","lowshelf","highshelf","notch","allpass","peaking"].indexOf(i),"Invalid filter type: ".concat(i)),this._filter.type=i}},{key:"getFrequencyResponse",value:function(){for(var i=arguments.length>0&&void 0!==arguments[0]?arguments[0]:128,t=new Float32Array(i),e=0;e<i;e++){var n=Math.pow(e/i,2),o=19980*n+20;t[e]=o}var a=new Float32Array(i),r=new Float32Array(i),c=this.context.createBiquadFilter();return c.type=this.type,c.Q.value=this.Q.value,c.frequency.value=this.frequency.value,c.gain.value=this.gain.value,c.getFrequencyResponse(t,a,r),a}},{key:"dispose",value:function(){return i(sr)(i(mr)(n.prototype),"dispose",this).call(this),this._filter.disconnect(),this.Q.dispose(),this.frequency.dispose(),this.gain.dispose(),this.detune.dispose(),this}}],[{key:"getDefaults",value:function(){return Object.assign(yc.getDefaults(),{Q:1,type:"lowpass",frequency:350,detune:0,gain:0})}}]),n}(yc)),ys=function(t){"use strict";i(L)(n,t);var e=i(Z)(n);function n(){var t;i(a)(this,n),(t=e.call(this,Ar(n.getDefaults(),arguments,["frequency","type","rolloff"]))).name="Filter",t.input=new pc({context:t.context}),t.output=new pc({context:t.context}),t._filters=[];var o=Ar(n.getDefaults(),arguments,["frequency","type","rolloff"]);return t._filters=[],t.Q=new bc({context:t.context,units:"positive",value:o.Q}),t.frequency=new bc({context:t.context,units:"frequency",value:o.frequency}),t.detune=new bc({context:t.context,units:"cents",value:o.detune}),t.gain=new bc({context:t.context,units:"decibels",convert:!1,value:o.gain}),t._type=o.type,t.rolloff=o.rolloff,Lr(i(si)(t),["detune","frequency","gain","Q"]),t}return i(r)(n,[{key:"type",get:function(){return this._type},set:function(i){La(-1!==["lowpass","highpass","bandpass","lowshelf","highshelf","notch","allpass","peaking"].indexOf(i),"Invalid filter type: ".concat(i)),this._type=i,this._filters.forEach((function(t){return t.type=i}))}},{key:"rolloff",get:function(){return this._rolloff},set:function(t){var e=$a(t)?t:parseInt(t,10),n=[-12,-24,-48,-96],o=n.indexOf(e);La(-1!==o,"rolloff can only be ".concat(n.join(", "))),o+=1,this._rolloff=e,this.input.disconnect(),this._filters.forEach((function(i){return i.disconnect()})),this._filters=new Array(o);for(var a=0;a<o;a++){var r=new vs({context:this.context});r.type=this._type,this.frequency.connect(r.frequency),this.detune.connect(r.detune),this.Q.connect(r.Q),this.gain.connect(r.gain),this._filters[a]=r}this._internalChannels=this._filters,hc.apply(void 0,[this.input].concat(i(ki)(this._internalChannels),[this.output]))}},{key:"getFrequencyResponse",value:function(){var i=arguments.length>0&&void 0!==arguments[0]?arguments[0]:128,t=new vs({frequency:this.frequency.value,gain:this.gain.value,Q:this.Q.value,type:this._type,detune:this.detune.value}),e=new Float32Array(i).map((function(){return 1}));return this._filters.forEach((function(){t.getFrequencyResponse(i).forEach((function(i,t){return e[t]*=i}))})),t.dispose(),e}},{key:"dispose",value:function(){return i(sr)(i(mr)(n.prototype),"dispose",this).call(this),this._filters.forEach((function(i){i.dispose()})),Wr(this,["detune","frequency","gain","Q"]),this.frequency.dispose(),this.Q.dispose(),this.detune.dispose(),this.gain.dispose(),this}}],[{key:"getDefaults",value:function(){return Object.assign(yc.getDefaults(),{Q:1,detune:0,frequency:350,gain:0,rolloff:-12,type:"lowpass"})}}]),n}(yc),hs=(mr=o("jlIh9"),function(t){"use strict";i(L)(n,t);var e=i(Z)(n);function n(){var t;i(a)(this,n),(t=e.call(this,Ar(n.getDefaults(),arguments,["attack","decay","sustain","release"]))).name="FrequencyEnvelope";var o=Ar(n.getDefaults(),arguments,["attack","decay","sustain","release"]);return t._octaves=o.octaves,t._baseFrequency=t.toFrequency(o.baseFrequency),t._exponent=t.input=new cs({context:t.context,value:o.exponent}),t._scale=t.output=new ns({context:t.context,min:t._baseFrequency,max:t._baseFrequency*Math.pow(2,t._octaves)}),t._sig.chain(t._exponent,t._scale),t}return i(r)(n,[{key:"baseFrequency",get:function(){return this._baseFrequency},set:function(i){var t=this.toFrequency(i);Wa(t,0),this._baseFrequency=t,this._scale.min=this._baseFrequency,this.octaves=this._octaves}},{key:"octaves",get:function(){return this._octaves},set:function(i){this._octaves=i,this._scale.max=this._baseFrequency*Math.pow(2,i)}},{key:"exponent",get:function(){return this._exponent.value},set:function(i){this._exponent.value=i}},{key:"dispose",value:function(){return i(sr)(i(mr)(n.prototype),"dispose",this).call(this),this._exponent.dispose(),this._scale.dispose(),this}}],[{key:"getDefaults",value:function(){return Object.assign(ss.getDefaults(),{baseFrequency:200,exponent:1,octaves:4})}}]),n}(ss)),Ts=function(t){"use strict";i(L)(n,t);var e=i(Z)(n);function n(){var t;i(a)(this,n),(t=e.call(this,Ar(n.getDefaults(),arguments))).name="MonoSynth";var o=Ar(n.getDefaults(),arguments);return t.oscillator=new ts(Object.assign(o.oscillator,{context:t.context,detune:o.detune,onstop:function(){return t.onsilence(i(si)(t))}})),t.frequency=t.oscillator.frequency,t.detune=t.oscillator.detune,t.filter=new ys(Object.assign(o.filter,{context:t.context})),t.filterEnvelope=new hs(Object.assign(o.filterEnvelope,{context:t.context})),t.envelope=new ls(Object.assign(o.envelope,{context:t.context})),t.oscillator.chain(t.filter,t.envelope,t.output),t.filterEnvelope.connect(t.filter.frequency),Lr(i(si)(t),["oscillator","frequency","detune","filter","filterEnvelope","envelope"]),t}return i(r)(n,[{key:"_triggerEnvelopeAttack",value:function(i){var t=arguments.length>1&&void 0!==arguments[1]?arguments[1]:1;if(this.envelope.triggerAttack(i,t),this.filterEnvelope.triggerAttack(i),this.oscillator.start(i),0===this.envelope.sustain){var e=this.toSeconds(this.envelope.attack),n=this.toSeconds(this.envelope.decay);this.oscillator.stop(i+e+n)}}},{key:"_triggerEnvelopeRelease",value:function(i){this.envelope.triggerRelease(i),this.filterEnvelope.triggerRelease(i),this.oscillator.stop(i+this.toSeconds(this.envelope.release))}},{key:"getLevelAtTime",value:function(i){return i=this.toSeconds(i),this.envelope.getValueAtTime(i)}},{key:"dispose",value:function(){return i(sr)(i(mr)(n.prototype),"dispose",this).call(this),this.oscillator.dispose(),this.envelope.dispose(),this.filterEnvelope.dispose(),this.filter.dispose(),this}}],[{key:"getDefaults",value:function(){return Object.assign(ms.getDefaults(),{envelope:Object.assign(xr(ss.getDefaults(),Object.keys(yc.getDefaults())),{attack:.005,decay:.1,release:1,sustain:.9}),filter:Object.assign(xr(ys.getDefaults(),Object.keys(yc.getDefaults())),{Q:1,rolloff:-12,type:"lowpass"}),filterEnvelope:Object.assign(xr(hs.getDefaults(),Object.keys(yc.getDefaults())),{attack:.6,baseFrequency:200,decay:.2,exponent:2,octaves:3,release:2,sustain:.5}),oscillator:Object.assign(xr(ts.getDefaults(),Object.keys(qc.getDefaults())),{type:"sawtooth"})})}}]),n}(ms),fs=(mr=o("jlIh9"),si=o("kumvF"),mr=o("jlIh9"),si=o("kumvF"),mr=o("jlIh9"),function(t){"use strict";i(L)(n,t);var e=i(Z)(n);function n(){var t;i(a)(this,n),(t=e.call(this,Ar(n.getDefaults(),arguments))).name="MembraneSynth",t.portamento=0;var o=Ar(n.getDefaults(),arguments);return t.pitchDecay=o.pitchDecay,t.octaves=o.octaves,Lr(i(si)(t),["oscillator","envelope"]),t}return i(r)(n,[{key:"setNote",value:function(i,t){var e=this.toSeconds(t),n=this.toFrequency(i instanceof uc?i.toFrequency():i),o=n*this.octaves;return this.oscillator.frequency.setValueAtTime(o,e),this.oscillator.frequency.exponentialRampToValueAtTime(n,e+this.toSeconds(this.pitchDecay)),this}},{key:"dispose",value:function(){return i(sr)(i(mr)(n.prototype),"dispose",this).call(this),this}}],[{key:"getDefaults",value:function(){return _r(ms.getDefaults(),ks.getDefaults(),{envelope:{attack:.001,attackCurve:"exponential",decay:.4,release:1.4,sustain:.01},octaves:10,oscillator:{type:"sine"},pitchDecay:.05})}}]),n}(ks));lr([os(0)],fs.prototype,"octaves",void 0),lr([as(0)],fs.prototype,"pitchDecay",void 0);mr=o("jlIh9"),mr=o("jlIh9"),mr=o("jlIh9"),si=o("kumvF"),mr=o("jlIh9"),si=o("kumvF"),mr=o("jlIh9");var ps=new Set;function gs(i){ps.add(i)}function _s(i,t){var e='registerProcessor("'.concat(i,'", ').concat(t,")");ps.add(e)}gs('\n\t/**\n\t * The base AudioWorkletProcessor for use in Tone.js. Works with the [[ToneAudioWorklet]]. \n\t */\n\tclass ToneAudioWorkletProcessor extends AudioWorkletProcessor {\n\n\t\tconstructor(options) {\n\t\t\t\n\t\t\tsuper(options);\n\t\t\t/**\n\t\t\t * If the processor was disposed or not. Keep alive until it\'s disposed.\n\t\t\t */\n\t\t\tthis.disposed = false;\n\t\t   \t/** \n\t\t\t * The number of samples in the processing block\n\t\t\t */\n\t\t\tthis.blockSize = 128;\n\t\t\t/**\n\t\t\t * the sample rate\n\t\t\t */\n\t\t\tthis.sampleRate = sampleRate;\n\n\t\t\tthis.port.onmessage = (event) => {\n\t\t\t\t// when it receives a dispose \n\t\t\t\tif (event.data === "dispose") {\n\t\t\t\t\tthis.disposed = true;\n\t\t\t\t}\n\t\t\t};\n\t\t}\n\t}\n');gs("\n\t/**\n\t * Abstract class for a single input/output processor. \n\t * has a 'generate' function which processes one sample at a time\n\t */\n\tclass SingleIOProcessor extends ToneAudioWorkletProcessor {\n\n\t\tconstructor(options) {\n\t\t\tsuper(Object.assign(options, {\n\t\t\t\tnumberOfInputs: 1,\n\t\t\t\tnumberOfOutputs: 1\n\t\t\t}));\n\t\t\t/**\n\t\t\t * Holds the name of the parameter and a single value of that\n\t\t\t * parameter at the current sample\n\t\t\t * @type { [name: string]: number }\n\t\t\t */\n\t\t\tthis.params = {}\n\t\t}\n\n\t\t/**\n\t\t * Generate an output sample from the input sample and parameters\n\t\t * @abstract\n\t\t * @param input number\n\t\t * @param channel number\n\t\t * @param parameters { [name: string]: number }\n\t\t * @returns number\n\t\t */\n\t\tgenerate(){}\n\n\t\t/**\n\t\t * Update the private params object with the \n\t\t * values of the parameters at the given index\n\t\t * @param parameters { [name: string]: Float32Array },\n\t\t * @param index number\n\t\t */\n\t\tupdateParams(parameters, index) {\n\t\t\tfor (const paramName in parameters) {\n\t\t\t\tconst param = parameters[paramName];\n\t\t\t\tif (param.length > 1) {\n\t\t\t\t\tthis.params[paramName] = parameters[paramName][index];\n\t\t\t\t} else {\n\t\t\t\t\tthis.params[paramName] = parameters[paramName][0];\n\t\t\t\t}\n\t\t\t}\n\t\t}\n\n\t\t/**\n\t\t * Process a single frame of the audio\n\t\t * @param inputs Float32Array[][]\n\t\t * @param outputs Float32Array[][]\n\t\t */\n\t\tprocess(inputs, outputs, parameters) {\n\t\t\tconst input = inputs[0];\n\t\t\tconst output = outputs[0];\n\t\t\t// get the parameter values\n\t\t\tconst channelCount = Math.max(input && input.length || 0, output.length);\n\t\t\tfor (let sample = 0; sample < this.blockSize; sample++) {\n\t\t\t\tthis.updateParams(parameters, sample);\n\t\t\t\tfor (let channel = 0; channel < channelCount; channel++) {\n\t\t\t\t\tconst inputSample = input && input.length ? input[channel][sample] : 0;\n\t\t\t\t\toutput[channel][sample] = this.generate(inputSample, channel, this.params);\n\t\t\t\t}\n\t\t\t}\n\t\t\treturn !this.disposed;\n\t\t}\n\t};\n");gs("\n\t/**\n\t * A multichannel buffer for use within an AudioWorkletProcessor as a delay line\n\t */\n\tclass DelayLine {\n\t\t\n\t\tconstructor(size, channels) {\n\t\t\tthis.buffer = [];\n\t\t\tthis.writeHead = []\n\t\t\tthis.size = size;\n\n\t\t\t// create the empty channels\n\t\t\tfor (let i = 0; i < channels; i++) {\n\t\t\t\tthis.buffer[i] = new Float32Array(this.size);\n\t\t\t\tthis.writeHead[i] = 0;\n\t\t\t}\n\t\t}\n\n\t\t/**\n\t\t * Push a value onto the end\n\t\t * @param channel number\n\t\t * @param value number\n\t\t */\n\t\tpush(channel, value) {\n\t\t\tthis.writeHead[channel] += 1;\n\t\t\tif (this.writeHead[channel] > this.size) {\n\t\t\t\tthis.writeHead[channel] = 0;\n\t\t\t}\n\t\t\tthis.buffer[channel][this.writeHead[channel]] = value;\n\t\t}\n\n\t\t/**\n\t\t * Get the recorded value of the channel given the delay\n\t\t * @param channel number\n\t\t * @param delay number delay samples\n\t\t */\n\t\tget(channel, delay) {\n\t\t\tlet readHead = this.writeHead[channel] - Math.floor(delay);\n\t\t\tif (readHead < 0) {\n\t\t\t\treadHead += this.size;\n\t\t\t}\n\t\t\treturn this.buffer[channel][readHead];\n\t\t}\n\t}\n");var As="feedback-comb-filter";_s(As,'\n\tclass FeedbackCombFilterWorklet extends SingleIOProcessor {\n\n\t\tconstructor(options) {\n\t\t\tsuper(options);\n\t\t\tthis.delayLine = new DelayLine(this.sampleRate, options.channelCount || 2);\n\t\t}\n\n\t\tstatic get parameterDescriptors() {\n\t\t\treturn [{\n\t\t\t\tname: "delayTime",\n\t\t\t\tdefaultValue: 0.1,\n\t\t\t\tminValue: 0,\n\t\t\t\tmaxValue: 1,\n\t\t\t\tautomationRate: "k-rate"\n\t\t\t}, {\n\t\t\t\tname: "feedback",\n\t\t\t\tdefaultValue: 0.5,\n\t\t\t\tminValue: 0,\n\t\t\t\tmaxValue: 0.9999,\n\t\t\t\tautomationRate: "k-rate"\n\t\t\t}];\n\t\t}\n\n\t\tgenerate(input, channel, parameters) {\n\t\t\tconst delayedSample = this.delayLine.get(channel, parameters.delayTime * this.sampleRate);\n\t\t\tthis.delayLine.push(channel, input + delayedSample * parameters.feedback);\n\t\t\treturn delayedSample;\n\t\t}\n\t}\n');mr=o("jlIh9"),si=o("kumvF"),mr=o("jlIh9");var Cs=function(t){"use strict";i(L)(n,t);var e=i(Z)(n);function n(){var t;i(a)(this,n),(t=e.call(this,Ar(n.getDefaults(),arguments,["voice","options"]))).name="PolySynth",t._availableVoices=[],t._activeVoices=[],t._voices=[],t._gcTimeout=-1,t._averageActiveVoices=0;var o=Ar(n.getDefaults(),arguments,["voice","options"]);La(!$a(o.voice),"DEPRECATED: The polyphony count is no longer the first argument.");var r=o.voice.getDefaults();t.options=Object.assign(r,o.options),t.voice=o.voice,t.maxPolyphony=o.maxPolyphony,t._dummyVoice=t._getNextAvailableVoice();var c=t._voices.indexOf(t._dummyVoice);return t._voices.splice(c,1),t._gcTimeout=t.context.setInterval(t._collectGarbage.bind(i(si)(t)),1),t}return i(r)(n,[{key:"activeVoices",get:function(){return this._activeVoices.length}},{key:"_makeVoiceAvailable",value:function(i){this._availableVoices.push(i);var t=this._activeVoices.findIndex((function(t){return t.voice===i}));this._activeVoices.splice(t,1)}},{key:"_getNextAvailableVoice",value:function(){if(this._availableVoices.length)return this._availableVoices.shift();if(this._voices.length<this.maxPolyphony){var i=new this.voice(Object.assign(this.options,{context:this.context,onsilence:this._makeVoiceAvailable.bind(this)}));return i.connect(this.output),this._voices.push(i),i}Za("Max polyphony exceeded. Note dropped.")}},{key:"_collectGarbage",value:function(){if(this._averageActiveVoices=Math.max(.95*this._averageActiveVoices,this.activeVoices),this._availableVoices.length&&this._voices.length>Math.ceil(this._averageActiveVoices+1)){var i=this._availableVoices.shift(),t=this._voices.indexOf(i);this._voices.splice(t,1),this.context.isOffline||i.dispose()}}},{key:"_triggerAttack",value:function(i,t,e){var n=this;i.forEach((function(i){var o=new Oc(n.context,i).toMidi(),a=n._getNextAvailableVoice();a&&(a.triggerAttack(i,t,e),n._activeVoices.push({midi:o,voice:a,released:!1}),n.log("triggerAttack",i,t))}))}},{key:"_triggerRelease",value:function(i,t){var e=this;i.forEach((function(i){var n=new Oc(e.context,i).toMidi(),o=e._activeVoices.find((function(i){var t=i.midi,e=i.released;return t===n&&!e}));o&&(o.voice.triggerRelease(t),o.released=!0,e.log("triggerRelease",i,t))}))}},{key:"_scheduleEvent",value:function(i,t,e,n){var o=this;La(!this.disposed,"Synth was already disposed"),e<=this.now()?"attack"===i?this._triggerAttack(t,e,n):this._triggerRelease(t,e):this.context.setTimeout((function(){o._scheduleEvent(i,t,e,n)}),e-this.now())}},{key:"triggerAttack",value:function(i,t,e){Array.isArray(i)||(i=[i]);var n=this.toSeconds(t);return this._scheduleEvent("attack",i,n,e),this}},{key:"triggerRelease",value:function(i,t){Array.isArray(i)||(i=[i]);var e=this.toSeconds(t);return this._scheduleEvent("release",i,e),this}},{key:"triggerAttackRelease",value:function(i,t,e,n){var o=this.toSeconds(e);if(this.triggerAttack(i,o,n),ir(t)){La(ir(i),"If the duration is an array, the notes must also be an array");for(var a=0;a<i.length;a++){var r=t[Math.min(a,t.length-1)],c=this.toSeconds(r);La(c>0,"The duration must be greater than 0"),this.triggerRelease(i[a],o+c)}}else{var s=this.toSeconds(t);La(s>0,"The duration must be greater than 0"),this.triggerRelease(i,o+s)}return this}},{key:"sync",value:function(){return this._syncState()&&(this._syncMethod("triggerAttack",1),this._syncMethod("triggerRelease",1)),this}},{key:"set",value:function(i){var t=xr(i,["onsilence","context"]);return this.options=_r(this.options,t),this._voices.forEach((function(i){return i.set(t)})),this._dummyVoice.set(t),this}},{key:"get",value:function(){return this._dummyVoice.get()}},{key:"releaseAll",value:function(i){var t=this.toSeconds(i);return this._activeVoices.forEach((function(i){i.voice.triggerRelease(t)})),this}},{key:"dispose",value:function(){return i(sr)(i(mr)(n.prototype),"dispose",this).call(this),this._dummyVoice.dispose(),this._voices.forEach((function(i){return i.dispose()})),this._activeVoices=[],this._availableVoices=[],this.context.clearInterval(this._gcTimeout),this}}],[{key:"getDefaults",value:function(){return Object.assign(ds.getDefaults(),{maxPolyphony:32,options:{},voice:ks})}}]),n}(ds),xs=(mr=o("jlIh9"),function(t){"use strict";i(L)(n,t);var e=i(Z)(n);function n(){var t;i(a)(this,n),(t=e.call(this,Ar(n.getDefaults(),arguments,["urls","onload","baseUrl"],"urls"))).name="Sampler",t._activeSources=new Map;var o=Ar(n.getDefaults(),arguments,["urls","onload","baseUrl"],"urls"),r={};return Object.keys(o.urls).forEach((function(i){var e=parseInt(i,10);if(La(er(i)||$a(e)&&isFinite(e),"url key is neither a note or midi pitch: ".concat(i)),er(i)){var n=new uc(t.context,i).toMidi();r[n]=o.urls[i]}else $a(e)&&isFinite(e)&&(r[e]=o.urls[e])})),t._buffers=new Kr({urls:r,onload:o.onload,baseUrl:o.baseUrl,onerror:o.onerror}),t.attack=o.attack,t.release=o.release,t.curve=o.curve,t._buffers.loaded&&Promise.resolve().then(o.onload),t}return i(r)(n,[{key:"_findClosest",value:function(i){for(var t=0;t<96;){if(this._buffers.has(i+t))return-t;if(this._buffers.has(i-t))return t;t++}throw new Error("No available buffers for note: ".concat(i))}},{key:"triggerAttack",value:function(i,t){var e=arguments.length>2&&void 0!==arguments[2]?arguments[2]:1,n=this;return this.log("triggerAttack",i,t,e),Array.isArray(i)||(i=[i]),i.forEach((function(i){var o=n,a=rc(new uc(n.context,i).toFrequency()),r=Math.round(a),c=a-r,s=n._findClosest(r),u=r-s,d=n._buffers.get(u),m=ec(s+c),l=new _c({url:d,context:n.context,curve:n.curve,fadeIn:n.attack,fadeOut:n.release,playbackRate:m}).connect(n.output);l.start(t,0,d.duration/m,e),ir(n._activeSources.get(r))||n._activeSources.set(r,[]),n._activeSources.get(r).push(l),l.onended=function(){if(o._activeSources&&o._activeSources.has(r)){var i=o._activeSources.get(r),t=i.indexOf(l);-1!==t&&i.splice(t,1)}}})),this}},{key:"triggerRelease",value:function(i,t){var e=this;return this.log("triggerRelease",i,t),Array.isArray(i)||(i=[i]),i.forEach((function(i){var n=new uc(e.context,i).toMidi();if(e._activeSources.has(n)&&e._activeSources.get(n).length){var o=e._activeSources.get(n);t=e.toSeconds(t),o.forEach((function(i){i.stop(t)})),e._activeSources.set(n,[])}})),this}},{key:"releaseAll",value:function(i){var t=this.toSeconds(i);return this._activeSources.forEach((function(i){for(;i.length;){i.shift().stop(t)}})),this}},{key:"sync",value:function(){return this._syncState()&&(this._syncMethod("triggerAttack",1),this._syncMethod("triggerRelease",1)),this}},{key:"triggerAttackRelease",value:function(i,t,e){var n=arguments.length>3&&void 0!==arguments[3]?arguments[3]:1,o=this.toSeconds(e);if(this.triggerAttack(i,o,n),ir(t)){var a=this;La(ir(i),"notes must be an array when duration is array"),i.forEach((function(i,e){var n=t[Math.min(e,t.length-1)];a.triggerRelease(i,o+a.toSeconds(n))}))}else this.triggerRelease(i,o+this.toSeconds(t));return this}},{key:"add",value:function(i,t,e){if(La(er(i)||isFinite(i),"note must be a pitch or midi: ".concat(i)),er(i)){var n=new uc(this.context,i).toMidi();this._buffers.add(n,t,e)}else this._buffers.add(i,t,e);return this}},{key:"loaded",get:function(){return this._buffers.loaded}},{key:"dispose",value:function(){return i(sr)(i(mr)(n.prototype),"dispose",this).call(this),this._buffers.dispose(),this._activeSources.forEach((function(i){i.forEach((function(i){return i.dispose()}))})),this._activeSources.clear(),this}}],[{key:"getDefaults",value:function(){return Object.assign(ds.getDefaults(),{attack:0,baseUrl:"",curve:"exponential",onload:Ur,onerror:Ur,release:.1,urls:{}})}}]),n}(ds));lr([as(0)],xs.prototype,"attack",void 0),lr([as(0)],xs.prototype,"release",void 0);si=o("kumvF"),mr=o("jlIh9"),mr=o("jlIh9");var bs=function(t){"use strict";i(L)(n,t);var e=i(Z)(n);function n(){var t;i(a)(this,n),(t=e.call(this,Ar(n.getDefaults(),arguments,["callback","value"]))).name="ToneEvent",t._state=new Cc("stopped"),t._startOffset=0;var o=Ar(n.getDefaults(),arguments,["callback","value"]);return t._loop=o.loop,t.callback=o.callback,t.value=o.value,t._loopStart=t.toTicks(o.loopStart),t._loopEnd=t.toTicks(o.loopEnd),t._playbackRate=o.playbackRate,t._probability=o.probability,t._humanize=o.humanize,t.mute=o.mute,t._playbackRate=o.playbackRate,t._state.increasing=!0,t._rescheduleEvents(),t}return i(r)(n,[{key:"_rescheduleEvents",value:function(){var i=arguments.length>0&&void 0!==arguments[0]?arguments[0]:-1,t=this;this._state.forEachFrom(i,(function(i){var e;if("started"===i.state){-1!==i.id&&t.context.transport.clear(i.id);var n=i.time+Math.round(t.startOffset/t._playbackRate);if(!0===t._loop||$a(t._loop)&&t._loop>1){e=1/0,$a(t._loop)&&(e=t._loop*t._getLoopDuration());var o=t._state.getAfter(n);null!==o&&(e=Math.min(e,o.time-n)),e!==1/0&&(t._state.setStateAtTime("stopped",n+e+1,{id:-1}),e=new Bc(t.context,e));var a=new Bc(t.context,t._getLoopDuration());i.id=t.context.transport.scheduleRepeat(t._tick.bind(t),a,new Bc(t.context,n),e)}else i.id=t.context.transport.schedule(t._tick.bind(t),new Bc(t.context,n))}}))}},{key:"state",get:function(){return this._state.getValueAtTime(this.context.transport.ticks)}},{key:"startOffset",get:function(){return this._startOffset},set:function(i){this._startOffset=i}},{key:"probability",get:function(){return this._probability},set:function(i){this._probability=i}},{key:"humanize",get:function(){return this._humanize},set:function(i){this._humanize=i}},{key:"start",value:function(i){var t=this.toTicks(i);return"stopped"===this._state.getValueAtTime(t)&&(this._state.add({id:-1,state:"started",time:t}),this._rescheduleEvents(t)),this}},{key:"stop",value:function(i){this.cancel(i);var t=this.toTicks(i);if("started"===this._state.getValueAtTime(t)){this._state.setStateAtTime("stopped",t,{id:-1});var e=this._state.getBefore(t),n=t;null!==e&&(n=e.time),this._rescheduleEvents(n)}return this}},{key:"cancel",value:function(i){var t=this;i=Cr(i,-1/0);var e=this.toTicks(i);return this._state.forEachFrom(e,(function(i){t.context.transport.clear(i.id)})),this._state.cancel(e),this}},{key:"_tick",value:function(i){var t=this.context.transport.getTicksAtTime(i);if(!this.mute&&"started"===this._state.getValueAtTime(t)){if(this.probability<1&&Math.random()>this.probability)return;if(this.humanize){var e=.02;Ka(this.humanize)||(e=this.toSeconds(this.humanize)),i+=(2*Math.random()-1)*e}this.callback(i,this.value)}}},{key:"_getLoopDuration",value:function(){return Math.round((this._loopEnd-this._loopStart)/this._playbackRate)}},{key:"loop",get:function(){return this._loop},set:function(i){this._loop=i,this._rescheduleEvents()}},{key:"playbackRate",get:function(){return this._playbackRate},set:function(i){this._playbackRate=i,this._rescheduleEvents()}},{key:"loopEnd",get:function(){return new Bc(this.context,this._loopEnd).toSeconds()},set:function(i){this._loopEnd=this.toTicks(i),this._loop&&this._rescheduleEvents()}},{key:"loopStart",get:function(){return new Bc(this.context,this._loopStart).toSeconds()},set:function(i){this._loopStart=this.toTicks(i),this._loop&&this._rescheduleEvents()}},{key:"progress",get:function(){if(this._loop){var i=this.context.transport.ticks,t=this._state.get(i);if(null!==t&&"started"===t.state){var e=this._getLoopDuration();return(i-t.time)%e/e}return 0}return 0}},{key:"dispose",value:function(){return i(sr)(i(mr)(n.prototype),"dispose",this).call(this),this.cancel(),this._state.dispose(),this}}],[{key:"getDefaults",value:function(){return Object.assign(kc.getDefaults(),{callback:Ur,humanize:!1,loop:!1,loopEnd:"1m",loopStart:0,mute:!1,playbackRate:1,probability:1,value:null})}}]),n}(kc),Ds=(mr=o("jlIh9"),function(t){"use strict";i(L)(n,t);var e=i(Z)(n);function n(){var t;i(a)(this,n),(t=e.call(this,Ar(n.getDefaults(),arguments,["callback","events"]))).name="Part",t._state=new Cc("stopped"),t._events=new Set;var o=Ar(n.getDefaults(),arguments,["callback","events"]);return t._state.increasing=!0,o.events.forEach((function(i){ir(i)?t.add(i[0],i[1]):t.add(i)})),t}return i(r)(n,[{key:"start",value:function(i,t){var e=this.toTicks(i);if("started"!==this._state.getValueAtTime(e)){var n=this;t=Cr(t,this._loop?this._loopStart:0),t=this._loop?Cr(t,this._loopStart):Cr(t,0);var o=this.toTicks(t);this._state.add({id:-1,offset:o,state:"started",time:e}),this._forEach((function(i){n._startNote(i,e,o)}))}return this}},{key:"_startNote",value:function(i,t,e){t-=e,this._loop?i.startOffset>=this._loopStart&&i.startOffset<this._loopEnd?(i.startOffset<e&&(t+=this._getLoopDuration()),i.start(new Bc(this.context,t))):i.startOffset<this._loopStart&&i.startOffset>=e&&(i.loop=!1,i.start(new Bc(this.context,t))):i.startOffset>=e&&i.start(new Bc(this.context,t))}},{key:"startOffset",get:function(){return this._startOffset},set:function(i){var t=this;this._startOffset=i,this._forEach((function(i){i.startOffset+=t._startOffset}))}},{key:"stop",value:function(i){var t=this.toTicks(i);return this._state.cancel(t),this._state.setStateAtTime("stopped",t),this._forEach((function(t){t.stop(i)})),this}},{key:"at",value:function(i,t){for(var e=new lc(this.context,i).toTicks(),n=new Bc(this.context,1).toSeconds(),o=this._events.values(),a=o.next();!a.done;){var r=a.value;if(Math.abs(e-r.startOffset)<n)return Ha(t)&&(r.value=t),r;a=o.next()}return Ha(t)?(this.add(i,t),this.at(i)):null}},{key:"add",value:function(i,t){i instanceof Object&&Reflect.has(i,"time")&&(i=(t=i).time);var e,n=this.toTicks(i);return t instanceof bs?(e=t).callback=this._tick.bind(this):e=new bs({callback:this._tick.bind(this),context:this.context,value:t}),e.startOffset=n,e.set({humanize:this.humanize,loop:this.loop,loopEnd:this.loopEnd,loopStart:this.loopStart,playbackRate:this.playbackRate,probability:this.probability}),this._events.add(e),this._restartEvent(e),this}},{key:"_restartEvent",value:function(i){var t=this;this._state.forEach((function(e){"started"===e.state?t._startNote(i,e.time,e.offset):i.stop(new Bc(t.context,e.time))}))}},{key:"remove",value:function(i,t){var e=this;return Ja(i)&&i.hasOwnProperty("time")&&(i=(t=i).time),i=this.toTicks(i),this._events.forEach((function(n){n.startOffset===i&&(Xa(t)||Ha(t)&&n.value===t)&&(e._events.delete(n),n.dispose())})),this}},{key:"clear",value:function(){return this._forEach((function(i){return i.dispose()})),this._events.clear(),this}},{key:"cancel",value:function(i){return this._forEach((function(t){return t.cancel(i)})),this._state.cancel(this.toTicks(i)),this}},{key:"_forEach",value:function(i){return this._events&&this._events.forEach((function(t){t instanceof n?t._forEach(i):i(t)})),this}},{key:"_setAll",value:function(i,t){this._forEach((function(e){e[i]=t}))}},{key:"_tick",value:function(i,t){this.mute||this.callback(i,t)}},{key:"_testLoopBoundries",value:function(i){this._loop&&(i.startOffset<this._loopStart||i.startOffset>=this._loopEnd)?i.cancel(0):"stopped"===i.state&&this._restartEvent(i)}},{key:"probability",get:function(){return this._probability},set:function(i){this._probability=i,this._setAll("probability",i)}},{key:"humanize",get:function(){return this._humanize},set:function(i){this._humanize=i,this._setAll("humanize",i)}},{key:"loop",get:function(){return this._loop},set:function(i){var t=this;this._loop=i,this._forEach((function(e){e.loopStart=t.loopStart,e.loopEnd=t.loopEnd,e.loop=i,t._testLoopBoundries(e)}))}},{key:"loopEnd",get:function(){return new Bc(this.context,this._loopEnd).toSeconds()},set:function(i){var t=this;this._loopEnd=this.toTicks(i),this._loop&&this._forEach((function(e){e.loopEnd=i,t._testLoopBoundries(e)}))}},{key:"loopStart",get:function(){return new Bc(this.context,this._loopStart).toSeconds()},set:function(i){var t=this;this._loopStart=this.toTicks(i),this._loop&&this._forEach((function(i){i.loopStart=t.loopStart,t._testLoopBoundries(i)}))}},{key:"playbackRate",get:function(){return this._playbackRate},set:function(i){this._playbackRate=i,this._setAll("playbackRate",i)}},{key:"length",get:function(){return this._events.size}},{key:"dispose",value:function(){return i(sr)(i(mr)(n.prototype),"dispose",this).call(this),this.clear(),this}}],[{key:"getDefaults",value:function(){return Object.assign(bs.getDefaults(),{events:[]})}}]),n}(bs)),ws=i(ti).mark(Zs),Fs=i(ti).mark(Ys),Es=i(ti).mark(zs),Ss=i(ti).mark(Us),Os=i(ti).mark(Ws),Bs=i(ti).mark(Ls),Ms=i(ti).mark(qs),Is=i(ti).mark(Ps),Gs=i(ti).mark(Vs),Rs=i(ti).mark(js);function js(t){var e;return i(ti).wrap((function(i){for(;;)switch(i.prev=i.next){case 0:e=0;case 1:if(!(e<t.length)){i.next=8;break}return e=Ns(e,t),i.next=5,t[e];case 5:e++,i.next=1;break;case 8:case"end":return i.stop()}}),Rs)}function Vs(t){var e;return i(ti).wrap((function(i){for(;;)switch(i.prev=i.next){case 0:e=t.length-1;case 1:if(!(e>=0)){i.next=8;break}return e=Ns(e,t),i.next=5,t[e];case 5:e--,i.next=1;break;case 8:case"end":return i.stop()}}),Gs)}function Ps(t,e){return i(ti).wrap((function(i){for(;;)switch(i.prev=i.next){case 0:return i.delegateYield(e(t),"t0",2);case 2:i.next=0;break;case 4:case"end":return i.stop()}}),Is)}function Ns(i,t){return Or(i,0,t.length-1)}function qs(t,e){var n;return i(ti).wrap((function(i){for(;;)switch(i.prev=i.next){case 0:n=e?0:t.length-1;case 1:return n=Ns(n,t),i.next=5,t[n];case 5:e?++n>=t.length-1&&(e=!1):--n<=0&&(e=!0),i.next=1;break;case 8:case"end":return i.stop()}}),Ms)}function Ls(t){var e,n;return i(ti).wrap((function(i){for(;;)switch(i.prev=i.next){case 0:e=0,n=0;case 2:if(!(e<t.length)){i.next=10;break}return e=Ns(e,t),i.next=6,t[e];case 6:n++,e+=n%2?2:-1,i.next=2;break;case 10:case"end":return i.stop()}}),Bs)}function Ws(t){var e,n;return i(ti).wrap((function(i){for(;;)switch(i.prev=i.next){case 0:e=t.length-1,n=0;case 2:if(!(e>=0)){i.next=10;break}return e=Ns(e,t),i.next=6,t[e];case 6:n++,e+=n%2?-2:1,i.next=2;break;case 10:case"end":return i.stop()}}),Os)}function Us(t){var e;return i(ti).wrap((function(i){for(;;)switch(i.prev=i.next){case 0:return e=Math.floor(Math.random()*t.length),i.next=4,t[e];case 4:i.next=0;break;case 6:case"end":return i.stop()}}),Ss)}function zs(t){var e,n,o,a;return i(ti).wrap((function(i){for(;;)switch(i.prev=i.next){case 0:for(e=[],n=0;n<t.length;n++)e.push(n);case 2:if(!(e.length>0)){i.next=9;break}return o=e.splice(Math.floor(e.length*Math.random()),1),a=Ns(o[0],t),i.next=7,t[a];case 7:i.next=2;break;case 9:case"end":return i.stop()}}),Es)}function Ys(t){var e;return i(ti).wrap((function(i){for(;;)switch(i.prev=i.next){case 0:e=Math.floor(Math.random()*t.length);case 1:return 0===e?e++:e===t.length-1||Math.random()<.5?e--:e++,i.next=5,t[e];case 5:i.next=1;break;case 7:case"end":return i.stop()}}),Fs)}function Zs(t){var e,n=arguments;return i(ti).wrap((function(i){for(;;)switch(i.prev=i.next){case 0:e=n.length>1&&void 0!==n[1]?n[1]:"up",n.length>2&&void 0!==n[2]?n[2]:0,La(t.length>0,"The array must have more than one value in it"),i.t0=e,i.next="up"===i.t0?5:"down"===i.t0?6:"upDown"===i.t0?7:"downUp"===i.t0?8:"alternateUp"===i.t0?9:"alternateDown"===i.t0?10:"random"===i.t0?11:"randomOnce"===i.t0?12:"randomWalk"===i.t0?13:14;break;case 5:return i.delegateYield(Ps(t,js),"t1",6);case 6:return i.delegateYield(Ps(t,Vs),"t2",7);case 7:return i.delegateYield(qs(t,!0),"t3",8);case 8:return i.delegateYield(qs(t,!1),"t4",9);case 9:return i.delegateYield(Ps(t,Ls),"t5",10);case 10:return i.delegateYield(Ps(t,Ws),"t6",11);case 11:return i.delegateYield(Us(t),"t7",12);case 12:return i.delegateYield(Ps(t,zs),"t8",13);case 13:return i.delegateYield(Ys(t),"t9",14);case 14:case"end":return i.stop()}}),ws)}si=o("kumvF"),mr=o("jlIh9"),mr=o("jlIh9"),si=o("kumvF"),mr=o("jlIh9"),si=o("kumvF"),mr=o("jlIh9"),si=o("kumvF"),mr=o("jlIh9"),mr=o("jlIh9"),si=o("kumvF"),mr=o("jlIh9");var Xs=function(t){"use strict";i(L)(n,t);var e=i(Z)(n);function n(){var t;i(a)(this,n),(t=e.call(this,Object.assign(Ar(n.getDefaults(),arguments,["pan"])))).name="Panner",t._panner=t.context.createStereoPanner(),t.input=t._panner,t.output=t._panner;var o=Ar(n.getDefaults(),arguments,["pan"]);return t.pan=new vc({context:t.context,param:t._panner.pan,value:o.pan,minValue:-1,maxValue:1}),t._panner.channelCount=o.channelCount,t._panner.channelCountMode="explicit",Lr(i(si)(t),"pan"),t}return i(r)(n,[{key:"dispose",value:function(){return i(sr)(i(mr)(n.prototype),"dispose",this).call(this),this._panner.disconnect(),this.pan.dispose(),this}}],[{key:"getDefaults",value:function(){return Object.assign(yc.getDefaults(),{pan:0,channelCount:1})}}]),n}(yc),Hs=(si=o("kumvF"),mr=o("jlIh9"),mr=o("jlIh9"),mr=o("jlIh9"),"bit-crusher");_s(Hs,"\n\tclass BitCrusherWorklet extends SingleIOProcessor {\n\n\t\tstatic get parameterDescriptors() {\n\t\t\treturn [{\n\t\t\t\tname: \"bits\",\n\t\t\t\tdefaultValue: 12,\n\t\t\t\tminValue: 1,\n\t\t\t\tmaxValue: 16,\n\t\t\t\tautomationRate: 'k-rate'\n\t\t\t}];\n\t\t}\n\n\t\tgenerate(input, _channel, parameters) {\n\t\t\tconst step = Math.pow(0.5, parameters.bits - 1);\n\t\t\tconst val = step * Math.floor(input / step + 0.5);\n\t\t\treturn val;\n\t\t}\n\t}\n");mr=o("jlIh9"),si=o("kumvF"),mr=o("jlIh9"),si=o("kumvF"),mr=o("jlIh9"),si=o("kumvF"),mr=o("jlIh9"),mr=o("jlIh9"),mr=o("jlIh9"),mr=o("jlIh9"),si=o("kumvF"),mr=o("jlIh9"),si=o("kumvF"),mr=o("jlIh9"),mr=o("jlIh9"),mr=o("jlIh9"),si=o("kumvF"),mr=o("jlIh9"),si=o("kumvF"),mr=o("jlIh9"),si=o("kumvF"),mr=o("jlIh9"),si=o("kumvF"),si=o("kumvF"),mr=o("jlIh9"),si=o("kumvF"),mr=o("jlIh9"),mr=o("jlIh9"),si=o("kumvF"),mr=o("jlIh9"),mr=o("jlIh9"),mr=o("jlIh9"),mr=o("jlIh9"),si=o("kumvF"),mr=o("jlIh9"),si=o("kumvF"),mr=o("jlIh9"),mr=o("jlIh9"),mr=o("jlIh9"),mr=o("jlIh9"),si=o("kumvF"),mr=o("jlIh9"),si=o("kumvF"),mr=o("jlIh9");var Qs=function(t){"use strict";i(L)(n,t);var e=i(Z)(n);function n(){var t;i(a)(this,n),(t=e.call(this,Ar(n.getDefaults(),arguments,["solo"]))).name="Solo";var o=Ar(n.getDefaults(),arguments,["solo"]);return t.input=t.output=new pc({context:t.context}),n._allSolos.has(t.context)||n._allSolos.set(t.context,new Set),n._allSolos.get(t.context).add(i(si)(t)),t.solo=o.solo,t}return i(r)(n,[{key:"solo",get:function(){return this._isSoloed()},set:function(i){i?this._addSolo():this._removeSolo(),n._allSolos.get(this.context).forEach((function(i){return i._updateSolo()}))}},{key:"muted",get:function(){return 0===this.input.gain.value}},{key:"_addSolo",value:function(){n._soloed.has(this.context)||n._soloed.set(this.context,new Set),n._soloed.get(this.context).add(this)}},{key:"_removeSolo",value:function(){n._soloed.has(this.context)&&n._soloed.get(this.context).delete(this)}},{key:"_isSoloed",value:function(){return n._soloed.has(this.context)&&n._soloed.get(this.context).has(this)}},{key:"_noSolos",value:function(){return!n._soloed.has(this.context)||n._soloed.has(this.context)&&0===n._soloed.get(this.context).size}},{key:"_updateSolo",value:function(){this._isSoloed()||this._noSolos()?this.input.gain.value=1:this.input.gain.value=0}},{key:"dispose",value:function(){return i(sr)(i(mr)(n.prototype),"dispose",this).call(this),n._allSolos.get(this.context).delete(this),this._removeSolo(),this}}],[{key:"getDefaults",value:function(){return Object.assign(yc.getDefaults(),{solo:!1})}}]),n}(yc);Qs._allSolos=new Map,Qs._soloed=new Map;si=o("kumvF"),mr=o("jlIh9");var $s=function(t){"use strict";i(L)(n,t);var e=i(Z)(n);function n(){var t;i(a)(this,n),(t=e.call(this,Ar(n.getDefaults(),arguments,["pan","volume"]))).name="PanVol";var o=Ar(n.getDefaults(),arguments,["pan","volume"]);return t._panner=t.input=new Xs({context:t.context,pan:o.pan,channelCount:o.channelCount}),t.pan=t._panner.pan,t._volume=t.output=new Gc({context:t.context,volume:o.volume}),t.volume=t._volume.volume,t._panner.connect(t._volume),t.mute=o.mute,Lr(i(si)(t),["pan","volume"]),t}return i(r)(n,[{key:"mute",get:function(){return this._volume.mute},set:function(i){this._volume.mute=i}},{key:"dispose",value:function(){return i(sr)(i(mr)(n.prototype),"dispose",this).call(this),this._panner.dispose(),this.pan.dispose(),this._volume.dispose(),this.volume.dispose(),this}}],[{key:"getDefaults",value:function(){return Object.assign(yc.getDefaults(),{mute:!1,pan:0,volume:0,channelCount:1})}}]),n}(yc),Js=function(t){"use strict";i(L)(n,t);var e=i(Z)(n);function n(){var t;i(a)(this,n),(t=e.call(this,Ar(n.getDefaults(),arguments,["volume","pan"]))).name="Channel";var o=Ar(n.getDefaults(),arguments,["volume","pan"]);return t._solo=t.input=new Qs({solo:o.solo,context:t.context}),t._panVol=t.output=new $s({context:t.context,pan:o.pan,volume:o.volume,mute:o.mute,channelCount:o.channelCount}),t.pan=t._panVol.pan,t.volume=t._panVol.volume,t._solo.connect(t._panVol),Lr(i(si)(t),["pan","volume"]),t}return i(r)(n,[{key:"solo",get:function(){return this._solo.solo},set:function(i){this._solo.solo=i}},{key:"muted",get:function(){return this._solo.muted||this.mute}},{key:"mute",get:function(){return this._panVol.mute},set:function(i){this._panVol.mute=i}},{key:"_getBus",value:function(i){return n.buses.has(i)||n.buses.set(i,new pc({context:this.context})),n.buses.get(i)}},{key:"send",value:function(i){var t=arguments.length>1&&void 0!==arguments[1]?arguments[1]:0,e=this._getBus(i),n=new pc({context:this.context,units:"decibels",gain:t});return this.connect(n),n.connect(e),n}},{key:"receive",value:function(i){return this._getBus(i).connect(this),this}},{key:"dispose",value:function(){return i(sr)(i(mr)(n.prototype),"dispose",this).call(this),this._panVol.dispose(),this.pan.dispose(),this.volume.dispose(),this._solo.dispose(),this}}],[{key:"getDefaults",value:function(){return Object.assign(yc.getDefaults(),{pan:0,volume:0,mute:!1,solo:!1,channelCount:1})}}]),n}(yc);Js.buses=new Map;mr=o("jlIh9"),si=o("kumvF"),mr=o("jlIh9"),mr=o("jlIh9"),mr=o("jlIh9");var Ks=function(t){"use strict";i(L)(n,t);var e=i(Z)(n);function n(){var t;return i(a)(this,n),(t=e.call.apply(e,[this].concat(Array.prototype.slice.call(arguments)))).name="Listener",t.positionX=new vc({context:t.context,param:t.context.rawContext.listener.positionX}),t.positionY=new vc({context:t.context,param:t.context.rawContext.listener.positionY}),t.positionZ=new vc({context:t.context,param:t.context.rawContext.listener.positionZ}),t.forwardX=new vc({context:t.context,param:t.context.rawContext.listener.forwardX}),t.forwardY=new vc({context:t.context,param:t.context.rawContext.listener.forwardY}),t.forwardZ=new vc({context:t.context,param:t.context.rawContext.listener.forwardZ}),t.upX=new vc({context:t.context,param:t.context.rawContext.listener.upX}),t.upY=new vc({context:t.context,param:t.context.rawContext.listener.upY}),t.upZ=new vc({context:t.context,param:t.context.rawContext.listener.upZ}),t}return i(r)(n,[{key:"dispose",value:function(){return i(sr)(i(mr)(n.prototype),"dispose",this).call(this),this.positionX.dispose(),this.positionY.dispose(),this.positionZ.dispose(),this.forwardX.dispose(),this.forwardY.dispose(),this.forwardZ.dispose(),this.upX.dispose(),this.upY.dispose(),this.upZ.dispose(),this}}],[{key:"getDefaults",value:function(){return Object.assign(yc.getDefaults(),{positionX:0,positionY:0,positionZ:0,forwardX:0,forwardY:0,forwardZ:-1,upX:0,upY:1,upZ:0})}}]),n}(yc);Ir((function(i){i.listener=new Ks({context:i})})),Rr((function(i){i.listener.dispose()}));mr=o("jlIh9"),si=o("kumvF"),mr=o("jlIh9"),mr=o("jlIh9"),si=o("kumvF"),mr=o("jlIh9"),si=o("kumvF"),mr=o("jlIh9"),si=o("kumvF"),mr=o("jlIh9"),si=o("kumvF"),mr=o("jlIh9"),mr=o("jlIh9");var iu=Hr().transport;Hr().destination,Hr().destination;Hr().listener;var tu=Hr().draw;Hr();var eu,nu,ou=function(){"use strict";function t(){i(a)(this,t),i(u)(this,"_onwantstospeek",(function(){return!0})),this._song=s}return i(r)(t,[{key:"onwanttospeek",get:function(){return this._onwantstospeek},set:function(i){this._onwantstospeek=void 0!==i?i:function(){return!0}}},{key:"startPlaying",value:function(){iu.bpm.value=this._song.header.tempos[0].bpm;var i=!0,t=!1,e=void 0;try{for(var n,o=this,a=function(i,t){var e=t.value;if("lyrics"===e.name){var n=o;return e.notes.length<=0||new Ds((function(i,t){var e=n;n._isLyricsNote(t)&&tu.schedule((function(){e._startUtterance(t)}),i)}),e.notes).start(),"continue"}var a=o._getSynthForNote(e.instrument.name);new Ds((function(i,t){try{a.triggerAttackRelease(t.name,t.duration,i,t.velocity)}catch(n){console.warn(n,i,e.instrument.name,t)}}),e.notes).start()},r=this._song.tracks[Symbol.iterator]();!(i=(n=r.next()).done);i=!0)a(0,n)}catch(i){t=!0,e=i}finally{try{i||null==r.return||r.return()}finally{if(t)throw e}}iu.start()}},{key:"stopPlaying",value:function(){iu.stop(),iu.cancel(0)}},{key:"_getSynthForNote",value:function(i){switch(i){case"voice oohs":return new Ts({detune:-1200,volume:-20}).toDestination();case"orchestral harp":return new Cs(ks,{envelope:{attack:.02,decay:.1,sustain:.3,release:1},volume:-10}).toDestination();case"acoustic guitar (steel)":case"celesta":return new Ts({volume:-20}).toDestination();case"electric bass (finger)":return new Ts({volume:-10}).toDestination();case"standard kit":return new fs({detune:-2500,pitchDecay:.05,volume:-20}).toDestination();default:return new Ts({volume:-100}).toDestination()}}},{key:"_startUtterance",value:function(i){this._onwantstospeek.call(this,i)}},{key:"_isLyricsNote",value:function(i){return Object.prototype.hasOwnProperty.call(i,"text")}}]),t}();(nu=eu||(eu={}))[nu.SETUP=0]="SETUP",nu[nu.PLAY=1]="PLAY",nu[nu.STOP=2]="STOP";var au,ru=function(){"use strict";function t(e){i(a)(this,t),this._elem=e}return i(r)(t,[{key:"stage",get:function(){var i=this._elem.dataset.stage||"-1",t=parseInt(i,10);return isNaN(t)?-1:t},set:function(i){this._elem.dataset.stage=""+i}},{key:"onclick",get:function(){return this._elem.onclick},set:function(i){this._elem.onclick=i}},{key:"focus",value:function(){this._elem.focus()}},{key:"setIcon",value:function(i){switch(i){case eu.SETUP:this._elem.textContent="";break;case eu.PLAY:this._elem.textContent="";break;case eu.STOP:this._elem.textContent=""}}}]),t}();u=o("4tpRD");au=JSON.parse('["Who are you?","What\'s that?","Oh what\'s that?","What\'s that?","What is that?","Ooo, that thing has numbers on it.","Hey look at that thing. No, that other thing.","Eew, what\'s wrong with your legs?","Where are we going?","Oh hey! You\'re the lady from the test. Hi!","One 18.25 ounce package chocolate cake mix.","One can prepared coconut pecan frosting.","Three slash four cup vegetable oil.","Four large eggs. One cup semi-sweet chocolate chips.","Three slash four cups butter or margarine.","Three slash four cups butter or margarine.","One and two third cups granulated sugar.","Two cups all purpose flour.","Don\'t forget garnishes such as","Fish shaped crackers.","Fish shaped candies.","Fish shaped solid waste.","Fish shaped dirt.","Fish shaped ethyl benzene.","Pull and peel licorice.","Fish shaped volatile organic compounds and sediment shaped sediment.","Candy coated peanut butter pieces. Shaped like fish.","One cup lemon juice.","Alpha resins.","Unsaturated polyester resin.","Fibreglass surface resins.","And volatile malted milk impoundments.","Nine large egg yolks.","Twelve medium geosynthetic membranes.","One cup granulated sugar.","An entry called \'how to kill someone with your bare hands\'.","Two cups rhubarb, sliced.","Two slash three cups granulated rhubarb.","One tablespoon all-purpose rhubarb.","One teaspoon grated orange rhubarb.","Three tablespoons rhubarb, on fire.","One large rhubarb.","One cross borehole electro-magnetic imaging rhubarb.","Two tablespoons rhubarb juice.","Adjustable aluminium head positioner.","Slaughter electric needle injector.","Cordless electric needle injector.","Injector needle driver.","Injector needle gun.","Cranial caps.","And it contains proven preservatives, deep penetration agents, and gas and odour control chemicals.","That will deodorise and preserve putrid tissue.","Your specimen has been processed, and we are now ready to begin the test proper.","Before we start, however, keep in mind that although fun, and learning, are the primary goals of all Enrichment Center activities, serious injuries may occur.","For your own safety, and the safety of others, please refrain from t","Por favor bordn de fallar Muchos gracias de fallar gracias","stand back. The portal will open"]');var cu=function(){"use strict";function t(e){i(a)(this,t),i(u)(this,"_speech",window.speechSynthesis),i(u)(this,"_voice",null),i(u)(this,"_broken",!1),i(u)(this,"_onvoiceschanged",(function(){return!0})),i(u)(this,"_voices",[]),this._speechOnVoicesChange=this._speechOnVoicesChange.bind(this),void 0===this._speech?this._broken=!0:this._speech=window.speechSynthesis,this._broken||void 0===e||(this._voice=e)}return i(r)(t,[{key:"onvoiceschanged",get:function(){return this._onvoiceschanged},set:function(i){this._broken?console.warn("sam can't attach to onvoiceschanged, they are currently broken"):void 0!==i?(this._onvoiceschanged=i,null===this._speech.onvoiceschanged&&(this._speech.onvoiceschanged=this._speechOnVoicesChange)):this._onvoiceschanged=function(){return!0}}},{key:"changeVoice",value:function(i){this._voice=i}},{key:"updateVoices",value:function(){this._voices=this._speech.getVoices(),this._onvoiceschanged.call(this,this._voices)}},{key:"saySentence",value:function(i){if(this._broken)console.warn("sam can't say something, they are currently broken");else if(i.length<=0)console.debug("sentence was empty");else{var t=new SpeechSynthesisUtterance;t.text=i,t.voice=this._voice,this._speech.speak(t)}}},{key:"sayRandom",value:function(){if(this._broken)console.warn("sam can't say something, they are currently broken");else{var i=Math.floor(Math.random()*au.length),t=new SpeechSynthesisUtterance(au[i]);t.voice=this._voice,this._speech.speak(t)}}},{key:"_speechOnVoicesChange",value:function(){this._broken?console.warn("sam can't update voices, they are currently broken"):this.updateVoices()}}]),t}();u=o("4tpRD");function su(i){for(;i.firstChild;)i.removeChild(i.firstChild)}var uu=function(){"use strict";function t(e){i(a)(this,t),i(u)(this,"_isRebuilding",!1),i(u)(this,"_availableOptions",[]),i(u)(this,"_selectedVoice",""),i(u)(this,"_onchange",(function(){return!0})),i(u)(this,"_onenabledchange",(function(){return!0})),this._elemOnChange=this._elemOnChange.bind(this),this._elem=e}return i(r)(t,[{key:"isDisabled",get:function(){return this._elem.disabled},set:function(i){console.debug("voiceSelect enabled changed to",!i),this._elem.disabled=i,this._elemOnEnabledChange(i)}},{key:"onenabledchanged",get:function(){return this._onenabledchange},set:function(i){console.debug("voiceSelect onenabledchanged registered"),this._onenabledchange=void 0!==i?i:function(){return!0}}},{key:"selectedVoice",get:function(){return this._getSelectedVoice()}},{key:"onchange",get:function(){return this._onchange},set:function(i){void 0!==i?(this._onchange=i,null===this._elem.onchange&&(this._elem.onchange=this._elemOnChange)):this._onchange=function(){return!0}}},{key:"updateVoices",value:function(i){if(this._isRebuilding=!0,this._availableOptions=i.map((function(i){return{key:(t=i.name,t.toLowerCase().trim().replace(/[^\w\s-]/g,"").replace(/[\s_-]+/g,"-").replace(/^-+|-+$/g,"")),voice:i};var t})),su(this._elem),0===this._availableOptions.length){this.isDisabled=!0;var t=document.createElement("option");return t.textContent="No Voices available on your System",void this._elem.appendChild(t)}this._availableOptions.sort((function(i,t){var e=i.voice.lang.localeCompare(t.voice.lang);return 0===e?i.voice.name.localeCompare(t.voice.name):e}));var e=this._availableOptions.reduce((function(i,t){return i<t.voice.name.length?t.voice.name.length:i}),0),n=!0,o=!1,a=void 0;try{for(var r,c=this._availableOptions[Symbol.iterator]();!(n=(r=c.next()).done);n=!0){var s=r.value,u=document.createElement("option");u.textContent="".concat(s.voice.name.padEnd(e," ")," (").concat(s.voice.lang,")");var d=s.key;u.value=d,!0===s.voice.default&&(u.selected=!0,this._selectedVoice=d),this._elem.appendChild(u)}}catch(i){o=!0,a=i}finally{try{n||null==c.return||c.return()}finally{if(o)throw a}}this._isRebuilding=!1,this.isDisabled=!1}},{key:"_elemOnChange",value:function(){if(!this._isRebuilding){this._selectedVoice=this._elem.value;var i=this._getSelectedVoice();if(void 0===i)return this._selectedVoice="",this.updateVoices([]),void console.warn(new RangeError("Selected Voice was outside of available Voices"));this._onchange.call(this,i.voice)}}},{key:"_elemOnEnabledChange",value:function(i){console.log("voiceSelect",i),this._onenabledchange.call(this,i)}},{key:"_getSelectedVoice",value:function(){var i=this;if(0!==this._selectedVoice.length)return this._availableOptions.find((function(t){return t.key===i._selectedVoice}))}}]),t}(),du=new ru(document.getElementById("control")),mu=new uu(document.getElementById("voice")),lu=new cu,ku=new ou,vu=document.getElementById("settings"),yu=document.getElementById("instructions"),hu=document.getElementById("terminal"),Tu=document.getElementById("test"),fu=!1;function pu(){0!==du.stage?fu?du.setIcon(eu.STOP):du.setIcon(eu.PLAY):du.setIcon(eu.SETUP)}pu(),du.focus(),du.onclick=function(){var i=du.stage;switch(i){case 0:vu.classList.remove("hidden"),mu.onenabledchanged=function(i){console.debug("index",i),Tu.disabled=i},mu.onchange=function(i){console.debug("voice changed to ".concat(i.name)),lu.changeVoice(i),lu.sayRandom()},lu.onvoiceschanged=function(i){console.debug("index voices changed"),mu.updateVoices(i)},Tu.onclick=function(){lu.sayRandom()},lu.updateVoices(),ku.onwanttospeek=function(i){lu.saySentence(i.text)},yu.classList.add("hidden"),du.stage=1,pu();break;case 1:vu.classList.add("hidden"),hu.classList.remove("hidden"),ku.startPlaying(),fu=!0,du.stage=2,pu();break;case 2:vu.classList.remove("hidden"),hu.classList.add("hidden"),ku.stopPlaying(),fu=!1,du.stage=1,pu();break;default:console.warn("Unhandled stage ".concat(i))}}}();