function i(i){return i&&i.__esModule?i.default:i}var t="undefined"!=typeof globalThis?globalThis:"undefined"!=typeof self?self:"undefined"!=typeof window?window:"undefined"!=typeof global?global:{},e={},n={},o=t.parcelRequire0c5f;null==o&&((o=function(i){if(i in e)return e[i].exports;if(i in n){var t=n[i];delete n[i];var o={id:i,exports:{}};return e[i]=o,t.call(o.exports,o,o.exports),o.exports}var a=new Error("Cannot find module '"+i+"'");throw a.code="MODULE_NOT_FOUND",a}).register=function(i,t){n[i]=t},t.parcelRequire0c5f=o),o.register("ahnWm",(function(i,t){var e=o("9jMIK"),n=o("5UqWa"),a=o("7QVzG"),s=o("auIVR");i.exports=function(i,t){return e(i)||n(i,t)||a(i,t)||s()},i.exports.__esModule=!0,i.exports.default=i.exports})),o.register("9jMIK",(function(i,t){i.exports=function(i){if(Array.isArray(i))return i},i.exports.__esModule=!0,i.exports.default=i.exports})),o.register("5UqWa",(function(i,t){i.exports=function(i,t){var e=null==i?null:"undefined"!=typeof Symbol&&i[Symbol.iterator]||i["@@iterator"];if(null!=e){var n,o,a=[],s=!0,c=!1;try{for(e=e.call(i);!(s=(n=e.next()).done)&&(a.push(n.value),!t||a.length!==t);s=!0);}catch(i){c=!0,o=i}finally{try{s||null==e.return||e.return()}finally{if(c)throw o}}return a}},i.exports.__esModule=!0,i.exports.default=i.exports})),o.register("7QVzG",(function(i,t){var e=o("43hcT");i.exports=function(i,t){if(i){if("string"==typeof i)return e(i,t);var n=Object.prototype.toString.call(i).slice(8,-1);return"Object"===n&&i.constructor&&(n=i.constructor.name),"Map"===n||"Set"===n?Array.from(i):"Arguments"===n||/^(?:Ui|I)nt(?:8|16|32)(?:Clamped)?Array$/.test(n)?e(i,t):void 0}},i.exports.__esModule=!0,i.exports.default=i.exports})),o.register("43hcT",(function(i,t){i.exports=function(i,t){(null==t||t>i.length)&&(t=i.length);for(var e=0,n=new Array(t);e<t;e++)n[e]=i[e];return n},i.exports.__esModule=!0,i.exports.default=i.exports})),o.register("auIVR",(function(i,t){i.exports=function(){throw new TypeError("Invalid attempt to destructure non-iterable instance.\nIn order to be iterable, non-array objects must have a [Symbol.iterator]() method.")},i.exports.__esModule=!0,i.exports.default=i.exports})),o.register("kUn6u",(function(i,t){i.exports=function(i,t){if(!(i instanceof t))throw new TypeError("Cannot call a class as a function")},i.exports.__esModule=!0,i.exports.default=i.exports})),o.register("bYHkV",(function(i,t){function e(i,t){for(var e=0;e<t.length;e++){var n=t[e];n.enumerable=n.enumerable||!1,n.configurable=!0,"value"in n&&(n.writable=!0),Object.defineProperty(i,n.key,n)}}i.exports=function(i,t,n){return t&&e(i.prototype,t),n&&e(i,n),Object.defineProperty(i,"prototype",{writable:!1}),i},i.exports.__esModule=!0,i.exports.default=i.exports}));var a={};Object.defineProperty(a,"__esModule",{value:!0}),a.default=function(i,t,e){t in i?Object.defineProperty(i,t,{value:e,enumerable:!0,configurable:!0,writable:!0}):i[t]=e;return i};var s;s=JSON.parse('{"header":{"keySignatures":[],"meta":[],"name":"Track 0","ppq":960,"tempos":[{"bpm":120,"ticks":0}],"timeSignatures":[]},"tracks":[{"name":"","notes":[{"duration":0.25,"durationTicks":480,"midi":79,"name":"G5","ticks":1920,"time":1,"velocity":1},{"duration":0.25,"durationTicks":480,"midi":78,"name":"F#5","ticks":2400,"time":1.25,"velocity":1},{"duration":0.25,"durationTicks":480,"midi":76,"name":"E5","ticks":2880,"time":1.5,"velocity":1},{"duration":0.25,"durationTicks":480,"midi":76,"name":"E5","ticks":3360,"time":1.75,"velocity":1},{"duration":0.25,"durationTicks":480,"midi":78,"name":"F#5","ticks":3840,"time":2,"velocity":1},{"duration":0.25,"durationTicks":480,"midi":69,"name":"A4","ticks":9120,"time":4.75,"velocity":1},{"duration":0.25,"durationTicks":480,"midi":79,"name":"G5","ticks":9600,"time":5,"velocity":1},{"duration":0.25,"durationTicks":480,"midi":78,"name":"F#5","ticks":10080,"time":5.25,"velocity":1},{"duration":0.25,"durationTicks":480,"midi":76,"name":"E5","ticks":10560,"time":5.5,"velocity":1},{"duration":0.5,"durationTicks":960,"midi":76,"name":"E5","ticks":11040,"time":5.75,"velocity":1},{"duration":0.25,"durationTicks":480,"midi":78,"name":"F#5","ticks":12000,"time":6.25,"velocity":1},{"duration":0.5,"durationTicks":960,"midi":74,"name":"D5","ticks":13440,"time":7,"velocity":1},{"duration":0.25,"durationTicks":480,"midi":76,"name":"E5","ticks":14400,"time":7.5,"velocity":1},{"duration":0.5,"durationTicks":960,"midi":69,"name":"A4","ticks":14880,"time":7.75,"velocity":1},{"duration":0.25,"durationTicks":480,"midi":69,"name":"A4","ticks":18720,"time":9.75,"velocity":1},{"duration":0.5,"durationTicks":960,"midi":76,"name":"E5","ticks":19200,"time":10,"velocity":1},{"duration":0.25,"durationTicks":480,"midi":78,"name":"F#5","ticks":20160,"time":10.5,"velocity":1},{"duration":0.75,"durationTicks":1440,"midi":79,"name":"G5","ticks":20640,"time":10.75,"velocity":1},{"duration":0.25,"durationTicks":480,"midi":76,"name":"E5","ticks":22080,"time":11.5,"velocity":1},{"duration":0.5,"durationTicks":960,"midi":73,"name":"C#5","ticks":22560,"time":11.75,"velocity":1},{"duration":0.75,"durationTicks":1440,"midi":74,"name":"D5","ticks":23520,"time":12.25,"velocity":1},{"duration":0.5,"durationTicks":960,"midi":76,"name":"E5","ticks":24960,"time":13,"velocity":1},{"duration":0.25,"durationTicks":480,"midi":69,"name":"A4","ticks":25920,"time":13.5,"velocity":1},{"duration":0.5,"durationTicks":960,"midi":69,"name":"A4","ticks":26400,"time":13.75,"velocity":1},{"duration":0.5,"durationTicks":960,"midi":78,"name":"F#5","ticks":27360,"time":14.25,"velocity":1},{"duration":0.25,"durationTicks":480,"midi":79,"name":"G5","ticks":32640,"time":17,"velocity":1},{"duration":0.25,"durationTicks":480,"midi":78,"name":"F#5","ticks":33120,"time":17.25,"velocity":1},{"duration":0.25,"durationTicks":480,"midi":76,"name":"E5","ticks":33600,"time":17.5,"velocity":1},{"duration":0.25,"durationTicks":480,"midi":76,"name":"E5","ticks":34080,"time":17.75,"velocity":1},{"duration":0.25,"durationTicks":480,"midi":78,"name":"F#5","ticks":34560,"time":18,"velocity":1},{"duration":0.25,"durationTicks":480,"midi":69,"name":"A4","ticks":39840,"time":20.75,"velocity":1},{"duration":0.25,"durationTicks":480,"midi":79,"name":"G5","ticks":40320,"time":21,"velocity":1},{"duration":0.25,"durationTicks":480,"midi":78,"name":"F#5","ticks":40800,"time":21.25,"velocity":1},{"duration":0.25,"durationTicks":480,"midi":76,"name":"E5","ticks":41280,"time":21.5,"velocity":1},{"duration":0.5,"durationTicks":960,"midi":76,"name":"E5","ticks":41760,"time":21.75,"velocity":1},{"duration":0.25,"durationTicks":480,"midi":78,"name":"F#5","ticks":43200,"time":22.5,"velocity":1},{"duration":0.5,"durationTicks":960,"midi":74,"name":"D5","ticks":43680,"time":22.75,"velocity":1},{"duration":0.25,"durationTicks":480,"midi":76,"name":"E5","ticks":45120,"time":23.5,"velocity":1},{"duration":0.5,"durationTicks":960,"midi":69,"name":"A4","ticks":45600,"time":23.75,"velocity":1},{"duration":0.5,"durationTicks":960,"midi":76,"name":"E5","ticks":49920,"time":26,"velocity":1},{"duration":0.25,"durationTicks":480,"midi":78,"name":"F#5","ticks":50880,"time":26.5,"velocity":1},{"duration":0.75,"durationTicks":1440,"midi":79,"name":"G5","ticks":51360,"time":26.75,"velocity":1},{"duration":0.25,"durationTicks":480,"midi":76,"name":"E5","ticks":52800,"time":27.5,"velocity":1},{"duration":0.75,"durationTicks":1440,"midi":73,"name":"C#5","ticks":53280,"time":27.75,"velocity":1},{"duration":0.25,"durationTicks":480,"midi":74,"name":"D5","ticks":54720,"time":28.5,"velocity":1},{"duration":0.25,"durationTicks":480,"midi":76,"name":"E5","ticks":55200,"time":28.75,"velocity":1},{"duration":0.25,"durationTicks":480,"midi":69,"name":"A4","ticks":56160,"time":29.25,"velocity":1},{"duration":0.25,"durationTicks":480,"midi":74,"name":"D5","ticks":56640,"time":29.5,"velocity":1},{"duration":0.25,"durationTicks":480,"midi":76,"name":"E5","ticks":57120,"time":29.75,"velocity":1},{"duration":0.25,"durationTicks":480,"midi":77,"name":"F5","ticks":57600,"time":30,"velocity":1},{"duration":0.25,"durationTicks":480,"midi":76,"name":"E5","ticks":58080,"time":30.25,"velocity":1},{"duration":0.25,"durationTicks":480,"midi":74,"name":"D5","ticks":58560,"time":30.5,"velocity":1},{"duration":0.25,"durationTicks":480,"midi":72,"name":"C5","ticks":59040,"time":30.75,"velocity":1},{"duration":0.25,"durationTicks":480,"midi":69,"name":"A4","ticks":60480,"time":31.5,"velocity":1},{"duration":0.25,"durationTicks":480,"midi":70,"name":"A#4","ticks":60960,"time":31.75,"velocity":1},{"duration":0.5,"durationTicks":960,"midi":72,"name":"C5","ticks":61440,"time":32,"velocity":1},{"duration":0.5,"durationTicks":960,"midi":77,"name":"F5","ticks":62400,"time":32.5,"velocity":1},{"duration":0.25,"durationTicks":480,"midi":76,"name":"E5","ticks":63360,"time":33,"velocity":1},{"duration":0.25,"durationTicks":480,"midi":74,"name":"D5","ticks":63840,"time":33.25,"velocity":1},{"duration":0.25,"durationTicks":480,"midi":74,"name":"D5","ticks":64320,"time":33.5,"velocity":1},{"duration":0.25,"durationTicks":480,"midi":72,"name":"C5","ticks":64800,"time":33.75,"velocity":1},{"duration":0.25,"durationTicks":480,"midi":74,"name":"D5","ticks":65280,"time":34,"velocity":1},{"duration":0.25,"durationTicks":480,"midi":72,"name":"C5","ticks":65760,"time":34.25,"velocity":1},{"duration":0.5,"durationTicks":960,"midi":72,"name":"C5","ticks":66240,"time":34.5,"velocity":1},{"duration":0.25,"durationTicks":480,"midi":72,"name":"C5","ticks":67200,"time":35,"velocity":1},{"duration":0.25,"durationTicks":480,"midi":69,"name":"A4","ticks":68160,"time":35.5,"velocity":1},{"duration":0.25,"durationTicks":480,"midi":70,"name":"A#4","ticks":68640,"time":35.75,"velocity":1},{"duration":0.5,"durationTicks":960,"midi":72,"name":"C5","ticks":69120,"time":36,"velocity":1},{"duration":0.5,"durationTicks":960,"midi":77,"name":"F5","ticks":70080,"time":36.5,"velocity":1},{"duration":0.25,"durationTicks":480,"midi":79,"name":"G5","ticks":71040,"time":37,"velocity":1},{"duration":0.25,"durationTicks":480,"midi":77,"name":"F5","ticks":71520,"time":37.25,"velocity":1},{"duration":0.25,"durationTicks":480,"midi":76,"name":"E5","ticks":72000,"time":37.5,"velocity":1},{"duration":0.25,"durationTicks":480,"midi":74,"name":"D5","ticks":72480,"time":37.75,"velocity":1},{"duration":0.25,"durationTicks":480,"midi":74,"name":"D5","ticks":72960,"time":38,"velocity":1},{"duration":0.25,"durationTicks":480,"midi":76,"name":"E5","ticks":73440,"time":38.25,"velocity":1},{"duration":0.5,"durationTicks":960,"midi":77,"name":"F5","ticks":73920,"time":38.5,"velocity":1},{"duration":0.25,"durationTicks":480,"midi":77,"name":"F5","ticks":74880,"time":39,"velocity":1},{"duration":0.25,"durationTicks":480,"midi":79,"name":"G5","ticks":75840,"time":39.5,"velocity":1},{"duration":0.25,"durationTicks":480,"midi":81,"name":"A5","ticks":76320,"time":39.75,"velocity":1},{"duration":0.25,"durationTicks":480,"midi":82,"name":"A#5","ticks":76800,"time":40,"velocity":1},{"duration":0.25,"durationTicks":480,"midi":82,"name":"A#5","ticks":77280,"time":40.25,"velocity":1},{"duration":0.5,"durationTicks":960,"midi":81,"name":"A5","ticks":77760,"time":40.5,"velocity":1},{"duration":0.5,"durationTicks":960,"midi":79,"name":"G5","ticks":78720,"time":41,"velocity":1},{"duration":0.25,"durationTicks":480,"midi":77,"name":"F5","ticks":79680,"time":41.5,"velocity":1},{"duration":0.25,"durationTicks":480,"midi":79,"name":"G5","ticks":80160,"time":41.75,"velocity":1},{"duration":0.25,"durationTicks":480,"midi":81,"name":"A5","ticks":80640,"time":42,"velocity":1},{"duration":0.25,"durationTicks":480,"midi":81,"name":"A5","ticks":81120,"time":42.25,"velocity":1},{"duration":0.5,"durationTicks":960,"midi":79,"name":"G5","ticks":81600,"time":42.5,"velocity":1},{"duration":0.5,"durationTicks":960,"midi":77,"name":"F5","ticks":82560,"time":43,"velocity":1},{"duration":0.25,"durationTicks":480,"midi":74,"name":"D5","ticks":83520,"time":43.5,"velocity":1},{"duration":0.25,"durationTicks":480,"midi":72,"name":"C5","ticks":84000,"time":43.75,"velocity":1},{"duration":0.25,"durationTicks":480,"midi":74,"name":"D5","ticks":84480,"time":44,"velocity":1},{"duration":0.25,"durationTicks":480,"midi":77,"name":"F5","ticks":84960,"time":44.25,"velocity":1},{"duration":0.25,"durationTicks":480,"midi":77,"name":"F5","ticks":85440,"time":44.5,"velocity":1},{"duration":0.5,"durationTicks":960,"midi":76,"name":"E5","ticks":85920,"time":44.75,"velocity":1},{"duration":0.25,"durationTicks":480,"midi":76,"name":"E5","ticks":86880,"time":45.25,"velocity":1},{"duration":0.25,"durationTicks":480,"midi":78,"name":"F#5","ticks":87360,"time":45.5,"velocity":1},{"duration":1,"durationTicks":1920,"midi":78,"name":"F#5","ticks":87840,"time":45.75,"velocity":1},{"duration":0.25,"durationTicks":480,"midi":69,"name":"A4","ticks":101280,"time":52.75,"velocity":1},{"duration":0.25,"durationTicks":480,"midi":79,"name":"G5","ticks":101760,"time":53,"velocity":1},{"duration":0.25,"durationTicks":480,"midi":78,"name":"F#5","ticks":102240,"time":53.25,"velocity":1},{"duration":0.25,"durationTicks":480,"midi":76,"name":"E5","ticks":102720,"time":53.5,"velocity":1},{"duration":0.25,"durationTicks":480,"midi":76,"name":"E5","ticks":103200,"time":53.75,"velocity":1},{"duration":0.25,"durationTicks":480,"midi":78,"name":"F#5","ticks":103680,"time":54,"velocity":1},{"duration":0.25,"durationTicks":480,"midi":79,"name":"G5","ticks":109440,"time":57,"velocity":1},{"duration":0.25,"durationTicks":480,"midi":78,"name":"F#5","ticks":109920,"time":57.25,"velocity":1},{"duration":0.25,"durationTicks":480,"midi":76,"name":"E5","ticks":110400,"time":57.5,"velocity":1},{"duration":0.75,"durationTicks":1440,"midi":76,"name":"E5","ticks":110880,"time":57.75,"velocity":1},{"duration":0.25,"durationTicks":480,"midi":78,"name":"F#5","ticks":112320,"time":58.5,"velocity":1},{"duration":0.5,"durationTicks":960,"midi":74,"name":"D5","ticks":112800,"time":58.75,"velocity":1},{"duration":0.5,"durationTicks":960,"midi":76,"name":"E5","ticks":113760,"time":59.25,"velocity":1},{"duration":0.5,"durationTicks":960,"midi":69,"name":"A4","ticks":114720,"time":59.75,"velocity":1},{"duration":0.5,"durationTicks":960,"midi":76,"name":"E5","ticks":119040,"time":62,"velocity":1},{"duration":0.25,"durationTicks":480,"midi":78,"name":"F#5","ticks":120000,"time":62.5,"velocity":1},{"duration":0.75,"durationTicks":1440,"midi":79,"name":"G5","ticks":120480,"time":62.75,"velocity":1},{"duration":0.5,"durationTicks":960,"midi":76,"name":"E5","ticks":121920,"time":63.5,"velocity":1},{"duration":0.5,"durationTicks":960,"midi":73,"name":"C#5","ticks":122880,"time":64,"velocity":1},{"duration":0.25,"durationTicks":480,"midi":74,"name":"D5","ticks":123840,"time":64.5,"velocity":1},{"duration":0.75,"durationTicks":1440,"midi":76,"name":"E5","ticks":124320,"time":64.75,"velocity":1},{"duration":0.25,"durationTicks":480,"midi":69,"name":"A4","ticks":125760,"time":65.5,"velocity":1},{"duration":0.5,"durationTicks":960,"midi":69,"name":"A4","ticks":126240,"time":65.75,"velocity":1},{"duration":0.5,"durationTicks":960,"midi":78,"name":"F#5","ticks":127200,"time":66.25,"velocity":1},{"duration":0.25,"durationTicks":480,"midi":74,"name":"D5","ticks":132000,"time":68.75,"velocity":1},{"duration":0.25,"durationTicks":480,"midi":69,"name":"A4","ticks":132000,"time":68.75,"velocity":1},{"duration":0.25,"durationTicks":480,"midi":83,"name":"B5","ticks":132480,"time":69,"velocity":1},{"duration":0.25,"durationTicks":480,"midi":79,"name":"G5","ticks":132480,"time":69,"velocity":1},{"duration":0.25,"durationTicks":480,"midi":81,"name":"A5","ticks":132960,"time":69.25,"velocity":1},{"duration":0.25,"durationTicks":480,"midi":78,"name":"F#5","ticks":132960,"time":69.25,"velocity":1},{"duration":0.25,"durationTicks":480,"midi":79,"name":"G5","ticks":133440,"time":69.5,"velocity":1},{"duration":0.25,"durationTicks":480,"midi":76,"name":"E5","ticks":133440,"time":69.5,"velocity":1},{"duration":0.25,"durationTicks":480,"midi":79,"name":"G5","ticks":133920,"time":69.75,"velocity":1},{"duration":0.25,"durationTicks":480,"midi":76,"name":"E5","ticks":133920,"time":69.75,"velocity":1},{"duration":0.25,"durationTicks":480,"midi":81,"name":"A5","ticks":134400,"time":70,"velocity":1},{"duration":0.25,"durationTicks":480,"midi":78,"name":"F#5","ticks":134400,"time":70,"velocity":1},{"duration":0.25,"durationTicks":480,"midi":74,"name":"D5","ticks":139680,"time":72.75,"velocity":1},{"duration":0.25,"durationTicks":480,"midi":69,"name":"A4","ticks":139680,"time":72.75,"velocity":1},{"duration":0.25,"durationTicks":480,"midi":83,"name":"B5","ticks":140160,"time":73,"velocity":1},{"duration":0.25,"durationTicks":480,"midi":79,"name":"G5","ticks":140160,"time":73,"velocity":1},{"duration":0.25,"durationTicks":480,"midi":81,"name":"A5","ticks":140640,"time":73.25,"velocity":1},{"duration":0.25,"durationTicks":480,"midi":78,"name":"F#5","ticks":140640,"time":73.25,"velocity":1},{"duration":0.25,"durationTicks":480,"midi":79,"name":"G5","ticks":141120,"time":73.5,"velocity":1},{"duration":0.25,"durationTicks":480,"midi":76,"name":"E5","ticks":141120,"time":73.5,"velocity":1},{"duration":0.5,"durationTicks":960,"midi":79,"name":"G5","ticks":141600,"time":73.75,"velocity":1},{"duration":0.5,"durationTicks":960,"midi":76,"name":"E5","ticks":141600,"time":73.75,"velocity":1},{"duration":0.25,"durationTicks":480,"midi":81,"name":"A5","ticks":143040,"time":74.5,"velocity":1},{"duration":0.25,"durationTicks":480,"midi":78,"name":"F#5","ticks":143040,"time":74.5,"velocity":1},{"duration":0.5,"durationTicks":960,"midi":78,"name":"F#5","ticks":143520,"time":74.75,"velocity":1},{"duration":0.5,"durationTicks":960,"midi":74,"name":"D5","ticks":143520,"time":74.75,"velocity":1},{"duration":0.25,"durationTicks":480,"midi":79,"name":"G5","ticks":144960,"time":75.5,"velocity":1},{"duration":0.25,"durationTicks":480,"midi":76,"name":"E5","ticks":144960,"time":75.5,"velocity":1},{"duration":0.5,"durationTicks":960,"midi":74,"name":"D5","ticks":145440,"time":75.75,"velocity":1},{"duration":0.5,"durationTicks":960,"midi":69,"name":"A4","ticks":145440,"time":75.75,"velocity":1},{"duration":0.5,"durationTicks":960,"midi":76,"name":"E5","ticks":149760,"time":78,"velocity":1},{"duration":0.25,"durationTicks":480,"midi":78,"name":"F#5","ticks":150720,"time":78.5,"velocity":1},{"duration":0.75,"durationTicks":1440,"midi":79,"name":"G5","ticks":151200,"time":78.75,"velocity":1},{"duration":0.5,"durationTicks":960,"midi":76,"name":"E5","ticks":152640,"time":79.5,"velocity":1},{"duration":0.5,"durationTicks":960,"midi":73,"name":"C#5","ticks":153600,"time":80,"velocity":1},{"duration":0.25,"durationTicks":480,"midi":74,"name":"D5","ticks":154560,"time":80.5,"velocity":1},{"duration":0.25,"durationTicks":480,"midi":76,"name":"E5","ticks":155040,"time":80.75,"velocity":1},{"duration":0.25,"durationTicks":480,"midi":69,"name":"A4","ticks":156000,"time":81.25,"velocity":1},{"duration":0.25,"durationTicks":480,"midi":74,"name":"D5","ticks":156480,"time":81.5,"velocity":1},{"duration":0.25,"durationTicks":480,"midi":76,"name":"E5","ticks":156960,"time":81.75,"velocity":1},{"duration":0.25,"durationTicks":480,"midi":77,"name":"F5","ticks":157440,"time":82,"velocity":1},{"duration":0.25,"durationTicks":480,"midi":76,"name":"E5","ticks":157920,"time":82.25,"velocity":1},{"duration":0.25,"durationTicks":480,"midi":74,"name":"D5","ticks":158400,"time":82.5,"velocity":1},{"duration":0.25,"durationTicks":480,"midi":72,"name":"C5","ticks":158880,"time":82.75,"velocity":1},{"duration":0.25,"durationTicks":480,"midi":69,"name":"A4","ticks":160320,"time":83.5,"velocity":1},{"duration":0.25,"durationTicks":480,"midi":70,"name":"A#4","ticks":160800,"time":83.75,"velocity":1},{"duration":0.5,"durationTicks":960,"midi":72,"name":"C5","ticks":161280,"time":84,"velocity":1},{"duration":0.5,"durationTicks":960,"midi":77,"name":"F5","ticks":162240,"time":84.5,"velocity":1},{"duration":0.25,"durationTicks":480,"midi":76,"name":"E5","ticks":163200,"time":85,"velocity":1},{"duration":0.25,"durationTicks":480,"midi":74,"name":"D5","ticks":163680,"time":85.25,"velocity":1},{"duration":0.25,"durationTicks":480,"midi":74,"name":"D5","ticks":164160,"time":85.5,"velocity":1},{"duration":0.25,"durationTicks":480,"midi":72,"name":"C5","ticks":164640,"time":85.75,"velocity":1},{"duration":0.25,"durationTicks":480,"midi":74,"name":"D5","ticks":165120,"time":86,"velocity":1},{"duration":0.25,"durationTicks":480,"midi":72,"name":"C5","ticks":165600,"time":86.25,"velocity":1},{"duration":0.5,"durationTicks":960,"midi":72,"name":"C5","ticks":166080,"time":86.5,"velocity":1},{"duration":0.5,"durationTicks":960,"midi":72,"name":"C5","ticks":167040,"time":87,"velocity":1},{"duration":0.25,"durationTicks":480,"midi":69,"name":"A4","ticks":168000,"time":87.5,"velocity":1},{"duration":0.25,"durationTicks":480,"midi":70,"name":"A#4","ticks":168480,"time":87.75,"velocity":1},{"duration":0.5,"durationTicks":960,"midi":72,"name":"C5","ticks":168960,"time":88,"velocity":1},{"duration":0.5,"durationTicks":960,"midi":77,"name":"F5","ticks":169920,"time":88.5,"velocity":1},{"duration":0.25,"durationTicks":480,"midi":79,"name":"G5","ticks":170880,"time":89,"velocity":1},{"duration":0.25,"durationTicks":480,"midi":77,"name":"F5","ticks":171360,"time":89.25,"velocity":1},{"duration":0.25,"durationTicks":480,"midi":76,"name":"E5","ticks":171840,"time":89.5,"velocity":1},{"duration":0.25,"durationTicks":480,"midi":74,"name":"D5","ticks":172320,"time":89.75,"velocity":1},{"duration":0.25,"durationTicks":480,"midi":74,"name":"D5","ticks":172800,"time":90,"velocity":1},{"duration":0.25,"durationTicks":480,"midi":76,"name":"E5","ticks":173280,"time":90.25,"velocity":1},{"duration":0.5,"durationTicks":960,"midi":77,"name":"F5","ticks":173760,"time":90.5,"velocity":1},{"duration":0.5,"durationTicks":960,"midi":77,"name":"F5","ticks":174720,"time":91,"velocity":1},{"duration":0.25,"durationTicks":480,"midi":79,"name":"G5","ticks":175680,"time":91.5,"velocity":1},{"duration":0.25,"durationTicks":480,"midi":81,"name":"A5","ticks":176160,"time":91.75,"velocity":1},{"duration":0.25,"durationTicks":480,"midi":82,"name":"A#5","ticks":176640,"time":92,"velocity":1},{"duration":0.25,"durationTicks":480,"midi":82,"name":"A#5","ticks":177120,"time":92.25,"velocity":1},{"duration":0.5,"durationTicks":960,"midi":81,"name":"A5","ticks":177600,"time":92.5,"velocity":1},{"duration":0.5,"durationTicks":960,"midi":79,"name":"G5","ticks":178560,"time":93,"velocity":1},{"duration":0.25,"durationTicks":480,"midi":77,"name":"F5","ticks":179520,"time":93.5,"velocity":1},{"duration":0.25,"durationTicks":480,"midi":79,"name":"G5","ticks":180000,"time":93.75,"velocity":1},{"duration":0.25,"durationTicks":480,"midi":81,"name":"A5","ticks":180480,"time":94,"velocity":1},{"duration":0.25,"durationTicks":480,"midi":81,"name":"A5","ticks":180960,"time":94.25,"velocity":1},{"duration":0.25,"durationTicks":480,"midi":79,"name":"G5","ticks":181440,"time":94.5,"velocity":1},{"duration":0.25,"durationTicks":480,"midi":77,"name":"F5","ticks":181920,"time":94.75,"velocity":1},{"duration":0.5,"durationTicks":960,"midi":77,"name":"F5","ticks":182400,"time":95,"velocity":1},{"duration":0.25,"durationTicks":480,"midi":74,"name":"D5","ticks":183360,"time":95.5,"velocity":1},{"duration":0.25,"durationTicks":480,"midi":72,"name":"C5","ticks":183840,"time":95.75,"velocity":1},{"duration":0.25,"durationTicks":480,"midi":74,"name":"D5","ticks":184320,"time":96,"velocity":1},{"duration":0.25,"durationTicks":480,"midi":77,"name":"F5","ticks":184800,"time":96.25,"velocity":1},{"duration":0.25,"durationTicks":480,"midi":77,"name":"F5","ticks":185280,"time":96.5,"velocity":1},{"duration":0.5,"durationTicks":960,"midi":76,"name":"E5","ticks":185760,"time":96.75,"velocity":1},{"duration":0.25,"durationTicks":480,"midi":76,"name":"E5","ticks":186720,"time":97.25,"velocity":1},{"duration":0.25,"durationTicks":480,"midi":78,"name":"F#5","ticks":187200,"time":97.5,"velocity":1},{"duration":1,"durationTicks":1920,"midi":78,"name":"F#5","ticks":187680,"time":97.75,"velocity":1},{"duration":0.125,"durationTicks":240,"midi":79,"name":"G5","ticks":201600,"time":105,"velocity":1},{"duration":0.125,"durationTicks":240,"midi":79,"name":"G5","ticks":201840,"time":105.125,"velocity":1},{"duration":0.25,"durationTicks":480,"midi":78,"name":"F#5","ticks":202080,"time":105.25,"velocity":1},{"duration":0.25,"durationTicks":480,"midi":76,"name":"E5","ticks":202560,"time":105.5,"velocity":1},{"duration":0.375,"durationTicks":720,"midi":76,"name":"E5","ticks":203040,"time":105.75,"velocity":1},{"duration":0.375,"durationTicks":720,"midi":78,"name":"F#5","ticks":203760,"time":106.125,"velocity":1},{"duration":0.25,"durationTicks":480,"midi":69,"name":"A4","ticks":208800,"time":108.75,"velocity":1},{"duration":0.25,"durationTicks":480,"midi":79,"name":"G5","ticks":209280,"time":109,"velocity":1},{"duration":0.25,"durationTicks":480,"midi":78,"name":"F#5","ticks":209760,"time":109.25,"velocity":1},{"duration":0.25,"durationTicks":480,"midi":76,"name":"E5","ticks":210240,"time":109.5,"velocity":1},{"duration":0.5,"durationTicks":960,"midi":76,"name":"E5","ticks":210720,"time":109.75,"velocity":1},{"duration":0.25,"durationTicks":480,"midi":78,"name":"F#5","ticks":212160,"time":110.5,"velocity":1},{"duration":0.5,"durationTicks":960,"midi":74,"name":"D5","ticks":212640,"time":110.75,"velocity":1},{"duration":0.25,"durationTicks":480,"midi":76,"name":"E5","ticks":214080,"time":111.5,"velocity":1},{"duration":0.5,"durationTicks":960,"midi":69,"name":"A4","ticks":214560,"time":111.75,"velocity":1},{"duration":0.5,"durationTicks":960,"midi":76,"name":"E5","ticks":218880,"time":114,"velocity":1},{"duration":0.25,"durationTicks":480,"midi":78,"name":"F#5","ticks":219840,"time":114.5,"velocity":1},{"duration":0.75,"durationTicks":1440,"midi":79,"name":"G5","ticks":220320,"time":114.75,"velocity":1},{"duration":0.5,"durationTicks":960,"midi":76,"name":"E5","ticks":221760,"time":115.5,"velocity":1},{"duration":0.5,"durationTicks":960,"midi":73,"name":"C#5","ticks":222720,"time":116,"velocity":1},{"duration":0.25,"durationTicks":480,"midi":74,"name":"D5","ticks":223680,"time":116.5,"velocity":1},{"duration":0.75,"durationTicks":1440,"midi":76,"name":"E5","ticks":224160,"time":116.75,"velocity":1},{"duration":0.25,"durationTicks":480,"midi":69,"name":"A4","ticks":225600,"time":117.5,"velocity":1},{"duration":0.5,"durationTicks":960,"midi":69,"name":"A4","ticks":226080,"time":117.75,"velocity":1},{"duration":0.5,"durationTicks":960,"midi":78,"name":"F#5","ticks":227040,"time":118.25,"velocity":1},{"duration":0.25,"durationTicks":480,"midi":83,"name":"B5","ticks":232320,"time":121,"velocity":1},{"duration":0.25,"durationTicks":480,"midi":79,"name":"G5","ticks":232320,"time":121,"velocity":1},{"duration":0.25,"durationTicks":480,"midi":81,"name":"A5","ticks":232800,"time":121.25,"velocity":1},{"duration":0.25,"durationTicks":480,"midi":78,"name":"F#5","ticks":232800,"time":121.25,"velocity":1},{"duration":0.25,"durationTicks":480,"midi":79,"name":"G5","ticks":233280,"time":121.5,"velocity":1},{"duration":0.25,"durationTicks":480,"midi":76,"name":"E5","ticks":233280,"time":121.5,"velocity":1},{"duration":0.3125,"durationTicks":600,"midi":79,"name":"G5","ticks":233760,"time":121.75,"velocity":1},{"duration":0.3125,"durationTicks":600,"midi":76,"name":"E5","ticks":233760,"time":121.75,"velocity":1},{"duration":0.25,"durationTicks":480,"midi":81,"name":"A5","ticks":234360,"time":122.0625,"velocity":1},{"duration":0.25,"durationTicks":480,"midi":78,"name":"F#5","ticks":234360,"time":122.0625,"velocity":1},{"duration":0.25,"durationTicks":480,"midi":83,"name":"B5","ticks":240000,"time":125,"velocity":1},{"duration":0.25,"durationTicks":480,"midi":79,"name":"G5","ticks":240000,"time":125,"velocity":1},{"duration":0.25,"durationTicks":480,"midi":81,"name":"A5","ticks":240480,"time":125.25,"velocity":1},{"duration":0.25,"durationTicks":480,"midi":78,"name":"F#5","ticks":240480,"time":125.25,"velocity":1},{"duration":0.25,"durationTicks":480,"midi":79,"name":"G5","ticks":240960,"time":125.5,"velocity":1},{"duration":0.25,"durationTicks":480,"midi":76,"name":"E5","ticks":240960,"time":125.5,"velocity":1},{"duration":0.5,"durationTicks":960,"midi":79,"name":"G5","ticks":241440,"time":125.75,"velocity":1},{"duration":0.5,"durationTicks":960,"midi":76,"name":"E5","ticks":241440,"time":125.75,"velocity":1},{"duration":0.25,"durationTicks":480,"midi":81,"name":"A5","ticks":242880,"time":126.5,"velocity":1},{"duration":0.25,"durationTicks":480,"midi":78,"name":"F#5","ticks":242880,"time":126.5,"velocity":1},{"duration":0.5,"durationTicks":960,"midi":78,"name":"F#5","ticks":243360,"time":126.75,"velocity":1},{"duration":0.5,"durationTicks":960,"midi":74,"name":"D5","ticks":243360,"time":126.75,"velocity":1},{"duration":0.25,"durationTicks":480,"midi":79,"name":"G5","ticks":244800,"time":127.5,"velocity":1},{"duration":0.25,"durationTicks":480,"midi":76,"name":"E5","ticks":244800,"time":127.5,"velocity":1},{"duration":0.5,"durationTicks":960,"midi":74,"name":"D5","ticks":245280,"time":127.75,"velocity":1},{"duration":0.5,"durationTicks":960,"midi":69,"name":"A4","ticks":245280,"time":127.75,"velocity":1},{"duration":0.5,"durationTicks":960,"midi":76,"name":"E5","ticks":249600,"time":130,"velocity":1},{"duration":0.25,"durationTicks":480,"midi":78,"name":"F#5","ticks":250560,"time":130.5,"velocity":1},{"duration":0.75,"durationTicks":1440,"midi":79,"name":"G5","ticks":251040,"time":130.75,"velocity":1},{"duration":0.5,"durationTicks":960,"midi":76,"name":"E5","ticks":252480,"time":131.5,"velocity":1},{"duration":0.5,"durationTicks":960,"midi":73,"name":"C#5","ticks":253440,"time":132,"velocity":1},{"duration":0.25,"durationTicks":480,"midi":74,"name":"D5","ticks":254400,"time":132.5,"velocity":1},{"duration":0.25,"durationTicks":480,"midi":76,"name":"E5","ticks":254880,"time":132.75,"velocity":1},{"duration":0.25,"durationTicks":480,"midi":69,"name":"A4","ticks":255840,"time":133.25,"velocity":1},{"duration":0.25,"durationTicks":480,"midi":74,"name":"D5","ticks":256320,"time":133.5,"velocity":1},{"duration":0.25,"durationTicks":480,"midi":76,"name":"E5","ticks":256800,"time":133.75,"velocity":1},{"duration":0.25,"durationTicks":480,"midi":77,"name":"F5","ticks":257280,"time":134,"velocity":1},{"duration":0.25,"durationTicks":480,"midi":76,"name":"E5","ticks":257760,"time":134.25,"velocity":1},{"duration":0.25,"durationTicks":480,"midi":74,"name":"D5","ticks":258240,"time":134.5,"velocity":1},{"duration":0.25,"durationTicks":480,"midi":72,"name":"C5","ticks":258720,"time":134.75,"velocity":1},{"duration":0.25,"durationTicks":480,"midi":69,"name":"A4","ticks":260160,"time":135.5,"velocity":1},{"duration":0.25,"durationTicks":480,"midi":70,"name":"A#4","ticks":260640,"time":135.75,"velocity":1},{"duration":0.5,"durationTicks":960,"midi":72,"name":"C5","ticks":261120,"time":136,"velocity":1},{"duration":0.5,"durationTicks":960,"midi":77,"name":"F5","ticks":262080,"time":136.5,"velocity":1},{"duration":0.25,"durationTicks":480,"midi":76,"name":"E5","ticks":263040,"time":137,"velocity":1},{"duration":0.25,"durationTicks":480,"midi":74,"name":"D5","ticks":263520,"time":137.25,"velocity":1},{"duration":0.25,"durationTicks":480,"midi":74,"name":"D5","ticks":264000,"time":137.5,"velocity":1},{"duration":0.25,"durationTicks":480,"midi":72,"name":"C5","ticks":264480,"time":137.75,"velocity":1},{"duration":0.25,"durationTicks":480,"midi":74,"name":"D5","ticks":264960,"time":138,"velocity":1},{"duration":0.25,"durationTicks":480,"midi":72,"name":"C5","ticks":265440,"time":138.25,"velocity":1},{"duration":0.5,"durationTicks":960,"midi":72,"name":"C5","ticks":265920,"time":138.5,"velocity":1},{"duration":0.5,"durationTicks":960,"midi":72,"name":"C5","ticks":266880,"time":139,"velocity":1},{"duration":0.25,"durationTicks":480,"midi":69,"name":"A4","ticks":267840,"time":139.5,"velocity":1},{"duration":0.25,"durationTicks":480,"midi":70,"name":"A#4","ticks":268320,"time":139.75,"velocity":1},{"duration":0.5,"durationTicks":960,"midi":72,"name":"C5","ticks":268800,"time":140,"velocity":1},{"duration":0.5,"durationTicks":960,"midi":77,"name":"F5","ticks":269760,"time":140.5,"velocity":1},{"duration":0.25,"durationTicks":480,"midi":79,"name":"G5","ticks":270720,"time":141,"velocity":1},{"duration":0.25,"durationTicks":480,"midi":77,"name":"F5","ticks":271200,"time":141.25,"velocity":1},{"duration":0.25,"durationTicks":480,"midi":76,"name":"E5","ticks":271680,"time":141.5,"velocity":1},{"duration":0.25,"durationTicks":480,"midi":74,"name":"D5","ticks":272160,"time":141.75,"velocity":1},{"duration":0.25,"durationTicks":480,"midi":74,"name":"D5","ticks":272640,"time":142,"velocity":1},{"duration":0.25,"durationTicks":480,"midi":76,"name":"E5","ticks":273120,"time":142.25,"velocity":1},{"duration":0.5,"durationTicks":960,"midi":77,"name":"F5","ticks":273600,"time":142.5,"velocity":1},{"duration":0.5,"durationTicks":960,"midi":77,"name":"F5","ticks":274560,"time":143,"velocity":1},{"duration":0.25,"durationTicks":480,"midi":79,"name":"G5","ticks":275520,"time":143.5,"velocity":1},{"duration":0.25,"durationTicks":480,"midi":81,"name":"A5","ticks":276000,"time":143.75,"velocity":1},{"duration":0.25,"durationTicks":480,"midi":82,"name":"A#5","ticks":276480,"time":144,"velocity":1},{"duration":0.25,"durationTicks":480,"midi":82,"name":"A#5","ticks":276960,"time":144.25,"velocity":1},{"duration":0.25,"durationTicks":480,"midi":81,"name":"A5","ticks":277440,"time":144.5,"velocity":1},{"duration":0.25,"durationTicks":480,"midi":79,"name":"G5","ticks":277920,"time":144.75,"velocity":1},{"duration":0.5,"durationTicks":960,"midi":79,"name":"G5","ticks":278400,"time":145,"velocity":1},{"duration":0.25,"durationTicks":480,"midi":77,"name":"F5","ticks":279360,"time":145.5,"velocity":1},{"duration":0.25,"durationTicks":480,"midi":79,"name":"G5","ticks":279840,"time":145.75,"velocity":1},{"duration":0.25,"durationTicks":480,"midi":81,"name":"A5","ticks":280320,"time":146,"velocity":1},{"duration":0.25,"durationTicks":480,"midi":81,"name":"A5","ticks":280800,"time":146.25,"velocity":1},{"duration":0.25,"durationTicks":480,"midi":79,"name":"G5","ticks":281280,"time":146.5,"velocity":1},{"duration":0.25,"durationTicks":480,"midi":77,"name":"F5","ticks":281760,"time":146.75,"velocity":1},{"duration":0.5,"durationTicks":960,"midi":77,"name":"F5","ticks":282240,"time":147,"velocity":1},{"duration":0.25,"durationTicks":480,"midi":74,"name":"D5","ticks":283200,"time":147.5,"velocity":1},{"duration":0.25,"durationTicks":480,"midi":72,"name":"C5","ticks":283680,"time":147.75,"velocity":1},{"duration":0.25,"durationTicks":480,"midi":74,"name":"D5","ticks":284160,"time":148,"velocity":1},{"duration":0.25,"durationTicks":480,"midi":77,"name":"F5","ticks":284640,"time":148.25,"velocity":1},{"duration":0.25,"durationTicks":480,"midi":77,"name":"F5","ticks":285120,"time":148.5,"velocity":1},{"duration":0.5,"durationTicks":960,"midi":76,"name":"E5","ticks":285600,"time":148.75,"velocity":1},{"duration":0.25,"durationTicks":480,"midi":76,"name":"E5","ticks":286560,"time":149.25,"velocity":1},{"duration":0.25,"durationTicks":480,"midi":78,"name":"F#5","ticks":287040,"time":149.5,"velocity":1},{"duration":1,"durationTicks":1920,"midi":78,"name":"F#5","ticks":287520,"time":149.75,"velocity":1},{"duration":0.25,"durationTicks":480,"midi":81,"name":"A5","ticks":290880,"time":151.5,"velocity":1},{"duration":0.25,"durationTicks":480,"midi":81,"name":"A5","ticks":291360,"time":151.75,"velocity":1},{"duration":0.25,"durationTicks":480,"midi":83,"name":"B5","ticks":291840,"time":152,"velocity":1},{"duration":0.25,"durationTicks":480,"midi":81,"name":"A5","ticks":292320,"time":152.25,"velocity":1},{"duration":0.25,"durationTicks":480,"midi":78,"name":"F#5","ticks":292800,"time":152.5,"velocity":1},{"duration":0.5,"durationTicks":960,"midi":74,"name":"D5","ticks":293280,"time":152.75,"velocity":1},{"duration":0.25,"durationTicks":480,"midi":79,"name":"G5","ticks":294240,"time":153.25,"velocity":1},{"duration":0.25,"durationTicks":480,"midi":76,"name":"E5","ticks":294240,"time":153.25,"velocity":1},{"duration":0.25,"durationTicks":480,"midi":78,"name":"F#5","ticks":294720,"time":153.5,"velocity":1},{"duration":0.25,"durationTicks":480,"midi":81,"name":"A5","ticks":294720,"time":153.5,"velocity":1},{"duration":0.5,"durationTicks":960,"midi":78,"name":"F#5","ticks":295200,"time":153.75,"velocity":1},{"duration":0.5,"durationTicks":960,"midi":81,"name":"A5","ticks":295200,"time":153.75,"velocity":1},{"duration":0.25,"durationTicks":480,"midi":81,"name":"A5","ticks":298080,"time":155.25,"velocity":1},{"duration":0.25,"durationTicks":480,"midi":81,"name":"A5","ticks":298560,"time":155.5,"velocity":1},{"duration":0.25,"durationTicks":480,"midi":81,"name":"A5","ticks":299040,"time":155.75,"velocity":1},{"duration":0.25,"durationTicks":480,"midi":83,"name":"B5","ticks":299520,"time":156,"velocity":1},{"duration":0.25,"durationTicks":480,"midi":81,"name":"A5","ticks":300000,"time":156.25,"velocity":1},{"duration":0.25,"durationTicks":480,"midi":78,"name":"F#5","ticks":300480,"time":156.5,"velocity":1},{"duration":0.5,"durationTicks":960,"midi":74,"name":"D5","ticks":300960,"time":156.75,"velocity":1},{"duration":0.25,"durationTicks":480,"midi":79,"name":"G5","ticks":301920,"time":157.25,"velocity":1},{"duration":0.25,"durationTicks":480,"midi":76,"name":"E5","ticks":301920,"time":157.25,"velocity":1},{"duration":0.25,"durationTicks":480,"midi":81,"name":"A5","ticks":302400,"time":157.5,"velocity":1},{"duration":0.25,"durationTicks":480,"midi":78,"name":"F#5","ticks":302400,"time":157.5,"velocity":1},{"duration":0.5,"durationTicks":960,"midi":81,"name":"A5","ticks":302880,"time":157.75,"velocity":1},{"duration":0.5,"durationTicks":960,"midi":78,"name":"F#5","ticks":302880,"time":157.75,"velocity":1},{"duration":0.25,"durationTicks":480,"midi":81,"name":"A5","ticks":305760,"time":159.25,"velocity":1},{"duration":0.25,"durationTicks":480,"midi":81,"name":"A5","ticks":306240,"time":159.5,"velocity":1},{"duration":0.25,"durationTicks":480,"midi":81,"name":"A5","ticks":306720,"time":159.75,"velocity":1},{"duration":0.25,"durationTicks":480,"midi":83,"name":"B5","ticks":307200,"time":160,"velocity":1},{"duration":0.25,"durationTicks":480,"midi":81,"name":"A5","ticks":307680,"time":160.25,"velocity":1},{"duration":0.25,"durationTicks":480,"midi":78,"name":"F#5","ticks":308160,"time":160.5,"velocity":1},{"duration":0.5,"durationTicks":960,"midi":74,"name":"D5","ticks":308640,"time":160.75,"velocity":1},{"duration":0.25,"durationTicks":480,"midi":79,"name":"G5","ticks":309600,"time":161.25,"velocity":1},{"duration":0.25,"durationTicks":480,"midi":76,"name":"E5","ticks":309600,"time":161.25,"velocity":1},{"duration":0.25,"durationTicks":480,"midi":81,"name":"A5","ticks":310080,"time":161.5,"velocity":1},{"duration":0.25,"durationTicks":480,"midi":78,"name":"F#5","ticks":310080,"time":161.5,"velocity":1},{"duration":0.5,"durationTicks":960,"midi":81,"name":"A5","ticks":310560,"time":161.75,"velocity":1},{"duration":0.5,"durationTicks":960,"midi":78,"name":"F#5","ticks":310560,"time":161.75,"velocity":1},{"duration":0.25,"durationTicks":480,"midi":81,"name":"A5","ticks":313920,"time":163.5,"velocity":1},{"duration":0.25,"durationTicks":480,"midi":81,"name":"A5","ticks":314400,"time":163.75,"velocity":1},{"duration":0.25,"durationTicks":480,"midi":83,"name":"B5","ticks":314880,"time":164,"velocity":1},{"duration":0.25,"durationTicks":480,"midi":81,"name":"A5","ticks":315360,"time":164.25,"velocity":1},{"duration":0.25,"durationTicks":480,"midi":78,"name":"F#5","ticks":315840,"time":164.5,"velocity":1},{"duration":0.5,"durationTicks":960,"midi":74,"name":"D5","ticks":316320,"time":164.75,"velocity":1},{"duration":0.25,"durationTicks":480,"midi":79,"name":"G5","ticks":317280,"time":165.25,"velocity":1},{"duration":0.25,"durationTicks":480,"midi":76,"name":"E5","ticks":317280,"time":165.25,"velocity":1},{"duration":0.25,"durationTicks":480,"midi":81,"name":"A5","ticks":317760,"time":165.5,"velocity":1},{"duration":0.25,"durationTicks":480,"midi":78,"name":"F#5","ticks":317760,"time":165.5,"velocity":1},{"duration":0.5,"durationTicks":960,"midi":81,"name":"A5","ticks":318240,"time":165.75,"velocity":1},{"duration":0.5,"durationTicks":960,"midi":78,"name":"F#5","ticks":318240,"time":165.75,"velocity":1},{"duration":0.25,"durationTicks":480,"midi":81,"name":"A5","ticks":321120,"time":167.25,"velocity":1},{"duration":0.25,"durationTicks":480,"midi":81,"name":"A5","ticks":321600,"time":167.5,"velocity":1},{"duration":0.25,"durationTicks":480,"midi":81,"name":"A5","ticks":322080,"time":167.75,"velocity":1},{"duration":0.25,"durationTicks":480,"midi":83,"name":"B5","ticks":322560,"time":168,"velocity":1},{"duration":0.25,"durationTicks":480,"midi":81,"name":"A5","ticks":323040,"time":168.25,"velocity":1},{"duration":0.25,"durationTicks":480,"midi":78,"name":"F#5","ticks":323520,"time":168.5,"velocity":1},{"duration":0.5,"durationTicks":960,"midi":74,"name":"D5","ticks":324000,"time":168.75,"velocity":1},{"duration":0.25,"durationTicks":480,"midi":79,"name":"G5","ticks":324960,"time":169.25,"velocity":1},{"duration":0.25,"durationTicks":480,"midi":76,"name":"E5","ticks":324960,"time":169.25,"velocity":1},{"duration":0.25,"durationTicks":480,"midi":81,"name":"A5","ticks":325440,"time":169.5,"velocity":1},{"duration":0.25,"durationTicks":480,"midi":78,"name":"F#5","ticks":325440,"time":169.5,"velocity":1},{"duration":0.5,"durationTicks":960,"midi":81,"name":"A5","ticks":325920,"time":169.75,"velocity":1},{"duration":0.5,"durationTicks":960,"midi":78,"name":"F#5","ticks":325920,"time":169.75,"velocity":1},{"duration":0.25,"durationTicks":480,"midi":79,"name":"G5","ticks":328800,"time":171.25,"velocity":1},{"duration":0.25,"durationTicks":480,"midi":81,"name":"A5","ticks":329280,"time":171.5,"velocity":1},{"duration":0.5,"durationTicks":960,"midi":81,"name":"A5","ticks":329760,"time":171.75,"velocity":1},{"duration":0.25,"durationTicks":480,"midi":79,"name":"G5","ticks":332640,"time":173.25,"velocity":1},{"duration":0.25,"durationTicks":480,"midi":78,"name":"F#5","ticks":333120,"time":173.5,"velocity":1},{"duration":0.5,"durationTicks":960,"midi":78,"name":"F#5","ticks":333600,"time":173.75,"velocity":1}],"channel":0,"instrument":{"family":"ensemble","number":53,"name":"voice oohs"},"controlChanges":{"10":[{"number":10,"ticks":0,"time":0,"value":0.5039370078740157}]},"pitchBends":[]},{"name":"Guitar 1","notes":[{"duration":0.25,"durationTicks":480,"midi":57,"name":"A3","ticks":3840,"time":2,"velocity":1},{"duration":0.25,"durationTicks":480,"midi":62,"name":"D4","ticks":4320,"time":2.25,"velocity":1},{"duration":0.25,"durationTicks":480,"midi":66,"name":"F#4","ticks":4800,"time":2.5,"velocity":1},{"duration":0.25,"durationTicks":480,"midi":62,"name":"D4","ticks":5280,"time":2.75,"velocity":1},{"duration":0.25,"durationTicks":480,"midi":59,"name":"B3","ticks":5760,"time":3,"velocity":1},{"duration":0.25,"durationTicks":480,"midi":62,"name":"D4","ticks":6240,"time":3.25,"velocity":1},{"duration":0.25,"durationTicks":480,"midi":66,"name":"F#4","ticks":6720,"time":3.5,"velocity":1},{"duration":0.25,"durationTicks":480,"midi":62,"name":"D4","ticks":7200,"time":3.75,"velocity":1},{"duration":0.25,"durationTicks":480,"midi":57,"name":"A3","ticks":7680,"time":4,"velocity":1},{"duration":0.25,"durationTicks":480,"midi":62,"name":"D4","ticks":8160,"time":4.25,"velocity":1},{"duration":0.25,"durationTicks":480,"midi":66,"name":"F#4","ticks":8640,"time":4.5,"velocity":1},{"duration":0.25,"durationTicks":480,"midi":62,"name":"D4","ticks":9120,"time":4.75,"velocity":1},{"duration":0.25,"durationTicks":480,"midi":59,"name":"B3","ticks":9600,"time":5,"velocity":1},{"duration":0.25,"durationTicks":480,"midi":62,"name":"D4","ticks":10080,"time":5.25,"velocity":1},{"duration":0.25,"durationTicks":480,"midi":66,"name":"F#4","ticks":10560,"time":5.5,"velocity":1},{"duration":0.25,"durationTicks":480,"midi":62,"name":"D4","ticks":11040,"time":5.75,"velocity":1},{"duration":0.25,"durationTicks":480,"midi":57,"name":"A3","ticks":11520,"time":6,"velocity":1},{"duration":0.25,"durationTicks":480,"midi":62,"name":"D4","ticks":12000,"time":6.25,"velocity":1},{"duration":0.25,"durationTicks":480,"midi":66,"name":"F#4","ticks":12480,"time":6.5,"velocity":1},{"duration":0.25,"durationTicks":480,"midi":62,"name":"D4","ticks":12960,"time":6.75,"velocity":1},{"duration":0.25,"durationTicks":480,"midi":59,"name":"B3","ticks":13440,"time":7,"velocity":1},{"duration":0.25,"durationTicks":480,"midi":62,"name":"D4","ticks":13920,"time":7.25,"velocity":1},{"duration":0.25,"durationTicks":480,"midi":66,"name":"F#4","ticks":14400,"time":7.5,"velocity":1},{"duration":0.25,"durationTicks":480,"midi":62,"name":"D4","ticks":14880,"time":7.75,"velocity":1},{"duration":0.25,"durationTicks":480,"midi":57,"name":"A3","ticks":15360,"time":8,"velocity":1},{"duration":0.25,"durationTicks":480,"midi":62,"name":"D4","ticks":15840,"time":8.25,"velocity":1},{"duration":0.25,"durationTicks":480,"midi":66,"name":"F#4","ticks":16320,"time":8.5,"velocity":1},{"duration":0.25,"durationTicks":480,"midi":62,"name":"D4","ticks":16800,"time":8.75,"velocity":1},{"duration":0.25,"durationTicks":480,"midi":59,"name":"B3","ticks":17280,"time":9,"velocity":1},{"duration":0.25,"durationTicks":480,"midi":62,"name":"D4","ticks":17760,"time":9.25,"velocity":1},{"duration":0.25,"durationTicks":480,"midi":66,"name":"F#4","ticks":18240,"time":9.5,"velocity":1},{"duration":0.25,"durationTicks":480,"midi":62,"name":"D4","ticks":18720,"time":9.75,"velocity":1},{"duration":0.25,"durationTicks":480,"midi":59,"name":"B3","ticks":19200,"time":10,"velocity":1},{"duration":0.25,"durationTicks":480,"midi":64,"name":"E4","ticks":19680,"time":10.25,"velocity":1},{"duration":0.25,"durationTicks":480,"midi":67,"name":"G4","ticks":20160,"time":10.5,"velocity":1},{"duration":0.25,"durationTicks":480,"midi":64,"name":"E4","ticks":20640,"time":10.75,"velocity":1},{"duration":0.25,"durationTicks":480,"midi":59,"name":"B3","ticks":21120,"time":11,"velocity":1},{"duration":0.25,"durationTicks":480,"midi":64,"name":"E4","ticks":21600,"time":11.25,"velocity":1},{"duration":0.25,"durationTicks":480,"midi":67,"name":"G4","ticks":22080,"time":11.5,"velocity":1},{"duration":0.25,"durationTicks":480,"midi":64,"name":"E4","ticks":22560,"time":11.75,"velocity":1},{"duration":0.25,"durationTicks":480,"midi":57,"name":"A3","ticks":23040,"time":12,"velocity":1},{"duration":0.25,"durationTicks":480,"midi":61,"name":"C#4","ticks":23520,"time":12.25,"velocity":1},{"duration":0.25,"durationTicks":480,"midi":67,"name":"G4","ticks":24000,"time":12.5,"velocity":1},{"duration":0.25,"durationTicks":480,"midi":61,"name":"C#4","ticks":24480,"time":12.75,"velocity":1},{"duration":0.25,"durationTicks":480,"midi":57,"name":"A3","ticks":24960,"time":13,"velocity":1},{"duration":0.25,"durationTicks":480,"midi":61,"name":"C#4","ticks":25440,"time":13.25,"velocity":1},{"duration":0.25,"durationTicks":480,"midi":67,"name":"G4","ticks":25920,"time":13.5,"velocity":1},{"duration":0.25,"durationTicks":480,"midi":61,"name":"C#4","ticks":26400,"time":13.75,"velocity":1},{"duration":0.25,"durationTicks":480,"midi":57,"name":"A3","ticks":26880,"time":14,"velocity":1},{"duration":0.25,"durationTicks":480,"midi":62,"name":"D4","ticks":27360,"time":14.25,"velocity":1},{"duration":0.25,"durationTicks":480,"midi":66,"name":"F#4","ticks":27840,"time":14.5,"velocity":1},{"duration":0.25,"durationTicks":480,"midi":62,"name":"D4","ticks":28320,"time":14.75,"velocity":1},{"duration":0.25,"durationTicks":480,"midi":59,"name":"B3","ticks":28800,"time":15,"velocity":1},{"duration":0.25,"durationTicks":480,"midi":62,"name":"D4","ticks":29280,"time":15.25,"velocity":1},{"duration":0.25,"durationTicks":480,"midi":66,"name":"F#4","ticks":29760,"time":15.5,"velocity":1},{"duration":0.25,"durationTicks":480,"midi":62,"name":"D4","ticks":30240,"time":15.75,"velocity":1},{"duration":0.25,"durationTicks":480,"midi":57,"name":"A3","ticks":30720,"time":16,"velocity":1},{"duration":0.25,"durationTicks":480,"midi":62,"name":"D4","ticks":31200,"time":16.25,"velocity":1},{"duration":0.25,"durationTicks":480,"midi":66,"name":"F#4","ticks":31680,"time":16.5,"velocity":1},{"duration":0.25,"durationTicks":480,"midi":62,"name":"D4","ticks":32160,"time":16.75,"velocity":1},{"duration":0.25,"durationTicks":480,"midi":59,"name":"B3","ticks":32640,"time":17,"velocity":1},{"duration":0.25,"durationTicks":480,"midi":62,"name":"D4","ticks":33120,"time":17.25,"velocity":1},{"duration":0.25,"durationTicks":480,"midi":66,"name":"F#4","ticks":33600,"time":17.5,"velocity":1},{"duration":0.25,"durationTicks":480,"midi":62,"name":"D4","ticks":34080,"time":17.75,"velocity":1},{"duration":0.25,"durationTicks":480,"midi":57,"name":"A3","ticks":34560,"time":18,"velocity":1},{"duration":0.25,"durationTicks":480,"midi":62,"name":"D4","ticks":35040,"time":18.25,"velocity":1},{"duration":0.25,"durationTicks":480,"midi":66,"name":"F#4","ticks":35520,"time":18.5,"velocity":1},{"duration":0.25,"durationTicks":480,"midi":62,"name":"D4","ticks":36000,"time":18.75,"velocity":1},{"duration":0.25,"durationTicks":480,"midi":59,"name":"B3","ticks":36480,"time":19,"velocity":1},{"duration":0.25,"durationTicks":480,"midi":62,"name":"D4","ticks":36960,"time":19.25,"velocity":1},{"duration":0.25,"durationTicks":480,"midi":66,"name":"F#4","ticks":37440,"time":19.5,"velocity":1},{"duration":0.25,"durationTicks":480,"midi":62,"name":"D4","ticks":37920,"time":19.75,"velocity":1},{"duration":0.25,"durationTicks":480,"midi":57,"name":"A3","ticks":38400,"time":20,"velocity":1},{"duration":0.25,"durationTicks":480,"midi":62,"name":"D4","ticks":38880,"time":20.25,"velocity":1},{"duration":0.25,"durationTicks":480,"midi":66,"name":"F#4","ticks":39360,"time":20.5,"velocity":1},{"duration":0.25,"durationTicks":480,"midi":62,"name":"D4","ticks":39840,"time":20.75,"velocity":1},{"duration":0.25,"durationTicks":480,"midi":59,"name":"B3","ticks":40320,"time":21,"velocity":1},{"duration":0.25,"durationTicks":480,"midi":62,"name":"D4","ticks":40800,"time":21.25,"velocity":1},{"duration":0.25,"durationTicks":480,"midi":66,"name":"F#4","ticks":41280,"time":21.5,"velocity":1},{"duration":0.25,"durationTicks":480,"midi":62,"name":"D4","ticks":41760,"time":21.75,"velocity":1},{"duration":0.25,"durationTicks":480,"midi":57,"name":"A3","ticks":42240,"time":22,"velocity":1},{"duration":0.25,"durationTicks":480,"midi":62,"name":"D4","ticks":42720,"time":22.25,"velocity":1},{"duration":0.25,"durationTicks":480,"midi":66,"name":"F#4","ticks":43200,"time":22.5,"velocity":1},{"duration":0.25,"durationTicks":480,"midi":62,"name":"D4","ticks":43680,"time":22.75,"velocity":1},{"duration":0.25,"durationTicks":480,"midi":59,"name":"B3","ticks":44160,"time":23,"velocity":1},{"duration":0.25,"durationTicks":480,"midi":62,"name":"D4","ticks":44640,"time":23.25,"velocity":1},{"duration":0.25,"durationTicks":480,"midi":66,"name":"F#4","ticks":45120,"time":23.5,"velocity":1},{"duration":0.25,"durationTicks":480,"midi":62,"name":"D4","ticks":45600,"time":23.75,"velocity":1},{"duration":0.25,"durationTicks":480,"midi":57,"name":"A3","ticks":46080,"time":24,"velocity":1},{"duration":0.25,"durationTicks":480,"midi":62,"name":"D4","ticks":46560,"time":24.25,"velocity":1},{"duration":0.25,"durationTicks":480,"midi":66,"name":"F#4","ticks":47040,"time":24.5,"velocity":1},{"duration":0.25,"durationTicks":480,"midi":62,"name":"D4","ticks":47520,"time":24.75,"velocity":1},{"duration":0.25,"durationTicks":480,"midi":59,"name":"B3","ticks":48000,"time":25,"velocity":1},{"duration":0.25,"durationTicks":480,"midi":62,"name":"D4","ticks":48480,"time":25.25,"velocity":1},{"duration":0.25,"durationTicks":480,"midi":66,"name":"F#4","ticks":48960,"time":25.5,"velocity":1},{"duration":0.25,"durationTicks":480,"midi":62,"name":"D4","ticks":49440,"time":25.75,"velocity":1},{"duration":0.25,"durationTicks":480,"midi":59,"name":"B3","ticks":49920,"time":26,"velocity":1},{"duration":0.25,"durationTicks":480,"midi":64,"name":"E4","ticks":50400,"time":26.25,"velocity":1},{"duration":0.25,"durationTicks":480,"midi":67,"name":"G4","ticks":50880,"time":26.5,"velocity":1},{"duration":0.25,"durationTicks":480,"midi":64,"name":"E4","ticks":51360,"time":26.75,"velocity":1},{"duration":0.25,"durationTicks":480,"midi":59,"name":"B3","ticks":51840,"time":27,"velocity":1},{"duration":0.25,"durationTicks":480,"midi":64,"name":"E4","ticks":52320,"time":27.25,"velocity":1},{"duration":0.25,"durationTicks":480,"midi":67,"name":"G4","ticks":52800,"time":27.5,"velocity":1},{"duration":0.25,"durationTicks":480,"midi":64,"name":"E4","ticks":53280,"time":27.75,"velocity":1},{"duration":0.25,"durationTicks":480,"midi":57,"name":"A3","ticks":53760,"time":28,"velocity":1},{"duration":0.25,"durationTicks":480,"midi":61,"name":"C#4","ticks":54240,"time":28.25,"velocity":1},{"duration":0.25,"durationTicks":480,"midi":67,"name":"G4","ticks":54720,"time":28.5,"velocity":1},{"duration":0.25,"durationTicks":480,"midi":61,"name":"C#4","ticks":55200,"time":28.75,"velocity":1},{"duration":0.25,"durationTicks":480,"midi":57,"name":"A3","ticks":55680,"time":29,"velocity":1},{"duration":0.25,"durationTicks":480,"midi":61,"name":"C#4","ticks":56160,"time":29.25,"velocity":1},{"duration":0.25,"durationTicks":480,"midi":67,"name":"G4","ticks":56640,"time":29.5,"velocity":1},{"duration":0.25,"durationTicks":480,"midi":61,"name":"C#4","ticks":57120,"time":29.75,"velocity":1},{"duration":0.25,"durationTicks":480,"midi":58,"name":"A#3","ticks":57600,"time":30,"velocity":1},{"duration":0.25,"durationTicks":480,"midi":62,"name":"D4","ticks":58080,"time":30.25,"velocity":1},{"duration":0.25,"durationTicks":480,"midi":65,"name":"F4","ticks":58560,"time":30.5,"velocity":1},{"duration":1,"durationTicks":1920,"midi":69,"name":"A4","ticks":59040,"time":30.75,"velocity":1},{"duration":0.25,"durationTicks":480,"midi":60,"name":"C4","ticks":61440,"time":32,"velocity":1},{"duration":0.25,"durationTicks":480,"midi":65,"name":"F4","ticks":61440,"time":32,"velocity":1},{"duration":0.25,"durationTicks":480,"midi":69,"name":"A4","ticks":61920,"time":32.25,"velocity":1},{"duration":0.25,"durationTicks":480,"midi":60,"name":"C4","ticks":62400,"time":32.5,"velocity":1},{"duration":0.25,"durationTicks":480,"midi":65,"name":"F4","ticks":62400,"time":32.5,"velocity":1},{"duration":0.25,"durationTicks":480,"midi":60,"name":"C4","ticks":63360,"time":33,"velocity":1},{"duration":0.25,"durationTicks":480,"midi":64,"name":"E4","ticks":63360,"time":33,"velocity":1},{"duration":0.25,"durationTicks":480,"midi":67,"name":"G4","ticks":63840,"time":33.25,"velocity":1},{"duration":0.25,"durationTicks":480,"midi":60,"name":"C4","ticks":64320,"time":33.5,"velocity":1},{"duration":0.25,"durationTicks":480,"midi":64,"name":"E4","ticks":64320,"time":33.5,"velocity":1},{"duration":0.25,"durationTicks":480,"midi":58,"name":"A#3","ticks":65280,"time":34,"velocity":1},{"duration":0.25,"durationTicks":480,"midi":62,"name":"D4","ticks":65280,"time":34,"velocity":1},{"duration":0.25,"durationTicks":480,"midi":70,"name":"A#4","ticks":65760,"time":34.25,"velocity":1},{"duration":0.25,"durationTicks":480,"midi":58,"name":"A#3","ticks":66240,"time":34.5,"velocity":1},{"duration":0.25,"durationTicks":480,"midi":62,"name":"D4","ticks":66240,"time":34.5,"velocity":1},{"duration":0.25,"durationTicks":480,"midi":64,"name":"E4","ticks":66720,"time":34.75,"velocity":1},{"duration":0.25,"durationTicks":480,"midi":60,"name":"C4","ticks":67200,"time":35,"velocity":1},{"duration":0.25,"durationTicks":480,"midi":65,"name":"F4","ticks":67200,"time":35,"velocity":1},{"duration":0.25,"durationTicks":480,"midi":69,"name":"A4","ticks":67680,"time":35.25,"velocity":1},{"duration":0.25,"durationTicks":480,"midi":60,"name":"C4","ticks":68160,"time":35.5,"velocity":1},{"duration":0.25,"durationTicks":480,"midi":65,"name":"F4","ticks":68160,"time":35.5,"velocity":1},{"duration":0.25,"durationTicks":480,"midi":60,"name":"C4","ticks":69120,"time":36,"velocity":1},{"duration":0.25,"durationTicks":480,"midi":65,"name":"F4","ticks":69120,"time":36,"velocity":1},{"duration":0.25,"durationTicks":480,"midi":69,"name":"A4","ticks":69600,"time":36.25,"velocity":1},{"duration":0.25,"durationTicks":480,"midi":60,"name":"C4","ticks":70080,"time":36.5,"velocity":1},{"duration":0.25,"durationTicks":480,"midi":65,"name":"F4","ticks":70080,"time":36.5,"velocity":1},{"duration":0.25,"durationTicks":480,"midi":60,"name":"C4","ticks":71040,"time":37,"velocity":1},{"duration":0.25,"durationTicks":480,"midi":64,"name":"E4","ticks":71040,"time":37,"velocity":1},{"duration":0.25,"durationTicks":480,"midi":67,"name":"G4","ticks":71520,"time":37.25,"velocity":1},{"duration":0.25,"durationTicks":480,"midi":60,"name":"C4","ticks":72000,"time":37.5,"velocity":1},{"duration":0.25,"durationTicks":480,"midi":64,"name":"E4","ticks":72000,"time":37.5,"velocity":1},{"duration":0.25,"durationTicks":480,"midi":58,"name":"A#3","ticks":72960,"time":38,"velocity":1},{"duration":0.25,"durationTicks":480,"midi":62,"name":"D4","ticks":72960,"time":38,"velocity":1},{"duration":0.25,"durationTicks":480,"midi":70,"name":"A#4","ticks":73440,"time":38.25,"velocity":1},{"duration":0.25,"durationTicks":480,"midi":58,"name":"A#3","ticks":73920,"time":38.5,"velocity":1},{"duration":0.25,"durationTicks":480,"midi":62,"name":"D4","ticks":73920,"time":38.5,"velocity":1},{"duration":0.25,"durationTicks":480,"midi":64,"name":"E4","ticks":74400,"time":38.75,"velocity":1},{"duration":0.25,"durationTicks":480,"midi":60,"name":"C4","ticks":74880,"time":39,"velocity":1},{"duration":0.25,"durationTicks":480,"midi":65,"name":"F4","ticks":74880,"time":39,"velocity":1},{"duration":0.25,"durationTicks":480,"midi":69,"name":"A4","ticks":75360,"time":39.25,"velocity":1},{"duration":0.25,"durationTicks":480,"midi":60,"name":"C4","ticks":75840,"time":39.5,"velocity":1},{"duration":0.25,"durationTicks":480,"midi":65,"name":"F4","ticks":75840,"time":39.5,"velocity":1},{"duration":0.25,"durationTicks":480,"midi":58,"name":"A#3","ticks":76800,"time":40,"velocity":1},{"duration":0.25,"durationTicks":480,"midi":62,"name":"D4","ticks":76800,"time":40,"velocity":1},{"duration":0.25,"durationTicks":480,"midi":67,"name":"G4","ticks":77280,"time":40.25,"velocity":1},{"duration":0.25,"durationTicks":480,"midi":58,"name":"A#3","ticks":77760,"time":40.5,"velocity":1},{"duration":0.25,"durationTicks":480,"midi":62,"name":"D4","ticks":77760,"time":40.5,"velocity":1},{"duration":0.25,"durationTicks":480,"midi":67,"name":"G4","ticks":78240,"time":40.75,"velocity":1},{"duration":0.25,"durationTicks":480,"midi":60,"name":"C4","ticks":78720,"time":41,"velocity":1},{"duration":0.25,"durationTicks":480,"midi":64,"name":"E4","ticks":78720,"time":41,"velocity":1},{"duration":0.25,"durationTicks":480,"midi":67,"name":"G4","ticks":79200,"time":41.25,"velocity":1},{"duration":0.25,"durationTicks":480,"midi":60,"name":"C4","ticks":79680,"time":41.5,"velocity":1},{"duration":0.25,"durationTicks":480,"midi":64,"name":"E4","ticks":79680,"time":41.5,"velocity":1},{"duration":0.25,"durationTicks":480,"midi":67,"name":"G4","ticks":80160,"time":41.75,"velocity":1},{"duration":0.25,"durationTicks":480,"midi":60,"name":"C4","ticks":80640,"time":42,"velocity":1},{"duration":0.25,"durationTicks":480,"midi":65,"name":"F4","ticks":80640,"time":42,"velocity":1},{"duration":0.25,"durationTicks":480,"midi":69,"name":"A4","ticks":81120,"time":42.25,"velocity":1},{"duration":0.25,"durationTicks":480,"midi":60,"name":"C4","ticks":81600,"time":42.5,"velocity":1},{"duration":0.25,"durationTicks":480,"midi":65,"name":"F4","ticks":81600,"time":42.5,"velocity":1},{"duration":0.25,"durationTicks":480,"midi":69,"name":"A4","ticks":82080,"time":42.75,"velocity":1},{"duration":0.25,"durationTicks":480,"midi":62,"name":"D4","ticks":82560,"time":43,"velocity":1},{"duration":0.25,"durationTicks":480,"midi":65,"name":"F4","ticks":82560,"time":43,"velocity":1},{"duration":0.25,"durationTicks":480,"midi":69,"name":"A4","ticks":83040,"time":43.25,"velocity":1},{"duration":0.25,"durationTicks":480,"midi":62,"name":"D4","ticks":83520,"time":43.5,"velocity":1},{"duration":0.25,"durationTicks":480,"midi":65,"name":"F4","ticks":83520,"time":43.5,"velocity":1},{"duration":0.25,"durationTicks":480,"midi":69,"name":"A4","ticks":84000,"time":43.75,"velocity":1},{"duration":0.25,"durationTicks":480,"midi":58,"name":"A#3","ticks":84480,"time":44,"velocity":1},{"duration":0.25,"durationTicks":480,"midi":62,"name":"D4","ticks":84480,"time":44,"velocity":1},{"duration":0.25,"durationTicks":480,"midi":67,"name":"G4","ticks":84960,"time":44.25,"velocity":1},{"duration":0.25,"durationTicks":480,"midi":58,"name":"A#3","ticks":85440,"time":44.5,"velocity":1},{"duration":0.25,"durationTicks":480,"midi":62,"name":"D4","ticks":85440,"time":44.5,"velocity":1},{"duration":0.25,"durationTicks":480,"midi":67,"name":"G4","ticks":85920,"time":44.75,"velocity":1},{"duration":0.25,"durationTicks":480,"midi":57,"name":"A3","ticks":86400,"time":45,"velocity":1},{"duration":0.25,"durationTicks":480,"midi":61,"name":"C#4","ticks":86400,"time":45,"velocity":1},{"duration":0.25,"durationTicks":480,"midi":67,"name":"G4","ticks":86880,"time":45.25,"velocity":1},{"duration":0.25,"durationTicks":480,"midi":57,"name":"A3","ticks":87360,"time":45.5,"velocity":1},{"duration":0.25,"durationTicks":480,"midi":61,"name":"C#4","ticks":87360,"time":45.5,"velocity":1},{"duration":0.25,"durationTicks":480,"midi":67,"name":"G4","ticks":87840,"time":45.75,"velocity":1},{"duration":0.25,"durationTicks":480,"midi":57,"name":"A3","ticks":88320,"time":46,"velocity":1},{"duration":0.25,"durationTicks":480,"midi":62,"name":"D4","ticks":88800,"time":46.25,"velocity":1},{"duration":0.25,"durationTicks":480,"midi":66,"name":"F#4","ticks":89280,"time":46.5,"velocity":1},{"duration":0.25,"durationTicks":480,"midi":62,"name":"D4","ticks":89760,"time":46.75,"velocity":1},{"duration":0.25,"durationTicks":480,"midi":59,"name":"B3","ticks":90240,"time":47,"velocity":1},{"duration":0.25,"durationTicks":480,"midi":62,"name":"D4","ticks":90720,"time":47.25,"velocity":1},{"duration":0.25,"durationTicks":480,"midi":66,"name":"F#4","ticks":91200,"time":47.5,"velocity":1},{"duration":0.25,"durationTicks":480,"midi":62,"name":"D4","ticks":91680,"time":47.75,"velocity":1},{"duration":0.25,"durationTicks":480,"midi":57,"name":"A3","ticks":92160,"time":48,"velocity":1},{"duration":0.25,"durationTicks":480,"midi":62,"name":"D4","ticks":92640,"time":48.25,"velocity":1},{"duration":0.25,"durationTicks":480,"midi":66,"name":"F#4","ticks":93120,"time":48.5,"velocity":1},{"duration":0.25,"durationTicks":480,"midi":62,"name":"D4","ticks":93600,"time":48.75,"velocity":1},{"duration":0.25,"durationTicks":480,"midi":59,"name":"B3","ticks":94080,"time":49,"velocity":1},{"duration":0.25,"durationTicks":480,"midi":62,"name":"D4","ticks":94560,"time":49.25,"velocity":1},{"duration":0.25,"durationTicks":480,"midi":66,"name":"F#4","ticks":95040,"time":49.5,"velocity":1},{"duration":0.25,"durationTicks":480,"midi":62,"name":"D4","ticks":95520,"time":49.75,"velocity":1},{"duration":0.25,"durationTicks":480,"midi":57,"name":"A3","ticks":96000,"time":50,"velocity":1},{"duration":0.25,"durationTicks":480,"midi":62,"name":"D4","ticks":96480,"time":50.25,"velocity":1},{"duration":0.25,"durationTicks":480,"midi":66,"name":"F#4","ticks":96960,"time":50.5,"velocity":1},{"duration":0.25,"durationTicks":480,"midi":62,"name":"D4","ticks":97440,"time":50.75,"velocity":1},{"duration":0.25,"durationTicks":480,"midi":59,"name":"B3","ticks":97920,"time":51,"velocity":1},{"duration":0.25,"durationTicks":480,"midi":62,"name":"D4","ticks":98400,"time":51.25,"velocity":1},{"duration":0.25,"durationTicks":480,"midi":66,"name":"F#4","ticks":98880,"time":51.5,"velocity":1},{"duration":0.25,"durationTicks":480,"midi":62,"name":"D4","ticks":99360,"time":51.75,"velocity":1},{"duration":0.25,"durationTicks":480,"midi":57,"name":"A3","ticks":99840,"time":52,"velocity":1},{"duration":0.25,"durationTicks":480,"midi":62,"name":"D4","ticks":100320,"time":52.25,"velocity":1},{"duration":0.25,"durationTicks":480,"midi":66,"name":"F#4","ticks":100800,"time":52.5,"velocity":1},{"duration":0.25,"durationTicks":480,"midi":62,"name":"D4","ticks":101280,"time":52.75,"velocity":1},{"duration":0.25,"durationTicks":480,"midi":59,"name":"B3","ticks":101760,"time":53,"velocity":1},{"duration":0.25,"durationTicks":480,"midi":62,"name":"D4","ticks":102240,"time":53.25,"velocity":1},{"duration":0.25,"durationTicks":480,"midi":66,"name":"F#4","ticks":102720,"time":53.5,"velocity":1},{"duration":0.25,"durationTicks":480,"midi":62,"name":"D4","ticks":103200,"time":53.75,"velocity":1},{"duration":0.25,"durationTicks":480,"midi":57,"name":"A3","ticks":103680,"time":54,"velocity":1},{"duration":0.25,"durationTicks":480,"midi":62,"name":"D4","ticks":104160,"time":54.25,"velocity":1},{"duration":0.25,"durationTicks":480,"midi":66,"name":"F#4","ticks":104640,"time":54.5,"velocity":1},{"duration":0.25,"durationTicks":480,"midi":62,"name":"D4","ticks":105120,"time":54.75,"velocity":1},{"duration":0.25,"durationTicks":480,"midi":59,"name":"B3","ticks":105600,"time":55,"velocity":1},{"duration":0.25,"durationTicks":480,"midi":62,"name":"D4","ticks":106080,"time":55.25,"velocity":1},{"duration":0.25,"durationTicks":480,"midi":66,"name":"F#4","ticks":106560,"time":55.5,"velocity":1},{"duration":0.25,"durationTicks":480,"midi":62,"name":"D4","ticks":107040,"time":55.75,"velocity":1},{"duration":0.25,"durationTicks":480,"midi":57,"name":"A3","ticks":107520,"time":56,"velocity":1},{"duration":0.25,"durationTicks":480,"midi":62,"name":"D4","ticks":108000,"time":56.25,"velocity":1},{"duration":0.25,"durationTicks":480,"midi":66,"name":"F#4","ticks":108480,"time":56.5,"velocity":1},{"duration":0.25,"durationTicks":480,"midi":62,"name":"D4","ticks":108960,"time":56.75,"velocity":1},{"duration":0.25,"durationTicks":480,"midi":59,"name":"B3","ticks":109440,"time":57,"velocity":1},{"duration":0.25,"durationTicks":480,"midi":62,"name":"D4","ticks":109920,"time":57.25,"velocity":1},{"duration":0.25,"durationTicks":480,"midi":66,"name":"F#4","ticks":110400,"time":57.5,"velocity":1},{"duration":0.25,"durationTicks":480,"midi":62,"name":"D4","ticks":110880,"time":57.75,"velocity":1},{"duration":0.25,"durationTicks":480,"midi":57,"name":"A3","ticks":111360,"time":58,"velocity":1},{"duration":0.25,"durationTicks":480,"midi":62,"name":"D4","ticks":111840,"time":58.25,"velocity":1},{"duration":0.25,"durationTicks":480,"midi":66,"name":"F#4","ticks":112320,"time":58.5,"velocity":1},{"duration":0.25,"durationTicks":480,"midi":62,"name":"D4","ticks":112800,"time":58.75,"velocity":1},{"duration":0.25,"durationTicks":480,"midi":59,"name":"B3","ticks":113280,"time":59,"velocity":1},{"duration":0.25,"durationTicks":480,"midi":62,"name":"D4","ticks":113760,"time":59.25,"velocity":1},{"duration":0.25,"durationTicks":480,"midi":66,"name":"F#4","ticks":114240,"time":59.5,"velocity":1},{"duration":0.25,"durationTicks":480,"midi":62,"name":"D4","ticks":114720,"time":59.75,"velocity":1},{"duration":0.25,"durationTicks":480,"midi":57,"name":"A3","ticks":115200,"time":60,"velocity":1},{"duration":0.25,"durationTicks":480,"midi":62,"name":"D4","ticks":115680,"time":60.25,"velocity":1},{"duration":0.25,"durationTicks":480,"midi":66,"name":"F#4","ticks":116160,"time":60.5,"velocity":1},{"duration":0.25,"durationTicks":480,"midi":62,"name":"D4","ticks":116640,"time":60.75,"velocity":1},{"duration":0.25,"durationTicks":480,"midi":59,"name":"B3","ticks":117120,"time":61,"velocity":1},{"duration":0.25,"durationTicks":480,"midi":62,"name":"D4","ticks":117600,"time":61.25,"velocity":1},{"duration":0.25,"durationTicks":480,"midi":66,"name":"F#4","ticks":118080,"time":61.5,"velocity":1},{"duration":0.25,"durationTicks":480,"midi":62,"name":"D4","ticks":118560,"time":61.75,"velocity":1},{"duration":0.25,"durationTicks":480,"midi":59,"name":"B3","ticks":119040,"time":62,"velocity":1},{"duration":0.25,"durationTicks":480,"midi":64,"name":"E4","ticks":119520,"time":62.25,"velocity":1},{"duration":0.25,"durationTicks":480,"midi":67,"name":"G4","ticks":120000,"time":62.5,"velocity":1},{"duration":0.25,"durationTicks":480,"midi":64,"name":"E4","ticks":120480,"time":62.75,"velocity":1},{"duration":0.25,"durationTicks":480,"midi":59,"name":"B3","ticks":120960,"time":63,"velocity":1},{"duration":0.25,"durationTicks":480,"midi":64,"name":"E4","ticks":121440,"time":63.25,"velocity":1},{"duration":0.25,"durationTicks":480,"midi":67,"name":"G4","ticks":121920,"time":63.5,"velocity":1},{"duration":0.25,"durationTicks":480,"midi":64,"name":"E4","ticks":122400,"time":63.75,"velocity":1},{"duration":0.25,"durationTicks":480,"midi":57,"name":"A3","ticks":122880,"time":64,"velocity":1},{"duration":0.25,"durationTicks":480,"midi":61,"name":"C#4","ticks":123360,"time":64.25,"velocity":1},{"duration":0.25,"durationTicks":480,"midi":67,"name":"G4","ticks":123840,"time":64.5,"velocity":1},{"duration":0.25,"durationTicks":480,"midi":61,"name":"C#4","ticks":124320,"time":64.75,"velocity":1},{"duration":0.25,"durationTicks":480,"midi":57,"name":"A3","ticks":124800,"time":65,"velocity":1},{"duration":0.25,"durationTicks":480,"midi":61,"name":"C#4","ticks":125280,"time":65.25,"velocity":1},{"duration":0.25,"durationTicks":480,"midi":67,"name":"G4","ticks":125760,"time":65.5,"velocity":1},{"duration":0.25,"durationTicks":480,"midi":61,"name":"C#4","ticks":126240,"time":65.75,"velocity":1},{"duration":0.25,"durationTicks":480,"midi":57,"name":"A3","ticks":126720,"time":66,"velocity":1},{"duration":0.25,"durationTicks":480,"midi":62,"name":"D4","ticks":127200,"time":66.25,"velocity":1},{"duration":0.25,"durationTicks":480,"midi":66,"name":"F#4","ticks":127680,"time":66.5,"velocity":1},{"duration":0.25,"durationTicks":480,"midi":62,"name":"D4","ticks":128160,"time":66.75,"velocity":1},{"duration":0.25,"durationTicks":480,"midi":59,"name":"B3","ticks":128640,"time":67,"velocity":1},{"duration":0.25,"durationTicks":480,"midi":62,"name":"D4","ticks":129120,"time":67.25,"velocity":1},{"duration":0.25,"durationTicks":480,"midi":66,"name":"F#4","ticks":129600,"time":67.5,"velocity":1},{"duration":0.25,"durationTicks":480,"midi":62,"name":"D4","ticks":130080,"time":67.75,"velocity":1},{"duration":0.25,"durationTicks":480,"midi":57,"name":"A3","ticks":130560,"time":68,"velocity":1},{"duration":0.25,"durationTicks":480,"midi":62,"name":"D4","ticks":131040,"time":68.25,"velocity":1},{"duration":0.25,"durationTicks":480,"midi":66,"name":"F#4","ticks":131520,"time":68.5,"velocity":1},{"duration":0.25,"durationTicks":480,"midi":62,"name":"D4","ticks":132000,"time":68.75,"velocity":1},{"duration":0.25,"durationTicks":480,"midi":59,"name":"B3","ticks":132480,"time":69,"velocity":1},{"duration":0.25,"durationTicks":480,"midi":62,"name":"D4","ticks":132960,"time":69.25,"velocity":1},{"duration":0.25,"durationTicks":480,"midi":66,"name":"F#4","ticks":133440,"time":69.5,"velocity":1},{"duration":0.25,"durationTicks":480,"midi":62,"name":"D4","ticks":133920,"time":69.75,"velocity":1},{"duration":0.25,"durationTicks":480,"midi":57,"name":"A3","ticks":134400,"time":70,"velocity":1},{"duration":0.25,"durationTicks":480,"midi":62,"name":"D4","ticks":134880,"time":70.25,"velocity":1},{"duration":0.25,"durationTicks":480,"midi":66,"name":"F#4","ticks":135360,"time":70.5,"velocity":1},{"duration":0.25,"durationTicks":480,"midi":62,"name":"D4","ticks":135840,"time":70.75,"velocity":1},{"duration":0.25,"durationTicks":480,"midi":59,"name":"B3","ticks":136320,"time":71,"velocity":1},{"duration":0.25,"durationTicks":480,"midi":62,"name":"D4","ticks":136800,"time":71.25,"velocity":1},{"duration":0.25,"durationTicks":480,"midi":66,"name":"F#4","ticks":137280,"time":71.5,"velocity":1},{"duration":0.25,"durationTicks":480,"midi":62,"name":"D4","ticks":137760,"time":71.75,"velocity":1},{"duration":0.25,"durationTicks":480,"midi":57,"name":"A3","ticks":138240,"time":72,"velocity":1},{"duration":0.25,"durationTicks":480,"midi":62,"name":"D4","ticks":138720,"time":72.25,"velocity":1},{"duration":0.25,"durationTicks":480,"midi":66,"name":"F#4","ticks":139200,"time":72.5,"velocity":1},{"duration":0.25,"durationTicks":480,"midi":62,"name":"D4","ticks":139680,"time":72.75,"velocity":1},{"duration":0.25,"durationTicks":480,"midi":59,"name":"B3","ticks":140160,"time":73,"velocity":1},{"duration":0.25,"durationTicks":480,"midi":62,"name":"D4","ticks":140640,"time":73.25,"velocity":1},{"duration":0.25,"durationTicks":480,"midi":66,"name":"F#4","ticks":141120,"time":73.5,"velocity":1},{"duration":0.25,"durationTicks":480,"midi":62,"name":"D4","ticks":141600,"time":73.75,"velocity":1},{"duration":0.25,"durationTicks":480,"midi":57,"name":"A3","ticks":142080,"time":74,"velocity":1},{"duration":0.25,"durationTicks":480,"midi":62,"name":"D4","ticks":142560,"time":74.25,"velocity":1},{"duration":0.25,"durationTicks":480,"midi":66,"name":"F#4","ticks":143040,"time":74.5,"velocity":1},{"duration":0.25,"durationTicks":480,"midi":62,"name":"D4","ticks":143520,"time":74.75,"velocity":1},{"duration":0.25,"durationTicks":480,"midi":59,"name":"B3","ticks":144000,"time":75,"velocity":1},{"duration":0.25,"durationTicks":480,"midi":62,"name":"D4","ticks":144480,"time":75.25,"velocity":1},{"duration":0.25,"durationTicks":480,"midi":66,"name":"F#4","ticks":144960,"time":75.5,"velocity":1},{"duration":0.25,"durationTicks":480,"midi":62,"name":"D4","ticks":145440,"time":75.75,"velocity":1},{"duration":0.25,"durationTicks":480,"midi":57,"name":"A3","ticks":145920,"time":76,"velocity":1},{"duration":0.25,"durationTicks":480,"midi":62,"name":"D4","ticks":146400,"time":76.25,"velocity":1},{"duration":0.25,"durationTicks":480,"midi":66,"name":"F#4","ticks":146880,"time":76.5,"velocity":1},{"duration":0.25,"durationTicks":480,"midi":62,"name":"D4","ticks":147360,"time":76.75,"velocity":1},{"duration":0.25,"durationTicks":480,"midi":59,"name":"B3","ticks":147840,"time":77,"velocity":1},{"duration":0.25,"durationTicks":480,"midi":62,"name":"D4","ticks":148320,"time":77.25,"velocity":1},{"duration":0.25,"durationTicks":480,"midi":66,"name":"F#4","ticks":148800,"time":77.5,"velocity":1},{"duration":0.25,"durationTicks":480,"midi":62,"name":"D4","ticks":149280,"time":77.75,"velocity":1},{"duration":0.25,"durationTicks":480,"midi":59,"name":"B3","ticks":149760,"time":78,"velocity":1},{"duration":0.25,"durationTicks":480,"midi":64,"name":"E4","ticks":150240,"time":78.25,"velocity":1},{"duration":0.25,"durationTicks":480,"midi":67,"name":"G4","ticks":150720,"time":78.5,"velocity":1},{"duration":0.25,"durationTicks":480,"midi":64,"name":"E4","ticks":151200,"time":78.75,"velocity":1},{"duration":0.25,"durationTicks":480,"midi":59,"name":"B3","ticks":151680,"time":79,"velocity":1},{"duration":0.25,"durationTicks":480,"midi":64,"name":"E4","ticks":152160,"time":79.25,"velocity":1},{"duration":0.25,"durationTicks":480,"midi":67,"name":"G4","ticks":152640,"time":79.5,"velocity":1},{"duration":0.25,"durationTicks":480,"midi":64,"name":"E4","ticks":153120,"time":79.75,"velocity":1},{"duration":0.25,"durationTicks":480,"midi":57,"name":"A3","ticks":153600,"time":80,"velocity":1},{"duration":0.25,"durationTicks":480,"midi":61,"name":"C#4","ticks":154080,"time":80.25,"velocity":1},{"duration":0.25,"durationTicks":480,"midi":67,"name":"G4","ticks":154560,"time":80.5,"velocity":1},{"duration":0.25,"durationTicks":480,"midi":61,"name":"C#4","ticks":155040,"time":80.75,"velocity":1},{"duration":0.25,"durationTicks":480,"midi":57,"name":"A3","ticks":155520,"time":81,"velocity":1},{"duration":0.25,"durationTicks":480,"midi":61,"name":"C#4","ticks":156000,"time":81.25,"velocity":1},{"duration":0.25,"durationTicks":480,"midi":67,"name":"G4","ticks":156480,"time":81.5,"velocity":1},{"duration":0.25,"durationTicks":480,"midi":61,"name":"C#4","ticks":156960,"time":81.75,"velocity":1},{"duration":0.25,"durationTicks":480,"midi":58,"name":"A#3","ticks":157440,"time":82,"velocity":1},{"duration":0.25,"durationTicks":480,"midi":62,"name":"D4","ticks":157920,"time":82.25,"velocity":1},{"duration":0.25,"durationTicks":480,"midi":69,"name":"A4","ticks":158400,"time":82.5,"velocity":1},{"duration":0.25,"durationTicks":480,"midi":65,"name":"F4","ticks":158880,"time":82.75,"velocity":1},{"duration":0.25,"durationTicks":480,"midi":69,"name":"A4","ticks":159360,"time":83,"velocity":1},{"duration":0.25,"durationTicks":480,"midi":65,"name":"F4","ticks":159840,"time":83.25,"velocity":1},{"duration":0.25,"durationTicks":480,"midi":69,"name":"A4","ticks":160320,"time":83.5,"velocity":1},{"duration":0.25,"durationTicks":480,"midi":65,"name":"F4","ticks":160800,"time":83.75,"velocity":1},{"duration":0.25,"durationTicks":480,"midi":60,"name":"C4","ticks":161280,"time":84,"velocity":1},{"duration":0.25,"durationTicks":480,"midi":65,"name":"F4","ticks":161280,"time":84,"velocity":1},{"duration":0.25,"durationTicks":480,"midi":69,"name":"A4","ticks":161760,"time":84.25,"velocity":1},{"duration":0.25,"durationTicks":480,"midi":60,"name":"C4","ticks":162240,"time":84.5,"velocity":1},{"duration":0.25,"durationTicks":480,"midi":65,"name":"F4","ticks":162240,"time":84.5,"velocity":1},{"duration":0.25,"durationTicks":480,"midi":60,"name":"C4","ticks":163200,"time":85,"velocity":1},{"duration":0.25,"durationTicks":480,"midi":64,"name":"E4","ticks":163200,"time":85,"velocity":1},{"duration":0.25,"durationTicks":480,"midi":67,"name":"G4","ticks":163680,"time":85.25,"velocity":1},{"duration":0.25,"durationTicks":480,"midi":60,"name":"C4","ticks":164160,"time":85.5,"velocity":1},{"duration":0.25,"durationTicks":480,"midi":64,"name":"E4","ticks":164160,"time":85.5,"velocity":1},{"duration":0.25,"durationTicks":480,"midi":58,"name":"A#3","ticks":165120,"time":86,"velocity":1},{"duration":0.25,"durationTicks":480,"midi":62,"name":"D4","ticks":165120,"time":86,"velocity":1},{"duration":0.25,"durationTicks":480,"midi":70,"name":"A#4","ticks":165600,"time":86.25,"velocity":1},{"duration":0.25,"durationTicks":480,"midi":58,"name":"A#3","ticks":166080,"time":86.5,"velocity":1},{"duration":0.25,"durationTicks":480,"midi":62,"name":"D4","ticks":166080,"time":86.5,"velocity":1},{"duration":0.25,"durationTicks":480,"midi":64,"name":"E4","ticks":166560,"time":86.75,"velocity":1},{"duration":0.25,"durationTicks":480,"midi":60,"name":"C4","ticks":167040,"time":87,"velocity":1},{"duration":0.25,"durationTicks":480,"midi":65,"name":"F4","ticks":167040,"time":87,"velocity":1},{"duration":0.25,"durationTicks":480,"midi":69,"name":"A4","ticks":167520,"time":87.25,"velocity":1},{"duration":0.25,"durationTicks":480,"midi":60,"name":"C4","ticks":168000,"time":87.5,"velocity":1},{"duration":0.25,"durationTicks":480,"midi":65,"name":"F4","ticks":168000,"time":87.5,"velocity":1},{"duration":0.25,"durationTicks":480,"midi":60,"name":"C4","ticks":168960,"time":88,"velocity":1},{"duration":0.25,"durationTicks":480,"midi":65,"name":"F4","ticks":168960,"time":88,"velocity":1},{"duration":0.25,"durationTicks":480,"midi":69,"name":"A4","ticks":169440,"time":88.25,"velocity":1},{"duration":0.25,"durationTicks":480,"midi":60,"name":"C4","ticks":169920,"time":88.5,"velocity":1},{"duration":0.25,"durationTicks":480,"midi":65,"name":"F4","ticks":169920,"time":88.5,"velocity":1},{"duration":0.25,"durationTicks":480,"midi":60,"name":"C4","ticks":170880,"time":89,"velocity":1},{"duration":0.25,"durationTicks":480,"midi":64,"name":"E4","ticks":170880,"time":89,"velocity":1},{"duration":0.25,"durationTicks":480,"midi":67,"name":"G4","ticks":171360,"time":89.25,"velocity":1},{"duration":0.25,"durationTicks":480,"midi":60,"name":"C4","ticks":171840,"time":89.5,"velocity":1},{"duration":0.25,"durationTicks":480,"midi":64,"name":"E4","ticks":171840,"time":89.5,"velocity":1},{"duration":0.25,"durationTicks":480,"midi":58,"name":"A#3","ticks":172800,"time":90,"velocity":1},{"duration":0.25,"durationTicks":480,"midi":62,"name":"D4","ticks":172800,"time":90,"velocity":1},{"duration":0.25,"durationTicks":480,"midi":70,"name":"A#4","ticks":173280,"time":90.25,"velocity":1},{"duration":0.25,"durationTicks":480,"midi":58,"name":"A#3","ticks":173760,"time":90.5,"velocity":1},{"duration":0.25,"durationTicks":480,"midi":62,"name":"D4","ticks":173760,"time":90.5,"velocity":1},{"duration":0.25,"durationTicks":480,"midi":64,"name":"E4","ticks":174240,"time":90.75,"velocity":1},{"duration":0.25,"durationTicks":480,"midi":60,"name":"C4","ticks":174720,"time":91,"velocity":1},{"duration":0.25,"durationTicks":480,"midi":65,"name":"F4","ticks":174720,"time":91,"velocity":1},{"duration":0.25,"durationTicks":480,"midi":69,"name":"A4","ticks":175200,"time":91.25,"velocity":1},{"duration":0.25,"durationTicks":480,"midi":60,"name":"C4","ticks":175680,"time":91.5,"velocity":1},{"duration":0.25,"durationTicks":480,"midi":65,"name":"F4","ticks":175680,"time":91.5,"velocity":1},{"duration":0.25,"durationTicks":480,"midi":58,"name":"A#3","ticks":176640,"time":92,"velocity":1},{"duration":0.25,"durationTicks":480,"midi":62,"name":"D4","ticks":176640,"time":92,"velocity":1},{"duration":0.25,"durationTicks":480,"midi":67,"name":"G4","ticks":177120,"time":92.25,"velocity":1},{"duration":0.25,"durationTicks":480,"midi":58,"name":"A#3","ticks":177600,"time":92.5,"velocity":1},{"duration":0.25,"durationTicks":480,"midi":62,"name":"D4","ticks":177600,"time":92.5,"velocity":1},{"duration":0.25,"durationTicks":480,"midi":67,"name":"G4","ticks":178080,"time":92.75,"velocity":1},{"duration":0.25,"durationTicks":480,"midi":60,"name":"C4","ticks":178560,"time":93,"velocity":1},{"duration":0.25,"durationTicks":480,"midi":64,"name":"E4","ticks":178560,"time":93,"velocity":1},{"duration":0.25,"durationTicks":480,"midi":67,"name":"G4","ticks":179040,"time":93.25,"velocity":1},{"duration":0.25,"durationTicks":480,"midi":60,"name":"C4","ticks":179520,"time":93.5,"velocity":1},{"duration":0.25,"durationTicks":480,"midi":64,"name":"E4","ticks":179520,"time":93.5,"velocity":1},{"duration":0.25,"durationTicks":480,"midi":67,"name":"G4","ticks":180000,"time":93.75,"velocity":1},{"duration":0.25,"durationTicks":480,"midi":60,"name":"C4","ticks":180480,"time":94,"velocity":1},{"duration":0.25,"durationTicks":480,"midi":65,"name":"F4","ticks":180480,"time":94,"velocity":1},{"duration":0.25,"durationTicks":480,"midi":69,"name":"A4","ticks":180960,"time":94.25,"velocity":1},{"duration":0.25,"durationTicks":480,"midi":60,"name":"C4","ticks":181440,"time":94.5,"velocity":1},{"duration":0.25,"durationTicks":480,"midi":65,"name":"F4","ticks":181440,"time":94.5,"velocity":1},{"duration":0.25,"durationTicks":480,"midi":69,"name":"A4","ticks":181920,"time":94.75,"velocity":1},{"duration":0.25,"durationTicks":480,"midi":62,"name":"D4","ticks":182400,"time":95,"velocity":1},{"duration":0.25,"durationTicks":480,"midi":65,"name":"F4","ticks":182400,"time":95,"velocity":1},{"duration":0.25,"durationTicks":480,"midi":69,"name":"A4","ticks":182880,"time":95.25,"velocity":1},{"duration":0.25,"durationTicks":480,"midi":62,"name":"D4","ticks":183360,"time":95.5,"velocity":1},{"duration":0.25,"durationTicks":480,"midi":65,"name":"F4","ticks":183360,"time":95.5,"velocity":1},{"duration":0.25,"durationTicks":480,"midi":69,"name":"A4","ticks":183840,"time":95.75,"velocity":1},{"duration":0.25,"durationTicks":480,"midi":58,"name":"A#3","ticks":184320,"time":96,"velocity":1},{"duration":0.25,"durationTicks":480,"midi":62,"name":"D4","ticks":184320,"time":96,"velocity":1},{"duration":0.25,"durationTicks":480,"midi":67,"name":"G4","ticks":184800,"time":96.25,"velocity":1},{"duration":0.25,"durationTicks":480,"midi":58,"name":"A#3","ticks":185280,"time":96.5,"velocity":1},{"duration":0.25,"durationTicks":480,"midi":62,"name":"D4","ticks":185280,"time":96.5,"velocity":1},{"duration":0.25,"durationTicks":480,"midi":67,"name":"G4","ticks":185760,"time":96.75,"velocity":1},{"duration":0.25,"durationTicks":480,"midi":57,"name":"A3","ticks":186240,"time":97,"velocity":1},{"duration":0.25,"durationTicks":480,"midi":61,"name":"C#4","ticks":186240,"time":97,"velocity":1},{"duration":0.25,"durationTicks":480,"midi":67,"name":"G4","ticks":186720,"time":97.25,"velocity":1},{"duration":0.25,"durationTicks":480,"midi":57,"name":"A3","ticks":187200,"time":97.5,"velocity":1},{"duration":0.25,"durationTicks":480,"midi":61,"name":"C#4","ticks":187200,"time":97.5,"velocity":1},{"duration":0.25,"durationTicks":480,"midi":67,"name":"G4","ticks":187680,"time":97.75,"velocity":1},{"duration":0.25,"durationTicks":480,"midi":57,"name":"A3","ticks":188160,"time":98,"velocity":1},{"duration":0.25,"durationTicks":480,"midi":62,"name":"D4","ticks":188640,"time":98.25,"velocity":1},{"duration":0.25,"durationTicks":480,"midi":66,"name":"F#4","ticks":189120,"time":98.5,"velocity":1},{"duration":0.25,"durationTicks":480,"midi":62,"name":"D4","ticks":189600,"time":98.75,"velocity":1},{"duration":0.25,"durationTicks":480,"midi":59,"name":"B3","ticks":190080,"time":99,"velocity":1},{"duration":0.25,"durationTicks":480,"midi":62,"name":"D4","ticks":190560,"time":99.25,"velocity":1},{"duration":0.25,"durationTicks":480,"midi":66,"name":"F#4","ticks":191040,"time":99.5,"velocity":1},{"duration":0.25,"durationTicks":480,"midi":62,"name":"D4","ticks":191520,"time":99.75,"velocity":1},{"duration":0.25,"durationTicks":480,"midi":57,"name":"A3","ticks":192000,"time":100,"velocity":1},{"duration":0.25,"durationTicks":480,"midi":62,"name":"D4","ticks":192480,"time":100.25,"velocity":1},{"duration":0.25,"durationTicks":480,"midi":66,"name":"F#4","ticks":192960,"time":100.5,"velocity":1},{"duration":0.25,"durationTicks":480,"midi":62,"name":"D4","ticks":193440,"time":100.75,"velocity":1},{"duration":0.25,"durationTicks":480,"midi":59,"name":"B3","ticks":193920,"time":101,"velocity":1},{"duration":0.25,"durationTicks":480,"midi":62,"name":"D4","ticks":194400,"time":101.25,"velocity":1},{"duration":0.25,"durationTicks":480,"midi":66,"name":"F#4","ticks":194880,"time":101.5,"velocity":1},{"duration":0.25,"durationTicks":480,"midi":62,"name":"D4","ticks":195360,"time":101.75,"velocity":1},{"duration":0.25,"durationTicks":480,"midi":57,"name":"A3","ticks":195840,"time":102,"velocity":1},{"duration":0.25,"durationTicks":480,"midi":62,"name":"D4","ticks":196320,"time":102.25,"velocity":1},{"duration":0.25,"durationTicks":480,"midi":66,"name":"F#4","ticks":196800,"time":102.5,"velocity":1},{"duration":0.25,"durationTicks":480,"midi":62,"name":"D4","ticks":197280,"time":102.75,"velocity":1},{"duration":0.25,"durationTicks":480,"midi":59,"name":"B3","ticks":197760,"time":103,"velocity":1},{"duration":0.25,"durationTicks":480,"midi":62,"name":"D4","ticks":198240,"time":103.25,"velocity":1},{"duration":0.25,"durationTicks":480,"midi":66,"name":"F#4","ticks":198720,"time":103.5,"velocity":1},{"duration":0.25,"durationTicks":480,"midi":62,"name":"D4","ticks":199200,"time":103.75,"velocity":1},{"duration":0.25,"durationTicks":480,"midi":57,"name":"A3","ticks":199680,"time":104,"velocity":1},{"duration":0.25,"durationTicks":480,"midi":62,"name":"D4","ticks":200160,"time":104.25,"velocity":1},{"duration":0.25,"durationTicks":480,"midi":66,"name":"F#4","ticks":200640,"time":104.5,"velocity":1},{"duration":0.25,"durationTicks":480,"midi":62,"name":"D4","ticks":201120,"time":104.75,"velocity":1},{"duration":0.25,"durationTicks":480,"midi":59,"name":"B3","ticks":201600,"time":105,"velocity":1},{"duration":0.25,"durationTicks":480,"midi":62,"name":"D4","ticks":202080,"time":105.25,"velocity":1},{"duration":0.25,"durationTicks":480,"midi":66,"name":"F#4","ticks":202560,"time":105.5,"velocity":1},{"duration":0.25,"durationTicks":480,"midi":62,"name":"D4","ticks":203040,"time":105.75,"velocity":1},{"duration":0.25,"durationTicks":480,"midi":57,"name":"A3","ticks":203520,"time":106,"velocity":1},{"duration":0.25,"durationTicks":480,"midi":62,"name":"D4","ticks":204000,"time":106.25,"velocity":1},{"duration":0.25,"durationTicks":480,"midi":66,"name":"F#4","ticks":204480,"time":106.5,"velocity":1},{"duration":0.25,"durationTicks":480,"midi":62,"name":"D4","ticks":204960,"time":106.75,"velocity":1},{"duration":0.25,"durationTicks":480,"midi":59,"name":"B3","ticks":205440,"time":107,"velocity":1},{"duration":0.25,"durationTicks":480,"midi":62,"name":"D4","ticks":205920,"time":107.25,"velocity":1},{"duration":0.25,"durationTicks":480,"midi":66,"name":"F#4","ticks":206400,"time":107.5,"velocity":1},{"duration":0.25,"durationTicks":480,"midi":62,"name":"D4","ticks":206880,"time":107.75,"velocity":1},{"duration":0.25,"durationTicks":480,"midi":57,"name":"A3","ticks":207360,"time":108,"velocity":1},{"duration":0.25,"durationTicks":480,"midi":62,"name":"D4","ticks":207840,"time":108.25,"velocity":1},{"duration":0.25,"durationTicks":480,"midi":66,"name":"F#4","ticks":208320,"time":108.5,"velocity":1},{"duration":0.25,"durationTicks":480,"midi":62,"name":"D4","ticks":208800,"time":108.75,"velocity":1},{"duration":0.25,"durationTicks":480,"midi":59,"name":"B3","ticks":209280,"time":109,"velocity":1},{"duration":0.25,"durationTicks":480,"midi":62,"name":"D4","ticks":209760,"time":109.25,"velocity":1},{"duration":0.25,"durationTicks":480,"midi":66,"name":"F#4","ticks":210240,"time":109.5,"velocity":1},{"duration":0.25,"durationTicks":480,"midi":62,"name":"D4","ticks":210720,"time":109.75,"velocity":1},{"duration":0.25,"durationTicks":480,"midi":57,"name":"A3","ticks":211200,"time":110,"velocity":1},{"duration":0.25,"durationTicks":480,"midi":62,"name":"D4","ticks":211680,"time":110.25,"velocity":1},{"duration":0.25,"durationTicks":480,"midi":66,"name":"F#4","ticks":212160,"time":110.5,"velocity":1},{"duration":0.25,"durationTicks":480,"midi":62,"name":"D4","ticks":212640,"time":110.75,"velocity":1},{"duration":0.25,"durationTicks":480,"midi":59,"name":"B3","ticks":213120,"time":111,"velocity":1},{"duration":0.25,"durationTicks":480,"midi":62,"name":"D4","ticks":213600,"time":111.25,"velocity":1},{"duration":0.25,"durationTicks":480,"midi":66,"name":"F#4","ticks":214080,"time":111.5,"velocity":1},{"duration":0.25,"durationTicks":480,"midi":62,"name":"D4","ticks":214560,"time":111.75,"velocity":1},{"duration":0.25,"durationTicks":480,"midi":57,"name":"A3","ticks":215040,"time":112,"velocity":1},{"duration":0.25,"durationTicks":480,"midi":62,"name":"D4","ticks":215520,"time":112.25,"velocity":1},{"duration":0.25,"durationTicks":480,"midi":66,"name":"F#4","ticks":216000,"time":112.5,"velocity":1},{"duration":0.25,"durationTicks":480,"midi":62,"name":"D4","ticks":216480,"time":112.75,"velocity":1},{"duration":0.25,"durationTicks":480,"midi":59,"name":"B3","ticks":216960,"time":113,"velocity":1},{"duration":0.25,"durationTicks":480,"midi":62,"name":"D4","ticks":217440,"time":113.25,"velocity":1},{"duration":0.25,"durationTicks":480,"midi":66,"name":"F#4","ticks":217920,"time":113.5,"velocity":1},{"duration":0.25,"durationTicks":480,"midi":62,"name":"D4","ticks":218400,"time":113.75,"velocity":1},{"duration":0.25,"durationTicks":480,"midi":59,"name":"B3","ticks":218880,"time":114,"velocity":1},{"duration":0.25,"durationTicks":480,"midi":64,"name":"E4","ticks":219360,"time":114.25,"velocity":1},{"duration":0.25,"durationTicks":480,"midi":67,"name":"G4","ticks":219840,"time":114.5,"velocity":1},{"duration":0.25,"durationTicks":480,"midi":64,"name":"E4","ticks":220320,"time":114.75,"velocity":1},{"duration":0.25,"durationTicks":480,"midi":59,"name":"B3","ticks":220800,"time":115,"velocity":1},{"duration":0.25,"durationTicks":480,"midi":64,"name":"E4","ticks":221280,"time":115.25,"velocity":1},{"duration":0.25,"durationTicks":480,"midi":67,"name":"G4","ticks":221760,"time":115.5,"velocity":1},{"duration":0.25,"durationTicks":480,"midi":64,"name":"E4","ticks":222240,"time":115.75,"velocity":1},{"duration":0.25,"durationTicks":480,"midi":57,"name":"A3","ticks":222720,"time":116,"velocity":1},{"duration":0.25,"durationTicks":480,"midi":61,"name":"C#4","ticks":223200,"time":116.25,"velocity":1},{"duration":0.25,"durationTicks":480,"midi":67,"name":"G4","ticks":223680,"time":116.5,"velocity":1},{"duration":0.25,"durationTicks":480,"midi":61,"name":"C#4","ticks":224160,"time":116.75,"velocity":1},{"duration":0.25,"durationTicks":480,"midi":57,"name":"A3","ticks":224640,"time":117,"velocity":1},{"duration":0.25,"durationTicks":480,"midi":61,"name":"C#4","ticks":225120,"time":117.25,"velocity":1},{"duration":0.25,"durationTicks":480,"midi":67,"name":"G4","ticks":225600,"time":117.5,"velocity":1},{"duration":0.25,"durationTicks":480,"midi":61,"name":"C#4","ticks":226080,"time":117.75,"velocity":1},{"duration":0.25,"durationTicks":480,"midi":57,"name":"A3","ticks":226560,"time":118,"velocity":1},{"duration":0.25,"durationTicks":480,"midi":62,"name":"D4","ticks":227040,"time":118.25,"velocity":1},{"duration":0.25,"durationTicks":480,"midi":66,"name":"F#4","ticks":227520,"time":118.5,"velocity":1},{"duration":0.25,"durationTicks":480,"midi":62,"name":"D4","ticks":228000,"time":118.75,"velocity":1},{"duration":0.25,"durationTicks":480,"midi":59,"name":"B3","ticks":228480,"time":119,"velocity":1},{"duration":0.25,"durationTicks":480,"midi":62,"name":"D4","ticks":228960,"time":119.25,"velocity":1},{"duration":0.25,"durationTicks":480,"midi":66,"name":"F#4","ticks":229440,"time":119.5,"velocity":1},{"duration":0.25,"durationTicks":480,"midi":62,"name":"D4","ticks":229920,"time":119.75,"velocity":1},{"duration":0.25,"durationTicks":480,"midi":57,"name":"A3","ticks":230400,"time":120,"velocity":1},{"duration":0.25,"durationTicks":480,"midi":62,"name":"D4","ticks":230880,"time":120.25,"velocity":1},{"duration":0.25,"durationTicks":480,"midi":66,"name":"F#4","ticks":231360,"time":120.5,"velocity":1},{"duration":0.25,"durationTicks":480,"midi":62,"name":"D4","ticks":231840,"time":120.75,"velocity":1},{"duration":0.25,"durationTicks":480,"midi":59,"name":"B3","ticks":232320,"time":121,"velocity":1},{"duration":0.25,"durationTicks":480,"midi":62,"name":"D4","ticks":232800,"time":121.25,"velocity":1},{"duration":0.25,"durationTicks":480,"midi":66,"name":"F#4","ticks":233280,"time":121.5,"velocity":1},{"duration":0.25,"durationTicks":480,"midi":62,"name":"D4","ticks":233760,"time":121.75,"velocity":1},{"duration":0.25,"durationTicks":480,"midi":57,"name":"A3","ticks":234240,"time":122,"velocity":1},{"duration":0.25,"durationTicks":480,"midi":62,"name":"D4","ticks":234720,"time":122.25,"velocity":1},{"duration":0.25,"durationTicks":480,"midi":66,"name":"F#4","ticks":235200,"time":122.5,"velocity":1},{"duration":0.25,"durationTicks":480,"midi":62,"name":"D4","ticks":235680,"time":122.75,"velocity":1},{"duration":0.25,"durationTicks":480,"midi":59,"name":"B3","ticks":236160,"time":123,"velocity":1},{"duration":0.25,"durationTicks":480,"midi":62,"name":"D4","ticks":236640,"time":123.25,"velocity":1},{"duration":0.25,"durationTicks":480,"midi":66,"name":"F#4","ticks":237120,"time":123.5,"velocity":1},{"duration":0.25,"durationTicks":480,"midi":62,"name":"D4","ticks":237600,"time":123.75,"velocity":1},{"duration":0.25,"durationTicks":480,"midi":57,"name":"A3","ticks":238080,"time":124,"velocity":1},{"duration":0.25,"durationTicks":480,"midi":62,"name":"D4","ticks":238560,"time":124.25,"velocity":1},{"duration":0.25,"durationTicks":480,"midi":66,"name":"F#4","ticks":239040,"time":124.5,"velocity":1},{"duration":0.25,"durationTicks":480,"midi":62,"name":"D4","ticks":239520,"time":124.75,"velocity":1},{"duration":0.25,"durationTicks":480,"midi":59,"name":"B3","ticks":240000,"time":125,"velocity":1},{"duration":0.25,"durationTicks":480,"midi":62,"name":"D4","ticks":240480,"time":125.25,"velocity":1},{"duration":0.25,"durationTicks":480,"midi":66,"name":"F#4","ticks":240960,"time":125.5,"velocity":1},{"duration":0.25,"durationTicks":480,"midi":62,"name":"D4","ticks":241440,"time":125.75,"velocity":1},{"duration":0.25,"durationTicks":480,"midi":57,"name":"A3","ticks":241920,"time":126,"velocity":1},{"duration":0.25,"durationTicks":480,"midi":62,"name":"D4","ticks":242400,"time":126.25,"velocity":1},{"duration":0.25,"durationTicks":480,"midi":66,"name":"F#4","ticks":242880,"time":126.5,"velocity":1},{"duration":0.25,"durationTicks":480,"midi":62,"name":"D4","ticks":243360,"time":126.75,"velocity":1},{"duration":0.25,"durationTicks":480,"midi":59,"name":"B3","ticks":243840,"time":127,"velocity":1},{"duration":0.25,"durationTicks":480,"midi":62,"name":"D4","ticks":244320,"time":127.25,"velocity":1},{"duration":0.25,"durationTicks":480,"midi":66,"name":"F#4","ticks":244800,"time":127.5,"velocity":1},{"duration":0.25,"durationTicks":480,"midi":62,"name":"D4","ticks":245280,"time":127.75,"velocity":1},{"duration":0.25,"durationTicks":480,"midi":57,"name":"A3","ticks":245760,"time":128,"velocity":1},{"duration":0.25,"durationTicks":480,"midi":62,"name":"D4","ticks":246240,"time":128.25,"velocity":1},{"duration":0.25,"durationTicks":480,"midi":66,"name":"F#4","ticks":246720,"time":128.5,"velocity":1},{"duration":0.25,"durationTicks":480,"midi":62,"name":"D4","ticks":247200,"time":128.75,"velocity":1},{"duration":0.25,"durationTicks":480,"midi":59,"name":"B3","ticks":247680,"time":129,"velocity":1},{"duration":0.25,"durationTicks":480,"midi":62,"name":"D4","ticks":248160,"time":129.25,"velocity":1},{"duration":0.25,"durationTicks":480,"midi":66,"name":"F#4","ticks":248640,"time":129.5,"velocity":1},{"duration":0.25,"durationTicks":480,"midi":62,"name":"D4","ticks":249120,"time":129.75,"velocity":1},{"duration":0.25,"durationTicks":480,"midi":59,"name":"B3","ticks":249600,"time":130,"velocity":1},{"duration":0.25,"durationTicks":480,"midi":64,"name":"E4","ticks":250080,"time":130.25,"velocity":1},{"duration":0.25,"durationTicks":480,"midi":67,"name":"G4","ticks":250560,"time":130.5,"velocity":1},{"duration":0.25,"durationTicks":480,"midi":64,"name":"E4","ticks":251040,"time":130.75,"velocity":1},{"duration":0.25,"durationTicks":480,"midi":59,"name":"B3","ticks":251520,"time":131,"velocity":1},{"duration":0.25,"durationTicks":480,"midi":64,"name":"E4","ticks":252000,"time":131.25,"velocity":1},{"duration":0.25,"durationTicks":480,"midi":67,"name":"G4","ticks":252480,"time":131.5,"velocity":1},{"duration":0.25,"durationTicks":480,"midi":64,"name":"E4","ticks":252960,"time":131.75,"velocity":1},{"duration":0.25,"durationTicks":480,"midi":57,"name":"A3","ticks":253440,"time":132,"velocity":1},{"duration":0.25,"durationTicks":480,"midi":61,"name":"C#4","ticks":253920,"time":132.25,"velocity":1},{"duration":0.25,"durationTicks":480,"midi":67,"name":"G4","ticks":254400,"time":132.5,"velocity":1},{"duration":0.25,"durationTicks":480,"midi":61,"name":"C#4","ticks":254880,"time":132.75,"velocity":1},{"duration":0.25,"durationTicks":480,"midi":57,"name":"A3","ticks":255360,"time":133,"velocity":1},{"duration":0.25,"durationTicks":480,"midi":61,"name":"C#4","ticks":255840,"time":133.25,"velocity":1},{"duration":0.25,"durationTicks":480,"midi":67,"name":"G4","ticks":256320,"time":133.5,"velocity":1},{"duration":0.25,"durationTicks":480,"midi":61,"name":"C#4","ticks":256800,"time":133.75,"velocity":1},{"duration":0.25,"durationTicks":480,"midi":58,"name":"A#3","ticks":257280,"time":134,"velocity":1},{"duration":0.25,"durationTicks":480,"midi":62,"name":"D4","ticks":257760,"time":134.25,"velocity":1},{"duration":0.25,"durationTicks":480,"midi":69,"name":"A4","ticks":258240,"time":134.5,"velocity":1},{"duration":0.25,"durationTicks":480,"midi":65,"name":"F4","ticks":258720,"time":134.75,"velocity":1},{"duration":0.25,"durationTicks":480,"midi":69,"name":"A4","ticks":259200,"time":135,"velocity":1},{"duration":0.25,"durationTicks":480,"midi":65,"name":"F4","ticks":259680,"time":135.25,"velocity":1},{"duration":0.25,"durationTicks":480,"midi":69,"name":"A4","ticks":260160,"time":135.5,"velocity":1},{"duration":0.25,"durationTicks":480,"midi":65,"name":"F4","ticks":260640,"time":135.75,"velocity":1},{"duration":0.25,"durationTicks":480,"midi":60,"name":"C4","ticks":261120,"time":136,"velocity":1},{"duration":0.25,"durationTicks":480,"midi":65,"name":"F4","ticks":261120,"time":136,"velocity":1},{"duration":0.25,"durationTicks":480,"midi":69,"name":"A4","ticks":261600,"time":136.25,"velocity":1},{"duration":0.25,"durationTicks":480,"midi":60,"name":"C4","ticks":262080,"time":136.5,"velocity":1},{"duration":0.25,"durationTicks":480,"midi":65,"name":"F4","ticks":262080,"time":136.5,"velocity":1},{"duration":0.25,"durationTicks":480,"midi":60,"name":"C4","ticks":263040,"time":137,"velocity":1},{"duration":0.25,"durationTicks":480,"midi":64,"name":"E4","ticks":263040,"time":137,"velocity":1},{"duration":0.25,"durationTicks":480,"midi":67,"name":"G4","ticks":263520,"time":137.25,"velocity":1},{"duration":0.25,"durationTicks":480,"midi":60,"name":"C4","ticks":264000,"time":137.5,"velocity":1},{"duration":0.25,"durationTicks":480,"midi":64,"name":"E4","ticks":264000,"time":137.5,"velocity":1},{"duration":0.25,"durationTicks":480,"midi":58,"name":"A#3","ticks":264960,"time":138,"velocity":1},{"duration":0.25,"durationTicks":480,"midi":62,"name":"D4","ticks":264960,"time":138,"velocity":1},{"duration":0.25,"durationTicks":480,"midi":70,"name":"A#4","ticks":265440,"time":138.25,"velocity":1},{"duration":0.25,"durationTicks":480,"midi":58,"name":"A#3","ticks":265920,"time":138.5,"velocity":1},{"duration":0.25,"durationTicks":480,"midi":62,"name":"D4","ticks":265920,"time":138.5,"velocity":1},{"duration":0.25,"durationTicks":480,"midi":64,"name":"E4","ticks":266400,"time":138.75,"velocity":1},{"duration":0.25,"durationTicks":480,"midi":60,"name":"C4","ticks":266880,"time":139,"velocity":1},{"duration":0.25,"durationTicks":480,"midi":65,"name":"F4","ticks":266880,"time":139,"velocity":1},{"duration":0.25,"durationTicks":480,"midi":69,"name":"A4","ticks":267360,"time":139.25,"velocity":1},{"duration":0.25,"durationTicks":480,"midi":60,"name":"C4","ticks":267840,"time":139.5,"velocity":1},{"duration":0.25,"durationTicks":480,"midi":65,"name":"F4","ticks":267840,"time":139.5,"velocity":1},{"duration":0.25,"durationTicks":480,"midi":60,"name":"C4","ticks":268800,"time":140,"velocity":1},{"duration":0.25,"durationTicks":480,"midi":65,"name":"F4","ticks":268800,"time":140,"velocity":1},{"duration":0.25,"durationTicks":480,"midi":69,"name":"A4","ticks":269280,"time":140.25,"velocity":1},{"duration":0.25,"durationTicks":480,"midi":60,"name":"C4","ticks":269760,"time":140.5,"velocity":1},{"duration":0.25,"durationTicks":480,"midi":65,"name":"F4","ticks":269760,"time":140.5,"velocity":1},{"duration":0.25,"durationTicks":480,"midi":60,"name":"C4","ticks":270720,"time":141,"velocity":1},{"duration":0.25,"durationTicks":480,"midi":64,"name":"E4","ticks":270720,"time":141,"velocity":1},{"duration":0.25,"durationTicks":480,"midi":67,"name":"G4","ticks":271200,"time":141.25,"velocity":1},{"duration":0.25,"durationTicks":480,"midi":60,"name":"C4","ticks":271680,"time":141.5,"velocity":1},{"duration":0.25,"durationTicks":480,"midi":64,"name":"E4","ticks":271680,"time":141.5,"velocity":1},{"duration":0.25,"durationTicks":480,"midi":58,"name":"A#3","ticks":272640,"time":142,"velocity":1},{"duration":0.25,"durationTicks":480,"midi":62,"name":"D4","ticks":272640,"time":142,"velocity":1},{"duration":0.25,"durationTicks":480,"midi":70,"name":"A#4","ticks":273120,"time":142.25,"velocity":1},{"duration":0.25,"durationTicks":480,"midi":58,"name":"A#3","ticks":273600,"time":142.5,"velocity":1},{"duration":0.25,"durationTicks":480,"midi":62,"name":"D4","ticks":273600,"time":142.5,"velocity":1},{"duration":0.25,"durationTicks":480,"midi":64,"name":"E4","ticks":274080,"time":142.75,"velocity":1},{"duration":0.25,"durationTicks":480,"midi":60,"name":"C4","ticks":274560,"time":143,"velocity":1},{"duration":0.25,"durationTicks":480,"midi":65,"name":"F4","ticks":274560,"time":143,"velocity":1},{"duration":0.25,"durationTicks":480,"midi":69,"name":"A4","ticks":275040,"time":143.25,"velocity":1},{"duration":0.25,"durationTicks":480,"midi":60,"name":"C4","ticks":275520,"time":143.5,"velocity":1},{"duration":0.25,"durationTicks":480,"midi":65,"name":"F4","ticks":275520,"time":143.5,"velocity":1},{"duration":0.25,"durationTicks":480,"midi":58,"name":"A#3","ticks":276480,"time":144,"velocity":1},{"duration":0.25,"durationTicks":480,"midi":62,"name":"D4","ticks":276480,"time":144,"velocity":1},{"duration":0.25,"durationTicks":480,"midi":67,"name":"G4","ticks":276960,"time":144.25,"velocity":1},{"duration":0.25,"durationTicks":480,"midi":58,"name":"A#3","ticks":277440,"time":144.5,"velocity":1},{"duration":0.25,"durationTicks":480,"midi":62,"name":"D4","ticks":277440,"time":144.5,"velocity":1},{"duration":0.25,"durationTicks":480,"midi":67,"name":"G4","ticks":277920,"time":144.75,"velocity":1},{"duration":0.25,"durationTicks":480,"midi":60,"name":"C4","ticks":278400,"time":145,"velocity":1},{"duration":0.25,"durationTicks":480,"midi":64,"name":"E4","ticks":278400,"time":145,"velocity":1},{"duration":0.25,"durationTicks":480,"midi":67,"name":"G4","ticks":278880,"time":145.25,"velocity":1},{"duration":0.25,"durationTicks":480,"midi":60,"name":"C4","ticks":279360,"time":145.5,"velocity":1},{"duration":0.25,"durationTicks":480,"midi":64,"name":"E4","ticks":279360,"time":145.5,"velocity":1},{"duration":0.25,"durationTicks":480,"midi":67,"name":"G4","ticks":279840,"time":145.75,"velocity":1},{"duration":0.25,"durationTicks":480,"midi":60,"name":"C4","ticks":280320,"time":146,"velocity":1},{"duration":0.25,"durationTicks":480,"midi":65,"name":"F4","ticks":280320,"time":146,"velocity":1},{"duration":0.25,"durationTicks":480,"midi":69,"name":"A4","ticks":280800,"time":146.25,"velocity":1},{"duration":0.25,"durationTicks":480,"midi":60,"name":"C4","ticks":281280,"time":146.5,"velocity":1},{"duration":0.25,"durationTicks":480,"midi":65,"name":"F4","ticks":281280,"time":146.5,"velocity":1},{"duration":0.25,"durationTicks":480,"midi":69,"name":"A4","ticks":281760,"time":146.75,"velocity":1},{"duration":0.25,"durationTicks":480,"midi":62,"name":"D4","ticks":282240,"time":147,"velocity":1},{"duration":0.25,"durationTicks":480,"midi":65,"name":"F4","ticks":282240,"time":147,"velocity":1},{"duration":0.25,"durationTicks":480,"midi":69,"name":"A4","ticks":282720,"time":147.25,"velocity":1},{"duration":0.25,"durationTicks":480,"midi":62,"name":"D4","ticks":283200,"time":147.5,"velocity":1},{"duration":0.25,"durationTicks":480,"midi":65,"name":"F4","ticks":283200,"time":147.5,"velocity":1},{"duration":0.25,"durationTicks":480,"midi":69,"name":"A4","ticks":283680,"time":147.75,"velocity":1},{"duration":0.25,"durationTicks":480,"midi":58,"name":"A#3","ticks":284160,"time":148,"velocity":1},{"duration":0.25,"durationTicks":480,"midi":62,"name":"D4","ticks":284160,"time":148,"velocity":1},{"duration":0.25,"durationTicks":480,"midi":67,"name":"G4","ticks":284640,"time":148.25,"velocity":1},{"duration":0.25,"durationTicks":480,"midi":58,"name":"A#3","ticks":285120,"time":148.5,"velocity":1},{"duration":0.25,"durationTicks":480,"midi":62,"name":"D4","ticks":285120,"time":148.5,"velocity":1},{"duration":0.25,"durationTicks":480,"midi":67,"name":"G4","ticks":285600,"time":148.75,"velocity":1},{"duration":0.25,"durationTicks":480,"midi":57,"name":"A3","ticks":286080,"time":149,"velocity":1},{"duration":0.25,"durationTicks":480,"midi":61,"name":"C#4","ticks":286080,"time":149,"velocity":1},{"duration":0.25,"durationTicks":480,"midi":67,"name":"G4","ticks":286560,"time":149.25,"velocity":1},{"duration":0.25,"durationTicks":480,"midi":57,"name":"A3","ticks":287040,"time":149.5,"velocity":1},{"duration":0.25,"durationTicks":480,"midi":61,"name":"C#4","ticks":287040,"time":149.5,"velocity":1},{"duration":0.25,"durationTicks":480,"midi":67,"name":"G4","ticks":287520,"time":149.75,"velocity":1},{"duration":0.25,"durationTicks":480,"midi":57,"name":"A3","ticks":288000,"time":150,"velocity":1},{"duration":0.25,"durationTicks":480,"midi":62,"name":"D4","ticks":288480,"time":150.25,"velocity":1},{"duration":0.25,"durationTicks":480,"midi":66,"name":"F#4","ticks":288960,"time":150.5,"velocity":1},{"duration":0.25,"durationTicks":480,"midi":62,"name":"D4","ticks":289440,"time":150.75,"velocity":1},{"duration":0.25,"durationTicks":480,"midi":59,"name":"B3","ticks":289920,"time":151,"velocity":1},{"duration":0.25,"durationTicks":480,"midi":62,"name":"D4","ticks":290400,"time":151.25,"velocity":1},{"duration":0.25,"durationTicks":480,"midi":66,"name":"F#4","ticks":290880,"time":151.5,"velocity":1},{"duration":0.25,"durationTicks":480,"midi":62,"name":"D4","ticks":291360,"time":151.75,"velocity":1},{"duration":0.25,"durationTicks":480,"midi":57,"name":"A3","ticks":291840,"time":152,"velocity":1},{"duration":0.25,"durationTicks":480,"midi":62,"name":"D4","ticks":292320,"time":152.25,"velocity":1},{"duration":0.25,"durationTicks":480,"midi":66,"name":"F#4","ticks":292800,"time":152.5,"velocity":1},{"duration":0.25,"durationTicks":480,"midi":62,"name":"D4","ticks":293280,"time":152.75,"velocity":1},{"duration":0.25,"durationTicks":480,"midi":59,"name":"B3","ticks":293760,"time":153,"velocity":1},{"duration":0.25,"durationTicks":480,"midi":62,"name":"D4","ticks":294240,"time":153.25,"velocity":1},{"duration":0.25,"durationTicks":480,"midi":66,"name":"F#4","ticks":294720,"time":153.5,"velocity":1},{"duration":0.25,"durationTicks":480,"midi":62,"name":"D4","ticks":295200,"time":153.75,"velocity":1},{"duration":0.25,"durationTicks":480,"midi":57,"name":"A3","ticks":295680,"time":154,"velocity":1},{"duration":0.25,"durationTicks":480,"midi":62,"name":"D4","ticks":296160,"time":154.25,"velocity":1},{"duration":0.25,"durationTicks":480,"midi":66,"name":"F#4","ticks":296640,"time":154.5,"velocity":1},{"duration":0.25,"durationTicks":480,"midi":62,"name":"D4","ticks":297120,"time":154.75,"velocity":1},{"duration":0.25,"durationTicks":480,"midi":59,"name":"B3","ticks":297600,"time":155,"velocity":1},{"duration":0.25,"durationTicks":480,"midi":62,"name":"D4","ticks":298080,"time":155.25,"velocity":1},{"duration":0.25,"durationTicks":480,"midi":66,"name":"F#4","ticks":298560,"time":155.5,"velocity":1},{"duration":0.25,"durationTicks":480,"midi":62,"name":"D4","ticks":299040,"time":155.75,"velocity":1},{"duration":0.25,"durationTicks":480,"midi":57,"name":"A3","ticks":299520,"time":156,"velocity":1},{"duration":0.25,"durationTicks":480,"midi":62,"name":"D4","ticks":300000,"time":156.25,"velocity":1},{"duration":0.25,"durationTicks":480,"midi":66,"name":"F#4","ticks":300480,"time":156.5,"velocity":1},{"duration":0.25,"durationTicks":480,"midi":62,"name":"D4","ticks":300960,"time":156.75,"velocity":1},{"duration":0.25,"durationTicks":480,"midi":59,"name":"B3","ticks":301440,"time":157,"velocity":1},{"duration":0.25,"durationTicks":480,"midi":62,"name":"D4","ticks":301920,"time":157.25,"velocity":1},{"duration":0.25,"durationTicks":480,"midi":66,"name":"F#4","ticks":302400,"time":157.5,"velocity":1},{"duration":0.25,"durationTicks":480,"midi":62,"name":"D4","ticks":302880,"time":157.75,"velocity":1},{"duration":0.25,"durationTicks":480,"midi":57,"name":"A3","ticks":303360,"time":158,"velocity":1},{"duration":0.25,"durationTicks":480,"midi":62,"name":"D4","ticks":303840,"time":158.25,"velocity":1},{"duration":0.25,"durationTicks":480,"midi":66,"name":"F#4","ticks":304320,"time":158.5,"velocity":1},{"duration":0.25,"durationTicks":480,"midi":62,"name":"D4","ticks":304800,"time":158.75,"velocity":1},{"duration":0.25,"durationTicks":480,"midi":59,"name":"B3","ticks":305280,"time":159,"velocity":1},{"duration":0.25,"durationTicks":480,"midi":62,"name":"D4","ticks":305760,"time":159.25,"velocity":1},{"duration":0.25,"durationTicks":480,"midi":66,"name":"F#4","ticks":306240,"time":159.5,"velocity":1},{"duration":0.25,"durationTicks":480,"midi":62,"name":"D4","ticks":306720,"time":159.75,"velocity":1},{"duration":0.25,"durationTicks":480,"midi":57,"name":"A3","ticks":307200,"time":160,"velocity":1},{"duration":0.25,"durationTicks":480,"midi":62,"name":"D4","ticks":307680,"time":160.25,"velocity":1},{"duration":0.25,"durationTicks":480,"midi":66,"name":"F#4","ticks":308160,"time":160.5,"velocity":1},{"duration":0.25,"durationTicks":480,"midi":62,"name":"D4","ticks":308640,"time":160.75,"velocity":1},{"duration":0.25,"durationTicks":480,"midi":59,"name":"B3","ticks":309120,"time":161,"velocity":1},{"duration":0.25,"durationTicks":480,"midi":62,"name":"D4","ticks":309600,"time":161.25,"velocity":1},{"duration":0.25,"durationTicks":480,"midi":66,"name":"F#4","ticks":310080,"time":161.5,"velocity":1},{"duration":0.25,"durationTicks":480,"midi":62,"name":"D4","ticks":310560,"time":161.75,"velocity":1},{"duration":0.25,"durationTicks":480,"midi":57,"name":"A3","ticks":311040,"time":162,"velocity":1},{"duration":0.25,"durationTicks":480,"midi":62,"name":"D4","ticks":311520,"time":162.25,"velocity":1},{"duration":0.25,"durationTicks":480,"midi":66,"name":"F#4","ticks":312000,"time":162.5,"velocity":1},{"duration":0.25,"durationTicks":480,"midi":62,"name":"D4","ticks":312480,"time":162.75,"velocity":1},{"duration":0.25,"durationTicks":480,"midi":59,"name":"B3","ticks":312960,"time":163,"velocity":1},{"duration":0.25,"durationTicks":480,"midi":62,"name":"D4","ticks":313440,"time":163.25,"velocity":1},{"duration":0.25,"durationTicks":480,"midi":66,"name":"F#4","ticks":313920,"time":163.5,"velocity":1},{"duration":0.25,"durationTicks":480,"midi":62,"name":"D4","ticks":314400,"time":163.75,"velocity":1},{"duration":0.25,"durationTicks":480,"midi":57,"name":"A3","ticks":314880,"time":164,"velocity":1},{"duration":0.25,"durationTicks":480,"midi":62,"name":"D4","ticks":315360,"time":164.25,"velocity":1},{"duration":0.25,"durationTicks":480,"midi":66,"name":"F#4","ticks":315840,"time":164.5,"velocity":1},{"duration":0.25,"durationTicks":480,"midi":62,"name":"D4","ticks":316320,"time":164.75,"velocity":1},{"duration":0.25,"durationTicks":480,"midi":59,"name":"B3","ticks":316800,"time":165,"velocity":1},{"duration":0.25,"durationTicks":480,"midi":62,"name":"D4","ticks":317280,"time":165.25,"velocity":1},{"duration":0.25,"durationTicks":480,"midi":66,"name":"F#4","ticks":317760,"time":165.5,"velocity":1},{"duration":0.25,"durationTicks":480,"midi":62,"name":"D4","ticks":318240,"time":165.75,"velocity":1},{"duration":0.25,"durationTicks":480,"midi":57,"name":"A3","ticks":318720,"time":166,"velocity":1},{"duration":0.25,"durationTicks":480,"midi":62,"name":"D4","ticks":319200,"time":166.25,"velocity":1},{"duration":0.25,"durationTicks":480,"midi":66,"name":"F#4","ticks":319680,"time":166.5,"velocity":1},{"duration":0.25,"durationTicks":480,"midi":62,"name":"D4","ticks":320160,"time":166.75,"velocity":1},{"duration":0.25,"durationTicks":480,"midi":59,"name":"B3","ticks":320640,"time":167,"velocity":1},{"duration":0.25,"durationTicks":480,"midi":62,"name":"D4","ticks":321120,"time":167.25,"velocity":1},{"duration":0.25,"durationTicks":480,"midi":66,"name":"F#4","ticks":321600,"time":167.5,"velocity":1},{"duration":0.25,"durationTicks":480,"midi":62,"name":"D4","ticks":322080,"time":167.75,"velocity":1},{"duration":0.25,"durationTicks":480,"midi":57,"name":"A3","ticks":322560,"time":168,"velocity":1},{"duration":0.25,"durationTicks":480,"midi":62,"name":"D4","ticks":323040,"time":168.25,"velocity":1},{"duration":0.25,"durationTicks":480,"midi":66,"name":"F#4","ticks":323520,"time":168.5,"velocity":1},{"duration":0.25,"durationTicks":480,"midi":62,"name":"D4","ticks":324000,"time":168.75,"velocity":1},{"duration":0.25,"durationTicks":480,"midi":59,"name":"B3","ticks":324480,"time":169,"velocity":1},{"duration":0.25,"durationTicks":480,"midi":62,"name":"D4","ticks":324960,"time":169.25,"velocity":1},{"duration":0.25,"durationTicks":480,"midi":66,"name":"F#4","ticks":325440,"time":169.5,"velocity":1},{"duration":0.25,"durationTicks":480,"midi":62,"name":"D4","ticks":325920,"time":169.75,"velocity":1},{"duration":0.25,"durationTicks":480,"midi":57,"name":"A3","ticks":326400,"time":170,"velocity":1},{"duration":0.25,"durationTicks":480,"midi":62,"name":"D4","ticks":326880,"time":170.25,"velocity":1},{"duration":0.25,"durationTicks":480,"midi":66,"name":"F#4","ticks":327360,"time":170.5,"velocity":1},{"duration":0.25,"durationTicks":480,"midi":62,"name":"D4","ticks":327840,"time":170.75,"velocity":1},{"duration":0.25,"durationTicks":480,"midi":59,"name":"B3","ticks":328320,"time":171,"velocity":1},{"duration":0.25,"durationTicks":480,"midi":62,"name":"D4","ticks":328800,"time":171.25,"velocity":1},{"duration":0.25,"durationTicks":480,"midi":66,"name":"F#4","ticks":329280,"time":171.5,"velocity":1},{"duration":0.25,"durationTicks":480,"midi":62,"name":"D4","ticks":329760,"time":171.75,"velocity":1},{"duration":0.25,"durationTicks":480,"midi":57,"name":"A3","ticks":330240,"time":172,"velocity":1},{"duration":0.25,"durationTicks":480,"midi":62,"name":"D4","ticks":330720,"time":172.25,"velocity":1},{"duration":0.25,"durationTicks":480,"midi":66,"name":"F#4","ticks":331200,"time":172.5,"velocity":1},{"duration":0.25,"durationTicks":480,"midi":62,"name":"D4","ticks":331680,"time":172.75,"velocity":1},{"duration":0.25,"durationTicks":480,"midi":59,"name":"B3","ticks":332160,"time":173,"velocity":1},{"duration":0.25,"durationTicks":480,"midi":62,"name":"D4","ticks":332640,"time":173.25,"velocity":1},{"duration":0.25,"durationTicks":480,"midi":66,"name":"F#4","ticks":333120,"time":173.5,"velocity":1},{"duration":0.25,"durationTicks":480,"midi":62,"name":"D4","ticks":333600,"time":173.75,"velocity":1}],"channel":1,"instrument":{"family":"strings","number":46,"name":"orchestral harp"},"controlChanges":{"7":[{"number":7,"ticks":0,"time":0,"value":0.7480314960629921}],"10":[{"number":10,"ticks":0,"time":0,"value":0.10236220472440945}]},"pitchBends":[],"endOfTrackTicks":334080},{"name":"Guitar 2","notes":[{"duration":0.25,"durationTicks":480,"midi":57,"name":"A3","ticks":126720,"time":66,"velocity":1},{"duration":0.25,"durationTicks":480,"midi":62,"name":"D4","ticks":127200,"time":66.25,"velocity":1},{"duration":0.25,"durationTicks":480,"midi":66,"name":"F#4","ticks":127680,"time":66.5,"velocity":1},{"duration":0.25,"durationTicks":480,"midi":62,"name":"D4","ticks":128160,"time":66.75,"velocity":1},{"duration":0.25,"durationTicks":480,"midi":59,"name":"B3","ticks":128640,"time":67,"velocity":1},{"duration":0.25,"durationTicks":480,"midi":62,"name":"D4","ticks":129120,"time":67.25,"velocity":1},{"duration":0.25,"durationTicks":480,"midi":66,"name":"F#4","ticks":129600,"time":67.5,"velocity":1},{"duration":0.25,"durationTicks":480,"midi":62,"name":"D4","ticks":130080,"time":67.75,"velocity":1},{"duration":0.25,"durationTicks":480,"midi":57,"name":"A3","ticks":130560,"time":68,"velocity":1},{"duration":0.25,"durationTicks":480,"midi":62,"name":"D4","ticks":131040,"time":68.25,"velocity":1},{"duration":0.25,"durationTicks":480,"midi":66,"name":"F#4","ticks":131520,"time":68.5,"velocity":1},{"duration":0.25,"durationTicks":480,"midi":62,"name":"D4","ticks":132000,"time":68.75,"velocity":1},{"duration":0.25,"durationTicks":480,"midi":59,"name":"B3","ticks":132480,"time":69,"velocity":1},{"duration":0.25,"durationTicks":480,"midi":62,"name":"D4","ticks":132960,"time":69.25,"velocity":1},{"duration":0.25,"durationTicks":480,"midi":66,"name":"F#4","ticks":133440,"time":69.5,"velocity":1},{"duration":0.25,"durationTicks":480,"midi":62,"name":"D4","ticks":133920,"time":69.75,"velocity":1},{"duration":0.25,"durationTicks":480,"midi":57,"name":"A3","ticks":134400,"time":70,"velocity":1},{"duration":0.25,"durationTicks":480,"midi":62,"name":"D4","ticks":134880,"time":70.25,"velocity":1},{"duration":0.25,"durationTicks":480,"midi":66,"name":"F#4","ticks":135360,"time":70.5,"velocity":1},{"duration":0.25,"durationTicks":480,"midi":62,"name":"D4","ticks":135840,"time":70.75,"velocity":1},{"duration":0.25,"durationTicks":480,"midi":59,"name":"B3","ticks":136320,"time":71,"velocity":1},{"duration":0.25,"durationTicks":480,"midi":62,"name":"D4","ticks":136800,"time":71.25,"velocity":1},{"duration":0.25,"durationTicks":480,"midi":66,"name":"F#4","ticks":137280,"time":71.5,"velocity":1},{"duration":0.25,"durationTicks":480,"midi":62,"name":"D4","ticks":137760,"time":71.75,"velocity":1},{"duration":0.25,"durationTicks":480,"midi":57,"name":"A3","ticks":138240,"time":72,"velocity":1},{"duration":0.25,"durationTicks":480,"midi":62,"name":"D4","ticks":138720,"time":72.25,"velocity":1},{"duration":0.25,"durationTicks":480,"midi":66,"name":"F#4","ticks":139200,"time":72.5,"velocity":1},{"duration":0.25,"durationTicks":480,"midi":62,"name":"D4","ticks":139680,"time":72.75,"velocity":1},{"duration":0.25,"durationTicks":480,"midi":59,"name":"B3","ticks":140160,"time":73,"velocity":1},{"duration":0.25,"durationTicks":480,"midi":62,"name":"D4","ticks":140640,"time":73.25,"velocity":1},{"duration":0.25,"durationTicks":480,"midi":66,"name":"F#4","ticks":141120,"time":73.5,"velocity":1},{"duration":0.25,"durationTicks":480,"midi":62,"name":"D4","ticks":141600,"time":73.75,"velocity":1},{"duration":0.25,"durationTicks":480,"midi":57,"name":"A3","ticks":142080,"time":74,"velocity":1},{"duration":0.25,"durationTicks":480,"midi":62,"name":"D4","ticks":142560,"time":74.25,"velocity":1},{"duration":0.25,"durationTicks":480,"midi":66,"name":"F#4","ticks":143040,"time":74.5,"velocity":1},{"duration":0.25,"durationTicks":480,"midi":62,"name":"D4","ticks":143520,"time":74.75,"velocity":1},{"duration":0.25,"durationTicks":480,"midi":59,"name":"B3","ticks":144000,"time":75,"velocity":1},{"duration":0.25,"durationTicks":480,"midi":62,"name":"D4","ticks":144480,"time":75.25,"velocity":1},{"duration":0.25,"durationTicks":480,"midi":66,"name":"F#4","ticks":144960,"time":75.5,"velocity":1},{"duration":0.25,"durationTicks":480,"midi":62,"name":"D4","ticks":145440,"time":75.75,"velocity":1},{"duration":0.25,"durationTicks":480,"midi":57,"name":"A3","ticks":145920,"time":76,"velocity":1},{"duration":0.25,"durationTicks":480,"midi":62,"name":"D4","ticks":146400,"time":76.25,"velocity":1},{"duration":0.25,"durationTicks":480,"midi":66,"name":"F#4","ticks":146880,"time":76.5,"velocity":1},{"duration":0.25,"durationTicks":480,"midi":62,"name":"D4","ticks":147360,"time":76.75,"velocity":1},{"duration":0.25,"durationTicks":480,"midi":59,"name":"B3","ticks":147840,"time":77,"velocity":1},{"duration":0.25,"durationTicks":480,"midi":62,"name":"D4","ticks":148320,"time":77.25,"velocity":1},{"duration":0.25,"durationTicks":480,"midi":66,"name":"F#4","ticks":148800,"time":77.5,"velocity":1},{"duration":0.25,"durationTicks":480,"midi":62,"name":"D4","ticks":149280,"time":77.75,"velocity":1},{"duration":0.25,"durationTicks":480,"midi":59,"name":"B3","ticks":149760,"time":78,"velocity":1},{"duration":0.25,"durationTicks":480,"midi":64,"name":"E4","ticks":150240,"time":78.25,"velocity":1},{"duration":0.25,"durationTicks":480,"midi":67,"name":"G4","ticks":150720,"time":78.5,"velocity":1},{"duration":0.25,"durationTicks":480,"midi":64,"name":"E4","ticks":151200,"time":78.75,"velocity":1},{"duration":0.25,"durationTicks":480,"midi":59,"name":"B3","ticks":151680,"time":79,"velocity":1},{"duration":0.25,"durationTicks":480,"midi":64,"name":"E4","ticks":152160,"time":79.25,"velocity":1},{"duration":0.25,"durationTicks":480,"midi":67,"name":"G4","ticks":152640,"time":79.5,"velocity":1},{"duration":0.25,"durationTicks":480,"midi":64,"name":"E4","ticks":153120,"time":79.75,"velocity":1},{"duration":0.25,"durationTicks":480,"midi":57,"name":"A3","ticks":153600,"time":80,"velocity":1},{"duration":0.25,"durationTicks":480,"midi":61,"name":"C#4","ticks":154080,"time":80.25,"velocity":1},{"duration":0.25,"durationTicks":480,"midi":67,"name":"G4","ticks":154560,"time":80.5,"velocity":1},{"duration":0.25,"durationTicks":480,"midi":61,"name":"C#4","ticks":155040,"time":80.75,"velocity":1},{"duration":0.25,"durationTicks":480,"midi":57,"name":"A3","ticks":155520,"time":81,"velocity":1},{"duration":0.25,"durationTicks":480,"midi":61,"name":"C#4","ticks":156000,"time":81.25,"velocity":1},{"duration":0.25,"durationTicks":480,"midi":67,"name":"G4","ticks":156480,"time":81.5,"velocity":1},{"duration":0.25,"durationTicks":480,"midi":61,"name":"C#4","ticks":156960,"time":81.75,"velocity":1},{"duration":0.25,"durationTicks":480,"midi":58,"name":"A#3","ticks":157440,"time":82,"velocity":1},{"duration":0.25,"durationTicks":480,"midi":62,"name":"D4","ticks":157920,"time":82.25,"velocity":1},{"duration":0.25,"durationTicks":480,"midi":69,"name":"A4","ticks":158400,"time":82.5,"velocity":1},{"duration":0.25,"durationTicks":480,"midi":65,"name":"F4","ticks":158880,"time":82.75,"velocity":1},{"duration":0.25,"durationTicks":480,"midi":69,"name":"A4","ticks":159360,"time":83,"velocity":1},{"duration":0.25,"durationTicks":480,"midi":65,"name":"F4","ticks":159840,"time":83.25,"velocity":1},{"duration":0.25,"durationTicks":480,"midi":69,"name":"A4","ticks":160320,"time":83.5,"velocity":1},{"duration":0.25,"durationTicks":480,"midi":65,"name":"F4","ticks":160800,"time":83.75,"velocity":1},{"duration":0.25,"durationTicks":480,"midi":65,"name":"F4","ticks":161280,"time":84,"velocity":1},{"duration":0.25,"durationTicks":480,"midi":60,"name":"C4","ticks":161280,"time":84,"velocity":1},{"duration":0.25,"durationTicks":480,"midi":69,"name":"A4","ticks":161760,"time":84.25,"velocity":1},{"duration":0.25,"durationTicks":480,"midi":65,"name":"F4","ticks":162240,"time":84.5,"velocity":1},{"duration":0.25,"durationTicks":480,"midi":60,"name":"C4","ticks":162240,"time":84.5,"velocity":1},{"duration":0.25,"durationTicks":480,"midi":64,"name":"E4","ticks":163200,"time":85,"velocity":1},{"duration":0.25,"durationTicks":480,"midi":60,"name":"C4","ticks":163200,"time":85,"velocity":1},{"duration":0.25,"durationTicks":480,"midi":67,"name":"G4","ticks":163680,"time":85.25,"velocity":1},{"duration":0.25,"durationTicks":480,"midi":64,"name":"E4","ticks":164160,"time":85.5,"velocity":1},{"duration":0.25,"durationTicks":480,"midi":60,"name":"C4","ticks":164160,"time":85.5,"velocity":1},{"duration":0.25,"durationTicks":480,"midi":62,"name":"D4","ticks":165120,"time":86,"velocity":1},{"duration":0.25,"durationTicks":480,"midi":58,"name":"A#3","ticks":165120,"time":86,"velocity":1},{"duration":0.25,"durationTicks":480,"midi":70,"name":"A#4","ticks":165600,"time":86.25,"velocity":1},{"duration":0.25,"durationTicks":480,"midi":62,"name":"D4","ticks":166080,"time":86.5,"velocity":1},{"duration":0.25,"durationTicks":480,"midi":58,"name":"A#3","ticks":166080,"time":86.5,"velocity":1},{"duration":0.25,"durationTicks":480,"midi":64,"name":"E4","ticks":166560,"time":86.75,"velocity":1},{"duration":0.25,"durationTicks":480,"midi":65,"name":"F4","ticks":167040,"time":87,"velocity":1},{"duration":0.25,"durationTicks":480,"midi":60,"name":"C4","ticks":167040,"time":87,"velocity":1},{"duration":0.25,"durationTicks":480,"midi":69,"name":"A4","ticks":167520,"time":87.25,"velocity":1},{"duration":0.25,"durationTicks":480,"midi":65,"name":"F4","ticks":168000,"time":87.5,"velocity":1},{"duration":0.25,"durationTicks":480,"midi":60,"name":"C4","ticks":168000,"time":87.5,"velocity":1},{"duration":0.25,"durationTicks":480,"midi":65,"name":"F4","ticks":168960,"time":88,"velocity":1},{"duration":0.25,"durationTicks":480,"midi":60,"name":"C4","ticks":168960,"time":88,"velocity":1},{"duration":0.25,"durationTicks":480,"midi":69,"name":"A4","ticks":169440,"time":88.25,"velocity":1},{"duration":0.25,"durationTicks":480,"midi":65,"name":"F4","ticks":169920,"time":88.5,"velocity":1},{"duration":0.25,"durationTicks":480,"midi":60,"name":"C4","ticks":169920,"time":88.5,"velocity":1},{"duration":0.25,"durationTicks":480,"midi":64,"name":"E4","ticks":170880,"time":89,"velocity":1},{"duration":0.25,"durationTicks":480,"midi":60,"name":"C4","ticks":170880,"time":89,"velocity":1},{"duration":0.25,"durationTicks":480,"midi":67,"name":"G4","ticks":171360,"time":89.25,"velocity":1},{"duration":0.25,"durationTicks":480,"midi":64,"name":"E4","ticks":171840,"time":89.5,"velocity":1},{"duration":0.25,"durationTicks":480,"midi":60,"name":"C4","ticks":171840,"time":89.5,"velocity":1},{"duration":0.25,"durationTicks":480,"midi":62,"name":"D4","ticks":172800,"time":90,"velocity":1},{"duration":0.25,"durationTicks":480,"midi":58,"name":"A#3","ticks":172800,"time":90,"velocity":1},{"duration":0.25,"durationTicks":480,"midi":70,"name":"A#4","ticks":173280,"time":90.25,"velocity":1},{"duration":0.25,"durationTicks":480,"midi":62,"name":"D4","ticks":173760,"time":90.5,"velocity":1},{"duration":0.25,"durationTicks":480,"midi":58,"name":"A#3","ticks":173760,"time":90.5,"velocity":1},{"duration":0.25,"durationTicks":480,"midi":64,"name":"E4","ticks":174240,"time":90.75,"velocity":1},{"duration":0.25,"durationTicks":480,"midi":65,"name":"F4","ticks":174720,"time":91,"velocity":1},{"duration":0.25,"durationTicks":480,"midi":60,"name":"C4","ticks":174720,"time":91,"velocity":1},{"duration":0.25,"durationTicks":480,"midi":69,"name":"A4","ticks":175200,"time":91.25,"velocity":1},{"duration":0.25,"durationTicks":480,"midi":65,"name":"F4","ticks":175680,"time":91.5,"velocity":1},{"duration":0.25,"durationTicks":480,"midi":60,"name":"C4","ticks":175680,"time":91.5,"velocity":1},{"duration":0.25,"durationTicks":480,"midi":62,"name":"D4","ticks":176640,"time":92,"velocity":1},{"duration":0.25,"durationTicks":480,"midi":58,"name":"A#3","ticks":176640,"time":92,"velocity":1},{"duration":0.25,"durationTicks":480,"midi":67,"name":"G4","ticks":177120,"time":92.25,"velocity":1},{"duration":0.25,"durationTicks":480,"midi":62,"name":"D4","ticks":177600,"time":92.5,"velocity":1},{"duration":0.25,"durationTicks":480,"midi":58,"name":"A#3","ticks":177600,"time":92.5,"velocity":1},{"duration":0.25,"durationTicks":480,"midi":67,"name":"G4","ticks":178080,"time":92.75,"velocity":1},{"duration":0.25,"durationTicks":480,"midi":64,"name":"E4","ticks":178560,"time":93,"velocity":1},{"duration":0.25,"durationTicks":480,"midi":60,"name":"C4","ticks":178560,"time":93,"velocity":1},{"duration":0.25,"durationTicks":480,"midi":67,"name":"G4","ticks":179040,"time":93.25,"velocity":1},{"duration":0.25,"durationTicks":480,"midi":64,"name":"E4","ticks":179520,"time":93.5,"velocity":1},{"duration":0.25,"durationTicks":480,"midi":60,"name":"C4","ticks":179520,"time":93.5,"velocity":1},{"duration":0.25,"durationTicks":480,"midi":67,"name":"G4","ticks":180000,"time":93.75,"velocity":1},{"duration":0.25,"durationTicks":480,"midi":65,"name":"F4","ticks":180480,"time":94,"velocity":1},{"duration":0.25,"durationTicks":480,"midi":60,"name":"C4","ticks":180480,"time":94,"velocity":1},{"duration":0.25,"durationTicks":480,"midi":69,"name":"A4","ticks":180960,"time":94.25,"velocity":1},{"duration":0.25,"durationTicks":480,"midi":65,"name":"F4","ticks":181440,"time":94.5,"velocity":1},{"duration":0.25,"durationTicks":480,"midi":60,"name":"C4","ticks":181440,"time":94.5,"velocity":1},{"duration":0.25,"durationTicks":480,"midi":69,"name":"A4","ticks":181920,"time":94.75,"velocity":1},{"duration":0.25,"durationTicks":480,"midi":65,"name":"F4","ticks":182400,"time":95,"velocity":1},{"duration":0.25,"durationTicks":480,"midi":62,"name":"D4","ticks":182400,"time":95,"velocity":1},{"duration":0.25,"durationTicks":480,"midi":69,"name":"A4","ticks":182880,"time":95.25,"velocity":1},{"duration":0.25,"durationTicks":480,"midi":65,"name":"F4","ticks":183360,"time":95.5,"velocity":1},{"duration":0.25,"durationTicks":480,"midi":62,"name":"D4","ticks":183360,"time":95.5,"velocity":1},{"duration":0.25,"durationTicks":480,"midi":69,"name":"A4","ticks":183840,"time":95.75,"velocity":1},{"duration":0.25,"durationTicks":480,"midi":62,"name":"D4","ticks":184320,"time":96,"velocity":1},{"duration":0.25,"durationTicks":480,"midi":58,"name":"A#3","ticks":184320,"time":96,"velocity":1},{"duration":0.25,"durationTicks":480,"midi":67,"name":"G4","ticks":184800,"time":96.25,"velocity":1},{"duration":0.25,"durationTicks":480,"midi":62,"name":"D4","ticks":185280,"time":96.5,"velocity":1},{"duration":0.25,"durationTicks":480,"midi":58,"name":"A#3","ticks":185280,"time":96.5,"velocity":1},{"duration":0.25,"durationTicks":480,"midi":67,"name":"G4","ticks":185760,"time":96.75,"velocity":1},{"duration":0.25,"durationTicks":480,"midi":61,"name":"C#4","ticks":186240,"time":97,"velocity":1},{"duration":0.25,"durationTicks":480,"midi":57,"name":"A3","ticks":186240,"time":97,"velocity":1},{"duration":0.25,"durationTicks":480,"midi":67,"name":"G4","ticks":186720,"time":97.25,"velocity":1},{"duration":0.25,"durationTicks":480,"midi":61,"name":"C#4","ticks":187200,"time":97.5,"velocity":1},{"duration":0.25,"durationTicks":480,"midi":57,"name":"A3","ticks":187200,"time":97.5,"velocity":1},{"duration":0.25,"durationTicks":480,"midi":67,"name":"G4","ticks":187680,"time":97.75,"velocity":1},{"duration":0.25,"durationTicks":480,"midi":57,"name":"A3","ticks":188160,"time":98,"velocity":1},{"duration":0.25,"durationTicks":480,"midi":62,"name":"D4","ticks":188640,"time":98.25,"velocity":1},{"duration":0.25,"durationTicks":480,"midi":66,"name":"F#4","ticks":189120,"time":98.5,"velocity":1},{"duration":0.25,"durationTicks":480,"midi":62,"name":"D4","ticks":189600,"time":98.75,"velocity":1},{"duration":0.25,"durationTicks":480,"midi":59,"name":"B3","ticks":190080,"time":99,"velocity":1},{"duration":0.25,"durationTicks":480,"midi":62,"name":"D4","ticks":190560,"time":99.25,"velocity":1},{"duration":0.25,"durationTicks":480,"midi":66,"name":"F#4","ticks":191040,"time":99.5,"velocity":1},{"duration":0.25,"durationTicks":480,"midi":62,"name":"D4","ticks":191520,"time":99.75,"velocity":1},{"duration":0.25,"durationTicks":480,"midi":57,"name":"A3","ticks":192000,"time":100,"velocity":1},{"duration":0.25,"durationTicks":480,"midi":62,"name":"D4","ticks":192480,"time":100.25,"velocity":1},{"duration":0.25,"durationTicks":480,"midi":66,"name":"F#4","ticks":192960,"time":100.5,"velocity":1},{"duration":0.25,"durationTicks":480,"midi":62,"name":"D4","ticks":193440,"time":100.75,"velocity":1},{"duration":0.25,"durationTicks":480,"midi":59,"name":"B3","ticks":193920,"time":101,"velocity":1},{"duration":0.25,"durationTicks":480,"midi":62,"name":"D4","ticks":194400,"time":101.25,"velocity":1},{"duration":0.25,"durationTicks":480,"midi":66,"name":"F#4","ticks":194880,"time":101.5,"velocity":1},{"duration":0.25,"durationTicks":480,"midi":62,"name":"D4","ticks":195360,"time":101.75,"velocity":1},{"duration":0.25,"durationTicks":480,"midi":57,"name":"A3","ticks":195840,"time":102,"velocity":1},{"duration":0.25,"durationTicks":480,"midi":62,"name":"D4","ticks":196320,"time":102.25,"velocity":1},{"duration":0.25,"durationTicks":480,"midi":66,"name":"F#4","ticks":196800,"time":102.5,"velocity":1},{"duration":0.25,"durationTicks":480,"midi":62,"name":"D4","ticks":197280,"time":102.75,"velocity":1},{"duration":0.25,"durationTicks":480,"midi":59,"name":"B3","ticks":197760,"time":103,"velocity":1},{"duration":0.25,"durationTicks":480,"midi":62,"name":"D4","ticks":198240,"time":103.25,"velocity":1},{"duration":0.25,"durationTicks":480,"midi":66,"name":"F#4","ticks":198720,"time":103.5,"velocity":1},{"duration":0.25,"durationTicks":480,"midi":62,"name":"D4","ticks":199200,"time":103.75,"velocity":1},{"duration":0.25,"durationTicks":480,"midi":57,"name":"A3","ticks":199680,"time":104,"velocity":1},{"duration":0.25,"durationTicks":480,"midi":62,"name":"D4","ticks":200160,"time":104.25,"velocity":1},{"duration":0.25,"durationTicks":480,"midi":66,"name":"F#4","ticks":200640,"time":104.5,"velocity":1},{"duration":0.25,"durationTicks":480,"midi":62,"name":"D4","ticks":201120,"time":104.75,"velocity":1},{"duration":0.25,"durationTicks":480,"midi":59,"name":"B3","ticks":201600,"time":105,"velocity":1},{"duration":0.25,"durationTicks":480,"midi":62,"name":"D4","ticks":202080,"time":105.25,"velocity":1},{"duration":0.25,"durationTicks":480,"midi":66,"name":"F#4","ticks":202560,"time":105.5,"velocity":1},{"duration":0.25,"durationTicks":480,"midi":62,"name":"D4","ticks":203040,"time":105.75,"velocity":1},{"duration":0.25,"durationTicks":480,"midi":57,"name":"A3","ticks":226560,"time":118,"velocity":1},{"duration":0.25,"durationTicks":480,"midi":62,"name":"D4","ticks":227040,"time":118.25,"velocity":1},{"duration":0.25,"durationTicks":480,"midi":66,"name":"F#4","ticks":227520,"time":118.5,"velocity":1},{"duration":0.25,"durationTicks":480,"midi":62,"name":"D4","ticks":228000,"time":118.75,"velocity":1},{"duration":0.25,"durationTicks":480,"midi":59,"name":"B3","ticks":228480,"time":119,"velocity":1},{"duration":0.25,"durationTicks":480,"midi":62,"name":"D4","ticks":228960,"time":119.25,"velocity":1},{"duration":0.25,"durationTicks":480,"midi":66,"name":"F#4","ticks":229440,"time":119.5,"velocity":1},{"duration":0.25,"durationTicks":480,"midi":62,"name":"D4","ticks":229920,"time":119.75,"velocity":1},{"duration":0.25,"durationTicks":480,"midi":57,"name":"A3","ticks":230400,"time":120,"velocity":1},{"duration":0.25,"durationTicks":480,"midi":62,"name":"D4","ticks":230880,"time":120.25,"velocity":1},{"duration":0.25,"durationTicks":480,"midi":66,"name":"F#4","ticks":231360,"time":120.5,"velocity":1},{"duration":0.25,"durationTicks":480,"midi":62,"name":"D4","ticks":231840,"time":120.75,"velocity":1},{"duration":0.25,"durationTicks":480,"midi":59,"name":"B3","ticks":232320,"time":121,"velocity":1},{"duration":0.25,"durationTicks":480,"midi":62,"name":"D4","ticks":232800,"time":121.25,"velocity":1},{"duration":0.25,"durationTicks":480,"midi":66,"name":"F#4","ticks":233280,"time":121.5,"velocity":1},{"duration":0.25,"durationTicks":480,"midi":62,"name":"D4","ticks":233760,"time":121.75,"velocity":1},{"duration":0.25,"durationTicks":480,"midi":57,"name":"A3","ticks":234240,"time":122,"velocity":1},{"duration":0.25,"durationTicks":480,"midi":62,"name":"D4","ticks":234720,"time":122.25,"velocity":1},{"duration":0.25,"durationTicks":480,"midi":66,"name":"F#4","ticks":235200,"time":122.5,"velocity":1},{"duration":0.25,"durationTicks":480,"midi":62,"name":"D4","ticks":235680,"time":122.75,"velocity":1},{"duration":0.25,"durationTicks":480,"midi":59,"name":"B3","ticks":236160,"time":123,"velocity":1},{"duration":0.25,"durationTicks":480,"midi":62,"name":"D4","ticks":236640,"time":123.25,"velocity":1},{"duration":0.25,"durationTicks":480,"midi":66,"name":"F#4","ticks":237120,"time":123.5,"velocity":1},{"duration":0.25,"durationTicks":480,"midi":62,"name":"D4","ticks":237600,"time":123.75,"velocity":1},{"duration":0.25,"durationTicks":480,"midi":57,"name":"A3","ticks":238080,"time":124,"velocity":1},{"duration":0.25,"durationTicks":480,"midi":62,"name":"D4","ticks":238560,"time":124.25,"velocity":1},{"duration":0.25,"durationTicks":480,"midi":66,"name":"F#4","ticks":239040,"time":124.5,"velocity":1},{"duration":0.25,"durationTicks":480,"midi":62,"name":"D4","ticks":239520,"time":124.75,"velocity":1},{"duration":0.25,"durationTicks":480,"midi":59,"name":"B3","ticks":240000,"time":125,"velocity":1},{"duration":0.25,"durationTicks":480,"midi":62,"name":"D4","ticks":240480,"time":125.25,"velocity":1},{"duration":0.25,"durationTicks":480,"midi":66,"name":"F#4","ticks":240960,"time":125.5,"velocity":1},{"duration":0.25,"durationTicks":480,"midi":62,"name":"D4","ticks":241440,"time":125.75,"velocity":1},{"duration":0.25,"durationTicks":480,"midi":57,"name":"A3","ticks":241920,"time":126,"velocity":1},{"duration":0.25,"durationTicks":480,"midi":62,"name":"D4","ticks":242400,"time":126.25,"velocity":1},{"duration":0.25,"durationTicks":480,"midi":66,"name":"F#4","ticks":242880,"time":126.5,"velocity":1},{"duration":0.25,"durationTicks":480,"midi":62,"name":"D4","ticks":243360,"time":126.75,"velocity":1},{"duration":0.25,"durationTicks":480,"midi":59,"name":"B3","ticks":243840,"time":127,"velocity":1},{"duration":0.25,"durationTicks":480,"midi":62,"name":"D4","ticks":244320,"time":127.25,"velocity":1},{"duration":0.25,"durationTicks":480,"midi":66,"name":"F#4","ticks":244800,"time":127.5,"velocity":1},{"duration":0.25,"durationTicks":480,"midi":62,"name":"D4","ticks":245280,"time":127.75,"velocity":1},{"duration":0.25,"durationTicks":480,"midi":57,"name":"A3","ticks":245760,"time":128,"velocity":1},{"duration":0.25,"durationTicks":480,"midi":62,"name":"D4","ticks":246240,"time":128.25,"velocity":1},{"duration":0.25,"durationTicks":480,"midi":66,"name":"F#4","ticks":246720,"time":128.5,"velocity":1},{"duration":0.25,"durationTicks":480,"midi":62,"name":"D4","ticks":247200,"time":128.75,"velocity":1},{"duration":0.25,"durationTicks":480,"midi":59,"name":"B3","ticks":247680,"time":129,"velocity":1},{"duration":0.25,"durationTicks":480,"midi":62,"name":"D4","ticks":248160,"time":129.25,"velocity":1},{"duration":0.25,"durationTicks":480,"midi":66,"name":"F#4","ticks":248640,"time":129.5,"velocity":1},{"duration":0.25,"durationTicks":480,"midi":62,"name":"D4","ticks":249120,"time":129.75,"velocity":1},{"duration":0.25,"durationTicks":480,"midi":59,"name":"B3","ticks":249600,"time":130,"velocity":1},{"duration":0.25,"durationTicks":480,"midi":64,"name":"E4","ticks":250080,"time":130.25,"velocity":1},{"duration":0.25,"durationTicks":480,"midi":67,"name":"G4","ticks":250560,"time":130.5,"velocity":1},{"duration":0.25,"durationTicks":480,"midi":64,"name":"E4","ticks":251040,"time":130.75,"velocity":1},{"duration":0.25,"durationTicks":480,"midi":59,"name":"B3","ticks":251520,"time":131,"velocity":1},{"duration":0.25,"durationTicks":480,"midi":64,"name":"E4","ticks":252000,"time":131.25,"velocity":1},{"duration":0.25,"durationTicks":480,"midi":67,"name":"G4","ticks":252480,"time":131.5,"velocity":1},{"duration":0.25,"durationTicks":480,"midi":64,"name":"E4","ticks":252960,"time":131.75,"velocity":1},{"duration":0.25,"durationTicks":480,"midi":57,"name":"A3","ticks":253440,"time":132,"velocity":1},{"duration":0.25,"durationTicks":480,"midi":61,"name":"C#4","ticks":253920,"time":132.25,"velocity":1},{"duration":0.25,"durationTicks":480,"midi":67,"name":"G4","ticks":254400,"time":132.5,"velocity":1},{"duration":0.25,"durationTicks":480,"midi":61,"name":"C#4","ticks":254880,"time":132.75,"velocity":1},{"duration":0.25,"durationTicks":480,"midi":57,"name":"A3","ticks":255360,"time":133,"velocity":1},{"duration":0.25,"durationTicks":480,"midi":61,"name":"C#4","ticks":255840,"time":133.25,"velocity":1},{"duration":0.25,"durationTicks":480,"midi":67,"name":"G4","ticks":256320,"time":133.5,"velocity":1},{"duration":0.25,"durationTicks":480,"midi":61,"name":"C#4","ticks":256800,"time":133.75,"velocity":1},{"duration":0.25,"durationTicks":480,"midi":58,"name":"A#3","ticks":257280,"time":134,"velocity":1},{"duration":0.25,"durationTicks":480,"midi":62,"name":"D4","ticks":257760,"time":134.25,"velocity":1},{"duration":0.25,"durationTicks":480,"midi":69,"name":"A4","ticks":258240,"time":134.5,"velocity":1},{"duration":0.25,"durationTicks":480,"midi":65,"name":"F4","ticks":258720,"time":134.75,"velocity":1},{"duration":0.25,"durationTicks":480,"midi":69,"name":"A4","ticks":259200,"time":135,"velocity":1},{"duration":0.25,"durationTicks":480,"midi":65,"name":"F4","ticks":259680,"time":135.25,"velocity":1},{"duration":0.25,"durationTicks":480,"midi":69,"name":"A4","ticks":260160,"time":135.5,"velocity":1},{"duration":0.25,"durationTicks":480,"midi":65,"name":"F4","ticks":260640,"time":135.75,"velocity":1},{"duration":0.25,"durationTicks":480,"midi":65,"name":"F4","ticks":261120,"time":136,"velocity":1},{"duration":0.25,"durationTicks":480,"midi":60,"name":"C4","ticks":261120,"time":136,"velocity":1},{"duration":0.25,"durationTicks":480,"midi":69,"name":"A4","ticks":261600,"time":136.25,"velocity":1},{"duration":0.25,"durationTicks":480,"midi":65,"name":"F4","ticks":262080,"time":136.5,"velocity":1},{"duration":0.25,"durationTicks":480,"midi":60,"name":"C4","ticks":262080,"time":136.5,"velocity":1},{"duration":0.25,"durationTicks":480,"midi":64,"name":"E4","ticks":263040,"time":137,"velocity":1},{"duration":0.25,"durationTicks":480,"midi":60,"name":"C4","ticks":263040,"time":137,"velocity":1},{"duration":0.25,"durationTicks":480,"midi":67,"name":"G4","ticks":263520,"time":137.25,"velocity":1},{"duration":0.25,"durationTicks":480,"midi":64,"name":"E4","ticks":264000,"time":137.5,"velocity":1},{"duration":0.25,"durationTicks":480,"midi":60,"name":"C4","ticks":264000,"time":137.5,"velocity":1},{"duration":0.25,"durationTicks":480,"midi":62,"name":"D4","ticks":264960,"time":138,"velocity":1},{"duration":0.25,"durationTicks":480,"midi":58,"name":"A#3","ticks":264960,"time":138,"velocity":1},{"duration":0.25,"durationTicks":480,"midi":70,"name":"A#4","ticks":265440,"time":138.25,"velocity":1},{"duration":0.25,"durationTicks":480,"midi":62,"name":"D4","ticks":265920,"time":138.5,"velocity":1},{"duration":0.25,"durationTicks":480,"midi":58,"name":"A#3","ticks":265920,"time":138.5,"velocity":1},{"duration":0.25,"durationTicks":480,"midi":64,"name":"E4","ticks":266400,"time":138.75,"velocity":1},{"duration":0.25,"durationTicks":480,"midi":65,"name":"F4","ticks":266880,"time":139,"velocity":1},{"duration":0.25,"durationTicks":480,"midi":60,"name":"C4","ticks":266880,"time":139,"velocity":1},{"duration":0.25,"durationTicks":480,"midi":69,"name":"A4","ticks":267360,"time":139.25,"velocity":1},{"duration":0.25,"durationTicks":480,"midi":65,"name":"F4","ticks":267840,"time":139.5,"velocity":1},{"duration":0.25,"durationTicks":480,"midi":60,"name":"C4","ticks":267840,"time":139.5,"velocity":1},{"duration":0.25,"durationTicks":480,"midi":65,"name":"F4","ticks":268800,"time":140,"velocity":1},{"duration":0.25,"durationTicks":480,"midi":60,"name":"C4","ticks":268800,"time":140,"velocity":1},{"duration":0.25,"durationTicks":480,"midi":69,"name":"A4","ticks":269280,"time":140.25,"velocity":1},{"duration":0.25,"durationTicks":480,"midi":65,"name":"F4","ticks":269760,"time":140.5,"velocity":1},{"duration":0.25,"durationTicks":480,"midi":60,"name":"C4","ticks":269760,"time":140.5,"velocity":1},{"duration":0.25,"durationTicks":480,"midi":64,"name":"E4","ticks":270720,"time":141,"velocity":1},{"duration":0.25,"durationTicks":480,"midi":60,"name":"C4","ticks":270720,"time":141,"velocity":1},{"duration":0.25,"durationTicks":480,"midi":67,"name":"G4","ticks":271200,"time":141.25,"velocity":1},{"duration":0.25,"durationTicks":480,"midi":64,"name":"E4","ticks":271680,"time":141.5,"velocity":1},{"duration":0.25,"durationTicks":480,"midi":60,"name":"C4","ticks":271680,"time":141.5,"velocity":1},{"duration":0.25,"durationTicks":480,"midi":62,"name":"D4","ticks":272640,"time":142,"velocity":1},{"duration":0.25,"durationTicks":480,"midi":58,"name":"A#3","ticks":272640,"time":142,"velocity":1},{"duration":0.25,"durationTicks":480,"midi":70,"name":"A#4","ticks":273120,"time":142.25,"velocity":1},{"duration":0.25,"durationTicks":480,"midi":62,"name":"D4","ticks":273600,"time":142.5,"velocity":1},{"duration":0.25,"durationTicks":480,"midi":58,"name":"A#3","ticks":273600,"time":142.5,"velocity":1},{"duration":0.25,"durationTicks":480,"midi":64,"name":"E4","ticks":274080,"time":142.75,"velocity":1},{"duration":0.25,"durationTicks":480,"midi":65,"name":"F4","ticks":274560,"time":143,"velocity":1},{"duration":0.25,"durationTicks":480,"midi":60,"name":"C4","ticks":274560,"time":143,"velocity":1},{"duration":0.25,"durationTicks":480,"midi":69,"name":"A4","ticks":275040,"time":143.25,"velocity":1},{"duration":0.25,"durationTicks":480,"midi":65,"name":"F4","ticks":275520,"time":143.5,"velocity":1},{"duration":0.25,"durationTicks":480,"midi":60,"name":"C4","ticks":275520,"time":143.5,"velocity":1},{"duration":0.25,"durationTicks":480,"midi":62,"name":"D4","ticks":276480,"time":144,"velocity":1},{"duration":0.25,"durationTicks":480,"midi":58,"name":"A#3","ticks":276480,"time":144,"velocity":1},{"duration":0.25,"durationTicks":480,"midi":67,"name":"G4","ticks":276960,"time":144.25,"velocity":1},{"duration":0.25,"durationTicks":480,"midi":62,"name":"D4","ticks":277440,"time":144.5,"velocity":1},{"duration":0.25,"durationTicks":480,"midi":58,"name":"A#3","ticks":277440,"time":144.5,"velocity":1},{"duration":0.25,"durationTicks":480,"midi":67,"name":"G4","ticks":277920,"time":144.75,"velocity":1},{"duration":0.25,"durationTicks":480,"midi":64,"name":"E4","ticks":278400,"time":145,"velocity":1},{"duration":0.25,"durationTicks":480,"midi":60,"name":"C4","ticks":278400,"time":145,"velocity":1},{"duration":0.25,"durationTicks":480,"midi":67,"name":"G4","ticks":278880,"time":145.25,"velocity":1},{"duration":0.25,"durationTicks":480,"midi":64,"name":"E4","ticks":279360,"time":145.5,"velocity":1},{"duration":0.25,"durationTicks":480,"midi":60,"name":"C4","ticks":279360,"time":145.5,"velocity":1},{"duration":0.25,"durationTicks":480,"midi":67,"name":"G4","ticks":279840,"time":145.75,"velocity":1},{"duration":0.25,"durationTicks":480,"midi":65,"name":"F4","ticks":280320,"time":146,"velocity":1},{"duration":0.25,"durationTicks":480,"midi":60,"name":"C4","ticks":280320,"time":146,"velocity":1},{"duration":0.25,"durationTicks":480,"midi":69,"name":"A4","ticks":280800,"time":146.25,"velocity":1},{"duration":0.25,"durationTicks":480,"midi":65,"name":"F4","ticks":281280,"time":146.5,"velocity":1},{"duration":0.25,"durationTicks":480,"midi":60,"name":"C4","ticks":281280,"time":146.5,"velocity":1},{"duration":0.25,"durationTicks":480,"midi":69,"name":"A4","ticks":281760,"time":146.75,"velocity":1},{"duration":0.25,"durationTicks":480,"midi":65,"name":"F4","ticks":282240,"time":147,"velocity":1},{"duration":0.25,"durationTicks":480,"midi":62,"name":"D4","ticks":282240,"time":147,"velocity":1},{"duration":0.25,"durationTicks":480,"midi":69,"name":"A4","ticks":282720,"time":147.25,"velocity":1},{"duration":0.25,"durationTicks":480,"midi":65,"name":"F4","ticks":283200,"time":147.5,"velocity":1},{"duration":0.25,"durationTicks":480,"midi":62,"name":"D4","ticks":283200,"time":147.5,"velocity":1},{"duration":0.25,"durationTicks":480,"midi":69,"name":"A4","ticks":283680,"time":147.75,"velocity":1},{"duration":0.25,"durationTicks":480,"midi":62,"name":"D4","ticks":284160,"time":148,"velocity":1},{"duration":0.25,"durationTicks":480,"midi":58,"name":"A#3","ticks":284160,"time":148,"velocity":1},{"duration":0.25,"durationTicks":480,"midi":67,"name":"G4","ticks":284640,"time":148.25,"velocity":1},{"duration":0.25,"durationTicks":480,"midi":62,"name":"D4","ticks":285120,"time":148.5,"velocity":1},{"duration":0.25,"durationTicks":480,"midi":58,"name":"A#3","ticks":285120,"time":148.5,"velocity":1},{"duration":0.25,"durationTicks":480,"midi":67,"name":"G4","ticks":285600,"time":148.75,"velocity":1},{"duration":0.25,"durationTicks":480,"midi":61,"name":"C#4","ticks":286080,"time":149,"velocity":1},{"duration":0.25,"durationTicks":480,"midi":57,"name":"A3","ticks":286080,"time":149,"velocity":1},{"duration":0.25,"durationTicks":480,"midi":67,"name":"G4","ticks":286560,"time":149.25,"velocity":1},{"duration":0.25,"durationTicks":480,"midi":61,"name":"C#4","ticks":287040,"time":149.5,"velocity":1},{"duration":0.25,"durationTicks":480,"midi":57,"name":"A3","ticks":287040,"time":149.5,"velocity":1},{"duration":0.25,"durationTicks":480,"midi":67,"name":"G4","ticks":287520,"time":149.75,"velocity":1},{"duration":0.25,"durationTicks":480,"midi":57,"name":"A3","ticks":288000,"time":150,"velocity":1},{"duration":0.25,"durationTicks":480,"midi":62,"name":"D4","ticks":288480,"time":150.25,"velocity":1},{"duration":0.25,"durationTicks":480,"midi":66,"name":"F#4","ticks":288960,"time":150.5,"velocity":1},{"duration":0.25,"durationTicks":480,"midi":62,"name":"D4","ticks":289440,"time":150.75,"velocity":1},{"duration":0.25,"durationTicks":480,"midi":59,"name":"B3","ticks":289920,"time":151,"velocity":1},{"duration":0.25,"durationTicks":480,"midi":62,"name":"D4","ticks":290400,"time":151.25,"velocity":1},{"duration":0.25,"durationTicks":480,"midi":66,"name":"F#4","ticks":290880,"time":151.5,"velocity":1},{"duration":0.25,"durationTicks":480,"midi":62,"name":"D4","ticks":291360,"time":151.75,"velocity":1},{"duration":0.25,"durationTicks":480,"midi":57,"name":"A3","ticks":291840,"time":152,"velocity":1},{"duration":0.25,"durationTicks":480,"midi":62,"name":"D4","ticks":292320,"time":152.25,"velocity":1},{"duration":0.25,"durationTicks":480,"midi":66,"name":"F#4","ticks":292800,"time":152.5,"velocity":1},{"duration":0.25,"durationTicks":480,"midi":62,"name":"D4","ticks":293280,"time":152.75,"velocity":1},{"duration":0.25,"durationTicks":480,"midi":59,"name":"B3","ticks":293760,"time":153,"velocity":1},{"duration":0.25,"durationTicks":480,"midi":62,"name":"D4","ticks":294240,"time":153.25,"velocity":1},{"duration":0.25,"durationTicks":480,"midi":66,"name":"F#4","ticks":294720,"time":153.5,"velocity":1},{"duration":0.25,"durationTicks":480,"midi":62,"name":"D4","ticks":295200,"time":153.75,"velocity":1},{"duration":0.25,"durationTicks":480,"midi":57,"name":"A3","ticks":295680,"time":154,"velocity":1},{"duration":0.25,"durationTicks":480,"midi":62,"name":"D4","ticks":296160,"time":154.25,"velocity":1},{"duration":0.25,"durationTicks":480,"midi":66,"name":"F#4","ticks":296640,"time":154.5,"velocity":1},{"duration":0.25,"durationTicks":480,"midi":62,"name":"D4","ticks":297120,"time":154.75,"velocity":1},{"duration":0.25,"durationTicks":480,"midi":59,"name":"B3","ticks":297600,"time":155,"velocity":1},{"duration":0.25,"durationTicks":480,"midi":62,"name":"D4","ticks":298080,"time":155.25,"velocity":1},{"duration":0.25,"durationTicks":480,"midi":66,"name":"F#4","ticks":298560,"time":155.5,"velocity":1},{"duration":0.25,"durationTicks":480,"midi":62,"name":"D4","ticks":299040,"time":155.75,"velocity":1},{"duration":0.25,"durationTicks":480,"midi":57,"name":"A3","ticks":299520,"time":156,"velocity":1},{"duration":0.25,"durationTicks":480,"midi":62,"name":"D4","ticks":300000,"time":156.25,"velocity":1},{"duration":0.25,"durationTicks":480,"midi":66,"name":"F#4","ticks":300480,"time":156.5,"velocity":1},{"duration":0.25,"durationTicks":480,"midi":62,"name":"D4","ticks":300960,"time":156.75,"velocity":1},{"duration":0.25,"durationTicks":480,"midi":59,"name":"B3","ticks":301440,"time":157,"velocity":1},{"duration":0.25,"durationTicks":480,"midi":62,"name":"D4","ticks":301920,"time":157.25,"velocity":1},{"duration":0.25,"durationTicks":480,"midi":66,"name":"F#4","ticks":302400,"time":157.5,"velocity":1},{"duration":0.25,"durationTicks":480,"midi":62,"name":"D4","ticks":302880,"time":157.75,"velocity":1},{"duration":0.25,"durationTicks":480,"midi":57,"name":"A3","ticks":303360,"time":158,"velocity":1},{"duration":0.25,"durationTicks":480,"midi":62,"name":"D4","ticks":303840,"time":158.25,"velocity":1},{"duration":0.25,"durationTicks":480,"midi":66,"name":"F#4","ticks":304320,"time":158.5,"velocity":1},{"duration":0.25,"durationTicks":480,"midi":62,"name":"D4","ticks":304800,"time":158.75,"velocity":1},{"duration":0.25,"durationTicks":480,"midi":59,"name":"B3","ticks":305280,"time":159,"velocity":1},{"duration":0.25,"durationTicks":480,"midi":62,"name":"D4","ticks":305760,"time":159.25,"velocity":1},{"duration":0.25,"durationTicks":480,"midi":66,"name":"F#4","ticks":306240,"time":159.5,"velocity":1},{"duration":0.25,"durationTicks":480,"midi":62,"name":"D4","ticks":306720,"time":159.75,"velocity":1},{"duration":0.25,"durationTicks":480,"midi":57,"name":"A3","ticks":307200,"time":160,"velocity":1},{"duration":0.25,"durationTicks":480,"midi":62,"name":"D4","ticks":307680,"time":160.25,"velocity":1},{"duration":0.25,"durationTicks":480,"midi":66,"name":"F#4","ticks":308160,"time":160.5,"velocity":1},{"duration":0.25,"durationTicks":480,"midi":62,"name":"D4","ticks":308640,"time":160.75,"velocity":1},{"duration":0.25,"durationTicks":480,"midi":59,"name":"B3","ticks":309120,"time":161,"velocity":1},{"duration":0.25,"durationTicks":480,"midi":62,"name":"D4","ticks":309600,"time":161.25,"velocity":1},{"duration":0.25,"durationTicks":480,"midi":66,"name":"F#4","ticks":310080,"time":161.5,"velocity":1},{"duration":0.25,"durationTicks":480,"midi":62,"name":"D4","ticks":310560,"time":161.75,"velocity":1},{"duration":0.25,"durationTicks":480,"midi":57,"name":"A3","ticks":311040,"time":162,"velocity":1},{"duration":0.25,"durationTicks":480,"midi":62,"name":"D4","ticks":311520,"time":162.25,"velocity":1},{"duration":0.25,"durationTicks":480,"midi":66,"name":"F#4","ticks":312000,"time":162.5,"velocity":1},{"duration":0.25,"durationTicks":480,"midi":62,"name":"D4","ticks":312480,"time":162.75,"velocity":1},{"duration":0.25,"durationTicks":480,"midi":59,"name":"B3","ticks":312960,"time":163,"velocity":1},{"duration":0.25,"durationTicks":480,"midi":62,"name":"D4","ticks":313440,"time":163.25,"velocity":1},{"duration":0.25,"durationTicks":480,"midi":66,"name":"F#4","ticks":313920,"time":163.5,"velocity":1},{"duration":0.25,"durationTicks":480,"midi":62,"name":"D4","ticks":314400,"time":163.75,"velocity":1},{"duration":0.25,"durationTicks":480,"midi":57,"name":"A3","ticks":314880,"time":164,"velocity":1},{"duration":0.25,"durationTicks":480,"midi":62,"name":"D4","ticks":315360,"time":164.25,"velocity":1},{"duration":0.25,"durationTicks":480,"midi":66,"name":"F#4","ticks":315840,"time":164.5,"velocity":1},{"duration":0.25,"durationTicks":480,"midi":62,"name":"D4","ticks":316320,"time":164.75,"velocity":1},{"duration":0.25,"durationTicks":480,"midi":59,"name":"B3","ticks":316800,"time":165,"velocity":1},{"duration":0.25,"durationTicks":480,"midi":62,"name":"D4","ticks":317280,"time":165.25,"velocity":1},{"duration":0.25,"durationTicks":480,"midi":66,"name":"F#4","ticks":317760,"time":165.5,"velocity":1},{"duration":0.25,"durationTicks":480,"midi":62,"name":"D4","ticks":318240,"time":165.75,"velocity":1},{"duration":0.25,"durationTicks":480,"midi":57,"name":"A3","ticks":318720,"time":166,"velocity":1},{"duration":0.25,"durationTicks":480,"midi":62,"name":"D4","ticks":319200,"time":166.25,"velocity":1},{"duration":0.25,"durationTicks":480,"midi":66,"name":"F#4","ticks":319680,"time":166.5,"velocity":1},{"duration":0.25,"durationTicks":480,"midi":62,"name":"D4","ticks":320160,"time":166.75,"velocity":1},{"duration":0.25,"durationTicks":480,"midi":59,"name":"B3","ticks":320640,"time":167,"velocity":1},{"duration":0.25,"durationTicks":480,"midi":62,"name":"D4","ticks":321120,"time":167.25,"velocity":1},{"duration":0.25,"durationTicks":480,"midi":66,"name":"F#4","ticks":321600,"time":167.5,"velocity":1},{"duration":0.25,"durationTicks":480,"midi":62,"name":"D4","ticks":322080,"time":167.75,"velocity":1},{"duration":0.25,"durationTicks":480,"midi":57,"name":"A3","ticks":322560,"time":168,"velocity":1},{"duration":0.25,"durationTicks":480,"midi":62,"name":"D4","ticks":323040,"time":168.25,"velocity":1},{"duration":0.25,"durationTicks":480,"midi":66,"name":"F#4","ticks":323520,"time":168.5,"velocity":1},{"duration":0.25,"durationTicks":480,"midi":62,"name":"D4","ticks":324000,"time":168.75,"velocity":1},{"duration":0.25,"durationTicks":480,"midi":59,"name":"B3","ticks":324480,"time":169,"velocity":1},{"duration":0.25,"durationTicks":480,"midi":62,"name":"D4","ticks":324960,"time":169.25,"velocity":1},{"duration":0.25,"durationTicks":480,"midi":66,"name":"F#4","ticks":325440,"time":169.5,"velocity":1},{"duration":0.25,"durationTicks":480,"midi":62,"name":"D4","ticks":325920,"time":169.75,"velocity":1},{"duration":0.25,"durationTicks":480,"midi":57,"name":"A3","ticks":326400,"time":170,"velocity":1},{"duration":0.25,"durationTicks":480,"midi":62,"name":"D4","ticks":326880,"time":170.25,"velocity":1},{"duration":0.25,"durationTicks":480,"midi":66,"name":"F#4","ticks":327360,"time":170.5,"velocity":1},{"duration":0.25,"durationTicks":480,"midi":62,"name":"D4","ticks":327840,"time":170.75,"velocity":1},{"duration":0.25,"durationTicks":480,"midi":59,"name":"B3","ticks":328320,"time":171,"velocity":1},{"duration":0.25,"durationTicks":480,"midi":62,"name":"D4","ticks":328800,"time":171.25,"velocity":1},{"duration":0.25,"durationTicks":480,"midi":66,"name":"F#4","ticks":329280,"time":171.5,"velocity":1},{"duration":0.25,"durationTicks":480,"midi":62,"name":"D4","ticks":329760,"time":171.75,"velocity":1},{"duration":0.25,"durationTicks":480,"midi":57,"name":"A3","ticks":330240,"time":172,"velocity":1},{"duration":0.25,"durationTicks":480,"midi":62,"name":"D4","ticks":330720,"time":172.25,"velocity":1},{"duration":0.25,"durationTicks":480,"midi":66,"name":"F#4","ticks":331200,"time":172.5,"velocity":1},{"duration":0.25,"durationTicks":480,"midi":62,"name":"D4","ticks":331680,"time":172.75,"velocity":1},{"duration":0.25,"durationTicks":480,"midi":59,"name":"B3","ticks":332160,"time":173,"velocity":1},{"duration":0.25,"durationTicks":480,"midi":62,"name":"D4","ticks":332640,"time":173.25,"velocity":1},{"duration":0.25,"durationTicks":480,"midi":66,"name":"F#4","ticks":333120,"time":173.5,"velocity":1},{"duration":0.25,"durationTicks":480,"midi":62,"name":"D4","ticks":333600,"time":173.75,"velocity":1}],"channel":2,"instrument":{"family":"guitar","number":25,"name":"acoustic guitar (steel)"},"controlChanges":{"7":[{"number":7,"ticks":0,"time":0,"value":0.6141732283464567}],"10":[{"number":10,"ticks":0,"time":0,"value":0.8976377952755905}]},"pitchBends":[],"endOfTrackTicks":334080},{"name":"Guitar 3","notes":[{"duration":0.5,"durationTicks":960,"midi":50,"name":"D3","ticks":88320,"time":46,"velocity":1},{"duration":0.75,"durationTicks":1440,"midi":54,"name":"F#3","ticks":89280,"time":46.5,"velocity":1},{"duration":0.75,"durationTicks":1440,"midi":50,"name":"D3","ticks":89280,"time":46.5,"velocity":1},{"duration":0.75,"durationTicks":1440,"midi":57,"name":"A3","ticks":89280,"time":46.5,"velocity":1},{"duration":0.75,"durationTicks":1440,"midi":62,"name":"D4","ticks":89280,"time":46.5,"velocity":1},{"duration":0.75,"durationTicks":1440,"midi":66,"name":"F#4","ticks":89280,"time":46.5,"velocity":1},{"duration":0.25,"durationTicks":480,"midi":55,"name":"G3","ticks":90720,"time":47.25,"velocity":1},{"duration":0.25,"durationTicks":480,"midi":62,"name":"D4","ticks":90720,"time":47.25,"velocity":1},{"duration":0.25,"durationTicks":480,"midi":67,"name":"G4","ticks":90720,"time":47.25,"velocity":1},{"duration":0.25,"durationTicks":480,"midi":54,"name":"F#3","ticks":91200,"time":47.5,"velocity":1},{"duration":0.25,"durationTicks":480,"midi":62,"name":"D4","ticks":91200,"time":47.5,"velocity":1},{"duration":0.25,"durationTicks":480,"midi":66,"name":"F#4","ticks":91200,"time":47.5,"velocity":1},{"duration":0.25,"durationTicks":480,"midi":57,"name":"A3","ticks":91680,"time":47.75,"velocity":1},{"duration":0.25,"durationTicks":480,"midi":62,"name":"D4","ticks":91680,"time":47.75,"velocity":1},{"duration":0.5,"durationTicks":960,"midi":50,"name":"D3","ticks":92160,"time":48,"velocity":1},{"duration":1.25,"durationTicks":2400,"midi":50,"name":"D3","ticks":92160,"time":48,"velocity":1},{"duration":0.75,"durationTicks":1440,"midi":54,"name":"F#3","ticks":93120,"time":48.5,"velocity":1},{"duration":0.75,"durationTicks":1440,"midi":57,"name":"A3","ticks":93120,"time":48.5,"velocity":1},{"duration":0.75,"durationTicks":1440,"midi":62,"name":"D4","ticks":93120,"time":48.5,"velocity":1},{"duration":0.75,"durationTicks":1440,"midi":66,"name":"F#4","ticks":93120,"time":48.5,"velocity":1},{"duration":1.5,"durationTicks":2880,"midi":50,"name":"D3","ticks":93120,"time":48.5,"velocity":1},{"duration":0.25,"durationTicks":480,"midi":55,"name":"G3","ticks":94560,"time":49.25,"velocity":1},{"duration":0.25,"durationTicks":480,"midi":62,"name":"D4","ticks":94560,"time":49.25,"velocity":1},{"duration":0.25,"durationTicks":480,"midi":67,"name":"G4","ticks":94560,"time":49.25,"velocity":1},{"duration":0.25,"durationTicks":480,"midi":54,"name":"F#3","ticks":95040,"time":49.5,"velocity":1},{"duration":0.25,"durationTicks":480,"midi":62,"name":"D4","ticks":95040,"time":49.5,"velocity":1},{"duration":0.25,"durationTicks":480,"midi":66,"name":"F#4","ticks":95040,"time":49.5,"velocity":1},{"duration":0.25,"durationTicks":480,"midi":57,"name":"A3","ticks":95520,"time":49.75,"velocity":1},{"duration":0.25,"durationTicks":480,"midi":62,"name":"D4","ticks":95520,"time":49.75,"velocity":1},{"duration":0.75,"durationTicks":1440,"midi":50,"name":"D3","ticks":95520,"time":49.75,"velocity":1},{"duration":1.25,"durationTicks":2400,"midi":50,"name":"D3","ticks":96000,"time":50,"velocity":1},{"duration":0.75,"durationTicks":1440,"midi":54,"name":"F#3","ticks":96960,"time":50.5,"velocity":1},{"duration":0.75,"durationTicks":1440,"midi":57,"name":"A3","ticks":96960,"time":50.5,"velocity":1},{"duration":0.75,"durationTicks":1440,"midi":62,"name":"D4","ticks":96960,"time":50.5,"velocity":1},{"duration":0.75,"durationTicks":1440,"midi":66,"name":"F#4","ticks":96960,"time":50.5,"velocity":1},{"duration":1.5,"durationTicks":2880,"midi":50,"name":"D3","ticks":96960,"time":50.5,"velocity":1},{"duration":0.25,"durationTicks":480,"midi":55,"name":"G3","ticks":98400,"time":51.25,"velocity":1},{"duration":0.25,"durationTicks":480,"midi":62,"name":"D4","ticks":98400,"time":51.25,"velocity":1},{"duration":0.25,"durationTicks":480,"midi":67,"name":"G4","ticks":98400,"time":51.25,"velocity":1},{"duration":0.25,"durationTicks":480,"midi":54,"name":"F#3","ticks":98880,"time":51.5,"velocity":1},{"duration":0.25,"durationTicks":480,"midi":62,"name":"D4","ticks":98880,"time":51.5,"velocity":1},{"duration":0.25,"durationTicks":480,"midi":66,"name":"F#4","ticks":98880,"time":51.5,"velocity":1},{"duration":0.25,"durationTicks":480,"midi":57,"name":"A3","ticks":99360,"time":51.75,"velocity":1},{"duration":0.25,"durationTicks":480,"midi":62,"name":"D4","ticks":99360,"time":51.75,"velocity":1},{"duration":0.5,"durationTicks":960,"midi":50,"name":"D3","ticks":99840,"time":52,"velocity":1},{"duration":1.25,"durationTicks":2400,"midi":50,"name":"D3","ticks":99840,"time":52,"velocity":1},{"duration":0.75,"durationTicks":1440,"midi":54,"name":"F#3","ticks":100800,"time":52.5,"velocity":1},{"duration":0.75,"durationTicks":1440,"midi":57,"name":"A3","ticks":100800,"time":52.5,"velocity":1},{"duration":0.75,"durationTicks":1440,"midi":62,"name":"D4","ticks":100800,"time":52.5,"velocity":1},{"duration":0.75,"durationTicks":1440,"midi":66,"name":"F#4","ticks":100800,"time":52.5,"velocity":1},{"duration":1.5,"durationTicks":2880,"midi":50,"name":"D3","ticks":100800,"time":52.5,"velocity":1},{"duration":0.25,"durationTicks":480,"midi":55,"name":"G3","ticks":102240,"time":53.25,"velocity":1},{"duration":0.25,"durationTicks":480,"midi":62,"name":"D4","ticks":102240,"time":53.25,"velocity":1},{"duration":0.25,"durationTicks":480,"midi":67,"name":"G4","ticks":102240,"time":53.25,"velocity":1},{"duration":0.25,"durationTicks":480,"midi":54,"name":"F#3","ticks":102720,"time":53.5,"velocity":1},{"duration":0.25,"durationTicks":480,"midi":62,"name":"D4","ticks":102720,"time":53.5,"velocity":1},{"duration":0.25,"durationTicks":480,"midi":66,"name":"F#4","ticks":102720,"time":53.5,"velocity":1},{"duration":0.25,"durationTicks":480,"midi":57,"name":"A3","ticks":103200,"time":53.75,"velocity":1},{"duration":0.25,"durationTicks":480,"midi":62,"name":"D4","ticks":103200,"time":53.75,"velocity":1},{"duration":0.75,"durationTicks":1440,"midi":50,"name":"D3","ticks":103200,"time":53.75,"velocity":1},{"duration":1.25,"durationTicks":2400,"midi":50,"name":"D3","ticks":103680,"time":54,"velocity":1},{"duration":0.75,"durationTicks":1440,"midi":54,"name":"F#3","ticks":104640,"time":54.5,"velocity":1},{"duration":0.75,"durationTicks":1440,"midi":57,"name":"A3","ticks":104640,"time":54.5,"velocity":1},{"duration":0.75,"durationTicks":1440,"midi":62,"name":"D4","ticks":104640,"time":54.5,"velocity":1},{"duration":0.75,"durationTicks":1440,"midi":66,"name":"F#4","ticks":104640,"time":54.5,"velocity":1},{"duration":1.5,"durationTicks":2880,"midi":50,"name":"D3","ticks":104640,"time":54.5,"velocity":1},{"duration":0.25,"durationTicks":480,"midi":55,"name":"G3","ticks":106080,"time":55.25,"velocity":1},{"duration":0.25,"durationTicks":480,"midi":62,"name":"D4","ticks":106080,"time":55.25,"velocity":1},{"duration":0.25,"durationTicks":480,"midi":67,"name":"G4","ticks":106080,"time":55.25,"velocity":1},{"duration":0.25,"durationTicks":480,"midi":54,"name":"F#3","ticks":106560,"time":55.5,"velocity":1},{"duration":0.25,"durationTicks":480,"midi":62,"name":"D4","ticks":106560,"time":55.5,"velocity":1},{"duration":0.25,"durationTicks":480,"midi":66,"name":"F#4","ticks":106560,"time":55.5,"velocity":1},{"duration":0.25,"durationTicks":480,"midi":57,"name":"A3","ticks":107040,"time":55.75,"velocity":1},{"duration":0.25,"durationTicks":480,"midi":62,"name":"D4","ticks":107040,"time":55.75,"velocity":1},{"duration":0.5,"durationTicks":960,"midi":50,"name":"D3","ticks":107520,"time":56,"velocity":1},{"duration":1.25,"durationTicks":2400,"midi":50,"name":"D3","ticks":107520,"time":56,"velocity":1},{"duration":0.75,"durationTicks":1440,"midi":54,"name":"F#3","ticks":108480,"time":56.5,"velocity":1},{"duration":0.75,"durationTicks":1440,"midi":57,"name":"A3","ticks":108480,"time":56.5,"velocity":1},{"duration":0.75,"durationTicks":1440,"midi":62,"name":"D4","ticks":108480,"time":56.5,"velocity":1},{"duration":0.75,"durationTicks":1440,"midi":66,"name":"F#4","ticks":108480,"time":56.5,"velocity":1},{"duration":1.5,"durationTicks":2880,"midi":50,"name":"D3","ticks":108480,"time":56.5,"velocity":1},{"duration":0.25,"durationTicks":480,"midi":55,"name":"G3","ticks":109920,"time":57.25,"velocity":1},{"duration":0.25,"durationTicks":480,"midi":62,"name":"D4","ticks":109920,"time":57.25,"velocity":1},{"duration":0.25,"durationTicks":480,"midi":67,"name":"G4","ticks":109920,"time":57.25,"velocity":1},{"duration":0.25,"durationTicks":480,"midi":54,"name":"F#3","ticks":110400,"time":57.5,"velocity":1},{"duration":0.25,"durationTicks":480,"midi":62,"name":"D4","ticks":110400,"time":57.5,"velocity":1},{"duration":0.25,"durationTicks":480,"midi":66,"name":"F#4","ticks":110400,"time":57.5,"velocity":1},{"duration":0.25,"durationTicks":480,"midi":57,"name":"A3","ticks":110880,"time":57.75,"velocity":1},{"duration":0.25,"durationTicks":480,"midi":62,"name":"D4","ticks":110880,"time":57.75,"velocity":1},{"duration":0.75,"durationTicks":1440,"midi":50,"name":"D3","ticks":110880,"time":57.75,"velocity":1},{"duration":1.25,"durationTicks":2400,"midi":50,"name":"D3","ticks":111360,"time":58,"velocity":1},{"duration":0.75,"durationTicks":1440,"midi":54,"name":"F#3","ticks":112320,"time":58.5,"velocity":1},{"duration":0.75,"durationTicks":1440,"midi":57,"name":"A3","ticks":112320,"time":58.5,"velocity":1},{"duration":0.75,"durationTicks":1440,"midi":62,"name":"D4","ticks":112320,"time":58.5,"velocity":1},{"duration":0.75,"durationTicks":1440,"midi":66,"name":"F#4","ticks":112320,"time":58.5,"velocity":1},{"duration":1.5,"durationTicks":2880,"midi":50,"name":"D3","ticks":112320,"time":58.5,"velocity":1},{"duration":0.25,"durationTicks":480,"midi":55,"name":"G3","ticks":113760,"time":59.25,"velocity":1},{"duration":0.25,"durationTicks":480,"midi":62,"name":"D4","ticks":113760,"time":59.25,"velocity":1},{"duration":0.25,"durationTicks":480,"midi":67,"name":"G4","ticks":113760,"time":59.25,"velocity":1},{"duration":0.25,"durationTicks":480,"midi":54,"name":"F#3","ticks":114240,"time":59.5,"velocity":1},{"duration":0.25,"durationTicks":480,"midi":62,"name":"D4","ticks":114240,"time":59.5,"velocity":1},{"duration":0.25,"durationTicks":480,"midi":66,"name":"F#4","ticks":114240,"time":59.5,"velocity":1},{"duration":0.25,"durationTicks":480,"midi":57,"name":"A3","ticks":114720,"time":59.75,"velocity":1},{"duration":0.25,"durationTicks":480,"midi":62,"name":"D4","ticks":114720,"time":59.75,"velocity":1},{"duration":0.5,"durationTicks":960,"midi":50,"name":"D3","ticks":115200,"time":60,"velocity":1},{"duration":1.25,"durationTicks":2400,"midi":50,"name":"D3","ticks":115200,"time":60,"velocity":1},{"duration":0.75,"durationTicks":1440,"midi":54,"name":"F#3","ticks":116160,"time":60.5,"velocity":1},{"duration":0.75,"durationTicks":1440,"midi":57,"name":"A3","ticks":116160,"time":60.5,"velocity":1},{"duration":0.75,"durationTicks":1440,"midi":62,"name":"D4","ticks":116160,"time":60.5,"velocity":1},{"duration":0.75,"durationTicks":1440,"midi":66,"name":"F#4","ticks":116160,"time":60.5,"velocity":1},{"duration":1.5,"durationTicks":2880,"midi":50,"name":"D3","ticks":116160,"time":60.5,"velocity":1},{"duration":0.25,"durationTicks":480,"midi":55,"name":"G3","ticks":117600,"time":61.25,"velocity":1},{"duration":0.25,"durationTicks":480,"midi":62,"name":"D4","ticks":117600,"time":61.25,"velocity":1},{"duration":0.25,"durationTicks":480,"midi":67,"name":"G4","ticks":117600,"time":61.25,"velocity":1},{"duration":0.25,"durationTicks":480,"midi":54,"name":"F#3","ticks":118080,"time":61.5,"velocity":1},{"duration":0.25,"durationTicks":480,"midi":62,"name":"D4","ticks":118080,"time":61.5,"velocity":1},{"duration":0.25,"durationTicks":480,"midi":66,"name":"F#4","ticks":118080,"time":61.5,"velocity":1},{"duration":0.25,"durationTicks":480,"midi":57,"name":"A3","ticks":118560,"time":61.75,"velocity":1},{"duration":0.25,"durationTicks":480,"midi":62,"name":"D4","ticks":118560,"time":61.75,"velocity":1},{"duration":4.75,"durationTicks":9120,"midi":50,"name":"D3","ticks":118560,"time":61.75,"velocity":1},{"duration":0.5,"durationTicks":960,"midi":40,"name":"E2","ticks":119040,"time":62,"velocity":1},{"duration":0.5,"durationTicks":960,"midi":40,"name":"E2","ticks":120000,"time":62.5,"velocity":1},{"duration":0.5,"durationTicks":960,"midi":47,"name":"B2","ticks":120000,"time":62.5,"velocity":1},{"duration":0.5,"durationTicks":960,"midi":52,"name":"E3","ticks":120000,"time":62.5,"velocity":1},{"duration":0.5,"durationTicks":960,"midi":55,"name":"G3","ticks":120000,"time":62.5,"velocity":1},{"duration":0.5,"durationTicks":960,"midi":62,"name":"D4","ticks":120000,"time":62.5,"velocity":1},{"duration":0.5,"durationTicks":960,"midi":67,"name":"G4","ticks":120000,"time":62.5,"velocity":1},{"duration":0.25,"durationTicks":480,"midi":40,"name":"E2","ticks":120960,"time":63,"velocity":1},{"duration":0.25,"durationTicks":480,"midi":67,"name":"G4","ticks":120960,"time":63,"velocity":1},{"duration":0.25,"durationTicks":480,"midi":62,"name":"D4","ticks":120960,"time":63,"velocity":1},{"duration":0.25,"durationTicks":480,"midi":55,"name":"G3","ticks":120960,"time":63,"velocity":1},{"duration":0.25,"durationTicks":480,"midi":52,"name":"E3","ticks":120960,"time":63,"velocity":1},{"duration":0.25,"durationTicks":480,"midi":47,"name":"B2","ticks":120960,"time":63,"velocity":1},{"duration":0.25,"durationTicks":480,"midi":40,"name":"E2","ticks":121440,"time":63.25,"velocity":1},{"duration":0.25,"durationTicks":480,"midi":67,"name":"G4","ticks":121440,"time":63.25,"velocity":1},{"duration":0.25,"durationTicks":480,"midi":62,"name":"D4","ticks":121440,"time":63.25,"velocity":1},{"duration":0.25,"durationTicks":480,"midi":55,"name":"G3","ticks":121440,"time":63.25,"velocity":1},{"duration":0.25,"durationTicks":480,"midi":52,"name":"E3","ticks":121440,"time":63.25,"velocity":1},{"duration":0.25,"durationTicks":480,"midi":47,"name":"B2","ticks":121440,"time":63.25,"velocity":1},{"duration":0.25,"durationTicks":480,"midi":40,"name":"E2","ticks":121920,"time":63.5,"velocity":1},{"duration":0.25,"durationTicks":480,"midi":67,"name":"G4","ticks":121920,"time":63.5,"velocity":1},{"duration":0.25,"durationTicks":480,"midi":62,"name":"D4","ticks":121920,"time":63.5,"velocity":1},{"duration":0.25,"durationTicks":480,"midi":55,"name":"G3","ticks":121920,"time":63.5,"velocity":1},{"duration":0.25,"durationTicks":480,"midi":52,"name":"E3","ticks":121920,"time":63.5,"velocity":1},{"duration":0.25,"durationTicks":480,"midi":47,"name":"B2","ticks":121920,"time":63.5,"velocity":1},{"duration":0.25,"durationTicks":480,"midi":40,"name":"E2","ticks":122400,"time":63.75,"velocity":1},{"duration":0.25,"durationTicks":480,"midi":67,"name":"G4","ticks":122400,"time":63.75,"velocity":1},{"duration":0.25,"durationTicks":480,"midi":62,"name":"D4","ticks":122400,"time":63.75,"velocity":1},{"duration":0.25,"durationTicks":480,"midi":55,"name":"G3","ticks":122400,"time":63.75,"velocity":1},{"duration":0.25,"durationTicks":480,"midi":52,"name":"E3","ticks":122400,"time":63.75,"velocity":1},{"duration":0.25,"durationTicks":480,"midi":47,"name":"B2","ticks":122400,"time":63.75,"velocity":1},{"duration":0.5,"durationTicks":960,"midi":45,"name":"A2","ticks":122880,"time":64,"velocity":1},{"duration":0.5,"durationTicks":960,"midi":45,"name":"A2","ticks":123840,"time":64.5,"velocity":1},{"duration":0.5,"durationTicks":960,"midi":52,"name":"E3","ticks":123840,"time":64.5,"velocity":1},{"duration":0.5,"durationTicks":960,"midi":55,"name":"G3","ticks":123840,"time":64.5,"velocity":1},{"duration":0.5,"durationTicks":960,"midi":62,"name":"D4","ticks":123840,"time":64.5,"velocity":1},{"duration":0.5,"durationTicks":960,"midi":64,"name":"E4","ticks":123840,"time":64.5,"velocity":1},{"duration":0.25,"durationTicks":480,"midi":45,"name":"A2","ticks":124800,"time":65,"velocity":1},{"duration":0.25,"durationTicks":480,"midi":52,"name":"E3","ticks":124800,"time":65,"velocity":1},{"duration":0.25,"durationTicks":480,"midi":55,"name":"G3","ticks":124800,"time":65,"velocity":1},{"duration":0.25,"durationTicks":480,"midi":62,"name":"D4","ticks":124800,"time":65,"velocity":1},{"duration":0.25,"durationTicks":480,"midi":64,"name":"E4","ticks":124800,"time":65,"velocity":1},{"duration":0.25,"durationTicks":480,"midi":45,"name":"A2","ticks":125280,"time":65.25,"velocity":1},{"duration":0.25,"durationTicks":480,"midi":52,"name":"E3","ticks":125280,"time":65.25,"velocity":1},{"duration":0.25,"durationTicks":480,"midi":55,"name":"G3","ticks":125280,"time":65.25,"velocity":1},{"duration":0.25,"durationTicks":480,"midi":62,"name":"D4","ticks":125280,"time":65.25,"velocity":1},{"duration":0.25,"durationTicks":480,"midi":64,"name":"E4","ticks":125280,"time":65.25,"velocity":1},{"duration":0.25,"durationTicks":480,"midi":45,"name":"A2","ticks":125760,"time":65.5,"velocity":1},{"duration":0.25,"durationTicks":480,"midi":52,"name":"E3","ticks":125760,"time":65.5,"velocity":1},{"duration":0.25,"durationTicks":480,"midi":55,"name":"G3","ticks":125760,"time":65.5,"velocity":1},{"duration":0.25,"durationTicks":480,"midi":62,"name":"D4","ticks":125760,"time":65.5,"velocity":1},{"duration":0.25,"durationTicks":480,"midi":64,"name":"E4","ticks":125760,"time":65.5,"velocity":1},{"duration":0.25,"durationTicks":480,"midi":45,"name":"A2","ticks":126240,"time":65.75,"velocity":1},{"duration":0.25,"durationTicks":480,"midi":52,"name":"E3","ticks":126240,"time":65.75,"velocity":1},{"duration":0.25,"durationTicks":480,"midi":55,"name":"G3","ticks":126240,"time":65.75,"velocity":1},{"duration":0.25,"durationTicks":480,"midi":62,"name":"D4","ticks":126240,"time":65.75,"velocity":1},{"duration":0.25,"durationTicks":480,"midi":64,"name":"E4","ticks":126240,"time":65.75,"velocity":1},{"duration":1.25,"durationTicks":2400,"midi":50,"name":"D3","ticks":126720,"time":66,"velocity":1},{"duration":0.75,"durationTicks":1440,"midi":54,"name":"F#3","ticks":127680,"time":66.5,"velocity":1},{"duration":0.75,"durationTicks":1440,"midi":57,"name":"A3","ticks":127680,"time":66.5,"velocity":1},{"duration":0.75,"durationTicks":1440,"midi":62,"name":"D4","ticks":127680,"time":66.5,"velocity":1},{"duration":0.75,"durationTicks":1440,"midi":66,"name":"F#4","ticks":127680,"time":66.5,"velocity":1},{"duration":1.5,"durationTicks":2880,"midi":50,"name":"D3","ticks":127680,"time":66.5,"velocity":1},{"duration":0.25,"durationTicks":480,"midi":55,"name":"G3","ticks":129120,"time":67.25,"velocity":1},{"duration":0.25,"durationTicks":480,"midi":62,"name":"D4","ticks":129120,"time":67.25,"velocity":1},{"duration":0.25,"durationTicks":480,"midi":67,"name":"G4","ticks":129120,"time":67.25,"velocity":1},{"duration":0.25,"durationTicks":480,"midi":54,"name":"F#3","ticks":129600,"time":67.5,"velocity":1},{"duration":0.25,"durationTicks":480,"midi":62,"name":"D4","ticks":129600,"time":67.5,"velocity":1},{"duration":0.25,"durationTicks":480,"midi":66,"name":"F#4","ticks":129600,"time":67.5,"velocity":1},{"duration":0.25,"durationTicks":480,"midi":57,"name":"A3","ticks":130080,"time":67.75,"velocity":1},{"duration":0.25,"durationTicks":480,"midi":62,"name":"D4","ticks":130080,"time":67.75,"velocity":1},{"duration":0.5,"durationTicks":960,"midi":50,"name":"D3","ticks":130560,"time":68,"velocity":1},{"duration":1.25,"durationTicks":2400,"midi":50,"name":"D3","ticks":130560,"time":68,"velocity":1},{"duration":0.75,"durationTicks":1440,"midi":54,"name":"F#3","ticks":131520,"time":68.5,"velocity":1},{"duration":0.75,"durationTicks":1440,"midi":57,"name":"A3","ticks":131520,"time":68.5,"velocity":1},{"duration":0.75,"durationTicks":1440,"midi":62,"name":"D4","ticks":131520,"time":68.5,"velocity":1},{"duration":0.75,"durationTicks":1440,"midi":66,"name":"F#4","ticks":131520,"time":68.5,"velocity":1},{"duration":1.5,"durationTicks":2880,"midi":50,"name":"D3","ticks":131520,"time":68.5,"velocity":1},{"duration":0.25,"durationTicks":480,"midi":55,"name":"G3","ticks":132960,"time":69.25,"velocity":1},{"duration":0.25,"durationTicks":480,"midi":62,"name":"D4","ticks":132960,"time":69.25,"velocity":1},{"duration":0.25,"durationTicks":480,"midi":67,"name":"G4","ticks":132960,"time":69.25,"velocity":1},{"duration":0.25,"durationTicks":480,"midi":54,"name":"F#3","ticks":133440,"time":69.5,"velocity":1},{"duration":0.25,"durationTicks":480,"midi":62,"name":"D4","ticks":133440,"time":69.5,"velocity":1},{"duration":0.25,"durationTicks":480,"midi":66,"name":"F#4","ticks":133440,"time":69.5,"velocity":1},{"duration":0.25,"durationTicks":480,"midi":57,"name":"A3","ticks":133920,"time":69.75,"velocity":1},{"duration":0.25,"durationTicks":480,"midi":62,"name":"D4","ticks":133920,"time":69.75,"velocity":1},{"duration":0.75,"durationTicks":1440,"midi":50,"name":"D3","ticks":133920,"time":69.75,"velocity":1},{"duration":1.25,"durationTicks":2400,"midi":50,"name":"D3","ticks":134400,"time":70,"velocity":1},{"duration":0.75,"durationTicks":1440,"midi":54,"name":"F#3","ticks":135360,"time":70.5,"velocity":1},{"duration":0.75,"durationTicks":1440,"midi":57,"name":"A3","ticks":135360,"time":70.5,"velocity":1},{"duration":0.75,"durationTicks":1440,"midi":62,"name":"D4","ticks":135360,"time":70.5,"velocity":1},{"duration":0.75,"durationTicks":1440,"midi":66,"name":"F#4","ticks":135360,"time":70.5,"velocity":1},{"duration":1.5,"durationTicks":2880,"midi":50,"name":"D3","ticks":135360,"time":70.5,"velocity":1},{"duration":0.25,"durationTicks":480,"midi":55,"name":"G3","ticks":136800,"time":71.25,"velocity":1},{"duration":0.25,"durationTicks":480,"midi":62,"name":"D4","ticks":136800,"time":71.25,"velocity":1},{"duration":0.25,"durationTicks":480,"midi":67,"name":"G4","ticks":136800,"time":71.25,"velocity":1},{"duration":0.25,"durationTicks":480,"midi":54,"name":"F#3","ticks":137280,"time":71.5,"velocity":1},{"duration":0.25,"durationTicks":480,"midi":62,"name":"D4","ticks":137280,"time":71.5,"velocity":1},{"duration":0.25,"durationTicks":480,"midi":66,"name":"F#4","ticks":137280,"time":71.5,"velocity":1},{"duration":0.25,"durationTicks":480,"midi":57,"name":"A3","ticks":137760,"time":71.75,"velocity":1},{"duration":0.25,"durationTicks":480,"midi":62,"name":"D4","ticks":137760,"time":71.75,"velocity":1},{"duration":0.5,"durationTicks":960,"midi":50,"name":"D3","ticks":138240,"time":72,"velocity":1},{"duration":1.25,"durationTicks":2400,"midi":50,"name":"D3","ticks":138240,"time":72,"velocity":1},{"duration":0.75,"durationTicks":1440,"midi":54,"name":"F#3","ticks":139200,"time":72.5,"velocity":1},{"duration":0.75,"durationTicks":1440,"midi":57,"name":"A3","ticks":139200,"time":72.5,"velocity":1},{"duration":0.75,"durationTicks":1440,"midi":62,"name":"D4","ticks":139200,"time":72.5,"velocity":1},{"duration":0.75,"durationTicks":1440,"midi":66,"name":"F#4","ticks":139200,"time":72.5,"velocity":1},{"duration":1.5,"durationTicks":2880,"midi":50,"name":"D3","ticks":139200,"time":72.5,"velocity":1},{"duration":0.25,"durationTicks":480,"midi":55,"name":"G3","ticks":140640,"time":73.25,"velocity":1},{"duration":0.25,"durationTicks":480,"midi":62,"name":"D4","ticks":140640,"time":73.25,"velocity":1},{"duration":0.25,"durationTicks":480,"midi":67,"name":"G4","ticks":140640,"time":73.25,"velocity":1},{"duration":0.25,"durationTicks":480,"midi":54,"name":"F#3","ticks":141120,"time":73.5,"velocity":1},{"duration":0.25,"durationTicks":480,"midi":62,"name":"D4","ticks":141120,"time":73.5,"velocity":1},{"duration":0.25,"durationTicks":480,"midi":66,"name":"F#4","ticks":141120,"time":73.5,"velocity":1},{"duration":0.25,"durationTicks":480,"midi":57,"name":"A3","ticks":141600,"time":73.75,"velocity":1},{"duration":0.25,"durationTicks":480,"midi":62,"name":"D4","ticks":141600,"time":73.75,"velocity":1},{"duration":0.75,"durationTicks":1440,"midi":50,"name":"D3","ticks":141600,"time":73.75,"velocity":1},{"duration":1.25,"durationTicks":2400,"midi":50,"name":"D3","ticks":142080,"time":74,"velocity":1},{"duration":0.75,"durationTicks":1440,"midi":54,"name":"F#3","ticks":143040,"time":74.5,"velocity":1},{"duration":0.75,"durationTicks":1440,"midi":57,"name":"A3","ticks":143040,"time":74.5,"velocity":1},{"duration":0.75,"durationTicks":1440,"midi":62,"name":"D4","ticks":143040,"time":74.5,"velocity":1},{"duration":0.75,"durationTicks":1440,"midi":66,"name":"F#4","ticks":143040,"time":74.5,"velocity":1},{"duration":1.5,"durationTicks":2880,"midi":50,"name":"D3","ticks":143040,"time":74.5,"velocity":1},{"duration":0.25,"durationTicks":480,"midi":55,"name":"G3","ticks":144480,"time":75.25,"velocity":1},{"duration":0.25,"durationTicks":480,"midi":62,"name":"D4","ticks":144480,"time":75.25,"velocity":1},{"duration":0.25,"durationTicks":480,"midi":67,"name":"G4","ticks":144480,"time":75.25,"velocity":1},{"duration":0.25,"durationTicks":480,"midi":54,"name":"F#3","ticks":144960,"time":75.5,"velocity":1},{"duration":0.25,"durationTicks":480,"midi":62,"name":"D4","ticks":144960,"time":75.5,"velocity":1},{"duration":0.25,"durationTicks":480,"midi":66,"name":"F#4","ticks":144960,"time":75.5,"velocity":1},{"duration":0.25,"durationTicks":480,"midi":57,"name":"A3","ticks":145440,"time":75.75,"velocity":1},{"duration":0.25,"durationTicks":480,"midi":62,"name":"D4","ticks":145440,"time":75.75,"velocity":1},{"duration":0.5,"durationTicks":960,"midi":50,"name":"D3","ticks":145920,"time":76,"velocity":1},{"duration":1.25,"durationTicks":2400,"midi":50,"name":"D3","ticks":145920,"time":76,"velocity":1},{"duration":0.75,"durationTicks":1440,"midi":54,"name":"F#3","ticks":146880,"time":76.5,"velocity":1},{"duration":0.75,"durationTicks":1440,"midi":57,"name":"A3","ticks":146880,"time":76.5,"velocity":1},{"duration":0.75,"durationTicks":1440,"midi":62,"name":"D4","ticks":146880,"time":76.5,"velocity":1},{"duration":0.75,"durationTicks":1440,"midi":66,"name":"F#4","ticks":146880,"time":76.5,"velocity":1},{"duration":1.5,"durationTicks":2880,"midi":50,"name":"D3","ticks":146880,"time":76.5,"velocity":1},{"duration":0.25,"durationTicks":480,"midi":55,"name":"G3","ticks":148320,"time":77.25,"velocity":1},{"duration":0.25,"durationTicks":480,"midi":62,"name":"D4","ticks":148320,"time":77.25,"velocity":1},{"duration":0.25,"durationTicks":480,"midi":67,"name":"G4","ticks":148320,"time":77.25,"velocity":1},{"duration":0.25,"durationTicks":480,"midi":54,"name":"F#3","ticks":148800,"time":77.5,"velocity":1},{"duration":0.25,"durationTicks":480,"midi":62,"name":"D4","ticks":148800,"time":77.5,"velocity":1},{"duration":0.25,"durationTicks":480,"midi":66,"name":"F#4","ticks":148800,"time":77.5,"velocity":1},{"duration":0.25,"durationTicks":480,"midi":57,"name":"A3","ticks":149280,"time":77.75,"velocity":1},{"duration":0.25,"durationTicks":480,"midi":62,"name":"D4","ticks":149280,"time":77.75,"velocity":1},{"duration":14.75,"durationTicks":28320,"midi":50,"name":"D3","ticks":149280,"time":77.75,"velocity":1},{"duration":0.5,"durationTicks":960,"midi":40,"name":"E2","ticks":149760,"time":78,"velocity":1},{"duration":0.5,"durationTicks":960,"midi":40,"name":"E2","ticks":150720,"time":78.5,"velocity":1},{"duration":0.5,"durationTicks":960,"midi":47,"name":"B2","ticks":150720,"time":78.5,"velocity":1},{"duration":0.5,"durationTicks":960,"midi":52,"name":"E3","ticks":150720,"time":78.5,"velocity":1},{"duration":0.5,"durationTicks":960,"midi":55,"name":"G3","ticks":150720,"time":78.5,"velocity":1},{"duration":0.5,"durationTicks":960,"midi":62,"name":"D4","ticks":150720,"time":78.5,"velocity":1},{"duration":0.5,"durationTicks":960,"midi":67,"name":"G4","ticks":150720,"time":78.5,"velocity":1},{"duration":0.25,"durationTicks":480,"midi":40,"name":"E2","ticks":151680,"time":79,"velocity":1},{"duration":0.25,"durationTicks":480,"midi":67,"name":"G4","ticks":151680,"time":79,"velocity":1},{"duration":0.25,"durationTicks":480,"midi":62,"name":"D4","ticks":151680,"time":79,"velocity":1},{"duration":0.25,"durationTicks":480,"midi":55,"name":"G3","ticks":151680,"time":79,"velocity":1},{"duration":0.25,"durationTicks":480,"midi":52,"name":"E3","ticks":151680,"time":79,"velocity":1},{"duration":0.25,"durationTicks":480,"midi":47,"name":"B2","ticks":151680,"time":79,"velocity":1},{"duration":0.25,"durationTicks":480,"midi":40,"name":"E2","ticks":152160,"time":79.25,"velocity":1},{"duration":0.25,"durationTicks":480,"midi":67,"name":"G4","ticks":152160,"time":79.25,"velocity":1},{"duration":0.25,"durationTicks":480,"midi":62,"name":"D4","ticks":152160,"time":79.25,"velocity":1},{"duration":0.25,"durationTicks":480,"midi":55,"name":"G3","ticks":152160,"time":79.25,"velocity":1},{"duration":0.25,"durationTicks":480,"midi":52,"name":"E3","ticks":152160,"time":79.25,"velocity":1},{"duration":0.25,"durationTicks":480,"midi":47,"name":"B2","ticks":152160,"time":79.25,"velocity":1},{"duration":0.25,"durationTicks":480,"midi":40,"name":"E2","ticks":152640,"time":79.5,"velocity":1},{"duration":0.25,"durationTicks":480,"midi":67,"name":"G4","ticks":152640,"time":79.5,"velocity":1},{"duration":0.25,"durationTicks":480,"midi":62,"name":"D4","ticks":152640,"time":79.5,"velocity":1},{"duration":0.25,"durationTicks":480,"midi":55,"name":"G3","ticks":152640,"time":79.5,"velocity":1},{"duration":0.25,"durationTicks":480,"midi":52,"name":"E3","ticks":152640,"time":79.5,"velocity":1},{"duration":0.25,"durationTicks":480,"midi":47,"name":"B2","ticks":152640,"time":79.5,"velocity":1},{"duration":0.25,"durationTicks":480,"midi":40,"name":"E2","ticks":153120,"time":79.75,"velocity":1},{"duration":0.25,"durationTicks":480,"midi":67,"name":"G4","ticks":153120,"time":79.75,"velocity":1},{"duration":0.25,"durationTicks":480,"midi":62,"name":"D4","ticks":153120,"time":79.75,"velocity":1},{"duration":0.25,"durationTicks":480,"midi":55,"name":"G3","ticks":153120,"time":79.75,"velocity":1},{"duration":0.25,"durationTicks":480,"midi":52,"name":"E3","ticks":153120,"time":79.75,"velocity":1},{"duration":0.25,"durationTicks":480,"midi":47,"name":"B2","ticks":153120,"time":79.75,"velocity":1},{"duration":0.5,"durationTicks":960,"midi":45,"name":"A2","ticks":153600,"time":80,"velocity":1},{"duration":0.5,"durationTicks":960,"midi":45,"name":"A2","ticks":154560,"time":80.5,"velocity":1},{"duration":0.5,"durationTicks":960,"midi":52,"name":"E3","ticks":154560,"time":80.5,"velocity":1},{"duration":0.5,"durationTicks":960,"midi":55,"name":"G3","ticks":154560,"time":80.5,"velocity":1},{"duration":0.5,"durationTicks":960,"midi":62,"name":"D4","ticks":154560,"time":80.5,"velocity":1},{"duration":0.5,"durationTicks":960,"midi":64,"name":"E4","ticks":154560,"time":80.5,"velocity":1},{"duration":0.25,"durationTicks":480,"midi":45,"name":"A2","ticks":155520,"time":81,"velocity":1},{"duration":0.25,"durationTicks":480,"midi":52,"name":"E3","ticks":155520,"time":81,"velocity":1},{"duration":0.25,"durationTicks":480,"midi":55,"name":"G3","ticks":155520,"time":81,"velocity":1},{"duration":0.25,"durationTicks":480,"midi":62,"name":"D4","ticks":155520,"time":81,"velocity":1},{"duration":0.25,"durationTicks":480,"midi":64,"name":"E4","ticks":155520,"time":81,"velocity":1},{"duration":0.25,"durationTicks":480,"midi":45,"name":"A2","ticks":156000,"time":81.25,"velocity":1},{"duration":0.25,"durationTicks":480,"midi":52,"name":"E3","ticks":156000,"time":81.25,"velocity":1},{"duration":0.25,"durationTicks":480,"midi":55,"name":"G3","ticks":156000,"time":81.25,"velocity":1},{"duration":0.25,"durationTicks":480,"midi":62,"name":"D4","ticks":156000,"time":81.25,"velocity":1},{"duration":0.25,"durationTicks":480,"midi":64,"name":"E4","ticks":156000,"time":81.25,"velocity":1},{"duration":0.25,"durationTicks":480,"midi":45,"name":"A2","ticks":156480,"time":81.5,"velocity":1},{"duration":0.25,"durationTicks":480,"midi":52,"name":"E3","ticks":156480,"time":81.5,"velocity":1},{"duration":0.25,"durationTicks":480,"midi":55,"name":"G3","ticks":156480,"time":81.5,"velocity":1},{"duration":0.25,"durationTicks":480,"midi":62,"name":"D4","ticks":156480,"time":81.5,"velocity":1},{"duration":0.25,"durationTicks":480,"midi":64,"name":"E4","ticks":156480,"time":81.5,"velocity":1},{"duration":0.25,"durationTicks":480,"midi":45,"name":"A2","ticks":156960,"time":81.75,"velocity":1},{"duration":0.25,"durationTicks":480,"midi":52,"name":"E3","ticks":156960,"time":81.75,"velocity":1},{"duration":0.25,"durationTicks":480,"midi":55,"name":"G3","ticks":156960,"time":81.75,"velocity":1},{"duration":0.25,"durationTicks":480,"midi":62,"name":"D4","ticks":156960,"time":81.75,"velocity":1},{"duration":0.25,"durationTicks":480,"midi":64,"name":"E4","ticks":156960,"time":81.75,"velocity":1},{"duration":0.5,"durationTicks":960,"midi":46,"name":"A#2","ticks":157440,"time":82,"velocity":1},{"duration":0.5,"durationTicks":960,"midi":53,"name":"F3","ticks":157440,"time":82,"velocity":1},{"duration":0.5,"durationTicks":960,"midi":58,"name":"A#3","ticks":157440,"time":82,"velocity":1},{"duration":0.5,"durationTicks":960,"midi":62,"name":"D4","ticks":157440,"time":82,"velocity":1},{"duration":0.25,"durationTicks":480,"midi":46,"name":"A#2","ticks":158400,"time":82.5,"velocity":1},{"duration":0.25,"durationTicks":480,"midi":53,"name":"F3","ticks":158400,"time":82.5,"velocity":1},{"duration":0.25,"durationTicks":480,"midi":58,"name":"A#3","ticks":158400,"time":82.5,"velocity":1},{"duration":0.25,"durationTicks":480,"midi":62,"name":"D4","ticks":158400,"time":82.5,"velocity":1},{"duration":0.25,"durationTicks":480,"midi":46,"name":"A#2","ticks":158880,"time":82.75,"velocity":1},{"duration":0.25,"durationTicks":480,"midi":53,"name":"F3","ticks":158880,"time":82.75,"velocity":1},{"duration":0.25,"durationTicks":480,"midi":58,"name":"A#3","ticks":158880,"time":82.75,"velocity":1},{"duration":0.25,"durationTicks":480,"midi":62,"name":"D4","ticks":158880,"time":82.75,"velocity":1},{"duration":0.25,"durationTicks":480,"midi":46,"name":"A#2","ticks":159360,"time":83,"velocity":1},{"duration":0.25,"durationTicks":480,"midi":53,"name":"F3","ticks":159360,"time":83,"velocity":1},{"duration":0.25,"durationTicks":480,"midi":58,"name":"A#3","ticks":159360,"time":83,"velocity":1},{"duration":0.25,"durationTicks":480,"midi":62,"name":"D4","ticks":159360,"time":83,"velocity":1},{"duration":0.25,"durationTicks":480,"midi":46,"name":"A#2","ticks":159840,"time":83.25,"velocity":1},{"duration":0.25,"durationTicks":480,"midi":53,"name":"F3","ticks":159840,"time":83.25,"velocity":1},{"duration":0.25,"durationTicks":480,"midi":58,"name":"A#3","ticks":159840,"time":83.25,"velocity":1},{"duration":0.25,"durationTicks":480,"midi":62,"name":"D4","ticks":159840,"time":83.25,"velocity":1},{"duration":0.25,"durationTicks":480,"midi":46,"name":"A#2","ticks":160320,"time":83.5,"velocity":1},{"duration":0.25,"durationTicks":480,"midi":53,"name":"F3","ticks":160320,"time":83.5,"velocity":1},{"duration":0.25,"durationTicks":480,"midi":58,"name":"A#3","ticks":160320,"time":83.5,"velocity":1},{"duration":0.25,"durationTicks":480,"midi":62,"name":"D4","ticks":160320,"time":83.5,"velocity":1},{"duration":0.25,"durationTicks":480,"midi":46,"name":"A#2","ticks":160800,"time":83.75,"velocity":1},{"duration":0.25,"durationTicks":480,"midi":53,"name":"F3","ticks":160800,"time":83.75,"velocity":1},{"duration":0.25,"durationTicks":480,"midi":58,"name":"A#3","ticks":160800,"time":83.75,"velocity":1},{"duration":0.25,"durationTicks":480,"midi":62,"name":"D4","ticks":160800,"time":83.75,"velocity":1},{"duration":0.25,"durationTicks":480,"midi":65,"name":"F4","ticks":161280,"time":84,"velocity":1},{"duration":0.25,"durationTicks":480,"midi":60,"name":"C4","ticks":161280,"time":84,"velocity":1},{"duration":0.25,"durationTicks":480,"midi":57,"name":"A3","ticks":161280,"time":84,"velocity":1},{"duration":0.25,"durationTicks":480,"midi":53,"name":"F3","ticks":161280,"time":84,"velocity":1},{"duration":0.25,"durationTicks":480,"midi":48,"name":"C3","ticks":161280,"time":84,"velocity":1},{"duration":0.25,"durationTicks":480,"midi":41,"name":"F2","ticks":161280,"time":84,"velocity":1},{"duration":0.25,"durationTicks":480,"midi":41,"name":"F2","ticks":161760,"time":84.25,"velocity":1},{"duration":0.25,"durationTicks":480,"midi":48,"name":"C3","ticks":161760,"time":84.25,"velocity":1},{"duration":0.25,"durationTicks":480,"midi":53,"name":"F3","ticks":161760,"time":84.25,"velocity":1},{"duration":0.25,"durationTicks":480,"midi":57,"name":"A3","ticks":161760,"time":84.25,"velocity":1},{"duration":0.25,"durationTicks":480,"midi":60,"name":"C4","ticks":161760,"time":84.25,"velocity":1},{"duration":0.25,"durationTicks":480,"midi":65,"name":"F4","ticks":161760,"time":84.25,"velocity":1},{"duration":0.25,"durationTicks":480,"midi":41,"name":"F2","ticks":162240,"time":84.5,"velocity":1},{"duration":0.25,"durationTicks":480,"midi":48,"name":"C3","ticks":162240,"time":84.5,"velocity":1},{"duration":0.25,"durationTicks":480,"midi":53,"name":"F3","ticks":162240,"time":84.5,"velocity":1},{"duration":0.25,"durationTicks":480,"midi":57,"name":"A3","ticks":162240,"time":84.5,"velocity":1},{"duration":0.25,"durationTicks":480,"midi":60,"name":"C4","ticks":162240,"time":84.5,"velocity":1},{"duration":0.25,"durationTicks":480,"midi":65,"name":"F4","ticks":162240,"time":84.5,"velocity":1},{"duration":0.25,"durationTicks":480,"midi":41,"name":"F2","ticks":162720,"time":84.75,"velocity":1},{"duration":0.25,"durationTicks":480,"midi":48,"name":"C3","ticks":162720,"time":84.75,"velocity":1},{"duration":0.25,"durationTicks":480,"midi":53,"name":"F3","ticks":162720,"time":84.75,"velocity":1},{"duration":0.25,"durationTicks":480,"midi":57,"name":"A3","ticks":162720,"time":84.75,"velocity":1},{"duration":0.25,"durationTicks":480,"midi":60,"name":"C4","ticks":162720,"time":84.75,"velocity":1},{"duration":0.25,"durationTicks":480,"midi":65,"name":"F4","ticks":162720,"time":84.75,"velocity":1},{"duration":0.25,"durationTicks":480,"midi":48,"name":"C3","ticks":163200,"time":85,"velocity":1},{"duration":0.25,"durationTicks":480,"midi":52,"name":"E3","ticks":163200,"time":85,"velocity":1},{"duration":0.25,"durationTicks":480,"midi":55,"name":"G3","ticks":163200,"time":85,"velocity":1},{"duration":0.25,"durationTicks":480,"midi":60,"name":"C4","ticks":163200,"time":85,"velocity":1},{"duration":0.25,"durationTicks":480,"midi":64,"name":"E4","ticks":163200,"time":85,"velocity":1},{"duration":0.25,"durationTicks":480,"midi":48,"name":"C3","ticks":163680,"time":85.25,"velocity":1},{"duration":0.25,"durationTicks":480,"midi":52,"name":"E3","ticks":163680,"time":85.25,"velocity":1},{"duration":0.25,"durationTicks":480,"midi":55,"name":"G3","ticks":163680,"time":85.25,"velocity":1},{"duration":0.25,"durationTicks":480,"midi":60,"name":"C4","ticks":163680,"time":85.25,"velocity":1},{"duration":0.25,"durationTicks":480,"midi":64,"name":"E4","ticks":163680,"time":85.25,"velocity":1},{"duration":0.25,"durationTicks":480,"midi":48,"name":"C3","ticks":164160,"time":85.5,"velocity":1},{"duration":0.25,"durationTicks":480,"midi":52,"name":"E3","ticks":164160,"time":85.5,"velocity":1},{"duration":0.25,"durationTicks":480,"midi":55,"name":"G3","ticks":164160,"time":85.5,"velocity":1},{"duration":0.25,"durationTicks":480,"midi":60,"name":"C4","ticks":164160,"time":85.5,"velocity":1},{"duration":0.25,"durationTicks":480,"midi":64,"name":"E4","ticks":164160,"time":85.5,"velocity":1},{"duration":0.25,"durationTicks":480,"midi":48,"name":"C3","ticks":164640,"time":85.75,"velocity":1},{"duration":0.25,"durationTicks":480,"midi":52,"name":"E3","ticks":164640,"time":85.75,"velocity":1},{"duration":0.25,"durationTicks":480,"midi":55,"name":"G3","ticks":164640,"time":85.75,"velocity":1},{"duration":0.25,"durationTicks":480,"midi":60,"name":"C4","ticks":164640,"time":85.75,"velocity":1},{"duration":0.25,"durationTicks":480,"midi":64,"name":"E4","ticks":164640,"time":85.75,"velocity":1},{"duration":0.25,"durationTicks":480,"midi":46,"name":"A#2","ticks":165120,"time":86,"velocity":1},{"duration":0.25,"durationTicks":480,"midi":53,"name":"F3","ticks":165120,"time":86,"velocity":1},{"duration":0.25,"durationTicks":480,"midi":58,"name":"A#3","ticks":165120,"time":86,"velocity":1},{"duration":0.25,"durationTicks":480,"midi":62,"name":"D4","ticks":165120,"time":86,"velocity":1},{"duration":0.25,"durationTicks":480,"midi":46,"name":"A#2","ticks":165600,"time":86.25,"velocity":1},{"duration":0.25,"durationTicks":480,"midi":53,"name":"F3","ticks":165600,"time":86.25,"velocity":1},{"duration":0.25,"durationTicks":480,"midi":58,"name":"A#3","ticks":165600,"time":86.25,"velocity":1},{"duration":0.25,"durationTicks":480,"midi":62,"name":"D4","ticks":165600,"time":86.25,"velocity":1},{"duration":0.25,"durationTicks":480,"midi":46,"name":"A#2","ticks":166080,"time":86.5,"velocity":1},{"duration":0.25,"durationTicks":480,"midi":53,"name":"F3","ticks":166080,"time":86.5,"velocity":1},{"duration":0.25,"durationTicks":480,"midi":58,"name":"A#3","ticks":166080,"time":86.5,"velocity":1},{"duration":0.25,"durationTicks":480,"midi":62,"name":"D4","ticks":166080,"time":86.5,"velocity":1},{"duration":0.25,"durationTicks":480,"midi":46,"name":"A#2","ticks":166560,"time":86.75,"velocity":1},{"duration":0.25,"durationTicks":480,"midi":53,"name":"F3","ticks":166560,"time":86.75,"velocity":1},{"duration":0.25,"durationTicks":480,"midi":58,"name":"A#3","ticks":166560,"time":86.75,"velocity":1},{"duration":0.25,"durationTicks":480,"midi":62,"name":"D4","ticks":166560,"time":86.75,"velocity":1},{"duration":0.25,"durationTicks":480,"midi":65,"name":"F4","ticks":167040,"time":87,"velocity":1},{"duration":0.25,"durationTicks":480,"midi":60,"name":"C4","ticks":167040,"time":87,"velocity":1},{"duration":0.25,"durationTicks":480,"midi":57,"name":"A3","ticks":167040,"time":87,"velocity":1},{"duration":0.25,"durationTicks":480,"midi":53,"name":"F3","ticks":167040,"time":87,"velocity":1},{"duration":0.25,"durationTicks":480,"midi":48,"name":"C3","ticks":167040,"time":87,"velocity":1},{"duration":0.25,"durationTicks":480,"midi":41,"name":"F2","ticks":167040,"time":87,"velocity":1},{"duration":0.25,"durationTicks":480,"midi":41,"name":"F2","ticks":167520,"time":87.25,"velocity":1},{"duration":0.25,"durationTicks":480,"midi":48,"name":"C3","ticks":167520,"time":87.25,"velocity":1},{"duration":0.25,"durationTicks":480,"midi":53,"name":"F3","ticks":167520,"time":87.25,"velocity":1},{"duration":0.25,"durationTicks":480,"midi":57,"name":"A3","ticks":167520,"time":87.25,"velocity":1},{"duration":0.25,"durationTicks":480,"midi":60,"name":"C4","ticks":167520,"time":87.25,"velocity":1},{"duration":0.25,"durationTicks":480,"midi":65,"name":"F4","ticks":167520,"time":87.25,"velocity":1},{"duration":0.25,"durationTicks":480,"midi":41,"name":"F2","ticks":168000,"time":87.5,"velocity":1},{"duration":0.25,"durationTicks":480,"midi":48,"name":"C3","ticks":168000,"time":87.5,"velocity":1},{"duration":0.25,"durationTicks":480,"midi":53,"name":"F3","ticks":168000,"time":87.5,"velocity":1},{"duration":0.25,"durationTicks":480,"midi":57,"name":"A3","ticks":168000,"time":87.5,"velocity":1},{"duration":0.25,"durationTicks":480,"midi":60,"name":"C4","ticks":168000,"time":87.5,"velocity":1},{"duration":0.25,"durationTicks":480,"midi":65,"name":"F4","ticks":168000,"time":87.5,"velocity":1},{"duration":0.25,"durationTicks":480,"midi":41,"name":"F2","ticks":168480,"time":87.75,"velocity":1},{"duration":0.25,"durationTicks":480,"midi":48,"name":"C3","ticks":168480,"time":87.75,"velocity":1},{"duration":0.25,"durationTicks":480,"midi":53,"name":"F3","ticks":168480,"time":87.75,"velocity":1},{"duration":0.25,"durationTicks":480,"midi":57,"name":"A3","ticks":168480,"time":87.75,"velocity":1},{"duration":0.25,"durationTicks":480,"midi":60,"name":"C4","ticks":168480,"time":87.75,"velocity":1},{"duration":0.25,"durationTicks":480,"midi":65,"name":"F4","ticks":168480,"time":87.75,"velocity":1},{"duration":0.25,"durationTicks":480,"midi":65,"name":"F4","ticks":168960,"time":88,"velocity":1},{"duration":0.25,"durationTicks":480,"midi":60,"name":"C4","ticks":168960,"time":88,"velocity":1},{"duration":0.25,"durationTicks":480,"midi":57,"name":"A3","ticks":168960,"time":88,"velocity":1},{"duration":0.25,"durationTicks":480,"midi":53,"name":"F3","ticks":168960,"time":88,"velocity":1},{"duration":0.25,"durationTicks":480,"midi":48,"name":"C3","ticks":168960,"time":88,"velocity":1},{"duration":0.25,"durationTicks":480,"midi":41,"name":"F2","ticks":168960,"time":88,"velocity":1},{"duration":0.25,"durationTicks":480,"midi":41,"name":"F2","ticks":169440,"time":88.25,"velocity":1},{"duration":0.25,"durationTicks":480,"midi":48,"name":"C3","ticks":169440,"time":88.25,"velocity":1},{"duration":0.25,"durationTicks":480,"midi":53,"name":"F3","ticks":169440,"time":88.25,"velocity":1},{"duration":0.25,"durationTicks":480,"midi":57,"name":"A3","ticks":169440,"time":88.25,"velocity":1},{"duration":0.25,"durationTicks":480,"midi":60,"name":"C4","ticks":169440,"time":88.25,"velocity":1},{"duration":0.25,"durationTicks":480,"midi":65,"name":"F4","ticks":169440,"time":88.25,"velocity":1},{"duration":0.25,"durationTicks":480,"midi":41,"name":"F2","ticks":169920,"time":88.5,"velocity":1},{"duration":0.25,"durationTicks":480,"midi":48,"name":"C3","ticks":169920,"time":88.5,"velocity":1},{"duration":0.25,"durationTicks":480,"midi":53,"name":"F3","ticks":169920,"time":88.5,"velocity":1},{"duration":0.25,"durationTicks":480,"midi":57,"name":"A3","ticks":169920,"time":88.5,"velocity":1},{"duration":0.25,"durationTicks":480,"midi":60,"name":"C4","ticks":169920,"time":88.5,"velocity":1},{"duration":0.25,"durationTicks":480,"midi":65,"name":"F4","ticks":169920,"time":88.5,"velocity":1},{"duration":0.25,"durationTicks":480,"midi":41,"name":"F2","ticks":170400,"time":88.75,"velocity":1},{"duration":0.25,"durationTicks":480,"midi":48,"name":"C3","ticks":170400,"time":88.75,"velocity":1},{"duration":0.25,"durationTicks":480,"midi":53,"name":"F3","ticks":170400,"time":88.75,"velocity":1},{"duration":0.25,"durationTicks":480,"midi":57,"name":"A3","ticks":170400,"time":88.75,"velocity":1},{"duration":0.25,"durationTicks":480,"midi":60,"name":"C4","ticks":170400,"time":88.75,"velocity":1},{"duration":0.25,"durationTicks":480,"midi":65,"name":"F4","ticks":170400,"time":88.75,"velocity":1},{"duration":0.25,"durationTicks":480,"midi":48,"name":"C3","ticks":170880,"time":89,"velocity":1},{"duration":0.25,"durationTicks":480,"midi":52,"name":"E3","ticks":170880,"time":89,"velocity":1},{"duration":0.25,"durationTicks":480,"midi":55,"name":"G3","ticks":170880,"time":89,"velocity":1},{"duration":0.25,"durationTicks":480,"midi":60,"name":"C4","ticks":170880,"time":89,"velocity":1},{"duration":0.25,"durationTicks":480,"midi":64,"name":"E4","ticks":170880,"time":89,"velocity":1},{"duration":0.25,"durationTicks":480,"midi":48,"name":"C3","ticks":171360,"time":89.25,"velocity":1},{"duration":0.25,"durationTicks":480,"midi":52,"name":"E3","ticks":171360,"time":89.25,"velocity":1},{"duration":0.25,"durationTicks":480,"midi":55,"name":"G3","ticks":171360,"time":89.25,"velocity":1},{"duration":0.25,"durationTicks":480,"midi":60,"name":"C4","ticks":171360,"time":89.25,"velocity":1},{"duration":0.25,"durationTicks":480,"midi":64,"name":"E4","ticks":171360,"time":89.25,"velocity":1},{"duration":0.25,"durationTicks":480,"midi":48,"name":"C3","ticks":171840,"time":89.5,"velocity":1},{"duration":0.25,"durationTicks":480,"midi":52,"name":"E3","ticks":171840,"time":89.5,"velocity":1},{"duration":0.25,"durationTicks":480,"midi":55,"name":"G3","ticks":171840,"time":89.5,"velocity":1},{"duration":0.25,"durationTicks":480,"midi":60,"name":"C4","ticks":171840,"time":89.5,"velocity":1},{"duration":0.25,"durationTicks":480,"midi":64,"name":"E4","ticks":171840,"time":89.5,"velocity":1},{"duration":0.25,"durationTicks":480,"midi":48,"name":"C3","ticks":172320,"time":89.75,"velocity":1},{"duration":0.25,"durationTicks":480,"midi":52,"name":"E3","ticks":172320,"time":89.75,"velocity":1},{"duration":0.25,"durationTicks":480,"midi":55,"name":"G3","ticks":172320,"time":89.75,"velocity":1},{"duration":0.25,"durationTicks":480,"midi":60,"name":"C4","ticks":172320,"time":89.75,"velocity":1},{"duration":0.25,"durationTicks":480,"midi":64,"name":"E4","ticks":172320,"time":89.75,"velocity":1},{"duration":0.25,"durationTicks":480,"midi":46,"name":"A#2","ticks":172800,"time":90,"velocity":1},{"duration":0.25,"durationTicks":480,"midi":53,"name":"F3","ticks":172800,"time":90,"velocity":1},{"duration":0.25,"durationTicks":480,"midi":58,"name":"A#3","ticks":172800,"time":90,"velocity":1},{"duration":0.25,"durationTicks":480,"midi":62,"name":"D4","ticks":172800,"time":90,"velocity":1},{"duration":0.25,"durationTicks":480,"midi":46,"name":"A#2","ticks":173280,"time":90.25,"velocity":1},{"duration":0.25,"durationTicks":480,"midi":53,"name":"F3","ticks":173280,"time":90.25,"velocity":1},{"duration":0.25,"durationTicks":480,"midi":58,"name":"A#3","ticks":173280,"time":90.25,"velocity":1},{"duration":0.25,"durationTicks":480,"midi":62,"name":"D4","ticks":173280,"time":90.25,"velocity":1},{"duration":0.25,"durationTicks":480,"midi":46,"name":"A#2","ticks":173760,"time":90.5,"velocity":1},{"duration":0.25,"durationTicks":480,"midi":53,"name":"F3","ticks":173760,"time":90.5,"velocity":1},{"duration":0.25,"durationTicks":480,"midi":58,"name":"A#3","ticks":173760,"time":90.5,"velocity":1},{"duration":0.25,"durationTicks":480,"midi":62,"name":"D4","ticks":173760,"time":90.5,"velocity":1},{"duration":0.25,"durationTicks":480,"midi":46,"name":"A#2","ticks":174240,"time":90.75,"velocity":1},{"duration":0.25,"durationTicks":480,"midi":53,"name":"F3","ticks":174240,"time":90.75,"velocity":1},{"duration":0.25,"durationTicks":480,"midi":58,"name":"A#3","ticks":174240,"time":90.75,"velocity":1},{"duration":0.25,"durationTicks":480,"midi":62,"name":"D4","ticks":174240,"time":90.75,"velocity":1},{"duration":0.25,"durationTicks":480,"midi":65,"name":"F4","ticks":174720,"time":91,"velocity":1},{"duration":0.25,"durationTicks":480,"midi":60,"name":"C4","ticks":174720,"time":91,"velocity":1},{"duration":0.25,"durationTicks":480,"midi":57,"name":"A3","ticks":174720,"time":91,"velocity":1},{"duration":0.25,"durationTicks":480,"midi":53,"name":"F3","ticks":174720,"time":91,"velocity":1},{"duration":0.25,"durationTicks":480,"midi":48,"name":"C3","ticks":174720,"time":91,"velocity":1},{"duration":0.25,"durationTicks":480,"midi":41,"name":"F2","ticks":174720,"time":91,"velocity":1},{"duration":0.25,"durationTicks":480,"midi":41,"name":"F2","ticks":175200,"time":91.25,"velocity":1},{"duration":0.25,"durationTicks":480,"midi":48,"name":"C3","ticks":175200,"time":91.25,"velocity":1},{"duration":0.25,"durationTicks":480,"midi":53,"name":"F3","ticks":175200,"time":91.25,"velocity":1},{"duration":0.25,"durationTicks":480,"midi":57,"name":"A3","ticks":175200,"time":91.25,"velocity":1},{"duration":0.25,"durationTicks":480,"midi":60,"name":"C4","ticks":175200,"time":91.25,"velocity":1},{"duration":0.25,"durationTicks":480,"midi":65,"name":"F4","ticks":175200,"time":91.25,"velocity":1},{"duration":0.25,"durationTicks":480,"midi":41,"name":"F2","ticks":175680,"time":91.5,"velocity":1},{"duration":0.25,"durationTicks":480,"midi":48,"name":"C3","ticks":175680,"time":91.5,"velocity":1},{"duration":0.25,"durationTicks":480,"midi":53,"name":"F3","ticks":175680,"time":91.5,"velocity":1},{"duration":0.25,"durationTicks":480,"midi":57,"name":"A3","ticks":175680,"time":91.5,"velocity":1},{"duration":0.25,"durationTicks":480,"midi":60,"name":"C4","ticks":175680,"time":91.5,"velocity":1},{"duration":0.25,"durationTicks":480,"midi":65,"name":"F4","ticks":175680,"time":91.5,"velocity":1},{"duration":0.25,"durationTicks":480,"midi":41,"name":"F2","ticks":176160,"time":91.75,"velocity":1},{"duration":0.25,"durationTicks":480,"midi":48,"name":"C3","ticks":176160,"time":91.75,"velocity":1},{"duration":0.25,"durationTicks":480,"midi":53,"name":"F3","ticks":176160,"time":91.75,"velocity":1},{"duration":0.25,"durationTicks":480,"midi":57,"name":"A3","ticks":176160,"time":91.75,"velocity":1},{"duration":0.25,"durationTicks":480,"midi":60,"name":"C4","ticks":176160,"time":91.75,"velocity":1},{"duration":0.25,"durationTicks":480,"midi":65,"name":"F4","ticks":176160,"time":91.75,"velocity":1},{"duration":0.5,"durationTicks":960,"midi":43,"name":"G2","ticks":176640,"time":92,"velocity":1},{"duration":0.5,"durationTicks":960,"midi":55,"name":"G3","ticks":176640,"time":92,"velocity":1},{"duration":0.5,"durationTicks":960,"midi":58,"name":"A#3","ticks":176640,"time":92,"velocity":1},{"duration":0.5,"durationTicks":960,"midi":62,"name":"D4","ticks":176640,"time":92,"velocity":1},{"duration":0.5,"durationTicks":960,"midi":67,"name":"G4","ticks":176640,"time":92,"velocity":1},{"duration":0.75,"durationTicks":1440,"midi":50,"name":"D3","ticks":176640,"time":92,"velocity":1},{"duration":0.25,"durationTicks":480,"midi":67,"name":"G4","ticks":177600,"time":92.5,"velocity":1},{"duration":0.25,"durationTicks":480,"midi":62,"name":"D4","ticks":177600,"time":92.5,"velocity":1},{"duration":0.25,"durationTicks":480,"midi":58,"name":"A#3","ticks":177600,"time":92.5,"velocity":1},{"duration":0.25,"durationTicks":480,"midi":55,"name":"G3","ticks":177600,"time":92.5,"velocity":1},{"duration":0.25,"durationTicks":480,"midi":43,"name":"G2","ticks":177600,"time":92.5,"velocity":1},{"duration":0.5,"durationTicks":960,"midi":50,"name":"D3","ticks":177600,"time":92.5,"velocity":1},{"duration":0.25,"durationTicks":480,"midi":67,"name":"G4","ticks":178080,"time":92.75,"velocity":1},{"duration":0.25,"durationTicks":480,"midi":62,"name":"D4","ticks":178080,"time":92.75,"velocity":1},{"duration":0.25,"durationTicks":480,"midi":58,"name":"A#3","ticks":178080,"time":92.75,"velocity":1},{"duration":0.25,"durationTicks":480,"midi":55,"name":"G3","ticks":178080,"time":92.75,"velocity":1},{"duration":0.25,"durationTicks":480,"midi":43,"name":"G2","ticks":178080,"time":92.75,"velocity":1},{"duration":2.75,"durationTicks":5280,"midi":50,"name":"D3","ticks":178080,"time":92.75,"velocity":1},{"duration":0.5,"durationTicks":960,"midi":48,"name":"C3","ticks":178560,"time":93,"velocity":1},{"duration":0.5,"durationTicks":960,"midi":52,"name":"E3","ticks":178560,"time":93,"velocity":1},{"duration":0.5,"durationTicks":960,"midi":55,"name":"G3","ticks":178560,"time":93,"velocity":1},{"duration":0.5,"durationTicks":960,"midi":60,"name":"C4","ticks":178560,"time":93,"velocity":1},{"duration":0.5,"durationTicks":960,"midi":64,"name":"E4","ticks":178560,"time":93,"velocity":1},{"duration":0.25,"durationTicks":480,"midi":64,"name":"E4","ticks":179520,"time":93.5,"velocity":1},{"duration":0.25,"durationTicks":480,"midi":60,"name":"C4","ticks":179520,"time":93.5,"velocity":1},{"duration":0.25,"durationTicks":480,"midi":55,"name":"G3","ticks":179520,"time":93.5,"velocity":1},{"duration":0.25,"durationTicks":480,"midi":52,"name":"E3","ticks":179520,"time":93.5,"velocity":1},{"duration":0.25,"durationTicks":480,"midi":48,"name":"C3","ticks":179520,"time":93.5,"velocity":1},{"duration":0.25,"durationTicks":480,"midi":64,"name":"E4","ticks":180000,"time":93.75,"velocity":1},{"duration":0.25,"durationTicks":480,"midi":60,"name":"C4","ticks":180000,"time":93.75,"velocity":1},{"duration":0.25,"durationTicks":480,"midi":55,"name":"G3","ticks":180000,"time":93.75,"velocity":1},{"duration":0.25,"durationTicks":480,"midi":52,"name":"E3","ticks":180000,"time":93.75,"velocity":1},{"duration":0.25,"durationTicks":480,"midi":48,"name":"C3","ticks":180000,"time":93.75,"velocity":1},{"duration":0.5,"durationTicks":960,"midi":41,"name":"F2","ticks":180480,"time":94,"velocity":1},{"duration":0.5,"durationTicks":960,"midi":48,"name":"C3","ticks":180480,"time":94,"velocity":1},{"duration":0.5,"durationTicks":960,"midi":53,"name":"F3","ticks":180480,"time":94,"velocity":1},{"duration":0.5,"durationTicks":960,"midi":57,"name":"A3","ticks":180480,"time":94,"velocity":1},{"duration":0.5,"durationTicks":960,"midi":60,"name":"C4","ticks":180480,"time":94,"velocity":1},{"duration":0.5,"durationTicks":960,"midi":65,"name":"F4","ticks":180480,"time":94,"velocity":1},{"duration":0.25,"durationTicks":480,"midi":65,"name":"F4","ticks":181440,"time":94.5,"velocity":1},{"duration":0.25,"durationTicks":480,"midi":60,"name":"C4","ticks":181440,"time":94.5,"velocity":1},{"duration":0.25,"durationTicks":480,"midi":57,"name":"A3","ticks":181440,"time":94.5,"velocity":1},{"duration":0.25,"durationTicks":480,"midi":53,"name":"F3","ticks":181440,"time":94.5,"velocity":1},{"duration":0.25,"durationTicks":480,"midi":48,"name":"C3","ticks":181440,"time":94.5,"velocity":1},{"duration":0.25,"durationTicks":480,"midi":41,"name":"F2","ticks":181440,"time":94.5,"velocity":1},{"duration":0.25,"durationTicks":480,"midi":65,"name":"F4","ticks":181920,"time":94.75,"velocity":1},{"duration":0.25,"durationTicks":480,"midi":60,"name":"C4","ticks":181920,"time":94.75,"velocity":1},{"duration":0.25,"durationTicks":480,"midi":57,"name":"A3","ticks":181920,"time":94.75,"velocity":1},{"duration":0.25,"durationTicks":480,"midi":53,"name":"F3","ticks":181920,"time":94.75,"velocity":1},{"duration":0.25,"durationTicks":480,"midi":48,"name":"C3","ticks":181920,"time":94.75,"velocity":1},{"duration":0.25,"durationTicks":480,"midi":41,"name":"F2","ticks":181920,"time":94.75,"velocity":1},{"duration":0.5,"durationTicks":960,"midi":57,"name":"A3","ticks":182400,"time":95,"velocity":1},{"duration":0.5,"durationTicks":960,"midi":62,"name":"D4","ticks":182400,"time":95,"velocity":1},{"duration":0.5,"durationTicks":960,"midi":65,"name":"F4","ticks":182400,"time":95,"velocity":1},{"duration":0.75,"durationTicks":1440,"midi":50,"name":"D3","ticks":182400,"time":95,"velocity":1},{"duration":0.25,"durationTicks":480,"midi":65,"name":"F4","ticks":183360,"time":95.5,"velocity":1},{"duration":0.25,"durationTicks":480,"midi":62,"name":"D4","ticks":183360,"time":95.5,"velocity":1},{"duration":0.25,"durationTicks":480,"midi":57,"name":"A3","ticks":183360,"time":95.5,"velocity":1},{"duration":0.5,"durationTicks":960,"midi":50,"name":"D3","ticks":183360,"time":95.5,"velocity":1},{"duration":0.25,"durationTicks":480,"midi":65,"name":"F4","ticks":183840,"time":95.75,"velocity":1},{"duration":0.25,"durationTicks":480,"midi":62,"name":"D4","ticks":183840,"time":95.75,"velocity":1},{"duration":0.25,"durationTicks":480,"midi":57,"name":"A3","ticks":183840,"time":95.75,"velocity":1},{"duration":2.75,"durationTicks":5280,"midi":50,"name":"D3","ticks":183840,"time":95.75,"velocity":1},{"duration":0.5,"durationTicks":960,"midi":62,"name":"D4","ticks":184320,"time":96,"velocity":1},{"duration":0.5,"durationTicks":960,"midi":46,"name":"A#2","ticks":184320,"time":96,"velocity":1},{"duration":0.5,"durationTicks":960,"midi":53,"name":"F3","ticks":184320,"time":96,"velocity":1},{"duration":0.5,"durationTicks":960,"midi":58,"name":"A#3","ticks":184320,"time":96,"velocity":1},{"duration":0.25,"durationTicks":480,"midi":62,"name":"D4","ticks":185280,"time":96.5,"velocity":1},{"duration":0.25,"durationTicks":480,"midi":58,"name":"A#3","ticks":185280,"time":96.5,"velocity":1},{"duration":0.25,"durationTicks":480,"midi":53,"name":"F3","ticks":185280,"time":96.5,"velocity":1},{"duration":0.25,"durationTicks":480,"midi":46,"name":"A#2","ticks":185280,"time":96.5,"velocity":1},{"duration":0.25,"durationTicks":480,"midi":62,"name":"D4","ticks":185760,"time":96.75,"velocity":1},{"duration":0.25,"durationTicks":480,"midi":58,"name":"A#3","ticks":185760,"time":96.75,"velocity":1},{"duration":0.25,"durationTicks":480,"midi":53,"name":"F3","ticks":185760,"time":96.75,"velocity":1},{"duration":0.25,"durationTicks":480,"midi":46,"name":"A#2","ticks":185760,"time":96.75,"velocity":1},{"duration":0.5,"durationTicks":960,"midi":61,"name":"C#4","ticks":186240,"time":97,"velocity":1},{"duration":0.5,"durationTicks":960,"midi":45,"name":"A2","ticks":186240,"time":97,"velocity":1},{"duration":0.5,"durationTicks":960,"midi":52,"name":"E3","ticks":186240,"time":97,"velocity":1},{"duration":0.5,"durationTicks":960,"midi":57,"name":"A3","ticks":186240,"time":97,"velocity":1},{"duration":0.25,"durationTicks":480,"midi":45,"name":"A2","ticks":187200,"time":97.5,"velocity":1},{"duration":0.25,"durationTicks":480,"midi":52,"name":"E3","ticks":187200,"time":97.5,"velocity":1},{"duration":0.25,"durationTicks":480,"midi":57,"name":"A3","ticks":187200,"time":97.5,"velocity":1},{"duration":0.25,"durationTicks":480,"midi":61,"name":"C#4","ticks":187200,"time":97.5,"velocity":1},{"duration":0.25,"durationTicks":480,"midi":45,"name":"A2","ticks":187680,"time":97.75,"velocity":1},{"duration":0.25,"durationTicks":480,"midi":52,"name":"E3","ticks":187680,"time":97.75,"velocity":1},{"duration":0.25,"durationTicks":480,"midi":57,"name":"A3","ticks":187680,"time":97.75,"velocity":1},{"duration":0.25,"durationTicks":480,"midi":61,"name":"C#4","ticks":187680,"time":97.75,"velocity":1},{"duration":1.25,"durationTicks":2400,"midi":50,"name":"D3","ticks":188160,"time":98,"velocity":1},{"duration":0.75,"durationTicks":1440,"midi":54,"name":"F#3","ticks":189120,"time":98.5,"velocity":1},{"duration":0.75,"durationTicks":1440,"midi":57,"name":"A3","ticks":189120,"time":98.5,"velocity":1},{"duration":0.75,"durationTicks":1440,"midi":62,"name":"D4","ticks":189120,"time":98.5,"velocity":1},{"duration":0.75,"durationTicks":1440,"midi":66,"name":"F#4","ticks":189120,"time":98.5,"velocity":1},{"duration":1.5,"durationTicks":2880,"midi":50,"name":"D3","ticks":189120,"time":98.5,"velocity":1},{"duration":0.25,"durationTicks":480,"midi":55,"name":"G3","ticks":190560,"time":99.25,"velocity":1},{"duration":0.25,"durationTicks":480,"midi":62,"name":"D4","ticks":190560,"time":99.25,"velocity":1},{"duration":0.25,"durationTicks":480,"midi":67,"name":"G4","ticks":190560,"time":99.25,"velocity":1},{"duration":0.25,"durationTicks":480,"midi":54,"name":"F#3","ticks":191040,"time":99.5,"velocity":1},{"duration":0.25,"durationTicks":480,"midi":62,"name":"D4","ticks":191040,"time":99.5,"velocity":1},{"duration":0.25,"durationTicks":480,"midi":66,"name":"F#4","ticks":191040,"time":99.5,"velocity":1},{"duration":0.25,"durationTicks":480,"midi":57,"name":"A3","ticks":191520,"time":99.75,"velocity":1},{"duration":0.25,"durationTicks":480,"midi":62,"name":"D4","ticks":191520,"time":99.75,"velocity":1},{"duration":0.5,"durationTicks":960,"midi":50,"name":"D3","ticks":192000,"time":100,"velocity":1},{"duration":1.25,"durationTicks":2400,"midi":50,"name":"D3","ticks":192000,"time":100,"velocity":1},{"duration":0.75,"durationTicks":1440,"midi":54,"name":"F#3","ticks":192960,"time":100.5,"velocity":1},{"duration":0.75,"durationTicks":1440,"midi":57,"name":"A3","ticks":192960,"time":100.5,"velocity":1},{"duration":0.75,"durationTicks":1440,"midi":62,"name":"D4","ticks":192960,"time":100.5,"velocity":1},{"duration":0.75,"durationTicks":1440,"midi":66,"name":"F#4","ticks":192960,"time":100.5,"velocity":1},{"duration":1.5,"durationTicks":2880,"midi":50,"name":"D3","ticks":192960,"time":100.5,"velocity":1},{"duration":0.25,"durationTicks":480,"midi":55,"name":"G3","ticks":194400,"time":101.25,"velocity":1},{"duration":0.25,"durationTicks":480,"midi":62,"name":"D4","ticks":194400,"time":101.25,"velocity":1},{"duration":0.25,"durationTicks":480,"midi":67,"name":"G4","ticks":194400,"time":101.25,"velocity":1},{"duration":0.25,"durationTicks":480,"midi":54,"name":"F#3","ticks":194880,"time":101.5,"velocity":1},{"duration":0.25,"durationTicks":480,"midi":62,"name":"D4","ticks":194880,"time":101.5,"velocity":1},{"duration":0.25,"durationTicks":480,"midi":66,"name":"F#4","ticks":194880,"time":101.5,"velocity":1},{"duration":0.25,"durationTicks":480,"midi":57,"name":"A3","ticks":195360,"time":101.75,"velocity":1},{"duration":0.25,"durationTicks":480,"midi":62,"name":"D4","ticks":195360,"time":101.75,"velocity":1},{"duration":0.75,"durationTicks":1440,"midi":50,"name":"D3","ticks":195360,"time":101.75,"velocity":1},{"duration":1.25,"durationTicks":2400,"midi":50,"name":"D3","ticks":195840,"time":102,"velocity":1},{"duration":0.75,"durationTicks":1440,"midi":54,"name":"F#3","ticks":196800,"time":102.5,"velocity":1},{"duration":0.75,"durationTicks":1440,"midi":57,"name":"A3","ticks":196800,"time":102.5,"velocity":1},{"duration":0.75,"durationTicks":1440,"midi":62,"name":"D4","ticks":196800,"time":102.5,"velocity":1},{"duration":0.75,"durationTicks":1440,"midi":66,"name":"F#4","ticks":196800,"time":102.5,"velocity":1},{"duration":1.5,"durationTicks":2880,"midi":50,"name":"D3","ticks":196800,"time":102.5,"velocity":1},{"duration":0.25,"durationTicks":480,"midi":55,"name":"G3","ticks":198240,"time":103.25,"velocity":1},{"duration":0.25,"durationTicks":480,"midi":62,"name":"D4","ticks":198240,"time":103.25,"velocity":1},{"duration":0.25,"durationTicks":480,"midi":67,"name":"G4","ticks":198240,"time":103.25,"velocity":1},{"duration":0.25,"durationTicks":480,"midi":54,"name":"F#3","ticks":198720,"time":103.5,"velocity":1},{"duration":0.25,"durationTicks":480,"midi":62,"name":"D4","ticks":198720,"time":103.5,"velocity":1},{"duration":0.25,"durationTicks":480,"midi":66,"name":"F#4","ticks":198720,"time":103.5,"velocity":1},{"duration":0.25,"durationTicks":480,"midi":57,"name":"A3","ticks":199200,"time":103.75,"velocity":1},{"duration":0.25,"durationTicks":480,"midi":62,"name":"D4","ticks":199200,"time":103.75,"velocity":1},{"duration":0.5,"durationTicks":960,"midi":50,"name":"D3","ticks":199680,"time":104,"velocity":1},{"duration":1.25,"durationTicks":2400,"midi":50,"name":"D3","ticks":199680,"time":104,"velocity":1},{"duration":0.75,"durationTicks":1440,"midi":54,"name":"F#3","ticks":200640,"time":104.5,"velocity":1},{"duration":0.75,"durationTicks":1440,"midi":57,"name":"A3","ticks":200640,"time":104.5,"velocity":1},{"duration":0.75,"durationTicks":1440,"midi":62,"name":"D4","ticks":200640,"time":104.5,"velocity":1},{"duration":0.75,"durationTicks":1440,"midi":66,"name":"F#4","ticks":200640,"time":104.5,"velocity":1},{"duration":1.5,"durationTicks":2880,"midi":50,"name":"D3","ticks":200640,"time":104.5,"velocity":1},{"duration":0.25,"durationTicks":480,"midi":55,"name":"G3","ticks":202080,"time":105.25,"velocity":1},{"duration":0.25,"durationTicks":480,"midi":62,"name":"D4","ticks":202080,"time":105.25,"velocity":1},{"duration":0.25,"durationTicks":480,"midi":67,"name":"G4","ticks":202080,"time":105.25,"velocity":1},{"duration":0.25,"durationTicks":480,"midi":54,"name":"F#3","ticks":202560,"time":105.5,"velocity":1},{"duration":0.25,"durationTicks":480,"midi":62,"name":"D4","ticks":202560,"time":105.5,"velocity":1},{"duration":0.25,"durationTicks":480,"midi":66,"name":"F#4","ticks":202560,"time":105.5,"velocity":1},{"duration":0.25,"durationTicks":480,"midi":57,"name":"A3","ticks":203040,"time":105.75,"velocity":1},{"duration":0.25,"durationTicks":480,"midi":62,"name":"D4","ticks":203040,"time":105.75,"velocity":1},{"duration":16.75,"durationTicks":32160,"midi":50,"name":"D3","ticks":203040,"time":105.75,"velocity":1},{"duration":1.25,"durationTicks":2400,"midi":50,"name":"D3","ticks":234240,"time":122,"velocity":1},{"duration":0.75,"durationTicks":1440,"midi":54,"name":"F#3","ticks":235200,"time":122.5,"velocity":1},{"duration":0.75,"durationTicks":1440,"midi":57,"name":"A3","ticks":235200,"time":122.5,"velocity":1},{"duration":0.75,"durationTicks":1440,"midi":62,"name":"D4","ticks":235200,"time":122.5,"velocity":1},{"duration":0.75,"durationTicks":1440,"midi":66,"name":"F#4","ticks":235200,"time":122.5,"velocity":1},{"duration":1.5,"durationTicks":2880,"midi":50,"name":"D3","ticks":235200,"time":122.5,"velocity":1},{"duration":0.25,"durationTicks":480,"midi":55,"name":"G3","ticks":236640,"time":123.25,"velocity":1},{"duration":0.25,"durationTicks":480,"midi":62,"name":"D4","ticks":236640,"time":123.25,"velocity":1},{"duration":0.25,"durationTicks":480,"midi":67,"name":"G4","ticks":236640,"time":123.25,"velocity":1},{"duration":0.25,"durationTicks":480,"midi":54,"name":"F#3","ticks":237120,"time":123.5,"velocity":1},{"duration":0.25,"durationTicks":480,"midi":62,"name":"D4","ticks":237120,"time":123.5,"velocity":1},{"duration":0.25,"durationTicks":480,"midi":66,"name":"F#4","ticks":237120,"time":123.5,"velocity":1},{"duration":0.25,"durationTicks":480,"midi":57,"name":"A3","ticks":237600,"time":123.75,"velocity":1},{"duration":0.25,"durationTicks":480,"midi":62,"name":"D4","ticks":237600,"time":123.75,"velocity":1},{"duration":0.5,"durationTicks":960,"midi":50,"name":"D3","ticks":238080,"time":124,"velocity":1},{"duration":1.25,"durationTicks":2400,"midi":50,"name":"D3","ticks":238080,"time":124,"velocity":1},{"duration":0.75,"durationTicks":1440,"midi":54,"name":"F#3","ticks":239040,"time":124.5,"velocity":1},{"duration":0.75,"durationTicks":1440,"midi":57,"name":"A3","ticks":239040,"time":124.5,"velocity":1},{"duration":0.75,"durationTicks":1440,"midi":62,"name":"D4","ticks":239040,"time":124.5,"velocity":1},{"duration":0.75,"durationTicks":1440,"midi":66,"name":"F#4","ticks":239040,"time":124.5,"velocity":1},{"duration":1.5,"durationTicks":2880,"midi":50,"name":"D3","ticks":239040,"time":124.5,"velocity":1},{"duration":0.25,"durationTicks":480,"midi":55,"name":"G3","ticks":240480,"time":125.25,"velocity":1},{"duration":0.25,"durationTicks":480,"midi":62,"name":"D4","ticks":240480,"time":125.25,"velocity":1},{"duration":0.25,"durationTicks":480,"midi":67,"name":"G4","ticks":240480,"time":125.25,"velocity":1},{"duration":0.25,"durationTicks":480,"midi":54,"name":"F#3","ticks":240960,"time":125.5,"velocity":1},{"duration":0.25,"durationTicks":480,"midi":62,"name":"D4","ticks":240960,"time":125.5,"velocity":1},{"duration":0.25,"durationTicks":480,"midi":66,"name":"F#4","ticks":240960,"time":125.5,"velocity":1},{"duration":0.25,"durationTicks":480,"midi":57,"name":"A3","ticks":241440,"time":125.75,"velocity":1},{"duration":0.25,"durationTicks":480,"midi":62,"name":"D4","ticks":241440,"time":125.75,"velocity":1},{"duration":0.75,"durationTicks":1440,"midi":50,"name":"D3","ticks":241440,"time":125.75,"velocity":1},{"duration":1.25,"durationTicks":2400,"midi":50,"name":"D3","ticks":241920,"time":126,"velocity":1},{"duration":0.75,"durationTicks":1440,"midi":54,"name":"F#3","ticks":242880,"time":126.5,"velocity":1},{"duration":0.75,"durationTicks":1440,"midi":57,"name":"A3","ticks":242880,"time":126.5,"velocity":1},{"duration":0.75,"durationTicks":1440,"midi":62,"name":"D4","ticks":242880,"time":126.5,"velocity":1},{"duration":0.75,"durationTicks":1440,"midi":66,"name":"F#4","ticks":242880,"time":126.5,"velocity":1},{"duration":1.5,"durationTicks":2880,"midi":50,"name":"D3","ticks":242880,"time":126.5,"velocity":1},{"duration":0.25,"durationTicks":480,"midi":55,"name":"G3","ticks":244320,"time":127.25,"velocity":1},{"duration":0.25,"durationTicks":480,"midi":62,"name":"D4","ticks":244320,"time":127.25,"velocity":1},{"duration":0.25,"durationTicks":480,"midi":67,"name":"G4","ticks":244320,"time":127.25,"velocity":1},{"duration":0.25,"durationTicks":480,"midi":54,"name":"F#3","ticks":244800,"time":127.5,"velocity":1},{"duration":0.25,"durationTicks":480,"midi":62,"name":"D4","ticks":244800,"time":127.5,"velocity":1},{"duration":0.25,"durationTicks":480,"midi":66,"name":"F#4","ticks":244800,"time":127.5,"velocity":1},{"duration":0.25,"durationTicks":480,"midi":57,"name":"A3","ticks":245280,"time":127.75,"velocity":1},{"duration":0.25,"durationTicks":480,"midi":62,"name":"D4","ticks":245280,"time":127.75,"velocity":1},{"duration":0.5,"durationTicks":960,"midi":50,"name":"D3","ticks":245760,"time":128,"velocity":1},{"duration":1.25,"durationTicks":2400,"midi":50,"name":"D3","ticks":245760,"time":128,"velocity":1},{"duration":0.75,"durationTicks":1440,"midi":54,"name":"F#3","ticks":246720,"time":128.5,"velocity":1},{"duration":0.75,"durationTicks":1440,"midi":57,"name":"A3","ticks":246720,"time":128.5,"velocity":1},{"duration":0.75,"durationTicks":1440,"midi":62,"name":"D4","ticks":246720,"time":128.5,"velocity":1},{"duration":0.75,"durationTicks":1440,"midi":66,"name":"F#4","ticks":246720,"time":128.5,"velocity":1},{"duration":1.5,"durationTicks":2880,"midi":50,"name":"D3","ticks":246720,"time":128.5,"velocity":1},{"duration":0.25,"durationTicks":480,"midi":55,"name":"G3","ticks":248160,"time":129.25,"velocity":1},{"duration":0.25,"durationTicks":480,"midi":62,"name":"D4","ticks":248160,"time":129.25,"velocity":1},{"duration":0.25,"durationTicks":480,"midi":67,"name":"G4","ticks":248160,"time":129.25,"velocity":1},{"duration":0.25,"durationTicks":480,"midi":54,"name":"F#3","ticks":248640,"time":129.5,"velocity":1},{"duration":0.25,"durationTicks":480,"midi":62,"name":"D4","ticks":248640,"time":129.5,"velocity":1},{"duration":0.25,"durationTicks":480,"midi":66,"name":"F#4","ticks":248640,"time":129.5,"velocity":1},{"duration":0.25,"durationTicks":480,"midi":57,"name":"A3","ticks":249120,"time":129.75,"velocity":1},{"duration":0.25,"durationTicks":480,"midi":62,"name":"D4","ticks":249120,"time":129.75,"velocity":1},{"duration":14.75,"durationTicks":28320,"midi":50,"name":"D3","ticks":249120,"time":129.75,"velocity":1},{"duration":0.5,"durationTicks":960,"midi":40,"name":"E2","ticks":249600,"time":130,"velocity":1},{"duration":0.5,"durationTicks":960,"midi":40,"name":"E2","ticks":250560,"time":130.5,"velocity":1},{"duration":0.5,"durationTicks":960,"midi":47,"name":"B2","ticks":250560,"time":130.5,"velocity":1},{"duration":0.5,"durationTicks":960,"midi":52,"name":"E3","ticks":250560,"time":130.5,"velocity":1},{"duration":0.5,"durationTicks":960,"midi":55,"name":"G3","ticks":250560,"time":130.5,"velocity":1},{"duration":0.5,"durationTicks":960,"midi":62,"name":"D4","ticks":250560,"time":130.5,"velocity":1},{"duration":0.5,"durationTicks":960,"midi":67,"name":"G4","ticks":250560,"time":130.5,"velocity":1},{"duration":0.25,"durationTicks":480,"midi":40,"name":"E2","ticks":251520,"time":131,"velocity":1},{"duration":0.25,"durationTicks":480,"midi":67,"name":"G4","ticks":251520,"time":131,"velocity":1},{"duration":0.25,"durationTicks":480,"midi":62,"name":"D4","ticks":251520,"time":131,"velocity":1},{"duration":0.25,"durationTicks":480,"midi":55,"name":"G3","ticks":251520,"time":131,"velocity":1},{"duration":0.25,"durationTicks":480,"midi":52,"name":"E3","ticks":251520,"time":131,"velocity":1},{"duration":0.25,"durationTicks":480,"midi":47,"name":"B2","ticks":251520,"time":131,"velocity":1},{"duration":0.25,"durationTicks":480,"midi":40,"name":"E2","ticks":252000,"time":131.25,"velocity":1},{"duration":0.25,"durationTicks":480,"midi":67,"name":"G4","ticks":252000,"time":131.25,"velocity":1},{"duration":0.25,"durationTicks":480,"midi":62,"name":"D4","ticks":252000,"time":131.25,"velocity":1},{"duration":0.25,"durationTicks":480,"midi":55,"name":"G3","ticks":252000,"time":131.25,"velocity":1},{"duration":0.25,"durationTicks":480,"midi":52,"name":"E3","ticks":252000,"time":131.25,"velocity":1},{"duration":0.25,"durationTicks":480,"midi":47,"name":"B2","ticks":252000,"time":131.25,"velocity":1},{"duration":0.25,"durationTicks":480,"midi":40,"name":"E2","ticks":252480,"time":131.5,"velocity":1},{"duration":0.25,"durationTicks":480,"midi":67,"name":"G4","ticks":252480,"time":131.5,"velocity":1},{"duration":0.25,"durationTicks":480,"midi":62,"name":"D4","ticks":252480,"time":131.5,"velocity":1},{"duration":0.25,"durationTicks":480,"midi":55,"name":"G3","ticks":252480,"time":131.5,"velocity":1},{"duration":0.25,"durationTicks":480,"midi":52,"name":"E3","ticks":252480,"time":131.5,"velocity":1},{"duration":0.25,"durationTicks":480,"midi":47,"name":"B2","ticks":252480,"time":131.5,"velocity":1},{"duration":0.25,"durationTicks":480,"midi":40,"name":"E2","ticks":252960,"time":131.75,"velocity":1},{"duration":0.25,"durationTicks":480,"midi":67,"name":"G4","ticks":252960,"time":131.75,"velocity":1},{"duration":0.25,"durationTicks":480,"midi":62,"name":"D4","ticks":252960,"time":131.75,"velocity":1},{"duration":0.25,"durationTicks":480,"midi":55,"name":"G3","ticks":252960,"time":131.75,"velocity":1},{"duration":0.25,"durationTicks":480,"midi":52,"name":"E3","ticks":252960,"time":131.75,"velocity":1},{"duration":0.25,"durationTicks":480,"midi":47,"name":"B2","ticks":252960,"time":131.75,"velocity":1},{"duration":0.5,"durationTicks":960,"midi":45,"name":"A2","ticks":253440,"time":132,"velocity":1},{"duration":0.5,"durationTicks":960,"midi":45,"name":"A2","ticks":254400,"time":132.5,"velocity":1},{"duration":0.5,"durationTicks":960,"midi":52,"name":"E3","ticks":254400,"time":132.5,"velocity":1},{"duration":0.5,"durationTicks":960,"midi":55,"name":"G3","ticks":254400,"time":132.5,"velocity":1},{"duration":0.5,"durationTicks":960,"midi":62,"name":"D4","ticks":254400,"time":132.5,"velocity":1},{"duration":0.5,"durationTicks":960,"midi":64,"name":"E4","ticks":254400,"time":132.5,"velocity":1},{"duration":0.25,"durationTicks":480,"midi":45,"name":"A2","ticks":255360,"time":133,"velocity":1},{"duration":0.25,"durationTicks":480,"midi":52,"name":"E3","ticks":255360,"time":133,"velocity":1},{"duration":0.25,"durationTicks":480,"midi":55,"name":"G3","ticks":255360,"time":133,"velocity":1},{"duration":0.25,"durationTicks":480,"midi":62,"name":"D4","ticks":255360,"time":133,"velocity":1},{"duration":0.25,"durationTicks":480,"midi":64,"name":"E4","ticks":255360,"time":133,"velocity":1},{"duration":0.25,"durationTicks":480,"midi":45,"name":"A2","ticks":255840,"time":133.25,"velocity":1},{"duration":0.25,"durationTicks":480,"midi":52,"name":"E3","ticks":255840,"time":133.25,"velocity":1},{"duration":0.25,"durationTicks":480,"midi":55,"name":"G3","ticks":255840,"time":133.25,"velocity":1},{"duration":0.25,"durationTicks":480,"midi":62,"name":"D4","ticks":255840,"time":133.25,"velocity":1},{"duration":0.25,"durationTicks":480,"midi":64,"name":"E4","ticks":255840,"time":133.25,"velocity":1},{"duration":0.25,"durationTicks":480,"midi":45,"name":"A2","ticks":256320,"time":133.5,"velocity":1},{"duration":0.25,"durationTicks":480,"midi":52,"name":"E3","ticks":256320,"time":133.5,"velocity":1},{"duration":0.25,"durationTicks":480,"midi":55,"name":"G3","ticks":256320,"time":133.5,"velocity":1},{"duration":0.25,"durationTicks":480,"midi":62,"name":"D4","ticks":256320,"time":133.5,"velocity":1},{"duration":0.25,"durationTicks":480,"midi":64,"name":"E4","ticks":256320,"time":133.5,"velocity":1},{"duration":0.25,"durationTicks":480,"midi":45,"name":"A2","ticks":256800,"time":133.75,"velocity":1},{"duration":0.25,"durationTicks":480,"midi":52,"name":"E3","ticks":256800,"time":133.75,"velocity":1},{"duration":0.25,"durationTicks":480,"midi":55,"name":"G3","ticks":256800,"time":133.75,"velocity":1},{"duration":0.25,"durationTicks":480,"midi":62,"name":"D4","ticks":256800,"time":133.75,"velocity":1},{"duration":0.25,"durationTicks":480,"midi":64,"name":"E4","ticks":256800,"time":133.75,"velocity":1},{"duration":0.5,"durationTicks":960,"midi":46,"name":"A#2","ticks":257280,"time":134,"velocity":1},{"duration":0.5,"durationTicks":960,"midi":53,"name":"F3","ticks":257280,"time":134,"velocity":1},{"duration":0.5,"durationTicks":960,"midi":58,"name":"A#3","ticks":257280,"time":134,"velocity":1},{"duration":0.5,"durationTicks":960,"midi":62,"name":"D4","ticks":257280,"time":134,"velocity":1},{"duration":0.25,"durationTicks":480,"midi":46,"name":"A#2","ticks":258240,"time":134.5,"velocity":1},{"duration":0.25,"durationTicks":480,"midi":53,"name":"F3","ticks":258240,"time":134.5,"velocity":1},{"duration":0.25,"durationTicks":480,"midi":58,"name":"A#3","ticks":258240,"time":134.5,"velocity":1},{"duration":0.25,"durationTicks":480,"midi":62,"name":"D4","ticks":258240,"time":134.5,"velocity":1},{"duration":0.25,"durationTicks":480,"midi":46,"name":"A#2","ticks":258720,"time":134.75,"velocity":1},{"duration":0.25,"durationTicks":480,"midi":53,"name":"F3","ticks":258720,"time":134.75,"velocity":1},{"duration":0.25,"durationTicks":480,"midi":58,"name":"A#3","ticks":258720,"time":134.75,"velocity":1},{"duration":0.25,"durationTicks":480,"midi":62,"name":"D4","ticks":258720,"time":134.75,"velocity":1},{"duration":0.25,"durationTicks":480,"midi":46,"name":"A#2","ticks":259200,"time":135,"velocity":1},{"duration":0.25,"durationTicks":480,"midi":53,"name":"F3","ticks":259200,"time":135,"velocity":1},{"duration":0.25,"durationTicks":480,"midi":58,"name":"A#3","ticks":259200,"time":135,"velocity":1},{"duration":0.25,"durationTicks":480,"midi":62,"name":"D4","ticks":259200,"time":135,"velocity":1},{"duration":0.25,"durationTicks":480,"midi":46,"name":"A#2","ticks":259680,"time":135.25,"velocity":1},{"duration":0.25,"durationTicks":480,"midi":53,"name":"F3","ticks":259680,"time":135.25,"velocity":1},{"duration":0.25,"durationTicks":480,"midi":58,"name":"A#3","ticks":259680,"time":135.25,"velocity":1},{"duration":0.25,"durationTicks":480,"midi":62,"name":"D4","ticks":259680,"time":135.25,"velocity":1},{"duration":0.25,"durationTicks":480,"midi":46,"name":"A#2","ticks":260160,"time":135.5,"velocity":1},{"duration":0.25,"durationTicks":480,"midi":53,"name":"F3","ticks":260160,"time":135.5,"velocity":1},{"duration":0.25,"durationTicks":480,"midi":58,"name":"A#3","ticks":260160,"time":135.5,"velocity":1},{"duration":0.25,"durationTicks":480,"midi":62,"name":"D4","ticks":260160,"time":135.5,"velocity":1},{"duration":0.25,"durationTicks":480,"midi":46,"name":"A#2","ticks":260640,"time":135.75,"velocity":1},{"duration":0.25,"durationTicks":480,"midi":53,"name":"F3","ticks":260640,"time":135.75,"velocity":1},{"duration":0.25,"durationTicks":480,"midi":58,"name":"A#3","ticks":260640,"time":135.75,"velocity":1},{"duration":0.25,"durationTicks":480,"midi":62,"name":"D4","ticks":260640,"time":135.75,"velocity":1},{"duration":0.25,"durationTicks":480,"midi":65,"name":"F4","ticks":261120,"time":136,"velocity":1},{"duration":0.25,"durationTicks":480,"midi":60,"name":"C4","ticks":261120,"time":136,"velocity":1},{"duration":0.25,"durationTicks":480,"midi":57,"name":"A3","ticks":261120,"time":136,"velocity":1},{"duration":0.25,"durationTicks":480,"midi":53,"name":"F3","ticks":261120,"time":136,"velocity":1},{"duration":0.25,"durationTicks":480,"midi":48,"name":"C3","ticks":261120,"time":136,"velocity":1},{"duration":0.25,"durationTicks":480,"midi":41,"name":"F2","ticks":261120,"time":136,"velocity":1},{"duration":0.25,"durationTicks":480,"midi":41,"name":"F2","ticks":261600,"time":136.25,"velocity":1},{"duration":0.25,"durationTicks":480,"midi":48,"name":"C3","ticks":261600,"time":136.25,"velocity":1},{"duration":0.25,"durationTicks":480,"midi":53,"name":"F3","ticks":261600,"time":136.25,"velocity":1},{"duration":0.25,"durationTicks":480,"midi":57,"name":"A3","ticks":261600,"time":136.25,"velocity":1},{"duration":0.25,"durationTicks":480,"midi":60,"name":"C4","ticks":261600,"time":136.25,"velocity":1},{"duration":0.25,"durationTicks":480,"midi":65,"name":"F4","ticks":261600,"time":136.25,"velocity":1},{"duration":0.25,"durationTicks":480,"midi":41,"name":"F2","ticks":262080,"time":136.5,"velocity":1},{"duration":0.25,"durationTicks":480,"midi":48,"name":"C3","ticks":262080,"time":136.5,"velocity":1},{"duration":0.25,"durationTicks":480,"midi":53,"name":"F3","ticks":262080,"time":136.5,"velocity":1},{"duration":0.25,"durationTicks":480,"midi":57,"name":"A3","ticks":262080,"time":136.5,"velocity":1},{"duration":0.25,"durationTicks":480,"midi":60,"name":"C4","ticks":262080,"time":136.5,"velocity":1},{"duration":0.25,"durationTicks":480,"midi":65,"name":"F4","ticks":262080,"time":136.5,"velocity":1},{"duration":0.25,"durationTicks":480,"midi":41,"name":"F2","ticks":262560,"time":136.75,"velocity":1},{"duration":0.25,"durationTicks":480,"midi":48,"name":"C3","ticks":262560,"time":136.75,"velocity":1},{"duration":0.25,"durationTicks":480,"midi":53,"name":"F3","ticks":262560,"time":136.75,"velocity":1},{"duration":0.25,"durationTicks":480,"midi":57,"name":"A3","ticks":262560,"time":136.75,"velocity":1},{"duration":0.25,"durationTicks":480,"midi":60,"name":"C4","ticks":262560,"time":136.75,"velocity":1},{"duration":0.25,"durationTicks":480,"midi":65,"name":"F4","ticks":262560,"time":136.75,"velocity":1},{"duration":0.25,"durationTicks":480,"midi":48,"name":"C3","ticks":263040,"time":137,"velocity":1},{"duration":0.25,"durationTicks":480,"midi":52,"name":"E3","ticks":263040,"time":137,"velocity":1},{"duration":0.25,"durationTicks":480,"midi":55,"name":"G3","ticks":263040,"time":137,"velocity":1},{"duration":0.25,"durationTicks":480,"midi":60,"name":"C4","ticks":263040,"time":137,"velocity":1},{"duration":0.25,"durationTicks":480,"midi":64,"name":"E4","ticks":263040,"time":137,"velocity":1},{"duration":0.25,"durationTicks":480,"midi":48,"name":"C3","ticks":263520,"time":137.25,"velocity":1},{"duration":0.25,"durationTicks":480,"midi":52,"name":"E3","ticks":263520,"time":137.25,"velocity":1},{"duration":0.25,"durationTicks":480,"midi":55,"name":"G3","ticks":263520,"time":137.25,"velocity":1},{"duration":0.25,"durationTicks":480,"midi":60,"name":"C4","ticks":263520,"time":137.25,"velocity":1},{"duration":0.25,"durationTicks":480,"midi":64,"name":"E4","ticks":263520,"time":137.25,"velocity":1},{"duration":0.25,"durationTicks":480,"midi":48,"name":"C3","ticks":264000,"time":137.5,"velocity":1},{"duration":0.25,"durationTicks":480,"midi":52,"name":"E3","ticks":264000,"time":137.5,"velocity":1},{"duration":0.25,"durationTicks":480,"midi":55,"name":"G3","ticks":264000,"time":137.5,"velocity":1},{"duration":0.25,"durationTicks":480,"midi":60,"name":"C4","ticks":264000,"time":137.5,"velocity":1},{"duration":0.25,"durationTicks":480,"midi":64,"name":"E4","ticks":264000,"time":137.5,"velocity":1},{"duration":0.25,"durationTicks":480,"midi":48,"name":"C3","ticks":264480,"time":137.75,"velocity":1},{"duration":0.25,"durationTicks":480,"midi":52,"name":"E3","ticks":264480,"time":137.75,"velocity":1},{"duration":0.25,"durationTicks":480,"midi":55,"name":"G3","ticks":264480,"time":137.75,"velocity":1},{"duration":0.25,"durationTicks":480,"midi":60,"name":"C4","ticks":264480,"time":137.75,"velocity":1},{"duration":0.25,"durationTicks":480,"midi":64,"name":"E4","ticks":264480,"time":137.75,"velocity":1},{"duration":0.25,"durationTicks":480,"midi":46,"name":"A#2","ticks":264960,"time":138,"velocity":1},{"duration":0.25,"durationTicks":480,"midi":53,"name":"F3","ticks":264960,"time":138,"velocity":1},{"duration":0.25,"durationTicks":480,"midi":58,"name":"A#3","ticks":264960,"time":138,"velocity":1},{"duration":0.25,"durationTicks":480,"midi":62,"name":"D4","ticks":264960,"time":138,"velocity":1},{"duration":0.25,"durationTicks":480,"midi":46,"name":"A#2","ticks":265440,"time":138.25,"velocity":1},{"duration":0.25,"durationTicks":480,"midi":53,"name":"F3","ticks":265440,"time":138.25,"velocity":1},{"duration":0.25,"durationTicks":480,"midi":58,"name":"A#3","ticks":265440,"time":138.25,"velocity":1},{"duration":0.25,"durationTicks":480,"midi":62,"name":"D4","ticks":265440,"time":138.25,"velocity":1},{"duration":0.25,"durationTicks":480,"midi":46,"name":"A#2","ticks":265920,"time":138.5,"velocity":1},{"duration":0.25,"durationTicks":480,"midi":53,"name":"F3","ticks":265920,"time":138.5,"velocity":1},{"duration":0.25,"durationTicks":480,"midi":58,"name":"A#3","ticks":265920,"time":138.5,"velocity":1},{"duration":0.25,"durationTicks":480,"midi":62,"name":"D4","ticks":265920,"time":138.5,"velocity":1},{"duration":0.25,"durationTicks":480,"midi":46,"name":"A#2","ticks":266400,"time":138.75,"velocity":1},{"duration":0.25,"durationTicks":480,"midi":53,"name":"F3","ticks":266400,"time":138.75,"velocity":1},{"duration":0.25,"durationTicks":480,"midi":58,"name":"A#3","ticks":266400,"time":138.75,"velocity":1},{"duration":0.25,"durationTicks":480,"midi":62,"name":"D4","ticks":266400,"time":138.75,"velocity":1},{"duration":0.25,"durationTicks":480,"midi":65,"name":"F4","ticks":266880,"time":139,"velocity":1},{"duration":0.25,"durationTicks":480,"midi":60,"name":"C4","ticks":266880,"time":139,"velocity":1},{"duration":0.25,"durationTicks":480,"midi":57,"name":"A3","ticks":266880,"time":139,"velocity":1},{"duration":0.25,"durationTicks":480,"midi":53,"name":"F3","ticks":266880,"time":139,"velocity":1},{"duration":0.25,"durationTicks":480,"midi":48,"name":"C3","ticks":266880,"time":139,"velocity":1},{"duration":0.25,"durationTicks":480,"midi":41,"name":"F2","ticks":266880,"time":139,"velocity":1},{"duration":0.25,"durationTicks":480,"midi":41,"name":"F2","ticks":267360,"time":139.25,"velocity":1},{"duration":0.25,"durationTicks":480,"midi":48,"name":"C3","ticks":267360,"time":139.25,"velocity":1},{"duration":0.25,"durationTicks":480,"midi":53,"name":"F3","ticks":267360,"time":139.25,"velocity":1},{"duration":0.25,"durationTicks":480,"midi":57,"name":"A3","ticks":267360,"time":139.25,"velocity":1},{"duration":0.25,"durationTicks":480,"midi":60,"name":"C4","ticks":267360,"time":139.25,"velocity":1},{"duration":0.25,"durationTicks":480,"midi":65,"name":"F4","ticks":267360,"time":139.25,"velocity":1},{"duration":0.25,"durationTicks":480,"midi":41,"name":"F2","ticks":267840,"time":139.5,"velocity":1},{"duration":0.25,"durationTicks":480,"midi":48,"name":"C3","ticks":267840,"time":139.5,"velocity":1},{"duration":0.25,"durationTicks":480,"midi":53,"name":"F3","ticks":267840,"time":139.5,"velocity":1},{"duration":0.25,"durationTicks":480,"midi":57,"name":"A3","ticks":267840,"time":139.5,"velocity":1},{"duration":0.25,"durationTicks":480,"midi":60,"name":"C4","ticks":267840,"time":139.5,"velocity":1},{"duration":0.25,"durationTicks":480,"midi":65,"name":"F4","ticks":267840,"time":139.5,"velocity":1},{"duration":0.25,"durationTicks":480,"midi":41,"name":"F2","ticks":268320,"time":139.75,"velocity":1},{"duration":0.25,"durationTicks":480,"midi":48,"name":"C3","ticks":268320,"time":139.75,"velocity":1},{"duration":0.25,"durationTicks":480,"midi":53,"name":"F3","ticks":268320,"time":139.75,"velocity":1},{"duration":0.25,"durationTicks":480,"midi":57,"name":"A3","ticks":268320,"time":139.75,"velocity":1},{"duration":0.25,"durationTicks":480,"midi":60,"name":"C4","ticks":268320,"time":139.75,"velocity":1},{"duration":0.25,"durationTicks":480,"midi":65,"name":"F4","ticks":268320,"time":139.75,"velocity":1},{"duration":0.25,"durationTicks":480,"midi":65,"name":"F4","ticks":268800,"time":140,"velocity":1},{"duration":0.25,"durationTicks":480,"midi":60,"name":"C4","ticks":268800,"time":140,"velocity":1},{"duration":0.25,"durationTicks":480,"midi":57,"name":"A3","ticks":268800,"time":140,"velocity":1},{"duration":0.25,"durationTicks":480,"midi":53,"name":"F3","ticks":268800,"time":140,"velocity":1},{"duration":0.25,"durationTicks":480,"midi":48,"name":"C3","ticks":268800,"time":140,"velocity":1},{"duration":0.25,"durationTicks":480,"midi":41,"name":"F2","ticks":268800,"time":140,"velocity":1},{"duration":0.25,"durationTicks":480,"midi":41,"name":"F2","ticks":269280,"time":140.25,"velocity":1},{"duration":0.25,"durationTicks":480,"midi":48,"name":"C3","ticks":269280,"time":140.25,"velocity":1},{"duration":0.25,"durationTicks":480,"midi":53,"name":"F3","ticks":269280,"time":140.25,"velocity":1},{"duration":0.25,"durationTicks":480,"midi":57,"name":"A3","ticks":269280,"time":140.25,"velocity":1},{"duration":0.25,"durationTicks":480,"midi":60,"name":"C4","ticks":269280,"time":140.25,"velocity":1},{"duration":0.25,"durationTicks":480,"midi":65,"name":"F4","ticks":269280,"time":140.25,"velocity":1},{"duration":0.25,"durationTicks":480,"midi":41,"name":"F2","ticks":269760,"time":140.5,"velocity":1},{"duration":0.25,"durationTicks":480,"midi":48,"name":"C3","ticks":269760,"time":140.5,"velocity":1},{"duration":0.25,"durationTicks":480,"midi":53,"name":"F3","ticks":269760,"time":140.5,"velocity":1},{"duration":0.25,"durationTicks":480,"midi":57,"name":"A3","ticks":269760,"time":140.5,"velocity":1},{"duration":0.25,"durationTicks":480,"midi":60,"name":"C4","ticks":269760,"time":140.5,"velocity":1},{"duration":0.25,"durationTicks":480,"midi":65,"name":"F4","ticks":269760,"time":140.5,"velocity":1},{"duration":0.25,"durationTicks":480,"midi":41,"name":"F2","ticks":270240,"time":140.75,"velocity":1},{"duration":0.25,"durationTicks":480,"midi":48,"name":"C3","ticks":270240,"time":140.75,"velocity":1},{"duration":0.25,"durationTicks":480,"midi":53,"name":"F3","ticks":270240,"time":140.75,"velocity":1},{"duration":0.25,"durationTicks":480,"midi":57,"name":"A3","ticks":270240,"time":140.75,"velocity":1},{"duration":0.25,"durationTicks":480,"midi":60,"name":"C4","ticks":270240,"time":140.75,"velocity":1},{"duration":0.25,"durationTicks":480,"midi":65,"name":"F4","ticks":270240,"time":140.75,"velocity":1},{"duration":0.25,"durationTicks":480,"midi":48,"name":"C3","ticks":270720,"time":141,"velocity":1},{"duration":0.25,"durationTicks":480,"midi":52,"name":"E3","ticks":270720,"time":141,"velocity":1},{"duration":0.25,"durationTicks":480,"midi":55,"name":"G3","ticks":270720,"time":141,"velocity":1},{"duration":0.25,"durationTicks":480,"midi":60,"name":"C4","ticks":270720,"time":141,"velocity":1},{"duration":0.25,"durationTicks":480,"midi":64,"name":"E4","ticks":270720,"time":141,"velocity":1},{"duration":0.25,"durationTicks":480,"midi":48,"name":"C3","ticks":271200,"time":141.25,"velocity":1},{"duration":0.25,"durationTicks":480,"midi":52,"name":"E3","ticks":271200,"time":141.25,"velocity":1},{"duration":0.25,"durationTicks":480,"midi":55,"name":"G3","ticks":271200,"time":141.25,"velocity":1},{"duration":0.25,"durationTicks":480,"midi":60,"name":"C4","ticks":271200,"time":141.25,"velocity":1},{"duration":0.25,"durationTicks":480,"midi":64,"name":"E4","ticks":271200,"time":141.25,"velocity":1},{"duration":0.25,"durationTicks":480,"midi":48,"name":"C3","ticks":271680,"time":141.5,"velocity":1},{"duration":0.25,"durationTicks":480,"midi":52,"name":"E3","ticks":271680,"time":141.5,"velocity":1},{"duration":0.25,"durationTicks":480,"midi":55,"name":"G3","ticks":271680,"time":141.5,"velocity":1},{"duration":0.25,"durationTicks":480,"midi":60,"name":"C4","ticks":271680,"time":141.5,"velocity":1},{"duration":0.25,"durationTicks":480,"midi":64,"name":"E4","ticks":271680,"time":141.5,"velocity":1},{"duration":0.25,"durationTicks":480,"midi":48,"name":"C3","ticks":272160,"time":141.75,"velocity":1},{"duration":0.25,"durationTicks":480,"midi":52,"name":"E3","ticks":272160,"time":141.75,"velocity":1},{"duration":0.25,"durationTicks":480,"midi":55,"name":"G3","ticks":272160,"time":141.75,"velocity":1},{"duration":0.25,"durationTicks":480,"midi":60,"name":"C4","ticks":272160,"time":141.75,"velocity":1},{"duration":0.25,"durationTicks":480,"midi":64,"name":"E4","ticks":272160,"time":141.75,"velocity":1},{"duration":0.25,"durationTicks":480,"midi":46,"name":"A#2","ticks":272640,"time":142,"velocity":1},{"duration":0.25,"durationTicks":480,"midi":53,"name":"F3","ticks":272640,"time":142,"velocity":1},{"duration":0.25,"durationTicks":480,"midi":58,"name":"A#3","ticks":272640,"time":142,"velocity":1},{"duration":0.25,"durationTicks":480,"midi":62,"name":"D4","ticks":272640,"time":142,"velocity":1},{"duration":0.25,"durationTicks":480,"midi":46,"name":"A#2","ticks":273120,"time":142.25,"velocity":1},{"duration":0.25,"durationTicks":480,"midi":53,"name":"F3","ticks":273120,"time":142.25,"velocity":1},{"duration":0.25,"durationTicks":480,"midi":58,"name":"A#3","ticks":273120,"time":142.25,"velocity":1},{"duration":0.25,"durationTicks":480,"midi":62,"name":"D4","ticks":273120,"time":142.25,"velocity":1},{"duration":0.25,"durationTicks":480,"midi":46,"name":"A#2","ticks":273600,"time":142.5,"velocity":1},{"duration":0.25,"durationTicks":480,"midi":53,"name":"F3","ticks":273600,"time":142.5,"velocity":1},{"duration":0.25,"durationTicks":480,"midi":58,"name":"A#3","ticks":273600,"time":142.5,"velocity":1},{"duration":0.25,"durationTicks":480,"midi":62,"name":"D4","ticks":273600,"time":142.5,"velocity":1},{"duration":0.25,"durationTicks":480,"midi":46,"name":"A#2","ticks":274080,"time":142.75,"velocity":1},{"duration":0.25,"durationTicks":480,"midi":53,"name":"F3","ticks":274080,"time":142.75,"velocity":1},{"duration":0.25,"durationTicks":480,"midi":58,"name":"A#3","ticks":274080,"time":142.75,"velocity":1},{"duration":0.25,"durationTicks":480,"midi":62,"name":"D4","ticks":274080,"time":142.75,"velocity":1},{"duration":0.25,"durationTicks":480,"midi":65,"name":"F4","ticks":274560,"time":143,"velocity":1},{"duration":0.25,"durationTicks":480,"midi":60,"name":"C4","ticks":274560,"time":143,"velocity":1},{"duration":0.25,"durationTicks":480,"midi":57,"name":"A3","ticks":274560,"time":143,"velocity":1},{"duration":0.25,"durationTicks":480,"midi":53,"name":"F3","ticks":274560,"time":143,"velocity":1},{"duration":0.25,"durationTicks":480,"midi":48,"name":"C3","ticks":274560,"time":143,"velocity":1},{"duration":0.25,"durationTicks":480,"midi":41,"name":"F2","ticks":274560,"time":143,"velocity":1},{"duration":0.25,"durationTicks":480,"midi":41,"name":"F2","ticks":275040,"time":143.25,"velocity":1},{"duration":0.25,"durationTicks":480,"midi":48,"name":"C3","ticks":275040,"time":143.25,"velocity":1},{"duration":0.25,"durationTicks":480,"midi":53,"name":"F3","ticks":275040,"time":143.25,"velocity":1},{"duration":0.25,"durationTicks":480,"midi":57,"name":"A3","ticks":275040,"time":143.25,"velocity":1},{"duration":0.25,"durationTicks":480,"midi":60,"name":"C4","ticks":275040,"time":143.25,"velocity":1},{"duration":0.25,"durationTicks":480,"midi":65,"name":"F4","ticks":275040,"time":143.25,"velocity":1},{"duration":0.25,"durationTicks":480,"midi":41,"name":"F2","ticks":275520,"time":143.5,"velocity":1},{"duration":0.25,"durationTicks":480,"midi":48,"name":"C3","ticks":275520,"time":143.5,"velocity":1},{"duration":0.25,"durationTicks":480,"midi":53,"name":"F3","ticks":275520,"time":143.5,"velocity":1},{"duration":0.25,"durationTicks":480,"midi":57,"name":"A3","ticks":275520,"time":143.5,"velocity":1},{"duration":0.25,"durationTicks":480,"midi":60,"name":"C4","ticks":275520,"time":143.5,"velocity":1},{"duration":0.25,"durationTicks":480,"midi":65,"name":"F4","ticks":275520,"time":143.5,"velocity":1},{"duration":0.25,"durationTicks":480,"midi":41,"name":"F2","ticks":276000,"time":143.75,"velocity":1},{"duration":0.25,"durationTicks":480,"midi":48,"name":"C3","ticks":276000,"time":143.75,"velocity":1},{"duration":0.25,"durationTicks":480,"midi":53,"name":"F3","ticks":276000,"time":143.75,"velocity":1},{"duration":0.25,"durationTicks":480,"midi":57,"name":"A3","ticks":276000,"time":143.75,"velocity":1},{"duration":0.25,"durationTicks":480,"midi":60,"name":"C4","ticks":276000,"time":143.75,"velocity":1},{"duration":0.25,"durationTicks":480,"midi":65,"name":"F4","ticks":276000,"time":143.75,"velocity":1},{"duration":0.5,"durationTicks":960,"midi":43,"name":"G2","ticks":276480,"time":144,"velocity":1},{"duration":0.5,"durationTicks":960,"midi":55,"name":"G3","ticks":276480,"time":144,"velocity":1},{"duration":0.5,"durationTicks":960,"midi":58,"name":"A#3","ticks":276480,"time":144,"velocity":1},{"duration":0.5,"durationTicks":960,"midi":62,"name":"D4","ticks":276480,"time":144,"velocity":1},{"duration":0.5,"durationTicks":960,"midi":67,"name":"G4","ticks":276480,"time":144,"velocity":1},{"duration":0.75,"durationTicks":1440,"midi":50,"name":"D3","ticks":276480,"time":144,"velocity":1},{"duration":0.25,"durationTicks":480,"midi":67,"name":"G4","ticks":277440,"time":144.5,"velocity":1},{"duration":0.25,"durationTicks":480,"midi":62,"name":"D4","ticks":277440,"time":144.5,"velocity":1},{"duration":0.25,"durationTicks":480,"midi":58,"name":"A#3","ticks":277440,"time":144.5,"velocity":1},{"duration":0.25,"durationTicks":480,"midi":55,"name":"G3","ticks":277440,"time":144.5,"velocity":1},{"duration":0.25,"durationTicks":480,"midi":43,"name":"G2","ticks":277440,"time":144.5,"velocity":1},{"duration":0.5,"durationTicks":960,"midi":50,"name":"D3","ticks":277440,"time":144.5,"velocity":1},{"duration":0.25,"durationTicks":480,"midi":67,"name":"G4","ticks":277920,"time":144.75,"velocity":1},{"duration":0.25,"durationTicks":480,"midi":62,"name":"D4","ticks":277920,"time":144.75,"velocity":1},{"duration":0.25,"durationTicks":480,"midi":58,"name":"A#3","ticks":277920,"time":144.75,"velocity":1},{"duration":0.25,"durationTicks":480,"midi":55,"name":"G3","ticks":277920,"time":144.75,"velocity":1},{"duration":0.25,"durationTicks":480,"midi":43,"name":"G2","ticks":277920,"time":144.75,"velocity":1},{"duration":2.75,"durationTicks":5280,"midi":50,"name":"D3","ticks":277920,"time":144.75,"velocity":1},{"duration":0.5,"durationTicks":960,"midi":48,"name":"C3","ticks":278400,"time":145,"velocity":1},{"duration":0.5,"durationTicks":960,"midi":52,"name":"E3","ticks":278400,"time":145,"velocity":1},{"duration":0.5,"durationTicks":960,"midi":55,"name":"G3","ticks":278400,"time":145,"velocity":1},{"duration":0.5,"durationTicks":960,"midi":60,"name":"C4","ticks":278400,"time":145,"velocity":1},{"duration":0.5,"durationTicks":960,"midi":64,"name":"E4","ticks":278400,"time":145,"velocity":1},{"duration":0.25,"durationTicks":480,"midi":64,"name":"E4","ticks":279360,"time":145.5,"velocity":1},{"duration":0.25,"durationTicks":480,"midi":60,"name":"C4","ticks":279360,"time":145.5,"velocity":1},{"duration":0.25,"durationTicks":480,"midi":55,"name":"G3","ticks":279360,"time":145.5,"velocity":1},{"duration":0.25,"durationTicks":480,"midi":52,"name":"E3","ticks":279360,"time":145.5,"velocity":1},{"duration":0.25,"durationTicks":480,"midi":48,"name":"C3","ticks":279360,"time":145.5,"velocity":1},{"duration":0.25,"durationTicks":480,"midi":64,"name":"E4","ticks":279840,"time":145.75,"velocity":1},{"duration":0.25,"durationTicks":480,"midi":60,"name":"C4","ticks":279840,"time":145.75,"velocity":1},{"duration":0.25,"durationTicks":480,"midi":55,"name":"G3","ticks":279840,"time":145.75,"velocity":1},{"duration":0.25,"durationTicks":480,"midi":52,"name":"E3","ticks":279840,"time":145.75,"velocity":1},{"duration":0.25,"durationTicks":480,"midi":48,"name":"C3","ticks":279840,"time":145.75,"velocity":1},{"duration":0.5,"durationTicks":960,"midi":41,"name":"F2","ticks":280320,"time":146,"velocity":1},{"duration":0.5,"durationTicks":960,"midi":48,"name":"C3","ticks":280320,"time":146,"velocity":1},{"duration":0.5,"durationTicks":960,"midi":53,"name":"F3","ticks":280320,"time":146,"velocity":1},{"duration":0.5,"durationTicks":960,"midi":57,"name":"A3","ticks":280320,"time":146,"velocity":1},{"duration":0.5,"durationTicks":960,"midi":60,"name":"C4","ticks":280320,"time":146,"velocity":1},{"duration":0.5,"durationTicks":960,"midi":65,"name":"F4","ticks":280320,"time":146,"velocity":1},{"duration":0.25,"durationTicks":480,"midi":65,"name":"F4","ticks":281280,"time":146.5,"velocity":1},{"duration":0.25,"durationTicks":480,"midi":60,"name":"C4","ticks":281280,"time":146.5,"velocity":1},{"duration":0.25,"durationTicks":480,"midi":57,"name":"A3","ticks":281280,"time":146.5,"velocity":1},{"duration":0.25,"durationTicks":480,"midi":53,"name":"F3","ticks":281280,"time":146.5,"velocity":1},{"duration":0.25,"durationTicks":480,"midi":48,"name":"C3","ticks":281280,"time":146.5,"velocity":1},{"duration":0.25,"durationTicks":480,"midi":41,"name":"F2","ticks":281280,"time":146.5,"velocity":1},{"duration":0.25,"durationTicks":480,"midi":65,"name":"F4","ticks":281760,"time":146.75,"velocity":1},{"duration":0.25,"durationTicks":480,"midi":60,"name":"C4","ticks":281760,"time":146.75,"velocity":1},{"duration":0.25,"durationTicks":480,"midi":57,"name":"A3","ticks":281760,"time":146.75,"velocity":1},{"duration":0.25,"durationTicks":480,"midi":53,"name":"F3","ticks":281760,"time":146.75,"velocity":1},{"duration":0.25,"durationTicks":480,"midi":48,"name":"C3","ticks":281760,"time":146.75,"velocity":1},{"duration":0.25,"durationTicks":480,"midi":41,"name":"F2","ticks":281760,"time":146.75,"velocity":1},{"duration":0.5,"durationTicks":960,"midi":57,"name":"A3","ticks":282240,"time":147,"velocity":1},{"duration":0.5,"durationTicks":960,"midi":62,"name":"D4","ticks":282240,"time":147,"velocity":1},{"duration":0.5,"durationTicks":960,"midi":65,"name":"F4","ticks":282240,"time":147,"velocity":1},{"duration":0.75,"durationTicks":1440,"midi":50,"name":"D3","ticks":282240,"time":147,"velocity":1},{"duration":0.25,"durationTicks":480,"midi":65,"name":"F4","ticks":283200,"time":147.5,"velocity":1},{"duration":0.25,"durationTicks":480,"midi":62,"name":"D4","ticks":283200,"time":147.5,"velocity":1},{"duration":0.25,"durationTicks":480,"midi":57,"name":"A3","ticks":283200,"time":147.5,"velocity":1},{"duration":0.5,"durationTicks":960,"midi":50,"name":"D3","ticks":283200,"time":147.5,"velocity":1},{"duration":0.25,"durationTicks":480,"midi":65,"name":"F4","ticks":283680,"time":147.75,"velocity":1},{"duration":0.25,"durationTicks":480,"midi":62,"name":"D4","ticks":283680,"time":147.75,"velocity":1},{"duration":0.25,"durationTicks":480,"midi":57,"name":"A3","ticks":283680,"time":147.75,"velocity":1},{"duration":2.75,"durationTicks":5280,"midi":50,"name":"D3","ticks":283680,"time":147.75,"velocity":1},{"duration":0.5,"durationTicks":960,"midi":62,"name":"D4","ticks":284160,"time":148,"velocity":1},{"duration":0.5,"durationTicks":960,"midi":46,"name":"A#2","ticks":284160,"time":148,"velocity":1},{"duration":0.5,"durationTicks":960,"midi":53,"name":"F3","ticks":284160,"time":148,"velocity":1},{"duration":0.5,"durationTicks":960,"midi":58,"name":"A#3","ticks":284160,"time":148,"velocity":1},{"duration":0.25,"durationTicks":480,"midi":62,"name":"D4","ticks":285120,"time":148.5,"velocity":1},{"duration":0.25,"durationTicks":480,"midi":58,"name":"A#3","ticks":285120,"time":148.5,"velocity":1},{"duration":0.25,"durationTicks":480,"midi":53,"name":"F3","ticks":285120,"time":148.5,"velocity":1},{"duration":0.25,"durationTicks":480,"midi":46,"name":"A#2","ticks":285120,"time":148.5,"velocity":1},{"duration":0.25,"durationTicks":480,"midi":62,"name":"D4","ticks":285600,"time":148.75,"velocity":1},{"duration":0.25,"durationTicks":480,"midi":58,"name":"A#3","ticks":285600,"time":148.75,"velocity":1},{"duration":0.25,"durationTicks":480,"midi":53,"name":"F3","ticks":285600,"time":148.75,"velocity":1},{"duration":0.25,"durationTicks":480,"midi":46,"name":"A#2","ticks":285600,"time":148.75,"velocity":1},{"duration":0.5,"durationTicks":960,"midi":61,"name":"C#4","ticks":286080,"time":149,"velocity":1},{"duration":0.5,"durationTicks":960,"midi":45,"name":"A2","ticks":286080,"time":149,"velocity":1},{"duration":0.5,"durationTicks":960,"midi":52,"name":"E3","ticks":286080,"time":149,"velocity":1},{"duration":0.5,"durationTicks":960,"midi":57,"name":"A3","ticks":286080,"time":149,"velocity":1},{"duration":0.25,"durationTicks":480,"midi":45,"name":"A2","ticks":287040,"time":149.5,"velocity":1},{"duration":0.25,"durationTicks":480,"midi":52,"name":"E3","ticks":287040,"time":149.5,"velocity":1},{"duration":0.25,"durationTicks":480,"midi":57,"name":"A3","ticks":287040,"time":149.5,"velocity":1},{"duration":0.25,"durationTicks":480,"midi":61,"name":"C#4","ticks":287040,"time":149.5,"velocity":1},{"duration":0.25,"durationTicks":480,"midi":45,"name":"A2","ticks":287520,"time":149.75,"velocity":1},{"duration":0.25,"durationTicks":480,"midi":52,"name":"E3","ticks":287520,"time":149.75,"velocity":1},{"duration":0.25,"durationTicks":480,"midi":57,"name":"A3","ticks":287520,"time":149.75,"velocity":1},{"duration":0.25,"durationTicks":480,"midi":61,"name":"C#4","ticks":287520,"time":149.75,"velocity":1},{"duration":1.25,"durationTicks":2400,"midi":50,"name":"D3","ticks":288000,"time":150,"velocity":1},{"duration":0.75,"durationTicks":1440,"midi":54,"name":"F#3","ticks":288960,"time":150.5,"velocity":1},{"duration":0.75,"durationTicks":1440,"midi":57,"name":"A3","ticks":288960,"time":150.5,"velocity":1},{"duration":0.75,"durationTicks":1440,"midi":62,"name":"D4","ticks":288960,"time":150.5,"velocity":1},{"duration":0.75,"durationTicks":1440,"midi":66,"name":"F#4","ticks":288960,"time":150.5,"velocity":1},{"duration":1.5,"durationTicks":2880,"midi":50,"name":"D3","ticks":288960,"time":150.5,"velocity":1},{"duration":0.25,"durationTicks":480,"midi":55,"name":"G3","ticks":290400,"time":151.25,"velocity":1},{"duration":0.25,"durationTicks":480,"midi":62,"name":"D4","ticks":290400,"time":151.25,"velocity":1},{"duration":0.25,"durationTicks":480,"midi":67,"name":"G4","ticks":290400,"time":151.25,"velocity":1},{"duration":0.25,"durationTicks":480,"midi":54,"name":"F#3","ticks":290880,"time":151.5,"velocity":1},{"duration":0.25,"durationTicks":480,"midi":62,"name":"D4","ticks":290880,"time":151.5,"velocity":1},{"duration":0.25,"durationTicks":480,"midi":66,"name":"F#4","ticks":290880,"time":151.5,"velocity":1},{"duration":0.25,"durationTicks":480,"midi":57,"name":"A3","ticks":291360,"time":151.75,"velocity":1},{"duration":0.25,"durationTicks":480,"midi":62,"name":"D4","ticks":291360,"time":151.75,"velocity":1},{"duration":0.5,"durationTicks":960,"midi":50,"name":"D3","ticks":291840,"time":152,"velocity":1},{"duration":1.25,"durationTicks":2400,"midi":50,"name":"D3","ticks":291840,"time":152,"velocity":1},{"duration":0.75,"durationTicks":1440,"midi":54,"name":"F#3","ticks":292800,"time":152.5,"velocity":1},{"duration":0.75,"durationTicks":1440,"midi":57,"name":"A3","ticks":292800,"time":152.5,"velocity":1},{"duration":0.75,"durationTicks":1440,"midi":62,"name":"D4","ticks":292800,"time":152.5,"velocity":1},{"duration":0.75,"durationTicks":1440,"midi":66,"name":"F#4","ticks":292800,"time":152.5,"velocity":1},{"duration":1.5,"durationTicks":2880,"midi":50,"name":"D3","ticks":292800,"time":152.5,"velocity":1},{"duration":0.25,"durationTicks":480,"midi":55,"name":"G3","ticks":294240,"time":153.25,"velocity":1},{"duration":0.25,"durationTicks":480,"midi":62,"name":"D4","ticks":294240,"time":153.25,"velocity":1},{"duration":0.25,"durationTicks":480,"midi":67,"name":"G4","ticks":294240,"time":153.25,"velocity":1},{"duration":0.25,"durationTicks":480,"midi":54,"name":"F#3","ticks":294720,"time":153.5,"velocity":1},{"duration":0.25,"durationTicks":480,"midi":62,"name":"D4","ticks":294720,"time":153.5,"velocity":1},{"duration":0.25,"durationTicks":480,"midi":66,"name":"F#4","ticks":294720,"time":153.5,"velocity":1},{"duration":0.25,"durationTicks":480,"midi":57,"name":"A3","ticks":295200,"time":153.75,"velocity":1},{"duration":0.25,"durationTicks":480,"midi":62,"name":"D4","ticks":295200,"time":153.75,"velocity":1},{"duration":0.75,"durationTicks":1440,"midi":50,"name":"D3","ticks":295200,"time":153.75,"velocity":1},{"duration":1.25,"durationTicks":2400,"midi":50,"name":"D3","ticks":295680,"time":154,"velocity":1},{"duration":0.75,"durationTicks":1440,"midi":54,"name":"F#3","ticks":296640,"time":154.5,"velocity":1},{"duration":0.75,"durationTicks":1440,"midi":57,"name":"A3","ticks":296640,"time":154.5,"velocity":1},{"duration":0.75,"durationTicks":1440,"midi":62,"name":"D4","ticks":296640,"time":154.5,"velocity":1},{"duration":0.75,"durationTicks":1440,"midi":66,"name":"F#4","ticks":296640,"time":154.5,"velocity":1},{"duration":1.5,"durationTicks":2880,"midi":50,"name":"D3","ticks":296640,"time":154.5,"velocity":1},{"duration":0.25,"durationTicks":480,"midi":55,"name":"G3","ticks":298080,"time":155.25,"velocity":1},{"duration":0.25,"durationTicks":480,"midi":62,"name":"D4","ticks":298080,"time":155.25,"velocity":1},{"duration":0.25,"durationTicks":480,"midi":67,"name":"G4","ticks":298080,"time":155.25,"velocity":1},{"duration":0.25,"durationTicks":480,"midi":54,"name":"F#3","ticks":298560,"time":155.5,"velocity":1},{"duration":0.25,"durationTicks":480,"midi":62,"name":"D4","ticks":298560,"time":155.5,"velocity":1},{"duration":0.25,"durationTicks":480,"midi":66,"name":"F#4","ticks":298560,"time":155.5,"velocity":1},{"duration":0.25,"durationTicks":480,"midi":57,"name":"A3","ticks":299040,"time":155.75,"velocity":1},{"duration":0.25,"durationTicks":480,"midi":62,"name":"D4","ticks":299040,"time":155.75,"velocity":1},{"duration":0.5,"durationTicks":960,"midi":50,"name":"D3","ticks":299520,"time":156,"velocity":1},{"duration":1.25,"durationTicks":2400,"midi":50,"name":"D3","ticks":299520,"time":156,"velocity":1},{"duration":0.75,"durationTicks":1440,"midi":54,"name":"F#3","ticks":300480,"time":156.5,"velocity":1},{"duration":0.75,"durationTicks":1440,"midi":57,"name":"A3","ticks":300480,"time":156.5,"velocity":1},{"duration":0.75,"durationTicks":1440,"midi":62,"name":"D4","ticks":300480,"time":156.5,"velocity":1},{"duration":0.75,"durationTicks":1440,"midi":66,"name":"F#4","ticks":300480,"time":156.5,"velocity":1},{"duration":1.5,"durationTicks":2880,"midi":50,"name":"D3","ticks":300480,"time":156.5,"velocity":1},{"duration":0.25,"durationTicks":480,"midi":55,"name":"G3","ticks":301920,"time":157.25,"velocity":1},{"duration":0.25,"durationTicks":480,"midi":62,"name":"D4","ticks":301920,"time":157.25,"velocity":1},{"duration":0.25,"durationTicks":480,"midi":67,"name":"G4","ticks":301920,"time":157.25,"velocity":1},{"duration":0.25,"durationTicks":480,"midi":54,"name":"F#3","ticks":302400,"time":157.5,"velocity":1},{"duration":0.25,"durationTicks":480,"midi":62,"name":"D4","ticks":302400,"time":157.5,"velocity":1},{"duration":0.25,"durationTicks":480,"midi":66,"name":"F#4","ticks":302400,"time":157.5,"velocity":1},{"duration":0.25,"durationTicks":480,"midi":57,"name":"A3","ticks":302880,"time":157.75,"velocity":1},{"duration":0.25,"durationTicks":480,"midi":62,"name":"D4","ticks":302880,"time":157.75,"velocity":1},{"duration":0.75,"durationTicks":1440,"midi":50,"name":"D3","ticks":302880,"time":157.75,"velocity":1},{"duration":1.25,"durationTicks":2400,"midi":50,"name":"D3","ticks":303360,"time":158,"velocity":1},{"duration":0.75,"durationTicks":1440,"midi":54,"name":"F#3","ticks":304320,"time":158.5,"velocity":1},{"duration":0.75,"durationTicks":1440,"midi":57,"name":"A3","ticks":304320,"time":158.5,"velocity":1},{"duration":0.75,"durationTicks":1440,"midi":62,"name":"D4","ticks":304320,"time":158.5,"velocity":1},{"duration":0.75,"durationTicks":1440,"midi":66,"name":"F#4","ticks":304320,"time":158.5,"velocity":1},{"duration":1.5,"durationTicks":2880,"midi":50,"name":"D3","ticks":304320,"time":158.5,"velocity":1},{"duration":0.25,"durationTicks":480,"midi":55,"name":"G3","ticks":305760,"time":159.25,"velocity":1},{"duration":0.25,"durationTicks":480,"midi":62,"name":"D4","ticks":305760,"time":159.25,"velocity":1},{"duration":0.25,"durationTicks":480,"midi":67,"name":"G4","ticks":305760,"time":159.25,"velocity":1},{"duration":0.25,"durationTicks":480,"midi":54,"name":"F#3","ticks":306240,"time":159.5,"velocity":1},{"duration":0.25,"durationTicks":480,"midi":62,"name":"D4","ticks":306240,"time":159.5,"velocity":1},{"duration":0.25,"durationTicks":480,"midi":66,"name":"F#4","ticks":306240,"time":159.5,"velocity":1},{"duration":0.25,"durationTicks":480,"midi":57,"name":"A3","ticks":306720,"time":159.75,"velocity":1},{"duration":0.25,"durationTicks":480,"midi":62,"name":"D4","ticks":306720,"time":159.75,"velocity":1},{"duration":0.5,"durationTicks":960,"midi":50,"name":"D3","ticks":307200,"time":160,"velocity":1},{"duration":1.25,"durationTicks":2400,"midi":50,"name":"D3","ticks":307200,"time":160,"velocity":1},{"duration":0.75,"durationTicks":1440,"midi":54,"name":"F#3","ticks":308160,"time":160.5,"velocity":1},{"duration":0.75,"durationTicks":1440,"midi":57,"name":"A3","ticks":308160,"time":160.5,"velocity":1},{"duration":0.75,"durationTicks":1440,"midi":62,"name":"D4","ticks":308160,"time":160.5,"velocity":1},{"duration":0.75,"durationTicks":1440,"midi":66,"name":"F#4","ticks":308160,"time":160.5,"velocity":1},{"duration":1.5,"durationTicks":2880,"midi":50,"name":"D3","ticks":308160,"time":160.5,"velocity":1},{"duration":0.25,"durationTicks":480,"midi":55,"name":"G3","ticks":309600,"time":161.25,"velocity":1},{"duration":0.25,"durationTicks":480,"midi":62,"name":"D4","ticks":309600,"time":161.25,"velocity":1},{"duration":0.25,"durationTicks":480,"midi":67,"name":"G4","ticks":309600,"time":161.25,"velocity":1},{"duration":0.25,"durationTicks":480,"midi":54,"name":"F#3","ticks":310080,"time":161.5,"velocity":1},{"duration":0.25,"durationTicks":480,"midi":62,"name":"D4","ticks":310080,"time":161.5,"velocity":1},{"duration":0.25,"durationTicks":480,"midi":66,"name":"F#4","ticks":310080,"time":161.5,"velocity":1},{"duration":0.25,"durationTicks":480,"midi":57,"name":"A3","ticks":310560,"time":161.75,"velocity":1},{"duration":0.25,"durationTicks":480,"midi":62,"name":"D4","ticks":310560,"time":161.75,"velocity":1},{"duration":0.75,"durationTicks":1440,"midi":50,"name":"D3","ticks":310560,"time":161.75,"velocity":1},{"duration":1.25,"durationTicks":2400,"midi":50,"name":"D3","ticks":311040,"time":162,"velocity":1},{"duration":0.75,"durationTicks":1440,"midi":54,"name":"F#3","ticks":312000,"time":162.5,"velocity":1},{"duration":0.75,"durationTicks":1440,"midi":57,"name":"A3","ticks":312000,"time":162.5,"velocity":1},{"duration":0.75,"durationTicks":1440,"midi":62,"name":"D4","ticks":312000,"time":162.5,"velocity":1},{"duration":0.75,"durationTicks":1440,"midi":66,"name":"F#4","ticks":312000,"time":162.5,"velocity":1},{"duration":1.5,"durationTicks":2880,"midi":50,"name":"D3","ticks":312000,"time":162.5,"velocity":1},{"duration":0.25,"durationTicks":480,"midi":55,"name":"G3","ticks":313440,"time":163.25,"velocity":1},{"duration":0.25,"durationTicks":480,"midi":62,"name":"D4","ticks":313440,"time":163.25,"velocity":1},{"duration":0.25,"durationTicks":480,"midi":67,"name":"G4","ticks":313440,"time":163.25,"velocity":1},{"duration":0.25,"durationTicks":480,"midi":54,"name":"F#3","ticks":313920,"time":163.5,"velocity":1},{"duration":0.25,"durationTicks":480,"midi":62,"name":"D4","ticks":313920,"time":163.5,"velocity":1},{"duration":0.25,"durationTicks":480,"midi":66,"name":"F#4","ticks":313920,"time":163.5,"velocity":1},{"duration":0.25,"durationTicks":480,"midi":57,"name":"A3","ticks":314400,"time":163.75,"velocity":1},{"duration":0.25,"durationTicks":480,"midi":62,"name":"D4","ticks":314400,"time":163.75,"velocity":1},{"duration":0.5,"durationTicks":960,"midi":50,"name":"D3","ticks":314880,"time":164,"velocity":1},{"duration":1.25,"durationTicks":2400,"midi":50,"name":"D3","ticks":314880,"time":164,"velocity":1},{"duration":0.75,"durationTicks":1440,"midi":54,"name":"F#3","ticks":315840,"time":164.5,"velocity":1},{"duration":0.75,"durationTicks":1440,"midi":57,"name":"A3","ticks":315840,"time":164.5,"velocity":1},{"duration":0.75,"durationTicks":1440,"midi":62,"name":"D4","ticks":315840,"time":164.5,"velocity":1},{"duration":0.75,"durationTicks":1440,"midi":66,"name":"F#4","ticks":315840,"time":164.5,"velocity":1},{"duration":1.5,"durationTicks":2880,"midi":50,"name":"D3","ticks":315840,"time":164.5,"velocity":1},{"duration":0.25,"durationTicks":480,"midi":55,"name":"G3","ticks":317280,"time":165.25,"velocity":1},{"duration":0.25,"durationTicks":480,"midi":62,"name":"D4","ticks":317280,"time":165.25,"velocity":1},{"duration":0.25,"durationTicks":480,"midi":67,"name":"G4","ticks":317280,"time":165.25,"velocity":1},{"duration":0.25,"durationTicks":480,"midi":54,"name":"F#3","ticks":317760,"time":165.5,"velocity":1},{"duration":0.25,"durationTicks":480,"midi":62,"name":"D4","ticks":317760,"time":165.5,"velocity":1},{"duration":0.25,"durationTicks":480,"midi":66,"name":"F#4","ticks":317760,"time":165.5,"velocity":1},{"duration":0.25,"durationTicks":480,"midi":57,"name":"A3","ticks":318240,"time":165.75,"velocity":1},{"duration":0.25,"durationTicks":480,"midi":62,"name":"D4","ticks":318240,"time":165.75,"velocity":1},{"duration":0.75,"durationTicks":1440,"midi":50,"name":"D3","ticks":318240,"time":165.75,"velocity":1},{"duration":1.25,"durationTicks":2400,"midi":50,"name":"D3","ticks":318720,"time":166,"velocity":1},{"duration":0.75,"durationTicks":1440,"midi":54,"name":"F#3","ticks":319680,"time":166.5,"velocity":1},{"duration":0.75,"durationTicks":1440,"midi":57,"name":"A3","ticks":319680,"time":166.5,"velocity":1},{"duration":0.75,"durationTicks":1440,"midi":62,"name":"D4","ticks":319680,"time":166.5,"velocity":1},{"duration":0.75,"durationTicks":1440,"midi":66,"name":"F#4","ticks":319680,"time":166.5,"velocity":1},{"duration":1.5,"durationTicks":2880,"midi":50,"name":"D3","ticks":319680,"time":166.5,"velocity":1},{"duration":0.25,"durationTicks":480,"midi":55,"name":"G3","ticks":321120,"time":167.25,"velocity":1},{"duration":0.25,"durationTicks":480,"midi":62,"name":"D4","ticks":321120,"time":167.25,"velocity":1},{"duration":0.25,"durationTicks":480,"midi":67,"name":"G4","ticks":321120,"time":167.25,"velocity":1},{"duration":0.25,"durationTicks":480,"midi":54,"name":"F#3","ticks":321600,"time":167.5,"velocity":1},{"duration":0.25,"durationTicks":480,"midi":62,"name":"D4","ticks":321600,"time":167.5,"velocity":1},{"duration":0.25,"durationTicks":480,"midi":66,"name":"F#4","ticks":321600,"time":167.5,"velocity":1},{"duration":0.25,"durationTicks":480,"midi":57,"name":"A3","ticks":322080,"time":167.75,"velocity":1},{"duration":0.25,"durationTicks":480,"midi":62,"name":"D4","ticks":322080,"time":167.75,"velocity":1},{"duration":0.5,"durationTicks":960,"midi":50,"name":"D3","ticks":322560,"time":168,"velocity":1},{"duration":1.25,"durationTicks":2400,"midi":50,"name":"D3","ticks":322560,"time":168,"velocity":1},{"duration":0.75,"durationTicks":1440,"midi":54,"name":"F#3","ticks":323520,"time":168.5,"velocity":1},{"duration":0.75,"durationTicks":1440,"midi":57,"name":"A3","ticks":323520,"time":168.5,"velocity":1},{"duration":0.75,"durationTicks":1440,"midi":62,"name":"D4","ticks":323520,"time":168.5,"velocity":1},{"duration":0.75,"durationTicks":1440,"midi":66,"name":"F#4","ticks":323520,"time":168.5,"velocity":1},{"duration":1.5,"durationTicks":2880,"midi":50,"name":"D3","ticks":323520,"time":168.5,"velocity":1},{"duration":0.25,"durationTicks":480,"midi":55,"name":"G3","ticks":324960,"time":169.25,"velocity":1},{"duration":0.25,"durationTicks":480,"midi":62,"name":"D4","ticks":324960,"time":169.25,"velocity":1},{"duration":0.25,"durationTicks":480,"midi":67,"name":"G4","ticks":324960,"time":169.25,"velocity":1},{"duration":0.25,"durationTicks":480,"midi":54,"name":"F#3","ticks":325440,"time":169.5,"velocity":1},{"duration":0.25,"durationTicks":480,"midi":62,"name":"D4","ticks":325440,"time":169.5,"velocity":1},{"duration":0.25,"durationTicks":480,"midi":66,"name":"F#4","ticks":325440,"time":169.5,"velocity":1},{"duration":0.25,"durationTicks":480,"midi":57,"name":"A3","ticks":325920,"time":169.75,"velocity":1},{"duration":0.25,"durationTicks":480,"midi":62,"name":"D4","ticks":325920,"time":169.75,"velocity":1},{"duration":0.75,"durationTicks":1440,"midi":50,"name":"D3","ticks":325920,"time":169.75,"velocity":1},{"duration":1.25,"durationTicks":2400,"midi":50,"name":"D3","ticks":326400,"time":170,"velocity":1},{"duration":0.75,"durationTicks":1440,"midi":54,"name":"F#3","ticks":327360,"time":170.5,"velocity":1},{"duration":0.75,"durationTicks":1440,"midi":57,"name":"A3","ticks":327360,"time":170.5,"velocity":1},{"duration":0.75,"durationTicks":1440,"midi":62,"name":"D4","ticks":327360,"time":170.5,"velocity":1},{"duration":0.75,"durationTicks":1440,"midi":66,"name":"F#4","ticks":327360,"time":170.5,"velocity":1},{"duration":1.5,"durationTicks":2880,"midi":50,"name":"D3","ticks":327360,"time":170.5,"velocity":1},{"duration":0.25,"durationTicks":480,"midi":55,"name":"G3","ticks":328800,"time":171.25,"velocity":1},{"duration":0.25,"durationTicks":480,"midi":62,"name":"D4","ticks":328800,"time":171.25,"velocity":1},{"duration":0.25,"durationTicks":480,"midi":67,"name":"G4","ticks":328800,"time":171.25,"velocity":1},{"duration":0.25,"durationTicks":480,"midi":54,"name":"F#3","ticks":329280,"time":171.5,"velocity":1},{"duration":0.25,"durationTicks":480,"midi":62,"name":"D4","ticks":329280,"time":171.5,"velocity":1},{"duration":0.25,"durationTicks":480,"midi":66,"name":"F#4","ticks":329280,"time":171.5,"velocity":1},{"duration":0.25,"durationTicks":480,"midi":57,"name":"A3","ticks":329760,"time":171.75,"velocity":1},{"duration":0.25,"durationTicks":480,"midi":62,"name":"D4","ticks":329760,"time":171.75,"velocity":1},{"duration":0.5,"durationTicks":960,"midi":50,"name":"D3","ticks":330240,"time":172,"velocity":1},{"duration":1.25,"durationTicks":2400,"midi":50,"name":"D3","ticks":330240,"time":172,"velocity":1},{"duration":0.75,"durationTicks":1440,"midi":54,"name":"F#3","ticks":331200,"time":172.5,"velocity":1},{"duration":0.75,"durationTicks":1440,"midi":57,"name":"A3","ticks":331200,"time":172.5,"velocity":1},{"duration":0.75,"durationTicks":1440,"midi":62,"name":"D4","ticks":331200,"time":172.5,"velocity":1},{"duration":0.75,"durationTicks":1440,"midi":66,"name":"F#4","ticks":331200,"time":172.5,"velocity":1},{"duration":1.5,"durationTicks":2880,"midi":50,"name":"D3","ticks":331200,"time":172.5,"velocity":1},{"duration":0.25,"durationTicks":480,"midi":55,"name":"G3","ticks":332640,"time":173.25,"velocity":1},{"duration":0.25,"durationTicks":480,"midi":62,"name":"D4","ticks":332640,"time":173.25,"velocity":1},{"duration":0.25,"durationTicks":480,"midi":67,"name":"G4","ticks":332640,"time":173.25,"velocity":1},{"duration":0.25,"durationTicks":480,"midi":54,"name":"F#3","ticks":333120,"time":173.5,"velocity":1},{"duration":0.25,"durationTicks":480,"midi":62,"name":"D4","ticks":333120,"time":173.5,"velocity":1},{"duration":0.25,"durationTicks":480,"midi":66,"name":"F#4","ticks":333120,"time":173.5,"velocity":1},{"duration":0.25,"durationTicks":480,"midi":57,"name":"A3","ticks":333600,"time":173.75,"velocity":1},{"duration":0.25,"durationTicks":480,"midi":62,"name":"D4","ticks":333600,"time":173.75,"velocity":1}],"channel":3,"instrument":{"family":"guitar","number":25,"name":"acoustic guitar (steel)"},"controlChanges":{"7":[{"number":7,"ticks":0,"time":0,"value":0.7480314960629921}],"10":[{"number":10,"ticks":0,"time":0,"value":0.5039370078740157}]},"pitchBends":[],"endOfTrackTicks":334080},{"name":"Guitar 4","notes":[{"duration":0.0625,"durationTicks":120,"midi":58,"name":"A#3","ticks":158400,"time":82.5,"velocity":1},{"duration":0.0625,"durationTicks":120,"midi":53,"name":"F3","ticks":158400,"time":82.5,"velocity":1},{"duration":0.0625,"durationTicks":120,"midi":58,"name":"A#3","ticks":158880,"time":82.75,"velocity":1},{"duration":0.0625,"durationTicks":120,"midi":53,"name":"F3","ticks":158880,"time":82.75,"velocity":1},{"duration":0.0625,"durationTicks":120,"midi":58,"name":"A#3","ticks":159360,"time":83,"velocity":1},{"duration":0.0625,"durationTicks":120,"midi":53,"name":"F3","ticks":159360,"time":83,"velocity":1},{"duration":0.0625,"durationTicks":120,"midi":58,"name":"A#3","ticks":159840,"time":83.25,"velocity":1},{"duration":0.0625,"durationTicks":120,"midi":53,"name":"F3","ticks":159840,"time":83.25,"velocity":1},{"duration":0.0625,"durationTicks":120,"midi":58,"name":"A#3","ticks":160320,"time":83.5,"velocity":1},{"duration":0.0625,"durationTicks":120,"midi":53,"name":"F3","ticks":160320,"time":83.5,"velocity":1},{"duration":0.0625,"durationTicks":120,"midi":58,"name":"A#3","ticks":160800,"time":83.75,"velocity":1},{"duration":0.0625,"durationTicks":120,"midi":53,"name":"F3","ticks":160800,"time":83.75,"velocity":1},{"duration":0.25,"durationTicks":480,"midi":40,"name":"E2","ticks":160800,"time":83.75,"velocity":1},{"duration":0.5,"durationTicks":960,"midi":48,"name":"C3","ticks":161280,"time":84,"velocity":1},{"duration":0.5,"durationTicks":960,"midi":41,"name":"F2","ticks":161280,"time":84,"velocity":1},{"duration":0.5,"durationTicks":960,"midi":53,"name":"F3","ticks":161280,"time":84,"velocity":1},{"duration":0.5,"durationTicks":960,"midi":57,"name":"A3","ticks":161280,"time":84,"velocity":1},{"duration":0.03125,"durationTicks":60,"midi":57,"name":"A3","ticks":162240,"time":84.5,"velocity":1},{"duration":0.0625,"durationTicks":120,"midi":41,"name":"F2","ticks":162240,"time":84.5,"velocity":1},{"duration":0.03125,"durationTicks":60,"midi":57,"name":"A3","ticks":162720,"time":84.75,"velocity":1},{"duration":0.25,"durationTicks":480,"midi":40,"name":"E2","ticks":162720,"time":84.75,"velocity":1},{"duration":0.5,"durationTicks":960,"midi":60,"name":"C4","ticks":163200,"time":85,"velocity":1},{"duration":0.5,"durationTicks":960,"midi":55,"name":"G3","ticks":163200,"time":85,"velocity":1},{"duration":0.5,"durationTicks":960,"midi":48,"name":"C3","ticks":163200,"time":85,"velocity":1},{"duration":0.5,"durationTicks":960,"midi":64,"name":"E4","ticks":163200,"time":85,"velocity":1},{"duration":0.03125,"durationTicks":60,"midi":64,"name":"E4","ticks":164160,"time":85.5,"velocity":1},{"duration":0.0625,"durationTicks":120,"midi":48,"name":"C3","ticks":164160,"time":85.5,"velocity":1},{"duration":0.03125,"durationTicks":60,"midi":64,"name":"E4","ticks":164640,"time":85.75,"velocity":1},{"duration":0.25,"durationTicks":480,"midi":45,"name":"A2","ticks":164640,"time":85.75,"velocity":1},{"duration":0.5,"durationTicks":960,"midi":46,"name":"A#2","ticks":165120,"time":86,"velocity":1},{"duration":0.5,"durationTicks":960,"midi":58,"name":"A#3","ticks":165120,"time":86,"velocity":1},{"duration":0.5,"durationTicks":960,"midi":53,"name":"F3","ticks":165120,"time":86,"velocity":1},{"duration":0.5,"durationTicks":960,"midi":62,"name":"D4","ticks":165120,"time":86,"velocity":1},{"duration":0.03125,"durationTicks":60,"midi":62,"name":"D4","ticks":166080,"time":86.5,"velocity":1},{"duration":0.0625,"durationTicks":120,"midi":46,"name":"A#2","ticks":166080,"time":86.5,"velocity":1},{"duration":0.03125,"durationTicks":60,"midi":62,"name":"D4","ticks":166560,"time":86.75,"velocity":1},{"duration":0.25,"durationTicks":480,"midi":40,"name":"E2","ticks":166560,"time":86.75,"velocity":1},{"duration":0.5,"durationTicks":960,"midi":48,"name":"C3","ticks":167040,"time":87,"velocity":1},{"duration":0.5,"durationTicks":960,"midi":41,"name":"F2","ticks":167040,"time":87,"velocity":1},{"duration":0.5,"durationTicks":960,"midi":53,"name":"F3","ticks":167040,"time":87,"velocity":1},{"duration":0.5,"durationTicks":960,"midi":57,"name":"A3","ticks":167040,"time":87,"velocity":1},{"duration":0.03125,"durationTicks":60,"midi":57,"name":"A3","ticks":168000,"time":87.5,"velocity":1},{"duration":0.0625,"durationTicks":120,"midi":41,"name":"F2","ticks":168000,"time":87.5,"velocity":1},{"duration":0.03125,"durationTicks":60,"midi":57,"name":"A3","ticks":168480,"time":87.75,"velocity":1},{"duration":0.0625,"durationTicks":120,"midi":41,"name":"F2","ticks":168480,"time":87.75,"velocity":1},{"duration":0.5,"durationTicks":960,"midi":48,"name":"C3","ticks":168960,"time":88,"velocity":1},{"duration":0.5,"durationTicks":960,"midi":41,"name":"F2","ticks":168960,"time":88,"velocity":1},{"duration":0.5,"durationTicks":960,"midi":53,"name":"F3","ticks":168960,"time":88,"velocity":1},{"duration":0.5,"durationTicks":960,"midi":57,"name":"A3","ticks":168960,"time":88,"velocity":1},{"duration":0.03125,"durationTicks":60,"midi":57,"name":"A3","ticks":169920,"time":88.5,"velocity":1},{"duration":0.0625,"durationTicks":120,"midi":41,"name":"F2","ticks":169920,"time":88.5,"velocity":1},{"duration":0.03125,"durationTicks":60,"midi":57,"name":"A3","ticks":170400,"time":88.75,"velocity":1},{"duration":0.25,"durationTicks":480,"midi":40,"name":"E2","ticks":170400,"time":88.75,"velocity":1},{"duration":0.5,"durationTicks":960,"midi":60,"name":"C4","ticks":170880,"time":89,"velocity":1},{"duration":0.5,"durationTicks":960,"midi":55,"name":"G3","ticks":170880,"time":89,"velocity":1},{"duration":0.5,"durationTicks":960,"midi":48,"name":"C3","ticks":170880,"time":89,"velocity":1},{"duration":0.5,"durationTicks":960,"midi":64,"name":"E4","ticks":170880,"time":89,"velocity":1},{"duration":0.03125,"durationTicks":60,"midi":64,"name":"E4","ticks":171840,"time":89.5,"velocity":1},{"duration":0.0625,"durationTicks":120,"midi":48,"name":"C3","ticks":171840,"time":89.5,"velocity":1},{"duration":0.03125,"durationTicks":60,"midi":64,"name":"E4","ticks":172320,"time":89.75,"velocity":1},{"duration":0.25,"durationTicks":480,"midi":45,"name":"A2","ticks":172320,"time":89.75,"velocity":1},{"duration":0.5,"durationTicks":960,"midi":46,"name":"A#2","ticks":172800,"time":90,"velocity":1},{"duration":0.5,"durationTicks":960,"midi":58,"name":"A#3","ticks":172800,"time":90,"velocity":1},{"duration":0.5,"durationTicks":960,"midi":53,"name":"F3","ticks":172800,"time":90,"velocity":1},{"duration":0.5,"durationTicks":960,"midi":62,"name":"D4","ticks":172800,"time":90,"velocity":1},{"duration":0.03125,"durationTicks":60,"midi":62,"name":"D4","ticks":173760,"time":90.5,"velocity":1},{"duration":0.0625,"durationTicks":120,"midi":46,"name":"A#2","ticks":173760,"time":90.5,"velocity":1},{"duration":0.03125,"durationTicks":60,"midi":62,"name":"D4","ticks":174240,"time":90.75,"velocity":1},{"duration":0.25,"durationTicks":480,"midi":40,"name":"E2","ticks":174240,"time":90.75,"velocity":1},{"duration":0.5,"durationTicks":960,"midi":48,"name":"C3","ticks":174720,"time":91,"velocity":1},{"duration":0.5,"durationTicks":960,"midi":41,"name":"F2","ticks":174720,"time":91,"velocity":1},{"duration":0.5,"durationTicks":960,"midi":53,"name":"F3","ticks":174720,"time":91,"velocity":1},{"duration":0.5,"durationTicks":960,"midi":57,"name":"A3","ticks":174720,"time":91,"velocity":1},{"duration":0.03125,"durationTicks":60,"midi":57,"name":"A3","ticks":175680,"time":91.5,"velocity":1},{"duration":0.0625,"durationTicks":120,"midi":41,"name":"F2","ticks":175680,"time":91.5,"velocity":1},{"duration":0.03125,"durationTicks":60,"midi":57,"name":"A3","ticks":176160,"time":91.75,"velocity":1},{"duration":0.0625,"durationTicks":120,"midi":41,"name":"F2","ticks":176160,"time":91.75,"velocity":1},{"duration":0.5,"durationTicks":960,"midi":55,"name":"G3","ticks":176640,"time":92,"velocity":1},{"duration":0.5,"durationTicks":960,"midi":43,"name":"G2","ticks":176640,"time":92,"velocity":1},{"duration":0.5,"durationTicks":960,"midi":50,"name":"D3","ticks":176640,"time":92,"velocity":1},{"duration":0.5,"durationTicks":960,"midi":58,"name":"A#3","ticks":176640,"time":92,"velocity":1},{"duration":0.5,"durationTicks":960,"midi":58,"name":"A#3","ticks":177600,"time":92.5,"velocity":1},{"duration":0.5,"durationTicks":960,"midi":55,"name":"G3","ticks":177600,"time":92.5,"velocity":1},{"duration":0.5,"durationTicks":960,"midi":50,"name":"D3","ticks":177600,"time":92.5,"velocity":1},{"duration":0.5,"durationTicks":960,"midi":43,"name":"G2","ticks":177600,"time":92.5,"velocity":1},{"duration":0.5,"durationTicks":960,"midi":60,"name":"C4","ticks":178560,"time":93,"velocity":1},{"duration":0.5,"durationTicks":960,"midi":48,"name":"C3","ticks":178560,"time":93,"velocity":1},{"duration":0.5,"durationTicks":960,"midi":55,"name":"G3","ticks":178560,"time":93,"velocity":1},{"duration":0.5,"durationTicks":960,"midi":52,"name":"E3","ticks":178560,"time":93,"velocity":1},{"duration":0.5,"durationTicks":960,"midi":60,"name":"C4","ticks":179520,"time":93.5,"velocity":1},{"duration":0.5,"durationTicks":960,"midi":48,"name":"C3","ticks":179520,"time":93.5,"velocity":1},{"duration":0.5,"durationTicks":960,"midi":55,"name":"G3","ticks":179520,"time":93.5,"velocity":1},{"duration":0.5,"durationTicks":960,"midi":52,"name":"E3","ticks":179520,"time":93.5,"velocity":1},{"duration":0.5,"durationTicks":960,"midi":53,"name":"F3","ticks":180480,"time":94,"velocity":1},{"duration":0.5,"durationTicks":960,"midi":60,"name":"C4","ticks":180480,"time":94,"velocity":1},{"duration":0.5,"durationTicks":960,"midi":65,"name":"F4","ticks":180480,"time":94,"velocity":1},{"duration":0.5,"durationTicks":960,"midi":45,"name":"A2","ticks":180480,"time":94,"velocity":1},{"duration":0.5,"durationTicks":960,"midi":53,"name":"F3","ticks":181440,"time":94.5,"velocity":1},{"duration":0.5,"durationTicks":960,"midi":60,"name":"C4","ticks":181440,"time":94.5,"velocity":1},{"duration":0.5,"durationTicks":960,"midi":65,"name":"F4","ticks":181440,"time":94.5,"velocity":1},{"duration":0.5,"durationTicks":960,"midi":45,"name":"A2","ticks":181440,"time":94.5,"velocity":1},{"duration":0.5,"durationTicks":960,"midi":50,"name":"D3","ticks":182400,"time":95,"velocity":1},{"duration":0.5,"durationTicks":960,"midi":57,"name":"A3","ticks":182400,"time":95,"velocity":1},{"duration":0.5,"durationTicks":960,"midi":62,"name":"D4","ticks":182400,"time":95,"velocity":1},{"duration":0.5,"durationTicks":960,"midi":53,"name":"F3","ticks":182400,"time":95,"velocity":1},{"duration":0.5,"durationTicks":960,"midi":50,"name":"D3","ticks":183360,"time":95.5,"velocity":1},{"duration":0.5,"durationTicks":960,"midi":62,"name":"D4","ticks":183360,"time":95.5,"velocity":1},{"duration":0.5,"durationTicks":960,"midi":57,"name":"A3","ticks":183360,"time":95.5,"velocity":1},{"duration":0.5,"durationTicks":960,"midi":53,"name":"F3","ticks":183360,"time":95.5,"velocity":1},{"duration":0.5,"durationTicks":960,"midi":62,"name":"D4","ticks":184320,"time":96,"velocity":1},{"duration":0.5,"durationTicks":960,"midi":46,"name":"A#2","ticks":184320,"time":96,"velocity":1},{"duration":0.5,"durationTicks":960,"midi":53,"name":"F3","ticks":184320,"time":96,"velocity":1},{"duration":0.5,"durationTicks":960,"midi":58,"name":"A#3","ticks":184320,"time":96,"velocity":1},{"duration":0.5,"durationTicks":960,"midi":62,"name":"D4","ticks":185280,"time":96.5,"velocity":1},{"duration":0.5,"durationTicks":960,"midi":53,"name":"F3","ticks":185280,"time":96.5,"velocity":1},{"duration":0.5,"durationTicks":960,"midi":58,"name":"A#3","ticks":185280,"time":96.5,"velocity":1},{"duration":0.5,"durationTicks":960,"midi":46,"name":"A#2","ticks":185280,"time":96.5,"velocity":1},{"duration":0.5,"durationTicks":960,"midi":61,"name":"C#4","ticks":186240,"time":97,"velocity":1},{"duration":0.5,"durationTicks":960,"midi":45,"name":"A2","ticks":186240,"time":97,"velocity":1},{"duration":0.5,"durationTicks":960,"midi":52,"name":"E3","ticks":186240,"time":97,"velocity":1},{"duration":0.5,"durationTicks":960,"midi":57,"name":"A3","ticks":186240,"time":97,"velocity":1},{"duration":0.5,"durationTicks":960,"midi":61,"name":"C#4","ticks":187200,"time":97.5,"velocity":1},{"duration":0.5,"durationTicks":960,"midi":52,"name":"E3","ticks":187200,"time":97.5,"velocity":1},{"duration":0.5,"durationTicks":960,"midi":57,"name":"A3","ticks":187200,"time":97.5,"velocity":1},{"duration":0.5,"durationTicks":960,"midi":45,"name":"A2","ticks":187200,"time":97.5,"velocity":1},{"duration":2,"durationTicks":3840,"midi":50,"name":"D3","ticks":188160,"time":98,"velocity":1},{"duration":2,"durationTicks":3840,"midi":62,"name":"D4","ticks":188160,"time":98,"velocity":1},{"duration":2,"durationTicks":3840,"midi":57,"name":"A3","ticks":188160,"time":98,"velocity":1},{"duration":2,"durationTicks":3840,"midi":66,"name":"F#4","ticks":188160,"time":98,"velocity":1},{"duration":1.0625,"durationTicks":2040,"midi":50,"name":"D3","ticks":193800,"time":100.9375,"velocity":1},{"duration":1.03125,"durationTicks":1980,"midi":57,"name":"A3","ticks":193860,"time":100.96875,"velocity":1},{"duration":0.3333333333333286,"durationTicks":640,"midi":67,"name":"G4","ticks":193920,"time":101,"velocity":1},{"duration":0.65625,"durationTicks":1260,"midi":62,"name":"D4","ticks":193920,"time":101,"velocity":1},{"duration":0.3333333333333428,"durationTicks":640,"midi":66,"name":"F#4","ticks":194560,"time":101.33333333333333,"velocity":1},{"duration":0.3333333333333286,"durationTicks":640,"midi":62,"name":"D4","ticks":195200,"time":101.66666666666667,"velocity":1},{"duration":2,"durationTicks":3840,"midi":50,"name":"D3","ticks":195840,"time":102,"velocity":1},{"duration":2,"durationTicks":3840,"midi":57,"name":"A3","ticks":195840,"time":102,"velocity":1},{"duration":0.375,"durationTicks":720,"midi":59,"name":"B3","ticks":201600,"time":105,"velocity":1},{"duration":0.375,"durationTicks":720,"midi":54,"name":"F#3","ticks":201600,"time":105,"velocity":1},{"duration":0.125,"durationTicks":240,"midi":59,"name":"B3","ticks":202320,"time":105.375,"velocity":1},{"duration":0.125,"durationTicks":240,"midi":54,"name":"F#3","ticks":202320,"time":105.375,"velocity":1},{"duration":0.25,"durationTicks":480,"midi":57,"name":"A3","ticks":203040,"time":105.75,"velocity":1},{"duration":0.25,"durationTicks":480,"midi":52,"name":"E3","ticks":203040,"time":105.75,"velocity":1},{"duration":0.25,"durationTicks":480,"midi":45,"name":"A2","ticks":203040,"time":105.75,"velocity":1},{"duration":2,"durationTicks":3840,"midi":62,"name":"D4","ticks":203520,"time":106,"velocity":1},{"duration":2,"durationTicks":3840,"midi":50,"name":"D3","ticks":203520,"time":106,"velocity":1},{"duration":2,"durationTicks":3840,"midi":57,"name":"A3","ticks":203520,"time":106,"velocity":1},{"duration":2,"durationTicks":3840,"midi":66,"name":"F#4","ticks":203520,"time":106,"velocity":1},{"duration":0.0625,"durationTicks":120,"midi":58,"name":"A#3","ticks":258240,"time":134.5,"velocity":1},{"duration":0.0625,"durationTicks":120,"midi":53,"name":"F3","ticks":258240,"time":134.5,"velocity":1},{"duration":0.0625,"durationTicks":120,"midi":58,"name":"A#3","ticks":258720,"time":134.75,"velocity":1},{"duration":0.0625,"durationTicks":120,"midi":53,"name":"F3","ticks":258720,"time":134.75,"velocity":1},{"duration":0.0625,"durationTicks":120,"midi":58,"name":"A#3","ticks":259200,"time":135,"velocity":1},{"duration":0.0625,"durationTicks":120,"midi":53,"name":"F3","ticks":259200,"time":135,"velocity":1},{"duration":0.0625,"durationTicks":120,"midi":58,"name":"A#3","ticks":259680,"time":135.25,"velocity":1},{"duration":0.0625,"durationTicks":120,"midi":53,"name":"F3","ticks":259680,"time":135.25,"velocity":1},{"duration":0.0625,"durationTicks":120,"midi":58,"name":"A#3","ticks":260160,"time":135.5,"velocity":1},{"duration":0.0625,"durationTicks":120,"midi":53,"name":"F3","ticks":260160,"time":135.5,"velocity":1},{"duration":0.0625,"durationTicks":120,"midi":58,"name":"A#3","ticks":260640,"time":135.75,"velocity":1},{"duration":0.0625,"durationTicks":120,"midi":53,"name":"F3","ticks":260640,"time":135.75,"velocity":1},{"duration":0.25,"durationTicks":480,"midi":40,"name":"E2","ticks":260640,"time":135.75,"velocity":1},{"duration":0.5,"durationTicks":960,"midi":48,"name":"C3","ticks":261120,"time":136,"velocity":1},{"duration":0.5,"durationTicks":960,"midi":41,"name":"F2","ticks":261120,"time":136,"velocity":1},{"duration":0.5,"durationTicks":960,"midi":53,"name":"F3","ticks":261120,"time":136,"velocity":1},{"duration":0.5,"durationTicks":960,"midi":57,"name":"A3","ticks":261120,"time":136,"velocity":1},{"duration":0.03125,"durationTicks":60,"midi":57,"name":"A3","ticks":262080,"time":136.5,"velocity":1},{"duration":0.0625,"durationTicks":120,"midi":41,"name":"F2","ticks":262080,"time":136.5,"velocity":1},{"duration":0.03125,"durationTicks":60,"midi":57,"name":"A3","ticks":262560,"time":136.75,"velocity":1},{"duration":0.25,"durationTicks":480,"midi":40,"name":"E2","ticks":262560,"time":136.75,"velocity":1},{"duration":0.5,"durationTicks":960,"midi":60,"name":"C4","ticks":263040,"time":137,"velocity":1},{"duration":0.5,"durationTicks":960,"midi":55,"name":"G3","ticks":263040,"time":137,"velocity":1},{"duration":0.5,"durationTicks":960,"midi":48,"name":"C3","ticks":263040,"time":137,"velocity":1},{"duration":0.5,"durationTicks":960,"midi":64,"name":"E4","ticks":263040,"time":137,"velocity":1},{"duration":0.03125,"durationTicks":60,"midi":64,"name":"E4","ticks":264000,"time":137.5,"velocity":1},{"duration":0.0625,"durationTicks":120,"midi":48,"name":"C3","ticks":264000,"time":137.5,"velocity":1},{"duration":0.03125,"durationTicks":60,"midi":64,"name":"E4","ticks":264480,"time":137.75,"velocity":1},{"duration":0.25,"durationTicks":480,"midi":45,"name":"A2","ticks":264480,"time":137.75,"velocity":1},{"duration":0.5,"durationTicks":960,"midi":46,"name":"A#2","ticks":264960,"time":138,"velocity":1},{"duration":0.5,"durationTicks":960,"midi":58,"name":"A#3","ticks":264960,"time":138,"velocity":1},{"duration":0.5,"durationTicks":960,"midi":53,"name":"F3","ticks":264960,"time":138,"velocity":1},{"duration":0.5,"durationTicks":960,"midi":62,"name":"D4","ticks":264960,"time":138,"velocity":1},{"duration":0.03125,"durationTicks":60,"midi":62,"name":"D4","ticks":265920,"time":138.5,"velocity":1},{"duration":0.0625,"durationTicks":120,"midi":46,"name":"A#2","ticks":265920,"time":138.5,"velocity":1},{"duration":0.03125,"durationTicks":60,"midi":62,"name":"D4","ticks":266400,"time":138.75,"velocity":1},{"duration":0.25,"durationTicks":480,"midi":40,"name":"E2","ticks":266400,"time":138.75,"velocity":1},{"duration":0.5,"durationTicks":960,"midi":48,"name":"C3","ticks":266880,"time":139,"velocity":1},{"duration":0.5,"durationTicks":960,"midi":41,"name":"F2","ticks":266880,"time":139,"velocity":1},{"duration":0.5,"durationTicks":960,"midi":53,"name":"F3","ticks":266880,"time":139,"velocity":1},{"duration":0.5,"durationTicks":960,"midi":57,"name":"A3","ticks":266880,"time":139,"velocity":1},{"duration":0.03125,"durationTicks":60,"midi":57,"name":"A3","ticks":267840,"time":139.5,"velocity":1},{"duration":0.0625,"durationTicks":120,"midi":41,"name":"F2","ticks":267840,"time":139.5,"velocity":1},{"duration":0.03125,"durationTicks":60,"midi":57,"name":"A3","ticks":268320,"time":139.75,"velocity":1},{"duration":0.0625,"durationTicks":120,"midi":41,"name":"F2","ticks":268320,"time":139.75,"velocity":1},{"duration":0.5,"durationTicks":960,"midi":48,"name":"C3","ticks":268800,"time":140,"velocity":1},{"duration":0.5,"durationTicks":960,"midi":41,"name":"F2","ticks":268800,"time":140,"velocity":1},{"duration":0.5,"durationTicks":960,"midi":53,"name":"F3","ticks":268800,"time":140,"velocity":1},{"duration":0.5,"durationTicks":960,"midi":57,"name":"A3","ticks":268800,"time":140,"velocity":1},{"duration":0.03125,"durationTicks":60,"midi":57,"name":"A3","ticks":269760,"time":140.5,"velocity":1},{"duration":0.0625,"durationTicks":120,"midi":41,"name":"F2","ticks":269760,"time":140.5,"velocity":1},{"duration":0.03125,"durationTicks":60,"midi":57,"name":"A3","ticks":270240,"time":140.75,"velocity":1},{"duration":0.25,"durationTicks":480,"midi":40,"name":"E2","ticks":270240,"time":140.75,"velocity":1},{"duration":0.5,"durationTicks":960,"midi":60,"name":"C4","ticks":270720,"time":141,"velocity":1},{"duration":0.5,"durationTicks":960,"midi":55,"name":"G3","ticks":270720,"time":141,"velocity":1},{"duration":0.5,"durationTicks":960,"midi":48,"name":"C3","ticks":270720,"time":141,"velocity":1},{"duration":0.5,"durationTicks":960,"midi":64,"name":"E4","ticks":270720,"time":141,"velocity":1},{"duration":0.03125,"durationTicks":60,"midi":64,"name":"E4","ticks":271680,"time":141.5,"velocity":1},{"duration":0.0625,"durationTicks":120,"midi":48,"name":"C3","ticks":271680,"time":141.5,"velocity":1},{"duration":0.03125,"durationTicks":60,"midi":64,"name":"E4","ticks":272160,"time":141.75,"velocity":1},{"duration":0.25,"durationTicks":480,"midi":45,"name":"A2","ticks":272160,"time":141.75,"velocity":1},{"duration":0.5,"durationTicks":960,"midi":46,"name":"A#2","ticks":272640,"time":142,"velocity":1},{"duration":0.5,"durationTicks":960,"midi":58,"name":"A#3","ticks":272640,"time":142,"velocity":1},{"duration":0.5,"durationTicks":960,"midi":53,"name":"F3","ticks":272640,"time":142,"velocity":1},{"duration":0.5,"durationTicks":960,"midi":62,"name":"D4","ticks":272640,"time":142,"velocity":1},{"duration":0.03125,"durationTicks":60,"midi":62,"name":"D4","ticks":273600,"time":142.5,"velocity":1},{"duration":0.0625,"durationTicks":120,"midi":46,"name":"A#2","ticks":273600,"time":142.5,"velocity":1},{"duration":0.03125,"durationTicks":60,"midi":62,"name":"D4","ticks":274080,"time":142.75,"velocity":1},{"duration":0.25,"durationTicks":480,"midi":40,"name":"E2","ticks":274080,"time":142.75,"velocity":1},{"duration":0.5,"durationTicks":960,"midi":48,"name":"C3","ticks":274560,"time":143,"velocity":1},{"duration":0.5,"durationTicks":960,"midi":41,"name":"F2","ticks":274560,"time":143,"velocity":1},{"duration":0.5,"durationTicks":960,"midi":53,"name":"F3","ticks":274560,"time":143,"velocity":1},{"duration":0.5,"durationTicks":960,"midi":57,"name":"A3","ticks":274560,"time":143,"velocity":1},{"duration":0.03125,"durationTicks":60,"midi":57,"name":"A3","ticks":275520,"time":143.5,"velocity":1},{"duration":0.0625,"durationTicks":120,"midi":41,"name":"F2","ticks":275520,"time":143.5,"velocity":1},{"duration":0.03125,"durationTicks":60,"midi":57,"name":"A3","ticks":276000,"time":143.75,"velocity":1},{"duration":0.0625,"durationTicks":120,"midi":41,"name":"F2","ticks":276000,"time":143.75,"velocity":1},{"duration":0.5,"durationTicks":960,"midi":55,"name":"G3","ticks":276480,"time":144,"velocity":1},{"duration":0.5,"durationTicks":960,"midi":43,"name":"G2","ticks":276480,"time":144,"velocity":1},{"duration":0.5,"durationTicks":960,"midi":50,"name":"D3","ticks":276480,"time":144,"velocity":1},{"duration":0.5,"durationTicks":960,"midi":58,"name":"A#3","ticks":276480,"time":144,"velocity":1},{"duration":0.5,"durationTicks":960,"midi":58,"name":"A#3","ticks":277440,"time":144.5,"velocity":1},{"duration":0.5,"durationTicks":960,"midi":55,"name":"G3","ticks":277440,"time":144.5,"velocity":1},{"duration":0.5,"durationTicks":960,"midi":50,"name":"D3","ticks":277440,"time":144.5,"velocity":1},{"duration":0.5,"durationTicks":960,"midi":43,"name":"G2","ticks":277440,"time":144.5,"velocity":1},{"duration":0.5,"durationTicks":960,"midi":60,"name":"C4","ticks":278400,"time":145,"velocity":1},{"duration":0.5,"durationTicks":960,"midi":48,"name":"C3","ticks":278400,"time":145,"velocity":1},{"duration":0.5,"durationTicks":960,"midi":55,"name":"G3","ticks":278400,"time":145,"velocity":1},{"duration":0.5,"durationTicks":960,"midi":52,"name":"E3","ticks":278400,"time":145,"velocity":1},{"duration":0.5,"durationTicks":960,"midi":60,"name":"C4","ticks":279360,"time":145.5,"velocity":1},{"duration":0.5,"durationTicks":960,"midi":48,"name":"C3","ticks":279360,"time":145.5,"velocity":1},{"duration":0.5,"durationTicks":960,"midi":55,"name":"G3","ticks":279360,"time":145.5,"velocity":1},{"duration":0.5,"durationTicks":960,"midi":52,"name":"E3","ticks":279360,"time":145.5,"velocity":1},{"duration":0.5,"durationTicks":960,"midi":53,"name":"F3","ticks":280320,"time":146,"velocity":1},{"duration":0.5,"durationTicks":960,"midi":60,"name":"C4","ticks":280320,"time":146,"velocity":1},{"duration":0.5,"durationTicks":960,"midi":65,"name":"F4","ticks":280320,"time":146,"velocity":1},{"duration":0.5,"durationTicks":960,"midi":45,"name":"A2","ticks":280320,"time":146,"velocity":1},{"duration":0.5,"durationTicks":960,"midi":53,"name":"F3","ticks":281280,"time":146.5,"velocity":1},{"duration":0.5,"durationTicks":960,"midi":60,"name":"C4","ticks":281280,"time":146.5,"velocity":1},{"duration":0.5,"durationTicks":960,"midi":65,"name":"F4","ticks":281280,"time":146.5,"velocity":1},{"duration":0.5,"durationTicks":960,"midi":45,"name":"A2","ticks":281280,"time":146.5,"velocity":1},{"duration":0.5,"durationTicks":960,"midi":50,"name":"D3","ticks":282240,"time":147,"velocity":1},{"duration":0.5,"durationTicks":960,"midi":57,"name":"A3","ticks":282240,"time":147,"velocity":1},{"duration":0.5,"durationTicks":960,"midi":62,"name":"D4","ticks":282240,"time":147,"velocity":1},{"duration":0.5,"durationTicks":960,"midi":53,"name":"F3","ticks":282240,"time":147,"velocity":1},{"duration":0.5,"durationTicks":960,"midi":50,"name":"D3","ticks":283200,"time":147.5,"velocity":1},{"duration":0.5,"durationTicks":960,"midi":62,"name":"D4","ticks":283200,"time":147.5,"velocity":1},{"duration":0.5,"durationTicks":960,"midi":57,"name":"A3","ticks":283200,"time":147.5,"velocity":1},{"duration":0.5,"durationTicks":960,"midi":53,"name":"F3","ticks":283200,"time":147.5,"velocity":1},{"duration":0.5,"durationTicks":960,"midi":62,"name":"D4","ticks":284160,"time":148,"velocity":1},{"duration":0.5,"durationTicks":960,"midi":46,"name":"A#2","ticks":284160,"time":148,"velocity":1},{"duration":0.5,"durationTicks":960,"midi":53,"name":"F3","ticks":284160,"time":148,"velocity":1},{"duration":0.5,"durationTicks":960,"midi":58,"name":"A#3","ticks":284160,"time":148,"velocity":1},{"duration":0.5,"durationTicks":960,"midi":62,"name":"D4","ticks":285120,"time":148.5,"velocity":1},{"duration":0.5,"durationTicks":960,"midi":53,"name":"F3","ticks":285120,"time":148.5,"velocity":1},{"duration":0.5,"durationTicks":960,"midi":58,"name":"A#3","ticks":285120,"time":148.5,"velocity":1},{"duration":0.5,"durationTicks":960,"midi":46,"name":"A#2","ticks":285120,"time":148.5,"velocity":1},{"duration":0.5,"durationTicks":960,"midi":61,"name":"C#4","ticks":286080,"time":149,"velocity":1},{"duration":0.5,"durationTicks":960,"midi":45,"name":"A2","ticks":286080,"time":149,"velocity":1},{"duration":0.5,"durationTicks":960,"midi":52,"name":"E3","ticks":286080,"time":149,"velocity":1},{"duration":0.5,"durationTicks":960,"midi":57,"name":"A3","ticks":286080,"time":149,"velocity":1},{"duration":0.5,"durationTicks":960,"midi":61,"name":"C#4","ticks":287040,"time":149.5,"velocity":1},{"duration":0.5,"durationTicks":960,"midi":52,"name":"E3","ticks":287040,"time":149.5,"velocity":1},{"duration":0.5,"durationTicks":960,"midi":57,"name":"A3","ticks":287040,"time":149.5,"velocity":1},{"duration":0.5,"durationTicks":960,"midi":45,"name":"A2","ticks":287040,"time":149.5,"velocity":1},{"duration":2,"durationTicks":3840,"midi":50,"name":"D3","ticks":288000,"time":150,"velocity":1},{"duration":2,"durationTicks":3840,"midi":62,"name":"D4","ticks":288000,"time":150,"velocity":1},{"duration":2,"durationTicks":3840,"midi":57,"name":"A3","ticks":288000,"time":150,"velocity":1},{"duration":2,"durationTicks":3840,"midi":66,"name":"F#4","ticks":288000,"time":150,"velocity":1},{"duration":1.0625,"durationTicks":2040,"midi":50,"name":"D3","ticks":293640,"time":152.9375,"velocity":1},{"duration":1.03125,"durationTicks":1980,"midi":57,"name":"A3","ticks":293700,"time":152.96875,"velocity":1},{"duration":0.3333333333333428,"durationTicks":640,"midi":67,"name":"G4","ticks":293760,"time":153,"velocity":1},{"duration":0.65625,"durationTicks":1260,"midi":62,"name":"D4","ticks":293760,"time":153,"velocity":1},{"duration":0.3333333333333144,"durationTicks":640,"midi":66,"name":"F#4","ticks":294400,"time":153.33333333333334,"velocity":1},{"duration":0.3333333333333428,"durationTicks":640,"midi":62,"name":"D4","ticks":295040,"time":153.66666666666666,"velocity":1},{"duration":2,"durationTicks":3840,"midi":50,"name":"D3","ticks":295680,"time":154,"velocity":1},{"duration":2,"durationTicks":3840,"midi":57,"name":"A3","ticks":295680,"time":154,"velocity":1},{"duration":0.375,"durationTicks":720,"midi":59,"name":"B3","ticks":301440,"time":157,"velocity":1},{"duration":0.375,"durationTicks":720,"midi":54,"name":"F#3","ticks":301440,"time":157,"velocity":1},{"duration":0.125,"durationTicks":240,"midi":59,"name":"B3","ticks":302160,"time":157.375,"velocity":1},{"duration":0.125,"durationTicks":240,"midi":54,"name":"F#3","ticks":302160,"time":157.375,"velocity":1},{"duration":0.25,"durationTicks":480,"midi":57,"name":"A3","ticks":302880,"time":157.75,"velocity":1},{"duration":0.25,"durationTicks":480,"midi":52,"name":"E3","ticks":302880,"time":157.75,"velocity":1},{"duration":0.25,"durationTicks":480,"midi":45,"name":"A2","ticks":302880,"time":157.75,"velocity":1},{"duration":2,"durationTicks":3840,"midi":62,"name":"D4","ticks":303360,"time":158,"velocity":1},{"duration":2,"durationTicks":3840,"midi":50,"name":"D3","ticks":303360,"time":158,"velocity":1},{"duration":2,"durationTicks":3840,"midi":57,"name":"A3","ticks":303360,"time":158,"velocity":1},{"duration":2,"durationTicks":3840,"midi":66,"name":"F#4","ticks":303360,"time":158,"velocity":1},{"duration":1.0625,"durationTicks":2040,"midi":50,"name":"D3","ticks":309000,"time":160.9375,"velocity":1},{"duration":0.3333333333333428,"durationTicks":640,"midi":57,"name":"A3","ticks":309120,"time":161,"velocity":1},{"duration":0.3333333333333428,"durationTicks":640,"midi":67,"name":"G4","ticks":309120,"time":161,"velocity":1},{"duration":0.65625,"durationTicks":1260,"midi":62,"name":"D4","ticks":309120,"time":161,"velocity":1},{"duration":0.3333333333333144,"durationTicks":640,"midi":66,"name":"F#4","ticks":309760,"time":161.33333333333334,"velocity":1},{"duration":0.3333333333333428,"durationTicks":640,"midi":62,"name":"D4","ticks":310400,"time":161.66666666666666,"velocity":1},{"duration":2,"durationTicks":3840,"midi":50,"name":"D3","ticks":311040,"time":162,"velocity":1},{"duration":2,"durationTicks":3840,"midi":57,"name":"A3","ticks":311040,"time":162,"velocity":1},{"duration":0.375,"durationTicks":720,"midi":59,"name":"B3","ticks":316800,"time":165,"velocity":1},{"duration":0.375,"durationTicks":720,"midi":54,"name":"F#3","ticks":316800,"time":165,"velocity":1},{"duration":0.125,"durationTicks":240,"midi":59,"name":"B3","ticks":317520,"time":165.375,"velocity":1},{"duration":0.125,"durationTicks":240,"midi":54,"name":"F#3","ticks":317520,"time":165.375,"velocity":1},{"duration":0.25,"durationTicks":480,"midi":57,"name":"A3","ticks":318240,"time":165.75,"velocity":1},{"duration":0.25,"durationTicks":480,"midi":52,"name":"E3","ticks":318240,"time":165.75,"velocity":1},{"duration":0.25,"durationTicks":480,"midi":45,"name":"A2","ticks":318240,"time":165.75,"velocity":1},{"duration":2,"durationTicks":3840,"midi":66,"name":"F#4","ticks":318720,"time":166,"velocity":1},{"duration":2,"durationTicks":3840,"midi":57,"name":"A3","ticks":318720,"time":166,"velocity":1},{"duration":2,"durationTicks":3840,"midi":62,"name":"D4","ticks":318720,"time":166,"velocity":1},{"duration":2,"durationTicks":3840,"midi":50,"name":"D3","ticks":318720,"time":166,"velocity":1}],"channel":4,"instrument":{"family":"guitar","number":30,"name":"distortion guitar"},"controlChanges":{"7":[{"number":7,"ticks":0,"time":0,"value":0.8031496062992126}],"10":[{"number":10,"ticks":0,"time":0,"value":0.5039370078740157}]},"pitchBends":[],"endOfTrackTicks":322560},{"name":"Celesta","notes":[{"duration":1.015625,"durationTicks":1950,"midi":77,"name":"F5","ticks":61410,"time":31.984375,"velocity":1},{"duration":0.25,"durationTicks":480,"midi":93,"name":"A6","ticks":61440,"time":32,"velocity":1},{"duration":0.25,"durationTicks":480,"midi":84,"name":"C6","ticks":61920,"time":32.25,"velocity":1},{"duration":0.25,"durationTicks":480,"midi":96,"name":"C7","ticks":62400,"time":32.5,"velocity":1},{"duration":0.25,"durationTicks":480,"midi":84,"name":"C6","ticks":62880,"time":32.75,"velocity":1},{"duration":0.25,"durationTicks":480,"midi":91,"name":"G6","ticks":63360,"time":33,"velocity":1},{"duration":1,"durationTicks":1920,"midi":76,"name":"E5","ticks":63360,"time":33,"velocity":1},{"duration":0.25,"durationTicks":480,"midi":84,"name":"C6","ticks":63840,"time":33.25,"velocity":1},{"duration":0.25,"durationTicks":480,"midi":96,"name":"C7","ticks":64320,"time":33.5,"velocity":1},{"duration":0.25,"durationTicks":480,"midi":84,"name":"C6","ticks":64800,"time":33.75,"velocity":1},{"duration":0.25,"durationTicks":480,"midi":94,"name":"A#6","ticks":65280,"time":34,"velocity":1},{"duration":1,"durationTicks":1920,"midi":74,"name":"D5","ticks":65280,"time":34,"velocity":1},{"duration":0.25,"durationTicks":480,"midi":84,"name":"C6","ticks":65760,"time":34.25,"velocity":1},{"duration":0.25,"durationTicks":480,"midi":93,"name":"A6","ticks":65760,"time":34.25,"velocity":1},{"duration":0.25,"durationTicks":480,"midi":91,"name":"G6","ticks":66240,"time":34.5,"velocity":1},{"duration":0.25,"durationTicks":480,"midi":84,"name":"C6","ticks":66720,"time":34.75,"velocity":1},{"duration":0.25,"durationTicks":480,"midi":93,"name":"A6","ticks":67200,"time":35,"velocity":1},{"duration":0.984375,"durationTicks":1890,"midi":77,"name":"F5","ticks":67200,"time":35,"velocity":1},{"duration":0.25,"durationTicks":480,"midi":84,"name":"C6","ticks":67680,"time":35.25,"velocity":1},{"duration":0.25,"durationTicks":480,"midi":89,"name":"F6","ticks":68160,"time":35.5,"velocity":1},{"duration":0.25,"durationTicks":480,"midi":84,"name":"C6","ticks":68640,"time":35.75,"velocity":1},{"duration":1.015625,"durationTicks":1950,"midi":77,"name":"F5","ticks":69090,"time":35.984375,"velocity":1},{"duration":0.25,"durationTicks":480,"midi":93,"name":"A6","ticks":69120,"time":36,"velocity":1},{"duration":0.25,"durationTicks":480,"midi":84,"name":"C6","ticks":69600,"time":36.25,"velocity":1},{"duration":0.25,"durationTicks":480,"midi":96,"name":"C7","ticks":70080,"time":36.5,"velocity":1},{"duration":0.25,"durationTicks":480,"midi":84,"name":"C6","ticks":70560,"time":36.75,"velocity":1},{"duration":0.25,"durationTicks":480,"midi":91,"name":"G6","ticks":71040,"time":37,"velocity":1},{"duration":1,"durationTicks":1920,"midi":76,"name":"E5","ticks":71040,"time":37,"velocity":1},{"duration":0.25,"durationTicks":480,"midi":84,"name":"C6","ticks":71520,"time":37.25,"velocity":1},{"duration":0.25,"durationTicks":480,"midi":96,"name":"C7","ticks":72000,"time":37.5,"velocity":1},{"duration":0.25,"durationTicks":480,"midi":84,"name":"C6","ticks":72480,"time":37.75,"velocity":1},{"duration":0.25,"durationTicks":480,"midi":94,"name":"A#6","ticks":72960,"time":38,"velocity":1},{"duration":1,"durationTicks":1920,"midi":74,"name":"D5","ticks":72960,"time":38,"velocity":1},{"duration":0.25,"durationTicks":480,"midi":84,"name":"C6","ticks":73440,"time":38.25,"velocity":1},{"duration":0.25,"durationTicks":480,"midi":93,"name":"A6","ticks":73440,"time":38.25,"velocity":1},{"duration":0.25,"durationTicks":480,"midi":91,"name":"G6","ticks":73920,"time":38.5,"velocity":1},{"duration":0.25,"durationTicks":480,"midi":84,"name":"C6","ticks":74400,"time":38.75,"velocity":1},{"duration":0.25,"durationTicks":480,"midi":93,"name":"A6","ticks":74880,"time":39,"velocity":1},{"duration":1,"durationTicks":1920,"midi":77,"name":"F5","ticks":74880,"time":39,"velocity":1},{"duration":0.25,"durationTicks":480,"midi":84,"name":"C6","ticks":75360,"time":39.25,"velocity":1},{"duration":0.25,"durationTicks":480,"midi":89,"name":"F6","ticks":75840,"time":39.5,"velocity":1},{"duration":0.25,"durationTicks":480,"midi":84,"name":"C6","ticks":76320,"time":39.75,"velocity":1},{"duration":0.25,"durationTicks":480,"midi":91,"name":"G6","ticks":76800,"time":40,"velocity":1},{"duration":1,"durationTicks":1920,"midi":79,"name":"G5","ticks":76800,"time":40,"velocity":1},{"duration":0.25,"durationTicks":480,"midi":94,"name":"A#6","ticks":77280,"time":40.25,"velocity":1},{"duration":0.25,"durationTicks":480,"midi":93,"name":"A6","ticks":77760,"time":40.5,"velocity":1},{"duration":0.25,"durationTicks":480,"midi":91,"name":"G6","ticks":78240,"time":40.75,"velocity":1},{"duration":0.25,"durationTicks":480,"midi":88,"name":"E6","ticks":78720,"time":41,"velocity":1},{"duration":1,"durationTicks":1920,"midi":79,"name":"G5","ticks":78720,"time":41,"velocity":1},{"duration":0.25,"durationTicks":480,"midi":89,"name":"F6","ticks":79200,"time":41.25,"velocity":1},{"duration":0.25,"durationTicks":480,"midi":91,"name":"G6","ticks":79680,"time":41.5,"velocity":1},{"duration":0.25,"durationTicks":480,"midi":96,"name":"C7","ticks":80160,"time":41.75,"velocity":1},{"duration":0.25,"durationTicks":480,"midi":93,"name":"A6","ticks":80640,"time":42,"velocity":1},{"duration":0.5,"durationTicks":960,"midi":77,"name":"F5","ticks":80640,"time":42,"velocity":1},{"duration":0.25,"durationTicks":480,"midi":96,"name":"C7","ticks":81120,"time":42.25,"velocity":1},{"duration":0.25,"durationTicks":480,"midi":91,"name":"G6","ticks":81600,"time":42.5,"velocity":1},{"duration":0.5,"durationTicks":960,"midi":76,"name":"E5","ticks":81600,"time":42.5,"velocity":1},{"duration":0.25,"durationTicks":480,"midi":96,"name":"C7","ticks":82080,"time":42.75,"velocity":1},{"duration":0.25,"durationTicks":480,"midi":89,"name":"F6","ticks":82560,"time":43,"velocity":1},{"duration":1,"durationTicks":1920,"midi":74,"name":"D5","ticks":82560,"time":43,"velocity":1},{"duration":0.25,"durationTicks":480,"midi":81,"name":"A5","ticks":83040,"time":43.25,"velocity":1},{"duration":0.25,"durationTicks":480,"midi":93,"name":"A6","ticks":83520,"time":43.5,"velocity":1},{"duration":1.015625,"durationTicks":1950,"midi":77,"name":"F5","ticks":84450,"time":43.984375,"velocity":1},{"duration":0.25,"durationTicks":480,"midi":94,"name":"A#6","ticks":84480,"time":44,"velocity":1},{"duration":0.25,"durationTicks":480,"midi":86,"name":"D6","ticks":84960,"time":44.25,"velocity":1},{"duration":0.25,"durationTicks":480,"midi":89,"name":"F6","ticks":85440,"time":44.5,"velocity":1},{"duration":0.25,"durationTicks":480,"midi":86,"name":"D6","ticks":85920,"time":44.75,"velocity":1},{"duration":0.25,"durationTicks":480,"midi":93,"name":"A6","ticks":86400,"time":45,"velocity":1},{"duration":1,"durationTicks":1920,"midi":76,"name":"E5","ticks":86400,"time":45,"velocity":1},{"duration":0.25,"durationTicks":480,"midi":85,"name":"C#6","ticks":86880,"time":45.25,"velocity":1},{"duration":0.5,"durationTicks":960,"midi":91,"name":"G6","ticks":87360,"time":45.5,"velocity":1},{"duration":0.5,"durationTicks":960,"midi":88,"name":"E6","ticks":87360,"time":45.5,"velocity":1},{"duration":0.25,"durationTicks":480,"midi":81,"name":"A5","ticks":88320,"time":46,"velocity":1},{"duration":0.25,"durationTicks":480,"midi":86,"name":"D6","ticks":88800,"time":46.25,"velocity":1},{"duration":0.25,"durationTicks":480,"midi":90,"name":"F#6","ticks":89280,"time":46.5,"velocity":1},{"duration":0.25,"durationTicks":480,"midi":86,"name":"D6","ticks":89760,"time":46.75,"velocity":1},{"duration":0.25,"durationTicks":480,"midi":83,"name":"B5","ticks":90240,"time":47,"velocity":1},{"duration":0.25,"durationTicks":480,"midi":86,"name":"D6","ticks":90720,"time":47.25,"velocity":1},{"duration":0.25,"durationTicks":480,"midi":90,"name":"F#6","ticks":91200,"time":47.5,"velocity":1},{"duration":0.25,"durationTicks":480,"midi":86,"name":"D6","ticks":91680,"time":47.75,"velocity":1},{"duration":0.25,"durationTicks":480,"midi":81,"name":"A5","ticks":92160,"time":48,"velocity":1},{"duration":0.25,"durationTicks":480,"midi":86,"name":"D6","ticks":92640,"time":48.25,"velocity":1},{"duration":0.25,"durationTicks":480,"midi":90,"name":"F#6","ticks":93120,"time":48.5,"velocity":1},{"duration":0.25,"durationTicks":480,"midi":86,"name":"D6","ticks":93600,"time":48.75,"velocity":1},{"duration":0.25,"durationTicks":480,"midi":83,"name":"B5","ticks":94080,"time":49,"velocity":1},{"duration":0.25,"durationTicks":480,"midi":86,"name":"D6","ticks":94560,"time":49.25,"velocity":1},{"duration":0.25,"durationTicks":480,"midi":90,"name":"F#6","ticks":95040,"time":49.5,"velocity":1},{"duration":0.25,"durationTicks":480,"midi":86,"name":"D6","ticks":95520,"time":49.75,"velocity":1},{"duration":0.25,"durationTicks":480,"midi":81,"name":"A5","ticks":96000,"time":50,"velocity":1},{"duration":0.25,"durationTicks":480,"midi":86,"name":"D6","ticks":96480,"time":50.25,"velocity":1},{"duration":0.25,"durationTicks":480,"midi":90,"name":"F#6","ticks":96960,"time":50.5,"velocity":1},{"duration":0.25,"durationTicks":480,"midi":86,"name":"D6","ticks":97440,"time":50.75,"velocity":1},{"duration":0.25,"durationTicks":480,"midi":83,"name":"B5","ticks":97920,"time":51,"velocity":1},{"duration":0.25,"durationTicks":480,"midi":86,"name":"D6","ticks":98400,"time":51.25,"velocity":1},{"duration":0.25,"durationTicks":480,"midi":90,"name":"F#6","ticks":98880,"time":51.5,"velocity":1},{"duration":0.25,"durationTicks":480,"midi":86,"name":"D6","ticks":99360,"time":51.75,"velocity":1},{"duration":0.25,"durationTicks":480,"midi":81,"name":"A5","ticks":99840,"time":52,"velocity":1},{"duration":0.25,"durationTicks":480,"midi":86,"name":"D6","ticks":100320,"time":52.25,"velocity":1},{"duration":0.25,"durationTicks":480,"midi":90,"name":"F#6","ticks":100800,"time":52.5,"velocity":1},{"duration":0.25,"durationTicks":480,"midi":86,"name":"D6","ticks":101280,"time":52.75,"velocity":1},{"duration":0.25,"durationTicks":480,"midi":83,"name":"B5","ticks":101760,"time":53,"velocity":1},{"duration":0.25,"durationTicks":480,"midi":86,"name":"D6","ticks":102240,"time":53.25,"velocity":1},{"duration":0.25,"durationTicks":480,"midi":90,"name":"F#6","ticks":102720,"time":53.5,"velocity":1},{"duration":0.25,"durationTicks":480,"midi":86,"name":"D6","ticks":103200,"time":53.75,"velocity":1}],"channel":5,"instrument":{"family":"chromatic percussion","number":8,"name":"celesta"},"controlChanges":{"7":[{"number":7,"ticks":0,"time":0,"value":0.31496062992125984}],"10":[{"number":10,"ticks":0,"time":0,"value":0.8976377952755905}]},"pitchBends":[],"endOfTrackTicks":103680},{"name":"Bass","notes":[{"duration":0.5,"durationTicks":960,"midi":50,"name":"D3","ticks":87360,"time":45.5,"velocity":1},{"duration":0.5,"durationTicks":960,"midi":38,"name":"D2","ticks":88320,"time":46,"velocity":1},{"duration":0.25,"durationTicks":480,"midi":38,"name":"D2","ticks":89760,"time":46.75,"velocity":1},{"duration":0.5,"durationTicks":960,"midi":35,"name":"B1","ticks":90240,"time":47,"velocity":1},{"duration":0.25,"durationTicks":480,"midi":35,"name":"B1","ticks":91680,"time":47.75,"velocity":1},{"duration":0.5,"durationTicks":960,"midi":38,"name":"D2","ticks":92160,"time":48,"velocity":1},{"duration":0.25,"durationTicks":480,"midi":38,"name":"D2","ticks":93600,"time":48.75,"velocity":1},{"duration":0.5,"durationTicks":960,"midi":35,"name":"B1","ticks":94080,"time":49,"velocity":1},{"duration":0.25,"durationTicks":480,"midi":35,"name":"B1","ticks":95520,"time":49.75,"velocity":1},{"duration":0.5,"durationTicks":960,"midi":38,"name":"D2","ticks":96000,"time":50,"velocity":1},{"duration":0.25,"durationTicks":480,"midi":38,"name":"D2","ticks":97440,"time":50.75,"velocity":1},{"duration":0.5,"durationTicks":960,"midi":35,"name":"B1","ticks":97920,"time":51,"velocity":1},{"duration":0.25,"durationTicks":480,"midi":35,"name":"B1","ticks":99360,"time":51.75,"velocity":1},{"duration":0.5,"durationTicks":960,"midi":38,"name":"D2","ticks":99840,"time":52,"velocity":1},{"duration":0.25,"durationTicks":480,"midi":38,"name":"D2","ticks":101280,"time":52.75,"velocity":1},{"duration":0.5,"durationTicks":960,"midi":47,"name":"B2","ticks":101760,"time":53,"velocity":1},{"duration":0.25,"durationTicks":480,"midi":47,"name":"B2","ticks":102720,"time":53.5,"velocity":1},{"duration":0.25,"durationTicks":480,"midi":45,"name":"A2","ticks":103200,"time":53.75,"velocity":1},{"duration":0.5,"durationTicks":960,"midi":38,"name":"D2","ticks":103680,"time":54,"velocity":1},{"duration":0.25,"durationTicks":480,"midi":38,"name":"D2","ticks":105120,"time":54.75,"velocity":1},{"duration":0.5,"durationTicks":960,"midi":35,"name":"B1","ticks":105600,"time":55,"velocity":1},{"duration":0.25,"durationTicks":480,"midi":35,"name":"B1","ticks":107040,"time":55.75,"velocity":1},{"duration":0.5,"durationTicks":960,"midi":38,"name":"D2","ticks":107520,"time":56,"velocity":1},{"duration":0.25,"durationTicks":480,"midi":38,"name":"D2","ticks":108960,"time":56.75,"velocity":1},{"duration":0.5,"durationTicks":960,"midi":35,"name":"B1","ticks":109440,"time":57,"velocity":1},{"duration":0.25,"durationTicks":480,"midi":35,"name":"B1","ticks":110880,"time":57.75,"velocity":1},{"duration":0.5,"durationTicks":960,"midi":38,"name":"D2","ticks":111360,"time":58,"velocity":1},{"duration":0.25,"durationTicks":480,"midi":38,"name":"D2","ticks":112800,"time":58.75,"velocity":1},{"duration":0.5,"durationTicks":960,"midi":35,"name":"B1","ticks":113280,"time":59,"velocity":1},{"duration":0.25,"durationTicks":480,"midi":35,"name":"B1","ticks":114720,"time":59.75,"velocity":1},{"duration":0.5,"durationTicks":960,"midi":38,"name":"D2","ticks":115200,"time":60,"velocity":1},{"duration":0.25,"durationTicks":480,"midi":38,"name":"D2","ticks":116640,"time":60.75,"velocity":1},{"duration":0.5,"durationTicks":960,"midi":35,"name":"B1","ticks":117120,"time":61,"velocity":1},{"duration":0.25,"durationTicks":480,"midi":35,"name":"B1","ticks":118560,"time":61.75,"velocity":1},{"duration":0.5,"durationTicks":960,"midi":40,"name":"E2","ticks":119040,"time":62,"velocity":1},{"duration":0.25,"durationTicks":480,"midi":40,"name":"E2","ticks":120480,"time":62.75,"velocity":1},{"duration":0.25,"durationTicks":480,"midi":40,"name":"E2","ticks":120960,"time":63,"velocity":1},{"duration":0.25,"durationTicks":480,"midi":42,"name":"F#2","ticks":121440,"time":63.25,"velocity":1},{"duration":0.5,"durationTicks":960,"midi":43,"name":"G2","ticks":121920,"time":63.5,"velocity":1},{"duration":0.75,"durationTicks":1440,"midi":33,"name":"A1","ticks":122880,"time":64,"velocity":1},{"duration":0.25,"durationTicks":480,"midi":33,"name":"A1","ticks":124320,"time":64.75,"velocity":1},{"duration":0.25,"durationTicks":480,"midi":33,"name":"A1","ticks":124800,"time":65,"velocity":1},{"duration":0.25,"durationTicks":480,"midi":35,"name":"B1","ticks":125280,"time":65.25,"velocity":1},{"duration":0.5,"durationTicks":960,"midi":37,"name":"C#2","ticks":125760,"time":65.5,"velocity":1},{"duration":0.5,"durationTicks":960,"midi":38,"name":"D2","ticks":126720,"time":66,"velocity":1},{"duration":0.25,"durationTicks":480,"midi":38,"name":"D2","ticks":128160,"time":66.75,"velocity":1},{"duration":0.5,"durationTicks":960,"midi":35,"name":"B1","ticks":128640,"time":67,"velocity":1},{"duration":0.25,"durationTicks":480,"midi":35,"name":"B1","ticks":130080,"time":67.75,"velocity":1},{"duration":0.5,"durationTicks":960,"midi":38,"name":"D2","ticks":130560,"time":68,"velocity":1},{"duration":0.25,"durationTicks":480,"midi":38,"name":"D2","ticks":132000,"time":68.75,"velocity":1},{"duration":0.5,"durationTicks":960,"midi":47,"name":"B2","ticks":132480,"time":69,"velocity":1},{"duration":0.25,"durationTicks":480,"midi":47,"name":"B2","ticks":133440,"time":69.5,"velocity":1},{"duration":0.25,"durationTicks":480,"midi":45,"name":"A2","ticks":133920,"time":69.75,"velocity":1},{"duration":0.5,"durationTicks":960,"midi":38,"name":"D2","ticks":134400,"time":70,"velocity":1},{"duration":0.25,"durationTicks":480,"midi":38,"name":"D2","ticks":135840,"time":70.75,"velocity":1},{"duration":0.5,"durationTicks":960,"midi":35,"name":"B1","ticks":136320,"time":71,"velocity":1},{"duration":0.25,"durationTicks":480,"midi":35,"name":"B1","ticks":137760,"time":71.75,"velocity":1},{"duration":0.5,"durationTicks":960,"midi":38,"name":"D2","ticks":138240,"time":72,"velocity":1},{"duration":0.25,"durationTicks":480,"midi":38,"name":"D2","ticks":139680,"time":72.75,"velocity":1},{"duration":0.5,"durationTicks":960,"midi":35,"name":"B1","ticks":140160,"time":73,"velocity":1},{"duration":0.25,"durationTicks":480,"midi":35,"name":"B1","ticks":141600,"time":73.75,"velocity":1},{"duration":0.5,"durationTicks":960,"midi":38,"name":"D2","ticks":142080,"time":74,"velocity":1},{"duration":0.25,"durationTicks":480,"midi":38,"name":"D2","ticks":143520,"time":74.75,"velocity":1},{"duration":0.5,"durationTicks":960,"midi":35,"name":"B1","ticks":144000,"time":75,"velocity":1},{"duration":0.25,"durationTicks":480,"midi":35,"name":"B1","ticks":145440,"time":75.75,"velocity":1},{"duration":0.5,"durationTicks":960,"midi":38,"name":"D2","ticks":145920,"time":76,"velocity":1},{"duration":0.25,"durationTicks":480,"midi":38,"name":"D2","ticks":147360,"time":76.75,"velocity":1},{"duration":0.5,"durationTicks":960,"midi":35,"name":"B1","ticks":147840,"time":77,"velocity":1},{"duration":0.25,"durationTicks":480,"midi":35,"name":"B1","ticks":149280,"time":77.75,"velocity":1},{"duration":0.5,"durationTicks":960,"midi":40,"name":"E2","ticks":149760,"time":78,"velocity":1},{"duration":0.25,"durationTicks":480,"midi":40,"name":"E2","ticks":151200,"time":78.75,"velocity":1},{"duration":0.25,"durationTicks":480,"midi":40,"name":"E2","ticks":151680,"time":79,"velocity":1},{"duration":0.25,"durationTicks":480,"midi":42,"name":"F#2","ticks":152160,"time":79.25,"velocity":1},{"duration":0.5,"durationTicks":960,"midi":43,"name":"G2","ticks":152640,"time":79.5,"velocity":1},{"duration":0.75,"durationTicks":1440,"midi":33,"name":"A1","ticks":153600,"time":80,"velocity":1},{"duration":0.25,"durationTicks":480,"midi":33,"name":"A1","ticks":155040,"time":80.75,"velocity":1},{"duration":0.25,"durationTicks":480,"midi":33,"name":"A1","ticks":155520,"time":81,"velocity":1},{"duration":0.25,"durationTicks":480,"midi":35,"name":"B1","ticks":156000,"time":81.25,"velocity":1},{"duration":0.25,"durationTicks":480,"midi":37,"name":"C#2","ticks":156480,"time":81.5,"velocity":1},{"duration":0.25,"durationTicks":480,"midi":33,"name":"A1","ticks":156960,"time":81.75,"velocity":1},{"duration":1.75,"durationTicks":3360,"midi":34,"name":"A#1","ticks":157440,"time":82,"velocity":1},{"duration":0.75,"durationTicks":1440,"midi":46,"name":"A#2","ticks":158880,"time":82.75,"velocity":1},{"duration":0.25,"durationTicks":480,"midi":46,"name":"A#2","ticks":160320,"time":83.5,"velocity":1},{"duration":0.25,"durationTicks":480,"midi":33,"name":"A1","ticks":160800,"time":83.75,"velocity":1},{"duration":0.5,"durationTicks":960,"midi":41,"name":"F2","ticks":161280,"time":84,"velocity":1},{"duration":0.25,"durationTicks":480,"midi":41,"name":"F2","ticks":162720,"time":84.75,"velocity":1},{"duration":0.5,"durationTicks":960,"midi":36,"name":"C2","ticks":163200,"time":85,"velocity":1},{"duration":0.25,"durationTicks":480,"midi":36,"name":"C2","ticks":164640,"time":85.75,"velocity":1},{"duration":0.5,"durationTicks":960,"midi":34,"name":"A#1","ticks":165120,"time":86,"velocity":1},{"duration":0.25,"durationTicks":480,"midi":34,"name":"A#1","ticks":166560,"time":86.75,"velocity":1},{"duration":0.5,"durationTicks":960,"midi":41,"name":"F2","ticks":167040,"time":87,"velocity":1},{"duration":0.5,"durationTicks":960,"midi":41,"name":"F2","ticks":168960,"time":88,"velocity":1},{"duration":0.25,"durationTicks":480,"midi":41,"name":"F2","ticks":170400,"time":88.75,"velocity":1},{"duration":0.5,"durationTicks":960,"midi":36,"name":"C2","ticks":170880,"time":89,"velocity":1},{"duration":0.25,"durationTicks":480,"midi":36,"name":"C2","ticks":172320,"time":89.75,"velocity":1},{"duration":0.5,"durationTicks":960,"midi":34,"name":"A#1","ticks":172800,"time":90,"velocity":1},{"duration":0.25,"durationTicks":480,"midi":34,"name":"A#1","ticks":174240,"time":90.75,"velocity":1},{"duration":0.5,"durationTicks":960,"midi":41,"name":"F2","ticks":174720,"time":91,"velocity":1},{"duration":0.25,"durationTicks":480,"midi":41,"name":"F2","ticks":175680,"time":91.5,"velocity":1},{"duration":0.25,"durationTicks":480,"midi":36,"name":"C2","ticks":176160,"time":91.75,"velocity":1},{"duration":0.5,"durationTicks":960,"midi":34,"name":"A#1","ticks":176640,"time":92,"velocity":1},{"duration":0.5,"durationTicks":960,"midi":34,"name":"A#1","ticks":177600,"time":92.5,"velocity":1},{"duration":0.5,"durationTicks":960,"midi":36,"name":"C2","ticks":178560,"time":93,"velocity":1},{"duration":0.5,"durationTicks":960,"midi":36,"name":"C2","ticks":179520,"time":93.5,"velocity":1},{"duration":0.5,"durationTicks":960,"midi":41,"name":"F2","ticks":180480,"time":94,"velocity":1},{"duration":0.5,"durationTicks":960,"midi":40,"name":"E2","ticks":181440,"time":94.5,"velocity":1},{"duration":0.5,"durationTicks":960,"midi":38,"name":"D2","ticks":182400,"time":95,"velocity":1},{"duration":0.5,"durationTicks":960,"midi":36,"name":"C2","ticks":183360,"time":95.5,"velocity":1},{"duration":0.5,"durationTicks":960,"midi":34,"name":"A#1","ticks":184320,"time":96,"velocity":1},{"duration":0.5,"durationTicks":960,"midi":41,"name":"F2","ticks":185280,"time":96.5,"velocity":1},{"duration":0.5,"durationTicks":960,"midi":33,"name":"A1","ticks":186240,"time":97,"velocity":1},{"duration":0.5,"durationTicks":960,"midi":40,"name":"E2","ticks":187200,"time":97.5,"velocity":1},{"duration":0.5,"durationTicks":960,"midi":38,"name":"D2","ticks":188160,"time":98,"velocity":1},{"duration":0.25,"durationTicks":480,"midi":38,"name":"D2","ticks":189600,"time":98.75,"velocity":1},{"duration":0.5,"durationTicks":960,"midi":35,"name":"B1","ticks":190080,"time":99,"velocity":1},{"duration":0.25,"durationTicks":480,"midi":35,"name":"B1","ticks":191520,"time":99.75,"velocity":1},{"duration":0.5,"durationTicks":960,"midi":38,"name":"D2","ticks":192000,"time":100,"velocity":1},{"duration":0.25,"durationTicks":480,"midi":38,"name":"D2","ticks":193440,"time":100.75,"velocity":1},{"duration":0.5,"durationTicks":960,"midi":35,"name":"B1","ticks":193920,"time":101,"velocity":1},{"duration":0.25,"durationTicks":480,"midi":35,"name":"B1","ticks":195360,"time":101.75,"velocity":1},{"duration":0.5,"durationTicks":960,"midi":38,"name":"D2","ticks":195840,"time":102,"velocity":1},{"duration":0.25,"durationTicks":480,"midi":38,"name":"D2","ticks":197280,"time":102.75,"velocity":1},{"duration":0.5,"durationTicks":960,"midi":35,"name":"B1","ticks":197760,"time":103,"velocity":1},{"duration":0.25,"durationTicks":480,"midi":35,"name":"B1","ticks":199200,"time":103.75,"velocity":1},{"duration":0.5,"durationTicks":960,"midi":38,"name":"D2","ticks":199680,"time":104,"velocity":1},{"duration":0.25,"durationTicks":480,"midi":38,"name":"D2","ticks":201120,"time":104.75,"velocity":1},{"duration":0.5,"durationTicks":960,"midi":47,"name":"B2","ticks":201600,"time":105,"velocity":1},{"duration":0.25,"durationTicks":480,"midi":47,"name":"B2","ticks":202560,"time":105.5,"velocity":1},{"duration":0.25,"durationTicks":480,"midi":45,"name":"A2","ticks":203040,"time":105.75,"velocity":1},{"duration":0.5,"durationTicks":960,"midi":38,"name":"D2","ticks":234240,"time":122,"velocity":1},{"duration":0.25,"durationTicks":480,"midi":38,"name":"D2","ticks":235680,"time":122.75,"velocity":1},{"duration":0.5,"durationTicks":960,"midi":35,"name":"B1","ticks":236160,"time":123,"velocity":1},{"duration":0.25,"durationTicks":480,"midi":35,"name":"B1","ticks":237600,"time":123.75,"velocity":1},{"duration":0.5,"durationTicks":960,"midi":38,"name":"D2","ticks":238080,"time":124,"velocity":1},{"duration":0.25,"durationTicks":480,"midi":38,"name":"D2","ticks":239520,"time":124.75,"velocity":1},{"duration":0.5,"durationTicks":960,"midi":35,"name":"B1","ticks":240000,"time":125,"velocity":1},{"duration":0.25,"durationTicks":480,"midi":35,"name":"B1","ticks":241440,"time":125.75,"velocity":1},{"duration":0.5,"durationTicks":960,"midi":38,"name":"D2","ticks":241920,"time":126,"velocity":1},{"duration":0.25,"durationTicks":480,"midi":38,"name":"D2","ticks":243360,"time":126.75,"velocity":1},{"duration":0.5,"durationTicks":960,"midi":35,"name":"B1","ticks":243840,"time":127,"velocity":1},{"duration":0.25,"durationTicks":480,"midi":35,"name":"B1","ticks":245280,"time":127.75,"velocity":1},{"duration":0.5,"durationTicks":960,"midi":38,"name":"D2","ticks":245760,"time":128,"velocity":1},{"duration":0.25,"durationTicks":480,"midi":38,"name":"D2","ticks":247200,"time":128.75,"velocity":1},{"duration":0.5,"durationTicks":960,"midi":35,"name":"B1","ticks":247680,"time":129,"velocity":1},{"duration":0.25,"durationTicks":480,"midi":35,"name":"B1","ticks":249120,"time":129.75,"velocity":1},{"duration":0.5,"durationTicks":960,"midi":40,"name":"E2","ticks":249600,"time":130,"velocity":1},{"duration":0.25,"durationTicks":480,"midi":40,"name":"E2","ticks":251040,"time":130.75,"velocity":1},{"duration":0.25,"durationTicks":480,"midi":40,"name":"E2","ticks":251520,"time":131,"velocity":1},{"duration":0.25,"durationTicks":480,"midi":42,"name":"F#2","ticks":252000,"time":131.25,"velocity":1},{"duration":0.5,"durationTicks":960,"midi":43,"name":"G2","ticks":252480,"time":131.5,"velocity":1},{"duration":0.75,"durationTicks":1440,"midi":33,"name":"A1","ticks":253440,"time":132,"velocity":1},{"duration":0.25,"durationTicks":480,"midi":33,"name":"A1","ticks":254880,"time":132.75,"velocity":1},{"duration":0.25,"durationTicks":480,"midi":33,"name":"A1","ticks":255360,"time":133,"velocity":1},{"duration":0.25,"durationTicks":480,"midi":35,"name":"B1","ticks":255840,"time":133.25,"velocity":1},{"duration":0.25,"durationTicks":480,"midi":37,"name":"C#2","ticks":256320,"time":133.5,"velocity":1},{"duration":0.25,"durationTicks":480,"midi":33,"name":"A1","ticks":256800,"time":133.75,"velocity":1},{"duration":1.75,"durationTicks":3360,"midi":34,"name":"A#1","ticks":257280,"time":134,"velocity":1},{"duration":0.75,"durationTicks":1440,"midi":46,"name":"A#2","ticks":258720,"time":134.75,"velocity":1},{"duration":0.25,"durationTicks":480,"midi":46,"name":"A#2","ticks":260160,"time":135.5,"velocity":1},{"duration":0.25,"durationTicks":480,"midi":33,"name":"A1","ticks":260640,"time":135.75,"velocity":1},{"duration":0.5,"durationTicks":960,"midi":41,"name":"F2","ticks":261120,"time":136,"velocity":1},{"duration":0.25,"durationTicks":480,"midi":41,"name":"F2","ticks":262560,"time":136.75,"velocity":1},{"duration":0.5,"durationTicks":960,"midi":36,"name":"C2","ticks":263040,"time":137,"velocity":1},{"duration":0.25,"durationTicks":480,"midi":36,"name":"C2","ticks":264480,"time":137.75,"velocity":1},{"duration":0.5,"durationTicks":960,"midi":34,"name":"A#1","ticks":264960,"time":138,"velocity":1},{"duration":0.25,"durationTicks":480,"midi":34,"name":"A#1","ticks":266400,"time":138.75,"velocity":1},{"duration":0.5,"durationTicks":960,"midi":41,"name":"F2","ticks":266880,"time":139,"velocity":1},{"duration":0.25,"durationTicks":480,"midi":41,"name":"F2","ticks":268320,"time":139.75,"velocity":1},{"duration":0.5,"durationTicks":960,"midi":41,"name":"F2","ticks":268800,"time":140,"velocity":1},{"duration":0.25,"durationTicks":480,"midi":41,"name":"F2","ticks":270240,"time":140.75,"velocity":1},{"duration":0.5,"durationTicks":960,"midi":36,"name":"C2","ticks":270720,"time":141,"velocity":1},{"duration":0.25,"durationTicks":480,"midi":36,"name":"C2","ticks":272160,"time":141.75,"velocity":1},{"duration":0.5,"durationTicks":960,"midi":34,"name":"A#1","ticks":272640,"time":142,"velocity":1},{"duration":0.25,"durationTicks":480,"midi":34,"name":"A#1","ticks":274080,"time":142.75,"velocity":1},{"duration":0.5,"durationTicks":960,"midi":41,"name":"F2","ticks":274560,"time":143,"velocity":1},{"duration":0.25,"durationTicks":480,"midi":41,"name":"F2","ticks":275520,"time":143.5,"velocity":1},{"duration":0.25,"durationTicks":480,"midi":36,"name":"C2","ticks":276000,"time":143.75,"velocity":1},{"duration":0.5,"durationTicks":960,"midi":34,"name":"A#1","ticks":276480,"time":144,"velocity":1},{"duration":0.5,"durationTicks":960,"midi":34,"name":"A#1","ticks":277440,"time":144.5,"velocity":1},{"duration":0.5,"durationTicks":960,"midi":36,"name":"C2","ticks":278400,"time":145,"velocity":1},{"duration":0.5,"durationTicks":960,"midi":36,"name":"C2","ticks":279360,"time":145.5,"velocity":1},{"duration":0.5,"durationTicks":960,"midi":41,"name":"F2","ticks":280320,"time":146,"velocity":1},{"duration":0.5,"durationTicks":960,"midi":40,"name":"E2","ticks":281280,"time":146.5,"velocity":1},{"duration":0.5,"durationTicks":960,"midi":38,"name":"D2","ticks":282240,"time":147,"velocity":1},{"duration":0.5,"durationTicks":960,"midi":36,"name":"C2","ticks":283200,"time":147.5,"velocity":1},{"duration":0.5,"durationTicks":960,"midi":34,"name":"A#1","ticks":284160,"time":148,"velocity":1},{"duration":0.5,"durationTicks":960,"midi":41,"name":"F2","ticks":285120,"time":148.5,"velocity":1},{"duration":0.5,"durationTicks":960,"midi":33,"name":"A1","ticks":286080,"time":149,"velocity":1},{"duration":0.5,"durationTicks":960,"midi":40,"name":"E2","ticks":287040,"time":149.5,"velocity":1},{"duration":0.5,"durationTicks":960,"midi":38,"name":"D2","ticks":288000,"time":150,"velocity":1},{"duration":0.25,"durationTicks":480,"midi":38,"name":"D2","ticks":289440,"time":150.75,"velocity":1},{"duration":0.5,"durationTicks":960,"midi":35,"name":"B1","ticks":289920,"time":151,"velocity":1},{"duration":0.25,"durationTicks":480,"midi":35,"name":"B1","ticks":291360,"time":151.75,"velocity":1},{"duration":0.5,"durationTicks":960,"midi":38,"name":"D2","ticks":291840,"time":152,"velocity":1},{"duration":0.25,"durationTicks":480,"midi":38,"name":"D2","ticks":293280,"time":152.75,"velocity":1},{"duration":0.5,"durationTicks":960,"midi":35,"name":"B1","ticks":293760,"time":153,"velocity":1},{"duration":0.25,"durationTicks":480,"midi":35,"name":"B1","ticks":295200,"time":153.75,"velocity":1},{"duration":0.5,"durationTicks":960,"midi":38,"name":"D2","ticks":295680,"time":154,"velocity":1},{"duration":0.25,"durationTicks":480,"midi":38,"name":"D2","ticks":297120,"time":154.75,"velocity":1},{"duration":0.5,"durationTicks":960,"midi":35,"name":"B1","ticks":297600,"time":155,"velocity":1},{"duration":0.25,"durationTicks":480,"midi":35,"name":"B1","ticks":299040,"time":155.75,"velocity":1},{"duration":0.5,"durationTicks":960,"midi":38,"name":"D2","ticks":299520,"time":156,"velocity":1},{"duration":0.25,"durationTicks":480,"midi":38,"name":"D2","ticks":300960,"time":156.75,"velocity":1},{"duration":0.5,"durationTicks":960,"midi":35,"name":"B1","ticks":301440,"time":157,"velocity":1},{"duration":0.25,"durationTicks":480,"midi":35,"name":"B1","ticks":302880,"time":157.75,"velocity":1},{"duration":0.5,"durationTicks":960,"midi":38,"name":"D2","ticks":303360,"time":158,"velocity":1},{"duration":0.25,"durationTicks":480,"midi":38,"name":"D2","ticks":304800,"time":158.75,"velocity":1},{"duration":0.5,"durationTicks":960,"midi":35,"name":"B1","ticks":305280,"time":159,"velocity":1},{"duration":0.25,"durationTicks":480,"midi":35,"name":"B1","ticks":306720,"time":159.75,"velocity":1},{"duration":0.5,"durationTicks":960,"midi":38,"name":"D2","ticks":307200,"time":160,"velocity":1},{"duration":0.25,"durationTicks":480,"midi":38,"name":"D2","ticks":308640,"time":160.75,"velocity":1},{"duration":0.5,"durationTicks":960,"midi":35,"name":"B1","ticks":309120,"time":161,"velocity":1},{"duration":0.25,"durationTicks":480,"midi":35,"name":"B1","ticks":310560,"time":161.75,"velocity":1},{"duration":0.5,"durationTicks":960,"midi":38,"name":"D2","ticks":311040,"time":162,"velocity":1},{"duration":0.25,"durationTicks":480,"midi":38,"name":"D2","ticks":312480,"time":162.75,"velocity":1},{"duration":0.5,"durationTicks":960,"midi":35,"name":"B1","ticks":312960,"time":163,"velocity":1},{"duration":0.25,"durationTicks":480,"midi":35,"name":"B1","ticks":314400,"time":163.75,"velocity":1},{"duration":0.5,"durationTicks":960,"midi":38,"name":"D2","ticks":314880,"time":164,"velocity":1},{"duration":0.25,"durationTicks":480,"midi":38,"name":"D2","ticks":316320,"time":164.75,"velocity":1},{"duration":0.5,"durationTicks":960,"midi":35,"name":"B1","ticks":316800,"time":165,"velocity":1},{"duration":0.25,"durationTicks":480,"midi":35,"name":"B1","ticks":318240,"time":165.75,"velocity":1},{"duration":0.5,"durationTicks":960,"midi":38,"name":"D2","ticks":318720,"time":166,"velocity":1},{"duration":0.25,"durationTicks":480,"midi":38,"name":"D2","ticks":320160,"time":166.75,"velocity":1},{"duration":0.5,"durationTicks":960,"midi":35,"name":"B1","ticks":320640,"time":167,"velocity":1},{"duration":0.25,"durationTicks":480,"midi":35,"name":"B1","ticks":322080,"time":167.75,"velocity":1},{"duration":0.5,"durationTicks":960,"midi":38,"name":"D2","ticks":322560,"time":168,"velocity":1},{"duration":0.25,"durationTicks":480,"midi":38,"name":"D2","ticks":324000,"time":168.75,"velocity":1},{"duration":0.5,"durationTicks":960,"midi":35,"name":"B1","ticks":324480,"time":169,"velocity":1},{"duration":0.25,"durationTicks":480,"midi":35,"name":"B1","ticks":325920,"time":169.75,"velocity":1},{"duration":0.5,"durationTicks":960,"midi":38,"name":"D2","ticks":326400,"time":170,"velocity":1},{"duration":0.25,"durationTicks":480,"midi":38,"name":"D2","ticks":327840,"time":170.75,"velocity":1},{"duration":0.5,"durationTicks":960,"midi":35,"name":"B1","ticks":328320,"time":171,"velocity":1},{"duration":0.25,"durationTicks":480,"midi":35,"name":"B1","ticks":329760,"time":171.75,"velocity":1},{"duration":0.5,"durationTicks":960,"midi":38,"name":"D2","ticks":330240,"time":172,"velocity":1},{"duration":0.25,"durationTicks":480,"midi":38,"name":"D2","ticks":331680,"time":172.75,"velocity":1},{"duration":0.5,"durationTicks":960,"midi":47,"name":"B2","ticks":332160,"time":173,"velocity":1},{"duration":0.25,"durationTicks":480,"midi":47,"name":"B2","ticks":333120,"time":173.5,"velocity":1},{"duration":0.25,"durationTicks":480,"midi":45,"name":"A2","ticks":333600,"time":173.75,"velocity":1}],"channel":6,"instrument":{"family":"bass","number":33,"name":"electric bass (finger)"},"controlChanges":{"7":[{"number":7,"ticks":0,"time":0,"value":0.7480314960629921}],"10":[{"number":10,"ticks":0,"time":0,"value":0.5039370078740157}]},"pitchBends":[],"endOfTrackTicks":334080},{"name":"","notes":[{"duration":0.25,"durationTicks":480,"midi":65,"name":"F4","ticks":160320,"time":83.5,"velocity":1},{"duration":0.25,"durationTicks":480,"midi":67,"name":"G4","ticks":160800,"time":83.75,"velocity":1},{"duration":0.5,"durationTicks":960,"midi":69,"name":"A4","ticks":161280,"time":84,"velocity":1},{"duration":0.5,"durationTicks":960,"midi":72,"name":"C5","ticks":162240,"time":84.5,"velocity":1},{"duration":0.5,"durationTicks":960,"midi":72,"name":"C5","ticks":163200,"time":85,"velocity":1},{"duration":0.25,"durationTicks":480,"midi":70,"name":"A#4","ticks":164160,"time":85.5,"velocity":1},{"duration":0.25,"durationTicks":480,"midi":69,"name":"A4","ticks":164640,"time":85.75,"velocity":1},{"duration":0.25,"durationTicks":480,"midi":70,"name":"A#4","ticks":165120,"time":86,"velocity":1},{"duration":0.25,"durationTicks":480,"midi":69,"name":"A4","ticks":165600,"time":86.25,"velocity":1},{"duration":0.5,"durationTicks":960,"midi":69,"name":"A4","ticks":166080,"time":86.5,"velocity":1},{"duration":0.5,"durationTicks":960,"midi":69,"name":"A4","ticks":167040,"time":87,"velocity":1},{"duration":0.25,"durationTicks":480,"midi":67,"name":"G4","ticks":168000,"time":87.5,"velocity":1},{"duration":0.25,"durationTicks":480,"midi":65,"name":"F4","ticks":168480,"time":87.75,"velocity":1},{"duration":0.5,"durationTicks":960,"midi":65,"name":"F4","ticks":168960,"time":88,"velocity":1},{"duration":0.5,"durationTicks":960,"midi":69,"name":"A4","ticks":169920,"time":88.5,"velocity":1},{"duration":0.25,"durationTicks":480,"midi":70,"name":"A#4","ticks":170880,"time":89,"velocity":1},{"duration":0.25,"durationTicks":480,"midi":69,"name":"A4","ticks":171360,"time":89.25,"velocity":1},{"duration":0.25,"durationTicks":480,"midi":67,"name":"G4","ticks":171840,"time":89.5,"velocity":1},{"duration":0.25,"durationTicks":480,"midi":65,"name":"F4","ticks":172320,"time":89.75,"velocity":1},{"duration":0.25,"durationTicks":480,"midi":65,"name":"F4","ticks":172800,"time":90,"velocity":1},{"duration":0.25,"durationTicks":480,"midi":67,"name":"G4","ticks":173280,"time":90.25,"velocity":1},{"duration":0.5,"durationTicks":960,"midi":69,"name":"A4","ticks":173760,"time":90.5,"velocity":1},{"duration":0.5,"durationTicks":960,"midi":69,"name":"A4","ticks":174720,"time":91,"velocity":1},{"duration":0.25,"durationTicks":480,"midi":70,"name":"A#4","ticks":175680,"time":91.5,"velocity":1},{"duration":0.25,"durationTicks":480,"midi":72,"name":"C5","ticks":176160,"time":91.75,"velocity":1},{"duration":0.25,"durationTicks":480,"midi":74,"name":"D5","ticks":176640,"time":92,"velocity":1},{"duration":0.25,"durationTicks":480,"midi":74,"name":"D5","ticks":177120,"time":92.25,"velocity":1},{"duration":0.5,"durationTicks":960,"midi":72,"name":"C5","ticks":177600,"time":92.5,"velocity":1},{"duration":0.5,"durationTicks":960,"midi":72,"name":"C5","ticks":178560,"time":93,"velocity":1},{"duration":0.25,"durationTicks":480,"midi":69,"name":"A4","ticks":179520,"time":93.5,"velocity":1},{"duration":0.25,"durationTicks":480,"midi":70,"name":"A#4","ticks":180000,"time":93.75,"velocity":1},{"duration":0.25,"durationTicks":480,"midi":72,"name":"C5","ticks":180480,"time":94,"velocity":1},{"duration":0.25,"durationTicks":480,"midi":72,"name":"C5","ticks":180960,"time":94.25,"velocity":1},{"duration":0.5,"durationTicks":960,"midi":70,"name":"A#4","ticks":181440,"time":94.5,"velocity":1},{"duration":0.5,"durationTicks":960,"midi":69,"name":"A4","ticks":182400,"time":95,"velocity":1},{"duration":0.25,"durationTicks":480,"midi":67,"name":"G4","ticks":183360,"time":95.5,"velocity":1},{"duration":0.25,"durationTicks":480,"midi":65,"name":"F4","ticks":183840,"time":95.75,"velocity":1},{"duration":0.25,"durationTicks":480,"midi":65,"name":"F4","ticks":184320,"time":96,"velocity":1},{"duration":0.25,"durationTicks":480,"midi":67,"name":"G4","ticks":184800,"time":96.25,"velocity":1},{"duration":0.25,"durationTicks":480,"midi":69,"name":"A4","ticks":185280,"time":96.5,"velocity":1},{"duration":0.5,"durationTicks":960,"midi":67,"name":"G4","ticks":185760,"time":96.75,"velocity":1},{"duration":0.25,"durationTicks":480,"midi":67,"name":"G4","ticks":186720,"time":97.25,"velocity":1},{"duration":0.25,"durationTicks":480,"midi":69,"name":"A4","ticks":187200,"time":97.5,"velocity":1},{"duration":0.75,"durationTicks":1440,"midi":69,"name":"A4","ticks":187680,"time":97.75,"velocity":1},{"duration":0.25,"durationTicks":480,"midi":65,"name":"F4","ticks":260160,"time":135.5,"velocity":1},{"duration":0.25,"durationTicks":480,"midi":67,"name":"G4","ticks":260640,"time":135.75,"velocity":1},{"duration":0.5,"durationTicks":960,"midi":69,"name":"A4","ticks":261120,"time":136,"velocity":1},{"duration":0.5,"durationTicks":960,"midi":72,"name":"C5","ticks":262080,"time":136.5,"velocity":1},{"duration":0.5,"durationTicks":960,"midi":72,"name":"C5","ticks":263040,"time":137,"velocity":1},{"duration":0.25,"durationTicks":480,"midi":70,"name":"A#4","ticks":264000,"time":137.5,"velocity":1},{"duration":0.25,"durationTicks":480,"midi":69,"name":"A4","ticks":264480,"time":137.75,"velocity":1},{"duration":0.25,"durationTicks":480,"midi":70,"name":"A#4","ticks":264960,"time":138,"velocity":1},{"duration":0.25,"durationTicks":480,"midi":69,"name":"A4","ticks":265440,"time":138.25,"velocity":1},{"duration":0.5,"durationTicks":960,"midi":69,"name":"A4","ticks":265920,"time":138.5,"velocity":1},{"duration":0.5,"durationTicks":960,"midi":69,"name":"A4","ticks":266880,"time":139,"velocity":1},{"duration":0.25,"durationTicks":480,"midi":67,"name":"G4","ticks":267840,"time":139.5,"velocity":1},{"duration":0.25,"durationTicks":480,"midi":65,"name":"F4","ticks":268320,"time":139.75,"velocity":1},{"duration":0.5,"durationTicks":960,"midi":65,"name":"F4","ticks":268800,"time":140,"velocity":1},{"duration":0.5,"durationTicks":960,"midi":69,"name":"A4","ticks":269760,"time":140.5,"velocity":1},{"duration":0.25,"durationTicks":480,"midi":70,"name":"A#4","ticks":270720,"time":141,"velocity":1},{"duration":0.25,"durationTicks":480,"midi":69,"name":"A4","ticks":271200,"time":141.25,"velocity":1},{"duration":0.25,"durationTicks":480,"midi":67,"name":"G4","ticks":271680,"time":141.5,"velocity":1},{"duration":0.25,"durationTicks":480,"midi":65,"name":"F4","ticks":272160,"time":141.75,"velocity":1},{"duration":0.25,"durationTicks":480,"midi":65,"name":"F4","ticks":272640,"time":142,"velocity":1},{"duration":0.25,"durationTicks":480,"midi":67,"name":"G4","ticks":273120,"time":142.25,"velocity":1},{"duration":0.5,"durationTicks":960,"midi":69,"name":"A4","ticks":273600,"time":142.5,"velocity":1},{"duration":0.5,"durationTicks":960,"midi":69,"name":"A4","ticks":274560,"time":143,"velocity":1},{"duration":0.25,"durationTicks":480,"midi":70,"name":"A#4","ticks":275520,"time":143.5,"velocity":1},{"duration":0.25,"durationTicks":480,"midi":72,"name":"C5","ticks":276000,"time":143.75,"velocity":1},{"duration":0.25,"durationTicks":480,"midi":74,"name":"D5","ticks":276480,"time":144,"velocity":1},{"duration":0.25,"durationTicks":480,"midi":74,"name":"D5","ticks":276960,"time":144.25,"velocity":1},{"duration":0.5,"durationTicks":960,"midi":72,"name":"C5","ticks":277440,"time":144.5,"velocity":1},{"duration":0.5,"durationTicks":960,"midi":72,"name":"C5","ticks":278400,"time":145,"velocity":1},{"duration":0.25,"durationTicks":480,"midi":69,"name":"A4","ticks":279360,"time":145.5,"velocity":1},{"duration":0.25,"durationTicks":480,"midi":70,"name":"A#4","ticks":279840,"time":145.75,"velocity":1},{"duration":0.25,"durationTicks":480,"midi":72,"name":"C5","ticks":280320,"time":146,"velocity":1},{"duration":0.25,"durationTicks":480,"midi":72,"name":"C5","ticks":280800,"time":146.25,"velocity":1},{"duration":0.5,"durationTicks":960,"midi":70,"name":"A#4","ticks":281280,"time":146.5,"velocity":1},{"duration":0.5,"durationTicks":960,"midi":69,"name":"A4","ticks":282240,"time":147,"velocity":1},{"duration":0.25,"durationTicks":480,"midi":67,"name":"G4","ticks":283200,"time":147.5,"velocity":1},{"duration":0.25,"durationTicks":480,"midi":65,"name":"F4","ticks":283680,"time":147.75,"velocity":1},{"duration":0.25,"durationTicks":480,"midi":65,"name":"F4","ticks":284160,"time":148,"velocity":1},{"duration":0.25,"durationTicks":480,"midi":67,"name":"G4","ticks":284640,"time":148.25,"velocity":1},{"duration":0.25,"durationTicks":480,"midi":69,"name":"A4","ticks":285120,"time":148.5,"velocity":1},{"duration":0.5,"durationTicks":960,"midi":67,"name":"G4","ticks":285600,"time":148.75,"velocity":1},{"duration":0.25,"durationTicks":480,"midi":67,"name":"G4","ticks":286560,"time":149.25,"velocity":1},{"duration":0.25,"durationTicks":480,"midi":69,"name":"A4","ticks":287040,"time":149.5,"velocity":1},{"duration":0.75,"durationTicks":1440,"midi":69,"name":"A4","ticks":287520,"time":149.75,"velocity":1}],"channel":7,"instrument":{"family":"synth lead","number":80,"name":"lead 1 (square)"},"controlChanges":{"10":[{"number":10,"ticks":0,"time":0,"value":0.5039370078740157}]},"pitchBends":[]},{"name":"Drums 1","notes":[{"duration":0.25,"durationTicks":480,"midi":36,"name":"C2","ticks":61440,"time":32,"velocity":1},{"duration":0.25,"durationTicks":480,"midi":36,"name":"C2","ticks":62880,"time":32.75,"velocity":1},{"duration":0.25,"durationTicks":480,"midi":36,"name":"C2","ticks":63360,"time":33,"velocity":1},{"duration":0.25,"durationTicks":480,"midi":36,"name":"C2","ticks":65280,"time":34,"velocity":1},{"duration":0.25,"durationTicks":480,"midi":36,"name":"C2","ticks":66720,"time":34.75,"velocity":1},{"duration":0.25,"durationTicks":480,"midi":36,"name":"C2","ticks":67200,"time":35,"velocity":1},{"duration":0.25,"durationTicks":480,"midi":36,"name":"C2","ticks":69120,"time":36,"velocity":1},{"duration":0.25,"durationTicks":480,"midi":36,"name":"C2","ticks":70560,"time":36.75,"velocity":1},{"duration":0.25,"durationTicks":480,"midi":36,"name":"C2","ticks":71040,"time":37,"velocity":1},{"duration":0.25,"durationTicks":480,"midi":36,"name":"C2","ticks":72960,"time":38,"velocity":1},{"duration":0.25,"durationTicks":480,"midi":36,"name":"C2","ticks":74400,"time":38.75,"velocity":1},{"duration":0.25,"durationTicks":480,"midi":36,"name":"C2","ticks":74880,"time":39,"velocity":1},{"duration":0.25,"durationTicks":480,"midi":36,"name":"C2","ticks":76800,"time":40,"velocity":1},{"duration":0.25,"durationTicks":480,"midi":36,"name":"C2","ticks":78240,"time":40.75,"velocity":1},{"duration":0.25,"durationTicks":480,"midi":36,"name":"C2","ticks":78720,"time":41,"velocity":1},{"duration":0.25,"durationTicks":480,"midi":36,"name":"C2","ticks":80640,"time":42,"velocity":1},{"duration":0.25,"durationTicks":480,"midi":36,"name":"C2","ticks":82080,"time":42.75,"velocity":1},{"duration":0.25,"durationTicks":480,"midi":36,"name":"C2","ticks":82560,"time":43,"velocity":1},{"duration":0.25,"durationTicks":480,"midi":36,"name":"C2","ticks":84480,"time":44,"velocity":1},{"duration":0.25,"durationTicks":480,"midi":36,"name":"C2","ticks":85920,"time":44.75,"velocity":1},{"duration":0.25,"durationTicks":480,"midi":36,"name":"C2","ticks":86400,"time":45,"velocity":1},{"duration":0.25,"durationTicks":480,"midi":57,"name":"A3","ticks":88320,"time":46,"velocity":1},{"duration":0.25,"durationTicks":480,"midi":36,"name":"C2","ticks":88320,"time":46,"velocity":1},{"duration":0.25,"durationTicks":480,"midi":59,"name":"B3","ticks":89280,"time":46.5,"velocity":1},{"duration":0.25,"durationTicks":480,"midi":40,"name":"E2","ticks":89280,"time":46.5,"velocity":1},{"duration":0.25,"durationTicks":480,"midi":36,"name":"C2","ticks":89760,"time":46.75,"velocity":1},{"duration":0.25,"durationTicks":480,"midi":59,"name":"B3","ticks":90240,"time":47,"velocity":1},{"duration":0.25,"durationTicks":480,"midi":36,"name":"C2","ticks":90240,"time":47,"velocity":1},{"duration":0.25,"durationTicks":480,"midi":59,"name":"B3","ticks":91200,"time":47.5,"velocity":1},{"duration":0.25,"durationTicks":480,"midi":40,"name":"E2","ticks":91200,"time":47.5,"velocity":1},{"duration":0.25,"durationTicks":480,"midi":59,"name":"B3","ticks":92160,"time":48,"velocity":1},{"duration":0.25,"durationTicks":480,"midi":36,"name":"C2","ticks":92160,"time":48,"velocity":1},{"duration":0.25,"durationTicks":480,"midi":59,"name":"B3","ticks":93120,"time":48.5,"velocity":1},{"duration":0.25,"durationTicks":480,"midi":40,"name":"E2","ticks":93120,"time":48.5,"velocity":1},{"duration":0.25,"durationTicks":480,"midi":36,"name":"C2","ticks":93600,"time":48.75,"velocity":1},{"duration":0.25,"durationTicks":480,"midi":59,"name":"B3","ticks":94080,"time":49,"velocity":1},{"duration":0.25,"durationTicks":480,"midi":36,"name":"C2","ticks":94080,"time":49,"velocity":1},{"duration":0.25,"durationTicks":480,"midi":59,"name":"B3","ticks":95040,"time":49.5,"velocity":1},{"duration":0.25,"durationTicks":480,"midi":40,"name":"E2","ticks":95040,"time":49.5,"velocity":1},{"duration":0.25,"durationTicks":480,"midi":59,"name":"B3","ticks":96000,"time":50,"velocity":1},{"duration":0.25,"durationTicks":480,"midi":36,"name":"C2","ticks":96000,"time":50,"velocity":1},{"duration":0.25,"durationTicks":480,"midi":59,"name":"B3","ticks":96960,"time":50.5,"velocity":1},{"duration":0.25,"durationTicks":480,"midi":40,"name":"E2","ticks":96960,"time":50.5,"velocity":1},{"duration":0.25,"durationTicks":480,"midi":36,"name":"C2","ticks":97440,"time":50.75,"velocity":1},{"duration":0.25,"durationTicks":480,"midi":59,"name":"B3","ticks":97920,"time":51,"velocity":1},{"duration":0.25,"durationTicks":480,"midi":36,"name":"C2","ticks":97920,"time":51,"velocity":1},{"duration":0.25,"durationTicks":480,"midi":59,"name":"B3","ticks":98880,"time":51.5,"velocity":1},{"duration":0.25,"durationTicks":480,"midi":40,"name":"E2","ticks":98880,"time":51.5,"velocity":1},{"duration":0.25,"durationTicks":480,"midi":59,"name":"B3","ticks":99840,"time":52,"velocity":1},{"duration":0.25,"durationTicks":480,"midi":36,"name":"C2","ticks":99840,"time":52,"velocity":1},{"duration":0.25,"durationTicks":480,"midi":59,"name":"B3","ticks":100800,"time":52.5,"velocity":1},{"duration":0.25,"durationTicks":480,"midi":40,"name":"E2","ticks":100800,"time":52.5,"velocity":1},{"duration":0.25,"durationTicks":480,"midi":36,"name":"C2","ticks":101280,"time":52.75,"velocity":1},{"duration":0.25,"durationTicks":480,"midi":59,"name":"B3","ticks":101760,"time":53,"velocity":1},{"duration":0.25,"durationTicks":480,"midi":36,"name":"C2","ticks":101760,"time":53,"velocity":1},{"duration":0.125,"durationTicks":240,"midi":36,"name":"C2","ticks":102240,"time":53.25,"velocity":1},{"duration":0.125,"durationTicks":240,"midi":36,"name":"C2","ticks":102480,"time":53.375,"velocity":1},{"duration":0.25,"durationTicks":480,"midi":40,"name":"E2","ticks":102720,"time":53.5,"velocity":1},{"duration":0.25,"durationTicks":480,"midi":59,"name":"B3","ticks":102720,"time":53.5,"velocity":1},{"duration":0.5,"durationTicks":960,"midi":57,"name":"A3","ticks":102720,"time":53.5,"velocity":1},{"duration":0.25,"durationTicks":480,"midi":59,"name":"B3","ticks":103680,"time":54,"velocity":1},{"duration":0.25,"durationTicks":480,"midi":36,"name":"C2","ticks":103680,"time":54,"velocity":1},{"duration":0.25,"durationTicks":480,"midi":57,"name":"A3","ticks":103680,"time":54,"velocity":1},{"duration":0.25,"durationTicks":480,"midi":59,"name":"B3","ticks":104640,"time":54.5,"velocity":1},{"duration":0.25,"durationTicks":480,"midi":40,"name":"E2","ticks":104640,"time":54.5,"velocity":1},{"duration":0.25,"durationTicks":480,"midi":36,"name":"C2","ticks":105120,"time":54.75,"velocity":1},{"duration":0.25,"durationTicks":480,"midi":59,"name":"B3","ticks":105600,"time":55,"velocity":1},{"duration":0.25,"durationTicks":480,"midi":36,"name":"C2","ticks":105600,"time":55,"velocity":1},{"duration":0.25,"durationTicks":480,"midi":59,"name":"B3","ticks":106560,"time":55.5,"velocity":1},{"duration":0.25,"durationTicks":480,"midi":40,"name":"E2","ticks":106560,"time":55.5,"velocity":1},{"duration":0.25,"durationTicks":480,"midi":59,"name":"B3","ticks":107520,"time":56,"velocity":1},{"duration":0.25,"durationTicks":480,"midi":36,"name":"C2","ticks":107520,"time":56,"velocity":1},{"duration":0.25,"durationTicks":480,"midi":59,"name":"B3","ticks":108480,"time":56.5,"velocity":1},{"duration":0.25,"durationTicks":480,"midi":40,"name":"E2","ticks":108480,"time":56.5,"velocity":1},{"duration":0.25,"durationTicks":480,"midi":36,"name":"C2","ticks":108960,"time":56.75,"velocity":1},{"duration":0.25,"durationTicks":480,"midi":59,"name":"B3","ticks":109440,"time":57,"velocity":1},{"duration":0.25,"durationTicks":480,"midi":36,"name":"C2","ticks":109440,"time":57,"velocity":1},{"duration":0.25,"durationTicks":480,"midi":59,"name":"B3","ticks":110400,"time":57.5,"velocity":1},{"duration":0.25,"durationTicks":480,"midi":40,"name":"E2","ticks":110400,"time":57.5,"velocity":1},{"duration":0.25,"durationTicks":480,"midi":59,"name":"B3","ticks":111360,"time":58,"velocity":1},{"duration":0.25,"durationTicks":480,"midi":36,"name":"C2","ticks":111360,"time":58,"velocity":1},{"duration":0.25,"durationTicks":480,"midi":59,"name":"B3","ticks":112320,"time":58.5,"velocity":1},{"duration":0.25,"durationTicks":480,"midi":40,"name":"E2","ticks":112320,"time":58.5,"velocity":1},{"duration":0.25,"durationTicks":480,"midi":36,"name":"C2","ticks":112800,"time":58.75,"velocity":1},{"duration":0.25,"durationTicks":480,"midi":59,"name":"B3","ticks":113280,"time":59,"velocity":1},{"duration":0.25,"durationTicks":480,"midi":36,"name":"C2","ticks":113280,"time":59,"velocity":1},{"duration":0.25,"durationTicks":480,"midi":59,"name":"B3","ticks":114240,"time":59.5,"velocity":1},{"duration":0.25,"durationTicks":480,"midi":40,"name":"E2","ticks":114240,"time":59.5,"velocity":1},{"duration":0.25,"durationTicks":480,"midi":59,"name":"B3","ticks":115200,"time":60,"velocity":1},{"duration":0.25,"durationTicks":480,"midi":36,"name":"C2","ticks":115200,"time":60,"velocity":1},{"duration":0.25,"durationTicks":480,"midi":59,"name":"B3","ticks":116160,"time":60.5,"velocity":1},{"duration":0.25,"durationTicks":480,"midi":40,"name":"E2","ticks":116160,"time":60.5,"velocity":1},{"duration":0.25,"durationTicks":480,"midi":36,"name":"C2","ticks":116640,"time":60.75,"velocity":1},{"duration":0.25,"durationTicks":480,"midi":59,"name":"B3","ticks":117120,"time":61,"velocity":1},{"duration":0.25,"durationTicks":480,"midi":36,"name":"C2","ticks":117120,"time":61,"velocity":1},{"duration":0.25,"durationTicks":480,"midi":59,"name":"B3","ticks":118080,"time":61.5,"velocity":1},{"duration":0.25,"durationTicks":480,"midi":40,"name":"E2","ticks":118080,"time":61.5,"velocity":1},{"duration":0.25,"durationTicks":480,"midi":59,"name":"B3","ticks":119040,"time":62,"velocity":1},{"duration":0.25,"durationTicks":480,"midi":36,"name":"C2","ticks":119040,"time":62,"velocity":1},{"duration":0.25,"durationTicks":480,"midi":59,"name":"B3","ticks":120000,"time":62.5,"velocity":1},{"duration":0.25,"durationTicks":480,"midi":40,"name":"E2","ticks":120000,"time":62.5,"velocity":1},{"duration":0.25,"durationTicks":480,"midi":36,"name":"C2","ticks":120480,"time":62.75,"velocity":1},{"duration":0.25,"durationTicks":480,"midi":59,"name":"B3","ticks":120960,"time":63,"velocity":1},{"duration":0.25,"durationTicks":480,"midi":36,"name":"C2","ticks":120960,"time":63,"velocity":1},{"duration":0.25,"durationTicks":480,"midi":59,"name":"B3","ticks":121920,"time":63.5,"velocity":1},{"duration":0.25,"durationTicks":480,"midi":40,"name":"E2","ticks":121920,"time":63.5,"velocity":1},{"duration":0.25,"durationTicks":480,"midi":59,"name":"B3","ticks":122880,"time":64,"velocity":1},{"duration":0.25,"durationTicks":480,"midi":36,"name":"C2","ticks":122880,"time":64,"velocity":1},{"duration":0.25,"durationTicks":480,"midi":59,"name":"B3","ticks":123840,"time":64.5,"velocity":1},{"duration":0.25,"durationTicks":480,"midi":40,"name":"E2","ticks":123840,"time":64.5,"velocity":1},{"duration":0.25,"durationTicks":480,"midi":36,"name":"C2","ticks":124320,"time":64.75,"velocity":1},{"duration":0.25,"durationTicks":480,"midi":59,"name":"B3","ticks":124800,"time":65,"velocity":1},{"duration":0.25,"durationTicks":480,"midi":36,"name":"C2","ticks":124800,"time":65,"velocity":1},{"duration":0.25,"durationTicks":480,"midi":59,"name":"B3","ticks":125760,"time":65.5,"velocity":1},{"duration":0.25,"durationTicks":480,"midi":40,"name":"E2","ticks":125760,"time":65.5,"velocity":1},{"duration":0.25,"durationTicks":480,"midi":59,"name":"B3","ticks":126720,"time":66,"velocity":1},{"duration":0.25,"durationTicks":480,"midi":36,"name":"C2","ticks":126720,"time":66,"velocity":1},{"duration":0.25,"durationTicks":480,"midi":59,"name":"B3","ticks":127680,"time":66.5,"velocity":1},{"duration":0.25,"durationTicks":480,"midi":40,"name":"E2","ticks":127680,"time":66.5,"velocity":1},{"duration":0.25,"durationTicks":480,"midi":36,"name":"C2","ticks":128160,"time":66.75,"velocity":1},{"duration":0.25,"durationTicks":480,"midi":59,"name":"B3","ticks":128640,"time":67,"velocity":1},{"duration":0.25,"durationTicks":480,"midi":36,"name":"C2","ticks":128640,"time":67,"velocity":1},{"duration":0.25,"durationTicks":480,"midi":59,"name":"B3","ticks":129600,"time":67.5,"velocity":1},{"duration":0.25,"durationTicks":480,"midi":40,"name":"E2","ticks":129600,"time":67.5,"velocity":1},{"duration":0.25,"durationTicks":480,"midi":59,"name":"B3","ticks":130560,"time":68,"velocity":1},{"duration":0.25,"durationTicks":480,"midi":36,"name":"C2","ticks":130560,"time":68,"velocity":1},{"duration":0.25,"durationTicks":480,"midi":59,"name":"B3","ticks":131520,"time":68.5,"velocity":1},{"duration":0.25,"durationTicks":480,"midi":40,"name":"E2","ticks":131520,"time":68.5,"velocity":1},{"duration":0.25,"durationTicks":480,"midi":36,"name":"C2","ticks":132000,"time":68.75,"velocity":1},{"duration":0.25,"durationTicks":480,"midi":59,"name":"B3","ticks":132480,"time":69,"velocity":1},{"duration":0.25,"durationTicks":480,"midi":36,"name":"C2","ticks":132480,"time":69,"velocity":1},{"duration":0.125,"durationTicks":240,"midi":36,"name":"C2","ticks":132960,"time":69.25,"velocity":1},{"duration":0.125,"durationTicks":240,"midi":36,"name":"C2","ticks":133200,"time":69.375,"velocity":1},{"duration":0.25,"durationTicks":480,"midi":40,"name":"E2","ticks":133440,"time":69.5,"velocity":1},{"duration":0.25,"durationTicks":480,"midi":59,"name":"B3","ticks":133440,"time":69.5,"velocity":1},{"duration":0.5,"durationTicks":960,"midi":57,"name":"A3","ticks":133440,"time":69.5,"velocity":1},{"duration":0.25,"durationTicks":480,"midi":59,"name":"B3","ticks":134400,"time":70,"velocity":1},{"duration":0.25,"durationTicks":480,"midi":36,"name":"C2","ticks":134400,"time":70,"velocity":1},{"duration":0.25,"durationTicks":480,"midi":57,"name":"A3","ticks":134400,"time":70,"velocity":1},{"duration":0.25,"durationTicks":480,"midi":59,"name":"B3","ticks":135360,"time":70.5,"velocity":1},{"duration":0.25,"durationTicks":480,"midi":40,"name":"E2","ticks":135360,"time":70.5,"velocity":1},{"duration":0.25,"durationTicks":480,"midi":36,"name":"C2","ticks":135840,"time":70.75,"velocity":1},{"duration":0.25,"durationTicks":480,"midi":59,"name":"B3","ticks":136320,"time":71,"velocity":1},{"duration":0.25,"durationTicks":480,"midi":36,"name":"C2","ticks":136320,"time":71,"velocity":1},{"duration":0.25,"durationTicks":480,"midi":59,"name":"B3","ticks":137280,"time":71.5,"velocity":1},{"duration":0.25,"durationTicks":480,"midi":40,"name":"E2","ticks":137280,"time":71.5,"velocity":1},{"duration":0.25,"durationTicks":480,"midi":59,"name":"B3","ticks":138240,"time":72,"velocity":1},{"duration":0.25,"durationTicks":480,"midi":36,"name":"C2","ticks":138240,"time":72,"velocity":1},{"duration":0.25,"durationTicks":480,"midi":59,"name":"B3","ticks":139200,"time":72.5,"velocity":1},{"duration":0.25,"durationTicks":480,"midi":40,"name":"E2","ticks":139200,"time":72.5,"velocity":1},{"duration":0.25,"durationTicks":480,"midi":36,"name":"C2","ticks":139680,"time":72.75,"velocity":1},{"duration":0.25,"durationTicks":480,"midi":59,"name":"B3","ticks":140160,"time":73,"velocity":1},{"duration":0.25,"durationTicks":480,"midi":36,"name":"C2","ticks":140160,"time":73,"velocity":1},{"duration":0.25,"durationTicks":480,"midi":59,"name":"B3","ticks":141120,"time":73.5,"velocity":1},{"duration":0.25,"durationTicks":480,"midi":40,"name":"E2","ticks":141120,"time":73.5,"velocity":1},{"duration":0.25,"durationTicks":480,"midi":59,"name":"B3","ticks":142080,"time":74,"velocity":1},{"duration":0.25,"durationTicks":480,"midi":36,"name":"C2","ticks":142080,"time":74,"velocity":1},{"duration":0.25,"durationTicks":480,"midi":59,"name":"B3","ticks":143040,"time":74.5,"velocity":1},{"duration":0.25,"durationTicks":480,"midi":40,"name":"E2","ticks":143040,"time":74.5,"velocity":1},{"duration":0.25,"durationTicks":480,"midi":36,"name":"C2","ticks":143520,"time":74.75,"velocity":1},{"duration":0.25,"durationTicks":480,"midi":59,"name":"B3","ticks":144000,"time":75,"velocity":1},{"duration":0.25,"durationTicks":480,"midi":36,"name":"C2","ticks":144000,"time":75,"velocity":1},{"duration":0.25,"durationTicks":480,"midi":59,"name":"B3","ticks":144960,"time":75.5,"velocity":1},{"duration":0.25,"durationTicks":480,"midi":40,"name":"E2","ticks":144960,"time":75.5,"velocity":1},{"duration":0.25,"durationTicks":480,"midi":59,"name":"B3","ticks":145920,"time":76,"velocity":1},{"duration":0.25,"durationTicks":480,"midi":36,"name":"C2","ticks":145920,"time":76,"velocity":1},{"duration":0.25,"durationTicks":480,"midi":59,"name":"B3","ticks":146880,"time":76.5,"velocity":1},{"duration":0.25,"durationTicks":480,"midi":40,"name":"E2","ticks":146880,"time":76.5,"velocity":1},{"duration":0.25,"durationTicks":480,"midi":36,"name":"C2","ticks":147360,"time":76.75,"velocity":1},{"duration":0.25,"durationTicks":480,"midi":59,"name":"B3","ticks":147840,"time":77,"velocity":1},{"duration":0.25,"durationTicks":480,"midi":36,"name":"C2","ticks":147840,"time":77,"velocity":1},{"duration":0.25,"durationTicks":480,"midi":59,"name":"B3","ticks":148800,"time":77.5,"velocity":1},{"duration":0.25,"durationTicks":480,"midi":40,"name":"E2","ticks":148800,"time":77.5,"velocity":1},{"duration":0.25,"durationTicks":480,"midi":59,"name":"B3","ticks":149760,"time":78,"velocity":1},{"duration":0.25,"durationTicks":480,"midi":36,"name":"C2","ticks":149760,"time":78,"velocity":1},{"duration":0.25,"durationTicks":480,"midi":59,"name":"B3","ticks":150720,"time":78.5,"velocity":1},{"duration":0.25,"durationTicks":480,"midi":40,"name":"E2","ticks":150720,"time":78.5,"velocity":1},{"duration":0.25,"durationTicks":480,"midi":36,"name":"C2","ticks":151200,"time":78.75,"velocity":1},{"duration":0.25,"durationTicks":480,"midi":59,"name":"B3","ticks":151680,"time":79,"velocity":1},{"duration":0.25,"durationTicks":480,"midi":36,"name":"C2","ticks":151680,"time":79,"velocity":1},{"duration":0.25,"durationTicks":480,"midi":59,"name":"B3","ticks":152640,"time":79.5,"velocity":1},{"duration":0.25,"durationTicks":480,"midi":40,"name":"E2","ticks":152640,"time":79.5,"velocity":1},{"duration":0.25,"durationTicks":480,"midi":59,"name":"B3","ticks":153600,"time":80,"velocity":1},{"duration":0.25,"durationTicks":480,"midi":36,"name":"C2","ticks":153600,"time":80,"velocity":1},{"duration":0.25,"durationTicks":480,"midi":59,"name":"B3","ticks":154560,"time":80.5,"velocity":1},{"duration":0.25,"durationTicks":480,"midi":40,"name":"E2","ticks":154560,"time":80.5,"velocity":1},{"duration":0.25,"durationTicks":480,"midi":36,"name":"C2","ticks":155040,"time":80.75,"velocity":1},{"duration":0.25,"durationTicks":480,"midi":59,"name":"B3","ticks":155520,"time":81,"velocity":1},{"duration":0.25,"durationTicks":480,"midi":36,"name":"C2","ticks":155520,"time":81,"velocity":1},{"duration":0.25,"durationTicks":480,"midi":59,"name":"B3","ticks":156480,"time":81.5,"velocity":1},{"duration":0.25,"durationTicks":480,"midi":40,"name":"E2","ticks":156480,"time":81.5,"velocity":1},{"duration":0.25,"durationTicks":480,"midi":59,"name":"B3","ticks":157440,"time":82,"velocity":1},{"duration":0.25,"durationTicks":480,"midi":36,"name":"C2","ticks":157440,"time":82,"velocity":1},{"duration":0.25,"durationTicks":480,"midi":59,"name":"B3","ticks":158400,"time":82.5,"velocity":1},{"duration":0.25,"durationTicks":480,"midi":40,"name":"E2","ticks":158400,"time":82.5,"velocity":1},{"duration":0.25,"durationTicks":480,"midi":36,"name":"C2","ticks":158880,"time":82.75,"velocity":1},{"duration":0.25,"durationTicks":480,"midi":59,"name":"B3","ticks":159360,"time":83,"velocity":1},{"duration":0.25,"durationTicks":480,"midi":36,"name":"C2","ticks":159360,"time":83,"velocity":1},{"duration":0.25,"durationTicks":480,"midi":59,"name":"B3","ticks":160320,"time":83.5,"velocity":1},{"duration":0.25,"durationTicks":480,"midi":40,"name":"E2","ticks":160320,"time":83.5,"velocity":1},{"duration":0.25,"durationTicks":480,"midi":36,"name":"C2","ticks":161280,"time":84,"velocity":1},{"duration":0.25,"durationTicks":480,"midi":57,"name":"A3","ticks":161280,"time":84,"velocity":1},{"duration":0.25,"durationTicks":480,"midi":36,"name":"C2","ticks":161760,"time":84.25,"velocity":1},{"duration":0.25,"durationTicks":480,"midi":40,"name":"E2","ticks":162240,"time":84.5,"velocity":1},{"duration":0.25,"durationTicks":480,"midi":59,"name":"B3","ticks":162240,"time":84.5,"velocity":1},{"duration":0.25,"durationTicks":480,"midi":36,"name":"C2","ticks":162720,"time":84.75,"velocity":1},{"duration":0.25,"durationTicks":480,"midi":36,"name":"C2","ticks":163200,"time":85,"velocity":1},{"duration":0.25,"durationTicks":480,"midi":59,"name":"B3","ticks":163200,"time":85,"velocity":1},{"duration":0.25,"durationTicks":480,"midi":36,"name":"C2","ticks":163680,"time":85.25,"velocity":1},{"duration":0.25,"durationTicks":480,"midi":40,"name":"E2","ticks":164160,"time":85.5,"velocity":1},{"duration":0.25,"durationTicks":480,"midi":59,"name":"B3","ticks":164160,"time":85.5,"velocity":1},{"duration":0.25,"durationTicks":480,"midi":36,"name":"C2","ticks":164640,"time":85.75,"velocity":1},{"duration":0.25,"durationTicks":480,"midi":36,"name":"C2","ticks":165120,"time":86,"velocity":1},{"duration":0.25,"durationTicks":480,"midi":59,"name":"B3","ticks":165120,"time":86,"velocity":1},{"duration":0.25,"durationTicks":480,"midi":36,"name":"C2","ticks":165600,"time":86.25,"velocity":1},{"duration":0.25,"durationTicks":480,"midi":40,"name":"E2","ticks":166080,"time":86.5,"velocity":1},{"duration":0.25,"durationTicks":480,"midi":59,"name":"B3","ticks":166080,"time":86.5,"velocity":1},{"duration":0.25,"durationTicks":480,"midi":36,"name":"C2","ticks":166560,"time":86.75,"velocity":1},{"duration":0.25,"durationTicks":480,"midi":36,"name":"C2","ticks":167040,"time":87,"velocity":1},{"duration":0.25,"durationTicks":480,"midi":59,"name":"B3","ticks":167040,"time":87,"velocity":1},{"duration":0.25,"durationTicks":480,"midi":36,"name":"C2","ticks":167520,"time":87.25,"velocity":1},{"duration":0.25,"durationTicks":480,"midi":40,"name":"E2","ticks":168000,"time":87.5,"velocity":1},{"duration":0.25,"durationTicks":480,"midi":59,"name":"B3","ticks":168000,"time":87.5,"velocity":1},{"duration":0.25,"durationTicks":480,"midi":36,"name":"C2","ticks":168480,"time":87.75,"velocity":1},{"duration":0.25,"durationTicks":480,"midi":36,"name":"C2","ticks":168960,"time":88,"velocity":1},{"duration":0.25,"durationTicks":480,"midi":59,"name":"B3","ticks":168960,"time":88,"velocity":1},{"duration":0.25,"durationTicks":480,"midi":36,"name":"C2","ticks":169440,"time":88.25,"velocity":1},{"duration":0.25,"durationTicks":480,"midi":40,"name":"E2","ticks":169920,"time":88.5,"velocity":1},{"duration":0.25,"durationTicks":480,"midi":59,"name":"B3","ticks":169920,"time":88.5,"velocity":1},{"duration":0.25,"durationTicks":480,"midi":36,"name":"C2","ticks":170400,"time":88.75,"velocity":1},{"duration":0.25,"durationTicks":480,"midi":36,"name":"C2","ticks":170880,"time":89,"velocity":1},{"duration":0.25,"durationTicks":480,"midi":59,"name":"B3","ticks":170880,"time":89,"velocity":1},{"duration":0.25,"durationTicks":480,"midi":36,"name":"C2","ticks":171360,"time":89.25,"velocity":1},{"duration":0.25,"durationTicks":480,"midi":40,"name":"E2","ticks":171840,"time":89.5,"velocity":1},{"duration":0.25,"durationTicks":480,"midi":59,"name":"B3","ticks":171840,"time":89.5,"velocity":1},{"duration":0.25,"durationTicks":480,"midi":36,"name":"C2","ticks":172320,"time":89.75,"velocity":1},{"duration":0.25,"durationTicks":480,"midi":36,"name":"C2","ticks":172800,"time":90,"velocity":1},{"duration":0.25,"durationTicks":480,"midi":59,"name":"B3","ticks":172800,"time":90,"velocity":1},{"duration":0.25,"durationTicks":480,"midi":36,"name":"C2","ticks":173280,"time":90.25,"velocity":1},{"duration":0.25,"durationTicks":480,"midi":40,"name":"E2","ticks":173760,"time":90.5,"velocity":1},{"duration":0.25,"durationTicks":480,"midi":59,"name":"B3","ticks":173760,"time":90.5,"velocity":1},{"duration":0.25,"durationTicks":480,"midi":36,"name":"C2","ticks":174240,"time":90.75,"velocity":1},{"duration":0.25,"durationTicks":480,"midi":36,"name":"C2","ticks":174720,"time":91,"velocity":1},{"duration":0.25,"durationTicks":480,"midi":59,"name":"B3","ticks":174720,"time":91,"velocity":1},{"duration":0.25,"durationTicks":480,"midi":36,"name":"C2","ticks":175200,"time":91.25,"velocity":1},{"duration":0.25,"durationTicks":480,"midi":38,"name":"D2","ticks":175680,"time":91.5,"velocity":1},{"duration":0.25,"durationTicks":480,"midi":59,"name":"B3","ticks":175680,"time":91.5,"velocity":1},{"duration":0.25,"durationTicks":480,"midi":40,"name":"E2","ticks":175740,"time":91.53125,"velocity":1},{"duration":0.125,"durationTicks":240,"midi":36,"name":"C2","ticks":176160,"time":91.75,"velocity":1},{"duration":0.125,"durationTicks":240,"midi":40,"name":"E2","ticks":176400,"time":91.875,"velocity":1},{"duration":0.25,"durationTicks":480,"midi":36,"name":"C2","ticks":176640,"time":92,"velocity":1},{"duration":0.25,"durationTicks":480,"midi":57,"name":"A3","ticks":176640,"time":92,"velocity":1},{"duration":0.25,"durationTicks":480,"midi":36,"name":"C2","ticks":177120,"time":92.25,"velocity":1},{"duration":0.25,"durationTicks":480,"midi":59,"name":"B3","ticks":177600,"time":92.5,"velocity":1},{"duration":0.25,"durationTicks":480,"midi":40,"name":"E2","ticks":177600,"time":92.5,"velocity":1},{"duration":0.25,"durationTicks":480,"midi":36,"name":"C2","ticks":178080,"time":92.75,"velocity":1},{"duration":0.25,"durationTicks":480,"midi":59,"name":"B3","ticks":178560,"time":93,"velocity":1},{"duration":0.25,"durationTicks":480,"midi":36,"name":"C2","ticks":178560,"time":93,"velocity":1},{"duration":0.25,"durationTicks":480,"midi":36,"name":"C2","ticks":179040,"time":93.25,"velocity":1},{"duration":0.25,"durationTicks":480,"midi":59,"name":"B3","ticks":179520,"time":93.5,"velocity":1},{"duration":0.25,"durationTicks":480,"midi":40,"name":"E2","ticks":179520,"time":93.5,"velocity":1},{"duration":0.25,"durationTicks":480,"midi":36,"name":"C2","ticks":180000,"time":93.75,"velocity":1},{"duration":0.25,"durationTicks":480,"midi":59,"name":"B3","ticks":180480,"time":94,"velocity":1},{"duration":0.25,"durationTicks":480,"midi":36,"name":"C2","ticks":180480,"time":94,"velocity":1},{"duration":0.25,"durationTicks":480,"midi":36,"name":"C2","ticks":180960,"time":94.25,"velocity":1},{"duration":0.25,"durationTicks":480,"midi":59,"name":"B3","ticks":181440,"time":94.5,"velocity":1},{"duration":0.25,"durationTicks":480,"midi":40,"name":"E2","ticks":181440,"time":94.5,"velocity":1},{"duration":0.25,"durationTicks":480,"midi":36,"name":"C2","ticks":181920,"time":94.75,"velocity":1},{"duration":0.25,"durationTicks":480,"midi":59,"name":"B3","ticks":182400,"time":95,"velocity":1},{"duration":0.25,"durationTicks":480,"midi":36,"name":"C2","ticks":182400,"time":95,"velocity":1},{"duration":0.25,"durationTicks":480,"midi":36,"name":"C2","ticks":182880,"time":95.25,"velocity":1},{"duration":0.25,"durationTicks":480,"midi":59,"name":"B3","ticks":183360,"time":95.5,"velocity":1},{"duration":0.25,"durationTicks":480,"midi":40,"name":"E2","ticks":183360,"time":95.5,"velocity":1},{"duration":0.25,"durationTicks":480,"midi":36,"name":"C2","ticks":183840,"time":95.75,"velocity":1},{"duration":0.25,"durationTicks":480,"midi":59,"name":"B3","ticks":184320,"time":96,"velocity":1},{"duration":0.25,"durationTicks":480,"midi":36,"name":"C2","ticks":184320,"time":96,"velocity":1},{"duration":0.25,"durationTicks":480,"midi":36,"name":"C2","ticks":184800,"time":96.25,"velocity":1},{"duration":0.25,"durationTicks":480,"midi":59,"name":"B3","ticks":185280,"time":96.5,"velocity":1},{"duration":0.25,"durationTicks":480,"midi":40,"name":"E2","ticks":185280,"time":96.5,"velocity":1},{"duration":0.25,"durationTicks":480,"midi":36,"name":"C2","ticks":185760,"time":96.75,"velocity":1},{"duration":0.125,"durationTicks":240,"midi":40,"name":"E2","ticks":186240,"time":97,"velocity":1},{"duration":0.25,"durationTicks":480,"midi":59,"name":"B3","ticks":186240,"time":97,"velocity":1},{"duration":0.125,"durationTicks":240,"midi":40,"name":"E2","ticks":186480,"time":97.125,"velocity":1},{"duration":0.25,"durationTicks":480,"midi":36,"name":"C2","ticks":186720,"time":97.25,"velocity":1},{"duration":0.25,"durationTicks":480,"midi":59,"name":"B3","ticks":187200,"time":97.5,"velocity":1},{"duration":0.25,"durationTicks":480,"midi":40,"name":"E2","ticks":187200,"time":97.5,"velocity":1},{"duration":0.125,"durationTicks":240,"midi":40,"name":"E2","ticks":187680,"time":97.75,"velocity":1},{"duration":0.125,"durationTicks":240,"midi":36,"name":"C2","ticks":187680,"time":97.75,"velocity":1},{"duration":0.125,"durationTicks":240,"midi":40,"name":"E2","ticks":187920,"time":97.875,"velocity":1},{"duration":0.25,"durationTicks":480,"midi":36,"name":"C2","ticks":188160,"time":98,"velocity":1},{"duration":0.25,"durationTicks":480,"midi":57,"name":"A3","ticks":188160,"time":98,"velocity":1},{"duration":0.25,"durationTicks":480,"midi":40,"name":"E2","ticks":189120,"time":98.5,"velocity":1},{"duration":0.25,"durationTicks":480,"midi":59,"name":"B3","ticks":189120,"time":98.5,"velocity":1},{"duration":0.25,"durationTicks":480,"midi":36,"name":"C2","ticks":189600,"time":98.75,"velocity":1},{"duration":0.25,"durationTicks":480,"midi":36,"name":"C2","ticks":190080,"time":99,"velocity":1},{"duration":0.25,"durationTicks":480,"midi":59,"name":"B3","ticks":190080,"time":99,"velocity":1},{"duration":0.25,"durationTicks":480,"midi":40,"name":"E2","ticks":191040,"time":99.5,"velocity":1},{"duration":0.25,"durationTicks":480,"midi":59,"name":"B3","ticks":191040,"time":99.5,"velocity":1},{"duration":0.25,"durationTicks":480,"midi":59,"name":"B3","ticks":192000,"time":100,"velocity":1},{"duration":0.25,"durationTicks":480,"midi":36,"name":"C2","ticks":192000,"time":100,"velocity":1},{"duration":0.25,"durationTicks":480,"midi":59,"name":"B3","ticks":192960,"time":100.5,"velocity":1},{"duration":0.25,"durationTicks":480,"midi":40,"name":"E2","ticks":192960,"time":100.5,"velocity":1},{"duration":0.25,"durationTicks":480,"midi":36,"name":"C2","ticks":193440,"time":100.75,"velocity":1},{"duration":0.25,"durationTicks":480,"midi":59,"name":"B3","ticks":193920,"time":101,"velocity":1},{"duration":0.25,"durationTicks":480,"midi":36,"name":"C2","ticks":193920,"time":101,"velocity":1},{"duration":0.25,"durationTicks":480,"midi":59,"name":"B3","ticks":194880,"time":101.5,"velocity":1},{"duration":0.25,"durationTicks":480,"midi":40,"name":"E2","ticks":194880,"time":101.5,"velocity":1},{"duration":0.25,"durationTicks":480,"midi":59,"name":"B3","ticks":195840,"time":102,"velocity":1},{"duration":0.25,"durationTicks":480,"midi":36,"name":"C2","ticks":195840,"time":102,"velocity":1},{"duration":0.25,"durationTicks":480,"midi":59,"name":"B3","ticks":196800,"time":102.5,"velocity":1},{"duration":0.25,"durationTicks":480,"midi":40,"name":"E2","ticks":196800,"time":102.5,"velocity":1},{"duration":0.25,"durationTicks":480,"midi":36,"name":"C2","ticks":197280,"time":102.75,"velocity":1},{"duration":0.25,"durationTicks":480,"midi":59,"name":"B3","ticks":197760,"time":103,"velocity":1},{"duration":0.25,"durationTicks":480,"midi":36,"name":"C2","ticks":197760,"time":103,"velocity":1},{"duration":0.25,"durationTicks":480,"midi":59,"name":"B3","ticks":198720,"time":103.5,"velocity":1},{"duration":0.25,"durationTicks":480,"midi":40,"name":"E2","ticks":198720,"time":103.5,"velocity":1},{"duration":0.25,"durationTicks":480,"midi":59,"name":"B3","ticks":199680,"time":104,"velocity":1},{"duration":0.25,"durationTicks":480,"midi":36,"name":"C2","ticks":199680,"time":104,"velocity":1},{"duration":0.25,"durationTicks":480,"midi":59,"name":"B3","ticks":200640,"time":104.5,"velocity":1},{"duration":0.25,"durationTicks":480,"midi":40,"name":"E2","ticks":200640,"time":104.5,"velocity":1},{"duration":0.25,"durationTicks":480,"midi":36,"name":"C2","ticks":201120,"time":104.75,"velocity":1},{"duration":0.25,"durationTicks":480,"midi":59,"name":"B3","ticks":201600,"time":105,"velocity":1},{"duration":0.25,"durationTicks":480,"midi":36,"name":"C2","ticks":201600,"time":105,"velocity":1},{"duration":0.25,"durationTicks":480,"midi":59,"name":"B3","ticks":202560,"time":105.5,"velocity":1},{"duration":0.25,"durationTicks":480,"midi":40,"name":"E2","ticks":202560,"time":105.5,"velocity":1},{"duration":0.25,"durationTicks":480,"midi":36,"name":"C2","ticks":232800,"time":121.25,"velocity":1},{"duration":0.125,"durationTicks":240,"midi":38,"name":"D2","ticks":233280,"time":121.5,"velocity":1},{"duration":0.125,"durationTicks":240,"midi":40,"name":"E2","ticks":233310,"time":121.515625,"velocity":1},{"duration":0.125,"durationTicks":240,"midi":38,"name":"D2","ticks":234000,"time":121.875,"velocity":1},{"duration":0.125,"durationTicks":240,"midi":40,"name":"E2","ticks":234000,"time":121.875,"velocity":1},{"duration":0.25,"durationTicks":480,"midi":57,"name":"A3","ticks":234240,"time":122,"velocity":1},{"duration":0.25,"durationTicks":480,"midi":36,"name":"C2","ticks":234240,"time":122,"velocity":1},{"duration":0.25,"durationTicks":480,"midi":59,"name":"B3","ticks":235200,"time":122.5,"velocity":1},{"duration":0.25,"durationTicks":480,"midi":40,"name":"E2","ticks":235200,"time":122.5,"velocity":1},{"duration":0.25,"durationTicks":480,"midi":36,"name":"C2","ticks":235680,"time":122.75,"velocity":1},{"duration":0.25,"durationTicks":480,"midi":59,"name":"B3","ticks":236160,"time":123,"velocity":1},{"duration":0.25,"durationTicks":480,"midi":36,"name":"C2","ticks":236160,"time":123,"velocity":1},{"duration":0.25,"durationTicks":480,"midi":59,"name":"B3","ticks":237120,"time":123.5,"velocity":1},{"duration":0.25,"durationTicks":480,"midi":40,"name":"E2","ticks":237120,"time":123.5,"velocity":1},{"duration":0.25,"durationTicks":480,"midi":59,"name":"B3","ticks":238080,"time":124,"velocity":1},{"duration":0.25,"durationTicks":480,"midi":36,"name":"C2","ticks":238080,"time":124,"velocity":1},{"duration":0.25,"durationTicks":480,"midi":59,"name":"B3","ticks":239040,"time":124.5,"velocity":1},{"duration":0.25,"durationTicks":480,"midi":40,"name":"E2","ticks":239040,"time":124.5,"velocity":1},{"duration":0.25,"durationTicks":480,"midi":36,"name":"C2","ticks":239520,"time":124.75,"velocity":1},{"duration":0.25,"durationTicks":480,"midi":59,"name":"B3","ticks":240000,"time":125,"velocity":1},{"duration":0.25,"durationTicks":480,"midi":36,"name":"C2","ticks":240000,"time":125,"velocity":1},{"duration":0.25,"durationTicks":480,"midi":59,"name":"B3","ticks":240960,"time":125.5,"velocity":1},{"duration":0.25,"durationTicks":480,"midi":40,"name":"E2","ticks":240960,"time":125.5,"velocity":1},{"duration":0.25,"durationTicks":480,"midi":59,"name":"B3","ticks":241920,"time":126,"velocity":1},{"duration":0.25,"durationTicks":480,"midi":36,"name":"C2","ticks":241920,"time":126,"velocity":1},{"duration":0.25,"durationTicks":480,"midi":59,"name":"B3","ticks":242880,"time":126.5,"velocity":1},{"duration":0.25,"durationTicks":480,"midi":40,"name":"E2","ticks":242880,"time":126.5,"velocity":1},{"duration":0.25,"durationTicks":480,"midi":36,"name":"C2","ticks":243360,"time":126.75,"velocity":1},{"duration":0.25,"durationTicks":480,"midi":59,"name":"B3","ticks":243840,"time":127,"velocity":1},{"duration":0.25,"durationTicks":480,"midi":36,"name":"C2","ticks":243840,"time":127,"velocity":1},{"duration":0.25,"durationTicks":480,"midi":59,"name":"B3","ticks":244800,"time":127.5,"velocity":1},{"duration":0.25,"durationTicks":480,"midi":40,"name":"E2","ticks":244800,"time":127.5,"velocity":1},{"duration":0.25,"durationTicks":480,"midi":59,"name":"B3","ticks":245760,"time":128,"velocity":1},{"duration":0.25,"durationTicks":480,"midi":36,"name":"C2","ticks":245760,"time":128,"velocity":1},{"duration":0.25,"durationTicks":480,"midi":59,"name":"B3","ticks":246720,"time":128.5,"velocity":1},{"duration":0.25,"durationTicks":480,"midi":40,"name":"E2","ticks":246720,"time":128.5,"velocity":1},{"duration":0.25,"durationTicks":480,"midi":36,"name":"C2","ticks":247200,"time":128.75,"velocity":1},{"duration":0.25,"durationTicks":480,"midi":59,"name":"B3","ticks":247680,"time":129,"velocity":1},{"duration":0.25,"durationTicks":480,"midi":36,"name":"C2","ticks":247680,"time":129,"velocity":1},{"duration":0.25,"durationTicks":480,"midi":59,"name":"B3","ticks":248640,"time":129.5,"velocity":1},{"duration":0.25,"durationTicks":480,"midi":40,"name":"E2","ticks":248640,"time":129.5,"velocity":1},{"duration":0.25,"durationTicks":480,"midi":59,"name":"B3","ticks":249600,"time":130,"velocity":1},{"duration":0.25,"durationTicks":480,"midi":36,"name":"C2","ticks":249600,"time":130,"velocity":1},{"duration":0.25,"durationTicks":480,"midi":59,"name":"B3","ticks":250560,"time":130.5,"velocity":1},{"duration":0.25,"durationTicks":480,"midi":40,"name":"E2","ticks":250560,"time":130.5,"velocity":1},{"duration":0.25,"durationTicks":480,"midi":36,"name":"C2","ticks":251040,"time":130.75,"velocity":1},{"duration":0.25,"durationTicks":480,"midi":59,"name":"B3","ticks":251520,"time":131,"velocity":1},{"duration":0.25,"durationTicks":480,"midi":36,"name":"C2","ticks":251520,"time":131,"velocity":1},{"duration":0.25,"durationTicks":480,"midi":59,"name":"B3","ticks":252480,"time":131.5,"velocity":1},{"duration":0.25,"durationTicks":480,"midi":40,"name":"E2","ticks":252480,"time":131.5,"velocity":1},{"duration":0.25,"durationTicks":480,"midi":59,"name":"B3","ticks":253440,"time":132,"velocity":1},{"duration":0.25,"durationTicks":480,"midi":36,"name":"C2","ticks":253440,"time":132,"velocity":1},{"duration":0.25,"durationTicks":480,"midi":59,"name":"B3","ticks":254400,"time":132.5,"velocity":1},{"duration":0.25,"durationTicks":480,"midi":40,"name":"E2","ticks":254400,"time":132.5,"velocity":1},{"duration":0.25,"durationTicks":480,"midi":36,"name":"C2","ticks":254880,"time":132.75,"velocity":1},{"duration":0.25,"durationTicks":480,"midi":59,"name":"B3","ticks":255360,"time":133,"velocity":1},{"duration":0.25,"durationTicks":480,"midi":36,"name":"C2","ticks":255360,"time":133,"velocity":1},{"duration":0.25,"durationTicks":480,"midi":59,"name":"B3","ticks":256320,"time":133.5,"velocity":1},{"duration":0.25,"durationTicks":480,"midi":40,"name":"E2","ticks":256320,"time":133.5,"velocity":1},{"duration":0.25,"durationTicks":480,"midi":59,"name":"B3","ticks":257280,"time":134,"velocity":1},{"duration":0.25,"durationTicks":480,"midi":36,"name":"C2","ticks":257280,"time":134,"velocity":1},{"duration":0.25,"durationTicks":480,"midi":59,"name":"B3","ticks":258240,"time":134.5,"velocity":1},{"duration":0.25,"durationTicks":480,"midi":40,"name":"E2","ticks":258240,"time":134.5,"velocity":1},{"duration":0.25,"durationTicks":480,"midi":36,"name":"C2","ticks":258720,"time":134.75,"velocity":1},{"duration":0.25,"durationTicks":480,"midi":59,"name":"B3","ticks":259200,"time":135,"velocity":1},{"duration":0.25,"durationTicks":480,"midi":36,"name":"C2","ticks":259200,"time":135,"velocity":1},{"duration":0.25,"durationTicks":480,"midi":59,"name":"B3","ticks":260160,"time":135.5,"velocity":1},{"duration":0.25,"durationTicks":480,"midi":40,"name":"E2","ticks":260160,"time":135.5,"velocity":1},{"duration":0.25,"durationTicks":480,"midi":36,"name":"C2","ticks":261120,"time":136,"velocity":1},{"duration":0.25,"durationTicks":480,"midi":57,"name":"A3","ticks":261120,"time":136,"velocity":1},{"duration":0.25,"durationTicks":480,"midi":36,"name":"C2","ticks":261600,"time":136.25,"velocity":1},{"duration":0.25,"durationTicks":480,"midi":40,"name":"E2","ticks":262080,"time":136.5,"velocity":1},{"duration":0.25,"durationTicks":480,"midi":59,"name":"B3","ticks":262080,"time":136.5,"velocity":1},{"duration":0.25,"durationTicks":480,"midi":36,"name":"C2","ticks":262560,"time":136.75,"velocity":1},{"duration":0.25,"durationTicks":480,"midi":59,"name":"B3","ticks":263040,"time":137,"velocity":1},{"duration":0.25,"durationTicks":480,"midi":36,"name":"C2","ticks":263040,"time":137,"velocity":1},{"duration":0.25,"durationTicks":480,"midi":36,"name":"C2","ticks":263520,"time":137.25,"velocity":1},{"duration":0.25,"durationTicks":480,"midi":40,"name":"E2","ticks":264000,"time":137.5,"velocity":1},{"duration":0.25,"durationTicks":480,"midi":59,"name":"B3","ticks":264000,"time":137.5,"velocity":1},{"duration":0.25,"durationTicks":480,"midi":36,"name":"C2","ticks":264480,"time":137.75,"velocity":1},{"duration":0.25,"durationTicks":480,"midi":36,"name":"C2","ticks":264960,"time":138,"velocity":1},{"duration":0.25,"durationTicks":480,"midi":59,"name":"B3","ticks":264960,"time":138,"velocity":1},{"duration":0.25,"durationTicks":480,"midi":36,"name":"C2","ticks":265440,"time":138.25,"velocity":1},{"duration":0.25,"durationTicks":480,"midi":40,"name":"E2","ticks":265920,"time":138.5,"velocity":1},{"duration":0.25,"durationTicks":480,"midi":59,"name":"B3","ticks":265920,"time":138.5,"velocity":1},{"duration":0.25,"durationTicks":480,"midi":36,"name":"C2","ticks":266400,"time":138.75,"velocity":1},{"duration":0.25,"durationTicks":480,"midi":36,"name":"C2","ticks":266880,"time":139,"velocity":1},{"duration":0.25,"durationTicks":480,"midi":59,"name":"B3","ticks":266880,"time":139,"velocity":1},{"duration":0.25,"durationTicks":480,"midi":36,"name":"C2","ticks":267360,"time":139.25,"velocity":1},{"duration":0.25,"durationTicks":480,"midi":40,"name":"E2","ticks":267840,"time":139.5,"velocity":1},{"duration":0.25,"durationTicks":480,"midi":59,"name":"B3","ticks":267840,"time":139.5,"velocity":1},{"duration":0.25,"durationTicks":480,"midi":36,"name":"C2","ticks":268320,"time":139.75,"velocity":1},{"duration":0.25,"durationTicks":480,"midi":36,"name":"C2","ticks":268800,"time":140,"velocity":1},{"duration":0.25,"durationTicks":480,"midi":59,"name":"B3","ticks":268800,"time":140,"velocity":1},{"duration":0.25,"durationTicks":480,"midi":36,"name":"C2","ticks":269280,"time":140.25,"velocity":1},{"duration":0.25,"durationTicks":480,"midi":40,"name":"E2","ticks":269760,"time":140.5,"velocity":1},{"duration":0.25,"durationTicks":480,"midi":59,"name":"B3","ticks":269760,"time":140.5,"velocity":1},{"duration":0.25,"durationTicks":480,"midi":36,"name":"C2","ticks":270240,"time":140.75,"velocity":1},{"duration":0.25,"durationTicks":480,"midi":36,"name":"C2","ticks":270720,"time":141,"velocity":1},{"duration":0.25,"durationTicks":480,"midi":59,"name":"B3","ticks":270720,"time":141,"velocity":1},{"duration":0.25,"durationTicks":480,"midi":36,"name":"C2","ticks":271200,"time":141.25,"velocity":1},{"duration":0.25,"durationTicks":480,"midi":40,"name":"E2","ticks":271680,"time":141.5,"velocity":1},{"duration":0.25,"durationTicks":480,"midi":59,"name":"B3","ticks":271680,"time":141.5,"velocity":1},{"duration":0.25,"durationTicks":480,"midi":36,"name":"C2","ticks":272160,"time":141.75,"velocity":1},{"duration":0.25,"durationTicks":480,"midi":36,"name":"C2","ticks":272640,"time":142,"velocity":1},{"duration":0.25,"durationTicks":480,"midi":59,"name":"B3","ticks":272640,"time":142,"velocity":1},{"duration":0.25,"durationTicks":480,"midi":36,"name":"C2","ticks":273120,"time":142.25,"velocity":1},{"duration":0.25,"durationTicks":480,"midi":40,"name":"E2","ticks":273600,"time":142.5,"velocity":1},{"duration":0.25,"durationTicks":480,"midi":59,"name":"B3","ticks":273600,"time":142.5,"velocity":1},{"duration":0.25,"durationTicks":480,"midi":36,"name":"C2","ticks":274080,"time":142.75,"velocity":1},{"duration":0.25,"durationTicks":480,"midi":36,"name":"C2","ticks":274560,"time":143,"velocity":1},{"duration":0.25,"durationTicks":480,"midi":59,"name":"B3","ticks":274560,"time":143,"velocity":1},{"duration":0.25,"durationTicks":480,"midi":36,"name":"C2","ticks":275040,"time":143.25,"velocity":1},{"duration":0.125,"durationTicks":240,"midi":38,"name":"D2","ticks":275520,"time":143.5,"velocity":1},{"duration":0.25,"durationTicks":480,"midi":59,"name":"B3","ticks":275520,"time":143.5,"velocity":1},{"duration":0.125,"durationTicks":240,"midi":40,"name":"E2","ticks":275550,"time":143.515625,"velocity":1},{"duration":0.125,"durationTicks":240,"midi":36,"name":"C2","ticks":276000,"time":143.75,"velocity":1},{"duration":0.125,"durationTicks":240,"midi":40,"name":"E2","ticks":276240,"time":143.875,"velocity":1},{"duration":0.25,"durationTicks":480,"midi":36,"name":"C2","ticks":276480,"time":144,"velocity":1},{"duration":0.25,"durationTicks":480,"midi":57,"name":"A3","ticks":276480,"time":144,"velocity":1},{"duration":0.25,"durationTicks":480,"midi":36,"name":"C2","ticks":276960,"time":144.25,"velocity":1},{"duration":0.25,"durationTicks":480,"midi":59,"name":"B3","ticks":277440,"time":144.5,"velocity":1},{"duration":0.25,"durationTicks":480,"midi":40,"name":"E2","ticks":277440,"time":144.5,"velocity":1},{"duration":0.25,"durationTicks":480,"midi":36,"name":"C2","ticks":277920,"time":144.75,"velocity":1},{"duration":0.25,"durationTicks":480,"midi":59,"name":"B3","ticks":278400,"time":145,"velocity":1},{"duration":0.25,"durationTicks":480,"midi":36,"name":"C2","ticks":278400,"time":145,"velocity":1},{"duration":0.25,"durationTicks":480,"midi":36,"name":"C2","ticks":278880,"time":145.25,"velocity":1},{"duration":0.25,"durationTicks":480,"midi":59,"name":"B3","ticks":279360,"time":145.5,"velocity":1},{"duration":0.25,"durationTicks":480,"midi":40,"name":"E2","ticks":279360,"time":145.5,"velocity":1},{"duration":0.25,"durationTicks":480,"midi":36,"name":"C2","ticks":279840,"time":145.75,"velocity":1},{"duration":0.25,"durationTicks":480,"midi":59,"name":"B3","ticks":280320,"time":146,"velocity":1},{"duration":0.25,"durationTicks":480,"midi":36,"name":"C2","ticks":280320,"time":146,"velocity":1},{"duration":0.25,"durationTicks":480,"midi":36,"name":"C2","ticks":280800,"time":146.25,"velocity":1},{"duration":0.25,"durationTicks":480,"midi":59,"name":"B3","ticks":281280,"time":146.5,"velocity":1},{"duration":0.25,"durationTicks":480,"midi":40,"name":"E2","ticks":281280,"time":146.5,"velocity":1},{"duration":0.25,"durationTicks":480,"midi":36,"name":"C2","ticks":281760,"time":146.75,"velocity":1},{"duration":0.25,"durationTicks":480,"midi":59,"name":"B3","ticks":282240,"time":147,"velocity":1},{"duration":0.25,"durationTicks":480,"midi":36,"name":"C2","ticks":282240,"time":147,"velocity":1},{"duration":0.25,"durationTicks":480,"midi":36,"name":"C2","ticks":282720,"time":147.25,"velocity":1},{"duration":0.25,"durationTicks":480,"midi":59,"name":"B3","ticks":283200,"time":147.5,"velocity":1},{"duration":0.25,"durationTicks":480,"midi":40,"name":"E2","ticks":283200,"time":147.5,"velocity":1},{"duration":0.25,"durationTicks":480,"midi":36,"name":"C2","ticks":283680,"time":147.75,"velocity":1},{"duration":0.25,"durationTicks":480,"midi":59,"name":"B3","ticks":284160,"time":148,"velocity":1},{"duration":0.25,"durationTicks":480,"midi":36,"name":"C2","ticks":284160,"time":148,"velocity":1},{"duration":0.25,"durationTicks":480,"midi":36,"name":"C2","ticks":284640,"time":148.25,"velocity":1},{"duration":0.25,"durationTicks":480,"midi":59,"name":"B3","ticks":285120,"time":148.5,"velocity":1},{"duration":0.25,"durationTicks":480,"midi":40,"name":"E2","ticks":285120,"time":148.5,"velocity":1},{"duration":0.25,"durationTicks":480,"midi":36,"name":"C2","ticks":285600,"time":148.75,"velocity":1},{"duration":0.125,"durationTicks":240,"midi":40,"name":"E2","ticks":286080,"time":149,"velocity":1},{"duration":0.25,"durationTicks":480,"midi":59,"name":"B3","ticks":286080,"time":149,"velocity":1},{"duration":0.125,"durationTicks":240,"midi":40,"name":"E2","ticks":286320,"time":149.125,"velocity":1},{"duration":0.25,"durationTicks":480,"midi":36,"name":"C2","ticks":286560,"time":149.25,"velocity":1},{"duration":0.25,"durationTicks":480,"midi":59,"name":"B3","ticks":287040,"time":149.5,"velocity":1},{"duration":0.25,"durationTicks":480,"midi":40,"name":"E2","ticks":287040,"time":149.5,"velocity":1},{"duration":0.125,"durationTicks":240,"midi":36,"name":"C2","ticks":287520,"time":149.75,"velocity":1},{"duration":0.125,"durationTicks":240,"midi":40,"name":"E2","ticks":287760,"time":149.875,"velocity":1},{"duration":0.25,"durationTicks":480,"midi":36,"name":"C2","ticks":288000,"time":150,"velocity":1},{"duration":0.25,"durationTicks":480,"midi":57,"name":"A3","ticks":288000,"time":150,"velocity":1},{"duration":0.25,"durationTicks":480,"midi":40,"name":"E2","ticks":288960,"time":150.5,"velocity":1},{"duration":0.25,"durationTicks":480,"midi":59,"name":"B3","ticks":288960,"time":150.5,"velocity":1},{"duration":0.25,"durationTicks":480,"midi":36,"name":"C2","ticks":289440,"time":150.75,"velocity":1},{"duration":0.25,"durationTicks":480,"midi":36,"name":"C2","ticks":289920,"time":151,"velocity":1},{"duration":0.25,"durationTicks":480,"midi":59,"name":"B3","ticks":289920,"time":151,"velocity":1},{"duration":0.25,"durationTicks":480,"midi":40,"name":"E2","ticks":290880,"time":151.5,"velocity":1},{"duration":0.25,"durationTicks":480,"midi":59,"name":"B3","ticks":290880,"time":151.5,"velocity":1},{"duration":0.25,"durationTicks":480,"midi":59,"name":"B3","ticks":291840,"time":152,"velocity":1},{"duration":0.25,"durationTicks":480,"midi":36,"name":"C2","ticks":291840,"time":152,"velocity":1},{"duration":0.25,"durationTicks":480,"midi":59,"name":"B3","ticks":292800,"time":152.5,"velocity":1},{"duration":0.25,"durationTicks":480,"midi":40,"name":"E2","ticks":292800,"time":152.5,"velocity":1},{"duration":0.25,"durationTicks":480,"midi":36,"name":"C2","ticks":293280,"time":152.75,"velocity":1},{"duration":0.25,"durationTicks":480,"midi":59,"name":"B3","ticks":293760,"time":153,"velocity":1},{"duration":0.25,"durationTicks":480,"midi":36,"name":"C2","ticks":293760,"time":153,"velocity":1},{"duration":0.25,"durationTicks":480,"midi":59,"name":"B3","ticks":294720,"time":153.5,"velocity":1},{"duration":0.25,"durationTicks":480,"midi":40,"name":"E2","ticks":294720,"time":153.5,"velocity":1},{"duration":0.25,"durationTicks":480,"midi":59,"name":"B3","ticks":295680,"time":154,"velocity":1},{"duration":0.25,"durationTicks":480,"midi":36,"name":"C2","ticks":295680,"time":154,"velocity":1},{"duration":0.25,"durationTicks":480,"midi":59,"name":"B3","ticks":296640,"time":154.5,"velocity":1},{"duration":0.25,"durationTicks":480,"midi":40,"name":"E2","ticks":296640,"time":154.5,"velocity":1},{"duration":0.25,"durationTicks":480,"midi":36,"name":"C2","ticks":297120,"time":154.75,"velocity":1},{"duration":0.25,"durationTicks":480,"midi":59,"name":"B3","ticks":297600,"time":155,"velocity":1},{"duration":0.25,"durationTicks":480,"midi":36,"name":"C2","ticks":297600,"time":155,"velocity":1},{"duration":0.25,"durationTicks":480,"midi":59,"name":"B3","ticks":298560,"time":155.5,"velocity":1},{"duration":0.25,"durationTicks":480,"midi":40,"name":"E2","ticks":298560,"time":155.5,"velocity":1},{"duration":0.25,"durationTicks":480,"midi":59,"name":"B3","ticks":299520,"time":156,"velocity":1},{"duration":0.25,"durationTicks":480,"midi":36,"name":"C2","ticks":299520,"time":156,"velocity":1},{"duration":0.25,"durationTicks":480,"midi":59,"name":"B3","ticks":300480,"time":156.5,"velocity":1},{"duration":0.25,"durationTicks":480,"midi":40,"name":"E2","ticks":300480,"time":156.5,"velocity":1},{"duration":0.25,"durationTicks":480,"midi":36,"name":"C2","ticks":300960,"time":156.75,"velocity":1},{"duration":0.25,"durationTicks":480,"midi":59,"name":"B3","ticks":301440,"time":157,"velocity":1},{"duration":0.25,"durationTicks":480,"midi":36,"name":"C2","ticks":301440,"time":157,"velocity":1},{"duration":0.125,"durationTicks":240,"midi":36,"name":"C2","ticks":301920,"time":157.25,"velocity":1},{"duration":0.125,"durationTicks":240,"midi":36,"name":"C2","ticks":302160,"time":157.375,"velocity":1},{"duration":0.25,"durationTicks":480,"midi":59,"name":"B3","ticks":302400,"time":157.5,"velocity":1},{"duration":0.25,"durationTicks":480,"midi":40,"name":"E2","ticks":302400,"time":157.5,"velocity":1},{"duration":0.5,"durationTicks":960,"midi":57,"name":"A3","ticks":302400,"time":157.5,"velocity":1},{"duration":0.25,"durationTicks":480,"midi":59,"name":"B3","ticks":303360,"time":158,"velocity":1},{"duration":0.25,"durationTicks":480,"midi":36,"name":"C2","ticks":303360,"time":158,"velocity":1},{"duration":0.25,"durationTicks":480,"midi":57,"name":"A3","ticks":303360,"time":158,"velocity":1},{"duration":0.25,"durationTicks":480,"midi":59,"name":"B3","ticks":304320,"time":158.5,"velocity":1},{"duration":0.25,"durationTicks":480,"midi":40,"name":"E2","ticks":304320,"time":158.5,"velocity":1},{"duration":0.25,"durationTicks":480,"midi":36,"name":"C2","ticks":304800,"time":158.75,"velocity":1},{"duration":0.25,"durationTicks":480,"midi":59,"name":"B3","ticks":305280,"time":159,"velocity":1},{"duration":0.25,"durationTicks":480,"midi":36,"name":"C2","ticks":305280,"time":159,"velocity":1},{"duration":0.25,"durationTicks":480,"midi":59,"name":"B3","ticks":306240,"time":159.5,"velocity":1},{"duration":0.25,"durationTicks":480,"midi":40,"name":"E2","ticks":306240,"time":159.5,"velocity":1},{"duration":0.25,"durationTicks":480,"midi":59,"name":"B3","ticks":307200,"time":160,"velocity":1},{"duration":0.25,"durationTicks":480,"midi":36,"name":"C2","ticks":307200,"time":160,"velocity":1},{"duration":0.25,"durationTicks":480,"midi":59,"name":"B3","ticks":308160,"time":160.5,"velocity":1},{"duration":0.25,"durationTicks":480,"midi":40,"name":"E2","ticks":308160,"time":160.5,"velocity":1},{"duration":0.25,"durationTicks":480,"midi":36,"name":"C2","ticks":308640,"time":160.75,"velocity":1},{"duration":0.25,"durationTicks":480,"midi":59,"name":"B3","ticks":309120,"time":161,"velocity":1},{"duration":0.25,"durationTicks":480,"midi":36,"name":"C2","ticks":309120,"time":161,"velocity":1},{"duration":0.25,"durationTicks":480,"midi":59,"name":"B3","ticks":310080,"time":161.5,"velocity":1},{"duration":0.25,"durationTicks":480,"midi":40,"name":"E2","ticks":310080,"time":161.5,"velocity":1},{"duration":0.25,"durationTicks":480,"midi":59,"name":"B3","ticks":311040,"time":162,"velocity":1},{"duration":0.25,"durationTicks":480,"midi":36,"name":"C2","ticks":311040,"time":162,"velocity":1},{"duration":0.25,"durationTicks":480,"midi":59,"name":"B3","ticks":312000,"time":162.5,"velocity":1},{"duration":0.25,"durationTicks":480,"midi":40,"name":"E2","ticks":312000,"time":162.5,"velocity":1},{"duration":0.25,"durationTicks":480,"midi":36,"name":"C2","ticks":312480,"time":162.75,"velocity":1},{"duration":0.25,"durationTicks":480,"midi":59,"name":"B3","ticks":312960,"time":163,"velocity":1},{"duration":0.25,"durationTicks":480,"midi":36,"name":"C2","ticks":312960,"time":163,"velocity":1},{"duration":0.25,"durationTicks":480,"midi":59,"name":"B3","ticks":313920,"time":163.5,"velocity":1},{"duration":0.25,"durationTicks":480,"midi":40,"name":"E2","ticks":313920,"time":163.5,"velocity":1},{"duration":0.25,"durationTicks":480,"midi":59,"name":"B3","ticks":314880,"time":164,"velocity":1},{"duration":0.25,"durationTicks":480,"midi":36,"name":"C2","ticks":314880,"time":164,"velocity":1},{"duration":0.25,"durationTicks":480,"midi":59,"name":"B3","ticks":315840,"time":164.5,"velocity":1},{"duration":0.25,"durationTicks":480,"midi":40,"name":"E2","ticks":315840,"time":164.5,"velocity":1},{"duration":0.25,"durationTicks":480,"midi":36,"name":"C2","ticks":316320,"time":164.75,"velocity":1},{"duration":0.25,"durationTicks":480,"midi":59,"name":"B3","ticks":316800,"time":165,"velocity":1},{"duration":0.25,"durationTicks":480,"midi":36,"name":"C2","ticks":316800,"time":165,"velocity":1},{"duration":0.25,"durationTicks":480,"midi":57,"name":"A3","ticks":317760,"time":165.5,"velocity":1},{"duration":0.25,"durationTicks":480,"midi":40,"name":"E2","ticks":317760,"time":165.5,"velocity":1},{"duration":0.25,"durationTicks":480,"midi":57,"name":"A3","ticks":318720,"time":166,"velocity":1},{"duration":0.25,"durationTicks":480,"midi":36,"name":"C2","ticks":318720,"time":166,"velocity":1},{"duration":0.25,"durationTicks":480,"midi":59,"name":"B3","ticks":319680,"time":166.5,"velocity":1},{"duration":0.25,"durationTicks":480,"midi":40,"name":"E2","ticks":319680,"time":166.5,"velocity":1},{"duration":0.25,"durationTicks":480,"midi":36,"name":"C2","ticks":320160,"time":166.75,"velocity":1},{"duration":0.25,"durationTicks":480,"midi":59,"name":"B3","ticks":320640,"time":167,"velocity":1},{"duration":0.25,"durationTicks":480,"midi":36,"name":"C2","ticks":320640,"time":167,"velocity":1},{"duration":0.25,"durationTicks":480,"midi":59,"name":"B3","ticks":321600,"time":167.5,"velocity":1},{"duration":0.25,"durationTicks":480,"midi":40,"name":"E2","ticks":321600,"time":167.5,"velocity":1},{"duration":0.25,"durationTicks":480,"midi":59,"name":"B3","ticks":322560,"time":168,"velocity":1},{"duration":0.25,"durationTicks":480,"midi":36,"name":"C2","ticks":322560,"time":168,"velocity":1},{"duration":0.25,"durationTicks":480,"midi":59,"name":"B3","ticks":323520,"time":168.5,"velocity":1},{"duration":0.25,"durationTicks":480,"midi":40,"name":"E2","ticks":323520,"time":168.5,"velocity":1},{"duration":0.25,"durationTicks":480,"midi":36,"name":"C2","ticks":324000,"time":168.75,"velocity":1},{"duration":0.25,"durationTicks":480,"midi":59,"name":"B3","ticks":324480,"time":169,"velocity":1},{"duration":0.25,"durationTicks":480,"midi":36,"name":"C2","ticks":324480,"time":169,"velocity":1},{"duration":0.25,"durationTicks":480,"midi":59,"name":"B3","ticks":325440,"time":169.5,"velocity":1},{"duration":0.25,"durationTicks":480,"midi":40,"name":"E2","ticks":325440,"time":169.5,"velocity":1},{"duration":0.25,"durationTicks":480,"midi":59,"name":"B3","ticks":326400,"time":170,"velocity":1},{"duration":0.25,"durationTicks":480,"midi":36,"name":"C2","ticks":326400,"time":170,"velocity":1},{"duration":0.25,"durationTicks":480,"midi":59,"name":"B3","ticks":327360,"time":170.5,"velocity":1},{"duration":0.25,"durationTicks":480,"midi":40,"name":"E2","ticks":327360,"time":170.5,"velocity":1},{"duration":0.25,"durationTicks":480,"midi":36,"name":"C2","ticks":327840,"time":170.75,"velocity":1},{"duration":0.25,"durationTicks":480,"midi":59,"name":"B3","ticks":328320,"time":171,"velocity":1},{"duration":0.25,"durationTicks":480,"midi":36,"name":"C2","ticks":328320,"time":171,"velocity":1},{"duration":0.25,"durationTicks":480,"midi":59,"name":"B3","ticks":329280,"time":171.5,"velocity":1},{"duration":0.25,"durationTicks":480,"midi":40,"name":"E2","ticks":329280,"time":171.5,"velocity":1},{"duration":0.25,"durationTicks":480,"midi":59,"name":"B3","ticks":330240,"time":172,"velocity":1},{"duration":0.25,"durationTicks":480,"midi":36,"name":"C2","ticks":330240,"time":172,"velocity":1},{"duration":0.25,"durationTicks":480,"midi":59,"name":"B3","ticks":331200,"time":172.5,"velocity":1},{"duration":0.25,"durationTicks":480,"midi":40,"name":"E2","ticks":331200,"time":172.5,"velocity":1},{"duration":0.25,"durationTicks":480,"midi":36,"name":"C2","ticks":331680,"time":172.75,"velocity":1},{"duration":0.25,"durationTicks":480,"midi":59,"name":"B3","ticks":332160,"time":173,"velocity":1},{"duration":0.25,"durationTicks":480,"midi":36,"name":"C2","ticks":332160,"time":173,"velocity":1}],"channel":9,"instrument":{"family":"drums","number":0,"name":"standard kit"},"controlChanges":{"7":[{"number":7,"ticks":0,"time":0,"value":0.8031496062992126}],"10":[{"number":10,"ticks":0,"time":0,"value":0.5039370078740157}]},"pitchBends":[],"endOfTrackTicks":332640},{"name":"Drums 2","notes":[{"duration":0.25,"durationTicks":480,"midi":69,"name":"A4","ticks":34560,"time":18,"velocity":1},{"duration":0.25,"durationTicks":480,"midi":70,"name":"A#4","ticks":34560,"time":18,"velocity":1},{"duration":0.25,"durationTicks":480,"midi":69,"name":"A4","ticks":35040,"time":18.25,"velocity":1},{"duration":0.25,"durationTicks":480,"midi":69,"name":"A4","ticks":35520,"time":18.5,"velocity":1},{"duration":0.25,"durationTicks":480,"midi":69,"name":"A4","ticks":36000,"time":18.75,"velocity":1},{"duration":0.0625,"durationTicks":120,"midi":69,"name":"A4","ticks":36480,"time":19,"velocity":1},{"duration":0.25,"durationTicks":480,"midi":70,"name":"A#4","ticks":36480,"time":19,"velocity":1},{"duration":0.0625,"durationTicks":120,"midi":69,"name":"A4","ticks":36600,"time":19.0625,"velocity":1},{"duration":0.0625,"durationTicks":120,"midi":69,"name":"A4","ticks":36720,"time":19.125,"velocity":1},{"duration":0.25,"durationTicks":480,"midi":69,"name":"A4","ticks":36960,"time":19.25,"velocity":1},{"duration":0.25,"durationTicks":480,"midi":69,"name":"A4","ticks":37440,"time":19.5,"velocity":1},{"duration":0.25,"durationTicks":480,"midi":69,"name":"A4","ticks":37920,"time":19.75,"velocity":1},{"duration":0.25,"durationTicks":480,"midi":69,"name":"A4","ticks":38400,"time":20,"velocity":1},{"duration":0.25,"durationTicks":480,"midi":70,"name":"A#4","ticks":38400,"time":20,"velocity":1},{"duration":0.25,"durationTicks":480,"midi":69,"name":"A4","ticks":38880,"time":20.25,"velocity":1},{"duration":0.25,"durationTicks":480,"midi":69,"name":"A4","ticks":39360,"time":20.5,"velocity":1},{"duration":0.25,"durationTicks":480,"midi":69,"name":"A4","ticks":39840,"time":20.75,"velocity":1},{"duration":0.0625,"durationTicks":120,"midi":69,"name":"A4","ticks":40320,"time":21,"velocity":1},{"duration":0.25,"durationTicks":480,"midi":70,"name":"A#4","ticks":40320,"time":21,"velocity":1},{"duration":0.0625,"durationTicks":120,"midi":69,"name":"A4","ticks":40440,"time":21.0625,"velocity":1},{"duration":0.0625,"durationTicks":120,"midi":69,"name":"A4","ticks":40560,"time":21.125,"velocity":1},{"duration":0.25,"durationTicks":480,"midi":69,"name":"A4","ticks":40800,"time":21.25,"velocity":1},{"duration":0.25,"durationTicks":480,"midi":69,"name":"A4","ticks":41280,"time":21.5,"velocity":1},{"duration":0.25,"durationTicks":480,"midi":69,"name":"A4","ticks":41760,"time":21.75,"velocity":1},{"duration":0.25,"durationTicks":480,"midi":69,"name":"A4","ticks":42240,"time":22,"velocity":1},{"duration":0.25,"durationTicks":480,"midi":70,"name":"A#4","ticks":42240,"time":22,"velocity":1},{"duration":0.25,"durationTicks":480,"midi":69,"name":"A4","ticks":42720,"time":22.25,"velocity":1},{"duration":0.25,"durationTicks":480,"midi":69,"name":"A4","ticks":43200,"time":22.5,"velocity":1},{"duration":0.25,"durationTicks":480,"midi":69,"name":"A4","ticks":43680,"time":22.75,"velocity":1},{"duration":0.0625,"durationTicks":120,"midi":69,"name":"A4","ticks":44160,"time":23,"velocity":1},{"duration":0.25,"durationTicks":480,"midi":70,"name":"A#4","ticks":44160,"time":23,"velocity":1},{"duration":0.0625,"durationTicks":120,"midi":69,"name":"A4","ticks":44280,"time":23.0625,"velocity":1},{"duration":0.0625,"durationTicks":120,"midi":69,"name":"A4","ticks":44400,"time":23.125,"velocity":1},{"duration":0.25,"durationTicks":480,"midi":69,"name":"A4","ticks":44640,"time":23.25,"velocity":1},{"duration":0.25,"durationTicks":480,"midi":69,"name":"A4","ticks":45120,"time":23.5,"velocity":1},{"duration":0.25,"durationTicks":480,"midi":69,"name":"A4","ticks":45600,"time":23.75,"velocity":1},{"duration":0.25,"durationTicks":480,"midi":69,"name":"A4","ticks":46080,"time":24,"velocity":1},{"duration":0.25,"durationTicks":480,"midi":70,"name":"A#4","ticks":46080,"time":24,"velocity":1},{"duration":0.25,"durationTicks":480,"midi":69,"name":"A4","ticks":46560,"time":24.25,"velocity":1},{"duration":0.25,"durationTicks":480,"midi":69,"name":"A4","ticks":47040,"time":24.5,"velocity":1},{"duration":0.25,"durationTicks":480,"midi":69,"name":"A4","ticks":47520,"time":24.75,"velocity":1},{"duration":0.0625,"durationTicks":120,"midi":69,"name":"A4","ticks":48000,"time":25,"velocity":1},{"duration":0.25,"durationTicks":480,"midi":70,"name":"A#4","ticks":48000,"time":25,"velocity":1},{"duration":0.0625,"durationTicks":120,"midi":69,"name":"A4","ticks":48120,"time":25.0625,"velocity":1},{"duration":0.0625,"durationTicks":120,"midi":69,"name":"A4","ticks":48240,"time":25.125,"velocity":1},{"duration":0.25,"durationTicks":480,"midi":69,"name":"A4","ticks":48480,"time":25.25,"velocity":1},{"duration":0.25,"durationTicks":480,"midi":69,"name":"A4","ticks":48960,"time":25.5,"velocity":1},{"duration":0.25,"durationTicks":480,"midi":69,"name":"A4","ticks":49440,"time":25.75,"velocity":1},{"duration":0.25,"durationTicks":480,"midi":69,"name":"A4","ticks":49920,"time":26,"velocity":1},{"duration":0.25,"durationTicks":480,"midi":70,"name":"A#4","ticks":49920,"time":26,"velocity":1},{"duration":0.25,"durationTicks":480,"midi":69,"name":"A4","ticks":50400,"time":26.25,"velocity":1},{"duration":0.25,"durationTicks":480,"midi":69,"name":"A4","ticks":50880,"time":26.5,"velocity":1},{"duration":0.25,"durationTicks":480,"midi":69,"name":"A4","ticks":51360,"time":26.75,"velocity":1},{"duration":0.0625,"durationTicks":120,"midi":69,"name":"A4","ticks":51840,"time":27,"velocity":1},{"duration":0.25,"durationTicks":480,"midi":70,"name":"A#4","ticks":51840,"time":27,"velocity":1},{"duration":0.0625,"durationTicks":120,"midi":69,"name":"A4","ticks":51960,"time":27.0625,"velocity":1},{"duration":0.0625,"durationTicks":120,"midi":69,"name":"A4","ticks":52080,"time":27.125,"velocity":1},{"duration":0.25,"durationTicks":480,"midi":69,"name":"A4","ticks":52320,"time":27.25,"velocity":1},{"duration":0.25,"durationTicks":480,"midi":69,"name":"A4","ticks":52800,"time":27.5,"velocity":1},{"duration":0.25,"durationTicks":480,"midi":69,"name":"A4","ticks":53280,"time":27.75,"velocity":1},{"duration":0.25,"durationTicks":480,"midi":69,"name":"A4","ticks":53760,"time":28,"velocity":1},{"duration":0.25,"durationTicks":480,"midi":70,"name":"A#4","ticks":53760,"time":28,"velocity":1},{"duration":0.25,"durationTicks":480,"midi":69,"name":"A4","ticks":54240,"time":28.25,"velocity":1},{"duration":0.25,"durationTicks":480,"midi":69,"name":"A4","ticks":54720,"time":28.5,"velocity":1},{"duration":0.25,"durationTicks":480,"midi":69,"name":"A4","ticks":55200,"time":28.75,"velocity":1},{"duration":0.0625,"durationTicks":120,"midi":69,"name":"A4","ticks":55680,"time":29,"velocity":1},{"duration":0.25,"durationTicks":480,"midi":70,"name":"A#4","ticks":55680,"time":29,"velocity":1},{"duration":0.0625,"durationTicks":120,"midi":69,"name":"A4","ticks":55800,"time":29.0625,"velocity":1},{"duration":0.0625,"durationTicks":120,"midi":69,"name":"A4","ticks":55920,"time":29.125,"velocity":1},{"duration":0.25,"durationTicks":480,"midi":69,"name":"A4","ticks":56160,"time":29.25,"velocity":1},{"duration":0.25,"durationTicks":480,"midi":69,"name":"A4","ticks":56640,"time":29.5,"velocity":1},{"duration":0.25,"durationTicks":480,"midi":69,"name":"A4","ticks":57120,"time":29.75,"velocity":1},{"duration":0.25,"durationTicks":480,"midi":69,"name":"A4","ticks":57600,"time":30,"velocity":1},{"duration":0.25,"durationTicks":480,"midi":70,"name":"A#4","ticks":57600,"time":30,"velocity":1},{"duration":0.25,"durationTicks":480,"midi":69,"name":"A4","ticks":58080,"time":30.25,"velocity":1},{"duration":0.25,"durationTicks":480,"midi":69,"name":"A4","ticks":58560,"time":30.5,"velocity":1},{"duration":0.25,"durationTicks":480,"midi":69,"name":"A4","ticks":59040,"time":30.75,"velocity":1},{"duration":0.25,"durationTicks":480,"midi":69,"name":"A4","ticks":61440,"time":32,"velocity":1},{"duration":0.25,"durationTicks":480,"midi":70,"name":"A#4","ticks":61440,"time":32,"velocity":1},{"duration":0.25,"durationTicks":480,"midi":69,"name":"A4","ticks":61920,"time":32.25,"velocity":1},{"duration":0.25,"durationTicks":480,"midi":54,"name":"F#3","ticks":62400,"time":32.5,"velocity":1},{"duration":0.25,"durationTicks":480,"midi":69,"name":"A4","ticks":62400,"time":32.5,"velocity":1},{"duration":0.25,"durationTicks":480,"midi":69,"name":"A4","ticks":62880,"time":32.75,"velocity":1},{"duration":0.0625,"durationTicks":120,"midi":69,"name":"A4","ticks":63360,"time":33,"velocity":1},{"duration":0.25,"durationTicks":480,"midi":70,"name":"A#4","ticks":63360,"time":33,"velocity":1},{"duration":0.0625,"durationTicks":120,"midi":69,"name":"A4","ticks":63480,"time":33.0625,"velocity":1},{"duration":0.0625,"durationTicks":120,"midi":69,"name":"A4","ticks":63600,"time":33.125,"velocity":1},{"duration":0.25,"durationTicks":480,"midi":69,"name":"A4","ticks":63840,"time":33.25,"velocity":1},{"duration":0.25,"durationTicks":480,"midi":54,"name":"F#3","ticks":64320,"time":33.5,"velocity":1},{"duration":0.25,"durationTicks":480,"midi":69,"name":"A4","ticks":64320,"time":33.5,"velocity":1},{"duration":0.25,"durationTicks":480,"midi":69,"name":"A4","ticks":64800,"time":33.75,"velocity":1},{"duration":0.25,"durationTicks":480,"midi":69,"name":"A4","ticks":65280,"time":34,"velocity":1},{"duration":0.25,"durationTicks":480,"midi":70,"name":"A#4","ticks":65280,"time":34,"velocity":1},{"duration":0.25,"durationTicks":480,"midi":69,"name":"A4","ticks":65760,"time":34.25,"velocity":1},{"duration":0.25,"durationTicks":480,"midi":54,"name":"F#3","ticks":66240,"time":34.5,"velocity":1},{"duration":0.25,"durationTicks":480,"midi":69,"name":"A4","ticks":66240,"time":34.5,"velocity":1},{"duration":0.25,"durationTicks":480,"midi":69,"name":"A4","ticks":66720,"time":34.75,"velocity":1},{"duration":0.0625,"durationTicks":120,"midi":69,"name":"A4","ticks":67200,"time":35,"velocity":1},{"duration":0.25,"durationTicks":480,"midi":70,"name":"A#4","ticks":67200,"time":35,"velocity":1},{"duration":0.0625,"durationTicks":120,"midi":69,"name":"A4","ticks":67320,"time":35.0625,"velocity":1},{"duration":0.0625,"durationTicks":120,"midi":69,"name":"A4","ticks":67440,"time":35.125,"velocity":1},{"duration":0.25,"durationTicks":480,"midi":69,"name":"A4","ticks":67680,"time":35.25,"velocity":1},{"duration":0.25,"durationTicks":480,"midi":54,"name":"F#3","ticks":68160,"time":35.5,"velocity":1},{"duration":0.25,"durationTicks":480,"midi":69,"name":"A4","ticks":68160,"time":35.5,"velocity":1},{"duration":0.25,"durationTicks":480,"midi":69,"name":"A4","ticks":68640,"time":35.75,"velocity":1},{"duration":0.25,"durationTicks":480,"midi":69,"name":"A4","ticks":69120,"time":36,"velocity":1},{"duration":0.25,"durationTicks":480,"midi":70,"name":"A#4","ticks":69120,"time":36,"velocity":1},{"duration":0.25,"durationTicks":480,"midi":69,"name":"A4","ticks":69600,"time":36.25,"velocity":1},{"duration":0.25,"durationTicks":480,"midi":54,"name":"F#3","ticks":70080,"time":36.5,"velocity":1},{"duration":0.25,"durationTicks":480,"midi":69,"name":"A4","ticks":70080,"time":36.5,"velocity":1},{"duration":0.25,"durationTicks":480,"midi":69,"name":"A4","ticks":70560,"time":36.75,"velocity":1},{"duration":0.0625,"durationTicks":120,"midi":69,"name":"A4","ticks":71040,"time":37,"velocity":1},{"duration":0.25,"durationTicks":480,"midi":70,"name":"A#4","ticks":71040,"time":37,"velocity":1},{"duration":0.0625,"durationTicks":120,"midi":69,"name":"A4","ticks":71160,"time":37.0625,"velocity":1},{"duration":0.0625,"durationTicks":120,"midi":69,"name":"A4","ticks":71280,"time":37.125,"velocity":1},{"duration":0.25,"durationTicks":480,"midi":69,"name":"A4","ticks":71520,"time":37.25,"velocity":1},{"duration":0.25,"durationTicks":480,"midi":54,"name":"F#3","ticks":72000,"time":37.5,"velocity":1},{"duration":0.25,"durationTicks":480,"midi":69,"name":"A4","ticks":72000,"time":37.5,"velocity":1},{"duration":0.25,"durationTicks":480,"midi":69,"name":"A4","ticks":72480,"time":37.75,"velocity":1},{"duration":0.25,"durationTicks":480,"midi":69,"name":"A4","ticks":72960,"time":38,"velocity":1},{"duration":0.25,"durationTicks":480,"midi":70,"name":"A#4","ticks":72960,"time":38,"velocity":1},{"duration":0.25,"durationTicks":480,"midi":69,"name":"A4","ticks":73440,"time":38.25,"velocity":1},{"duration":0.25,"durationTicks":480,"midi":54,"name":"F#3","ticks":73920,"time":38.5,"velocity":1},{"duration":0.25,"durationTicks":480,"midi":69,"name":"A4","ticks":73920,"time":38.5,"velocity":1},{"duration":0.25,"durationTicks":480,"midi":69,"name":"A4","ticks":74400,"time":38.75,"velocity":1},{"duration":0.0625,"durationTicks":120,"midi":69,"name":"A4","ticks":74880,"time":39,"velocity":1},{"duration":0.25,"durationTicks":480,"midi":70,"name":"A#4","ticks":74880,"time":39,"velocity":1},{"duration":0.0625,"durationTicks":120,"midi":69,"name":"A4","ticks":75000,"time":39.0625,"velocity":1},{"duration":0.0625,"durationTicks":120,"midi":69,"name":"A4","ticks":75120,"time":39.125,"velocity":1},{"duration":0.25,"durationTicks":480,"midi":69,"name":"A4","ticks":75360,"time":39.25,"velocity":1},{"duration":0.25,"durationTicks":480,"midi":54,"name":"F#3","ticks":75840,"time":39.5,"velocity":1},{"duration":0.25,"durationTicks":480,"midi":69,"name":"A4","ticks":75840,"time":39.5,"velocity":1},{"duration":0.25,"durationTicks":480,"midi":69,"name":"A4","ticks":76320,"time":39.75,"velocity":1},{"duration":0.25,"durationTicks":480,"midi":69,"name":"A4","ticks":76800,"time":40,"velocity":1},{"duration":0.25,"durationTicks":480,"midi":70,"name":"A#4","ticks":76800,"time":40,"velocity":1},{"duration":0.25,"durationTicks":480,"midi":69,"name":"A4","ticks":77280,"time":40.25,"velocity":1},{"duration":0.25,"durationTicks":480,"midi":54,"name":"F#3","ticks":77760,"time":40.5,"velocity":1},{"duration":0.25,"durationTicks":480,"midi":69,"name":"A4","ticks":77760,"time":40.5,"velocity":1},{"duration":0.25,"durationTicks":480,"midi":69,"name":"A4","ticks":78240,"time":40.75,"velocity":1},{"duration":0.0625,"durationTicks":120,"midi":69,"name":"A4","ticks":78720,"time":41,"velocity":1},{"duration":0.25,"durationTicks":480,"midi":70,"name":"A#4","ticks":78720,"time":41,"velocity":1},{"duration":0.0625,"durationTicks":120,"midi":69,"name":"A4","ticks":78840,"time":41.0625,"velocity":1},{"duration":0.0625,"durationTicks":120,"midi":69,"name":"A4","ticks":78960,"time":41.125,"velocity":1},{"duration":0.25,"durationTicks":480,"midi":69,"name":"A4","ticks":79200,"time":41.25,"velocity":1},{"duration":0.25,"durationTicks":480,"midi":54,"name":"F#3","ticks":79680,"time":41.5,"velocity":1},{"duration":0.25,"durationTicks":480,"midi":69,"name":"A4","ticks":79680,"time":41.5,"velocity":1},{"duration":0.25,"durationTicks":480,"midi":69,"name":"A4","ticks":80160,"time":41.75,"velocity":1},{"duration":0.25,"durationTicks":480,"midi":69,"name":"A4","ticks":80640,"time":42,"velocity":1},{"duration":0.25,"durationTicks":480,"midi":70,"name":"A#4","ticks":80640,"time":42,"velocity":1},{"duration":0.25,"durationTicks":480,"midi":69,"name":"A4","ticks":81120,"time":42.25,"velocity":1},{"duration":0.25,"durationTicks":480,"midi":54,"name":"F#3","ticks":81600,"time":42.5,"velocity":1},{"duration":0.25,"durationTicks":480,"midi":69,"name":"A4","ticks":81600,"time":42.5,"velocity":1},{"duration":0.25,"durationTicks":480,"midi":69,"name":"A4","ticks":82080,"time":42.75,"velocity":1},{"duration":0.0625,"durationTicks":120,"midi":69,"name":"A4","ticks":82560,"time":43,"velocity":1},{"duration":0.25,"durationTicks":480,"midi":70,"name":"A#4","ticks":82560,"time":43,"velocity":1},{"duration":0.0625,"durationTicks":120,"midi":69,"name":"A4","ticks":82680,"time":43.0625,"velocity":1},{"duration":0.0625,"durationTicks":120,"midi":69,"name":"A4","ticks":82800,"time":43.125,"velocity":1},{"duration":0.25,"durationTicks":480,"midi":69,"name":"A4","ticks":83040,"time":43.25,"velocity":1},{"duration":0.25,"durationTicks":480,"midi":54,"name":"F#3","ticks":83520,"time":43.5,"velocity":1},{"duration":0.25,"durationTicks":480,"midi":69,"name":"A4","ticks":83520,"time":43.5,"velocity":1},{"duration":0.25,"durationTicks":480,"midi":69,"name":"A4","ticks":84000,"time":43.75,"velocity":1},{"duration":0.25,"durationTicks":480,"midi":69,"name":"A4","ticks":84480,"time":44,"velocity":1},{"duration":0.25,"durationTicks":480,"midi":70,"name":"A#4","ticks":84480,"time":44,"velocity":1},{"duration":0.25,"durationTicks":480,"midi":69,"name":"A4","ticks":84960,"time":44.25,"velocity":1},{"duration":0.25,"durationTicks":480,"midi":54,"name":"F#3","ticks":85440,"time":44.5,"velocity":1},{"duration":0.25,"durationTicks":480,"midi":69,"name":"A4","ticks":85440,"time":44.5,"velocity":1},{"duration":0.25,"durationTicks":480,"midi":69,"name":"A4","ticks":85920,"time":44.75,"velocity":1},{"duration":0.0625,"durationTicks":120,"midi":69,"name":"A4","ticks":86400,"time":45,"velocity":1},{"duration":0.25,"durationTicks":480,"midi":70,"name":"A#4","ticks":86400,"time":45,"velocity":1},{"duration":0.0625,"durationTicks":120,"midi":69,"name":"A4","ticks":86520,"time":45.0625,"velocity":1},{"duration":0.0625,"durationTicks":120,"midi":69,"name":"A4","ticks":86640,"time":45.125,"velocity":1},{"duration":0.25,"durationTicks":480,"midi":69,"name":"A4","ticks":86880,"time":45.25,"velocity":1},{"duration":0.25,"durationTicks":480,"midi":54,"name":"F#3","ticks":87360,"time":45.5,"velocity":1},{"duration":0.25,"durationTicks":480,"midi":69,"name":"A4","ticks":87360,"time":45.5,"velocity":1},{"duration":0.25,"durationTicks":480,"midi":69,"name":"A4","ticks":87840,"time":45.75,"velocity":1},{"duration":0.25,"durationTicks":480,"midi":69,"name":"A4","ticks":88320,"time":46,"velocity":1},{"duration":0.25,"durationTicks":480,"midi":70,"name":"A#4","ticks":88320,"time":46,"velocity":1},{"duration":0.25,"durationTicks":480,"midi":69,"name":"A4","ticks":88800,"time":46.25,"velocity":1},{"duration":0.25,"durationTicks":480,"midi":69,"name":"A4","ticks":89280,"time":46.5,"velocity":1},{"duration":0.25,"durationTicks":480,"midi":69,"name":"A4","ticks":89760,"time":46.75,"velocity":1},{"duration":0.0625,"durationTicks":120,"midi":69,"name":"A4","ticks":90240,"time":47,"velocity":1},{"duration":0.25,"durationTicks":480,"midi":70,"name":"A#4","ticks":90240,"time":47,"velocity":1},{"duration":0.0625,"durationTicks":120,"midi":69,"name":"A4","ticks":90360,"time":47.0625,"velocity":1},{"duration":0.0625,"durationTicks":120,"midi":69,"name":"A4","ticks":90480,"time":47.125,"velocity":1},{"duration":0.25,"durationTicks":480,"midi":69,"name":"A4","ticks":90720,"time":47.25,"velocity":1},{"duration":0.25,"durationTicks":480,"midi":69,"name":"A4","ticks":91200,"time":47.5,"velocity":1},{"duration":0.25,"durationTicks":480,"midi":69,"name":"A4","ticks":91680,"time":47.75,"velocity":1},{"duration":0.25,"durationTicks":480,"midi":69,"name":"A4","ticks":92160,"time":48,"velocity":1},{"duration":0.25,"durationTicks":480,"midi":70,"name":"A#4","ticks":92160,"time":48,"velocity":1},{"duration":0.25,"durationTicks":480,"midi":69,"name":"A4","ticks":92640,"time":48.25,"velocity":1},{"duration":0.25,"durationTicks":480,"midi":69,"name":"A4","ticks":93120,"time":48.5,"velocity":1},{"duration":0.25,"durationTicks":480,"midi":69,"name":"A4","ticks":93600,"time":48.75,"velocity":1},{"duration":0.0625,"durationTicks":120,"midi":69,"name":"A4","ticks":94080,"time":49,"velocity":1},{"duration":0.25,"durationTicks":480,"midi":70,"name":"A#4","ticks":94080,"time":49,"velocity":1},{"duration":0.0625,"durationTicks":120,"midi":69,"name":"A4","ticks":94200,"time":49.0625,"velocity":1},{"duration":0.0625,"durationTicks":120,"midi":69,"name":"A4","ticks":94320,"time":49.125,"velocity":1},{"duration":0.25,"durationTicks":480,"midi":69,"name":"A4","ticks":94560,"time":49.25,"velocity":1},{"duration":0.25,"durationTicks":480,"midi":69,"name":"A4","ticks":95040,"time":49.5,"velocity":1},{"duration":0.25,"durationTicks":480,"midi":69,"name":"A4","ticks":95520,"time":49.75,"velocity":1},{"duration":0.25,"durationTicks":480,"midi":69,"name":"A4","ticks":96000,"time":50,"velocity":1},{"duration":0.25,"durationTicks":480,"midi":70,"name":"A#4","ticks":96000,"time":50,"velocity":1},{"duration":0.25,"durationTicks":480,"midi":69,"name":"A4","ticks":96480,"time":50.25,"velocity":1},{"duration":0.25,"durationTicks":480,"midi":69,"name":"A4","ticks":96960,"time":50.5,"velocity":1},{"duration":0.25,"durationTicks":480,"midi":69,"name":"A4","ticks":97440,"time":50.75,"velocity":1},{"duration":0.0625,"durationTicks":120,"midi":69,"name":"A4","ticks":97920,"time":51,"velocity":1},{"duration":0.25,"durationTicks":480,"midi":70,"name":"A#4","ticks":97920,"time":51,"velocity":1},{"duration":0.0625,"durationTicks":120,"midi":69,"name":"A4","ticks":98040,"time":51.0625,"velocity":1},{"duration":0.0625,"durationTicks":120,"midi":69,"name":"A4","ticks":98160,"time":51.125,"velocity":1},{"duration":0.25,"durationTicks":480,"midi":69,"name":"A4","ticks":98400,"time":51.25,"velocity":1},{"duration":0.25,"durationTicks":480,"midi":69,"name":"A4","ticks":98880,"time":51.5,"velocity":1},{"duration":0.25,"durationTicks":480,"midi":69,"name":"A4","ticks":99360,"time":51.75,"velocity":1},{"duration":0.25,"durationTicks":480,"midi":69,"name":"A4","ticks":99840,"time":52,"velocity":1},{"duration":0.25,"durationTicks":480,"midi":70,"name":"A#4","ticks":99840,"time":52,"velocity":1},{"duration":0.25,"durationTicks":480,"midi":69,"name":"A4","ticks":100320,"time":52.25,"velocity":1},{"duration":0.25,"durationTicks":480,"midi":69,"name":"A4","ticks":100800,"time":52.5,"velocity":1},{"duration":0.25,"durationTicks":480,"midi":69,"name":"A4","ticks":101280,"time":52.75,"velocity":1},{"duration":0.0625,"durationTicks":120,"midi":69,"name":"A4","ticks":101760,"time":53,"velocity":1},{"duration":0.25,"durationTicks":480,"midi":70,"name":"A#4","ticks":101760,"time":53,"velocity":1},{"duration":0.0625,"durationTicks":120,"midi":69,"name":"A4","ticks":101880,"time":53.0625,"velocity":1},{"duration":0.0625,"durationTicks":120,"midi":69,"name":"A4","ticks":102000,"time":53.125,"velocity":1},{"duration":0.25,"durationTicks":480,"midi":69,"name":"A4","ticks":102240,"time":53.25,"velocity":1},{"duration":0.25,"durationTicks":480,"midi":69,"name":"A4","ticks":102720,"time":53.5,"velocity":1},{"duration":0.25,"durationTicks":480,"midi":69,"name":"A4","ticks":103200,"time":53.75,"velocity":1},{"duration":0.25,"durationTicks":480,"midi":69,"name":"A4","ticks":103680,"time":54,"velocity":1},{"duration":0.25,"durationTicks":480,"midi":70,"name":"A#4","ticks":103680,"time":54,"velocity":1},{"duration":0.25,"durationTicks":480,"midi":69,"name":"A4","ticks":104160,"time":54.25,"velocity":1},{"duration":0.25,"durationTicks":480,"midi":69,"name":"A4","ticks":104640,"time":54.5,"velocity":1},{"duration":0.25,"durationTicks":480,"midi":69,"name":"A4","ticks":105120,"time":54.75,"velocity":1},{"duration":0.0625,"durationTicks":120,"midi":69,"name":"A4","ticks":105600,"time":55,"velocity":1},{"duration":0.25,"durationTicks":480,"midi":70,"name":"A#4","ticks":105600,"time":55,"velocity":1},{"duration":0.0625,"durationTicks":120,"midi":69,"name":"A4","ticks":105720,"time":55.0625,"velocity":1},{"duration":0.0625,"durationTicks":120,"midi":69,"name":"A4","ticks":105840,"time":55.125,"velocity":1},{"duration":0.25,"durationTicks":480,"midi":69,"name":"A4","ticks":106080,"time":55.25,"velocity":1},{"duration":0.25,"durationTicks":480,"midi":69,"name":"A4","ticks":106560,"time":55.5,"velocity":1},{"duration":0.25,"durationTicks":480,"midi":69,"name":"A4","ticks":107040,"time":55.75,"velocity":1},{"duration":0.25,"durationTicks":480,"midi":69,"name":"A4","ticks":107520,"time":56,"velocity":1},{"duration":0.25,"durationTicks":480,"midi":70,"name":"A#4","ticks":107520,"time":56,"velocity":1},{"duration":0.25,"durationTicks":480,"midi":69,"name":"A4","ticks":108000,"time":56.25,"velocity":1},{"duration":0.25,"durationTicks":480,"midi":69,"name":"A4","ticks":108480,"time":56.5,"velocity":1},{"duration":0.25,"durationTicks":480,"midi":69,"name":"A4","ticks":108960,"time":56.75,"velocity":1},{"duration":0.0625,"durationTicks":120,"midi":69,"name":"A4","ticks":109440,"time":57,"velocity":1},{"duration":0.25,"durationTicks":480,"midi":70,"name":"A#4","ticks":109440,"time":57,"velocity":1},{"duration":0.0625,"durationTicks":120,"midi":69,"name":"A4","ticks":109560,"time":57.0625,"velocity":1},{"duration":0.0625,"durationTicks":120,"midi":69,"name":"A4","ticks":109680,"time":57.125,"velocity":1},{"duration":0.25,"durationTicks":480,"midi":69,"name":"A4","ticks":109920,"time":57.25,"velocity":1},{"duration":0.25,"durationTicks":480,"midi":69,"name":"A4","ticks":110400,"time":57.5,"velocity":1},{"duration":0.25,"durationTicks":480,"midi":69,"name":"A4","ticks":110880,"time":57.75,"velocity":1},{"duration":0.25,"durationTicks":480,"midi":69,"name":"A4","ticks":111360,"time":58,"velocity":1},{"duration":0.25,"durationTicks":480,"midi":70,"name":"A#4","ticks":111360,"time":58,"velocity":1},{"duration":0.25,"durationTicks":480,"midi":69,"name":"A4","ticks":111840,"time":58.25,"velocity":1},{"duration":0.25,"durationTicks":480,"midi":69,"name":"A4","ticks":112320,"time":58.5,"velocity":1},{"duration":0.25,"durationTicks":480,"midi":69,"name":"A4","ticks":112800,"time":58.75,"velocity":1},{"duration":0.0625,"durationTicks":120,"midi":69,"name":"A4","ticks":113280,"time":59,"velocity":1},{"duration":0.25,"durationTicks":480,"midi":70,"name":"A#4","ticks":113280,"time":59,"velocity":1},{"duration":0.0625,"durationTicks":120,"midi":69,"name":"A4","ticks":113400,"time":59.0625,"velocity":1},{"duration":0.0625,"durationTicks":120,"midi":69,"name":"A4","ticks":113520,"time":59.125,"velocity":1},{"duration":0.25,"durationTicks":480,"midi":69,"name":"A4","ticks":113760,"time":59.25,"velocity":1},{"duration":0.25,"durationTicks":480,"midi":69,"name":"A4","ticks":114240,"time":59.5,"velocity":1},{"duration":0.25,"durationTicks":480,"midi":69,"name":"A4","ticks":114720,"time":59.75,"velocity":1},{"duration":0.25,"durationTicks":480,"midi":69,"name":"A4","ticks":115200,"time":60,"velocity":1},{"duration":0.25,"durationTicks":480,"midi":70,"name":"A#4","ticks":115200,"time":60,"velocity":1},{"duration":0.25,"durationTicks":480,"midi":69,"name":"A4","ticks":115680,"time":60.25,"velocity":1},{"duration":0.25,"durationTicks":480,"midi":69,"name":"A4","ticks":116160,"time":60.5,"velocity":1},{"duration":0.25,"durationTicks":480,"midi":69,"name":"A4","ticks":116640,"time":60.75,"velocity":1},{"duration":0.0625,"durationTicks":120,"midi":69,"name":"A4","ticks":117120,"time":61,"velocity":1},{"duration":0.25,"durationTicks":480,"midi":70,"name":"A#4","ticks":117120,"time":61,"velocity":1},{"duration":0.0625,"durationTicks":120,"midi":69,"name":"A4","ticks":117240,"time":61.0625,"velocity":1},{"duration":0.0625,"durationTicks":120,"midi":69,"name":"A4","ticks":117360,"time":61.125,"velocity":1},{"duration":0.25,"durationTicks":480,"midi":69,"name":"A4","ticks":117600,"time":61.25,"velocity":1},{"duration":0.25,"durationTicks":480,"midi":69,"name":"A4","ticks":118080,"time":61.5,"velocity":1},{"duration":0.25,"durationTicks":480,"midi":69,"name":"A4","ticks":118560,"time":61.75,"velocity":1},{"duration":0.25,"durationTicks":480,"midi":69,"name":"A4","ticks":119040,"time":62,"velocity":1},{"duration":0.25,"durationTicks":480,"midi":70,"name":"A#4","ticks":119040,"time":62,"velocity":1},{"duration":0.25,"durationTicks":480,"midi":69,"name":"A4","ticks":119520,"time":62.25,"velocity":1},{"duration":0.25,"durationTicks":480,"midi":69,"name":"A4","ticks":120000,"time":62.5,"velocity":1},{"duration":0.25,"durationTicks":480,"midi":69,"name":"A4","ticks":120480,"time":62.75,"velocity":1},{"duration":0.0625,"durationTicks":120,"midi":69,"name":"A4","ticks":120960,"time":63,"velocity":1},{"duration":0.25,"durationTicks":480,"midi":70,"name":"A#4","ticks":120960,"time":63,"velocity":1},{"duration":0.0625,"durationTicks":120,"midi":69,"name":"A4","ticks":121080,"time":63.0625,"velocity":1},{"duration":0.0625,"durationTicks":120,"midi":69,"name":"A4","ticks":121200,"time":63.125,"velocity":1},{"duration":0.25,"durationTicks":480,"midi":69,"name":"A4","ticks":121440,"time":63.25,"velocity":1},{"duration":0.25,"durationTicks":480,"midi":69,"name":"A4","ticks":121920,"time":63.5,"velocity":1},{"duration":0.25,"durationTicks":480,"midi":69,"name":"A4","ticks":122400,"time":63.75,"velocity":1},{"duration":0.25,"durationTicks":480,"midi":69,"name":"A4","ticks":122880,"time":64,"velocity":1},{"duration":0.25,"durationTicks":480,"midi":70,"name":"A#4","ticks":122880,"time":64,"velocity":1},{"duration":0.25,"durationTicks":480,"midi":69,"name":"A4","ticks":123360,"time":64.25,"velocity":1},{"duration":0.25,"durationTicks":480,"midi":69,"name":"A4","ticks":123840,"time":64.5,"velocity":1},{"duration":0.25,"durationTicks":480,"midi":69,"name":"A4","ticks":124320,"time":64.75,"velocity":1},{"duration":0.0625,"durationTicks":120,"midi":69,"name":"A4","ticks":124800,"time":65,"velocity":1},{"duration":0.25,"durationTicks":480,"midi":70,"name":"A#4","ticks":124800,"time":65,"velocity":1},{"duration":0.0625,"durationTicks":120,"midi":69,"name":"A4","ticks":124920,"time":65.0625,"velocity":1},{"duration":0.0625,"durationTicks":120,"midi":69,"name":"A4","ticks":125040,"time":65.125,"velocity":1},{"duration":0.25,"durationTicks":480,"midi":69,"name":"A4","ticks":125280,"time":65.25,"velocity":1},{"duration":0.25,"durationTicks":480,"midi":69,"name":"A4","ticks":125760,"time":65.5,"velocity":1},{"duration":0.25,"durationTicks":480,"midi":69,"name":"A4","ticks":126240,"time":65.75,"velocity":1},{"duration":0.25,"durationTicks":480,"midi":69,"name":"A4","ticks":126720,"time":66,"velocity":1},{"duration":0.25,"durationTicks":480,"midi":70,"name":"A#4","ticks":126720,"time":66,"velocity":1},{"duration":0.25,"durationTicks":480,"midi":69,"name":"A4","ticks":127200,"time":66.25,"velocity":1},{"duration":0.25,"durationTicks":480,"midi":69,"name":"A4","ticks":127680,"time":66.5,"velocity":1},{"duration":0.25,"durationTicks":480,"midi":69,"name":"A4","ticks":128160,"time":66.75,"velocity":1},{"duration":0.0625,"durationTicks":120,"midi":69,"name":"A4","ticks":128640,"time":67,"velocity":1},{"duration":0.25,"durationTicks":480,"midi":70,"name":"A#4","ticks":128640,"time":67,"velocity":1},{"duration":0.0625,"durationTicks":120,"midi":69,"name":"A4","ticks":128760,"time":67.0625,"velocity":1},{"duration":0.0625,"durationTicks":120,"midi":69,"name":"A4","ticks":128880,"time":67.125,"velocity":1},{"duration":0.25,"durationTicks":480,"midi":69,"name":"A4","ticks":129120,"time":67.25,"velocity":1},{"duration":0.25,"durationTicks":480,"midi":69,"name":"A4","ticks":129600,"time":67.5,"velocity":1},{"duration":0.25,"durationTicks":480,"midi":69,"name":"A4","ticks":130080,"time":67.75,"velocity":1},{"duration":0.25,"durationTicks":480,"midi":69,"name":"A4","ticks":130560,"time":68,"velocity":1},{"duration":0.25,"durationTicks":480,"midi":70,"name":"A#4","ticks":130560,"time":68,"velocity":1},{"duration":0.25,"durationTicks":480,"midi":69,"name":"A4","ticks":131040,"time":68.25,"velocity":1},{"duration":0.25,"durationTicks":480,"midi":69,"name":"A4","ticks":131520,"time":68.5,"velocity":1},{"duration":0.25,"durationTicks":480,"midi":69,"name":"A4","ticks":132000,"time":68.75,"velocity":1},{"duration":0.0625,"durationTicks":120,"midi":69,"name":"A4","ticks":132480,"time":69,"velocity":1},{"duration":0.25,"durationTicks":480,"midi":70,"name":"A#4","ticks":132480,"time":69,"velocity":1},{"duration":0.0625,"durationTicks":120,"midi":69,"name":"A4","ticks":132600,"time":69.0625,"velocity":1},{"duration":0.0625,"durationTicks":120,"midi":69,"name":"A4","ticks":132720,"time":69.125,"velocity":1},{"duration":0.25,"durationTicks":480,"midi":69,"name":"A4","ticks":132960,"time":69.25,"velocity":1},{"duration":0.25,"durationTicks":480,"midi":69,"name":"A4","ticks":133440,"time":69.5,"velocity":1},{"duration":0.25,"durationTicks":480,"midi":69,"name":"A4","ticks":133920,"time":69.75,"velocity":1},{"duration":0.25,"durationTicks":480,"midi":69,"name":"A4","ticks":134400,"time":70,"velocity":1},{"duration":0.25,"durationTicks":480,"midi":70,"name":"A#4","ticks":134400,"time":70,"velocity":1},{"duration":0.25,"durationTicks":480,"midi":69,"name":"A4","ticks":134880,"time":70.25,"velocity":1},{"duration":0.25,"durationTicks":480,"midi":69,"name":"A4","ticks":135360,"time":70.5,"velocity":1},{"duration":0.25,"durationTicks":480,"midi":69,"name":"A4","ticks":135840,"time":70.75,"velocity":1},{"duration":0.0625,"durationTicks":120,"midi":69,"name":"A4","ticks":136320,"time":71,"velocity":1},{"duration":0.25,"durationTicks":480,"midi":70,"name":"A#4","ticks":136320,"time":71,"velocity":1},{"duration":0.0625,"durationTicks":120,"midi":69,"name":"A4","ticks":136440,"time":71.0625,"velocity":1},{"duration":0.0625,"durationTicks":120,"midi":69,"name":"A4","ticks":136560,"time":71.125,"velocity":1},{"duration":0.25,"durationTicks":480,"midi":69,"name":"A4","ticks":136800,"time":71.25,"velocity":1},{"duration":0.25,"durationTicks":480,"midi":69,"name":"A4","ticks":137280,"time":71.5,"velocity":1},{"duration":0.25,"durationTicks":480,"midi":69,"name":"A4","ticks":137760,"time":71.75,"velocity":1},{"duration":0.25,"durationTicks":480,"midi":69,"name":"A4","ticks":138240,"time":72,"velocity":1},{"duration":0.25,"durationTicks":480,"midi":70,"name":"A#4","ticks":138240,"time":72,"velocity":1},{"duration":0.25,"durationTicks":480,"midi":69,"name":"A4","ticks":138720,"time":72.25,"velocity":1},{"duration":0.25,"durationTicks":480,"midi":69,"name":"A4","ticks":139200,"time":72.5,"velocity":1},{"duration":0.25,"durationTicks":480,"midi":69,"name":"A4","ticks":139680,"time":72.75,"velocity":1},{"duration":0.0625,"durationTicks":120,"midi":69,"name":"A4","ticks":140160,"time":73,"velocity":1},{"duration":0.25,"durationTicks":480,"midi":70,"name":"A#4","ticks":140160,"time":73,"velocity":1},{"duration":0.0625,"durationTicks":120,"midi":69,"name":"A4","ticks":140280,"time":73.0625,"velocity":1},{"duration":0.0625,"durationTicks":120,"midi":69,"name":"A4","ticks":140400,"time":73.125,"velocity":1},{"duration":0.25,"durationTicks":480,"midi":69,"name":"A4","ticks":140640,"time":73.25,"velocity":1},{"duration":0.25,"durationTicks":480,"midi":69,"name":"A4","ticks":141120,"time":73.5,"velocity":1},{"duration":0.25,"durationTicks":480,"midi":69,"name":"A4","ticks":141600,"time":73.75,"velocity":1},{"duration":0.25,"durationTicks":480,"midi":69,"name":"A4","ticks":142080,"time":74,"velocity":1},{"duration":0.25,"durationTicks":480,"midi":70,"name":"A#4","ticks":142080,"time":74,"velocity":1},{"duration":0.25,"durationTicks":480,"midi":69,"name":"A4","ticks":142560,"time":74.25,"velocity":1},{"duration":0.25,"durationTicks":480,"midi":69,"name":"A4","ticks":143040,"time":74.5,"velocity":1},{"duration":0.25,"durationTicks":480,"midi":69,"name":"A4","ticks":143520,"time":74.75,"velocity":1},{"duration":0.0625,"durationTicks":120,"midi":69,"name":"A4","ticks":144000,"time":75,"velocity":1},{"duration":0.25,"durationTicks":480,"midi":70,"name":"A#4","ticks":144000,"time":75,"velocity":1},{"duration":0.0625,"durationTicks":120,"midi":69,"name":"A4","ticks":144120,"time":75.0625,"velocity":1},{"duration":0.0625,"durationTicks":120,"midi":69,"name":"A4","ticks":144240,"time":75.125,"velocity":1},{"duration":0.25,"durationTicks":480,"midi":69,"name":"A4","ticks":144480,"time":75.25,"velocity":1},{"duration":0.25,"durationTicks":480,"midi":69,"name":"A4","ticks":144960,"time":75.5,"velocity":1},{"duration":0.25,"durationTicks":480,"midi":69,"name":"A4","ticks":145440,"time":75.75,"velocity":1},{"duration":0.25,"durationTicks":480,"midi":69,"name":"A4","ticks":145920,"time":76,"velocity":1},{"duration":0.25,"durationTicks":480,"midi":70,"name":"A#4","ticks":145920,"time":76,"velocity":1},{"duration":0.25,"durationTicks":480,"midi":69,"name":"A4","ticks":146400,"time":76.25,"velocity":1},{"duration":0.25,"durationTicks":480,"midi":69,"name":"A4","ticks":146880,"time":76.5,"velocity":1},{"duration":0.25,"durationTicks":480,"midi":69,"name":"A4","ticks":147360,"time":76.75,"velocity":1},{"duration":0.0625,"durationTicks":120,"midi":69,"name":"A4","ticks":147840,"time":77,"velocity":1},{"duration":0.25,"durationTicks":480,"midi":70,"name":"A#4","ticks":147840,"time":77,"velocity":1},{"duration":0.0625,"durationTicks":120,"midi":69,"name":"A4","ticks":147960,"time":77.0625,"velocity":1},{"duration":0.0625,"durationTicks":120,"midi":69,"name":"A4","ticks":148080,"time":77.125,"velocity":1},{"duration":0.25,"durationTicks":480,"midi":69,"name":"A4","ticks":148320,"time":77.25,"velocity":1},{"duration":0.25,"durationTicks":480,"midi":69,"name":"A4","ticks":148800,"time":77.5,"velocity":1},{"duration":0.25,"durationTicks":480,"midi":69,"name":"A4","ticks":149280,"time":77.75,"velocity":1},{"duration":0.25,"durationTicks":480,"midi":69,"name":"A4","ticks":149760,"time":78,"velocity":1},{"duration":0.25,"durationTicks":480,"midi":70,"name":"A#4","ticks":149760,"time":78,"velocity":1},{"duration":0.25,"durationTicks":480,"midi":69,"name":"A4","ticks":150240,"time":78.25,"velocity":1},{"duration":0.25,"durationTicks":480,"midi":69,"name":"A4","ticks":150720,"time":78.5,"velocity":1},{"duration":0.25,"durationTicks":480,"midi":69,"name":"A4","ticks":151200,"time":78.75,"velocity":1},{"duration":0.0625,"durationTicks":120,"midi":69,"name":"A4","ticks":151680,"time":79,"velocity":1},{"duration":0.25,"durationTicks":480,"midi":70,"name":"A#4","ticks":151680,"time":79,"velocity":1},{"duration":0.0625,"durationTicks":120,"midi":69,"name":"A4","ticks":151800,"time":79.0625,"velocity":1},{"duration":0.0625,"durationTicks":120,"midi":69,"name":"A4","ticks":151920,"time":79.125,"velocity":1},{"duration":0.25,"durationTicks":480,"midi":69,"name":"A4","ticks":152160,"time":79.25,"velocity":1},{"duration":0.25,"durationTicks":480,"midi":69,"name":"A4","ticks":152640,"time":79.5,"velocity":1},{"duration":0.25,"durationTicks":480,"midi":69,"name":"A4","ticks":153120,"time":79.75,"velocity":1},{"duration":0.25,"durationTicks":480,"midi":69,"name":"A4","ticks":153600,"time":80,"velocity":1},{"duration":0.25,"durationTicks":480,"midi":70,"name":"A#4","ticks":153600,"time":80,"velocity":1},{"duration":0.25,"durationTicks":480,"midi":69,"name":"A4","ticks":154080,"time":80.25,"velocity":1},{"duration":0.25,"durationTicks":480,"midi":69,"name":"A4","ticks":154560,"time":80.5,"velocity":1},{"duration":0.25,"durationTicks":480,"midi":69,"name":"A4","ticks":155040,"time":80.75,"velocity":1},{"duration":0.0625,"durationTicks":120,"midi":69,"name":"A4","ticks":155520,"time":81,"velocity":1},{"duration":0.25,"durationTicks":480,"midi":70,"name":"A#4","ticks":155520,"time":81,"velocity":1},{"duration":0.0625,"durationTicks":120,"midi":69,"name":"A4","ticks":155640,"time":81.0625,"velocity":1},{"duration":0.0625,"durationTicks":120,"midi":69,"name":"A4","ticks":155760,"time":81.125,"velocity":1},{"duration":0.25,"durationTicks":480,"midi":69,"name":"A4","ticks":156000,"time":81.25,"velocity":1},{"duration":0.25,"durationTicks":480,"midi":69,"name":"A4","ticks":156480,"time":81.5,"velocity":1},{"duration":0.25,"durationTicks":480,"midi":69,"name":"A4","ticks":156960,"time":81.75,"velocity":1},{"duration":0.25,"durationTicks":480,"midi":69,"name":"A4","ticks":157440,"time":82,"velocity":1},{"duration":0.25,"durationTicks":480,"midi":70,"name":"A#4","ticks":157440,"time":82,"velocity":1},{"duration":0.25,"durationTicks":480,"midi":69,"name":"A4","ticks":157920,"time":82.25,"velocity":1},{"duration":0.25,"durationTicks":480,"midi":69,"name":"A4","ticks":158400,"time":82.5,"velocity":1},{"duration":0.25,"durationTicks":480,"midi":69,"name":"A4","ticks":158880,"time":82.75,"velocity":1},{"duration":0.0625,"durationTicks":120,"midi":69,"name":"A4","ticks":159360,"time":83,"velocity":1},{"duration":0.25,"durationTicks":480,"midi":70,"name":"A#4","ticks":159360,"time":83,"velocity":1},{"duration":0.0625,"durationTicks":120,"midi":69,"name":"A4","ticks":159480,"time":83.0625,"velocity":1},{"duration":0.0625,"durationTicks":120,"midi":69,"name":"A4","ticks":159600,"time":83.125,"velocity":1},{"duration":0.25,"durationTicks":480,"midi":69,"name":"A4","ticks":159840,"time":83.25,"velocity":1},{"duration":0.25,"durationTicks":480,"midi":69,"name":"A4","ticks":160320,"time":83.5,"velocity":1},{"duration":0.25,"durationTicks":480,"midi":69,"name":"A4","ticks":160800,"time":83.75,"velocity":1},{"duration":0.25,"durationTicks":480,"midi":69,"name":"A4","ticks":161280,"time":84,"velocity":1},{"duration":0.25,"durationTicks":480,"midi":70,"name":"A#4","ticks":161280,"time":84,"velocity":1},{"duration":0.25,"durationTicks":480,"midi":69,"name":"A4","ticks":161760,"time":84.25,"velocity":1},{"duration":0.25,"durationTicks":480,"midi":69,"name":"A4","ticks":162240,"time":84.5,"velocity":1},{"duration":0.25,"durationTicks":480,"midi":69,"name":"A4","ticks":162720,"time":84.75,"velocity":1},{"duration":0.0625,"durationTicks":120,"midi":69,"name":"A4","ticks":163200,"time":85,"velocity":1},{"duration":0.25,"durationTicks":480,"midi":70,"name":"A#4","ticks":163200,"time":85,"velocity":1},{"duration":0.0625,"durationTicks":120,"midi":69,"name":"A4","ticks":163320,"time":85.0625,"velocity":1},{"duration":0.0625,"durationTicks":120,"midi":69,"name":"A4","ticks":163440,"time":85.125,"velocity":1},{"duration":0.25,"durationTicks":480,"midi":69,"name":"A4","ticks":163680,"time":85.25,"velocity":1},{"duration":0.25,"durationTicks":480,"midi":69,"name":"A4","ticks":164160,"time":85.5,"velocity":1},{"duration":0.25,"durationTicks":480,"midi":69,"name":"A4","ticks":164640,"time":85.75,"velocity":1},{"duration":0.25,"durationTicks":480,"midi":69,"name":"A4","ticks":165120,"time":86,"velocity":1},{"duration":0.25,"durationTicks":480,"midi":70,"name":"A#4","ticks":165120,"time":86,"velocity":1},{"duration":0.25,"durationTicks":480,"midi":69,"name":"A4","ticks":165600,"time":86.25,"velocity":1},{"duration":0.25,"durationTicks":480,"midi":69,"name":"A4","ticks":166080,"time":86.5,"velocity":1},{"duration":0.25,"durationTicks":480,"midi":69,"name":"A4","ticks":166560,"time":86.75,"velocity":1},{"duration":0.0625,"durationTicks":120,"midi":69,"name":"A4","ticks":167040,"time":87,"velocity":1},{"duration":0.25,"durationTicks":480,"midi":70,"name":"A#4","ticks":167040,"time":87,"velocity":1},{"duration":0.0625,"durationTicks":120,"midi":69,"name":"A4","ticks":167160,"time":87.0625,"velocity":1},{"duration":0.0625,"durationTicks":120,"midi":69,"name":"A4","ticks":167280,"time":87.125,"velocity":1},{"duration":0.25,"durationTicks":480,"midi":69,"name":"A4","ticks":167520,"time":87.25,"velocity":1},{"duration":0.25,"durationTicks":480,"midi":69,"name":"A4","ticks":168000,"time":87.5,"velocity":1},{"duration":0.25,"durationTicks":480,"midi":69,"name":"A4","ticks":168480,"time":87.75,"velocity":1},{"duration":0.25,"durationTicks":480,"midi":69,"name":"A4","ticks":168960,"time":88,"velocity":1},{"duration":0.25,"durationTicks":480,"midi":70,"name":"A#4","ticks":168960,"time":88,"velocity":1},{"duration":0.25,"durationTicks":480,"midi":69,"name":"A4","ticks":169440,"time":88.25,"velocity":1},{"duration":0.25,"durationTicks":480,"midi":69,"name":"A4","ticks":169920,"time":88.5,"velocity":1},{"duration":0.25,"durationTicks":480,"midi":69,"name":"A4","ticks":170400,"time":88.75,"velocity":1},{"duration":0.0625,"durationTicks":120,"midi":69,"name":"A4","ticks":170880,"time":89,"velocity":1},{"duration":0.25,"durationTicks":480,"midi":70,"name":"A#4","ticks":170880,"time":89,"velocity":1},{"duration":0.0625,"durationTicks":120,"midi":69,"name":"A4","ticks":171000,"time":89.0625,"velocity":1},{"duration":0.0625,"durationTicks":120,"midi":69,"name":"A4","ticks":171120,"time":89.125,"velocity":1},{"duration":0.25,"durationTicks":480,"midi":69,"name":"A4","ticks":171360,"time":89.25,"velocity":1},{"duration":0.25,"durationTicks":480,"midi":69,"name":"A4","ticks":171840,"time":89.5,"velocity":1},{"duration":0.25,"durationTicks":480,"midi":69,"name":"A4","ticks":172320,"time":89.75,"velocity":1},{"duration":0.25,"durationTicks":480,"midi":69,"name":"A4","ticks":172800,"time":90,"velocity":1},{"duration":0.25,"durationTicks":480,"midi":70,"name":"A#4","ticks":172800,"time":90,"velocity":1},{"duration":0.25,"durationTicks":480,"midi":69,"name":"A4","ticks":173280,"time":90.25,"velocity":1},{"duration":0.25,"durationTicks":480,"midi":69,"name":"A4","ticks":173760,"time":90.5,"velocity":1},{"duration":0.25,"durationTicks":480,"midi":69,"name":"A4","ticks":174240,"time":90.75,"velocity":1},{"duration":0.0625,"durationTicks":120,"midi":69,"name":"A4","ticks":174720,"time":91,"velocity":1},{"duration":0.25,"durationTicks":480,"midi":70,"name":"A#4","ticks":174720,"time":91,"velocity":1},{"duration":0.0625,"durationTicks":120,"midi":69,"name":"A4","ticks":174840,"time":91.0625,"velocity":1},{"duration":0.0625,"durationTicks":120,"midi":69,"name":"A4","ticks":174960,"time":91.125,"velocity":1},{"duration":0.25,"durationTicks":480,"midi":69,"name":"A4","ticks":175200,"time":91.25,"velocity":1},{"duration":0.25,"durationTicks":480,"midi":69,"name":"A4","ticks":175680,"time":91.5,"velocity":1},{"duration":0.25,"durationTicks":480,"midi":69,"name":"A4","ticks":176160,"time":91.75,"velocity":1},{"duration":0.25,"durationTicks":480,"midi":69,"name":"A4","ticks":176640,"time":92,"velocity":1},{"duration":0.25,"durationTicks":480,"midi":70,"name":"A#4","ticks":176640,"time":92,"velocity":1},{"duration":0.25,"durationTicks":480,"midi":69,"name":"A4","ticks":177120,"time":92.25,"velocity":1},{"duration":0.25,"durationTicks":480,"midi":69,"name":"A4","ticks":177600,"time":92.5,"velocity":1},{"duration":0.25,"durationTicks":480,"midi":69,"name":"A4","ticks":178080,"time":92.75,"velocity":1},{"duration":0.0625,"durationTicks":120,"midi":69,"name":"A4","ticks":178560,"time":93,"velocity":1},{"duration":0.25,"durationTicks":480,"midi":70,"name":"A#4","ticks":178560,"time":93,"velocity":1},{"duration":0.0625,"durationTicks":120,"midi":69,"name":"A4","ticks":178680,"time":93.0625,"velocity":1},{"duration":0.0625,"durationTicks":120,"midi":69,"name":"A4","ticks":178800,"time":93.125,"velocity":1},{"duration":0.25,"durationTicks":480,"midi":69,"name":"A4","ticks":179040,"time":93.25,"velocity":1},{"duration":0.25,"durationTicks":480,"midi":69,"name":"A4","ticks":179520,"time":93.5,"velocity":1},{"duration":0.25,"durationTicks":480,"midi":69,"name":"A4","ticks":180000,"time":93.75,"velocity":1},{"duration":0.25,"durationTicks":480,"midi":69,"name":"A4","ticks":180480,"time":94,"velocity":1},{"duration":0.25,"durationTicks":480,"midi":70,"name":"A#4","ticks":180480,"time":94,"velocity":1},{"duration":0.25,"durationTicks":480,"midi":69,"name":"A4","ticks":180960,"time":94.25,"velocity":1},{"duration":0.25,"durationTicks":480,"midi":69,"name":"A4","ticks":181440,"time":94.5,"velocity":1},{"duration":0.25,"durationTicks":480,"midi":69,"name":"A4","ticks":181920,"time":94.75,"velocity":1},{"duration":0.0625,"durationTicks":120,"midi":69,"name":"A4","ticks":182400,"time":95,"velocity":1},{"duration":0.25,"durationTicks":480,"midi":70,"name":"A#4","ticks":182400,"time":95,"velocity":1},{"duration":0.0625,"durationTicks":120,"midi":69,"name":"A4","ticks":182520,"time":95.0625,"velocity":1},{"duration":0.0625,"durationTicks":120,"midi":69,"name":"A4","ticks":182640,"time":95.125,"velocity":1},{"duration":0.25,"durationTicks":480,"midi":69,"name":"A4","ticks":182880,"time":95.25,"velocity":1},{"duration":0.25,"durationTicks":480,"midi":69,"name":"A4","ticks":183360,"time":95.5,"velocity":1},{"duration":0.25,"durationTicks":480,"midi":69,"name":"A4","ticks":183840,"time":95.75,"velocity":1},{"duration":0.25,"durationTicks":480,"midi":69,"name":"A4","ticks":184320,"time":96,"velocity":1},{"duration":0.25,"durationTicks":480,"midi":70,"name":"A#4","ticks":184320,"time":96,"velocity":1},{"duration":0.25,"durationTicks":480,"midi":69,"name":"A4","ticks":184800,"time":96.25,"velocity":1},{"duration":0.25,"durationTicks":480,"midi":69,"name":"A4","ticks":185280,"time":96.5,"velocity":1},{"duration":0.25,"durationTicks":480,"midi":69,"name":"A4","ticks":185760,"time":96.75,"velocity":1},{"duration":0.0625,"durationTicks":120,"midi":69,"name":"A4","ticks":186240,"time":97,"velocity":1},{"duration":0.25,"durationTicks":480,"midi":70,"name":"A#4","ticks":186240,"time":97,"velocity":1},{"duration":0.0625,"durationTicks":120,"midi":69,"name":"A4","ticks":186360,"time":97.0625,"velocity":1},{"duration":0.0625,"durationTicks":120,"midi":69,"name":"A4","ticks":186480,"time":97.125,"velocity":1},{"duration":0.25,"durationTicks":480,"midi":69,"name":"A4","ticks":186720,"time":97.25,"velocity":1},{"duration":0.25,"durationTicks":480,"midi":69,"name":"A4","ticks":187200,"time":97.5,"velocity":1},{"duration":0.25,"durationTicks":480,"midi":69,"name":"A4","ticks":187680,"time":97.75,"velocity":1},{"duration":0.25,"durationTicks":480,"midi":69,"name":"A4","ticks":188160,"time":98,"velocity":1},{"duration":0.25,"durationTicks":480,"midi":70,"name":"A#4","ticks":188160,"time":98,"velocity":1},{"duration":0.25,"durationTicks":480,"midi":69,"name":"A4","ticks":188640,"time":98.25,"velocity":1},{"duration":0.25,"durationTicks":480,"midi":69,"name":"A4","ticks":189120,"time":98.5,"velocity":1},{"duration":0.25,"durationTicks":480,"midi":69,"name":"A4","ticks":189600,"time":98.75,"velocity":1},{"duration":0.0625,"durationTicks":120,"midi":69,"name":"A4","ticks":190080,"time":99,"velocity":1},{"duration":0.25,"durationTicks":480,"midi":70,"name":"A#4","ticks":190080,"time":99,"velocity":1},{"duration":0.0625,"durationTicks":120,"midi":69,"name":"A4","ticks":190200,"time":99.0625,"velocity":1},{"duration":0.0625,"durationTicks":120,"midi":69,"name":"A4","ticks":190320,"time":99.125,"velocity":1},{"duration":0.25,"durationTicks":480,"midi":69,"name":"A4","ticks":190560,"time":99.25,"velocity":1},{"duration":0.25,"durationTicks":480,"midi":69,"name":"A4","ticks":191040,"time":99.5,"velocity":1},{"duration":0.25,"durationTicks":480,"midi":69,"name":"A4","ticks":191520,"time":99.75,"velocity":1},{"duration":0.25,"durationTicks":480,"midi":69,"name":"A4","ticks":192000,"time":100,"velocity":1},{"duration":0.25,"durationTicks":480,"midi":70,"name":"A#4","ticks":192000,"time":100,"velocity":1},{"duration":0.25,"durationTicks":480,"midi":69,"name":"A4","ticks":192480,"time":100.25,"velocity":1},{"duration":0.25,"durationTicks":480,"midi":69,"name":"A4","ticks":192960,"time":100.5,"velocity":1},{"duration":0.25,"durationTicks":480,"midi":69,"name":"A4","ticks":193440,"time":100.75,"velocity":1},{"duration":0.0625,"durationTicks":120,"midi":69,"name":"A4","ticks":193920,"time":101,"velocity":1},{"duration":0.25,"durationTicks":480,"midi":70,"name":"A#4","ticks":193920,"time":101,"velocity":1},{"duration":0.0625,"durationTicks":120,"midi":69,"name":"A4","ticks":194040,"time":101.0625,"velocity":1},{"duration":0.0625,"durationTicks":120,"midi":69,"name":"A4","ticks":194160,"time":101.125,"velocity":1},{"duration":0.25,"durationTicks":480,"midi":69,"name":"A4","ticks":194400,"time":101.25,"velocity":1},{"duration":0.25,"durationTicks":480,"midi":69,"name":"A4","ticks":194880,"time":101.5,"velocity":1},{"duration":0.25,"durationTicks":480,"midi":69,"name":"A4","ticks":195360,"time":101.75,"velocity":1},{"duration":0.25,"durationTicks":480,"midi":69,"name":"A4","ticks":195840,"time":102,"velocity":1},{"duration":0.25,"durationTicks":480,"midi":70,"name":"A#4","ticks":195840,"time":102,"velocity":1},{"duration":0.25,"durationTicks":480,"midi":69,"name":"A4","ticks":196320,"time":102.25,"velocity":1},{"duration":0.25,"durationTicks":480,"midi":69,"name":"A4","ticks":196800,"time":102.5,"velocity":1},{"duration":0.25,"durationTicks":480,"midi":69,"name":"A4","ticks":197280,"time":102.75,"velocity":1},{"duration":0.0625,"durationTicks":120,"midi":69,"name":"A4","ticks":197760,"time":103,"velocity":1},{"duration":0.25,"durationTicks":480,"midi":70,"name":"A#4","ticks":197760,"time":103,"velocity":1},{"duration":0.0625,"durationTicks":120,"midi":69,"name":"A4","ticks":197880,"time":103.0625,"velocity":1},{"duration":0.0625,"durationTicks":120,"midi":69,"name":"A4","ticks":198000,"time":103.125,"velocity":1},{"duration":0.25,"durationTicks":480,"midi":69,"name":"A4","ticks":198240,"time":103.25,"velocity":1},{"duration":0.25,"durationTicks":480,"midi":69,"name":"A4","ticks":198720,"time":103.5,"velocity":1},{"duration":0.25,"durationTicks":480,"midi":69,"name":"A4","ticks":199200,"time":103.75,"velocity":1},{"duration":0.25,"durationTicks":480,"midi":69,"name":"A4","ticks":199680,"time":104,"velocity":1},{"duration":0.25,"durationTicks":480,"midi":70,"name":"A#4","ticks":199680,"time":104,"velocity":1},{"duration":0.25,"durationTicks":480,"midi":69,"name":"A4","ticks":200160,"time":104.25,"velocity":1},{"duration":0.25,"durationTicks":480,"midi":69,"name":"A4","ticks":200640,"time":104.5,"velocity":1},{"duration":0.25,"durationTicks":480,"midi":69,"name":"A4","ticks":201120,"time":104.75,"velocity":1},{"duration":0.0625,"durationTicks":120,"midi":69,"name":"A4","ticks":201600,"time":105,"velocity":1},{"duration":0.25,"durationTicks":480,"midi":70,"name":"A#4","ticks":201600,"time":105,"velocity":1},{"duration":0.0625,"durationTicks":120,"midi":69,"name":"A4","ticks":201720,"time":105.0625,"velocity":1},{"duration":0.0625,"durationTicks":120,"midi":69,"name":"A4","ticks":201840,"time":105.125,"velocity":1},{"duration":0.25,"durationTicks":480,"midi":69,"name":"A4","ticks":202080,"time":105.25,"velocity":1},{"duration":0.25,"durationTicks":480,"midi":69,"name":"A4","ticks":202560,"time":105.5,"velocity":1},{"duration":0.25,"durationTicks":480,"midi":69,"name":"A4","ticks":203040,"time":105.75,"velocity":1},{"duration":0.25,"durationTicks":480,"midi":69,"name":"A4","ticks":203520,"time":106,"velocity":1},{"duration":0.25,"durationTicks":480,"midi":70,"name":"A#4","ticks":203520,"time":106,"velocity":1},{"duration":0.25,"durationTicks":480,"midi":69,"name":"A4","ticks":204000,"time":106.25,"velocity":1},{"duration":0.25,"durationTicks":480,"midi":69,"name":"A4","ticks":204480,"time":106.5,"velocity":1},{"duration":0.25,"durationTicks":480,"midi":69,"name":"A4","ticks":204960,"time":106.75,"velocity":1},{"duration":0.0625,"durationTicks":120,"midi":69,"name":"A4","ticks":205440,"time":107,"velocity":1},{"duration":0.25,"durationTicks":480,"midi":70,"name":"A#4","ticks":205440,"time":107,"velocity":1},{"duration":0.0625,"durationTicks":120,"midi":69,"name":"A4","ticks":205560,"time":107.0625,"velocity":1},{"duration":0.0625,"durationTicks":120,"midi":69,"name":"A4","ticks":205680,"time":107.125,"velocity":1},{"duration":0.25,"durationTicks":480,"midi":69,"name":"A4","ticks":205920,"time":107.25,"velocity":1},{"duration":0.25,"durationTicks":480,"midi":69,"name":"A4","ticks":206400,"time":107.5,"velocity":1},{"duration":0.25,"durationTicks":480,"midi":69,"name":"A4","ticks":206880,"time":107.75,"velocity":1},{"duration":0.25,"durationTicks":480,"midi":69,"name":"A4","ticks":207360,"time":108,"velocity":1},{"duration":0.25,"durationTicks":480,"midi":70,"name":"A#4","ticks":207360,"time":108,"velocity":1},{"duration":0.25,"durationTicks":480,"midi":69,"name":"A4","ticks":207840,"time":108.25,"velocity":1},{"duration":0.25,"durationTicks":480,"midi":69,"name":"A4","ticks":208320,"time":108.5,"velocity":1},{"duration":0.25,"durationTicks":480,"midi":69,"name":"A4","ticks":208800,"time":108.75,"velocity":1},{"duration":0.0625,"durationTicks":120,"midi":69,"name":"A4","ticks":209280,"time":109,"velocity":1},{"duration":0.25,"durationTicks":480,"midi":70,"name":"A#4","ticks":209280,"time":109,"velocity":1},{"duration":0.0625,"durationTicks":120,"midi":69,"name":"A4","ticks":209400,"time":109.0625,"velocity":1},{"duration":0.0625,"durationTicks":120,"midi":69,"name":"A4","ticks":209520,"time":109.125,"velocity":1},{"duration":0.25,"durationTicks":480,"midi":69,"name":"A4","ticks":209760,"time":109.25,"velocity":1},{"duration":0.25,"durationTicks":480,"midi":69,"name":"A4","ticks":210240,"time":109.5,"velocity":1},{"duration":0.25,"durationTicks":480,"midi":69,"name":"A4","ticks":210720,"time":109.75,"velocity":1},{"duration":0.25,"durationTicks":480,"midi":69,"name":"A4","ticks":211200,"time":110,"velocity":1},{"duration":0.25,"durationTicks":480,"midi":70,"name":"A#4","ticks":211200,"time":110,"velocity":1},{"duration":0.25,"durationTicks":480,"midi":69,"name":"A4","ticks":211680,"time":110.25,"velocity":1},{"duration":0.25,"durationTicks":480,"midi":69,"name":"A4","ticks":212160,"time":110.5,"velocity":1},{"duration":0.25,"durationTicks":480,"midi":69,"name":"A4","ticks":212640,"time":110.75,"velocity":1},{"duration":0.0625,"durationTicks":120,"midi":69,"name":"A4","ticks":213120,"time":111,"velocity":1},{"duration":0.25,"durationTicks":480,"midi":70,"name":"A#4","ticks":213120,"time":111,"velocity":1},{"duration":0.0625,"durationTicks":120,"midi":69,"name":"A4","ticks":213240,"time":111.0625,"velocity":1},{"duration":0.0625,"durationTicks":120,"midi":69,"name":"A4","ticks":213360,"time":111.125,"velocity":1},{"duration":0.25,"durationTicks":480,"midi":69,"name":"A4","ticks":213600,"time":111.25,"velocity":1},{"duration":0.25,"durationTicks":480,"midi":69,"name":"A4","ticks":214080,"time":111.5,"velocity":1},{"duration":0.25,"durationTicks":480,"midi":69,"name":"A4","ticks":214560,"time":111.75,"velocity":1},{"duration":0.25,"durationTicks":480,"midi":69,"name":"A4","ticks":215040,"time":112,"velocity":1},{"duration":0.25,"durationTicks":480,"midi":70,"name":"A#4","ticks":215040,"time":112,"velocity":1},{"duration":0.25,"durationTicks":480,"midi":69,"name":"A4","ticks":215520,"time":112.25,"velocity":1},{"duration":0.25,"durationTicks":480,"midi":69,"name":"A4","ticks":216000,"time":112.5,"velocity":1},{"duration":0.25,"durationTicks":480,"midi":69,"name":"A4","ticks":216480,"time":112.75,"velocity":1},{"duration":0.0625,"durationTicks":120,"midi":69,"name":"A4","ticks":216960,"time":113,"velocity":1},{"duration":0.25,"durationTicks":480,"midi":70,"name":"A#4","ticks":216960,"time":113,"velocity":1},{"duration":0.0625,"durationTicks":120,"midi":69,"name":"A4","ticks":217080,"time":113.0625,"velocity":1},{"duration":0.0625,"durationTicks":120,"midi":69,"name":"A4","ticks":217200,"time":113.125,"velocity":1},{"duration":0.25,"durationTicks":480,"midi":69,"name":"A4","ticks":217440,"time":113.25,"velocity":1},{"duration":0.25,"durationTicks":480,"midi":69,"name":"A4","ticks":217920,"time":113.5,"velocity":1},{"duration":0.25,"durationTicks":480,"midi":69,"name":"A4","ticks":218400,"time":113.75,"velocity":1},{"duration":0.25,"durationTicks":480,"midi":69,"name":"A4","ticks":218880,"time":114,"velocity":1},{"duration":0.25,"durationTicks":480,"midi":70,"name":"A#4","ticks":218880,"time":114,"velocity":1},{"duration":0.25,"durationTicks":480,"midi":69,"name":"A4","ticks":219360,"time":114.25,"velocity":1},{"duration":0.25,"durationTicks":480,"midi":69,"name":"A4","ticks":219840,"time":114.5,"velocity":1},{"duration":0.25,"durationTicks":480,"midi":69,"name":"A4","ticks":220320,"time":114.75,"velocity":1},{"duration":0.0625,"durationTicks":120,"midi":69,"name":"A4","ticks":220800,"time":115,"velocity":1},{"duration":0.25,"durationTicks":480,"midi":70,"name":"A#4","ticks":220800,"time":115,"velocity":1},{"duration":0.0625,"durationTicks":120,"midi":69,"name":"A4","ticks":220920,"time":115.0625,"velocity":1},{"duration":0.0625,"durationTicks":120,"midi":69,"name":"A4","ticks":221040,"time":115.125,"velocity":1},{"duration":0.25,"durationTicks":480,"midi":69,"name":"A4","ticks":221280,"time":115.25,"velocity":1},{"duration":0.25,"durationTicks":480,"midi":69,"name":"A4","ticks":221760,"time":115.5,"velocity":1},{"duration":0.25,"durationTicks":480,"midi":69,"name":"A4","ticks":222240,"time":115.75,"velocity":1},{"duration":0.25,"durationTicks":480,"midi":69,"name":"A4","ticks":222720,"time":116,"velocity":1},{"duration":0.25,"durationTicks":480,"midi":70,"name":"A#4","ticks":222720,"time":116,"velocity":1},{"duration":0.25,"durationTicks":480,"midi":69,"name":"A4","ticks":223200,"time":116.25,"velocity":1},{"duration":0.25,"durationTicks":480,"midi":69,"name":"A4","ticks":223680,"time":116.5,"velocity":1},{"duration":0.25,"durationTicks":480,"midi":69,"name":"A4","ticks":224160,"time":116.75,"velocity":1},{"duration":0.0625,"durationTicks":120,"midi":69,"name":"A4","ticks":224640,"time":117,"velocity":1},{"duration":0.25,"durationTicks":480,"midi":70,"name":"A#4","ticks":224640,"time":117,"velocity":1},{"duration":0.0625,"durationTicks":120,"midi":69,"name":"A4","ticks":224760,"time":117.0625,"velocity":1},{"duration":0.0625,"durationTicks":120,"midi":69,"name":"A4","ticks":224880,"time":117.125,"velocity":1},{"duration":0.25,"durationTicks":480,"midi":69,"name":"A4","ticks":225120,"time":117.25,"velocity":1},{"duration":0.25,"durationTicks":480,"midi":69,"name":"A4","ticks":225600,"time":117.5,"velocity":1},{"duration":0.25,"durationTicks":480,"midi":69,"name":"A4","ticks":226080,"time":117.75,"velocity":1},{"duration":0.25,"durationTicks":480,"midi":69,"name":"A4","ticks":226560,"time":118,"velocity":1},{"duration":0.25,"durationTicks":480,"midi":70,"name":"A#4","ticks":226560,"time":118,"velocity":1},{"duration":0.25,"durationTicks":480,"midi":69,"name":"A4","ticks":227040,"time":118.25,"velocity":1},{"duration":0.25,"durationTicks":480,"midi":69,"name":"A4","ticks":227520,"time":118.5,"velocity":1},{"duration":0.25,"durationTicks":480,"midi":69,"name":"A4","ticks":228000,"time":118.75,"velocity":1},{"duration":0.0625,"durationTicks":120,"midi":69,"name":"A4","ticks":228480,"time":119,"velocity":1},{"duration":0.25,"durationTicks":480,"midi":70,"name":"A#4","ticks":228480,"time":119,"velocity":1},{"duration":0.0625,"durationTicks":120,"midi":69,"name":"A4","ticks":228600,"time":119.0625,"velocity":1},{"duration":0.0625,"durationTicks":120,"midi":69,"name":"A4","ticks":228720,"time":119.125,"velocity":1},{"duration":0.25,"durationTicks":480,"midi":69,"name":"A4","ticks":228960,"time":119.25,"velocity":1},{"duration":0.25,"durationTicks":480,"midi":69,"name":"A4","ticks":229440,"time":119.5,"velocity":1},{"duration":0.25,"durationTicks":480,"midi":69,"name":"A4","ticks":229920,"time":119.75,"velocity":1},{"duration":0.25,"durationTicks":480,"midi":69,"name":"A4","ticks":230400,"time":120,"velocity":1},{"duration":0.25,"durationTicks":480,"midi":70,"name":"A#4","ticks":230400,"time":120,"velocity":1},{"duration":0.25,"durationTicks":480,"midi":69,"name":"A4","ticks":230880,"time":120.25,"velocity":1},{"duration":0.25,"durationTicks":480,"midi":69,"name":"A4","ticks":231360,"time":120.5,"velocity":1},{"duration":0.25,"durationTicks":480,"midi":69,"name":"A4","ticks":231840,"time":120.75,"velocity":1},{"duration":0.0625,"durationTicks":120,"midi":69,"name":"A4","ticks":232320,"time":121,"velocity":1},{"duration":0.25,"durationTicks":480,"midi":70,"name":"A#4","ticks":232320,"time":121,"velocity":1},{"duration":0.0625,"durationTicks":120,"midi":69,"name":"A4","ticks":232440,"time":121.0625,"velocity":1},{"duration":0.0625,"durationTicks":120,"midi":69,"name":"A4","ticks":232560,"time":121.125,"velocity":1},{"duration":0.25,"durationTicks":480,"midi":69,"name":"A4","ticks":232800,"time":121.25,"velocity":1},{"duration":0.25,"durationTicks":480,"midi":69,"name":"A4","ticks":233280,"time":121.5,"velocity":1},{"duration":0.25,"durationTicks":480,"midi":69,"name":"A4","ticks":233760,"time":121.75,"velocity":1},{"duration":0.25,"durationTicks":480,"midi":69,"name":"A4","ticks":234240,"time":122,"velocity":1},{"duration":0.25,"durationTicks":480,"midi":70,"name":"A#4","ticks":234240,"time":122,"velocity":1},{"duration":0.25,"durationTicks":480,"midi":69,"name":"A4","ticks":234720,"time":122.25,"velocity":1},{"duration":0.25,"durationTicks":480,"midi":69,"name":"A4","ticks":235200,"time":122.5,"velocity":1},{"duration":0.25,"durationTicks":480,"midi":69,"name":"A4","ticks":235680,"time":122.75,"velocity":1},{"duration":0.0625,"durationTicks":120,"midi":69,"name":"A4","ticks":236160,"time":123,"velocity":1},{"duration":0.25,"durationTicks":480,"midi":70,"name":"A#4","ticks":236160,"time":123,"velocity":1},{"duration":0.0625,"durationTicks":120,"midi":69,"name":"A4","ticks":236280,"time":123.0625,"velocity":1},{"duration":0.0625,"durationTicks":120,"midi":69,"name":"A4","ticks":236400,"time":123.125,"velocity":1},{"duration":0.25,"durationTicks":480,"midi":69,"name":"A4","ticks":236640,"time":123.25,"velocity":1},{"duration":0.25,"durationTicks":480,"midi":69,"name":"A4","ticks":237120,"time":123.5,"velocity":1},{"duration":0.25,"durationTicks":480,"midi":69,"name":"A4","ticks":237600,"time":123.75,"velocity":1},{"duration":0.25,"durationTicks":480,"midi":69,"name":"A4","ticks":238080,"time":124,"velocity":1},{"duration":0.25,"durationTicks":480,"midi":70,"name":"A#4","ticks":238080,"time":124,"velocity":1},{"duration":0.25,"durationTicks":480,"midi":69,"name":"A4","ticks":238560,"time":124.25,"velocity":1},{"duration":0.25,"durationTicks":480,"midi":69,"name":"A4","ticks":239040,"time":124.5,"velocity":1},{"duration":0.25,"durationTicks":480,"midi":69,"name":"A4","ticks":239520,"time":124.75,"velocity":1},{"duration":0.0625,"durationTicks":120,"midi":69,"name":"A4","ticks":240000,"time":125,"velocity":1},{"duration":0.25,"durationTicks":480,"midi":70,"name":"A#4","ticks":240000,"time":125,"velocity":1},{"duration":0.0625,"durationTicks":120,"midi":69,"name":"A4","ticks":240120,"time":125.0625,"velocity":1},{"duration":0.0625,"durationTicks":120,"midi":69,"name":"A4","ticks":240240,"time":125.125,"velocity":1},{"duration":0.25,"durationTicks":480,"midi":69,"name":"A4","ticks":240480,"time":125.25,"velocity":1},{"duration":0.25,"durationTicks":480,"midi":69,"name":"A4","ticks":240960,"time":125.5,"velocity":1},{"duration":0.25,"durationTicks":480,"midi":69,"name":"A4","ticks":241440,"time":125.75,"velocity":1},{"duration":0.25,"durationTicks":480,"midi":69,"name":"A4","ticks":241920,"time":126,"velocity":1},{"duration":0.25,"durationTicks":480,"midi":70,"name":"A#4","ticks":241920,"time":126,"velocity":1},{"duration":0.25,"durationTicks":480,"midi":69,"name":"A4","ticks":242400,"time":126.25,"velocity":1},{"duration":0.25,"durationTicks":480,"midi":69,"name":"A4","ticks":242880,"time":126.5,"velocity":1},{"duration":0.25,"durationTicks":480,"midi":69,"name":"A4","ticks":243360,"time":126.75,"velocity":1},{"duration":0.0625,"durationTicks":120,"midi":69,"name":"A4","ticks":243840,"time":127,"velocity":1},{"duration":0.25,"durationTicks":480,"midi":70,"name":"A#4","ticks":243840,"time":127,"velocity":1},{"duration":0.0625,"durationTicks":120,"midi":69,"name":"A4","ticks":243960,"time":127.0625,"velocity":1},{"duration":0.0625,"durationTicks":120,"midi":69,"name":"A4","ticks":244080,"time":127.125,"velocity":1},{"duration":0.25,"durationTicks":480,"midi":69,"name":"A4","ticks":244320,"time":127.25,"velocity":1},{"duration":0.25,"durationTicks":480,"midi":69,"name":"A4","ticks":244800,"time":127.5,"velocity":1},{"duration":0.25,"durationTicks":480,"midi":69,"name":"A4","ticks":245280,"time":127.75,"velocity":1},{"duration":0.25,"durationTicks":480,"midi":69,"name":"A4","ticks":245760,"time":128,"velocity":1},{"duration":0.25,"durationTicks":480,"midi":70,"name":"A#4","ticks":245760,"time":128,"velocity":1},{"duration":0.25,"durationTicks":480,"midi":69,"name":"A4","ticks":246240,"time":128.25,"velocity":1},{"duration":0.25,"durationTicks":480,"midi":69,"name":"A4","ticks":246720,"time":128.5,"velocity":1},{"duration":0.25,"durationTicks":480,"midi":69,"name":"A4","ticks":247200,"time":128.75,"velocity":1},{"duration":0.0625,"durationTicks":120,"midi":69,"name":"A4","ticks":247680,"time":129,"velocity":1},{"duration":0.25,"durationTicks":480,"midi":70,"name":"A#4","ticks":247680,"time":129,"velocity":1},{"duration":0.0625,"durationTicks":120,"midi":69,"name":"A4","ticks":247800,"time":129.0625,"velocity":1},{"duration":0.0625,"durationTicks":120,"midi":69,"name":"A4","ticks":247920,"time":129.125,"velocity":1},{"duration":0.25,"durationTicks":480,"midi":69,"name":"A4","ticks":248160,"time":129.25,"velocity":1},{"duration":0.25,"durationTicks":480,"midi":69,"name":"A4","ticks":248640,"time":129.5,"velocity":1},{"duration":0.25,"durationTicks":480,"midi":69,"name":"A4","ticks":249120,"time":129.75,"velocity":1},{"duration":0.25,"durationTicks":480,"midi":69,"name":"A4","ticks":249600,"time":130,"velocity":1},{"duration":0.25,"durationTicks":480,"midi":70,"name":"A#4","ticks":249600,"time":130,"velocity":1},{"duration":0.25,"durationTicks":480,"midi":69,"name":"A4","ticks":250080,"time":130.25,"velocity":1},{"duration":0.25,"durationTicks":480,"midi":69,"name":"A4","ticks":250560,"time":130.5,"velocity":1},{"duration":0.25,"durationTicks":480,"midi":69,"name":"A4","ticks":251040,"time":130.75,"velocity":1},{"duration":0.0625,"durationTicks":120,"midi":69,"name":"A4","ticks":251520,"time":131,"velocity":1},{"duration":0.25,"durationTicks":480,"midi":70,"name":"A#4","ticks":251520,"time":131,"velocity":1},{"duration":0.0625,"durationTicks":120,"midi":69,"name":"A4","ticks":251640,"time":131.0625,"velocity":1},{"duration":0.0625,"durationTicks":120,"midi":69,"name":"A4","ticks":251760,"time":131.125,"velocity":1},{"duration":0.25,"durationTicks":480,"midi":69,"name":"A4","ticks":252000,"time":131.25,"velocity":1},{"duration":0.25,"durationTicks":480,"midi":69,"name":"A4","ticks":252480,"time":131.5,"velocity":1},{"duration":0.25,"durationTicks":480,"midi":69,"name":"A4","ticks":252960,"time":131.75,"velocity":1},{"duration":0.25,"durationTicks":480,"midi":69,"name":"A4","ticks":253440,"time":132,"velocity":1},{"duration":0.25,"durationTicks":480,"midi":70,"name":"A#4","ticks":253440,"time":132,"velocity":1},{"duration":0.25,"durationTicks":480,"midi":69,"name":"A4","ticks":253920,"time":132.25,"velocity":1},{"duration":0.25,"durationTicks":480,"midi":69,"name":"A4","ticks":254400,"time":132.5,"velocity":1},{"duration":0.25,"durationTicks":480,"midi":69,"name":"A4","ticks":254880,"time":132.75,"velocity":1},{"duration":0.0625,"durationTicks":120,"midi":69,"name":"A4","ticks":255360,"time":133,"velocity":1},{"duration":0.25,"durationTicks":480,"midi":70,"name":"A#4","ticks":255360,"time":133,"velocity":1},{"duration":0.0625,"durationTicks":120,"midi":69,"name":"A4","ticks":255480,"time":133.0625,"velocity":1},{"duration":0.0625,"durationTicks":120,"midi":69,"name":"A4","ticks":255600,"time":133.125,"velocity":1},{"duration":0.25,"durationTicks":480,"midi":69,"name":"A4","ticks":255840,"time":133.25,"velocity":1},{"duration":0.25,"durationTicks":480,"midi":69,"name":"A4","ticks":256320,"time":133.5,"velocity":1},{"duration":0.25,"durationTicks":480,"midi":69,"name":"A4","ticks":256800,"time":133.75,"velocity":1},{"duration":0.25,"durationTicks":480,"midi":69,"name":"A4","ticks":257280,"time":134,"velocity":1},{"duration":0.25,"durationTicks":480,"midi":70,"name":"A#4","ticks":257280,"time":134,"velocity":1},{"duration":0.25,"durationTicks":480,"midi":69,"name":"A4","ticks":257760,"time":134.25,"velocity":1},{"duration":0.25,"durationTicks":480,"midi":69,"name":"A4","ticks":258240,"time":134.5,"velocity":1},{"duration":0.25,"durationTicks":480,"midi":69,"name":"A4","ticks":258720,"time":134.75,"velocity":1},{"duration":0.0625,"durationTicks":120,"midi":69,"name":"A4","ticks":259200,"time":135,"velocity":1},{"duration":0.25,"durationTicks":480,"midi":70,"name":"A#4","ticks":259200,"time":135,"velocity":1},{"duration":0.0625,"durationTicks":120,"midi":69,"name":"A4","ticks":259320,"time":135.0625,"velocity":1},{"duration":0.0625,"durationTicks":120,"midi":69,"name":"A4","ticks":259440,"time":135.125,"velocity":1},{"duration":0.25,"durationTicks":480,"midi":69,"name":"A4","ticks":259680,"time":135.25,"velocity":1},{"duration":0.25,"durationTicks":480,"midi":69,"name":"A4","ticks":260160,"time":135.5,"velocity":1},{"duration":0.25,"durationTicks":480,"midi":69,"name":"A4","ticks":260640,"time":135.75,"velocity":1},{"duration":0.25,"durationTicks":480,"midi":69,"name":"A4","ticks":261120,"time":136,"velocity":1},{"duration":0.25,"durationTicks":480,"midi":70,"name":"A#4","ticks":261120,"time":136,"velocity":1},{"duration":0.25,"durationTicks":480,"midi":69,"name":"A4","ticks":261600,"time":136.25,"velocity":1},{"duration":0.25,"durationTicks":480,"midi":69,"name":"A4","ticks":262080,"time":136.5,"velocity":1},{"duration":0.25,"durationTicks":480,"midi":69,"name":"A4","ticks":262560,"time":136.75,"velocity":1},{"duration":0.0625,"durationTicks":120,"midi":69,"name":"A4","ticks":263040,"time":137,"velocity":1},{"duration":0.25,"durationTicks":480,"midi":70,"name":"A#4","ticks":263040,"time":137,"velocity":1},{"duration":0.0625,"durationTicks":120,"midi":69,"name":"A4","ticks":263160,"time":137.0625,"velocity":1},{"duration":0.0625,"durationTicks":120,"midi":69,"name":"A4","ticks":263280,"time":137.125,"velocity":1},{"duration":0.25,"durationTicks":480,"midi":69,"name":"A4","ticks":263520,"time":137.25,"velocity":1},{"duration":0.25,"durationTicks":480,"midi":69,"name":"A4","ticks":264000,"time":137.5,"velocity":1},{"duration":0.25,"durationTicks":480,"midi":69,"name":"A4","ticks":264480,"time":137.75,"velocity":1},{"duration":0.25,"durationTicks":480,"midi":69,"name":"A4","ticks":264960,"time":138,"velocity":1},{"duration":0.25,"durationTicks":480,"midi":70,"name":"A#4","ticks":264960,"time":138,"velocity":1},{"duration":0.25,"durationTicks":480,"midi":69,"name":"A4","ticks":265440,"time":138.25,"velocity":1},{"duration":0.25,"durationTicks":480,"midi":69,"name":"A4","ticks":265920,"time":138.5,"velocity":1},{"duration":0.25,"durationTicks":480,"midi":69,"name":"A4","ticks":266400,"time":138.75,"velocity":1},{"duration":0.0625,"durationTicks":120,"midi":69,"name":"A4","ticks":266880,"time":139,"velocity":1},{"duration":0.25,"durationTicks":480,"midi":70,"name":"A#4","ticks":266880,"time":139,"velocity":1},{"duration":0.0625,"durationTicks":120,"midi":69,"name":"A4","ticks":267000,"time":139.0625,"velocity":1},{"duration":0.0625,"durationTicks":120,"midi":69,"name":"A4","ticks":267120,"time":139.125,"velocity":1},{"duration":0.25,"durationTicks":480,"midi":69,"name":"A4","ticks":267360,"time":139.25,"velocity":1},{"duration":0.25,"durationTicks":480,"midi":69,"name":"A4","ticks":267840,"time":139.5,"velocity":1},{"duration":0.25,"durationTicks":480,"midi":69,"name":"A4","ticks":268320,"time":139.75,"velocity":1},{"duration":0.25,"durationTicks":480,"midi":69,"name":"A4","ticks":268800,"time":140,"velocity":1},{"duration":0.25,"durationTicks":480,"midi":70,"name":"A#4","ticks":268800,"time":140,"velocity":1},{"duration":0.25,"durationTicks":480,"midi":69,"name":"A4","ticks":269280,"time":140.25,"velocity":1},{"duration":0.25,"durationTicks":480,"midi":69,"name":"A4","ticks":269760,"time":140.5,"velocity":1},{"duration":0.25,"durationTicks":480,"midi":69,"name":"A4","ticks":270240,"time":140.75,"velocity":1},{"duration":0.0625,"durationTicks":120,"midi":69,"name":"A4","ticks":270720,"time":141,"velocity":1},{"duration":0.25,"durationTicks":480,"midi":70,"name":"A#4","ticks":270720,"time":141,"velocity":1},{"duration":0.0625,"durationTicks":120,"midi":69,"name":"A4","ticks":270840,"time":141.0625,"velocity":1},{"duration":0.0625,"durationTicks":120,"midi":69,"name":"A4","ticks":270960,"time":141.125,"velocity":1},{"duration":0.25,"durationTicks":480,"midi":69,"name":"A4","ticks":271200,"time":141.25,"velocity":1},{"duration":0.25,"durationTicks":480,"midi":69,"name":"A4","ticks":271680,"time":141.5,"velocity":1},{"duration":0.25,"durationTicks":480,"midi":69,"name":"A4","ticks":272160,"time":141.75,"velocity":1},{"duration":0.25,"durationTicks":480,"midi":69,"name":"A4","ticks":272640,"time":142,"velocity":1},{"duration":0.25,"durationTicks":480,"midi":70,"name":"A#4","ticks":272640,"time":142,"velocity":1},{"duration":0.25,"durationTicks":480,"midi":69,"name":"A4","ticks":273120,"time":142.25,"velocity":1},{"duration":0.25,"durationTicks":480,"midi":69,"name":"A4","ticks":273600,"time":142.5,"velocity":1},{"duration":0.25,"durationTicks":480,"midi":69,"name":"A4","ticks":274080,"time":142.75,"velocity":1},{"duration":0.0625,"durationTicks":120,"midi":69,"name":"A4","ticks":274560,"time":143,"velocity":1},{"duration":0.25,"durationTicks":480,"midi":70,"name":"A#4","ticks":274560,"time":143,"velocity":1},{"duration":0.0625,"durationTicks":120,"midi":69,"name":"A4","ticks":274680,"time":143.0625,"velocity":1},{"duration":0.0625,"durationTicks":120,"midi":69,"name":"A4","ticks":274800,"time":143.125,"velocity":1},{"duration":0.25,"durationTicks":480,"midi":69,"name":"A4","ticks":275040,"time":143.25,"velocity":1},{"duration":0.25,"durationTicks":480,"midi":69,"name":"A4","ticks":275520,"time":143.5,"velocity":1},{"duration":0.25,"durationTicks":480,"midi":69,"name":"A4","ticks":276000,"time":143.75,"velocity":1},{"duration":0.25,"durationTicks":480,"midi":69,"name":"A4","ticks":276480,"time":144,"velocity":1},{"duration":0.25,"durationTicks":480,"midi":70,"name":"A#4","ticks":276480,"time":144,"velocity":1},{"duration":0.25,"durationTicks":480,"midi":69,"name":"A4","ticks":276960,"time":144.25,"velocity":1},{"duration":0.25,"durationTicks":480,"midi":69,"name":"A4","ticks":277440,"time":144.5,"velocity":1},{"duration":0.25,"durationTicks":480,"midi":69,"name":"A4","ticks":277920,"time":144.75,"velocity":1},{"duration":0.0625,"durationTicks":120,"midi":69,"name":"A4","ticks":278400,"time":145,"velocity":1},{"duration":0.25,"durationTicks":480,"midi":70,"name":"A#4","ticks":278400,"time":145,"velocity":1},{"duration":0.0625,"durationTicks":120,"midi":69,"name":"A4","ticks":278520,"time":145.0625,"velocity":1},{"duration":0.0625,"durationTicks":120,"midi":69,"name":"A4","ticks":278640,"time":145.125,"velocity":1},{"duration":0.25,"durationTicks":480,"midi":69,"name":"A4","ticks":278880,"time":145.25,"velocity":1},{"duration":0.25,"durationTicks":480,"midi":69,"name":"A4","ticks":279360,"time":145.5,"velocity":1},{"duration":0.25,"durationTicks":480,"midi":69,"name":"A4","ticks":279840,"time":145.75,"velocity":1},{"duration":0.25,"durationTicks":480,"midi":69,"name":"A4","ticks":280320,"time":146,"velocity":1},{"duration":0.25,"durationTicks":480,"midi":70,"name":"A#4","ticks":280320,"time":146,"velocity":1},{"duration":0.25,"durationTicks":480,"midi":69,"name":"A4","ticks":280800,"time":146.25,"velocity":1},{"duration":0.25,"durationTicks":480,"midi":69,"name":"A4","ticks":281280,"time":146.5,"velocity":1},{"duration":0.25,"durationTicks":480,"midi":69,"name":"A4","ticks":281760,"time":146.75,"velocity":1},{"duration":0.0625,"durationTicks":120,"midi":69,"name":"A4","ticks":282240,"time":147,"velocity":1},{"duration":0.25,"durationTicks":480,"midi":70,"name":"A#4","ticks":282240,"time":147,"velocity":1},{"duration":0.0625,"durationTicks":120,"midi":69,"name":"A4","ticks":282360,"time":147.0625,"velocity":1},{"duration":0.0625,"durationTicks":120,"midi":69,"name":"A4","ticks":282480,"time":147.125,"velocity":1},{"duration":0.25,"durationTicks":480,"midi":69,"name":"A4","ticks":282720,"time":147.25,"velocity":1},{"duration":0.25,"durationTicks":480,"midi":69,"name":"A4","ticks":283200,"time":147.5,"velocity":1},{"duration":0.25,"durationTicks":480,"midi":69,"name":"A4","ticks":283680,"time":147.75,"velocity":1},{"duration":0.25,"durationTicks":480,"midi":69,"name":"A4","ticks":284160,"time":148,"velocity":1},{"duration":0.25,"durationTicks":480,"midi":70,"name":"A#4","ticks":284160,"time":148,"velocity":1},{"duration":0.25,"durationTicks":480,"midi":69,"name":"A4","ticks":284640,"time":148.25,"velocity":1},{"duration":0.25,"durationTicks":480,"midi":69,"name":"A4","ticks":285120,"time":148.5,"velocity":1},{"duration":0.25,"durationTicks":480,"midi":69,"name":"A4","ticks":285600,"time":148.75,"velocity":1},{"duration":0.0625,"durationTicks":120,"midi":69,"name":"A4","ticks":286080,"time":149,"velocity":1},{"duration":0.25,"durationTicks":480,"midi":70,"name":"A#4","ticks":286080,"time":149,"velocity":1},{"duration":0.0625,"durationTicks":120,"midi":69,"name":"A4","ticks":286200,"time":149.0625,"velocity":1},{"duration":0.0625,"durationTicks":120,"midi":69,"name":"A4","ticks":286320,"time":149.125,"velocity":1},{"duration":0.25,"durationTicks":480,"midi":69,"name":"A4","ticks":286560,"time":149.25,"velocity":1},{"duration":0.25,"durationTicks":480,"midi":69,"name":"A4","ticks":287040,"time":149.5,"velocity":1},{"duration":0.25,"durationTicks":480,"midi":69,"name":"A4","ticks":287520,"time":149.75,"velocity":1},{"duration":0.25,"durationTicks":480,"midi":69,"name":"A4","ticks":288000,"time":150,"velocity":1},{"duration":0.25,"durationTicks":480,"midi":70,"name":"A#4","ticks":288000,"time":150,"velocity":1},{"duration":0.25,"durationTicks":480,"midi":69,"name":"A4","ticks":288480,"time":150.25,"velocity":1},{"duration":0.25,"durationTicks":480,"midi":69,"name":"A4","ticks":288960,"time":150.5,"velocity":1},{"duration":0.25,"durationTicks":480,"midi":69,"name":"A4","ticks":289440,"time":150.75,"velocity":1},{"duration":0.0625,"durationTicks":120,"midi":69,"name":"A4","ticks":289920,"time":151,"velocity":1},{"duration":0.25,"durationTicks":480,"midi":70,"name":"A#4","ticks":289920,"time":151,"velocity":1},{"duration":0.0625,"durationTicks":120,"midi":69,"name":"A4","ticks":290040,"time":151.0625,"velocity":1},{"duration":0.0625,"durationTicks":120,"midi":69,"name":"A4","ticks":290160,"time":151.125,"velocity":1},{"duration":0.25,"durationTicks":480,"midi":69,"name":"A4","ticks":290400,"time":151.25,"velocity":1},{"duration":0.25,"durationTicks":480,"midi":69,"name":"A4","ticks":290880,"time":151.5,"velocity":1},{"duration":0.25,"durationTicks":480,"midi":69,"name":"A4","ticks":291360,"time":151.75,"velocity":1},{"duration":0.25,"durationTicks":480,"midi":69,"name":"A4","ticks":291840,"time":152,"velocity":1},{"duration":0.25,"durationTicks":480,"midi":70,"name":"A#4","ticks":291840,"time":152,"velocity":1},{"duration":0.25,"durationTicks":480,"midi":69,"name":"A4","ticks":292320,"time":152.25,"velocity":1},{"duration":0.25,"durationTicks":480,"midi":69,"name":"A4","ticks":292800,"time":152.5,"velocity":1},{"duration":0.25,"durationTicks":480,"midi":69,"name":"A4","ticks":293280,"time":152.75,"velocity":1},{"duration":0.0625,"durationTicks":120,"midi":69,"name":"A4","ticks":293760,"time":153,"velocity":1},{"duration":0.25,"durationTicks":480,"midi":70,"name":"A#4","ticks":293760,"time":153,"velocity":1},{"duration":0.0625,"durationTicks":120,"midi":69,"name":"A4","ticks":293880,"time":153.0625,"velocity":1},{"duration":0.0625,"durationTicks":120,"midi":69,"name":"A4","ticks":294000,"time":153.125,"velocity":1},{"duration":0.25,"durationTicks":480,"midi":69,"name":"A4","ticks":294240,"time":153.25,"velocity":1},{"duration":0.25,"durationTicks":480,"midi":69,"name":"A4","ticks":294720,"time":153.5,"velocity":1},{"duration":0.25,"durationTicks":480,"midi":69,"name":"A4","ticks":295200,"time":153.75,"velocity":1},{"duration":0.25,"durationTicks":480,"midi":69,"name":"A4","ticks":295680,"time":154,"velocity":1},{"duration":0.25,"durationTicks":480,"midi":70,"name":"A#4","ticks":295680,"time":154,"velocity":1},{"duration":0.25,"durationTicks":480,"midi":69,"name":"A4","ticks":296160,"time":154.25,"velocity":1},{"duration":0.25,"durationTicks":480,"midi":69,"name":"A4","ticks":296640,"time":154.5,"velocity":1},{"duration":0.25,"durationTicks":480,"midi":69,"name":"A4","ticks":297120,"time":154.75,"velocity":1},{"duration":0.0625,"durationTicks":120,"midi":69,"name":"A4","ticks":297600,"time":155,"velocity":1},{"duration":0.25,"durationTicks":480,"midi":70,"name":"A#4","ticks":297600,"time":155,"velocity":1},{"duration":0.0625,"durationTicks":120,"midi":69,"name":"A4","ticks":297720,"time":155.0625,"velocity":1},{"duration":0.0625,"durationTicks":120,"midi":69,"name":"A4","ticks":297840,"time":155.125,"velocity":1},{"duration":0.25,"durationTicks":480,"midi":69,"name":"A4","ticks":298080,"time":155.25,"velocity":1},{"duration":0.25,"durationTicks":480,"midi":69,"name":"A4","ticks":298560,"time":155.5,"velocity":1},{"duration":0.25,"durationTicks":480,"midi":69,"name":"A4","ticks":299040,"time":155.75,"velocity":1},{"duration":0.25,"durationTicks":480,"midi":69,"name":"A4","ticks":299520,"time":156,"velocity":1},{"duration":0.25,"durationTicks":480,"midi":70,"name":"A#4","ticks":299520,"time":156,"velocity":1},{"duration":0.25,"durationTicks":480,"midi":69,"name":"A4","ticks":300000,"time":156.25,"velocity":1},{"duration":0.25,"durationTicks":480,"midi":69,"name":"A4","ticks":300480,"time":156.5,"velocity":1},{"duration":0.25,"durationTicks":480,"midi":69,"name":"A4","ticks":300960,"time":156.75,"velocity":1},{"duration":0.0625,"durationTicks":120,"midi":69,"name":"A4","ticks":301440,"time":157,"velocity":1},{"duration":0.25,"durationTicks":480,"midi":70,"name":"A#4","ticks":301440,"time":157,"velocity":1},{"duration":0.0625,"durationTicks":120,"midi":69,"name":"A4","ticks":301560,"time":157.0625,"velocity":1},{"duration":0.0625,"durationTicks":120,"midi":69,"name":"A4","ticks":301680,"time":157.125,"velocity":1},{"duration":0.25,"durationTicks":480,"midi":69,"name":"A4","ticks":301920,"time":157.25,"velocity":1},{"duration":0.25,"durationTicks":480,"midi":69,"name":"A4","ticks":302400,"time":157.5,"velocity":1},{"duration":0.25,"durationTicks":480,"midi":69,"name":"A4","ticks":302880,"time":157.75,"velocity":1},{"duration":0.25,"durationTicks":480,"midi":69,"name":"A4","ticks":303360,"time":158,"velocity":1},{"duration":0.25,"durationTicks":480,"midi":70,"name":"A#4","ticks":303360,"time":158,"velocity":1},{"duration":0.25,"durationTicks":480,"midi":69,"name":"A4","ticks":303840,"time":158.25,"velocity":1},{"duration":0.25,"durationTicks":480,"midi":69,"name":"A4","ticks":304320,"time":158.5,"velocity":1},{"duration":0.25,"durationTicks":480,"midi":69,"name":"A4","ticks":304800,"time":158.75,"velocity":1},{"duration":0.0625,"durationTicks":120,"midi":69,"name":"A4","ticks":305280,"time":159,"velocity":1},{"duration":0.25,"durationTicks":480,"midi":70,"name":"A#4","ticks":305280,"time":159,"velocity":1},{"duration":0.0625,"durationTicks":120,"midi":69,"name":"A4","ticks":305400,"time":159.0625,"velocity":1},{"duration":0.0625,"durationTicks":120,"midi":69,"name":"A4","ticks":305520,"time":159.125,"velocity":1},{"duration":0.25,"durationTicks":480,"midi":69,"name":"A4","ticks":305760,"time":159.25,"velocity":1},{"duration":0.25,"durationTicks":480,"midi":69,"name":"A4","ticks":306240,"time":159.5,"velocity":1},{"duration":0.25,"durationTicks":480,"midi":69,"name":"A4","ticks":306720,"time":159.75,"velocity":1},{"duration":0.25,"durationTicks":480,"midi":69,"name":"A4","ticks":307200,"time":160,"velocity":1},{"duration":0.25,"durationTicks":480,"midi":70,"name":"A#4","ticks":307200,"time":160,"velocity":1},{"duration":0.25,"durationTicks":480,"midi":69,"name":"A4","ticks":307680,"time":160.25,"velocity":1},{"duration":0.25,"durationTicks":480,"midi":69,"name":"A4","ticks":308160,"time":160.5,"velocity":1},{"duration":0.25,"durationTicks":480,"midi":69,"name":"A4","ticks":308640,"time":160.75,"velocity":1},{"duration":0.0625,"durationTicks":120,"midi":69,"name":"A4","ticks":309120,"time":161,"velocity":1},{"duration":0.25,"durationTicks":480,"midi":70,"name":"A#4","ticks":309120,"time":161,"velocity":1},{"duration":0.0625,"durationTicks":120,"midi":69,"name":"A4","ticks":309240,"time":161.0625,"velocity":1},{"duration":0.0625,"durationTicks":120,"midi":69,"name":"A4","ticks":309360,"time":161.125,"velocity":1},{"duration":0.25,"durationTicks":480,"midi":69,"name":"A4","ticks":309600,"time":161.25,"velocity":1},{"duration":0.25,"durationTicks":480,"midi":69,"name":"A4","ticks":310080,"time":161.5,"velocity":1},{"duration":0.25,"durationTicks":480,"midi":69,"name":"A4","ticks":310560,"time":161.75,"velocity":1},{"duration":0.25,"durationTicks":480,"midi":69,"name":"A4","ticks":311040,"time":162,"velocity":1},{"duration":0.25,"durationTicks":480,"midi":70,"name":"A#4","ticks":311040,"time":162,"velocity":1},{"duration":0.25,"durationTicks":480,"midi":69,"name":"A4","ticks":311520,"time":162.25,"velocity":1},{"duration":0.25,"durationTicks":480,"midi":69,"name":"A4","ticks":312000,"time":162.5,"velocity":1},{"duration":0.25,"durationTicks":480,"midi":69,"name":"A4","ticks":312480,"time":162.75,"velocity":1},{"duration":0.0625,"durationTicks":120,"midi":69,"name":"A4","ticks":312960,"time":163,"velocity":1},{"duration":0.25,"durationTicks":480,"midi":70,"name":"A#4","ticks":312960,"time":163,"velocity":1},{"duration":0.0625,"durationTicks":120,"midi":69,"name":"A4","ticks":313080,"time":163.0625,"velocity":1},{"duration":0.0625,"durationTicks":120,"midi":69,"name":"A4","ticks":313200,"time":163.125,"velocity":1},{"duration":0.25,"durationTicks":480,"midi":69,"name":"A4","ticks":313440,"time":163.25,"velocity":1},{"duration":0.25,"durationTicks":480,"midi":69,"name":"A4","ticks":313920,"time":163.5,"velocity":1},{"duration":0.25,"durationTicks":480,"midi":69,"name":"A4","ticks":314400,"time":163.75,"velocity":1},{"duration":0.25,"durationTicks":480,"midi":69,"name":"A4","ticks":314880,"time":164,"velocity":1},{"duration":0.25,"durationTicks":480,"midi":70,"name":"A#4","ticks":314880,"time":164,"velocity":1},{"duration":0.25,"durationTicks":480,"midi":69,"name":"A4","ticks":315360,"time":164.25,"velocity":1},{"duration":0.25,"durationTicks":480,"midi":69,"name":"A4","ticks":315840,"time":164.5,"velocity":1},{"duration":0.25,"durationTicks":480,"midi":69,"name":"A4","ticks":316320,"time":164.75,"velocity":1},{"duration":0.0625,"durationTicks":120,"midi":69,"name":"A4","ticks":316800,"time":165,"velocity":1},{"duration":0.25,"durationTicks":480,"midi":70,"name":"A#4","ticks":316800,"time":165,"velocity":1},{"duration":0.0625,"durationTicks":120,"midi":69,"name":"A4","ticks":316920,"time":165.0625,"velocity":1},{"duration":0.0625,"durationTicks":120,"midi":69,"name":"A4","ticks":317040,"time":165.125,"velocity":1},{"duration":0.25,"durationTicks":480,"midi":69,"name":"A4","ticks":317280,"time":165.25,"velocity":1},{"duration":0.25,"durationTicks":480,"midi":69,"name":"A4","ticks":317760,"time":165.5,"velocity":1},{"duration":0.25,"durationTicks":480,"midi":69,"name":"A4","ticks":318240,"time":165.75,"velocity":1},{"duration":0.25,"durationTicks":480,"midi":69,"name":"A4","ticks":318720,"time":166,"velocity":1},{"duration":0.25,"durationTicks":480,"midi":70,"name":"A#4","ticks":318720,"time":166,"velocity":1},{"duration":0.25,"durationTicks":480,"midi":69,"name":"A4","ticks":319200,"time":166.25,"velocity":1},{"duration":0.25,"durationTicks":480,"midi":69,"name":"A4","ticks":319680,"time":166.5,"velocity":1},{"duration":0.25,"durationTicks":480,"midi":69,"name":"A4","ticks":320160,"time":166.75,"velocity":1},{"duration":0.0625,"durationTicks":120,"midi":69,"name":"A4","ticks":320640,"time":167,"velocity":1},{"duration":0.25,"durationTicks":480,"midi":70,"name":"A#4","ticks":320640,"time":167,"velocity":1},{"duration":0.0625,"durationTicks":120,"midi":69,"name":"A4","ticks":320760,"time":167.0625,"velocity":1},{"duration":0.0625,"durationTicks":120,"midi":69,"name":"A4","ticks":320880,"time":167.125,"velocity":1},{"duration":0.25,"durationTicks":480,"midi":69,"name":"A4","ticks":321120,"time":167.25,"velocity":1},{"duration":0.25,"durationTicks":480,"midi":69,"name":"A4","ticks":321600,"time":167.5,"velocity":1},{"duration":0.25,"durationTicks":480,"midi":69,"name":"A4","ticks":322080,"time":167.75,"velocity":1},{"duration":0.25,"durationTicks":480,"midi":69,"name":"A4","ticks":322560,"time":168,"velocity":1},{"duration":0.25,"durationTicks":480,"midi":70,"name":"A#4","ticks":322560,"time":168,"velocity":1},{"duration":0.25,"durationTicks":480,"midi":69,"name":"A4","ticks":323040,"time":168.25,"velocity":1},{"duration":0.25,"durationTicks":480,"midi":69,"name":"A4","ticks":323520,"time":168.5,"velocity":1},{"duration":0.25,"durationTicks":480,"midi":69,"name":"A4","ticks":324000,"time":168.75,"velocity":1},{"duration":0.0625,"durationTicks":120,"midi":69,"name":"A4","ticks":324480,"time":169,"velocity":1},{"duration":0.25,"durationTicks":480,"midi":70,"name":"A#4","ticks":324480,"time":169,"velocity":1},{"duration":0.0625,"durationTicks":120,"midi":69,"name":"A4","ticks":324600,"time":169.0625,"velocity":1},{"duration":0.0625,"durationTicks":120,"midi":69,"name":"A4","ticks":324720,"time":169.125,"velocity":1},{"duration":0.25,"durationTicks":480,"midi":69,"name":"A4","ticks":324960,"time":169.25,"velocity":1},{"duration":0.25,"durationTicks":480,"midi":69,"name":"A4","ticks":325440,"time":169.5,"velocity":1},{"duration":0.25,"durationTicks":480,"midi":69,"name":"A4","ticks":325920,"time":169.75,"velocity":1},{"duration":0.25,"durationTicks":480,"midi":69,"name":"A4","ticks":326400,"time":170,"velocity":1},{"duration":0.25,"durationTicks":480,"midi":70,"name":"A#4","ticks":326400,"time":170,"velocity":1},{"duration":0.25,"durationTicks":480,"midi":69,"name":"A4","ticks":326880,"time":170.25,"velocity":1},{"duration":0.25,"durationTicks":480,"midi":69,"name":"A4","ticks":327360,"time":170.5,"velocity":1},{"duration":0.25,"durationTicks":480,"midi":69,"name":"A4","ticks":327840,"time":170.75,"velocity":1},{"duration":0.0625,"durationTicks":120,"midi":69,"name":"A4","ticks":328320,"time":171,"velocity":1},{"duration":0.25,"durationTicks":480,"midi":70,"name":"A#4","ticks":328320,"time":171,"velocity":1},{"duration":0.0625,"durationTicks":120,"midi":69,"name":"A4","ticks":328440,"time":171.0625,"velocity":1},{"duration":0.0625,"durationTicks":120,"midi":69,"name":"A4","ticks":328560,"time":171.125,"velocity":1},{"duration":0.25,"durationTicks":480,"midi":69,"name":"A4","ticks":328800,"time":171.25,"velocity":1},{"duration":0.25,"durationTicks":480,"midi":69,"name":"A4","ticks":329280,"time":171.5,"velocity":1},{"duration":0.25,"durationTicks":480,"midi":69,"name":"A4","ticks":329760,"time":171.75,"velocity":1},{"duration":0.25,"durationTicks":480,"midi":69,"name":"A4","ticks":330240,"time":172,"velocity":1},{"duration":0.25,"durationTicks":480,"midi":70,"name":"A#4","ticks":330240,"time":172,"velocity":1},{"duration":0.25,"durationTicks":480,"midi":69,"name":"A4","ticks":330720,"time":172.25,"velocity":1},{"duration":0.25,"durationTicks":480,"midi":69,"name":"A4","ticks":331200,"time":172.5,"velocity":1},{"duration":0.25,"durationTicks":480,"midi":69,"name":"A4","ticks":331680,"time":172.75,"velocity":1},{"duration":0.0625,"durationTicks":120,"midi":69,"name":"A4","ticks":332160,"time":173,"velocity":1},{"duration":0.25,"durationTicks":480,"midi":70,"name":"A#4","ticks":332160,"time":173,"velocity":1},{"duration":0.0625,"durationTicks":120,"midi":69,"name":"A4","ticks":332280,"time":173.0625,"velocity":1},{"duration":0.0625,"durationTicks":120,"midi":69,"name":"A4","ticks":332400,"time":173.125,"velocity":1},{"duration":0.25,"durationTicks":480,"midi":69,"name":"A4","ticks":332640,"time":173.25,"velocity":1},{"duration":0.25,"durationTicks":480,"midi":69,"name":"A4","ticks":333120,"time":173.5,"velocity":1},{"duration":0.25,"durationTicks":480,"midi":69,"name":"A4","ticks":333600,"time":173.75,"velocity":1}],"channel":9,"instrument":{"family":"drums","number":0,"name":"standard kit"},"controlChanges":{"7":[{"number":7,"ticks":0,"time":0,"value":0.8031496062992126}],"10":[{"number":10,"ticks":0,"time":0,"value":0.5039370078740157}]},"pitchBends":[],"endOfTrackTicks":334080},{"name":"lyrics","notes":[{"duration":0.25,"durationTicks":480,"midi":84,"name":"C6","ticks":1920,"time":1,"velocity":1,"text":"This was a triumph"},{"duration":0.25,"durationTicks":480,"midi":84,"name":"C6","ticks":9120,"time":4.75,"velocity":1,"text":"I\'m making a note here;"},{"duration":0.25,"durationTicks":480,"midi":84,"name":"C6","ticks":13440,"time":7,"velocity":1,"text":"Huge success"},{"duration":0.25,"durationTicks":480,"midi":84,"name":"C6","ticks":18720,"time":9.75,"velocity":1,"text":"It\'s hard to overstate"},{"duration":0.25,"durationTicks":480,"midi":84,"name":"C6","ticks":23520,"time":12.25,"velocity":1,"text":"My satisfaction"},{"duration":0.25,"durationTicks":480,"midi":84,"name":"C6","ticks":32640,"time":17,"velocity":1,"text":"Aperture Science:"},{"duration":0.25,"durationTicks":480,"midi":84,"name":"C6","ticks":39840,"time":20.75,"velocity":1,"text":"We do what we must"},{"duration":0.25,"durationTicks":480,"midi":84,"name":"C6","ticks":43200,"time":22.5,"velocity":1,"text":"Because"},{"duration":0.25,"durationTicks":480,"midi":84,"name":"C6","ticks":45120,"time":23.5,"velocity":1,"text":"we can"},{"duration":0.25,"durationTicks":480,"midi":84,"name":"C6","ticks":49920,"time":26,"velocity":1,"text":"For the good of all of us"},{"duration":0.25,"durationTicks":480,"midi":84,"name":"C6","ticks":56160,"time":29.25,"velocity":1,"text":"Except the ones who are dead"},{"duration":0.25,"durationTicks":480,"midi":84,"name":"C6","ticks":60480,"time":31.5,"velocity":1,"text":"But there\'s no sense crying"},{"duration":0.25,"durationTicks":480,"midi":84,"name":"C6","ticks":64800,"time":33.75,"velocity":1,"text":"Over every mistake"},{"duration":0.25,"durationTicks":480,"midi":84,"name":"C6","ticks":68160,"time":35.5,"velocity":1,"text":"You just keep on trying"},{"duration":0.25,"durationTicks":480,"midi":84,"name":"C6","ticks":72480,"time":37.75,"velocity":1,"text":"Till you run out of cake"},{"duration":0.25,"durationTicks":480,"midi":84,"name":"C6","ticks":75840,"time":39.5,"velocity":1,"text":"And the science gets done"},{"duration":0.25,"durationTicks":480,"midi":84,"name":"C6","ticks":79680,"time":41.5,"velocity":1,"text":"And you make a neat gun"},{"duration":0.25,"durationTicks":480,"midi":84,"name":"C6","ticks":84000,"time":43.75,"velocity":1,"text":"For the people who are"},{"duration":0.25,"durationTicks":480,"midi":84,"name":"C6","ticks":87360,"time":45.5,"velocity":1,"text":"Still alive"}],"channel":15,"instrument":{"family":"sound effects","number":121,"name":"breath noise"},"controlChanges":{},"pitchBends":[]}]}');var c={};!function(i,t,e,n){function o(i){return i&&"object"==typeof i&&"default"in i?i:{default:i}}var a=o(t),s=o(e),c=o(n),r=function(i,t,e){return{endTime:t,insertTime:e,type:"exponentialRampToValue",value:i}},d=function(i,t,e){return{endTime:t,insertTime:e,type:"linearRampToValue",value:i}},m=function(i,t){return{startTime:t,type:"setValue",value:i}},u=function(i,t,e){return{duration:e,startTime:t,type:"setValueCurve",values:i}},l=function(i,t,e){var n=e.startTime,o=e.target,a=e.timeConstant;return o+(t-o)*Math.exp((n-i)/a)},k=function(i){return"exponentialRampToValue"===i.type},v=function(i){return"linearRampToValue"===i.type},y=function(i){return k(i)||v(i)},h=function(i){return"setValue"===i.type},T=function(i){return"setValueCurve"===i.type},p=function i(t,e,n,o){var a=t[e];return void 0===a?o:y(a)||h(a)?a.value:T(a)?a.values[a.values.length-1]:l(n,i(t,e-1,a.startTime,o),a)},f=function(i,t,e,n,o){return void 0===e?[n.insertTime,o]:y(e)?[e.endTime,e.value]:h(e)?[e.startTime,e.value]:T(e)?[e.startTime+e.duration,e.values[e.values.length-1]]:[e.startTime,p(i,t-1,e.startTime,o)]},_=function(i){return"cancelAndHold"===i.type},A=function(i){return"cancelScheduledValues"===i.type},g=function(i){return _(i)||A(i)?i.cancelTime:k(i)||v(i)?i.endTime:i.startTime},C=function(i,t,e,n){var o=n.endTime,a=n.value;return e===a?a:0<e&&0<a||e<0&&a<0?e*Math.pow(a/e,(i-t)/(o-t)):0},D=function(i,t,e,n){return e+(i-t)/(n.endTime-t)*(n.value-e)},x=function(i,t){var e=Math.floor(t),n=Math.ceil(t);return e===n?i[e]:(1-(t-e))*i[e]+(1-(n-t))*i[n]},w=function(i,t){var e=t.duration,n=t.startTime,o=t.values,a=(i-n)/e*(o.length-1);return x(o,a)},b=function(i){return"setTarget"===i.type},F=function(i){function t(i){s.default(this,t),this._automationEvents=[],this._currenTime=0,this._defaultValue=i}return c.default(t,[{key:i,value:function(){return this._automationEvents[Symbol.iterator]()}},{key:"add",value:function(i){var t=g(i);if(_(i)||A(i)){var e=this._automationEvents.findIndex((function(e){return A(i)&&T(e)?e.startTime+e.duration>=t:g(e)>=t})),n=this._automationEvents[e];if(-1!==e&&(this._automationEvents=this._automationEvents.slice(0,e)),_(i)){var o=this._automationEvents[this._automationEvents.length-1];if(void 0!==n&&y(n)){if(b(o))throw new Error("The internal list is malformed.");var a=T(o)?o.startTime+o.duration:g(o),s=T(o)?o.values[o.values.length-1]:o.value,c=k(n)?C(t,a,s,n):D(t,a,s,n),l=k(n)?r(c,t,this._currenTime):d(c,t,this._currenTime);this._automationEvents.push(l)}void 0!==o&&b(o)&&this._automationEvents.push(m(this.getValue(t),t)),void 0!==o&&T(o)&&o.startTime+o.duration>t&&(this._automationEvents[this._automationEvents.length-1]=u(new Float32Array([6,7]),o.startTime,t-o.startTime))}}else{var h=this._automationEvents.findIndex((function(i){return g(i)>t})),p=-1===h?this._automationEvents[this._automationEvents.length-1]:this._automationEvents[h-1];if(void 0!==p&&T(p)&&g(p)+p.duration>t)return!1;var f=k(i)?r(i.value,i.endTime,this._currenTime):v(i)?d(i.value,t,this._currenTime):i;if(-1===h)this._automationEvents.push(f);else{if(T(i)&&t+i.duration>g(this._automationEvents[h]))return!1;this._automationEvents.splice(h,0,f)}}return!0}},{key:"flush",value:function(i){var t=this._automationEvents.findIndex((function(t){return g(t)>i}));if(t>1){var e=this._automationEvents.slice(t-1),n=e[0];b(n)&&e.unshift(m(p(this._automationEvents,t-2,n.startTime,this._defaultValue),n.startTime)),this._automationEvents=e}}},{key:"getValue",value:function(i){if(0===this._automationEvents.length)return this._defaultValue;var t=this._automationEvents.findIndex((function(t){return g(t)>i})),e=this._automationEvents[t],n=(-1===t?this._automationEvents.length:t)-1,o=this._automationEvents[n];if(void 0!==o&&b(o)&&(void 0===e||!y(e)||e.insertTime>i))return l(i,p(this._automationEvents,n-1,o.startTime,this._defaultValue),o);if(void 0!==o&&h(o)&&(void 0===e||!y(e)))return o.value;if(void 0!==o&&T(o)&&(void 0===e||!y(e)||o.startTime+o.duration>i))return i<o.startTime+o.duration?w(i,o):o.values[o.values.length-1];if(void 0!==o&&y(o)&&(void 0===e||!y(e)))return o.value;if(void 0!==e&&k(e)){var s=f(this._automationEvents,n,o,e,this._defaultValue),c=a.default(s,2),r=c[0],d=c[1];return C(i,r,d,e)}if(void 0!==e&&v(e)){var m=f(this._automationEvents,n,o,e,this._defaultValue),u=a.default(m,2),_=u[0],A=u[1];return D(i,_,A,e)}return this._defaultValue}}]),t}(Symbol.iterator),E=function(i){return{cancelTime:i,type:"cancelAndHold"}},S=function(i){return{cancelTime:i,type:"cancelScheduledValues"}},O=function(i,t){return{endTime:t,type:"exponentialRampToValue",value:i}},B=function(i,t){return{endTime:t,type:"linearRampToValue",value:i}},M=function(i,t,e){return{startTime:t,target:i,timeConstant:e,type:"setTarget"}};i.AutomationEventList=F,i.createCancelAndHoldAutomationEvent=E,i.createCancelScheduledValuesAutomationEvent=S,i.createExponentialRampToValueAutomationEvent=O,i.createLinearRampToValueAutomationEvent=B,i.createSetTargetAutomationEvent=M,i.createSetValueAutomationEvent=m,i.createSetValueCurveAutomationEvent=u,Object.defineProperty(i,"__esModule",{value:!0})}(c,o("ahnWm"),o("kUn6u"),o("bYHkV"));const r=new WeakSet,d=new WeakMap,m=new WeakMap,u=new WeakMap,l=new WeakMap,k=new WeakMap,v=new WeakMap,y=new WeakMap,h=new WeakMap,T=new WeakMap,p={construct:()=>p},f=i=>{try{new new Proxy(i,p)}catch{return!1}return!0},_=/^import(?:(?:[\s]+[\w]+|(?:[\s]+[\w]+[\s]*,)?[\s]*\{[\s]*[\w]+(?:[\s]+as[\s]+[\w]+)?(?:[\s]*,[\s]*[\w]+(?:[\s]+as[\s]+[\w]+)?)*[\s]*}|(?:[\s]+[\w]+[\s]*,)?[\s]*\*[\s]+as[\s]+[\w]+)[\s]+from)?(?:[\s]*)("([^"\\]|\\.)+"|'([^'\\]|\\.)+')(?:[\s]*);?/,A=(i,t)=>{const e=[];let n=i.replace(/^[\s]+/,""),o=n.match(_);for(;null!==o;){const i=o[1].slice(1,-1),a=o[0].replace(/([\s]+)?;?$/,"").replace(i,new URL(i,t).toString());e.push(a),n=n.slice(o[0].length).replace(/^[\s]+/,""),o=n.match(_)}return[e.join(";"),n]},g=i=>{if(void 0!==i&&!Array.isArray(i))throw new TypeError("The parameterDescriptors property of given value for processorCtor is not an array.")},C=i=>{if(!f(i))throw new TypeError("The given value for processorCtor should be a constructor.");if(null===i.prototype||"object"!=typeof i.prototype)throw new TypeError("The given value for processorCtor should have a prototype.")},D=(i,t)=>{const e=i.get(t);if(void 0===e)throw new Error("A value with the given key could not be found.");return e},x=(i,t)=>{const e=Array.from(i).filter(t);if(e.length>1)throw Error("More than one element was found.");if(0===e.length)throw Error("No element was found.");const[n]=e;return i.delete(n),n},w=(i,t,e,n)=>{const o=D(i,t),a=x(o,(i=>i[0]===e&&i[1]===n));return 0===o.size&&i.delete(t),a},b=i=>D(v,i),F=i=>{if(r.has(i))throw new Error("The AudioNode is already stored.");r.add(i),b(i).forEach((i=>i(!0)))},E=i=>"port"in i,S=i=>{if(!r.has(i))throw new Error("The AudioNode is not stored.");r.delete(i),b(i).forEach((i=>i(!1)))},O=(i,t)=>{!E(i)&&t.every((i=>0===i.size))&&S(i)},B={channelCount:2,channelCountMode:"max",channelInterpretation:"speakers",fftSize:2048,maxDecibels:-30,minDecibels:-100,smoothingTimeConstant:.8},M=(i,t)=>i.context===t,G=i=>{try{i.copyToChannel(new Float32Array(1),0,-1)}catch{return!1}return!0},I=()=>new DOMException("","IndexSizeError"),V=i=>{var t;i.getChannelData=(t=i.getChannelData,e=>{try{return t.call(i,e)}catch(i){if(12===i.code)throw I();throw i}})},R={numberOfChannels:1},N=i=>r.has(i),P={buffer:null,channelCount:2,channelCountMode:"max",channelInterpretation:"speakers",loop:!1,loopEnd:0,loopStart:0,playbackRate:1},q=i=>"playbackRate"in i,j=i=>"frequency"in i&&"gain"in i,L=i=>"offset"in i,W=i=>!("frequency"in i)&&"gain"in i,U=i=>"detune"in i&&"frequency"in i,z=i=>"pan"in i,Y=i=>D(d,i),X=i=>D(u,i),Z=(i,t)=>{const{activeInputs:e}=Y(i);e.forEach((e=>e.forEach((([e])=>{t.includes(i)||Z(e,[...t,i])}))));const n=q(i)?[i.playbackRate]:E(i)?Array.from(i.parameters.values()):j(i)?[i.Q,i.detune,i.frequency,i.gain]:L(i)?[i.offset]:W(i)?[i.gain]:U(i)?[i.detune,i.frequency]:z(i)?[i.pan]:[];for(const i of n){const e=X(i);void 0!==e&&e.activeInputs.forEach((([i])=>Z(i,t)))}N(i)&&S(i)},$=i=>{Z(i.destination,[])},H=i=>void 0===i||"number"==typeof i||"string"==typeof i&&("balanced"===i||"interactive"===i||"playback"===i),Q=i=>"context"in i,J=i=>Q(i[0]),K=(i,t,e,n)=>{for(const t of i)if(e(t)){if(n)return!1;throw Error("The set contains at least one similar element.")}return i.add(t),!0},ii=(i,t,[e,n],o)=>{K(i,[t,e,n],(i=>i[0]===t&&i[1]===e),o)},ti=(i,[t,e,n],o)=>{const a=i.get(t);void 0===a?i.set(t,new Set([[e,n]])):K(a,[e,n],(i=>i[0]===e),o)},ei=i=>"inputs"in i,ni=(i,t,e,n)=>{if(ei(t)){const o=t.inputs[n];return i.connect(o,e,0),[o,e,0]}return i.connect(t,e,n),[t,e,n]},oi=(i,t,e)=>{for(const n of i)if(n[0]===t&&n[1]===e)return i.delete(n),n;return null},ai=(i,t,e)=>x(i,(i=>i[0]===t&&i[1]===e)),si=(i,t)=>{if(!b(i).delete(t))throw new Error("Missing the expected event listener.")},ci=(i,t,e)=>{const n=D(i,t),o=x(n,(i=>i[0]===e));return 0===n.size&&i.delete(t),o},ri=(i,t,e,n)=>{ei(t)?i.disconnect(t.inputs[n],e,0):i.disconnect(t,e,n)},di=i=>D(m,i),mi=i=>D(l,i),ui=i=>y.has(i),li=i=>!r.has(i),ki=(i,t)=>new Promise((e=>{if(null!==t)e(!0);else{const t=i.createScriptProcessor(256,1,1),n=i.createGain(),o=i.createBuffer(1,2,44100),a=o.getChannelData(0);a[0]=1,a[1]=1;const s=i.createBufferSource();s.buffer=o,s.loop=!0,s.connect(t).connect(i.destination),s.connect(n),s.disconnect(n),t.onaudioprocess=n=>{const o=n.inputBuffer.getChannelData(0);Array.prototype.some.call(o,(i=>1===i))?e(!0):e(!1),s.stop(),t.onaudioprocess=null,s.disconnect(t),t.disconnect(i.destination)},s.start()}})),vi=(i,t)=>{const e=new Map;for(const t of i)for(const i of t){const t=e.get(i);e.set(i,void 0===t?1:t+1)}e.forEach(((i,e)=>t(e,i)))},yi=i=>"context"in i,hi=i=>{const t=new Map;var e,n;i.connect=(e=i.connect.bind(i),(i,n=0,o=0)=>{const a=yi(i)?e(i,n,o):e(i,n),s=t.get(i);return void 0===s?t.set(i,[{input:o,output:n}]):s.every((i=>i.input!==o||i.output!==n))&&s.push({input:o,output:n}),a}),i.disconnect=(n=i.disconnect,(e,o,a)=>{if(n.apply(i),void 0===e)t.clear();else if("number"==typeof e)for(const[i,n]of t){const o=n.filter((i=>i.output!==e));0===o.length?t.delete(i):t.set(i,o)}else if(t.has(e))if(void 0===o)t.delete(e);else{const i=t.get(e);if(void 0!==i){const n=i.filter((i=>i.output!==o&&(i.input!==a||void 0===a)));0===n.length?t.delete(e):t.set(e,n)}}for(const[e,n]of t)n.forEach((t=>{yi(e)?i.connect(e,t.output,t.input):i.connect(e,t.output)}))})},Ti=(i,t,e,n)=>{const{activeInputs:o,passiveInputs:a}=X(t),{outputs:s}=Y(i),c=b(i),r=s=>{const c=di(i),r=mi(t);if(s){const t=ci(a,i,e);ii(o,i,t,!1),n||ui(i)||c.connect(r,e)}else{const t=ai(o,i,e);ti(a,t,!1),n||ui(i)||c.disconnect(r,e)}};return!!K(s,[t,e],(i=>i[0]===t&&i[1]===e),!0)&&(c.add(r),N(i)?ii(o,i,[e,r],!0):ti(a,[i,e,r],!0),!0)},pi=(i,t,e,n,o)=>{const[a,s]=((i,t,e,n)=>{const{activeInputs:o,passiveInputs:a}=Y(t),s=oi(o[n],i,e);if(null===s)return[w(a,i,e,n)[2],!1];return[s[2],!0]})(i,e,n,o);if(null!==a&&(si(i,a),!s||t||ui(i)||ri(di(i),di(e),n,o)),N(e)){const{activeInputs:i}=Y(e);O(e,i)}},fi=(i,t,e,n)=>{const[o,a]=((i,t,e)=>{const{activeInputs:n,passiveInputs:o}=X(t),a=oi(n,i,e);if(null===a)return[ci(o,i,e)[1],!1];return[a[2],!0]})(i,e,n);null!==o&&(si(i,o),!a||t||ui(i)||di(i).disconnect(mi(e),n))};class _i{get size(){return this._map.size}entries(){return this._map.entries()}forEach(i,t=null){return this._map.forEach(((e,n)=>i.call(t,e,n,this)))}get(i){return this._map.get(i)}has(i){return this._map.has(i)}keys(){return this._map.keys()}values(){return this._map.values()}constructor(i){this._map=new Map(i)}}const Ai={channelCount:2,channelCountMode:"explicit",channelInterpretation:"speakers",numberOfInputs:1,numberOfOutputs:1,parameterData:{},processorOptions:{}};function gi(i,t,e,n,o){if("function"==typeof i.copyFromChannel)0===t[e].byteLength&&(t[e]=new Float32Array(128)),i.copyFromChannel(t[e],n,o);else{const a=i.getChannelData(n);if(0===t[e].byteLength)t[e]=a.slice(o,o+128);else{const i=new Float32Array(a.buffer,o*Float32Array.BYTES_PER_ELEMENT,128);t[e].set(i)}}}const Ci=(i,t,e,n,o)=>{"function"==typeof i.copyToChannel?0!==t[e].byteLength&&i.copyToChannel(t[e],n,o):0!==t[e].byteLength&&i.getChannelData(n).set(t[e],o)},Di=(i,t)=>{const e=[];for(let n=0;n<i;n+=1){const i=[],o="number"==typeof t?t:t[n];for(let t=0;t<o;t+=1)i.push(new Float32Array(128));e.push(i)}return e},xi=(i,t)=>{const e=D(T,i),n=di(t);return D(e,n)},wi=async(i,t,e,n,o,a,s)=>{const c=null===t?128*Math.ceil(i.context.length/128):t.length,r=n.channelCount*n.numberOfInputs,d=o.reduce(((i,t)=>i+t),0),m=0===d?null:e.createBuffer(d,c,e.sampleRate);if(void 0===a)throw new Error("Missing the processor constructor.");const u=Y(i),l=await xi(e,i),k=Di(n.numberOfInputs,n.channelCount),v=Di(n.numberOfOutputs,o),y=Array.from(i.parameters.keys()).reduce(((i,t)=>({...i,[t]:new Float32Array(128)})),{});for(let d=0;d<c;d+=128){if(n.numberOfInputs>0&&null!==t)for(let i=0;i<n.numberOfInputs;i+=1)for(let e=0;e<n.channelCount;e+=1)gi(t,k[i],e,e,d);void 0!==a.parameterDescriptors&&null!==t&&a.parameterDescriptors.forEach((({name:i},e)=>{gi(t,y,i,r+e,d)}));for(let i=0;i<n.numberOfInputs;i+=1)for(let t=0;t<o[i];t+=1)0===v[i][t].byteLength&&(v[i][t]=new Float32Array(128));try{const i=k.map(((i,t)=>0===u.activeInputs[t].size?[]:i)),t=s(d/e.sampleRate,e.sampleRate,(()=>l.process(i,v,y)));if(null!==m)for(let i=0,t=0;i<n.numberOfOutputs;i+=1){for(let e=0;e<o[i];e+=1)Ci(m,v[i],e,t+e,d);t+=o[i]}if(!t)break}catch(t){i.dispatchEvent(new ErrorEvent("processorerror",{colno:t.colno,filename:t.filename,lineno:t.lineno,message:t.message}));break}}return m},bi={Q:1,channelCount:2,channelCountMode:"max",channelInterpretation:"speakers",detune:0,frequency:350,gain:0,type:"lowpass"},Fi={channelCount:1,channelCountMode:"explicit",channelInterpretation:"speakers",numberOfInputs:6},Ei={channelCount:6,channelCountMode:"explicit",channelInterpretation:"discrete",numberOfOutputs:6},Si={channelCount:2,channelCountMode:"max",channelInterpretation:"speakers",offset:1},Oi={buffer:null,channelCount:2,channelCountMode:"clamped-max",channelInterpretation:"speakers",disableNormalization:!1},Bi=i=>{const{port1:t,port2:e}=new MessageChannel;return new Promise((n=>{const o=()=>{e.onmessage=null,t.close(),e.close(),n()};e.onmessage=()=>o();try{t.postMessage(i,[i])}finally{o()}}))},Mi={channelCount:2,channelCountMode:"max",channelInterpretation:"speakers",delayTime:0,maxDelayTime:1},Gi=i=>"delayTime"in i,Ii=(i,t,e)=>{const n=t[e];if(void 0===n)throw i();return n},Vi={attack:.003,channelCount:2,channelCountMode:"clamped-max",channelInterpretation:"speakers",knee:30,ratio:12,release:.25,threshold:-24},Ri={channelCount:2,channelCountMode:"max",channelInterpretation:"speakers",gain:1},Ni=()=>new DOMException("","InvalidStateError"),Pi=()=>new DOMException("","InvalidAccessError"),qi=i=>{var t;i.getFrequencyResponse=(t=i.getFrequencyResponse,(e,n,o)=>{if(e.length!==n.length||n.length!==o.length)throw Pi();return t.call(i,e,n,o)})},ji={channelCount:2,channelCountMode:"max",channelInterpretation:"speakers"},Li=(i,t,e,n,o,a,s,c,r,d,m)=>{const u=d.length;let l=c;for(let c=0;c<u;c+=1){let u=e[0]*d[c];for(let t=1;t<o;t+=1){const n=l-t&r-1;u+=e[t]*a[n],u-=i[t]*s[n]}for(let i=o;i<n;i+=1)u+=e[i]*a[l-i&r-1];for(let e=o;e<t;e+=1)u-=i[e]*s[l-e&r-1];a[l]=d[c],s[l]=u,l=l+1&r-1,m[c]=u}return l},Wi={channelCount:2,channelCountMode:"explicit",channelInterpretation:"speakers"},Ui=i=>{const t=new Uint32Array([1179011410,40,1163280727,544501094,16,131073,44100,176400,1048580,1635017060,4,0]);try{const e=i.decodeAudioData(t.buffer,(()=>{}));return void 0!==e&&(e.catch((()=>{})),!0)}catch{}return!1},zi={numberOfChannels:1},Yi=(i,t,e)=>{const n=t[e];void 0!==n&&n!==i[e]&&(i[e]=n)},Xi=(i,t)=>{Yi(i,t,"channelCount"),Yi(i,t,"channelCountMode"),Yi(i,t,"channelInterpretation")},Zi=i=>"function"==typeof i.getFloatTimeDomainData,$i=(i,t,e)=>{const n=t[e];void 0!==n&&n!==i[e].value&&(i[e].value=n)},Hi=i=>{i.start=(t=>{let e=!1;return(n=0,o=0,a)=>{if(e)throw Ni();t.call(i,n,o,a),e=!0}})(i.start)},Qi=i=>{var t;i.start=(t=i.start,(e=0,n=0,o)=>{if("number"==typeof o&&o<0||n<0||e<0)throw new RangeError("The parameters can't be negative.");t.call(i,e,n,o)})},Ji=i=>{var t;i.stop=(t=i.stop,(e=0)=>{if(e<0)throw new RangeError("The parameter can't be negative.");t.call(i,e)})},Ki=i=>{const{port1:t}=new MessageChannel;try{t.postMessage(i)}finally{t.close()}},it=(i,t)=>null===i?512:Math.max(512,Math.min(16384,Math.pow(2,Math.round(Math.log2(i*t))))),tt=i=>new Promise(((t,e)=>{const{port1:n,port2:o}=new MessageChannel;n.onmessage=({data:i})=>{n.close(),o.close(),t(i)},n.onmessageerror=({data:i})=>{n.close(),o.close(),e(i)},o.postMessage(i)})),et=async(i,t)=>new i(await tt(t)),nt=(i,t,e,n)=>{let o=T.get(i);void 0===o&&(o=new WeakMap,T.set(i,o));const a=et(e,n);return o.set(t,a),a},ot=(i,t)=>{const e=i.createBiquadFilter();return Xi(e,t),$i(e,t,"Q"),$i(e,t,"detune"),$i(e,t,"frequency"),$i(e,t,"gain"),Yi(e,t,"type"),e},at=i=>{const t=i.numberOfOutputs;Object.defineProperty(i,"channelCount",{get:()=>t,set:i=>{if(i!==t)throw Ni()}}),Object.defineProperty(i,"channelCountMode",{get:()=>"explicit",set:i=>{if("explicit"!==i)throw Ni()}}),Object.defineProperty(i,"channelInterpretation",{get:()=>"discrete",set:i=>{if("discrete"!==i)throw Ni()}})},st=(i,t)=>{const e=i.createChannelSplitter(t.numberOfOutputs);return Xi(e,t),at(e),e},ct=(i,t)=>(i.connect=t.connect.bind(t),i.disconnect=t.disconnect.bind(t),i),rt=(i,t)=>{const e=i.createDelay(t.maxDelayTime);return Xi(e,t),$i(e,t,"delayTime"),e},dt=(i,t)=>{const e=i.createGain();return Xi(e,t),$i(e,t,"gain"),e};function mt(i,t){const e=t[0]*t[0]+t[1]*t[1];return[(i[0]*t[0]+i[1]*t[1])/e,(i[1]*t[0]-i[0]*t[1])/e]}function ut(i,t){let e=[0,0];for(let a=i.length-1;a>=0;a-=1)o=t,e=[(n=e)[0]*o[0]-n[1]*o[1],n[0]*o[1]+n[1]*o[0]],e[0]+=i[a];var n,o;return e}const lt=(i,t,e,n)=>i.createScriptProcessor(t,e,n),kt=()=>new DOMException("","NotSupportedError"),vt={numberOfChannels:1},yt={channelCount:2,channelCountMode:"max",channelInterpretation:"speakers",detune:0,frequency:440,periodicWave:void 0,type:"sine"},ht={channelCount:2,channelCountMode:"clamped-max",channelInterpretation:"speakers",coneInnerAngle:360,coneOuterAngle:360,coneOuterGain:0,distanceModel:"inverse",maxDistance:1e4,orientationX:1,orientationY:0,orientationZ:0,panningModel:"equalpower",positionX:0,positionY:0,positionZ:0,refDistance:1,rolloffFactor:1},Tt={disableNormalization:!1},pt={channelCount:2,channelCountMode:"explicit",channelInterpretation:"speakers",pan:0},ft=()=>new DOMException("","UnknownError"),_t={channelCount:2,channelCountMode:"max",channelInterpretation:"speakers",curve:null,oversample:"none"},At=(i,t,e)=>void 0===i.copyFromChannel?i.getChannelData(e)[0]:(i.copyFromChannel(t,e),t[0]),gt=i=>{if(null===i)return!1;const t=i.length;return t%2!=0?0!==i[Math.floor(t/2)]:i[t/2-1]+i[t/2]!==0},Ct=(i,t,e,n)=>{let o=i;for(;!o.hasOwnProperty(t);)o=Object.getPrototypeOf(o);const{get:a,set:s}=Object.getOwnPropertyDescriptor(o,t);Object.defineProperty(i,t,{get:e(a),set:n(s)})},Dt=(i,t,e)=>{try{i.setValueAtTime(t,e)}catch(n){if(9!==n.code)throw n;Dt(i,t,e+1e-7)}},xt=i=>{const t=i.createOscillator();try{t.start(-1)}catch(i){return i instanceof RangeError}return!1},wt=i=>{const t=i.createBuffer(1,1,44100),e=i.createBufferSource();e.buffer=t,e.start(),e.stop();try{return e.stop(),!0}catch{return!1}},bt=i=>{const t=i.createOscillator();try{t.stop(-1)}catch(i){return i instanceof RangeError}return!1},Ft=(i,t)=>{const e=t.createGain();i.connect(e);const n=(o=i.disconnect,()=>{o.call(i,e),i.removeEventListener("ended",n)});var o;i.addEventListener("ended",n),ct(i,e),i.stop=(t=>{let n=!1;return(o=0)=>{if(n)try{t.call(i,o)}catch{e.gain.setValueAtTime(0,o)}else t.call(i,o),n=!0}})(i.stop)},Et=(i,t)=>e=>{const n={value:i};return Object.defineProperties(e,{currentTarget:n,target:n}),"function"==typeof t?t.call(i,e):t.handleEvent.call(i,e)},St=(Ot=K,(i,t,[e,n,o],a)=>{Ot(i[n],[t,e,o],(i=>i[0]===t&&i[1]===e),a)});var Ot;const Bt=(i=>(t,e,[n,o,a],s)=>{const c=t.get(n);void 0===c?t.set(n,new Set([[o,e,a]])):i(c,[o,e,a],(i=>i[0]===o&&i[1]===e),s)})(K),Mt=(Gt=x,(i,t,e,n)=>Gt(i[n],(i=>i[0]===t&&i[1]===e)));var Gt;const It=new WeakMap,Vt=(Rt=It,i=>{var t;return null!==(t=Rt.get(i))&&void 0!==t?t:0});var Rt;const Nt=(Pt=new Map,qt=new WeakMap,(i,t)=>{const e=qt.get(i);if(void 0!==e)return e;const n=Pt.get(i);if(void 0!==n)return n;try{const e=t();return e instanceof Promise?(Pt.set(i,e),e.catch((()=>!1)).then((t=>(Pt.delete(i),qt.set(i,t),t)))):(qt.set(i,e),e)}catch{return qt.set(i,!1),!1}});var Pt,qt;const jt="undefined"==typeof window?null:window,Lt=(Wt=Nt,Ut=I,(i,t)=>{const e=i.createAnalyser();if(Xi(e,t),!(t.maxDecibels>t.minDecibels))throw Ut();return Yi(e,t,"fftSize"),Yi(e,t,"maxDecibels"),Yi(e,t,"minDecibels"),Yi(e,t,"smoothingTimeConstant"),Wt(Zi,(()=>Zi(e)))||(i=>{i.getFloatTimeDomainData=t=>{const e=new Uint8Array(t.length);i.getByteTimeDomainData(e);const n=Math.max(e.length,i.fftSize);for(let i=0;i<n;i+=1)t[i]=.0078125*(e[i]-128);return t}})(e),e});var Wt,Ut;const zt=(Yt=Y,i=>{const t=Yt(i);if(null===t.renderer)throw new Error("Missing the renderer of the given AudioNode in the audio graph.");return t.renderer});var Yt;const Xt=((i,t,e)=>async(n,o,a)=>{const s=i(n);await Promise.all(s.activeInputs.map(((i,s)=>Array.from(i).map((async([i,c])=>{const r=t(i),d=await r.render(i,o),m=n.context.destination;e(i)||n===m&&e(n)||d.connect(a,c,s)})))).reduce(((i,t)=>[...i,...t]),[]))})(Y,zt,ui),Zt=($t=Lt,Ht=di,Qt=Xt,()=>{const i=new WeakMap;return{render(t,e){const n=i.get(e);return void 0!==n?Promise.resolve(n):(async(t,e)=>{let n=Ht(t);if(!M(n,e)){const i={channelCount:n.channelCount,channelCountMode:n.channelCountMode,channelInterpretation:n.channelInterpretation,fftSize:n.fftSize,maxDecibels:n.maxDecibels,minDecibels:n.minDecibels,smoothingTimeConstant:n.smoothingTimeConstant};n=$t(e,i)}return i.set(e,n),await Qt(t,e,n),n})(t,e)}}});var $t,Ht,Qt;const Jt=(Kt=k,i=>{const t=Kt.get(i);if(void 0===t)throw Ni();return t});var Kt;const ie=(i=>null===i?null:i.hasOwnProperty("OfflineAudioContext")?i.OfflineAudioContext:i.hasOwnProperty("webkitOfflineAudioContext")?i.webkitOfflineAudioContext:null)(jt),te=(ee=ie,i=>null!==ee&&i instanceof ee);var ee;const ne=new WeakMap,oe=(ae=Et,class{addEventListener(i,t,e){if(null!==t){let n=this._listeners.get(t);void 0===n&&(n=ae(this,t),"function"==typeof t&&this._listeners.set(t,n)),this._nativeEventTarget.addEventListener(i,n,e)}}dispatchEvent(i){return this._nativeEventTarget.dispatchEvent(i)}removeEventListener(i,t,e){const n=null===t?void 0:this._listeners.get(t);this._nativeEventTarget.removeEventListener(i,void 0===n?null:n,e)}constructor(i){this._nativeEventTarget=i,this._listeners=new WeakMap}});var ae;const se=(i=>null===i?null:i.hasOwnProperty("AudioContext")?i.AudioContext:i.hasOwnProperty("webkitAudioContext")?i.webkitAudioContext:null)(jt),ce=(re=se,i=>null!==re&&i instanceof re);var re;const de=(i=>t=>null!==i&&"function"==typeof i.AudioNode&&t instanceof i.AudioNode)(jt),me=(i=>t=>null!==i&&"function"==typeof i.AudioParam&&t instanceof i.AudioParam)(jt),ue=(i=>null===i?null:i.hasOwnProperty("AudioWorkletNode")?i.AudioWorkletNode:null)(jt),le=((i,t,e,n,o,a,s,c,r,d,u,l,k,y,h,T)=>class extends d{get channelCount(){return this._nativeAudioNode.channelCount}set channelCount(i){this._nativeAudioNode.channelCount=i}get channelCountMode(){return this._nativeAudioNode.channelCountMode}set channelCountMode(i){this._nativeAudioNode.channelCountMode=i}get channelInterpretation(){return this._nativeAudioNode.channelInterpretation}set channelInterpretation(i){this._nativeAudioNode.channelInterpretation=i}get context(){return this._context}get numberOfInputs(){return this._nativeAudioNode.numberOfInputs}get numberOfOutputs(){return this._nativeAudioNode.numberOfOutputs}connect(i,e=0,c=0){if(e<0||e>=this._nativeAudioNode.numberOfOutputs)throw o();const d=u(this._context),m=h(d);if(k(i)||y(i))throw a();if(Q(i)){const o=di(i);try{const t=ni(this._nativeAudioNode,o,e,c),n=li(this);(m||n)&&this._nativeAudioNode.disconnect(...t),"closed"!==this.context.state&&!n&&li(i)&&F(i)}catch(i){if(12===i.code)throw a();throw i}if(t(this,i,e,c,m)){const t=r([this],i);vi(t,n(m))}return i}const l=mi(i);if("playbackRate"===l.name&&1024===l.maxValue)throw s();try{this._nativeAudioNode.connect(l,e),(m||li(this))&&this._nativeAudioNode.disconnect(l,e)}catch(i){if(12===i.code)throw a();throw i}if(Ti(this,i,e,m)){const t=r([this],i);vi(t,n(m))}}disconnect(i,t,e){let n;const s=u(this._context),d=h(s);if(void 0===i)n=((i,t)=>{const e=Y(i),n=[];for(const o of e.outputs)J(o)?pi(i,t,...o):fi(i,t,...o),n.push(o[0]);return e.outputs.clear(),n})(this,d);else if("number"==typeof i){if(i<0||i>=this.numberOfOutputs)throw o();n=((i,t,e)=>{const n=Y(i),o=[];for(const a of n.outputs)a[1]===e&&(J(a)?pi(i,t,...a):fi(i,t,...a),o.push(a[0]),n.outputs.delete(a));return o})(this,d,i)}else{if(void 0!==t&&(t<0||t>=this.numberOfOutputs))throw o();if(Q(i)&&void 0!==e&&(e<0||e>=i.numberOfInputs))throw o();if(n=((i,t,e,n,o)=>{const a=Y(i);return Array.from(a.outputs).filter((i=>!(i[0]!==e||void 0!==n&&i[1]!==n||void 0!==o&&i[2]!==o))).map((e=>(J(e)?pi(i,t,...e):fi(i,t,...e),a.outputs.delete(e),e[0])))})(this,d,i,t,e),0===n.length)throw a()}for(const i of n){const t=r([this],i);vi(t,c)}}constructor(t,n,o,a){super(o),this._context=t,this._nativeAudioNode=o;const s=u(t);l(s)&&!0!==e(ki,(()=>ki(s,T)))&&hi(o),m.set(this,o),v.set(this,new Set),"closed"!==t.state&&n&&F(this),i(this,a,o)}})((ke=d,(i,t,e)=>{const n=[];for(let i=0;i<e.numberOfInputs;i+=1)n.push(new Set);ke.set(i,{activeInputs:n,outputs:new Set,passiveInputs:new WeakMap,renderer:t})}),((i,t,e,n,o,a,s,c,r,d,m,u,l)=>{const k=new WeakMap;return(v,y,h,T,p)=>{const{activeInputs:f,passiveInputs:_}=a(y),{outputs:A}=a(v),g=c(v),C=a=>{const c=r(y),d=r(v);if(a){const t=w(_,v,h,T);i(f,v,t,!1),p||u(v)||e(d,c,h,T),l(y)&&F(y)}else{const i=n(f,v,h,T);t(_,T,i,!1),p||u(v)||o(d,c,h,T);const e=s(y);if(0===e)m(y)&&O(y,f);else{const i=k.get(y);void 0!==i&&clearTimeout(i),k.set(y,setTimeout((()=>{m(y)&&O(y,f)}),1e3*e))}}};return!!d(A,[y,h,T],(i=>i[0]===y&&i[1]===h&&i[2]===T),!0)&&(g.add(C),m(v)?i(f,v,[h,T,C],!0):t(_,T,[v,h,C],!0),!0)}})(St,Bt,ni,Mt,ri,Y,Vt,b,di,K,N,ui,li),Nt,((i,t,e,n,o,a)=>s=>(c,r)=>{const d=i.get(c);if(void 0===d){if(!s&&a(c)){const i=n(c),{outputs:a}=e(c);for(const e of a)if(J(e)){const o=n(e[0]);t(i,o,e[1],e[2])}else{const t=o(e[0]);i.disconnect(t,e[1])}}i.set(c,r)}else i.set(c,d+r)})(y,ri,Y,di,mi,N),I,Pi,kt,((i,t,e,n,o,a,s,c)=>(r,d)=>{const m=t.get(r);if(void 0===m)throw new Error("Missing the expected cycle count.");const u=a(r.context),l=c(u);if(m===d){if(t.delete(r),!l&&s(r)){const t=n(r),{outputs:a}=e(r);for(const e of a)if(J(e)){const o=n(e[0]);i(t,o,e[1],e[2])}else{const i=o(e[0]);t.connect(i,e[1])}}}else t.set(r,m-d)})(ni,y,Y,di,mi,Jt,N,te),((i,t,e)=>function n(o,a){const s=Q(a)?a:e(i,a);if(Gi(s))return[];if(o[0]===s)return[o];if(o.includes(s))return[];const{outputs:c}=t(s);return Array.from(c).map((i=>n([...o,s],i[0]))).reduce(((i,t)=>i.concat(t)),[])})(ne,Y,D),oe,Jt,ce,de,me,te,ue);var ke;const ve=((i,t,e,n,o,a)=>class extends i{get fftSize(){return this._nativeAnalyserNode.fftSize}set fftSize(i){this._nativeAnalyserNode.fftSize=i}get frequencyBinCount(){return this._nativeAnalyserNode.frequencyBinCount}get maxDecibels(){return this._nativeAnalyserNode.maxDecibels}set maxDecibels(i){const t=this._nativeAnalyserNode.maxDecibels;if(this._nativeAnalyserNode.maxDecibels=i,!(i>this._nativeAnalyserNode.minDecibels))throw this._nativeAnalyserNode.maxDecibels=t,e()}get minDecibels(){return this._nativeAnalyserNode.minDecibels}set minDecibels(i){const t=this._nativeAnalyserNode.minDecibels;if(this._nativeAnalyserNode.minDecibels=i,!(this._nativeAnalyserNode.maxDecibels>i))throw this._nativeAnalyserNode.minDecibels=t,e()}get smoothingTimeConstant(){return this._nativeAnalyserNode.smoothingTimeConstant}set smoothingTimeConstant(i){this._nativeAnalyserNode.smoothingTimeConstant=i}getByteFrequencyData(i){this._nativeAnalyserNode.getByteFrequencyData(i)}getByteTimeDomainData(i){this._nativeAnalyserNode.getByteTimeDomainData(i)}getFloatFrequencyData(i){this._nativeAnalyserNode.getFloatFrequencyData(i)}getFloatTimeDomainData(i){this._nativeAnalyserNode.getFloatTimeDomainData(i)}constructor(i,e){const s=o(i),c={...B,...e},r=n(s,c);super(i,!1,r,a(s)?t():null),this._nativeAnalyserNode=r}})(le,Zt,I,Lt,Jt,te),ye=new WeakSet,he=(i=>null===i?null:i.hasOwnProperty("AudioBuffer")?i.AudioBuffer:null)(jt),Te=(pe=new Uint32Array(1),i=>(pe[0]=i,pe[0]));var pe;const fe=((i,t)=>e=>{e.copyFromChannel=(n,o,a=0)=>{const s=i(a),c=i(o);if(c>=e.numberOfChannels)throw t();const r=e.length,d=e.getChannelData(c),m=n.length;for(let i=s<0?-s:0;i+s<r&&i<m;i+=1)n[i]=d[i+s]},e.copyToChannel=(n,o,a=0)=>{const s=i(a),c=i(o);if(c>=e.numberOfChannels)throw t();const r=e.length,d=e.getChannelData(c),m=n.length;for(let i=s<0?-s:0;i+s<r&&i<m;i+=1)d[i+s]=n[i]}})(Te,I),_e=(Ae=Te,i=>{var t,e;i.copyFromChannel=(t=i.copyFromChannel,(e,n,o=0)=>{const a=Ae(o),s=Ae(n);if(a<i.length)return t.call(i,e,s,a)}),i.copyToChannel=(e=i.copyToChannel,(t,n,o=0)=>{const a=Ae(o),s=Ae(n);if(a<i.length)return e.call(i,t,s,a)})});var Ae;const ge=((i,t,e,n,o,a,s,c)=>{let r,d=null;return r=Symbol.hasInstance,class m{static[r](t){return null!==t&&"object"==typeof t&&Object.getPrototypeOf(t)===m.prototype||i.has(t)}constructor(r){if(null===o)throw new Error("Missing the native OfflineAudioContext constructor.");const{length:m,numberOfChannels:u,sampleRate:l}={...R,...r};null===d&&(d=new o(1,1,44100));const k=null!==n&&t(a,a)?new n({length:m,numberOfChannels:u,sampleRate:l}):d.createBuffer(u,m,l);if(0===k.numberOfChannels)throw e();return"function"!=typeof k.copyFromChannel?(s(k),V(k)):t(G,(()=>G(k)))||c(k),i.add(k),k}}})(ye,Nt,kt,he,ie,(Ce=he,()=>{if(null===Ce)return!1;try{new Ce({length:1,sampleRate:44100})}catch{return!1}return!0}),fe,_e);var Ce;const De=(xe=dt,(i,t)=>{const e=xe(i,{channelCount:1,channelCountMode:"explicit",channelInterpretation:"discrete",gain:0});t.connect(e).connect(i.destination);const n=()=>{t.removeEventListener("ended",n),t.disconnect(e),e.disconnect()};t.addEventListener("ended",n)});var xe;const we=(be=zt,Fe=X,Ee=ui,async(i,t,e)=>{const n=Fe(i);await Promise.all(Array.from(n.activeInputs).map((async([i,n])=>{const o=be(i),a=await o.render(i,t);Ee(i)||a.connect(e,n)})))});var be,Fe,Ee;const Se=(Oe=we,(i,t,e)=>Oe(t,i,e));var Oe;const Be=((i,t,e,n,o,a,s,c,r,d,m)=>(u,l)=>{const k=u.createBufferSource();return Xi(k,l),$i(k,l,"playbackRate"),Yi(k,l,"buffer"),Yi(k,l,"loop"),Yi(k,l,"loopEnd"),Yi(k,l,"loopStart"),t(e,(()=>e(u)))||Hi(k),t(n,(()=>n(u)))||r(k),t(o,(()=>o(u)))||d(k,u),t(a,(()=>a(u)))||Qi(k),t(s,(()=>s(u)))||m(k,u),t(c,(()=>c(u)))||Ji(k),i(u,k),k})(De,Nt,(i=>{const t=i.createBufferSource();t.start();try{t.start()}catch{return!0}return!1}),(i=>{const t=i.createBufferSource(),e=i.createBuffer(1,1,44100);t.buffer=e;try{t.start(0,1)}catch{return!1}return!0}),(i=>{const t=i.createBufferSource();t.start();try{t.stop()}catch{return!1}return!0}),xt,wt,bt,(i=>{var t;i.start=(t=i.start,(e=0,n=0,o)=>{const a=i.buffer,s=null===a?n:Math.min(a.duration,n);null!==a&&s>a.duration-.5/i.context.sampleRate?t.call(i,e,0,0):t.call(i,e,s,o)})}),(Me=Ct,(i,t)=>{const e=t.createBuffer(1,1,44100);null===i.buffer&&(i.buffer=e),Me(i,"buffer",(t=>()=>{const n=t.call(i);return n===e?null:n}),(t=>n=>t.call(i,null===n?e:n)))}),Ft);var Me;const Ge=((i,t)=>(e,n,o)=>(i(n).replay(o),t(n,e,o)))((i=>t=>{const e=i(t);if(null===e.renderer)throw new Error("Missing the renderer of the given AudioParam in the audio graph.");return e.renderer})(X),we),Ie=((i,t,e,n,o)=>()=>{const a=new WeakMap;let s=null,c=null;return{set start(i){s=i},set stop(i){c=i},render(r,d){const m=a.get(d);return void 0!==m?Promise.resolve(m):(async(r,d)=>{let m=e(r);const u=M(m,d);if(!u){const i={buffer:m.buffer,channelCount:m.channelCount,channelCountMode:m.channelCountMode,channelInterpretation:m.channelInterpretation,loop:m.loop,loopEnd:m.loopEnd,loopStart:m.loopStart,playbackRate:m.playbackRate.value};m=t(d,i),null!==s&&m.start(...s),null!==c&&m.stop(c)}return a.set(d,m),u?await i(d,r.playbackRate,m.playbackRate):await n(d,r.playbackRate,m.playbackRate),await o(r,d,m),m})(r,d)}}})(Se,Be,di,Ge,Xt),Ve=((i,t,e,n,o,a,s,r,d,m,u,l,k)=>(v,y,h,T=null,p=null)=>{const f=new(0,c.AutomationEventList)(h.defaultValue),_=y?n(f):null,A={get defaultValue(){return h.defaultValue},get maxValue(){return null===T?h.maxValue:T},get minValue(){return null===p?h.minValue:p},get value(){return h.value},set value(i){h.value=i,A.setValueAtTime(i,v.context.currentTime)},cancelAndHoldAtTime(i){if("function"==typeof h.cancelAndHoldAtTime)null===_&&f.flush(v.context.currentTime),f.add(o(i)),h.cancelAndHoldAtTime(i);else{const t=Array.from(f).pop();null===_&&f.flush(v.context.currentTime),f.add(o(i));const e=Array.from(f).pop();h.cancelScheduledValues(i),t!==e&&void 0!==e&&("exponentialRampToValue"===e.type?h.exponentialRampToValueAtTime(e.value,e.endTime):"linearRampToValue"===e.type?h.linearRampToValueAtTime(e.value,e.endTime):"setValue"===e.type?h.setValueAtTime(e.value,e.startTime):"setValueCurve"===e.type&&h.setValueCurveAtTime(e.values,e.startTime,e.duration))}return A},cancelScheduledValues:i=>(null===_&&f.flush(v.context.currentTime),f.add(a(i)),h.cancelScheduledValues(i),A),exponentialRampToValueAtTime(i,t){if(0===i)throw new RangeError;if(!Number.isFinite(t)||t<0)throw new RangeError;return null===_&&f.flush(v.context.currentTime),f.add(s(i,t)),h.exponentialRampToValueAtTime(i,t),A},linearRampToValueAtTime:(i,t)=>(null===_&&f.flush(v.context.currentTime),f.add(r(i,t)),h.linearRampToValueAtTime(i,t),A),setTargetAtTime:(i,t,e)=>(null===_&&f.flush(v.context.currentTime),f.add(d(i,t,e)),h.setTargetAtTime(i,t,e),A),setValueAtTime:(i,t)=>(null===_&&f.flush(v.context.currentTime),f.add(m(i,t)),h.setValueAtTime(i,t),A),setValueCurveAtTime(i,t,e){const n=i instanceof Float32Array?i:new Float32Array(i);if(null!==l&&"webkitAudioContext"===l.name){const i=t+e,o=v.context.sampleRate,a=Math.ceil(t*o),s=Math.floor(i*o),c=s-a,r=new Float32Array(c);for(let i=0;i<c;i+=1){const s=(n.length-1)/e*((a+i)/o-t),c=Math.floor(s),d=Math.ceil(s);r[i]=c===d?n[c]:(1-(s-c))*n[c]+(1-(d-s))*n[d]}null===_&&f.flush(v.context.currentTime),f.add(u(r,t,e)),h.setValueCurveAtTime(r,t,e);const d=s/o;d<i&&k(A,r[r.length-1],d),k(A,n[n.length-1],i)}else null===_&&f.flush(v.context.currentTime),f.add(u(n,t,e)),h.setValueCurveAtTime(n,t,e);return A}};return e.set(A,h),t.set(A,v),i(A,_),A})((Re=u,(i,t)=>{Re.set(i,{activeInputs:new Set,passiveInputs:new WeakMap,renderer:t})}),ne,l,(i=>({replay(t){for(const e of i)if("exponentialRampToValue"===e.type){const{endTime:i,value:n}=e;t.exponentialRampToValueAtTime(n,i)}else if("linearRampToValue"===e.type){const{endTime:i,value:n}=e;t.linearRampToValueAtTime(n,i)}else if("setTarget"===e.type){const{startTime:i,target:n,timeConstant:o}=e;t.setTargetAtTime(n,i,o)}else if("setValue"===e.type){const{startTime:i,value:n}=e;t.setValueAtTime(n,i)}else{if("setValueCurve"!==e.type)throw new Error("Can't apply an unknown automation.");{const{duration:i,startTime:n,values:o}=e;t.setValueCurveAtTime(o,n,i)}}}})),c.createCancelAndHoldAutomationEvent,c.createCancelScheduledValuesAutomationEvent,c.createExponentialRampToValueAutomationEvent,c.createLinearRampToValueAutomationEvent,c.createSetTargetAutomationEvent,c.createSetValueAutomationEvent,c.createSetValueCurveAutomationEvent,se,Dt);var Re;const Ne=((i,t,e,n,o,a,s,c)=>class extends i{get buffer(){return this._isBufferNullified?null:this._nativeAudioBufferSourceNode.buffer}set buffer(i){if(this._nativeAudioBufferSourceNode.buffer=i,null!==i){if(this._isBufferSet)throw n();this._isBufferSet=!0}}get loop(){return this._nativeAudioBufferSourceNode.loop}set loop(i){this._nativeAudioBufferSourceNode.loop=i}get loopEnd(){return this._nativeAudioBufferSourceNode.loopEnd}set loopEnd(i){this._nativeAudioBufferSourceNode.loopEnd=i}get loopStart(){return this._nativeAudioBufferSourceNode.loopStart}set loopStart(i){this._nativeAudioBufferSourceNode.loopStart=i}get onended(){return this._onended}set onended(i){const t="function"==typeof i?c(this,i):null;this._nativeAudioBufferSourceNode.onended=t;const e=this._nativeAudioBufferSourceNode.onended;this._onended=null!==e&&e===t?i:e}get playbackRate(){return this._playbackRate}start(i=0,t=0,e){if(this._nativeAudioBufferSourceNode.start(i,t,e),null!==this._audioBufferSourceNodeRenderer&&(this._audioBufferSourceNodeRenderer.start=void 0===e?[i,t]:[i,t,e]),"closed"!==this.context.state){F(this);const i=()=>{this._nativeAudioBufferSourceNode.removeEventListener("ended",i),N(this)&&S(this)};this._nativeAudioBufferSourceNode.addEventListener("ended",i)}}stop(i=0){this._nativeAudioBufferSourceNode.stop(i),null!==this._audioBufferSourceNodeRenderer&&(this._audioBufferSourceNodeRenderer.stop=i)}constructor(i,n){const c=a(i),r={...P,...n},d=o(c,r),m=s(c),u=m?t():null;super(i,!1,d,u),this._audioBufferSourceNodeRenderer=u,this._isBufferNullified=!1,this._isBufferSet=null!==r.buffer,this._nativeAudioBufferSourceNode=d,this._onended=null,this._playbackRate=e(this,m,d.playbackRate,34028234663852886e22,-34028234663852886e22)}})(le,Ie,Ve,Ni,Be,Jt,te,Et),Pe=((i,t,e,n,o,a,s,c)=>class extends i{get channelCount(){return this._nativeAudioDestinationNode.channelCount}set channelCount(i){if(this._isNodeOfNativeOfflineAudioContext)throw n();if(i>this._nativeAudioDestinationNode.maxChannelCount)throw e();this._nativeAudioDestinationNode.channelCount=i}get channelCountMode(){return this._nativeAudioDestinationNode.channelCountMode}set channelCountMode(i){if(this._isNodeOfNativeOfflineAudioContext)throw n();this._nativeAudioDestinationNode.channelCountMode=i}get maxChannelCount(){return this._nativeAudioDestinationNode.maxChannelCount}constructor(i,e){const n=a(i),r=s(n),d=o(n,e,r);super(i,!1,d,r?t(c):null),this._isNodeOfNativeOfflineAudioContext=r,this._nativeAudioDestinationNode=d}})(le,(i=>{const t=new WeakMap;return{render(e,n){const o=t.get(n);return void 0!==o?Promise.resolve(o):(async(e,n)=>{const o=n.destination;return t.set(n,o),await i(e,n,o),o})(e,n)}}}),I,Ni,((i,t)=>(e,n,o)=>{const a=e.destination;if(a.channelCount!==n)try{a.channelCount=n}catch{}o&&"explicit"!==a.channelCountMode&&(a.channelCountMode="explicit"),0===a.maxChannelCount&&Object.defineProperty(a,"maxChannelCount",{value:n});const s=i(e,{channelCount:n,channelCountMode:a.channelCountMode,channelInterpretation:a.channelInterpretation,gain:1});return t(s,"channelCount",(i=>()=>i.call(s)),(i=>t=>{i.call(s,t);try{a.channelCount=t}catch(i){if(t>a.maxChannelCount)throw i}})),t(s,"channelCountMode",(i=>()=>i.call(s)),(i=>t=>{i.call(s,t),a.channelCountMode=t})),t(s,"channelInterpretation",(i=>()=>i.call(s)),(i=>t=>{i.call(s,t),a.channelInterpretation=t})),Object.defineProperty(s,"maxChannelCount",{get:()=>a.maxChannelCount}),s.connect(a),s})(dt,Ct),Jt,te,Xt),qe=((i,t,e,n,o)=>()=>{const a=new WeakMap;return{render(s,c){const r=a.get(c);return void 0!==r?Promise.resolve(r):(async(s,c)=>{let r=e(s);const d=M(r,c);if(!d){const i={Q:r.Q.value,channelCount:r.channelCount,channelCountMode:r.channelCountMode,channelInterpretation:r.channelInterpretation,detune:r.detune.value,frequency:r.frequency.value,gain:r.gain.value,type:r.type};r=t(c,i)}return a.set(c,r),d?(await i(c,s.Q,r.Q),await i(c,s.detune,r.detune),await i(c,s.frequency,r.frequency),await i(c,s.gain,r.gain)):(await n(c,s.Q,r.Q),await n(c,s.detune,r.detune),await n(c,s.frequency,r.frequency),await n(c,s.gain,r.gain)),await o(s,c,r),r})(s,c)}}})(Se,ot,di,Ge,Xt),je=(i=>(t,e)=>i.set(t,e))(It),Le=(We=le,Ue=Ve,ze=qe,Ye=Pi,Xe=ot,Ze=Jt,$e=te,He=je,class extends We{get detune(){return this._detune}get frequency(){return this._frequency}get gain(){return this._gain}get Q(){return this._Q}get type(){return this._nativeBiquadFilterNode.type}set type(i){this._nativeBiquadFilterNode.type=i}getFrequencyResponse(i,t,e){try{this._nativeBiquadFilterNode.getFrequencyResponse(i,t,e)}catch(i){if(11===i.code)throw Ye();throw i}if(i.length!==t.length||t.length!==e.length)throw Ye()}constructor(i,t){const e=Ze(i),n={...bi,...t},o=Xe(e,n),a=$e(e);super(i,!1,o,a?ze():null),this._Q=Ue(this,a,o.Q,34028234663852886e22,-34028234663852886e22),this._detune=Ue(this,a,o.detune,1200*Math.log2(34028234663852886e22),-1200*Math.log2(34028234663852886e22)),this._frequency=Ue(this,a,o.frequency,i.sampleRate/2,0),this._gain=Ue(this,a,o.gain,40*Math.log10(34028234663852886e22),-34028234663852886e22),this._nativeBiquadFilterNode=o,He(this,1)}});var We,Ue,ze,Ye,Xe,Ze,$e,He;const Qe=((i,t)=>(e,n,o)=>{const a=new Set;var s,c;return e.connect=(s=e.connect,(o,c=0,r=0)=>{const d=0===a.size;if(t(o))return s.call(e,o,c,r),i(a,[o,c,r],(i=>i[0]===o&&i[1]===c&&i[2]===r),!0),d&&n(),o;s.call(e,o,c),i(a,[o,c],(i=>i[0]===o&&i[1]===c),!0),d&&n()}),e.disconnect=(c=e.disconnect,(i,n,s)=>{const r=a.size>0;if(void 0===i)c.apply(e),a.clear();else if("number"==typeof i){c.call(e,i);for(const t of a)t[1]===i&&a.delete(t)}else{t(i)?c.call(e,i,n,s):c.call(e,i,n);for(const t of a)t[0]!==i||void 0!==n&&t[1]!==n||void 0!==s&&t[2]!==s||a.delete(t)}const d=0===a.size;r&&d&&o()}),e})(K,de),Je=(Ke=Ni,tn=Qe,(i,t)=>{t.channelCount=1,t.channelCountMode="explicit",Object.defineProperty(t,"channelCount",{get:()=>1,set:()=>{throw Ke()}}),Object.defineProperty(t,"channelCountMode",{get:()=>"explicit",set:()=>{throw Ke()}});const e=i.createBufferSource();tn(t,(()=>{const i=t.numberOfInputs;for(let n=0;n<i;n+=1)e.connect(t,0,n)}),(()=>e.disconnect(t)))});var Ke,tn;const en=((i,t)=>(e,n)=>{const o=e.createChannelMerger(n.numberOfInputs);return null!==i&&"webkitAudioContext"===i.name&&t(e,o),Xi(o,n),o})(se,Je),nn=((i,t,e)=>()=>{const n=new WeakMap;return{render(o,a){const s=n.get(a);return void 0!==s?Promise.resolve(s):(async(o,a)=>{let s=t(o);if(!M(s,a)){const t={channelCount:s.channelCount,channelCountMode:s.channelCountMode,channelInterpretation:s.channelInterpretation,numberOfInputs:s.numberOfInputs};s=i(a,t)}return n.set(a,s),await e(o,a,s),s})(o,a)}}})(en,di,Xt),on=((i,t,e,n,o)=>class extends i{constructor(i,a){const s=n(i),c={...Fi,...a};super(i,!1,e(s,c),o(s)?t():null)}})(le,nn,en,Jt,te),an=((i,t,e)=>()=>{const n=new WeakMap;return{render(o,a){const s=n.get(a);return void 0!==s?Promise.resolve(s):(async(o,a)=>{let s=t(o);if(!M(s,a)){const t={channelCount:s.channelCount,channelCountMode:s.channelCountMode,channelInterpretation:s.channelInterpretation,numberOfOutputs:s.numberOfOutputs};s=i(a,t)}return n.set(a,s),await e(o,a,s),s})(o,a)}}})(st,di,Xt),sn=((i,t,e,n,o,a)=>class extends i{constructor(i,s){const c=n(i),r=a({...Ei,...s});super(i,!1,e(c,r),o(c)?t():null)}})(le,an,st,Jt,te,(i=>({...i,channelCount:i.numberOfOutputs}))),cn=((i,t,e,n)=>(o,{offset:a,...s})=>{const c=o.createBuffer(1,2,44100),r=t(o,{buffer:null,channelCount:2,channelCountMode:"max",channelInterpretation:"speakers",loop:!1,loopEnd:0,loopStart:0,playbackRate:1}),d=e(o,{...s,gain:a}),m=c.getChannelData(0);m[0]=1,m[1]=1,r.buffer=c,r.loop=!0;const u={get bufferSize(){},get channelCount(){return d.channelCount},set channelCount(i){d.channelCount=i},get channelCountMode(){return d.channelCountMode},set channelCountMode(i){d.channelCountMode=i},get channelInterpretation(){return d.channelInterpretation},set channelInterpretation(i){d.channelInterpretation=i},get context(){return d.context},get inputs(){return[]},get numberOfInputs(){return r.numberOfInputs},get numberOfOutputs(){return d.numberOfOutputs},get offset(){return d.gain},get onended(){return r.onended},set onended(i){r.onended=i},addEventListener:(...i)=>r.addEventListener(i[0],i[1],i[2]),dispatchEvent:(...i)=>r.dispatchEvent(i[0]),removeEventListener:(...i)=>r.removeEventListener(i[0],i[1],i[2]),start(i=0){r.start.call(r,i)},stop(i=0){r.stop.call(r,i)}};return i(o,r),n(ct(u,d),(()=>r.connect(d)),(()=>r.disconnect(d)))})(De,Be,dt,Qe),rn=((i,t,e,n,o)=>(a,s)=>{if(void 0===a.createConstantSource)return e(a,s);const c=a.createConstantSource();return Xi(c,s),$i(c,s,"offset"),t(n,(()=>n(a)))||Qi(c),t(o,(()=>o(a)))||Ji(c),i(a,c),c})(De,Nt,cn,xt,bt),dn=((i,t,e,n,o)=>()=>{const a=new WeakMap;let s=null,c=null;return{set start(i){s=i},set stop(i){c=i},render(r,d){const m=a.get(d);return void 0!==m?Promise.resolve(m):(async(r,d)=>{let m=e(r);const u=M(m,d);if(!u){const i={channelCount:m.channelCount,channelCountMode:m.channelCountMode,channelInterpretation:m.channelInterpretation,offset:m.offset.value};m=t(d,i),null!==s&&m.start(s),null!==c&&m.stop(c)}return a.set(d,m),u?await i(d,r.offset,m.offset):await n(d,r.offset,m.offset),await o(r,d,m),m})(r,d)}}})(Se,rn,di,Ge,Xt),mn=((i,t,e,n,o,a,s)=>class extends i{get offset(){return this._offset}get onended(){return this._onended}set onended(i){const t="function"==typeof i?s(this,i):null;this._nativeConstantSourceNode.onended=t;const e=this._nativeConstantSourceNode.onended;this._onended=null!==e&&e===t?i:e}start(i=0){if(this._nativeConstantSourceNode.start(i),null!==this._constantSourceNodeRenderer&&(this._constantSourceNodeRenderer.start=i),"closed"!==this.context.state){F(this);const i=()=>{this._nativeConstantSourceNode.removeEventListener("ended",i),N(this)&&S(this)};this._nativeConstantSourceNode.addEventListener("ended",i)}}stop(i=0){this._nativeConstantSourceNode.stop(i),null!==this._constantSourceNodeRenderer&&(this._constantSourceNodeRenderer.stop=i)}constructor(i,s){const c=o(i),r={...Si,...s},d=n(c,r),m=a(c),u=m?e():null;super(i,!1,d,u),this._constantSourceNodeRenderer=u,this._nativeConstantSourceNode=d,this._offset=t(this,m,d.offset,34028234663852886e22,-34028234663852886e22),this._onended=null}})(le,Ve,dn,rn,Jt,te,Et),un=((i,t)=>(e,n)=>{const o=e.createConvolver();if(Xi(o,n),n.disableNormalization===o.normalize&&(o.normalize=!n.disableNormalization),Yi(o,n,"buffer"),n.channelCount>2)throw i();if(t(o,"channelCount",(i=>()=>i.call(o)),(t=>e=>{if(e>2)throw i();return t.call(o,e)})),"max"===n.channelCountMode)throw i();return t(o,"channelCountMode",(i=>()=>i.call(o)),(t=>e=>{if("max"===e)throw i();return t.call(o,e)})),o})(kt,Ct),ln=((i,t,e)=>()=>{const n=new WeakMap;return{render(o,a){const s=n.get(a);return void 0!==s?Promise.resolve(s):(async(o,a)=>{let s=t(o);if(!M(s,a)){const t={buffer:s.buffer,channelCount:s.channelCount,channelCountMode:s.channelCountMode,channelInterpretation:s.channelInterpretation,disableNormalization:!s.normalize};s=i(a,t)}return n.set(a,s),ei(s)?await e(o,a,s.inputs[0]):await e(o,a,s),s})(o,a)}}})(un,di,Xt),kn=((i,t,e,n,o,a)=>class extends i{get buffer(){return this._isBufferNullified?null:this._nativeConvolverNode.buffer}set buffer(i){if(this._nativeConvolverNode.buffer=i,null===i&&null!==this._nativeConvolverNode.buffer){const i=this._nativeConvolverNode.context;this._nativeConvolverNode.buffer=i.createBuffer(1,1,44100),this._isBufferNullified=!0,a(this,0)}else this._isBufferNullified=!1,a(this,null===this._nativeConvolverNode.buffer?0:this._nativeConvolverNode.buffer.duration)}get normalize(){return this._nativeConvolverNode.normalize}set normalize(i){this._nativeConvolverNode.normalize=i}constructor(i,s){const c=n(i),r={...Oi,...s},d=e(c,r);super(i,!1,d,o(c)?t():null),this._isBufferNullified=!1,this._nativeConvolverNode=d,null!==r.buffer&&a(this,r.buffer.duration)}})(le,ln,un,Jt,te,je),vn=((i,t,e,n,o)=>a=>{const s=new WeakMap;return{render(c,r){const d=s.get(r);return void 0!==d?Promise.resolve(d):(async(c,r)=>{let d=e(c);const m=M(d,r);if(!m){const i={channelCount:d.channelCount,channelCountMode:d.channelCountMode,channelInterpretation:d.channelInterpretation,delayTime:d.delayTime.value,maxDelayTime:a};d=t(r,i)}return s.set(r,d),m?await i(r,c.delayTime,d.delayTime):await n(r,c.delayTime,d.delayTime),await o(c,r,d),d})(c,r)}}})(Se,rt,di,Ge,Xt),yn=((i,t,e,n,o,a,s)=>class extends i{get delayTime(){return this._delayTime}constructor(i,c){const r=o(i),d={...Mi,...c},m=n(r,d),u=a(r);super(i,!1,m,u?e(d.maxDelayTime):null),this._delayTime=t(this,u,m.delayTime),s(this,d.maxDelayTime)}})(le,Ve,vn,rt,Jt,te,je),hn=(Tn=kt,(i,t)=>{const e=i.createDynamicsCompressor();if(Xi(e,t),t.channelCount>2)throw Tn();if("max"===t.channelCountMode)throw Tn();return $i(e,t,"attack"),$i(e,t,"knee"),$i(e,t,"ratio"),$i(e,t,"release"),$i(e,t,"threshold"),e});var Tn;const pn=((i,t,e,n,o)=>()=>{const a=new WeakMap;return{render(s,c){const r=a.get(c);return void 0!==r?Promise.resolve(r):(async(s,c)=>{let r=e(s);const d=M(r,c);if(!d){const i={attack:r.attack.value,channelCount:r.channelCount,channelCountMode:r.channelCountMode,channelInterpretation:r.channelInterpretation,knee:r.knee.value,ratio:r.ratio.value,release:r.release.value,threshold:r.threshold.value};r=t(c,i)}return a.set(c,r),d?(await i(c,s.attack,r.attack),await i(c,s.knee,r.knee),await i(c,s.ratio,r.ratio),await i(c,s.release,r.release),await i(c,s.threshold,r.threshold)):(await n(c,s.attack,r.attack),await n(c,s.knee,r.knee),await n(c,s.ratio,r.ratio),await n(c,s.release,r.release),await n(c,s.threshold,r.threshold)),await o(s,c,r),r})(s,c)}}})(Se,hn,di,Ge,Xt),fn=((i,t,e,n,o,a,s,c)=>class extends i{get attack(){return this._attack}get channelCount(){return this._nativeDynamicsCompressorNode.channelCount}set channelCount(i){const t=this._nativeDynamicsCompressorNode.channelCount;if(this._nativeDynamicsCompressorNode.channelCount=i,i>2)throw this._nativeDynamicsCompressorNode.channelCount=t,o()}get channelCountMode(){return this._nativeDynamicsCompressorNode.channelCountMode}set channelCountMode(i){const t=this._nativeDynamicsCompressorNode.channelCountMode;if(this._nativeDynamicsCompressorNode.channelCountMode=i,"max"===i)throw this._nativeDynamicsCompressorNode.channelCountMode=t,o()}get knee(){return this._knee}get ratio(){return this._ratio}get reduction(){return"number"==typeof this._nativeDynamicsCompressorNode.reduction.value?this._nativeDynamicsCompressorNode.reduction.value:this._nativeDynamicsCompressorNode.reduction}get release(){return this._release}get threshold(){return this._threshold}constructor(i,o){const r=a(i),d={...Vi,...o},m=n(r,d),u=s(r);super(i,!1,m,u?e():null),this._attack=t(this,u,m.attack),this._knee=t(this,u,m.knee),this._nativeDynamicsCompressorNode=m,this._ratio=t(this,u,m.ratio),this._release=t(this,u,m.release),this._threshold=t(this,u,m.threshold),c(this,.006)}})(le,Ve,pn,hn,kt,Jt,te,je),_n=((i,t,e,n,o)=>()=>{const a=new WeakMap;return{render(s,c){const r=a.get(c);return void 0!==r?Promise.resolve(r):(async(s,c)=>{let r=e(s);const d=M(r,c);if(!d){const i={channelCount:r.channelCount,channelCountMode:r.channelCountMode,channelInterpretation:r.channelInterpretation,gain:r.gain.value};r=t(c,i)}return a.set(c,r),d?await i(c,s.gain,r.gain):await n(c,s.gain,r.gain),await o(s,c,r),r})(s,c)}}})(Se,dt,di,Ge,Xt),An=((i,t,e,n,o,a)=>class extends i{get gain(){return this._gain}constructor(i,s){const c=o(i),r={...Ri,...s},d=n(c,r),m=a(c);super(i,!1,d,m?e():null),this._gain=t(this,m,d.gain,34028234663852886e22,-34028234663852886e22)}})(le,Ve,_n,dt,Jt,te),gn=((i,t,e,n)=>(o,a,{channelCount:s,channelCountMode:c,channelInterpretation:r,feedback:d,feedforward:m})=>{const u=it(a,o.sampleRate),l=d instanceof Float64Array?d:new Float64Array(d),k=m instanceof Float64Array?m:new Float64Array(m),v=l.length,y=k.length,h=Math.min(v,y);if(0===v||v>20)throw n();if(0===l[0])throw t();if(0===y||y>20)throw n();if(0===k[0])throw t();if(1!==l[0]){for(let i=0;i<y;i+=1)k[i]/=l[0];for(let i=1;i<v;i+=1)l[i]/=l[0]}const T=e(o,u,s,s);T.channelCount=s,T.channelCountMode=c,T.channelInterpretation=r;const p=[],f=[],_=[];for(let i=0;i<s;i+=1){p.push(0);const i=new Float32Array(32),t=new Float32Array(32);i.fill(0),t.fill(0),f.push(i),_.push(t)}T.onaudioprocess=i=>{const t=i.inputBuffer,e=i.outputBuffer,n=t.numberOfChannels;for(let i=0;i<n;i+=1){const n=t.getChannelData(i),o=e.getChannelData(i);p[i]=Li(l,v,k,y,h,f[i],_[i],p[i],32,n,o)}};const A=o.sampleRate/2;return ct({get bufferSize(){return u},get channelCount(){return T.channelCount},set channelCount(i){T.channelCount=i},get channelCountMode(){return T.channelCountMode},set channelCountMode(i){T.channelCountMode=i},get channelInterpretation(){return T.channelInterpretation},set channelInterpretation(i){T.channelInterpretation=i},get context(){return T.context},get inputs(){return[T]},get numberOfInputs(){return T.numberOfInputs},get numberOfOutputs(){return T.numberOfOutputs},addEventListener:(...i)=>T.addEventListener(i[0],i[1],i[2]),dispatchEvent:(...i)=>T.dispatchEvent(i[0]),getFrequencyResponse(t,e,n){if(t.length!==e.length||e.length!==n.length)throw i();const o=t.length;for(let i=0;i<o;i+=1){const o=-Math.PI*(t[i]/A),a=[Math.cos(o),Math.sin(o)],s=mt(ut(k,a),ut(l,a));e[i]=Math.sqrt(s[0]*s[0]+s[1]*s[1]),n[i]=Math.atan2(s[1],s[0])}},removeEventListener:(...i)=>T.removeEventListener(i[0],i[1],i[2])},T)})(Pi,Ni,lt,kt),Cn=((i,t,e,n)=>o=>i(Ui,(()=>Ui(o)))?Promise.resolve(i(n,n)).then((i=>{if(!i){const i=e(o,512,0,1);o.oncomplete=()=>{i.onaudioprocess=null,i.disconnect()},i.onaudioprocess=()=>o.currentTime,i.connect(o.destination)}return o.startRendering()})):new Promise((i=>{const e=t(o,{channelCount:1,channelCountMode:"explicit",channelInterpretation:"discrete",gain:0});o.oncomplete=t=>{e.disconnect(),i(t.renderedBuffer)},e.connect(o.destination),o.startRendering()})))(Nt,dt,lt,((i,t)=>()=>{if(null===t)return Promise.resolve(!1);const e=new t(1,1,44100),n=i(e,{channelCount:1,channelCountMode:"explicit",channelInterpretation:"discrete",gain:0});return new Promise((i=>{e.oncomplete=()=>{n.disconnect(),i(0!==e.currentTime)},e.startRendering()}))})(dt,ie)),Dn=((i,t,e,n,o)=>(a,s)=>{const c=new WeakMap;let r=null;const d=async(d,m)=>{let u=null,l=t(d);const k=M(l,m);if(void 0===m.createIIRFilter?u=i(m,{buffer:null,channelCount:2,channelCountMode:"max",channelInterpretation:"speakers",loop:!1,loopEnd:0,loopStart:0,playbackRate:1}):k||(l=m.createIIRFilter(s,a)),c.set(m,null===u?l:u),null!==u){if(null===r){if(null===e)throw new Error("Missing the native OfflineAudioContext constructor.");const i=new e(d.context.destination.channelCount,d.context.length,m.sampleRate);r=(async()=>{await n(d,i,i.destination);return((i,t,e,n)=>{const o=e instanceof Float64Array?e:new Float64Array(e),a=n instanceof Float64Array?n:new Float64Array(n),s=o.length,c=a.length,r=Math.min(s,c);if(1!==o[0]){for(let i=0;i<s;i+=1)a[i]/=o[0];for(let i=1;i<c;i+=1)o[i]/=o[0]}const d=new Float32Array(32),m=new Float32Array(32),u=t.createBuffer(i.numberOfChannels,i.length,i.sampleRate),l=i.numberOfChannels;for(let t=0;t<l;t+=1){const e=i.getChannelData(t),n=u.getChannelData(t);d.fill(0),m.fill(0),Li(o,s,a,c,r,d,m,0,32,e,n)}return u})(await o(i),m,a,s)})()}const i=await r;return u.buffer=i,u.start(0),u}return await n(d,m,l),l};return{render(i,t){const e=c.get(t);return void 0!==e?Promise.resolve(e):d(i,t)}}})(Be,di,ie,Xt,Cn);var xn;const wn=((i,t,e,n,o,a)=>class extends i{getFrequencyResponse(i,t,e){return this._nativeIIRFilterNode.getFrequencyResponse(i,t,e)}constructor(i,s){const c=n(i),r=o(c),d={...ji,...s},m=t(c,r?null:i.baseLatency,d);super(i,!1,m,r?e(d.feedback,d.feedforward):null),qi(m),this._nativeIIRFilterNode=m,a(this,1)}})(le,(xn=gn,(i,t,e)=>{if(void 0===i.createIIRFilter)return xn(i,t,e);const n=i.createIIRFilter(e.feedforward,e.feedback);return Xi(n,e),n}),Dn,Jt,te,je),bn=((i,t,e,n,o,a,s,c)=>(r,d)=>{const m=d.listener,{forwardX:u,forwardY:l,forwardZ:k,positionX:v,positionY:y,positionZ:h,upX:T,upY:p,upZ:f}=void 0===m.forwardX?(()=>{const u=new Float32Array(1),l=t(d,{channelCount:1,channelCountMode:"explicit",channelInterpretation:"speakers",numberOfInputs:9}),k=s(d);let v=!1,y=[0,0,-1,0,1,0],h=[0,0,0];const T=()=>{if(v)return;v=!0;const i=n(d,256,9,0);i.onaudioprocess=({inputBuffer:i})=>{const t=[a(i,u,0),a(i,u,1),a(i,u,2),a(i,u,3),a(i,u,4),a(i,u,5)];t.some(((i,t)=>i!==y[t]))&&(m.setOrientation(...t),y=t);const e=[a(i,u,6),a(i,u,7),a(i,u,8)];e.some(((i,t)=>i!==h[t]))&&(m.setPosition(...e),h=e)},l.connect(i)},p=i=>t=>{t!==y[i]&&(y[i]=t,m.setOrientation(...y))},f=i=>t=>{t!==h[i]&&(h[i]=t,m.setPosition(...h))},_=(t,n,a)=>{const s=e(d,{channelCount:1,channelCountMode:"explicit",channelInterpretation:"discrete",offset:n});s.connect(l,0,t),s.start(),Object.defineProperty(s.offset,"defaultValue",{get:()=>n});const m=i({context:r},k,s.offset,34028234663852886e22,-34028234663852886e22);var u,v,y,h,p,f,_;return c(m,"value",(i=>()=>i.call(m)),(i=>t=>{try{i.call(m,t)}catch(i){if(9!==i.code)throw i}T(),k&&a(t)})),m.cancelAndHoldAtTime=(u=m.cancelAndHoldAtTime,k?()=>{throw o()}:(...i)=>{const t=u.apply(m,i);return T(),t}),m.cancelScheduledValues=(v=m.cancelScheduledValues,k?()=>{throw o()}:(...i)=>{const t=v.apply(m,i);return T(),t}),m.exponentialRampToValueAtTime=(y=m.exponentialRampToValueAtTime,k?()=>{throw o()}:(...i)=>{const t=y.apply(m,i);return T(),t}),m.linearRampToValueAtTime=(h=m.linearRampToValueAtTime,k?()=>{throw o()}:(...i)=>{const t=h.apply(m,i);return T(),t}),m.setTargetAtTime=(p=m.setTargetAtTime,k?()=>{throw o()}:(...i)=>{const t=p.apply(m,i);return T(),t}),m.setValueAtTime=(f=m.setValueAtTime,k?()=>{throw o()}:(...i)=>{const t=f.apply(m,i);return T(),t}),m.setValueCurveAtTime=(_=m.setValueCurveAtTime,k?()=>{throw o()}:(...i)=>{const t=_.apply(m,i);return T(),t}),m};return{forwardX:_(0,0,p(0)),forwardY:_(1,0,p(1)),forwardZ:_(2,-1,p(2)),positionX:_(6,0,f(0)),positionY:_(7,0,f(1)),positionZ:_(8,0,f(2)),upX:_(3,0,p(3)),upY:_(4,1,p(4)),upZ:_(5,0,p(5))}})():m;return{get forwardX(){return u},get forwardY(){return l},get forwardZ(){return k},get positionX(){return v},get positionY(){return y},get positionZ(){return h},get upX(){return T},get upY(){return p},get upZ(){return f}}})(Ve,en,rn,lt,kt,At,te,Ct),Fn=new WeakMap,En=((i,t,e,n,o,a)=>class extends e{get currentTime(){return this._nativeContext.currentTime}get destination(){return this._destination}get listener(){return this._listener}get onstatechange(){return this._onstatechange}set onstatechange(i){const t="function"==typeof i?a(this,i):null;this._nativeContext.onstatechange=t;const e=this._nativeContext.onstatechange;this._onstatechange=null!==e&&e===t?i:e}get sampleRate(){return this._nativeContext.sampleRate}get state(){return this._nativeContext.state}constructor(e,a){super(e),this._nativeContext=e,k.set(this,e),n(e)&&o.set(e,new Set),this._destination=new i(this,a),this._listener=t(this,e),this._onstatechange=null}})(Pe,bn,oe,te,Fn,Et),Sn=((i,t,e,n,o,a)=>(s,c)=>{const r=s.createOscillator();return Xi(r,c),$i(r,c,"detune"),$i(r,c,"frequency"),void 0!==c.periodicWave?r.setPeriodicWave(c.periodicWave):Yi(r,c,"type"),t(e,(()=>e(s)))||Qi(r),t(n,(()=>n(s)))||a(r,s),t(o,(()=>o(s)))||Ji(r),i(s,r),r})(De,Nt,xt,wt,bt,Ft),On=((i,t,e,n,o)=>()=>{const a=new WeakMap;let s=null,c=null,r=null;return{set periodicWave(i){s=i},set start(i){c=i},set stop(i){r=i},render(d,m){const u=a.get(m);return void 0!==u?Promise.resolve(u):(async(d,m)=>{let u=e(d);const l=M(u,m);if(!l){const i={channelCount:u.channelCount,channelCountMode:u.channelCountMode,channelInterpretation:u.channelInterpretation,detune:u.detune.value,frequency:u.frequency.value,periodicWave:null===s?void 0:s,type:u.type};u=t(m,i),null!==c&&u.start(c),null!==r&&u.stop(r)}return a.set(m,u),l?(await i(m,d.detune,u.detune),await i(m,d.frequency,u.frequency)):(await n(m,d.detune,u.detune),await n(m,d.frequency,u.frequency)),await o(d,m,u),u})(d,m)}}})(Se,Sn,di,Ge,Xt),Bn=((i,t,e,n,o,a,s)=>class extends i{get detune(){return this._detune}get frequency(){return this._frequency}get onended(){return this._onended}set onended(i){const t="function"==typeof i?s(this,i):null;this._nativeOscillatorNode.onended=t;const e=this._nativeOscillatorNode.onended;this._onended=null!==e&&e===t?i:e}get type(){return this._nativeOscillatorNode.type}set type(i){this._nativeOscillatorNode.type=i,null!==this._oscillatorNodeRenderer&&(this._oscillatorNodeRenderer.periodicWave=null)}setPeriodicWave(i){this._nativeOscillatorNode.setPeriodicWave(i),null!==this._oscillatorNodeRenderer&&(this._oscillatorNodeRenderer.periodicWave=i)}start(i=0){if(this._nativeOscillatorNode.start(i),null!==this._oscillatorNodeRenderer&&(this._oscillatorNodeRenderer.start=i),"closed"!==this.context.state){F(this);const i=()=>{this._nativeOscillatorNode.removeEventListener("ended",i),N(this)&&S(this)};this._nativeOscillatorNode.addEventListener("ended",i)}}stop(i=0){this._nativeOscillatorNode.stop(i),null!==this._oscillatorNodeRenderer&&(this._oscillatorNodeRenderer.stop=i)}constructor(i,s){const c=o(i),r={...yt,...s},d=e(c,r),m=a(c),u=m?n():null,l=i.sampleRate/2;super(i,!1,d,u),this._detune=t(this,m,d.detune,153600,-153600),this._frequency=t(this,m,d.frequency,l,-l),this._nativeOscillatorNode=d,this._onended=null,this._oscillatorNodeRenderer=u,null!==this._oscillatorNodeRenderer&&void 0!==r.periodicWave&&(this._oscillatorNodeRenderer.periodicWave=r.periodicWave)}})(le,Ve,Sn,On,Jt,te,Et),Mn=(Gn=Be,(i,t)=>{const e=Gn(i,{buffer:null,channelCount:2,channelCountMode:"max",channelInterpretation:"speakers",loop:!1,loopEnd:0,loopStart:0,playbackRate:1}),n=i.createBuffer(1,2,44100);return e.buffer=n,e.loop=!0,e.connect(t),e.start(),()=>{e.stop(),e.disconnect(t)}});var Gn;const In=((i,t,e,n,o)=>(a,{curve:s,oversample:c,...r})=>{const d=a.createWaveShaper(),m=a.createWaveShaper();Xi(d,r),Xi(m,r);const u=e(a,{...r,gain:1}),l=e(a,{...r,gain:-1}),k=e(a,{...r,gain:1}),v=e(a,{...r,gain:-1});let y=null,h=!1,T=null;const p={get bufferSize(){},get channelCount(){return d.channelCount},set channelCount(i){u.channelCount=i,l.channelCount=i,d.channelCount=i,k.channelCount=i,m.channelCount=i,v.channelCount=i},get channelCountMode(){return d.channelCountMode},set channelCountMode(i){u.channelCountMode=i,l.channelCountMode=i,d.channelCountMode=i,k.channelCountMode=i,m.channelCountMode=i,v.channelCountMode=i},get channelInterpretation(){return d.channelInterpretation},set channelInterpretation(i){u.channelInterpretation=i,l.channelInterpretation=i,d.channelInterpretation=i,k.channelInterpretation=i,m.channelInterpretation=i,v.channelInterpretation=i},get context(){return d.context},get curve(){return T},set curve(e){if(null!==e&&e.length<2)throw t();if(null===e)d.curve=e,m.curve=e;else{const i=e.length,t=new Float32Array(i+2-i%2),n=new Float32Array(i+2-i%2);t[0]=e[0],n[0]=-e[i-1];const o=Math.ceil((i+1)/2),a=(i+1)/2-1;for(let s=1;s<o;s+=1){const c=s/o*a,r=Math.floor(c),d=Math.ceil(c);t[s]=r===d?e[r]:(1-(c-r))*e[r]+(1-(d-c))*e[d],n[s]=r===d?-e[i-1-r]:-(1-(c-r))*e[i-1-r]-(1-(d-c))*e[i-1-d]}t[o]=i%2==1?e[o-1]:(e[o-2]+e[o-1])/2,d.curve=t,m.curve=n}T=e,h&&(n(T)&&null===y?y=i(a,u):null!==y&&(y(),y=null))},get inputs(){return[u]},get numberOfInputs(){return d.numberOfInputs},get numberOfOutputs(){return d.numberOfOutputs},get oversample(){return d.oversample},set oversample(i){d.oversample=i,m.oversample=i},addEventListener:(...i)=>u.addEventListener(i[0],i[1],i[2]),dispatchEvent:(...i)=>u.dispatchEvent(i[0]),removeEventListener:(...i)=>u.removeEventListener(i[0],i[1],i[2])};null!==s&&(p.curve=s instanceof Float32Array?s:new Float32Array(s)),c!==p.oversample&&(p.oversample=c);return o(ct(p,k),(()=>{u.connect(d).connect(k),u.connect(l).connect(m).connect(v).connect(k),h=!0,n(T)&&(y=i(a,u))}),(()=>{u.disconnect(d),d.disconnect(k),u.disconnect(l),l.disconnect(m),m.disconnect(v),v.disconnect(k),h=!1,null!==y&&(y(),y=null)}))})(Mn,Ni,dt,gt,Qe),Vn=((i,t,e,n,o,a,s)=>(c,r)=>{const d=c.createWaveShaper();if(null!==a&&"webkitAudioContext"===a.name&&void 0===c.createGain().gain.automationRate)return e(c,r);Xi(d,r);const m=null===r.curve||r.curve instanceof Float32Array?r.curve:new Float32Array(r.curve);if(null!==m&&m.length<2)throw t();Yi(d,{curve:m},"curve"),Yi(d,r,"oversample");let u=null,l=!1;s(d,"curve",(i=>()=>i.call(d)),(t=>e=>(t.call(d,e),l&&(n(e)&&null===u?u=i(c,d):n(e)||null===u||(u(),u=null)),e)));return o(d,(()=>{l=!0,n(d.curve)&&(u=i(c,d))}),(()=>{l=!1,null!==u&&(u(),u=null)}))})(Mn,Ni,In,gt,Qe,se,Ct),Rn=((i,t,e,n,o,a,s,c,r,d)=>(m,{coneInnerAngle:u,coneOuterAngle:l,coneOuterGain:k,distanceModel:v,maxDistance:y,orientationX:h,orientationY:T,orientationZ:p,panningModel:f,positionX:_,positionY:A,positionZ:g,refDistance:C,rolloffFactor:D,...x})=>{const w=m.createPanner();if(x.channelCount>2)throw s();if("max"===x.channelCountMode)throw s();Xi(w,x);const b={channelCount:1,channelCountMode:"explicit",channelInterpretation:"discrete"},F=e(m,{...b,channelInterpretation:"speakers",numberOfInputs:6}),E=n(m,{...x,gain:1}),S=n(m,{...b,gain:1}),O=n(m,{...b,gain:0}),B=n(m,{...b,gain:0}),M=n(m,{...b,gain:0}),G=n(m,{...b,gain:0}),I=n(m,{...b,gain:0}),V=o(m,256,6,1),R=a(m,{...b,curve:new Float32Array([1,1]),oversample:"none"});let N=[h,T,p],P=[_,A,g];const q=new Float32Array(1);V.onaudioprocess=({inputBuffer:i})=>{const t=[r(i,q,0),r(i,q,1),r(i,q,2)];t.some(((i,t)=>i!==N[t]))&&(w.setOrientation(...t),N=t);const e=[r(i,q,3),r(i,q,4),r(i,q,5)];e.some(((i,t)=>i!==P[t]))&&(w.setPosition(...e),P=e)},Object.defineProperty(O.gain,"defaultValue",{get:()=>0}),Object.defineProperty(B.gain,"defaultValue",{get:()=>0}),Object.defineProperty(M.gain,"defaultValue",{get:()=>0}),Object.defineProperty(G.gain,"defaultValue",{get:()=>0}),Object.defineProperty(I.gain,"defaultValue",{get:()=>0});const j={get bufferSize(){},get channelCount(){return w.channelCount},set channelCount(i){if(i>2)throw s();E.channelCount=i,w.channelCount=i},get channelCountMode(){return w.channelCountMode},set channelCountMode(i){if("max"===i)throw s();E.channelCountMode=i,w.channelCountMode=i},get channelInterpretation(){return w.channelInterpretation},set channelInterpretation(i){E.channelInterpretation=i,w.channelInterpretation=i},get coneInnerAngle(){return w.coneInnerAngle},set coneInnerAngle(i){w.coneInnerAngle=i},get coneOuterAngle(){return w.coneOuterAngle},set coneOuterAngle(i){w.coneOuterAngle=i},get coneOuterGain(){return w.coneOuterGain},set coneOuterGain(i){if(i<0||i>1)throw t();w.coneOuterGain=i},get context(){return w.context},get distanceModel(){return w.distanceModel},set distanceModel(i){w.distanceModel=i},get inputs(){return[E]},get maxDistance(){return w.maxDistance},set maxDistance(i){if(i<0)throw new RangeError;w.maxDistance=i},get numberOfInputs(){return w.numberOfInputs},get numberOfOutputs(){return w.numberOfOutputs},get orientationX(){return S.gain},get orientationY(){return O.gain},get orientationZ(){return B.gain},get panningModel(){return w.panningModel},set panningModel(i){w.panningModel=i},get positionX(){return M.gain},get positionY(){return G.gain},get positionZ(){return I.gain},get refDistance(){return w.refDistance},set refDistance(i){if(i<0)throw new RangeError;w.refDistance=i},get rolloffFactor(){return w.rolloffFactor},set rolloffFactor(i){if(i<0)throw new RangeError;w.rolloffFactor=i},addEventListener:(...i)=>E.addEventListener(i[0],i[1],i[2]),dispatchEvent:(...i)=>E.dispatchEvent(i[0]),removeEventListener:(...i)=>E.removeEventListener(i[0],i[1],i[2])};u!==j.coneInnerAngle&&(j.coneInnerAngle=u),l!==j.coneOuterAngle&&(j.coneOuterAngle=l),k!==j.coneOuterGain&&(j.coneOuterGain=k),v!==j.distanceModel&&(j.distanceModel=v),y!==j.maxDistance&&(j.maxDistance=y),h!==j.orientationX.value&&(j.orientationX.value=h),T!==j.orientationY.value&&(j.orientationY.value=T),p!==j.orientationZ.value&&(j.orientationZ.value=p),f!==j.panningModel&&(j.panningModel=f),_!==j.positionX.value&&(j.positionX.value=_),A!==j.positionY.value&&(j.positionY.value=A),g!==j.positionZ.value&&(j.positionZ.value=g),C!==j.refDistance&&(j.refDistance=C),D!==j.rolloffFactor&&(j.rolloffFactor=D),1===N[0]&&0===N[1]&&0===N[2]||w.setOrientation(...N),0===P[0]&&0===P[1]&&0===P[2]||w.setPosition(...P);return d(ct(j,w),(()=>{E.connect(w),i(E,R,0,0),R.connect(S).connect(F,0,0),R.connect(O).connect(F,0,1),R.connect(B).connect(F,0,2),R.connect(M).connect(F,0,3),R.connect(G).connect(F,0,4),R.connect(I).connect(F,0,5),F.connect(V).connect(m.destination)}),(()=>{E.disconnect(w),c(E,R,0,0),R.disconnect(S),S.disconnect(F),R.disconnect(O),O.disconnect(F),R.disconnect(B),B.disconnect(F),R.disconnect(M),M.disconnect(F),R.disconnect(G),G.disconnect(F),R.disconnect(I),I.disconnect(F),F.disconnect(V),V.disconnect(m.destination)}))})(ni,Ni,en,dt,lt,Vn,kt,ri,At,Qe),Nn=(Pn=Rn,(i,t)=>{const e=i.createPanner();return void 0===e.orientationX?Pn(i,t):(Xi(e,t),$i(e,t,"orientationX"),$i(e,t,"orientationY"),$i(e,t,"orientationZ"),$i(e,t,"positionX"),$i(e,t,"positionY"),$i(e,t,"positionZ"),Yi(e,t,"coneInnerAngle"),Yi(e,t,"coneOuterAngle"),Yi(e,t,"coneOuterGain"),Yi(e,t,"distanceModel"),Yi(e,t,"maxDistance"),Yi(e,t,"panningModel"),Yi(e,t,"refDistance"),Yi(e,t,"rolloffFactor"),e)});var Pn;const qn=((i,t,e,n,o,a,s,c,r,d)=>()=>{const m=new WeakMap;let u=null;return{render(l,k){const v=m.get(k);return void 0!==v?Promise.resolve(v):(async(l,k)=>{let v=null,y=a(l);const h={channelCount:y.channelCount,channelCountMode:y.channelCountMode,channelInterpretation:y.channelInterpretation},T={...h,coneInnerAngle:y.coneInnerAngle,coneOuterAngle:y.coneOuterAngle,coneOuterGain:y.coneOuterGain,distanceModel:y.distanceModel,maxDistance:y.maxDistance,panningModel:y.panningModel,refDistance:y.refDistance,rolloffFactor:y.rolloffFactor},p=M(y,k);if("bufferSize"in y)v=n(k,{...h,gain:1});else if(!p){const i={...T,orientationX:y.orientationX.value,orientationY:y.orientationY.value,orientationZ:y.orientationZ.value,positionX:y.positionX.value,positionY:y.positionY.value,positionZ:y.positionZ.value};y=o(k,i)}if(m.set(k,null===v?y:v),null!==v){if(null===u){if(null===s)throw new Error("Missing the native OfflineAudioContext constructor.");const i=new s(6,l.context.length,k.sampleRate),n=t(i,{channelCount:1,channelCountMode:"explicit",channelInterpretation:"speakers",numberOfInputs:6});n.connect(i.destination),u=(async()=>{const t=await Promise.all([l.orientationX,l.orientationY,l.orientationZ,l.positionX,l.positionY,l.positionZ].map((async(t,n)=>{const o=e(i,{channelCount:1,channelCountMode:"explicit",channelInterpretation:"discrete",offset:0===n?1:0});return await c(i,t,o.offset),o})));for(let i=0;i<6;i+=1)t[i].connect(n,0,i),t[i].start(0);return d(i)})()}const i=await u,a=n(k,{...h,gain:1});await r(l,k,a);const m=[];for(let t=0;t<i.numberOfChannels;t+=1)m.push(i.getChannelData(t));let y=[m[0][0],m[1][0],m[2][0]],p=[m[3][0],m[4][0],m[5][0]],f=n(k,{...h,gain:1}),_=o(k,{...T,orientationX:y[0],orientationY:y[1],orientationZ:y[2],positionX:p[0],positionY:p[1],positionZ:p[2]});a.connect(f).connect(_.inputs[0]),_.connect(v);for(let t=128;t<i.length;t+=128){const i=[m[0][t],m[1][t],m[2][t]],e=[m[3][t],m[4][t],m[5][t]];if(i.some(((i,t)=>i!==y[t]))||e.some(((i,t)=>i!==p[t]))){y=i,p=e;const s=t/k.sampleRate;f.gain.setValueAtTime(0,s),f=n(k,{...h,gain:0}),_=o(k,{...T,orientationX:y[0],orientationY:y[1],orientationZ:y[2],positionX:p[0],positionY:p[1],positionZ:p[2]}),f.gain.setValueAtTime(1,s),a.connect(f).connect(_.inputs[0]),_.connect(v)}}return v}return p?(await i(k,l.orientationX,y.orientationX),await i(k,l.orientationY,y.orientationY),await i(k,l.orientationZ,y.orientationZ),await i(k,l.positionX,y.positionX),await i(k,l.positionY,y.positionY),await i(k,l.positionZ,y.positionZ)):(await c(k,l.orientationX,y.orientationX),await c(k,l.orientationY,y.orientationY),await c(k,l.orientationZ,y.orientationZ),await c(k,l.positionX,y.positionX),await c(k,l.positionY,y.positionY),await c(k,l.positionZ,y.positionZ)),ei(y)?await r(l,k,y.inputs[0]):await r(l,k,y),y})(l,k)}}})(Se,en,rn,dt,Nn,di,ie,Ge,Xt,Cn),jn=((i,t,e,n,o,a,s)=>class extends i{get coneInnerAngle(){return this._nativePannerNode.coneInnerAngle}set coneInnerAngle(i){this._nativePannerNode.coneInnerAngle=i}get coneOuterAngle(){return this._nativePannerNode.coneOuterAngle}set coneOuterAngle(i){this._nativePannerNode.coneOuterAngle=i}get coneOuterGain(){return this._nativePannerNode.coneOuterGain}set coneOuterGain(i){this._nativePannerNode.coneOuterGain=i}get distanceModel(){return this._nativePannerNode.distanceModel}set distanceModel(i){this._nativePannerNode.distanceModel=i}get maxDistance(){return this._nativePannerNode.maxDistance}set maxDistance(i){this._nativePannerNode.maxDistance=i}get orientationX(){return this._orientationX}get orientationY(){return this._orientationY}get orientationZ(){return this._orientationZ}get panningModel(){return this._nativePannerNode.panningModel}set panningModel(i){this._nativePannerNode.panningModel=i}get positionX(){return this._positionX}get positionY(){return this._positionY}get positionZ(){return this._positionZ}get refDistance(){return this._nativePannerNode.refDistance}set refDistance(i){this._nativePannerNode.refDistance=i}get rolloffFactor(){return this._nativePannerNode.rolloffFactor}set rolloffFactor(i){this._nativePannerNode.rolloffFactor=i}constructor(i,c){const r=o(i),d={...ht,...c},m=e(r,d),u=a(r);super(i,!1,m,u?n():null),this._nativePannerNode=m,this._orientationX=t(this,u,m.orientationX,34028234663852886e22,-34028234663852886e22),this._orientationY=t(this,u,m.orientationY,34028234663852886e22,-34028234663852886e22),this._orientationZ=t(this,u,m.orientationZ,34028234663852886e22,-34028234663852886e22),this._positionX=t(this,u,m.positionX,34028234663852886e22,-34028234663852886e22),this._positionY=t(this,u,m.positionY,34028234663852886e22,-34028234663852886e22),this._positionZ=t(this,u,m.positionZ,34028234663852886e22,-34028234663852886e22),s(this,1)}})(le,Ve,Nn,qn,Jt,te,je),Ln=(i=>(t,{disableNormalization:e,imag:n,real:o})=>{const a=n instanceof Float32Array?n:new Float32Array(n),s=o instanceof Float32Array?o:new Float32Array(o),c=t.createPeriodicWave(s,a,{disableNormalization:e});if(Array.from(n).length<2)throw i();return c})(I),Wn=((i,t,e,n)=>{let o;return o=Symbol.hasInstance,class a{static[o](i){return null!==i&&"object"==typeof i&&Object.getPrototypeOf(i)===a.prototype||e.has(i)}constructor(o,a){const s=t(o),c=n({...Tt,...a}),r=i(s,c);return e.add(r),r}}})(Ln,Jt,new WeakSet,(i=>{const{imag:t,real:e}=i;return void 0===t?void 0===e?{...i,imag:[0,0],real:[0,0]}:{...i,imag:Array.from(e,(()=>0)),real:e}:void 0===e?{...i,imag:t,real:Array.from(t,(()=>0))}:{...i,imag:t,real:e}})),Un=((i,t,e,n,o,a)=>{const s=16385,c=new Float32Array([1,1]),r=Math.PI/2,d={channelCount:1,channelCountMode:"explicit",channelInterpretation:"discrete"},m={...d,oversample:"none"},u=(i,a,u,l,k)=>{if(1===a)return((i,t,o,a)=>{const u=new Float32Array(s),l=new Float32Array(s);for(let i=0;i<s;i+=1){const t=i/16384*r;u[i]=Math.cos(t),l[i]=Math.sin(t)}const k=e(i,{...d,gain:0}),v=n(i,{...m,curve:u}),y=n(i,{...m,curve:c}),h=e(i,{...d,gain:0}),T=n(i,{...m,curve:l});return{connectGraph(){t.connect(k),t.connect(void 0===y.inputs?y:y.inputs[0]),t.connect(h),y.connect(o),o.connect(void 0===v.inputs?v:v.inputs[0]),o.connect(void 0===T.inputs?T:T.inputs[0]),v.connect(k.gain),T.connect(h.gain),k.connect(a,0,0),h.connect(a,0,1)},disconnectGraph(){t.disconnect(k),t.disconnect(void 0===y.inputs?y:y.inputs[0]),t.disconnect(h),y.disconnect(o),o.disconnect(void 0===v.inputs?v:v.inputs[0]),o.disconnect(void 0===T.inputs?T:T.inputs[0]),v.disconnect(k.gain),T.disconnect(h.gain),k.disconnect(a,0,0),h.disconnect(a,0,1)}}})(i,u,l,k);if(2===a)return((i,o,a,u)=>{const l=new Float32Array(s),k=new Float32Array(s),v=new Float32Array(s),y=new Float32Array(s),h=Math.floor(8192.5);for(let i=0;i<s;i+=1)if(i>h){const t=(i-h)/(16384-h)*r;l[i]=Math.cos(t),k[i]=Math.sin(t),v[i]=0,y[i]=1}else{const t=i/(16384-h)*r;l[i]=1,k[i]=0,v[i]=Math.cos(t),y[i]=Math.sin(t)}const T=t(i,{channelCount:2,channelCountMode:"explicit",channelInterpretation:"discrete",numberOfOutputs:2}),p=e(i,{...d,gain:0}),f=n(i,{...m,curve:l}),_=e(i,{...d,gain:0}),A=n(i,{...m,curve:k}),g=n(i,{...m,curve:c}),C=e(i,{...d,gain:0}),D=n(i,{...m,curve:v}),x=e(i,{...d,gain:0}),w=n(i,{...m,curve:y});return{connectGraph(){o.connect(T),o.connect(void 0===g.inputs?g:g.inputs[0]),T.connect(p,0),T.connect(_,0),T.connect(C,1),T.connect(x,1),g.connect(a),a.connect(void 0===f.inputs?f:f.inputs[0]),a.connect(void 0===A.inputs?A:A.inputs[0]),a.connect(void 0===D.inputs?D:D.inputs[0]),a.connect(void 0===w.inputs?w:w.inputs[0]),f.connect(p.gain),A.connect(_.gain),D.connect(C.gain),w.connect(x.gain),p.connect(u,0,0),C.connect(u,0,0),_.connect(u,0,1),x.connect(u,0,1)},disconnectGraph(){o.disconnect(T),o.disconnect(void 0===g.inputs?g:g.inputs[0]),T.disconnect(p,0),T.disconnect(_,0),T.disconnect(C,1),T.disconnect(x,1),g.disconnect(a),a.disconnect(void 0===f.inputs?f:f.inputs[0]),a.disconnect(void 0===A.inputs?A:A.inputs[0]),a.disconnect(void 0===D.inputs?D:D.inputs[0]),a.disconnect(void 0===w.inputs?w:w.inputs[0]),f.disconnect(p.gain),A.disconnect(_.gain),D.disconnect(C.gain),w.disconnect(x.gain),p.disconnect(u,0,0),C.disconnect(u,0,0),_.disconnect(u,0,1),x.disconnect(u,0,1)}}})(i,u,l,k);throw o()};return(t,{channelCount:n,channelCountMode:s,pan:c,...r})=>{if("max"===s)throw o();const d=i(t,{...r,channelCount:1,channelCountMode:s,numberOfInputs:2}),m=e(t,{...r,channelCount:n,channelCountMode:s,gain:1}),l=e(t,{channelCount:1,channelCountMode:"explicit",channelInterpretation:"discrete",gain:c});let{connectGraph:k,disconnectGraph:v}=u(t,n,m,l,d);Object.defineProperty(l.gain,"defaultValue",{get:()=>0}),Object.defineProperty(l.gain,"maxValue",{get:()=>1}),Object.defineProperty(l.gain,"minValue",{get:()=>-1});const y={get bufferSize(){},get channelCount(){return m.channelCount},set channelCount(i){m.channelCount!==i&&(h&&v(),({connectGraph:k,disconnectGraph:v}=u(t,i,m,l,d)),h&&k()),m.channelCount=i},get channelCountMode(){return m.channelCountMode},set channelCountMode(i){if("clamped-max"===i||"max"===i)throw o();m.channelCountMode=i},get channelInterpretation(){return m.channelInterpretation},set channelInterpretation(i){m.channelInterpretation=i},get context(){return m.context},get inputs(){return[m]},get numberOfInputs(){return m.numberOfInputs},get numberOfOutputs(){return m.numberOfOutputs},get pan(){return l.gain},addEventListener:(...i)=>m.addEventListener(i[0],i[1],i[2]),dispatchEvent:(...i)=>m.dispatchEvent(i[0]),removeEventListener:(...i)=>m.removeEventListener(i[0],i[1],i[2])};let h=!1;return a(ct(y,d),(()=>{k(),h=!0}),(()=>{v(),h=!1}))}})(en,st,dt,Vn,kt,Qe),zn=((i,t)=>(e,n)=>{const o=n.channelCountMode;if("clamped-max"===o)throw t();if(void 0===e.createStereoPanner)return i(e,n);const a=e.createStereoPanner();return Xi(a,n),$i(a,n,"pan"),Object.defineProperty(a,"channelCountMode",{get:()=>o,set:i=>{if(i!==o)throw t()}}),a})(Un,kt),Yn=((i,t,e,n,o)=>()=>{const a=new WeakMap;return{render(s,c){const r=a.get(c);return void 0!==r?Promise.resolve(r):(async(s,c)=>{let r=e(s);const d=M(r,c);if(!d){const i={channelCount:r.channelCount,channelCountMode:r.channelCountMode,channelInterpretation:r.channelInterpretation,pan:r.pan.value};r=t(c,i)}return a.set(c,r),d?await i(c,s.pan,r.pan):await n(c,s.pan,r.pan),ei(r)?await o(s,c,r.inputs[0]):await o(s,c,r),r})(s,c)}}})(Se,zn,di,Ge,Xt),Xn=((i,t,e,n,o,a)=>class extends i{get pan(){return this._pan}constructor(i,s){const c=o(i),r={...pt,...s},d=e(c,r),m=a(c);super(i,!1,d,m?n():null),this._pan=t(this,m,d.pan)}})(le,Ve,zn,Yn,Jt,te),Zn=((i,t,e)=>()=>{const n=new WeakMap;return{render(o,a){const s=n.get(a);return void 0!==s?Promise.resolve(s):(async(o,a)=>{let s=t(o);if(!M(s,a)){const t={channelCount:s.channelCount,channelCountMode:s.channelCountMode,channelInterpretation:s.channelInterpretation,curve:s.curve,oversample:s.oversample};s=i(a,t)}return n.set(a,s),ei(s)?await e(o,a,s.inputs[0]):await e(o,a,s),s})(o,a)}}})(Vn,di,Xt),$n=((i,t,e,n,o,a,s)=>class extends i{get curve(){return this._isCurveNullified?null:this._nativeWaveShaperNode.curve}set curve(i){if(null===i)this._isCurveNullified=!0,this._nativeWaveShaperNode.curve=new Float32Array([0,0]);else{if(i.length<2)throw t();this._isCurveNullified=!1,this._nativeWaveShaperNode.curve=i}}get oversample(){return this._nativeWaveShaperNode.oversample}set oversample(i){this._nativeWaveShaperNode.oversample=i}constructor(i,t){const c=o(i),r={..._t,...t},d=e(c,r);super(i,!0,d,a(c)?n():null),this._isCurveNullified=!1,this._nativeWaveShaperNode=d,s(this,1)}})(le,Ni,Vn,Zn,Jt,te,je),Hn=(i=>null!==i&&i.isSecureContext)(jt),Qn=(i=>(t,e,n)=>{Object.defineProperties(i,{currentFrame:{configurable:!0,get:()=>Math.round(t*e)},currentTime:{configurable:!0,get:()=>t}});try{return n()}finally{null!==i&&(delete i.currentFrame,delete i.currentTime)}})(jt),Jn=new WeakMap,Kn=((i,t)=>e=>{let n=i.get(e);if(void 0!==n)return n;if(null===t)throw new Error("Missing the native OfflineAudioContext constructor.");return n=new t(1,1,44100),i.set(e,n),n})(Jn,ie),io=Hn?((i,t,e,n,o,a,s,c,r,d,m,u,l)=>{let k=0;return(v,y,T={credentials:"omit"})=>{const p=m.get(v);if(void 0!==p&&p.has(y))return Promise.resolve();const f=d.get(v);if(void 0!==f){const i=f.get(y);if(void 0!==i)return i}const _=a(v),D=void 0===_.audioWorklet?o(y).then((([i,t])=>{const[n,o]=A(i,t);return e(`${n};((a,b)=>{(a[b]=a[b]||[]).push((AudioWorkletProcessor,global,registerProcessor,sampleRate,self,window)=>{${o}\n})})(window,'_AWGS')`)})).then((()=>{const i=l._AWGS.pop();if(void 0===i)throw new SyntaxError;n(_.currentTime,_.sampleRate,(()=>i(class{},void 0,((i,e)=>{if(""===i.trim())throw t();const n=h.get(_);if(void 0!==n){if(n.has(i))throw t();C(e),g(e.parameterDescriptors),n.set(i,e)}else C(e),g(e.parameterDescriptors),h.set(_,new Map([[i,e]]))}),_.sampleRate,void 0,void 0)))})):Promise.all([o(y),Promise.resolve(i(u,u))]).then((([[i,t],e])=>{const n=k+1;k=n;const[o,a]=A(i,t),d=new Blob([`${o};((AudioWorkletProcessor,registerProcessor)=>{${a}\n})(${e?"AudioWorkletProcessor":"class extends AudioWorkletProcessor {__b=new WeakSet();constructor(){super();(p=>p.postMessage=(q=>(m,t)=>q.call(p,m,t?t.filter(u=>!this.__b.has(u)):t))(p.postMessage))(this.port)}}"},(n,p)=>registerProcessor(n,class extends p{${e?"":"__c = (a) => a.forEach(e=>this.__b.add(e.buffer));"}process(i,o,p){${e?"":"i.forEach(this.__c);o.forEach(this.__c);this.__c(Object.values(p));"}return super.process(i.map(j=>j.some(k=>k.length===0)?[]:j),o,p)}}));registerProcessor('__sac${n}',class extends AudioWorkletProcessor{process(){return !1}})`],{type:"application/javascript; charset=utf-8"}),m=URL.createObjectURL(d);return _.audioWorklet.addModule(m,T).then((()=>{if(c(_))return _;const i=s(_);return i.audioWorklet.addModule(m,T).then((()=>i))})).then((i=>{if(null===r)throw new SyntaxError;try{new r(i,`__sac${n}`)}catch{throw new SyntaxError}})).finally((()=>URL.revokeObjectURL(m)))}));return void 0===f?d.set(v,new Map([[y,D]])):f.set(y,D),D.then((()=>{const i=m.get(v);void 0===i?m.set(v,new Set([y])):i.add(y)})).finally((()=>{const i=d.get(v);void 0!==i&&i.delete(y)})),D}})(Nt,kt,(i=>t=>new Promise(((e,n)=>{if(null===i)return void n(new SyntaxError);const o=i.document.head;if(null===o)n(new SyntaxError);else{const a=i.document.createElement("script"),s=new Blob([t],{type:"application/javascript"}),c=URL.createObjectURL(s),r=i.onerror,d=()=>{i.onerror=r,URL.revokeObjectURL(c)};i.onerror=(t,e,o,a,s)=>e===c||e===i.location.href&&1===o&&1===a?(d(),n(s),!1):null!==r?r(t,e,o,a,s):void 0,a.onerror=()=>{d(),n(new SyntaxError)},a.onload=()=>{d(),e()},a.src=c,a.type="module",o.appendChild(a)}})))(jt),Qn,(to=()=>new DOMException("","AbortError"),async i=>{try{const t=await fetch(i);if(t.ok)return[await t.text(),t.url]}catch{}throw to()}),Jt,Kn,te,ue,new WeakMap,new WeakMap,((i,t)=>async()=>{if(null===i)return!0;if(null===t)return!1;const e=new Blob(['class A extends AudioWorkletProcessor{process(i){this.port.postMessage(i,[i[0][0].buffer])}}registerProcessor("a",A)'],{type:"application/javascript; charset=utf-8"}),n=new t(1,128,44100),o=URL.createObjectURL(e);let a=!1,s=!1;try{await n.audioWorklet.addModule(o);const t=new i(n,"a",{numberOfOutputs:0}),e=n.createOscillator();t.port.onmessage=()=>a=!0,t.onprocessorerror=()=>s=!0,e.connect(t),e.start(0),await n.startRendering()}catch{}finally{URL.revokeObjectURL(o)}return a&&!s})(ue,ie),jt):void 0;var to;const eo=((i,t)=>e=>i(e)||t(e))(ce,te),no=((i,t,e,n,o,a,s,c,r,d,m)=>(u,l)=>{const k=s(u)?u:a(u);if(o.has(l)){const i=e();return Promise.reject(i)}try{o.add(l)}catch{}return t(r,(()=>r(k)))?k.decodeAudioData(l).then((e=>(Bi(l).catch((()=>{})),t(c,(()=>c(e)))||m(e),i.add(e),e))):new Promise(((t,e)=>{const o=async()=>{try{await Bi(l)}catch{}},a=i=>{e(i),o()};try{k.decodeAudioData(l,(e=>{"function"!=typeof e.copyFromChannel&&(d(e),V(e)),i.add(e),o().then((()=>t(e)))}),(i=>{a(null===i?n():i)}))}catch(i){a(i)}}))})(ye,Nt,(()=>new DOMException("","DataCloneError")),(()=>new DOMException("","EncodingError")),new WeakSet,Jt,eo,G,Ui,fe,_e),oo=(ao=io,so=ve,co=ge,ro=Ne,mo=Le,uo=on,lo=sn,ko=mn,vo=kn,yo=no,ho=yn,To=fn,po=An,fo=wn,_o=En,Ao=Bn,go=jn,Co=Wn,Do=Xn,xo=$n,class extends _o{get audioWorklet(){return this._audioWorklet}createAnalyser(){return new so(this)}createBiquadFilter(){return new mo(this)}createBuffer(i,t,e){return new co({length:t,numberOfChannels:i,sampleRate:e})}createBufferSource(){return new ro(this)}createChannelMerger(i=6){return new uo(this,{numberOfInputs:i})}createChannelSplitter(i=6){return new lo(this,{numberOfOutputs:i})}createConstantSource(){return new ko(this)}createConvolver(){return new vo(this)}createDelay(i=1){return new ho(this,{maxDelayTime:i})}createDynamicsCompressor(){return new To(this)}createGain(){return new po(this)}createIIRFilter(i,t){return new fo(this,{feedback:t,feedforward:i})}createOscillator(){return new Ao(this)}createPanner(){return new go(this)}createPeriodicWave(i,t,e={disableNormalization:!1}){return new Co(this,{...e,imag:t,real:i})}createStereoPanner(){return new Do(this)}createWaveShaper(){return new xo(this)}decodeAudioData(i,t,e){return yo(this._nativeContext,i).then((i=>("function"==typeof t&&t(i),i)),(i=>{throw"function"==typeof e&&e(i),i}))}constructor(i,t){super(i,t),this._nativeContext=i,this._audioWorklet=void 0===ao?void 0:{addModule:(i,t)=>ao(this,i,t)}}});var ao,so,co,ro,mo,uo,lo,ko,vo,yo,ho,To,po,fo,_o,Ao,go,Co,Do,xo;const wo=((i,t,e,n)=>class extends i{get mediaElement(){return this._nativeMediaElementAudioSourceNode.mediaElement}constructor(i,o){const a=e(i),s=t(a,o);if(n(a))throw TypeError();super(i,!0,s,null),this._nativeMediaElementAudioSourceNode=s}})(le,((i,t)=>i.createMediaElementSource(t.mediaElement)),Jt,te),bo=((i,t,e,n)=>class extends i{get stream(){return this._nativeMediaStreamAudioDestinationNode.stream}constructor(i,o){const a=e(i);if(n(a))throw new TypeError;const s={...Wi,...o},c=t(a,s);super(i,!1,c,null),this._nativeMediaStreamAudioDestinationNode=c}})(le,((i,t)=>{const e=i.createMediaStreamDestination();return Xi(e,t),1===e.numberOfOutputs&&Object.defineProperty(e,"numberOfOutputs",{get:()=>0}),e}),Jt,te),Fo=((i,t,e,n)=>class extends i{get mediaStream(){return this._nativeMediaStreamAudioSourceNode.mediaStream}constructor(i,o){const a=e(i),s=t(a,o);if(n(a))throw new TypeError;super(i,!0,s,null),this._nativeMediaStreamAudioSourceNode=s}})(le,((i,{mediaStream:t})=>{const e=t.getAudioTracks();e.sort(((i,t)=>i.id<t.id?-1:i.id>t.id?1:0));const n=e.slice(0,1),o=i.createMediaStreamSource(new MediaStream(n));return Object.defineProperty(o,"mediaStream",{value:t}),o}),Jt,te),Eo=((i,t)=>(e,{mediaStreamTrack:n})=>{if("function"==typeof e.createMediaStreamTrackSource)return e.createMediaStreamTrackSource(n);const o=new MediaStream([n]),a=e.createMediaStreamSource(o);if("audio"!==n.kind)throw i();if(t(e))throw new TypeError;return a})(Ni,te),So=((i,t,e)=>class extends i{constructor(i,n){const o=e(i);super(i,!0,t(o,n),null)}})(le,Eo,Jt),Oo=((i,t,e,n,o,a,s,c,r)=>class extends i{get baseLatency(){return this._baseLatency}get state(){return null!==this._state?this._state:this._nativeAudioContext.state}close(){return"closed"===this.state?this._nativeAudioContext.close().then((()=>{throw t()})):("suspended"===this._state&&(this._state=null),this._nativeAudioContext.close().then((()=>{null!==this._nativeGainNode&&null!==this._nativeOscillatorNode&&(this._nativeOscillatorNode.stop(),this._nativeGainNode.disconnect(),this._nativeOscillatorNode.disconnect()),$(this)})))}createMediaElementSource(i){return new o(this,{mediaElement:i})}createMediaStreamDestination(){return new a(this)}createMediaStreamSource(i){return new s(this,{mediaStream:i})}createMediaStreamTrackSource(i){return new c(this,{mediaStreamTrack:i})}resume(){return"suspended"===this._state?new Promise(((i,t)=>{const e=()=>{this._nativeAudioContext.removeEventListener("statechange",e),"running"===this._nativeAudioContext.state?i():this.resume().then(i,t)};this._nativeAudioContext.addEventListener("statechange",e)})):this._nativeAudioContext.resume().catch((i=>{if(void 0===i||15===i.code)throw t();throw i}))}suspend(){return this._nativeAudioContext.suspend().catch((i=>{if(void 0===i)throw t();throw i}))}constructor(i={}){if(null===r)throw new Error("Missing the native AudioContext constructor.");let t;try{t=new r(i)}catch(i){if(12===i.code&&"sampleRate is not in range"===i.message)throw e();throw i}if(null===t)throw n();if(!H(i.latencyHint))throw new TypeError(`The provided value '${i.latencyHint}' is not a valid enum value of type AudioContextLatencyCategory.`);if(void 0!==i.sampleRate&&t.sampleRate!==i.sampleRate)throw e();super(t,2);const{latencyHint:o}=i,{sampleRate:a}=t;if(this._baseLatency="number"==typeof t.baseLatency?t.baseLatency:"balanced"===o?512/a:"interactive"===o||void 0===o?256/a:"playback"===o?1024/a:128*Math.max(2,Math.min(128,Math.round(o*a/128)))/a,this._nativeAudioContext=t,"webkitAudioContext"===r.name?(this._nativeGainNode=t.createGain(),this._nativeOscillatorNode=t.createOscillator(),this._nativeGainNode.gain.value=1e-37,this._nativeOscillatorNode.connect(this._nativeGainNode).connect(t.destination),this._nativeOscillatorNode.start()):(this._nativeGainNode=null,this._nativeOscillatorNode=null),this._state=null,"running"===t.state){this._state="suspended";const i=()=>{"suspended"===this._state&&(this._state=null),t.removeEventListener("statechange",i)};t.addEventListener("statechange",i)}}})(oo,Ni,kt,ft,wo,bo,Fo,So,se),Bo=(Mo=Fn,i=>{const t=Mo.get(i);if(void 0===t)throw new Error("The context has no set of AudioWorkletNodes.");return t});var Mo;const Go=(Io=Bo,(i,t)=>{Io(i).add(t)});var Io;const Vo=(i=>(t,e,n=0,o=0)=>{const a=t[n];if(void 0===a)throw i();return yi(e)?a.connect(e,0,o):a.connect(e,0)})(I),Ro=(i=>(t,e)=>{i(t).delete(e)})(Bo),No=(i=>(t,e,n,o=0)=>void 0===e?t.forEach((i=>i.disconnect())):"number"==typeof e?Ii(i,t,e).disconnect():yi(e)?void 0===n?t.forEach((i=>i.disconnect(e))):void 0===o?Ii(i,t,n).disconnect(e,0):Ii(i,t,n).disconnect(e,0,o):void 0===n?t.forEach((i=>i.disconnect(e))):Ii(i,t,n).disconnect(e,0))(I),Po=new WeakMap,qo=(jo=Po,Lo=D,i=>Lo(jo,i));var jo,Lo;const Wo=((i,t,e,n,o,a,s,c,r,d,m,u,l)=>(k,v,y,h)=>{if(0===h.numberOfInputs&&0===h.numberOfOutputs)throw r();const T=Array.isArray(h.outputChannelCount)?h.outputChannelCount:Array.from(h.outputChannelCount);if(T.some((i=>i<1)))throw r();if(T.length!==h.numberOfOutputs)throw t();if("explicit"!==h.channelCountMode)throw r();const p=h.channelCount*h.numberOfInputs,f=T.reduce(((i,t)=>i+t),0),_=void 0===y.parameterDescriptors?0:y.parameterDescriptors.length;if(p+_>6||f>6)throw r();const A=new MessageChannel,g=[],C=[];for(let i=0;i<h.numberOfInputs;i+=1)g.push(s(k,{channelCount:h.channelCount,channelCountMode:h.channelCountMode,channelInterpretation:h.channelInterpretation,gain:1})),C.push(o(k,{channelCount:h.channelCount,channelCountMode:"explicit",channelInterpretation:"discrete",numberOfOutputs:h.channelCount}));const D=[];if(void 0!==y.parameterDescriptors)for(const{defaultValue:i,maxValue:t,minValue:e,name:n}of y.parameterDescriptors){const o=a(k,{channelCount:1,channelCountMode:"explicit",channelInterpretation:"discrete",offset:void 0!==h.parameterData[n]?h.parameterData[n]:void 0===i?0:i});Object.defineProperties(o.offset,{defaultValue:{get:()=>void 0===i?0:i},maxValue:{get:()=>void 0===t?34028234663852886e22:t},minValue:{get:()=>void 0===e?-34028234663852886e22:e}}),D.push(o)}const x=n(k,{channelCount:1,channelCountMode:"explicit",channelInterpretation:"speakers",numberOfInputs:Math.max(1,p+_)}),w=it(v,k.sampleRate),b=c(k,w,p+_,Math.max(1,f)),F=o(k,{channelCount:Math.max(1,f),channelCountMode:"explicit",channelInterpretation:"discrete",numberOfOutputs:Math.max(1,f)}),E=[];for(let i=0;i<h.numberOfOutputs;i+=1)E.push(n(k,{channelCount:1,channelCountMode:"explicit",channelInterpretation:"speakers",numberOfInputs:T[i]}));for(let i=0;i<h.numberOfInputs;i+=1){g[i].connect(C[i]);for(let t=0;t<h.channelCount;t+=1)C[i].connect(x,t,i*h.channelCount+t)}const S=new _i(void 0===y.parameterDescriptors?[]:y.parameterDescriptors.map((({name:i},t)=>{const e=D[t];return e.connect(x,0,p+t),e.start(0),[i,e.offset]})));x.connect(b);let O=h.channelInterpretation,B=null;const M=0===h.numberOfOutputs?[b]:E,G={get bufferSize(){return w},get channelCount(){return h.channelCount},set channelCount(i){throw e()},get channelCountMode(){return h.channelCountMode},set channelCountMode(i){throw e()},get channelInterpretation(){return O},set channelInterpretation(i){for(const t of g)t.channelInterpretation=i;O=i},get context(){return b.context},get inputs(){return g},get numberOfInputs(){return h.numberOfInputs},get numberOfOutputs(){return h.numberOfOutputs},get onprocessorerror(){return B},set onprocessorerror(i){"function"==typeof B&&G.removeEventListener("processorerror",B),B="function"==typeof i?i:null,"function"==typeof B&&G.addEventListener("processorerror",B)},get parameters(){return S},get port(){return A.port2},addEventListener:(...i)=>b.addEventListener(i[0],i[1],i[2]),connect:i.bind(null,M),disconnect:d.bind(null,M),dispatchEvent:(...i)=>b.dispatchEvent(i[0]),removeEventListener:(...i)=>b.removeEventListener(i[0],i[1],i[2])},I=new Map;var V,R;A.port1.addEventListener=(V=A.port1.addEventListener,(...i)=>{if("message"===i[0]){const t="function"==typeof i[1]?i[1]:"object"==typeof i[1]&&null!==i[1]&&"function"==typeof i[1].handleEvent?i[1].handleEvent:null;if(null!==t){const e=I.get(i[1]);void 0!==e?i[1]=e:(i[1]=i=>{m(k.currentTime,k.sampleRate,(()=>t(i)))},I.set(t,i[1]))}}return V.call(A.port1,i[0],i[1],i[2])}),A.port1.removeEventListener=(R=A.port1.removeEventListener,(...i)=>{if("message"===i[0]){const t=I.get(i[1]);void 0!==t&&(I.delete(i[1]),i[1]=t)}return R.call(A.port1,i[0],i[1],i[2])});let N=null;Object.defineProperty(A.port1,"onmessage",{get:()=>N,set:i=>{"function"==typeof N&&A.port1.removeEventListener("message",N),N="function"==typeof i?i:null,"function"==typeof N&&(A.port1.addEventListener("message",N),A.port1.start())}}),y.prototype.port=A.port1;let P=null;nt(k,G,y,h).then((i=>P=i));const q=Di(h.numberOfInputs,h.channelCount),j=Di(h.numberOfOutputs,T),L=void 0===y.parameterDescriptors?[]:y.parameterDescriptors.reduce(((i,{name:t})=>({...i,[t]:new Float32Array(128)})),{});let W=!0;const U=()=>{h.numberOfOutputs>0&&b.disconnect(F);for(let i=0,t=0;i<h.numberOfOutputs;i+=1){const e=E[i];for(let n=0;n<T[i];n+=1)F.disconnect(e,t+n,n);t+=T[i]}},z=new Map;b.onaudioprocess=({inputBuffer:i,outputBuffer:t})=>{if(null!==P){const e=u(G);for(let n=0;n<w;n+=128){for(let t=0;t<h.numberOfInputs;t+=1)for(let e=0;e<h.channelCount;e+=1)gi(i,q[t],e,e,n);void 0!==y.parameterDescriptors&&y.parameterDescriptors.forEach((({name:t},e)=>{gi(i,L,t,p+e,n)}));for(let i=0;i<h.numberOfInputs;i+=1)for(let t=0;t<T[i];t+=1)0===j[i][t].byteLength&&(j[i][t]=new Float32Array(128));try{const i=q.map(((i,t)=>{if(e[t].size>0)return z.set(t,w/128),i;const n=z.get(t);return void 0===n?[]:(i.every((i=>i.every((i=>0===i))))&&(1===n?z.delete(t):z.set(t,n-1)),i)})),o=m(k.currentTime+n/k.sampleRate,k.sampleRate,(()=>P.process(i,j,L)));W=o;for(let i=0,e=0;i<h.numberOfOutputs;i+=1){for(let o=0;o<T[i];o+=1)Ci(t,j[i],o,e+o,n);e+=T[i]}}catch(i){W=!1,G.dispatchEvent(new ErrorEvent("processorerror",{colno:i.colno,filename:i.filename,lineno:i.lineno,message:i.message}))}if(!W){for(let i=0;i<h.numberOfInputs;i+=1){g[i].disconnect(C[i]);for(let t=0;t<h.channelCount;t+=1)C[n].disconnect(x,t,i*h.channelCount+t)}if(void 0!==y.parameterDescriptors){const i=y.parameterDescriptors.length;for(let t=0;t<i;t+=1){const i=D[t];i.disconnect(x,0,p+t),i.stop()}}x.disconnect(b),b.onaudioprocess=null,Y?U():$();break}}}};let Y=!1;const X=s(k,{channelCount:1,channelCountMode:"explicit",channelInterpretation:"discrete",gain:0}),Z=()=>b.connect(X).connect(k.destination),$=()=>{b.disconnect(X),X.disconnect()};return Z(),l(G,(()=>{if(W){$(),h.numberOfOutputs>0&&b.connect(F);for(let i=0,t=0;i<h.numberOfOutputs;i+=1){const e=E[i];for(let n=0;n<T[i];n+=1)F.connect(e,t+n,n);t+=T[i]}}Y=!0}),(()=>{W&&(Z(),U()),Y=!1}))})(Vo,I,Ni,en,st,rn,dt,lt,kt,No,Qn,qo,Qe),Uo=((i,t,e,n,o)=>(a,s,c,r,d,m)=>{if(null!==c)try{const t=new c(a,r,m),n=new Map;let s=null;if(Object.defineProperties(t,{channelCount:{get:()=>m.channelCount,set:()=>{throw i()}},channelCountMode:{get:()=>"explicit",set:()=>{throw i()}},onprocessorerror:{get:()=>s,set:i=>{"function"==typeof s&&t.removeEventListener("processorerror",s),s="function"==typeof i?i:null,"function"==typeof s&&t.addEventListener("processorerror",s)}}}),t.addEventListener=(l=t.addEventListener,(...i)=>{if("processorerror"===i[0]){const t="function"==typeof i[1]?i[1]:"object"==typeof i[1]&&null!==i[1]&&"function"==typeof i[1].handleEvent?i[1].handleEvent:null;if(null!==t){const e=n.get(i[1]);void 0!==e?i[1]=e:(i[1]=e=>{"error"===e.type?(Object.defineProperties(e,{type:{value:"processorerror"}}),t(e)):t(new ErrorEvent(i[0],{...e}))},n.set(t,i[1]))}}return l.call(t,"error",i[1],i[2]),l.call(t,...i)}),t.removeEventListener=(u=t.removeEventListener,(...i)=>{if("processorerror"===i[0]){const t=n.get(i[1]);void 0!==t&&(n.delete(i[1]),i[1]=t)}return u.call(t,"error",i[1],i[2]),u.call(t,i[0],i[1],i[2])}),0!==m.numberOfOutputs){const i=e(a,{channelCount:1,channelCountMode:"explicit",channelInterpretation:"discrete",gain:0});t.connect(i).connect(a.destination);return o(t,(()=>i.disconnect()),(()=>i.connect(a.destination)))}return t}catch(i){if(11===i.code)throw n();throw i}var u,l;if(void 0===d)throw n();return Ki(m),t(a,s,d,m)})(Ni,Wo,dt,kt,Qe),zo=((i,t,e,n,o,a,s,c,r,d,m,u,l,k,v,y)=>(h,T,p)=>{const f=new WeakMap;let _=null;return{render(A,g){c(g,A);const C=f.get(g);return void 0!==C?Promise.resolve(C):(async(c,A)=>{let g=m(c),C=null;const D=M(g,A),x=Array.isArray(T.outputChannelCount)?T.outputChannelCount:Array.from(T.outputChannelCount);if(null===u){const i=x.reduce(((i,t)=>i+t),0),e=o(A,{channelCount:Math.max(1,i),channelCountMode:"explicit",channelInterpretation:"discrete",numberOfOutputs:Math.max(1,i)}),a=[];for(let i=0;i<c.numberOfOutputs;i+=1)a.push(n(A,{channelCount:1,channelCountMode:"explicit",channelInterpretation:"speakers",numberOfInputs:x[i]}));const d=s(A,{channelCount:T.channelCount,channelCountMode:T.channelCountMode,channelInterpretation:T.channelInterpretation,gain:1});d.connect=t.bind(null,a),d.disconnect=r.bind(null,a),C=[e,a,d]}else D||(g=new u(A,h));if(f.set(A,null===C?g:C[2]),null!==C){if(null===_){if(void 0===p)throw new Error("Missing the processor constructor.");if(null===l)throw new Error("Missing the native OfflineAudioContext constructor.");const i=c.channelCount*c.numberOfInputs,t=void 0===p.parameterDescriptors?0:p.parameterDescriptors.length,e=i+t,r=async()=>{const r=new l(e,128*Math.ceil(c.context.length/128),A.sampleRate),d=[],m=[];for(let i=0;i<T.numberOfInputs;i+=1)d.push(s(r,{channelCount:T.channelCount,channelCountMode:T.channelCountMode,channelInterpretation:T.channelInterpretation,gain:1})),m.push(o(r,{channelCount:T.channelCount,channelCountMode:"explicit",channelInterpretation:"discrete",numberOfOutputs:T.channelCount}));const u=await Promise.all(Array.from(c.parameters.values()).map((async i=>{const t=a(r,{channelCount:1,channelCountMode:"explicit",channelInterpretation:"discrete",offset:i.value});return await k(r,i,t.offset),t}))),h=n(r,{channelCount:1,channelCountMode:"explicit",channelInterpretation:"speakers",numberOfInputs:Math.max(1,i+t)});for(let i=0;i<T.numberOfInputs;i+=1){d[i].connect(m[i]);for(let t=0;t<T.channelCount;t+=1)m[i].connect(h,t,i*T.channelCount+t)}for(const[t,e]of u.entries())e.connect(h,0,i+t),e.start(0);return h.connect(r.destination),await Promise.all(d.map((i=>v(c,r,i)))),y(r)};_=wi(c,0===e?null:await r(),A,T,x,p,d)}const i=await _,t=e(A,{buffer:null,channelCount:2,channelCountMode:"max",channelInterpretation:"speakers",loop:!1,loopEnd:0,loopStart:0,playbackRate:1}),[r,m,u]=C;null!==i&&(t.buffer=i,t.start(0)),t.connect(r);for(let i=0,t=0;i<c.numberOfOutputs;i+=1){const e=m[i];for(let n=0;n<x[i];n+=1)r.connect(e,t+n,n);t+=x[i]}return u}if(D)for(const[t,e]of c.parameters.entries())await i(A,e,g.parameters.get(t));else for(const[i,t]of c.parameters.entries())await k(A,t,g.parameters.get(i));return await v(c,A,g),g})(A,g)}}})(Se,Vo,Be,en,st,rn,dt,Ro,No,Qn,di,ue,ie,Ge,Xt,Cn),Yo=(Xo=Jn,i=>Xo.get(i));var Xo;const Zo=(i=>(t,e)=>{i.set(t,e)})(Po),$o=Hn?((i,t,e,n,o,a,s,c,r,d,m,u,l,k)=>class extends t{get onprocessorerror(){return this._onprocessorerror}set onprocessorerror(i){const t="function"==typeof i?k(this,i):null;this._nativeAudioWorkletNode.onprocessorerror=t;const e=this._nativeAudioWorkletNode.onprocessorerror;this._onprocessorerror=null!==e&&e===t?i:e}get parameters(){return null===this._parameters?this._nativeAudioWorkletNode.parameters:this._parameters}get port(){return this._nativeAudioWorkletNode.port}constructor(t,k,v){var y;const T=c(t),p=r(T),f=m({...Ai,...v});l(f);const _=h.get(T),A=null==_?void 0:_.get(k),g=p||"closed"!==T.state?T:null!==(y=s(T))&&void 0!==y?y:T,C=o(g,p?null:t.baseLatency,d,k,A,f);super(t,!0,C,p?n(k,f,A):null);const D=[];C.parameters.forEach(((i,t)=>{const n=e(this,p,i);D.push([t,n])})),this._nativeAudioWorkletNode=C,this._onprocessorerror=null,this._parameters=new _i(D),p&&i(T,this);const{activeInputs:x}=a(this);u(C,x)}})(Go,le,Ve,zo,Uo,Y,Yo,Jt,te,ue,(i=>({...i,outputChannelCount:void 0!==i.outputChannelCount?i.outputChannelCount:1===i.numberOfInputs&&1===i.numberOfOutputs?[i.channelCount]:Array.from({length:i.numberOfOutputs},(()=>1))})),Zo,(i=>{const{port1:t,port2:e}=new MessageChannel;try{t.postMessage(i)}finally{t.close(),e.close()}}),Et):void 0,Ho=(((i,t,e,n,o)=>{})(Ni,kt,ft,En,se),((i,t)=>(e,n,o)=>{if(null===t)throw new Error("Missing the native OfflineAudioContext constructor.");try{return new t(e,n,o)}catch(t){if("SyntaxError"===t.name)throw i();throw t}})(kt,ie)),Qo=((i,t,e,n,o,a,s,c)=>(r,d)=>e(r).render(r,d).then((()=>Promise.all(Array.from(n(d)).map((i=>e(i).render(i,d)))))).then((()=>o(d))).then((e=>("function"!=typeof e.copyFromChannel?(s(e),V(e)):t(a,(()=>a(e)))||c(e),i.add(e),e))))(ye,Nt,zt,Bo,Cn,G,fe,_e),Jo=(((i,t,e,n,o)=>{})(Nt,Ni,Ho,En,Qo),((i,t,e,n,o)=>class extends i{get length(){return void 0===this._nativeOfflineAudioContext.length?this._length:this._nativeOfflineAudioContext.length}get state(){return null===this._state?this._nativeOfflineAudioContext.state:this._state}startRendering(){return"running"===this._state?Promise.reject(e()):(this._state="running",o(this.destination,this._nativeOfflineAudioContext).finally((()=>{this._state=null,$(this)})))}_waitForThePromiseToSettle(i){null===this._state?this._nativeOfflineAudioContext.dispatchEvent(i):setTimeout((()=>this._waitForThePromiseToSettle(i)))}constructor(i,e,o){let a;if("number"==typeof i&&void 0!==e&&void 0!==o)a={length:e,numberOfChannels:i,sampleRate:o};else{if("object"!=typeof i)throw new Error("The given parameters are not valid.");a=i}const{length:s,numberOfChannels:c,sampleRate:r}={...vt,...a},d=n(c,s,r);t(Ui,(()=>Ui(d)))||d.addEventListener("statechange",(()=>{let i=0;const t=e=>{"running"===this._state&&(i>0?(d.removeEventListener("statechange",t),e.stopImmediatePropagation(),this._waitForThePromiseToSettle(e)):i+=1)};return t})()),super(d,c),this._length=s,this._nativeOfflineAudioContext=d,this._state=null}})(oo,Nt,Ni,Ho,Qo)),Ko=((i,t)=>e=>{const n=i.get(e);return t(n)||t(e)})(k,ce),ia=(ta=m,ea=de,i=>ta.has(i)||ea(i));var ta,ea;const na=(oa=l,aa=me,i=>oa.has(i)||aa(i));var oa,aa;const sa=((i,t)=>e=>{const n=i.get(e);return t(n)||t(e)})(k,te);function ca(i,t){if(!i)throw new Error(t)}function ra(i,t,e=1/0){if(!(t<=i&&i<=e))throw new RangeError(`Value must be within [${t}, ${e}], got: ${i}`)}function da(i){i.isOffline||"running"===i.state||la('The AudioContext is "suspended". Invoke Tone.start() from a user action to start the audio.')}let ma=console;function ua(...i){ma.log(...i)}function la(...i){ma.warn(...i)}function ka(i){return void 0===i}function va(i){return!ka(i)}function ya(i){return"number"==typeof i}function ha(i){return"[object Object]"===Object.prototype.toString.call(i)&&i.constructor===Object}function Ta(i){return"boolean"==typeof i}function pa(i){return Array.isArray(i)}function fa(i){return"string"==typeof i}function _a(i){return fa(i)&&/^([a-g]{1}(?:b|#|x|bb)?)(-?[0-9]+)/i.test(i)}function Aa(i){return new Oo(i)}const ga="object"==typeof self?self:null,Ca=ga&&(ga.hasOwnProperty("AudioContext")||ga.hasOwnProperty("webkitAudioContext"));function Da(i,t,e){return ca(va($o),"This node only works in a secure context (https or localhost)"),new $o(i,t,e)}function xa(i,t,e,n){var o,a=arguments.length,s=a<3?t:null===n?n=Object.getOwnPropertyDescriptor(t,e):n;if("object"==typeof Reflect&&"function"==typeof Reflect.decorate)s=Reflect.decorate(i,t,e,n);else for(var c=i.length-1;c>=0;c--)(o=i[c])&&(s=(a<3?o(s):a>3?o(t,e,s):o(t,e))||s);return a>3&&s&&Object.defineProperty(t,e,s),s}function wa(i,t,e,n){return new(e||(e=Promise))((function(o,a){function s(i){try{r(n.next(i))}catch(i){a(i)}}function c(i){try{r(n.throw(i))}catch(i){a(i)}}function r(i){var t;i.done?o(i.value):(t=i.value,t instanceof e?t:new e((function(i){i(t)}))).then(s,c)}r((n=n.apply(i,t||[])).next())}))}Object.create;Object.create;class ba{_createWorker(){const i=new Blob([`\n\t\t\t// the initial timeout time\n\t\t\tlet timeoutTime =  ${(1e3*this._updateInterval).toFixed(1)};\n\t\t\t// onmessage callback\n\t\t\tself.onmessage = function(msg){\n\t\t\t\ttimeoutTime = parseInt(msg.data);\n\t\t\t};\n\t\t\t// the tick function which posts a message\n\t\t\t// and schedules a new tick\n\t\t\tfunction tick(){\n\t\t\t\tsetTimeout(tick, timeoutTime);\n\t\t\t\tself.postMessage('tick');\n\t\t\t}\n\t\t\t// call tick initially\n\t\t\ttick();\n\t\t\t`],{type:"text/javascript"}),t=URL.createObjectURL(i),e=new Worker(t);e.onmessage=this._callback.bind(this),this._worker=e}_createTimeout(){this._timeout=setTimeout((()=>{this._createTimeout(),this._callback()}),1e3*this._updateInterval)}_createClock(){if("worker"===this._type)try{this._createWorker()}catch(i){this._type="timeout",this._createClock()}else"timeout"===this._type&&this._createTimeout()}_disposeClock(){this._timeout&&(clearTimeout(this._timeout),this._timeout=0),this._worker&&(this._worker.terminate(),this._worker.onmessage=null)}get updateInterval(){return this._updateInterval}set updateInterval(i){this._updateInterval=Math.max(i,128/44100),"worker"===this._type&&this._worker.postMessage(Math.max(1e3*i,1))}get type(){return this._type}set type(i){this._disposeClock(),this._type=i,this._createClock()}dispose(){this._disposeClock()}constructor(i,t,e){this._callback=i,this._type=t,this._updateInterval=e,this._createClock()}}function Fa(i){return na(i)}function Ea(i){return ia(i)}function Sa(i){return sa(i)}function Oa(i){return Ko(i)}function Ba(i){return i instanceof AudioBuffer}function Ma(i,t){return"value"===i||Fa(t)||Ea(t)||Ba(t)}function Ga(i,...t){if(!t.length)return i;const e=t.shift();if(ha(i)&&ha(e))for(const t in e)Ma(t,e[t])?i[t]=e[t]:ha(e[t])?(i[t]||Object.assign(i,{[t]:{}}),Ga(i[t],e[t])):Object.assign(i,{[t]:e[t]});return Ga(i,...t)}function Ia(i,t,e=[],n){const o={},a=Array.from(t);if(ha(a[0])&&n&&!Reflect.has(a[0],n)){Object.keys(a[0]).some((t=>Reflect.has(i,t)))||(Ga(o,{[n]:a[0]}),e.splice(e.indexOf(n),1),a.shift())}if(1===a.length&&ha(a[0]))Ga(o,a[0]);else for(let i=0;i<e.length;i++)va(a[i])&&(o[e[i]]=a[i]);return Ga(i,o)}function Va(i,t){return ka(i)?t:i}function Ra(i,t){return t.forEach((t=>{Reflect.has(i,t)&&delete i[t]})),i}class Na{static getDefaults(){return{}}log(...i){(this.debug||ga&&this.toString()===ga.TONE_DEBUG_CLASS)&&ua(this,...i)}dispose(){return this._wasDisposed=!0,this}get disposed(){return this._wasDisposed}toString(){return this.name}constructor(){this.debug=!1,this._wasDisposed=!1}}Na.version="14.7.77";function Pa(i,t){return i>t+1e-6}function qa(i,t){return Pa(i,t)||La(i,t)}function ja(i,t){return i+1e-6<t}function La(i,t){return Math.abs(i-t)<1e-6}function Wa(i,t,e){return Math.max(Math.min(i,e),t)}class Ua extends Na{static getDefaults(){return{memory:1/0,increasing:!1}}get length(){return this._timeline.length}add(i){if(ca(Reflect.has(i,"time"),"Timeline: events must have a time attribute"),i.time=i.time.valueOf(),this.increasing&&this.length){const t=this._timeline[this.length-1];ca(qa(i.time,t.time),"The time must be greater than or equal to the last scheduled time"),this._timeline.push(i)}else{const t=this._search(i.time);this._timeline.splice(t+1,0,i)}if(this.length>this.memory){const i=this.length-this.memory;this._timeline.splice(0,i)}return this}remove(i){const t=this._timeline.indexOf(i);return-1!==t&&this._timeline.splice(t,1),this}get(i,t="time"){const e=this._search(i,t);return-1!==e?this._timeline[e]:null}peek(){return this._timeline[0]}shift(){return this._timeline.shift()}getAfter(i,t="time"){const e=this._search(i,t);return e+1<this._timeline.length?this._timeline[e+1]:null}getBefore(i){const t=this._timeline.length;if(t>0&&this._timeline[t-1].time<i)return this._timeline[t-1];const e=this._search(i);return e-1>=0?this._timeline[e-1]:null}cancel(i){if(this._timeline.length>1){let t=this._search(i);if(t>=0)if(La(this._timeline[t].time,i)){for(let e=t;e>=0&&La(this._timeline[e].time,i);e--)t=e;this._timeline=this._timeline.slice(0,t)}else this._timeline=this._timeline.slice(0,t+1);else this._timeline=[]}else 1===this._timeline.length&&qa(this._timeline[0].time,i)&&(this._timeline=[]);return this}cancelBefore(i){const t=this._search(i);return t>=0&&(this._timeline=this._timeline.slice(t+1)),this}previousEvent(i){const t=this._timeline.indexOf(i);return t>0?this._timeline[t-1]:null}_search(i,t="time"){if(0===this._timeline.length)return-1;let e=0;const n=this._timeline.length;let o=n;if(n>0&&this._timeline[n-1][t]<=i)return n-1;for(;e<o;){let n=Math.floor(e+(o-e)/2);const a=this._timeline[n],s=this._timeline[n+1];if(La(a[t],i)){for(let e=n;e<this._timeline.length;e++){if(!La(this._timeline[e][t],i))break;n=e}return n}if(ja(a[t],i)&&Pa(s[t],i))return n;Pa(a[t],i)?o=n:e=n+1}return-1}_iterate(i,t=0,e=this._timeline.length-1){this._timeline.slice(t,e+1).forEach(i)}forEach(i){return this._iterate(i),this}forEachBefore(i,t){const e=this._search(i);return-1!==e&&this._iterate(t,0,e),this}forEachAfter(i,t){const e=this._search(i);return this._iterate(t,e+1),this}forEachBetween(i,t,e){let n=this._search(i),o=this._search(t);return-1!==n&&-1!==o?(this._timeline[n].time!==i&&(n+=1),this._timeline[o].time===t&&(o-=1),this._iterate(e,n,o)):-1===n&&this._iterate(e,0,o),this}forEachFrom(i,t){let e=this._search(i);for(;e>=0&&this._timeline[e].time>=i;)e--;return this._iterate(t,e+1),this}forEachAtTime(i,t){const e=this._search(i);if(-1!==e&&La(this._timeline[e].time,i)){let n=e;for(let t=e;t>=0&&La(this._timeline[t].time,i);t--)n=t;this._iterate((i=>{t(i)}),n,e)}return this}dispose(){return super.dispose(),this._timeline=[],this}constructor(){super(),this.name="Timeline",this._timeline=[];const i=Ia(Ua.getDefaults(),arguments,["memory"]);this.memory=i.memory,this.increasing=i.increasing}}const za=[];function Ya(i){za.push(i)}const Xa=[];function Za(i){Xa.push(i)}class $a extends Na{on(i,t){return i.split(/\W+/).forEach((i=>{ka(this._events)&&(this._events={}),this._events.hasOwnProperty(i)||(this._events[i]=[]),this._events[i].push(t)})),this}once(i,t){const e=(...n)=>{t(...n),this.off(i,e)};return this.on(i,e),this}off(i,t){return i.split(/\W+/).forEach((e=>{if(ka(this._events)&&(this._events={}),this._events.hasOwnProperty(i))if(ka(t))this._events[i]=[];else{const e=this._events[i];for(let i=e.length-1;i>=0;i--)e[i]===t&&e.splice(i,1)}})),this}emit(i,...t){if(this._events&&this._events.hasOwnProperty(i)){const e=this._events[i].slice(0);for(let i=0,n=e.length;i<n;i++)e[i].apply(this,t)}return this}static mixin(i){["on","once","off","emit"].forEach((t=>{const e=Object.getOwnPropertyDescriptor($a.prototype,t);Object.defineProperty(i.prototype,t,e)}))}dispose(){return super.dispose(),this._events=void 0,this}constructor(){super(...arguments),this.name="Emitter"}}class Ha extends $a{toJSON(){return{}}constructor(){super(...arguments),this.isOffline=!1}}class Qa extends Ha{static getDefaults(){return{clockSource:"worker",latencyHint:"interactive",lookAhead:.1,updateInterval:.05}}initialize(){var i;return this._initialized||(i=this,za.forEach((t=>t(i))),this._initialized=!0),this}createAnalyser(){return this._context.createAnalyser()}createOscillator(){return this._context.createOscillator()}createBufferSource(){return this._context.createBufferSource()}createBiquadFilter(){return this._context.createBiquadFilter()}createBuffer(i,t,e){return this._context.createBuffer(i,t,e)}createChannelMerger(i){return this._context.createChannelMerger(i)}createChannelSplitter(i){return this._context.createChannelSplitter(i)}createConstantSource(){return this._context.createConstantSource()}createConvolver(){return this._context.createConvolver()}createDelay(i){return this._context.createDelay(i)}createDynamicsCompressor(){return this._context.createDynamicsCompressor()}createGain(){return this._context.createGain()}createIIRFilter(i,t){return this._context.createIIRFilter(i,t)}createPanner(){return this._context.createPanner()}createPeriodicWave(i,t,e){return this._context.createPeriodicWave(i,t,e)}createStereoPanner(){return this._context.createStereoPanner()}createWaveShaper(){return this._context.createWaveShaper()}createMediaStreamSource(i){ca(Oa(this._context),"Not available if OfflineAudioContext");return this._context.createMediaStreamSource(i)}createMediaElementSource(i){ca(Oa(this._context),"Not available if OfflineAudioContext");return this._context.createMediaElementSource(i)}createMediaStreamDestination(){ca(Oa(this._context),"Not available if OfflineAudioContext");return this._context.createMediaStreamDestination()}decodeAudioData(i){return this._context.decodeAudioData(i)}get currentTime(){return this._context.currentTime}get state(){return this._context.state}get sampleRate(){return this._context.sampleRate}get listener(){return this.initialize(),this._listener}set listener(i){ca(!this._initialized,"The listener cannot be set after initialization."),this._listener=i}get transport(){return this.initialize(),this._transport}set transport(i){ca(!this._initialized,"The transport cannot be set after initialization."),this._transport=i}get draw(){return this.initialize(),this._draw}set draw(i){ca(!this._initialized,"Draw cannot be set after initialization."),this._draw=i}get destination(){return this.initialize(),this._destination}set destination(i){ca(!this._initialized,"The destination cannot be set after initialization."),this._destination=i}createAudioWorkletNode(i,t){return Da(this.rawContext,i,t)}addAudioWorkletModule(i,t){return wa(this,void 0,void 0,(function*(){ca(va(this.rawContext.audioWorklet),"AudioWorkletNode is only available in a secure context (https or localhost)"),this._workletModules.has(t)||this._workletModules.set(t,this.rawContext.audioWorklet.addModule(i)),yield this._workletModules.get(t)}))}workletsAreReady(){return wa(this,void 0,void 0,(function*(){const i=[];this._workletModules.forEach((t=>i.push(t))),yield Promise.all(i)}))}get updateInterval(){return this._ticker.updateInterval}set updateInterval(i){this._ticker.updateInterval=i}get clockSource(){return this._ticker.type}set clockSource(i){this._ticker.type=i}get latencyHint(){return this._latencyHint}_setLatencyHint(i){let t=0;if(this._latencyHint=i,fa(i))switch(i){case"interactive":t=.1;break;case"playback":t=.5;break;case"balanced":t=.25}this.lookAhead=t,this.updateInterval=t/2}get rawContext(){return this._context}now(){return this._context.currentTime+this.lookAhead}immediate(){return this._context.currentTime}resume(){return Oa(this._context)?this._context.resume():Promise.resolve()}close(){return wa(this,void 0,void 0,(function*(){var i;Oa(this._context)&&(yield this._context.close()),this._initialized&&(i=this,Xa.forEach((t=>t(i))))}))}getConstant(i){if(this._constants.has(i))return this._constants.get(i);{const t=this._context.createBuffer(1,128,this._context.sampleRate),e=t.getChannelData(0);for(let t=0;t<e.length;t++)e[t]=i;const n=this._context.createBufferSource();return n.channelCount=1,n.channelCountMode="explicit",n.buffer=t,n.loop=!0,n.start(0),this._constants.set(i,n),n}}dispose(){return super.dispose(),this._ticker.dispose(),this._timeouts.dispose(),Object.keys(this._constants).map((i=>this._constants[i].disconnect())),this}_timeoutLoop(){const i=this.now();let t=this._timeouts.peek();for(;this._timeouts.length&&t&&t.time<=i;)t.callback(),this._timeouts.shift(),t=this._timeouts.peek()}setTimeout(i,t){this._timeoutIds++;const e=this.now();return this._timeouts.add({callback:i,id:this._timeoutIds,time:e+t}),this._timeoutIds}clearTimeout(i){return this._timeouts.forEach((t=>{t.id===i&&this._timeouts.remove(t)})),this}clearInterval(i){return this.clearTimeout(i)}setInterval(i,t){const e=++this._timeoutIds,n=()=>{const o=this.now();this._timeouts.add({callback:()=>{i(),n()},id:e,time:o+t})};return n(),e}constructor(){super(),this.name="Context",this._constants=new Map,this._timeouts=new Ua,this._timeoutIds=0,this._initialized=!1,this.isOffline=!1,this._workletModules=new Map;const i=Ia(Qa.getDefaults(),arguments,["context"]);i.context?this._context=i.context:this._context=Aa({latencyHint:i.latencyHint}),this._ticker=new ba(this.emit.bind(this,"tick"),i.clockSource,i.updateInterval),this.on("tick",this._timeoutLoop.bind(this)),this._context.onstatechange=()=>{this.emit("statechange",this.state)},this._setLatencyHint(i.latencyHint),this.lookAhead=i.lookAhead}}function Ja(i,t){pa(t)?t.forEach((t=>Ja(i,t))):Object.defineProperty(i,t,{enumerable:!0,writable:!1})}function Ka(i,t){pa(t)?t.forEach((t=>Ka(i,t))):Object.defineProperty(i,t,{writable:!0})}const is=()=>{};class ts extends Na{static getDefaults(){return{onerror:is,onload:is,reverse:!1}}get sampleRate(){return this._buffer?this._buffer.sampleRate:as().sampleRate}set(i){return i instanceof ts?i.loaded?this._buffer=i.get():i.onload=()=>{this.set(i),this.onload(this)}:this._buffer=i,this._reversed&&this._reverse(),this}get(){return this._buffer}load(i){return wa(this,void 0,void 0,(function*(){const t=ts.load(i).then((i=>{this.set(i),this.onload(this)}));ts.downloads.push(t);try{yield t}finally{const i=ts.downloads.indexOf(t);ts.downloads.splice(i,1)}return this}))}dispose(){return super.dispose(),this._buffer=void 0,this}fromArray(i){const t=pa(i)&&i[0].length>0,e=t?i.length:1,n=t?i[0].length:i.length,o=as(),a=o.createBuffer(e,n,o.sampleRate),s=t||1!==e?i:[i];for(let i=0;i<e;i++)a.copyToChannel(s[i],i);return this._buffer=a,this}toMono(i){if(ya(i))this.fromArray(this.toArray(i));else{let i=new Float32Array(this.length);const t=this.numberOfChannels;for(let e=0;e<t;e++){const t=this.toArray(e);for(let e=0;e<t.length;e++)i[e]+=t[e]}i=i.map((i=>i/t)),this.fromArray(i)}return this}toArray(i){if(ya(i))return this.getChannelData(i);if(1===this.numberOfChannels)return this.toArray(0);{const i=[];for(let t=0;t<this.numberOfChannels;t++)i[t]=this.getChannelData(t);return i}}getChannelData(i){return this._buffer?this._buffer.getChannelData(i):new Float32Array(0)}slice(i,t=this.duration){const e=Math.floor(i*this.sampleRate),n=Math.floor(t*this.sampleRate);ca(e<n,"The start time must be less than the end time");const o=n-e,a=as().createBuffer(this.numberOfChannels,o,this.sampleRate);for(let i=0;i<this.numberOfChannels;i++)a.copyToChannel(this.getChannelData(i).subarray(e,n),i);return new ts(a)}_reverse(){if(this.loaded)for(let i=0;i<this.numberOfChannels;i++)this.getChannelData(i).reverse();return this}get loaded(){return this.length>0}get duration(){return this._buffer?this._buffer.duration:0}get length(){return this._buffer?this._buffer.length:0}get numberOfChannels(){return this._buffer?this._buffer.numberOfChannels:0}get reverse(){return this._reversed}set reverse(i){this._reversed!==i&&(this._reversed=i,this._reverse())}static fromArray(i){return(new ts).fromArray(i)}static fromUrl(i){return wa(this,void 0,void 0,(function*(){const t=new ts;return yield t.load(i)}))}static load(i){return wa(this,void 0,void 0,(function*(){const t=i.match(/\[([^\]\[]+\|.+)\]$/);if(t){const e=t[1].split("|");let n=e[0];for(const i of e)if(ts.supportsType(i)){n=i;break}i=i.replace(t[0],n)}const e=""===ts.baseUrl||ts.baseUrl.endsWith("/")?ts.baseUrl:ts.baseUrl+"/",n=yield fetch(e+i);if(!n.ok)throw new Error(`could not load url: ${i}`);const o=yield n.arrayBuffer();return yield as().decodeAudioData(o)}))}static supportsType(i){const t=i.split("."),e=t[t.length-1];return""!==document.createElement("audio").canPlayType("audio/"+e)}static loaded(){return wa(this,void 0,void 0,(function*(){for(yield Promise.resolve();ts.downloads.length;)yield ts.downloads[0]}))}constructor(){super(),this.name="ToneAudioBuffer",this.onload=is;const i=Ia(ts.getDefaults(),arguments,["url","onload","onerror"]);this.reverse=i.reverse,this.onload=i.onload,i.url&&Ba(i.url)||i.url instanceof ts?this.set(i.url):fa(i.url)&&this.load(i.url).catch(i.onerror)}}ts.baseUrl="",ts.downloads=[];class es extends Qa{now(){return this._currentTime}get currentTime(){return this._currentTime}_renderClock(i){return wa(this,void 0,void 0,(function*(){let t=0;for(;this._duration-this._currentTime>=0;){this.emit("tick"),this._currentTime+=128/this.sampleRate,t++;const e=Math.floor(this.sampleRate/128);i&&t%e==0&&(yield new Promise((i=>setTimeout(i,1))))}}))}render(i=!0){return wa(this,void 0,void 0,(function*(){yield this.workletsAreReady(),yield this._renderClock(i);const t=yield this._context.startRendering();return new ts(t)}))}close(){return Promise.resolve()}constructor(){var i,t,e;super({clockSource:"offline",context:Sa(arguments[0])?arguments[0]:(i=arguments[0],t=arguments[1]*arguments[2],e=arguments[2],new Jo(i,t,e)),lookAhead:0,updateInterval:Sa(arguments[0])?128/arguments[0].sampleRate:128/arguments[2]}),this.name="OfflineContext",this._currentTime=0,this.isOffline=!0,this._duration=Sa(arguments[0])?arguments[0].length/arguments[0].sampleRate:arguments[1]}}const ns=new class extends Ha{createAnalyser(){return{}}createOscillator(){return{}}createBufferSource(){return{}}createBiquadFilter(){return{}}createBuffer(i,t,e){return{}}createChannelMerger(i){return{}}createChannelSplitter(i){return{}}createConstantSource(){return{}}createConvolver(){return{}}createDelay(i){return{}}createDynamicsCompressor(){return{}}createGain(){return{}}createIIRFilter(i,t){return{}}createPanner(){return{}}createPeriodicWave(i,t,e){return{}}createStereoPanner(){return{}}createWaveShaper(){return{}}createMediaStreamSource(i){return{}}createMediaElementSource(i){return{}}createMediaStreamDestination(){return{}}decodeAudioData(i){return Promise.resolve({})}createAudioWorkletNode(i,t){return{}}get rawContext(){return{}}addAudioWorkletModule(i,t){return wa(this,void 0,void 0,(function*(){return Promise.resolve()}))}resume(){return Promise.resolve()}setTimeout(i,t){return 0}clearTimeout(i){return this}setInterval(i,t){return 0}clearInterval(i){return this}getConstant(i){return{}}get currentTime(){return 0}get state(){return{}}get sampleRate(){return 0}get listener(){return{}}get transport(){return{}}get draw(){return{}}set draw(i){}get destination(){return{}}set destination(i){}now(){return 0}immediate(){return 0}constructor(){super(...arguments),this.lookAhead=0,this.latencyHint=0,this.isOffline=!1}};let os=ns;function as(){return os===ns&&Ca&&ss(new Qa),os}function ss(i){os=Oa(i)?new Qa(i):Sa(i)?new es(i):i}if(ga&&!ga.TONE_SILENCE_LOGGING){let i="v";0;const t=` * Tone.js ${i}14.7.77 * `;console.log(`%c${t}`,"background: #000; color: #fff")}class cs extends Na{static getDefaults(){return{baseUrl:"",onerror:is,onload:is,urls:{}}}has(i){return this._buffers.has(i.toString())}get(i){return ca(this.has(i),`ToneAudioBuffers has no buffer named: ${i}`),this._buffers.get(i.toString())}_bufferLoaded(i){this._loadingCount--,0===this._loadingCount&&i&&i()}get loaded(){return Array.from(this._buffers).every((([i,t])=>t.loaded))}add(i,t,e=is,n=is){return fa(t)?this._buffers.set(i.toString(),new ts(this.baseUrl+t,e,n)):this._buffers.set(i.toString(),new ts(t,e,n)),this}dispose(){return super.dispose(),this._buffers.forEach((i=>i.dispose())),this._buffers.clear(),this}constructor(){super(),this.name="ToneAudioBuffers",this._buffers=new Map,this._loadingCount=0;const i=Ia(cs.getDefaults(),arguments,["urls","onload","baseUrl"],"urls");this.baseUrl=i.baseUrl,Object.keys(i.urls).forEach((t=>{this._loadingCount++;const e=i.urls[t];this.add(t,e,this._bufferLoaded.bind(this,i.onload),i.onerror)}))}}function rs(i){return Math.pow(10,i/20)}function ds(i){return Math.log(i)/Math.LN10*20}function ms(i){return Math.pow(2,i/12)}let us=440;function ls(i){us=i}function ks(i){return Math.round(vs(i))}function vs(i){return 69+12*Math.log2(i/us)}function ys(i){return us*Math.pow(2,(i-69)/12)}class hs extends Na{_getExpressions(){return{hz:{method:i=>this._frequencyToUnits(parseFloat(i)),regexp:/^(\d+(?:\.\d+)?)hz$/i},i:{method:i=>this._ticksToUnits(parseInt(i,10)),regexp:/^(\d+)i$/i},m:{method:i=>this._beatsToUnits(parseInt(i,10)*this._getTimeSignature()),regexp:/^(\d+)m$/i},n:{method:(i,t)=>{const e=parseInt(i,10),n="."===t?1.5:1;return 1===e?this._beatsToUnits(this._getTimeSignature())*n:this._beatsToUnits(4/e)*n},regexp:/^(\d+)n(\.?)$/i},number:{method:i=>this._expressions[this.defaultUnits].method.call(this,i),regexp:/^(\d+(?:\.\d+)?)$/},s:{method:i=>this._secondsToUnits(parseFloat(i)),regexp:/^(\d+(?:\.\d+)?)s$/},samples:{method:i=>parseInt(i,10)/this.context.sampleRate,regexp:/^(\d+)samples$/},t:{method:i=>{const t=parseInt(i,10);return this._beatsToUnits(8/(3*Math.floor(t)))},regexp:/^(\d+)t$/i},tr:{method:(i,t,e)=>{let n=0;return i&&"0"!==i&&(n+=this._beatsToUnits(this._getTimeSignature()*parseFloat(i))),t&&"0"!==t&&(n+=this._beatsToUnits(parseFloat(t))),e&&"0"!==e&&(n+=this._beatsToUnits(parseFloat(e)/4)),n},regexp:/^(\d+(?:\.\d+)?):(\d+(?:\.\d+)?):?(\d+(?:\.\d+)?)?$/}}}valueOf(){if(this._val instanceof hs&&this.fromType(this._val),ka(this._val))return this._noArg();if(fa(this._val)&&ka(this._units)){for(const i in this._expressions)if(this._expressions[i].regexp.test(this._val.trim())){this._units=i;break}}else if(ha(this._val)){let i=0;for(const t in this._val)if(va(this._val[t])){const e=this._val[t];i+=new this.constructor(this.context,t).valueOf()*e}return i}if(va(this._units)){const i=this._expressions[this._units],t=this._val.toString().trim().match(i.regexp);return t?i.method.apply(this,t.slice(1)):i.method.call(this,this._val)}return fa(this._val)?parseFloat(this._val):this._val}_frequencyToUnits(i){return 1/i}_beatsToUnits(i){return 60/this._getBpm()*i}_secondsToUnits(i){return i}_ticksToUnits(i){return i*this._beatsToUnits(1)/this._getPPQ()}_noArg(){return this._now()}_getBpm(){return this.context.transport.bpm.value}_getTimeSignature(){return this.context.transport.timeSignature}_getPPQ(){return this.context.transport.PPQ}fromType(i){switch(this._units=void 0,this.defaultUnits){case"s":this._val=i.toSeconds();break;case"i":this._val=i.toTicks();break;case"hz":this._val=i.toFrequency();break;case"midi":this._val=i.toMidi()}return this}toFrequency(){return 1/this.toSeconds()}toSamples(){return this.toSeconds()*this.context.sampleRate}toMilliseconds(){return 1e3*this.toSeconds()}constructor(i,t,e){super(),this.defaultUnits="s",this._val=t,this._units=e,this.context=i,this._expressions=this._getExpressions()}}class Ts extends hs{_getExpressions(){return Object.assign(super._getExpressions(),{now:{method:i=>this._now()+new this.constructor(this.context,i).valueOf(),regexp:/^\+(.+)/},quantize:{method:i=>{const t=new Ts(this.context,i).valueOf();return this._secondsToUnits(this.context.transport.nextSubdivision(t))},regexp:/^@(.+)/}})}quantize(i,t=1){const e=new this.constructor(this.context,i).valueOf(),n=this.valueOf();return n+(Math.round(n/e)*e-n)*t}toNotation(){const i=this.toSeconds(),t=["1m"];for(let i=1;i<9;i++){const e=Math.pow(2,i);t.push(e+"n."),t.push(e+"n"),t.push(e+"t")}t.push("0");let e=t[0],n=new Ts(this.context,t[0]).toSeconds();return t.forEach((t=>{const o=new Ts(this.context,t).toSeconds();Math.abs(o-i)<Math.abs(n-i)&&(e=t,n=o)})),e}toBarsBeatsSixteenths(){const i=this._beatsToUnits(1);let t=this.valueOf()/i;t=parseFloat(t.toFixed(4));const e=Math.floor(t/this._getTimeSignature());let n=t%1*4;t=Math.floor(t)%this._getTimeSignature();const o=n.toString();o.length>3&&(n=parseFloat(parseFloat(o).toFixed(3)));return[e,t,n].join(":")}toTicks(){const i=this._beatsToUnits(1),t=this.valueOf()/i;return Math.round(t*this._getPPQ())}toSeconds(){return this.valueOf()}toMidi(){return ks(this.toFrequency())}_now(){return this.context.now()}constructor(){super(...arguments),this.name="TimeClass"}}class ps extends Ts{static get A4(){return us}static set A4(i){ls(i)}_getExpressions(){return Object.assign({},super._getExpressions(),{midi:{regexp:/^(\d+(?:\.\d+)?midi)/,method(i){return"midi"===this.defaultUnits?i:ps.mtof(i)}},note:{regexp:/^([a-g]{1}(?:b|#|x|bb)?)(-?[0-9]+)/i,method(i,t){const e=fs[i.toLowerCase()]+12*(parseInt(t,10)+1);return"midi"===this.defaultUnits?e:ps.mtof(e)}},tr:{regexp:/^(\d+(?:\.\d+)?):(\d+(?:\.\d+)?):?(\d+(?:\.\d+)?)?/,method(i,t,e){let n=1;return i&&"0"!==i&&(n*=this._beatsToUnits(this._getTimeSignature()*parseFloat(i))),t&&"0"!==t&&(n*=this._beatsToUnits(parseFloat(t))),e&&"0"!==e&&(n*=this._beatsToUnits(parseFloat(e)/4)),n}}})}transpose(i){return new ps(this.context,this.valueOf()*ms(i))}harmonize(i){return i.map((i=>this.transpose(i)))}toMidi(){return ks(this.valueOf())}toNote(){const i=this.toFrequency(),t=Math.log2(i/ps.A4);let e=Math.round(12*t)+57;const n=Math.floor(e/12);n<0&&(e+=-12*n);return _s[e%12]+n.toString()}toSeconds(){return 1/super.toSeconds()}toTicks(){const i=this._beatsToUnits(1),t=this.valueOf()/i;return Math.floor(t*this._getPPQ())}_noArg(){return 0}_frequencyToUnits(i){return i}_ticksToUnits(i){return 1/(60*i/(this._getBpm()*this._getPPQ()))}_beatsToUnits(i){return 1/super._beatsToUnits(i)}_secondsToUnits(i){return 1/i}static mtof(i){return ys(i)}static ftom(i){return ks(i)}constructor(){super(...arguments),this.name="Frequency",this.defaultUnits="hz"}}const fs={cbb:-2,cb:-1,c:0,"c#":1,cx:2,dbb:0,db:1,d:2,"d#":3,dx:4,ebb:2,eb:3,e:4,"e#":5,ex:6,fbb:3,fb:4,f:5,"f#":6,fx:7,gbb:5,gb:6,g:7,"g#":8,gx:9,abb:7,ab:8,a:9,"a#":10,ax:11,bbb:9,bb:10,b:11,"b#":12,bx:13},_s=["C","C#","D","D#","E","F","F#","G","G#","A","A#","B"];class As extends Ts{_now(){return this.context.transport.seconds}constructor(){super(...arguments),this.name="TransportTime"}}class gs extends Na{static getDefaults(){return{context:as()}}now(){return this.context.currentTime+this.context.lookAhead}immediate(){return this.context.currentTime}get sampleTime(){return 1/this.context.sampleRate}get blockTime(){return 128/this.context.sampleRate}toSeconds(i){return new Ts(this.context,i).toSeconds()}toFrequency(i){return new ps(this.context,i).toFrequency()}toTicks(i){return new As(this.context,i).toTicks()}_getPartialProperties(i){const t=this.get();return Object.keys(t).forEach((e=>{ka(i[e])&&delete t[e]})),t}get(){const i=this.constructor.getDefaults();return Object.keys(i).forEach((t=>{if(Reflect.has(this,t)){const e=this[t];va(e)&&va(e.value)&&va(e.setValueAtTime)?i[t]=e.value:e instanceof gs?i[t]=e._getPartialProperties(i[t]):pa(e)||ya(e)||fa(e)||Ta(e)?i[t]=e:delete i[t]}})),i}set(i){return Object.keys(i).forEach((t=>{Reflect.has(this,t)&&va(this[t])&&(this[t]&&va(this[t].value)&&va(this[t].setValueAtTime)?this[t].value!==i[t]&&(this[t].value=i[t]):this[t]instanceof gs?this[t].set(i[t]):this[t]=i[t])})),this}constructor(){super();const i=Ia(gs.getDefaults(),arguments,["context"]);this.defaultContext?this.context=this.defaultContext:this.context=i.context}}class Cs extends gs{static getDefaults(){return Object.assign(gs.getDefaults(),{convert:!0,units:"number"})}get value(){const i=this.now();return this.getValueAtTime(i)}set value(i){this.cancelScheduledValues(this.now()),this.setValueAtTime(i,this.now())}get minValue(){return va(this._minValue)?this._minValue:"time"===this.units||"frequency"===this.units||"normalRange"===this.units||"positive"===this.units||"transportTime"===this.units||"ticks"===this.units||"bpm"===this.units||"hertz"===this.units||"samples"===this.units?0:"audioRange"===this.units?-1:"decibels"===this.units?-1/0:this._param.minValue}get maxValue(){return va(this._maxValue)?this._maxValue:"normalRange"===this.units||"audioRange"===this.units?1:this._param.maxValue}_is(i,t){return this.units===t}_assertRange(i){return va(this.maxValue)&&va(this.minValue)&&ra(i,this._fromType(this.minValue),this._fromType(this.maxValue)),i}_fromType(i){return this.convert&&!this.overridden?this._is(i,"time")?this.toSeconds(i):this._is(i,"decibels")?rs(i):this._is(i,"frequency")?this.toFrequency(i):i:this.overridden?0:i}_toType(i){return this.convert&&"decibels"===this.units?ds(i):i}setValueAtTime(i,t){const e=this.toSeconds(t),n=this._fromType(i);return ca(isFinite(n)&&isFinite(e),`Invalid argument(s) to setValueAtTime: ${JSON.stringify(i)}, ${JSON.stringify(t)}`),this._assertRange(n),this.log(this.units,"setValueAtTime",i,e),this._events.add({time:e,type:"setValueAtTime",value:n}),this._param.setValueAtTime(n,e),this}getValueAtTime(i){const t=Math.max(this.toSeconds(i),0),e=this._events.getAfter(t),n=this._events.get(t);let o=this._initialValue;if(null===n)o=this._initialValue;else if("setTargetAtTime"!==n.type||null!==e&&"setValueAtTime"!==e.type)if(null===e)o=n.value;else if("linearRampToValueAtTime"===e.type||"exponentialRampToValueAtTime"===e.type){let i=n.value;if("setTargetAtTime"===n.type){const t=this._events.getBefore(n.time);i=null===t?this._initialValue:t.value}o="linearRampToValueAtTime"===e.type?this._linearInterpolate(n.time,i,e.time,e.value,t):this._exponentialInterpolate(n.time,i,e.time,e.value,t)}else o=n.value;else{const i=this._events.getBefore(n.time);let e;e=null===i?this._initialValue:i.value,"setTargetAtTime"===n.type&&(o=this._exponentialApproach(n.time,e,n.value,n.constant,t))}return this._toType(o)}setRampPoint(i){i=this.toSeconds(i);let t=this.getValueAtTime(i);return this.cancelAndHoldAtTime(i),0===this._fromType(t)&&(t=this._toType(this._minOutput)),this.setValueAtTime(t,i),this}linearRampToValueAtTime(i,t){const e=this._fromType(i),n=this.toSeconds(t);return ca(isFinite(e)&&isFinite(n),`Invalid argument(s) to linearRampToValueAtTime: ${JSON.stringify(i)}, ${JSON.stringify(t)}`),this._assertRange(e),this._events.add({time:n,type:"linearRampToValueAtTime",value:e}),this.log(this.units,"linearRampToValueAtTime",i,n),this._param.linearRampToValueAtTime(e,n),this}exponentialRampToValueAtTime(i,t){let e=this._fromType(i);e=La(e,0)?this._minOutput:e,this._assertRange(e);const n=this.toSeconds(t);return ca(isFinite(e)&&isFinite(n),`Invalid argument(s) to exponentialRampToValueAtTime: ${JSON.stringify(i)}, ${JSON.stringify(t)}`),this._events.add({time:n,type:"exponentialRampToValueAtTime",value:e}),this.log(this.units,"exponentialRampToValueAtTime",i,n),this._param.exponentialRampToValueAtTime(e,n),this}exponentialRampTo(i,t,e){return e=this.toSeconds(e),this.setRampPoint(e),this.exponentialRampToValueAtTime(i,e+this.toSeconds(t)),this}linearRampTo(i,t,e){return e=this.toSeconds(e),this.setRampPoint(e),this.linearRampToValueAtTime(i,e+this.toSeconds(t)),this}targetRampTo(i,t,e){return e=this.toSeconds(e),this.setRampPoint(e),this.exponentialApproachValueAtTime(i,e,t),this}exponentialApproachValueAtTime(i,t,e){t=this.toSeconds(t),e=this.toSeconds(e);const n=Math.log(e+1)/Math.log(200);return this.setTargetAtTime(i,t,n),this.cancelAndHoldAtTime(t+.9*e),this.linearRampToValueAtTime(i,t+e),this}setTargetAtTime(i,t,e){const n=this._fromType(i);ca(isFinite(e)&&e>0,"timeConstant must be a number greater than 0");const o=this.toSeconds(t);return this._assertRange(n),ca(isFinite(n)&&isFinite(o),`Invalid argument(s) to setTargetAtTime: ${JSON.stringify(i)}, ${JSON.stringify(t)}`),this._events.add({constant:e,time:o,type:"setTargetAtTime",value:n}),this.log(this.units,"setTargetAtTime",i,o,e),this._param.setTargetAtTime(n,o,e),this}setValueCurveAtTime(i,t,e,n=1){e=this.toSeconds(e),t=this.toSeconds(t);const o=this._fromType(i[0])*n;this.setValueAtTime(this._toType(o),t);const a=e/(i.length-1);for(let e=1;e<i.length;e++){const o=this._fromType(i[e])*n;this.linearRampToValueAtTime(this._toType(o),t+e*a)}return this}cancelScheduledValues(i){const t=this.toSeconds(i);return ca(isFinite(t),`Invalid argument to cancelScheduledValues: ${JSON.stringify(i)}`),this._events.cancel(t),this._param.cancelScheduledValues(t),this.log(this.units,"cancelScheduledValues",t),this}cancelAndHoldAtTime(i){const t=this.toSeconds(i),e=this._fromType(this.getValueAtTime(t));ca(isFinite(t),`Invalid argument to cancelAndHoldAtTime: ${JSON.stringify(i)}`),this.log(this.units,"cancelAndHoldAtTime",t,"value="+e);const n=this._events.get(t),o=this._events.getAfter(t);return n&&La(n.time,t)?o?(this._param.cancelScheduledValues(o.time),this._events.cancel(o.time)):(this._param.cancelAndHoldAtTime(t),this._events.cancel(t+this.sampleTime)):o&&(this._param.cancelScheduledValues(o.time),this._events.cancel(o.time),"linearRampToValueAtTime"===o.type?this.linearRampToValueAtTime(this._toType(e),t):"exponentialRampToValueAtTime"===o.type&&this.exponentialRampToValueAtTime(this._toType(e),t)),this._events.add({time:t,type:"setValueAtTime",value:e}),this._param.setValueAtTime(e,t),this}rampTo(i,t=.1,e){return"frequency"===this.units||"bpm"===this.units||"decibels"===this.units?this.exponentialRampTo(i,t,e):this.linearRampTo(i,t,e),this}apply(i){const t=this.context.currentTime;i.setValueAtTime(this.getValueAtTime(t),t);const e=this._events.get(t);if(e&&"setTargetAtTime"===e.type){const n=this._events.getAfter(e.time),o=n?n.time:t+2,a=(o-t)/10;for(let e=t;e<o;e+=a)i.linearRampToValueAtTime(this.getValueAtTime(e),e)}return this._events.forEachAfter(this.context.currentTime,(t=>{"cancelScheduledValues"===t.type?i.cancelScheduledValues(t.time):"setTargetAtTime"===t.type?i.setTargetAtTime(t.value,t.time,t.constant):i[t.type](t.value,t.time)})),this}setParam(i){ca(this._swappable,"The Param must be assigned as 'swappable' in the constructor");const t=this.input;return t.disconnect(this._param),this.apply(i),this._param=i,t.connect(this._param),this}dispose(){return super.dispose(),this._events.dispose(),this}get defaultValue(){return this._toType(this._param.defaultValue)}_exponentialApproach(i,t,e,n,o){return e+(t-e)*Math.exp(-(o-i)/n)}_linearInterpolate(i,t,e,n,o){return t+(o-i)/(e-i)*(n-t)}_exponentialInterpolate(i,t,e,n,o){return t*Math.pow(n/t,(o-i)/(e-i))}constructor(){super(Ia(Cs.getDefaults(),arguments,["param","units","convert"])),this.name="Param",this.overridden=!1,this._minOutput=1e-7;const i=Ia(Cs.getDefaults(),arguments,["param","units","convert"]);for(ca(va(i.param)&&(Fa(i.param)||i.param instanceof Cs),"param must be an AudioParam");!Fa(i.param);)i.param=i.param._param;this._swappable=!!va(i.swappable)&&i.swappable,this._swappable?(this.input=this.context.createGain(),this._param=i.param,this.input.connect(this._param)):this._param=this.input=i.param,this._events=new Ua(1e3),this._initialValue=this._param.defaultValue,this.units=i.units,this.convert=i.convert,this._minValue=i.minValue,this._maxValue=i.maxValue,va(i.value)&&i.value!==this._toType(this._initialValue)&&this.setValueAtTime(i.value,0)}}class Ds extends gs{get numberOfInputs(){return va(this.input)?Fa(this.input)||this.input instanceof Cs?1:this.input.numberOfInputs:0}get numberOfOutputs(){return va(this.output)?this.output.numberOfOutputs:0}_isAudioNode(i){return va(i)&&(i instanceof Ds||Ea(i))}_getInternalNodes(){const i=this._internalChannels.slice(0);return this._isAudioNode(this.input)&&i.push(this.input),this._isAudioNode(this.output)&&this.input!==this.output&&i.push(this.output),i}_setChannelProperties(i){this._getInternalNodes().forEach((t=>{t.channelCount=i.channelCount,t.channelCountMode=i.channelCountMode,t.channelInterpretation=i.channelInterpretation}))}_getChannelProperties(){const i=this._getInternalNodes();ca(i.length>0,"ToneAudioNode does not have any internal nodes");const t=i[0];return{channelCount:t.channelCount,channelCountMode:t.channelCountMode,channelInterpretation:t.channelInterpretation}}get channelCount(){return this._getChannelProperties().channelCount}set channelCount(i){const t=this._getChannelProperties();this._setChannelProperties(Object.assign(t,{channelCount:i}))}get channelCountMode(){return this._getChannelProperties().channelCountMode}set channelCountMode(i){const t=this._getChannelProperties();this._setChannelProperties(Object.assign(t,{channelCountMode:i}))}get channelInterpretation(){return this._getChannelProperties().channelInterpretation}set channelInterpretation(i){const t=this._getChannelProperties();this._setChannelProperties(Object.assign(t,{channelInterpretation:i}))}connect(i,t=0,e=0){return ws(this,i,t,e),this}toDestination(){return this.connect(this.context.destination),this}toMaster(){return la("toMaster() has been renamed toDestination()"),this.toDestination()}disconnect(i,t=0,e=0){return bs(this,i,t,e),this}chain(...i){return xs(this,...i),this}fan(...i){return i.forEach((i=>this.connect(i))),this}dispose(){return super.dispose(),va(this.input)&&(this.input instanceof Ds?this.input.dispose():Ea(this.input)&&this.input.disconnect()),va(this.output)&&(this.output instanceof Ds?this.output.dispose():Ea(this.output)&&this.output.disconnect()),this._internalChannels=[],this}constructor(){super(...arguments),this.name="ToneAudioNode",this._internalChannels=[]}}function xs(...i){const t=i.shift();i.reduce(((i,t)=>(i instanceof Ds?i.connect(t):Ea(i)&&ws(i,t),t)),t)}function ws(i,t,e=0,n=0){for(ca(va(i),"Cannot connect from undefined node"),ca(va(t),"Cannot connect to undefined node"),(t instanceof Ds||Ea(t))&&ca(t.numberOfInputs>0,"Cannot connect to node with no inputs"),ca(i.numberOfOutputs>0,"Cannot connect from node with no outputs");t instanceof Ds||t instanceof Cs;)va(t.input)&&(t=t.input);for(;i instanceof Ds;)va(i.output)&&(i=i.output);Fa(t)?i.connect(t,e):i.connect(t,e,n)}function bs(i,t,e=0,n=0){if(va(t))for(;t instanceof Ds;)t=t.input;for(;!Ea(i);)va(i.output)&&(i=i.output);Fa(t)?i.disconnect(t,e):Ea(t)?i.disconnect(t,e,n):i.disconnect()}class Fs extends Ds{static getDefaults(){return Object.assign(Ds.getDefaults(),{convert:!0,gain:1,units:"gain"})}dispose(){return super.dispose(),this._gainNode.disconnect(),this.gain.dispose(),this}constructor(){super(Ia(Fs.getDefaults(),arguments,["gain","units"])),this.name="Gain",this._gainNode=this.context.createGain(),this.input=this._gainNode,this.output=this._gainNode;const i=Ia(Fs.getDefaults(),arguments,["gain","units"]);this.gain=new Cs({context:this.context,convert:i.convert,param:this._gainNode.gain,units:i.units,value:i.gain,minValue:i.minValue,maxValue:i.maxValue}),Ja(this,"gain")}}class Es extends Ds{static getDefaults(){return Object.assign(Ds.getDefaults(),{curve:"linear",fadeIn:0,fadeOut:0,onended:is})}_startGain(i,t=1){ca(-1===this._startTime,"Source cannot be started more than once");const e=this.toSeconds(this._fadeIn);return this._startTime=i+e,this._startTime=Math.max(this._startTime,this.context.currentTime),e>0?(this._gainNode.gain.setValueAtTime(0,i),"linear"===this._curve?this._gainNode.gain.linearRampToValueAtTime(t,i+e):this._gainNode.gain.exponentialApproachValueAtTime(t,i,e)):this._gainNode.gain.setValueAtTime(t,i),this}stop(i){return this.log("stop",i),this._stopGain(this.toSeconds(i)),this}_stopGain(i){ca(-1!==this._startTime,"'start' must be called before 'stop'"),this.cancelStop();const t=this.toSeconds(this._fadeOut);return this._stopTime=this.toSeconds(i)+t,this._stopTime=Math.max(this._stopTime,this.context.currentTime),t>0?"linear"===this._curve?this._gainNode.gain.linearRampTo(0,t,i):this._gainNode.gain.targetRampTo(0,t,i):(this._gainNode.gain.cancelAndHoldAtTime(i),this._gainNode.gain.setValueAtTime(0,i)),this.context.clearTimeout(this._timeout),this._timeout=this.context.setTimeout((()=>{const i="exponential"===this._curve?2*t:0;this._stopSource(this.now()+i),this._onended()}),this._stopTime-this.context.currentTime),this}_onended(){if(this.onended!==is&&(this.onended(this),this.onended=is,!this.context.isOffline)){const i=()=>this.dispose();void 0!==window.requestIdleCallback?window.requestIdleCallback(i):setTimeout(i,1e3)}}get state(){return this.getStateAtTime(this.now())}cancelStop(){return this.log("cancelStop"),ca(-1!==this._startTime,"Source is not started"),this._gainNode.gain.cancelScheduledValues(this._startTime+this.sampleTime),this.context.clearTimeout(this._timeout),this._stopTime=-1,this}dispose(){return super.dispose(),this._gainNode.disconnect(),this}constructor(i){super(i),this.onended=is,this._startTime=-1,this._stopTime=-1,this._timeout=-1,this.output=new Fs({context:this.context,gain:0}),this._gainNode=this.output,this.getStateAtTime=function(i){const t=this.toSeconds(i);return-1!==this._startTime&&t>=this._startTime&&(-1===this._stopTime||t<=this._stopTime)?"started":"stopped"},this._fadeIn=i.fadeIn,this._fadeOut=i.fadeOut,this._curve=i.curve,this.onended=i.onended}}class Ss extends Es{static getDefaults(){return Object.assign(Es.getDefaults(),{url:new ts,loop:!1,loopEnd:0,loopStart:0,onload:is,onerror:is,playbackRate:1})}get fadeIn(){return this._fadeIn}set fadeIn(i){this._fadeIn=i}get fadeOut(){return this._fadeOut}set fadeOut(i){this._fadeOut=i}get curve(){return this._curve}set curve(i){this._curve=i}start(i,t,e,n=1){ca(this.buffer.loaded,"buffer is either not set or not loaded");const o=this.toSeconds(i);this._startGain(o,n),t=this.loop?Va(t,this.loopStart):Va(t,0);let a=Math.max(this.toSeconds(t),0);if(this.loop){const i=this.toSeconds(this.loopEnd)||this.buffer.duration,t=this.toSeconds(this.loopStart),e=i-t;qa(a,i)&&(a=(a-t)%e+t),La(a,this.buffer.duration)&&(a=0)}if(this._source.buffer=this.buffer.get(),this._source.loopEnd=this.toSeconds(this.loopEnd)||this.buffer.duration,ja(a,this.buffer.duration)&&(this._sourceStarted=!0,this._source.start(o,a)),va(e)){let i=this.toSeconds(e);i=Math.max(i,0),this.stop(o+i)}return this}_stopSource(i){!this._sourceStopped&&this._sourceStarted&&(this._sourceStopped=!0,this._source.stop(this.toSeconds(i)),this._onended())}get loopStart(){return this._source.loopStart}set loopStart(i){this._source.loopStart=this.toSeconds(i)}get loopEnd(){return this._source.loopEnd}set loopEnd(i){this._source.loopEnd=this.toSeconds(i)}get buffer(){return this._buffer}set buffer(i){this._buffer.set(i)}get loop(){return this._source.loop}set loop(i){this._source.loop=i,this._sourceStarted&&this.cancelStop()}dispose(){return super.dispose(),this._source.onended=null,this._source.disconnect(),this._buffer.dispose(),this.playbackRate.dispose(),this}constructor(){super(Ia(Ss.getDefaults(),arguments,["url","onload"])),this.name="ToneBufferSource",this._source=this.context.createBufferSource(),this._internalChannels=[this._source],this._sourceStarted=!1,this._sourceStopped=!1;const i=Ia(Ss.getDefaults(),arguments,["url","onload"]);ws(this._source,this._gainNode),this._source.onended=()=>this._stopSource(),this.playbackRate=new Cs({context:this.context,param:this._source.playbackRate,units:"positive",value:i.playbackRate}),this.loop=i.loop,this.loopStart=i.loopStart,this.loopEnd=i.loopEnd,this._buffer=new ts(i.url,i.onload,i.onerror),this._internalChannels.push(this._source)}}class Os extends gs{schedule(i,t){return this._events.add({callback:i,time:this.toSeconds(t)}),1===this._events.length&&(this._animationFrame=requestAnimationFrame(this._boundDrawLoop)),this}cancel(i){return this._events.cancel(this.toSeconds(i)),this}_drawLoop(){const i=this.context.currentTime;for(;this._events.length&&this._events.peek().time-this.anticipation<=i;){const t=this._events.shift();t&&i-t.time<=this.expiration&&t.callback()}this._events.length>0&&(this._animationFrame=requestAnimationFrame(this._boundDrawLoop))}dispose(){return super.dispose(),this._events.dispose(),cancelAnimationFrame(this._animationFrame),this}constructor(){super(...arguments),this.name="Draw",this.expiration=.25,this.anticipation=.008,this._events=new Ua,this._boundDrawLoop=this._drawLoop.bind(this),this._animationFrame=-1}}Ya((i=>{i.draw=new Os({context:i})})),Za((i=>{i.draw.dispose()}));class Bs extends Ua{getValueAtTime(i){const t=this.get(i);return null!==t?t.state:this._initial}setStateAtTime(i,t,e){return ra(t,0),this.add(Object.assign({},e,{state:i,time:t})),this}getLastState(i,t){for(let e=this._search(t);e>=0;e--){const t=this._timeline[e];if(t.state===i)return t}}getNextState(i,t){const e=this._search(t);if(-1!==e)for(let t=e;t<this._timeline.length;t++){const e=this._timeline[t];if(e.state===i)return e}}constructor(i="stopped"){super(),this.name="StateTimeline",this._initial=i,this.setStateAtTime(this._initial,0)}}class Ms extends Es{static getDefaults(){return Object.assign(Es.getDefaults(),{convert:!0,offset:1,units:"number"})}start(i){const t=this.toSeconds(i);return this.log("start",t),this._startGain(t),this._source.start(t),this}_stopSource(i){this._source.stop(i)}dispose(){return super.dispose(),"started"===this.state&&this.stop(),this._source.disconnect(),this.offset.dispose(),this}constructor(){super(Ia(Ms.getDefaults(),arguments,["offset"])),this.name="ToneConstantSource",this._source=this.context.createConstantSource();const i=Ia(Ms.getDefaults(),arguments,["offset"]);ws(this._source,this._gainNode),this.offset=new Cs({context:this.context,convert:i.convert,param:this._source.offset,units:i.units,value:i.offset,minValue:i.minValue,maxValue:i.maxValue})}}class Gs extends Ds{static getDefaults(){return Object.assign(Ds.getDefaults(),{convert:!0,units:"number",value:0})}connect(i,t=0,e=0){return Is(this,i,t,e),this}dispose(){return super.dispose(),this._param.dispose(),this._constantSource.dispose(),this}setValueAtTime(i,t){return this._param.setValueAtTime(i,t),this}getValueAtTime(i){return this._param.getValueAtTime(i)}setRampPoint(i){return this._param.setRampPoint(i),this}linearRampToValueAtTime(i,t){return this._param.linearRampToValueAtTime(i,t),this}exponentialRampToValueAtTime(i,t){return this._param.exponentialRampToValueAtTime(i,t),this}exponentialRampTo(i,t,e){return this._param.exponentialRampTo(i,t,e),this}linearRampTo(i,t,e){return this._param.linearRampTo(i,t,e),this}targetRampTo(i,t,e){return this._param.targetRampTo(i,t,e),this}exponentialApproachValueAtTime(i,t,e){return this._param.exponentialApproachValueAtTime(i,t,e),this}setTargetAtTime(i,t,e){return this._param.setTargetAtTime(i,t,e),this}setValueCurveAtTime(i,t,e,n){return this._param.setValueCurveAtTime(i,t,e,n),this}cancelScheduledValues(i){return this._param.cancelScheduledValues(i),this}cancelAndHoldAtTime(i){return this._param.cancelAndHoldAtTime(i),this}rampTo(i,t,e){return this._param.rampTo(i,t,e),this}get value(){return this._param.value}set value(i){this._param.value=i}get convert(){return this._param.convert}set convert(i){this._param.convert=i}get units(){return this._param.units}get overridden(){return this._param.overridden}set overridden(i){this._param.overridden=i}get maxValue(){return this._param.maxValue}get minValue(){return this._param.minValue}apply(i){return this._param.apply(i),this}constructor(){super(Ia(Gs.getDefaults(),arguments,["value","units"])),this.name="Signal",this.override=!0;const i=Ia(Gs.getDefaults(),arguments,["value","units"]);this.output=this._constantSource=new Ms({context:this.context,convert:i.convert,offset:i.value,units:i.units,minValue:i.minValue,maxValue:i.maxValue}),this._constantSource.start(0),this.input=this._param=this._constantSource.offset}}function Is(i,t,e,n){(t instanceof Cs||Fa(t)||t instanceof Gs&&t.override)&&(t.cancelScheduledValues(0),t.setValueAtTime(0,0),t instanceof Gs&&(t.overridden=!0)),ws(i,t,e,n)}class Vs extends Cs{static getDefaults(){return Object.assign(Cs.getDefaults(),{multiplier:1,units:"hertz",value:1})}setTargetAtTime(i,t,e){t=this.toSeconds(t),this.setRampPoint(t);const n=this._fromType(i),o=this._events.get(t),a=Math.round(Math.max(1/e,1));for(let i=0;i<=a;i++){const a=e*i+t,s=this._exponentialApproach(o.time,o.value,n,e,a);this.linearRampToValueAtTime(this._toType(s),a)}return this}setValueAtTime(i,t){const e=this.toSeconds(t);super.setValueAtTime(i,t);const n=this._events.get(e),o=this._events.previousEvent(n),a=this._getTicksUntilEvent(o,e);return n.ticks=Math.max(a,0),this}linearRampToValueAtTime(i,t){const e=this.toSeconds(t);super.linearRampToValueAtTime(i,t);const n=this._events.get(e),o=this._events.previousEvent(n),a=this._getTicksUntilEvent(o,e);return n.ticks=Math.max(a,0),this}exponentialRampToValueAtTime(i,t){t=this.toSeconds(t);const e=this._fromType(i),n=this._events.get(t),o=Math.round(Math.max(10*(t-n.time),1)),a=(t-n.time)/o;for(let i=0;i<=o;i++){const o=a*i+n.time,s=this._exponentialInterpolate(n.time,n.value,t,e,o);this.linearRampToValueAtTime(this._toType(s),o)}return this}_getTicksUntilEvent(i,t){if(null===i)i={ticks:0,time:0,type:"setValueAtTime",value:0};else if(ka(i.ticks)){const t=this._events.previousEvent(i);i.ticks=this._getTicksUntilEvent(t,i.time)}const e=this._fromType(this.getValueAtTime(i.time));let n=this._fromType(this.getValueAtTime(t));const o=this._events.get(t);return o&&o.time===t&&"setValueAtTime"===o.type&&(n=this._fromType(this.getValueAtTime(t-this.sampleTime))),.5*(t-i.time)*(e+n)+i.ticks}getTicksAtTime(i){const t=this.toSeconds(i),e=this._events.get(t);return Math.max(this._getTicksUntilEvent(e,t),0)}getDurationOfTicks(i,t){const e=this.toSeconds(t),n=this.getTicksAtTime(t);return this.getTimeOfTick(n+i)-e}getTimeOfTick(i){const t=this._events.get(i,"ticks"),e=this._events.getAfter(i,"ticks");if(t&&t.ticks===i)return t.time;if(t&&e&&"linearRampToValueAtTime"===e.type&&t.value!==e.value){const n=this._fromType(this.getValueAtTime(t.time)),o=(this._fromType(this.getValueAtTime(e.time))-n)/(e.time-t.time),a=Math.sqrt(Math.pow(n,2)-2*o*(t.ticks-i)),s=(-n+a)/o,c=(-n-a)/o;return(s>0?s:c)+t.time}return t?0===t.value?1/0:t.time+(i-t.ticks)/t.value:i/this._initialValue}ticksToTime(i,t){return this.getDurationOfTicks(i,t)}timeToTicks(i,t){const e=this.toSeconds(t),n=this.toSeconds(i),o=this.getTicksAtTime(e);return this.getTicksAtTime(e+n)-o}_fromType(i){return"bpm"===this.units&&this.multiplier?1/(60/i/this.multiplier):super._fromType(i)}_toType(i){return"bpm"===this.units&&this.multiplier?i/this.multiplier*60:super._toType(i)}get multiplier(){return this._multiplier}set multiplier(i){const t=this.value;this._multiplier=i,this.cancelScheduledValues(0),this.setValueAtTime(t,0)}constructor(){super(Ia(Vs.getDefaults(),arguments,["value"])),this.name="TickParam",this._events=new Ua(1/0),this._multiplier=1;const i=Ia(Vs.getDefaults(),arguments,["value"]);this._multiplier=i.multiplier,this._events.cancel(0),this._events.add({ticks:0,time:0,type:"setValueAtTime",value:this._fromType(i.value)}),this.setValueAtTime(i.value,0)}}class Rs extends Gs{static getDefaults(){return Object.assign(Gs.getDefaults(),{multiplier:1,units:"hertz",value:1})}ticksToTime(i,t){return this._param.ticksToTime(i,t)}timeToTicks(i,t){return this._param.timeToTicks(i,t)}getTimeOfTick(i){return this._param.getTimeOfTick(i)}getDurationOfTicks(i,t){return this._param.getDurationOfTicks(i,t)}getTicksAtTime(i){return this._param.getTicksAtTime(i)}get multiplier(){return this._param.multiplier}set multiplier(i){this._param.multiplier=i}dispose(){return super.dispose(),this._param.dispose(),this}constructor(){super(Ia(Rs.getDefaults(),arguments,["value"])),this.name="TickSignal";const i=Ia(Rs.getDefaults(),arguments,["value"]);this.input=this._param=new Vs({context:this.context,convert:i.convert,multiplier:i.multiplier,param:this._constantSource.offset,units:i.units,value:i.value})}}class Ns extends gs{static getDefaults(){return Object.assign({frequency:1,units:"hertz"},gs.getDefaults())}get state(){return this.getStateAtTime(this.now())}start(i,t){const e=this.toSeconds(i);return"started"!==this._state.getValueAtTime(e)&&(this._state.setStateAtTime("started",e),va(t)&&this.setTicksAtTime(t,e)),this}stop(i){const t=this.toSeconds(i);if("stopped"===this._state.getValueAtTime(t)){const i=this._state.get(t);i&&i.time>0&&(this._tickOffset.cancel(i.time),this._state.cancel(i.time))}return this._state.cancel(t),this._state.setStateAtTime("stopped",t),this.setTicksAtTime(0,t),this}pause(i){const t=this.toSeconds(i);return"started"===this._state.getValueAtTime(t)&&this._state.setStateAtTime("paused",t),this}cancel(i){return i=this.toSeconds(i),this._state.cancel(i),this._tickOffset.cancel(i),this}getTicksAtTime(i){const t=this.toSeconds(i),e=this._state.getLastState("stopped",t),n={state:"paused",time:t};this._state.add(n);let o=e,a=0;return this._state.forEachBetween(e.time,t+this.sampleTime,(i=>{let t=o.time;const e=this._tickOffset.get(i.time);e&&e.time>=o.time&&(a=e.ticks,t=e.time),"started"===o.state&&"started"!==i.state&&(a+=this.frequency.getTicksAtTime(i.time)-this.frequency.getTicksAtTime(t)),o=i})),this._state.remove(n),a}get ticks(){return this.getTicksAtTime(this.now())}set ticks(i){this.setTicksAtTime(i,this.now())}get seconds(){return this.getSecondsAtTime(this.now())}set seconds(i){const t=this.now(),e=this.frequency.timeToTicks(i,t);this.setTicksAtTime(e,t)}getSecondsAtTime(i){i=this.toSeconds(i);const t=this._state.getLastState("stopped",i),e={state:"paused",time:i};this._state.add(e);let n=t,o=0;return this._state.forEachBetween(t.time,i+this.sampleTime,(i=>{let t=n.time;const e=this._tickOffset.get(i.time);e&&e.time>=n.time&&(o=e.seconds,t=e.time),"started"===n.state&&"started"!==i.state&&(o+=i.time-t),n=i})),this._state.remove(e),o}setTicksAtTime(i,t){return t=this.toSeconds(t),this._tickOffset.cancel(t),this._tickOffset.add({seconds:this.frequency.getDurationOfTicks(i,t),ticks:i,time:t}),this}getStateAtTime(i){return i=this.toSeconds(i),this._state.getValueAtTime(i)}getTimeOfTick(i,t=this.now()){const e=this._tickOffset.get(t),n=this._state.get(t),o=Math.max(e.time,n.time),a=this.frequency.getTicksAtTime(o)+i-e.ticks;return this.frequency.getTimeOfTick(a)}forEachTickBetween(i,t,e){let n=this._state.get(i);this._state.forEachBetween(i,t,(t=>{n&&"started"===n.state&&"started"!==t.state&&this.forEachTickBetween(Math.max(n.time,i),t.time-this.sampleTime,e),n=t}));let o=null;if(n&&"started"===n.state){const a=Math.max(n.time,i),s=this.frequency.getTicksAtTime(a),c=s-this.frequency.getTicksAtTime(n.time);let r=Math.ceil(c)-c;r=La(r,1)?0:r;let d=this.frequency.getTimeOfTick(s+r);for(;d<t;){try{e(d,Math.round(this.getTicksAtTime(d)))}catch(i){o=i;break}d+=this.frequency.getDurationOfTicks(1,d)}}if(o)throw o;return this}dispose(){return super.dispose(),this._state.dispose(),this._tickOffset.dispose(),this.frequency.dispose(),this}constructor(){super(Ia(Ns.getDefaults(),arguments,["frequency"])),this.name="TickSource",this._state=new Bs,this._tickOffset=new Ua;const i=Ia(Ns.getDefaults(),arguments,["frequency"]);this.frequency=new Rs({context:this.context,units:i.units,value:i.frequency}),Ja(this,"frequency"),this._state.setStateAtTime("stopped",0),this.setTicksAtTime(0,0)}}class Ps extends gs{static getDefaults(){return Object.assign(gs.getDefaults(),{callback:is,frequency:1,units:"hertz"})}get state(){return this._state.getValueAtTime(this.now())}start(i,t){da(this.context);const e=this.toSeconds(i);return this.log("start",e),"started"!==this._state.getValueAtTime(e)&&(this._state.setStateAtTime("started",e),this._tickSource.start(e,t),e<this._lastUpdate&&this.emit("start",e,t)),this}stop(i){const t=this.toSeconds(i);return this.log("stop",t),this._state.cancel(t),this._state.setStateAtTime("stopped",t),this._tickSource.stop(t),t<this._lastUpdate&&this.emit("stop",t),this}pause(i){const t=this.toSeconds(i);return"started"===this._state.getValueAtTime(t)&&(this._state.setStateAtTime("paused",t),this._tickSource.pause(t),t<this._lastUpdate&&this.emit("pause",t)),this}get ticks(){return Math.ceil(this.getTicksAtTime(this.now()))}set ticks(i){this._tickSource.ticks=i}get seconds(){return this._tickSource.seconds}set seconds(i){this._tickSource.seconds=i}getSecondsAtTime(i){return this._tickSource.getSecondsAtTime(i)}setTicksAtTime(i,t){return this._tickSource.setTicksAtTime(i,t),this}getTimeOfTick(i,t=this.now()){return this._tickSource.getTimeOfTick(i,t)}getTicksAtTime(i){return this._tickSource.getTicksAtTime(i)}nextTickTime(i,t){const e=this.toSeconds(t),n=this.getTicksAtTime(e);return this._tickSource.getTimeOfTick(n+i,e)}_loop(){const i=this._lastUpdate,t=this.now();this._lastUpdate=t,this.log("loop",i,t),i!==t&&(this._state.forEachBetween(i,t,(i=>{switch(i.state){case"started":const t=this._tickSource.getTicksAtTime(i.time);this.emit("start",i.time,t);break;case"stopped":0!==i.time&&this.emit("stop",i.time);break;case"paused":this.emit("pause",i.time)}})),this._tickSource.forEachTickBetween(i,t,((i,t)=>{this.callback(i,t)})))}getStateAtTime(i){const t=this.toSeconds(i);return this._state.getValueAtTime(t)}dispose(){return super.dispose(),this.context.off("tick",this._boundLoop),this._tickSource.dispose(),this._state.dispose(),this}constructor(){super(Ia(Ps.getDefaults(),arguments,["callback","frequency"])),this.name="Clock",this.callback=is,this._lastUpdate=0,this._state=new Bs("stopped"),this._boundLoop=this._loop.bind(this);const i=Ia(Ps.getDefaults(),arguments,["callback","frequency"]);this.callback=i.callback,this._tickSource=new Ns({context:this.context,frequency:i.frequency,units:i.units}),this._lastUpdate=0,this.frequency=this._tickSource.frequency,Ja(this,"frequency"),this._state.setStateAtTime("stopped",0),this.context.on("tick",this._boundLoop)}}$a.mixin(Ps);class qs extends ps{_frequencyToUnits(i){return ks(super._frequencyToUnits(i))}_ticksToUnits(i){return ks(super._ticksToUnits(i))}_beatsToUnits(i){return ks(super._beatsToUnits(i))}_secondsToUnits(i){return ks(super._secondsToUnits(i))}toMidi(){return this.valueOf()}toFrequency(){return ys(this.toMidi())}transpose(i){return new qs(this.context,this.toMidi()+i)}constructor(){super(...arguments),this.name="MidiClass",this.defaultUnits="midi"}}class js extends As{_now(){return this.context.transport.ticks}_beatsToUnits(i){return this._getPPQ()*i}_secondsToUnits(i){return Math.floor(i/(60/this._getBpm())*this._getPPQ())}_ticksToUnits(i){return i}toTicks(){return this.valueOf()}toSeconds(){return this.valueOf()/this._getPPQ()*(60/this._getBpm())}constructor(){super(...arguments),this.name="Ticks",this.defaultUnits="i"}}class Ls extends Na{add(i){ca(va(i.time),"Events must have a time property"),ca(va(i.duration),"Events must have a duration parameter"),i.time=i.time.valueOf();let t=new Ws(i.time,i.time+i.duration,i);for(null===this._root?this._root=t:this._root.insert(t),this._length++;null!==t;)t.updateHeight(),t.updateMax(),this._rebalance(t),t=t.parent;return this}remove(i){if(null!==this._root){const t=[];this._root.search(i.time,t);for(const e of t)if(e.event===i){this._removeNode(e),this._length--;break}}return this}get length(){return this._length}cancel(i){return this.forEachFrom(i,(i=>this.remove(i))),this}_setRoot(i){this._root=i,null!==this._root&&(this._root.parent=null)}_replaceNodeInParent(i,t){null!==i.parent?(i.isLeftChild()?i.parent.left=t:i.parent.right=t,this._rebalance(i.parent)):this._setRoot(t)}_removeNode(i){if(null===i.left&&null===i.right)this._replaceNodeInParent(i,null);else if(null===i.right)this._replaceNodeInParent(i,i.left);else if(null===i.left)this._replaceNodeInParent(i,i.right);else{let t,e=null;if(i.getBalance()>0)if(null===i.left.right)t=i.left,t.right=i.right,e=t;else{for(t=i.left.right;null!==t.right;)t=t.right;t.parent&&(t.parent.right=t.left,e=t.parent,t.left=i.left,t.right=i.right)}else if(null===i.right.left)t=i.right,t.left=i.left,e=t;else{for(t=i.right.left;null!==t.left;)t=t.left;t.parent&&(t.parent.left=t.right,e=t.parent,t.left=i.left,t.right=i.right)}null!==i.parent?i.isLeftChild()?i.parent.left=t:i.parent.right=t:this._setRoot(t),e&&this._rebalance(e)}i.dispose()}_rotateLeft(i){const t=i.parent,e=i.isLeftChild(),n=i.right;n&&(i.right=n.left,n.left=i),null!==t?e?t.left=n:t.right=n:this._setRoot(n)}_rotateRight(i){const t=i.parent,e=i.isLeftChild(),n=i.left;n&&(i.left=n.right,n.right=i),null!==t?e?t.left=n:t.right=n:this._setRoot(n)}_rebalance(i){const t=i.getBalance();t>1&&i.left?i.left.getBalance()<0?this._rotateLeft(i.left):this._rotateRight(i):t<-1&&i.right&&(i.right.getBalance()>0?this._rotateRight(i.right):this._rotateLeft(i))}get(i){if(null!==this._root){const t=[];if(this._root.search(i,t),t.length>0){let i=t[0];for(let e=1;e<t.length;e++)t[e].low>i.low&&(i=t[e]);return i.event}}return null}forEach(i){if(null!==this._root){const t=[];this._root.traverse((i=>t.push(i))),t.forEach((t=>{t.event&&i(t.event)}))}return this}forEachAtTime(i,t){if(null!==this._root){const e=[];this._root.search(i,e),e.forEach((i=>{i.event&&t(i.event)}))}return this}forEachFrom(i,t){if(null!==this._root){const e=[];this._root.searchAfter(i,e),e.forEach((i=>{i.event&&t(i.event)}))}return this}dispose(){return super.dispose(),null!==this._root&&this._root.traverse((i=>i.dispose())),this._root=null,this}constructor(){super(...arguments),this.name="IntervalTimeline",this._root=null,this._length=0}}class Ws{insert(i){i.low<=this.low?null===this.left?this.left=i:this.left.insert(i):null===this.right?this.right=i:this.right.insert(i)}search(i,t){i>this.max||(null!==this.left&&this.left.search(i,t),this.low<=i&&this.high>i&&t.push(this),this.low>i||null!==this.right&&this.right.search(i,t))}searchAfter(i,t){this.low>=i&&(t.push(this),null!==this.left&&this.left.searchAfter(i,t)),null!==this.right&&this.right.searchAfter(i,t)}traverse(i){i(this),null!==this.left&&this.left.traverse(i),null!==this.right&&this.right.traverse(i)}updateHeight(){null!==this.left&&null!==this.right?this.height=Math.max(this.left.height,this.right.height)+1:null!==this.right?this.height=this.right.height+1:null!==this.left?this.height=this.left.height+1:this.height=0}updateMax(){this.max=this.high,null!==this.left&&(this.max=Math.max(this.max,this.left.max)),null!==this.right&&(this.max=Math.max(this.max,this.right.max))}getBalance(){let i=0;return null!==this.left&&null!==this.right?i=this.left.height-this.right.height:null!==this.left?i=this.left.height+1:null!==this.right&&(i=-(this.right.height+1)),i}isLeftChild(){return null!==this.parent&&this.parent.left===this}get left(){return this._left}set left(i){this._left=i,null!==i&&(i.parent=this),this.updateHeight(),this.updateMax()}get right(){return this._right}set right(i){this._right=i,null!==i&&(i.parent=this),this.updateHeight(),this.updateMax()}dispose(){this.parent=null,this._left=null,this._right=null,this.event=null}constructor(i,t,e){this._left=null,this._right=null,this.parent=null,this.height=0,this.event=e,this.low=i,this.high=t,this.max=this.high}}class Us extends Ds{static getDefaults(){return Object.assign(Ds.getDefaults(),{mute:!1,volume:0})}get mute(){return this.volume.value===-1/0}set mute(i){!this.mute&&i?(this._unmutedVolume=this.volume.value,this.volume.value=-1/0):this.mute&&!i&&(this.volume.value=this._unmutedVolume)}dispose(){return super.dispose(),this.input.dispose(),this.volume.dispose(),this}constructor(){super(Ia(Us.getDefaults(),arguments,["volume"])),this.name="Volume";const i=Ia(Us.getDefaults(),arguments,["volume"]);this.input=this.output=new Fs({context:this.context,gain:i.volume,units:"decibels"}),this.volume=this.output.gain,Ja(this,"volume"),this._unmutedVolume=i.volume,this.mute=i.mute}}class zs extends Ds{static getDefaults(){return Object.assign(Ds.getDefaults(),{mute:!1,volume:0})}get mute(){return this.input.mute}set mute(i){this.input.mute=i}chain(...i){return this.input.disconnect(),i.unshift(this.input),i.push(this.output),xs(...i),this}get maxChannelCount(){return this.context.rawContext.destination.maxChannelCount}dispose(){return super.dispose(),this.volume.dispose(),this}constructor(){super(Ia(zs.getDefaults(),arguments)),this.name="Destination",this.input=new Us({context:this.context}),this.output=new Fs({context:this.context}),this.volume=this.input.volume;const i=Ia(zs.getDefaults(),arguments);xs(this.input,this.output,this.context.rawContext.destination),this.mute=i.mute,this._internalChannels=[this.input,this.context.rawContext.destination,this.output]}}Ya((i=>{i.destination=new zs({context:i})})),Za((i=>{i.destination.dispose()}));class Ys extends Na{set(i,t){return this._timeline.add({value:i,time:t}),this}get(i){const t=this._timeline.get(i);return t?t.value:this._initialValue}constructor(i){super(),this.name="TimelineValue",this._timeline=new Ua({memory:10}),this._initialValue=i}}class Xs{static getDefaults(){return{callback:is,once:!1,time:0}}invoke(i){this.callback&&(this.callback(i),this._once&&this.transport.clear(this.id))}dispose(){return this.callback=void 0,this}constructor(i,t){this.id=Xs._eventId++;const e=Object.assign(Xs.getDefaults(),t);this.transport=i,this.callback=e.callback,this._once=e.once,this.time=e.time}}Xs._eventId=0;class Zs extends Xs{static getDefaults(){return Object.assign({},Xs.getDefaults(),{duration:1/0,interval:1,once:!1})}invoke(i){this._createEvents(i),super.invoke(i)}_createEvents(i){const t=this.transport.getTicksAtTime(i);t>=this.time&&t>=this._nextTick&&this._nextTick+this._interval<this.time+this.duration&&(this._nextTick+=this._interval,this._currentId=this._nextId,this._nextId=this.transport.scheduleOnce(this.invoke.bind(this),new js(this.context,this._nextTick).toSeconds()))}_restart(i){this.transport.clear(this._currentId),this.transport.clear(this._nextId),this._nextTick=this.time;const t=this.transport.getTicksAtTime(i);t>this.time&&(this._nextTick=this.time+Math.ceil((t-this.time)/this._interval)*this._interval),this._currentId=this.transport.scheduleOnce(this.invoke.bind(this),new js(this.context,this._nextTick).toSeconds()),this._nextTick+=this._interval,this._nextId=this.transport.scheduleOnce(this.invoke.bind(this),new js(this.context,this._nextTick).toSeconds())}dispose(){return super.dispose(),this.transport.clear(this._currentId),this.transport.clear(this._nextId),this.transport.off("start",this._boundRestart),this.transport.off("loopStart",this._boundRestart),this}constructor(i,t){super(i,t),this._currentId=-1,this._nextId=-1,this._nextTick=this.time,this._boundRestart=this._restart.bind(this);const e=Object.assign(Zs.getDefaults(),t);this.duration=new js(i.context,e.duration).valueOf(),this._interval=new js(i.context,e.interval).valueOf(),this._nextTick=e.time,this.transport.on("start",this._boundRestart),this.transport.on("loopStart",this._boundRestart),this.context=this.transport.context,this._restart()}}class $s extends gs{static getDefaults(){return Object.assign(gs.getDefaults(),{bpm:120,loopEnd:"4m",loopStart:0,ppq:192,swing:0,swingSubdivision:"8n",timeSignature:4})}_processTick(i,t){if(this._loop.get(i)&&t>=this._loopEnd&&(this.emit("loopEnd",i),this._clock.setTicksAtTime(this._loopStart,i),t=this._loopStart,this.emit("loopStart",i,this._clock.getSecondsAtTime(i)),this.emit("loop",i)),this._swingAmount>0&&t%this._ppq!=0&&t%(2*this._swingTicks)!=0){const e=t%(2*this._swingTicks)/(2*this._swingTicks),n=Math.sin(e*Math.PI)*this._swingAmount;i+=new js(this.context,2*this._swingTicks/3).toSeconds()*n}this._timeline.forEachAtTime(t,(t=>t.invoke(i)))}schedule(i,t){const e=new Xs(this,{callback:i,time:new As(this.context,t).toTicks()});return this._addEvent(e,this._timeline)}scheduleRepeat(i,t,e,n=1/0){const o=new Zs(this,{callback:i,duration:new Ts(this.context,n).toTicks(),interval:new Ts(this.context,t).toTicks(),time:new As(this.context,e).toTicks()});return this._addEvent(o,this._repeatedEvents)}scheduleOnce(i,t){const e=new Xs(this,{callback:i,once:!0,time:new As(this.context,t).toTicks()});return this._addEvent(e,this._timeline)}clear(i){if(this._scheduledEvents.hasOwnProperty(i)){const t=this._scheduledEvents[i.toString()];t.timeline.remove(t.event),t.event.dispose(),delete this._scheduledEvents[i.toString()]}return this}_addEvent(i,t){return this._scheduledEvents[i.id.toString()]={event:i,timeline:t},t.add(i),i.id}cancel(i=0){const t=this.toTicks(i);return this._timeline.forEachFrom(t,(i=>this.clear(i.id))),this._repeatedEvents.forEachFrom(t,(i=>this.clear(i.id))),this}_bindClockEvents(){this._clock.on("start",((i,t)=>{t=new js(this.context,t).toSeconds(),this.emit("start",i,t)})),this._clock.on("stop",(i=>{this.emit("stop",i)})),this._clock.on("pause",(i=>{this.emit("pause",i)}))}get state(){return this._clock.getStateAtTime(this.now())}start(i,t){let e;return va(t)&&(e=this.toTicks(t)),this._clock.start(i,e),this}stop(i){return this._clock.stop(i),this}pause(i){return this._clock.pause(i),this}toggle(i){return i=this.toSeconds(i),"started"!==this._clock.getStateAtTime(i)?this.start(i):this.stop(i),this}get timeSignature(){return this._timeSignature}set timeSignature(i){pa(i)&&(i=i[0]/i[1]*4),this._timeSignature=i}get loopStart(){return new Ts(this.context,this._loopStart,"i").toSeconds()}set loopStart(i){this._loopStart=this.toTicks(i)}get loopEnd(){return new Ts(this.context,this._loopEnd,"i").toSeconds()}set loopEnd(i){this._loopEnd=this.toTicks(i)}get loop(){return this._loop.get(this.now())}set loop(i){this._loop.set(i,this.now())}setLoopPoints(i,t){return this.loopStart=i,this.loopEnd=t,this}get swing(){return this._swingAmount}set swing(i){this._swingAmount=i}get swingSubdivision(){return new js(this.context,this._swingTicks).toNotation()}set swingSubdivision(i){this._swingTicks=this.toTicks(i)}get position(){const i=this.now(),t=this._clock.getTicksAtTime(i);return new js(this.context,t).toBarsBeatsSixteenths()}set position(i){const t=this.toTicks(i);this.ticks=t}get seconds(){return this._clock.seconds}set seconds(i){const t=this.now(),e=this._clock.frequency.timeToTicks(i,t);this.ticks=e}get progress(){if(this.loop){const i=this.now();return(this._clock.getTicksAtTime(i)-this._loopStart)/(this._loopEnd-this._loopStart)}return 0}get ticks(){return this._clock.ticks}set ticks(i){if(this._clock.ticks!==i){const t=this.now();if("started"===this.state){const e=this._clock.getTicksAtTime(t),n=t+this._clock.frequency.getDurationOfTicks(Math.ceil(e)-e,t);this.emit("stop",n),this._clock.setTicksAtTime(i,n),this.emit("start",n,this._clock.getSecondsAtTime(n))}else this._clock.setTicksAtTime(i,t)}}getTicksAtTime(i){return Math.round(this._clock.getTicksAtTime(i))}getSecondsAtTime(i){return this._clock.getSecondsAtTime(i)}get PPQ(){return this._clock.frequency.multiplier}set PPQ(i){this._clock.frequency.multiplier=i}nextSubdivision(i){if(i=this.toTicks(i),"started"!==this.state)return 0;{const t=this.now(),e=i-this.getTicksAtTime(t)%i;return this._clock.nextTickTime(e,t)}}syncSignal(i,t){if(!t){const e=this.now();if(0!==i.getValueAtTime(e)){const n=1/(60/this.bpm.getValueAtTime(e)/this.PPQ);t=i.getValueAtTime(e)/n}else t=0}const e=new Fs(t);return this.bpm.connect(e),e.connect(i._param),this._syncedSignals.push({initial:i.value,ratio:e,signal:i}),i.value=0,this}unsyncSignal(i){for(let t=this._syncedSignals.length-1;t>=0;t--){const e=this._syncedSignals[t];e.signal===i&&(e.ratio.dispose(),e.signal.value=e.initial,this._syncedSignals.splice(t,1))}return this}dispose(){return super.dispose(),this._clock.dispose(),Ka(this,"bpm"),this._timeline.dispose(),this._repeatedEvents.dispose(),this}constructor(){super(Ia($s.getDefaults(),arguments)),this.name="Transport",this._loop=new Ys(!1),this._loopStart=0,this._loopEnd=0,this._scheduledEvents={},this._timeline=new Ua,this._repeatedEvents=new Ls,this._syncedSignals=[],this._swingAmount=0;const i=Ia($s.getDefaults(),arguments);this._ppq=i.ppq,this._clock=new Ps({callback:this._processTick.bind(this),context:this.context,frequency:0,units:"bpm"}),this._bindClockEvents(),this.bpm=this._clock.frequency,this._clock.frequency.multiplier=i.ppq,this.bpm.setValueAtTime(i.bpm,0),Ja(this,"bpm"),this._timeSignature=i.timeSignature,this._swingTicks=i.ppq/2}}$a.mixin($s),Ya((i=>{i.transport=new $s({context:i})})),Za((i=>{i.transport.dispose()}));class Hs extends Ds{static getDefaults(){return Object.assign(Ds.getDefaults(),{mute:!1,onstop:is,volume:0})}get state(){return this._synced?"started"===this.context.transport.state?this._state.getValueAtTime(this.context.transport.seconds):"stopped":this._state.getValueAtTime(this.now())}get mute(){return this._volume.mute}set mute(i){this._volume.mute=i}_clampToCurrentTime(i){return this._synced?i:Math.max(i,this.context.currentTime)}start(i,t,e){let n=ka(i)&&this._synced?this.context.transport.seconds:this.toSeconds(i);if(n=this._clampToCurrentTime(n),this._synced||"started"!==this._state.getValueAtTime(n))if(this.log("start",n),this._state.setStateAtTime("started",n),this._synced){const i=this._state.get(n);i&&(i.offset=this.toSeconds(Va(t,0)),i.duration=e?this.toSeconds(e):void 0);const o=this.context.transport.schedule((i=>{this._start(i,t,e)}),n);this._scheduled.push(o),"started"===this.context.transport.state&&this.context.transport.getSecondsAtTime(this.immediate())>n&&this._syncedStart(this.now(),this.context.transport.seconds)}else da(this.context),this._start(n,t,e);else ca(Pa(n,this._state.get(n).time),"Start time must be strictly greater than previous start time"),this._state.cancel(n),this._state.setStateAtTime("started",n),this.log("restart",n),this.restart(n,t,e);return this}stop(i){let t=ka(i)&&this._synced?this.context.transport.seconds:this.toSeconds(i);if(t=this._clampToCurrentTime(t),"started"===this._state.getValueAtTime(t)||va(this._state.getNextState("started",t))){if(this.log("stop",t),this._synced){const i=this.context.transport.schedule(this._stop.bind(this),t);this._scheduled.push(i)}else this._stop(t);this._state.cancel(t),this._state.setStateAtTime("stopped",t)}return this}restart(i,t,e){return i=this.toSeconds(i),"started"===this._state.getValueAtTime(i)&&(this._state.cancel(i),this._restart(i,t,e)),this}sync(){return this._synced||(this._synced=!0,this._syncedStart=(i,t)=>{if(t>0){const e=this._state.get(t);if(e&&"started"===e.state&&e.time!==t){const n=t-this.toSeconds(e.time);let o;e.duration&&(o=this.toSeconds(e.duration)-n),this._start(i,this.toSeconds(e.offset)+n,o)}}},this._syncedStop=i=>{const t=this.context.transport.getSecondsAtTime(Math.max(i-this.sampleTime,0));"started"===this._state.getValueAtTime(t)&&this._stop(i)},this.context.transport.on("start",this._syncedStart),this.context.transport.on("loopStart",this._syncedStart),this.context.transport.on("stop",this._syncedStop),this.context.transport.on("pause",this._syncedStop),this.context.transport.on("loopEnd",this._syncedStop)),this}unsync(){return this._synced&&(this.context.transport.off("stop",this._syncedStop),this.context.transport.off("pause",this._syncedStop),this.context.transport.off("loopEnd",this._syncedStop),this.context.transport.off("start",this._syncedStart),this.context.transport.off("loopStart",this._syncedStart)),this._synced=!1,this._scheduled.forEach((i=>this.context.transport.clear(i))),this._scheduled=[],this._state.cancel(0),this._stop(0),this}dispose(){return super.dispose(),this.onstop=is,this.unsync(),this._volume.dispose(),this._state.dispose(),this}constructor(i){super(i),this.input=void 0,this._state=new Bs("stopped"),this._synced=!1,this._scheduled=[],this._syncedStart=is,this._syncedStop=is,this._state.memory=100,this._state.increasing=!0,this._volume=this.output=new Us({context:this.context,mute:i.mute,volume:i.volume}),this.volume=this._volume.volume,Ja(this,"volume"),this.onstop=i.onstop}}function Qs(i,t){return wa(this,void 0,void 0,(function*(){const e=t/i.context.sampleRate,n=new es(1,e,i.context.sampleRate);new i.constructor(Object.assign(i.get(),{frequency:2/e,detune:0,context:n})).toDestination().start(0);return(yield n.render()).getChannelData(0)}))}class Js extends Es{static getDefaults(){return Object.assign(Es.getDefaults(),{detune:0,frequency:440,type:"sine"})}start(i){const t=this.toSeconds(i);return this.log("start",t),this._startGain(t),this._oscillator.start(t),this}_stopSource(i){this._oscillator.stop(i)}setPeriodicWave(i){return this._oscillator.setPeriodicWave(i),this}get type(){return this._oscillator.type}set type(i){this._oscillator.type=i}dispose(){return super.dispose(),"started"===this.state&&this.stop(),this._oscillator.disconnect(),this.frequency.dispose(),this.detune.dispose(),this}constructor(){super(Ia(Js.getDefaults(),arguments,["frequency","type"])),this.name="ToneOscillatorNode",this._oscillator=this.context.createOscillator(),this._internalChannels=[this._oscillator];const i=Ia(Js.getDefaults(),arguments,["frequency","type"]);ws(this._oscillator,this._gainNode),this.type=i.type,this.frequency=new Cs({context:this.context,param:this._oscillator.frequency,units:"frequency",value:i.frequency}),this.detune=new Cs({context:this.context,param:this._oscillator.detune,units:"cents",value:i.detune}),Ja(this,["frequency","detune"])}}class Ks extends Hs{static getDefaults(){return Object.assign(Hs.getDefaults(),{detune:0,frequency:440,partialCount:0,partials:[],phase:0,type:"sine"})}_start(i){const t=this.toSeconds(i),e=new Js({context:this.context,onended:()=>this.onstop(this)});this._oscillator=e,this._wave?this._oscillator.setPeriodicWave(this._wave):this._oscillator.type=this._type,this._oscillator.connect(this.output),this.frequency.connect(this._oscillator.frequency),this.detune.connect(this._oscillator.detune),this._oscillator.start(t)}_stop(i){const t=this.toSeconds(i);this._oscillator&&this._oscillator.stop(t)}_restart(i){const t=this.toSeconds(i);return this.log("restart",t),this._oscillator&&this._oscillator.cancelStop(),this._state.cancel(t),this}syncFrequency(){return this.context.transport.syncSignal(this.frequency),this}unsyncFrequency(){return this.context.transport.unsyncSignal(this.frequency),this}_getCachedPeriodicWave(){if("custom"===this._type){return Ks._periodicWaveCache.find((i=>{return i.phase===this._phase&&(t=i.partials,e=this._partials,t.length===e.length&&t.every(((i,t)=>e[t]===i)));var t,e}))}{const i=Ks._periodicWaveCache.find((i=>i.type===this._type&&i.phase===this._phase));return this._partialCount=i?i.partialCount:this._partialCount,i}}get type(){return this._type}set type(i){this._type=i;const t=-1!==["sine","square","sawtooth","triangle"].indexOf(i);if(0===this._phase&&t)this._wave=void 0,this._partialCount=0,null!==this._oscillator&&(this._oscillator.type=i);else{const t=this._getCachedPeriodicWave();if(va(t)){const{partials:i,wave:e}=t;this._wave=e,this._partials=i,null!==this._oscillator&&this._oscillator.setPeriodicWave(this._wave)}else{const[t,e]=this._getRealImaginary(i,this._phase),n=this.context.createPeriodicWave(t,e);this._wave=n,null!==this._oscillator&&this._oscillator.setPeriodicWave(this._wave),Ks._periodicWaveCache.push({imag:e,partialCount:this._partialCount,partials:this._partials,phase:this._phase,real:t,type:this._type,wave:this._wave}),Ks._periodicWaveCache.length>100&&Ks._periodicWaveCache.shift()}}}get baseType(){return this._type.replace(this.partialCount.toString(),"")}set baseType(i){this.partialCount&&"custom"!==this._type&&"custom"!==i?this.type=i+this.partialCount:this.type=i}get partialCount(){return this._partialCount}set partialCount(i){ra(i,0);let t=this._type;const e=/^(sine|triangle|square|sawtooth)(\d+)$/.exec(this._type);if(e&&(t=e[1]),"custom"!==this._type)this.type=0===i?t:t+i.toString();else{const t=new Float32Array(i);this._partials.forEach(((i,e)=>t[e]=i)),this._partials=Array.from(t),this.type=this._type}}_getRealImaginary(i,t){let e=2048;const n=new Float32Array(e),o=new Float32Array(e);let a=1;if("custom"===i){if(a=this._partials.length+1,this._partialCount=this._partials.length,e=a,0===this._partials.length)return[n,o]}else{const t=/^(sine|triangle|square|sawtooth)(\d+)$/.exec(i);t?(a=parseInt(t[2],10)+1,this._partialCount=parseInt(t[2],10),i=t[1],a=Math.max(a,2),e=a):this._partialCount=0,this._partials=[]}for(let s=1;s<e;++s){const e=2/(s*Math.PI);let c;switch(i){case"sine":c=s<=a?1:0,this._partials[s-1]=c;break;case"square":c=1&s?2*e:0,this._partials[s-1]=c;break;case"sawtooth":c=e*(1&s?1:-1),this._partials[s-1]=c;break;case"triangle":c=1&s?e*e*2*(s-1>>1&1?-1:1):0,this._partials[s-1]=c;break;case"custom":c=this._partials[s-1];break;default:throw new TypeError("Oscillator: invalid type: "+i)}0!==c?(n[s]=-c*Math.sin(t*s),o[s]=c*Math.cos(t*s)):(n[s]=0,o[s]=0)}return[n,o]}_inverseFFT(i,t,e){let n=0;const o=i.length;for(let a=0;a<o;a++)n+=i[a]*Math.cos(a*e)+t[a]*Math.sin(a*e);return n}getInitialValue(){const[i,t]=this._getRealImaginary(this._type,0);let e=0;const n=2*Math.PI;for(let o=0;o<32;o++)e=Math.max(this._inverseFFT(i,t,o/32*n),e);return Wa(-this._inverseFFT(i,t,this._phase)/e,-1,1)}get partials(){return this._partials.slice(0,this.partialCount)}set partials(i){this._partials=i,this._partialCount=this._partials.length,i.length&&(this.type="custom")}get phase(){return this._phase*(180/Math.PI)}set phase(i){this._phase=i*Math.PI/180,this.type=this._type}asArray(i=1024){return wa(this,void 0,void 0,(function*(){return Qs(this,i)}))}dispose(){return super.dispose(),null!==this._oscillator&&this._oscillator.dispose(),this._wave=void 0,this.frequency.dispose(),this.detune.dispose(),this}constructor(){super(Ia(Ks.getDefaults(),arguments,["frequency","type"])),this.name="Oscillator",this._oscillator=null;const i=Ia(Ks.getDefaults(),arguments,["frequency","type"]);this.frequency=new Gs({context:this.context,units:"frequency",value:i.frequency}),Ja(this,"frequency"),this.detune=new Gs({context:this.context,units:"cents",value:i.detune}),Ja(this,"detune"),this._partials=i.partials,this._partialCount=i.partialCount,this._type=i.type,i.partialCount&&"custom"!==i.type&&(this._type=this.baseType+i.partialCount.toString()),this.phase=i.phase}}Ks._periodicWaveCache=[];class ic extends Ds{connect(i,t=0,e=0){return Is(this,i,t,e),this}constructor(){super(Object.assign(Ia(ic.getDefaults(),arguments,["context"])))}}class tc extends ic{static getDefaults(){return Object.assign(Gs.getDefaults(),{length:1024})}setMap(i,t=1024){const e=new Float32Array(t);for(let n=0,o=t;n<o;n++){const t=n/(o-1)*2-1;e[n]=i(t,n)}return this.curve=e,this}get curve(){return this._shaper.curve}set curve(i){this._shaper.curve=i}get oversample(){return this._shaper.oversample}set oversample(i){ca(["none","2x","4x"].some((t=>t.includes(i))),"oversampling must be either 'none', '2x', or '4x'"),this._shaper.oversample=i}dispose(){return super.dispose(),this._shaper.disconnect(),this}constructor(){super(Object.assign(Ia(tc.getDefaults(),arguments,["mapping","length"]))),this.name="WaveShaper",this._shaper=this.context.createWaveShaper(),this.input=this._shaper,this.output=this._shaper;const i=Ia(tc.getDefaults(),arguments,["mapping","length"]);pa(i.mapping)||i.mapping instanceof Float32Array?this.curve=Float32Array.from(i.mapping):"function"==typeof i.mapping&&this.setMap(i.mapping,i.length)}}class ec extends ic{dispose(){return super.dispose(),this._norm.dispose(),this}constructor(){super(...arguments),this.name="AudioToGain",this._norm=new tc({context:this.context,mapping:i=>(i+1)/2}),this.input=this._norm,this.output=this._norm}}class nc extends Gs{static getDefaults(){return Object.assign(Gs.getDefaults(),{value:0})}dispose(){return super.dispose(),this._mult.dispose(),this}constructor(){super(Object.assign(Ia(nc.getDefaults(),arguments,["value"]))),this.name="Multiply",this.override=!1;const i=Ia(nc.getDefaults(),arguments,["value"]);this._mult=this.input=this.output=new Fs({context:this.context,minValue:i.minValue,maxValue:i.maxValue}),this.factor=this._param=this._mult.gain,this.factor.setValueAtTime(i.value,0)}}class oc extends Hs{static getDefaults(){return Object.assign(Ks.getDefaults(),{harmonicity:1,modulationType:"square"})}_start(i){this._modulator.start(i),this._carrier.start(i)}_stop(i){this._modulator.stop(i),this._carrier.stop(i)}_restart(i){this._modulator.restart(i),this._carrier.restart(i)}get type(){return this._carrier.type}set type(i){this._carrier.type=i}get baseType(){return this._carrier.baseType}set baseType(i){this._carrier.baseType=i}get partialCount(){return this._carrier.partialCount}set partialCount(i){this._carrier.partialCount=i}get modulationType(){return this._modulator.type}set modulationType(i){this._modulator.type=i}get phase(){return this._carrier.phase}set phase(i){this._carrier.phase=i,this._modulator.phase=i}get partials(){return this._carrier.partials}set partials(i){this._carrier.partials=i}asArray(i=1024){return wa(this,void 0,void 0,(function*(){return Qs(this,i)}))}dispose(){return super.dispose(),this.frequency.dispose(),this.detune.dispose(),this.harmonicity.dispose(),this._carrier.dispose(),this._modulator.dispose(),this._modulationNode.dispose(),this._modulationScale.dispose(),this}constructor(){super(Ia(oc.getDefaults(),arguments,["frequency","type","modulationType"])),this.name="AMOscillator",this._modulationScale=new ec({context:this.context}),this._modulationNode=new Fs({context:this.context});const i=Ia(oc.getDefaults(),arguments,["frequency","type","modulationType"]);this._carrier=new Ks({context:this.context,detune:i.detune,frequency:i.frequency,onstop:()=>this.onstop(this),phase:i.phase,type:i.type}),this.frequency=this._carrier.frequency,this.detune=this._carrier.detune,this._modulator=new Ks({context:this.context,phase:i.phase,type:i.modulationType}),this.harmonicity=new nc({context:this.context,units:"positive",value:i.harmonicity}),this.frequency.chain(this.harmonicity,this._modulator.frequency),this._modulator.chain(this._modulationScale,this._modulationNode.gain),this._carrier.chain(this._modulationNode,this.output),Ja(this,["frequency","detune","harmonicity"])}}class ac extends Hs{static getDefaults(){return Object.assign(Ks.getDefaults(),{harmonicity:1,modulationIndex:2,modulationType:"square"})}_start(i){this._modulator.start(i),this._carrier.start(i)}_stop(i){this._modulator.stop(i),this._carrier.stop(i)}_restart(i){return this._modulator.restart(i),this._carrier.restart(i),this}get type(){return this._carrier.type}set type(i){this._carrier.type=i}get baseType(){return this._carrier.baseType}set baseType(i){this._carrier.baseType=i}get partialCount(){return this._carrier.partialCount}set partialCount(i){this._carrier.partialCount=i}get modulationType(){return this._modulator.type}set modulationType(i){this._modulator.type=i}get phase(){return this._carrier.phase}set phase(i){this._carrier.phase=i,this._modulator.phase=i}get partials(){return this._carrier.partials}set partials(i){this._carrier.partials=i}asArray(i=1024){return wa(this,void 0,void 0,(function*(){return Qs(this,i)}))}dispose(){return super.dispose(),this.frequency.dispose(),this.harmonicity.dispose(),this._carrier.dispose(),this._modulator.dispose(),this._modulationNode.dispose(),this.modulationIndex.dispose(),this}constructor(){super(Ia(ac.getDefaults(),arguments,["frequency","type","modulationType"])),this.name="FMOscillator",this._modulationNode=new Fs({context:this.context,gain:0});const i=Ia(ac.getDefaults(),arguments,["frequency","type","modulationType"]);this._carrier=new Ks({context:this.context,detune:i.detune,frequency:0,onstop:()=>this.onstop(this),phase:i.phase,type:i.type}),this.detune=this._carrier.detune,this.frequency=new Gs({context:this.context,units:"frequency",value:i.frequency}),this._modulator=new Ks({context:this.context,phase:i.phase,type:i.modulationType}),this.harmonicity=new nc({context:this.context,units:"positive",value:i.harmonicity}),this.modulationIndex=new nc({context:this.context,units:"positive",value:i.modulationIndex}),this.frequency.connect(this._carrier.frequency),this.frequency.chain(this.harmonicity,this._modulator.frequency),this.frequency.chain(this.modulationIndex,this._modulationNode),this._modulator.connect(this._modulationNode.gain),this._modulationNode.connect(this._carrier.frequency),this._carrier.connect(this.output),this.detune.connect(this._modulator.detune),Ja(this,["modulationIndex","frequency","detune","harmonicity"])}}class sc extends Hs{static getDefaults(){return Object.assign(Hs.getDefaults(),{detune:0,frequency:440,phase:0,type:"pulse",width:.2})}_start(i){i=this.toSeconds(i),this._triangle.start(i),this._widthGate.gain.setValueAtTime(1,i)}_stop(i){i=this.toSeconds(i),this._triangle.stop(i),this._widthGate.gain.cancelScheduledValues(i),this._widthGate.gain.setValueAtTime(0,i)}_restart(i){this._triangle.restart(i),this._widthGate.gain.cancelScheduledValues(i),this._widthGate.gain.setValueAtTime(1,i)}get phase(){return this._triangle.phase}set phase(i){this._triangle.phase=i}get type(){return"pulse"}get baseType(){return"pulse"}get partials(){return[]}get partialCount(){return 0}set carrierType(i){this._triangle.type=i}asArray(i=1024){return wa(this,void 0,void 0,(function*(){return Qs(this,i)}))}dispose(){return super.dispose(),this._triangle.dispose(),this.width.dispose(),this._widthGate.dispose(),this._thresh.dispose(),this}constructor(){super(Ia(sc.getDefaults(),arguments,["frequency","width"])),this.name="PulseOscillator",this._widthGate=new Fs({context:this.context,gain:0}),this._thresh=new tc({context:this.context,mapping:i=>i<=0?-1:1});const i=Ia(sc.getDefaults(),arguments,["frequency","width"]);this.width=new Gs({context:this.context,units:"audioRange",value:i.width}),this._triangle=new Ks({context:this.context,detune:i.detune,frequency:i.frequency,onstop:()=>this.onstop(this),phase:i.phase,type:"triangle"}),this.frequency=this._triangle.frequency,this.detune=this._triangle.detune,this._triangle.chain(this._thresh,this.output),this.width.chain(this._widthGate,this._thresh),Ja(this,["width","frequency","detune"])}}class cc extends Hs{static getDefaults(){return Object.assign(Ks.getDefaults(),{count:3,spread:20,type:"sawtooth"})}_start(i){i=this.toSeconds(i),this._forEach((t=>t.start(i)))}_stop(i){i=this.toSeconds(i),this._forEach((t=>t.stop(i)))}_restart(i){this._forEach((t=>t.restart(i)))}_forEach(i){for(let t=0;t<this._oscillators.length;t++)i(this._oscillators[t],t)}get type(){return this._type}set type(i){this._type=i,this._forEach((t=>t.type=i))}get spread(){return this._spread}set spread(i){if(this._spread=i,this._oscillators.length>1){const t=-i/2,e=i/(this._oscillators.length-1);this._forEach(((i,n)=>i.detune.value=t+e*n))}}get count(){return this._oscillators.length}set count(i){if(ra(i,1),this._oscillators.length!==i){this._forEach((i=>i.dispose())),this._oscillators=[];for(let t=0;t<i;t++){const e=new Ks({context:this.context,volume:-6-1.1*i,type:this._type,phase:this._phase+t/i*360,partialCount:this._partialCount,onstop:0===t?()=>this.onstop(this):is});"custom"===this.type&&(e.partials=this._partials),this.frequency.connect(e.frequency),this.detune.connect(e.detune),e.detune.overridden=!1,e.connect(this.output),this._oscillators[t]=e}this.spread=this._spread,"started"===this.state&&this._forEach((i=>i.start()))}}get phase(){return this._phase}set phase(i){this._phase=i,this._forEach(((i,t)=>i.phase=this._phase+t/this.count*360))}get baseType(){return this._oscillators[0].baseType}set baseType(i){this._forEach((t=>t.baseType=i)),this._type=this._oscillators[0].type}get partials(){return this._oscillators[0].partials}set partials(i){this._partials=i,this._partialCount=this._partials.length,i.length&&(this._type="custom",this._forEach((t=>t.partials=i)))}get partialCount(){return this._oscillators[0].partialCount}set partialCount(i){this._partialCount=i,this._forEach((t=>t.partialCount=i)),this._type=this._oscillators[0].type}asArray(i=1024){return wa(this,void 0,void 0,(function*(){return Qs(this,i)}))}dispose(){return super.dispose(),this.frequency.dispose(),this.detune.dispose(),this._forEach((i=>i.dispose())),this}constructor(){super(Ia(cc.getDefaults(),arguments,["frequency","type","spread"])),this.name="FatOscillator",this._oscillators=[];const i=Ia(cc.getDefaults(),arguments,["frequency","type","spread"]);this.frequency=new Gs({context:this.context,units:"frequency",value:i.frequency}),this.detune=new Gs({context:this.context,units:"cents",value:i.detune}),this._spread=i.spread,this._type=i.type,this._phase=i.phase,this._partials=i.partials,this._partialCount=i.partialCount,this.count=i.count,Ja(this,["frequency","detune"])}}class rc extends Hs{static getDefaults(){return Object.assign(Hs.getDefaults(),{detune:0,frequency:440,modulationFrequency:.4,phase:0,type:"pwm"})}_start(i){i=this.toSeconds(i),this._modulator.start(i),this._pulse.start(i)}_stop(i){i=this.toSeconds(i),this._modulator.stop(i),this._pulse.stop(i)}_restart(i){this._modulator.restart(i),this._pulse.restart(i)}get type(){return"pwm"}get baseType(){return"pwm"}get partials(){return[]}get partialCount(){return 0}get phase(){return this._modulator.phase}set phase(i){this._modulator.phase=i}asArray(i=1024){return wa(this,void 0,void 0,(function*(){return Qs(this,i)}))}dispose(){return super.dispose(),this._pulse.dispose(),this._scale.dispose(),this._modulator.dispose(),this}constructor(){super(Ia(rc.getDefaults(),arguments,["frequency","modulationFrequency"])),this.name="PWMOscillator",this.sourceType="pwm",this._scale=new nc({context:this.context,value:2});const i=Ia(rc.getDefaults(),arguments,["frequency","modulationFrequency"]);this._pulse=new sc({context:this.context,frequency:i.modulationFrequency}),this._pulse.carrierType="sine",this.modulationFrequency=this._pulse.frequency,this._modulator=new Ks({context:this.context,detune:i.detune,frequency:i.frequency,onstop:()=>this.onstop(this),phase:i.phase}),this.frequency=this._modulator.frequency,this.detune=this._modulator.detune,this._modulator.chain(this._scale,this._pulse.width),this._pulse.connect(this.output),Ja(this,["modulationFrequency","frequency","detune"])}}const dc={am:oc,fat:cc,fm:ac,oscillator:Ks,pulse:sc,pwm:rc};class mc extends Hs{static getDefaults(){return Object.assign(Ks.getDefaults(),ac.getDefaults(),oc.getDefaults(),cc.getDefaults(),sc.getDefaults(),rc.getDefaults())}_start(i){this._oscillator.start(i)}_stop(i){this._oscillator.stop(i)}_restart(i){return this._oscillator.restart(i),this}get type(){let i="";return["am","fm","fat"].some((i=>this._sourceType===i))&&(i=this._sourceType),i+this._oscillator.type}set type(i){"fm"===i.substr(0,2)?(this._createNewOscillator("fm"),this._oscillator=this._oscillator,this._oscillator.type=i.substr(2)):"am"===i.substr(0,2)?(this._createNewOscillator("am"),this._oscillator=this._oscillator,this._oscillator.type=i.substr(2)):"fat"===i.substr(0,3)?(this._createNewOscillator("fat"),this._oscillator=this._oscillator,this._oscillator.type=i.substr(3)):"pwm"===i?(this._createNewOscillator("pwm"),this._oscillator=this._oscillator):"pulse"===i?this._createNewOscillator("pulse"):(this._createNewOscillator("oscillator"),this._oscillator=this._oscillator,this._oscillator.type=i)}get partials(){return this._oscillator.partials}set partials(i){this._getOscType(this._oscillator,"pulse")||this._getOscType(this._oscillator,"pwm")||(this._oscillator.partials=i)}get partialCount(){return this._oscillator.partialCount}set partialCount(i){this._getOscType(this._oscillator,"pulse")||this._getOscType(this._oscillator,"pwm")||(this._oscillator.partialCount=i)}set(i){return Reflect.has(i,"type")&&i.type&&(this.type=i.type),super.set(i),this}_createNewOscillator(i){if(i!==this._sourceType){this._sourceType=i;const t=dc[i],e=this.now();if(this._oscillator){const i=this._oscillator;i.stop(e),this.context.setTimeout((()=>i.dispose()),this.blockTime)}this._oscillator=new t({context:this.context}),this.frequency.connect(this._oscillator.frequency),this.detune.connect(this._oscillator.detune),this._oscillator.connect(this.output),this._oscillator.onstop=()=>this.onstop(this),"started"===this.state&&this._oscillator.start(e)}}get phase(){return this._oscillator.phase}set phase(i){this._oscillator.phase=i}get sourceType(){return this._sourceType}set sourceType(i){let t="sine";"pwm"!==this._oscillator.type&&"pulse"!==this._oscillator.type&&(t=this._oscillator.type),"fm"===i?this.type="fm"+t:"am"===i?this.type="am"+t:"fat"===i?this.type="fat"+t:"oscillator"===i?this.type=t:"pulse"===i?this.type="pulse":"pwm"===i&&(this.type="pwm")}_getOscType(i,t){return i instanceof dc[t]}get baseType(){return this._oscillator.baseType}set baseType(i){this._getOscType(this._oscillator,"pulse")||this._getOscType(this._oscillator,"pwm")||"pulse"===i||"pwm"===i||(this._oscillator.baseType=i)}get width(){return this._getOscType(this._oscillator,"pulse")?this._oscillator.width:void 0}get count(){return this._getOscType(this._oscillator,"fat")?this._oscillator.count:void 0}set count(i){this._getOscType(this._oscillator,"fat")&&ya(i)&&(this._oscillator.count=i)}get spread(){return this._getOscType(this._oscillator,"fat")?this._oscillator.spread:void 0}set spread(i){this._getOscType(this._oscillator,"fat")&&ya(i)&&(this._oscillator.spread=i)}get modulationType(){return this._getOscType(this._oscillator,"fm")||this._getOscType(this._oscillator,"am")?this._oscillator.modulationType:void 0}set modulationType(i){(this._getOscType(this._oscillator,"fm")||this._getOscType(this._oscillator,"am"))&&fa(i)&&(this._oscillator.modulationType=i)}get modulationIndex(){return this._getOscType(this._oscillator,"fm")?this._oscillator.modulationIndex:void 0}get harmonicity(){return this._getOscType(this._oscillator,"fm")||this._getOscType(this._oscillator,"am")?this._oscillator.harmonicity:void 0}get modulationFrequency(){return this._getOscType(this._oscillator,"pwm")?this._oscillator.modulationFrequency:void 0}asArray(i=1024){return wa(this,void 0,void 0,(function*(){return Qs(this,i)}))}dispose(){return super.dispose(),this.detune.dispose(),this.frequency.dispose(),this._oscillator.dispose(),this}constructor(){super(Ia(mc.getDefaults(),arguments,["frequency","type"])),this.name="OmniOscillator";const i=Ia(mc.getDefaults(),arguments,["frequency","type"]);this.frequency=new Gs({context:this.context,units:"frequency",value:i.frequency}),this.detune=new Gs({context:this.context,units:"cents",value:i.detune}),Ja(this,["frequency","detune"]),this.set(i)}}class uc extends Gs{static getDefaults(){return Object.assign(Gs.getDefaults(),{value:0})}dispose(){return super.dispose(),this._sum.dispose(),this}constructor(){super(Object.assign(Ia(uc.getDefaults(),arguments,["value"]))),this.override=!1,this.name="Add",this._sum=new Fs({context:this.context}),this.input=this._sum,this.output=this._sum,this.addend=this._param,xs(this._constantSource,this._sum)}}class lc extends ic{static getDefaults(){return Object.assign(ic.getDefaults(),{max:1,min:0})}get min(){return this._min}set min(i){this._min=i,this._setRange()}get max(){return this._max}set max(i){this._max=i,this._setRange()}_setRange(){this._add.value=this._min,this._mult.value=this._max-this._min}dispose(){return super.dispose(),this._add.dispose(),this._mult.dispose(),this}constructor(){super(Object.assign(Ia(lc.getDefaults(),arguments,["min","max"]))),this.name="Scale";const i=Ia(lc.getDefaults(),arguments,["min","max"]);this._mult=this.input=new nc({context:this.context,value:i.max-i.min}),this._add=this.output=new uc({context:this.context,value:i.min}),this._min=i.min,this._max=i.max,this.input.connect(this.output)}}function kc(i,t=1/0){const e=new WeakMap;return function(n,o){Reflect.defineProperty(n,o,{configurable:!0,enumerable:!0,get:function(){return e.get(this)},set:function(n){ra(n,i,t),e.set(this,n)}})}}function vc(i,t=1/0){const e=new WeakMap;return function(n,o){Reflect.defineProperty(n,o,{configurable:!0,enumerable:!0,get:function(){return e.get(this)},set:function(n){ra(this.toSeconds(n),i,t),e.set(this,n)}})}}class yc extends Hs{static getDefaults(){return Object.assign(Hs.getDefaults(),{autostart:!1,fadeIn:0,fadeOut:0,loop:!1,loopEnd:0,loopStart:0,onload:is,onerror:is,playbackRate:1,reverse:!1})}load(i){return wa(this,void 0,void 0,(function*(){return yield this._buffer.load(i),this._onload(),this}))}_onload(i=is){i(),this.autostart&&this.start()}_onSourceEnd(i){this.onstop(this),this._activeSources.delete(i),0!==this._activeSources.size||this._synced||"started"!==this._state.getValueAtTime(this.now())||(this._state.cancel(this.now()),this._state.setStateAtTime("stopped",this.now()))}start(i,t,e){return super.start(i,t,e),this}_start(i,t,e){t=this._loop?Va(t,this._loopStart):Va(t,0);const n=this.toSeconds(t),o=e;e=Va(e,Math.max(this._buffer.duration-n,0));let a=this.toSeconds(e);a/=this._playbackRate,i=this.toSeconds(i);const s=new Ss({url:this._buffer,context:this.context,fadeIn:this.fadeIn,fadeOut:this.fadeOut,loop:this._loop,loopEnd:this._loopEnd,loopStart:this._loopStart,onended:this._onSourceEnd.bind(this),playbackRate:this._playbackRate}).connect(this.output);this._loop||this._synced||(this._state.cancel(i+a),this._state.setStateAtTime("stopped",i+a,{implicitEnd:!0})),this._activeSources.add(s),this._loop&&ka(o)?s.start(i,n):s.start(i,n,a-this.toSeconds(this.fadeOut))}_stop(i){const t=this.toSeconds(i);this._activeSources.forEach((i=>i.stop(t)))}restart(i,t,e){return super.restart(i,t,e),this}_restart(i,t,e){this._stop(i),this._start(i,t,e)}seek(i,t){const e=this.toSeconds(t);if("started"===this._state.getValueAtTime(e)){const t=this.toSeconds(i);this._stop(e),this._start(e,t)}return this}setLoopPoints(i,t){return this.loopStart=i,this.loopEnd=t,this}get loopStart(){return this._loopStart}set loopStart(i){this._loopStart=i,this.buffer.loaded&&ra(this.toSeconds(i),0,this.buffer.duration),this._activeSources.forEach((t=>{t.loopStart=i}))}get loopEnd(){return this._loopEnd}set loopEnd(i){this._loopEnd=i,this.buffer.loaded&&ra(this.toSeconds(i),0,this.buffer.duration),this._activeSources.forEach((t=>{t.loopEnd=i}))}get buffer(){return this._buffer}set buffer(i){this._buffer.set(i)}get loop(){return this._loop}set loop(i){if(this._loop!==i&&(this._loop=i,this._activeSources.forEach((t=>{t.loop=i})),i)){const i=this._state.getNextState("stopped",this.now());i&&this._state.cancel(i.time)}}get playbackRate(){return this._playbackRate}set playbackRate(i){this._playbackRate=i;const t=this.now(),e=this._state.getNextState("stopped",t);e&&e.implicitEnd&&(this._state.cancel(e.time),this._activeSources.forEach((i=>i.cancelStop()))),this._activeSources.forEach((e=>{e.playbackRate.setValueAtTime(i,t)}))}get reverse(){return this._buffer.reverse}set reverse(i){this._buffer.reverse=i}get loaded(){return this._buffer.loaded}dispose(){return super.dispose(),this._activeSources.forEach((i=>i.dispose())),this._activeSources.clear(),this._buffer.dispose(),this}constructor(){super(Ia(yc.getDefaults(),arguments,["url","onload"])),this.name="Player",this._activeSources=new Set;const i=Ia(yc.getDefaults(),arguments,["url","onload"]);this._buffer=new ts({onload:this._onload.bind(this,i.onload),onerror:i.onerror,reverse:i.reverse,url:i.url}),this.autostart=i.autostart,this._loop=i.loop,this._loopStart=i.loopStart,this._loopEnd=i.loopEnd,this._playbackRate=i.playbackRate,this.fadeIn=i.fadeIn,this.fadeOut=i.fadeOut}}xa([vc(0)],yc.prototype,"fadeIn",void 0),xa([vc(0)],yc.prototype,"fadeOut",void 0);class hc extends ic{static getDefaults(){return Object.assign(ic.getDefaults(),{value:1})}_expFunc(i){return t=>Math.pow(Math.abs(t),i)}get value(){return this._exponent}set value(i){this._exponent=i,this._exponentScaler.setMap(this._expFunc(this._exponent))}dispose(){return super.dispose(),this._exponentScaler.dispose(),this}constructor(){super(Object.assign(Ia(hc.getDefaults(),arguments,["value"]))),this.name="Pow";const i=Ia(hc.getDefaults(),arguments,["value"]);this._exponentScaler=this.input=this.output=new tc({context:this.context,mapping:this._expFunc(i.value),length:8192}),this._exponent=i.value}}class Tc extends Ds{static getDefaults(){return Object.assign(Ds.getDefaults(),{attack:.01,attackCurve:"linear",decay:.1,decayCurve:"exponential",release:1,releaseCurve:"exponential",sustain:.5})}get value(){return this.getValueAtTime(this.now())}_getCurve(i,t){if(fa(i))return i;{let e;for(e in pc)if(pc[e][t]===i)return e;return i}}_setCurve(i,t,e){if(fa(e)&&Reflect.has(pc,e)){const n=pc[e];ha(n)?"_decayCurve"!==i&&(this[i]=n[t]):this[i]=n}else{if(!pa(e)||"_decayCurve"===i)throw new Error("Envelope: invalid curve: "+e);this[i]=e}}get attackCurve(){return this._getCurve(this._attackCurve,"In")}set attackCurve(i){this._setCurve("_attackCurve","In",i)}get releaseCurve(){return this._getCurve(this._releaseCurve,"Out")}set releaseCurve(i){this._setCurve("_releaseCurve","Out",i)}get decayCurve(){return this._decayCurve}set decayCurve(i){ca(["linear","exponential"].some((t=>t===i)),`Invalid envelope curve: ${i}`),this._decayCurve=i}triggerAttack(i,t=1){this.log("triggerAttack",i,t),i=this.toSeconds(i);let e=this.toSeconds(this.attack);const n=this.toSeconds(this.decay),o=this.getValueAtTime(i);if(o>0){e=(1-o)/(1/e)}if(e<this.sampleTime)this._sig.cancelScheduledValues(i),this._sig.setValueAtTime(t,i);else if("linear"===this._attackCurve)this._sig.linearRampTo(t,e,i);else if("exponential"===this._attackCurve)this._sig.targetRampTo(t,e,i);else{this._sig.cancelAndHoldAtTime(i);let n=this._attackCurve;for(let i=1;i<n.length;i++)if(n[i-1]<=o&&o<=n[i]){n=this._attackCurve.slice(i),n[0]=o;break}this._sig.setValueCurveAtTime(n,i,e,t)}if(n&&this.sustain<1){const o=t*this.sustain,a=i+e;this.log("decay",a),"linear"===this._decayCurve?this._sig.linearRampToValueAtTime(o,n+a):this._sig.exponentialApproachValueAtTime(o,a,n)}return this}triggerRelease(i){this.log("triggerRelease",i),i=this.toSeconds(i);const t=this.getValueAtTime(i);if(t>0){const e=this.toSeconds(this.release);e<this.sampleTime?this._sig.setValueAtTime(0,i):"linear"===this._releaseCurve?this._sig.linearRampTo(0,e,i):"exponential"===this._releaseCurve?this._sig.targetRampTo(0,e,i):(ca(pa(this._releaseCurve),"releaseCurve must be either 'linear', 'exponential' or an array"),this._sig.cancelAndHoldAtTime(i),this._sig.setValueCurveAtTime(this._releaseCurve,i,e,t))}return this}getValueAtTime(i){return this._sig.getValueAtTime(i)}triggerAttackRelease(i,t,e=1){return t=this.toSeconds(t),this.triggerAttack(t,e),this.triggerRelease(t+this.toSeconds(i)),this}cancel(i){return this._sig.cancelScheduledValues(this.toSeconds(i)),this}connect(i,t=0,e=0){return Is(this,i,t,e),this}asArray(i=1024){return wa(this,void 0,void 0,(function*(){const t=i/this.context.sampleRate,e=new es(1,t,this.context.sampleRate),n=this.toSeconds(this.attack)+this.toSeconds(this.decay),o=n+this.toSeconds(this.release),a=.1*o,s=o+a,c=new this.constructor(Object.assign(this.get(),{attack:t*this.toSeconds(this.attack)/s,decay:t*this.toSeconds(this.decay)/s,release:t*this.toSeconds(this.release)/s,context:e}));c._sig.toDestination(),c.triggerAttackRelease(t*(n+a)/s,0);return(yield e.render()).getChannelData(0)}))}dispose(){return super.dispose(),this._sig.dispose(),this}constructor(){super(Ia(Tc.getDefaults(),arguments,["attack","decay","sustain","release"])),this.name="Envelope",this._sig=new Gs({context:this.context,value:0}),this.output=this._sig,this.input=void 0;const i=Ia(Tc.getDefaults(),arguments,["attack","decay","sustain","release"]);this.attack=i.attack,this.decay=i.decay,this.sustain=i.sustain,this.release=i.release,this.attackCurve=i.attackCurve,this.releaseCurve=i.releaseCurve,this.decayCurve=i.decayCurve}}xa([vc(0)],Tc.prototype,"attack",void 0),xa([vc(0)],Tc.prototype,"decay",void 0),xa([kc(0,1)],Tc.prototype,"sustain",void 0),xa([vc(0)],Tc.prototype,"release",void 0);const pc=(()=>{const i=128;let t,e;const n=[];for(t=0;t<i;t++)n[t]=Math.sin(t/127*(Math.PI/2));const o=[];for(t=0;t<127;t++){e=t/127;const i=Math.sin(e*(2*Math.PI)*6.4-Math.PI/2)+1;o[t]=i/10+.83*e}o[127]=1;const a=[];for(t=0;t<i;t++)a[t]=Math.ceil(t/127*5)/5;const s=[];for(t=0;t<i;t++)e=t/127,s[t]=.5*(1-Math.cos(Math.PI*e));const c=[];for(t=0;t<i;t++){e=t/127;const i=4*Math.pow(e,3)+.2,n=Math.cos(i*Math.PI*2*e);c[t]=Math.abs(n*(1-e))}function r(i){const t=new Array(i.length);for(let e=0;e<i.length;e++)t[e]=1-i[e];return t}return{bounce:{In:r(c),Out:c},cosine:{In:n,Out:(d=n,d.slice(0).reverse())},exponential:"exponential",linear:"linear",ripple:{In:o,Out:r(o)},sine:{In:s,Out:r(s)},step:{In:a,Out:r(a)}};var d})();class fc extends Ds{static getDefaults(){return Object.assign(Ds.getDefaults(),{volume:0})}sync(){return this._syncState()&&(this._syncMethod("triggerAttack",1),this._syncMethod("triggerRelease",0)),this}_syncState(){let i=!1;return this._synced||(this._synced=!0,i=!0),i}_syncMethod(i,t){const e=this["_original_"+i]=this[i];this[i]=(...i)=>{const n=i[t],o=this.context.transport.schedule((n=>{i[t]=n,e.apply(this,i)}),n);this._scheduledEvents.push(o)}}unsync(){return this._scheduledEvents.forEach((i=>this.context.transport.clear(i))),this._scheduledEvents=[],this._synced&&(this._synced=!1,this.triggerAttack=this._original_triggerAttack,this.triggerRelease=this._original_triggerRelease),this}triggerAttackRelease(i,t,e,n){const o=this.toSeconds(e),a=this.toSeconds(t);return this.triggerAttack(i,o,n),this.triggerRelease(o+a),this}dispose(){return super.dispose(),this._volume.dispose(),this.unsync(),this._scheduledEvents=[],this}constructor(){super(Ia(fc.getDefaults(),arguments)),this._scheduledEvents=[],this._synced=!1,this._original_triggerAttack=this.triggerAttack,this._original_triggerRelease=this.triggerRelease;const i=Ia(fc.getDefaults(),arguments);this._volume=this.output=new Us({context:this.context,volume:i.volume}),this.volume=this._volume.volume,Ja(this,"volume")}}class _c extends fc{static getDefaults(){return Object.assign(fc.getDefaults(),{detune:0,onsilence:is,portamento:0})}triggerAttack(i,t,e=1){this.log("triggerAttack",i,t,e);const n=this.toSeconds(t);return this._triggerEnvelopeAttack(n,e),this.setNote(i,n),this}triggerRelease(i){this.log("triggerRelease",i);const t=this.toSeconds(i);return this._triggerEnvelopeRelease(t),this}setNote(i,t){const e=this.toSeconds(t),n=i instanceof ps?i.toFrequency():i;if(this.portamento>0&&this.getLevelAtTime(e)>.05){const i=this.toSeconds(this.portamento);this.frequency.exponentialRampTo(n,i,e)}else this.frequency.setValueAtTime(n,e);return this}constructor(){super(Ia(_c.getDefaults(),arguments));const i=Ia(_c.getDefaults(),arguments);this.portamento=i.portamento,this.onsilence=i.onsilence}}xa([vc(0)],_c.prototype,"portamento",void 0);class Ac extends Tc{dispose(){return super.dispose(),this._gainNode.dispose(),this}constructor(){super(Ia(Ac.getDefaults(),arguments,["attack","decay","sustain","release"])),this.name="AmplitudeEnvelope",this._gainNode=new Fs({context:this.context,gain:0}),this.output=this._gainNode,this.input=this._gainNode,this._sig.connect(this._gainNode.gain),this.output=this._gainNode,this.input=this._gainNode}}class gc extends _c{static getDefaults(){return Object.assign(_c.getDefaults(),{envelope:Object.assign(Ra(Tc.getDefaults(),Object.keys(Ds.getDefaults())),{attack:.005,decay:.1,release:1,sustain:.3}),oscillator:Object.assign(Ra(mc.getDefaults(),[...Object.keys(Hs.getDefaults()),"frequency","detune"]),{type:"triangle"})})}_triggerEnvelopeAttack(i,t){if(this.envelope.triggerAttack(i,t),this.oscillator.start(i),0===this.envelope.sustain){const t=this.toSeconds(this.envelope.attack),e=this.toSeconds(this.envelope.decay);this.oscillator.stop(i+t+e)}}_triggerEnvelopeRelease(i){this.envelope.triggerRelease(i),this.oscillator.stop(i+this.toSeconds(this.envelope.release))}getLevelAtTime(i){return i=this.toSeconds(i),this.envelope.getValueAtTime(i)}dispose(){return super.dispose(),this.oscillator.dispose(),this.envelope.dispose(),this}constructor(){super(Ia(gc.getDefaults(),arguments)),this.name="Synth";const i=Ia(gc.getDefaults(),arguments);this.oscillator=new mc(Object.assign({context:this.context,detune:i.detune,onstop:()=>this.onsilence(this)},i.oscillator)),this.frequency=this.oscillator.frequency,this.detune=this.oscillator.detune,this.envelope=new Ac(Object.assign({context:this.context},i.envelope)),this.oscillator.chain(this.envelope,this.output),Ja(this,["oscillator","frequency","detune","envelope"])}}class Cc extends Ds{static getDefaults(){return Object.assign(Ds.getDefaults(),{Q:1,type:"lowpass",frequency:350,detune:0,gain:0})}get type(){return this._filter.type}set type(i){ca(-1!==["lowpass","highpass","bandpass","lowshelf","highshelf","notch","allpass","peaking"].indexOf(i),`Invalid filter type: ${i}`),this._filter.type=i}getFrequencyResponse(i=128){const t=new Float32Array(i);for(let e=0;e<i;e++){const n=19980*Math.pow(e/i,2)+20;t[e]=n}const e=new Float32Array(i),n=new Float32Array(i),o=this.context.createBiquadFilter();return o.type=this.type,o.Q.value=this.Q.value,o.frequency.value=this.frequency.value,o.gain.value=this.gain.value,o.getFrequencyResponse(t,e,n),e}dispose(){return super.dispose(),this._filter.disconnect(),this.Q.dispose(),this.frequency.dispose(),this.gain.dispose(),this.detune.dispose(),this}constructor(){super(Ia(Cc.getDefaults(),arguments,["frequency","type"])),this.name="BiquadFilter";const i=Ia(Cc.getDefaults(),arguments,["frequency","type"]);this._filter=this.context.createBiquadFilter(),this.input=this.output=this._filter,this.Q=new Cs({context:this.context,units:"number",value:i.Q,param:this._filter.Q}),this.frequency=new Cs({context:this.context,units:"frequency",value:i.frequency,param:this._filter.frequency}),this.detune=new Cs({context:this.context,units:"cents",value:i.detune,param:this._filter.detune}),this.gain=new Cs({context:this.context,units:"decibels",convert:!1,value:i.gain,param:this._filter.gain}),this.type=i.type}}class Dc extends Ds{static getDefaults(){return Object.assign(Ds.getDefaults(),{Q:1,detune:0,frequency:350,gain:0,rolloff:-12,type:"lowpass"})}get type(){return this._type}set type(i){ca(-1!==["lowpass","highpass","bandpass","lowshelf","highshelf","notch","allpass","peaking"].indexOf(i),`Invalid filter type: ${i}`),this._type=i,this._filters.forEach((t=>t.type=i))}get rolloff(){return this._rolloff}set rolloff(i){const t=ya(i)?i:parseInt(i,10),e=[-12,-24,-48,-96];let n=e.indexOf(t);ca(-1!==n,`rolloff can only be ${e.join(", ")}`),n+=1,this._rolloff=t,this.input.disconnect(),this._filters.forEach((i=>i.disconnect())),this._filters=new Array(n);for(let i=0;i<n;i++){const t=new Cc({context:this.context});t.type=this._type,this.frequency.connect(t.frequency),this.detune.connect(t.detune),this.Q.connect(t.Q),this.gain.connect(t.gain),this._filters[i]=t}this._internalChannels=this._filters,xs(this.input,...this._internalChannels,this.output)}getFrequencyResponse(i=128){const t=new Cc({frequency:this.frequency.value,gain:this.gain.value,Q:this.Q.value,type:this._type,detune:this.detune.value}),e=new Float32Array(i).map((()=>1));return this._filters.forEach((()=>{t.getFrequencyResponse(i).forEach(((i,t)=>e[t]*=i))})),t.dispose(),e}dispose(){return super.dispose(),this._filters.forEach((i=>{i.dispose()})),Ka(this,["detune","frequency","gain","Q"]),this.frequency.dispose(),this.Q.dispose(),this.detune.dispose(),this.gain.dispose(),this}constructor(){super(Ia(Dc.getDefaults(),arguments,["frequency","type","rolloff"])),this.name="Filter",this.input=new Fs({context:this.context}),this.output=new Fs({context:this.context}),this._filters=[];const i=Ia(Dc.getDefaults(),arguments,["frequency","type","rolloff"]);this._filters=[],this.Q=new Gs({context:this.context,units:"positive",value:i.Q}),this.frequency=new Gs({context:this.context,units:"frequency",value:i.frequency}),this.detune=new Gs({context:this.context,units:"cents",value:i.detune}),this.gain=new Gs({context:this.context,units:"decibels",convert:!1,value:i.gain}),this._type=i.type,this.rolloff=i.rolloff,Ja(this,["detune","frequency","gain","Q"])}}class xc extends Tc{static getDefaults(){return Object.assign(Tc.getDefaults(),{baseFrequency:200,exponent:1,octaves:4})}get baseFrequency(){return this._baseFrequency}set baseFrequency(i){const t=this.toFrequency(i);ra(t,0),this._baseFrequency=t,this._scale.min=this._baseFrequency,this.octaves=this._octaves}get octaves(){return this._octaves}set octaves(i){this._octaves=i,this._scale.max=this._baseFrequency*Math.pow(2,i)}get exponent(){return this._exponent.value}set exponent(i){this._exponent.value=i}dispose(){return super.dispose(),this._exponent.dispose(),this._scale.dispose(),this}constructor(){super(Ia(xc.getDefaults(),arguments,["attack","decay","sustain","release"])),this.name="FrequencyEnvelope";const i=Ia(xc.getDefaults(),arguments,["attack","decay","sustain","release"]);this._octaves=i.octaves,this._baseFrequency=this.toFrequency(i.baseFrequency),this._exponent=this.input=new hc({context:this.context,value:i.exponent}),this._scale=this.output=new lc({context:this.context,min:this._baseFrequency,max:this._baseFrequency*Math.pow(2,this._octaves)}),this._sig.chain(this._exponent,this._scale)}}class wc extends _c{static getDefaults(){return Object.assign(_c.getDefaults(),{envelope:Object.assign(Ra(Tc.getDefaults(),Object.keys(Ds.getDefaults())),{attack:.005,decay:.1,release:1,sustain:.9}),filter:Object.assign(Ra(Dc.getDefaults(),Object.keys(Ds.getDefaults())),{Q:1,rolloff:-12,type:"lowpass"}),filterEnvelope:Object.assign(Ra(xc.getDefaults(),Object.keys(Ds.getDefaults())),{attack:.6,baseFrequency:200,decay:.2,exponent:2,octaves:3,release:2,sustain:.5}),oscillator:Object.assign(Ra(mc.getDefaults(),Object.keys(Hs.getDefaults())),{type:"sawtooth"})})}_triggerEnvelopeAttack(i,t=1){if(this.envelope.triggerAttack(i,t),this.filterEnvelope.triggerAttack(i),this.oscillator.start(i),0===this.envelope.sustain){const t=this.toSeconds(this.envelope.attack),e=this.toSeconds(this.envelope.decay);this.oscillator.stop(i+t+e)}}_triggerEnvelopeRelease(i){this.envelope.triggerRelease(i),this.filterEnvelope.triggerRelease(i),this.oscillator.stop(i+this.toSeconds(this.envelope.release))}getLevelAtTime(i){return i=this.toSeconds(i),this.envelope.getValueAtTime(i)}dispose(){return super.dispose(),this.oscillator.dispose(),this.envelope.dispose(),this.filterEnvelope.dispose(),this.filter.dispose(),this}constructor(){super(Ia(wc.getDefaults(),arguments)),this.name="MonoSynth";const i=Ia(wc.getDefaults(),arguments);this.oscillator=new mc(Object.assign(i.oscillator,{context:this.context,detune:i.detune,onstop:()=>this.onsilence(this)})),this.frequency=this.oscillator.frequency,this.detune=this.oscillator.detune,this.filter=new Dc(Object.assign(i.filter,{context:this.context})),this.filterEnvelope=new xc(Object.assign(i.filterEnvelope,{context:this.context})),this.envelope=new Ac(Object.assign(i.envelope,{context:this.context})),this.oscillator.chain(this.filter,this.envelope,this.output),this.filterEnvelope.connect(this.filter.frequency),Ja(this,["oscillator","frequency","detune","filter","filterEnvelope","envelope"])}}class bc extends gc{static getDefaults(){return Ga(_c.getDefaults(),gc.getDefaults(),{envelope:{attack:.001,attackCurve:"exponential",decay:.4,release:1.4,sustain:.01},octaves:10,oscillator:{type:"sine"},pitchDecay:.05})}setNote(i,t){const e=this.toSeconds(t),n=this.toFrequency(i instanceof ps?i.toFrequency():i),o=n*this.octaves;return this.oscillator.frequency.setValueAtTime(o,e),this.oscillator.frequency.exponentialRampToValueAtTime(n,e+this.toSeconds(this.pitchDecay)),this}dispose(){return super.dispose(),this}constructor(){super(Ia(bc.getDefaults(),arguments)),this.name="MembraneSynth",this.portamento=0;const i=Ia(bc.getDefaults(),arguments);this.pitchDecay=i.pitchDecay,this.octaves=i.octaves,Ja(this,["oscillator","envelope"])}}xa([kc(0)],bc.prototype,"octaves",void 0),xa([vc(0)],bc.prototype,"pitchDecay",void 0);const Fc=new Set;function Ec(i){Fc.add(i)}function Sc(i,t){const e=`registerProcessor("${i}", ${t})`;Fc.add(e)}Ec('\n\t/**\n\t * The base AudioWorkletProcessor for use in Tone.js. Works with the [[ToneAudioWorklet]]. \n\t */\n\tclass ToneAudioWorkletProcessor extends AudioWorkletProcessor {\n\n\t\tconstructor(options) {\n\t\t\t\n\t\t\tsuper(options);\n\t\t\t/**\n\t\t\t * If the processor was disposed or not. Keep alive until it\'s disposed.\n\t\t\t */\n\t\t\tthis.disposed = false;\n\t\t   \t/** \n\t\t\t * The number of samples in the processing block\n\t\t\t */\n\t\t\tthis.blockSize = 128;\n\t\t\t/**\n\t\t\t * the sample rate\n\t\t\t */\n\t\t\tthis.sampleRate = sampleRate;\n\n\t\t\tthis.port.onmessage = (event) => {\n\t\t\t\t// when it receives a dispose \n\t\t\t\tif (event.data === "dispose") {\n\t\t\t\t\tthis.disposed = true;\n\t\t\t\t}\n\t\t\t};\n\t\t}\n\t}\n');Ec("\n\t/**\n\t * Abstract class for a single input/output processor. \n\t * has a 'generate' function which processes one sample at a time\n\t */\n\tclass SingleIOProcessor extends ToneAudioWorkletProcessor {\n\n\t\tconstructor(options) {\n\t\t\tsuper(Object.assign(options, {\n\t\t\t\tnumberOfInputs: 1,\n\t\t\t\tnumberOfOutputs: 1\n\t\t\t}));\n\t\t\t/**\n\t\t\t * Holds the name of the parameter and a single value of that\n\t\t\t * parameter at the current sample\n\t\t\t * @type { [name: string]: number }\n\t\t\t */\n\t\t\tthis.params = {}\n\t\t}\n\n\t\t/**\n\t\t * Generate an output sample from the input sample and parameters\n\t\t * @abstract\n\t\t * @param input number\n\t\t * @param channel number\n\t\t * @param parameters { [name: string]: number }\n\t\t * @returns number\n\t\t */\n\t\tgenerate(){}\n\n\t\t/**\n\t\t * Update the private params object with the \n\t\t * values of the parameters at the given index\n\t\t * @param parameters { [name: string]: Float32Array },\n\t\t * @param index number\n\t\t */\n\t\tupdateParams(parameters, index) {\n\t\t\tfor (const paramName in parameters) {\n\t\t\t\tconst param = parameters[paramName];\n\t\t\t\tif (param.length > 1) {\n\t\t\t\t\tthis.params[paramName] = parameters[paramName][index];\n\t\t\t\t} else {\n\t\t\t\t\tthis.params[paramName] = parameters[paramName][0];\n\t\t\t\t}\n\t\t\t}\n\t\t}\n\n\t\t/**\n\t\t * Process a single frame of the audio\n\t\t * @param inputs Float32Array[][]\n\t\t * @param outputs Float32Array[][]\n\t\t */\n\t\tprocess(inputs, outputs, parameters) {\n\t\t\tconst input = inputs[0];\n\t\t\tconst output = outputs[0];\n\t\t\t// get the parameter values\n\t\t\tconst channelCount = Math.max(input && input.length || 0, output.length);\n\t\t\tfor (let sample = 0; sample < this.blockSize; sample++) {\n\t\t\t\tthis.updateParams(parameters, sample);\n\t\t\t\tfor (let channel = 0; channel < channelCount; channel++) {\n\t\t\t\t\tconst inputSample = input && input.length ? input[channel][sample] : 0;\n\t\t\t\t\toutput[channel][sample] = this.generate(inputSample, channel, this.params);\n\t\t\t\t}\n\t\t\t}\n\t\t\treturn !this.disposed;\n\t\t}\n\t};\n");Ec("\n\t/**\n\t * A multichannel buffer for use within an AudioWorkletProcessor as a delay line\n\t */\n\tclass DelayLine {\n\t\t\n\t\tconstructor(size, channels) {\n\t\t\tthis.buffer = [];\n\t\t\tthis.writeHead = []\n\t\t\tthis.size = size;\n\n\t\t\t// create the empty channels\n\t\t\tfor (let i = 0; i < channels; i++) {\n\t\t\t\tthis.buffer[i] = new Float32Array(this.size);\n\t\t\t\tthis.writeHead[i] = 0;\n\t\t\t}\n\t\t}\n\n\t\t/**\n\t\t * Push a value onto the end\n\t\t * @param channel number\n\t\t * @param value number\n\t\t */\n\t\tpush(channel, value) {\n\t\t\tthis.writeHead[channel] += 1;\n\t\t\tif (this.writeHead[channel] > this.size) {\n\t\t\t\tthis.writeHead[channel] = 0;\n\t\t\t}\n\t\t\tthis.buffer[channel][this.writeHead[channel]] = value;\n\t\t}\n\n\t\t/**\n\t\t * Get the recorded value of the channel given the delay\n\t\t * @param channel number\n\t\t * @param delay number delay samples\n\t\t */\n\t\tget(channel, delay) {\n\t\t\tlet readHead = this.writeHead[channel] - Math.floor(delay);\n\t\t\tif (readHead < 0) {\n\t\t\t\treadHead += this.size;\n\t\t\t}\n\t\t\treturn this.buffer[channel][readHead];\n\t\t}\n\t}\n");Sc("feedback-comb-filter",'\n\tclass FeedbackCombFilterWorklet extends SingleIOProcessor {\n\n\t\tconstructor(options) {\n\t\t\tsuper(options);\n\t\t\tthis.delayLine = new DelayLine(this.sampleRate, options.channelCount || 2);\n\t\t}\n\n\t\tstatic get parameterDescriptors() {\n\t\t\treturn [{\n\t\t\t\tname: "delayTime",\n\t\t\t\tdefaultValue: 0.1,\n\t\t\t\tminValue: 0,\n\t\t\t\tmaxValue: 1,\n\t\t\t\tautomationRate: "k-rate"\n\t\t\t}, {\n\t\t\t\tname: "feedback",\n\t\t\t\tdefaultValue: 0.5,\n\t\t\t\tminValue: 0,\n\t\t\t\tmaxValue: 0.9999,\n\t\t\t\tautomationRate: "k-rate"\n\t\t\t}];\n\t\t}\n\n\t\tgenerate(input, channel, parameters) {\n\t\t\tconst delayedSample = this.delayLine.get(channel, parameters.delayTime * this.sampleRate);\n\t\t\tthis.delayLine.push(channel, input + delayedSample * parameters.feedback);\n\t\t\treturn delayedSample;\n\t\t}\n\t}\n');class Oc extends fc{static getDefaults(){return Object.assign(fc.getDefaults(),{maxPolyphony:32,options:{},voice:gc})}get activeVoices(){return this._activeVoices.length}_makeVoiceAvailable(i){this._availableVoices.push(i);const t=this._activeVoices.findIndex((t=>t.voice===i));this._activeVoices.splice(t,1)}_getNextAvailableVoice(){if(this._availableVoices.length)return this._availableVoices.shift();if(this._voices.length<this.maxPolyphony){const i=new this.voice(Object.assign(this.options,{context:this.context,onsilence:this._makeVoiceAvailable.bind(this)}));return i.connect(this.output),this._voices.push(i),i}la("Max polyphony exceeded. Note dropped.")}_collectGarbage(){if(this._averageActiveVoices=Math.max(.95*this._averageActiveVoices,this.activeVoices),this._availableVoices.length&&this._voices.length>Math.ceil(this._averageActiveVoices+1)){const i=this._availableVoices.shift(),t=this._voices.indexOf(i);this._voices.splice(t,1),this.context.isOffline||i.dispose()}}_triggerAttack(i,t,e){i.forEach((i=>{const n=new qs(this.context,i).toMidi(),o=this._getNextAvailableVoice();o&&(o.triggerAttack(i,t,e),this._activeVoices.push({midi:n,voice:o,released:!1}),this.log("triggerAttack",i,t))}))}_triggerRelease(i,t){i.forEach((i=>{const e=new qs(this.context,i).toMidi(),n=this._activeVoices.find((({midi:i,released:t})=>i===e&&!t));n&&(n.voice.triggerRelease(t),n.released=!0,this.log("triggerRelease",i,t))}))}_scheduleEvent(i,t,e,n){ca(!this.disposed,"Synth was already disposed"),e<=this.now()?"attack"===i?this._triggerAttack(t,e,n):this._triggerRelease(t,e):this.context.setTimeout((()=>{this._scheduleEvent(i,t,e,n)}),e-this.now())}triggerAttack(i,t,e){Array.isArray(i)||(i=[i]);const n=this.toSeconds(t);return this._scheduleEvent("attack",i,n,e),this}triggerRelease(i,t){Array.isArray(i)||(i=[i]);const e=this.toSeconds(t);return this._scheduleEvent("release",i,e),this}triggerAttackRelease(i,t,e,n){const o=this.toSeconds(e);if(this.triggerAttack(i,o,n),pa(t)){ca(pa(i),"If the duration is an array, the notes must also be an array");for(let e=0;e<i.length;e++){const n=t[Math.min(e,t.length-1)],a=this.toSeconds(n);ca(a>0,"The duration must be greater than 0"),this.triggerRelease(i[e],o+a)}}else{const e=this.toSeconds(t);ca(e>0,"The duration must be greater than 0"),this.triggerRelease(i,o+e)}return this}sync(){return this._syncState()&&(this._syncMethod("triggerAttack",1),this._syncMethod("triggerRelease",1)),this}set(i){const t=Ra(i,["onsilence","context"]);return this.options=Ga(this.options,t),this._voices.forEach((i=>i.set(t))),this._dummyVoice.set(t),this}get(){return this._dummyVoice.get()}releaseAll(i){const t=this.toSeconds(i);return this._activeVoices.forEach((({voice:i})=>{i.triggerRelease(t)})),this}dispose(){return super.dispose(),this._dummyVoice.dispose(),this._voices.forEach((i=>i.dispose())),this._activeVoices=[],this._availableVoices=[],this.context.clearInterval(this._gcTimeout),this}constructor(){super(Ia(Oc.getDefaults(),arguments,["voice","options"])),this.name="PolySynth",this._availableVoices=[],this._activeVoices=[],this._voices=[],this._gcTimeout=-1,this._averageActiveVoices=0;const i=Ia(Oc.getDefaults(),arguments,["voice","options"]);ca(!ya(i.voice),"DEPRECATED: The polyphony count is no longer the first argument.");const t=i.voice.getDefaults();this.options=Object.assign(t,i.options),this.voice=i.voice,this.maxPolyphony=i.maxPolyphony,this._dummyVoice=this._getNextAvailableVoice();const e=this._voices.indexOf(this._dummyVoice);this._voices.splice(e,1),this._gcTimeout=this.context.setInterval(this._collectGarbage.bind(this),1)}}class Bc extends fc{static getDefaults(){return Object.assign(fc.getDefaults(),{attack:0,baseUrl:"",curve:"exponential",onload:is,onerror:is,release:.1,urls:{}})}_findClosest(i){let t=0;for(;t<96;){if(this._buffers.has(i+t))return-t;if(this._buffers.has(i-t))return t;t++}throw new Error(`No available buffers for note: ${i}`)}triggerAttack(i,t,e=1){return this.log("triggerAttack",i,t,e),Array.isArray(i)||(i=[i]),i.forEach((i=>{const n=vs(new ps(this.context,i).toFrequency()),o=Math.round(n),a=n-o,s=this._findClosest(o),c=o-s,r=this._buffers.get(c),d=ms(s+a),m=new Ss({url:r,context:this.context,curve:this.curve,fadeIn:this.attack,fadeOut:this.release,playbackRate:d}).connect(this.output);m.start(t,0,r.duration/d,e),pa(this._activeSources.get(o))||this._activeSources.set(o,[]),this._activeSources.get(o).push(m),m.onended=()=>{if(this._activeSources&&this._activeSources.has(o)){const i=this._activeSources.get(o),t=i.indexOf(m);-1!==t&&i.splice(t,1)}}})),this}triggerRelease(i,t){return this.log("triggerRelease",i,t),Array.isArray(i)||(i=[i]),i.forEach((i=>{const e=new ps(this.context,i).toMidi();if(this._activeSources.has(e)&&this._activeSources.get(e).length){const i=this._activeSources.get(e);t=this.toSeconds(t),i.forEach((i=>{i.stop(t)})),this._activeSources.set(e,[])}})),this}releaseAll(i){const t=this.toSeconds(i);return this._activeSources.forEach((i=>{for(;i.length;){i.shift().stop(t)}})),this}sync(){return this._syncState()&&(this._syncMethod("triggerAttack",1),this._syncMethod("triggerRelease",1)),this}triggerAttackRelease(i,t,e,n=1){const o=this.toSeconds(e);return this.triggerAttack(i,o,n),pa(t)?(ca(pa(i),"notes must be an array when duration is array"),i.forEach(((i,e)=>{const n=t[Math.min(e,t.length-1)];this.triggerRelease(i,o+this.toSeconds(n))}))):this.triggerRelease(i,o+this.toSeconds(t)),this}add(i,t,e){if(ca(_a(i)||isFinite(i),`note must be a pitch or midi: ${i}`),_a(i)){const n=new ps(this.context,i).toMidi();this._buffers.add(n,t,e)}else this._buffers.add(i,t,e);return this}get loaded(){return this._buffers.loaded}dispose(){return super.dispose(),this._buffers.dispose(),this._activeSources.forEach((i=>{i.forEach((i=>i.dispose()))})),this._activeSources.clear(),this}constructor(){super(Ia(Bc.getDefaults(),arguments,["urls","onload","baseUrl"],"urls")),this.name="Sampler",this._activeSources=new Map;const i=Ia(Bc.getDefaults(),arguments,["urls","onload","baseUrl"],"urls"),t={};Object.keys(i.urls).forEach((e=>{const n=parseInt(e,10);if(ca(_a(e)||ya(n)&&isFinite(n),`url key is neither a note or midi pitch: ${e}`),_a(e)){const n=new ps(this.context,e).toMidi();t[n]=i.urls[e]}else ya(n)&&isFinite(n)&&(t[n]=i.urls[n])})),this._buffers=new cs({urls:t,onload:i.onload,baseUrl:i.baseUrl,onerror:i.onerror}),this.attack=i.attack,this.release=i.release,this.curve=i.curve,this._buffers.loaded&&Promise.resolve().then(i.onload)}}xa([vc(0)],Bc.prototype,"attack",void 0),xa([vc(0)],Bc.prototype,"release",void 0);class Mc extends gs{static getDefaults(){return Object.assign(gs.getDefaults(),{callback:is,humanize:!1,loop:!1,loopEnd:"1m",loopStart:0,mute:!1,playbackRate:1,probability:1,value:null})}_rescheduleEvents(i=-1){this._state.forEachFrom(i,(i=>{let t;if("started"===i.state){-1!==i.id&&this.context.transport.clear(i.id);const e=i.time+Math.round(this.startOffset/this._playbackRate);if(!0===this._loop||ya(this._loop)&&this._loop>1){t=1/0,ya(this._loop)&&(t=this._loop*this._getLoopDuration());const n=this._state.getAfter(e);null!==n&&(t=Math.min(t,n.time-e)),t!==1/0&&(this._state.setStateAtTime("stopped",e+t+1,{id:-1}),t=new js(this.context,t));const o=new js(this.context,this._getLoopDuration());i.id=this.context.transport.scheduleRepeat(this._tick.bind(this),o,new js(this.context,e),t)}else i.id=this.context.transport.schedule(this._tick.bind(this),new js(this.context,e))}}))}get state(){return this._state.getValueAtTime(this.context.transport.ticks)}get startOffset(){return this._startOffset}set startOffset(i){this._startOffset=i}get probability(){return this._probability}set probability(i){this._probability=i}get humanize(){return this._humanize}set humanize(i){this._humanize=i}start(i){const t=this.toTicks(i);return"stopped"===this._state.getValueAtTime(t)&&(this._state.add({id:-1,state:"started",time:t}),this._rescheduleEvents(t)),this}stop(i){this.cancel(i);const t=this.toTicks(i);if("started"===this._state.getValueAtTime(t)){this._state.setStateAtTime("stopped",t,{id:-1});const i=this._state.getBefore(t);let e=t;null!==i&&(e=i.time),this._rescheduleEvents(e)}return this}cancel(i){i=Va(i,-1/0);const t=this.toTicks(i);return this._state.forEachFrom(t,(i=>{this.context.transport.clear(i.id)})),this._state.cancel(t),this}_tick(i){const t=this.context.transport.getTicksAtTime(i);if(!this.mute&&"started"===this._state.getValueAtTime(t)){if(this.probability<1&&Math.random()>this.probability)return;if(this.humanize){let t=.02;Ta(this.humanize)||(t=this.toSeconds(this.humanize)),i+=(2*Math.random()-1)*t}this.callback(i,this.value)}}_getLoopDuration(){return Math.round((this._loopEnd-this._loopStart)/this._playbackRate)}get loop(){return this._loop}set loop(i){this._loop=i,this._rescheduleEvents()}get playbackRate(){return this._playbackRate}set playbackRate(i){this._playbackRate=i,this._rescheduleEvents()}get loopEnd(){return new js(this.context,this._loopEnd).toSeconds()}set loopEnd(i){this._loopEnd=this.toTicks(i),this._loop&&this._rescheduleEvents()}get loopStart(){return new js(this.context,this._loopStart).toSeconds()}set loopStart(i){this._loopStart=this.toTicks(i),this._loop&&this._rescheduleEvents()}get progress(){if(this._loop){const i=this.context.transport.ticks,t=this._state.get(i);if(null!==t&&"started"===t.state){const e=this._getLoopDuration();return(i-t.time)%e/e}return 0}return 0}dispose(){return super.dispose(),this.cancel(),this._state.dispose(),this}constructor(){super(Ia(Mc.getDefaults(),arguments,["callback","value"])),this.name="ToneEvent",this._state=new Bs("stopped"),this._startOffset=0;const i=Ia(Mc.getDefaults(),arguments,["callback","value"]);this._loop=i.loop,this.callback=i.callback,this.value=i.value,this._loopStart=this.toTicks(i.loopStart),this._loopEnd=this.toTicks(i.loopEnd),this._playbackRate=i.playbackRate,this._probability=i.probability,this._humanize=i.humanize,this.mute=i.mute,this._playbackRate=i.playbackRate,this._state.increasing=!0,this._rescheduleEvents()}}class Gc extends Mc{static getDefaults(){return Object.assign(Mc.getDefaults(),{events:[]})}start(i,t){const e=this.toTicks(i);if("started"!==this._state.getValueAtTime(e)){t=Va(t,this._loop?this._loopStart:0),t=this._loop?Va(t,this._loopStart):Va(t,0);const i=this.toTicks(t);this._state.add({id:-1,offset:i,state:"started",time:e}),this._forEach((t=>{this._startNote(t,e,i)}))}return this}_startNote(i,t,e){t-=e,this._loop?i.startOffset>=this._loopStart&&i.startOffset<this._loopEnd?(i.startOffset<e&&(t+=this._getLoopDuration()),i.start(new js(this.context,t))):i.startOffset<this._loopStart&&i.startOffset>=e&&(i.loop=!1,i.start(new js(this.context,t))):i.startOffset>=e&&i.start(new js(this.context,t))}get startOffset(){return this._startOffset}set startOffset(i){this._startOffset=i,this._forEach((i=>{i.startOffset+=this._startOffset}))}stop(i){const t=this.toTicks(i);return this._state.cancel(t),this._state.setStateAtTime("stopped",t),this._forEach((t=>{t.stop(i)})),this}at(i,t){const e=new As(this.context,i).toTicks(),n=new js(this.context,1).toSeconds(),o=this._events.values();let a=o.next();for(;!a.done;){const i=a.value;if(Math.abs(e-i.startOffset)<n)return va(t)&&(i.value=t),i;a=o.next()}return va(t)?(this.add(i,t),this.at(i)):null}add(i,t){i instanceof Object&&Reflect.has(i,"time")&&(i=(t=i).time);const e=this.toTicks(i);let n;return t instanceof Mc?(n=t,n.callback=this._tick.bind(this)):n=new Mc({callback:this._tick.bind(this),context:this.context,value:t}),n.startOffset=e,n.set({humanize:this.humanize,loop:this.loop,loopEnd:this.loopEnd,loopStart:this.loopStart,playbackRate:this.playbackRate,probability:this.probability}),this._events.add(n),this._restartEvent(n),this}_restartEvent(i){this._state.forEach((t=>{"started"===t.state?this._startNote(i,t.time,t.offset):i.stop(new js(this.context,t.time))}))}remove(i,t){return ha(i)&&i.hasOwnProperty("time")&&(i=(t=i).time),i=this.toTicks(i),this._events.forEach((e=>{e.startOffset===i&&(ka(t)||va(t)&&e.value===t)&&(this._events.delete(e),e.dispose())})),this}clear(){return this._forEach((i=>i.dispose())),this._events.clear(),this}cancel(i){return this._forEach((t=>t.cancel(i))),this._state.cancel(this.toTicks(i)),this}_forEach(i){return this._events&&this._events.forEach((t=>{t instanceof Gc?t._forEach(i):i(t)})),this}_setAll(i,t){this._forEach((e=>{e[i]=t}))}_tick(i,t){this.mute||this.callback(i,t)}_testLoopBoundries(i){this._loop&&(i.startOffset<this._loopStart||i.startOffset>=this._loopEnd)?i.cancel(0):"stopped"===i.state&&this._restartEvent(i)}get probability(){return this._probability}set probability(i){this._probability=i,this._setAll("probability",i)}get humanize(){return this._humanize}set humanize(i){this._humanize=i,this._setAll("humanize",i)}get loop(){return this._loop}set loop(i){this._loop=i,this._forEach((t=>{t.loopStart=this.loopStart,t.loopEnd=this.loopEnd,t.loop=i,this._testLoopBoundries(t)}))}get loopEnd(){return new js(this.context,this._loopEnd).toSeconds()}set loopEnd(i){this._loopEnd=this.toTicks(i),this._loop&&this._forEach((t=>{t.loopEnd=i,this._testLoopBoundries(t)}))}get loopStart(){return new js(this.context,this._loopStart).toSeconds()}set loopStart(i){this._loopStart=this.toTicks(i),this._loop&&this._forEach((i=>{i.loopStart=this.loopStart,this._testLoopBoundries(i)}))}get playbackRate(){return this._playbackRate}set playbackRate(i){this._playbackRate=i,this._setAll("playbackRate",i)}get length(){return this._events.size}dispose(){return super.dispose(),this.clear(),this}constructor(){super(Ia(Gc.getDefaults(),arguments,["callback","events"])),this.name="Part",this._state=new Bs("stopped"),this._events=new Set;const i=Ia(Gc.getDefaults(),arguments,["callback","events"]);this._state.increasing=!0,i.events.forEach((i=>{pa(i)?this.add(i[0],i[1]):this.add(i)}))}}class Ic extends Ds{static getDefaults(){return Object.assign(Ds.getDefaults(),{pan:0,channelCount:1})}dispose(){return super.dispose(),this._panner.disconnect(),this.pan.dispose(),this}constructor(){super(Object.assign(Ia(Ic.getDefaults(),arguments,["pan"]))),this.name="Panner",this._panner=this.context.createStereoPanner(),this.input=this._panner,this.output=this._panner;const i=Ia(Ic.getDefaults(),arguments,["pan"]);this.pan=new Cs({context:this.context,param:this._panner.pan,value:i.pan,minValue:-1,maxValue:1}),this._panner.channelCount=i.channelCount,this._panner.channelCountMode="explicit",Ja(this,"pan")}}Sc("bit-crusher","\n\tclass BitCrusherWorklet extends SingleIOProcessor {\n\n\t\tstatic get parameterDescriptors() {\n\t\t\treturn [{\n\t\t\t\tname: \"bits\",\n\t\t\t\tdefaultValue: 12,\n\t\t\t\tminValue: 1,\n\t\t\t\tmaxValue: 16,\n\t\t\t\tautomationRate: 'k-rate'\n\t\t\t}];\n\t\t}\n\n\t\tgenerate(input, _channel, parameters) {\n\t\t\tconst step = Math.pow(0.5, parameters.bits - 1);\n\t\t\tconst val = step * Math.floor(input / step + 0.5);\n\t\t\treturn val;\n\t\t}\n\t}\n");class Vc extends Ds{static getDefaults(){return Object.assign(Ds.getDefaults(),{solo:!1})}get solo(){return this._isSoloed()}set solo(i){i?this._addSolo():this._removeSolo(),Vc._allSolos.get(this.context).forEach((i=>i._updateSolo()))}get muted(){return 0===this.input.gain.value}_addSolo(){Vc._soloed.has(this.context)||Vc._soloed.set(this.context,new Set),Vc._soloed.get(this.context).add(this)}_removeSolo(){Vc._soloed.has(this.context)&&Vc._soloed.get(this.context).delete(this)}_isSoloed(){return Vc._soloed.has(this.context)&&Vc._soloed.get(this.context).has(this)}_noSolos(){return!Vc._soloed.has(this.context)||Vc._soloed.has(this.context)&&0===Vc._soloed.get(this.context).size}_updateSolo(){this._isSoloed()||this._noSolos()?this.input.gain.value=1:this.input.gain.value=0}dispose(){return super.dispose(),Vc._allSolos.get(this.context).delete(this),this._removeSolo(),this}constructor(){super(Ia(Vc.getDefaults(),arguments,["solo"])),this.name="Solo";const i=Ia(Vc.getDefaults(),arguments,["solo"]);this.input=this.output=new Fs({context:this.context}),Vc._allSolos.has(this.context)||Vc._allSolos.set(this.context,new Set),Vc._allSolos.get(this.context).add(this),this.solo=i.solo}}Vc._allSolos=new Map,Vc._soloed=new Map;class Rc extends Ds{static getDefaults(){return Object.assign(Ds.getDefaults(),{mute:!1,pan:0,volume:0,channelCount:1})}get mute(){return this._volume.mute}set mute(i){this._volume.mute=i}dispose(){return super.dispose(),this._panner.dispose(),this.pan.dispose(),this._volume.dispose(),this.volume.dispose(),this}constructor(){super(Ia(Rc.getDefaults(),arguments,["pan","volume"])),this.name="PanVol";const i=Ia(Rc.getDefaults(),arguments,["pan","volume"]);this._panner=this.input=new Ic({context:this.context,pan:i.pan,channelCount:i.channelCount}),this.pan=this._panner.pan,this._volume=this.output=new Us({context:this.context,volume:i.volume}),this.volume=this._volume.volume,this._panner.connect(this._volume),this.mute=i.mute,Ja(this,["pan","volume"])}}class Nc extends Ds{static getDefaults(){return Object.assign(Ds.getDefaults(),{pan:0,volume:0,mute:!1,solo:!1,channelCount:1})}get solo(){return this._solo.solo}set solo(i){this._solo.solo=i}get muted(){return this._solo.muted||this.mute}get mute(){return this._panVol.mute}set mute(i){this._panVol.mute=i}_getBus(i){return Nc.buses.has(i)||Nc.buses.set(i,new Fs({context:this.context})),Nc.buses.get(i)}send(i,t=0){const e=this._getBus(i),n=new Fs({context:this.context,units:"decibels",gain:t});return this.connect(n),n.connect(e),n}receive(i){return this._getBus(i).connect(this),this}dispose(){return super.dispose(),this._panVol.dispose(),this.pan.dispose(),this.volume.dispose(),this._solo.dispose(),this}constructor(){super(Ia(Nc.getDefaults(),arguments,["volume","pan"])),this.name="Channel";const i=Ia(Nc.getDefaults(),arguments,["volume","pan"]);this._solo=this.input=new Vc({solo:i.solo,context:this.context}),this._panVol=this.output=new Rc({context:this.context,pan:i.pan,volume:i.volume,mute:i.mute,channelCount:i.channelCount}),this.pan=this._panVol.pan,this.volume=this._panVol.volume,this._solo.connect(this._panVol),Ja(this,["pan","volume"])}}Nc.buses=new Map;class Pc extends Ds{static getDefaults(){return Object.assign(Ds.getDefaults(),{positionX:0,positionY:0,positionZ:0,forwardX:0,forwardY:0,forwardZ:-1,upX:0,upY:1,upZ:0})}dispose(){return super.dispose(),this.positionX.dispose(),this.positionY.dispose(),this.positionZ.dispose(),this.forwardX.dispose(),this.forwardY.dispose(),this.forwardZ.dispose(),this.upX.dispose(),this.upY.dispose(),this.upZ.dispose(),this}constructor(){super(...arguments),this.name="Listener",this.positionX=new Cs({context:this.context,param:this.context.rawContext.listener.positionX}),this.positionY=new Cs({context:this.context,param:this.context.rawContext.listener.positionY}),this.positionZ=new Cs({context:this.context,param:this.context.rawContext.listener.positionZ}),this.forwardX=new Cs({context:this.context,param:this.context.rawContext.listener.forwardX}),this.forwardY=new Cs({context:this.context,param:this.context.rawContext.listener.forwardY}),this.forwardZ=new Cs({context:this.context,param:this.context.rawContext.listener.forwardZ}),this.upX=new Cs({context:this.context,param:this.context.rawContext.listener.upX}),this.upY=new Cs({context:this.context,param:this.context.rawContext.listener.upY}),this.upZ=new Cs({context:this.context,param:this.context.rawContext.listener.upZ})}}Ya((i=>{i.listener=new Pc({context:i})})),Za((i=>{i.listener.dispose()}));const qc=as().transport;as().destination,as().destination;as().listener;const jc=as().draw;as();let Lc;var Wc;(Wc=Lc||(Lc={}))[Wc.SETUP=0]="SETUP",Wc[Wc.PLAY=1]="PLAY",Wc[Wc.STOP=2]="STOP";var Uc;Uc=JSON.parse('["Who are you?","What\'s that?","Oh what\'s that?","What\'s that?","What is that?","Ooo, that thing has numbers on it.","Hey look at that thing. No, that other thing.","Eew, what\'s wrong with your legs?","Where are we going?","Oh hey! You\'re the lady from the test. Hi!","One 18.25 ounce package chocolate cake mix.","One can prepared coconut pecan frosting.","Three slash four cup vegetable oil.","Four large eggs. One cup semi-sweet chocolate chips.","Three slash four cups butter or margarine.","Three slash four cups butter or margarine.","One and two third cups granulated sugar.","Two cups all purpose flour.","Don\'t forget garnishes such as","Fish shaped crackers.","Fish shaped candies.","Fish shaped solid waste.","Fish shaped dirt.","Fish shaped ethyl benzene.","Pull and peel licorice.","Fish shaped volatile organic compounds and sediment shaped sediment.","Candy coated peanut butter pieces. Shaped like fish.","One cup lemon juice.","Alpha resins.","Unsaturated polyester resin.","Fibreglass surface resins.","And volatile malted milk impoundments.","Nine large egg yolks.","Twelve medium geosynthetic membranes.","One cup granulated sugar.","An entry called \'how to kill someone with your bare hands\'.","Two cups rhubarb, sliced.","Two slash three cups granulated rhubarb.","One tablespoon all-purpose rhubarb.","One teaspoon grated orange rhubarb.","Three tablespoons rhubarb, on fire.","One large rhubarb.","One cross borehole electro-magnetic imaging rhubarb.","Two tablespoons rhubarb juice.","Adjustable aluminium head positioner.","Slaughter electric needle injector.","Cordless electric needle injector.","Injector needle driver.","Injector needle gun.","Cranial caps.","And it contains proven preservatives, deep penetration agents, and gas and odour control chemicals.","That will deodorise and preserve putrid tissue.","Your specimen has been processed, and we are now ready to begin the test proper.","Before we start, however, keep in mind that although fun, and learning, are the primary goals of all Enrichment Center activities, serious injuries may occur.","For your own safety, and the safety of others, please refrain from t","Por favor bordn de fallar Muchos gracias de fallar gracias","stand back. The portal will open"]');function zc(i){for(;i.firstChild;)i.removeChild(i.firstChild)}const Yc=new class{set stage(i){this._elem.dataset.stage=""+i}get stage(){const i=this._elem.dataset.stage||"-1",t=parseInt(i,10);return isNaN(t)?-1:t}set onclick(i){this._elem.onclick=i}get onclick(){return this._elem.onclick}focus(){this._elem.focus()}setIcon(i){switch(i){case Lc.SETUP:this._elem.textContent="";break;case Lc.PLAY:this._elem.textContent="";break;case Lc.STOP:this._elem.textContent=""}}constructor(i){this._elem=i}}(document.getElementById("control")),Xc=new class{set isDisabled(i){console.debug("voiceSelect enabled changed to",!i),this._elem.disabled=i,this._elemOnEnabledChange(i)}get isDisabled(){return this._elem.disabled}set onenabledchanged(i){console.debug("voiceSelect onenabledchanged registered"),this._onenabledchange=void 0!==i?i:()=>!0}get onenabledchanged(){return this._onenabledchange}get selectedVoice(){return this._getSelectedVoice()}set onchange(i){void 0!==i?(this._onchange=i,null===this._elem.onchange&&(this._elem.onchange=this._elemOnChange)):this._onchange=()=>!0}get onchange(){return this._onchange}updateVoices(i){if(this._isRebuilding=!0,this._availableOptions=i.map((i=>{return{key:(t=i.name,t.toLowerCase().trim().replace(/[^\w\s-]/g,"").replace(/[\s_-]+/g,"-").replace(/^-+|-+$/g,"")),voice:i};var t})),zc(this._elem),0===this._availableOptions.length){this.isDisabled=!0;const i=document.createElement("option");return i.textContent="No Voices available on your System",void this._elem.appendChild(i)}this._availableOptions.sort((function(i,t){const e=i.voice.lang.localeCompare(t.voice.lang);return 0===e?i.voice.name.localeCompare(t.voice.name):e}));const t=this._availableOptions.reduce(((i,t)=>i<t.voice.name.length?t.voice.name.length:i),0);for(const i of this._availableOptions){const e=document.createElement("option");e.textContent=`${i.voice.name.padEnd(t," ")} (${i.voice.lang})`;const n=i.key;e.value=n,!0===i.voice.default&&(e.selected=!0,this._selectedVoice=n),this._elem.appendChild(e)}this._isRebuilding=!1,this.isDisabled=!1}_elemOnChange(){if(this._isRebuilding)return;this._selectedVoice=this._elem.value;const i=this._getSelectedVoice();if(void 0===i)return this._selectedVoice="",this.updateVoices([]),void console.warn(new RangeError("Selected Voice was outside of available Voices"));this._onchange.call(this,i.voice)}_elemOnEnabledChange(i){console.log("voiceSelect",i),this._onenabledchange.call(this,i)}_getSelectedVoice(){if(0!==this._selectedVoice.length)return this._availableOptions.find((i=>i.key===this._selectedVoice))}constructor(t){i(a)(this,"_isRebuilding",!1),i(a)(this,"_availableOptions",[]),i(a)(this,"_selectedVoice",""),i(a)(this,"_onchange",(()=>!0)),i(a)(this,"_onenabledchange",(()=>!0)),this._elemOnChange=this._elemOnChange.bind(this),this._elem=t}}(document.getElementById("voice")),Zc=new class{set onvoiceschanged(i){this._broken?console.warn("sam can't attach to onvoiceschanged, they are currently broken"):void 0!==i?(this._onvoiceschanged=i,null===this._speech.onvoiceschanged&&(this._speech.onvoiceschanged=this._speechOnVoicesChange)):this._onvoiceschanged=()=>!0}get onvoiceschanged(){return this._onvoiceschanged}changeVoice(i){this._voice=i}updateVoices(){this._voices=this._speech.getVoices(),this._onvoiceschanged.call(this,this._voices)}saySentence(i){if(this._broken)return void console.warn("sam can't say something, they are currently broken");if(i.length<=0)return void console.debug("sentence was empty");const t=new SpeechSynthesisUtterance;t.text=i,t.voice=this._voice,this._speech.speak(t)}sayRandom(){if(this._broken)return void console.warn("sam can't say something, they are currently broken");const i=Math.floor(Math.random()*Uc.length),t=new SpeechSynthesisUtterance(Uc[i]);t.voice=this._voice,this._speech.speak(t)}_speechOnVoicesChange(){this._broken?console.warn("sam can't update voices, they are currently broken"):this.updateVoices()}constructor(t){i(a)(this,"_speech",window.speechSynthesis),i(a)(this,"_voice",null),i(a)(this,"_broken",!1),i(a)(this,"_onvoiceschanged",(()=>!0)),i(a)(this,"_voices",[]),this._speechOnVoicesChange=this._speechOnVoicesChange.bind(this),void 0===this._speech?this._broken=!0:this._speech=window.speechSynthesis,this._broken||void 0===t||(this._voice=t)}},$c=new class{set onwanttospeek(i){this._onwantstospeek=void 0!==i?i:()=>!0}get onwanttospeek(){return this._onwantstospeek}startPlaying(){qc.bpm.value=this._song.header.tempos[0].bpm;for(const i of this._song.tracks){if("lyrics"===i.name){if(i.notes.length<=0)continue;new Gc(((i,t)=>{this._isLyricsNote(t)&&(console.log(t),jc.schedule((()=>{this._startUtterance(t)}),i))}),i.notes).start();continue}const t=this._getSynthForNote(i.instrument.name);new Gc(((e,n)=>{try{t.triggerAttackRelease(n.name,n.duration,e,n.velocity)}catch(t){console.warn(t,e,i.instrument.name,n)}}),i.notes).start()}qc.start()}stopPlaying(){qc.stop(),qc.cancel(0)}_getSynthForNote(i){switch(i){case"voice oohs":return new wc({detune:-1200,volume:-20}).toDestination();case"orchestral harp":return new Oc(gc,{envelope:{attack:.02,decay:.1,sustain:.3,release:1},volume:-10}).toDestination();case"acoustic guitar (steel)":case"celesta":return new wc({volume:-20}).toDestination();case"electric bass (finger)":return new wc({volume:-10}).toDestination();case"standard kit":return new bc({detune:-2500,pitchDecay:.05,volume:-20}).toDestination();default:return new wc({volume:-100}).toDestination()}}_startUtterance(i){this._onwantstospeek.call(this,i)}_isLyricsNote(i){return Object.prototype.hasOwnProperty.call(i,"text")}constructor(){i(a)(this,"_onwantstospeek",(()=>!0)),this._song=s}},Hc=document.getElementById("settings"),Qc=document.getElementById("instructions"),Jc=document.getElementById("terminal"),Kc=document.getElementById("test");let ir=!1;function tr(){0!==Yc.stage?ir?Yc.setIcon(Lc.STOP):Yc.setIcon(Lc.PLAY):Yc.setIcon(Lc.SETUP)}tr(),Yc.focus(),Yc.onclick=()=>{const i=Yc.stage;switch(i){case 0:Hc.classList.remove("hidden"),Xc.onenabledchanged=i=>{console.debug("index",i),Kc.disabled=i},Xc.onchange=i=>{console.debug(`voice changed to ${i.name}`),Zc.changeVoice(i),Zc.sayRandom()},Zc.onvoiceschanged=i=>{console.debug("index voices changed"),Xc.updateVoices(i)},Kc.onclick=()=>{Zc.sayRandom()},Zc.updateVoices(),$c.onwanttospeek=i=>{Zc.saySentence(i.text)},Qc.classList.add("hidden"),Yc.stage=1,tr();break;case 1:Hc.classList.add("hidden"),Jc.classList.remove("hidden"),$c.startPlaying(),ir=!0,Yc.stage=2,tr();break;case 2:Hc.classList.remove("hidden"),Jc.classList.add("hidden"),$c.stopPlaying(),ir=!1,Yc.stage=1,tr();break;default:console.warn(`Unhandled stage ${i}`)}};