{
    "header": {
        "keySignatures": [],
        "meta": [],
        "name": "Track 0",
        "ppq": 960,
        "tempos": [
            {
                "bpm": 120,
                "ticks": 0
            }
        ],
        "timeSignatures": []
    },
    "tracks": [
        {
            "channel": 0,
            "controlChanges": {
                "7": [
                    {
                        "number": 7,
                        "ticks": 0,
                        "time": 0,
                        "value": 1
                    }
                ],
                "10": [
                    {
                        "number": 10,
                        "ticks": 0,
                        "time": 0,
                        "value": 0.5039370078740157
                    }
                ]
            },
            "pitchBends": [],
            "instrument": {
                "family": "piano",
                "number": 0,
                "name": "acoustic grand piano"
            },
            "name": "Voice",
            "notes": [],
            "endOfTrackTicks": 334560
        },
        {
            "channel": 0,
            "controlChanges": {
                "10": [
                    {
                        "number": 10,
                        "ticks": 0,
                        "time": 0,
                        "value": 0.5039370078740157
                    }
                ]
            },
            "pitchBends": [],
            "instrument": {
                "family": "synth lead",
                "number": 85,
                "name": "lead 6 (voice)"
            },
            "name": "",
            "notes": [
                {
                    "duration": 0.25,
                    "durationTicks": 480,
                    "midi": 79,
                    "name": "G5",
                    "ticks": 1920,
                    "time": 1,
                    "velocity": 1
                },
                {
                    "duration": 0.25,
                    "durationTicks": 480,
                    "midi": 78,
                    "name": "F#5",
                    "ticks": 2400,
                    "time": 1.25,
                    "velocity": 1
                },
                {
                    "duration": 0.25,
                    "durationTicks": 480,
                    "midi": 76,
                    "name": "E5",
                    "ticks": 2880,
                    "time": 1.5,
                    "velocity": 1
                },
                {
                    "duration": 0.25,
                    "durationTicks": 480,
                    "midi": 76,
                    "name": "E5",
                    "ticks": 3360,
                    "time": 1.75,
                    "velocity": 1
                },
                {
                    "duration": 0.25,
                    "durationTicks": 480,
                    "midi": 78,
                    "name": "F#5",
                    "ticks": 3840,
                    "time": 2,
                    "velocity": 1
                },
                {
                    "duration": 0.25,
                    "durationTicks": 480,
                    "midi": 69,
                    "name": "A4",
                    "ticks": 9120,
                    "time": 4.75,
                    "velocity": 1
                },
                {
                    "duration": 0.25,
                    "durationTicks": 480,
                    "midi": 79,
                    "name": "G5",
                    "ticks": 9600,
                    "time": 5,
                    "velocity": 1
                },
                {
                    "duration": 0.25,
                    "durationTicks": 480,
                    "midi": 78,
                    "name": "F#5",
                    "ticks": 10080,
                    "time": 5.25,
                    "velocity": 1
                },
                {
                    "duration": 0.25,
                    "durationTicks": 480,
                    "midi": 76,
                    "name": "E5",
                    "ticks": 10560,
                    "time": 5.5,
                    "velocity": 1
                },
                {
                    "duration": 0.5,
                    "durationTicks": 960,
                    "midi": 76,
                    "name": "E5",
                    "ticks": 11040,
                    "time": 5.75,
                    "velocity": 1
                },
                {
                    "duration": 0.25,
                    "durationTicks": 480,
                    "midi": 78,
                    "name": "F#5",
                    "ticks": 12000,
                    "time": 6.25,
                    "velocity": 1
                },
                {
                    "duration": 0.5,
                    "durationTicks": 960,
                    "midi": 74,
                    "name": "D5",
                    "ticks": 13440,
                    "time": 7,
                    "velocity": 1
                },
                {
                    "duration": 0.25,
                    "durationTicks": 480,
                    "midi": 76,
                    "name": "E5",
                    "ticks": 14400,
                    "time": 7.5,
                    "velocity": 1
                },
                {
                    "duration": 0.5,
                    "durationTicks": 960,
                    "midi": 69,
                    "name": "A4",
                    "ticks": 14880,
                    "time": 7.75,
                    "velocity": 1
                },
                {
                    "duration": 0.25,
                    "durationTicks": 480,
                    "midi": 69,
                    "name": "A4",
                    "ticks": 18720,
                    "time": 9.75,
                    "velocity": 1
                },
                {
                    "duration": 0.5,
                    "durationTicks": 960,
                    "midi": 76,
                    "name": "E5",
                    "ticks": 19200,
                    "time": 10,
                    "velocity": 1
                },
                {
                    "duration": 0.25,
                    "durationTicks": 480,
                    "midi": 78,
                    "name": "F#5",
                    "ticks": 20160,
                    "time": 10.5,
                    "velocity": 1
                },
                {
                    "duration": 0.75,
                    "durationTicks": 1440,
                    "midi": 79,
                    "name": "G5",
                    "ticks": 20640,
                    "time": 10.75,
                    "velocity": 1
                },
                {
                    "duration": 0.25,
                    "durationTicks": 480,
                    "midi": 76,
                    "name": "E5",
                    "ticks": 22080,
                    "time": 11.5,
                    "velocity": 1
                },
                {
                    "duration": 0.5,
                    "durationTicks": 960,
                    "midi": 73,
                    "name": "C#5",
                    "ticks": 22560,
                    "time": 11.75,
                    "velocity": 1
                },
                {
                    "duration": 0.75,
                    "durationTicks": 1440,
                    "midi": 74,
                    "name": "D5",
                    "ticks": 23520,
                    "time": 12.25,
                    "velocity": 1
                },
                {
                    "duration": 0.5,
                    "durationTicks": 960,
                    "midi": 76,
                    "name": "E5",
                    "ticks": 24960,
                    "time": 13,
                    "velocity": 1
                },
                {
                    "duration": 0.25,
                    "durationTicks": 480,
                    "midi": 69,
                    "name": "A4",
                    "ticks": 25920,
                    "time": 13.5,
                    "velocity": 1
                },
                {
                    "duration": 0.5,
                    "durationTicks": 960,
                    "midi": 69,
                    "name": "A4",
                    "ticks": 26400,
                    "time": 13.75,
                    "velocity": 1
                },
                {
                    "duration": 0.5,
                    "durationTicks": 960,
                    "midi": 78,
                    "name": "F#5",
                    "ticks": 27360,
                    "time": 14.25,
                    "velocity": 1
                },
                {
                    "duration": 0.25,
                    "durationTicks": 480,
                    "midi": 79,
                    "name": "G5",
                    "ticks": 32640,
                    "time": 17,
                    "velocity": 1
                },
                {
                    "duration": 0.25,
                    "durationTicks": 480,
                    "midi": 78,
                    "name": "F#5",
                    "ticks": 33120,
                    "time": 17.25,
                    "velocity": 1
                },
                {
                    "duration": 0.25,
                    "durationTicks": 480,
                    "midi": 76,
                    "name": "E5",
                    "ticks": 33600,
                    "time": 17.5,
                    "velocity": 1
                },
                {
                    "duration": 0.25,
                    "durationTicks": 480,
                    "midi": 76,
                    "name": "E5",
                    "ticks": 34080,
                    "time": 17.75,
                    "velocity": 1
                },
                {
                    "duration": 0.25,
                    "durationTicks": 480,
                    "midi": 78,
                    "name": "F#5",
                    "ticks": 34560,
                    "time": 18,
                    "velocity": 1
                },
                {
                    "duration": 0.25,
                    "durationTicks": 480,
                    "midi": 69,
                    "name": "A4",
                    "ticks": 39840,
                    "time": 20.75,
                    "velocity": 1
                },
                {
                    "duration": 0.25,
                    "durationTicks": 480,
                    "midi": 79,
                    "name": "G5",
                    "ticks": 40320,
                    "time": 21,
                    "velocity": 1
                },
                {
                    "duration": 0.25,
                    "durationTicks": 480,
                    "midi": 78,
                    "name": "F#5",
                    "ticks": 40800,
                    "time": 21.25,
                    "velocity": 1
                },
                {
                    "duration": 0.25,
                    "durationTicks": 480,
                    "midi": 76,
                    "name": "E5",
                    "ticks": 41280,
                    "time": 21.5,
                    "velocity": 1
                },
                {
                    "duration": 0.5,
                    "durationTicks": 960,
                    "midi": 76,
                    "name": "E5",
                    "ticks": 41760,
                    "time": 21.75,
                    "velocity": 1
                },
                {
                    "duration": 0.25,
                    "durationTicks": 480,
                    "midi": 78,
                    "name": "F#5",
                    "ticks": 43200,
                    "time": 22.5,
                    "velocity": 1
                },
                {
                    "duration": 0.5,
                    "durationTicks": 960,
                    "midi": 74,
                    "name": "D5",
                    "ticks": 43680,
                    "time": 22.75,
                    "velocity": 1
                },
                {
                    "duration": 0.25,
                    "durationTicks": 480,
                    "midi": 76,
                    "name": "E5",
                    "ticks": 45120,
                    "time": 23.5,
                    "velocity": 1
                },
                {
                    "duration": 0.5,
                    "durationTicks": 960,
                    "midi": 69,
                    "name": "A4",
                    "ticks": 45600,
                    "time": 23.75,
                    "velocity": 1
                },
                {
                    "duration": 0.5,
                    "durationTicks": 960,
                    "midi": 76,
                    "name": "E5",
                    "ticks": 49920,
                    "time": 26,
                    "velocity": 1
                },
                {
                    "duration": 0.25,
                    "durationTicks": 480,
                    "midi": 78,
                    "name": "F#5",
                    "ticks": 50880,
                    "time": 26.5,
                    "velocity": 1
                },
                {
                    "duration": 0.75,
                    "durationTicks": 1440,
                    "midi": 79,
                    "name": "G5",
                    "ticks": 51360,
                    "time": 26.75,
                    "velocity": 1
                },
                {
                    "duration": 0.25,
                    "durationTicks": 480,
                    "midi": 76,
                    "name": "E5",
                    "ticks": 52800,
                    "time": 27.5,
                    "velocity": 1
                },
                {
                    "duration": 0.75,
                    "durationTicks": 1440,
                    "midi": 73,
                    "name": "C#5",
                    "ticks": 53280,
                    "time": 27.75,
                    "velocity": 1
                },
                {
                    "duration": 0.25,
                    "durationTicks": 480,
                    "midi": 74,
                    "name": "D5",
                    "ticks": 54720,
                    "time": 28.5,
                    "velocity": 1
                },
                {
                    "duration": 0.25,
                    "durationTicks": 480,
                    "midi": 76,
                    "name": "E5",
                    "ticks": 55200,
                    "time": 28.75,
                    "velocity": 1
                },
                {
                    "duration": 0.25,
                    "durationTicks": 480,
                    "midi": 69,
                    "name": "A4",
                    "ticks": 56160,
                    "time": 29.25,
                    "velocity": 1
                },
                {
                    "duration": 0.25,
                    "durationTicks": 480,
                    "midi": 74,
                    "name": "D5",
                    "ticks": 56640,
                    "time": 29.5,
                    "velocity": 1
                },
                {
                    "duration": 0.25,
                    "durationTicks": 480,
                    "midi": 76,
                    "name": "E5",
                    "ticks": 57120,
                    "time": 29.75,
                    "velocity": 1
                },
                {
                    "duration": 0.25,
                    "durationTicks": 480,
                    "midi": 77,
                    "name": "F5",
                    "ticks": 57600,
                    "time": 30,
                    "velocity": 1
                },
                {
                    "duration": 0.25,
                    "durationTicks": 480,
                    "midi": 76,
                    "name": "E5",
                    "ticks": 58080,
                    "time": 30.25,
                    "velocity": 1
                },
                {
                    "duration": 0.25,
                    "durationTicks": 480,
                    "midi": 74,
                    "name": "D5",
                    "ticks": 58560,
                    "time": 30.5,
                    "velocity": 1
                },
                {
                    "duration": 0.25,
                    "durationTicks": 480,
                    "midi": 72,
                    "name": "C5",
                    "ticks": 59040,
                    "time": 30.75,
                    "velocity": 1
                },
                {
                    "duration": 0.25,
                    "durationTicks": 480,
                    "midi": 69,
                    "name": "A4",
                    "ticks": 60480,
                    "time": 31.5,
                    "velocity": 1
                },
                {
                    "duration": 0.25,
                    "durationTicks": 480,
                    "midi": 70,
                    "name": "A#4",
                    "ticks": 60960,
                    "time": 31.75,
                    "velocity": 1
                },
                {
                    "duration": 0.5,
                    "durationTicks": 960,
                    "midi": 72,
                    "name": "C5",
                    "ticks": 61440,
                    "time": 32,
                    "velocity": 1
                },
                {
                    "duration": 0.5,
                    "durationTicks": 960,
                    "midi": 77,
                    "name": "F5",
                    "ticks": 62400,
                    "time": 32.5,
                    "velocity": 1
                },
                {
                    "duration": 0.25,
                    "durationTicks": 480,
                    "midi": 76,
                    "name": "E5",
                    "ticks": 63360,
                    "time": 33,
                    "velocity": 1
                },
                {
                    "duration": 0.25,
                    "durationTicks": 480,
                    "midi": 74,
                    "name": "D5",
                    "ticks": 63840,
                    "time": 33.25,
                    "velocity": 1
                },
                {
                    "duration": 0.25,
                    "durationTicks": 480,
                    "midi": 74,
                    "name": "D5",
                    "ticks": 64320,
                    "time": 33.5,
                    "velocity": 1
                },
                {
                    "duration": 0.25,
                    "durationTicks": 480,
                    "midi": 72,
                    "name": "C5",
                    "ticks": 64800,
                    "time": 33.75,
                    "velocity": 1
                },
                {
                    "duration": 0.25,
                    "durationTicks": 480,
                    "midi": 74,
                    "name": "D5",
                    "ticks": 65280,
                    "time": 34,
                    "velocity": 1
                },
                {
                    "duration": 0.25,
                    "durationTicks": 480,
                    "midi": 72,
                    "name": "C5",
                    "ticks": 65760,
                    "time": 34.25,
                    "velocity": 1
                },
                {
                    "duration": 0.5,
                    "durationTicks": 960,
                    "midi": 72,
                    "name": "C5",
                    "ticks": 66240,
                    "time": 34.5,
                    "velocity": 1
                },
                {
                    "duration": 0.25,
                    "durationTicks": 480,
                    "midi": 72,
                    "name": "C5",
                    "ticks": 67200,
                    "time": 35,
                    "velocity": 1
                },
                {
                    "duration": 0.25,
                    "durationTicks": 480,
                    "midi": 69,
                    "name": "A4",
                    "ticks": 68160,
                    "time": 35.5,
                    "velocity": 1
                },
                {
                    "duration": 0.25,
                    "durationTicks": 480,
                    "midi": 70,
                    "name": "A#4",
                    "ticks": 68640,
                    "time": 35.75,
                    "velocity": 1
                },
                {
                    "duration": 0.5,
                    "durationTicks": 960,
                    "midi": 72,
                    "name": "C5",
                    "ticks": 69120,
                    "time": 36,
                    "velocity": 1
                },
                {
                    "duration": 0.5,
                    "durationTicks": 960,
                    "midi": 77,
                    "name": "F5",
                    "ticks": 70080,
                    "time": 36.5,
                    "velocity": 1
                },
                {
                    "duration": 0.25,
                    "durationTicks": 480,
                    "midi": 79,
                    "name": "G5",
                    "ticks": 71040,
                    "time": 37,
                    "velocity": 1
                },
                {
                    "duration": 0.25,
                    "durationTicks": 480,
                    "midi": 77,
                    "name": "F5",
                    "ticks": 71520,
                    "time": 37.25,
                    "velocity": 1
                },
                {
                    "duration": 0.25,
                    "durationTicks": 480,
                    "midi": 76,
                    "name": "E5",
                    "ticks": 72000,
                    "time": 37.5,
                    "velocity": 1
                },
                {
                    "duration": 0.25,
                    "durationTicks": 480,
                    "midi": 74,
                    "name": "D5",
                    "ticks": 72480,
                    "time": 37.75,
                    "velocity": 1
                },
                {
                    "duration": 0.25,
                    "durationTicks": 480,
                    "midi": 74,
                    "name": "D5",
                    "ticks": 72960,
                    "time": 38,
                    "velocity": 1
                },
                {
                    "duration": 0.25,
                    "durationTicks": 480,
                    "midi": 76,
                    "name": "E5",
                    "ticks": 73440,
                    "time": 38.25,
                    "velocity": 1
                },
                {
                    "duration": 0.5,
                    "durationTicks": 960,
                    "midi": 77,
                    "name": "F5",
                    "ticks": 73920,
                    "time": 38.5,
                    "velocity": 1
                },
                {
                    "duration": 0.25,
                    "durationTicks": 480,
                    "midi": 77,
                    "name": "F5",
                    "ticks": 74880,
                    "time": 39,
                    "velocity": 1
                },
                {
                    "duration": 0.25,
                    "durationTicks": 480,
                    "midi": 79,
                    "name": "G5",
                    "ticks": 75840,
                    "time": 39.5,
                    "velocity": 1
                },
                {
                    "duration": 0.25,
                    "durationTicks": 480,
                    "midi": 81,
                    "name": "A5",
                    "ticks": 76320,
                    "time": 39.75,
                    "velocity": 1
                },
                {
                    "duration": 0.25,
                    "durationTicks": 480,
                    "midi": 82,
                    "name": "A#5",
                    "ticks": 76800,
                    "time": 40,
                    "velocity": 1
                },
                {
                    "duration": 0.25,
                    "durationTicks": 480,
                    "midi": 82,
                    "name": "A#5",
                    "ticks": 77280,
                    "time": 40.25,
                    "velocity": 1
                },
                {
                    "duration": 0.5,
                    "durationTicks": 960,
                    "midi": 81,
                    "name": "A5",
                    "ticks": 77760,
                    "time": 40.5,
                    "velocity": 1
                },
                {
                    "duration": 0.5,
                    "durationTicks": 960,
                    "midi": 79,
                    "name": "G5",
                    "ticks": 78720,
                    "time": 41,
                    "velocity": 1
                },
                {
                    "duration": 0.25,
                    "durationTicks": 480,
                    "midi": 77,
                    "name": "F5",
                    "ticks": 79680,
                    "time": 41.5,
                    "velocity": 1
                },
                {
                    "duration": 0.25,
                    "durationTicks": 480,
                    "midi": 79,
                    "name": "G5",
                    "ticks": 80160,
                    "time": 41.75,
                    "velocity": 1
                },
                {
                    "duration": 0.25,
                    "durationTicks": 480,
                    "midi": 81,
                    "name": "A5",
                    "ticks": 80640,
                    "time": 42,
                    "velocity": 1
                },
                {
                    "duration": 0.25,
                    "durationTicks": 480,
                    "midi": 81,
                    "name": "A5",
                    "ticks": 81120,
                    "time": 42.25,
                    "velocity": 1
                },
                {
                    "duration": 0.5,
                    "durationTicks": 960,
                    "midi": 79,
                    "name": "G5",
                    "ticks": 81600,
                    "time": 42.5,
                    "velocity": 1
                },
                {
                    "duration": 0.5,
                    "durationTicks": 960,
                    "midi": 77,
                    "name": "F5",
                    "ticks": 82560,
                    "time": 43,
                    "velocity": 1
                },
                {
                    "duration": 0.25,
                    "durationTicks": 480,
                    "midi": 74,
                    "name": "D5",
                    "ticks": 83520,
                    "time": 43.5,
                    "velocity": 1
                },
                {
                    "duration": 0.25,
                    "durationTicks": 480,
                    "midi": 72,
                    "name": "C5",
                    "ticks": 84000,
                    "time": 43.75,
                    "velocity": 1
                },
                {
                    "duration": 0.25,
                    "durationTicks": 480,
                    "midi": 74,
                    "name": "D5",
                    "ticks": 84480,
                    "time": 44,
                    "velocity": 1
                },
                {
                    "duration": 0.25,
                    "durationTicks": 480,
                    "midi": 77,
                    "name": "F5",
                    "ticks": 84960,
                    "time": 44.25,
                    "velocity": 1
                },
                {
                    "duration": 0.25,
                    "durationTicks": 480,
                    "midi": 77,
                    "name": "F5",
                    "ticks": 85440,
                    "time": 44.5,
                    "velocity": 1
                },
                {
                    "duration": 0.5,
                    "durationTicks": 960,
                    "midi": 76,
                    "name": "E5",
                    "ticks": 85920,
                    "time": 44.75,
                    "velocity": 1
                },
                {
                    "duration": 0.25,
                    "durationTicks": 480,
                    "midi": 76,
                    "name": "E5",
                    "ticks": 86880,
                    "time": 45.25,
                    "velocity": 1
                },
                {
                    "duration": 0.25,
                    "durationTicks": 480,
                    "midi": 78,
                    "name": "F#5",
                    "ticks": 87360,
                    "time": 45.5,
                    "velocity": 1
                },
                {
                    "duration": 1,
                    "durationTicks": 1920,
                    "midi": 78,
                    "name": "F#5",
                    "ticks": 87840,
                    "time": 45.75,
                    "velocity": 1
                },
                {
                    "duration": 0.25,
                    "durationTicks": 480,
                    "midi": 69,
                    "name": "A4",
                    "ticks": 101280,
                    "time": 52.75,
                    "velocity": 1
                },
                {
                    "duration": 0.25,
                    "durationTicks": 480,
                    "midi": 79,
                    "name": "G5",
                    "ticks": 101760,
                    "time": 53,
                    "velocity": 1
                },
                {
                    "duration": 0.25,
                    "durationTicks": 480,
                    "midi": 78,
                    "name": "F#5",
                    "ticks": 102240,
                    "time": 53.25,
                    "velocity": 1
                },
                {
                    "duration": 0.25,
                    "durationTicks": 480,
                    "midi": 76,
                    "name": "E5",
                    "ticks": 102720,
                    "time": 53.5,
                    "velocity": 1
                },
                {
                    "duration": 0.25,
                    "durationTicks": 480,
                    "midi": 76,
                    "name": "E5",
                    "ticks": 103200,
                    "time": 53.75,
                    "velocity": 1
                },
                {
                    "duration": 0.25,
                    "durationTicks": 480,
                    "midi": 78,
                    "name": "F#5",
                    "ticks": 103680,
                    "time": 54,
                    "velocity": 1
                },
                {
                    "duration": 0.25,
                    "durationTicks": 480,
                    "midi": 79,
                    "name": "G5",
                    "ticks": 109440,
                    "time": 57,
                    "velocity": 1
                },
                {
                    "duration": 0.25,
                    "durationTicks": 480,
                    "midi": 78,
                    "name": "F#5",
                    "ticks": 109920,
                    "time": 57.25,
                    "velocity": 1
                },
                {
                    "duration": 0.25,
                    "durationTicks": 480,
                    "midi": 76,
                    "name": "E5",
                    "ticks": 110400,
                    "time": 57.5,
                    "velocity": 1
                },
                {
                    "duration": 0.75,
                    "durationTicks": 1440,
                    "midi": 76,
                    "name": "E5",
                    "ticks": 110880,
                    "time": 57.75,
                    "velocity": 1
                },
                {
                    "duration": 0.25,
                    "durationTicks": 480,
                    "midi": 78,
                    "name": "F#5",
                    "ticks": 112320,
                    "time": 58.5,
                    "velocity": 1
                },
                {
                    "duration": 0.5,
                    "durationTicks": 960,
                    "midi": 74,
                    "name": "D5",
                    "ticks": 112800,
                    "time": 58.75,
                    "velocity": 1
                },
                {
                    "duration": 0.5,
                    "durationTicks": 960,
                    "midi": 76,
                    "name": "E5",
                    "ticks": 113760,
                    "time": 59.25,
                    "velocity": 1
                },
                {
                    "duration": 0.5,
                    "durationTicks": 960,
                    "midi": 69,
                    "name": "A4",
                    "ticks": 114720,
                    "time": 59.75,
                    "velocity": 1
                },
                {
                    "duration": 0.5,
                    "durationTicks": 960,
                    "midi": 76,
                    "name": "E5",
                    "ticks": 119040,
                    "time": 62,
                    "velocity": 1
                },
                {
                    "duration": 0.25,
                    "durationTicks": 480,
                    "midi": 78,
                    "name": "F#5",
                    "ticks": 120000,
                    "time": 62.5,
                    "velocity": 1
                },
                {
                    "duration": 0.75,
                    "durationTicks": 1440,
                    "midi": 79,
                    "name": "G5",
                    "ticks": 120480,
                    "time": 62.75,
                    "velocity": 1
                },
                {
                    "duration": 0.5,
                    "durationTicks": 960,
                    "midi": 76,
                    "name": "E5",
                    "ticks": 121920,
                    "time": 63.5,
                    "velocity": 1
                },
                {
                    "duration": 0.5,
                    "durationTicks": 960,
                    "midi": 73,
                    "name": "C#5",
                    "ticks": 122880,
                    "time": 64,
                    "velocity": 1
                },
                {
                    "duration": 0.25,
                    "durationTicks": 480,
                    "midi": 74,
                    "name": "D5",
                    "ticks": 123840,
                    "time": 64.5,
                    "velocity": 1
                },
                {
                    "duration": 0.75,
                    "durationTicks": 1440,
                    "midi": 76,
                    "name": "E5",
                    "ticks": 124320,
                    "time": 64.75,
                    "velocity": 1
                },
                {
                    "duration": 0.25,
                    "durationTicks": 480,
                    "midi": 69,
                    "name": "A4",
                    "ticks": 125760,
                    "time": 65.5,
                    "velocity": 1
                },
                {
                    "duration": 0.5,
                    "durationTicks": 960,
                    "midi": 69,
                    "name": "A4",
                    "ticks": 126240,
                    "time": 65.75,
                    "velocity": 1
                },
                {
                    "duration": 0.5,
                    "durationTicks": 960,
                    "midi": 78,
                    "name": "F#5",
                    "ticks": 127200,
                    "time": 66.25,
                    "velocity": 1
                },
                {
                    "duration": 0.25,
                    "durationTicks": 480,
                    "midi": 74,
                    "name": "D5",
                    "ticks": 132000,
                    "time": 68.75,
                    "velocity": 1
                },
                {
                    "duration": 0.25,
                    "durationTicks": 480,
                    "midi": 69,
                    "name": "A4",
                    "ticks": 132000,
                    "time": 68.75,
                    "velocity": 1
                },
                {
                    "duration": 0.25,
                    "durationTicks": 480,
                    "midi": 83,
                    "name": "B5",
                    "ticks": 132480,
                    "time": 69,
                    "velocity": 1
                },
                {
                    "duration": 0.25,
                    "durationTicks": 480,
                    "midi": 79,
                    "name": "G5",
                    "ticks": 132480,
                    "time": 69,
                    "velocity": 1
                },
                {
                    "duration": 0.25,
                    "durationTicks": 480,
                    "midi": 81,
                    "name": "A5",
                    "ticks": 132960,
                    "time": 69.25,
                    "velocity": 1
                },
                {
                    "duration": 0.25,
                    "durationTicks": 480,
                    "midi": 78,
                    "name": "F#5",
                    "ticks": 132960,
                    "time": 69.25,
                    "velocity": 1
                },
                {
                    "duration": 0.25,
                    "durationTicks": 480,
                    "midi": 79,
                    "name": "G5",
                    "ticks": 133440,
                    "time": 69.5,
                    "velocity": 1
                },
                {
                    "duration": 0.25,
                    "durationTicks": 480,
                    "midi": 76,
                    "name": "E5",
                    "ticks": 133440,
                    "time": 69.5,
                    "velocity": 1
                },
                {
                    "duration": 0.25,
                    "durationTicks": 480,
                    "midi": 79,
                    "name": "G5",
                    "ticks": 133920,
                    "time": 69.75,
                    "velocity": 1
                },
                {
                    "duration": 0.25,
                    "durationTicks": 480,
                    "midi": 76,
                    "name": "E5",
                    "ticks": 133920,
                    "time": 69.75,
                    "velocity": 1
                },
                {
                    "duration": 0.25,
                    "durationTicks": 480,
                    "midi": 81,
                    "name": "A5",
                    "ticks": 134400,
                    "time": 70,
                    "velocity": 1
                },
                {
                    "duration": 0.25,
                    "durationTicks": 480,
                    "midi": 78,
                    "name": "F#5",
                    "ticks": 134400,
                    "time": 70,
                    "velocity": 1
                },
                {
                    "duration": 0.25,
                    "durationTicks": 480,
                    "midi": 74,
                    "name": "D5",
                    "ticks": 139680,
                    "time": 72.75,
                    "velocity": 1
                },
                {
                    "duration": 0.25,
                    "durationTicks": 480,
                    "midi": 69,
                    "name": "A4",
                    "ticks": 139680,
                    "time": 72.75,
                    "velocity": 1
                },
                {
                    "duration": 0.25,
                    "durationTicks": 480,
                    "midi": 83,
                    "name": "B5",
                    "ticks": 140160,
                    "time": 73,
                    "velocity": 1
                },
                {
                    "duration": 0.25,
                    "durationTicks": 480,
                    "midi": 79,
                    "name": "G5",
                    "ticks": 140160,
                    "time": 73,
                    "velocity": 1
                },
                {
                    "duration": 0.25,
                    "durationTicks": 480,
                    "midi": 81,
                    "name": "A5",
                    "ticks": 140640,
                    "time": 73.25,
                    "velocity": 1
                },
                {
                    "duration": 0.25,
                    "durationTicks": 480,
                    "midi": 78,
                    "name": "F#5",
                    "ticks": 140640,
                    "time": 73.25,
                    "velocity": 1
                },
                {
                    "duration": 0.25,
                    "durationTicks": 480,
                    "midi": 79,
                    "name": "G5",
                    "ticks": 141120,
                    "time": 73.5,
                    "velocity": 1
                },
                {
                    "duration": 0.25,
                    "durationTicks": 480,
                    "midi": 76,
                    "name": "E5",
                    "ticks": 141120,
                    "time": 73.5,
                    "velocity": 1
                },
                {
                    "duration": 0.5,
                    "durationTicks": 960,
                    "midi": 79,
                    "name": "G5",
                    "ticks": 141600,
                    "time": 73.75,
                    "velocity": 1
                },
                {
                    "duration": 0.5,
                    "durationTicks": 960,
                    "midi": 76,
                    "name": "E5",
                    "ticks": 141600,
                    "time": 73.75,
                    "velocity": 1
                },
                {
                    "duration": 0.25,
                    "durationTicks": 480,
                    "midi": 81,
                    "name": "A5",
                    "ticks": 143040,
                    "time": 74.5,
                    "velocity": 1
                },
                {
                    "duration": 0.25,
                    "durationTicks": 480,
                    "midi": 78,
                    "name": "F#5",
                    "ticks": 143040,
                    "time": 74.5,
                    "velocity": 1
                },
                {
                    "duration": 0.5,
                    "durationTicks": 960,
                    "midi": 78,
                    "name": "F#5",
                    "ticks": 143520,
                    "time": 74.75,
                    "velocity": 1
                },
                {
                    "duration": 0.5,
                    "durationTicks": 960,
                    "midi": 74,
                    "name": "D5",
                    "ticks": 143520,
                    "time": 74.75,
                    "velocity": 1
                },
                {
                    "duration": 0.25,
                    "durationTicks": 480,
                    "midi": 79,
                    "name": "G5",
                    "ticks": 144960,
                    "time": 75.5,
                    "velocity": 1
                },
                {
                    "duration": 0.25,
                    "durationTicks": 480,
                    "midi": 76,
                    "name": "E5",
                    "ticks": 144960,
                    "time": 75.5,
                    "velocity": 1
                },
                {
                    "duration": 0.5,
                    "durationTicks": 960,
                    "midi": 74,
                    "name": "D5",
                    "ticks": 145440,
                    "time": 75.75,
                    "velocity": 1
                },
                {
                    "duration": 0.5,
                    "durationTicks": 960,
                    "midi": 69,
                    "name": "A4",
                    "ticks": 145440,
                    "time": 75.75,
                    "velocity": 1
                },
                {
                    "duration": 0.5,
                    "durationTicks": 960,
                    "midi": 76,
                    "name": "E5",
                    "ticks": 149760,
                    "time": 78,
                    "velocity": 1
                },
                {
                    "duration": 0.25,
                    "durationTicks": 480,
                    "midi": 78,
                    "name": "F#5",
                    "ticks": 150720,
                    "time": 78.5,
                    "velocity": 1
                },
                {
                    "duration": 0.75,
                    "durationTicks": 1440,
                    "midi": 79,
                    "name": "G5",
                    "ticks": 151200,
                    "time": 78.75,
                    "velocity": 1
                },
                {
                    "duration": 0.5,
                    "durationTicks": 960,
                    "midi": 76,
                    "name": "E5",
                    "ticks": 152640,
                    "time": 79.5,
                    "velocity": 1
                },
                {
                    "duration": 0.5,
                    "durationTicks": 960,
                    "midi": 73,
                    "name": "C#5",
                    "ticks": 153600,
                    "time": 80,
                    "velocity": 1
                },
                {
                    "duration": 0.25,
                    "durationTicks": 480,
                    "midi": 74,
                    "name": "D5",
                    "ticks": 154560,
                    "time": 80.5,
                    "velocity": 1
                },
                {
                    "duration": 0.25,
                    "durationTicks": 480,
                    "midi": 76,
                    "name": "E5",
                    "ticks": 155040,
                    "time": 80.75,
                    "velocity": 1
                },
                {
                    "duration": 0.25,
                    "durationTicks": 480,
                    "midi": 69,
                    "name": "A4",
                    "ticks": 156000,
                    "time": 81.25,
                    "velocity": 1
                },
                {
                    "duration": 0.25,
                    "durationTicks": 480,
                    "midi": 74,
                    "name": "D5",
                    "ticks": 156480,
                    "time": 81.5,
                    "velocity": 1
                },
                {
                    "duration": 0.25,
                    "durationTicks": 480,
                    "midi": 76,
                    "name": "E5",
                    "ticks": 156960,
                    "time": 81.75,
                    "velocity": 1
                },
                {
                    "duration": 0.25,
                    "durationTicks": 480,
                    "midi": 77,
                    "name": "F5",
                    "ticks": 157440,
                    "time": 82,
                    "velocity": 1
                },
                {
                    "duration": 0.25,
                    "durationTicks": 480,
                    "midi": 76,
                    "name": "E5",
                    "ticks": 157920,
                    "time": 82.25,
                    "velocity": 1
                },
                {
                    "duration": 0.25,
                    "durationTicks": 480,
                    "midi": 74,
                    "name": "D5",
                    "ticks": 158400,
                    "time": 82.5,
                    "velocity": 1
                },
                {
                    "duration": 0.25,
                    "durationTicks": 480,
                    "midi": 72,
                    "name": "C5",
                    "ticks": 158880,
                    "time": 82.75,
                    "velocity": 1
                },
                {
                    "duration": 0.25,
                    "durationTicks": 480,
                    "midi": 69,
                    "name": "A4",
                    "ticks": 160320,
                    "time": 83.5,
                    "velocity": 1
                },
                {
                    "duration": 0.25,
                    "durationTicks": 480,
                    "midi": 70,
                    "name": "A#4",
                    "ticks": 160800,
                    "time": 83.75,
                    "velocity": 1
                },
                {
                    "duration": 0.5,
                    "durationTicks": 960,
                    "midi": 72,
                    "name": "C5",
                    "ticks": 161280,
                    "time": 84,
                    "velocity": 1
                },
                {
                    "duration": 0.5,
                    "durationTicks": 960,
                    "midi": 77,
                    "name": "F5",
                    "ticks": 162240,
                    "time": 84.5,
                    "velocity": 1
                },
                {
                    "duration": 0.25,
                    "durationTicks": 480,
                    "midi": 76,
                    "name": "E5",
                    "ticks": 163200,
                    "time": 85,
                    "velocity": 1
                },
                {
                    "duration": 0.25,
                    "durationTicks": 480,
                    "midi": 74,
                    "name": "D5",
                    "ticks": 163680,
                    "time": 85.25,
                    "velocity": 1
                },
                {
                    "duration": 0.25,
                    "durationTicks": 480,
                    "midi": 74,
                    "name": "D5",
                    "ticks": 164160,
                    "time": 85.5,
                    "velocity": 1
                },
                {
                    "duration": 0.25,
                    "durationTicks": 480,
                    "midi": 72,
                    "name": "C5",
                    "ticks": 164640,
                    "time": 85.75,
                    "velocity": 1
                },
                {
                    "duration": 0.25,
                    "durationTicks": 480,
                    "midi": 74,
                    "name": "D5",
                    "ticks": 165120,
                    "time": 86,
                    "velocity": 1
                },
                {
                    "duration": 0.25,
                    "durationTicks": 480,
                    "midi": 72,
                    "name": "C5",
                    "ticks": 165600,
                    "time": 86.25,
                    "velocity": 1
                },
                {
                    "duration": 0.5,
                    "durationTicks": 960,
                    "midi": 72,
                    "name": "C5",
                    "ticks": 166080,
                    "time": 86.5,
                    "velocity": 1
                },
                {
                    "duration": 0.5,
                    "durationTicks": 960,
                    "midi": 72,
                    "name": "C5",
                    "ticks": 167040,
                    "time": 87,
                    "velocity": 1
                },
                {
                    "duration": 0.25,
                    "durationTicks": 480,
                    "midi": 69,
                    "name": "A4",
                    "ticks": 168000,
                    "time": 87.5,
                    "velocity": 1
                },
                {
                    "duration": 0.25,
                    "durationTicks": 480,
                    "midi": 70,
                    "name": "A#4",
                    "ticks": 168480,
                    "time": 87.75,
                    "velocity": 1
                },
                {
                    "duration": 0.5,
                    "durationTicks": 960,
                    "midi": 72,
                    "name": "C5",
                    "ticks": 168960,
                    "time": 88,
                    "velocity": 1
                },
                {
                    "duration": 0.5,
                    "durationTicks": 960,
                    "midi": 77,
                    "name": "F5",
                    "ticks": 169920,
                    "time": 88.5,
                    "velocity": 1
                },
                {
                    "duration": 0.25,
                    "durationTicks": 480,
                    "midi": 79,
                    "name": "G5",
                    "ticks": 170880,
                    "time": 89,
                    "velocity": 1
                },
                {
                    "duration": 0.25,
                    "durationTicks": 480,
                    "midi": 77,
                    "name": "F5",
                    "ticks": 171360,
                    "time": 89.25,
                    "velocity": 1
                },
                {
                    "duration": 0.25,
                    "durationTicks": 480,
                    "midi": 76,
                    "name": "E5",
                    "ticks": 171840,
                    "time": 89.5,
                    "velocity": 1
                },
                {
                    "duration": 0.25,
                    "durationTicks": 480,
                    "midi": 74,
                    "name": "D5",
                    "ticks": 172320,
                    "time": 89.75,
                    "velocity": 1
                },
                {
                    "duration": 0.25,
                    "durationTicks": 480,
                    "midi": 74,
                    "name": "D5",
                    "ticks": 172800,
                    "time": 90,
                    "velocity": 1
                },
                {
                    "duration": 0.25,
                    "durationTicks": 480,
                    "midi": 76,
                    "name": "E5",
                    "ticks": 173280,
                    "time": 90.25,
                    "velocity": 1
                },
                {
                    "duration": 0.5,
                    "durationTicks": 960,
                    "midi": 77,
                    "name": "F5",
                    "ticks": 173760,
                    "time": 90.5,
                    "velocity": 1
                },
                {
                    "duration": 0.5,
                    "durationTicks": 960,
                    "midi": 77,
                    "name": "F5",
                    "ticks": 174720,
                    "time": 91,
                    "velocity": 1
                },
                {
                    "duration": 0.25,
                    "durationTicks": 480,
                    "midi": 79,
                    "name": "G5",
                    "ticks": 175680,
                    "time": 91.5,
                    "velocity": 1
                },
                {
                    "duration": 0.25,
                    "durationTicks": 480,
                    "midi": 81,
                    "name": "A5",
                    "ticks": 176160,
                    "time": 91.75,
                    "velocity": 1
                },
                {
                    "duration": 0.25,
                    "durationTicks": 480,
                    "midi": 82,
                    "name": "A#5",
                    "ticks": 176640,
                    "time": 92,
                    "velocity": 1
                },
                {
                    "duration": 0.25,
                    "durationTicks": 480,
                    "midi": 82,
                    "name": "A#5",
                    "ticks": 177120,
                    "time": 92.25,
                    "velocity": 1
                },
                {
                    "duration": 0.5,
                    "durationTicks": 960,
                    "midi": 81,
                    "name": "A5",
                    "ticks": 177600,
                    "time": 92.5,
                    "velocity": 1
                },
                {
                    "duration": 0.5,
                    "durationTicks": 960,
                    "midi": 79,
                    "name": "G5",
                    "ticks": 178560,
                    "time": 93,
                    "velocity": 1
                },
                {
                    "duration": 0.25,
                    "durationTicks": 480,
                    "midi": 77,
                    "name": "F5",
                    "ticks": 179520,
                    "time": 93.5,
                    "velocity": 1
                },
                {
                    "duration": 0.25,
                    "durationTicks": 480,
                    "midi": 79,
                    "name": "G5",
                    "ticks": 180000,
                    "time": 93.75,
                    "velocity": 1
                },
                {
                    "duration": 0.25,
                    "durationTicks": 480,
                    "midi": 81,
                    "name": "A5",
                    "ticks": 180480,
                    "time": 94,
                    "velocity": 1
                },
                {
                    "duration": 0.25,
                    "durationTicks": 480,
                    "midi": 81,
                    "name": "A5",
                    "ticks": 180960,
                    "time": 94.25,
                    "velocity": 1
                },
                {
                    "duration": 0.25,
                    "durationTicks": 480,
                    "midi": 79,
                    "name": "G5",
                    "ticks": 181440,
                    "time": 94.5,
                    "velocity": 1
                },
                {
                    "duration": 0.25,
                    "durationTicks": 480,
                    "midi": 77,
                    "name": "F5",
                    "ticks": 181920,
                    "time": 94.75,
                    "velocity": 1
                },
                {
                    "duration": 0.5,
                    "durationTicks": 960,
                    "midi": 77,
                    "name": "F5",
                    "ticks": 182400,
                    "time": 95,
                    "velocity": 1
                },
                {
                    "duration": 0.25,
                    "durationTicks": 480,
                    "midi": 74,
                    "name": "D5",
                    "ticks": 183360,
                    "time": 95.5,
                    "velocity": 1
                },
                {
                    "duration": 0.25,
                    "durationTicks": 480,
                    "midi": 72,
                    "name": "C5",
                    "ticks": 183840,
                    "time": 95.75,
                    "velocity": 1
                },
                {
                    "duration": 0.25,
                    "durationTicks": 480,
                    "midi": 74,
                    "name": "D5",
                    "ticks": 184320,
                    "time": 96,
                    "velocity": 1
                },
                {
                    "duration": 0.25,
                    "durationTicks": 480,
                    "midi": 77,
                    "name": "F5",
                    "ticks": 184800,
                    "time": 96.25,
                    "velocity": 1
                },
                {
                    "duration": 0.25,
                    "durationTicks": 480,
                    "midi": 77,
                    "name": "F5",
                    "ticks": 185280,
                    "time": 96.5,
                    "velocity": 1
                },
                {
                    "duration": 0.5,
                    "durationTicks": 960,
                    "midi": 76,
                    "name": "E5",
                    "ticks": 185760,
                    "time": 96.75,
                    "velocity": 1
                },
                {
                    "duration": 0.25,
                    "durationTicks": 480,
                    "midi": 76,
                    "name": "E5",
                    "ticks": 186720,
                    "time": 97.25,
                    "velocity": 1
                },
                {
                    "duration": 0.25,
                    "durationTicks": 480,
                    "midi": 78,
                    "name": "F#5",
                    "ticks": 187200,
                    "time": 97.5,
                    "velocity": 1
                },
                {
                    "duration": 1,
                    "durationTicks": 1920,
                    "midi": 78,
                    "name": "F#5",
                    "ticks": 187680,
                    "time": 97.75,
                    "velocity": 1
                },
                {
                    "duration": 0.125,
                    "durationTicks": 240,
                    "midi": 79,
                    "name": "G5",
                    "ticks": 201600,
                    "time": 105,
                    "velocity": 1
                },
                {
                    "duration": 0.125,
                    "durationTicks": 240,
                    "midi": 79,
                    "name": "G5",
                    "ticks": 201840,
                    "time": 105.125,
                    "velocity": 1
                },
                {
                    "duration": 0.25,
                    "durationTicks": 480,
                    "midi": 78,
                    "name": "F#5",
                    "ticks": 202080,
                    "time": 105.25,
                    "velocity": 1
                },
                {
                    "duration": 0.25,
                    "durationTicks": 480,
                    "midi": 76,
                    "name": "E5",
                    "ticks": 202560,
                    "time": 105.5,
                    "velocity": 1
                },
                {
                    "duration": 0.375,
                    "durationTicks": 720,
                    "midi": 76,
                    "name": "E5",
                    "ticks": 203040,
                    "time": 105.75,
                    "velocity": 1
                },
                {
                    "duration": 0.375,
                    "durationTicks": 720,
                    "midi": 78,
                    "name": "F#5",
                    "ticks": 203760,
                    "time": 106.125,
                    "velocity": 1
                },
                {
                    "duration": 0.25,
                    "durationTicks": 480,
                    "midi": 69,
                    "name": "A4",
                    "ticks": 208800,
                    "time": 108.75,
                    "velocity": 1
                },
                {
                    "duration": 0.25,
                    "durationTicks": 480,
                    "midi": 79,
                    "name": "G5",
                    "ticks": 209280,
                    "time": 109,
                    "velocity": 1
                },
                {
                    "duration": 0.25,
                    "durationTicks": 480,
                    "midi": 78,
                    "name": "F#5",
                    "ticks": 209760,
                    "time": 109.25,
                    "velocity": 1
                },
                {
                    "duration": 0.25,
                    "durationTicks": 480,
                    "midi": 76,
                    "name": "E5",
                    "ticks": 210240,
                    "time": 109.5,
                    "velocity": 1
                },
                {
                    "duration": 0.5,
                    "durationTicks": 960,
                    "midi": 76,
                    "name": "E5",
                    "ticks": 210720,
                    "time": 109.75,
                    "velocity": 1
                },
                {
                    "duration": 0.25,
                    "durationTicks": 480,
                    "midi": 78,
                    "name": "F#5",
                    "ticks": 212160,
                    "time": 110.5,
                    "velocity": 1
                },
                {
                    "duration": 0.5,
                    "durationTicks": 960,
                    "midi": 74,
                    "name": "D5",
                    "ticks": 212640,
                    "time": 110.75,
                    "velocity": 1
                },
                {
                    "duration": 0.25,
                    "durationTicks": 480,
                    "midi": 76,
                    "name": "E5",
                    "ticks": 214080,
                    "time": 111.5,
                    "velocity": 1
                },
                {
                    "duration": 0.5,
                    "durationTicks": 960,
                    "midi": 69,
                    "name": "A4",
                    "ticks": 214560,
                    "time": 111.75,
                    "velocity": 1
                },
                {
                    "duration": 0.5,
                    "durationTicks": 960,
                    "midi": 76,
                    "name": "E5",
                    "ticks": 218880,
                    "time": 114,
                    "velocity": 1
                },
                {
                    "duration": 0.25,
                    "durationTicks": 480,
                    "midi": 78,
                    "name": "F#5",
                    "ticks": 219840,
                    "time": 114.5,
                    "velocity": 1
                },
                {
                    "duration": 0.75,
                    "durationTicks": 1440,
                    "midi": 79,
                    "name": "G5",
                    "ticks": 220320,
                    "time": 114.75,
                    "velocity": 1
                },
                {
                    "duration": 0.5,
                    "durationTicks": 960,
                    "midi": 76,
                    "name": "E5",
                    "ticks": 221760,
                    "time": 115.5,
                    "velocity": 1
                },
                {
                    "duration": 0.5,
                    "durationTicks": 960,
                    "midi": 73,
                    "name": "C#5",
                    "ticks": 222720,
                    "time": 116,
                    "velocity": 1
                },
                {
                    "duration": 0.25,
                    "durationTicks": 480,
                    "midi": 74,
                    "name": "D5",
                    "ticks": 223680,
                    "time": 116.5,
                    "velocity": 1
                },
                {
                    "duration": 0.75,
                    "durationTicks": 1440,
                    "midi": 76,
                    "name": "E5",
                    "ticks": 224160,
                    "time": 116.75,
                    "velocity": 1
                },
                {
                    "duration": 0.25,
                    "durationTicks": 480,
                    "midi": 69,
                    "name": "A4",
                    "ticks": 225600,
                    "time": 117.5,
                    "velocity": 1
                },
                {
                    "duration": 0.5,
                    "durationTicks": 960,
                    "midi": 69,
                    "name": "A4",
                    "ticks": 226080,
                    "time": 117.75,
                    "velocity": 1
                },
                {
                    "duration": 0.5,
                    "durationTicks": 960,
                    "midi": 78,
                    "name": "F#5",
                    "ticks": 227040,
                    "time": 118.25,
                    "velocity": 1
                },
                {
                    "duration": 0.25,
                    "durationTicks": 480,
                    "midi": 83,
                    "name": "B5",
                    "ticks": 232320,
                    "time": 121,
                    "velocity": 1
                },
                {
                    "duration": 0.25,
                    "durationTicks": 480,
                    "midi": 79,
                    "name": "G5",
                    "ticks": 232320,
                    "time": 121,
                    "velocity": 1
                },
                {
                    "duration": 0.25,
                    "durationTicks": 480,
                    "midi": 81,
                    "name": "A5",
                    "ticks": 232800,
                    "time": 121.25,
                    "velocity": 1
                },
                {
                    "duration": 0.25,
                    "durationTicks": 480,
                    "midi": 78,
                    "name": "F#5",
                    "ticks": 232800,
                    "time": 121.25,
                    "velocity": 1
                },
                {
                    "duration": 0.25,
                    "durationTicks": 480,
                    "midi": 79,
                    "name": "G5",
                    "ticks": 233280,
                    "time": 121.5,
                    "velocity": 1
                },
                {
                    "duration": 0.25,
                    "durationTicks": 480,
                    "midi": 76,
                    "name": "E5",
                    "ticks": 233280,
                    "time": 121.5,
                    "velocity": 1
                },
                {
                    "duration": 0.3125,
                    "durationTicks": 600,
                    "midi": 79,
                    "name": "G5",
                    "ticks": 233760,
                    "time": 121.75,
                    "velocity": 1
                },
                {
                    "duration": 0.3125,
                    "durationTicks": 600,
                    "midi": 76,
                    "name": "E5",
                    "ticks": 233760,
                    "time": 121.75,
                    "velocity": 1
                },
                {
                    "duration": 0.25,
                    "durationTicks": 480,
                    "midi": 81,
                    "name": "A5",
                    "ticks": 234360,
                    "time": 122.0625,
                    "velocity": 1
                },
                {
                    "duration": 0.25,
                    "durationTicks": 480,
                    "midi": 78,
                    "name": "F#5",
                    "ticks": 234360,
                    "time": 122.0625,
                    "velocity": 1
                },
                {
                    "duration": 0.25,
                    "durationTicks": 480,
                    "midi": 83,
                    "name": "B5",
                    "ticks": 240000,
                    "time": 125,
                    "velocity": 1
                },
                {
                    "duration": 0.25,
                    "durationTicks": 480,
                    "midi": 79,
                    "name": "G5",
                    "ticks": 240000,
                    "time": 125,
                    "velocity": 1
                },
                {
                    "duration": 0.25,
                    "durationTicks": 480,
                    "midi": 81,
                    "name": "A5",
                    "ticks": 240480,
                    "time": 125.25,
                    "velocity": 1
                },
                {
                    "duration": 0.25,
                    "durationTicks": 480,
                    "midi": 78,
                    "name": "F#5",
                    "ticks": 240480,
                    "time": 125.25,
                    "velocity": 1
                },
                {
                    "duration": 0.25,
                    "durationTicks": 480,
                    "midi": 79,
                    "name": "G5",
                    "ticks": 240960,
                    "time": 125.5,
                    "velocity": 1
                },
                {
                    "duration": 0.25,
                    "durationTicks": 480,
                    "midi": 76,
                    "name": "E5",
                    "ticks": 240960,
                    "time": 125.5,
                    "velocity": 1
                },
                {
                    "duration": 0.5,
                    "durationTicks": 960,
                    "midi": 79,
                    "name": "G5",
                    "ticks": 241440,
                    "time": 125.75,
                    "velocity": 1
                },
                {
                    "duration": 0.5,
                    "durationTicks": 960,
                    "midi": 76,
                    "name": "E5",
                    "ticks": 241440,
                    "time": 125.75,
                    "velocity": 1
                },
                {
                    "duration": 0.25,
                    "durationTicks": 480,
                    "midi": 81,
                    "name": "A5",
                    "ticks": 242880,
                    "time": 126.5,
                    "velocity": 1
                },
                {
                    "duration": 0.25,
                    "durationTicks": 480,
                    "midi": 78,
                    "name": "F#5",
                    "ticks": 242880,
                    "time": 126.5,
                    "velocity": 1
                },
                {
                    "duration": 0.5,
                    "durationTicks": 960,
                    "midi": 78,
                    "name": "F#5",
                    "ticks": 243360,
                    "time": 126.75,
                    "velocity": 1
                },
                {
                    "duration": 0.5,
                    "durationTicks": 960,
                    "midi": 74,
                    "name": "D5",
                    "ticks": 243360,
                    "time": 126.75,
                    "velocity": 1
                },
                {
                    "duration": 0.25,
                    "durationTicks": 480,
                    "midi": 79,
                    "name": "G5",
                    "ticks": 244800,
                    "time": 127.5,
                    "velocity": 1
                },
                {
                    "duration": 0.25,
                    "durationTicks": 480,
                    "midi": 76,
                    "name": "E5",
                    "ticks": 244800,
                    "time": 127.5,
                    "velocity": 1
                },
                {
                    "duration": 0.5,
                    "durationTicks": 960,
                    "midi": 74,
                    "name": "D5",
                    "ticks": 245280,
                    "time": 127.75,
                    "velocity": 1
                },
                {
                    "duration": 0.5,
                    "durationTicks": 960,
                    "midi": 69,
                    "name": "A4",
                    "ticks": 245280,
                    "time": 127.75,
                    "velocity": 1
                },
                {
                    "duration": 0.5,
                    "durationTicks": 960,
                    "midi": 76,
                    "name": "E5",
                    "ticks": 249600,
                    "time": 130,
                    "velocity": 1
                },
                {
                    "duration": 0.25,
                    "durationTicks": 480,
                    "midi": 78,
                    "name": "F#5",
                    "ticks": 250560,
                    "time": 130.5,
                    "velocity": 1
                },
                {
                    "duration": 0.75,
                    "durationTicks": 1440,
                    "midi": 79,
                    "name": "G5",
                    "ticks": 251040,
                    "time": 130.75,
                    "velocity": 1
                },
                {
                    "duration": 0.5,
                    "durationTicks": 960,
                    "midi": 76,
                    "name": "E5",
                    "ticks": 252480,
                    "time": 131.5,
                    "velocity": 1
                },
                {
                    "duration": 0.5,
                    "durationTicks": 960,
                    "midi": 73,
                    "name": "C#5",
                    "ticks": 253440,
                    "time": 132,
                    "velocity": 1
                },
                {
                    "duration": 0.25,
                    "durationTicks": 480,
                    "midi": 74,
                    "name": "D5",
                    "ticks": 254400,
                    "time": 132.5,
                    "velocity": 1
                },
                {
                    "duration": 0.25,
                    "durationTicks": 480,
                    "midi": 76,
                    "name": "E5",
                    "ticks": 254880,
                    "time": 132.75,
                    "velocity": 1
                },
                {
                    "duration": 0.25,
                    "durationTicks": 480,
                    "midi": 69,
                    "name": "A4",
                    "ticks": 255840,
                    "time": 133.25,
                    "velocity": 1
                },
                {
                    "duration": 0.25,
                    "durationTicks": 480,
                    "midi": 74,
                    "name": "D5",
                    "ticks": 256320,
                    "time": 133.5,
                    "velocity": 1
                },
                {
                    "duration": 0.25,
                    "durationTicks": 480,
                    "midi": 76,
                    "name": "E5",
                    "ticks": 256800,
                    "time": 133.75,
                    "velocity": 1
                },
                {
                    "duration": 0.25,
                    "durationTicks": 480,
                    "midi": 77,
                    "name": "F5",
                    "ticks": 257280,
                    "time": 134,
                    "velocity": 1
                },
                {
                    "duration": 0.25,
                    "durationTicks": 480,
                    "midi": 76,
                    "name": "E5",
                    "ticks": 257760,
                    "time": 134.25,
                    "velocity": 1
                },
                {
                    "duration": 0.25,
                    "durationTicks": 480,
                    "midi": 74,
                    "name": "D5",
                    "ticks": 258240,
                    "time": 134.5,
                    "velocity": 1
                },
                {
                    "duration": 0.25,
                    "durationTicks": 480,
                    "midi": 72,
                    "name": "C5",
                    "ticks": 258720,
                    "time": 134.75,
                    "velocity": 1
                },
                {
                    "duration": 0.25,
                    "durationTicks": 480,
                    "midi": 69,
                    "name": "A4",
                    "ticks": 260160,
                    "time": 135.5,
                    "velocity": 1
                },
                {
                    "duration": 0.25,
                    "durationTicks": 480,
                    "midi": 70,
                    "name": "A#4",
                    "ticks": 260640,
                    "time": 135.75,
                    "velocity": 1
                },
                {
                    "duration": 0.5,
                    "durationTicks": 960,
                    "midi": 72,
                    "name": "C5",
                    "ticks": 261120,
                    "time": 136,
                    "velocity": 1
                },
                {
                    "duration": 0.5,
                    "durationTicks": 960,
                    "midi": 77,
                    "name": "F5",
                    "ticks": 262080,
                    "time": 136.5,
                    "velocity": 1
                },
                {
                    "duration": 0.25,
                    "durationTicks": 480,
                    "midi": 76,
                    "name": "E5",
                    "ticks": 263040,
                    "time": 137,
                    "velocity": 1
                },
                {
                    "duration": 0.25,
                    "durationTicks": 480,
                    "midi": 74,
                    "name": "D5",
                    "ticks": 263520,
                    "time": 137.25,
                    "velocity": 1
                },
                {
                    "duration": 0.25,
                    "durationTicks": 480,
                    "midi": 74,
                    "name": "D5",
                    "ticks": 264000,
                    "time": 137.5,
                    "velocity": 1
                },
                {
                    "duration": 0.25,
                    "durationTicks": 480,
                    "midi": 72,
                    "name": "C5",
                    "ticks": 264480,
                    "time": 137.75,
                    "velocity": 1
                },
                {
                    "duration": 0.25,
                    "durationTicks": 480,
                    "midi": 74,
                    "name": "D5",
                    "ticks": 264960,
                    "time": 138,
                    "velocity": 1
                },
                {
                    "duration": 0.25,
                    "durationTicks": 480,
                    "midi": 72,
                    "name": "C5",
                    "ticks": 265440,
                    "time": 138.25,
                    "velocity": 1
                },
                {
                    "duration": 0.5,
                    "durationTicks": 960,
                    "midi": 72,
                    "name": "C5",
                    "ticks": 265920,
                    "time": 138.5,
                    "velocity": 1
                },
                {
                    "duration": 0.5,
                    "durationTicks": 960,
                    "midi": 72,
                    "name": "C5",
                    "ticks": 266880,
                    "time": 139,
                    "velocity": 1
                },
                {
                    "duration": 0.25,
                    "durationTicks": 480,
                    "midi": 69,
                    "name": "A4",
                    "ticks": 267840,
                    "time": 139.5,
                    "velocity": 1
                },
                {
                    "duration": 0.25,
                    "durationTicks": 480,
                    "midi": 70,
                    "name": "A#4",
                    "ticks": 268320,
                    "time": 139.75,
                    "velocity": 1
                },
                {
                    "duration": 0.5,
                    "durationTicks": 960,
                    "midi": 72,
                    "name": "C5",
                    "ticks": 268800,
                    "time": 140,
                    "velocity": 1
                },
                {
                    "duration": 0.5,
                    "durationTicks": 960,
                    "midi": 77,
                    "name": "F5",
                    "ticks": 269760,
                    "time": 140.5,
                    "velocity": 1
                },
                {
                    "duration": 0.25,
                    "durationTicks": 480,
                    "midi": 79,
                    "name": "G5",
                    "ticks": 270720,
                    "time": 141,
                    "velocity": 1
                },
                {
                    "duration": 0.25,
                    "durationTicks": 480,
                    "midi": 77,
                    "name": "F5",
                    "ticks": 271200,
                    "time": 141.25,
                    "velocity": 1
                },
                {
                    "duration": 0.25,
                    "durationTicks": 480,
                    "midi": 76,
                    "name": "E5",
                    "ticks": 271680,
                    "time": 141.5,
                    "velocity": 1
                },
                {
                    "duration": 0.25,
                    "durationTicks": 480,
                    "midi": 74,
                    "name": "D5",
                    "ticks": 272160,
                    "time": 141.75,
                    "velocity": 1
                },
                {
                    "duration": 0.25,
                    "durationTicks": 480,
                    "midi": 74,
                    "name": "D5",
                    "ticks": 272640,
                    "time": 142,
                    "velocity": 1
                },
                {
                    "duration": 0.25,
                    "durationTicks": 480,
                    "midi": 76,
                    "name": "E5",
                    "ticks": 273120,
                    "time": 142.25,
                    "velocity": 1
                },
                {
                    "duration": 0.5,
                    "durationTicks": 960,
                    "midi": 77,
                    "name": "F5",
                    "ticks": 273600,
                    "time": 142.5,
                    "velocity": 1
                },
                {
                    "duration": 0.5,
                    "durationTicks": 960,
                    "midi": 77,
                    "name": "F5",
                    "ticks": 274560,
                    "time": 143,
                    "velocity": 1
                },
                {
                    "duration": 0.25,
                    "durationTicks": 480,
                    "midi": 79,
                    "name": "G5",
                    "ticks": 275520,
                    "time": 143.5,
                    "velocity": 1
                },
                {
                    "duration": 0.25,
                    "durationTicks": 480,
                    "midi": 81,
                    "name": "A5",
                    "ticks": 276000,
                    "time": 143.75,
                    "velocity": 1
                },
                {
                    "duration": 0.25,
                    "durationTicks": 480,
                    "midi": 82,
                    "name": "A#5",
                    "ticks": 276480,
                    "time": 144,
                    "velocity": 1
                },
                {
                    "duration": 0.25,
                    "durationTicks": 480,
                    "midi": 82,
                    "name": "A#5",
                    "ticks": 276960,
                    "time": 144.25,
                    "velocity": 1
                },
                {
                    "duration": 0.25,
                    "durationTicks": 480,
                    "midi": 81,
                    "name": "A5",
                    "ticks": 277440,
                    "time": 144.5,
                    "velocity": 1
                },
                {
                    "duration": 0.25,
                    "durationTicks": 480,
                    "midi": 79,
                    "name": "G5",
                    "ticks": 277920,
                    "time": 144.75,
                    "velocity": 1
                },
                {
                    "duration": 0.5,
                    "durationTicks": 960,
                    "midi": 79,
                    "name": "G5",
                    "ticks": 278400,
                    "time": 145,
                    "velocity": 1
                },
                {
                    "duration": 0.25,
                    "durationTicks": 480,
                    "midi": 77,
                    "name": "F5",
                    "ticks": 279360,
                    "time": 145.5,
                    "velocity": 1
                },
                {
                    "duration": 0.25,
                    "durationTicks": 480,
                    "midi": 79,
                    "name": "G5",
                    "ticks": 279840,
                    "time": 145.75,
                    "velocity": 1
                },
                {
                    "duration": 0.25,
                    "durationTicks": 480,
                    "midi": 81,
                    "name": "A5",
                    "ticks": 280320,
                    "time": 146,
                    "velocity": 1
                },
                {
                    "duration": 0.25,
                    "durationTicks": 480,
                    "midi": 81,
                    "name": "A5",
                    "ticks": 280800,
                    "time": 146.25,
                    "velocity": 1
                },
                {
                    "duration": 0.25,
                    "durationTicks": 480,
                    "midi": 79,
                    "name": "G5",
                    "ticks": 281280,
                    "time": 146.5,
                    "velocity": 1
                },
                {
                    "duration": 0.25,
                    "durationTicks": 480,
                    "midi": 77,
                    "name": "F5",
                    "ticks": 281760,
                    "time": 146.75,
                    "velocity": 1
                },
                {
                    "duration": 0.5,
                    "durationTicks": 960,
                    "midi": 77,
                    "name": "F5",
                    "ticks": 282240,
                    "time": 147,
                    "velocity": 1
                },
                {
                    "duration": 0.25,
                    "durationTicks": 480,
                    "midi": 74,
                    "name": "D5",
                    "ticks": 283200,
                    "time": 147.5,
                    "velocity": 1
                },
                {
                    "duration": 0.25,
                    "durationTicks": 480,
                    "midi": 72,
                    "name": "C5",
                    "ticks": 283680,
                    "time": 147.75,
                    "velocity": 1
                },
                {
                    "duration": 0.25,
                    "durationTicks": 480,
                    "midi": 74,
                    "name": "D5",
                    "ticks": 284160,
                    "time": 148,
                    "velocity": 1
                },
                {
                    "duration": 0.25,
                    "durationTicks": 480,
                    "midi": 77,
                    "name": "F5",
                    "ticks": 284640,
                    "time": 148.25,
                    "velocity": 1
                },
                {
                    "duration": 0.25,
                    "durationTicks": 480,
                    "midi": 77,
                    "name": "F5",
                    "ticks": 285120,
                    "time": 148.5,
                    "velocity": 1
                },
                {
                    "duration": 0.5,
                    "durationTicks": 960,
                    "midi": 76,
                    "name": "E5",
                    "ticks": 285600,
                    "time": 148.75,
                    "velocity": 1
                },
                {
                    "duration": 0.25,
                    "durationTicks": 480,
                    "midi": 76,
                    "name": "E5",
                    "ticks": 286560,
                    "time": 149.25,
                    "velocity": 1
                },
                {
                    "duration": 0.25,
                    "durationTicks": 480,
                    "midi": 78,
                    "name": "F#5",
                    "ticks": 287040,
                    "time": 149.5,
                    "velocity": 1
                },
                {
                    "duration": 1,
                    "durationTicks": 1920,
                    "midi": 78,
                    "name": "F#5",
                    "ticks": 287520,
                    "time": 149.75,
                    "velocity": 1
                },
                {
                    "duration": 0.25,
                    "durationTicks": 480,
                    "midi": 81,
                    "name": "A5",
                    "ticks": 290880,
                    "time": 151.5,
                    "velocity": 1
                },
                {
                    "duration": 0.25,
                    "durationTicks": 480,
                    "midi": 81,
                    "name": "A5",
                    "ticks": 291360,
                    "time": 151.75,
                    "velocity": 1
                },
                {
                    "duration": 0.25,
                    "durationTicks": 480,
                    "midi": 83,
                    "name": "B5",
                    "ticks": 291840,
                    "time": 152,
                    "velocity": 1
                },
                {
                    "duration": 0.25,
                    "durationTicks": 480,
                    "midi": 81,
                    "name": "A5",
                    "ticks": 292320,
                    "time": 152.25,
                    "velocity": 1
                },
                {
                    "duration": 0.25,
                    "durationTicks": 480,
                    "midi": 78,
                    "name": "F#5",
                    "ticks": 292800,
                    "time": 152.5,
                    "velocity": 1
                },
                {
                    "duration": 0.5,
                    "durationTicks": 960,
                    "midi": 74,
                    "name": "D5",
                    "ticks": 293280,
                    "time": 152.75,
                    "velocity": 1
                },
                {
                    "duration": 0.25,
                    "durationTicks": 480,
                    "midi": 79,
                    "name": "G5",
                    "ticks": 294240,
                    "time": 153.25,
                    "velocity": 1
                },
                {
                    "duration": 0.25,
                    "durationTicks": 480,
                    "midi": 76,
                    "name": "E5",
                    "ticks": 294240,
                    "time": 153.25,
                    "velocity": 1
                },
                {
                    "duration": 0.25,
                    "durationTicks": 480,
                    "midi": 78,
                    "name": "F#5",
                    "ticks": 294720,
                    "time": 153.5,
                    "velocity": 1
                },
                {
                    "duration": 0.25,
                    "durationTicks": 480,
                    "midi": 81,
                    "name": "A5",
                    "ticks": 294720,
                    "time": 153.5,
                    "velocity": 1
                },
                {
                    "duration": 0.5,
                    "durationTicks": 960,
                    "midi": 78,
                    "name": "F#5",
                    "ticks": 295200,
                    "time": 153.75,
                    "velocity": 1
                },
                {
                    "duration": 0.5,
                    "durationTicks": 960,
                    "midi": 81,
                    "name": "A5",
                    "ticks": 295200,
                    "time": 153.75,
                    "velocity": 1
                },
                {
                    "duration": 0.25,
                    "durationTicks": 480,
                    "midi": 81,
                    "name": "A5",
                    "ticks": 298080,
                    "time": 155.25,
                    "velocity": 1
                },
                {
                    "duration": 0.25,
                    "durationTicks": 480,
                    "midi": 81,
                    "name": "A5",
                    "ticks": 298560,
                    "time": 155.5,
                    "velocity": 1
                },
                {
                    "duration": 0.25,
                    "durationTicks": 480,
                    "midi": 81,
                    "name": "A5",
                    "ticks": 299040,
                    "time": 155.75,
                    "velocity": 1
                },
                {
                    "duration": 0.25,
                    "durationTicks": 480,
                    "midi": 83,
                    "name": "B5",
                    "ticks": 299520,
                    "time": 156,
                    "velocity": 1
                },
                {
                    "duration": 0.25,
                    "durationTicks": 480,
                    "midi": 81,
                    "name": "A5",
                    "ticks": 300000,
                    "time": 156.25,
                    "velocity": 1
                },
                {
                    "duration": 0.25,
                    "durationTicks": 480,
                    "midi": 78,
                    "name": "F#5",
                    "ticks": 300480,
                    "time": 156.5,
                    "velocity": 1
                },
                {
                    "duration": 0.5,
                    "durationTicks": 960,
                    "midi": 74,
                    "name": "D5",
                    "ticks": 300960,
                    "time": 156.75,
                    "velocity": 1
                },
                {
                    "duration": 0.25,
                    "durationTicks": 480,
                    "midi": 79,
                    "name": "G5",
                    "ticks": 301920,
                    "time": 157.25,
                    "velocity": 1
                },
                {
                    "duration": 0.25,
                    "durationTicks": 480,
                    "midi": 76,
                    "name": "E5",
                    "ticks": 301920,
                    "time": 157.25,
                    "velocity": 1
                },
                {
                    "duration": 0.25,
                    "durationTicks": 480,
                    "midi": 81,
                    "name": "A5",
                    "ticks": 302400,
                    "time": 157.5,
                    "velocity": 1
                },
                {
                    "duration": 0.25,
                    "durationTicks": 480,
                    "midi": 78,
                    "name": "F#5",
                    "ticks": 302400,
                    "time": 157.5,
                    "velocity": 1
                },
                {
                    "duration": 0.5,
                    "durationTicks": 960,
                    "midi": 81,
                    "name": "A5",
                    "ticks": 302880,
                    "time": 157.75,
                    "velocity": 1
                },
                {
                    "duration": 0.5,
                    "durationTicks": 960,
                    "midi": 78,
                    "name": "F#5",
                    "ticks": 302880,
                    "time": 157.75,
                    "velocity": 1
                },
                {
                    "duration": 0.25,
                    "durationTicks": 480,
                    "midi": 81,
                    "name": "A5",
                    "ticks": 305760,
                    "time": 159.25,
                    "velocity": 1
                },
                {
                    "duration": 0.25,
                    "durationTicks": 480,
                    "midi": 81,
                    "name": "A5",
                    "ticks": 306240,
                    "time": 159.5,
                    "velocity": 1
                },
                {
                    "duration": 0.25,
                    "durationTicks": 480,
                    "midi": 81,
                    "name": "A5",
                    "ticks": 306720,
                    "time": 159.75,
                    "velocity": 1
                },
                {
                    "duration": 0.25,
                    "durationTicks": 480,
                    "midi": 83,
                    "name": "B5",
                    "ticks": 307200,
                    "time": 160,
                    "velocity": 1
                },
                {
                    "duration": 0.25,
                    "durationTicks": 480,
                    "midi": 81,
                    "name": "A5",
                    "ticks": 307680,
                    "time": 160.25,
                    "velocity": 1
                },
                {
                    "duration": 0.25,
                    "durationTicks": 480,
                    "midi": 78,
                    "name": "F#5",
                    "ticks": 308160,
                    "time": 160.5,
                    "velocity": 1
                },
                {
                    "duration": 0.5,
                    "durationTicks": 960,
                    "midi": 74,
                    "name": "D5",
                    "ticks": 308640,
                    "time": 160.75,
                    "velocity": 1
                },
                {
                    "duration": 0.25,
                    "durationTicks": 480,
                    "midi": 79,
                    "name": "G5",
                    "ticks": 309600,
                    "time": 161.25,
                    "velocity": 1
                },
                {
                    "duration": 0.25,
                    "durationTicks": 480,
                    "midi": 76,
                    "name": "E5",
                    "ticks": 309600,
                    "time": 161.25,
                    "velocity": 1
                },
                {
                    "duration": 0.25,
                    "durationTicks": 480,
                    "midi": 81,
                    "name": "A5",
                    "ticks": 310080,
                    "time": 161.5,
                    "velocity": 1
                },
                {
                    "duration": 0.25,
                    "durationTicks": 480,
                    "midi": 78,
                    "name": "F#5",
                    "ticks": 310080,
                    "time": 161.5,
                    "velocity": 1
                },
                {
                    "duration": 0.5,
                    "durationTicks": 960,
                    "midi": 81,
                    "name": "A5",
                    "ticks": 310560,
                    "time": 161.75,
                    "velocity": 1
                },
                {
                    "duration": 0.5,
                    "durationTicks": 960,
                    "midi": 78,
                    "name": "F#5",
                    "ticks": 310560,
                    "time": 161.75,
                    "velocity": 1
                },
                {
                    "duration": 0.25,
                    "durationTicks": 480,
                    "midi": 81,
                    "name": "A5",
                    "ticks": 313920,
                    "time": 163.5,
                    "velocity": 1
                },
                {
                    "duration": 0.25,
                    "durationTicks": 480,
                    "midi": 81,
                    "name": "A5",
                    "ticks": 314400,
                    "time": 163.75,
                    "velocity": 1
                },
                {
                    "duration": 0.25,
                    "durationTicks": 480,
                    "midi": 83,
                    "name": "B5",
                    "ticks": 314880,
                    "time": 164,
                    "velocity": 1
                },
                {
                    "duration": 0.25,
                    "durationTicks": 480,
                    "midi": 81,
                    "name": "A5",
                    "ticks": 315360,
                    "time": 164.25,
                    "velocity": 1
                },
                {
                    "duration": 0.25,
                    "durationTicks": 480,
                    "midi": 78,
                    "name": "F#5",
                    "ticks": 315840,
                    "time": 164.5,
                    "velocity": 1
                },
                {
                    "duration": 0.5,
                    "durationTicks": 960,
                    "midi": 74,
                    "name": "D5",
                    "ticks": 316320,
                    "time": 164.75,
                    "velocity": 1
                },
                {
                    "duration": 0.25,
                    "durationTicks": 480,
                    "midi": 79,
                    "name": "G5",
                    "ticks": 317280,
                    "time": 165.25,
                    "velocity": 1
                },
                {
                    "duration": 0.25,
                    "durationTicks": 480,
                    "midi": 76,
                    "name": "E5",
                    "ticks": 317280,
                    "time": 165.25,
                    "velocity": 1
                },
                {
                    "duration": 0.25,
                    "durationTicks": 480,
                    "midi": 81,
                    "name": "A5",
                    "ticks": 317760,
                    "time": 165.5,
                    "velocity": 1
                },
                {
                    "duration": 0.25,
                    "durationTicks": 480,
                    "midi": 78,
                    "name": "F#5",
                    "ticks": 317760,
                    "time": 165.5,
                    "velocity": 1
                },
                {
                    "duration": 0.5,
                    "durationTicks": 960,
                    "midi": 81,
                    "name": "A5",
                    "ticks": 318240,
                    "time": 165.75,
                    "velocity": 1
                },
                {
                    "duration": 0.5,
                    "durationTicks": 960,
                    "midi": 78,
                    "name": "F#5",
                    "ticks": 318240,
                    "time": 165.75,
                    "velocity": 1
                },
                {
                    "duration": 0.25,
                    "durationTicks": 480,
                    "midi": 81,
                    "name": "A5",
                    "ticks": 321120,
                    "time": 167.25,
                    "velocity": 1
                },
                {
                    "duration": 0.25,
                    "durationTicks": 480,
                    "midi": 81,
                    "name": "A5",
                    "ticks": 321600,
                    "time": 167.5,
                    "velocity": 1
                },
                {
                    "duration": 0.25,
                    "durationTicks": 480,
                    "midi": 81,
                    "name": "A5",
                    "ticks": 322080,
                    "time": 167.75,
                    "velocity": 1
                },
                {
                    "duration": 0.25,
                    "durationTicks": 480,
                    "midi": 83,
                    "name": "B5",
                    "ticks": 322560,
                    "time": 168,
                    "velocity": 1
                },
                {
                    "duration": 0.25,
                    "durationTicks": 480,
                    "midi": 81,
                    "name": "A5",
                    "ticks": 323040,
                    "time": 168.25,
                    "velocity": 1
                },
                {
                    "duration": 0.25,
                    "durationTicks": 480,
                    "midi": 78,
                    "name": "F#5",
                    "ticks": 323520,
                    "time": 168.5,
                    "velocity": 1
                },
                {
                    "duration": 0.5,
                    "durationTicks": 960,
                    "midi": 74,
                    "name": "D5",
                    "ticks": 324000,
                    "time": 168.75,
                    "velocity": 1
                },
                {
                    "duration": 0.25,
                    "durationTicks": 480,
                    "midi": 79,
                    "name": "G5",
                    "ticks": 324960,
                    "time": 169.25,
                    "velocity": 1
                },
                {
                    "duration": 0.25,
                    "durationTicks": 480,
                    "midi": 76,
                    "name": "E5",
                    "ticks": 324960,
                    "time": 169.25,
                    "velocity": 1
                },
                {
                    "duration": 0.25,
                    "durationTicks": 480,
                    "midi": 81,
                    "name": "A5",
                    "ticks": 325440,
                    "time": 169.5,
                    "velocity": 1
                },
                {
                    "duration": 0.25,
                    "durationTicks": 480,
                    "midi": 78,
                    "name": "F#5",
                    "ticks": 325440,
                    "time": 169.5,
                    "velocity": 1
                },
                {
                    "duration": 0.5,
                    "durationTicks": 960,
                    "midi": 81,
                    "name": "A5",
                    "ticks": 325920,
                    "time": 169.75,
                    "velocity": 1
                },
                {
                    "duration": 0.5,
                    "durationTicks": 960,
                    "midi": 78,
                    "name": "F#5",
                    "ticks": 325920,
                    "time": 169.75,
                    "velocity": 1
                },
                {
                    "duration": 0.25,
                    "durationTicks": 480,
                    "midi": 79,
                    "name": "G5",
                    "ticks": 328800,
                    "time": 171.25,
                    "velocity": 1
                },
                {
                    "duration": 0.25,
                    "durationTicks": 480,
                    "midi": 81,
                    "name": "A5",
                    "ticks": 329280,
                    "time": 171.5,
                    "velocity": 1
                },
                {
                    "duration": 0.5,
                    "durationTicks": 960,
                    "midi": 81,
                    "name": "A5",
                    "ticks": 329760,
                    "time": 171.75,
                    "velocity": 1
                },
                {
                    "duration": 0.25,
                    "durationTicks": 480,
                    "midi": 79,
                    "name": "G5",
                    "ticks": 332640,
                    "time": 173.25,
                    "velocity": 1
                },
                {
                    "duration": 0.25,
                    "durationTicks": 480,
                    "midi": 78,
                    "name": "F#5",
                    "ticks": 333120,
                    "time": 173.5,
                    "velocity": 1
                },
                {
                    "duration": 0.5,
                    "durationTicks": 960,
                    "midi": 78,
                    "name": "F#5",
                    "ticks": 333600,
                    "time": 173.75,
                    "velocity": 1
                }
            ]
        },
        {
            "channel": 1,
            "controlChanges": {
                "7": [
                    {
                        "number": 7,
                        "ticks": 0,
                        "time": 0,
                        "value": 0.7480314960629921
                    }
                ],
                "10": [
                    {
                        "number": 10,
                        "ticks": 0,
                        "time": 0,
                        "value": 0.10236220472440945
                    }
                ]
            },
            "pitchBends": [],
            "instrument": {
                "family": "strings",
                "number": 46,
                "name": "orchestral harp"
            },
            "name": "Guitar 1",
            "notes": [
                {
                    "duration": 0.25,
                    "durationTicks": 480,
                    "midi": 57,
                    "name": "A3",
                    "ticks": 3840,
                    "time": 2,
                    "velocity": 1
                },
                {
                    "duration": 0.25,
                    "durationTicks": 480,
                    "midi": 62,
                    "name": "D4",
                    "ticks": 4320,
                    "time": 2.25,
                    "velocity": 1
                },
                {
                    "duration": 0.25,
                    "durationTicks": 480,
                    "midi": 66,
                    "name": "F#4",
                    "ticks": 4800,
                    "time": 2.5,
                    "velocity": 1
                },
                {
                    "duration": 0.25,
                    "durationTicks": 480,
                    "midi": 62,
                    "name": "D4",
                    "ticks": 5280,
                    "time": 2.75,
                    "velocity": 1
                },
                {
                    "duration": 0.25,
                    "durationTicks": 480,
                    "midi": 59,
                    "name": "B3",
                    "ticks": 5760,
                    "time": 3,
                    "velocity": 1
                },
                {
                    "duration": 0.25,
                    "durationTicks": 480,
                    "midi": 62,
                    "name": "D4",
                    "ticks": 6240,
                    "time": 3.25,
                    "velocity": 1
                },
                {
                    "duration": 0.25,
                    "durationTicks": 480,
                    "midi": 66,
                    "name": "F#4",
                    "ticks": 6720,
                    "time": 3.5,
                    "velocity": 1
                },
                {
                    "duration": 0.25,
                    "durationTicks": 480,
                    "midi": 62,
                    "name": "D4",
                    "ticks": 7200,
                    "time": 3.75,
                    "velocity": 1
                },
                {
                    "duration": 0.25,
                    "durationTicks": 480,
                    "midi": 57,
                    "name": "A3",
                    "ticks": 7680,
                    "time": 4,
                    "velocity": 1
                },
                {
                    "duration": 0.25,
                    "durationTicks": 480,
                    "midi": 62,
                    "name": "D4",
                    "ticks": 8160,
                    "time": 4.25,
                    "velocity": 1
                },
                {
                    "duration": 0.25,
                    "durationTicks": 480,
                    "midi": 66,
                    "name": "F#4",
                    "ticks": 8640,
                    "time": 4.5,
                    "velocity": 1
                },
                {
                    "duration": 0.25,
                    "durationTicks": 480,
                    "midi": 62,
                    "name": "D4",
                    "ticks": 9120,
                    "time": 4.75,
                    "velocity": 1
                },
                {
                    "duration": 0.25,
                    "durationTicks": 480,
                    "midi": 59,
                    "name": "B3",
                    "ticks": 9600,
                    "time": 5,
                    "velocity": 1
                },
                {
                    "duration": 0.25,
                    "durationTicks": 480,
                    "midi": 62,
                    "name": "D4",
                    "ticks": 10080,
                    "time": 5.25,
                    "velocity": 1
                },
                {
                    "duration": 0.25,
                    "durationTicks": 480,
                    "midi": 66,
                    "name": "F#4",
                    "ticks": 10560,
                    "time": 5.5,
                    "velocity": 1
                },
                {
                    "duration": 0.25,
                    "durationTicks": 480,
                    "midi": 62,
                    "name": "D4",
                    "ticks": 11040,
                    "time": 5.75,
                    "velocity": 1
                },
                {
                    "duration": 0.25,
                    "durationTicks": 480,
                    "midi": 57,
                    "name": "A3",
                    "ticks": 11520,
                    "time": 6,
                    "velocity": 1
                },
                {
                    "duration": 0.25,
                    "durationTicks": 480,
                    "midi": 62,
                    "name": "D4",
                    "ticks": 12000,
                    "time": 6.25,
                    "velocity": 1
                },
                {
                    "duration": 0.25,
                    "durationTicks": 480,
                    "midi": 66,
                    "name": "F#4",
                    "ticks": 12480,
                    "time": 6.5,
                    "velocity": 1
                },
                {
                    "duration": 0.25,
                    "durationTicks": 480,
                    "midi": 62,
                    "name": "D4",
                    "ticks": 12960,
                    "time": 6.75,
                    "velocity": 1
                },
                {
                    "duration": 0.25,
                    "durationTicks": 480,
                    "midi": 59,
                    "name": "B3",
                    "ticks": 13440,
                    "time": 7,
                    "velocity": 1
                },
                {
                    "duration": 0.25,
                    "durationTicks": 480,
                    "midi": 62,
                    "name": "D4",
                    "ticks": 13920,
                    "time": 7.25,
                    "velocity": 1
                },
                {
                    "duration": 0.25,
                    "durationTicks": 480,
                    "midi": 66,
                    "name": "F#4",
                    "ticks": 14400,
                    "time": 7.5,
                    "velocity": 1
                },
                {
                    "duration": 0.25,
                    "durationTicks": 480,
                    "midi": 62,
                    "name": "D4",
                    "ticks": 14880,
                    "time": 7.75,
                    "velocity": 1
                },
                {
                    "duration": 0.25,
                    "durationTicks": 480,
                    "midi": 57,
                    "name": "A3",
                    "ticks": 15360,
                    "time": 8,
                    "velocity": 1
                },
                {
                    "duration": 0.25,
                    "durationTicks": 480,
                    "midi": 62,
                    "name": "D4",
                    "ticks": 15840,
                    "time": 8.25,
                    "velocity": 1
                },
                {
                    "duration": 0.25,
                    "durationTicks": 480,
                    "midi": 66,
                    "name": "F#4",
                    "ticks": 16320,
                    "time": 8.5,
                    "velocity": 1
                },
                {
                    "duration": 0.25,
                    "durationTicks": 480,
                    "midi": 62,
                    "name": "D4",
                    "ticks": 16800,
                    "time": 8.75,
                    "velocity": 1
                },
                {
                    "duration": 0.25,
                    "durationTicks": 480,
                    "midi": 59,
                    "name": "B3",
                    "ticks": 17280,
                    "time": 9,
                    "velocity": 1
                },
                {
                    "duration": 0.25,
                    "durationTicks": 480,
                    "midi": 62,
                    "name": "D4",
                    "ticks": 17760,
                    "time": 9.25,
                    "velocity": 1
                },
                {
                    "duration": 0.25,
                    "durationTicks": 480,
                    "midi": 66,
                    "name": "F#4",
                    "ticks": 18240,
                    "time": 9.5,
                    "velocity": 1
                },
                {
                    "duration": 0.25,
                    "durationTicks": 480,
                    "midi": 62,
                    "name": "D4",
                    "ticks": 18720,
                    "time": 9.75,
                    "velocity": 1
                },
                {
                    "duration": 0.25,
                    "durationTicks": 480,
                    "midi": 59,
                    "name": "B3",
                    "ticks": 19200,
                    "time": 10,
                    "velocity": 1
                },
                {
                    "duration": 0.25,
                    "durationTicks": 480,
                    "midi": 64,
                    "name": "E4",
                    "ticks": 19680,
                    "time": 10.25,
                    "velocity": 1
                },
                {
                    "duration": 0.25,
                    "durationTicks": 480,
                    "midi": 67,
                    "name": "G4",
                    "ticks": 20160,
                    "time": 10.5,
                    "velocity": 1
                },
                {
                    "duration": 0.25,
                    "durationTicks": 480,
                    "midi": 64,
                    "name": "E4",
                    "ticks": 20640,
                    "time": 10.75,
                    "velocity": 1
                },
                {
                    "duration": 0.25,
                    "durationTicks": 480,
                    "midi": 59,
                    "name": "B3",
                    "ticks": 21120,
                    "time": 11,
                    "velocity": 1
                },
                {
                    "duration": 0.25,
                    "durationTicks": 480,
                    "midi": 64,
                    "name": "E4",
                    "ticks": 21600,
                    "time": 11.25,
                    "velocity": 1
                },
                {
                    "duration": 0.25,
                    "durationTicks": 480,
                    "midi": 67,
                    "name": "G4",
                    "ticks": 22080,
                    "time": 11.5,
                    "velocity": 1
                },
                {
                    "duration": 0.25,
                    "durationTicks": 480,
                    "midi": 64,
                    "name": "E4",
                    "ticks": 22560,
                    "time": 11.75,
                    "velocity": 1
                },
                {
                    "duration": 0.25,
                    "durationTicks": 480,
                    "midi": 57,
                    "name": "A3",
                    "ticks": 23040,
                    "time": 12,
                    "velocity": 1
                },
                {
                    "duration": 0.25,
                    "durationTicks": 480,
                    "midi": 61,
                    "name": "C#4",
                    "ticks": 23520,
                    "time": 12.25,
                    "velocity": 1
                },
                {
                    "duration": 0.25,
                    "durationTicks": 480,
                    "midi": 67,
                    "name": "G4",
                    "ticks": 24000,
                    "time": 12.5,
                    "velocity": 1
                },
                {
                    "duration": 0.25,
                    "durationTicks": 480,
                    "midi": 61,
                    "name": "C#4",
                    "ticks": 24480,
                    "time": 12.75,
                    "velocity": 1
                },
                {
                    "duration": 0.25,
                    "durationTicks": 480,
                    "midi": 57,
                    "name": "A3",
                    "ticks": 24960,
                    "time": 13,
                    "velocity": 1
                },
                {
                    "duration": 0.25,
                    "durationTicks": 480,
                    "midi": 61,
                    "name": "C#4",
                    "ticks": 25440,
                    "time": 13.25,
                    "velocity": 1
                },
                {
                    "duration": 0.25,
                    "durationTicks": 480,
                    "midi": 67,
                    "name": "G4",
                    "ticks": 25920,
                    "time": 13.5,
                    "velocity": 1
                },
                {
                    "duration": 0.25,
                    "durationTicks": 480,
                    "midi": 61,
                    "name": "C#4",
                    "ticks": 26400,
                    "time": 13.75,
                    "velocity": 1
                },
                {
                    "duration": 0.25,
                    "durationTicks": 480,
                    "midi": 57,
                    "name": "A3",
                    "ticks": 26880,
                    "time": 14,
                    "velocity": 1
                },
                {
                    "duration": 0.25,
                    "durationTicks": 480,
                    "midi": 62,
                    "name": "D4",
                    "ticks": 27360,
                    "time": 14.25,
                    "velocity": 1
                },
                {
                    "duration": 0.25,
                    "durationTicks": 480,
                    "midi": 66,
                    "name": "F#4",
                    "ticks": 27840,
                    "time": 14.5,
                    "velocity": 1
                },
                {
                    "duration": 0.25,
                    "durationTicks": 480,
                    "midi": 62,
                    "name": "D4",
                    "ticks": 28320,
                    "time": 14.75,
                    "velocity": 1
                },
                {
                    "duration": 0.25,
                    "durationTicks": 480,
                    "midi": 59,
                    "name": "B3",
                    "ticks": 28800,
                    "time": 15,
                    "velocity": 1
                },
                {
                    "duration": 0.25,
                    "durationTicks": 480,
                    "midi": 62,
                    "name": "D4",
                    "ticks": 29280,
                    "time": 15.25,
                    "velocity": 1
                },
                {
                    "duration": 0.25,
                    "durationTicks": 480,
                    "midi": 66,
                    "name": "F#4",
                    "ticks": 29760,
                    "time": 15.5,
                    "velocity": 1
                },
                {
                    "duration": 0.25,
                    "durationTicks": 480,
                    "midi": 62,
                    "name": "D4",
                    "ticks": 30240,
                    "time": 15.75,
                    "velocity": 1
                },
                {
                    "duration": 0.25,
                    "durationTicks": 480,
                    "midi": 57,
                    "name": "A3",
                    "ticks": 30720,
                    "time": 16,
                    "velocity": 1
                },
                {
                    "duration": 0.25,
                    "durationTicks": 480,
                    "midi": 62,
                    "name": "D4",
                    "ticks": 31200,
                    "time": 16.25,
                    "velocity": 1
                },
                {
                    "duration": 0.25,
                    "durationTicks": 480,
                    "midi": 66,
                    "name": "F#4",
                    "ticks": 31680,
                    "time": 16.5,
                    "velocity": 1
                },
                {
                    "duration": 0.25,
                    "durationTicks": 480,
                    "midi": 62,
                    "name": "D4",
                    "ticks": 32160,
                    "time": 16.75,
                    "velocity": 1
                },
                {
                    "duration": 0.25,
                    "durationTicks": 480,
                    "midi": 59,
                    "name": "B3",
                    "ticks": 32640,
                    "time": 17,
                    "velocity": 1
                },
                {
                    "duration": 0.25,
                    "durationTicks": 480,
                    "midi": 62,
                    "name": "D4",
                    "ticks": 33120,
                    "time": 17.25,
                    "velocity": 1
                },
                {
                    "duration": 0.25,
                    "durationTicks": 480,
                    "midi": 66,
                    "name": "F#4",
                    "ticks": 33600,
                    "time": 17.5,
                    "velocity": 1
                },
                {
                    "duration": 0.25,
                    "durationTicks": 480,
                    "midi": 62,
                    "name": "D4",
                    "ticks": 34080,
                    "time": 17.75,
                    "velocity": 1
                },
                {
                    "duration": 0.25,
                    "durationTicks": 480,
                    "midi": 57,
                    "name": "A3",
                    "ticks": 34560,
                    "time": 18,
                    "velocity": 1
                },
                {
                    "duration": 0.25,
                    "durationTicks": 480,
                    "midi": 62,
                    "name": "D4",
                    "ticks": 35040,
                    "time": 18.25,
                    "velocity": 1
                },
                {
                    "duration": 0.25,
                    "durationTicks": 480,
                    "midi": 66,
                    "name": "F#4",
                    "ticks": 35520,
                    "time": 18.5,
                    "velocity": 1
                },
                {
                    "duration": 0.25,
                    "durationTicks": 480,
                    "midi": 62,
                    "name": "D4",
                    "ticks": 36000,
                    "time": 18.75,
                    "velocity": 1
                },
                {
                    "duration": 0.25,
                    "durationTicks": 480,
                    "midi": 59,
                    "name": "B3",
                    "ticks": 36480,
                    "time": 19,
                    "velocity": 1
                },
                {
                    "duration": 0.25,
                    "durationTicks": 480,
                    "midi": 62,
                    "name": "D4",
                    "ticks": 36960,
                    "time": 19.25,
                    "velocity": 1
                },
                {
                    "duration": 0.25,
                    "durationTicks": 480,
                    "midi": 66,
                    "name": "F#4",
                    "ticks": 37440,
                    "time": 19.5,
                    "velocity": 1
                },
                {
                    "duration": 0.25,
                    "durationTicks": 480,
                    "midi": 62,
                    "name": "D4",
                    "ticks": 37920,
                    "time": 19.75,
                    "velocity": 1
                },
                {
                    "duration": 0.25,
                    "durationTicks": 480,
                    "midi": 57,
                    "name": "A3",
                    "ticks": 38400,
                    "time": 20,
                    "velocity": 1
                },
                {
                    "duration": 0.25,
                    "durationTicks": 480,
                    "midi": 62,
                    "name": "D4",
                    "ticks": 38880,
                    "time": 20.25,
                    "velocity": 1
                },
                {
                    "duration": 0.25,
                    "durationTicks": 480,
                    "midi": 66,
                    "name": "F#4",
                    "ticks": 39360,
                    "time": 20.5,
                    "velocity": 1
                },
                {
                    "duration": 0.25,
                    "durationTicks": 480,
                    "midi": 62,
                    "name": "D4",
                    "ticks": 39840,
                    "time": 20.75,
                    "velocity": 1
                },
                {
                    "duration": 0.25,
                    "durationTicks": 480,
                    "midi": 59,
                    "name": "B3",
                    "ticks": 40320,
                    "time": 21,
                    "velocity": 1
                },
                {
                    "duration": 0.25,
                    "durationTicks": 480,
                    "midi": 62,
                    "name": "D4",
                    "ticks": 40800,
                    "time": 21.25,
                    "velocity": 1
                },
                {
                    "duration": 0.25,
                    "durationTicks": 480,
                    "midi": 66,
                    "name": "F#4",
                    "ticks": 41280,
                    "time": 21.5,
                    "velocity": 1
                },
                {
                    "duration": 0.25,
                    "durationTicks": 480,
                    "midi": 62,
                    "name": "D4",
                    "ticks": 41760,
                    "time": 21.75,
                    "velocity": 1
                },
                {
                    "duration": 0.25,
                    "durationTicks": 480,
                    "midi": 57,
                    "name": "A3",
                    "ticks": 42240,
                    "time": 22,
                    "velocity": 1
                },
                {
                    "duration": 0.25,
                    "durationTicks": 480,
                    "midi": 62,
                    "name": "D4",
                    "ticks": 42720,
                    "time": 22.25,
                    "velocity": 1
                },
                {
                    "duration": 0.25,
                    "durationTicks": 480,
                    "midi": 66,
                    "name": "F#4",
                    "ticks": 43200,
                    "time": 22.5,
                    "velocity": 1
                },
                {
                    "duration": 0.25,
                    "durationTicks": 480,
                    "midi": 62,
                    "name": "D4",
                    "ticks": 43680,
                    "time": 22.75,
                    "velocity": 1
                },
                {
                    "duration": 0.25,
                    "durationTicks": 480,
                    "midi": 59,
                    "name": "B3",
                    "ticks": 44160,
                    "time": 23,
                    "velocity": 1
                },
                {
                    "duration": 0.25,
                    "durationTicks": 480,
                    "midi": 62,
                    "name": "D4",
                    "ticks": 44640,
                    "time": 23.25,
                    "velocity": 1
                },
                {
                    "duration": 0.25,
                    "durationTicks": 480,
                    "midi": 66,
                    "name": "F#4",
                    "ticks": 45120,
                    "time": 23.5,
                    "velocity": 1
                },
                {
                    "duration": 0.25,
                    "durationTicks": 480,
                    "midi": 62,
                    "name": "D4",
                    "ticks": 45600,
                    "time": 23.75,
                    "velocity": 1
                },
                {
                    "duration": 0.25,
                    "durationTicks": 480,
                    "midi": 57,
                    "name": "A3",
                    "ticks": 46080,
                    "time": 24,
                    "velocity": 1
                },
                {
                    "duration": 0.25,
                    "durationTicks": 480,
                    "midi": 62,
                    "name": "D4",
                    "ticks": 46560,
                    "time": 24.25,
                    "velocity": 1
                },
                {
                    "duration": 0.25,
                    "durationTicks": 480,
                    "midi": 66,
                    "name": "F#4",
                    "ticks": 47040,
                    "time": 24.5,
                    "velocity": 1
                },
                {
                    "duration": 0.25,
                    "durationTicks": 480,
                    "midi": 62,
                    "name": "D4",
                    "ticks": 47520,
                    "time": 24.75,
                    "velocity": 1
                },
                {
                    "duration": 0.25,
                    "durationTicks": 480,
                    "midi": 59,
                    "name": "B3",
                    "ticks": 48000,
                    "time": 25,
                    "velocity": 1
                },
                {
                    "duration": 0.25,
                    "durationTicks": 480,
                    "midi": 62,
                    "name": "D4",
                    "ticks": 48480,
                    "time": 25.25,
                    "velocity": 1
                },
                {
                    "duration": 0.25,
                    "durationTicks": 480,
                    "midi": 66,
                    "name": "F#4",
                    "ticks": 48960,
                    "time": 25.5,
                    "velocity": 1
                },
                {
                    "duration": 0.25,
                    "durationTicks": 480,
                    "midi": 62,
                    "name": "D4",
                    "ticks": 49440,
                    "time": 25.75,
                    "velocity": 1
                },
                {
                    "duration": 0.25,
                    "durationTicks": 480,
                    "midi": 59,
                    "name": "B3",
                    "ticks": 49920,
                    "time": 26,
                    "velocity": 1
                },
                {
                    "duration": 0.25,
                    "durationTicks": 480,
                    "midi": 64,
                    "name": "E4",
                    "ticks": 50400,
                    "time": 26.25,
                    "velocity": 1
                },
                {
                    "duration": 0.25,
                    "durationTicks": 480,
                    "midi": 67,
                    "name": "G4",
                    "ticks": 50880,
                    "time": 26.5,
                    "velocity": 1
                },
                {
                    "duration": 0.25,
                    "durationTicks": 480,
                    "midi": 64,
                    "name": "E4",
                    "ticks": 51360,
                    "time": 26.75,
                    "velocity": 1
                },
                {
                    "duration": 0.25,
                    "durationTicks": 480,
                    "midi": 59,
                    "name": "B3",
                    "ticks": 51840,
                    "time": 27,
                    "velocity": 1
                },
                {
                    "duration": 0.25,
                    "durationTicks": 480,
                    "midi": 64,
                    "name": "E4",
                    "ticks": 52320,
                    "time": 27.25,
                    "velocity": 1
                },
                {
                    "duration": 0.25,
                    "durationTicks": 480,
                    "midi": 67,
                    "name": "G4",
                    "ticks": 52800,
                    "time": 27.5,
                    "velocity": 1
                },
                {
                    "duration": 0.25,
                    "durationTicks": 480,
                    "midi": 64,
                    "name": "E4",
                    "ticks": 53280,
                    "time": 27.75,
                    "velocity": 1
                },
                {
                    "duration": 0.25,
                    "durationTicks": 480,
                    "midi": 57,
                    "name": "A3",
                    "ticks": 53760,
                    "time": 28,
                    "velocity": 1
                },
                {
                    "duration": 0.25,
                    "durationTicks": 480,
                    "midi": 61,
                    "name": "C#4",
                    "ticks": 54240,
                    "time": 28.25,
                    "velocity": 1
                },
                {
                    "duration": 0.25,
                    "durationTicks": 480,
                    "midi": 67,
                    "name": "G4",
                    "ticks": 54720,
                    "time": 28.5,
                    "velocity": 1
                },
                {
                    "duration": 0.25,
                    "durationTicks": 480,
                    "midi": 61,
                    "name": "C#4",
                    "ticks": 55200,
                    "time": 28.75,
                    "velocity": 1
                },
                {
                    "duration": 0.25,
                    "durationTicks": 480,
                    "midi": 57,
                    "name": "A3",
                    "ticks": 55680,
                    "time": 29,
                    "velocity": 1
                },
                {
                    "duration": 0.25,
                    "durationTicks": 480,
                    "midi": 61,
                    "name": "C#4",
                    "ticks": 56160,
                    "time": 29.25,
                    "velocity": 1
                },
                {
                    "duration": 0.25,
                    "durationTicks": 480,
                    "midi": 67,
                    "name": "G4",
                    "ticks": 56640,
                    "time": 29.5,
                    "velocity": 1
                },
                {
                    "duration": 0.25,
                    "durationTicks": 480,
                    "midi": 61,
                    "name": "C#4",
                    "ticks": 57120,
                    "time": 29.75,
                    "velocity": 1
                },
                {
                    "duration": 0.25,
                    "durationTicks": 480,
                    "midi": 58,
                    "name": "A#3",
                    "ticks": 57600,
                    "time": 30,
                    "velocity": 1
                },
                {
                    "duration": 0.25,
                    "durationTicks": 480,
                    "midi": 62,
                    "name": "D4",
                    "ticks": 58080,
                    "time": 30.25,
                    "velocity": 1
                },
                {
                    "duration": 0.25,
                    "durationTicks": 480,
                    "midi": 65,
                    "name": "F4",
                    "ticks": 58560,
                    "time": 30.5,
                    "velocity": 1
                },
                {
                    "duration": 1,
                    "durationTicks": 1920,
                    "midi": 69,
                    "name": "A4",
                    "ticks": 59040,
                    "time": 30.75,
                    "velocity": 1
                },
                {
                    "duration": 0.25,
                    "durationTicks": 480,
                    "midi": 60,
                    "name": "C4",
                    "ticks": 61440,
                    "time": 32,
                    "velocity": 1
                },
                {
                    "duration": 0.25,
                    "durationTicks": 480,
                    "midi": 65,
                    "name": "F4",
                    "ticks": 61440,
                    "time": 32,
                    "velocity": 1
                },
                {
                    "duration": 0.25,
                    "durationTicks": 480,
                    "midi": 69,
                    "name": "A4",
                    "ticks": 61920,
                    "time": 32.25,
                    "velocity": 1
                },
                {
                    "duration": 0.25,
                    "durationTicks": 480,
                    "midi": 60,
                    "name": "C4",
                    "ticks": 62400,
                    "time": 32.5,
                    "velocity": 1
                },
                {
                    "duration": 0.25,
                    "durationTicks": 480,
                    "midi": 65,
                    "name": "F4",
                    "ticks": 62400,
                    "time": 32.5,
                    "velocity": 1
                },
                {
                    "duration": 0.25,
                    "durationTicks": 480,
                    "midi": 60,
                    "name": "C4",
                    "ticks": 63360,
                    "time": 33,
                    "velocity": 1
                },
                {
                    "duration": 0.25,
                    "durationTicks": 480,
                    "midi": 64,
                    "name": "E4",
                    "ticks": 63360,
                    "time": 33,
                    "velocity": 1
                },
                {
                    "duration": 0.25,
                    "durationTicks": 480,
                    "midi": 67,
                    "name": "G4",
                    "ticks": 63840,
                    "time": 33.25,
                    "velocity": 1
                },
                {
                    "duration": 0.25,
                    "durationTicks": 480,
                    "midi": 60,
                    "name": "C4",
                    "ticks": 64320,
                    "time": 33.5,
                    "velocity": 1
                },
                {
                    "duration": 0.25,
                    "durationTicks": 480,
                    "midi": 64,
                    "name": "E4",
                    "ticks": 64320,
                    "time": 33.5,
                    "velocity": 1
                },
                {
                    "duration": 0.25,
                    "durationTicks": 480,
                    "midi": 58,
                    "name": "A#3",
                    "ticks": 65280,
                    "time": 34,
                    "velocity": 1
                },
                {
                    "duration": 0.25,
                    "durationTicks": 480,
                    "midi": 62,
                    "name": "D4",
                    "ticks": 65280,
                    "time": 34,
                    "velocity": 1
                },
                {
                    "duration": 0.25,
                    "durationTicks": 480,
                    "midi": 70,
                    "name": "A#4",
                    "ticks": 65760,
                    "time": 34.25,
                    "velocity": 1
                },
                {
                    "duration": 0.25,
                    "durationTicks": 480,
                    "midi": 58,
                    "name": "A#3",
                    "ticks": 66240,
                    "time": 34.5,
                    "velocity": 1
                },
                {
                    "duration": 0.25,
                    "durationTicks": 480,
                    "midi": 62,
                    "name": "D4",
                    "ticks": 66240,
                    "time": 34.5,
                    "velocity": 1
                },
                {
                    "duration": 0.25,
                    "durationTicks": 480,
                    "midi": 64,
                    "name": "E4",
                    "ticks": 66720,
                    "time": 34.75,
                    "velocity": 1
                },
                {
                    "duration": 0.25,
                    "durationTicks": 480,
                    "midi": 60,
                    "name": "C4",
                    "ticks": 67200,
                    "time": 35,
                    "velocity": 1
                },
                {
                    "duration": 0.25,
                    "durationTicks": 480,
                    "midi": 65,
                    "name": "F4",
                    "ticks": 67200,
                    "time": 35,
                    "velocity": 1
                },
                {
                    "duration": 0.25,
                    "durationTicks": 480,
                    "midi": 69,
                    "name": "A4",
                    "ticks": 67680,
                    "time": 35.25,
                    "velocity": 1
                },
                {
                    "duration": 0.25,
                    "durationTicks": 480,
                    "midi": 60,
                    "name": "C4",
                    "ticks": 68160,
                    "time": 35.5,
                    "velocity": 1
                },
                {
                    "duration": 0.25,
                    "durationTicks": 480,
                    "midi": 65,
                    "name": "F4",
                    "ticks": 68160,
                    "time": 35.5,
                    "velocity": 1
                },
                {
                    "duration": 0.25,
                    "durationTicks": 480,
                    "midi": 60,
                    "name": "C4",
                    "ticks": 69120,
                    "time": 36,
                    "velocity": 1
                },
                {
                    "duration": 0.25,
                    "durationTicks": 480,
                    "midi": 65,
                    "name": "F4",
                    "ticks": 69120,
                    "time": 36,
                    "velocity": 1
                },
                {
                    "duration": 0.25,
                    "durationTicks": 480,
                    "midi": 69,
                    "name": "A4",
                    "ticks": 69600,
                    "time": 36.25,
                    "velocity": 1
                },
                {
                    "duration": 0.25,
                    "durationTicks": 480,
                    "midi": 60,
                    "name": "C4",
                    "ticks": 70080,
                    "time": 36.5,
                    "velocity": 1
                },
                {
                    "duration": 0.25,
                    "durationTicks": 480,
                    "midi": 65,
                    "name": "F4",
                    "ticks": 70080,
                    "time": 36.5,
                    "velocity": 1
                },
                {
                    "duration": 0.25,
                    "durationTicks": 480,
                    "midi": 60,
                    "name": "C4",
                    "ticks": 71040,
                    "time": 37,
                    "velocity": 1
                },
                {
                    "duration": 0.25,
                    "durationTicks": 480,
                    "midi": 64,
                    "name": "E4",
                    "ticks": 71040,
                    "time": 37,
                    "velocity": 1
                },
                {
                    "duration": 0.25,
                    "durationTicks": 480,
                    "midi": 67,
                    "name": "G4",
                    "ticks": 71520,
                    "time": 37.25,
                    "velocity": 1
                },
                {
                    "duration": 0.25,
                    "durationTicks": 480,
                    "midi": 60,
                    "name": "C4",
                    "ticks": 72000,
                    "time": 37.5,
                    "velocity": 1
                },
                {
                    "duration": 0.25,
                    "durationTicks": 480,
                    "midi": 64,
                    "name": "E4",
                    "ticks": 72000,
                    "time": 37.5,
                    "velocity": 1
                },
                {
                    "duration": 0.25,
                    "durationTicks": 480,
                    "midi": 58,
                    "name": "A#3",
                    "ticks": 72960,
                    "time": 38,
                    "velocity": 1
                },
                {
                    "duration": 0.25,
                    "durationTicks": 480,
                    "midi": 62,
                    "name": "D4",
                    "ticks": 72960,
                    "time": 38,
                    "velocity": 1
                },
                {
                    "duration": 0.25,
                    "durationTicks": 480,
                    "midi": 70,
                    "name": "A#4",
                    "ticks": 73440,
                    "time": 38.25,
                    "velocity": 1
                },
                {
                    "duration": 0.25,
                    "durationTicks": 480,
                    "midi": 58,
                    "name": "A#3",
                    "ticks": 73920,
                    "time": 38.5,
                    "velocity": 1
                },
                {
                    "duration": 0.25,
                    "durationTicks": 480,
                    "midi": 62,
                    "name": "D4",
                    "ticks": 73920,
                    "time": 38.5,
                    "velocity": 1
                },
                {
                    "duration": 0.25,
                    "durationTicks": 480,
                    "midi": 64,
                    "name": "E4",
                    "ticks": 74400,
                    "time": 38.75,
                    "velocity": 1
                },
                {
                    "duration": 0.25,
                    "durationTicks": 480,
                    "midi": 60,
                    "name": "C4",
                    "ticks": 74880,
                    "time": 39,
                    "velocity": 1
                },
                {
                    "duration": 0.25,
                    "durationTicks": 480,
                    "midi": 65,
                    "name": "F4",
                    "ticks": 74880,
                    "time": 39,
                    "velocity": 1
                },
                {
                    "duration": 0.25,
                    "durationTicks": 480,
                    "midi": 69,
                    "name": "A4",
                    "ticks": 75360,
                    "time": 39.25,
                    "velocity": 1
                },
                {
                    "duration": 0.25,
                    "durationTicks": 480,
                    "midi": 60,
                    "name": "C4",
                    "ticks": 75840,
                    "time": 39.5,
                    "velocity": 1
                },
                {
                    "duration": 0.25,
                    "durationTicks": 480,
                    "midi": 65,
                    "name": "F4",
                    "ticks": 75840,
                    "time": 39.5,
                    "velocity": 1
                },
                {
                    "duration": 0.25,
                    "durationTicks": 480,
                    "midi": 58,
                    "name": "A#3",
                    "ticks": 76800,
                    "time": 40,
                    "velocity": 1
                },
                {
                    "duration": 0.25,
                    "durationTicks": 480,
                    "midi": 62,
                    "name": "D4",
                    "ticks": 76800,
                    "time": 40,
                    "velocity": 1
                },
                {
                    "duration": 0.25,
                    "durationTicks": 480,
                    "midi": 67,
                    "name": "G4",
                    "ticks": 77280,
                    "time": 40.25,
                    "velocity": 1
                },
                {
                    "duration": 0.25,
                    "durationTicks": 480,
                    "midi": 58,
                    "name": "A#3",
                    "ticks": 77760,
                    "time": 40.5,
                    "velocity": 1
                },
                {
                    "duration": 0.25,
                    "durationTicks": 480,
                    "midi": 62,
                    "name": "D4",
                    "ticks": 77760,
                    "time": 40.5,
                    "velocity": 1
                },
                {
                    "duration": 0.25,
                    "durationTicks": 480,
                    "midi": 67,
                    "name": "G4",
                    "ticks": 78240,
                    "time": 40.75,
                    "velocity": 1
                },
                {
                    "duration": 0.25,
                    "durationTicks": 480,
                    "midi": 60,
                    "name": "C4",
                    "ticks": 78720,
                    "time": 41,
                    "velocity": 1
                },
                {
                    "duration": 0.25,
                    "durationTicks": 480,
                    "midi": 64,
                    "name": "E4",
                    "ticks": 78720,
                    "time": 41,
                    "velocity": 1
                },
                {
                    "duration": 0.25,
                    "durationTicks": 480,
                    "midi": 67,
                    "name": "G4",
                    "ticks": 79200,
                    "time": 41.25,
                    "velocity": 1
                },
                {
                    "duration": 0.25,
                    "durationTicks": 480,
                    "midi": 60,
                    "name": "C4",
                    "ticks": 79680,
                    "time": 41.5,
                    "velocity": 1
                },
                {
                    "duration": 0.25,
                    "durationTicks": 480,
                    "midi": 64,
                    "name": "E4",
                    "ticks": 79680,
                    "time": 41.5,
                    "velocity": 1
                },
                {
                    "duration": 0.25,
                    "durationTicks": 480,
                    "midi": 67,
                    "name": "G4",
                    "ticks": 80160,
                    "time": 41.75,
                    "velocity": 1
                },
                {
                    "duration": 0.25,
                    "durationTicks": 480,
                    "midi": 60,
                    "name": "C4",
                    "ticks": 80640,
                    "time": 42,
                    "velocity": 1
                },
                {
                    "duration": 0.25,
                    "durationTicks": 480,
                    "midi": 65,
                    "name": "F4",
                    "ticks": 80640,
                    "time": 42,
                    "velocity": 1
                },
                {
                    "duration": 0.25,
                    "durationTicks": 480,
                    "midi": 69,
                    "name": "A4",
                    "ticks": 81120,
                    "time": 42.25,
                    "velocity": 1
                },
                {
                    "duration": 0.25,
                    "durationTicks": 480,
                    "midi": 60,
                    "name": "C4",
                    "ticks": 81600,
                    "time": 42.5,
                    "velocity": 1
                },
                {
                    "duration": 0.25,
                    "durationTicks": 480,
                    "midi": 65,
                    "name": "F4",
                    "ticks": 81600,
                    "time": 42.5,
                    "velocity": 1
                },
                {
                    "duration": 0.25,
                    "durationTicks": 480,
                    "midi": 69,
                    "name": "A4",
                    "ticks": 82080,
                    "time": 42.75,
                    "velocity": 1
                },
                {
                    "duration": 0.25,
                    "durationTicks": 480,
                    "midi": 62,
                    "name": "D4",
                    "ticks": 82560,
                    "time": 43,
                    "velocity": 1
                },
                {
                    "duration": 0.25,
                    "durationTicks": 480,
                    "midi": 65,
                    "name": "F4",
                    "ticks": 82560,
                    "time": 43,
                    "velocity": 1
                },
                {
                    "duration": 0.25,
                    "durationTicks": 480,
                    "midi": 69,
                    "name": "A4",
                    "ticks": 83040,
                    "time": 43.25,
                    "velocity": 1
                },
                {
                    "duration": 0.25,
                    "durationTicks": 480,
                    "midi": 62,
                    "name": "D4",
                    "ticks": 83520,
                    "time": 43.5,
                    "velocity": 1
                },
                {
                    "duration": 0.25,
                    "durationTicks": 480,
                    "midi": 65,
                    "name": "F4",
                    "ticks": 83520,
                    "time": 43.5,
                    "velocity": 1
                },
                {
                    "duration": 0.25,
                    "durationTicks": 480,
                    "midi": 69,
                    "name": "A4",
                    "ticks": 84000,
                    "time": 43.75,
                    "velocity": 1
                },
                {
                    "duration": 0.25,
                    "durationTicks": 480,
                    "midi": 58,
                    "name": "A#3",
                    "ticks": 84480,
                    "time": 44,
                    "velocity": 1
                },
                {
                    "duration": 0.25,
                    "durationTicks": 480,
                    "midi": 62,
                    "name": "D4",
                    "ticks": 84480,
                    "time": 44,
                    "velocity": 1
                },
                {
                    "duration": 0.25,
                    "durationTicks": 480,
                    "midi": 67,
                    "name": "G4",
                    "ticks": 84960,
                    "time": 44.25,
                    "velocity": 1
                },
                {
                    "duration": 0.25,
                    "durationTicks": 480,
                    "midi": 58,
                    "name": "A#3",
                    "ticks": 85440,
                    "time": 44.5,
                    "velocity": 1
                },
                {
                    "duration": 0.25,
                    "durationTicks": 480,
                    "midi": 62,
                    "name": "D4",
                    "ticks": 85440,
                    "time": 44.5,
                    "velocity": 1
                },
                {
                    "duration": 0.25,
                    "durationTicks": 480,
                    "midi": 67,
                    "name": "G4",
                    "ticks": 85920,
                    "time": 44.75,
                    "velocity": 1
                },
                {
                    "duration": 0.25,
                    "durationTicks": 480,
                    "midi": 57,
                    "name": "A3",
                    "ticks": 86400,
                    "time": 45,
                    "velocity": 1
                },
                {
                    "duration": 0.25,
                    "durationTicks": 480,
                    "midi": 61,
                    "name": "C#4",
                    "ticks": 86400,
                    "time": 45,
                    "velocity": 1
                },
                {
                    "duration": 0.25,
                    "durationTicks": 480,
                    "midi": 67,
                    "name": "G4",
                    "ticks": 86880,
                    "time": 45.25,
                    "velocity": 1
                },
                {
                    "duration": 0.25,
                    "durationTicks": 480,
                    "midi": 57,
                    "name": "A3",
                    "ticks": 87360,
                    "time": 45.5,
                    "velocity": 1
                },
                {
                    "duration": 0.25,
                    "durationTicks": 480,
                    "midi": 61,
                    "name": "C#4",
                    "ticks": 87360,
                    "time": 45.5,
                    "velocity": 1
                },
                {
                    "duration": 0.25,
                    "durationTicks": 480,
                    "midi": 67,
                    "name": "G4",
                    "ticks": 87840,
                    "time": 45.75,
                    "velocity": 1
                },
                {
                    "duration": 0.25,
                    "durationTicks": 480,
                    "midi": 57,
                    "name": "A3",
                    "ticks": 88320,
                    "time": 46,
                    "velocity": 1
                },
                {
                    "duration": 0.25,
                    "durationTicks": 480,
                    "midi": 62,
                    "name": "D4",
                    "ticks": 88800,
                    "time": 46.25,
                    "velocity": 1
                },
                {
                    "duration": 0.25,
                    "durationTicks": 480,
                    "midi": 66,
                    "name": "F#4",
                    "ticks": 89280,
                    "time": 46.5,
                    "velocity": 1
                },
                {
                    "duration": 0.25,
                    "durationTicks": 480,
                    "midi": 62,
                    "name": "D4",
                    "ticks": 89760,
                    "time": 46.75,
                    "velocity": 1
                },
                {
                    "duration": 0.25,
                    "durationTicks": 480,
                    "midi": 59,
                    "name": "B3",
                    "ticks": 90240,
                    "time": 47,
                    "velocity": 1
                },
                {
                    "duration": 0.25,
                    "durationTicks": 480,
                    "midi": 62,
                    "name": "D4",
                    "ticks": 90720,
                    "time": 47.25,
                    "velocity": 1
                },
                {
                    "duration": 0.25,
                    "durationTicks": 480,
                    "midi": 66,
                    "name": "F#4",
                    "ticks": 91200,
                    "time": 47.5,
                    "velocity": 1
                },
                {
                    "duration": 0.25,
                    "durationTicks": 480,
                    "midi": 62,
                    "name": "D4",
                    "ticks": 91680,
                    "time": 47.75,
                    "velocity": 1
                },
                {
                    "duration": 0.25,
                    "durationTicks": 480,
                    "midi": 57,
                    "name": "A3",
                    "ticks": 92160,
                    "time": 48,
                    "velocity": 1
                },
                {
                    "duration": 0.25,
                    "durationTicks": 480,
                    "midi": 62,
                    "name": "D4",
                    "ticks": 92640,
                    "time": 48.25,
                    "velocity": 1
                },
                {
                    "duration": 0.25,
                    "durationTicks": 480,
                    "midi": 66,
                    "name": "F#4",
                    "ticks": 93120,
                    "time": 48.5,
                    "velocity": 1
                },
                {
                    "duration": 0.25,
                    "durationTicks": 480,
                    "midi": 62,
                    "name": "D4",
                    "ticks": 93600,
                    "time": 48.75,
                    "velocity": 1
                },
                {
                    "duration": 0.25,
                    "durationTicks": 480,
                    "midi": 59,
                    "name": "B3",
                    "ticks": 94080,
                    "time": 49,
                    "velocity": 1
                },
                {
                    "duration": 0.25,
                    "durationTicks": 480,
                    "midi": 62,
                    "name": "D4",
                    "ticks": 94560,
                    "time": 49.25,
                    "velocity": 1
                },
                {
                    "duration": 0.25,
                    "durationTicks": 480,
                    "midi": 66,
                    "name": "F#4",
                    "ticks": 95040,
                    "time": 49.5,
                    "velocity": 1
                },
                {
                    "duration": 0.25,
                    "durationTicks": 480,
                    "midi": 62,
                    "name": "D4",
                    "ticks": 95520,
                    "time": 49.75,
                    "velocity": 1
                },
                {
                    "duration": 0.25,
                    "durationTicks": 480,
                    "midi": 57,
                    "name": "A3",
                    "ticks": 96000,
                    "time": 50,
                    "velocity": 1
                },
                {
                    "duration": 0.25,
                    "durationTicks": 480,
                    "midi": 62,
                    "name": "D4",
                    "ticks": 96480,
                    "time": 50.25,
                    "velocity": 1
                },
                {
                    "duration": 0.25,
                    "durationTicks": 480,
                    "midi": 66,
                    "name": "F#4",
                    "ticks": 96960,
                    "time": 50.5,
                    "velocity": 1
                },
                {
                    "duration": 0.25,
                    "durationTicks": 480,
                    "midi": 62,
                    "name": "D4",
                    "ticks": 97440,
                    "time": 50.75,
                    "velocity": 1
                },
                {
                    "duration": 0.25,
                    "durationTicks": 480,
                    "midi": 59,
                    "name": "B3",
                    "ticks": 97920,
                    "time": 51,
                    "velocity": 1
                },
                {
                    "duration": 0.25,
                    "durationTicks": 480,
                    "midi": 62,
                    "name": "D4",
                    "ticks": 98400,
                    "time": 51.25,
                    "velocity": 1
                },
                {
                    "duration": 0.25,
                    "durationTicks": 480,
                    "midi": 66,
                    "name": "F#4",
                    "ticks": 98880,
                    "time": 51.5,
                    "velocity": 1
                },
                {
                    "duration": 0.25,
                    "durationTicks": 480,
                    "midi": 62,
                    "name": "D4",
                    "ticks": 99360,
                    "time": 51.75,
                    "velocity": 1
                },
                {
                    "duration": 0.25,
                    "durationTicks": 480,
                    "midi": 57,
                    "name": "A3",
                    "ticks": 99840,
                    "time": 52,
                    "velocity": 1
                },
                {
                    "duration": 0.25,
                    "durationTicks": 480,
                    "midi": 62,
                    "name": "D4",
                    "ticks": 100320,
                    "time": 52.25,
                    "velocity": 1
                },
                {
                    "duration": 0.25,
                    "durationTicks": 480,
                    "midi": 66,
                    "name": "F#4",
                    "ticks": 100800,
                    "time": 52.5,
                    "velocity": 1
                },
                {
                    "duration": 0.25,
                    "durationTicks": 480,
                    "midi": 62,
                    "name": "D4",
                    "ticks": 101280,
                    "time": 52.75,
                    "velocity": 1
                },
                {
                    "duration": 0.25,
                    "durationTicks": 480,
                    "midi": 59,
                    "name": "B3",
                    "ticks": 101760,
                    "time": 53,
                    "velocity": 1
                },
                {
                    "duration": 0.25,
                    "durationTicks": 480,
                    "midi": 62,
                    "name": "D4",
                    "ticks": 102240,
                    "time": 53.25,
                    "velocity": 1
                },
                {
                    "duration": 0.25,
                    "durationTicks": 480,
                    "midi": 66,
                    "name": "F#4",
                    "ticks": 102720,
                    "time": 53.5,
                    "velocity": 1
                },
                {
                    "duration": 0.25,
                    "durationTicks": 480,
                    "midi": 62,
                    "name": "D4",
                    "ticks": 103200,
                    "time": 53.75,
                    "velocity": 1
                },
                {
                    "duration": 0.25,
                    "durationTicks": 480,
                    "midi": 57,
                    "name": "A3",
                    "ticks": 103680,
                    "time": 54,
                    "velocity": 1
                },
                {
                    "duration": 0.25,
                    "durationTicks": 480,
                    "midi": 62,
                    "name": "D4",
                    "ticks": 104160,
                    "time": 54.25,
                    "velocity": 1
                },
                {
                    "duration": 0.25,
                    "durationTicks": 480,
                    "midi": 66,
                    "name": "F#4",
                    "ticks": 104640,
                    "time": 54.5,
                    "velocity": 1
                },
                {
                    "duration": 0.25,
                    "durationTicks": 480,
                    "midi": 62,
                    "name": "D4",
                    "ticks": 105120,
                    "time": 54.75,
                    "velocity": 1
                },
                {
                    "duration": 0.25,
                    "durationTicks": 480,
                    "midi": 59,
                    "name": "B3",
                    "ticks": 105600,
                    "time": 55,
                    "velocity": 1
                },
                {
                    "duration": 0.25,
                    "durationTicks": 480,
                    "midi": 62,
                    "name": "D4",
                    "ticks": 106080,
                    "time": 55.25,
                    "velocity": 1
                },
                {
                    "duration": 0.25,
                    "durationTicks": 480,
                    "midi": 66,
                    "name": "F#4",
                    "ticks": 106560,
                    "time": 55.5,
                    "velocity": 1
                },
                {
                    "duration": 0.25,
                    "durationTicks": 480,
                    "midi": 62,
                    "name": "D4",
                    "ticks": 107040,
                    "time": 55.75,
                    "velocity": 1
                },
                {
                    "duration": 0.25,
                    "durationTicks": 480,
                    "midi": 57,
                    "name": "A3",
                    "ticks": 107520,
                    "time": 56,
                    "velocity": 1
                },
                {
                    "duration": 0.25,
                    "durationTicks": 480,
                    "midi": 62,
                    "name": "D4",
                    "ticks": 108000,
                    "time": 56.25,
                    "velocity": 1
                },
                {
                    "duration": 0.25,
                    "durationTicks": 480,
                    "midi": 66,
                    "name": "F#4",
                    "ticks": 108480,
                    "time": 56.5,
                    "velocity": 1
                },
                {
                    "duration": 0.25,
                    "durationTicks": 480,
                    "midi": 62,
                    "name": "D4",
                    "ticks": 108960,
                    "time": 56.75,
                    "velocity": 1
                },
                {
                    "duration": 0.25,
                    "durationTicks": 480,
                    "midi": 59,
                    "name": "B3",
                    "ticks": 109440,
                    "time": 57,
                    "velocity": 1
                },
                {
                    "duration": 0.25,
                    "durationTicks": 480,
                    "midi": 62,
                    "name": "D4",
                    "ticks": 109920,
                    "time": 57.25,
                    "velocity": 1
                },
                {
                    "duration": 0.25,
                    "durationTicks": 480,
                    "midi": 66,
                    "name": "F#4",
                    "ticks": 110400,
                    "time": 57.5,
                    "velocity": 1
                },
                {
                    "duration": 0.25,
                    "durationTicks": 480,
                    "midi": 62,
                    "name": "D4",
                    "ticks": 110880,
                    "time": 57.75,
                    "velocity": 1
                },
                {
                    "duration": 0.25,
                    "durationTicks": 480,
                    "midi": 57,
                    "name": "A3",
                    "ticks": 111360,
                    "time": 58,
                    "velocity": 1
                },
                {
                    "duration": 0.25,
                    "durationTicks": 480,
                    "midi": 62,
                    "name": "D4",
                    "ticks": 111840,
                    "time": 58.25,
                    "velocity": 1
                },
                {
                    "duration": 0.25,
                    "durationTicks": 480,
                    "midi": 66,
                    "name": "F#4",
                    "ticks": 112320,
                    "time": 58.5,
                    "velocity": 1
                },
                {
                    "duration": 0.25,
                    "durationTicks": 480,
                    "midi": 62,
                    "name": "D4",
                    "ticks": 112800,
                    "time": 58.75,
                    "velocity": 1
                },
                {
                    "duration": 0.25,
                    "durationTicks": 480,
                    "midi": 59,
                    "name": "B3",
                    "ticks": 113280,
                    "time": 59,
                    "velocity": 1
                },
                {
                    "duration": 0.25,
                    "durationTicks": 480,
                    "midi": 62,
                    "name": "D4",
                    "ticks": 113760,
                    "time": 59.25,
                    "velocity": 1
                },
                {
                    "duration": 0.25,
                    "durationTicks": 480,
                    "midi": 66,
                    "name": "F#4",
                    "ticks": 114240,
                    "time": 59.5,
                    "velocity": 1
                },
                {
                    "duration": 0.25,
                    "durationTicks": 480,
                    "midi": 62,
                    "name": "D4",
                    "ticks": 114720,
                    "time": 59.75,
                    "velocity": 1
                },
                {
                    "duration": 0.25,
                    "durationTicks": 480,
                    "midi": 57,
                    "name": "A3",
                    "ticks": 115200,
                    "time": 60,
                    "velocity": 1
                },
                {
                    "duration": 0.25,
                    "durationTicks": 480,
                    "midi": 62,
                    "name": "D4",
                    "ticks": 115680,
                    "time": 60.25,
                    "velocity": 1
                },
                {
                    "duration": 0.25,
                    "durationTicks": 480,
                    "midi": 66,
                    "name": "F#4",
                    "ticks": 116160,
                    "time": 60.5,
                    "velocity": 1
                },
                {
                    "duration": 0.25,
                    "durationTicks": 480,
                    "midi": 62,
                    "name": "D4",
                    "ticks": 116640,
                    "time": 60.75,
                    "velocity": 1
                },
                {
                    "duration": 0.25,
                    "durationTicks": 480,
                    "midi": 59,
                    "name": "B3",
                    "ticks": 117120,
                    "time": 61,
                    "velocity": 1
                },
                {
                    "duration": 0.25,
                    "durationTicks": 480,
                    "midi": 62,
                    "name": "D4",
                    "ticks": 117600,
                    "time": 61.25,
                    "velocity": 1
                },
                {
                    "duration": 0.25,
                    "durationTicks": 480,
                    "midi": 66,
                    "name": "F#4",
                    "ticks": 118080,
                    "time": 61.5,
                    "velocity": 1
                },
                {
                    "duration": 0.25,
                    "durationTicks": 480,
                    "midi": 62,
                    "name": "D4",
                    "ticks": 118560,
                    "time": 61.75,
                    "velocity": 1
                },
                {
                    "duration": 0.25,
                    "durationTicks": 480,
                    "midi": 59,
                    "name": "B3",
                    "ticks": 119040,
                    "time": 62,
                    "velocity": 1
                },
                {
                    "duration": 0.25,
                    "durationTicks": 480,
                    "midi": 64,
                    "name": "E4",
                    "ticks": 119520,
                    "time": 62.25,
                    "velocity": 1
                },
                {
                    "duration": 0.25,
                    "durationTicks": 480,
                    "midi": 67,
                    "name": "G4",
                    "ticks": 120000,
                    "time": 62.5,
                    "velocity": 1
                },
                {
                    "duration": 0.25,
                    "durationTicks": 480,
                    "midi": 64,
                    "name": "E4",
                    "ticks": 120480,
                    "time": 62.75,
                    "velocity": 1
                },
                {
                    "duration": 0.25,
                    "durationTicks": 480,
                    "midi": 59,
                    "name": "B3",
                    "ticks": 120960,
                    "time": 63,
                    "velocity": 1
                },
                {
                    "duration": 0.25,
                    "durationTicks": 480,
                    "midi": 64,
                    "name": "E4",
                    "ticks": 121440,
                    "time": 63.25,
                    "velocity": 1
                },
                {
                    "duration": 0.25,
                    "durationTicks": 480,
                    "midi": 67,
                    "name": "G4",
                    "ticks": 121920,
                    "time": 63.5,
                    "velocity": 1
                },
                {
                    "duration": 0.25,
                    "durationTicks": 480,
                    "midi": 64,
                    "name": "E4",
                    "ticks": 122400,
                    "time": 63.75,
                    "velocity": 1
                },
                {
                    "duration": 0.25,
                    "durationTicks": 480,
                    "midi": 57,
                    "name": "A3",
                    "ticks": 122880,
                    "time": 64,
                    "velocity": 1
                },
                {
                    "duration": 0.25,
                    "durationTicks": 480,
                    "midi": 61,
                    "name": "C#4",
                    "ticks": 123360,
                    "time": 64.25,
                    "velocity": 1
                },
                {
                    "duration": 0.25,
                    "durationTicks": 480,
                    "midi": 67,
                    "name": "G4",
                    "ticks": 123840,
                    "time": 64.5,
                    "velocity": 1
                },
                {
                    "duration": 0.25,
                    "durationTicks": 480,
                    "midi": 61,
                    "name": "C#4",
                    "ticks": 124320,
                    "time": 64.75,
                    "velocity": 1
                },
                {
                    "duration": 0.25,
                    "durationTicks": 480,
                    "midi": 57,
                    "name": "A3",
                    "ticks": 124800,
                    "time": 65,
                    "velocity": 1
                },
                {
                    "duration": 0.25,
                    "durationTicks": 480,
                    "midi": 61,
                    "name": "C#4",
                    "ticks": 125280,
                    "time": 65.25,
                    "velocity": 1
                },
                {
                    "duration": 0.25,
                    "durationTicks": 480,
                    "midi": 67,
                    "name": "G4",
                    "ticks": 125760,
                    "time": 65.5,
                    "velocity": 1
                },
                {
                    "duration": 0.25,
                    "durationTicks": 480,
                    "midi": 61,
                    "name": "C#4",
                    "ticks": 126240,
                    "time": 65.75,
                    "velocity": 1
                },
                {
                    "duration": 0.25,
                    "durationTicks": 480,
                    "midi": 57,
                    "name": "A3",
                    "ticks": 126720,
                    "time": 66,
                    "velocity": 1
                },
                {
                    "duration": 0.25,
                    "durationTicks": 480,
                    "midi": 62,
                    "name": "D4",
                    "ticks": 127200,
                    "time": 66.25,
                    "velocity": 1
                },
                {
                    "duration": 0.25,
                    "durationTicks": 480,
                    "midi": 66,
                    "name": "F#4",
                    "ticks": 127680,
                    "time": 66.5,
                    "velocity": 1
                },
                {
                    "duration": 0.25,
                    "durationTicks": 480,
                    "midi": 62,
                    "name": "D4",
                    "ticks": 128160,
                    "time": 66.75,
                    "velocity": 1
                },
                {
                    "duration": 0.25,
                    "durationTicks": 480,
                    "midi": 59,
                    "name": "B3",
                    "ticks": 128640,
                    "time": 67,
                    "velocity": 1
                },
                {
                    "duration": 0.25,
                    "durationTicks": 480,
                    "midi": 62,
                    "name": "D4",
                    "ticks": 129120,
                    "time": 67.25,
                    "velocity": 1
                },
                {
                    "duration": 0.25,
                    "durationTicks": 480,
                    "midi": 66,
                    "name": "F#4",
                    "ticks": 129600,
                    "time": 67.5,
                    "velocity": 1
                },
                {
                    "duration": 0.25,
                    "durationTicks": 480,
                    "midi": 62,
                    "name": "D4",
                    "ticks": 130080,
                    "time": 67.75,
                    "velocity": 1
                },
                {
                    "duration": 0.25,
                    "durationTicks": 480,
                    "midi": 57,
                    "name": "A3",
                    "ticks": 130560,
                    "time": 68,
                    "velocity": 1
                },
                {
                    "duration": 0.25,
                    "durationTicks": 480,
                    "midi": 62,
                    "name": "D4",
                    "ticks": 131040,
                    "time": 68.25,
                    "velocity": 1
                },
                {
                    "duration": 0.25,
                    "durationTicks": 480,
                    "midi": 66,
                    "name": "F#4",
                    "ticks": 131520,
                    "time": 68.5,
                    "velocity": 1
                },
                {
                    "duration": 0.25,
                    "durationTicks": 480,
                    "midi": 62,
                    "name": "D4",
                    "ticks": 132000,
                    "time": 68.75,
                    "velocity": 1
                },
                {
                    "duration": 0.25,
                    "durationTicks": 480,
                    "midi": 59,
                    "name": "B3",
                    "ticks": 132480,
                    "time": 69,
                    "velocity": 1
                },
                {
                    "duration": 0.25,
                    "durationTicks": 480,
                    "midi": 62,
                    "name": "D4",
                    "ticks": 132960,
                    "time": 69.25,
                    "velocity": 1
                },
                {
                    "duration": 0.25,
                    "durationTicks": 480,
                    "midi": 66,
                    "name": "F#4",
                    "ticks": 133440,
                    "time": 69.5,
                    "velocity": 1
                },
                {
                    "duration": 0.25,
                    "durationTicks": 480,
                    "midi": 62,
                    "name": "D4",
                    "ticks": 133920,
                    "time": 69.75,
                    "velocity": 1
                },
                {
                    "duration": 0.25,
                    "durationTicks": 480,
                    "midi": 57,
                    "name": "A3",
                    "ticks": 134400,
                    "time": 70,
                    "velocity": 1
                },
                {
                    "duration": 0.25,
                    "durationTicks": 480,
                    "midi": 62,
                    "name": "D4",
                    "ticks": 134880,
                    "time": 70.25,
                    "velocity": 1
                },
                {
                    "duration": 0.25,
                    "durationTicks": 480,
                    "midi": 66,
                    "name": "F#4",
                    "ticks": 135360,
                    "time": 70.5,
                    "velocity": 1
                },
                {
                    "duration": 0.25,
                    "durationTicks": 480,
                    "midi": 62,
                    "name": "D4",
                    "ticks": 135840,
                    "time": 70.75,
                    "velocity": 1
                },
                {
                    "duration": 0.25,
                    "durationTicks": 480,
                    "midi": 59,
                    "name": "B3",
                    "ticks": 136320,
                    "time": 71,
                    "velocity": 1
                },
                {
                    "duration": 0.25,
                    "durationTicks": 480,
                    "midi": 62,
                    "name": "D4",
                    "ticks": 136800,
                    "time": 71.25,
                    "velocity": 1
                },
                {
                    "duration": 0.25,
                    "durationTicks": 480,
                    "midi": 66,
                    "name": "F#4",
                    "ticks": 137280,
                    "time": 71.5,
                    "velocity": 1
                },
                {
                    "duration": 0.25,
                    "durationTicks": 480,
                    "midi": 62,
                    "name": "D4",
                    "ticks": 137760,
                    "time": 71.75,
                    "velocity": 1
                },
                {
                    "duration": 0.25,
                    "durationTicks": 480,
                    "midi": 57,
                    "name": "A3",
                    "ticks": 138240,
                    "time": 72,
                    "velocity": 1
                },
                {
                    "duration": 0.25,
                    "durationTicks": 480,
                    "midi": 62,
                    "name": "D4",
                    "ticks": 138720,
                    "time": 72.25,
                    "velocity": 1
                },
                {
                    "duration": 0.25,
                    "durationTicks": 480,
                    "midi": 66,
                    "name": "F#4",
                    "ticks": 139200,
                    "time": 72.5,
                    "velocity": 1
                },
                {
                    "duration": 0.25,
                    "durationTicks": 480,
                    "midi": 62,
                    "name": "D4",
                    "ticks": 139680,
                    "time": 72.75,
                    "velocity": 1
                },
                {
                    "duration": 0.25,
                    "durationTicks": 480,
                    "midi": 59,
                    "name": "B3",
                    "ticks": 140160,
                    "time": 73,
                    "velocity": 1
                },
                {
                    "duration": 0.25,
                    "durationTicks": 480,
                    "midi": 62,
                    "name": "D4",
                    "ticks": 140640,
                    "time": 73.25,
                    "velocity": 1
                },
                {
                    "duration": 0.25,
                    "durationTicks": 480,
                    "midi": 66,
                    "name": "F#4",
                    "ticks": 141120,
                    "time": 73.5,
                    "velocity": 1
                },
                {
                    "duration": 0.25,
                    "durationTicks": 480,
                    "midi": 62,
                    "name": "D4",
                    "ticks": 141600,
                    "time": 73.75,
                    "velocity": 1
                },
                {
                    "duration": 0.25,
                    "durationTicks": 480,
                    "midi": 57,
                    "name": "A3",
                    "ticks": 142080,
                    "time": 74,
                    "velocity": 1
                },
                {
                    "duration": 0.25,
                    "durationTicks": 480,
                    "midi": 62,
                    "name": "D4",
                    "ticks": 142560,
                    "time": 74.25,
                    "velocity": 1
                },
                {
                    "duration": 0.25,
                    "durationTicks": 480,
                    "midi": 66,
                    "name": "F#4",
                    "ticks": 143040,
                    "time": 74.5,
                    "velocity": 1
                },
                {
                    "duration": 0.25,
                    "durationTicks": 480,
                    "midi": 62,
                    "name": "D4",
                    "ticks": 143520,
                    "time": 74.75,
                    "velocity": 1
                },
                {
                    "duration": 0.25,
                    "durationTicks": 480,
                    "midi": 59,
                    "name": "B3",
                    "ticks": 144000,
                    "time": 75,
                    "velocity": 1
                },
                {
                    "duration": 0.25,
                    "durationTicks": 480,
                    "midi": 62,
                    "name": "D4",
                    "ticks": 144480,
                    "time": 75.25,
                    "velocity": 1
                },
                {
                    "duration": 0.25,
                    "durationTicks": 480,
                    "midi": 66,
                    "name": "F#4",
                    "ticks": 144960,
                    "time": 75.5,
                    "velocity": 1
                },
                {
                    "duration": 0.25,
                    "durationTicks": 480,
                    "midi": 62,
                    "name": "D4",
                    "ticks": 145440,
                    "time": 75.75,
                    "velocity": 1
                },
                {
                    "duration": 0.25,
                    "durationTicks": 480,
                    "midi": 57,
                    "name": "A3",
                    "ticks": 145920,
                    "time": 76,
                    "velocity": 1
                },
                {
                    "duration": 0.25,
                    "durationTicks": 480,
                    "midi": 62,
                    "name": "D4",
                    "ticks": 146400,
                    "time": 76.25,
                    "velocity": 1
                },
                {
                    "duration": 0.25,
                    "durationTicks": 480,
                    "midi": 66,
                    "name": "F#4",
                    "ticks": 146880,
                    "time": 76.5,
                    "velocity": 1
                },
                {
                    "duration": 0.25,
                    "durationTicks": 480,
                    "midi": 62,
                    "name": "D4",
                    "ticks": 147360,
                    "time": 76.75,
                    "velocity": 1
                },
                {
                    "duration": 0.25,
                    "durationTicks": 480,
                    "midi": 59,
                    "name": "B3",
                    "ticks": 147840,
                    "time": 77,
                    "velocity": 1
                },
                {
                    "duration": 0.25,
                    "durationTicks": 480,
                    "midi": 62,
                    "name": "D4",
                    "ticks": 148320,
                    "time": 77.25,
                    "velocity": 1
                },
                {
                    "duration": 0.25,
                    "durationTicks": 480,
                    "midi": 66,
                    "name": "F#4",
                    "ticks": 148800,
                    "time": 77.5,
                    "velocity": 1
                },
                {
                    "duration": 0.25,
                    "durationTicks": 480,
                    "midi": 62,
                    "name": "D4",
                    "ticks": 149280,
                    "time": 77.75,
                    "velocity": 1
                },
                {
                    "duration": 0.25,
                    "durationTicks": 480,
                    "midi": 59,
                    "name": "B3",
                    "ticks": 149760,
                    "time": 78,
                    "velocity": 1
                },
                {
                    "duration": 0.25,
                    "durationTicks": 480,
                    "midi": 64,
                    "name": "E4",
                    "ticks": 150240,
                    "time": 78.25,
                    "velocity": 1
                },
                {
                    "duration": 0.25,
                    "durationTicks": 480,
                    "midi": 67,
                    "name": "G4",
                    "ticks": 150720,
                    "time": 78.5,
                    "velocity": 1
                },
                {
                    "duration": 0.25,
                    "durationTicks": 480,
                    "midi": 64,
                    "name": "E4",
                    "ticks": 151200,
                    "time": 78.75,
                    "velocity": 1
                },
                {
                    "duration": 0.25,
                    "durationTicks": 480,
                    "midi": 59,
                    "name": "B3",
                    "ticks": 151680,
                    "time": 79,
                    "velocity": 1
                },
                {
                    "duration": 0.25,
                    "durationTicks": 480,
                    "midi": 64,
                    "name": "E4",
                    "ticks": 152160,
                    "time": 79.25,
                    "velocity": 1
                },
                {
                    "duration": 0.25,
                    "durationTicks": 480,
                    "midi": 67,
                    "name": "G4",
                    "ticks": 152640,
                    "time": 79.5,
                    "velocity": 1
                },
                {
                    "duration": 0.25,
                    "durationTicks": 480,
                    "midi": 64,
                    "name": "E4",
                    "ticks": 153120,
                    "time": 79.75,
                    "velocity": 1
                },
                {
                    "duration": 0.25,
                    "durationTicks": 480,
                    "midi": 57,
                    "name": "A3",
                    "ticks": 153600,
                    "time": 80,
                    "velocity": 1
                },
                {
                    "duration": 0.25,
                    "durationTicks": 480,
                    "midi": 61,
                    "name": "C#4",
                    "ticks": 154080,
                    "time": 80.25,
                    "velocity": 1
                },
                {
                    "duration": 0.25,
                    "durationTicks": 480,
                    "midi": 67,
                    "name": "G4",
                    "ticks": 154560,
                    "time": 80.5,
                    "velocity": 1
                },
                {
                    "duration": 0.25,
                    "durationTicks": 480,
                    "midi": 61,
                    "name": "C#4",
                    "ticks": 155040,
                    "time": 80.75,
                    "velocity": 1
                },
                {
                    "duration": 0.25,
                    "durationTicks": 480,
                    "midi": 57,
                    "name": "A3",
                    "ticks": 155520,
                    "time": 81,
                    "velocity": 1
                },
                {
                    "duration": 0.25,
                    "durationTicks": 480,
                    "midi": 61,
                    "name": "C#4",
                    "ticks": 156000,
                    "time": 81.25,
                    "velocity": 1
                },
                {
                    "duration": 0.25,
                    "durationTicks": 480,
                    "midi": 67,
                    "name": "G4",
                    "ticks": 156480,
                    "time": 81.5,
                    "velocity": 1
                },
                {
                    "duration": 0.25,
                    "durationTicks": 480,
                    "midi": 61,
                    "name": "C#4",
                    "ticks": 156960,
                    "time": 81.75,
                    "velocity": 1
                },
                {
                    "duration": 0.25,
                    "durationTicks": 480,
                    "midi": 58,
                    "name": "A#3",
                    "ticks": 157440,
                    "time": 82,
                    "velocity": 1
                },
                {
                    "duration": 0.25,
                    "durationTicks": 480,
                    "midi": 62,
                    "name": "D4",
                    "ticks": 157920,
                    "time": 82.25,
                    "velocity": 1
                },
                {
                    "duration": 0.25,
                    "durationTicks": 480,
                    "midi": 69,
                    "name": "A4",
                    "ticks": 158400,
                    "time": 82.5,
                    "velocity": 1
                },
                {
                    "duration": 0.25,
                    "durationTicks": 480,
                    "midi": 65,
                    "name": "F4",
                    "ticks": 158880,
                    "time": 82.75,
                    "velocity": 1
                },
                {
                    "duration": 0.25,
                    "durationTicks": 480,
                    "midi": 69,
                    "name": "A4",
                    "ticks": 159360,
                    "time": 83,
                    "velocity": 1
                },
                {
                    "duration": 0.25,
                    "durationTicks": 480,
                    "midi": 65,
                    "name": "F4",
                    "ticks": 159840,
                    "time": 83.25,
                    "velocity": 1
                },
                {
                    "duration": 0.25,
                    "durationTicks": 480,
                    "midi": 69,
                    "name": "A4",
                    "ticks": 160320,
                    "time": 83.5,
                    "velocity": 1
                },
                {
                    "duration": 0.25,
                    "durationTicks": 480,
                    "midi": 65,
                    "name": "F4",
                    "ticks": 160800,
                    "time": 83.75,
                    "velocity": 1
                },
                {
                    "duration": 0.25,
                    "durationTicks": 480,
                    "midi": 60,
                    "name": "C4",
                    "ticks": 161280,
                    "time": 84,
                    "velocity": 1
                },
                {
                    "duration": 0.25,
                    "durationTicks": 480,
                    "midi": 65,
                    "name": "F4",
                    "ticks": 161280,
                    "time": 84,
                    "velocity": 1
                },
                {
                    "duration": 0.25,
                    "durationTicks": 480,
                    "midi": 69,
                    "name": "A4",
                    "ticks": 161760,
                    "time": 84.25,
                    "velocity": 1
                },
                {
                    "duration": 0.25,
                    "durationTicks": 480,
                    "midi": 60,
                    "name": "C4",
                    "ticks": 162240,
                    "time": 84.5,
                    "velocity": 1
                },
                {
                    "duration": 0.25,
                    "durationTicks": 480,
                    "midi": 65,
                    "name": "F4",
                    "ticks": 162240,
                    "time": 84.5,
                    "velocity": 1
                },
                {
                    "duration": 0.25,
                    "durationTicks": 480,
                    "midi": 60,
                    "name": "C4",
                    "ticks": 163200,
                    "time": 85,
                    "velocity": 1
                },
                {
                    "duration": 0.25,
                    "durationTicks": 480,
                    "midi": 64,
                    "name": "E4",
                    "ticks": 163200,
                    "time": 85,
                    "velocity": 1
                },
                {
                    "duration": 0.25,
                    "durationTicks": 480,
                    "midi": 67,
                    "name": "G4",
                    "ticks": 163680,
                    "time": 85.25,
                    "velocity": 1
                },
                {
                    "duration": 0.25,
                    "durationTicks": 480,
                    "midi": 60,
                    "name": "C4",
                    "ticks": 164160,
                    "time": 85.5,
                    "velocity": 1
                },
                {
                    "duration": 0.25,
                    "durationTicks": 480,
                    "midi": 64,
                    "name": "E4",
                    "ticks": 164160,
                    "time": 85.5,
                    "velocity": 1
                },
                {
                    "duration": 0.25,
                    "durationTicks": 480,
                    "midi": 58,
                    "name": "A#3",
                    "ticks": 165120,
                    "time": 86,
                    "velocity": 1
                },
                {
                    "duration": 0.25,
                    "durationTicks": 480,
                    "midi": 62,
                    "name": "D4",
                    "ticks": 165120,
                    "time": 86,
                    "velocity": 1
                },
                {
                    "duration": 0.25,
                    "durationTicks": 480,
                    "midi": 70,
                    "name": "A#4",
                    "ticks": 165600,
                    "time": 86.25,
                    "velocity": 1
                },
                {
                    "duration": 0.25,
                    "durationTicks": 480,
                    "midi": 58,
                    "name": "A#3",
                    "ticks": 166080,
                    "time": 86.5,
                    "velocity": 1
                },
                {
                    "duration": 0.25,
                    "durationTicks": 480,
                    "midi": 62,
                    "name": "D4",
                    "ticks": 166080,
                    "time": 86.5,
                    "velocity": 1
                },
                {
                    "duration": 0.25,
                    "durationTicks": 480,
                    "midi": 64,
                    "name": "E4",
                    "ticks": 166560,
                    "time": 86.75,
                    "velocity": 1
                },
                {
                    "duration": 0.25,
                    "durationTicks": 480,
                    "midi": 60,
                    "name": "C4",
                    "ticks": 167040,
                    "time": 87,
                    "velocity": 1
                },
                {
                    "duration": 0.25,
                    "durationTicks": 480,
                    "midi": 65,
                    "name": "F4",
                    "ticks": 167040,
                    "time": 87,
                    "velocity": 1
                },
                {
                    "duration": 0.25,
                    "durationTicks": 480,
                    "midi": 69,
                    "name": "A4",
                    "ticks": 167520,
                    "time": 87.25,
                    "velocity": 1
                },
                {
                    "duration": 0.25,
                    "durationTicks": 480,
                    "midi": 60,
                    "name": "C4",
                    "ticks": 168000,
                    "time": 87.5,
                    "velocity": 1
                },
                {
                    "duration": 0.25,
                    "durationTicks": 480,
                    "midi": 65,
                    "name": "F4",
                    "ticks": 168000,
                    "time": 87.5,
                    "velocity": 1
                },
                {
                    "duration": 0.25,
                    "durationTicks": 480,
                    "midi": 60,
                    "name": "C4",
                    "ticks": 168960,
                    "time": 88,
                    "velocity": 1
                },
                {
                    "duration": 0.25,
                    "durationTicks": 480,
                    "midi": 65,
                    "name": "F4",
                    "ticks": 168960,
                    "time": 88,
                    "velocity": 1
                },
                {
                    "duration": 0.25,
                    "durationTicks": 480,
                    "midi": 69,
                    "name": "A4",
                    "ticks": 169440,
                    "time": 88.25,
                    "velocity": 1
                },
                {
                    "duration": 0.25,
                    "durationTicks": 480,
                    "midi": 60,
                    "name": "C4",
                    "ticks": 169920,
                    "time": 88.5,
                    "velocity": 1
                },
                {
                    "duration": 0.25,
                    "durationTicks": 480,
                    "midi": 65,
                    "name": "F4",
                    "ticks": 169920,
                    "time": 88.5,
                    "velocity": 1
                },
                {
                    "duration": 0.25,
                    "durationTicks": 480,
                    "midi": 60,
                    "name": "C4",
                    "ticks": 170880,
                    "time": 89,
                    "velocity": 1
                },
                {
                    "duration": 0.25,
                    "durationTicks": 480,
                    "midi": 64,
                    "name": "E4",
                    "ticks": 170880,
                    "time": 89,
                    "velocity": 1
                },
                {
                    "duration": 0.25,
                    "durationTicks": 480,
                    "midi": 67,
                    "name": "G4",
                    "ticks": 171360,
                    "time": 89.25,
                    "velocity": 1
                },
                {
                    "duration": 0.25,
                    "durationTicks": 480,
                    "midi": 60,
                    "name": "C4",
                    "ticks": 171840,
                    "time": 89.5,
                    "velocity": 1
                },
                {
                    "duration": 0.25,
                    "durationTicks": 480,
                    "midi": 64,
                    "name": "E4",
                    "ticks": 171840,
                    "time": 89.5,
                    "velocity": 1
                },
                {
                    "duration": 0.25,
                    "durationTicks": 480,
                    "midi": 58,
                    "name": "A#3",
                    "ticks": 172800,
                    "time": 90,
                    "velocity": 1
                },
                {
                    "duration": 0.25,
                    "durationTicks": 480,
                    "midi": 62,
                    "name": "D4",
                    "ticks": 172800,
                    "time": 90,
                    "velocity": 1
                },
                {
                    "duration": 0.25,
                    "durationTicks": 480,
                    "midi": 70,
                    "name": "A#4",
                    "ticks": 173280,
                    "time": 90.25,
                    "velocity": 1
                },
                {
                    "duration": 0.25,
                    "durationTicks": 480,
                    "midi": 58,
                    "name": "A#3",
                    "ticks": 173760,
                    "time": 90.5,
                    "velocity": 1
                },
                {
                    "duration": 0.25,
                    "durationTicks": 480,
                    "midi": 62,
                    "name": "D4",
                    "ticks": 173760,
                    "time": 90.5,
                    "velocity": 1
                },
                {
                    "duration": 0.25,
                    "durationTicks": 480,
                    "midi": 64,
                    "name": "E4",
                    "ticks": 174240,
                    "time": 90.75,
                    "velocity": 1
                },
                {
                    "duration": 0.25,
                    "durationTicks": 480,
                    "midi": 60,
                    "name": "C4",
                    "ticks": 174720,
                    "time": 91,
                    "velocity": 1
                },
                {
                    "duration": 0.25,
                    "durationTicks": 480,
                    "midi": 65,
                    "name": "F4",
                    "ticks": 174720,
                    "time": 91,
                    "velocity": 1
                },
                {
                    "duration": 0.25,
                    "durationTicks": 480,
                    "midi": 69,
                    "name": "A4",
                    "ticks": 175200,
                    "time": 91.25,
                    "velocity": 1
                },
                {
                    "duration": 0.25,
                    "durationTicks": 480,
                    "midi": 60,
                    "name": "C4",
                    "ticks": 175680,
                    "time": 91.5,
                    "velocity": 1
                },
                {
                    "duration": 0.25,
                    "durationTicks": 480,
                    "midi": 65,
                    "name": "F4",
                    "ticks": 175680,
                    "time": 91.5,
                    "velocity": 1
                },
                {
                    "duration": 0.25,
                    "durationTicks": 480,
                    "midi": 58,
                    "name": "A#3",
                    "ticks": 176640,
                    "time": 92,
                    "velocity": 1
                },
                {
                    "duration": 0.25,
                    "durationTicks": 480,
                    "midi": 62,
                    "name": "D4",
                    "ticks": 176640,
                    "time": 92,
                    "velocity": 1
                },
                {
                    "duration": 0.25,
                    "durationTicks": 480,
                    "midi": 67,
                    "name": "G4",
                    "ticks": 177120,
                    "time": 92.25,
                    "velocity": 1
                },
                {
                    "duration": 0.25,
                    "durationTicks": 480,
                    "midi": 58,
                    "name": "A#3",
                    "ticks": 177600,
                    "time": 92.5,
                    "velocity": 1
                },
                {
                    "duration": 0.25,
                    "durationTicks": 480,
                    "midi": 62,
                    "name": "D4",
                    "ticks": 177600,
                    "time": 92.5,
                    "velocity": 1
                },
                {
                    "duration": 0.25,
                    "durationTicks": 480,
                    "midi": 67,
                    "name": "G4",
                    "ticks": 178080,
                    "time": 92.75,
                    "velocity": 1
                },
                {
                    "duration": 0.25,
                    "durationTicks": 480,
                    "midi": 60,
                    "name": "C4",
                    "ticks": 178560,
                    "time": 93,
                    "velocity": 1
                },
                {
                    "duration": 0.25,
                    "durationTicks": 480,
                    "midi": 64,
                    "name": "E4",
                    "ticks": 178560,
                    "time": 93,
                    "velocity": 1
                },
                {
                    "duration": 0.25,
                    "durationTicks": 480,
                    "midi": 67,
                    "name": "G4",
                    "ticks": 179040,
                    "time": 93.25,
                    "velocity": 1
                },
                {
                    "duration": 0.25,
                    "durationTicks": 480,
                    "midi": 60,
                    "name": "C4",
                    "ticks": 179520,
                    "time": 93.5,
                    "velocity": 1
                },
                {
                    "duration": 0.25,
                    "durationTicks": 480,
                    "midi": 64,
                    "name": "E4",
                    "ticks": 179520,
                    "time": 93.5,
                    "velocity": 1
                },
                {
                    "duration": 0.25,
                    "durationTicks": 480,
                    "midi": 67,
                    "name": "G4",
                    "ticks": 180000,
                    "time": 93.75,
                    "velocity": 1
                },
                {
                    "duration": 0.25,
                    "durationTicks": 480,
                    "midi": 60,
                    "name": "C4",
                    "ticks": 180480,
                    "time": 94,
                    "velocity": 1
                },
                {
                    "duration": 0.25,
                    "durationTicks": 480,
                    "midi": 65,
                    "name": "F4",
                    "ticks": 180480,
                    "time": 94,
                    "velocity": 1
                },
                {
                    "duration": 0.25,
                    "durationTicks": 480,
                    "midi": 69,
                    "name": "A4",
                    "ticks": 180960,
                    "time": 94.25,
                    "velocity": 1
                },
                {
                    "duration": 0.25,
                    "durationTicks": 480,
                    "midi": 60,
                    "name": "C4",
                    "ticks": 181440,
                    "time": 94.5,
                    "velocity": 1
                },
                {
                    "duration": 0.25,
                    "durationTicks": 480,
                    "midi": 65,
                    "name": "F4",
                    "ticks": 181440,
                    "time": 94.5,
                    "velocity": 1
                },
                {
                    "duration": 0.25,
                    "durationTicks": 480,
                    "midi": 69,
                    "name": "A4",
                    "ticks": 181920,
                    "time": 94.75,
                    "velocity": 1
                },
                {
                    "duration": 0.25,
                    "durationTicks": 480,
                    "midi": 62,
                    "name": "D4",
                    "ticks": 182400,
                    "time": 95,
                    "velocity": 1
                },
                {
                    "duration": 0.25,
                    "durationTicks": 480,
                    "midi": 65,
                    "name": "F4",
                    "ticks": 182400,
                    "time": 95,
                    "velocity": 1
                },
                {
                    "duration": 0.25,
                    "durationTicks": 480,
                    "midi": 69,
                    "name": "A4",
                    "ticks": 182880,
                    "time": 95.25,
                    "velocity": 1
                },
                {
                    "duration": 0.25,
                    "durationTicks": 480,
                    "midi": 62,
                    "name": "D4",
                    "ticks": 183360,
                    "time": 95.5,
                    "velocity": 1
                },
                {
                    "duration": 0.25,
                    "durationTicks": 480,
                    "midi": 65,
                    "name": "F4",
                    "ticks": 183360,
                    "time": 95.5,
                    "velocity": 1
                },
                {
                    "duration": 0.25,
                    "durationTicks": 480,
                    "midi": 69,
                    "name": "A4",
                    "ticks": 183840,
                    "time": 95.75,
                    "velocity": 1
                },
                {
                    "duration": 0.25,
                    "durationTicks": 480,
                    "midi": 58,
                    "name": "A#3",
                    "ticks": 184320,
                    "time": 96,
                    "velocity": 1
                },
                {
                    "duration": 0.25,
                    "durationTicks": 480,
                    "midi": 62,
                    "name": "D4",
                    "ticks": 184320,
                    "time": 96,
                    "velocity": 1
                },
                {
                    "duration": 0.25,
                    "durationTicks": 480,
                    "midi": 67,
                    "name": "G4",
                    "ticks": 184800,
                    "time": 96.25,
                    "velocity": 1
                },
                {
                    "duration": 0.25,
                    "durationTicks": 480,
                    "midi": 58,
                    "name": "A#3",
                    "ticks": 185280,
                    "time": 96.5,
                    "velocity": 1
                },
                {
                    "duration": 0.25,
                    "durationTicks": 480,
                    "midi": 62,
                    "name": "D4",
                    "ticks": 185280,
                    "time": 96.5,
                    "velocity": 1
                },
                {
                    "duration": 0.25,
                    "durationTicks": 480,
                    "midi": 67,
                    "name": "G4",
                    "ticks": 185760,
                    "time": 96.75,
                    "velocity": 1
                },
                {
                    "duration": 0.25,
                    "durationTicks": 480,
                    "midi": 57,
                    "name": "A3",
                    "ticks": 186240,
                    "time": 97,
                    "velocity": 1
                },
                {
                    "duration": 0.25,
                    "durationTicks": 480,
                    "midi": 61,
                    "name": "C#4",
                    "ticks": 186240,
                    "time": 97,
                    "velocity": 1
                },
                {
                    "duration": 0.25,
                    "durationTicks": 480,
                    "midi": 67,
                    "name": "G4",
                    "ticks": 186720,
                    "time": 97.25,
                    "velocity": 1
                },
                {
                    "duration": 0.25,
                    "durationTicks": 480,
                    "midi": 57,
                    "name": "A3",
                    "ticks": 187200,
                    "time": 97.5,
                    "velocity": 1
                },
                {
                    "duration": 0.25,
                    "durationTicks": 480,
                    "midi": 61,
                    "name": "C#4",
                    "ticks": 187200,
                    "time": 97.5,
                    "velocity": 1
                },
                {
                    "duration": 0.25,
                    "durationTicks": 480,
                    "midi": 67,
                    "name": "G4",
                    "ticks": 187680,
                    "time": 97.75,
                    "velocity": 1
                },
                {
                    "duration": 0.25,
                    "durationTicks": 480,
                    "midi": 57,
                    "name": "A3",
                    "ticks": 188160,
                    "time": 98,
                    "velocity": 1
                },
                {
                    "duration": 0.25,
                    "durationTicks": 480,
                    "midi": 62,
                    "name": "D4",
                    "ticks": 188640,
                    "time": 98.25,
                    "velocity": 1
                },
                {
                    "duration": 0.25,
                    "durationTicks": 480,
                    "midi": 66,
                    "name": "F#4",
                    "ticks": 189120,
                    "time": 98.5,
                    "velocity": 1
                },
                {
                    "duration": 0.25,
                    "durationTicks": 480,
                    "midi": 62,
                    "name": "D4",
                    "ticks": 189600,
                    "time": 98.75,
                    "velocity": 1
                },
                {
                    "duration": 0.25,
                    "durationTicks": 480,
                    "midi": 59,
                    "name": "B3",
                    "ticks": 190080,
                    "time": 99,
                    "velocity": 1
                },
                {
                    "duration": 0.25,
                    "durationTicks": 480,
                    "midi": 62,
                    "name": "D4",
                    "ticks": 190560,
                    "time": 99.25,
                    "velocity": 1
                },
                {
                    "duration": 0.25,
                    "durationTicks": 480,
                    "midi": 66,
                    "name": "F#4",
                    "ticks": 191040,
                    "time": 99.5,
                    "velocity": 1
                },
                {
                    "duration": 0.25,
                    "durationTicks": 480,
                    "midi": 62,
                    "name": "D4",
                    "ticks": 191520,
                    "time": 99.75,
                    "velocity": 1
                },
                {
                    "duration": 0.25,
                    "durationTicks": 480,
                    "midi": 57,
                    "name": "A3",
                    "ticks": 192000,
                    "time": 100,
                    "velocity": 1
                },
                {
                    "duration": 0.25,
                    "durationTicks": 480,
                    "midi": 62,
                    "name": "D4",
                    "ticks": 192480,
                    "time": 100.25,
                    "velocity": 1
                },
                {
                    "duration": 0.25,
                    "durationTicks": 480,
                    "midi": 66,
                    "name": "F#4",
                    "ticks": 192960,
                    "time": 100.5,
                    "velocity": 1
                },
                {
                    "duration": 0.25,
                    "durationTicks": 480,
                    "midi": 62,
                    "name": "D4",
                    "ticks": 193440,
                    "time": 100.75,
                    "velocity": 1
                },
                {
                    "duration": 0.25,
                    "durationTicks": 480,
                    "midi": 59,
                    "name": "B3",
                    "ticks": 193920,
                    "time": 101,
                    "velocity": 1
                },
                {
                    "duration": 0.25,
                    "durationTicks": 480,
                    "midi": 62,
                    "name": "D4",
                    "ticks": 194400,
                    "time": 101.25,
                    "velocity": 1
                },
                {
                    "duration": 0.25,
                    "durationTicks": 480,
                    "midi": 66,
                    "name": "F#4",
                    "ticks": 194880,
                    "time": 101.5,
                    "velocity": 1
                },
                {
                    "duration": 0.25,
                    "durationTicks": 480,
                    "midi": 62,
                    "name": "D4",
                    "ticks": 195360,
                    "time": 101.75,
                    "velocity": 1
                },
                {
                    "duration": 0.25,
                    "durationTicks": 480,
                    "midi": 57,
                    "name": "A3",
                    "ticks": 195840,
                    "time": 102,
                    "velocity": 1
                },
                {
                    "duration": 0.25,
                    "durationTicks": 480,
                    "midi": 62,
                    "name": "D4",
                    "ticks": 196320,
                    "time": 102.25,
                    "velocity": 1
                },
                {
                    "duration": 0.25,
                    "durationTicks": 480,
                    "midi": 66,
                    "name": "F#4",
                    "ticks": 196800,
                    "time": 102.5,
                    "velocity": 1
                },
                {
                    "duration": 0.25,
                    "durationTicks": 480,
                    "midi": 62,
                    "name": "D4",
                    "ticks": 197280,
                    "time": 102.75,
                    "velocity": 1
                },
                {
                    "duration": 0.25,
                    "durationTicks": 480,
                    "midi": 59,
                    "name": "B3",
                    "ticks": 197760,
                    "time": 103,
                    "velocity": 1
                },
                {
                    "duration": 0.25,
                    "durationTicks": 480,
                    "midi": 62,
                    "name": "D4",
                    "ticks": 198240,
                    "time": 103.25,
                    "velocity": 1
                },
                {
                    "duration": 0.25,
                    "durationTicks": 480,
                    "midi": 66,
                    "name": "F#4",
                    "ticks": 198720,
                    "time": 103.5,
                    "velocity": 1
                },
                {
                    "duration": 0.25,
                    "durationTicks": 480,
                    "midi": 62,
                    "name": "D4",
                    "ticks": 199200,
                    "time": 103.75,
                    "velocity": 1
                },
                {
                    "duration": 0.25,
                    "durationTicks": 480,
                    "midi": 57,
                    "name": "A3",
                    "ticks": 199680,
                    "time": 104,
                    "velocity": 1
                },
                {
                    "duration": 0.25,
                    "durationTicks": 480,
                    "midi": 62,
                    "name": "D4",
                    "ticks": 200160,
                    "time": 104.25,
                    "velocity": 1
                },
                {
                    "duration": 0.25,
                    "durationTicks": 480,
                    "midi": 66,
                    "name": "F#4",
                    "ticks": 200640,
                    "time": 104.5,
                    "velocity": 1
                },
                {
                    "duration": 0.25,
                    "durationTicks": 480,
                    "midi": 62,
                    "name": "D4",
                    "ticks": 201120,
                    "time": 104.75,
                    "velocity": 1
                },
                {
                    "duration": 0.25,
                    "durationTicks": 480,
                    "midi": 59,
                    "name": "B3",
                    "ticks": 201600,
                    "time": 105,
                    "velocity": 1
                },
                {
                    "duration": 0.25,
                    "durationTicks": 480,
                    "midi": 62,
                    "name": "D4",
                    "ticks": 202080,
                    "time": 105.25,
                    "velocity": 1
                },
                {
                    "duration": 0.25,
                    "durationTicks": 480,
                    "midi": 66,
                    "name": "F#4",
                    "ticks": 202560,
                    "time": 105.5,
                    "velocity": 1
                },
                {
                    "duration": 0.25,
                    "durationTicks": 480,
                    "midi": 62,
                    "name": "D4",
                    "ticks": 203040,
                    "time": 105.75,
                    "velocity": 1
                },
                {
                    "duration": 0.25,
                    "durationTicks": 480,
                    "midi": 57,
                    "name": "A3",
                    "ticks": 203520,
                    "time": 106,
                    "velocity": 1
                },
                {
                    "duration": 0.25,
                    "durationTicks": 480,
                    "midi": 62,
                    "name": "D4",
                    "ticks": 204000,
                    "time": 106.25,
                    "velocity": 1
                },
                {
                    "duration": 0.25,
                    "durationTicks": 480,
                    "midi": 66,
                    "name": "F#4",
                    "ticks": 204480,
                    "time": 106.5,
                    "velocity": 1
                },
                {
                    "duration": 0.25,
                    "durationTicks": 480,
                    "midi": 62,
                    "name": "D4",
                    "ticks": 204960,
                    "time": 106.75,
                    "velocity": 1
                },
                {
                    "duration": 0.25,
                    "durationTicks": 480,
                    "midi": 59,
                    "name": "B3",
                    "ticks": 205440,
                    "time": 107,
                    "velocity": 1
                },
                {
                    "duration": 0.25,
                    "durationTicks": 480,
                    "midi": 62,
                    "name": "D4",
                    "ticks": 205920,
                    "time": 107.25,
                    "velocity": 1
                },
                {
                    "duration": 0.25,
                    "durationTicks": 480,
                    "midi": 66,
                    "name": "F#4",
                    "ticks": 206400,
                    "time": 107.5,
                    "velocity": 1
                },
                {
                    "duration": 0.25,
                    "durationTicks": 480,
                    "midi": 62,
                    "name": "D4",
                    "ticks": 206880,
                    "time": 107.75,
                    "velocity": 1
                },
                {
                    "duration": 0.25,
                    "durationTicks": 480,
                    "midi": 57,
                    "name": "A3",
                    "ticks": 207360,
                    "time": 108,
                    "velocity": 1
                },
                {
                    "duration": 0.25,
                    "durationTicks": 480,
                    "midi": 62,
                    "name": "D4",
                    "ticks": 207840,
                    "time": 108.25,
                    "velocity": 1
                },
                {
                    "duration": 0.25,
                    "durationTicks": 480,
                    "midi": 66,
                    "name": "F#4",
                    "ticks": 208320,
                    "time": 108.5,
                    "velocity": 1
                },
                {
                    "duration": 0.25,
                    "durationTicks": 480,
                    "midi": 62,
                    "name": "D4",
                    "ticks": 208800,
                    "time": 108.75,
                    "velocity": 1
                },
                {
                    "duration": 0.25,
                    "durationTicks": 480,
                    "midi": 59,
                    "name": "B3",
                    "ticks": 209280,
                    "time": 109,
                    "velocity": 1
                },
                {
                    "duration": 0.25,
                    "durationTicks": 480,
                    "midi": 62,
                    "name": "D4",
                    "ticks": 209760,
                    "time": 109.25,
                    "velocity": 1
                },
                {
                    "duration": 0.25,
                    "durationTicks": 480,
                    "midi": 66,
                    "name": "F#4",
                    "ticks": 210240,
                    "time": 109.5,
                    "velocity": 1
                },
                {
                    "duration": 0.25,
                    "durationTicks": 480,
                    "midi": 62,
                    "name": "D4",
                    "ticks": 210720,
                    "time": 109.75,
                    "velocity": 1
                },
                {
                    "duration": 0.25,
                    "durationTicks": 480,
                    "midi": 57,
                    "name": "A3",
                    "ticks": 211200,
                    "time": 110,
                    "velocity": 1
                },
                {
                    "duration": 0.25,
                    "durationTicks": 480,
                    "midi": 62,
                    "name": "D4",
                    "ticks": 211680,
                    "time": 110.25,
                    "velocity": 1
                },
                {
                    "duration": 0.25,
                    "durationTicks": 480,
                    "midi": 66,
                    "name": "F#4",
                    "ticks": 212160,
                    "time": 110.5,
                    "velocity": 1
                },
                {
                    "duration": 0.25,
                    "durationTicks": 480,
                    "midi": 62,
                    "name": "D4",
                    "ticks": 212640,
                    "time": 110.75,
                    "velocity": 1
                },
                {
                    "duration": 0.25,
                    "durationTicks": 480,
                    "midi": 59,
                    "name": "B3",
                    "ticks": 213120,
                    "time": 111,
                    "velocity": 1
                },
                {
                    "duration": 0.25,
                    "durationTicks": 480,
                    "midi": 62,
                    "name": "D4",
                    "ticks": 213600,
                    "time": 111.25,
                    "velocity": 1
                },
                {
                    "duration": 0.25,
                    "durationTicks": 480,
                    "midi": 66,
                    "name": "F#4",
                    "ticks": 214080,
                    "time": 111.5,
                    "velocity": 1
                },
                {
                    "duration": 0.25,
                    "durationTicks": 480,
                    "midi": 62,
                    "name": "D4",
                    "ticks": 214560,
                    "time": 111.75,
                    "velocity": 1
                },
                {
                    "duration": 0.25,
                    "durationTicks": 480,
                    "midi": 57,
                    "name": "A3",
                    "ticks": 215040,
                    "time": 112,
                    "velocity": 1
                },
                {
                    "duration": 0.25,
                    "durationTicks": 480,
                    "midi": 62,
                    "name": "D4",
                    "ticks": 215520,
                    "time": 112.25,
                    "velocity": 1
                },
                {
                    "duration": 0.25,
                    "durationTicks": 480,
                    "midi": 66,
                    "name": "F#4",
                    "ticks": 216000,
                    "time": 112.5,
                    "velocity": 1
                },
                {
                    "duration": 0.25,
                    "durationTicks": 480,
                    "midi": 62,
                    "name": "D4",
                    "ticks": 216480,
                    "time": 112.75,
                    "velocity": 1
                },
                {
                    "duration": 0.25,
                    "durationTicks": 480,
                    "midi": 59,
                    "name": "B3",
                    "ticks": 216960,
                    "time": 113,
                    "velocity": 1
                },
                {
                    "duration": 0.25,
                    "durationTicks": 480,
                    "midi": 62,
                    "name": "D4",
                    "ticks": 217440,
                    "time": 113.25,
                    "velocity": 1
                },
                {
                    "duration": 0.25,
                    "durationTicks": 480,
                    "midi": 66,
                    "name": "F#4",
                    "ticks": 217920,
                    "time": 113.5,
                    "velocity": 1
                },
                {
                    "duration": 0.25,
                    "durationTicks": 480,
                    "midi": 62,
                    "name": "D4",
                    "ticks": 218400,
                    "time": 113.75,
                    "velocity": 1
                },
                {
                    "duration": 0.25,
                    "durationTicks": 480,
                    "midi": 59,
                    "name": "B3",
                    "ticks": 218880,
                    "time": 114,
                    "velocity": 1
                },
                {
                    "duration": 0.25,
                    "durationTicks": 480,
                    "midi": 64,
                    "name": "E4",
                    "ticks": 219360,
                    "time": 114.25,
                    "velocity": 1
                },
                {
                    "duration": 0.25,
                    "durationTicks": 480,
                    "midi": 67,
                    "name": "G4",
                    "ticks": 219840,
                    "time": 114.5,
                    "velocity": 1
                },
                {
                    "duration": 0.25,
                    "durationTicks": 480,
                    "midi": 64,
                    "name": "E4",
                    "ticks": 220320,
                    "time": 114.75,
                    "velocity": 1
                },
                {
                    "duration": 0.25,
                    "durationTicks": 480,
                    "midi": 59,
                    "name": "B3",
                    "ticks": 220800,
                    "time": 115,
                    "velocity": 1
                },
                {
                    "duration": 0.25,
                    "durationTicks": 480,
                    "midi": 64,
                    "name": "E4",
                    "ticks": 221280,
                    "time": 115.25,
                    "velocity": 1
                },
                {
                    "duration": 0.25,
                    "durationTicks": 480,
                    "midi": 67,
                    "name": "G4",
                    "ticks": 221760,
                    "time": 115.5,
                    "velocity": 1
                },
                {
                    "duration": 0.25,
                    "durationTicks": 480,
                    "midi": 64,
                    "name": "E4",
                    "ticks": 222240,
                    "time": 115.75,
                    "velocity": 1
                },
                {
                    "duration": 0.25,
                    "durationTicks": 480,
                    "midi": 57,
                    "name": "A3",
                    "ticks": 222720,
                    "time": 116,
                    "velocity": 1
                },
                {
                    "duration": 0.25,
                    "durationTicks": 480,
                    "midi": 61,
                    "name": "C#4",
                    "ticks": 223200,
                    "time": 116.25,
                    "velocity": 1
                },
                {
                    "duration": 0.25,
                    "durationTicks": 480,
                    "midi": 67,
                    "name": "G4",
                    "ticks": 223680,
                    "time": 116.5,
                    "velocity": 1
                },
                {
                    "duration": 0.25,
                    "durationTicks": 480,
                    "midi": 61,
                    "name": "C#4",
                    "ticks": 224160,
                    "time": 116.75,
                    "velocity": 1
                },
                {
                    "duration": 0.25,
                    "durationTicks": 480,
                    "midi": 57,
                    "name": "A3",
                    "ticks": 224640,
                    "time": 117,
                    "velocity": 1
                },
                {
                    "duration": 0.25,
                    "durationTicks": 480,
                    "midi": 61,
                    "name": "C#4",
                    "ticks": 225120,
                    "time": 117.25,
                    "velocity": 1
                },
                {
                    "duration": 0.25,
                    "durationTicks": 480,
                    "midi": 67,
                    "name": "G4",
                    "ticks": 225600,
                    "time": 117.5,
                    "velocity": 1
                },
                {
                    "duration": 0.25,
                    "durationTicks": 480,
                    "midi": 61,
                    "name": "C#4",
                    "ticks": 226080,
                    "time": 117.75,
                    "velocity": 1
                },
                {
                    "duration": 0.25,
                    "durationTicks": 480,
                    "midi": 57,
                    "name": "A3",
                    "ticks": 226560,
                    "time": 118,
                    "velocity": 1
                },
                {
                    "duration": 0.25,
                    "durationTicks": 480,
                    "midi": 62,
                    "name": "D4",
                    "ticks": 227040,
                    "time": 118.25,
                    "velocity": 1
                },
                {
                    "duration": 0.25,
                    "durationTicks": 480,
                    "midi": 66,
                    "name": "F#4",
                    "ticks": 227520,
                    "time": 118.5,
                    "velocity": 1
                },
                {
                    "duration": 0.25,
                    "durationTicks": 480,
                    "midi": 62,
                    "name": "D4",
                    "ticks": 228000,
                    "time": 118.75,
                    "velocity": 1
                },
                {
                    "duration": 0.25,
                    "durationTicks": 480,
                    "midi": 59,
                    "name": "B3",
                    "ticks": 228480,
                    "time": 119,
                    "velocity": 1
                },
                {
                    "duration": 0.25,
                    "durationTicks": 480,
                    "midi": 62,
                    "name": "D4",
                    "ticks": 228960,
                    "time": 119.25,
                    "velocity": 1
                },
                {
                    "duration": 0.25,
                    "durationTicks": 480,
                    "midi": 66,
                    "name": "F#4",
                    "ticks": 229440,
                    "time": 119.5,
                    "velocity": 1
                },
                {
                    "duration": 0.25,
                    "durationTicks": 480,
                    "midi": 62,
                    "name": "D4",
                    "ticks": 229920,
                    "time": 119.75,
                    "velocity": 1
                },
                {
                    "duration": 0.25,
                    "durationTicks": 480,
                    "midi": 57,
                    "name": "A3",
                    "ticks": 230400,
                    "time": 120,
                    "velocity": 1
                },
                {
                    "duration": 0.25,
                    "durationTicks": 480,
                    "midi": 62,
                    "name": "D4",
                    "ticks": 230880,
                    "time": 120.25,
                    "velocity": 1
                },
                {
                    "duration": 0.25,
                    "durationTicks": 480,
                    "midi": 66,
                    "name": "F#4",
                    "ticks": 231360,
                    "time": 120.5,
                    "velocity": 1
                },
                {
                    "duration": 0.25,
                    "durationTicks": 480,
                    "midi": 62,
                    "name": "D4",
                    "ticks": 231840,
                    "time": 120.75,
                    "velocity": 1
                },
                {
                    "duration": 0.25,
                    "durationTicks": 480,
                    "midi": 59,
                    "name": "B3",
                    "ticks": 232320,
                    "time": 121,
                    "velocity": 1
                },
                {
                    "duration": 0.25,
                    "durationTicks": 480,
                    "midi": 62,
                    "name": "D4",
                    "ticks": 232800,
                    "time": 121.25,
                    "velocity": 1
                },
                {
                    "duration": 0.25,
                    "durationTicks": 480,
                    "midi": 66,
                    "name": "F#4",
                    "ticks": 233280,
                    "time": 121.5,
                    "velocity": 1
                },
                {
                    "duration": 0.25,
                    "durationTicks": 480,
                    "midi": 62,
                    "name": "D4",
                    "ticks": 233760,
                    "time": 121.75,
                    "velocity": 1
                },
                {
                    "duration": 0.25,
                    "durationTicks": 480,
                    "midi": 57,
                    "name": "A3",
                    "ticks": 234240,
                    "time": 122,
                    "velocity": 1
                },
                {
                    "duration": 0.25,
                    "durationTicks": 480,
                    "midi": 62,
                    "name": "D4",
                    "ticks": 234720,
                    "time": 122.25,
                    "velocity": 1
                },
                {
                    "duration": 0.25,
                    "durationTicks": 480,
                    "midi": 66,
                    "name": "F#4",
                    "ticks": 235200,
                    "time": 122.5,
                    "velocity": 1
                },
                {
                    "duration": 0.25,
                    "durationTicks": 480,
                    "midi": 62,
                    "name": "D4",
                    "ticks": 235680,
                    "time": 122.75,
                    "velocity": 1
                },
                {
                    "duration": 0.25,
                    "durationTicks": 480,
                    "midi": 59,
                    "name": "B3",
                    "ticks": 236160,
                    "time": 123,
                    "velocity": 1
                },
                {
                    "duration": 0.25,
                    "durationTicks": 480,
                    "midi": 62,
                    "name": "D4",
                    "ticks": 236640,
                    "time": 123.25,
                    "velocity": 1
                },
                {
                    "duration": 0.25,
                    "durationTicks": 480,
                    "midi": 66,
                    "name": "F#4",
                    "ticks": 237120,
                    "time": 123.5,
                    "velocity": 1
                },
                {
                    "duration": 0.25,
                    "durationTicks": 480,
                    "midi": 62,
                    "name": "D4",
                    "ticks": 237600,
                    "time": 123.75,
                    "velocity": 1
                },
                {
                    "duration": 0.25,
                    "durationTicks": 480,
                    "midi": 57,
                    "name": "A3",
                    "ticks": 238080,
                    "time": 124,
                    "velocity": 1
                },
                {
                    "duration": 0.25,
                    "durationTicks": 480,
                    "midi": 62,
                    "name": "D4",
                    "ticks": 238560,
                    "time": 124.25,
                    "velocity": 1
                },
                {
                    "duration": 0.25,
                    "durationTicks": 480,
                    "midi": 66,
                    "name": "F#4",
                    "ticks": 239040,
                    "time": 124.5,
                    "velocity": 1
                },
                {
                    "duration": 0.25,
                    "durationTicks": 480,
                    "midi": 62,
                    "name": "D4",
                    "ticks": 239520,
                    "time": 124.75,
                    "velocity": 1
                },
                {
                    "duration": 0.25,
                    "durationTicks": 480,
                    "midi": 59,
                    "name": "B3",
                    "ticks": 240000,
                    "time": 125,
                    "velocity": 1
                },
                {
                    "duration": 0.25,
                    "durationTicks": 480,
                    "midi": 62,
                    "name": "D4",
                    "ticks": 240480,
                    "time": 125.25,
                    "velocity": 1
                },
                {
                    "duration": 0.25,
                    "durationTicks": 480,
                    "midi": 66,
                    "name": "F#4",
                    "ticks": 240960,
                    "time": 125.5,
                    "velocity": 1
                },
                {
                    "duration": 0.25,
                    "durationTicks": 480,
                    "midi": 62,
                    "name": "D4",
                    "ticks": 241440,
                    "time": 125.75,
                    "velocity": 1
                },
                {
                    "duration": 0.25,
                    "durationTicks": 480,
                    "midi": 57,
                    "name": "A3",
                    "ticks": 241920,
                    "time": 126,
                    "velocity": 1
                },
                {
                    "duration": 0.25,
                    "durationTicks": 480,
                    "midi": 62,
                    "name": "D4",
                    "ticks": 242400,
                    "time": 126.25,
                    "velocity": 1
                },
                {
                    "duration": 0.25,
                    "durationTicks": 480,
                    "midi": 66,
                    "name": "F#4",
                    "ticks": 242880,
                    "time": 126.5,
                    "velocity": 1
                },
                {
                    "duration": 0.25,
                    "durationTicks": 480,
                    "midi": 62,
                    "name": "D4",
                    "ticks": 243360,
                    "time": 126.75,
                    "velocity": 1
                },
                {
                    "duration": 0.25,
                    "durationTicks": 480,
                    "midi": 59,
                    "name": "B3",
                    "ticks": 243840,
                    "time": 127,
                    "velocity": 1
                },
                {
                    "duration": 0.25,
                    "durationTicks": 480,
                    "midi": 62,
                    "name": "D4",
                    "ticks": 244320,
                    "time": 127.25,
                    "velocity": 1
                },
                {
                    "duration": 0.25,
                    "durationTicks": 480,
                    "midi": 66,
                    "name": "F#4",
                    "ticks": 244800,
                    "time": 127.5,
                    "velocity": 1
                },
                {
                    "duration": 0.25,
                    "durationTicks": 480,
                    "midi": 62,
                    "name": "D4",
                    "ticks": 245280,
                    "time": 127.75,
                    "velocity": 1
                },
                {
                    "duration": 0.25,
                    "durationTicks": 480,
                    "midi": 57,
                    "name": "A3",
                    "ticks": 245760,
                    "time": 128,
                    "velocity": 1
                },
                {
                    "duration": 0.25,
                    "durationTicks": 480,
                    "midi": 62,
                    "name": "D4",
                    "ticks": 246240,
                    "time": 128.25,
                    "velocity": 1
                },
                {
                    "duration": 0.25,
                    "durationTicks": 480,
                    "midi": 66,
                    "name": "F#4",
                    "ticks": 246720,
                    "time": 128.5,
                    "velocity": 1
                },
                {
                    "duration": 0.25,
                    "durationTicks": 480,
                    "midi": 62,
                    "name": "D4",
                    "ticks": 247200,
                    "time": 128.75,
                    "velocity": 1
                },
                {
                    "duration": 0.25,
                    "durationTicks": 480,
                    "midi": 59,
                    "name": "B3",
                    "ticks": 247680,
                    "time": 129,
                    "velocity": 1
                },
                {
                    "duration": 0.25,
                    "durationTicks": 480,
                    "midi": 62,
                    "name": "D4",
                    "ticks": 248160,
                    "time": 129.25,
                    "velocity": 1
                },
                {
                    "duration": 0.25,
                    "durationTicks": 480,
                    "midi": 66,
                    "name": "F#4",
                    "ticks": 248640,
                    "time": 129.5,
                    "velocity": 1
                },
                {
                    "duration": 0.25,
                    "durationTicks": 480,
                    "midi": 62,
                    "name": "D4",
                    "ticks": 249120,
                    "time": 129.75,
                    "velocity": 1
                },
                {
                    "duration": 0.25,
                    "durationTicks": 480,
                    "midi": 59,
                    "name": "B3",
                    "ticks": 249600,
                    "time": 130,
                    "velocity": 1
                },
                {
                    "duration": 0.25,
                    "durationTicks": 480,
                    "midi": 64,
                    "name": "E4",
                    "ticks": 250080,
                    "time": 130.25,
                    "velocity": 1
                },
                {
                    "duration": 0.25,
                    "durationTicks": 480,
                    "midi": 67,
                    "name": "G4",
                    "ticks": 250560,
                    "time": 130.5,
                    "velocity": 1
                },
                {
                    "duration": 0.25,
                    "durationTicks": 480,
                    "midi": 64,
                    "name": "E4",
                    "ticks": 251040,
                    "time": 130.75,
                    "velocity": 1
                },
                {
                    "duration": 0.25,
                    "durationTicks": 480,
                    "midi": 59,
                    "name": "B3",
                    "ticks": 251520,
                    "time": 131,
                    "velocity": 1
                },
                {
                    "duration": 0.25,
                    "durationTicks": 480,
                    "midi": 64,
                    "name": "E4",
                    "ticks": 252000,
                    "time": 131.25,
                    "velocity": 1
                },
                {
                    "duration": 0.25,
                    "durationTicks": 480,
                    "midi": 67,
                    "name": "G4",
                    "ticks": 252480,
                    "time": 131.5,
                    "velocity": 1
                },
                {
                    "duration": 0.25,
                    "durationTicks": 480,
                    "midi": 64,
                    "name": "E4",
                    "ticks": 252960,
                    "time": 131.75,
                    "velocity": 1
                },
                {
                    "duration": 0.25,
                    "durationTicks": 480,
                    "midi": 57,
                    "name": "A3",
                    "ticks": 253440,
                    "time": 132,
                    "velocity": 1
                },
                {
                    "duration": 0.25,
                    "durationTicks": 480,
                    "midi": 61,
                    "name": "C#4",
                    "ticks": 253920,
                    "time": 132.25,
                    "velocity": 1
                },
                {
                    "duration": 0.25,
                    "durationTicks": 480,
                    "midi": 67,
                    "name": "G4",
                    "ticks": 254400,
                    "time": 132.5,
                    "velocity": 1
                },
                {
                    "duration": 0.25,
                    "durationTicks": 480,
                    "midi": 61,
                    "name": "C#4",
                    "ticks": 254880,
                    "time": 132.75,
                    "velocity": 1
                },
                {
                    "duration": 0.25,
                    "durationTicks": 480,
                    "midi": 57,
                    "name": "A3",
                    "ticks": 255360,
                    "time": 133,
                    "velocity": 1
                },
                {
                    "duration": 0.25,
                    "durationTicks": 480,
                    "midi": 61,
                    "name": "C#4",
                    "ticks": 255840,
                    "time": 133.25,
                    "velocity": 1
                },
                {
                    "duration": 0.25,
                    "durationTicks": 480,
                    "midi": 67,
                    "name": "G4",
                    "ticks": 256320,
                    "time": 133.5,
                    "velocity": 1
                },
                {
                    "duration": 0.25,
                    "durationTicks": 480,
                    "midi": 61,
                    "name": "C#4",
                    "ticks": 256800,
                    "time": 133.75,
                    "velocity": 1
                },
                {
                    "duration": 0.25,
                    "durationTicks": 480,
                    "midi": 58,
                    "name": "A#3",
                    "ticks": 257280,
                    "time": 134,
                    "velocity": 1
                },
                {
                    "duration": 0.25,
                    "durationTicks": 480,
                    "midi": 62,
                    "name": "D4",
                    "ticks": 257760,
                    "time": 134.25,
                    "velocity": 1
                },
                {
                    "duration": 0.25,
                    "durationTicks": 480,
                    "midi": 69,
                    "name": "A4",
                    "ticks": 258240,
                    "time": 134.5,
                    "velocity": 1
                },
                {
                    "duration": 0.25,
                    "durationTicks": 480,
                    "midi": 65,
                    "name": "F4",
                    "ticks": 258720,
                    "time": 134.75,
                    "velocity": 1
                },
                {
                    "duration": 0.25,
                    "durationTicks": 480,
                    "midi": 69,
                    "name": "A4",
                    "ticks": 259200,
                    "time": 135,
                    "velocity": 1
                },
                {
                    "duration": 0.25,
                    "durationTicks": 480,
                    "midi": 65,
                    "name": "F4",
                    "ticks": 259680,
                    "time": 135.25,
                    "velocity": 1
                },
                {
                    "duration": 0.25,
                    "durationTicks": 480,
                    "midi": 69,
                    "name": "A4",
                    "ticks": 260160,
                    "time": 135.5,
                    "velocity": 1
                },
                {
                    "duration": 0.25,
                    "durationTicks": 480,
                    "midi": 65,
                    "name": "F4",
                    "ticks": 260640,
                    "time": 135.75,
                    "velocity": 1
                },
                {
                    "duration": 0.25,
                    "durationTicks": 480,
                    "midi": 60,
                    "name": "C4",
                    "ticks": 261120,
                    "time": 136,
                    "velocity": 1
                },
                {
                    "duration": 0.25,
                    "durationTicks": 480,
                    "midi": 65,
                    "name": "F4",
                    "ticks": 261120,
                    "time": 136,
                    "velocity": 1
                },
                {
                    "duration": 0.25,
                    "durationTicks": 480,
                    "midi": 69,
                    "name": "A4",
                    "ticks": 261600,
                    "time": 136.25,
                    "velocity": 1
                },
                {
                    "duration": 0.25,
                    "durationTicks": 480,
                    "midi": 60,
                    "name": "C4",
                    "ticks": 262080,
                    "time": 136.5,
                    "velocity": 1
                },
                {
                    "duration": 0.25,
                    "durationTicks": 480,
                    "midi": 65,
                    "name": "F4",
                    "ticks": 262080,
                    "time": 136.5,
                    "velocity": 1
                },
                {
                    "duration": 0.25,
                    "durationTicks": 480,
                    "midi": 60,
                    "name": "C4",
                    "ticks": 263040,
                    "time": 137,
                    "velocity": 1
                },
                {
                    "duration": 0.25,
                    "durationTicks": 480,
                    "midi": 64,
                    "name": "E4",
                    "ticks": 263040,
                    "time": 137,
                    "velocity": 1
                },
                {
                    "duration": 0.25,
                    "durationTicks": 480,
                    "midi": 67,
                    "name": "G4",
                    "ticks": 263520,
                    "time": 137.25,
                    "velocity": 1
                },
                {
                    "duration": 0.25,
                    "durationTicks": 480,
                    "midi": 60,
                    "name": "C4",
                    "ticks": 264000,
                    "time": 137.5,
                    "velocity": 1
                },
                {
                    "duration": 0.25,
                    "durationTicks": 480,
                    "midi": 64,
                    "name": "E4",
                    "ticks": 264000,
                    "time": 137.5,
                    "velocity": 1
                },
                {
                    "duration": 0.25,
                    "durationTicks": 480,
                    "midi": 58,
                    "name": "A#3",
                    "ticks": 264960,
                    "time": 138,
                    "velocity": 1
                },
                {
                    "duration": 0.25,
                    "durationTicks": 480,
                    "midi": 62,
                    "name": "D4",
                    "ticks": 264960,
                    "time": 138,
                    "velocity": 1
                },
                {
                    "duration": 0.25,
                    "durationTicks": 480,
                    "midi": 70,
                    "name": "A#4",
                    "ticks": 265440,
                    "time": 138.25,
                    "velocity": 1
                },
                {
                    "duration": 0.25,
                    "durationTicks": 480,
                    "midi": 58,
                    "name": "A#3",
                    "ticks": 265920,
                    "time": 138.5,
                    "velocity": 1
                },
                {
                    "duration": 0.25,
                    "durationTicks": 480,
                    "midi": 62,
                    "name": "D4",
                    "ticks": 265920,
                    "time": 138.5,
                    "velocity": 1
                },
                {
                    "duration": 0.25,
                    "durationTicks": 480,
                    "midi": 64,
                    "name": "E4",
                    "ticks": 266400,
                    "time": 138.75,
                    "velocity": 1
                },
                {
                    "duration": 0.25,
                    "durationTicks": 480,
                    "midi": 60,
                    "name": "C4",
                    "ticks": 266880,
                    "time": 139,
                    "velocity": 1
                },
                {
                    "duration": 0.25,
                    "durationTicks": 480,
                    "midi": 65,
                    "name": "F4",
                    "ticks": 266880,
                    "time": 139,
                    "velocity": 1
                },
                {
                    "duration": 0.25,
                    "durationTicks": 480,
                    "midi": 69,
                    "name": "A4",
                    "ticks": 267360,
                    "time": 139.25,
                    "velocity": 1
                },
                {
                    "duration": 0.25,
                    "durationTicks": 480,
                    "midi": 60,
                    "name": "C4",
                    "ticks": 267840,
                    "time": 139.5,
                    "velocity": 1
                },
                {
                    "duration": 0.25,
                    "durationTicks": 480,
                    "midi": 65,
                    "name": "F4",
                    "ticks": 267840,
                    "time": 139.5,
                    "velocity": 1
                },
                {
                    "duration": 0.25,
                    "durationTicks": 480,
                    "midi": 60,
                    "name": "C4",
                    "ticks": 268800,
                    "time": 140,
                    "velocity": 1
                },
                {
                    "duration": 0.25,
                    "durationTicks": 480,
                    "midi": 65,
                    "name": "F4",
                    "ticks": 268800,
                    "time": 140,
                    "velocity": 1
                },
                {
                    "duration": 0.25,
                    "durationTicks": 480,
                    "midi": 69,
                    "name": "A4",
                    "ticks": 269280,
                    "time": 140.25,
                    "velocity": 1
                },
                {
                    "duration": 0.25,
                    "durationTicks": 480,
                    "midi": 60,
                    "name": "C4",
                    "ticks": 269760,
                    "time": 140.5,
                    "velocity": 1
                },
                {
                    "duration": 0.25,
                    "durationTicks": 480,
                    "midi": 65,
                    "name": "F4",
                    "ticks": 269760,
                    "time": 140.5,
                    "velocity": 1
                },
                {
                    "duration": 0.25,
                    "durationTicks": 480,
                    "midi": 60,
                    "name": "C4",
                    "ticks": 270720,
                    "time": 141,
                    "velocity": 1
                },
                {
                    "duration": 0.25,
                    "durationTicks": 480,
                    "midi": 64,
                    "name": "E4",
                    "ticks": 270720,
                    "time": 141,
                    "velocity": 1
                },
                {
                    "duration": 0.25,
                    "durationTicks": 480,
                    "midi": 67,
                    "name": "G4",
                    "ticks": 271200,
                    "time": 141.25,
                    "velocity": 1
                },
                {
                    "duration": 0.25,
                    "durationTicks": 480,
                    "midi": 60,
                    "name": "C4",
                    "ticks": 271680,
                    "time": 141.5,
                    "velocity": 1
                },
                {
                    "duration": 0.25,
                    "durationTicks": 480,
                    "midi": 64,
                    "name": "E4",
                    "ticks": 271680,
                    "time": 141.5,
                    "velocity": 1
                },
                {
                    "duration": 0.25,
                    "durationTicks": 480,
                    "midi": 58,
                    "name": "A#3",
                    "ticks": 272640,
                    "time": 142,
                    "velocity": 1
                },
                {
                    "duration": 0.25,
                    "durationTicks": 480,
                    "midi": 62,
                    "name": "D4",
                    "ticks": 272640,
                    "time": 142,
                    "velocity": 1
                },
                {
                    "duration": 0.25,
                    "durationTicks": 480,
                    "midi": 70,
                    "name": "A#4",
                    "ticks": 273120,
                    "time": 142.25,
                    "velocity": 1
                },
                {
                    "duration": 0.25,
                    "durationTicks": 480,
                    "midi": 58,
                    "name": "A#3",
                    "ticks": 273600,
                    "time": 142.5,
                    "velocity": 1
                },
                {
                    "duration": 0.25,
                    "durationTicks": 480,
                    "midi": 62,
                    "name": "D4",
                    "ticks": 273600,
                    "time": 142.5,
                    "velocity": 1
                },
                {
                    "duration": 0.25,
                    "durationTicks": 480,
                    "midi": 64,
                    "name": "E4",
                    "ticks": 274080,
                    "time": 142.75,
                    "velocity": 1
                },
                {
                    "duration": 0.25,
                    "durationTicks": 480,
                    "midi": 60,
                    "name": "C4",
                    "ticks": 274560,
                    "time": 143,
                    "velocity": 1
                },
                {
                    "duration": 0.25,
                    "durationTicks": 480,
                    "midi": 65,
                    "name": "F4",
                    "ticks": 274560,
                    "time": 143,
                    "velocity": 1
                },
                {
                    "duration": 0.25,
                    "durationTicks": 480,
                    "midi": 69,
                    "name": "A4",
                    "ticks": 275040,
                    "time": 143.25,
                    "velocity": 1
                },
                {
                    "duration": 0.25,
                    "durationTicks": 480,
                    "midi": 60,
                    "name": "C4",
                    "ticks": 275520,
                    "time": 143.5,
                    "velocity": 1
                },
                {
                    "duration": 0.25,
                    "durationTicks": 480,
                    "midi": 65,
                    "name": "F4",
                    "ticks": 275520,
                    "time": 143.5,
                    "velocity": 1
                },
                {
                    "duration": 0.25,
                    "durationTicks": 480,
                    "midi": 58,
                    "name": "A#3",
                    "ticks": 276480,
                    "time": 144,
                    "velocity": 1
                },
                {
                    "duration": 0.25,
                    "durationTicks": 480,
                    "midi": 62,
                    "name": "D4",
                    "ticks": 276480,
                    "time": 144,
                    "velocity": 1
                },
                {
                    "duration": 0.25,
                    "durationTicks": 480,
                    "midi": 67,
                    "name": "G4",
                    "ticks": 276960,
                    "time": 144.25,
                    "velocity": 1
                },
                {
                    "duration": 0.25,
                    "durationTicks": 480,
                    "midi": 58,
                    "name": "A#3",
                    "ticks": 277440,
                    "time": 144.5,
                    "velocity": 1
                },
                {
                    "duration": 0.25,
                    "durationTicks": 480,
                    "midi": 62,
                    "name": "D4",
                    "ticks": 277440,
                    "time": 144.5,
                    "velocity": 1
                },
                {
                    "duration": 0.25,
                    "durationTicks": 480,
                    "midi": 67,
                    "name": "G4",
                    "ticks": 277920,
                    "time": 144.75,
                    "velocity": 1
                },
                {
                    "duration": 0.25,
                    "durationTicks": 480,
                    "midi": 60,
                    "name": "C4",
                    "ticks": 278400,
                    "time": 145,
                    "velocity": 1
                },
                {
                    "duration": 0.25,
                    "durationTicks": 480,
                    "midi": 64,
                    "name": "E4",
                    "ticks": 278400,
                    "time": 145,
                    "velocity": 1
                },
                {
                    "duration": 0.25,
                    "durationTicks": 480,
                    "midi": 67,
                    "name": "G4",
                    "ticks": 278880,
                    "time": 145.25,
                    "velocity": 1
                },
                {
                    "duration": 0.25,
                    "durationTicks": 480,
                    "midi": 60,
                    "name": "C4",
                    "ticks": 279360,
                    "time": 145.5,
                    "velocity": 1
                },
                {
                    "duration": 0.25,
                    "durationTicks": 480,
                    "midi": 64,
                    "name": "E4",
                    "ticks": 279360,
                    "time": 145.5,
                    "velocity": 1
                },
                {
                    "duration": 0.25,
                    "durationTicks": 480,
                    "midi": 67,
                    "name": "G4",
                    "ticks": 279840,
                    "time": 145.75,
                    "velocity": 1
                },
                {
                    "duration": 0.25,
                    "durationTicks": 480,
                    "midi": 60,
                    "name": "C4",
                    "ticks": 280320,
                    "time": 146,
                    "velocity": 1
                },
                {
                    "duration": 0.25,
                    "durationTicks": 480,
                    "midi": 65,
                    "name": "F4",
                    "ticks": 280320,
                    "time": 146,
                    "velocity": 1
                },
                {
                    "duration": 0.25,
                    "durationTicks": 480,
                    "midi": 69,
                    "name": "A4",
                    "ticks": 280800,
                    "time": 146.25,
                    "velocity": 1
                },
                {
                    "duration": 0.25,
                    "durationTicks": 480,
                    "midi": 60,
                    "name": "C4",
                    "ticks": 281280,
                    "time": 146.5,
                    "velocity": 1
                },
                {
                    "duration": 0.25,
                    "durationTicks": 480,
                    "midi": 65,
                    "name": "F4",
                    "ticks": 281280,
                    "time": 146.5,
                    "velocity": 1
                },
                {
                    "duration": 0.25,
                    "durationTicks": 480,
                    "midi": 69,
                    "name": "A4",
                    "ticks": 281760,
                    "time": 146.75,
                    "velocity": 1
                },
                {
                    "duration": 0.25,
                    "durationTicks": 480,
                    "midi": 62,
                    "name": "D4",
                    "ticks": 282240,
                    "time": 147,
                    "velocity": 1
                },
                {
                    "duration": 0.25,
                    "durationTicks": 480,
                    "midi": 65,
                    "name": "F4",
                    "ticks": 282240,
                    "time": 147,
                    "velocity": 1
                },
                {
                    "duration": 0.25,
                    "durationTicks": 480,
                    "midi": 69,
                    "name": "A4",
                    "ticks": 282720,
                    "time": 147.25,
                    "velocity": 1
                },
                {
                    "duration": 0.25,
                    "durationTicks": 480,
                    "midi": 62,
                    "name": "D4",
                    "ticks": 283200,
                    "time": 147.5,
                    "velocity": 1
                },
                {
                    "duration": 0.25,
                    "durationTicks": 480,
                    "midi": 65,
                    "name": "F4",
                    "ticks": 283200,
                    "time": 147.5,
                    "velocity": 1
                },
                {
                    "duration": 0.25,
                    "durationTicks": 480,
                    "midi": 69,
                    "name": "A4",
                    "ticks": 283680,
                    "time": 147.75,
                    "velocity": 1
                },
                {
                    "duration": 0.25,
                    "durationTicks": 480,
                    "midi": 58,
                    "name": "A#3",
                    "ticks": 284160,
                    "time": 148,
                    "velocity": 1
                },
                {
                    "duration": 0.25,
                    "durationTicks": 480,
                    "midi": 62,
                    "name": "D4",
                    "ticks": 284160,
                    "time": 148,
                    "velocity": 1
                },
                {
                    "duration": 0.25,
                    "durationTicks": 480,
                    "midi": 67,
                    "name": "G4",
                    "ticks": 284640,
                    "time": 148.25,
                    "velocity": 1
                },
                {
                    "duration": 0.25,
                    "durationTicks": 480,
                    "midi": 58,
                    "name": "A#3",
                    "ticks": 285120,
                    "time": 148.5,
                    "velocity": 1
                },
                {
                    "duration": 0.25,
                    "durationTicks": 480,
                    "midi": 62,
                    "name": "D4",
                    "ticks": 285120,
                    "time": 148.5,
                    "velocity": 1
                },
                {
                    "duration": 0.25,
                    "durationTicks": 480,
                    "midi": 67,
                    "name": "G4",
                    "ticks": 285600,
                    "time": 148.75,
                    "velocity": 1
                },
                {
                    "duration": 0.25,
                    "durationTicks": 480,
                    "midi": 57,
                    "name": "A3",
                    "ticks": 286080,
                    "time": 149,
                    "velocity": 1
                },
                {
                    "duration": 0.25,
                    "durationTicks": 480,
                    "midi": 61,
                    "name": "C#4",
                    "ticks": 286080,
                    "time": 149,
                    "velocity": 1
                },
                {
                    "duration": 0.25,
                    "durationTicks": 480,
                    "midi": 67,
                    "name": "G4",
                    "ticks": 286560,
                    "time": 149.25,
                    "velocity": 1
                },
                {
                    "duration": 0.25,
                    "durationTicks": 480,
                    "midi": 57,
                    "name": "A3",
                    "ticks": 287040,
                    "time": 149.5,
                    "velocity": 1
                },
                {
                    "duration": 0.25,
                    "durationTicks": 480,
                    "midi": 61,
                    "name": "C#4",
                    "ticks": 287040,
                    "time": 149.5,
                    "velocity": 1
                },
                {
                    "duration": 0.25,
                    "durationTicks": 480,
                    "midi": 67,
                    "name": "G4",
                    "ticks": 287520,
                    "time": 149.75,
                    "velocity": 1
                },
                {
                    "duration": 0.25,
                    "durationTicks": 480,
                    "midi": 57,
                    "name": "A3",
                    "ticks": 288000,
                    "time": 150,
                    "velocity": 1
                },
                {
                    "duration": 0.25,
                    "durationTicks": 480,
                    "midi": 62,
                    "name": "D4",
                    "ticks": 288480,
                    "time": 150.25,
                    "velocity": 1
                },
                {
                    "duration": 0.25,
                    "durationTicks": 480,
                    "midi": 66,
                    "name": "F#4",
                    "ticks": 288960,
                    "time": 150.5,
                    "velocity": 1
                },
                {
                    "duration": 0.25,
                    "durationTicks": 480,
                    "midi": 62,
                    "name": "D4",
                    "ticks": 289440,
                    "time": 150.75,
                    "velocity": 1
                },
                {
                    "duration": 0.25,
                    "durationTicks": 480,
                    "midi": 59,
                    "name": "B3",
                    "ticks": 289920,
                    "time": 151,
                    "velocity": 1
                },
                {
                    "duration": 0.25,
                    "durationTicks": 480,
                    "midi": 62,
                    "name": "D4",
                    "ticks": 290400,
                    "time": 151.25,
                    "velocity": 1
                },
                {
                    "duration": 0.25,
                    "durationTicks": 480,
                    "midi": 66,
                    "name": "F#4",
                    "ticks": 290880,
                    "time": 151.5,
                    "velocity": 1
                },
                {
                    "duration": 0.25,
                    "durationTicks": 480,
                    "midi": 62,
                    "name": "D4",
                    "ticks": 291360,
                    "time": 151.75,
                    "velocity": 1
                },
                {
                    "duration": 0.25,
                    "durationTicks": 480,
                    "midi": 57,
                    "name": "A3",
                    "ticks": 291840,
                    "time": 152,
                    "velocity": 1
                },
                {
                    "duration": 0.25,
                    "durationTicks": 480,
                    "midi": 62,
                    "name": "D4",
                    "ticks": 292320,
                    "time": 152.25,
                    "velocity": 1
                },
                {
                    "duration": 0.25,
                    "durationTicks": 480,
                    "midi": 66,
                    "name": "F#4",
                    "ticks": 292800,
                    "time": 152.5,
                    "velocity": 1
                },
                {
                    "duration": 0.25,
                    "durationTicks": 480,
                    "midi": 62,
                    "name": "D4",
                    "ticks": 293280,
                    "time": 152.75,
                    "velocity": 1
                },
                {
                    "duration": 0.25,
                    "durationTicks": 480,
                    "midi": 59,
                    "name": "B3",
                    "ticks": 293760,
                    "time": 153,
                    "velocity": 1
                },
                {
                    "duration": 0.25,
                    "durationTicks": 480,
                    "midi": 62,
                    "name": "D4",
                    "ticks": 294240,
                    "time": 153.25,
                    "velocity": 1
                },
                {
                    "duration": 0.25,
                    "durationTicks": 480,
                    "midi": 66,
                    "name": "F#4",
                    "ticks": 294720,
                    "time": 153.5,
                    "velocity": 1
                },
                {
                    "duration": 0.25,
                    "durationTicks": 480,
                    "midi": 62,
                    "name": "D4",
                    "ticks": 295200,
                    "time": 153.75,
                    "velocity": 1
                },
                {
                    "duration": 0.25,
                    "durationTicks": 480,
                    "midi": 57,
                    "name": "A3",
                    "ticks": 295680,
                    "time": 154,
                    "velocity": 1
                },
                {
                    "duration": 0.25,
                    "durationTicks": 480,
                    "midi": 62,
                    "name": "D4",
                    "ticks": 296160,
                    "time": 154.25,
                    "velocity": 1
                },
                {
                    "duration": 0.25,
                    "durationTicks": 480,
                    "midi": 66,
                    "name": "F#4",
                    "ticks": 296640,
                    "time": 154.5,
                    "velocity": 1
                },
                {
                    "duration": 0.25,
                    "durationTicks": 480,
                    "midi": 62,
                    "name": "D4",
                    "ticks": 297120,
                    "time": 154.75,
                    "velocity": 1
                },
                {
                    "duration": 0.25,
                    "durationTicks": 480,
                    "midi": 59,
                    "name": "B3",
                    "ticks": 297600,
                    "time": 155,
                    "velocity": 1
                },
                {
                    "duration": 0.25,
                    "durationTicks": 480,
                    "midi": 62,
                    "name": "D4",
                    "ticks": 298080,
                    "time": 155.25,
                    "velocity": 1
                },
                {
                    "duration": 0.25,
                    "durationTicks": 480,
                    "midi": 66,
                    "name": "F#4",
                    "ticks": 298560,
                    "time": 155.5,
                    "velocity": 1
                },
                {
                    "duration": 0.25,
                    "durationTicks": 480,
                    "midi": 62,
                    "name": "D4",
                    "ticks": 299040,
                    "time": 155.75,
                    "velocity": 1
                },
                {
                    "duration": 0.25,
                    "durationTicks": 480,
                    "midi": 57,
                    "name": "A3",
                    "ticks": 299520,
                    "time": 156,
                    "velocity": 1
                },
                {
                    "duration": 0.25,
                    "durationTicks": 480,
                    "midi": 62,
                    "name": "D4",
                    "ticks": 300000,
                    "time": 156.25,
                    "velocity": 1
                },
                {
                    "duration": 0.25,
                    "durationTicks": 480,
                    "midi": 66,
                    "name": "F#4",
                    "ticks": 300480,
                    "time": 156.5,
                    "velocity": 1
                },
                {
                    "duration": 0.25,
                    "durationTicks": 480,
                    "midi": 62,
                    "name": "D4",
                    "ticks": 300960,
                    "time": 156.75,
                    "velocity": 1
                },
                {
                    "duration": 0.25,
                    "durationTicks": 480,
                    "midi": 59,
                    "name": "B3",
                    "ticks": 301440,
                    "time": 157,
                    "velocity": 1
                },
                {
                    "duration": 0.25,
                    "durationTicks": 480,
                    "midi": 62,
                    "name": "D4",
                    "ticks": 301920,
                    "time": 157.25,
                    "velocity": 1
                },
                {
                    "duration": 0.25,
                    "durationTicks": 480,
                    "midi": 66,
                    "name": "F#4",
                    "ticks": 302400,
                    "time": 157.5,
                    "velocity": 1
                },
                {
                    "duration": 0.25,
                    "durationTicks": 480,
                    "midi": 62,
                    "name": "D4",
                    "ticks": 302880,
                    "time": 157.75,
                    "velocity": 1
                },
                {
                    "duration": 0.25,
                    "durationTicks": 480,
                    "midi": 57,
                    "name": "A3",
                    "ticks": 303360,
                    "time": 158,
                    "velocity": 1
                },
                {
                    "duration": 0.25,
                    "durationTicks": 480,
                    "midi": 62,
                    "name": "D4",
                    "ticks": 303840,
                    "time": 158.25,
                    "velocity": 1
                },
                {
                    "duration": 0.25,
                    "durationTicks": 480,
                    "midi": 66,
                    "name": "F#4",
                    "ticks": 304320,
                    "time": 158.5,
                    "velocity": 1
                },
                {
                    "duration": 0.25,
                    "durationTicks": 480,
                    "midi": 62,
                    "name": "D4",
                    "ticks": 304800,
                    "time": 158.75,
                    "velocity": 1
                },
                {
                    "duration": 0.25,
                    "durationTicks": 480,
                    "midi": 59,
                    "name": "B3",
                    "ticks": 305280,
                    "time": 159,
                    "velocity": 1
                },
                {
                    "duration": 0.25,
                    "durationTicks": 480,
                    "midi": 62,
                    "name": "D4",
                    "ticks": 305760,
                    "time": 159.25,
                    "velocity": 1
                },
                {
                    "duration": 0.25,
                    "durationTicks": 480,
                    "midi": 66,
                    "name": "F#4",
                    "ticks": 306240,
                    "time": 159.5,
                    "velocity": 1
                },
                {
                    "duration": 0.25,
                    "durationTicks": 480,
                    "midi": 62,
                    "name": "D4",
                    "ticks": 306720,
                    "time": 159.75,
                    "velocity": 1
                },
                {
                    "duration": 0.25,
                    "durationTicks": 480,
                    "midi": 57,
                    "name": "A3",
                    "ticks": 307200,
                    "time": 160,
                    "velocity": 1
                },
                {
                    "duration": 0.25,
                    "durationTicks": 480,
                    "midi": 62,
                    "name": "D4",
                    "ticks": 307680,
                    "time": 160.25,
                    "velocity": 1
                },
                {
                    "duration": 0.25,
                    "durationTicks": 480,
                    "midi": 66,
                    "name": "F#4",
                    "ticks": 308160,
                    "time": 160.5,
                    "velocity": 1
                },
                {
                    "duration": 0.25,
                    "durationTicks": 480,
                    "midi": 62,
                    "name": "D4",
                    "ticks": 308640,
                    "time": 160.75,
                    "velocity": 1
                },
                {
                    "duration": 0.25,
                    "durationTicks": 480,
                    "midi": 59,
                    "name": "B3",
                    "ticks": 309120,
                    "time": 161,
                    "velocity": 1
                },
                {
                    "duration": 0.25,
                    "durationTicks": 480,
                    "midi": 62,
                    "name": "D4",
                    "ticks": 309600,
                    "time": 161.25,
                    "velocity": 1
                },
                {
                    "duration": 0.25,
                    "durationTicks": 480,
                    "midi": 66,
                    "name": "F#4",
                    "ticks": 310080,
                    "time": 161.5,
                    "velocity": 1
                },
                {
                    "duration": 0.25,
                    "durationTicks": 480,
                    "midi": 62,
                    "name": "D4",
                    "ticks": 310560,
                    "time": 161.75,
                    "velocity": 1
                },
                {
                    "duration": 0.25,
                    "durationTicks": 480,
                    "midi": 57,
                    "name": "A3",
                    "ticks": 311040,
                    "time": 162,
                    "velocity": 1
                },
                {
                    "duration": 0.25,
                    "durationTicks": 480,
                    "midi": 62,
                    "name": "D4",
                    "ticks": 311520,
                    "time": 162.25,
                    "velocity": 1
                },
                {
                    "duration": 0.25,
                    "durationTicks": 480,
                    "midi": 66,
                    "name": "F#4",
                    "ticks": 312000,
                    "time": 162.5,
                    "velocity": 1
                },
                {
                    "duration": 0.25,
                    "durationTicks": 480,
                    "midi": 62,
                    "name": "D4",
                    "ticks": 312480,
                    "time": 162.75,
                    "velocity": 1
                },
                {
                    "duration": 0.25,
                    "durationTicks": 480,
                    "midi": 59,
                    "name": "B3",
                    "ticks": 312960,
                    "time": 163,
                    "velocity": 1
                },
                {
                    "duration": 0.25,
                    "durationTicks": 480,
                    "midi": 62,
                    "name": "D4",
                    "ticks": 313440,
                    "time": 163.25,
                    "velocity": 1
                },
                {
                    "duration": 0.25,
                    "durationTicks": 480,
                    "midi": 66,
                    "name": "F#4",
                    "ticks": 313920,
                    "time": 163.5,
                    "velocity": 1
                },
                {
                    "duration": 0.25,
                    "durationTicks": 480,
                    "midi": 62,
                    "name": "D4",
                    "ticks": 314400,
                    "time": 163.75,
                    "velocity": 1
                },
                {
                    "duration": 0.25,
                    "durationTicks": 480,
                    "midi": 57,
                    "name": "A3",
                    "ticks": 314880,
                    "time": 164,
                    "velocity": 1
                },
                {
                    "duration": 0.25,
                    "durationTicks": 480,
                    "midi": 62,
                    "name": "D4",
                    "ticks": 315360,
                    "time": 164.25,
                    "velocity": 1
                },
                {
                    "duration": 0.25,
                    "durationTicks": 480,
                    "midi": 66,
                    "name": "F#4",
                    "ticks": 315840,
                    "time": 164.5,
                    "velocity": 1
                },
                {
                    "duration": 0.25,
                    "durationTicks": 480,
                    "midi": 62,
                    "name": "D4",
                    "ticks": 316320,
                    "time": 164.75,
                    "velocity": 1
                },
                {
                    "duration": 0.25,
                    "durationTicks": 480,
                    "midi": 59,
                    "name": "B3",
                    "ticks": 316800,
                    "time": 165,
                    "velocity": 1
                },
                {
                    "duration": 0.25,
                    "durationTicks": 480,
                    "midi": 62,
                    "name": "D4",
                    "ticks": 317280,
                    "time": 165.25,
                    "velocity": 1
                },
                {
                    "duration": 0.25,
                    "durationTicks": 480,
                    "midi": 66,
                    "name": "F#4",
                    "ticks": 317760,
                    "time": 165.5,
                    "velocity": 1
                },
                {
                    "duration": 0.25,
                    "durationTicks": 480,
                    "midi": 62,
                    "name": "D4",
                    "ticks": 318240,
                    "time": 165.75,
                    "velocity": 1
                },
                {
                    "duration": 0.25,
                    "durationTicks": 480,
                    "midi": 57,
                    "name": "A3",
                    "ticks": 318720,
                    "time": 166,
                    "velocity": 1
                },
                {
                    "duration": 0.25,
                    "durationTicks": 480,
                    "midi": 62,
                    "name": "D4",
                    "ticks": 319200,
                    "time": 166.25,
                    "velocity": 1
                },
                {
                    "duration": 0.25,
                    "durationTicks": 480,
                    "midi": 66,
                    "name": "F#4",
                    "ticks": 319680,
                    "time": 166.5,
                    "velocity": 1
                },
                {
                    "duration": 0.25,
                    "durationTicks": 480,
                    "midi": 62,
                    "name": "D4",
                    "ticks": 320160,
                    "time": 166.75,
                    "velocity": 1
                },
                {
                    "duration": 0.25,
                    "durationTicks": 480,
                    "midi": 59,
                    "name": "B3",
                    "ticks": 320640,
                    "time": 167,
                    "velocity": 1
                },
                {
                    "duration": 0.25,
                    "durationTicks": 480,
                    "midi": 62,
                    "name": "D4",
                    "ticks": 321120,
                    "time": 167.25,
                    "velocity": 1
                },
                {
                    "duration": 0.25,
                    "durationTicks": 480,
                    "midi": 66,
                    "name": "F#4",
                    "ticks": 321600,
                    "time": 167.5,
                    "velocity": 1
                },
                {
                    "duration": 0.25,
                    "durationTicks": 480,
                    "midi": 62,
                    "name": "D4",
                    "ticks": 322080,
                    "time": 167.75,
                    "velocity": 1
                },
                {
                    "duration": 0.25,
                    "durationTicks": 480,
                    "midi": 57,
                    "name": "A3",
                    "ticks": 322560,
                    "time": 168,
                    "velocity": 1
                },
                {
                    "duration": 0.25,
                    "durationTicks": 480,
                    "midi": 62,
                    "name": "D4",
                    "ticks": 323040,
                    "time": 168.25,
                    "velocity": 1
                },
                {
                    "duration": 0.25,
                    "durationTicks": 480,
                    "midi": 66,
                    "name": "F#4",
                    "ticks": 323520,
                    "time": 168.5,
                    "velocity": 1
                },
                {
                    "duration": 0.25,
                    "durationTicks": 480,
                    "midi": 62,
                    "name": "D4",
                    "ticks": 324000,
                    "time": 168.75,
                    "velocity": 1
                },
                {
                    "duration": 0.25,
                    "durationTicks": 480,
                    "midi": 59,
                    "name": "B3",
                    "ticks": 324480,
                    "time": 169,
                    "velocity": 1
                },
                {
                    "duration": 0.25,
                    "durationTicks": 480,
                    "midi": 62,
                    "name": "D4",
                    "ticks": 324960,
                    "time": 169.25,
                    "velocity": 1
                },
                {
                    "duration": 0.25,
                    "durationTicks": 480,
                    "midi": 66,
                    "name": "F#4",
                    "ticks": 325440,
                    "time": 169.5,
                    "velocity": 1
                },
                {
                    "duration": 0.25,
                    "durationTicks": 480,
                    "midi": 62,
                    "name": "D4",
                    "ticks": 325920,
                    "time": 169.75,
                    "velocity": 1
                },
                {
                    "duration": 0.25,
                    "durationTicks": 480,
                    "midi": 57,
                    "name": "A3",
                    "ticks": 326400,
                    "time": 170,
                    "velocity": 1
                },
                {
                    "duration": 0.25,
                    "durationTicks": 480,
                    "midi": 62,
                    "name": "D4",
                    "ticks": 326880,
                    "time": 170.25,
                    "velocity": 1
                },
                {
                    "duration": 0.25,
                    "durationTicks": 480,
                    "midi": 66,
                    "name": "F#4",
                    "ticks": 327360,
                    "time": 170.5,
                    "velocity": 1
                },
                {
                    "duration": 0.25,
                    "durationTicks": 480,
                    "midi": 62,
                    "name": "D4",
                    "ticks": 327840,
                    "time": 170.75,
                    "velocity": 1
                },
                {
                    "duration": 0.25,
                    "durationTicks": 480,
                    "midi": 59,
                    "name": "B3",
                    "ticks": 328320,
                    "time": 171,
                    "velocity": 1
                },
                {
                    "duration": 0.25,
                    "durationTicks": 480,
                    "midi": 62,
                    "name": "D4",
                    "ticks": 328800,
                    "time": 171.25,
                    "velocity": 1
                },
                {
                    "duration": 0.25,
                    "durationTicks": 480,
                    "midi": 66,
                    "name": "F#4",
                    "ticks": 329280,
                    "time": 171.5,
                    "velocity": 1
                },
                {
                    "duration": 0.25,
                    "durationTicks": 480,
                    "midi": 62,
                    "name": "D4",
                    "ticks": 329760,
                    "time": 171.75,
                    "velocity": 1
                },
                {
                    "duration": 0.25,
                    "durationTicks": 480,
                    "midi": 57,
                    "name": "A3",
                    "ticks": 330240,
                    "time": 172,
                    "velocity": 1
                },
                {
                    "duration": 0.25,
                    "durationTicks": 480,
                    "midi": 62,
                    "name": "D4",
                    "ticks": 330720,
                    "time": 172.25,
                    "velocity": 1
                },
                {
                    "duration": 0.25,
                    "durationTicks": 480,
                    "midi": 66,
                    "name": "F#4",
                    "ticks": 331200,
                    "time": 172.5,
                    "velocity": 1
                },
                {
                    "duration": 0.25,
                    "durationTicks": 480,
                    "midi": 62,
                    "name": "D4",
                    "ticks": 331680,
                    "time": 172.75,
                    "velocity": 1
                },
                {
                    "duration": 0.25,
                    "durationTicks": 480,
                    "midi": 59,
                    "name": "B3",
                    "ticks": 332160,
                    "time": 173,
                    "velocity": 1
                },
                {
                    "duration": 0.25,
                    "durationTicks": 480,
                    "midi": 62,
                    "name": "D4",
                    "ticks": 332640,
                    "time": 173.25,
                    "velocity": 1
                },
                {
                    "duration": 0.25,
                    "durationTicks": 480,
                    "midi": 66,
                    "name": "F#4",
                    "ticks": 333120,
                    "time": 173.5,
                    "velocity": 1
                },
                {
                    "duration": 0.25,
                    "durationTicks": 480,
                    "midi": 62,
                    "name": "D4",
                    "ticks": 333600,
                    "time": 173.75,
                    "velocity": 1
                }
            ],
            "endOfTrackTicks": 334080
        },
        {
            "channel": 2,
            "controlChanges": {
                "7": [
                    {
                        "number": 7,
                        "ticks": 0,
                        "time": 0,
                        "value": 0.6141732283464567
                    }
                ],
                "10": [
                    {
                        "number": 10,
                        "ticks": 0,
                        "time": 0,
                        "value": 0.8976377952755905
                    }
                ]
            },
            "pitchBends": [],
            "instrument": {
                "family": "guitar",
                "number": 25,
                "name": "acoustic guitar (steel)"
            },
            "name": "Guitar 2",
            "notes": [
                {
                    "duration": 0.25,
                    "durationTicks": 480,
                    "midi": 57,
                    "name": "A3",
                    "ticks": 126720,
                    "time": 66,
                    "velocity": 1
                },
                {
                    "duration": 0.25,
                    "durationTicks": 480,
                    "midi": 62,
                    "name": "D4",
                    "ticks": 127200,
                    "time": 66.25,
                    "velocity": 1
                },
                {
                    "duration": 0.25,
                    "durationTicks": 480,
                    "midi": 66,
                    "name": "F#4",
                    "ticks": 127680,
                    "time": 66.5,
                    "velocity": 1
                },
                {
                    "duration": 0.25,
                    "durationTicks": 480,
                    "midi": 62,
                    "name": "D4",
                    "ticks": 128160,
                    "time": 66.75,
                    "velocity": 1
                },
                {
                    "duration": 0.25,
                    "durationTicks": 480,
                    "midi": 59,
                    "name": "B3",
                    "ticks": 128640,
                    "time": 67,
                    "velocity": 1
                },
                {
                    "duration": 0.25,
                    "durationTicks": 480,
                    "midi": 62,
                    "name": "D4",
                    "ticks": 129120,
                    "time": 67.25,
                    "velocity": 1
                },
                {
                    "duration": 0.25,
                    "durationTicks": 480,
                    "midi": 66,
                    "name": "F#4",
                    "ticks": 129600,
                    "time": 67.5,
                    "velocity": 1
                },
                {
                    "duration": 0.25,
                    "durationTicks": 480,
                    "midi": 62,
                    "name": "D4",
                    "ticks": 130080,
                    "time": 67.75,
                    "velocity": 1
                },
                {
                    "duration": 0.25,
                    "durationTicks": 480,
                    "midi": 57,
                    "name": "A3",
                    "ticks": 130560,
                    "time": 68,
                    "velocity": 1
                },
                {
                    "duration": 0.25,
                    "durationTicks": 480,
                    "midi": 62,
                    "name": "D4",
                    "ticks": 131040,
                    "time": 68.25,
                    "velocity": 1
                },
                {
                    "duration": 0.25,
                    "durationTicks": 480,
                    "midi": 66,
                    "name": "F#4",
                    "ticks": 131520,
                    "time": 68.5,
                    "velocity": 1
                },
                {
                    "duration": 0.25,
                    "durationTicks": 480,
                    "midi": 62,
                    "name": "D4",
                    "ticks": 132000,
                    "time": 68.75,
                    "velocity": 1
                },
                {
                    "duration": 0.25,
                    "durationTicks": 480,
                    "midi": 59,
                    "name": "B3",
                    "ticks": 132480,
                    "time": 69,
                    "velocity": 1
                },
                {
                    "duration": 0.25,
                    "durationTicks": 480,
                    "midi": 62,
                    "name": "D4",
                    "ticks": 132960,
                    "time": 69.25,
                    "velocity": 1
                },
                {
                    "duration": 0.25,
                    "durationTicks": 480,
                    "midi": 66,
                    "name": "F#4",
                    "ticks": 133440,
                    "time": 69.5,
                    "velocity": 1
                },
                {
                    "duration": 0.25,
                    "durationTicks": 480,
                    "midi": 62,
                    "name": "D4",
                    "ticks": 133920,
                    "time": 69.75,
                    "velocity": 1
                },
                {
                    "duration": 0.25,
                    "durationTicks": 480,
                    "midi": 57,
                    "name": "A3",
                    "ticks": 134400,
                    "time": 70,
                    "velocity": 1
                },
                {
                    "duration": 0.25,
                    "durationTicks": 480,
                    "midi": 62,
                    "name": "D4",
                    "ticks": 134880,
                    "time": 70.25,
                    "velocity": 1
                },
                {
                    "duration": 0.25,
                    "durationTicks": 480,
                    "midi": 66,
                    "name": "F#4",
                    "ticks": 135360,
                    "time": 70.5,
                    "velocity": 1
                },
                {
                    "duration": 0.25,
                    "durationTicks": 480,
                    "midi": 62,
                    "name": "D4",
                    "ticks": 135840,
                    "time": 70.75,
                    "velocity": 1
                },
                {
                    "duration": 0.25,
                    "durationTicks": 480,
                    "midi": 59,
                    "name": "B3",
                    "ticks": 136320,
                    "time": 71,
                    "velocity": 1
                },
                {
                    "duration": 0.25,
                    "durationTicks": 480,
                    "midi": 62,
                    "name": "D4",
                    "ticks": 136800,
                    "time": 71.25,
                    "velocity": 1
                },
                {
                    "duration": 0.25,
                    "durationTicks": 480,
                    "midi": 66,
                    "name": "F#4",
                    "ticks": 137280,
                    "time": 71.5,
                    "velocity": 1
                },
                {
                    "duration": 0.25,
                    "durationTicks": 480,
                    "midi": 62,
                    "name": "D4",
                    "ticks": 137760,
                    "time": 71.75,
                    "velocity": 1
                },
                {
                    "duration": 0.25,
                    "durationTicks": 480,
                    "midi": 57,
                    "name": "A3",
                    "ticks": 138240,
                    "time": 72,
                    "velocity": 1
                },
                {
                    "duration": 0.25,
                    "durationTicks": 480,
                    "midi": 62,
                    "name": "D4",
                    "ticks": 138720,
                    "time": 72.25,
                    "velocity": 1
                },
                {
                    "duration": 0.25,
                    "durationTicks": 480,
                    "midi": 66,
                    "name": "F#4",
                    "ticks": 139200,
                    "time": 72.5,
                    "velocity": 1
                },
                {
                    "duration": 0.25,
                    "durationTicks": 480,
                    "midi": 62,
                    "name": "D4",
                    "ticks": 139680,
                    "time": 72.75,
                    "velocity": 1
                },
                {
                    "duration": 0.25,
                    "durationTicks": 480,
                    "midi": 59,
                    "name": "B3",
                    "ticks": 140160,
                    "time": 73,
                    "velocity": 1
                },
                {
                    "duration": 0.25,
                    "durationTicks": 480,
                    "midi": 62,
                    "name": "D4",
                    "ticks": 140640,
                    "time": 73.25,
                    "velocity": 1
                },
                {
                    "duration": 0.25,
                    "durationTicks": 480,
                    "midi": 66,
                    "name": "F#4",
                    "ticks": 141120,
                    "time": 73.5,
                    "velocity": 1
                },
                {
                    "duration": 0.25,
                    "durationTicks": 480,
                    "midi": 62,
                    "name": "D4",
                    "ticks": 141600,
                    "time": 73.75,
                    "velocity": 1
                },
                {
                    "duration": 0.25,
                    "durationTicks": 480,
                    "midi": 57,
                    "name": "A3",
                    "ticks": 142080,
                    "time": 74,
                    "velocity": 1
                },
                {
                    "duration": 0.25,
                    "durationTicks": 480,
                    "midi": 62,
                    "name": "D4",
                    "ticks": 142560,
                    "time": 74.25,
                    "velocity": 1
                },
                {
                    "duration": 0.25,
                    "durationTicks": 480,
                    "midi": 66,
                    "name": "F#4",
                    "ticks": 143040,
                    "time": 74.5,
                    "velocity": 1
                },
                {
                    "duration": 0.25,
                    "durationTicks": 480,
                    "midi": 62,
                    "name": "D4",
                    "ticks": 143520,
                    "time": 74.75,
                    "velocity": 1
                },
                {
                    "duration": 0.25,
                    "durationTicks": 480,
                    "midi": 59,
                    "name": "B3",
                    "ticks": 144000,
                    "time": 75,
                    "velocity": 1
                },
                {
                    "duration": 0.25,
                    "durationTicks": 480,
                    "midi": 62,
                    "name": "D4",
                    "ticks": 144480,
                    "time": 75.25,
                    "velocity": 1
                },
                {
                    "duration": 0.25,
                    "durationTicks": 480,
                    "midi": 66,
                    "name": "F#4",
                    "ticks": 144960,
                    "time": 75.5,
                    "velocity": 1
                },
                {
                    "duration": 0.25,
                    "durationTicks": 480,
                    "midi": 62,
                    "name": "D4",
                    "ticks": 145440,
                    "time": 75.75,
                    "velocity": 1
                },
                {
                    "duration": 0.25,
                    "durationTicks": 480,
                    "midi": 57,
                    "name": "A3",
                    "ticks": 145920,
                    "time": 76,
                    "velocity": 1
                },
                {
                    "duration": 0.25,
                    "durationTicks": 480,
                    "midi": 62,
                    "name": "D4",
                    "ticks": 146400,
                    "time": 76.25,
                    "velocity": 1
                },
                {
                    "duration": 0.25,
                    "durationTicks": 480,
                    "midi": 66,
                    "name": "F#4",
                    "ticks": 146880,
                    "time": 76.5,
                    "velocity": 1
                },
                {
                    "duration": 0.25,
                    "durationTicks": 480,
                    "midi": 62,
                    "name": "D4",
                    "ticks": 147360,
                    "time": 76.75,
                    "velocity": 1
                },
                {
                    "duration": 0.25,
                    "durationTicks": 480,
                    "midi": 59,
                    "name": "B3",
                    "ticks": 147840,
                    "time": 77,
                    "velocity": 1
                },
                {
                    "duration": 0.25,
                    "durationTicks": 480,
                    "midi": 62,
                    "name": "D4",
                    "ticks": 148320,
                    "time": 77.25,
                    "velocity": 1
                },
                {
                    "duration": 0.25,
                    "durationTicks": 480,
                    "midi": 66,
                    "name": "F#4",
                    "ticks": 148800,
                    "time": 77.5,
                    "velocity": 1
                },
                {
                    "duration": 0.25,
                    "durationTicks": 480,
                    "midi": 62,
                    "name": "D4",
                    "ticks": 149280,
                    "time": 77.75,
                    "velocity": 1
                },
                {
                    "duration": 0.25,
                    "durationTicks": 480,
                    "midi": 59,
                    "name": "B3",
                    "ticks": 149760,
                    "time": 78,
                    "velocity": 1
                },
                {
                    "duration": 0.25,
                    "durationTicks": 480,
                    "midi": 64,
                    "name": "E4",
                    "ticks": 150240,
                    "time": 78.25,
                    "velocity": 1
                },
                {
                    "duration": 0.25,
                    "durationTicks": 480,
                    "midi": 67,
                    "name": "G4",
                    "ticks": 150720,
                    "time": 78.5,
                    "velocity": 1
                },
                {
                    "duration": 0.25,
                    "durationTicks": 480,
                    "midi": 64,
                    "name": "E4",
                    "ticks": 151200,
                    "time": 78.75,
                    "velocity": 1
                },
                {
                    "duration": 0.25,
                    "durationTicks": 480,
                    "midi": 59,
                    "name": "B3",
                    "ticks": 151680,
                    "time": 79,
                    "velocity": 1
                },
                {
                    "duration": 0.25,
                    "durationTicks": 480,
                    "midi": 64,
                    "name": "E4",
                    "ticks": 152160,
                    "time": 79.25,
                    "velocity": 1
                },
                {
                    "duration": 0.25,
                    "durationTicks": 480,
                    "midi": 67,
                    "name": "G4",
                    "ticks": 152640,
                    "time": 79.5,
                    "velocity": 1
                },
                {
                    "duration": 0.25,
                    "durationTicks": 480,
                    "midi": 64,
                    "name": "E4",
                    "ticks": 153120,
                    "time": 79.75,
                    "velocity": 1
                },
                {
                    "duration": 0.25,
                    "durationTicks": 480,
                    "midi": 57,
                    "name": "A3",
                    "ticks": 153600,
                    "time": 80,
                    "velocity": 1
                },
                {
                    "duration": 0.25,
                    "durationTicks": 480,
                    "midi": 61,
                    "name": "C#4",
                    "ticks": 154080,
                    "time": 80.25,
                    "velocity": 1
                },
                {
                    "duration": 0.25,
                    "durationTicks": 480,
                    "midi": 67,
                    "name": "G4",
                    "ticks": 154560,
                    "time": 80.5,
                    "velocity": 1
                },
                {
                    "duration": 0.25,
                    "durationTicks": 480,
                    "midi": 61,
                    "name": "C#4",
                    "ticks": 155040,
                    "time": 80.75,
                    "velocity": 1
                },
                {
                    "duration": 0.25,
                    "durationTicks": 480,
                    "midi": 57,
                    "name": "A3",
                    "ticks": 155520,
                    "time": 81,
                    "velocity": 1
                },
                {
                    "duration": 0.25,
                    "durationTicks": 480,
                    "midi": 61,
                    "name": "C#4",
                    "ticks": 156000,
                    "time": 81.25,
                    "velocity": 1
                },
                {
                    "duration": 0.25,
                    "durationTicks": 480,
                    "midi": 67,
                    "name": "G4",
                    "ticks": 156480,
                    "time": 81.5,
                    "velocity": 1
                },
                {
                    "duration": 0.25,
                    "durationTicks": 480,
                    "midi": 61,
                    "name": "C#4",
                    "ticks": 156960,
                    "time": 81.75,
                    "velocity": 1
                },
                {
                    "duration": 0.25,
                    "durationTicks": 480,
                    "midi": 58,
                    "name": "A#3",
                    "ticks": 157440,
                    "time": 82,
                    "velocity": 1
                },
                {
                    "duration": 0.25,
                    "durationTicks": 480,
                    "midi": 62,
                    "name": "D4",
                    "ticks": 157920,
                    "time": 82.25,
                    "velocity": 1
                },
                {
                    "duration": 0.25,
                    "durationTicks": 480,
                    "midi": 69,
                    "name": "A4",
                    "ticks": 158400,
                    "time": 82.5,
                    "velocity": 1
                },
                {
                    "duration": 0.25,
                    "durationTicks": 480,
                    "midi": 65,
                    "name": "F4",
                    "ticks": 158880,
                    "time": 82.75,
                    "velocity": 1
                },
                {
                    "duration": 0.25,
                    "durationTicks": 480,
                    "midi": 69,
                    "name": "A4",
                    "ticks": 159360,
                    "time": 83,
                    "velocity": 1
                },
                {
                    "duration": 0.25,
                    "durationTicks": 480,
                    "midi": 65,
                    "name": "F4",
                    "ticks": 159840,
                    "time": 83.25,
                    "velocity": 1
                },
                {
                    "duration": 0.25,
                    "durationTicks": 480,
                    "midi": 69,
                    "name": "A4",
                    "ticks": 160320,
                    "time": 83.5,
                    "velocity": 1
                },
                {
                    "duration": 0.25,
                    "durationTicks": 480,
                    "midi": 65,
                    "name": "F4",
                    "ticks": 160800,
                    "time": 83.75,
                    "velocity": 1
                },
                {
                    "duration": 0.25,
                    "durationTicks": 480,
                    "midi": 65,
                    "name": "F4",
                    "ticks": 161280,
                    "time": 84,
                    "velocity": 1
                },
                {
                    "duration": 0.25,
                    "durationTicks": 480,
                    "midi": 60,
                    "name": "C4",
                    "ticks": 161280,
                    "time": 84,
                    "velocity": 1
                },
                {
                    "duration": 0.25,
                    "durationTicks": 480,
                    "midi": 69,
                    "name": "A4",
                    "ticks": 161760,
                    "time": 84.25,
                    "velocity": 1
                },
                {
                    "duration": 0.25,
                    "durationTicks": 480,
                    "midi": 65,
                    "name": "F4",
                    "ticks": 162240,
                    "time": 84.5,
                    "velocity": 1
                },
                {
                    "duration": 0.25,
                    "durationTicks": 480,
                    "midi": 60,
                    "name": "C4",
                    "ticks": 162240,
                    "time": 84.5,
                    "velocity": 1
                },
                {
                    "duration": 0.25,
                    "durationTicks": 480,
                    "midi": 64,
                    "name": "E4",
                    "ticks": 163200,
                    "time": 85,
                    "velocity": 1
                },
                {
                    "duration": 0.25,
                    "durationTicks": 480,
                    "midi": 60,
                    "name": "C4",
                    "ticks": 163200,
                    "time": 85,
                    "velocity": 1
                },
                {
                    "duration": 0.25,
                    "durationTicks": 480,
                    "midi": 67,
                    "name": "G4",
                    "ticks": 163680,
                    "time": 85.25,
                    "velocity": 1
                },
                {
                    "duration": 0.25,
                    "durationTicks": 480,
                    "midi": 64,
                    "name": "E4",
                    "ticks": 164160,
                    "time": 85.5,
                    "velocity": 1
                },
                {
                    "duration": 0.25,
                    "durationTicks": 480,
                    "midi": 60,
                    "name": "C4",
                    "ticks": 164160,
                    "time": 85.5,
                    "velocity": 1
                },
                {
                    "duration": 0.25,
                    "durationTicks": 480,
                    "midi": 62,
                    "name": "D4",
                    "ticks": 165120,
                    "time": 86,
                    "velocity": 1
                },
                {
                    "duration": 0.25,
                    "durationTicks": 480,
                    "midi": 58,
                    "name": "A#3",
                    "ticks": 165120,
                    "time": 86,
                    "velocity": 1
                },
                {
                    "duration": 0.25,
                    "durationTicks": 480,
                    "midi": 70,
                    "name": "A#4",
                    "ticks": 165600,
                    "time": 86.25,
                    "velocity": 1
                },
                {
                    "duration": 0.25,
                    "durationTicks": 480,
                    "midi": 62,
                    "name": "D4",
                    "ticks": 166080,
                    "time": 86.5,
                    "velocity": 1
                },
                {
                    "duration": 0.25,
                    "durationTicks": 480,
                    "midi": 58,
                    "name": "A#3",
                    "ticks": 166080,
                    "time": 86.5,
                    "velocity": 1
                },
                {
                    "duration": 0.25,
                    "durationTicks": 480,
                    "midi": 64,
                    "name": "E4",
                    "ticks": 166560,
                    "time": 86.75,
                    "velocity": 1
                },
                {
                    "duration": 0.25,
                    "durationTicks": 480,
                    "midi": 65,
                    "name": "F4",
                    "ticks": 167040,
                    "time": 87,
                    "velocity": 1
                },
                {
                    "duration": 0.25,
                    "durationTicks": 480,
                    "midi": 60,
                    "name": "C4",
                    "ticks": 167040,
                    "time": 87,
                    "velocity": 1
                },
                {
                    "duration": 0.25,
                    "durationTicks": 480,
                    "midi": 69,
                    "name": "A4",
                    "ticks": 167520,
                    "time": 87.25,
                    "velocity": 1
                },
                {
                    "duration": 0.25,
                    "durationTicks": 480,
                    "midi": 65,
                    "name": "F4",
                    "ticks": 168000,
                    "time": 87.5,
                    "velocity": 1
                },
                {
                    "duration": 0.25,
                    "durationTicks": 480,
                    "midi": 60,
                    "name": "C4",
                    "ticks": 168000,
                    "time": 87.5,
                    "velocity": 1
                },
                {
                    "duration": 0.25,
                    "durationTicks": 480,
                    "midi": 65,
                    "name": "F4",
                    "ticks": 168960,
                    "time": 88,
                    "velocity": 1
                },
                {
                    "duration": 0.25,
                    "durationTicks": 480,
                    "midi": 60,
                    "name": "C4",
                    "ticks": 168960,
                    "time": 88,
                    "velocity": 1
                },
                {
                    "duration": 0.25,
                    "durationTicks": 480,
                    "midi": 69,
                    "name": "A4",
                    "ticks": 169440,
                    "time": 88.25,
                    "velocity": 1
                },
                {
                    "duration": 0.25,
                    "durationTicks": 480,
                    "midi": 65,
                    "name": "F4",
                    "ticks": 169920,
                    "time": 88.5,
                    "velocity": 1
                },
                {
                    "duration": 0.25,
                    "durationTicks": 480,
                    "midi": 60,
                    "name": "C4",
                    "ticks": 169920,
                    "time": 88.5,
                    "velocity": 1
                },
                {
                    "duration": 0.25,
                    "durationTicks": 480,
                    "midi": 64,
                    "name": "E4",
                    "ticks": 170880,
                    "time": 89,
                    "velocity": 1
                },
                {
                    "duration": 0.25,
                    "durationTicks": 480,
                    "midi": 60,
                    "name": "C4",
                    "ticks": 170880,
                    "time": 89,
                    "velocity": 1
                },
                {
                    "duration": 0.25,
                    "durationTicks": 480,
                    "midi": 67,
                    "name": "G4",
                    "ticks": 171360,
                    "time": 89.25,
                    "velocity": 1
                },
                {
                    "duration": 0.25,
                    "durationTicks": 480,
                    "midi": 64,
                    "name": "E4",
                    "ticks": 171840,
                    "time": 89.5,
                    "velocity": 1
                },
                {
                    "duration": 0.25,
                    "durationTicks": 480,
                    "midi": 60,
                    "name": "C4",
                    "ticks": 171840,
                    "time": 89.5,
                    "velocity": 1
                },
                {
                    "duration": 0.25,
                    "durationTicks": 480,
                    "midi": 62,
                    "name": "D4",
                    "ticks": 172800,
                    "time": 90,
                    "velocity": 1
                },
                {
                    "duration": 0.25,
                    "durationTicks": 480,
                    "midi": 58,
                    "name": "A#3",
                    "ticks": 172800,
                    "time": 90,
                    "velocity": 1
                },
                {
                    "duration": 0.25,
                    "durationTicks": 480,
                    "midi": 70,
                    "name": "A#4",
                    "ticks": 173280,
                    "time": 90.25,
                    "velocity": 1
                },
                {
                    "duration": 0.25,
                    "durationTicks": 480,
                    "midi": 62,
                    "name": "D4",
                    "ticks": 173760,
                    "time": 90.5,
                    "velocity": 1
                },
                {
                    "duration": 0.25,
                    "durationTicks": 480,
                    "midi": 58,
                    "name": "A#3",
                    "ticks": 173760,
                    "time": 90.5,
                    "velocity": 1
                },
                {
                    "duration": 0.25,
                    "durationTicks": 480,
                    "midi": 64,
                    "name": "E4",
                    "ticks": 174240,
                    "time": 90.75,
                    "velocity": 1
                },
                {
                    "duration": 0.25,
                    "durationTicks": 480,
                    "midi": 65,
                    "name": "F4",
                    "ticks": 174720,
                    "time": 91,
                    "velocity": 1
                },
                {
                    "duration": 0.25,
                    "durationTicks": 480,
                    "midi": 60,
                    "name": "C4",
                    "ticks": 174720,
                    "time": 91,
                    "velocity": 1
                },
                {
                    "duration": 0.25,
                    "durationTicks": 480,
                    "midi": 69,
                    "name": "A4",
                    "ticks": 175200,
                    "time": 91.25,
                    "velocity": 1
                },
                {
                    "duration": 0.25,
                    "durationTicks": 480,
                    "midi": 65,
                    "name": "F4",
                    "ticks": 175680,
                    "time": 91.5,
                    "velocity": 1
                },
                {
                    "duration": 0.25,
                    "durationTicks": 480,
                    "midi": 60,
                    "name": "C4",
                    "ticks": 175680,
                    "time": 91.5,
                    "velocity": 1
                },
                {
                    "duration": 0.25,
                    "durationTicks": 480,
                    "midi": 62,
                    "name": "D4",
                    "ticks": 176640,
                    "time": 92,
                    "velocity": 1
                },
                {
                    "duration": 0.25,
                    "durationTicks": 480,
                    "midi": 58,
                    "name": "A#3",
                    "ticks": 176640,
                    "time": 92,
                    "velocity": 1
                },
                {
                    "duration": 0.25,
                    "durationTicks": 480,
                    "midi": 67,
                    "name": "G4",
                    "ticks": 177120,
                    "time": 92.25,
                    "velocity": 1
                },
                {
                    "duration": 0.25,
                    "durationTicks": 480,
                    "midi": 62,
                    "name": "D4",
                    "ticks": 177600,
                    "time": 92.5,
                    "velocity": 1
                },
                {
                    "duration": 0.25,
                    "durationTicks": 480,
                    "midi": 58,
                    "name": "A#3",
                    "ticks": 177600,
                    "time": 92.5,
                    "velocity": 1
                },
                {
                    "duration": 0.25,
                    "durationTicks": 480,
                    "midi": 67,
                    "name": "G4",
                    "ticks": 178080,
                    "time": 92.75,
                    "velocity": 1
                },
                {
                    "duration": 0.25,
                    "durationTicks": 480,
                    "midi": 64,
                    "name": "E4",
                    "ticks": 178560,
                    "time": 93,
                    "velocity": 1
                },
                {
                    "duration": 0.25,
                    "durationTicks": 480,
                    "midi": 60,
                    "name": "C4",
                    "ticks": 178560,
                    "time": 93,
                    "velocity": 1
                },
                {
                    "duration": 0.25,
                    "durationTicks": 480,
                    "midi": 67,
                    "name": "G4",
                    "ticks": 179040,
                    "time": 93.25,
                    "velocity": 1
                },
                {
                    "duration": 0.25,
                    "durationTicks": 480,
                    "midi": 64,
                    "name": "E4",
                    "ticks": 179520,
                    "time": 93.5,
                    "velocity": 1
                },
                {
                    "duration": 0.25,
                    "durationTicks": 480,
                    "midi": 60,
                    "name": "C4",
                    "ticks": 179520,
                    "time": 93.5,
                    "velocity": 1
                },
                {
                    "duration": 0.25,
                    "durationTicks": 480,
                    "midi": 67,
                    "name": "G4",
                    "ticks": 180000,
                    "time": 93.75,
                    "velocity": 1
                },
                {
                    "duration": 0.25,
                    "durationTicks": 480,
                    "midi": 65,
                    "name": "F4",
                    "ticks": 180480,
                    "time": 94,
                    "velocity": 1
                },
                {
                    "duration": 0.25,
                    "durationTicks": 480,
                    "midi": 60,
                    "name": "C4",
                    "ticks": 180480,
                    "time": 94,
                    "velocity": 1
                },
                {
                    "duration": 0.25,
                    "durationTicks": 480,
                    "midi": 69,
                    "name": "A4",
                    "ticks": 180960,
                    "time": 94.25,
                    "velocity": 1
                },
                {
                    "duration": 0.25,
                    "durationTicks": 480,
                    "midi": 65,
                    "name": "F4",
                    "ticks": 181440,
                    "time": 94.5,
                    "velocity": 1
                },
                {
                    "duration": 0.25,
                    "durationTicks": 480,
                    "midi": 60,
                    "name": "C4",
                    "ticks": 181440,
                    "time": 94.5,
                    "velocity": 1
                },
                {
                    "duration": 0.25,
                    "durationTicks": 480,
                    "midi": 69,
                    "name": "A4",
                    "ticks": 181920,
                    "time": 94.75,
                    "velocity": 1
                },
                {
                    "duration": 0.25,
                    "durationTicks": 480,
                    "midi": 65,
                    "name": "F4",
                    "ticks": 182400,
                    "time": 95,
                    "velocity": 1
                },
                {
                    "duration": 0.25,
                    "durationTicks": 480,
                    "midi": 62,
                    "name": "D4",
                    "ticks": 182400,
                    "time": 95,
                    "velocity": 1
                },
                {
                    "duration": 0.25,
                    "durationTicks": 480,
                    "midi": 69,
                    "name": "A4",
                    "ticks": 182880,
                    "time": 95.25,
                    "velocity": 1
                },
                {
                    "duration": 0.25,
                    "durationTicks": 480,
                    "midi": 65,
                    "name": "F4",
                    "ticks": 183360,
                    "time": 95.5,
                    "velocity": 1
                },
                {
                    "duration": 0.25,
                    "durationTicks": 480,
                    "midi": 62,
                    "name": "D4",
                    "ticks": 183360,
                    "time": 95.5,
                    "velocity": 1
                },
                {
                    "duration": 0.25,
                    "durationTicks": 480,
                    "midi": 69,
                    "name": "A4",
                    "ticks": 183840,
                    "time": 95.75,
                    "velocity": 1
                },
                {
                    "duration": 0.25,
                    "durationTicks": 480,
                    "midi": 62,
                    "name": "D4",
                    "ticks": 184320,
                    "time": 96,
                    "velocity": 1
                },
                {
                    "duration": 0.25,
                    "durationTicks": 480,
                    "midi": 58,
                    "name": "A#3",
                    "ticks": 184320,
                    "time": 96,
                    "velocity": 1
                },
                {
                    "duration": 0.25,
                    "durationTicks": 480,
                    "midi": 67,
                    "name": "G4",
                    "ticks": 184800,
                    "time": 96.25,
                    "velocity": 1
                },
                {
                    "duration": 0.25,
                    "durationTicks": 480,
                    "midi": 62,
                    "name": "D4",
                    "ticks": 185280,
                    "time": 96.5,
                    "velocity": 1
                },
                {
                    "duration": 0.25,
                    "durationTicks": 480,
                    "midi": 58,
                    "name": "A#3",
                    "ticks": 185280,
                    "time": 96.5,
                    "velocity": 1
                },
                {
                    "duration": 0.25,
                    "durationTicks": 480,
                    "midi": 67,
                    "name": "G4",
                    "ticks": 185760,
                    "time": 96.75,
                    "velocity": 1
                },
                {
                    "duration": 0.25,
                    "durationTicks": 480,
                    "midi": 61,
                    "name": "C#4",
                    "ticks": 186240,
                    "time": 97,
                    "velocity": 1
                },
                {
                    "duration": 0.25,
                    "durationTicks": 480,
                    "midi": 57,
                    "name": "A3",
                    "ticks": 186240,
                    "time": 97,
                    "velocity": 1
                },
                {
                    "duration": 0.25,
                    "durationTicks": 480,
                    "midi": 67,
                    "name": "G4",
                    "ticks": 186720,
                    "time": 97.25,
                    "velocity": 1
                },
                {
                    "duration": 0.25,
                    "durationTicks": 480,
                    "midi": 61,
                    "name": "C#4",
                    "ticks": 187200,
                    "time": 97.5,
                    "velocity": 1
                },
                {
                    "duration": 0.25,
                    "durationTicks": 480,
                    "midi": 57,
                    "name": "A3",
                    "ticks": 187200,
                    "time": 97.5,
                    "velocity": 1
                },
                {
                    "duration": 0.25,
                    "durationTicks": 480,
                    "midi": 67,
                    "name": "G4",
                    "ticks": 187680,
                    "time": 97.75,
                    "velocity": 1
                },
                {
                    "duration": 0.25,
                    "durationTicks": 480,
                    "midi": 57,
                    "name": "A3",
                    "ticks": 188160,
                    "time": 98,
                    "velocity": 1
                },
                {
                    "duration": 0.25,
                    "durationTicks": 480,
                    "midi": 62,
                    "name": "D4",
                    "ticks": 188640,
                    "time": 98.25,
                    "velocity": 1
                },
                {
                    "duration": 0.25,
                    "durationTicks": 480,
                    "midi": 66,
                    "name": "F#4",
                    "ticks": 189120,
                    "time": 98.5,
                    "velocity": 1
                },
                {
                    "duration": 0.25,
                    "durationTicks": 480,
                    "midi": 62,
                    "name": "D4",
                    "ticks": 189600,
                    "time": 98.75,
                    "velocity": 1
                },
                {
                    "duration": 0.25,
                    "durationTicks": 480,
                    "midi": 59,
                    "name": "B3",
                    "ticks": 190080,
                    "time": 99,
                    "velocity": 1
                },
                {
                    "duration": 0.25,
                    "durationTicks": 480,
                    "midi": 62,
                    "name": "D4",
                    "ticks": 190560,
                    "time": 99.25,
                    "velocity": 1
                },
                {
                    "duration": 0.25,
                    "durationTicks": 480,
                    "midi": 66,
                    "name": "F#4",
                    "ticks": 191040,
                    "time": 99.5,
                    "velocity": 1
                },
                {
                    "duration": 0.25,
                    "durationTicks": 480,
                    "midi": 62,
                    "name": "D4",
                    "ticks": 191520,
                    "time": 99.75,
                    "velocity": 1
                },
                {
                    "duration": 0.25,
                    "durationTicks": 480,
                    "midi": 57,
                    "name": "A3",
                    "ticks": 192000,
                    "time": 100,
                    "velocity": 1
                },
                {
                    "duration": 0.25,
                    "durationTicks": 480,
                    "midi": 62,
                    "name": "D4",
                    "ticks": 192480,
                    "time": 100.25,
                    "velocity": 1
                },
                {
                    "duration": 0.25,
                    "durationTicks": 480,
                    "midi": 66,
                    "name": "F#4",
                    "ticks": 192960,
                    "time": 100.5,
                    "velocity": 1
                },
                {
                    "duration": 0.25,
                    "durationTicks": 480,
                    "midi": 62,
                    "name": "D4",
                    "ticks": 193440,
                    "time": 100.75,
                    "velocity": 1
                },
                {
                    "duration": 0.25,
                    "durationTicks": 480,
                    "midi": 59,
                    "name": "B3",
                    "ticks": 193920,
                    "time": 101,
                    "velocity": 1
                },
                {
                    "duration": 0.25,
                    "durationTicks": 480,
                    "midi": 62,
                    "name": "D4",
                    "ticks": 194400,
                    "time": 101.25,
                    "velocity": 1
                },
                {
                    "duration": 0.25,
                    "durationTicks": 480,
                    "midi": 66,
                    "name": "F#4",
                    "ticks": 194880,
                    "time": 101.5,
                    "velocity": 1
                },
                {
                    "duration": 0.25,
                    "durationTicks": 480,
                    "midi": 62,
                    "name": "D4",
                    "ticks": 195360,
                    "time": 101.75,
                    "velocity": 1
                },
                {
                    "duration": 0.25,
                    "durationTicks": 480,
                    "midi": 57,
                    "name": "A3",
                    "ticks": 195840,
                    "time": 102,
                    "velocity": 1
                },
                {
                    "duration": 0.25,
                    "durationTicks": 480,
                    "midi": 62,
                    "name": "D4",
                    "ticks": 196320,
                    "time": 102.25,
                    "velocity": 1
                },
                {
                    "duration": 0.25,
                    "durationTicks": 480,
                    "midi": 66,
                    "name": "F#4",
                    "ticks": 196800,
                    "time": 102.5,
                    "velocity": 1
                },
                {
                    "duration": 0.25,
                    "durationTicks": 480,
                    "midi": 62,
                    "name": "D4",
                    "ticks": 197280,
                    "time": 102.75,
                    "velocity": 1
                },
                {
                    "duration": 0.25,
                    "durationTicks": 480,
                    "midi": 59,
                    "name": "B3",
                    "ticks": 197760,
                    "time": 103,
                    "velocity": 1
                },
                {
                    "duration": 0.25,
                    "durationTicks": 480,
                    "midi": 62,
                    "name": "D4",
                    "ticks": 198240,
                    "time": 103.25,
                    "velocity": 1
                },
                {
                    "duration": 0.25,
                    "durationTicks": 480,
                    "midi": 66,
                    "name": "F#4",
                    "ticks": 198720,
                    "time": 103.5,
                    "velocity": 1
                },
                {
                    "duration": 0.25,
                    "durationTicks": 480,
                    "midi": 62,
                    "name": "D4",
                    "ticks": 199200,
                    "time": 103.75,
                    "velocity": 1
                },
                {
                    "duration": 0.25,
                    "durationTicks": 480,
                    "midi": 57,
                    "name": "A3",
                    "ticks": 199680,
                    "time": 104,
                    "velocity": 1
                },
                {
                    "duration": 0.25,
                    "durationTicks": 480,
                    "midi": 62,
                    "name": "D4",
                    "ticks": 200160,
                    "time": 104.25,
                    "velocity": 1
                },
                {
                    "duration": 0.25,
                    "durationTicks": 480,
                    "midi": 66,
                    "name": "F#4",
                    "ticks": 200640,
                    "time": 104.5,
                    "velocity": 1
                },
                {
                    "duration": 0.25,
                    "durationTicks": 480,
                    "midi": 62,
                    "name": "D4",
                    "ticks": 201120,
                    "time": 104.75,
                    "velocity": 1
                },
                {
                    "duration": 0.25,
                    "durationTicks": 480,
                    "midi": 59,
                    "name": "B3",
                    "ticks": 201600,
                    "time": 105,
                    "velocity": 1
                },
                {
                    "duration": 0.25,
                    "durationTicks": 480,
                    "midi": 62,
                    "name": "D4",
                    "ticks": 202080,
                    "time": 105.25,
                    "velocity": 1
                },
                {
                    "duration": 0.25,
                    "durationTicks": 480,
                    "midi": 66,
                    "name": "F#4",
                    "ticks": 202560,
                    "time": 105.5,
                    "velocity": 1
                },
                {
                    "duration": 0.25,
                    "durationTicks": 480,
                    "midi": 62,
                    "name": "D4",
                    "ticks": 203040,
                    "time": 105.75,
                    "velocity": 1
                },
                {
                    "duration": 0.25,
                    "durationTicks": 480,
                    "midi": 57,
                    "name": "A3",
                    "ticks": 226560,
                    "time": 118,
                    "velocity": 1
                },
                {
                    "duration": 0.25,
                    "durationTicks": 480,
                    "midi": 62,
                    "name": "D4",
                    "ticks": 227040,
                    "time": 118.25,
                    "velocity": 1
                },
                {
                    "duration": 0.25,
                    "durationTicks": 480,
                    "midi": 66,
                    "name": "F#4",
                    "ticks": 227520,
                    "time": 118.5,
                    "velocity": 1
                },
                {
                    "duration": 0.25,
                    "durationTicks": 480,
                    "midi": 62,
                    "name": "D4",
                    "ticks": 228000,
                    "time": 118.75,
                    "velocity": 1
                },
                {
                    "duration": 0.25,
                    "durationTicks": 480,
                    "midi": 59,
                    "name": "B3",
                    "ticks": 228480,
                    "time": 119,
                    "velocity": 1
                },
                {
                    "duration": 0.25,
                    "durationTicks": 480,
                    "midi": 62,
                    "name": "D4",
                    "ticks": 228960,
                    "time": 119.25,
                    "velocity": 1
                },
                {
                    "duration": 0.25,
                    "durationTicks": 480,
                    "midi": 66,
                    "name": "F#4",
                    "ticks": 229440,
                    "time": 119.5,
                    "velocity": 1
                },
                {
                    "duration": 0.25,
                    "durationTicks": 480,
                    "midi": 62,
                    "name": "D4",
                    "ticks": 229920,
                    "time": 119.75,
                    "velocity": 1
                },
                {
                    "duration": 0.25,
                    "durationTicks": 480,
                    "midi": 57,
                    "name": "A3",
                    "ticks": 230400,
                    "time": 120,
                    "velocity": 1
                },
                {
                    "duration": 0.25,
                    "durationTicks": 480,
                    "midi": 62,
                    "name": "D4",
                    "ticks": 230880,
                    "time": 120.25,
                    "velocity": 1
                },
                {
                    "duration": 0.25,
                    "durationTicks": 480,
                    "midi": 66,
                    "name": "F#4",
                    "ticks": 231360,
                    "time": 120.5,
                    "velocity": 1
                },
                {
                    "duration": 0.25,
                    "durationTicks": 480,
                    "midi": 62,
                    "name": "D4",
                    "ticks": 231840,
                    "time": 120.75,
                    "velocity": 1
                },
                {
                    "duration": 0.25,
                    "durationTicks": 480,
                    "midi": 59,
                    "name": "B3",
                    "ticks": 232320,
                    "time": 121,
                    "velocity": 1
                },
                {
                    "duration": 0.25,
                    "durationTicks": 480,
                    "midi": 62,
                    "name": "D4",
                    "ticks": 232800,
                    "time": 121.25,
                    "velocity": 1
                },
                {
                    "duration": 0.25,
                    "durationTicks": 480,
                    "midi": 66,
                    "name": "F#4",
                    "ticks": 233280,
                    "time": 121.5,
                    "velocity": 1
                },
                {
                    "duration": 0.25,
                    "durationTicks": 480,
                    "midi": 62,
                    "name": "D4",
                    "ticks": 233760,
                    "time": 121.75,
                    "velocity": 1
                },
                {
                    "duration": 0.25,
                    "durationTicks": 480,
                    "midi": 57,
                    "name": "A3",
                    "ticks": 234240,
                    "time": 122,
                    "velocity": 1
                },
                {
                    "duration": 0.25,
                    "durationTicks": 480,
                    "midi": 62,
                    "name": "D4",
                    "ticks": 234720,
                    "time": 122.25,
                    "velocity": 1
                },
                {
                    "duration": 0.25,
                    "durationTicks": 480,
                    "midi": 66,
                    "name": "F#4",
                    "ticks": 235200,
                    "time": 122.5,
                    "velocity": 1
                },
                {
                    "duration": 0.25,
                    "durationTicks": 480,
                    "midi": 62,
                    "name": "D4",
                    "ticks": 235680,
                    "time": 122.75,
                    "velocity": 1
                },
                {
                    "duration": 0.25,
                    "durationTicks": 480,
                    "midi": 59,
                    "name": "B3",
                    "ticks": 236160,
                    "time": 123,
                    "velocity": 1
                },
                {
                    "duration": 0.25,
                    "durationTicks": 480,
                    "midi": 62,
                    "name": "D4",
                    "ticks": 236640,
                    "time": 123.25,
                    "velocity": 1
                },
                {
                    "duration": 0.25,
                    "durationTicks": 480,
                    "midi": 66,
                    "name": "F#4",
                    "ticks": 237120,
                    "time": 123.5,
                    "velocity": 1
                },
                {
                    "duration": 0.25,
                    "durationTicks": 480,
                    "midi": 62,
                    "name": "D4",
                    "ticks": 237600,
                    "time": 123.75,
                    "velocity": 1
                },
                {
                    "duration": 0.25,
                    "durationTicks": 480,
                    "midi": 57,
                    "name": "A3",
                    "ticks": 238080,
                    "time": 124,
                    "velocity": 1
                },
                {
                    "duration": 0.25,
                    "durationTicks": 480,
                    "midi": 62,
                    "name": "D4",
                    "ticks": 238560,
                    "time": 124.25,
                    "velocity": 1
                },
                {
                    "duration": 0.25,
                    "durationTicks": 480,
                    "midi": 66,
                    "name": "F#4",
                    "ticks": 239040,
                    "time": 124.5,
                    "velocity": 1
                },
                {
                    "duration": 0.25,
                    "durationTicks": 480,
                    "midi": 62,
                    "name": "D4",
                    "ticks": 239520,
                    "time": 124.75,
                    "velocity": 1
                },
                {
                    "duration": 0.25,
                    "durationTicks": 480,
                    "midi": 59,
                    "name": "B3",
                    "ticks": 240000,
                    "time": 125,
                    "velocity": 1
                },
                {
                    "duration": 0.25,
                    "durationTicks": 480,
                    "midi": 62,
                    "name": "D4",
                    "ticks": 240480,
                    "time": 125.25,
                    "velocity": 1
                },
                {
                    "duration": 0.25,
                    "durationTicks": 480,
                    "midi": 66,
                    "name": "F#4",
                    "ticks": 240960,
                    "time": 125.5,
                    "velocity": 1
                },
                {
                    "duration": 0.25,
                    "durationTicks": 480,
                    "midi": 62,
                    "name": "D4",
                    "ticks": 241440,
                    "time": 125.75,
                    "velocity": 1
                },
                {
                    "duration": 0.25,
                    "durationTicks": 480,
                    "midi": 57,
                    "name": "A3",
                    "ticks": 241920,
                    "time": 126,
                    "velocity": 1
                },
                {
                    "duration": 0.25,
                    "durationTicks": 480,
                    "midi": 62,
                    "name": "D4",
                    "ticks": 242400,
                    "time": 126.25,
                    "velocity": 1
                },
                {
                    "duration": 0.25,
                    "durationTicks": 480,
                    "midi": 66,
                    "name": "F#4",
                    "ticks": 242880,
                    "time": 126.5,
                    "velocity": 1
                },
                {
                    "duration": 0.25,
                    "durationTicks": 480,
                    "midi": 62,
                    "name": "D4",
                    "ticks": 243360,
                    "time": 126.75,
                    "velocity": 1
                },
                {
                    "duration": 0.25,
                    "durationTicks": 480,
                    "midi": 59,
                    "name": "B3",
                    "ticks": 243840,
                    "time": 127,
                    "velocity": 1
                },
                {
                    "duration": 0.25,
                    "durationTicks": 480,
                    "midi": 62,
                    "name": "D4",
                    "ticks": 244320,
                    "time": 127.25,
                    "velocity": 1
                },
                {
                    "duration": 0.25,
                    "durationTicks": 480,
                    "midi": 66,
                    "name": "F#4",
                    "ticks": 244800,
                    "time": 127.5,
                    "velocity": 1
                },
                {
                    "duration": 0.25,
                    "durationTicks": 480,
                    "midi": 62,
                    "name": "D4",
                    "ticks": 245280,
                    "time": 127.75,
                    "velocity": 1
                },
                {
                    "duration": 0.25,
                    "durationTicks": 480,
                    "midi": 57,
                    "name": "A3",
                    "ticks": 245760,
                    "time": 128,
                    "velocity": 1
                },
                {
                    "duration": 0.25,
                    "durationTicks": 480,
                    "midi": 62,
                    "name": "D4",
                    "ticks": 246240,
                    "time": 128.25,
                    "velocity": 1
                },
                {
                    "duration": 0.25,
                    "durationTicks": 480,
                    "midi": 66,
                    "name": "F#4",
                    "ticks": 246720,
                    "time": 128.5,
                    "velocity": 1
                },
                {
                    "duration": 0.25,
                    "durationTicks": 480,
                    "midi": 62,
                    "name": "D4",
                    "ticks": 247200,
                    "time": 128.75,
                    "velocity": 1
                },
                {
                    "duration": 0.25,
                    "durationTicks": 480,
                    "midi": 59,
                    "name": "B3",
                    "ticks": 247680,
                    "time": 129,
                    "velocity": 1
                },
                {
                    "duration": 0.25,
                    "durationTicks": 480,
                    "midi": 62,
                    "name": "D4",
                    "ticks": 248160,
                    "time": 129.25,
                    "velocity": 1
                },
                {
                    "duration": 0.25,
                    "durationTicks": 480,
                    "midi": 66,
                    "name": "F#4",
                    "ticks": 248640,
                    "time": 129.5,
                    "velocity": 1
                },
                {
                    "duration": 0.25,
                    "durationTicks": 480,
                    "midi": 62,
                    "name": "D4",
                    "ticks": 249120,
                    "time": 129.75,
                    "velocity": 1
                },
                {
                    "duration": 0.25,
                    "durationTicks": 480,
                    "midi": 59,
                    "name": "B3",
                    "ticks": 249600,
                    "time": 130,
                    "velocity": 1
                },
                {
                    "duration": 0.25,
                    "durationTicks": 480,
                    "midi": 64,
                    "name": "E4",
                    "ticks": 250080,
                    "time": 130.25,
                    "velocity": 1
                },
                {
                    "duration": 0.25,
                    "durationTicks": 480,
                    "midi": 67,
                    "name": "G4",
                    "ticks": 250560,
                    "time": 130.5,
                    "velocity": 1
                },
                {
                    "duration": 0.25,
                    "durationTicks": 480,
                    "midi": 64,
                    "name": "E4",
                    "ticks": 251040,
                    "time": 130.75,
                    "velocity": 1
                },
                {
                    "duration": 0.25,
                    "durationTicks": 480,
                    "midi": 59,
                    "name": "B3",
                    "ticks": 251520,
                    "time": 131,
                    "velocity": 1
                },
                {
                    "duration": 0.25,
                    "durationTicks": 480,
                    "midi": 64,
                    "name": "E4",
                    "ticks": 252000,
                    "time": 131.25,
                    "velocity": 1
                },
                {
                    "duration": 0.25,
                    "durationTicks": 480,
                    "midi": 67,
                    "name": "G4",
                    "ticks": 252480,
                    "time": 131.5,
                    "velocity": 1
                },
                {
                    "duration": 0.25,
                    "durationTicks": 480,
                    "midi": 64,
                    "name": "E4",
                    "ticks": 252960,
                    "time": 131.75,
                    "velocity": 1
                },
                {
                    "duration": 0.25,
                    "durationTicks": 480,
                    "midi": 57,
                    "name": "A3",
                    "ticks": 253440,
                    "time": 132,
                    "velocity": 1
                },
                {
                    "duration": 0.25,
                    "durationTicks": 480,
                    "midi": 61,
                    "name": "C#4",
                    "ticks": 253920,
                    "time": 132.25,
                    "velocity": 1
                },
                {
                    "duration": 0.25,
                    "durationTicks": 480,
                    "midi": 67,
                    "name": "G4",
                    "ticks": 254400,
                    "time": 132.5,
                    "velocity": 1
                },
                {
                    "duration": 0.25,
                    "durationTicks": 480,
                    "midi": 61,
                    "name": "C#4",
                    "ticks": 254880,
                    "time": 132.75,
                    "velocity": 1
                },
                {
                    "duration": 0.25,
                    "durationTicks": 480,
                    "midi": 57,
                    "name": "A3",
                    "ticks": 255360,
                    "time": 133,
                    "velocity": 1
                },
                {
                    "duration": 0.25,
                    "durationTicks": 480,
                    "midi": 61,
                    "name": "C#4",
                    "ticks": 255840,
                    "time": 133.25,
                    "velocity": 1
                },
                {
                    "duration": 0.25,
                    "durationTicks": 480,
                    "midi": 67,
                    "name": "G4",
                    "ticks": 256320,
                    "time": 133.5,
                    "velocity": 1
                },
                {
                    "duration": 0.25,
                    "durationTicks": 480,
                    "midi": 61,
                    "name": "C#4",
                    "ticks": 256800,
                    "time": 133.75,
                    "velocity": 1
                },
                {
                    "duration": 0.25,
                    "durationTicks": 480,
                    "midi": 58,
                    "name": "A#3",
                    "ticks": 257280,
                    "time": 134,
                    "velocity": 1
                },
                {
                    "duration": 0.25,
                    "durationTicks": 480,
                    "midi": 62,
                    "name": "D4",
                    "ticks": 257760,
                    "time": 134.25,
                    "velocity": 1
                },
                {
                    "duration": 0.25,
                    "durationTicks": 480,
                    "midi": 69,
                    "name": "A4",
                    "ticks": 258240,
                    "time": 134.5,
                    "velocity": 1
                },
                {
                    "duration": 0.25,
                    "durationTicks": 480,
                    "midi": 65,
                    "name": "F4",
                    "ticks": 258720,
                    "time": 134.75,
                    "velocity": 1
                },
                {
                    "duration": 0.25,
                    "durationTicks": 480,
                    "midi": 69,
                    "name": "A4",
                    "ticks": 259200,
                    "time": 135,
                    "velocity": 1
                },
                {
                    "duration": 0.25,
                    "durationTicks": 480,
                    "midi": 65,
                    "name": "F4",
                    "ticks": 259680,
                    "time": 135.25,
                    "velocity": 1
                },
                {
                    "duration": 0.25,
                    "durationTicks": 480,
                    "midi": 69,
                    "name": "A4",
                    "ticks": 260160,
                    "time": 135.5,
                    "velocity": 1
                },
                {
                    "duration": 0.25,
                    "durationTicks": 480,
                    "midi": 65,
                    "name": "F4",
                    "ticks": 260640,
                    "time": 135.75,
                    "velocity": 1
                },
                {
                    "duration": 0.25,
                    "durationTicks": 480,
                    "midi": 65,
                    "name": "F4",
                    "ticks": 261120,
                    "time": 136,
                    "velocity": 1
                },
                {
                    "duration": 0.25,
                    "durationTicks": 480,
                    "midi": 60,
                    "name": "C4",
                    "ticks": 261120,
                    "time": 136,
                    "velocity": 1
                },
                {
                    "duration": 0.25,
                    "durationTicks": 480,
                    "midi": 69,
                    "name": "A4",
                    "ticks": 261600,
                    "time": 136.25,
                    "velocity": 1
                },
                {
                    "duration": 0.25,
                    "durationTicks": 480,
                    "midi": 65,
                    "name": "F4",
                    "ticks": 262080,
                    "time": 136.5,
                    "velocity": 1
                },
                {
                    "duration": 0.25,
                    "durationTicks": 480,
                    "midi": 60,
                    "name": "C4",
                    "ticks": 262080,
                    "time": 136.5,
                    "velocity": 1
                },
                {
                    "duration": 0.25,
                    "durationTicks": 480,
                    "midi": 64,
                    "name": "E4",
                    "ticks": 263040,
                    "time": 137,
                    "velocity": 1
                },
                {
                    "duration": 0.25,
                    "durationTicks": 480,
                    "midi": 60,
                    "name": "C4",
                    "ticks": 263040,
                    "time": 137,
                    "velocity": 1
                },
                {
                    "duration": 0.25,
                    "durationTicks": 480,
                    "midi": 67,
                    "name": "G4",
                    "ticks": 263520,
                    "time": 137.25,
                    "velocity": 1
                },
                {
                    "duration": 0.25,
                    "durationTicks": 480,
                    "midi": 64,
                    "name": "E4",
                    "ticks": 264000,
                    "time": 137.5,
                    "velocity": 1
                },
                {
                    "duration": 0.25,
                    "durationTicks": 480,
                    "midi": 60,
                    "name": "C4",
                    "ticks": 264000,
                    "time": 137.5,
                    "velocity": 1
                },
                {
                    "duration": 0.25,
                    "durationTicks": 480,
                    "midi": 62,
                    "name": "D4",
                    "ticks": 264960,
                    "time": 138,
                    "velocity": 1
                },
                {
                    "duration": 0.25,
                    "durationTicks": 480,
                    "midi": 58,
                    "name": "A#3",
                    "ticks": 264960,
                    "time": 138,
                    "velocity": 1
                },
                {
                    "duration": 0.25,
                    "durationTicks": 480,
                    "midi": 70,
                    "name": "A#4",
                    "ticks": 265440,
                    "time": 138.25,
                    "velocity": 1
                },
                {
                    "duration": 0.25,
                    "durationTicks": 480,
                    "midi": 62,
                    "name": "D4",
                    "ticks": 265920,
                    "time": 138.5,
                    "velocity": 1
                },
                {
                    "duration": 0.25,
                    "durationTicks": 480,
                    "midi": 58,
                    "name": "A#3",
                    "ticks": 265920,
                    "time": 138.5,
                    "velocity": 1
                },
                {
                    "duration": 0.25,
                    "durationTicks": 480,
                    "midi": 64,
                    "name": "E4",
                    "ticks": 266400,
                    "time": 138.75,
                    "velocity": 1
                },
                {
                    "duration": 0.25,
                    "durationTicks": 480,
                    "midi": 65,
                    "name": "F4",
                    "ticks": 266880,
                    "time": 139,
                    "velocity": 1
                },
                {
                    "duration": 0.25,
                    "durationTicks": 480,
                    "midi": 60,
                    "name": "C4",
                    "ticks": 266880,
                    "time": 139,
                    "velocity": 1
                },
                {
                    "duration": 0.25,
                    "durationTicks": 480,
                    "midi": 69,
                    "name": "A4",
                    "ticks": 267360,
                    "time": 139.25,
                    "velocity": 1
                },
                {
                    "duration": 0.25,
                    "durationTicks": 480,
                    "midi": 65,
                    "name": "F4",
                    "ticks": 267840,
                    "time": 139.5,
                    "velocity": 1
                },
                {
                    "duration": 0.25,
                    "durationTicks": 480,
                    "midi": 60,
                    "name": "C4",
                    "ticks": 267840,
                    "time": 139.5,
                    "velocity": 1
                },
                {
                    "duration": 0.25,
                    "durationTicks": 480,
                    "midi": 65,
                    "name": "F4",
                    "ticks": 268800,
                    "time": 140,
                    "velocity": 1
                },
                {
                    "duration": 0.25,
                    "durationTicks": 480,
                    "midi": 60,
                    "name": "C4",
                    "ticks": 268800,
                    "time": 140,
                    "velocity": 1
                },
                {
                    "duration": 0.25,
                    "durationTicks": 480,
                    "midi": 69,
                    "name": "A4",
                    "ticks": 269280,
                    "time": 140.25,
                    "velocity": 1
                },
                {
                    "duration": 0.25,
                    "durationTicks": 480,
                    "midi": 65,
                    "name": "F4",
                    "ticks": 269760,
                    "time": 140.5,
                    "velocity": 1
                },
                {
                    "duration": 0.25,
                    "durationTicks": 480,
                    "midi": 60,
                    "name": "C4",
                    "ticks": 269760,
                    "time": 140.5,
                    "velocity": 1
                },
                {
                    "duration": 0.25,
                    "durationTicks": 480,
                    "midi": 64,
                    "name": "E4",
                    "ticks": 270720,
                    "time": 141,
                    "velocity": 1
                },
                {
                    "duration": 0.25,
                    "durationTicks": 480,
                    "midi": 60,
                    "name": "C4",
                    "ticks": 270720,
                    "time": 141,
                    "velocity": 1
                },
                {
                    "duration": 0.25,
                    "durationTicks": 480,
                    "midi": 67,
                    "name": "G4",
                    "ticks": 271200,
                    "time": 141.25,
                    "velocity": 1
                },
                {
                    "duration": 0.25,
                    "durationTicks": 480,
                    "midi": 64,
                    "name": "E4",
                    "ticks": 271680,
                    "time": 141.5,
                    "velocity": 1
                },
                {
                    "duration": 0.25,
                    "durationTicks": 480,
                    "midi": 60,
                    "name": "C4",
                    "ticks": 271680,
                    "time": 141.5,
                    "velocity": 1
                },
                {
                    "duration": 0.25,
                    "durationTicks": 480,
                    "midi": 62,
                    "name": "D4",
                    "ticks": 272640,
                    "time": 142,
                    "velocity": 1
                },
                {
                    "duration": 0.25,
                    "durationTicks": 480,
                    "midi": 58,
                    "name": "A#3",
                    "ticks": 272640,
                    "time": 142,
                    "velocity": 1
                },
                {
                    "duration": 0.25,
                    "durationTicks": 480,
                    "midi": 70,
                    "name": "A#4",
                    "ticks": 273120,
                    "time": 142.25,
                    "velocity": 1
                },
                {
                    "duration": 0.25,
                    "durationTicks": 480,
                    "midi": 62,
                    "name": "D4",
                    "ticks": 273600,
                    "time": 142.5,
                    "velocity": 1
                },
                {
                    "duration": 0.25,
                    "durationTicks": 480,
                    "midi": 58,
                    "name": "A#3",
                    "ticks": 273600,
                    "time": 142.5,
                    "velocity": 1
                },
                {
                    "duration": 0.25,
                    "durationTicks": 480,
                    "midi": 64,
                    "name": "E4",
                    "ticks": 274080,
                    "time": 142.75,
                    "velocity": 1
                },
                {
                    "duration": 0.25,
                    "durationTicks": 480,
                    "midi": 65,
                    "name": "F4",
                    "ticks": 274560,
                    "time": 143,
                    "velocity": 1
                },
                {
                    "duration": 0.25,
                    "durationTicks": 480,
                    "midi": 60,
                    "name": "C4",
                    "ticks": 274560,
                    "time": 143,
                    "velocity": 1
                },
                {
                    "duration": 0.25,
                    "durationTicks": 480,
                    "midi": 69,
                    "name": "A4",
                    "ticks": 275040,
                    "time": 143.25,
                    "velocity": 1
                },
                {
                    "duration": 0.25,
                    "durationTicks": 480,
                    "midi": 65,
                    "name": "F4",
                    "ticks": 275520,
                    "time": 143.5,
                    "velocity": 1
                },
                {
                    "duration": 0.25,
                    "durationTicks": 480,
                    "midi": 60,
                    "name": "C4",
                    "ticks": 275520,
                    "time": 143.5,
                    "velocity": 1
                },
                {
                    "duration": 0.25,
                    "durationTicks": 480,
                    "midi": 62,
                    "name": "D4",
                    "ticks": 276480,
                    "time": 144,
                    "velocity": 1
                },
                {
                    "duration": 0.25,
                    "durationTicks": 480,
                    "midi": 58,
                    "name": "A#3",
                    "ticks": 276480,
                    "time": 144,
                    "velocity": 1
                },
                {
                    "duration": 0.25,
                    "durationTicks": 480,
                    "midi": 67,
                    "name": "G4",
                    "ticks": 276960,
                    "time": 144.25,
                    "velocity": 1
                },
                {
                    "duration": 0.25,
                    "durationTicks": 480,
                    "midi": 62,
                    "name": "D4",
                    "ticks": 277440,
                    "time": 144.5,
                    "velocity": 1
                },
                {
                    "duration": 0.25,
                    "durationTicks": 480,
                    "midi": 58,
                    "name": "A#3",
                    "ticks": 277440,
                    "time": 144.5,
                    "velocity": 1
                },
                {
                    "duration": 0.25,
                    "durationTicks": 480,
                    "midi": 67,
                    "name": "G4",
                    "ticks": 277920,
                    "time": 144.75,
                    "velocity": 1
                },
                {
                    "duration": 0.25,
                    "durationTicks": 480,
                    "midi": 64,
                    "name": "E4",
                    "ticks": 278400,
                    "time": 145,
                    "velocity": 1
                },
                {
                    "duration": 0.25,
                    "durationTicks": 480,
                    "midi": 60,
                    "name": "C4",
                    "ticks": 278400,
                    "time": 145,
                    "velocity": 1
                },
                {
                    "duration": 0.25,
                    "durationTicks": 480,
                    "midi": 67,
                    "name": "G4",
                    "ticks": 278880,
                    "time": 145.25,
                    "velocity": 1
                },
                {
                    "duration": 0.25,
                    "durationTicks": 480,
                    "midi": 64,
                    "name": "E4",
                    "ticks": 279360,
                    "time": 145.5,
                    "velocity": 1
                },
                {
                    "duration": 0.25,
                    "durationTicks": 480,
                    "midi": 60,
                    "name": "C4",
                    "ticks": 279360,
                    "time": 145.5,
                    "velocity": 1
                },
                {
                    "duration": 0.25,
                    "durationTicks": 480,
                    "midi": 67,
                    "name": "G4",
                    "ticks": 279840,
                    "time": 145.75,
                    "velocity": 1
                },
                {
                    "duration": 0.25,
                    "durationTicks": 480,
                    "midi": 65,
                    "name": "F4",
                    "ticks": 280320,
                    "time": 146,
                    "velocity": 1
                },
                {
                    "duration": 0.25,
                    "durationTicks": 480,
                    "midi": 60,
                    "name": "C4",
                    "ticks": 280320,
                    "time": 146,
                    "velocity": 1
                },
                {
                    "duration": 0.25,
                    "durationTicks": 480,
                    "midi": 69,
                    "name": "A4",
                    "ticks": 280800,
                    "time": 146.25,
                    "velocity": 1
                },
                {
                    "duration": 0.25,
                    "durationTicks": 480,
                    "midi": 65,
                    "name": "F4",
                    "ticks": 281280,
                    "time": 146.5,
                    "velocity": 1
                },
                {
                    "duration": 0.25,
                    "durationTicks": 480,
                    "midi": 60,
                    "name": "C4",
                    "ticks": 281280,
                    "time": 146.5,
                    "velocity": 1
                },
                {
                    "duration": 0.25,
                    "durationTicks": 480,
                    "midi": 69,
                    "name": "A4",
                    "ticks": 281760,
                    "time": 146.75,
                    "velocity": 1
                },
                {
                    "duration": 0.25,
                    "durationTicks": 480,
                    "midi": 65,
                    "name": "F4",
                    "ticks": 282240,
                    "time": 147,
                    "velocity": 1
                },
                {
                    "duration": 0.25,
                    "durationTicks": 480,
                    "midi": 62,
                    "name": "D4",
                    "ticks": 282240,
                    "time": 147,
                    "velocity": 1
                },
                {
                    "duration": 0.25,
                    "durationTicks": 480,
                    "midi": 69,
                    "name": "A4",
                    "ticks": 282720,
                    "time": 147.25,
                    "velocity": 1
                },
                {
                    "duration": 0.25,
                    "durationTicks": 480,
                    "midi": 65,
                    "name": "F4",
                    "ticks": 283200,
                    "time": 147.5,
                    "velocity": 1
                },
                {
                    "duration": 0.25,
                    "durationTicks": 480,
                    "midi": 62,
                    "name": "D4",
                    "ticks": 283200,
                    "time": 147.5,
                    "velocity": 1
                },
                {
                    "duration": 0.25,
                    "durationTicks": 480,
                    "midi": 69,
                    "name": "A4",
                    "ticks": 283680,
                    "time": 147.75,
                    "velocity": 1
                },
                {
                    "duration": 0.25,
                    "durationTicks": 480,
                    "midi": 62,
                    "name": "D4",
                    "ticks": 284160,
                    "time": 148,
                    "velocity": 1
                },
                {
                    "duration": 0.25,
                    "durationTicks": 480,
                    "midi": 58,
                    "name": "A#3",
                    "ticks": 284160,
                    "time": 148,
                    "velocity": 1
                },
                {
                    "duration": 0.25,
                    "durationTicks": 480,
                    "midi": 67,
                    "name": "G4",
                    "ticks": 284640,
                    "time": 148.25,
                    "velocity": 1
                },
                {
                    "duration": 0.25,
                    "durationTicks": 480,
                    "midi": 62,
                    "name": "D4",
                    "ticks": 285120,
                    "time": 148.5,
                    "velocity": 1
                },
                {
                    "duration": 0.25,
                    "durationTicks": 480,
                    "midi": 58,
                    "name": "A#3",
                    "ticks": 285120,
                    "time": 148.5,
                    "velocity": 1
                },
                {
                    "duration": 0.25,
                    "durationTicks": 480,
                    "midi": 67,
                    "name": "G4",
                    "ticks": 285600,
                    "time": 148.75,
                    "velocity": 1
                },
                {
                    "duration": 0.25,
                    "durationTicks": 480,
                    "midi": 61,
                    "name": "C#4",
                    "ticks": 286080,
                    "time": 149,
                    "velocity": 1
                },
                {
                    "duration": 0.25,
                    "durationTicks": 480,
                    "midi": 57,
                    "name": "A3",
                    "ticks": 286080,
                    "time": 149,
                    "velocity": 1
                },
                {
                    "duration": 0.25,
                    "durationTicks": 480,
                    "midi": 67,
                    "name": "G4",
                    "ticks": 286560,
                    "time": 149.25,
                    "velocity": 1
                },
                {
                    "duration": 0.25,
                    "durationTicks": 480,
                    "midi": 61,
                    "name": "C#4",
                    "ticks": 287040,
                    "time": 149.5,
                    "velocity": 1
                },
                {
                    "duration": 0.25,
                    "durationTicks": 480,
                    "midi": 57,
                    "name": "A3",
                    "ticks": 287040,
                    "time": 149.5,
                    "velocity": 1
                },
                {
                    "duration": 0.25,
                    "durationTicks": 480,
                    "midi": 67,
                    "name": "G4",
                    "ticks": 287520,
                    "time": 149.75,
                    "velocity": 1
                },
                {
                    "duration": 0.25,
                    "durationTicks": 480,
                    "midi": 57,
                    "name": "A3",
                    "ticks": 288000,
                    "time": 150,
                    "velocity": 1
                },
                {
                    "duration": 0.25,
                    "durationTicks": 480,
                    "midi": 62,
                    "name": "D4",
                    "ticks": 288480,
                    "time": 150.25,
                    "velocity": 1
                },
                {
                    "duration": 0.25,
                    "durationTicks": 480,
                    "midi": 66,
                    "name": "F#4",
                    "ticks": 288960,
                    "time": 150.5,
                    "velocity": 1
                },
                {
                    "duration": 0.25,
                    "durationTicks": 480,
                    "midi": 62,
                    "name": "D4",
                    "ticks": 289440,
                    "time": 150.75,
                    "velocity": 1
                },
                {
                    "duration": 0.25,
                    "durationTicks": 480,
                    "midi": 59,
                    "name": "B3",
                    "ticks": 289920,
                    "time": 151,
                    "velocity": 1
                },
                {
                    "duration": 0.25,
                    "durationTicks": 480,
                    "midi": 62,
                    "name": "D4",
                    "ticks": 290400,
                    "time": 151.25,
                    "velocity": 1
                },
                {
                    "duration": 0.25,
                    "durationTicks": 480,
                    "midi": 66,
                    "name": "F#4",
                    "ticks": 290880,
                    "time": 151.5,
                    "velocity": 1
                },
                {
                    "duration": 0.25,
                    "durationTicks": 480,
                    "midi": 62,
                    "name": "D4",
                    "ticks": 291360,
                    "time": 151.75,
                    "velocity": 1
                },
                {
                    "duration": 0.25,
                    "durationTicks": 480,
                    "midi": 57,
                    "name": "A3",
                    "ticks": 291840,
                    "time": 152,
                    "velocity": 1
                },
                {
                    "duration": 0.25,
                    "durationTicks": 480,
                    "midi": 62,
                    "name": "D4",
                    "ticks": 292320,
                    "time": 152.25,
                    "velocity": 1
                },
                {
                    "duration": 0.25,
                    "durationTicks": 480,
                    "midi": 66,
                    "name": "F#4",
                    "ticks": 292800,
                    "time": 152.5,
                    "velocity": 1
                },
                {
                    "duration": 0.25,
                    "durationTicks": 480,
                    "midi": 62,
                    "name": "D4",
                    "ticks": 293280,
                    "time": 152.75,
                    "velocity": 1
                },
                {
                    "duration": 0.25,
                    "durationTicks": 480,
                    "midi": 59,
                    "name": "B3",
                    "ticks": 293760,
                    "time": 153,
                    "velocity": 1
                },
                {
                    "duration": 0.25,
                    "durationTicks": 480,
                    "midi": 62,
                    "name": "D4",
                    "ticks": 294240,
                    "time": 153.25,
                    "velocity": 1
                },
                {
                    "duration": 0.25,
                    "durationTicks": 480,
                    "midi": 66,
                    "name": "F#4",
                    "ticks": 294720,
                    "time": 153.5,
                    "velocity": 1
                },
                {
                    "duration": 0.25,
                    "durationTicks": 480,
                    "midi": 62,
                    "name": "D4",
                    "ticks": 295200,
                    "time": 153.75,
                    "velocity": 1
                },
                {
                    "duration": 0.25,
                    "durationTicks": 480,
                    "midi": 57,
                    "name": "A3",
                    "ticks": 295680,
                    "time": 154,
                    "velocity": 1
                },
                {
                    "duration": 0.25,
                    "durationTicks": 480,
                    "midi": 62,
                    "name": "D4",
                    "ticks": 296160,
                    "time": 154.25,
                    "velocity": 1
                },
                {
                    "duration": 0.25,
                    "durationTicks": 480,
                    "midi": 66,
                    "name": "F#4",
                    "ticks": 296640,
                    "time": 154.5,
                    "velocity": 1
                },
                {
                    "duration": 0.25,
                    "durationTicks": 480,
                    "midi": 62,
                    "name": "D4",
                    "ticks": 297120,
                    "time": 154.75,
                    "velocity": 1
                },
                {
                    "duration": 0.25,
                    "durationTicks": 480,
                    "midi": 59,
                    "name": "B3",
                    "ticks": 297600,
                    "time": 155,
                    "velocity": 1
                },
                {
                    "duration": 0.25,
                    "durationTicks": 480,
                    "midi": 62,
                    "name": "D4",
                    "ticks": 298080,
                    "time": 155.25,
                    "velocity": 1
                },
                {
                    "duration": 0.25,
                    "durationTicks": 480,
                    "midi": 66,
                    "name": "F#4",
                    "ticks": 298560,
                    "time": 155.5,
                    "velocity": 1
                },
                {
                    "duration": 0.25,
                    "durationTicks": 480,
                    "midi": 62,
                    "name": "D4",
                    "ticks": 299040,
                    "time": 155.75,
                    "velocity": 1
                },
                {
                    "duration": 0.25,
                    "durationTicks": 480,
                    "midi": 57,
                    "name": "A3",
                    "ticks": 299520,
                    "time": 156,
                    "velocity": 1
                },
                {
                    "duration": 0.25,
                    "durationTicks": 480,
                    "midi": 62,
                    "name": "D4",
                    "ticks": 300000,
                    "time": 156.25,
                    "velocity": 1
                },
                {
                    "duration": 0.25,
                    "durationTicks": 480,
                    "midi": 66,
                    "name": "F#4",
                    "ticks": 300480,
                    "time": 156.5,
                    "velocity": 1
                },
                {
                    "duration": 0.25,
                    "durationTicks": 480,
                    "midi": 62,
                    "name": "D4",
                    "ticks": 300960,
                    "time": 156.75,
                    "velocity": 1
                },
                {
                    "duration": 0.25,
                    "durationTicks": 480,
                    "midi": 59,
                    "name": "B3",
                    "ticks": 301440,
                    "time": 157,
                    "velocity": 1
                },
                {
                    "duration": 0.25,
                    "durationTicks": 480,
                    "midi": 62,
                    "name": "D4",
                    "ticks": 301920,
                    "time": 157.25,
                    "velocity": 1
                },
                {
                    "duration": 0.25,
                    "durationTicks": 480,
                    "midi": 66,
                    "name": "F#4",
                    "ticks": 302400,
                    "time": 157.5,
                    "velocity": 1
                },
                {
                    "duration": 0.25,
                    "durationTicks": 480,
                    "midi": 62,
                    "name": "D4",
                    "ticks": 302880,
                    "time": 157.75,
                    "velocity": 1
                },
                {
                    "duration": 0.25,
                    "durationTicks": 480,
                    "midi": 57,
                    "name": "A3",
                    "ticks": 303360,
                    "time": 158,
                    "velocity": 1
                },
                {
                    "duration": 0.25,
                    "durationTicks": 480,
                    "midi": 62,
                    "name": "D4",
                    "ticks": 303840,
                    "time": 158.25,
                    "velocity": 1
                },
                {
                    "duration": 0.25,
                    "durationTicks": 480,
                    "midi": 66,
                    "name": "F#4",
                    "ticks": 304320,
                    "time": 158.5,
                    "velocity": 1
                },
                {
                    "duration": 0.25,
                    "durationTicks": 480,
                    "midi": 62,
                    "name": "D4",
                    "ticks": 304800,
                    "time": 158.75,
                    "velocity": 1
                },
                {
                    "duration": 0.25,
                    "durationTicks": 480,
                    "midi": 59,
                    "name": "B3",
                    "ticks": 305280,
                    "time": 159,
                    "velocity": 1
                },
                {
                    "duration": 0.25,
                    "durationTicks": 480,
                    "midi": 62,
                    "name": "D4",
                    "ticks": 305760,
                    "time": 159.25,
                    "velocity": 1
                },
                {
                    "duration": 0.25,
                    "durationTicks": 480,
                    "midi": 66,
                    "name": "F#4",
                    "ticks": 306240,
                    "time": 159.5,
                    "velocity": 1
                },
                {
                    "duration": 0.25,
                    "durationTicks": 480,
                    "midi": 62,
                    "name": "D4",
                    "ticks": 306720,
                    "time": 159.75,
                    "velocity": 1
                },
                {
                    "duration": 0.25,
                    "durationTicks": 480,
                    "midi": 57,
                    "name": "A3",
                    "ticks": 307200,
                    "time": 160,
                    "velocity": 1
                },
                {
                    "duration": 0.25,
                    "durationTicks": 480,
                    "midi": 62,
                    "name": "D4",
                    "ticks": 307680,
                    "time": 160.25,
                    "velocity": 1
                },
                {
                    "duration": 0.25,
                    "durationTicks": 480,
                    "midi": 66,
                    "name": "F#4",
                    "ticks": 308160,
                    "time": 160.5,
                    "velocity": 1
                },
                {
                    "duration": 0.25,
                    "durationTicks": 480,
                    "midi": 62,
                    "name": "D4",
                    "ticks": 308640,
                    "time": 160.75,
                    "velocity": 1
                },
                {
                    "duration": 0.25,
                    "durationTicks": 480,
                    "midi": 59,
                    "name": "B3",
                    "ticks": 309120,
                    "time": 161,
                    "velocity": 1
                },
                {
                    "duration": 0.25,
                    "durationTicks": 480,
                    "midi": 62,
                    "name": "D4",
                    "ticks": 309600,
                    "time": 161.25,
                    "velocity": 1
                },
                {
                    "duration": 0.25,
                    "durationTicks": 480,
                    "midi": 66,
                    "name": "F#4",
                    "ticks": 310080,
                    "time": 161.5,
                    "velocity": 1
                },
                {
                    "duration": 0.25,
                    "durationTicks": 480,
                    "midi": 62,
                    "name": "D4",
                    "ticks": 310560,
                    "time": 161.75,
                    "velocity": 1
                },
                {
                    "duration": 0.25,
                    "durationTicks": 480,
                    "midi": 57,
                    "name": "A3",
                    "ticks": 311040,
                    "time": 162,
                    "velocity": 1
                },
                {
                    "duration": 0.25,
                    "durationTicks": 480,
                    "midi": 62,
                    "name": "D4",
                    "ticks": 311520,
                    "time": 162.25,
                    "velocity": 1
                },
                {
                    "duration": 0.25,
                    "durationTicks": 480,
                    "midi": 66,
                    "name": "F#4",
                    "ticks": 312000,
                    "time": 162.5,
                    "velocity": 1
                },
                {
                    "duration": 0.25,
                    "durationTicks": 480,
                    "midi": 62,
                    "name": "D4",
                    "ticks": 312480,
                    "time": 162.75,
                    "velocity": 1
                },
                {
                    "duration": 0.25,
                    "durationTicks": 480,
                    "midi": 59,
                    "name": "B3",
                    "ticks": 312960,
                    "time": 163,
                    "velocity": 1
                },
                {
                    "duration": 0.25,
                    "durationTicks": 480,
                    "midi": 62,
                    "name": "D4",
                    "ticks": 313440,
                    "time": 163.25,
                    "velocity": 1
                },
                {
                    "duration": 0.25,
                    "durationTicks": 480,
                    "midi": 66,
                    "name": "F#4",
                    "ticks": 313920,
                    "time": 163.5,
                    "velocity": 1
                },
                {
                    "duration": 0.25,
                    "durationTicks": 480,
                    "midi": 62,
                    "name": "D4",
                    "ticks": 314400,
                    "time": 163.75,
                    "velocity": 1
                },
                {
                    "duration": 0.25,
                    "durationTicks": 480,
                    "midi": 57,
                    "name": "A3",
                    "ticks": 314880,
                    "time": 164,
                    "velocity": 1
                },
                {
                    "duration": 0.25,
                    "durationTicks": 480,
                    "midi": 62,
                    "name": "D4",
                    "ticks": 315360,
                    "time": 164.25,
                    "velocity": 1
                },
                {
                    "duration": 0.25,
                    "durationTicks": 480,
                    "midi": 66,
                    "name": "F#4",
                    "ticks": 315840,
                    "time": 164.5,
                    "velocity": 1
                },
                {
                    "duration": 0.25,
                    "durationTicks": 480,
                    "midi": 62,
                    "name": "D4",
                    "ticks": 316320,
                    "time": 164.75,
                    "velocity": 1
                },
                {
                    "duration": 0.25,
                    "durationTicks": 480,
                    "midi": 59,
                    "name": "B3",
                    "ticks": 316800,
                    "time": 165,
                    "velocity": 1
                },
                {
                    "duration": 0.25,
                    "durationTicks": 480,
                    "midi": 62,
                    "name": "D4",
                    "ticks": 317280,
                    "time": 165.25,
                    "velocity": 1
                },
                {
                    "duration": 0.25,
                    "durationTicks": 480,
                    "midi": 66,
                    "name": "F#4",
                    "ticks": 317760,
                    "time": 165.5,
                    "velocity": 1
                },
                {
                    "duration": 0.25,
                    "durationTicks": 480,
                    "midi": 62,
                    "name": "D4",
                    "ticks": 318240,
                    "time": 165.75,
                    "velocity": 1
                },
                {
                    "duration": 0.25,
                    "durationTicks": 480,
                    "midi": 57,
                    "name": "A3",
                    "ticks": 318720,
                    "time": 166,
                    "velocity": 1
                },
                {
                    "duration": 0.25,
                    "durationTicks": 480,
                    "midi": 62,
                    "name": "D4",
                    "ticks": 319200,
                    "time": 166.25,
                    "velocity": 1
                },
                {
                    "duration": 0.25,
                    "durationTicks": 480,
                    "midi": 66,
                    "name": "F#4",
                    "ticks": 319680,
                    "time": 166.5,
                    "velocity": 1
                },
                {
                    "duration": 0.25,
                    "durationTicks": 480,
                    "midi": 62,
                    "name": "D4",
                    "ticks": 320160,
                    "time": 166.75,
                    "velocity": 1
                },
                {
                    "duration": 0.25,
                    "durationTicks": 480,
                    "midi": 59,
                    "name": "B3",
                    "ticks": 320640,
                    "time": 167,
                    "velocity": 1
                },
                {
                    "duration": 0.25,
                    "durationTicks": 480,
                    "midi": 62,
                    "name": "D4",
                    "ticks": 321120,
                    "time": 167.25,
                    "velocity": 1
                },
                {
                    "duration": 0.25,
                    "durationTicks": 480,
                    "midi": 66,
                    "name": "F#4",
                    "ticks": 321600,
                    "time": 167.5,
                    "velocity": 1
                },
                {
                    "duration": 0.25,
                    "durationTicks": 480,
                    "midi": 62,
                    "name": "D4",
                    "ticks": 322080,
                    "time": 167.75,
                    "velocity": 1
                },
                {
                    "duration": 0.25,
                    "durationTicks": 480,
                    "midi": 57,
                    "name": "A3",
                    "ticks": 322560,
                    "time": 168,
                    "velocity": 1
                },
                {
                    "duration": 0.25,
                    "durationTicks": 480,
                    "midi": 62,
                    "name": "D4",
                    "ticks": 323040,
                    "time": 168.25,
                    "velocity": 1
                },
                {
                    "duration": 0.25,
                    "durationTicks": 480,
                    "midi": 66,
                    "name": "F#4",
                    "ticks": 323520,
                    "time": 168.5,
                    "velocity": 1
                },
                {
                    "duration": 0.25,
                    "durationTicks": 480,
                    "midi": 62,
                    "name": "D4",
                    "ticks": 324000,
                    "time": 168.75,
                    "velocity": 1
                },
                {
                    "duration": 0.25,
                    "durationTicks": 480,
                    "midi": 59,
                    "name": "B3",
                    "ticks": 324480,
                    "time": 169,
                    "velocity": 1
                },
                {
                    "duration": 0.25,
                    "durationTicks": 480,
                    "midi": 62,
                    "name": "D4",
                    "ticks": 324960,
                    "time": 169.25,
                    "velocity": 1
                },
                {
                    "duration": 0.25,
                    "durationTicks": 480,
                    "midi": 66,
                    "name": "F#4",
                    "ticks": 325440,
                    "time": 169.5,
                    "velocity": 1
                },
                {
                    "duration": 0.25,
                    "durationTicks": 480,
                    "midi": 62,
                    "name": "D4",
                    "ticks": 325920,
                    "time": 169.75,
                    "velocity": 1
                },
                {
                    "duration": 0.25,
                    "durationTicks": 480,
                    "midi": 57,
                    "name": "A3",
                    "ticks": 326400,
                    "time": 170,
                    "velocity": 1
                },
                {
                    "duration": 0.25,
                    "durationTicks": 480,
                    "midi": 62,
                    "name": "D4",
                    "ticks": 326880,
                    "time": 170.25,
                    "velocity": 1
                },
                {
                    "duration": 0.25,
                    "durationTicks": 480,
                    "midi": 66,
                    "name": "F#4",
                    "ticks": 327360,
                    "time": 170.5,
                    "velocity": 1
                },
                {
                    "duration": 0.25,
                    "durationTicks": 480,
                    "midi": 62,
                    "name": "D4",
                    "ticks": 327840,
                    "time": 170.75,
                    "velocity": 1
                },
                {
                    "duration": 0.25,
                    "durationTicks": 480,
                    "midi": 59,
                    "name": "B3",
                    "ticks": 328320,
                    "time": 171,
                    "velocity": 1
                },
                {
                    "duration": 0.25,
                    "durationTicks": 480,
                    "midi": 62,
                    "name": "D4",
                    "ticks": 328800,
                    "time": 171.25,
                    "velocity": 1
                },
                {
                    "duration": 0.25,
                    "durationTicks": 480,
                    "midi": 66,
                    "name": "F#4",
                    "ticks": 329280,
                    "time": 171.5,
                    "velocity": 1
                },
                {
                    "duration": 0.25,
                    "durationTicks": 480,
                    "midi": 62,
                    "name": "D4",
                    "ticks": 329760,
                    "time": 171.75,
                    "velocity": 1
                },
                {
                    "duration": 0.25,
                    "durationTicks": 480,
                    "midi": 57,
                    "name": "A3",
                    "ticks": 330240,
                    "time": 172,
                    "velocity": 1
                },
                {
                    "duration": 0.25,
                    "durationTicks": 480,
                    "midi": 62,
                    "name": "D4",
                    "ticks": 330720,
                    "time": 172.25,
                    "velocity": 1
                },
                {
                    "duration": 0.25,
                    "durationTicks": 480,
                    "midi": 66,
                    "name": "F#4",
                    "ticks": 331200,
                    "time": 172.5,
                    "velocity": 1
                },
                {
                    "duration": 0.25,
                    "durationTicks": 480,
                    "midi": 62,
                    "name": "D4",
                    "ticks": 331680,
                    "time": 172.75,
                    "velocity": 1
                },
                {
                    "duration": 0.25,
                    "durationTicks": 480,
                    "midi": 59,
                    "name": "B3",
                    "ticks": 332160,
                    "time": 173,
                    "velocity": 1
                },
                {
                    "duration": 0.25,
                    "durationTicks": 480,
                    "midi": 62,
                    "name": "D4",
                    "ticks": 332640,
                    "time": 173.25,
                    "velocity": 1
                },
                {
                    "duration": 0.25,
                    "durationTicks": 480,
                    "midi": 66,
                    "name": "F#4",
                    "ticks": 333120,
                    "time": 173.5,
                    "velocity": 1
                },
                {
                    "duration": 0.25,
                    "durationTicks": 480,
                    "midi": 62,
                    "name": "D4",
                    "ticks": 333600,
                    "time": 173.75,
                    "velocity": 1
                }
            ],
            "endOfTrackTicks": 334080
        },
        {
            "channel": 3,
            "controlChanges": {
                "7": [
                    {
                        "number": 7,
                        "ticks": 0,
                        "time": 0,
                        "value": 0.7480314960629921
                    }
                ],
                "10": [
                    {
                        "number": 10,
                        "ticks": 0,
                        "time": 0,
                        "value": 0.5039370078740157
                    }
                ]
            },
            "pitchBends": [],
            "instrument": {
                "family": "guitar",
                "number": 25,
                "name": "acoustic guitar (steel)"
            },
            "name": "Guitar 3",
            "notes": [
                {
                    "duration": 0.5,
                    "durationTicks": 960,
                    "midi": 50,
                    "name": "D3",
                    "ticks": 88320,
                    "time": 46,
                    "velocity": 1
                },
                {
                    "duration": 0.75,
                    "durationTicks": 1440,
                    "midi": 54,
                    "name": "F#3",
                    "ticks": 89280,
                    "time": 46.5,
                    "velocity": 1
                },
                {
                    "duration": 0.75,
                    "durationTicks": 1440,
                    "midi": 50,
                    "name": "D3",
                    "ticks": 89280,
                    "time": 46.5,
                    "velocity": 1
                },
                {
                    "duration": 0.75,
                    "durationTicks": 1440,
                    "midi": 57,
                    "name": "A3",
                    "ticks": 89280,
                    "time": 46.5,
                    "velocity": 1
                },
                {
                    "duration": 0.75,
                    "durationTicks": 1440,
                    "midi": 62,
                    "name": "D4",
                    "ticks": 89280,
                    "time": 46.5,
                    "velocity": 1
                },
                {
                    "duration": 0.75,
                    "durationTicks": 1440,
                    "midi": 66,
                    "name": "F#4",
                    "ticks": 89280,
                    "time": 46.5,
                    "velocity": 1
                },
                {
                    "duration": 0.25,
                    "durationTicks": 480,
                    "midi": 55,
                    "name": "G3",
                    "ticks": 90720,
                    "time": 47.25,
                    "velocity": 1
                },
                {
                    "duration": 0.25,
                    "durationTicks": 480,
                    "midi": 62,
                    "name": "D4",
                    "ticks": 90720,
                    "time": 47.25,
                    "velocity": 1
                },
                {
                    "duration": 0.25,
                    "durationTicks": 480,
                    "midi": 67,
                    "name": "G4",
                    "ticks": 90720,
                    "time": 47.25,
                    "velocity": 1
                },
                {
                    "duration": 0.25,
                    "durationTicks": 480,
                    "midi": 54,
                    "name": "F#3",
                    "ticks": 91200,
                    "time": 47.5,
                    "velocity": 1
                },
                {
                    "duration": 0.25,
                    "durationTicks": 480,
                    "midi": 62,
                    "name": "D4",
                    "ticks": 91200,
                    "time": 47.5,
                    "velocity": 1
                },
                {
                    "duration": 0.25,
                    "durationTicks": 480,
                    "midi": 66,
                    "name": "F#4",
                    "ticks": 91200,
                    "time": 47.5,
                    "velocity": 1
                },
                {
                    "duration": 0.25,
                    "durationTicks": 480,
                    "midi": 57,
                    "name": "A3",
                    "ticks": 91680,
                    "time": 47.75,
                    "velocity": 1
                },
                {
                    "duration": 0.25,
                    "durationTicks": 480,
                    "midi": 62,
                    "name": "D4",
                    "ticks": 91680,
                    "time": 47.75,
                    "velocity": 1
                },
                {
                    "duration": 0.5,
                    "durationTicks": 960,
                    "midi": 50,
                    "name": "D3",
                    "ticks": 92160,
                    "time": 48,
                    "velocity": 1
                },
                {
                    "duration": 1.25,
                    "durationTicks": 2400,
                    "midi": 50,
                    "name": "D3",
                    "ticks": 92160,
                    "time": 48,
                    "velocity": 1
                },
                {
                    "duration": 0.75,
                    "durationTicks": 1440,
                    "midi": 54,
                    "name": "F#3",
                    "ticks": 93120,
                    "time": 48.5,
                    "velocity": 1
                },
                {
                    "duration": 0.75,
                    "durationTicks": 1440,
                    "midi": 57,
                    "name": "A3",
                    "ticks": 93120,
                    "time": 48.5,
                    "velocity": 1
                },
                {
                    "duration": 0.75,
                    "durationTicks": 1440,
                    "midi": 62,
                    "name": "D4",
                    "ticks": 93120,
                    "time": 48.5,
                    "velocity": 1
                },
                {
                    "duration": 0.75,
                    "durationTicks": 1440,
                    "midi": 66,
                    "name": "F#4",
                    "ticks": 93120,
                    "time": 48.5,
                    "velocity": 1
                },
                {
                    "duration": 1.5,
                    "durationTicks": 2880,
                    "midi": 50,
                    "name": "D3",
                    "ticks": 93120,
                    "time": 48.5,
                    "velocity": 1
                },
                {
                    "duration": 0.25,
                    "durationTicks": 480,
                    "midi": 55,
                    "name": "G3",
                    "ticks": 94560,
                    "time": 49.25,
                    "velocity": 1
                },
                {
                    "duration": 0.25,
                    "durationTicks": 480,
                    "midi": 62,
                    "name": "D4",
                    "ticks": 94560,
                    "time": 49.25,
                    "velocity": 1
                },
                {
                    "duration": 0.25,
                    "durationTicks": 480,
                    "midi": 67,
                    "name": "G4",
                    "ticks": 94560,
                    "time": 49.25,
                    "velocity": 1
                },
                {
                    "duration": 0.25,
                    "durationTicks": 480,
                    "midi": 54,
                    "name": "F#3",
                    "ticks": 95040,
                    "time": 49.5,
                    "velocity": 1
                },
                {
                    "duration": 0.25,
                    "durationTicks": 480,
                    "midi": 62,
                    "name": "D4",
                    "ticks": 95040,
                    "time": 49.5,
                    "velocity": 1
                },
                {
                    "duration": 0.25,
                    "durationTicks": 480,
                    "midi": 66,
                    "name": "F#4",
                    "ticks": 95040,
                    "time": 49.5,
                    "velocity": 1
                },
                {
                    "duration": 0.25,
                    "durationTicks": 480,
                    "midi": 57,
                    "name": "A3",
                    "ticks": 95520,
                    "time": 49.75,
                    "velocity": 1
                },
                {
                    "duration": 0.25,
                    "durationTicks": 480,
                    "midi": 62,
                    "name": "D4",
                    "ticks": 95520,
                    "time": 49.75,
                    "velocity": 1
                },
                {
                    "duration": 0.75,
                    "durationTicks": 1440,
                    "midi": 50,
                    "name": "D3",
                    "ticks": 95520,
                    "time": 49.75,
                    "velocity": 1
                },
                {
                    "duration": 1.25,
                    "durationTicks": 2400,
                    "midi": 50,
                    "name": "D3",
                    "ticks": 96000,
                    "time": 50,
                    "velocity": 1
                },
                {
                    "duration": 0.75,
                    "durationTicks": 1440,
                    "midi": 54,
                    "name": "F#3",
                    "ticks": 96960,
                    "time": 50.5,
                    "velocity": 1
                },
                {
                    "duration": 0.75,
                    "durationTicks": 1440,
                    "midi": 57,
                    "name": "A3",
                    "ticks": 96960,
                    "time": 50.5,
                    "velocity": 1
                },
                {
                    "duration": 0.75,
                    "durationTicks": 1440,
                    "midi": 62,
                    "name": "D4",
                    "ticks": 96960,
                    "time": 50.5,
                    "velocity": 1
                },
                {
                    "duration": 0.75,
                    "durationTicks": 1440,
                    "midi": 66,
                    "name": "F#4",
                    "ticks": 96960,
                    "time": 50.5,
                    "velocity": 1
                },
                {
                    "duration": 1.5,
                    "durationTicks": 2880,
                    "midi": 50,
                    "name": "D3",
                    "ticks": 96960,
                    "time": 50.5,
                    "velocity": 1
                },
                {
                    "duration": 0.25,
                    "durationTicks": 480,
                    "midi": 55,
                    "name": "G3",
                    "ticks": 98400,
                    "time": 51.25,
                    "velocity": 1
                },
                {
                    "duration": 0.25,
                    "durationTicks": 480,
                    "midi": 62,
                    "name": "D4",
                    "ticks": 98400,
                    "time": 51.25,
                    "velocity": 1
                },
                {
                    "duration": 0.25,
                    "durationTicks": 480,
                    "midi": 67,
                    "name": "G4",
                    "ticks": 98400,
                    "time": 51.25,
                    "velocity": 1
                },
                {
                    "duration": 0.25,
                    "durationTicks": 480,
                    "midi": 54,
                    "name": "F#3",
                    "ticks": 98880,
                    "time": 51.5,
                    "velocity": 1
                },
                {
                    "duration": 0.25,
                    "durationTicks": 480,
                    "midi": 62,
                    "name": "D4",
                    "ticks": 98880,
                    "time": 51.5,
                    "velocity": 1
                },
                {
                    "duration": 0.25,
                    "durationTicks": 480,
                    "midi": 66,
                    "name": "F#4",
                    "ticks": 98880,
                    "time": 51.5,
                    "velocity": 1
                },
                {
                    "duration": 0.25,
                    "durationTicks": 480,
                    "midi": 57,
                    "name": "A3",
                    "ticks": 99360,
                    "time": 51.75,
                    "velocity": 1
                },
                {
                    "duration": 0.25,
                    "durationTicks": 480,
                    "midi": 62,
                    "name": "D4",
                    "ticks": 99360,
                    "time": 51.75,
                    "velocity": 1
                },
                {
                    "duration": 0.5,
                    "durationTicks": 960,
                    "midi": 50,
                    "name": "D3",
                    "ticks": 99840,
                    "time": 52,
                    "velocity": 1
                },
                {
                    "duration": 1.25,
                    "durationTicks": 2400,
                    "midi": 50,
                    "name": "D3",
                    "ticks": 99840,
                    "time": 52,
                    "velocity": 1
                },
                {
                    "duration": 0.75,
                    "durationTicks": 1440,
                    "midi": 54,
                    "name": "F#3",
                    "ticks": 100800,
                    "time": 52.5,
                    "velocity": 1
                },
                {
                    "duration": 0.75,
                    "durationTicks": 1440,
                    "midi": 57,
                    "name": "A3",
                    "ticks": 100800,
                    "time": 52.5,
                    "velocity": 1
                },
                {
                    "duration": 0.75,
                    "durationTicks": 1440,
                    "midi": 62,
                    "name": "D4",
                    "ticks": 100800,
                    "time": 52.5,
                    "velocity": 1
                },
                {
                    "duration": 0.75,
                    "durationTicks": 1440,
                    "midi": 66,
                    "name": "F#4",
                    "ticks": 100800,
                    "time": 52.5,
                    "velocity": 1
                },
                {
                    "duration": 1.5,
                    "durationTicks": 2880,
                    "midi": 50,
                    "name": "D3",
                    "ticks": 100800,
                    "time": 52.5,
                    "velocity": 1
                },
                {
                    "duration": 0.25,
                    "durationTicks": 480,
                    "midi": 55,
                    "name": "G3",
                    "ticks": 102240,
                    "time": 53.25,
                    "velocity": 1
                },
                {
                    "duration": 0.25,
                    "durationTicks": 480,
                    "midi": 62,
                    "name": "D4",
                    "ticks": 102240,
                    "time": 53.25,
                    "velocity": 1
                },
                {
                    "duration": 0.25,
                    "durationTicks": 480,
                    "midi": 67,
                    "name": "G4",
                    "ticks": 102240,
                    "time": 53.25,
                    "velocity": 1
                },
                {
                    "duration": 0.25,
                    "durationTicks": 480,
                    "midi": 54,
                    "name": "F#3",
                    "ticks": 102720,
                    "time": 53.5,
                    "velocity": 1
                },
                {
                    "duration": 0.25,
                    "durationTicks": 480,
                    "midi": 62,
                    "name": "D4",
                    "ticks": 102720,
                    "time": 53.5,
                    "velocity": 1
                },
                {
                    "duration": 0.25,
                    "durationTicks": 480,
                    "midi": 66,
                    "name": "F#4",
                    "ticks": 102720,
                    "time": 53.5,
                    "velocity": 1
                },
                {
                    "duration": 0.25,
                    "durationTicks": 480,
                    "midi": 57,
                    "name": "A3",
                    "ticks": 103200,
                    "time": 53.75,
                    "velocity": 1
                },
                {
                    "duration": 0.25,
                    "durationTicks": 480,
                    "midi": 62,
                    "name": "D4",
                    "ticks": 103200,
                    "time": 53.75,
                    "velocity": 1
                },
                {
                    "duration": 0.75,
                    "durationTicks": 1440,
                    "midi": 50,
                    "name": "D3",
                    "ticks": 103200,
                    "time": 53.75,
                    "velocity": 1
                },
                {
                    "duration": 1.25,
                    "durationTicks": 2400,
                    "midi": 50,
                    "name": "D3",
                    "ticks": 103680,
                    "time": 54,
                    "velocity": 1
                },
                {
                    "duration": 0.75,
                    "durationTicks": 1440,
                    "midi": 54,
                    "name": "F#3",
                    "ticks": 104640,
                    "time": 54.5,
                    "velocity": 1
                },
                {
                    "duration": 0.75,
                    "durationTicks": 1440,
                    "midi": 57,
                    "name": "A3",
                    "ticks": 104640,
                    "time": 54.5,
                    "velocity": 1
                },
                {
                    "duration": 0.75,
                    "durationTicks": 1440,
                    "midi": 62,
                    "name": "D4",
                    "ticks": 104640,
                    "time": 54.5,
                    "velocity": 1
                },
                {
                    "duration": 0.75,
                    "durationTicks": 1440,
                    "midi": 66,
                    "name": "F#4",
                    "ticks": 104640,
                    "time": 54.5,
                    "velocity": 1
                },
                {
                    "duration": 1.5,
                    "durationTicks": 2880,
                    "midi": 50,
                    "name": "D3",
                    "ticks": 104640,
                    "time": 54.5,
                    "velocity": 1
                },
                {
                    "duration": 0.25,
                    "durationTicks": 480,
                    "midi": 55,
                    "name": "G3",
                    "ticks": 106080,
                    "time": 55.25,
                    "velocity": 1
                },
                {
                    "duration": 0.25,
                    "durationTicks": 480,
                    "midi": 62,
                    "name": "D4",
                    "ticks": 106080,
                    "time": 55.25,
                    "velocity": 1
                },
                {
                    "duration": 0.25,
                    "durationTicks": 480,
                    "midi": 67,
                    "name": "G4",
                    "ticks": 106080,
                    "time": 55.25,
                    "velocity": 1
                },
                {
                    "duration": 0.25,
                    "durationTicks": 480,
                    "midi": 54,
                    "name": "F#3",
                    "ticks": 106560,
                    "time": 55.5,
                    "velocity": 1
                },
                {
                    "duration": 0.25,
                    "durationTicks": 480,
                    "midi": 62,
                    "name": "D4",
                    "ticks": 106560,
                    "time": 55.5,
                    "velocity": 1
                },
                {
                    "duration": 0.25,
                    "durationTicks": 480,
                    "midi": 66,
                    "name": "F#4",
                    "ticks": 106560,
                    "time": 55.5,
                    "velocity": 1
                },
                {
                    "duration": 0.25,
                    "durationTicks": 480,
                    "midi": 57,
                    "name": "A3",
                    "ticks": 107040,
                    "time": 55.75,
                    "velocity": 1
                },
                {
                    "duration": 0.25,
                    "durationTicks": 480,
                    "midi": 62,
                    "name": "D4",
                    "ticks": 107040,
                    "time": 55.75,
                    "velocity": 1
                },
                {
                    "duration": 0.5,
                    "durationTicks": 960,
                    "midi": 50,
                    "name": "D3",
                    "ticks": 107520,
                    "time": 56,
                    "velocity": 1
                },
                {
                    "duration": 1.25,
                    "durationTicks": 2400,
                    "midi": 50,
                    "name": "D3",
                    "ticks": 107520,
                    "time": 56,
                    "velocity": 1
                },
                {
                    "duration": 0.75,
                    "durationTicks": 1440,
                    "midi": 54,
                    "name": "F#3",
                    "ticks": 108480,
                    "time": 56.5,
                    "velocity": 1
                },
                {
                    "duration": 0.75,
                    "durationTicks": 1440,
                    "midi": 57,
                    "name": "A3",
                    "ticks": 108480,
                    "time": 56.5,
                    "velocity": 1
                },
                {
                    "duration": 0.75,
                    "durationTicks": 1440,
                    "midi": 62,
                    "name": "D4",
                    "ticks": 108480,
                    "time": 56.5,
                    "velocity": 1
                },
                {
                    "duration": 0.75,
                    "durationTicks": 1440,
                    "midi": 66,
                    "name": "F#4",
                    "ticks": 108480,
                    "time": 56.5,
                    "velocity": 1
                },
                {
                    "duration": 1.5,
                    "durationTicks": 2880,
                    "midi": 50,
                    "name": "D3",
                    "ticks": 108480,
                    "time": 56.5,
                    "velocity": 1
                },
                {
                    "duration": 0.25,
                    "durationTicks": 480,
                    "midi": 55,
                    "name": "G3",
                    "ticks": 109920,
                    "time": 57.25,
                    "velocity": 1
                },
                {
                    "duration": 0.25,
                    "durationTicks": 480,
                    "midi": 62,
                    "name": "D4",
                    "ticks": 109920,
                    "time": 57.25,
                    "velocity": 1
                },
                {
                    "duration": 0.25,
                    "durationTicks": 480,
                    "midi": 67,
                    "name": "G4",
                    "ticks": 109920,
                    "time": 57.25,
                    "velocity": 1
                },
                {
                    "duration": 0.25,
                    "durationTicks": 480,
                    "midi": 54,
                    "name": "F#3",
                    "ticks": 110400,
                    "time": 57.5,
                    "velocity": 1
                },
                {
                    "duration": 0.25,
                    "durationTicks": 480,
                    "midi": 62,
                    "name": "D4",
                    "ticks": 110400,
                    "time": 57.5,
                    "velocity": 1
                },
                {
                    "duration": 0.25,
                    "durationTicks": 480,
                    "midi": 66,
                    "name": "F#4",
                    "ticks": 110400,
                    "time": 57.5,
                    "velocity": 1
                },
                {
                    "duration": 0.25,
                    "durationTicks": 480,
                    "midi": 57,
                    "name": "A3",
                    "ticks": 110880,
                    "time": 57.75,
                    "velocity": 1
                },
                {
                    "duration": 0.25,
                    "durationTicks": 480,
                    "midi": 62,
                    "name": "D4",
                    "ticks": 110880,
                    "time": 57.75,
                    "velocity": 1
                },
                {
                    "duration": 0.75,
                    "durationTicks": 1440,
                    "midi": 50,
                    "name": "D3",
                    "ticks": 110880,
                    "time": 57.75,
                    "velocity": 1
                },
                {
                    "duration": 1.25,
                    "durationTicks": 2400,
                    "midi": 50,
                    "name": "D3",
                    "ticks": 111360,
                    "time": 58,
                    "velocity": 1
                },
                {
                    "duration": 0.75,
                    "durationTicks": 1440,
                    "midi": 54,
                    "name": "F#3",
                    "ticks": 112320,
                    "time": 58.5,
                    "velocity": 1
                },
                {
                    "duration": 0.75,
                    "durationTicks": 1440,
                    "midi": 57,
                    "name": "A3",
                    "ticks": 112320,
                    "time": 58.5,
                    "velocity": 1
                },
                {
                    "duration": 0.75,
                    "durationTicks": 1440,
                    "midi": 62,
                    "name": "D4",
                    "ticks": 112320,
                    "time": 58.5,
                    "velocity": 1
                },
                {
                    "duration": 0.75,
                    "durationTicks": 1440,
                    "midi": 66,
                    "name": "F#4",
                    "ticks": 112320,
                    "time": 58.5,
                    "velocity": 1
                },
                {
                    "duration": 1.5,
                    "durationTicks": 2880,
                    "midi": 50,
                    "name": "D3",
                    "ticks": 112320,
                    "time": 58.5,
                    "velocity": 1
                },
                {
                    "duration": 0.25,
                    "durationTicks": 480,
                    "midi": 55,
                    "name": "G3",
                    "ticks": 113760,
                    "time": 59.25,
                    "velocity": 1
                },
                {
                    "duration": 0.25,
                    "durationTicks": 480,
                    "midi": 62,
                    "name": "D4",
                    "ticks": 113760,
                    "time": 59.25,
                    "velocity": 1
                },
                {
                    "duration": 0.25,
                    "durationTicks": 480,
                    "midi": 67,
                    "name": "G4",
                    "ticks": 113760,
                    "time": 59.25,
                    "velocity": 1
                },
                {
                    "duration": 0.25,
                    "durationTicks": 480,
                    "midi": 54,
                    "name": "F#3",
                    "ticks": 114240,
                    "time": 59.5,
                    "velocity": 1
                },
                {
                    "duration": 0.25,
                    "durationTicks": 480,
                    "midi": 62,
                    "name": "D4",
                    "ticks": 114240,
                    "time": 59.5,
                    "velocity": 1
                },
                {
                    "duration": 0.25,
                    "durationTicks": 480,
                    "midi": 66,
                    "name": "F#4",
                    "ticks": 114240,
                    "time": 59.5,
                    "velocity": 1
                },
                {
                    "duration": 0.25,
                    "durationTicks": 480,
                    "midi": 57,
                    "name": "A3",
                    "ticks": 114720,
                    "time": 59.75,
                    "velocity": 1
                },
                {
                    "duration": 0.25,
                    "durationTicks": 480,
                    "midi": 62,
                    "name": "D4",
                    "ticks": 114720,
                    "time": 59.75,
                    "velocity": 1
                },
                {
                    "duration": 0.5,
                    "durationTicks": 960,
                    "midi": 50,
                    "name": "D3",
                    "ticks": 115200,
                    "time": 60,
                    "velocity": 1
                },
                {
                    "duration": 1.25,
                    "durationTicks": 2400,
                    "midi": 50,
                    "name": "D3",
                    "ticks": 115200,
                    "time": 60,
                    "velocity": 1
                },
                {
                    "duration": 0.75,
                    "durationTicks": 1440,
                    "midi": 54,
                    "name": "F#3",
                    "ticks": 116160,
                    "time": 60.5,
                    "velocity": 1
                },
                {
                    "duration": 0.75,
                    "durationTicks": 1440,
                    "midi": 57,
                    "name": "A3",
                    "ticks": 116160,
                    "time": 60.5,
                    "velocity": 1
                },
                {
                    "duration": 0.75,
                    "durationTicks": 1440,
                    "midi": 62,
                    "name": "D4",
                    "ticks": 116160,
                    "time": 60.5,
                    "velocity": 1
                },
                {
                    "duration": 0.75,
                    "durationTicks": 1440,
                    "midi": 66,
                    "name": "F#4",
                    "ticks": 116160,
                    "time": 60.5,
                    "velocity": 1
                },
                {
                    "duration": 1.5,
                    "durationTicks": 2880,
                    "midi": 50,
                    "name": "D3",
                    "ticks": 116160,
                    "time": 60.5,
                    "velocity": 1
                },
                {
                    "duration": 0.25,
                    "durationTicks": 480,
                    "midi": 55,
                    "name": "G3",
                    "ticks": 117600,
                    "time": 61.25,
                    "velocity": 1
                },
                {
                    "duration": 0.25,
                    "durationTicks": 480,
                    "midi": 62,
                    "name": "D4",
                    "ticks": 117600,
                    "time": 61.25,
                    "velocity": 1
                },
                {
                    "duration": 0.25,
                    "durationTicks": 480,
                    "midi": 67,
                    "name": "G4",
                    "ticks": 117600,
                    "time": 61.25,
                    "velocity": 1
                },
                {
                    "duration": 0.25,
                    "durationTicks": 480,
                    "midi": 54,
                    "name": "F#3",
                    "ticks": 118080,
                    "time": 61.5,
                    "velocity": 1
                },
                {
                    "duration": 0.25,
                    "durationTicks": 480,
                    "midi": 62,
                    "name": "D4",
                    "ticks": 118080,
                    "time": 61.5,
                    "velocity": 1
                },
                {
                    "duration": 0.25,
                    "durationTicks": 480,
                    "midi": 66,
                    "name": "F#4",
                    "ticks": 118080,
                    "time": 61.5,
                    "velocity": 1
                },
                {
                    "duration": 0.25,
                    "durationTicks": 480,
                    "midi": 57,
                    "name": "A3",
                    "ticks": 118560,
                    "time": 61.75,
                    "velocity": 1
                },
                {
                    "duration": 0.25,
                    "durationTicks": 480,
                    "midi": 62,
                    "name": "D4",
                    "ticks": 118560,
                    "time": 61.75,
                    "velocity": 1
                },
                {
                    "duration": 4.75,
                    "durationTicks": 9120,
                    "midi": 50,
                    "name": "D3",
                    "ticks": 118560,
                    "time": 61.75,
                    "velocity": 1
                },
                {
                    "duration": 0.5,
                    "durationTicks": 960,
                    "midi": 40,
                    "name": "E2",
                    "ticks": 119040,
                    "time": 62,
                    "velocity": 1
                },
                {
                    "duration": 0.5,
                    "durationTicks": 960,
                    "midi": 40,
                    "name": "E2",
                    "ticks": 120000,
                    "time": 62.5,
                    "velocity": 1
                },
                {
                    "duration": 0.5,
                    "durationTicks": 960,
                    "midi": 47,
                    "name": "B2",
                    "ticks": 120000,
                    "time": 62.5,
                    "velocity": 1
                },
                {
                    "duration": 0.5,
                    "durationTicks": 960,
                    "midi": 52,
                    "name": "E3",
                    "ticks": 120000,
                    "time": 62.5,
                    "velocity": 1
                },
                {
                    "duration": 0.5,
                    "durationTicks": 960,
                    "midi": 55,
                    "name": "G3",
                    "ticks": 120000,
                    "time": 62.5,
                    "velocity": 1
                },
                {
                    "duration": 0.5,
                    "durationTicks": 960,
                    "midi": 62,
                    "name": "D4",
                    "ticks": 120000,
                    "time": 62.5,
                    "velocity": 1
                },
                {
                    "duration": 0.5,
                    "durationTicks": 960,
                    "midi": 67,
                    "name": "G4",
                    "ticks": 120000,
                    "time": 62.5,
                    "velocity": 1
                },
                {
                    "duration": 0.25,
                    "durationTicks": 480,
                    "midi": 40,
                    "name": "E2",
                    "ticks": 120960,
                    "time": 63,
                    "velocity": 1
                },
                {
                    "duration": 0.25,
                    "durationTicks": 480,
                    "midi": 67,
                    "name": "G4",
                    "ticks": 120960,
                    "time": 63,
                    "velocity": 1
                },
                {
                    "duration": 0.25,
                    "durationTicks": 480,
                    "midi": 62,
                    "name": "D4",
                    "ticks": 120960,
                    "time": 63,
                    "velocity": 1
                },
                {
                    "duration": 0.25,
                    "durationTicks": 480,
                    "midi": 55,
                    "name": "G3",
                    "ticks": 120960,
                    "time": 63,
                    "velocity": 1
                },
                {
                    "duration": 0.25,
                    "durationTicks": 480,
                    "midi": 52,
                    "name": "E3",
                    "ticks": 120960,
                    "time": 63,
                    "velocity": 1
                },
                {
                    "duration": 0.25,
                    "durationTicks": 480,
                    "midi": 47,
                    "name": "B2",
                    "ticks": 120960,
                    "time": 63,
                    "velocity": 1
                },
                {
                    "duration": 0.25,
                    "durationTicks": 480,
                    "midi": 40,
                    "name": "E2",
                    "ticks": 121440,
                    "time": 63.25,
                    "velocity": 1
                },
                {
                    "duration": 0.25,
                    "durationTicks": 480,
                    "midi": 67,
                    "name": "G4",
                    "ticks": 121440,
                    "time": 63.25,
                    "velocity": 1
                },
                {
                    "duration": 0.25,
                    "durationTicks": 480,
                    "midi": 62,
                    "name": "D4",
                    "ticks": 121440,
                    "time": 63.25,
                    "velocity": 1
                },
                {
                    "duration": 0.25,
                    "durationTicks": 480,
                    "midi": 55,
                    "name": "G3",
                    "ticks": 121440,
                    "time": 63.25,
                    "velocity": 1
                },
                {
                    "duration": 0.25,
                    "durationTicks": 480,
                    "midi": 52,
                    "name": "E3",
                    "ticks": 121440,
                    "time": 63.25,
                    "velocity": 1
                },
                {
                    "duration": 0.25,
                    "durationTicks": 480,
                    "midi": 47,
                    "name": "B2",
                    "ticks": 121440,
                    "time": 63.25,
                    "velocity": 1
                },
                {
                    "duration": 0.25,
                    "durationTicks": 480,
                    "midi": 40,
                    "name": "E2",
                    "ticks": 121920,
                    "time": 63.5,
                    "velocity": 1
                },
                {
                    "duration": 0.25,
                    "durationTicks": 480,
                    "midi": 67,
                    "name": "G4",
                    "ticks": 121920,
                    "time": 63.5,
                    "velocity": 1
                },
                {
                    "duration": 0.25,
                    "durationTicks": 480,
                    "midi": 62,
                    "name": "D4",
                    "ticks": 121920,
                    "time": 63.5,
                    "velocity": 1
                },
                {
                    "duration": 0.25,
                    "durationTicks": 480,
                    "midi": 55,
                    "name": "G3",
                    "ticks": 121920,
                    "time": 63.5,
                    "velocity": 1
                },
                {
                    "duration": 0.25,
                    "durationTicks": 480,
                    "midi": 52,
                    "name": "E3",
                    "ticks": 121920,
                    "time": 63.5,
                    "velocity": 1
                },
                {
                    "duration": 0.25,
                    "durationTicks": 480,
                    "midi": 47,
                    "name": "B2",
                    "ticks": 121920,
                    "time": 63.5,
                    "velocity": 1
                },
                {
                    "duration": 0.25,
                    "durationTicks": 480,
                    "midi": 40,
                    "name": "E2",
                    "ticks": 122400,
                    "time": 63.75,
                    "velocity": 1
                },
                {
                    "duration": 0.25,
                    "durationTicks": 480,
                    "midi": 67,
                    "name": "G4",
                    "ticks": 122400,
                    "time": 63.75,
                    "velocity": 1
                },
                {
                    "duration": 0.25,
                    "durationTicks": 480,
                    "midi": 62,
                    "name": "D4",
                    "ticks": 122400,
                    "time": 63.75,
                    "velocity": 1
                },
                {
                    "duration": 0.25,
                    "durationTicks": 480,
                    "midi": 55,
                    "name": "G3",
                    "ticks": 122400,
                    "time": 63.75,
                    "velocity": 1
                },
                {
                    "duration": 0.25,
                    "durationTicks": 480,
                    "midi": 52,
                    "name": "E3",
                    "ticks": 122400,
                    "time": 63.75,
                    "velocity": 1
                },
                {
                    "duration": 0.25,
                    "durationTicks": 480,
                    "midi": 47,
                    "name": "B2",
                    "ticks": 122400,
                    "time": 63.75,
                    "velocity": 1
                },
                {
                    "duration": 0.5,
                    "durationTicks": 960,
                    "midi": 45,
                    "name": "A2",
                    "ticks": 122880,
                    "time": 64,
                    "velocity": 1
                },
                {
                    "duration": 0.5,
                    "durationTicks": 960,
                    "midi": 45,
                    "name": "A2",
                    "ticks": 123840,
                    "time": 64.5,
                    "velocity": 1
                },
                {
                    "duration": 0.5,
                    "durationTicks": 960,
                    "midi": 52,
                    "name": "E3",
                    "ticks": 123840,
                    "time": 64.5,
                    "velocity": 1
                },
                {
                    "duration": 0.5,
                    "durationTicks": 960,
                    "midi": 55,
                    "name": "G3",
                    "ticks": 123840,
                    "time": 64.5,
                    "velocity": 1
                },
                {
                    "duration": 0.5,
                    "durationTicks": 960,
                    "midi": 62,
                    "name": "D4",
                    "ticks": 123840,
                    "time": 64.5,
                    "velocity": 1
                },
                {
                    "duration": 0.5,
                    "durationTicks": 960,
                    "midi": 64,
                    "name": "E4",
                    "ticks": 123840,
                    "time": 64.5,
                    "velocity": 1
                },
                {
                    "duration": 0.25,
                    "durationTicks": 480,
                    "midi": 45,
                    "name": "A2",
                    "ticks": 124800,
                    "time": 65,
                    "velocity": 1
                },
                {
                    "duration": 0.25,
                    "durationTicks": 480,
                    "midi": 52,
                    "name": "E3",
                    "ticks": 124800,
                    "time": 65,
                    "velocity": 1
                },
                {
                    "duration": 0.25,
                    "durationTicks": 480,
                    "midi": 55,
                    "name": "G3",
                    "ticks": 124800,
                    "time": 65,
                    "velocity": 1
                },
                {
                    "duration": 0.25,
                    "durationTicks": 480,
                    "midi": 62,
                    "name": "D4",
                    "ticks": 124800,
                    "time": 65,
                    "velocity": 1
                },
                {
                    "duration": 0.25,
                    "durationTicks": 480,
                    "midi": 64,
                    "name": "E4",
                    "ticks": 124800,
                    "time": 65,
                    "velocity": 1
                },
                {
                    "duration": 0.25,
                    "durationTicks": 480,
                    "midi": 45,
                    "name": "A2",
                    "ticks": 125280,
                    "time": 65.25,
                    "velocity": 1
                },
                {
                    "duration": 0.25,
                    "durationTicks": 480,
                    "midi": 52,
                    "name": "E3",
                    "ticks": 125280,
                    "time": 65.25,
                    "velocity": 1
                },
                {
                    "duration": 0.25,
                    "durationTicks": 480,
                    "midi": 55,
                    "name": "G3",
                    "ticks": 125280,
                    "time": 65.25,
                    "velocity": 1
                },
                {
                    "duration": 0.25,
                    "durationTicks": 480,
                    "midi": 62,
                    "name": "D4",
                    "ticks": 125280,
                    "time": 65.25,
                    "velocity": 1
                },
                {
                    "duration": 0.25,
                    "durationTicks": 480,
                    "midi": 64,
                    "name": "E4",
                    "ticks": 125280,
                    "time": 65.25,
                    "velocity": 1
                },
                {
                    "duration": 0.25,
                    "durationTicks": 480,
                    "midi": 45,
                    "name": "A2",
                    "ticks": 125760,
                    "time": 65.5,
                    "velocity": 1
                },
                {
                    "duration": 0.25,
                    "durationTicks": 480,
                    "midi": 52,
                    "name": "E3",
                    "ticks": 125760,
                    "time": 65.5,
                    "velocity": 1
                },
                {
                    "duration": 0.25,
                    "durationTicks": 480,
                    "midi": 55,
                    "name": "G3",
                    "ticks": 125760,
                    "time": 65.5,
                    "velocity": 1
                },
                {
                    "duration": 0.25,
                    "durationTicks": 480,
                    "midi": 62,
                    "name": "D4",
                    "ticks": 125760,
                    "time": 65.5,
                    "velocity": 1
                },
                {
                    "duration": 0.25,
                    "durationTicks": 480,
                    "midi": 64,
                    "name": "E4",
                    "ticks": 125760,
                    "time": 65.5,
                    "velocity": 1
                },
                {
                    "duration": 0.25,
                    "durationTicks": 480,
                    "midi": 45,
                    "name": "A2",
                    "ticks": 126240,
                    "time": 65.75,
                    "velocity": 1
                },
                {
                    "duration": 0.25,
                    "durationTicks": 480,
                    "midi": 52,
                    "name": "E3",
                    "ticks": 126240,
                    "time": 65.75,
                    "velocity": 1
                },
                {
                    "duration": 0.25,
                    "durationTicks": 480,
                    "midi": 55,
                    "name": "G3",
                    "ticks": 126240,
                    "time": 65.75,
                    "velocity": 1
                },
                {
                    "duration": 0.25,
                    "durationTicks": 480,
                    "midi": 62,
                    "name": "D4",
                    "ticks": 126240,
                    "time": 65.75,
                    "velocity": 1
                },
                {
                    "duration": 0.25,
                    "durationTicks": 480,
                    "midi": 64,
                    "name": "E4",
                    "ticks": 126240,
                    "time": 65.75,
                    "velocity": 1
                },
                {
                    "duration": 1.25,
                    "durationTicks": 2400,
                    "midi": 50,
                    "name": "D3",
                    "ticks": 126720,
                    "time": 66,
                    "velocity": 1
                },
                {
                    "duration": 0.75,
                    "durationTicks": 1440,
                    "midi": 54,
                    "name": "F#3",
                    "ticks": 127680,
                    "time": 66.5,
                    "velocity": 1
                },
                {
                    "duration": 0.75,
                    "durationTicks": 1440,
                    "midi": 57,
                    "name": "A3",
                    "ticks": 127680,
                    "time": 66.5,
                    "velocity": 1
                },
                {
                    "duration": 0.75,
                    "durationTicks": 1440,
                    "midi": 62,
                    "name": "D4",
                    "ticks": 127680,
                    "time": 66.5,
                    "velocity": 1
                },
                {
                    "duration": 0.75,
                    "durationTicks": 1440,
                    "midi": 66,
                    "name": "F#4",
                    "ticks": 127680,
                    "time": 66.5,
                    "velocity": 1
                },
                {
                    "duration": 1.5,
                    "durationTicks": 2880,
                    "midi": 50,
                    "name": "D3",
                    "ticks": 127680,
                    "time": 66.5,
                    "velocity": 1
                },
                {
                    "duration": 0.25,
                    "durationTicks": 480,
                    "midi": 55,
                    "name": "G3",
                    "ticks": 129120,
                    "time": 67.25,
                    "velocity": 1
                },
                {
                    "duration": 0.25,
                    "durationTicks": 480,
                    "midi": 62,
                    "name": "D4",
                    "ticks": 129120,
                    "time": 67.25,
                    "velocity": 1
                },
                {
                    "duration": 0.25,
                    "durationTicks": 480,
                    "midi": 67,
                    "name": "G4",
                    "ticks": 129120,
                    "time": 67.25,
                    "velocity": 1
                },
                {
                    "duration": 0.25,
                    "durationTicks": 480,
                    "midi": 54,
                    "name": "F#3",
                    "ticks": 129600,
                    "time": 67.5,
                    "velocity": 1
                },
                {
                    "duration": 0.25,
                    "durationTicks": 480,
                    "midi": 62,
                    "name": "D4",
                    "ticks": 129600,
                    "time": 67.5,
                    "velocity": 1
                },
                {
                    "duration": 0.25,
                    "durationTicks": 480,
                    "midi": 66,
                    "name": "F#4",
                    "ticks": 129600,
                    "time": 67.5,
                    "velocity": 1
                },
                {
                    "duration": 0.25,
                    "durationTicks": 480,
                    "midi": 57,
                    "name": "A3",
                    "ticks": 130080,
                    "time": 67.75,
                    "velocity": 1
                },
                {
                    "duration": 0.25,
                    "durationTicks": 480,
                    "midi": 62,
                    "name": "D4",
                    "ticks": 130080,
                    "time": 67.75,
                    "velocity": 1
                },
                {
                    "duration": 0.5,
                    "durationTicks": 960,
                    "midi": 50,
                    "name": "D3",
                    "ticks": 130560,
                    "time": 68,
                    "velocity": 1
                },
                {
                    "duration": 1.25,
                    "durationTicks": 2400,
                    "midi": 50,
                    "name": "D3",
                    "ticks": 130560,
                    "time": 68,
                    "velocity": 1
                },
                {
                    "duration": 0.75,
                    "durationTicks": 1440,
                    "midi": 54,
                    "name": "F#3",
                    "ticks": 131520,
                    "time": 68.5,
                    "velocity": 1
                },
                {
                    "duration": 0.75,
                    "durationTicks": 1440,
                    "midi": 57,
                    "name": "A3",
                    "ticks": 131520,
                    "time": 68.5,
                    "velocity": 1
                },
                {
                    "duration": 0.75,
                    "durationTicks": 1440,
                    "midi": 62,
                    "name": "D4",
                    "ticks": 131520,
                    "time": 68.5,
                    "velocity": 1
                },
                {
                    "duration": 0.75,
                    "durationTicks": 1440,
                    "midi": 66,
                    "name": "F#4",
                    "ticks": 131520,
                    "time": 68.5,
                    "velocity": 1
                },
                {
                    "duration": 1.5,
                    "durationTicks": 2880,
                    "midi": 50,
                    "name": "D3",
                    "ticks": 131520,
                    "time": 68.5,
                    "velocity": 1
                },
                {
                    "duration": 0.25,
                    "durationTicks": 480,
                    "midi": 55,
                    "name": "G3",
                    "ticks": 132960,
                    "time": 69.25,
                    "velocity": 1
                },
                {
                    "duration": 0.25,
                    "durationTicks": 480,
                    "midi": 62,
                    "name": "D4",
                    "ticks": 132960,
                    "time": 69.25,
                    "velocity": 1
                },
                {
                    "duration": 0.25,
                    "durationTicks": 480,
                    "midi": 67,
                    "name": "G4",
                    "ticks": 132960,
                    "time": 69.25,
                    "velocity": 1
                },
                {
                    "duration": 0.25,
                    "durationTicks": 480,
                    "midi": 54,
                    "name": "F#3",
                    "ticks": 133440,
                    "time": 69.5,
                    "velocity": 1
                },
                {
                    "duration": 0.25,
                    "durationTicks": 480,
                    "midi": 62,
                    "name": "D4",
                    "ticks": 133440,
                    "time": 69.5,
                    "velocity": 1
                },
                {
                    "duration": 0.25,
                    "durationTicks": 480,
                    "midi": 66,
                    "name": "F#4",
                    "ticks": 133440,
                    "time": 69.5,
                    "velocity": 1
                },
                {
                    "duration": 0.25,
                    "durationTicks": 480,
                    "midi": 57,
                    "name": "A3",
                    "ticks": 133920,
                    "time": 69.75,
                    "velocity": 1
                },
                {
                    "duration": 0.25,
                    "durationTicks": 480,
                    "midi": 62,
                    "name": "D4",
                    "ticks": 133920,
                    "time": 69.75,
                    "velocity": 1
                },
                {
                    "duration": 0.75,
                    "durationTicks": 1440,
                    "midi": 50,
                    "name": "D3",
                    "ticks": 133920,
                    "time": 69.75,
                    "velocity": 1
                },
                {
                    "duration": 1.25,
                    "durationTicks": 2400,
                    "midi": 50,
                    "name": "D3",
                    "ticks": 134400,
                    "time": 70,
                    "velocity": 1
                },
                {
                    "duration": 0.75,
                    "durationTicks": 1440,
                    "midi": 54,
                    "name": "F#3",
                    "ticks": 135360,
                    "time": 70.5,
                    "velocity": 1
                },
                {
                    "duration": 0.75,
                    "durationTicks": 1440,
                    "midi": 57,
                    "name": "A3",
                    "ticks": 135360,
                    "time": 70.5,
                    "velocity": 1
                },
                {
                    "duration": 0.75,
                    "durationTicks": 1440,
                    "midi": 62,
                    "name": "D4",
                    "ticks": 135360,
                    "time": 70.5,
                    "velocity": 1
                },
                {
                    "duration": 0.75,
                    "durationTicks": 1440,
                    "midi": 66,
                    "name": "F#4",
                    "ticks": 135360,
                    "time": 70.5,
                    "velocity": 1
                },
                {
                    "duration": 1.5,
                    "durationTicks": 2880,
                    "midi": 50,
                    "name": "D3",
                    "ticks": 135360,
                    "time": 70.5,
                    "velocity": 1
                },
                {
                    "duration": 0.25,
                    "durationTicks": 480,
                    "midi": 55,
                    "name": "G3",
                    "ticks": 136800,
                    "time": 71.25,
                    "velocity": 1
                },
                {
                    "duration": 0.25,
                    "durationTicks": 480,
                    "midi": 62,
                    "name": "D4",
                    "ticks": 136800,
                    "time": 71.25,
                    "velocity": 1
                },
                {
                    "duration": 0.25,
                    "durationTicks": 480,
                    "midi": 67,
                    "name": "G4",
                    "ticks": 136800,
                    "time": 71.25,
                    "velocity": 1
                },
                {
                    "duration": 0.25,
                    "durationTicks": 480,
                    "midi": 54,
                    "name": "F#3",
                    "ticks": 137280,
                    "time": 71.5,
                    "velocity": 1
                },
                {
                    "duration": 0.25,
                    "durationTicks": 480,
                    "midi": 62,
                    "name": "D4",
                    "ticks": 137280,
                    "time": 71.5,
                    "velocity": 1
                },
                {
                    "duration": 0.25,
                    "durationTicks": 480,
                    "midi": 66,
                    "name": "F#4",
                    "ticks": 137280,
                    "time": 71.5,
                    "velocity": 1
                },
                {
                    "duration": 0.25,
                    "durationTicks": 480,
                    "midi": 57,
                    "name": "A3",
                    "ticks": 137760,
                    "time": 71.75,
                    "velocity": 1
                },
                {
                    "duration": 0.25,
                    "durationTicks": 480,
                    "midi": 62,
                    "name": "D4",
                    "ticks": 137760,
                    "time": 71.75,
                    "velocity": 1
                },
                {
                    "duration": 0.5,
                    "durationTicks": 960,
                    "midi": 50,
                    "name": "D3",
                    "ticks": 138240,
                    "time": 72,
                    "velocity": 1
                },
                {
                    "duration": 1.25,
                    "durationTicks": 2400,
                    "midi": 50,
                    "name": "D3",
                    "ticks": 138240,
                    "time": 72,
                    "velocity": 1
                },
                {
                    "duration": 0.75,
                    "durationTicks": 1440,
                    "midi": 54,
                    "name": "F#3",
                    "ticks": 139200,
                    "time": 72.5,
                    "velocity": 1
                },
                {
                    "duration": 0.75,
                    "durationTicks": 1440,
                    "midi": 57,
                    "name": "A3",
                    "ticks": 139200,
                    "time": 72.5,
                    "velocity": 1
                },
                {
                    "duration": 0.75,
                    "durationTicks": 1440,
                    "midi": 62,
                    "name": "D4",
                    "ticks": 139200,
                    "time": 72.5,
                    "velocity": 1
                },
                {
                    "duration": 0.75,
                    "durationTicks": 1440,
                    "midi": 66,
                    "name": "F#4",
                    "ticks": 139200,
                    "time": 72.5,
                    "velocity": 1
                },
                {
                    "duration": 1.5,
                    "durationTicks": 2880,
                    "midi": 50,
                    "name": "D3",
                    "ticks": 139200,
                    "time": 72.5,
                    "velocity": 1
                },
                {
                    "duration": 0.25,
                    "durationTicks": 480,
                    "midi": 55,
                    "name": "G3",
                    "ticks": 140640,
                    "time": 73.25,
                    "velocity": 1
                },
                {
                    "duration": 0.25,
                    "durationTicks": 480,
                    "midi": 62,
                    "name": "D4",
                    "ticks": 140640,
                    "time": 73.25,
                    "velocity": 1
                },
                {
                    "duration": 0.25,
                    "durationTicks": 480,
                    "midi": 67,
                    "name": "G4",
                    "ticks": 140640,
                    "time": 73.25,
                    "velocity": 1
                },
                {
                    "duration": 0.25,
                    "durationTicks": 480,
                    "midi": 54,
                    "name": "F#3",
                    "ticks": 141120,
                    "time": 73.5,
                    "velocity": 1
                },
                {
                    "duration": 0.25,
                    "durationTicks": 480,
                    "midi": 62,
                    "name": "D4",
                    "ticks": 141120,
                    "time": 73.5,
                    "velocity": 1
                },
                {
                    "duration": 0.25,
                    "durationTicks": 480,
                    "midi": 66,
                    "name": "F#4",
                    "ticks": 141120,
                    "time": 73.5,
                    "velocity": 1
                },
                {
                    "duration": 0.25,
                    "durationTicks": 480,
                    "midi": 57,
                    "name": "A3",
                    "ticks": 141600,
                    "time": 73.75,
                    "velocity": 1
                },
                {
                    "duration": 0.25,
                    "durationTicks": 480,
                    "midi": 62,
                    "name": "D4",
                    "ticks": 141600,
                    "time": 73.75,
                    "velocity": 1
                },
                {
                    "duration": 0.75,
                    "durationTicks": 1440,
                    "midi": 50,
                    "name": "D3",
                    "ticks": 141600,
                    "time": 73.75,
                    "velocity": 1
                },
                {
                    "duration": 1.25,
                    "durationTicks": 2400,
                    "midi": 50,
                    "name": "D3",
                    "ticks": 142080,
                    "time": 74,
                    "velocity": 1
                },
                {
                    "duration": 0.75,
                    "durationTicks": 1440,
                    "midi": 54,
                    "name": "F#3",
                    "ticks": 143040,
                    "time": 74.5,
                    "velocity": 1
                },
                {
                    "duration": 0.75,
                    "durationTicks": 1440,
                    "midi": 57,
                    "name": "A3",
                    "ticks": 143040,
                    "time": 74.5,
                    "velocity": 1
                },
                {
                    "duration": 0.75,
                    "durationTicks": 1440,
                    "midi": 62,
                    "name": "D4",
                    "ticks": 143040,
                    "time": 74.5,
                    "velocity": 1
                },
                {
                    "duration": 0.75,
                    "durationTicks": 1440,
                    "midi": 66,
                    "name": "F#4",
                    "ticks": 143040,
                    "time": 74.5,
                    "velocity": 1
                },
                {
                    "duration": 1.5,
                    "durationTicks": 2880,
                    "midi": 50,
                    "name": "D3",
                    "ticks": 143040,
                    "time": 74.5,
                    "velocity": 1
                },
                {
                    "duration": 0.25,
                    "durationTicks": 480,
                    "midi": 55,
                    "name": "G3",
                    "ticks": 144480,
                    "time": 75.25,
                    "velocity": 1
                },
                {
                    "duration": 0.25,
                    "durationTicks": 480,
                    "midi": 62,
                    "name": "D4",
                    "ticks": 144480,
                    "time": 75.25,
                    "velocity": 1
                },
                {
                    "duration": 0.25,
                    "durationTicks": 480,
                    "midi": 67,
                    "name": "G4",
                    "ticks": 144480,
                    "time": 75.25,
                    "velocity": 1
                },
                {
                    "duration": 0.25,
                    "durationTicks": 480,
                    "midi": 54,
                    "name": "F#3",
                    "ticks": 144960,
                    "time": 75.5,
                    "velocity": 1
                },
                {
                    "duration": 0.25,
                    "durationTicks": 480,
                    "midi": 62,
                    "name": "D4",
                    "ticks": 144960,
                    "time": 75.5,
                    "velocity": 1
                },
                {
                    "duration": 0.25,
                    "durationTicks": 480,
                    "midi": 66,
                    "name": "F#4",
                    "ticks": 144960,
                    "time": 75.5,
                    "velocity": 1
                },
                {
                    "duration": 0.25,
                    "durationTicks": 480,
                    "midi": 57,
                    "name": "A3",
                    "ticks": 145440,
                    "time": 75.75,
                    "velocity": 1
                },
                {
                    "duration": 0.25,
                    "durationTicks": 480,
                    "midi": 62,
                    "name": "D4",
                    "ticks": 145440,
                    "time": 75.75,
                    "velocity": 1
                },
                {
                    "duration": 0.5,
                    "durationTicks": 960,
                    "midi": 50,
                    "name": "D3",
                    "ticks": 145920,
                    "time": 76,
                    "velocity": 1
                },
                {
                    "duration": 1.25,
                    "durationTicks": 2400,
                    "midi": 50,
                    "name": "D3",
                    "ticks": 145920,
                    "time": 76,
                    "velocity": 1
                },
                {
                    "duration": 0.75,
                    "durationTicks": 1440,
                    "midi": 54,
                    "name": "F#3",
                    "ticks": 146880,
                    "time": 76.5,
                    "velocity": 1
                },
                {
                    "duration": 0.75,
                    "durationTicks": 1440,
                    "midi": 57,
                    "name": "A3",
                    "ticks": 146880,
                    "time": 76.5,
                    "velocity": 1
                },
                {
                    "duration": 0.75,
                    "durationTicks": 1440,
                    "midi": 62,
                    "name": "D4",
                    "ticks": 146880,
                    "time": 76.5,
                    "velocity": 1
                },
                {
                    "duration": 0.75,
                    "durationTicks": 1440,
                    "midi": 66,
                    "name": "F#4",
                    "ticks": 146880,
                    "time": 76.5,
                    "velocity": 1
                },
                {
                    "duration": 1.5,
                    "durationTicks": 2880,
                    "midi": 50,
                    "name": "D3",
                    "ticks": 146880,
                    "time": 76.5,
                    "velocity": 1
                },
                {
                    "duration": 0.25,
                    "durationTicks": 480,
                    "midi": 55,
                    "name": "G3",
                    "ticks": 148320,
                    "time": 77.25,
                    "velocity": 1
                },
                {
                    "duration": 0.25,
                    "durationTicks": 480,
                    "midi": 62,
                    "name": "D4",
                    "ticks": 148320,
                    "time": 77.25,
                    "velocity": 1
                },
                {
                    "duration": 0.25,
                    "durationTicks": 480,
                    "midi": 67,
                    "name": "G4",
                    "ticks": 148320,
                    "time": 77.25,
                    "velocity": 1
                },
                {
                    "duration": 0.25,
                    "durationTicks": 480,
                    "midi": 54,
                    "name": "F#3",
                    "ticks": 148800,
                    "time": 77.5,
                    "velocity": 1
                },
                {
                    "duration": 0.25,
                    "durationTicks": 480,
                    "midi": 62,
                    "name": "D4",
                    "ticks": 148800,
                    "time": 77.5,
                    "velocity": 1
                },
                {
                    "duration": 0.25,
                    "durationTicks": 480,
                    "midi": 66,
                    "name": "F#4",
                    "ticks": 148800,
                    "time": 77.5,
                    "velocity": 1
                },
                {
                    "duration": 0.25,
                    "durationTicks": 480,
                    "midi": 57,
                    "name": "A3",
                    "ticks": 149280,
                    "time": 77.75,
                    "velocity": 1
                },
                {
                    "duration": 0.25,
                    "durationTicks": 480,
                    "midi": 62,
                    "name": "D4",
                    "ticks": 149280,
                    "time": 77.75,
                    "velocity": 1
                },
                {
                    "duration": 14.75,
                    "durationTicks": 28320,
                    "midi": 50,
                    "name": "D3",
                    "ticks": 149280,
                    "time": 77.75,
                    "velocity": 1
                },
                {
                    "duration": 0.5,
                    "durationTicks": 960,
                    "midi": 40,
                    "name": "E2",
                    "ticks": 149760,
                    "time": 78,
                    "velocity": 1
                },
                {
                    "duration": 0.5,
                    "durationTicks": 960,
                    "midi": 40,
                    "name": "E2",
                    "ticks": 150720,
                    "time": 78.5,
                    "velocity": 1
                },
                {
                    "duration": 0.5,
                    "durationTicks": 960,
                    "midi": 47,
                    "name": "B2",
                    "ticks": 150720,
                    "time": 78.5,
                    "velocity": 1
                },
                {
                    "duration": 0.5,
                    "durationTicks": 960,
                    "midi": 52,
                    "name": "E3",
                    "ticks": 150720,
                    "time": 78.5,
                    "velocity": 1
                },
                {
                    "duration": 0.5,
                    "durationTicks": 960,
                    "midi": 55,
                    "name": "G3",
                    "ticks": 150720,
                    "time": 78.5,
                    "velocity": 1
                },
                {
                    "duration": 0.5,
                    "durationTicks": 960,
                    "midi": 62,
                    "name": "D4",
                    "ticks": 150720,
                    "time": 78.5,
                    "velocity": 1
                },
                {
                    "duration": 0.5,
                    "durationTicks": 960,
                    "midi": 67,
                    "name": "G4",
                    "ticks": 150720,
                    "time": 78.5,
                    "velocity": 1
                },
                {
                    "duration": 0.25,
                    "durationTicks": 480,
                    "midi": 40,
                    "name": "E2",
                    "ticks": 151680,
                    "time": 79,
                    "velocity": 1
                },
                {
                    "duration": 0.25,
                    "durationTicks": 480,
                    "midi": 67,
                    "name": "G4",
                    "ticks": 151680,
                    "time": 79,
                    "velocity": 1
                },
                {
                    "duration": 0.25,
                    "durationTicks": 480,
                    "midi": 62,
                    "name": "D4",
                    "ticks": 151680,
                    "time": 79,
                    "velocity": 1
                },
                {
                    "duration": 0.25,
                    "durationTicks": 480,
                    "midi": 55,
                    "name": "G3",
                    "ticks": 151680,
                    "time": 79,
                    "velocity": 1
                },
                {
                    "duration": 0.25,
                    "durationTicks": 480,
                    "midi": 52,
                    "name": "E3",
                    "ticks": 151680,
                    "time": 79,
                    "velocity": 1
                },
                {
                    "duration": 0.25,
                    "durationTicks": 480,
                    "midi": 47,
                    "name": "B2",
                    "ticks": 151680,
                    "time": 79,
                    "velocity": 1
                },
                {
                    "duration": 0.25,
                    "durationTicks": 480,
                    "midi": 40,
                    "name": "E2",
                    "ticks": 152160,
                    "time": 79.25,
                    "velocity": 1
                },
                {
                    "duration": 0.25,
                    "durationTicks": 480,
                    "midi": 67,
                    "name": "G4",
                    "ticks": 152160,
                    "time": 79.25,
                    "velocity": 1
                },
                {
                    "duration": 0.25,
                    "durationTicks": 480,
                    "midi": 62,
                    "name": "D4",
                    "ticks": 152160,
                    "time": 79.25,
                    "velocity": 1
                },
                {
                    "duration": 0.25,
                    "durationTicks": 480,
                    "midi": 55,
                    "name": "G3",
                    "ticks": 152160,
                    "time": 79.25,
                    "velocity": 1
                },
                {
                    "duration": 0.25,
                    "durationTicks": 480,
                    "midi": 52,
                    "name": "E3",
                    "ticks": 152160,
                    "time": 79.25,
                    "velocity": 1
                },
                {
                    "duration": 0.25,
                    "durationTicks": 480,
                    "midi": 47,
                    "name": "B2",
                    "ticks": 152160,
                    "time": 79.25,
                    "velocity": 1
                },
                {
                    "duration": 0.25,
                    "durationTicks": 480,
                    "midi": 40,
                    "name": "E2",
                    "ticks": 152640,
                    "time": 79.5,
                    "velocity": 1
                },
                {
                    "duration": 0.25,
                    "durationTicks": 480,
                    "midi": 67,
                    "name": "G4",
                    "ticks": 152640,
                    "time": 79.5,
                    "velocity": 1
                },
                {
                    "duration": 0.25,
                    "durationTicks": 480,
                    "midi": 62,
                    "name": "D4",
                    "ticks": 152640,
                    "time": 79.5,
                    "velocity": 1
                },
                {
                    "duration": 0.25,
                    "durationTicks": 480,
                    "midi": 55,
                    "name": "G3",
                    "ticks": 152640,
                    "time": 79.5,
                    "velocity": 1
                },
                {
                    "duration": 0.25,
                    "durationTicks": 480,
                    "midi": 52,
                    "name": "E3",
                    "ticks": 152640,
                    "time": 79.5,
                    "velocity": 1
                },
                {
                    "duration": 0.25,
                    "durationTicks": 480,
                    "midi": 47,
                    "name": "B2",
                    "ticks": 152640,
                    "time": 79.5,
                    "velocity": 1
                },
                {
                    "duration": 0.25,
                    "durationTicks": 480,
                    "midi": 40,
                    "name": "E2",
                    "ticks": 153120,
                    "time": 79.75,
                    "velocity": 1
                },
                {
                    "duration": 0.25,
                    "durationTicks": 480,
                    "midi": 67,
                    "name": "G4",
                    "ticks": 153120,
                    "time": 79.75,
                    "velocity": 1
                },
                {
                    "duration": 0.25,
                    "durationTicks": 480,
                    "midi": 62,
                    "name": "D4",
                    "ticks": 153120,
                    "time": 79.75,
                    "velocity": 1
                },
                {
                    "duration": 0.25,
                    "durationTicks": 480,
                    "midi": 55,
                    "name": "G3",
                    "ticks": 153120,
                    "time": 79.75,
                    "velocity": 1
                },
                {
                    "duration": 0.25,
                    "durationTicks": 480,
                    "midi": 52,
                    "name": "E3",
                    "ticks": 153120,
                    "time": 79.75,
                    "velocity": 1
                },
                {
                    "duration": 0.25,
                    "durationTicks": 480,
                    "midi": 47,
                    "name": "B2",
                    "ticks": 153120,
                    "time": 79.75,
                    "velocity": 1
                },
                {
                    "duration": 0.5,
                    "durationTicks": 960,
                    "midi": 45,
                    "name": "A2",
                    "ticks": 153600,
                    "time": 80,
                    "velocity": 1
                },
                {
                    "duration": 0.5,
                    "durationTicks": 960,
                    "midi": 45,
                    "name": "A2",
                    "ticks": 154560,
                    "time": 80.5,
                    "velocity": 1
                },
                {
                    "duration": 0.5,
                    "durationTicks": 960,
                    "midi": 52,
                    "name": "E3",
                    "ticks": 154560,
                    "time": 80.5,
                    "velocity": 1
                },
                {
                    "duration": 0.5,
                    "durationTicks": 960,
                    "midi": 55,
                    "name": "G3",
                    "ticks": 154560,
                    "time": 80.5,
                    "velocity": 1
                },
                {
                    "duration": 0.5,
                    "durationTicks": 960,
                    "midi": 62,
                    "name": "D4",
                    "ticks": 154560,
                    "time": 80.5,
                    "velocity": 1
                },
                {
                    "duration": 0.5,
                    "durationTicks": 960,
                    "midi": 64,
                    "name": "E4",
                    "ticks": 154560,
                    "time": 80.5,
                    "velocity": 1
                },
                {
                    "duration": 0.25,
                    "durationTicks": 480,
                    "midi": 45,
                    "name": "A2",
                    "ticks": 155520,
                    "time": 81,
                    "velocity": 1
                },
                {
                    "duration": 0.25,
                    "durationTicks": 480,
                    "midi": 52,
                    "name": "E3",
                    "ticks": 155520,
                    "time": 81,
                    "velocity": 1
                },
                {
                    "duration": 0.25,
                    "durationTicks": 480,
                    "midi": 55,
                    "name": "G3",
                    "ticks": 155520,
                    "time": 81,
                    "velocity": 1
                },
                {
                    "duration": 0.25,
                    "durationTicks": 480,
                    "midi": 62,
                    "name": "D4",
                    "ticks": 155520,
                    "time": 81,
                    "velocity": 1
                },
                {
                    "duration": 0.25,
                    "durationTicks": 480,
                    "midi": 64,
                    "name": "E4",
                    "ticks": 155520,
                    "time": 81,
                    "velocity": 1
                },
                {
                    "duration": 0.25,
                    "durationTicks": 480,
                    "midi": 45,
                    "name": "A2",
                    "ticks": 156000,
                    "time": 81.25,
                    "velocity": 1
                },
                {
                    "duration": 0.25,
                    "durationTicks": 480,
                    "midi": 52,
                    "name": "E3",
                    "ticks": 156000,
                    "time": 81.25,
                    "velocity": 1
                },
                {
                    "duration": 0.25,
                    "durationTicks": 480,
                    "midi": 55,
                    "name": "G3",
                    "ticks": 156000,
                    "time": 81.25,
                    "velocity": 1
                },
                {
                    "duration": 0.25,
                    "durationTicks": 480,
                    "midi": 62,
                    "name": "D4",
                    "ticks": 156000,
                    "time": 81.25,
                    "velocity": 1
                },
                {
                    "duration": 0.25,
                    "durationTicks": 480,
                    "midi": 64,
                    "name": "E4",
                    "ticks": 156000,
                    "time": 81.25,
                    "velocity": 1
                },
                {
                    "duration": 0.25,
                    "durationTicks": 480,
                    "midi": 45,
                    "name": "A2",
                    "ticks": 156480,
                    "time": 81.5,
                    "velocity": 1
                },
                {
                    "duration": 0.25,
                    "durationTicks": 480,
                    "midi": 52,
                    "name": "E3",
                    "ticks": 156480,
                    "time": 81.5,
                    "velocity": 1
                },
                {
                    "duration": 0.25,
                    "durationTicks": 480,
                    "midi": 55,
                    "name": "G3",
                    "ticks": 156480,
                    "time": 81.5,
                    "velocity": 1
                },
                {
                    "duration": 0.25,
                    "durationTicks": 480,
                    "midi": 62,
                    "name": "D4",
                    "ticks": 156480,
                    "time": 81.5,
                    "velocity": 1
                },
                {
                    "duration": 0.25,
                    "durationTicks": 480,
                    "midi": 64,
                    "name": "E4",
                    "ticks": 156480,
                    "time": 81.5,
                    "velocity": 1
                },
                {
                    "duration": 0.25,
                    "durationTicks": 480,
                    "midi": 45,
                    "name": "A2",
                    "ticks": 156960,
                    "time": 81.75,
                    "velocity": 1
                },
                {
                    "duration": 0.25,
                    "durationTicks": 480,
                    "midi": 52,
                    "name": "E3",
                    "ticks": 156960,
                    "time": 81.75,
                    "velocity": 1
                },
                {
                    "duration": 0.25,
                    "durationTicks": 480,
                    "midi": 55,
                    "name": "G3",
                    "ticks": 156960,
                    "time": 81.75,
                    "velocity": 1
                },
                {
                    "duration": 0.25,
                    "durationTicks": 480,
                    "midi": 62,
                    "name": "D4",
                    "ticks": 156960,
                    "time": 81.75,
                    "velocity": 1
                },
                {
                    "duration": 0.25,
                    "durationTicks": 480,
                    "midi": 64,
                    "name": "E4",
                    "ticks": 156960,
                    "time": 81.75,
                    "velocity": 1
                },
                {
                    "duration": 0.5,
                    "durationTicks": 960,
                    "midi": 46,
                    "name": "A#2",
                    "ticks": 157440,
                    "time": 82,
                    "velocity": 1
                },
                {
                    "duration": 0.5,
                    "durationTicks": 960,
                    "midi": 53,
                    "name": "F3",
                    "ticks": 157440,
                    "time": 82,
                    "velocity": 1
                },
                {
                    "duration": 0.5,
                    "durationTicks": 960,
                    "midi": 58,
                    "name": "A#3",
                    "ticks": 157440,
                    "time": 82,
                    "velocity": 1
                },
                {
                    "duration": 0.5,
                    "durationTicks": 960,
                    "midi": 62,
                    "name": "D4",
                    "ticks": 157440,
                    "time": 82,
                    "velocity": 1
                },
                {
                    "duration": 0.25,
                    "durationTicks": 480,
                    "midi": 46,
                    "name": "A#2",
                    "ticks": 158400,
                    "time": 82.5,
                    "velocity": 1
                },
                {
                    "duration": 0.25,
                    "durationTicks": 480,
                    "midi": 53,
                    "name": "F3",
                    "ticks": 158400,
                    "time": 82.5,
                    "velocity": 1
                },
                {
                    "duration": 0.25,
                    "durationTicks": 480,
                    "midi": 58,
                    "name": "A#3",
                    "ticks": 158400,
                    "time": 82.5,
                    "velocity": 1
                },
                {
                    "duration": 0.25,
                    "durationTicks": 480,
                    "midi": 62,
                    "name": "D4",
                    "ticks": 158400,
                    "time": 82.5,
                    "velocity": 1
                },
                {
                    "duration": 0.25,
                    "durationTicks": 480,
                    "midi": 46,
                    "name": "A#2",
                    "ticks": 158880,
                    "time": 82.75,
                    "velocity": 1
                },
                {
                    "duration": 0.25,
                    "durationTicks": 480,
                    "midi": 53,
                    "name": "F3",
                    "ticks": 158880,
                    "time": 82.75,
                    "velocity": 1
                },
                {
                    "duration": 0.25,
                    "durationTicks": 480,
                    "midi": 58,
                    "name": "A#3",
                    "ticks": 158880,
                    "time": 82.75,
                    "velocity": 1
                },
                {
                    "duration": 0.25,
                    "durationTicks": 480,
                    "midi": 62,
                    "name": "D4",
                    "ticks": 158880,
                    "time": 82.75,
                    "velocity": 1
                },
                {
                    "duration": 0.25,
                    "durationTicks": 480,
                    "midi": 46,
                    "name": "A#2",
                    "ticks": 159360,
                    "time": 83,
                    "velocity": 1
                },
                {
                    "duration": 0.25,
                    "durationTicks": 480,
                    "midi": 53,
                    "name": "F3",
                    "ticks": 159360,
                    "time": 83,
                    "velocity": 1
                },
                {
                    "duration": 0.25,
                    "durationTicks": 480,
                    "midi": 58,
                    "name": "A#3",
                    "ticks": 159360,
                    "time": 83,
                    "velocity": 1
                },
                {
                    "duration": 0.25,
                    "durationTicks": 480,
                    "midi": 62,
                    "name": "D4",
                    "ticks": 159360,
                    "time": 83,
                    "velocity": 1
                },
                {
                    "duration": 0.25,
                    "durationTicks": 480,
                    "midi": 46,
                    "name": "A#2",
                    "ticks": 159840,
                    "time": 83.25,
                    "velocity": 1
                },
                {
                    "duration": 0.25,
                    "durationTicks": 480,
                    "midi": 53,
                    "name": "F3",
                    "ticks": 159840,
                    "time": 83.25,
                    "velocity": 1
                },
                {
                    "duration": 0.25,
                    "durationTicks": 480,
                    "midi": 58,
                    "name": "A#3",
                    "ticks": 159840,
                    "time": 83.25,
                    "velocity": 1
                },
                {
                    "duration": 0.25,
                    "durationTicks": 480,
                    "midi": 62,
                    "name": "D4",
                    "ticks": 159840,
                    "time": 83.25,
                    "velocity": 1
                },
                {
                    "duration": 0.25,
                    "durationTicks": 480,
                    "midi": 46,
                    "name": "A#2",
                    "ticks": 160320,
                    "time": 83.5,
                    "velocity": 1
                },
                {
                    "duration": 0.25,
                    "durationTicks": 480,
                    "midi": 53,
                    "name": "F3",
                    "ticks": 160320,
                    "time": 83.5,
                    "velocity": 1
                },
                {
                    "duration": 0.25,
                    "durationTicks": 480,
                    "midi": 58,
                    "name": "A#3",
                    "ticks": 160320,
                    "time": 83.5,
                    "velocity": 1
                },
                {
                    "duration": 0.25,
                    "durationTicks": 480,
                    "midi": 62,
                    "name": "D4",
                    "ticks": 160320,
                    "time": 83.5,
                    "velocity": 1
                },
                {
                    "duration": 0.25,
                    "durationTicks": 480,
                    "midi": 46,
                    "name": "A#2",
                    "ticks": 160800,
                    "time": 83.75,
                    "velocity": 1
                },
                {
                    "duration": 0.25,
                    "durationTicks": 480,
                    "midi": 53,
                    "name": "F3",
                    "ticks": 160800,
                    "time": 83.75,
                    "velocity": 1
                },
                {
                    "duration": 0.25,
                    "durationTicks": 480,
                    "midi": 58,
                    "name": "A#3",
                    "ticks": 160800,
                    "time": 83.75,
                    "velocity": 1
                },
                {
                    "duration": 0.25,
                    "durationTicks": 480,
                    "midi": 62,
                    "name": "D4",
                    "ticks": 160800,
                    "time": 83.75,
                    "velocity": 1
                },
                {
                    "duration": 0.25,
                    "durationTicks": 480,
                    "midi": 65,
                    "name": "F4",
                    "ticks": 161280,
                    "time": 84,
                    "velocity": 1
                },
                {
                    "duration": 0.25,
                    "durationTicks": 480,
                    "midi": 60,
                    "name": "C4",
                    "ticks": 161280,
                    "time": 84,
                    "velocity": 1
                },
                {
                    "duration": 0.25,
                    "durationTicks": 480,
                    "midi": 57,
                    "name": "A3",
                    "ticks": 161280,
                    "time": 84,
                    "velocity": 1
                },
                {
                    "duration": 0.25,
                    "durationTicks": 480,
                    "midi": 53,
                    "name": "F3",
                    "ticks": 161280,
                    "time": 84,
                    "velocity": 1
                },
                {
                    "duration": 0.25,
                    "durationTicks": 480,
                    "midi": 48,
                    "name": "C3",
                    "ticks": 161280,
                    "time": 84,
                    "velocity": 1
                },
                {
                    "duration": 0.25,
                    "durationTicks": 480,
                    "midi": 41,
                    "name": "F2",
                    "ticks": 161280,
                    "time": 84,
                    "velocity": 1
                },
                {
                    "duration": 0.25,
                    "durationTicks": 480,
                    "midi": 41,
                    "name": "F2",
                    "ticks": 161760,
                    "time": 84.25,
                    "velocity": 1
                },
                {
                    "duration": 0.25,
                    "durationTicks": 480,
                    "midi": 48,
                    "name": "C3",
                    "ticks": 161760,
                    "time": 84.25,
                    "velocity": 1
                },
                {
                    "duration": 0.25,
                    "durationTicks": 480,
                    "midi": 53,
                    "name": "F3",
                    "ticks": 161760,
                    "time": 84.25,
                    "velocity": 1
                },
                {
                    "duration": 0.25,
                    "durationTicks": 480,
                    "midi": 57,
                    "name": "A3",
                    "ticks": 161760,
                    "time": 84.25,
                    "velocity": 1
                },
                {
                    "duration": 0.25,
                    "durationTicks": 480,
                    "midi": 60,
                    "name": "C4",
                    "ticks": 161760,
                    "time": 84.25,
                    "velocity": 1
                },
                {
                    "duration": 0.25,
                    "durationTicks": 480,
                    "midi": 65,
                    "name": "F4",
                    "ticks": 161760,
                    "time": 84.25,
                    "velocity": 1
                },
                {
                    "duration": 0.25,
                    "durationTicks": 480,
                    "midi": 41,
                    "name": "F2",
                    "ticks": 162240,
                    "time": 84.5,
                    "velocity": 1
                },
                {
                    "duration": 0.25,
                    "durationTicks": 480,
                    "midi": 48,
                    "name": "C3",
                    "ticks": 162240,
                    "time": 84.5,
                    "velocity": 1
                },
                {
                    "duration": 0.25,
                    "durationTicks": 480,
                    "midi": 53,
                    "name": "F3",
                    "ticks": 162240,
                    "time": 84.5,
                    "velocity": 1
                },
                {
                    "duration": 0.25,
                    "durationTicks": 480,
                    "midi": 57,
                    "name": "A3",
                    "ticks": 162240,
                    "time": 84.5,
                    "velocity": 1
                },
                {
                    "duration": 0.25,
                    "durationTicks": 480,
                    "midi": 60,
                    "name": "C4",
                    "ticks": 162240,
                    "time": 84.5,
                    "velocity": 1
                },
                {
                    "duration": 0.25,
                    "durationTicks": 480,
                    "midi": 65,
                    "name": "F4",
                    "ticks": 162240,
                    "time": 84.5,
                    "velocity": 1
                },
                {
                    "duration": 0.25,
                    "durationTicks": 480,
                    "midi": 41,
                    "name": "F2",
                    "ticks": 162720,
                    "time": 84.75,
                    "velocity": 1
                },
                {
                    "duration": 0.25,
                    "durationTicks": 480,
                    "midi": 48,
                    "name": "C3",
                    "ticks": 162720,
                    "time": 84.75,
                    "velocity": 1
                },
                {
                    "duration": 0.25,
                    "durationTicks": 480,
                    "midi": 53,
                    "name": "F3",
                    "ticks": 162720,
                    "time": 84.75,
                    "velocity": 1
                },
                {
                    "duration": 0.25,
                    "durationTicks": 480,
                    "midi": 57,
                    "name": "A3",
                    "ticks": 162720,
                    "time": 84.75,
                    "velocity": 1
                },
                {
                    "duration": 0.25,
                    "durationTicks": 480,
                    "midi": 60,
                    "name": "C4",
                    "ticks": 162720,
                    "time": 84.75,
                    "velocity": 1
                },
                {
                    "duration": 0.25,
                    "durationTicks": 480,
                    "midi": 65,
                    "name": "F4",
                    "ticks": 162720,
                    "time": 84.75,
                    "velocity": 1
                },
                {
                    "duration": 0.25,
                    "durationTicks": 480,
                    "midi": 48,
                    "name": "C3",
                    "ticks": 163200,
                    "time": 85,
                    "velocity": 1
                },
                {
                    "duration": 0.25,
                    "durationTicks": 480,
                    "midi": 52,
                    "name": "E3",
                    "ticks": 163200,
                    "time": 85,
                    "velocity": 1
                },
                {
                    "duration": 0.25,
                    "durationTicks": 480,
                    "midi": 55,
                    "name": "G3",
                    "ticks": 163200,
                    "time": 85,
                    "velocity": 1
                },
                {
                    "duration": 0.25,
                    "durationTicks": 480,
                    "midi": 60,
                    "name": "C4",
                    "ticks": 163200,
                    "time": 85,
                    "velocity": 1
                },
                {
                    "duration": 0.25,
                    "durationTicks": 480,
                    "midi": 64,
                    "name": "E4",
                    "ticks": 163200,
                    "time": 85,
                    "velocity": 1
                },
                {
                    "duration": 0.25,
                    "durationTicks": 480,
                    "midi": 48,
                    "name": "C3",
                    "ticks": 163680,
                    "time": 85.25,
                    "velocity": 1
                },
                {
                    "duration": 0.25,
                    "durationTicks": 480,
                    "midi": 52,
                    "name": "E3",
                    "ticks": 163680,
                    "time": 85.25,
                    "velocity": 1
                },
                {
                    "duration": 0.25,
                    "durationTicks": 480,
                    "midi": 55,
                    "name": "G3",
                    "ticks": 163680,
                    "time": 85.25,
                    "velocity": 1
                },
                {
                    "duration": 0.25,
                    "durationTicks": 480,
                    "midi": 60,
                    "name": "C4",
                    "ticks": 163680,
                    "time": 85.25,
                    "velocity": 1
                },
                {
                    "duration": 0.25,
                    "durationTicks": 480,
                    "midi": 64,
                    "name": "E4",
                    "ticks": 163680,
                    "time": 85.25,
                    "velocity": 1
                },
                {
                    "duration": 0.25,
                    "durationTicks": 480,
                    "midi": 48,
                    "name": "C3",
                    "ticks": 164160,
                    "time": 85.5,
                    "velocity": 1
                },
                {
                    "duration": 0.25,
                    "durationTicks": 480,
                    "midi": 52,
                    "name": "E3",
                    "ticks": 164160,
                    "time": 85.5,
                    "velocity": 1
                },
                {
                    "duration": 0.25,
                    "durationTicks": 480,
                    "midi": 55,
                    "name": "G3",
                    "ticks": 164160,
                    "time": 85.5,
                    "velocity": 1
                },
                {
                    "duration": 0.25,
                    "durationTicks": 480,
                    "midi": 60,
                    "name": "C4",
                    "ticks": 164160,
                    "time": 85.5,
                    "velocity": 1
                },
                {
                    "duration": 0.25,
                    "durationTicks": 480,
                    "midi": 64,
                    "name": "E4",
                    "ticks": 164160,
                    "time": 85.5,
                    "velocity": 1
                },
                {
                    "duration": 0.25,
                    "durationTicks": 480,
                    "midi": 48,
                    "name": "C3",
                    "ticks": 164640,
                    "time": 85.75,
                    "velocity": 1
                },
                {
                    "duration": 0.25,
                    "durationTicks": 480,
                    "midi": 52,
                    "name": "E3",
                    "ticks": 164640,
                    "time": 85.75,
                    "velocity": 1
                },
                {
                    "duration": 0.25,
                    "durationTicks": 480,
                    "midi": 55,
                    "name": "G3",
                    "ticks": 164640,
                    "time": 85.75,
                    "velocity": 1
                },
                {
                    "duration": 0.25,
                    "durationTicks": 480,
                    "midi": 60,
                    "name": "C4",
                    "ticks": 164640,
                    "time": 85.75,
                    "velocity": 1
                },
                {
                    "duration": 0.25,
                    "durationTicks": 480,
                    "midi": 64,
                    "name": "E4",
                    "ticks": 164640,
                    "time": 85.75,
                    "velocity": 1
                },
                {
                    "duration": 0.25,
                    "durationTicks": 480,
                    "midi": 46,
                    "name": "A#2",
                    "ticks": 165120,
                    "time": 86,
                    "velocity": 1
                },
                {
                    "duration": 0.25,
                    "durationTicks": 480,
                    "midi": 53,
                    "name": "F3",
                    "ticks": 165120,
                    "time": 86,
                    "velocity": 1
                },
                {
                    "duration": 0.25,
                    "durationTicks": 480,
                    "midi": 58,
                    "name": "A#3",
                    "ticks": 165120,
                    "time": 86,
                    "velocity": 1
                },
                {
                    "duration": 0.25,
                    "durationTicks": 480,
                    "midi": 62,
                    "name": "D4",
                    "ticks": 165120,
                    "time": 86,
                    "velocity": 1
                },
                {
                    "duration": 0.25,
                    "durationTicks": 480,
                    "midi": 46,
                    "name": "A#2",
                    "ticks": 165600,
                    "time": 86.25,
                    "velocity": 1
                },
                {
                    "duration": 0.25,
                    "durationTicks": 480,
                    "midi": 53,
                    "name": "F3",
                    "ticks": 165600,
                    "time": 86.25,
                    "velocity": 1
                },
                {
                    "duration": 0.25,
                    "durationTicks": 480,
                    "midi": 58,
                    "name": "A#3",
                    "ticks": 165600,
                    "time": 86.25,
                    "velocity": 1
                },
                {
                    "duration": 0.25,
                    "durationTicks": 480,
                    "midi": 62,
                    "name": "D4",
                    "ticks": 165600,
                    "time": 86.25,
                    "velocity": 1
                },
                {
                    "duration": 0.25,
                    "durationTicks": 480,
                    "midi": 46,
                    "name": "A#2",
                    "ticks": 166080,
                    "time": 86.5,
                    "velocity": 1
                },
                {
                    "duration": 0.25,
                    "durationTicks": 480,
                    "midi": 53,
                    "name": "F3",
                    "ticks": 166080,
                    "time": 86.5,
                    "velocity": 1
                },
                {
                    "duration": 0.25,
                    "durationTicks": 480,
                    "midi": 58,
                    "name": "A#3",
                    "ticks": 166080,
                    "time": 86.5,
                    "velocity": 1
                },
                {
                    "duration": 0.25,
                    "durationTicks": 480,
                    "midi": 62,
                    "name": "D4",
                    "ticks": 166080,
                    "time": 86.5,
                    "velocity": 1
                },
                {
                    "duration": 0.25,
                    "durationTicks": 480,
                    "midi": 46,
                    "name": "A#2",
                    "ticks": 166560,
                    "time": 86.75,
                    "velocity": 1
                },
                {
                    "duration": 0.25,
                    "durationTicks": 480,
                    "midi": 53,
                    "name": "F3",
                    "ticks": 166560,
                    "time": 86.75,
                    "velocity": 1
                },
                {
                    "duration": 0.25,
                    "durationTicks": 480,
                    "midi": 58,
                    "name": "A#3",
                    "ticks": 166560,
                    "time": 86.75,
                    "velocity": 1
                },
                {
                    "duration": 0.25,
                    "durationTicks": 480,
                    "midi": 62,
                    "name": "D4",
                    "ticks": 166560,
                    "time": 86.75,
                    "velocity": 1
                },
                {
                    "duration": 0.25,
                    "durationTicks": 480,
                    "midi": 65,
                    "name": "F4",
                    "ticks": 167040,
                    "time": 87,
                    "velocity": 1
                },
                {
                    "duration": 0.25,
                    "durationTicks": 480,
                    "midi": 60,
                    "name": "C4",
                    "ticks": 167040,
                    "time": 87,
                    "velocity": 1
                },
                {
                    "duration": 0.25,
                    "durationTicks": 480,
                    "midi": 57,
                    "name": "A3",
                    "ticks": 167040,
                    "time": 87,
                    "velocity": 1
                },
                {
                    "duration": 0.25,
                    "durationTicks": 480,
                    "midi": 53,
                    "name": "F3",
                    "ticks": 167040,
                    "time": 87,
                    "velocity": 1
                },
                {
                    "duration": 0.25,
                    "durationTicks": 480,
                    "midi": 48,
                    "name": "C3",
                    "ticks": 167040,
                    "time": 87,
                    "velocity": 1
                },
                {
                    "duration": 0.25,
                    "durationTicks": 480,
                    "midi": 41,
                    "name": "F2",
                    "ticks": 167040,
                    "time": 87,
                    "velocity": 1
                },
                {
                    "duration": 0.25,
                    "durationTicks": 480,
                    "midi": 41,
                    "name": "F2",
                    "ticks": 167520,
                    "time": 87.25,
                    "velocity": 1
                },
                {
                    "duration": 0.25,
                    "durationTicks": 480,
                    "midi": 48,
                    "name": "C3",
                    "ticks": 167520,
                    "time": 87.25,
                    "velocity": 1
                },
                {
                    "duration": 0.25,
                    "durationTicks": 480,
                    "midi": 53,
                    "name": "F3",
                    "ticks": 167520,
                    "time": 87.25,
                    "velocity": 1
                },
                {
                    "duration": 0.25,
                    "durationTicks": 480,
                    "midi": 57,
                    "name": "A3",
                    "ticks": 167520,
                    "time": 87.25,
                    "velocity": 1
                },
                {
                    "duration": 0.25,
                    "durationTicks": 480,
                    "midi": 60,
                    "name": "C4",
                    "ticks": 167520,
                    "time": 87.25,
                    "velocity": 1
                },
                {
                    "duration": 0.25,
                    "durationTicks": 480,
                    "midi": 65,
                    "name": "F4",
                    "ticks": 167520,
                    "time": 87.25,
                    "velocity": 1
                },
                {
                    "duration": 0.25,
                    "durationTicks": 480,
                    "midi": 41,
                    "name": "F2",
                    "ticks": 168000,
                    "time": 87.5,
                    "velocity": 1
                },
                {
                    "duration": 0.25,
                    "durationTicks": 480,
                    "midi": 48,
                    "name": "C3",
                    "ticks": 168000,
                    "time": 87.5,
                    "velocity": 1
                },
                {
                    "duration": 0.25,
                    "durationTicks": 480,
                    "midi": 53,
                    "name": "F3",
                    "ticks": 168000,
                    "time": 87.5,
                    "velocity": 1
                },
                {
                    "duration": 0.25,
                    "durationTicks": 480,
                    "midi": 57,
                    "name": "A3",
                    "ticks": 168000,
                    "time": 87.5,
                    "velocity": 1
                },
                {
                    "duration": 0.25,
                    "durationTicks": 480,
                    "midi": 60,
                    "name": "C4",
                    "ticks": 168000,
                    "time": 87.5,
                    "velocity": 1
                },
                {
                    "duration": 0.25,
                    "durationTicks": 480,
                    "midi": 65,
                    "name": "F4",
                    "ticks": 168000,
                    "time": 87.5,
                    "velocity": 1
                },
                {
                    "duration": 0.25,
                    "durationTicks": 480,
                    "midi": 41,
                    "name": "F2",
                    "ticks": 168480,
                    "time": 87.75,
                    "velocity": 1
                },
                {
                    "duration": 0.25,
                    "durationTicks": 480,
                    "midi": 48,
                    "name": "C3",
                    "ticks": 168480,
                    "time": 87.75,
                    "velocity": 1
                },
                {
                    "duration": 0.25,
                    "durationTicks": 480,
                    "midi": 53,
                    "name": "F3",
                    "ticks": 168480,
                    "time": 87.75,
                    "velocity": 1
                },
                {
                    "duration": 0.25,
                    "durationTicks": 480,
                    "midi": 57,
                    "name": "A3",
                    "ticks": 168480,
                    "time": 87.75,
                    "velocity": 1
                },
                {
                    "duration": 0.25,
                    "durationTicks": 480,
                    "midi": 60,
                    "name": "C4",
                    "ticks": 168480,
                    "time": 87.75,
                    "velocity": 1
                },
                {
                    "duration": 0.25,
                    "durationTicks": 480,
                    "midi": 65,
                    "name": "F4",
                    "ticks": 168480,
                    "time": 87.75,
                    "velocity": 1
                },
                {
                    "duration": 0.25,
                    "durationTicks": 480,
                    "midi": 65,
                    "name": "F4",
                    "ticks": 168960,
                    "time": 88,
                    "velocity": 1
                },
                {
                    "duration": 0.25,
                    "durationTicks": 480,
                    "midi": 60,
                    "name": "C4",
                    "ticks": 168960,
                    "time": 88,
                    "velocity": 1
                },
                {
                    "duration": 0.25,
                    "durationTicks": 480,
                    "midi": 57,
                    "name": "A3",
                    "ticks": 168960,
                    "time": 88,
                    "velocity": 1
                },
                {
                    "duration": 0.25,
                    "durationTicks": 480,
                    "midi": 53,
                    "name": "F3",
                    "ticks": 168960,
                    "time": 88,
                    "velocity": 1
                },
                {
                    "duration": 0.25,
                    "durationTicks": 480,
                    "midi": 48,
                    "name": "C3",
                    "ticks": 168960,
                    "time": 88,
                    "velocity": 1
                },
                {
                    "duration": 0.25,
                    "durationTicks": 480,
                    "midi": 41,
                    "name": "F2",
                    "ticks": 168960,
                    "time": 88,
                    "velocity": 1
                },
                {
                    "duration": 0.25,
                    "durationTicks": 480,
                    "midi": 41,
                    "name": "F2",
                    "ticks": 169440,
                    "time": 88.25,
                    "velocity": 1
                },
                {
                    "duration": 0.25,
                    "durationTicks": 480,
                    "midi": 48,
                    "name": "C3",
                    "ticks": 169440,
                    "time": 88.25,
                    "velocity": 1
                },
                {
                    "duration": 0.25,
                    "durationTicks": 480,
                    "midi": 53,
                    "name": "F3",
                    "ticks": 169440,
                    "time": 88.25,
                    "velocity": 1
                },
                {
                    "duration": 0.25,
                    "durationTicks": 480,
                    "midi": 57,
                    "name": "A3",
                    "ticks": 169440,
                    "time": 88.25,
                    "velocity": 1
                },
                {
                    "duration": 0.25,
                    "durationTicks": 480,
                    "midi": 60,
                    "name": "C4",
                    "ticks": 169440,
                    "time": 88.25,
                    "velocity": 1
                },
                {
                    "duration": 0.25,
                    "durationTicks": 480,
                    "midi": 65,
                    "name": "F4",
                    "ticks": 169440,
                    "time": 88.25,
                    "velocity": 1
                },
                {
                    "duration": 0.25,
                    "durationTicks": 480,
                    "midi": 41,
                    "name": "F2",
                    "ticks": 169920,
                    "time": 88.5,
                    "velocity": 1
                },
                {
                    "duration": 0.25,
                    "durationTicks": 480,
                    "midi": 48,
                    "name": "C3",
                    "ticks": 169920,
                    "time": 88.5,
                    "velocity": 1
                },
                {
                    "duration": 0.25,
                    "durationTicks": 480,
                    "midi": 53,
                    "name": "F3",
                    "ticks": 169920,
                    "time": 88.5,
                    "velocity": 1
                },
                {
                    "duration": 0.25,
                    "durationTicks": 480,
                    "midi": 57,
                    "name": "A3",
                    "ticks": 169920,
                    "time": 88.5,
                    "velocity": 1
                },
                {
                    "duration": 0.25,
                    "durationTicks": 480,
                    "midi": 60,
                    "name": "C4",
                    "ticks": 169920,
                    "time": 88.5,
                    "velocity": 1
                },
                {
                    "duration": 0.25,
                    "durationTicks": 480,
                    "midi": 65,
                    "name": "F4",
                    "ticks": 169920,
                    "time": 88.5,
                    "velocity": 1
                },
                {
                    "duration": 0.25,
                    "durationTicks": 480,
                    "midi": 41,
                    "name": "F2",
                    "ticks": 170400,
                    "time": 88.75,
                    "velocity": 1
                },
                {
                    "duration": 0.25,
                    "durationTicks": 480,
                    "midi": 48,
                    "name": "C3",
                    "ticks": 170400,
                    "time": 88.75,
                    "velocity": 1
                },
                {
                    "duration": 0.25,
                    "durationTicks": 480,
                    "midi": 53,
                    "name": "F3",
                    "ticks": 170400,
                    "time": 88.75,
                    "velocity": 1
                },
                {
                    "duration": 0.25,
                    "durationTicks": 480,
                    "midi": 57,
                    "name": "A3",
                    "ticks": 170400,
                    "time": 88.75,
                    "velocity": 1
                },
                {
                    "duration": 0.25,
                    "durationTicks": 480,
                    "midi": 60,
                    "name": "C4",
                    "ticks": 170400,
                    "time": 88.75,
                    "velocity": 1
                },
                {
                    "duration": 0.25,
                    "durationTicks": 480,
                    "midi": 65,
                    "name": "F4",
                    "ticks": 170400,
                    "time": 88.75,
                    "velocity": 1
                },
                {
                    "duration": 0.25,
                    "durationTicks": 480,
                    "midi": 48,
                    "name": "C3",
                    "ticks": 170880,
                    "time": 89,
                    "velocity": 1
                },
                {
                    "duration": 0.25,
                    "durationTicks": 480,
                    "midi": 52,
                    "name": "E3",
                    "ticks": 170880,
                    "time": 89,
                    "velocity": 1
                },
                {
                    "duration": 0.25,
                    "durationTicks": 480,
                    "midi": 55,
                    "name": "G3",
                    "ticks": 170880,
                    "time": 89,
                    "velocity": 1
                },
                {
                    "duration": 0.25,
                    "durationTicks": 480,
                    "midi": 60,
                    "name": "C4",
                    "ticks": 170880,
                    "time": 89,
                    "velocity": 1
                },
                {
                    "duration": 0.25,
                    "durationTicks": 480,
                    "midi": 64,
                    "name": "E4",
                    "ticks": 170880,
                    "time": 89,
                    "velocity": 1
                },
                {
                    "duration": 0.25,
                    "durationTicks": 480,
                    "midi": 48,
                    "name": "C3",
                    "ticks": 171360,
                    "time": 89.25,
                    "velocity": 1
                },
                {
                    "duration": 0.25,
                    "durationTicks": 480,
                    "midi": 52,
                    "name": "E3",
                    "ticks": 171360,
                    "time": 89.25,
                    "velocity": 1
                },
                {
                    "duration": 0.25,
                    "durationTicks": 480,
                    "midi": 55,
                    "name": "G3",
                    "ticks": 171360,
                    "time": 89.25,
                    "velocity": 1
                },
                {
                    "duration": 0.25,
                    "durationTicks": 480,
                    "midi": 60,
                    "name": "C4",
                    "ticks": 171360,
                    "time": 89.25,
                    "velocity": 1
                },
                {
                    "duration": 0.25,
                    "durationTicks": 480,
                    "midi": 64,
                    "name": "E4",
                    "ticks": 171360,
                    "time": 89.25,
                    "velocity": 1
                },
                {
                    "duration": 0.25,
                    "durationTicks": 480,
                    "midi": 48,
                    "name": "C3",
                    "ticks": 171840,
                    "time": 89.5,
                    "velocity": 1
                },
                {
                    "duration": 0.25,
                    "durationTicks": 480,
                    "midi": 52,
                    "name": "E3",
                    "ticks": 171840,
                    "time": 89.5,
                    "velocity": 1
                },
                {
                    "duration": 0.25,
                    "durationTicks": 480,
                    "midi": 55,
                    "name": "G3",
                    "ticks": 171840,
                    "time": 89.5,
                    "velocity": 1
                },
                {
                    "duration": 0.25,
                    "durationTicks": 480,
                    "midi": 60,
                    "name": "C4",
                    "ticks": 171840,
                    "time": 89.5,
                    "velocity": 1
                },
                {
                    "duration": 0.25,
                    "durationTicks": 480,
                    "midi": 64,
                    "name": "E4",
                    "ticks": 171840,
                    "time": 89.5,
                    "velocity": 1
                },
                {
                    "duration": 0.25,
                    "durationTicks": 480,
                    "midi": 48,
                    "name": "C3",
                    "ticks": 172320,
                    "time": 89.75,
                    "velocity": 1
                },
                {
                    "duration": 0.25,
                    "durationTicks": 480,
                    "midi": 52,
                    "name": "E3",
                    "ticks": 172320,
                    "time": 89.75,
                    "velocity": 1
                },
                {
                    "duration": 0.25,
                    "durationTicks": 480,
                    "midi": 55,
                    "name": "G3",
                    "ticks": 172320,
                    "time": 89.75,
                    "velocity": 1
                },
                {
                    "duration": 0.25,
                    "durationTicks": 480,
                    "midi": 60,
                    "name": "C4",
                    "ticks": 172320,
                    "time": 89.75,
                    "velocity": 1
                },
                {
                    "duration": 0.25,
                    "durationTicks": 480,
                    "midi": 64,
                    "name": "E4",
                    "ticks": 172320,
                    "time": 89.75,
                    "velocity": 1
                },
                {
                    "duration": 0.25,
                    "durationTicks": 480,
                    "midi": 46,
                    "name": "A#2",
                    "ticks": 172800,
                    "time": 90,
                    "velocity": 1
                },
                {
                    "duration": 0.25,
                    "durationTicks": 480,
                    "midi": 53,
                    "name": "F3",
                    "ticks": 172800,
                    "time": 90,
                    "velocity": 1
                },
                {
                    "duration": 0.25,
                    "durationTicks": 480,
                    "midi": 58,
                    "name": "A#3",
                    "ticks": 172800,
                    "time": 90,
                    "velocity": 1
                },
                {
                    "duration": 0.25,
                    "durationTicks": 480,
                    "midi": 62,
                    "name": "D4",
                    "ticks": 172800,
                    "time": 90,
                    "velocity": 1
                },
                {
                    "duration": 0.25,
                    "durationTicks": 480,
                    "midi": 46,
                    "name": "A#2",
                    "ticks": 173280,
                    "time": 90.25,
                    "velocity": 1
                },
                {
                    "duration": 0.25,
                    "durationTicks": 480,
                    "midi": 53,
                    "name": "F3",
                    "ticks": 173280,
                    "time": 90.25,
                    "velocity": 1
                },
                {
                    "duration": 0.25,
                    "durationTicks": 480,
                    "midi": 58,
                    "name": "A#3",
                    "ticks": 173280,
                    "time": 90.25,
                    "velocity": 1
                },
                {
                    "duration": 0.25,
                    "durationTicks": 480,
                    "midi": 62,
                    "name": "D4",
                    "ticks": 173280,
                    "time": 90.25,
                    "velocity": 1
                },
                {
                    "duration": 0.25,
                    "durationTicks": 480,
                    "midi": 46,
                    "name": "A#2",
                    "ticks": 173760,
                    "time": 90.5,
                    "velocity": 1
                },
                {
                    "duration": 0.25,
                    "durationTicks": 480,
                    "midi": 53,
                    "name": "F3",
                    "ticks": 173760,
                    "time": 90.5,
                    "velocity": 1
                },
                {
                    "duration": 0.25,
                    "durationTicks": 480,
                    "midi": 58,
                    "name": "A#3",
                    "ticks": 173760,
                    "time": 90.5,
                    "velocity": 1
                },
                {
                    "duration": 0.25,
                    "durationTicks": 480,
                    "midi": 62,
                    "name": "D4",
                    "ticks": 173760,
                    "time": 90.5,
                    "velocity": 1
                },
                {
                    "duration": 0.25,
                    "durationTicks": 480,
                    "midi": 46,
                    "name": "A#2",
                    "ticks": 174240,
                    "time": 90.75,
                    "velocity": 1
                },
                {
                    "duration": 0.25,
                    "durationTicks": 480,
                    "midi": 53,
                    "name": "F3",
                    "ticks": 174240,
                    "time": 90.75,
                    "velocity": 1
                },
                {
                    "duration": 0.25,
                    "durationTicks": 480,
                    "midi": 58,
                    "name": "A#3",
                    "ticks": 174240,
                    "time": 90.75,
                    "velocity": 1
                },
                {
                    "duration": 0.25,
                    "durationTicks": 480,
                    "midi": 62,
                    "name": "D4",
                    "ticks": 174240,
                    "time": 90.75,
                    "velocity": 1
                },
                {
                    "duration": 0.25,
                    "durationTicks": 480,
                    "midi": 65,
                    "name": "F4",
                    "ticks": 174720,
                    "time": 91,
                    "velocity": 1
                },
                {
                    "duration": 0.25,
                    "durationTicks": 480,
                    "midi": 60,
                    "name": "C4",
                    "ticks": 174720,
                    "time": 91,
                    "velocity": 1
                },
                {
                    "duration": 0.25,
                    "durationTicks": 480,
                    "midi": 57,
                    "name": "A3",
                    "ticks": 174720,
                    "time": 91,
                    "velocity": 1
                },
                {
                    "duration": 0.25,
                    "durationTicks": 480,
                    "midi": 53,
                    "name": "F3",
                    "ticks": 174720,
                    "time": 91,
                    "velocity": 1
                },
                {
                    "duration": 0.25,
                    "durationTicks": 480,
                    "midi": 48,
                    "name": "C3",
                    "ticks": 174720,
                    "time": 91,
                    "velocity": 1
                },
                {
                    "duration": 0.25,
                    "durationTicks": 480,
                    "midi": 41,
                    "name": "F2",
                    "ticks": 174720,
                    "time": 91,
                    "velocity": 1
                },
                {
                    "duration": 0.25,
                    "durationTicks": 480,
                    "midi": 41,
                    "name": "F2",
                    "ticks": 175200,
                    "time": 91.25,
                    "velocity": 1
                },
                {
                    "duration": 0.25,
                    "durationTicks": 480,
                    "midi": 48,
                    "name": "C3",
                    "ticks": 175200,
                    "time": 91.25,
                    "velocity": 1
                },
                {
                    "duration": 0.25,
                    "durationTicks": 480,
                    "midi": 53,
                    "name": "F3",
                    "ticks": 175200,
                    "time": 91.25,
                    "velocity": 1
                },
                {
                    "duration": 0.25,
                    "durationTicks": 480,
                    "midi": 57,
                    "name": "A3",
                    "ticks": 175200,
                    "time": 91.25,
                    "velocity": 1
                },
                {
                    "duration": 0.25,
                    "durationTicks": 480,
                    "midi": 60,
                    "name": "C4",
                    "ticks": 175200,
                    "time": 91.25,
                    "velocity": 1
                },
                {
                    "duration": 0.25,
                    "durationTicks": 480,
                    "midi": 65,
                    "name": "F4",
                    "ticks": 175200,
                    "time": 91.25,
                    "velocity": 1
                },
                {
                    "duration": 0.25,
                    "durationTicks": 480,
                    "midi": 41,
                    "name": "F2",
                    "ticks": 175680,
                    "time": 91.5,
                    "velocity": 1
                },
                {
                    "duration": 0.25,
                    "durationTicks": 480,
                    "midi": 48,
                    "name": "C3",
                    "ticks": 175680,
                    "time": 91.5,
                    "velocity": 1
                },
                {
                    "duration": 0.25,
                    "durationTicks": 480,
                    "midi": 53,
                    "name": "F3",
                    "ticks": 175680,
                    "time": 91.5,
                    "velocity": 1
                },
                {
                    "duration": 0.25,
                    "durationTicks": 480,
                    "midi": 57,
                    "name": "A3",
                    "ticks": 175680,
                    "time": 91.5,
                    "velocity": 1
                },
                {
                    "duration": 0.25,
                    "durationTicks": 480,
                    "midi": 60,
                    "name": "C4",
                    "ticks": 175680,
                    "time": 91.5,
                    "velocity": 1
                },
                {
                    "duration": 0.25,
                    "durationTicks": 480,
                    "midi": 65,
                    "name": "F4",
                    "ticks": 175680,
                    "time": 91.5,
                    "velocity": 1
                },
                {
                    "duration": 0.25,
                    "durationTicks": 480,
                    "midi": 41,
                    "name": "F2",
                    "ticks": 176160,
                    "time": 91.75,
                    "velocity": 1
                },
                {
                    "duration": 0.25,
                    "durationTicks": 480,
                    "midi": 48,
                    "name": "C3",
                    "ticks": 176160,
                    "time": 91.75,
                    "velocity": 1
                },
                {
                    "duration": 0.25,
                    "durationTicks": 480,
                    "midi": 53,
                    "name": "F3",
                    "ticks": 176160,
                    "time": 91.75,
                    "velocity": 1
                },
                {
                    "duration": 0.25,
                    "durationTicks": 480,
                    "midi": 57,
                    "name": "A3",
                    "ticks": 176160,
                    "time": 91.75,
                    "velocity": 1
                },
                {
                    "duration": 0.25,
                    "durationTicks": 480,
                    "midi": 60,
                    "name": "C4",
                    "ticks": 176160,
                    "time": 91.75,
                    "velocity": 1
                },
                {
                    "duration": 0.25,
                    "durationTicks": 480,
                    "midi": 65,
                    "name": "F4",
                    "ticks": 176160,
                    "time": 91.75,
                    "velocity": 1
                },
                {
                    "duration": 0.5,
                    "durationTicks": 960,
                    "midi": 43,
                    "name": "G2",
                    "ticks": 176640,
                    "time": 92,
                    "velocity": 1
                },
                {
                    "duration": 0.5,
                    "durationTicks": 960,
                    "midi": 55,
                    "name": "G3",
                    "ticks": 176640,
                    "time": 92,
                    "velocity": 1
                },
                {
                    "duration": 0.5,
                    "durationTicks": 960,
                    "midi": 58,
                    "name": "A#3",
                    "ticks": 176640,
                    "time": 92,
                    "velocity": 1
                },
                {
                    "duration": 0.5,
                    "durationTicks": 960,
                    "midi": 62,
                    "name": "D4",
                    "ticks": 176640,
                    "time": 92,
                    "velocity": 1
                },
                {
                    "duration": 0.5,
                    "durationTicks": 960,
                    "midi": 67,
                    "name": "G4",
                    "ticks": 176640,
                    "time": 92,
                    "velocity": 1
                },
                {
                    "duration": 0.75,
                    "durationTicks": 1440,
                    "midi": 50,
                    "name": "D3",
                    "ticks": 176640,
                    "time": 92,
                    "velocity": 1
                },
                {
                    "duration": 0.25,
                    "durationTicks": 480,
                    "midi": 67,
                    "name": "G4",
                    "ticks": 177600,
                    "time": 92.5,
                    "velocity": 1
                },
                {
                    "duration": 0.25,
                    "durationTicks": 480,
                    "midi": 62,
                    "name": "D4",
                    "ticks": 177600,
                    "time": 92.5,
                    "velocity": 1
                },
                {
                    "duration": 0.25,
                    "durationTicks": 480,
                    "midi": 58,
                    "name": "A#3",
                    "ticks": 177600,
                    "time": 92.5,
                    "velocity": 1
                },
                {
                    "duration": 0.25,
                    "durationTicks": 480,
                    "midi": 55,
                    "name": "G3",
                    "ticks": 177600,
                    "time": 92.5,
                    "velocity": 1
                },
                {
                    "duration": 0.25,
                    "durationTicks": 480,
                    "midi": 43,
                    "name": "G2",
                    "ticks": 177600,
                    "time": 92.5,
                    "velocity": 1
                },
                {
                    "duration": 0.5,
                    "durationTicks": 960,
                    "midi": 50,
                    "name": "D3",
                    "ticks": 177600,
                    "time": 92.5,
                    "velocity": 1
                },
                {
                    "duration": 0.25,
                    "durationTicks": 480,
                    "midi": 67,
                    "name": "G4",
                    "ticks": 178080,
                    "time": 92.75,
                    "velocity": 1
                },
                {
                    "duration": 0.25,
                    "durationTicks": 480,
                    "midi": 62,
                    "name": "D4",
                    "ticks": 178080,
                    "time": 92.75,
                    "velocity": 1
                },
                {
                    "duration": 0.25,
                    "durationTicks": 480,
                    "midi": 58,
                    "name": "A#3",
                    "ticks": 178080,
                    "time": 92.75,
                    "velocity": 1
                },
                {
                    "duration": 0.25,
                    "durationTicks": 480,
                    "midi": 55,
                    "name": "G3",
                    "ticks": 178080,
                    "time": 92.75,
                    "velocity": 1
                },
                {
                    "duration": 0.25,
                    "durationTicks": 480,
                    "midi": 43,
                    "name": "G2",
                    "ticks": 178080,
                    "time": 92.75,
                    "velocity": 1
                },
                {
                    "duration": 2.75,
                    "durationTicks": 5280,
                    "midi": 50,
                    "name": "D3",
                    "ticks": 178080,
                    "time": 92.75,
                    "velocity": 1
                },
                {
                    "duration": 0.5,
                    "durationTicks": 960,
                    "midi": 48,
                    "name": "C3",
                    "ticks": 178560,
                    "time": 93,
                    "velocity": 1
                },
                {
                    "duration": 0.5,
                    "durationTicks": 960,
                    "midi": 52,
                    "name": "E3",
                    "ticks": 178560,
                    "time": 93,
                    "velocity": 1
                },
                {
                    "duration": 0.5,
                    "durationTicks": 960,
                    "midi": 55,
                    "name": "G3",
                    "ticks": 178560,
                    "time": 93,
                    "velocity": 1
                },
                {
                    "duration": 0.5,
                    "durationTicks": 960,
                    "midi": 60,
                    "name": "C4",
                    "ticks": 178560,
                    "time": 93,
                    "velocity": 1
                },
                {
                    "duration": 0.5,
                    "durationTicks": 960,
                    "midi": 64,
                    "name": "E4",
                    "ticks": 178560,
                    "time": 93,
                    "velocity": 1
                },
                {
                    "duration": 0.25,
                    "durationTicks": 480,
                    "midi": 64,
                    "name": "E4",
                    "ticks": 179520,
                    "time": 93.5,
                    "velocity": 1
                },
                {
                    "duration": 0.25,
                    "durationTicks": 480,
                    "midi": 60,
                    "name": "C4",
                    "ticks": 179520,
                    "time": 93.5,
                    "velocity": 1
                },
                {
                    "duration": 0.25,
                    "durationTicks": 480,
                    "midi": 55,
                    "name": "G3",
                    "ticks": 179520,
                    "time": 93.5,
                    "velocity": 1
                },
                {
                    "duration": 0.25,
                    "durationTicks": 480,
                    "midi": 52,
                    "name": "E3",
                    "ticks": 179520,
                    "time": 93.5,
                    "velocity": 1
                },
                {
                    "duration": 0.25,
                    "durationTicks": 480,
                    "midi": 48,
                    "name": "C3",
                    "ticks": 179520,
                    "time": 93.5,
                    "velocity": 1
                },
                {
                    "duration": 0.25,
                    "durationTicks": 480,
                    "midi": 64,
                    "name": "E4",
                    "ticks": 180000,
                    "time": 93.75,
                    "velocity": 1
                },
                {
                    "duration": 0.25,
                    "durationTicks": 480,
                    "midi": 60,
                    "name": "C4",
                    "ticks": 180000,
                    "time": 93.75,
                    "velocity": 1
                },
                {
                    "duration": 0.25,
                    "durationTicks": 480,
                    "midi": 55,
                    "name": "G3",
                    "ticks": 180000,
                    "time": 93.75,
                    "velocity": 1
                },
                {
                    "duration": 0.25,
                    "durationTicks": 480,
                    "midi": 52,
                    "name": "E3",
                    "ticks": 180000,
                    "time": 93.75,
                    "velocity": 1
                },
                {
                    "duration": 0.25,
                    "durationTicks": 480,
                    "midi": 48,
                    "name": "C3",
                    "ticks": 180000,
                    "time": 93.75,
                    "velocity": 1
                },
                {
                    "duration": 0.5,
                    "durationTicks": 960,
                    "midi": 41,
                    "name": "F2",
                    "ticks": 180480,
                    "time": 94,
                    "velocity": 1
                },
                {
                    "duration": 0.5,
                    "durationTicks": 960,
                    "midi": 48,
                    "name": "C3",
                    "ticks": 180480,
                    "time": 94,
                    "velocity": 1
                },
                {
                    "duration": 0.5,
                    "durationTicks": 960,
                    "midi": 53,
                    "name": "F3",
                    "ticks": 180480,
                    "time": 94,
                    "velocity": 1
                },
                {
                    "duration": 0.5,
                    "durationTicks": 960,
                    "midi": 57,
                    "name": "A3",
                    "ticks": 180480,
                    "time": 94,
                    "velocity": 1
                },
                {
                    "duration": 0.5,
                    "durationTicks": 960,
                    "midi": 60,
                    "name": "C4",
                    "ticks": 180480,
                    "time": 94,
                    "velocity": 1
                },
                {
                    "duration": 0.5,
                    "durationTicks": 960,
                    "midi": 65,
                    "name": "F4",
                    "ticks": 180480,
                    "time": 94,
                    "velocity": 1
                },
                {
                    "duration": 0.25,
                    "durationTicks": 480,
                    "midi": 65,
                    "name": "F4",
                    "ticks": 181440,
                    "time": 94.5,
                    "velocity": 1
                },
                {
                    "duration": 0.25,
                    "durationTicks": 480,
                    "midi": 60,
                    "name": "C4",
                    "ticks": 181440,
                    "time": 94.5,
                    "velocity": 1
                },
                {
                    "duration": 0.25,
                    "durationTicks": 480,
                    "midi": 57,
                    "name": "A3",
                    "ticks": 181440,
                    "time": 94.5,
                    "velocity": 1
                },
                {
                    "duration": 0.25,
                    "durationTicks": 480,
                    "midi": 53,
                    "name": "F3",
                    "ticks": 181440,
                    "time": 94.5,
                    "velocity": 1
                },
                {
                    "duration": 0.25,
                    "durationTicks": 480,
                    "midi": 48,
                    "name": "C3",
                    "ticks": 181440,
                    "time": 94.5,
                    "velocity": 1
                },
                {
                    "duration": 0.25,
                    "durationTicks": 480,
                    "midi": 41,
                    "name": "F2",
                    "ticks": 181440,
                    "time": 94.5,
                    "velocity": 1
                },
                {
                    "duration": 0.25,
                    "durationTicks": 480,
                    "midi": 65,
                    "name": "F4",
                    "ticks": 181920,
                    "time": 94.75,
                    "velocity": 1
                },
                {
                    "duration": 0.25,
                    "durationTicks": 480,
                    "midi": 60,
                    "name": "C4",
                    "ticks": 181920,
                    "time": 94.75,
                    "velocity": 1
                },
                {
                    "duration": 0.25,
                    "durationTicks": 480,
                    "midi": 57,
                    "name": "A3",
                    "ticks": 181920,
                    "time": 94.75,
                    "velocity": 1
                },
                {
                    "duration": 0.25,
                    "durationTicks": 480,
                    "midi": 53,
                    "name": "F3",
                    "ticks": 181920,
                    "time": 94.75,
                    "velocity": 1
                },
                {
                    "duration": 0.25,
                    "durationTicks": 480,
                    "midi": 48,
                    "name": "C3",
                    "ticks": 181920,
                    "time": 94.75,
                    "velocity": 1
                },
                {
                    "duration": 0.25,
                    "durationTicks": 480,
                    "midi": 41,
                    "name": "F2",
                    "ticks": 181920,
                    "time": 94.75,
                    "velocity": 1
                },
                {
                    "duration": 0.5,
                    "durationTicks": 960,
                    "midi": 57,
                    "name": "A3",
                    "ticks": 182400,
                    "time": 95,
                    "velocity": 1
                },
                {
                    "duration": 0.5,
                    "durationTicks": 960,
                    "midi": 62,
                    "name": "D4",
                    "ticks": 182400,
                    "time": 95,
                    "velocity": 1
                },
                {
                    "duration": 0.5,
                    "durationTicks": 960,
                    "midi": 65,
                    "name": "F4",
                    "ticks": 182400,
                    "time": 95,
                    "velocity": 1
                },
                {
                    "duration": 0.75,
                    "durationTicks": 1440,
                    "midi": 50,
                    "name": "D3",
                    "ticks": 182400,
                    "time": 95,
                    "velocity": 1
                },
                {
                    "duration": 0.25,
                    "durationTicks": 480,
                    "midi": 65,
                    "name": "F4",
                    "ticks": 183360,
                    "time": 95.5,
                    "velocity": 1
                },
                {
                    "duration": 0.25,
                    "durationTicks": 480,
                    "midi": 62,
                    "name": "D4",
                    "ticks": 183360,
                    "time": 95.5,
                    "velocity": 1
                },
                {
                    "duration": 0.25,
                    "durationTicks": 480,
                    "midi": 57,
                    "name": "A3",
                    "ticks": 183360,
                    "time": 95.5,
                    "velocity": 1
                },
                {
                    "duration": 0.5,
                    "durationTicks": 960,
                    "midi": 50,
                    "name": "D3",
                    "ticks": 183360,
                    "time": 95.5,
                    "velocity": 1
                },
                {
                    "duration": 0.25,
                    "durationTicks": 480,
                    "midi": 65,
                    "name": "F4",
                    "ticks": 183840,
                    "time": 95.75,
                    "velocity": 1
                },
                {
                    "duration": 0.25,
                    "durationTicks": 480,
                    "midi": 62,
                    "name": "D4",
                    "ticks": 183840,
                    "time": 95.75,
                    "velocity": 1
                },
                {
                    "duration": 0.25,
                    "durationTicks": 480,
                    "midi": 57,
                    "name": "A3",
                    "ticks": 183840,
                    "time": 95.75,
                    "velocity": 1
                },
                {
                    "duration": 2.75,
                    "durationTicks": 5280,
                    "midi": 50,
                    "name": "D3",
                    "ticks": 183840,
                    "time": 95.75,
                    "velocity": 1
                },
                {
                    "duration": 0.5,
                    "durationTicks": 960,
                    "midi": 62,
                    "name": "D4",
                    "ticks": 184320,
                    "time": 96,
                    "velocity": 1
                },
                {
                    "duration": 0.5,
                    "durationTicks": 960,
                    "midi": 46,
                    "name": "A#2",
                    "ticks": 184320,
                    "time": 96,
                    "velocity": 1
                },
                {
                    "duration": 0.5,
                    "durationTicks": 960,
                    "midi": 53,
                    "name": "F3",
                    "ticks": 184320,
                    "time": 96,
                    "velocity": 1
                },
                {
                    "duration": 0.5,
                    "durationTicks": 960,
                    "midi": 58,
                    "name": "A#3",
                    "ticks": 184320,
                    "time": 96,
                    "velocity": 1
                },
                {
                    "duration": 0.25,
                    "durationTicks": 480,
                    "midi": 62,
                    "name": "D4",
                    "ticks": 185280,
                    "time": 96.5,
                    "velocity": 1
                },
                {
                    "duration": 0.25,
                    "durationTicks": 480,
                    "midi": 58,
                    "name": "A#3",
                    "ticks": 185280,
                    "time": 96.5,
                    "velocity": 1
                },
                {
                    "duration": 0.25,
                    "durationTicks": 480,
                    "midi": 53,
                    "name": "F3",
                    "ticks": 185280,
                    "time": 96.5,
                    "velocity": 1
                },
                {
                    "duration": 0.25,
                    "durationTicks": 480,
                    "midi": 46,
                    "name": "A#2",
                    "ticks": 185280,
                    "time": 96.5,
                    "velocity": 1
                },
                {
                    "duration": 0.25,
                    "durationTicks": 480,
                    "midi": 62,
                    "name": "D4",
                    "ticks": 185760,
                    "time": 96.75,
                    "velocity": 1
                },
                {
                    "duration": 0.25,
                    "durationTicks": 480,
                    "midi": 58,
                    "name": "A#3",
                    "ticks": 185760,
                    "time": 96.75,
                    "velocity": 1
                },
                {
                    "duration": 0.25,
                    "durationTicks": 480,
                    "midi": 53,
                    "name": "F3",
                    "ticks": 185760,
                    "time": 96.75,
                    "velocity": 1
                },
                {
                    "duration": 0.25,
                    "durationTicks": 480,
                    "midi": 46,
                    "name": "A#2",
                    "ticks": 185760,
                    "time": 96.75,
                    "velocity": 1
                },
                {
                    "duration": 0.5,
                    "durationTicks": 960,
                    "midi": 61,
                    "name": "C#4",
                    "ticks": 186240,
                    "time": 97,
                    "velocity": 1
                },
                {
                    "duration": 0.5,
                    "durationTicks": 960,
                    "midi": 45,
                    "name": "A2",
                    "ticks": 186240,
                    "time": 97,
                    "velocity": 1
                },
                {
                    "duration": 0.5,
                    "durationTicks": 960,
                    "midi": 52,
                    "name": "E3",
                    "ticks": 186240,
                    "time": 97,
                    "velocity": 1
                },
                {
                    "duration": 0.5,
                    "durationTicks": 960,
                    "midi": 57,
                    "name": "A3",
                    "ticks": 186240,
                    "time": 97,
                    "velocity": 1
                },
                {
                    "duration": 0.25,
                    "durationTicks": 480,
                    "midi": 45,
                    "name": "A2",
                    "ticks": 187200,
                    "time": 97.5,
                    "velocity": 1
                },
                {
                    "duration": 0.25,
                    "durationTicks": 480,
                    "midi": 52,
                    "name": "E3",
                    "ticks": 187200,
                    "time": 97.5,
                    "velocity": 1
                },
                {
                    "duration": 0.25,
                    "durationTicks": 480,
                    "midi": 57,
                    "name": "A3",
                    "ticks": 187200,
                    "time": 97.5,
                    "velocity": 1
                },
                {
                    "duration": 0.25,
                    "durationTicks": 480,
                    "midi": 61,
                    "name": "C#4",
                    "ticks": 187200,
                    "time": 97.5,
                    "velocity": 1
                },
                {
                    "duration": 0.25,
                    "durationTicks": 480,
                    "midi": 45,
                    "name": "A2",
                    "ticks": 187680,
                    "time": 97.75,
                    "velocity": 1
                },
                {
                    "duration": 0.25,
                    "durationTicks": 480,
                    "midi": 52,
                    "name": "E3",
                    "ticks": 187680,
                    "time": 97.75,
                    "velocity": 1
                },
                {
                    "duration": 0.25,
                    "durationTicks": 480,
                    "midi": 57,
                    "name": "A3",
                    "ticks": 187680,
                    "time": 97.75,
                    "velocity": 1
                },
                {
                    "duration": 0.25,
                    "durationTicks": 480,
                    "midi": 61,
                    "name": "C#4",
                    "ticks": 187680,
                    "time": 97.75,
                    "velocity": 1
                },
                {
                    "duration": 1.25,
                    "durationTicks": 2400,
                    "midi": 50,
                    "name": "D3",
                    "ticks": 188160,
                    "time": 98,
                    "velocity": 1
                },
                {
                    "duration": 0.75,
                    "durationTicks": 1440,
                    "midi": 54,
                    "name": "F#3",
                    "ticks": 189120,
                    "time": 98.5,
                    "velocity": 1
                },
                {
                    "duration": 0.75,
                    "durationTicks": 1440,
                    "midi": 57,
                    "name": "A3",
                    "ticks": 189120,
                    "time": 98.5,
                    "velocity": 1
                },
                {
                    "duration": 0.75,
                    "durationTicks": 1440,
                    "midi": 62,
                    "name": "D4",
                    "ticks": 189120,
                    "time": 98.5,
                    "velocity": 1
                },
                {
                    "duration": 0.75,
                    "durationTicks": 1440,
                    "midi": 66,
                    "name": "F#4",
                    "ticks": 189120,
                    "time": 98.5,
                    "velocity": 1
                },
                {
                    "duration": 1.5,
                    "durationTicks": 2880,
                    "midi": 50,
                    "name": "D3",
                    "ticks": 189120,
                    "time": 98.5,
                    "velocity": 1
                },
                {
                    "duration": 0.25,
                    "durationTicks": 480,
                    "midi": 55,
                    "name": "G3",
                    "ticks": 190560,
                    "time": 99.25,
                    "velocity": 1
                },
                {
                    "duration": 0.25,
                    "durationTicks": 480,
                    "midi": 62,
                    "name": "D4",
                    "ticks": 190560,
                    "time": 99.25,
                    "velocity": 1
                },
                {
                    "duration": 0.25,
                    "durationTicks": 480,
                    "midi": 67,
                    "name": "G4",
                    "ticks": 190560,
                    "time": 99.25,
                    "velocity": 1
                },
                {
                    "duration": 0.25,
                    "durationTicks": 480,
                    "midi": 54,
                    "name": "F#3",
                    "ticks": 191040,
                    "time": 99.5,
                    "velocity": 1
                },
                {
                    "duration": 0.25,
                    "durationTicks": 480,
                    "midi": 62,
                    "name": "D4",
                    "ticks": 191040,
                    "time": 99.5,
                    "velocity": 1
                },
                {
                    "duration": 0.25,
                    "durationTicks": 480,
                    "midi": 66,
                    "name": "F#4",
                    "ticks": 191040,
                    "time": 99.5,
                    "velocity": 1
                },
                {
                    "duration": 0.25,
                    "durationTicks": 480,
                    "midi": 57,
                    "name": "A3",
                    "ticks": 191520,
                    "time": 99.75,
                    "velocity": 1
                },
                {
                    "duration": 0.25,
                    "durationTicks": 480,
                    "midi": 62,
                    "name": "D4",
                    "ticks": 191520,
                    "time": 99.75,
                    "velocity": 1
                },
                {
                    "duration": 0.5,
                    "durationTicks": 960,
                    "midi": 50,
                    "name": "D3",
                    "ticks": 192000,
                    "time": 100,
                    "velocity": 1
                },
                {
                    "duration": 1.25,
                    "durationTicks": 2400,
                    "midi": 50,
                    "name": "D3",
                    "ticks": 192000,
                    "time": 100,
                    "velocity": 1
                },
                {
                    "duration": 0.75,
                    "durationTicks": 1440,
                    "midi": 54,
                    "name": "F#3",
                    "ticks": 192960,
                    "time": 100.5,
                    "velocity": 1
                },
                {
                    "duration": 0.75,
                    "durationTicks": 1440,
                    "midi": 57,
                    "name": "A3",
                    "ticks": 192960,
                    "time": 100.5,
                    "velocity": 1
                },
                {
                    "duration": 0.75,
                    "durationTicks": 1440,
                    "midi": 62,
                    "name": "D4",
                    "ticks": 192960,
                    "time": 100.5,
                    "velocity": 1
                },
                {
                    "duration": 0.75,
                    "durationTicks": 1440,
                    "midi": 66,
                    "name": "F#4",
                    "ticks": 192960,
                    "time": 100.5,
                    "velocity": 1
                },
                {
                    "duration": 1.5,
                    "durationTicks": 2880,
                    "midi": 50,
                    "name": "D3",
                    "ticks": 192960,
                    "time": 100.5,
                    "velocity": 1
                },
                {
                    "duration": 0.25,
                    "durationTicks": 480,
                    "midi": 55,
                    "name": "G3",
                    "ticks": 194400,
                    "time": 101.25,
                    "velocity": 1
                },
                {
                    "duration": 0.25,
                    "durationTicks": 480,
                    "midi": 62,
                    "name": "D4",
                    "ticks": 194400,
                    "time": 101.25,
                    "velocity": 1
                },
                {
                    "duration": 0.25,
                    "durationTicks": 480,
                    "midi": 67,
                    "name": "G4",
                    "ticks": 194400,
                    "time": 101.25,
                    "velocity": 1
                },
                {
                    "duration": 0.25,
                    "durationTicks": 480,
                    "midi": 54,
                    "name": "F#3",
                    "ticks": 194880,
                    "time": 101.5,
                    "velocity": 1
                },
                {
                    "duration": 0.25,
                    "durationTicks": 480,
                    "midi": 62,
                    "name": "D4",
                    "ticks": 194880,
                    "time": 101.5,
                    "velocity": 1
                },
                {
                    "duration": 0.25,
                    "durationTicks": 480,
                    "midi": 66,
                    "name": "F#4",
                    "ticks": 194880,
                    "time": 101.5,
                    "velocity": 1
                },
                {
                    "duration": 0.25,
                    "durationTicks": 480,
                    "midi": 57,
                    "name": "A3",
                    "ticks": 195360,
                    "time": 101.75,
                    "velocity": 1
                },
                {
                    "duration": 0.25,
                    "durationTicks": 480,
                    "midi": 62,
                    "name": "D4",
                    "ticks": 195360,
                    "time": 101.75,
                    "velocity": 1
                },
                {
                    "duration": 0.75,
                    "durationTicks": 1440,
                    "midi": 50,
                    "name": "D3",
                    "ticks": 195360,
                    "time": 101.75,
                    "velocity": 1
                },
                {
                    "duration": 1.25,
                    "durationTicks": 2400,
                    "midi": 50,
                    "name": "D3",
                    "ticks": 195840,
                    "time": 102,
                    "velocity": 1
                },
                {
                    "duration": 0.75,
                    "durationTicks": 1440,
                    "midi": 54,
                    "name": "F#3",
                    "ticks": 196800,
                    "time": 102.5,
                    "velocity": 1
                },
                {
                    "duration": 0.75,
                    "durationTicks": 1440,
                    "midi": 57,
                    "name": "A3",
                    "ticks": 196800,
                    "time": 102.5,
                    "velocity": 1
                },
                {
                    "duration": 0.75,
                    "durationTicks": 1440,
                    "midi": 62,
                    "name": "D4",
                    "ticks": 196800,
                    "time": 102.5,
                    "velocity": 1
                },
                {
                    "duration": 0.75,
                    "durationTicks": 1440,
                    "midi": 66,
                    "name": "F#4",
                    "ticks": 196800,
                    "time": 102.5,
                    "velocity": 1
                },
                {
                    "duration": 1.5,
                    "durationTicks": 2880,
                    "midi": 50,
                    "name": "D3",
                    "ticks": 196800,
                    "time": 102.5,
                    "velocity": 1
                },
                {
                    "duration": 0.25,
                    "durationTicks": 480,
                    "midi": 55,
                    "name": "G3",
                    "ticks": 198240,
                    "time": 103.25,
                    "velocity": 1
                },
                {
                    "duration": 0.25,
                    "durationTicks": 480,
                    "midi": 62,
                    "name": "D4",
                    "ticks": 198240,
                    "time": 103.25,
                    "velocity": 1
                },
                {
                    "duration": 0.25,
                    "durationTicks": 480,
                    "midi": 67,
                    "name": "G4",
                    "ticks": 198240,
                    "time": 103.25,
                    "velocity": 1
                },
                {
                    "duration": 0.25,
                    "durationTicks": 480,
                    "midi": 54,
                    "name": "F#3",
                    "ticks": 198720,
                    "time": 103.5,
                    "velocity": 1
                },
                {
                    "duration": 0.25,
                    "durationTicks": 480,
                    "midi": 62,
                    "name": "D4",
                    "ticks": 198720,
                    "time": 103.5,
                    "velocity": 1
                },
                {
                    "duration": 0.25,
                    "durationTicks": 480,
                    "midi": 66,
                    "name": "F#4",
                    "ticks": 198720,
                    "time": 103.5,
                    "velocity": 1
                },
                {
                    "duration": 0.25,
                    "durationTicks": 480,
                    "midi": 57,
                    "name": "A3",
                    "ticks": 199200,
                    "time": 103.75,
                    "velocity": 1
                },
                {
                    "duration": 0.25,
                    "durationTicks": 480,
                    "midi": 62,
                    "name": "D4",
                    "ticks": 199200,
                    "time": 103.75,
                    "velocity": 1
                },
                {
                    "duration": 0.5,
                    "durationTicks": 960,
                    "midi": 50,
                    "name": "D3",
                    "ticks": 199680,
                    "time": 104,
                    "velocity": 1
                },
                {
                    "duration": 1.25,
                    "durationTicks": 2400,
                    "midi": 50,
                    "name": "D3",
                    "ticks": 199680,
                    "time": 104,
                    "velocity": 1
                },
                {
                    "duration": 0.75,
                    "durationTicks": 1440,
                    "midi": 54,
                    "name": "F#3",
                    "ticks": 200640,
                    "time": 104.5,
                    "velocity": 1
                },
                {
                    "duration": 0.75,
                    "durationTicks": 1440,
                    "midi": 57,
                    "name": "A3",
                    "ticks": 200640,
                    "time": 104.5,
                    "velocity": 1
                },
                {
                    "duration": 0.75,
                    "durationTicks": 1440,
                    "midi": 62,
                    "name": "D4",
                    "ticks": 200640,
                    "time": 104.5,
                    "velocity": 1
                },
                {
                    "duration": 0.75,
                    "durationTicks": 1440,
                    "midi": 66,
                    "name": "F#4",
                    "ticks": 200640,
                    "time": 104.5,
                    "velocity": 1
                },
                {
                    "duration": 1.5,
                    "durationTicks": 2880,
                    "midi": 50,
                    "name": "D3",
                    "ticks": 200640,
                    "time": 104.5,
                    "velocity": 1
                },
                {
                    "duration": 0.25,
                    "durationTicks": 480,
                    "midi": 55,
                    "name": "G3",
                    "ticks": 202080,
                    "time": 105.25,
                    "velocity": 1
                },
                {
                    "duration": 0.25,
                    "durationTicks": 480,
                    "midi": 62,
                    "name": "D4",
                    "ticks": 202080,
                    "time": 105.25,
                    "velocity": 1
                },
                {
                    "duration": 0.25,
                    "durationTicks": 480,
                    "midi": 67,
                    "name": "G4",
                    "ticks": 202080,
                    "time": 105.25,
                    "velocity": 1
                },
                {
                    "duration": 0.25,
                    "durationTicks": 480,
                    "midi": 54,
                    "name": "F#3",
                    "ticks": 202560,
                    "time": 105.5,
                    "velocity": 1
                },
                {
                    "duration": 0.25,
                    "durationTicks": 480,
                    "midi": 62,
                    "name": "D4",
                    "ticks": 202560,
                    "time": 105.5,
                    "velocity": 1
                },
                {
                    "duration": 0.25,
                    "durationTicks": 480,
                    "midi": 66,
                    "name": "F#4",
                    "ticks": 202560,
                    "time": 105.5,
                    "velocity": 1
                },
                {
                    "duration": 0.25,
                    "durationTicks": 480,
                    "midi": 57,
                    "name": "A3",
                    "ticks": 203040,
                    "time": 105.75,
                    "velocity": 1
                },
                {
                    "duration": 0.25,
                    "durationTicks": 480,
                    "midi": 62,
                    "name": "D4",
                    "ticks": 203040,
                    "time": 105.75,
                    "velocity": 1
                },
                {
                    "duration": 16.75,
                    "durationTicks": 32160,
                    "midi": 50,
                    "name": "D3",
                    "ticks": 203040,
                    "time": 105.75,
                    "velocity": 1
                },
                {
                    "duration": 1.25,
                    "durationTicks": 2400,
                    "midi": 50,
                    "name": "D3",
                    "ticks": 234240,
                    "time": 122,
                    "velocity": 1
                },
                {
                    "duration": 0.75,
                    "durationTicks": 1440,
                    "midi": 54,
                    "name": "F#3",
                    "ticks": 235200,
                    "time": 122.5,
                    "velocity": 1
                },
                {
                    "duration": 0.75,
                    "durationTicks": 1440,
                    "midi": 57,
                    "name": "A3",
                    "ticks": 235200,
                    "time": 122.5,
                    "velocity": 1
                },
                {
                    "duration": 0.75,
                    "durationTicks": 1440,
                    "midi": 62,
                    "name": "D4",
                    "ticks": 235200,
                    "time": 122.5,
                    "velocity": 1
                },
                {
                    "duration": 0.75,
                    "durationTicks": 1440,
                    "midi": 66,
                    "name": "F#4",
                    "ticks": 235200,
                    "time": 122.5,
                    "velocity": 1
                },
                {
                    "duration": 1.5,
                    "durationTicks": 2880,
                    "midi": 50,
                    "name": "D3",
                    "ticks": 235200,
                    "time": 122.5,
                    "velocity": 1
                },
                {
                    "duration": 0.25,
                    "durationTicks": 480,
                    "midi": 55,
                    "name": "G3",
                    "ticks": 236640,
                    "time": 123.25,
                    "velocity": 1
                },
                {
                    "duration": 0.25,
                    "durationTicks": 480,
                    "midi": 62,
                    "name": "D4",
                    "ticks": 236640,
                    "time": 123.25,
                    "velocity": 1
                },
                {
                    "duration": 0.25,
                    "durationTicks": 480,
                    "midi": 67,
                    "name": "G4",
                    "ticks": 236640,
                    "time": 123.25,
                    "velocity": 1
                },
                {
                    "duration": 0.25,
                    "durationTicks": 480,
                    "midi": 54,
                    "name": "F#3",
                    "ticks": 237120,
                    "time": 123.5,
                    "velocity": 1
                },
                {
                    "duration": 0.25,
                    "durationTicks": 480,
                    "midi": 62,
                    "name": "D4",
                    "ticks": 237120,
                    "time": 123.5,
                    "velocity": 1
                },
                {
                    "duration": 0.25,
                    "durationTicks": 480,
                    "midi": 66,
                    "name": "F#4",
                    "ticks": 237120,
                    "time": 123.5,
                    "velocity": 1
                },
                {
                    "duration": 0.25,
                    "durationTicks": 480,
                    "midi": 57,
                    "name": "A3",
                    "ticks": 237600,
                    "time": 123.75,
                    "velocity": 1
                },
                {
                    "duration": 0.25,
                    "durationTicks": 480,
                    "midi": 62,
                    "name": "D4",
                    "ticks": 237600,
                    "time": 123.75,
                    "velocity": 1
                },
                {
                    "duration": 0.5,
                    "durationTicks": 960,
                    "midi": 50,
                    "name": "D3",
                    "ticks": 238080,
                    "time": 124,
                    "velocity": 1
                },
                {
                    "duration": 1.25,
                    "durationTicks": 2400,
                    "midi": 50,
                    "name": "D3",
                    "ticks": 238080,
                    "time": 124,
                    "velocity": 1
                },
                {
                    "duration": 0.75,
                    "durationTicks": 1440,
                    "midi": 54,
                    "name": "F#3",
                    "ticks": 239040,
                    "time": 124.5,
                    "velocity": 1
                },
                {
                    "duration": 0.75,
                    "durationTicks": 1440,
                    "midi": 57,
                    "name": "A3",
                    "ticks": 239040,
                    "time": 124.5,
                    "velocity": 1
                },
                {
                    "duration": 0.75,
                    "durationTicks": 1440,
                    "midi": 62,
                    "name": "D4",
                    "ticks": 239040,
                    "time": 124.5,
                    "velocity": 1
                },
                {
                    "duration": 0.75,
                    "durationTicks": 1440,
                    "midi": 66,
                    "name": "F#4",
                    "ticks": 239040,
                    "time": 124.5,
                    "velocity": 1
                },
                {
                    "duration": 1.5,
                    "durationTicks": 2880,
                    "midi": 50,
                    "name": "D3",
                    "ticks": 239040,
                    "time": 124.5,
                    "velocity": 1
                },
                {
                    "duration": 0.25,
                    "durationTicks": 480,
                    "midi": 55,
                    "name": "G3",
                    "ticks": 240480,
                    "time": 125.25,
                    "velocity": 1
                },
                {
                    "duration": 0.25,
                    "durationTicks": 480,
                    "midi": 62,
                    "name": "D4",
                    "ticks": 240480,
                    "time": 125.25,
                    "velocity": 1
                },
                {
                    "duration": 0.25,
                    "durationTicks": 480,
                    "midi": 67,
                    "name": "G4",
                    "ticks": 240480,
                    "time": 125.25,
                    "velocity": 1
                },
                {
                    "duration": 0.25,
                    "durationTicks": 480,
                    "midi": 54,
                    "name": "F#3",
                    "ticks": 240960,
                    "time": 125.5,
                    "velocity": 1
                },
                {
                    "duration": 0.25,
                    "durationTicks": 480,
                    "midi": 62,
                    "name": "D4",
                    "ticks": 240960,
                    "time": 125.5,
                    "velocity": 1
                },
                {
                    "duration": 0.25,
                    "durationTicks": 480,
                    "midi": 66,
                    "name": "F#4",
                    "ticks": 240960,
                    "time": 125.5,
                    "velocity": 1
                },
                {
                    "duration": 0.25,
                    "durationTicks": 480,
                    "midi": 57,
                    "name": "A3",
                    "ticks": 241440,
                    "time": 125.75,
                    "velocity": 1
                },
                {
                    "duration": 0.25,
                    "durationTicks": 480,
                    "midi": 62,
                    "name": "D4",
                    "ticks": 241440,
                    "time": 125.75,
                    "velocity": 1
                },
                {
                    "duration": 0.75,
                    "durationTicks": 1440,
                    "midi": 50,
                    "name": "D3",
                    "ticks": 241440,
                    "time": 125.75,
                    "velocity": 1
                },
                {
                    "duration": 1.25,
                    "durationTicks": 2400,
                    "midi": 50,
                    "name": "D3",
                    "ticks": 241920,
                    "time": 126,
                    "velocity": 1
                },
                {
                    "duration": 0.75,
                    "durationTicks": 1440,
                    "midi": 54,
                    "name": "F#3",
                    "ticks": 242880,
                    "time": 126.5,
                    "velocity": 1
                },
                {
                    "duration": 0.75,
                    "durationTicks": 1440,
                    "midi": 57,
                    "name": "A3",
                    "ticks": 242880,
                    "time": 126.5,
                    "velocity": 1
                },
                {
                    "duration": 0.75,
                    "durationTicks": 1440,
                    "midi": 62,
                    "name": "D4",
                    "ticks": 242880,
                    "time": 126.5,
                    "velocity": 1
                },
                {
                    "duration": 0.75,
                    "durationTicks": 1440,
                    "midi": 66,
                    "name": "F#4",
                    "ticks": 242880,
                    "time": 126.5,
                    "velocity": 1
                },
                {
                    "duration": 1.5,
                    "durationTicks": 2880,
                    "midi": 50,
                    "name": "D3",
                    "ticks": 242880,
                    "time": 126.5,
                    "velocity": 1
                },
                {
                    "duration": 0.25,
                    "durationTicks": 480,
                    "midi": 55,
                    "name": "G3",
                    "ticks": 244320,
                    "time": 127.25,
                    "velocity": 1
                },
                {
                    "duration": 0.25,
                    "durationTicks": 480,
                    "midi": 62,
                    "name": "D4",
                    "ticks": 244320,
                    "time": 127.25,
                    "velocity": 1
                },
                {
                    "duration": 0.25,
                    "durationTicks": 480,
                    "midi": 67,
                    "name": "G4",
                    "ticks": 244320,
                    "time": 127.25,
                    "velocity": 1
                },
                {
                    "duration": 0.25,
                    "durationTicks": 480,
                    "midi": 54,
                    "name": "F#3",
                    "ticks": 244800,
                    "time": 127.5,
                    "velocity": 1
                },
                {
                    "duration": 0.25,
                    "durationTicks": 480,
                    "midi": 62,
                    "name": "D4",
                    "ticks": 244800,
                    "time": 127.5,
                    "velocity": 1
                },
                {
                    "duration": 0.25,
                    "durationTicks": 480,
                    "midi": 66,
                    "name": "F#4",
                    "ticks": 244800,
                    "time": 127.5,
                    "velocity": 1
                },
                {
                    "duration": 0.25,
                    "durationTicks": 480,
                    "midi": 57,
                    "name": "A3",
                    "ticks": 245280,
                    "time": 127.75,
                    "velocity": 1
                },
                {
                    "duration": 0.25,
                    "durationTicks": 480,
                    "midi": 62,
                    "name": "D4",
                    "ticks": 245280,
                    "time": 127.75,
                    "velocity": 1
                },
                {
                    "duration": 0.5,
                    "durationTicks": 960,
                    "midi": 50,
                    "name": "D3",
                    "ticks": 245760,
                    "time": 128,
                    "velocity": 1
                },
                {
                    "duration": 1.25,
                    "durationTicks": 2400,
                    "midi": 50,
                    "name": "D3",
                    "ticks": 245760,
                    "time": 128,
                    "velocity": 1
                },
                {
                    "duration": 0.75,
                    "durationTicks": 1440,
                    "midi": 54,
                    "name": "F#3",
                    "ticks": 246720,
                    "time": 128.5,
                    "velocity": 1
                },
                {
                    "duration": 0.75,
                    "durationTicks": 1440,
                    "midi": 57,
                    "name": "A3",
                    "ticks": 246720,
                    "time": 128.5,
                    "velocity": 1
                },
                {
                    "duration": 0.75,
                    "durationTicks": 1440,
                    "midi": 62,
                    "name": "D4",
                    "ticks": 246720,
                    "time": 128.5,
                    "velocity": 1
                },
                {
                    "duration": 0.75,
                    "durationTicks": 1440,
                    "midi": 66,
                    "name": "F#4",
                    "ticks": 246720,
                    "time": 128.5,
                    "velocity": 1
                },
                {
                    "duration": 1.5,
                    "durationTicks": 2880,
                    "midi": 50,
                    "name": "D3",
                    "ticks": 246720,
                    "time": 128.5,
                    "velocity": 1
                },
                {
                    "duration": 0.25,
                    "durationTicks": 480,
                    "midi": 55,
                    "name": "G3",
                    "ticks": 248160,
                    "time": 129.25,
                    "velocity": 1
                },
                {
                    "duration": 0.25,
                    "durationTicks": 480,
                    "midi": 62,
                    "name": "D4",
                    "ticks": 248160,
                    "time": 129.25,
                    "velocity": 1
                },
                {
                    "duration": 0.25,
                    "durationTicks": 480,
                    "midi": 67,
                    "name": "G4",
                    "ticks": 248160,
                    "time": 129.25,
                    "velocity": 1
                },
                {
                    "duration": 0.25,
                    "durationTicks": 480,
                    "midi": 54,
                    "name": "F#3",
                    "ticks": 248640,
                    "time": 129.5,
                    "velocity": 1
                },
                {
                    "duration": 0.25,
                    "durationTicks": 480,
                    "midi": 62,
                    "name": "D4",
                    "ticks": 248640,
                    "time": 129.5,
                    "velocity": 1
                },
                {
                    "duration": 0.25,
                    "durationTicks": 480,
                    "midi": 66,
                    "name": "F#4",
                    "ticks": 248640,
                    "time": 129.5,
                    "velocity": 1
                },
                {
                    "duration": 0.25,
                    "durationTicks": 480,
                    "midi": 57,
                    "name": "A3",
                    "ticks": 249120,
                    "time": 129.75,
                    "velocity": 1
                },
                {
                    "duration": 0.25,
                    "durationTicks": 480,
                    "midi": 62,
                    "name": "D4",
                    "ticks": 249120,
                    "time": 129.75,
                    "velocity": 1
                },
                {
                    "duration": 14.75,
                    "durationTicks": 28320,
                    "midi": 50,
                    "name": "D3",
                    "ticks": 249120,
                    "time": 129.75,
                    "velocity": 1
                },
                {
                    "duration": 0.5,
                    "durationTicks": 960,
                    "midi": 40,
                    "name": "E2",
                    "ticks": 249600,
                    "time": 130,
                    "velocity": 1
                },
                {
                    "duration": 0.5,
                    "durationTicks": 960,
                    "midi": 40,
                    "name": "E2",
                    "ticks": 250560,
                    "time": 130.5,
                    "velocity": 1
                },
                {
                    "duration": 0.5,
                    "durationTicks": 960,
                    "midi": 47,
                    "name": "B2",
                    "ticks": 250560,
                    "time": 130.5,
                    "velocity": 1
                },
                {
                    "duration": 0.5,
                    "durationTicks": 960,
                    "midi": 52,
                    "name": "E3",
                    "ticks": 250560,
                    "time": 130.5,
                    "velocity": 1
                },
                {
                    "duration": 0.5,
                    "durationTicks": 960,
                    "midi": 55,
                    "name": "G3",
                    "ticks": 250560,
                    "time": 130.5,
                    "velocity": 1
                },
                {
                    "duration": 0.5,
                    "durationTicks": 960,
                    "midi": 62,
                    "name": "D4",
                    "ticks": 250560,
                    "time": 130.5,
                    "velocity": 1
                },
                {
                    "duration": 0.5,
                    "durationTicks": 960,
                    "midi": 67,
                    "name": "G4",
                    "ticks": 250560,
                    "time": 130.5,
                    "velocity": 1
                },
                {
                    "duration": 0.25,
                    "durationTicks": 480,
                    "midi": 40,
                    "name": "E2",
                    "ticks": 251520,
                    "time": 131,
                    "velocity": 1
                },
                {
                    "duration": 0.25,
                    "durationTicks": 480,
                    "midi": 67,
                    "name": "G4",
                    "ticks": 251520,
                    "time": 131,
                    "velocity": 1
                },
                {
                    "duration": 0.25,
                    "durationTicks": 480,
                    "midi": 62,
                    "name": "D4",
                    "ticks": 251520,
                    "time": 131,
                    "velocity": 1
                },
                {
                    "duration": 0.25,
                    "durationTicks": 480,
                    "midi": 55,
                    "name": "G3",
                    "ticks": 251520,
                    "time": 131,
                    "velocity": 1
                },
                {
                    "duration": 0.25,
                    "durationTicks": 480,
                    "midi": 52,
                    "name": "E3",
                    "ticks": 251520,
                    "time": 131,
                    "velocity": 1
                },
                {
                    "duration": 0.25,
                    "durationTicks": 480,
                    "midi": 47,
                    "name": "B2",
                    "ticks": 251520,
                    "time": 131,
                    "velocity": 1
                },
                {
                    "duration": 0.25,
                    "durationTicks": 480,
                    "midi": 40,
                    "name": "E2",
                    "ticks": 252000,
                    "time": 131.25,
                    "velocity": 1
                },
                {
                    "duration": 0.25,
                    "durationTicks": 480,
                    "midi": 67,
                    "name": "G4",
                    "ticks": 252000,
                    "time": 131.25,
                    "velocity": 1
                },
                {
                    "duration": 0.25,
                    "durationTicks": 480,
                    "midi": 62,
                    "name": "D4",
                    "ticks": 252000,
                    "time": 131.25,
                    "velocity": 1
                },
                {
                    "duration": 0.25,
                    "durationTicks": 480,
                    "midi": 55,
                    "name": "G3",
                    "ticks": 252000,
                    "time": 131.25,
                    "velocity": 1
                },
                {
                    "duration": 0.25,
                    "durationTicks": 480,
                    "midi": 52,
                    "name": "E3",
                    "ticks": 252000,
                    "time": 131.25,
                    "velocity": 1
                },
                {
                    "duration": 0.25,
                    "durationTicks": 480,
                    "midi": 47,
                    "name": "B2",
                    "ticks": 252000,
                    "time": 131.25,
                    "velocity": 1
                },
                {
                    "duration": 0.25,
                    "durationTicks": 480,
                    "midi": 40,
                    "name": "E2",
                    "ticks": 252480,
                    "time": 131.5,
                    "velocity": 1
                },
                {
                    "duration": 0.25,
                    "durationTicks": 480,
                    "midi": 67,
                    "name": "G4",
                    "ticks": 252480,
                    "time": 131.5,
                    "velocity": 1
                },
                {
                    "duration": 0.25,
                    "durationTicks": 480,
                    "midi": 62,
                    "name": "D4",
                    "ticks": 252480,
                    "time": 131.5,
                    "velocity": 1
                },
                {
                    "duration": 0.25,
                    "durationTicks": 480,
                    "midi": 55,
                    "name": "G3",
                    "ticks": 252480,
                    "time": 131.5,
                    "velocity": 1
                },
                {
                    "duration": 0.25,
                    "durationTicks": 480,
                    "midi": 52,
                    "name": "E3",
                    "ticks": 252480,
                    "time": 131.5,
                    "velocity": 1
                },
                {
                    "duration": 0.25,
                    "durationTicks": 480,
                    "midi": 47,
                    "name": "B2",
                    "ticks": 252480,
                    "time": 131.5,
                    "velocity": 1
                },
                {
                    "duration": 0.25,
                    "durationTicks": 480,
                    "midi": 40,
                    "name": "E2",
                    "ticks": 252960,
                    "time": 131.75,
                    "velocity": 1
                },
                {
                    "duration": 0.25,
                    "durationTicks": 480,
                    "midi": 67,
                    "name": "G4",
                    "ticks": 252960,
                    "time": 131.75,
                    "velocity": 1
                },
                {
                    "duration": 0.25,
                    "durationTicks": 480,
                    "midi": 62,
                    "name": "D4",
                    "ticks": 252960,
                    "time": 131.75,
                    "velocity": 1
                },
                {
                    "duration": 0.25,
                    "durationTicks": 480,
                    "midi": 55,
                    "name": "G3",
                    "ticks": 252960,
                    "time": 131.75,
                    "velocity": 1
                },
                {
                    "duration": 0.25,
                    "durationTicks": 480,
                    "midi": 52,
                    "name": "E3",
                    "ticks": 252960,
                    "time": 131.75,
                    "velocity": 1
                },
                {
                    "duration": 0.25,
                    "durationTicks": 480,
                    "midi": 47,
                    "name": "B2",
                    "ticks": 252960,
                    "time": 131.75,
                    "velocity": 1
                },
                {
                    "duration": 0.5,
                    "durationTicks": 960,
                    "midi": 45,
                    "name": "A2",
                    "ticks": 253440,
                    "time": 132,
                    "velocity": 1
                },
                {
                    "duration": 0.5,
                    "durationTicks": 960,
                    "midi": 45,
                    "name": "A2",
                    "ticks": 254400,
                    "time": 132.5,
                    "velocity": 1
                },
                {
                    "duration": 0.5,
                    "durationTicks": 960,
                    "midi": 52,
                    "name": "E3",
                    "ticks": 254400,
                    "time": 132.5,
                    "velocity": 1
                },
                {
                    "duration": 0.5,
                    "durationTicks": 960,
                    "midi": 55,
                    "name": "G3",
                    "ticks": 254400,
                    "time": 132.5,
                    "velocity": 1
                },
                {
                    "duration": 0.5,
                    "durationTicks": 960,
                    "midi": 62,
                    "name": "D4",
                    "ticks": 254400,
                    "time": 132.5,
                    "velocity": 1
                },
                {
                    "duration": 0.5,
                    "durationTicks": 960,
                    "midi": 64,
                    "name": "E4",
                    "ticks": 254400,
                    "time": 132.5,
                    "velocity": 1
                },
                {
                    "duration": 0.25,
                    "durationTicks": 480,
                    "midi": 45,
                    "name": "A2",
                    "ticks": 255360,
                    "time": 133,
                    "velocity": 1
                },
                {
                    "duration": 0.25,
                    "durationTicks": 480,
                    "midi": 52,
                    "name": "E3",
                    "ticks": 255360,
                    "time": 133,
                    "velocity": 1
                },
                {
                    "duration": 0.25,
                    "durationTicks": 480,
                    "midi": 55,
                    "name": "G3",
                    "ticks": 255360,
                    "time": 133,
                    "velocity": 1
                },
                {
                    "duration": 0.25,
                    "durationTicks": 480,
                    "midi": 62,
                    "name": "D4",
                    "ticks": 255360,
                    "time": 133,
                    "velocity": 1
                },
                {
                    "duration": 0.25,
                    "durationTicks": 480,
                    "midi": 64,
                    "name": "E4",
                    "ticks": 255360,
                    "time": 133,
                    "velocity": 1
                },
                {
                    "duration": 0.25,
                    "durationTicks": 480,
                    "midi": 45,
                    "name": "A2",
                    "ticks": 255840,
                    "time": 133.25,
                    "velocity": 1
                },
                {
                    "duration": 0.25,
                    "durationTicks": 480,
                    "midi": 52,
                    "name": "E3",
                    "ticks": 255840,
                    "time": 133.25,
                    "velocity": 1
                },
                {
                    "duration": 0.25,
                    "durationTicks": 480,
                    "midi": 55,
                    "name": "G3",
                    "ticks": 255840,
                    "time": 133.25,
                    "velocity": 1
                },
                {
                    "duration": 0.25,
                    "durationTicks": 480,
                    "midi": 62,
                    "name": "D4",
                    "ticks": 255840,
                    "time": 133.25,
                    "velocity": 1
                },
                {
                    "duration": 0.25,
                    "durationTicks": 480,
                    "midi": 64,
                    "name": "E4",
                    "ticks": 255840,
                    "time": 133.25,
                    "velocity": 1
                },
                {
                    "duration": 0.25,
                    "durationTicks": 480,
                    "midi": 45,
                    "name": "A2",
                    "ticks": 256320,
                    "time": 133.5,
                    "velocity": 1
                },
                {
                    "duration": 0.25,
                    "durationTicks": 480,
                    "midi": 52,
                    "name": "E3",
                    "ticks": 256320,
                    "time": 133.5,
                    "velocity": 1
                },
                {
                    "duration": 0.25,
                    "durationTicks": 480,
                    "midi": 55,
                    "name": "G3",
                    "ticks": 256320,
                    "time": 133.5,
                    "velocity": 1
                },
                {
                    "duration": 0.25,
                    "durationTicks": 480,
                    "midi": 62,
                    "name": "D4",
                    "ticks": 256320,
                    "time": 133.5,
                    "velocity": 1
                },
                {
                    "duration": 0.25,
                    "durationTicks": 480,
                    "midi": 64,
                    "name": "E4",
                    "ticks": 256320,
                    "time": 133.5,
                    "velocity": 1
                },
                {
                    "duration": 0.25,
                    "durationTicks": 480,
                    "midi": 45,
                    "name": "A2",
                    "ticks": 256800,
                    "time": 133.75,
                    "velocity": 1
                },
                {
                    "duration": 0.25,
                    "durationTicks": 480,
                    "midi": 52,
                    "name": "E3",
                    "ticks": 256800,
                    "time": 133.75,
                    "velocity": 1
                },
                {
                    "duration": 0.25,
                    "durationTicks": 480,
                    "midi": 55,
                    "name": "G3",
                    "ticks": 256800,
                    "time": 133.75,
                    "velocity": 1
                },
                {
                    "duration": 0.25,
                    "durationTicks": 480,
                    "midi": 62,
                    "name": "D4",
                    "ticks": 256800,
                    "time": 133.75,
                    "velocity": 1
                },
                {
                    "duration": 0.25,
                    "durationTicks": 480,
                    "midi": 64,
                    "name": "E4",
                    "ticks": 256800,
                    "time": 133.75,
                    "velocity": 1
                },
                {
                    "duration": 0.5,
                    "durationTicks": 960,
                    "midi": 46,
                    "name": "A#2",
                    "ticks": 257280,
                    "time": 134,
                    "velocity": 1
                },
                {
                    "duration": 0.5,
                    "durationTicks": 960,
                    "midi": 53,
                    "name": "F3",
                    "ticks": 257280,
                    "time": 134,
                    "velocity": 1
                },
                {
                    "duration": 0.5,
                    "durationTicks": 960,
                    "midi": 58,
                    "name": "A#3",
                    "ticks": 257280,
                    "time": 134,
                    "velocity": 1
                },
                {
                    "duration": 0.5,
                    "durationTicks": 960,
                    "midi": 62,
                    "name": "D4",
                    "ticks": 257280,
                    "time": 134,
                    "velocity": 1
                },
                {
                    "duration": 0.25,
                    "durationTicks": 480,
                    "midi": 46,
                    "name": "A#2",
                    "ticks": 258240,
                    "time": 134.5,
                    "velocity": 1
                },
                {
                    "duration": 0.25,
                    "durationTicks": 480,
                    "midi": 53,
                    "name": "F3",
                    "ticks": 258240,
                    "time": 134.5,
                    "velocity": 1
                },
                {
                    "duration": 0.25,
                    "durationTicks": 480,
                    "midi": 58,
                    "name": "A#3",
                    "ticks": 258240,
                    "time": 134.5,
                    "velocity": 1
                },
                {
                    "duration": 0.25,
                    "durationTicks": 480,
                    "midi": 62,
                    "name": "D4",
                    "ticks": 258240,
                    "time": 134.5,
                    "velocity": 1
                },
                {
                    "duration": 0.25,
                    "durationTicks": 480,
                    "midi": 46,
                    "name": "A#2",
                    "ticks": 258720,
                    "time": 134.75,
                    "velocity": 1
                },
                {
                    "duration": 0.25,
                    "durationTicks": 480,
                    "midi": 53,
                    "name": "F3",
                    "ticks": 258720,
                    "time": 134.75,
                    "velocity": 1
                },
                {
                    "duration": 0.25,
                    "durationTicks": 480,
                    "midi": 58,
                    "name": "A#3",
                    "ticks": 258720,
                    "time": 134.75,
                    "velocity": 1
                },
                {
                    "duration": 0.25,
                    "durationTicks": 480,
                    "midi": 62,
                    "name": "D4",
                    "ticks": 258720,
                    "time": 134.75,
                    "velocity": 1
                },
                {
                    "duration": 0.25,
                    "durationTicks": 480,
                    "midi": 46,
                    "name": "A#2",
                    "ticks": 259200,
                    "time": 135,
                    "velocity": 1
                },
                {
                    "duration": 0.25,
                    "durationTicks": 480,
                    "midi": 53,
                    "name": "F3",
                    "ticks": 259200,
                    "time": 135,
                    "velocity": 1
                },
                {
                    "duration": 0.25,
                    "durationTicks": 480,
                    "midi": 58,
                    "name": "A#3",
                    "ticks": 259200,
                    "time": 135,
                    "velocity": 1
                },
                {
                    "duration": 0.25,
                    "durationTicks": 480,
                    "midi": 62,
                    "name": "D4",
                    "ticks": 259200,
                    "time": 135,
                    "velocity": 1
                },
                {
                    "duration": 0.25,
                    "durationTicks": 480,
                    "midi": 46,
                    "name": "A#2",
                    "ticks": 259680,
                    "time": 135.25,
                    "velocity": 1
                },
                {
                    "duration": 0.25,
                    "durationTicks": 480,
                    "midi": 53,
                    "name": "F3",
                    "ticks": 259680,
                    "time": 135.25,
                    "velocity": 1
                },
                {
                    "duration": 0.25,
                    "durationTicks": 480,
                    "midi": 58,
                    "name": "A#3",
                    "ticks": 259680,
                    "time": 135.25,
                    "velocity": 1
                },
                {
                    "duration": 0.25,
                    "durationTicks": 480,
                    "midi": 62,
                    "name": "D4",
                    "ticks": 259680,
                    "time": 135.25,
                    "velocity": 1
                },
                {
                    "duration": 0.25,
                    "durationTicks": 480,
                    "midi": 46,
                    "name": "A#2",
                    "ticks": 260160,
                    "time": 135.5,
                    "velocity": 1
                },
                {
                    "duration": 0.25,
                    "durationTicks": 480,
                    "midi": 53,
                    "name": "F3",
                    "ticks": 260160,
                    "time": 135.5,
                    "velocity": 1
                },
                {
                    "duration": 0.25,
                    "durationTicks": 480,
                    "midi": 58,
                    "name": "A#3",
                    "ticks": 260160,
                    "time": 135.5,
                    "velocity": 1
                },
                {
                    "duration": 0.25,
                    "durationTicks": 480,
                    "midi": 62,
                    "name": "D4",
                    "ticks": 260160,
                    "time": 135.5,
                    "velocity": 1
                },
                {
                    "duration": 0.25,
                    "durationTicks": 480,
                    "midi": 46,
                    "name": "A#2",
                    "ticks": 260640,
                    "time": 135.75,
                    "velocity": 1
                },
                {
                    "duration": 0.25,
                    "durationTicks": 480,
                    "midi": 53,
                    "name": "F3",
                    "ticks": 260640,
                    "time": 135.75,
                    "velocity": 1
                },
                {
                    "duration": 0.25,
                    "durationTicks": 480,
                    "midi": 58,
                    "name": "A#3",
                    "ticks": 260640,
                    "time": 135.75,
                    "velocity": 1
                },
                {
                    "duration": 0.25,
                    "durationTicks": 480,
                    "midi": 62,
                    "name": "D4",
                    "ticks": 260640,
                    "time": 135.75,
                    "velocity": 1
                },
                {
                    "duration": 0.25,
                    "durationTicks": 480,
                    "midi": 65,
                    "name": "F4",
                    "ticks": 261120,
                    "time": 136,
                    "velocity": 1
                },
                {
                    "duration": 0.25,
                    "durationTicks": 480,
                    "midi": 60,
                    "name": "C4",
                    "ticks": 261120,
                    "time": 136,
                    "velocity": 1
                },
                {
                    "duration": 0.25,
                    "durationTicks": 480,
                    "midi": 57,
                    "name": "A3",
                    "ticks": 261120,
                    "time": 136,
                    "velocity": 1
                },
                {
                    "duration": 0.25,
                    "durationTicks": 480,
                    "midi": 53,
                    "name": "F3",
                    "ticks": 261120,
                    "time": 136,
                    "velocity": 1
                },
                {
                    "duration": 0.25,
                    "durationTicks": 480,
                    "midi": 48,
                    "name": "C3",
                    "ticks": 261120,
                    "time": 136,
                    "velocity": 1
                },
                {
                    "duration": 0.25,
                    "durationTicks": 480,
                    "midi": 41,
                    "name": "F2",
                    "ticks": 261120,
                    "time": 136,
                    "velocity": 1
                },
                {
                    "duration": 0.25,
                    "durationTicks": 480,
                    "midi": 41,
                    "name": "F2",
                    "ticks": 261600,
                    "time": 136.25,
                    "velocity": 1
                },
                {
                    "duration": 0.25,
                    "durationTicks": 480,
                    "midi": 48,
                    "name": "C3",
                    "ticks": 261600,
                    "time": 136.25,
                    "velocity": 1
                },
                {
                    "duration": 0.25,
                    "durationTicks": 480,
                    "midi": 53,
                    "name": "F3",
                    "ticks": 261600,
                    "time": 136.25,
                    "velocity": 1
                },
                {
                    "duration": 0.25,
                    "durationTicks": 480,
                    "midi": 57,
                    "name": "A3",
                    "ticks": 261600,
                    "time": 136.25,
                    "velocity": 1
                },
                {
                    "duration": 0.25,
                    "durationTicks": 480,
                    "midi": 60,
                    "name": "C4",
                    "ticks": 261600,
                    "time": 136.25,
                    "velocity": 1
                },
                {
                    "duration": 0.25,
                    "durationTicks": 480,
                    "midi": 65,
                    "name": "F4",
                    "ticks": 261600,
                    "time": 136.25,
                    "velocity": 1
                },
                {
                    "duration": 0.25,
                    "durationTicks": 480,
                    "midi": 41,
                    "name": "F2",
                    "ticks": 262080,
                    "time": 136.5,
                    "velocity": 1
                },
                {
                    "duration": 0.25,
                    "durationTicks": 480,
                    "midi": 48,
                    "name": "C3",
                    "ticks": 262080,
                    "time": 136.5,
                    "velocity": 1
                },
                {
                    "duration": 0.25,
                    "durationTicks": 480,
                    "midi": 53,
                    "name": "F3",
                    "ticks": 262080,
                    "time": 136.5,
                    "velocity": 1
                },
                {
                    "duration": 0.25,
                    "durationTicks": 480,
                    "midi": 57,
                    "name": "A3",
                    "ticks": 262080,
                    "time": 136.5,
                    "velocity": 1
                },
                {
                    "duration": 0.25,
                    "durationTicks": 480,
                    "midi": 60,
                    "name": "C4",
                    "ticks": 262080,
                    "time": 136.5,
                    "velocity": 1
                },
                {
                    "duration": 0.25,
                    "durationTicks": 480,
                    "midi": 65,
                    "name": "F4",
                    "ticks": 262080,
                    "time": 136.5,
                    "velocity": 1
                },
                {
                    "duration": 0.25,
                    "durationTicks": 480,
                    "midi": 41,
                    "name": "F2",
                    "ticks": 262560,
                    "time": 136.75,
                    "velocity": 1
                },
                {
                    "duration": 0.25,
                    "durationTicks": 480,
                    "midi": 48,
                    "name": "C3",
                    "ticks": 262560,
                    "time": 136.75,
                    "velocity": 1
                },
                {
                    "duration": 0.25,
                    "durationTicks": 480,
                    "midi": 53,
                    "name": "F3",
                    "ticks": 262560,
                    "time": 136.75,
                    "velocity": 1
                },
                {
                    "duration": 0.25,
                    "durationTicks": 480,
                    "midi": 57,
                    "name": "A3",
                    "ticks": 262560,
                    "time": 136.75,
                    "velocity": 1
                },
                {
                    "duration": 0.25,
                    "durationTicks": 480,
                    "midi": 60,
                    "name": "C4",
                    "ticks": 262560,
                    "time": 136.75,
                    "velocity": 1
                },
                {
                    "duration": 0.25,
                    "durationTicks": 480,
                    "midi": 65,
                    "name": "F4",
                    "ticks": 262560,
                    "time": 136.75,
                    "velocity": 1
                },
                {
                    "duration": 0.25,
                    "durationTicks": 480,
                    "midi": 48,
                    "name": "C3",
                    "ticks": 263040,
                    "time": 137,
                    "velocity": 1
                },
                {
                    "duration": 0.25,
                    "durationTicks": 480,
                    "midi": 52,
                    "name": "E3",
                    "ticks": 263040,
                    "time": 137,
                    "velocity": 1
                },
                {
                    "duration": 0.25,
                    "durationTicks": 480,
                    "midi": 55,
                    "name": "G3",
                    "ticks": 263040,
                    "time": 137,
                    "velocity": 1
                },
                {
                    "duration": 0.25,
                    "durationTicks": 480,
                    "midi": 60,
                    "name": "C4",
                    "ticks": 263040,
                    "time": 137,
                    "velocity": 1
                },
                {
                    "duration": 0.25,
                    "durationTicks": 480,
                    "midi": 64,
                    "name": "E4",
                    "ticks": 263040,
                    "time": 137,
                    "velocity": 1
                },
                {
                    "duration": 0.25,
                    "durationTicks": 480,
                    "midi": 48,
                    "name": "C3",
                    "ticks": 263520,
                    "time": 137.25,
                    "velocity": 1
                },
                {
                    "duration": 0.25,
                    "durationTicks": 480,
                    "midi": 52,
                    "name": "E3",
                    "ticks": 263520,
                    "time": 137.25,
                    "velocity": 1
                },
                {
                    "duration": 0.25,
                    "durationTicks": 480,
                    "midi": 55,
                    "name": "G3",
                    "ticks": 263520,
                    "time": 137.25,
                    "velocity": 1
                },
                {
                    "duration": 0.25,
                    "durationTicks": 480,
                    "midi": 60,
                    "name": "C4",
                    "ticks": 263520,
                    "time": 137.25,
                    "velocity": 1
                },
                {
                    "duration": 0.25,
                    "durationTicks": 480,
                    "midi": 64,
                    "name": "E4",
                    "ticks": 263520,
                    "time": 137.25,
                    "velocity": 1
                },
                {
                    "duration": 0.25,
                    "durationTicks": 480,
                    "midi": 48,
                    "name": "C3",
                    "ticks": 264000,
                    "time": 137.5,
                    "velocity": 1
                },
                {
                    "duration": 0.25,
                    "durationTicks": 480,
                    "midi": 52,
                    "name": "E3",
                    "ticks": 264000,
                    "time": 137.5,
                    "velocity": 1
                },
                {
                    "duration": 0.25,
                    "durationTicks": 480,
                    "midi": 55,
                    "name": "G3",
                    "ticks": 264000,
                    "time": 137.5,
                    "velocity": 1
                },
                {
                    "duration": 0.25,
                    "durationTicks": 480,
                    "midi": 60,
                    "name": "C4",
                    "ticks": 264000,
                    "time": 137.5,
                    "velocity": 1
                },
                {
                    "duration": 0.25,
                    "durationTicks": 480,
                    "midi": 64,
                    "name": "E4",
                    "ticks": 264000,
                    "time": 137.5,
                    "velocity": 1
                },
                {
                    "duration": 0.25,
                    "durationTicks": 480,
                    "midi": 48,
                    "name": "C3",
                    "ticks": 264480,
                    "time": 137.75,
                    "velocity": 1
                },
                {
                    "duration": 0.25,
                    "durationTicks": 480,
                    "midi": 52,
                    "name": "E3",
                    "ticks": 264480,
                    "time": 137.75,
                    "velocity": 1
                },
                {
                    "duration": 0.25,
                    "durationTicks": 480,
                    "midi": 55,
                    "name": "G3",
                    "ticks": 264480,
                    "time": 137.75,
                    "velocity": 1
                },
                {
                    "duration": 0.25,
                    "durationTicks": 480,
                    "midi": 60,
                    "name": "C4",
                    "ticks": 264480,
                    "time": 137.75,
                    "velocity": 1
                },
                {
                    "duration": 0.25,
                    "durationTicks": 480,
                    "midi": 64,
                    "name": "E4",
                    "ticks": 264480,
                    "time": 137.75,
                    "velocity": 1
                },
                {
                    "duration": 0.25,
                    "durationTicks": 480,
                    "midi": 46,
                    "name": "A#2",
                    "ticks": 264960,
                    "time": 138,
                    "velocity": 1
                },
                {
                    "duration": 0.25,
                    "durationTicks": 480,
                    "midi": 53,
                    "name": "F3",
                    "ticks": 264960,
                    "time": 138,
                    "velocity": 1
                },
                {
                    "duration": 0.25,
                    "durationTicks": 480,
                    "midi": 58,
                    "name": "A#3",
                    "ticks": 264960,
                    "time": 138,
                    "velocity": 1
                },
                {
                    "duration": 0.25,
                    "durationTicks": 480,
                    "midi": 62,
                    "name": "D4",
                    "ticks": 264960,
                    "time": 138,
                    "velocity": 1
                },
                {
                    "duration": 0.25,
                    "durationTicks": 480,
                    "midi": 46,
                    "name": "A#2",
                    "ticks": 265440,
                    "time": 138.25,
                    "velocity": 1
                },
                {
                    "duration": 0.25,
                    "durationTicks": 480,
                    "midi": 53,
                    "name": "F3",
                    "ticks": 265440,
                    "time": 138.25,
                    "velocity": 1
                },
                {
                    "duration": 0.25,
                    "durationTicks": 480,
                    "midi": 58,
                    "name": "A#3",
                    "ticks": 265440,
                    "time": 138.25,
                    "velocity": 1
                },
                {
                    "duration": 0.25,
                    "durationTicks": 480,
                    "midi": 62,
                    "name": "D4",
                    "ticks": 265440,
                    "time": 138.25,
                    "velocity": 1
                },
                {
                    "duration": 0.25,
                    "durationTicks": 480,
                    "midi": 46,
                    "name": "A#2",
                    "ticks": 265920,
                    "time": 138.5,
                    "velocity": 1
                },
                {
                    "duration": 0.25,
                    "durationTicks": 480,
                    "midi": 53,
                    "name": "F3",
                    "ticks": 265920,
                    "time": 138.5,
                    "velocity": 1
                },
                {
                    "duration": 0.25,
                    "durationTicks": 480,
                    "midi": 58,
                    "name": "A#3",
                    "ticks": 265920,
                    "time": 138.5,
                    "velocity": 1
                },
                {
                    "duration": 0.25,
                    "durationTicks": 480,
                    "midi": 62,
                    "name": "D4",
                    "ticks": 265920,
                    "time": 138.5,
                    "velocity": 1
                },
                {
                    "duration": 0.25,
                    "durationTicks": 480,
                    "midi": 46,
                    "name": "A#2",
                    "ticks": 266400,
                    "time": 138.75,
                    "velocity": 1
                },
                {
                    "duration": 0.25,
                    "durationTicks": 480,
                    "midi": 53,
                    "name": "F3",
                    "ticks": 266400,
                    "time": 138.75,
                    "velocity": 1
                },
                {
                    "duration": 0.25,
                    "durationTicks": 480,
                    "midi": 58,
                    "name": "A#3",
                    "ticks": 266400,
                    "time": 138.75,
                    "velocity": 1
                },
                {
                    "duration": 0.25,
                    "durationTicks": 480,
                    "midi": 62,
                    "name": "D4",
                    "ticks": 266400,
                    "time": 138.75,
                    "velocity": 1
                },
                {
                    "duration": 0.25,
                    "durationTicks": 480,
                    "midi": 65,
                    "name": "F4",
                    "ticks": 266880,
                    "time": 139,
                    "velocity": 1
                },
                {
                    "duration": 0.25,
                    "durationTicks": 480,
                    "midi": 60,
                    "name": "C4",
                    "ticks": 266880,
                    "time": 139,
                    "velocity": 1
                },
                {
                    "duration": 0.25,
                    "durationTicks": 480,
                    "midi": 57,
                    "name": "A3",
                    "ticks": 266880,
                    "time": 139,
                    "velocity": 1
                },
                {
                    "duration": 0.25,
                    "durationTicks": 480,
                    "midi": 53,
                    "name": "F3",
                    "ticks": 266880,
                    "time": 139,
                    "velocity": 1
                },
                {
                    "duration": 0.25,
                    "durationTicks": 480,
                    "midi": 48,
                    "name": "C3",
                    "ticks": 266880,
                    "time": 139,
                    "velocity": 1
                },
                {
                    "duration": 0.25,
                    "durationTicks": 480,
                    "midi": 41,
                    "name": "F2",
                    "ticks": 266880,
                    "time": 139,
                    "velocity": 1
                },
                {
                    "duration": 0.25,
                    "durationTicks": 480,
                    "midi": 41,
                    "name": "F2",
                    "ticks": 267360,
                    "time": 139.25,
                    "velocity": 1
                },
                {
                    "duration": 0.25,
                    "durationTicks": 480,
                    "midi": 48,
                    "name": "C3",
                    "ticks": 267360,
                    "time": 139.25,
                    "velocity": 1
                },
                {
                    "duration": 0.25,
                    "durationTicks": 480,
                    "midi": 53,
                    "name": "F3",
                    "ticks": 267360,
                    "time": 139.25,
                    "velocity": 1
                },
                {
                    "duration": 0.25,
                    "durationTicks": 480,
                    "midi": 57,
                    "name": "A3",
                    "ticks": 267360,
                    "time": 139.25,
                    "velocity": 1
                },
                {
                    "duration": 0.25,
                    "durationTicks": 480,
                    "midi": 60,
                    "name": "C4",
                    "ticks": 267360,
                    "time": 139.25,
                    "velocity": 1
                },
                {
                    "duration": 0.25,
                    "durationTicks": 480,
                    "midi": 65,
                    "name": "F4",
                    "ticks": 267360,
                    "time": 139.25,
                    "velocity": 1
                },
                {
                    "duration": 0.25,
                    "durationTicks": 480,
                    "midi": 41,
                    "name": "F2",
                    "ticks": 267840,
                    "time": 139.5,
                    "velocity": 1
                },
                {
                    "duration": 0.25,
                    "durationTicks": 480,
                    "midi": 48,
                    "name": "C3",
                    "ticks": 267840,
                    "time": 139.5,
                    "velocity": 1
                },
                {
                    "duration": 0.25,
                    "durationTicks": 480,
                    "midi": 53,
                    "name": "F3",
                    "ticks": 267840,
                    "time": 139.5,
                    "velocity": 1
                },
                {
                    "duration": 0.25,
                    "durationTicks": 480,
                    "midi": 57,
                    "name": "A3",
                    "ticks": 267840,
                    "time": 139.5,
                    "velocity": 1
                },
                {
                    "duration": 0.25,
                    "durationTicks": 480,
                    "midi": 60,
                    "name": "C4",
                    "ticks": 267840,
                    "time": 139.5,
                    "velocity": 1
                },
                {
                    "duration": 0.25,
                    "durationTicks": 480,
                    "midi": 65,
                    "name": "F4",
                    "ticks": 267840,
                    "time": 139.5,
                    "velocity": 1
                },
                {
                    "duration": 0.25,
                    "durationTicks": 480,
                    "midi": 41,
                    "name": "F2",
                    "ticks": 268320,
                    "time": 139.75,
                    "velocity": 1
                },
                {
                    "duration": 0.25,
                    "durationTicks": 480,
                    "midi": 48,
                    "name": "C3",
                    "ticks": 268320,
                    "time": 139.75,
                    "velocity": 1
                },
                {
                    "duration": 0.25,
                    "durationTicks": 480,
                    "midi": 53,
                    "name": "F3",
                    "ticks": 268320,
                    "time": 139.75,
                    "velocity": 1
                },
                {
                    "duration": 0.25,
                    "durationTicks": 480,
                    "midi": 57,
                    "name": "A3",
                    "ticks": 268320,
                    "time": 139.75,
                    "velocity": 1
                },
                {
                    "duration": 0.25,
                    "durationTicks": 480,
                    "midi": 60,
                    "name": "C4",
                    "ticks": 268320,
                    "time": 139.75,
                    "velocity": 1
                },
                {
                    "duration": 0.25,
                    "durationTicks": 480,
                    "midi": 65,
                    "name": "F4",
                    "ticks": 268320,
                    "time": 139.75,
                    "velocity": 1
                },
                {
                    "duration": 0.25,
                    "durationTicks": 480,
                    "midi": 65,
                    "name": "F4",
                    "ticks": 268800,
                    "time": 140,
                    "velocity": 1
                },
                {
                    "duration": 0.25,
                    "durationTicks": 480,
                    "midi": 60,
                    "name": "C4",
                    "ticks": 268800,
                    "time": 140,
                    "velocity": 1
                },
                {
                    "duration": 0.25,
                    "durationTicks": 480,
                    "midi": 57,
                    "name": "A3",
                    "ticks": 268800,
                    "time": 140,
                    "velocity": 1
                },
                {
                    "duration": 0.25,
                    "durationTicks": 480,
                    "midi": 53,
                    "name": "F3",
                    "ticks": 268800,
                    "time": 140,
                    "velocity": 1
                },
                {
                    "duration": 0.25,
                    "durationTicks": 480,
                    "midi": 48,
                    "name": "C3",
                    "ticks": 268800,
                    "time": 140,
                    "velocity": 1
                },
                {
                    "duration": 0.25,
                    "durationTicks": 480,
                    "midi": 41,
                    "name": "F2",
                    "ticks": 268800,
                    "time": 140,
                    "velocity": 1
                },
                {
                    "duration": 0.25,
                    "durationTicks": 480,
                    "midi": 41,
                    "name": "F2",
                    "ticks": 269280,
                    "time": 140.25,
                    "velocity": 1
                },
                {
                    "duration": 0.25,
                    "durationTicks": 480,
                    "midi": 48,
                    "name": "C3",
                    "ticks": 269280,
                    "time": 140.25,
                    "velocity": 1
                },
                {
                    "duration": 0.25,
                    "durationTicks": 480,
                    "midi": 53,
                    "name": "F3",
                    "ticks": 269280,
                    "time": 140.25,
                    "velocity": 1
                },
                {
                    "duration": 0.25,
                    "durationTicks": 480,
                    "midi": 57,
                    "name": "A3",
                    "ticks": 269280,
                    "time": 140.25,
                    "velocity": 1
                },
                {
                    "duration": 0.25,
                    "durationTicks": 480,
                    "midi": 60,
                    "name": "C4",
                    "ticks": 269280,
                    "time": 140.25,
                    "velocity": 1
                },
                {
                    "duration": 0.25,
                    "durationTicks": 480,
                    "midi": 65,
                    "name": "F4",
                    "ticks": 269280,
                    "time": 140.25,
                    "velocity": 1
                },
                {
                    "duration": 0.25,
                    "durationTicks": 480,
                    "midi": 41,
                    "name": "F2",
                    "ticks": 269760,
                    "time": 140.5,
                    "velocity": 1
                },
                {
                    "duration": 0.25,
                    "durationTicks": 480,
                    "midi": 48,
                    "name": "C3",
                    "ticks": 269760,
                    "time": 140.5,
                    "velocity": 1
                },
                {
                    "duration": 0.25,
                    "durationTicks": 480,
                    "midi": 53,
                    "name": "F3",
                    "ticks": 269760,
                    "time": 140.5,
                    "velocity": 1
                },
                {
                    "duration": 0.25,
                    "durationTicks": 480,
                    "midi": 57,
                    "name": "A3",
                    "ticks": 269760,
                    "time": 140.5,
                    "velocity": 1
                },
                {
                    "duration": 0.25,
                    "durationTicks": 480,
                    "midi": 60,
                    "name": "C4",
                    "ticks": 269760,
                    "time": 140.5,
                    "velocity": 1
                },
                {
                    "duration": 0.25,
                    "durationTicks": 480,
                    "midi": 65,
                    "name": "F4",
                    "ticks": 269760,
                    "time": 140.5,
                    "velocity": 1
                },
                {
                    "duration": 0.25,
                    "durationTicks": 480,
                    "midi": 41,
                    "name": "F2",
                    "ticks": 270240,
                    "time": 140.75,
                    "velocity": 1
                },
                {
                    "duration": 0.25,
                    "durationTicks": 480,
                    "midi": 48,
                    "name": "C3",
                    "ticks": 270240,
                    "time": 140.75,
                    "velocity": 1
                },
                {
                    "duration": 0.25,
                    "durationTicks": 480,
                    "midi": 53,
                    "name": "F3",
                    "ticks": 270240,
                    "time": 140.75,
                    "velocity": 1
                },
                {
                    "duration": 0.25,
                    "durationTicks": 480,
                    "midi": 57,
                    "name": "A3",
                    "ticks": 270240,
                    "time": 140.75,
                    "velocity": 1
                },
                {
                    "duration": 0.25,
                    "durationTicks": 480,
                    "midi": 60,
                    "name": "C4",
                    "ticks": 270240,
                    "time": 140.75,
                    "velocity": 1
                },
                {
                    "duration": 0.25,
                    "durationTicks": 480,
                    "midi": 65,
                    "name": "F4",
                    "ticks": 270240,
                    "time": 140.75,
                    "velocity": 1
                },
                {
                    "duration": 0.25,
                    "durationTicks": 480,
                    "midi": 48,
                    "name": "C3",
                    "ticks": 270720,
                    "time": 141,
                    "velocity": 1
                },
                {
                    "duration": 0.25,
                    "durationTicks": 480,
                    "midi": 52,
                    "name": "E3",
                    "ticks": 270720,
                    "time": 141,
                    "velocity": 1
                },
                {
                    "duration": 0.25,
                    "durationTicks": 480,
                    "midi": 55,
                    "name": "G3",
                    "ticks": 270720,
                    "time": 141,
                    "velocity": 1
                },
                {
                    "duration": 0.25,
                    "durationTicks": 480,
                    "midi": 60,
                    "name": "C4",
                    "ticks": 270720,
                    "time": 141,
                    "velocity": 1
                },
                {
                    "duration": 0.25,
                    "durationTicks": 480,
                    "midi": 64,
                    "name": "E4",
                    "ticks": 270720,
                    "time": 141,
                    "velocity": 1
                },
                {
                    "duration": 0.25,
                    "durationTicks": 480,
                    "midi": 48,
                    "name": "C3",
                    "ticks": 271200,
                    "time": 141.25,
                    "velocity": 1
                },
                {
                    "duration": 0.25,
                    "durationTicks": 480,
                    "midi": 52,
                    "name": "E3",
                    "ticks": 271200,
                    "time": 141.25,
                    "velocity": 1
                },
                {
                    "duration": 0.25,
                    "durationTicks": 480,
                    "midi": 55,
                    "name": "G3",
                    "ticks": 271200,
                    "time": 141.25,
                    "velocity": 1
                },
                {
                    "duration": 0.25,
                    "durationTicks": 480,
                    "midi": 60,
                    "name": "C4",
                    "ticks": 271200,
                    "time": 141.25,
                    "velocity": 1
                },
                {
                    "duration": 0.25,
                    "durationTicks": 480,
                    "midi": 64,
                    "name": "E4",
                    "ticks": 271200,
                    "time": 141.25,
                    "velocity": 1
                },
                {
                    "duration": 0.25,
                    "durationTicks": 480,
                    "midi": 48,
                    "name": "C3",
                    "ticks": 271680,
                    "time": 141.5,
                    "velocity": 1
                },
                {
                    "duration": 0.25,
                    "durationTicks": 480,
                    "midi": 52,
                    "name": "E3",
                    "ticks": 271680,
                    "time": 141.5,
                    "velocity": 1
                },
                {
                    "duration": 0.25,
                    "durationTicks": 480,
                    "midi": 55,
                    "name": "G3",
                    "ticks": 271680,
                    "time": 141.5,
                    "velocity": 1
                },
                {
                    "duration": 0.25,
                    "durationTicks": 480,
                    "midi": 60,
                    "name": "C4",
                    "ticks": 271680,
                    "time": 141.5,
                    "velocity": 1
                },
                {
                    "duration": 0.25,
                    "durationTicks": 480,
                    "midi": 64,
                    "name": "E4",
                    "ticks": 271680,
                    "time": 141.5,
                    "velocity": 1
                },
                {
                    "duration": 0.25,
                    "durationTicks": 480,
                    "midi": 48,
                    "name": "C3",
                    "ticks": 272160,
                    "time": 141.75,
                    "velocity": 1
                },
                {
                    "duration": 0.25,
                    "durationTicks": 480,
                    "midi": 52,
                    "name": "E3",
                    "ticks": 272160,
                    "time": 141.75,
                    "velocity": 1
                },
                {
                    "duration": 0.25,
                    "durationTicks": 480,
                    "midi": 55,
                    "name": "G3",
                    "ticks": 272160,
                    "time": 141.75,
                    "velocity": 1
                },
                {
                    "duration": 0.25,
                    "durationTicks": 480,
                    "midi": 60,
                    "name": "C4",
                    "ticks": 272160,
                    "time": 141.75,
                    "velocity": 1
                },
                {
                    "duration": 0.25,
                    "durationTicks": 480,
                    "midi": 64,
                    "name": "E4",
                    "ticks": 272160,
                    "time": 141.75,
                    "velocity": 1
                },
                {
                    "duration": 0.25,
                    "durationTicks": 480,
                    "midi": 46,
                    "name": "A#2",
                    "ticks": 272640,
                    "time": 142,
                    "velocity": 1
                },
                {
                    "duration": 0.25,
                    "durationTicks": 480,
                    "midi": 53,
                    "name": "F3",
                    "ticks": 272640,
                    "time": 142,
                    "velocity": 1
                },
                {
                    "duration": 0.25,
                    "durationTicks": 480,
                    "midi": 58,
                    "name": "A#3",
                    "ticks": 272640,
                    "time": 142,
                    "velocity": 1
                },
                {
                    "duration": 0.25,
                    "durationTicks": 480,
                    "midi": 62,
                    "name": "D4",
                    "ticks": 272640,
                    "time": 142,
                    "velocity": 1
                },
                {
                    "duration": 0.25,
                    "durationTicks": 480,
                    "midi": 46,
                    "name": "A#2",
                    "ticks": 273120,
                    "time": 142.25,
                    "velocity": 1
                },
                {
                    "duration": 0.25,
                    "durationTicks": 480,
                    "midi": 53,
                    "name": "F3",
                    "ticks": 273120,
                    "time": 142.25,
                    "velocity": 1
                },
                {
                    "duration": 0.25,
                    "durationTicks": 480,
                    "midi": 58,
                    "name": "A#3",
                    "ticks": 273120,
                    "time": 142.25,
                    "velocity": 1
                },
                {
                    "duration": 0.25,
                    "durationTicks": 480,
                    "midi": 62,
                    "name": "D4",
                    "ticks": 273120,
                    "time": 142.25,
                    "velocity": 1
                },
                {
                    "duration": 0.25,
                    "durationTicks": 480,
                    "midi": 46,
                    "name": "A#2",
                    "ticks": 273600,
                    "time": 142.5,
                    "velocity": 1
                },
                {
                    "duration": 0.25,
                    "durationTicks": 480,
                    "midi": 53,
                    "name": "F3",
                    "ticks": 273600,
                    "time": 142.5,
                    "velocity": 1
                },
                {
                    "duration": 0.25,
                    "durationTicks": 480,
                    "midi": 58,
                    "name": "A#3",
                    "ticks": 273600,
                    "time": 142.5,
                    "velocity": 1
                },
                {
                    "duration": 0.25,
                    "durationTicks": 480,
                    "midi": 62,
                    "name": "D4",
                    "ticks": 273600,
                    "time": 142.5,
                    "velocity": 1
                },
                {
                    "duration": 0.25,
                    "durationTicks": 480,
                    "midi": 46,
                    "name": "A#2",
                    "ticks": 274080,
                    "time": 142.75,
                    "velocity": 1
                },
                {
                    "duration": 0.25,
                    "durationTicks": 480,
                    "midi": 53,
                    "name": "F3",
                    "ticks": 274080,
                    "time": 142.75,
                    "velocity": 1
                },
                {
                    "duration": 0.25,
                    "durationTicks": 480,
                    "midi": 58,
                    "name": "A#3",
                    "ticks": 274080,
                    "time": 142.75,
                    "velocity": 1
                },
                {
                    "duration": 0.25,
                    "durationTicks": 480,
                    "midi": 62,
                    "name": "D4",
                    "ticks": 274080,
                    "time": 142.75,
                    "velocity": 1
                },
                {
                    "duration": 0.25,
                    "durationTicks": 480,
                    "midi": 65,
                    "name": "F4",
                    "ticks": 274560,
                    "time": 143,
                    "velocity": 1
                },
                {
                    "duration": 0.25,
                    "durationTicks": 480,
                    "midi": 60,
                    "name": "C4",
                    "ticks": 274560,
                    "time": 143,
                    "velocity": 1
                },
                {
                    "duration": 0.25,
                    "durationTicks": 480,
                    "midi": 57,
                    "name": "A3",
                    "ticks": 274560,
                    "time": 143,
                    "velocity": 1
                },
                {
                    "duration": 0.25,
                    "durationTicks": 480,
                    "midi": 53,
                    "name": "F3",
                    "ticks": 274560,
                    "time": 143,
                    "velocity": 1
                },
                {
                    "duration": 0.25,
                    "durationTicks": 480,
                    "midi": 48,
                    "name": "C3",
                    "ticks": 274560,
                    "time": 143,
                    "velocity": 1
                },
                {
                    "duration": 0.25,
                    "durationTicks": 480,
                    "midi": 41,
                    "name": "F2",
                    "ticks": 274560,
                    "time": 143,
                    "velocity": 1
                },
                {
                    "duration": 0.25,
                    "durationTicks": 480,
                    "midi": 41,
                    "name": "F2",
                    "ticks": 275040,
                    "time": 143.25,
                    "velocity": 1
                },
                {
                    "duration": 0.25,
                    "durationTicks": 480,
                    "midi": 48,
                    "name": "C3",
                    "ticks": 275040,
                    "time": 143.25,
                    "velocity": 1
                },
                {
                    "duration": 0.25,
                    "durationTicks": 480,
                    "midi": 53,
                    "name": "F3",
                    "ticks": 275040,
                    "time": 143.25,
                    "velocity": 1
                },
                {
                    "duration": 0.25,
                    "durationTicks": 480,
                    "midi": 57,
                    "name": "A3",
                    "ticks": 275040,
                    "time": 143.25,
                    "velocity": 1
                },
                {
                    "duration": 0.25,
                    "durationTicks": 480,
                    "midi": 60,
                    "name": "C4",
                    "ticks": 275040,
                    "time": 143.25,
                    "velocity": 1
                },
                {
                    "duration": 0.25,
                    "durationTicks": 480,
                    "midi": 65,
                    "name": "F4",
                    "ticks": 275040,
                    "time": 143.25,
                    "velocity": 1
                },
                {
                    "duration": 0.25,
                    "durationTicks": 480,
                    "midi": 41,
                    "name": "F2",
                    "ticks": 275520,
                    "time": 143.5,
                    "velocity": 1
                },
                {
                    "duration": 0.25,
                    "durationTicks": 480,
                    "midi": 48,
                    "name": "C3",
                    "ticks": 275520,
                    "time": 143.5,
                    "velocity": 1
                },
                {
                    "duration": 0.25,
                    "durationTicks": 480,
                    "midi": 53,
                    "name": "F3",
                    "ticks": 275520,
                    "time": 143.5,
                    "velocity": 1
                },
                {
                    "duration": 0.25,
                    "durationTicks": 480,
                    "midi": 57,
                    "name": "A3",
                    "ticks": 275520,
                    "time": 143.5,
                    "velocity": 1
                },
                {
                    "duration": 0.25,
                    "durationTicks": 480,
                    "midi": 60,
                    "name": "C4",
                    "ticks": 275520,
                    "time": 143.5,
                    "velocity": 1
                },
                {
                    "duration": 0.25,
                    "durationTicks": 480,
                    "midi": 65,
                    "name": "F4",
                    "ticks": 275520,
                    "time": 143.5,
                    "velocity": 1
                },
                {
                    "duration": 0.25,
                    "durationTicks": 480,
                    "midi": 41,
                    "name": "F2",
                    "ticks": 276000,
                    "time": 143.75,
                    "velocity": 1
                },
                {
                    "duration": 0.25,
                    "durationTicks": 480,
                    "midi": 48,
                    "name": "C3",
                    "ticks": 276000,
                    "time": 143.75,
                    "velocity": 1
                },
                {
                    "duration": 0.25,
                    "durationTicks": 480,
                    "midi": 53,
                    "name": "F3",
                    "ticks": 276000,
                    "time": 143.75,
                    "velocity": 1
                },
                {
                    "duration": 0.25,
                    "durationTicks": 480,
                    "midi": 57,
                    "name": "A3",
                    "ticks": 276000,
                    "time": 143.75,
                    "velocity": 1
                },
                {
                    "duration": 0.25,
                    "durationTicks": 480,
                    "midi": 60,
                    "name": "C4",
                    "ticks": 276000,
                    "time": 143.75,
                    "velocity": 1
                },
                {
                    "duration": 0.25,
                    "durationTicks": 480,
                    "midi": 65,
                    "name": "F4",
                    "ticks": 276000,
                    "time": 143.75,
                    "velocity": 1
                },
                {
                    "duration": 0.5,
                    "durationTicks": 960,
                    "midi": 43,
                    "name": "G2",
                    "ticks": 276480,
                    "time": 144,
                    "velocity": 1
                },
                {
                    "duration": 0.5,
                    "durationTicks": 960,
                    "midi": 55,
                    "name": "G3",
                    "ticks": 276480,
                    "time": 144,
                    "velocity": 1
                },
                {
                    "duration": 0.5,
                    "durationTicks": 960,
                    "midi": 58,
                    "name": "A#3",
                    "ticks": 276480,
                    "time": 144,
                    "velocity": 1
                },
                {
                    "duration": 0.5,
                    "durationTicks": 960,
                    "midi": 62,
                    "name": "D4",
                    "ticks": 276480,
                    "time": 144,
                    "velocity": 1
                },
                {
                    "duration": 0.5,
                    "durationTicks": 960,
                    "midi": 67,
                    "name": "G4",
                    "ticks": 276480,
                    "time": 144,
                    "velocity": 1
                },
                {
                    "duration": 0.75,
                    "durationTicks": 1440,
                    "midi": 50,
                    "name": "D3",
                    "ticks": 276480,
                    "time": 144,
                    "velocity": 1
                },
                {
                    "duration": 0.25,
                    "durationTicks": 480,
                    "midi": 67,
                    "name": "G4",
                    "ticks": 277440,
                    "time": 144.5,
                    "velocity": 1
                },
                {
                    "duration": 0.25,
                    "durationTicks": 480,
                    "midi": 62,
                    "name": "D4",
                    "ticks": 277440,
                    "time": 144.5,
                    "velocity": 1
                },
                {
                    "duration": 0.25,
                    "durationTicks": 480,
                    "midi": 58,
                    "name": "A#3",
                    "ticks": 277440,
                    "time": 144.5,
                    "velocity": 1
                },
                {
                    "duration": 0.25,
                    "durationTicks": 480,
                    "midi": 55,
                    "name": "G3",
                    "ticks": 277440,
                    "time": 144.5,
                    "velocity": 1
                },
                {
                    "duration": 0.25,
                    "durationTicks": 480,
                    "midi": 43,
                    "name": "G2",
                    "ticks": 277440,
                    "time": 144.5,
                    "velocity": 1
                },
                {
                    "duration": 0.5,
                    "durationTicks": 960,
                    "midi": 50,
                    "name": "D3",
                    "ticks": 277440,
                    "time": 144.5,
                    "velocity": 1
                },
                {
                    "duration": 0.25,
                    "durationTicks": 480,
                    "midi": 67,
                    "name": "G4",
                    "ticks": 277920,
                    "time": 144.75,
                    "velocity": 1
                },
                {
                    "duration": 0.25,
                    "durationTicks": 480,
                    "midi": 62,
                    "name": "D4",
                    "ticks": 277920,
                    "time": 144.75,
                    "velocity": 1
                },
                {
                    "duration": 0.25,
                    "durationTicks": 480,
                    "midi": 58,
                    "name": "A#3",
                    "ticks": 277920,
                    "time": 144.75,
                    "velocity": 1
                },
                {
                    "duration": 0.25,
                    "durationTicks": 480,
                    "midi": 55,
                    "name": "G3",
                    "ticks": 277920,
                    "time": 144.75,
                    "velocity": 1
                },
                {
                    "duration": 0.25,
                    "durationTicks": 480,
                    "midi": 43,
                    "name": "G2",
                    "ticks": 277920,
                    "time": 144.75,
                    "velocity": 1
                },
                {
                    "duration": 2.75,
                    "durationTicks": 5280,
                    "midi": 50,
                    "name": "D3",
                    "ticks": 277920,
                    "time": 144.75,
                    "velocity": 1
                },
                {
                    "duration": 0.5,
                    "durationTicks": 960,
                    "midi": 48,
                    "name": "C3",
                    "ticks": 278400,
                    "time": 145,
                    "velocity": 1
                },
                {
                    "duration": 0.5,
                    "durationTicks": 960,
                    "midi": 52,
                    "name": "E3",
                    "ticks": 278400,
                    "time": 145,
                    "velocity": 1
                },
                {
                    "duration": 0.5,
                    "durationTicks": 960,
                    "midi": 55,
                    "name": "G3",
                    "ticks": 278400,
                    "time": 145,
                    "velocity": 1
                },
                {
                    "duration": 0.5,
                    "durationTicks": 960,
                    "midi": 60,
                    "name": "C4",
                    "ticks": 278400,
                    "time": 145,
                    "velocity": 1
                },
                {
                    "duration": 0.5,
                    "durationTicks": 960,
                    "midi": 64,
                    "name": "E4",
                    "ticks": 278400,
                    "time": 145,
                    "velocity": 1
                },
                {
                    "duration": 0.25,
                    "durationTicks": 480,
                    "midi": 64,
                    "name": "E4",
                    "ticks": 279360,
                    "time": 145.5,
                    "velocity": 1
                },
                {
                    "duration": 0.25,
                    "durationTicks": 480,
                    "midi": 60,
                    "name": "C4",
                    "ticks": 279360,
                    "time": 145.5,
                    "velocity": 1
                },
                {
                    "duration": 0.25,
                    "durationTicks": 480,
                    "midi": 55,
                    "name": "G3",
                    "ticks": 279360,
                    "time": 145.5,
                    "velocity": 1
                },
                {
                    "duration": 0.25,
                    "durationTicks": 480,
                    "midi": 52,
                    "name": "E3",
                    "ticks": 279360,
                    "time": 145.5,
                    "velocity": 1
                },
                {
                    "duration": 0.25,
                    "durationTicks": 480,
                    "midi": 48,
                    "name": "C3",
                    "ticks": 279360,
                    "time": 145.5,
                    "velocity": 1
                },
                {
                    "duration": 0.25,
                    "durationTicks": 480,
                    "midi": 64,
                    "name": "E4",
                    "ticks": 279840,
                    "time": 145.75,
                    "velocity": 1
                },
                {
                    "duration": 0.25,
                    "durationTicks": 480,
                    "midi": 60,
                    "name": "C4",
                    "ticks": 279840,
                    "time": 145.75,
                    "velocity": 1
                },
                {
                    "duration": 0.25,
                    "durationTicks": 480,
                    "midi": 55,
                    "name": "G3",
                    "ticks": 279840,
                    "time": 145.75,
                    "velocity": 1
                },
                {
                    "duration": 0.25,
                    "durationTicks": 480,
                    "midi": 52,
                    "name": "E3",
                    "ticks": 279840,
                    "time": 145.75,
                    "velocity": 1
                },
                {
                    "duration": 0.25,
                    "durationTicks": 480,
                    "midi": 48,
                    "name": "C3",
                    "ticks": 279840,
                    "time": 145.75,
                    "velocity": 1
                },
                {
                    "duration": 0.5,
                    "durationTicks": 960,
                    "midi": 41,
                    "name": "F2",
                    "ticks": 280320,
                    "time": 146,
                    "velocity": 1
                },
                {
                    "duration": 0.5,
                    "durationTicks": 960,
                    "midi": 48,
                    "name": "C3",
                    "ticks": 280320,
                    "time": 146,
                    "velocity": 1
                },
                {
                    "duration": 0.5,
                    "durationTicks": 960,
                    "midi": 53,
                    "name": "F3",
                    "ticks": 280320,
                    "time": 146,
                    "velocity": 1
                },
                {
                    "duration": 0.5,
                    "durationTicks": 960,
                    "midi": 57,
                    "name": "A3",
                    "ticks": 280320,
                    "time": 146,
                    "velocity": 1
                },
                {
                    "duration": 0.5,
                    "durationTicks": 960,
                    "midi": 60,
                    "name": "C4",
                    "ticks": 280320,
                    "time": 146,
                    "velocity": 1
                },
                {
                    "duration": 0.5,
                    "durationTicks": 960,
                    "midi": 65,
                    "name": "F4",
                    "ticks": 280320,
                    "time": 146,
                    "velocity": 1
                },
                {
                    "duration": 0.25,
                    "durationTicks": 480,
                    "midi": 65,
                    "name": "F4",
                    "ticks": 281280,
                    "time": 146.5,
                    "velocity": 1
                },
                {
                    "duration": 0.25,
                    "durationTicks": 480,
                    "midi": 60,
                    "name": "C4",
                    "ticks": 281280,
                    "time": 146.5,
                    "velocity": 1
                },
                {
                    "duration": 0.25,
                    "durationTicks": 480,
                    "midi": 57,
                    "name": "A3",
                    "ticks": 281280,
                    "time": 146.5,
                    "velocity": 1
                },
                {
                    "duration": 0.25,
                    "durationTicks": 480,
                    "midi": 53,
                    "name": "F3",
                    "ticks": 281280,
                    "time": 146.5,
                    "velocity": 1
                },
                {
                    "duration": 0.25,
                    "durationTicks": 480,
                    "midi": 48,
                    "name": "C3",
                    "ticks": 281280,
                    "time": 146.5,
                    "velocity": 1
                },
                {
                    "duration": 0.25,
                    "durationTicks": 480,
                    "midi": 41,
                    "name": "F2",
                    "ticks": 281280,
                    "time": 146.5,
                    "velocity": 1
                },
                {
                    "duration": 0.25,
                    "durationTicks": 480,
                    "midi": 65,
                    "name": "F4",
                    "ticks": 281760,
                    "time": 146.75,
                    "velocity": 1
                },
                {
                    "duration": 0.25,
                    "durationTicks": 480,
                    "midi": 60,
                    "name": "C4",
                    "ticks": 281760,
                    "time": 146.75,
                    "velocity": 1
                },
                {
                    "duration": 0.25,
                    "durationTicks": 480,
                    "midi": 57,
                    "name": "A3",
                    "ticks": 281760,
                    "time": 146.75,
                    "velocity": 1
                },
                {
                    "duration": 0.25,
                    "durationTicks": 480,
                    "midi": 53,
                    "name": "F3",
                    "ticks": 281760,
                    "time": 146.75,
                    "velocity": 1
                },
                {
                    "duration": 0.25,
                    "durationTicks": 480,
                    "midi": 48,
                    "name": "C3",
                    "ticks": 281760,
                    "time": 146.75,
                    "velocity": 1
                },
                {
                    "duration": 0.25,
                    "durationTicks": 480,
                    "midi": 41,
                    "name": "F2",
                    "ticks": 281760,
                    "time": 146.75,
                    "velocity": 1
                },
                {
                    "duration": 0.5,
                    "durationTicks": 960,
                    "midi": 57,
                    "name": "A3",
                    "ticks": 282240,
                    "time": 147,
                    "velocity": 1
                },
                {
                    "duration": 0.5,
                    "durationTicks": 960,
                    "midi": 62,
                    "name": "D4",
                    "ticks": 282240,
                    "time": 147,
                    "velocity": 1
                },
                {
                    "duration": 0.5,
                    "durationTicks": 960,
                    "midi": 65,
                    "name": "F4",
                    "ticks": 282240,
                    "time": 147,
                    "velocity": 1
                },
                {
                    "duration": 0.75,
                    "durationTicks": 1440,
                    "midi": 50,
                    "name": "D3",
                    "ticks": 282240,
                    "time": 147,
                    "velocity": 1
                },
                {
                    "duration": 0.25,
                    "durationTicks": 480,
                    "midi": 65,
                    "name": "F4",
                    "ticks": 283200,
                    "time": 147.5,
                    "velocity": 1
                },
                {
                    "duration": 0.25,
                    "durationTicks": 480,
                    "midi": 62,
                    "name": "D4",
                    "ticks": 283200,
                    "time": 147.5,
                    "velocity": 1
                },
                {
                    "duration": 0.25,
                    "durationTicks": 480,
                    "midi": 57,
                    "name": "A3",
                    "ticks": 283200,
                    "time": 147.5,
                    "velocity": 1
                },
                {
                    "duration": 0.5,
                    "durationTicks": 960,
                    "midi": 50,
                    "name": "D3",
                    "ticks": 283200,
                    "time": 147.5,
                    "velocity": 1
                },
                {
                    "duration": 0.25,
                    "durationTicks": 480,
                    "midi": 65,
                    "name": "F4",
                    "ticks": 283680,
                    "time": 147.75,
                    "velocity": 1
                },
                {
                    "duration": 0.25,
                    "durationTicks": 480,
                    "midi": 62,
                    "name": "D4",
                    "ticks": 283680,
                    "time": 147.75,
                    "velocity": 1
                },
                {
                    "duration": 0.25,
                    "durationTicks": 480,
                    "midi": 57,
                    "name": "A3",
                    "ticks": 283680,
                    "time": 147.75,
                    "velocity": 1
                },
                {
                    "duration": 2.75,
                    "durationTicks": 5280,
                    "midi": 50,
                    "name": "D3",
                    "ticks": 283680,
                    "time": 147.75,
                    "velocity": 1
                },
                {
                    "duration": 0.5,
                    "durationTicks": 960,
                    "midi": 62,
                    "name": "D4",
                    "ticks": 284160,
                    "time": 148,
                    "velocity": 1
                },
                {
                    "duration": 0.5,
                    "durationTicks": 960,
                    "midi": 46,
                    "name": "A#2",
                    "ticks": 284160,
                    "time": 148,
                    "velocity": 1
                },
                {
                    "duration": 0.5,
                    "durationTicks": 960,
                    "midi": 53,
                    "name": "F3",
                    "ticks": 284160,
                    "time": 148,
                    "velocity": 1
                },
                {
                    "duration": 0.5,
                    "durationTicks": 960,
                    "midi": 58,
                    "name": "A#3",
                    "ticks": 284160,
                    "time": 148,
                    "velocity": 1
                },
                {
                    "duration": 0.25,
                    "durationTicks": 480,
                    "midi": 62,
                    "name": "D4",
                    "ticks": 285120,
                    "time": 148.5,
                    "velocity": 1
                },
                {
                    "duration": 0.25,
                    "durationTicks": 480,
                    "midi": 58,
                    "name": "A#3",
                    "ticks": 285120,
                    "time": 148.5,
                    "velocity": 1
                },
                {
                    "duration": 0.25,
                    "durationTicks": 480,
                    "midi": 53,
                    "name": "F3",
                    "ticks": 285120,
                    "time": 148.5,
                    "velocity": 1
                },
                {
                    "duration": 0.25,
                    "durationTicks": 480,
                    "midi": 46,
                    "name": "A#2",
                    "ticks": 285120,
                    "time": 148.5,
                    "velocity": 1
                },
                {
                    "duration": 0.25,
                    "durationTicks": 480,
                    "midi": 62,
                    "name": "D4",
                    "ticks": 285600,
                    "time": 148.75,
                    "velocity": 1
                },
                {
                    "duration": 0.25,
                    "durationTicks": 480,
                    "midi": 58,
                    "name": "A#3",
                    "ticks": 285600,
                    "time": 148.75,
                    "velocity": 1
                },
                {
                    "duration": 0.25,
                    "durationTicks": 480,
                    "midi": 53,
                    "name": "F3",
                    "ticks": 285600,
                    "time": 148.75,
                    "velocity": 1
                },
                {
                    "duration": 0.25,
                    "durationTicks": 480,
                    "midi": 46,
                    "name": "A#2",
                    "ticks": 285600,
                    "time": 148.75,
                    "velocity": 1
                },
                {
                    "duration": 0.5,
                    "durationTicks": 960,
                    "midi": 61,
                    "name": "C#4",
                    "ticks": 286080,
                    "time": 149,
                    "velocity": 1
                },
                {
                    "duration": 0.5,
                    "durationTicks": 960,
                    "midi": 45,
                    "name": "A2",
                    "ticks": 286080,
                    "time": 149,
                    "velocity": 1
                },
                {
                    "duration": 0.5,
                    "durationTicks": 960,
                    "midi": 52,
                    "name": "E3",
                    "ticks": 286080,
                    "time": 149,
                    "velocity": 1
                },
                {
                    "duration": 0.5,
                    "durationTicks": 960,
                    "midi": 57,
                    "name": "A3",
                    "ticks": 286080,
                    "time": 149,
                    "velocity": 1
                },
                {
                    "duration": 0.25,
                    "durationTicks": 480,
                    "midi": 45,
                    "name": "A2",
                    "ticks": 287040,
                    "time": 149.5,
                    "velocity": 1
                },
                {
                    "duration": 0.25,
                    "durationTicks": 480,
                    "midi": 52,
                    "name": "E3",
                    "ticks": 287040,
                    "time": 149.5,
                    "velocity": 1
                },
                {
                    "duration": 0.25,
                    "durationTicks": 480,
                    "midi": 57,
                    "name": "A3",
                    "ticks": 287040,
                    "time": 149.5,
                    "velocity": 1
                },
                {
                    "duration": 0.25,
                    "durationTicks": 480,
                    "midi": 61,
                    "name": "C#4",
                    "ticks": 287040,
                    "time": 149.5,
                    "velocity": 1
                },
                {
                    "duration": 0.25,
                    "durationTicks": 480,
                    "midi": 45,
                    "name": "A2",
                    "ticks": 287520,
                    "time": 149.75,
                    "velocity": 1
                },
                {
                    "duration": 0.25,
                    "durationTicks": 480,
                    "midi": 52,
                    "name": "E3",
                    "ticks": 287520,
                    "time": 149.75,
                    "velocity": 1
                },
                {
                    "duration": 0.25,
                    "durationTicks": 480,
                    "midi": 57,
                    "name": "A3",
                    "ticks": 287520,
                    "time": 149.75,
                    "velocity": 1
                },
                {
                    "duration": 0.25,
                    "durationTicks": 480,
                    "midi": 61,
                    "name": "C#4",
                    "ticks": 287520,
                    "time": 149.75,
                    "velocity": 1
                },
                {
                    "duration": 1.25,
                    "durationTicks": 2400,
                    "midi": 50,
                    "name": "D3",
                    "ticks": 288000,
                    "time": 150,
                    "velocity": 1
                },
                {
                    "duration": 0.75,
                    "durationTicks": 1440,
                    "midi": 54,
                    "name": "F#3",
                    "ticks": 288960,
                    "time": 150.5,
                    "velocity": 1
                },
                {
                    "duration": 0.75,
                    "durationTicks": 1440,
                    "midi": 57,
                    "name": "A3",
                    "ticks": 288960,
                    "time": 150.5,
                    "velocity": 1
                },
                {
                    "duration": 0.75,
                    "durationTicks": 1440,
                    "midi": 62,
                    "name": "D4",
                    "ticks": 288960,
                    "time": 150.5,
                    "velocity": 1
                },
                {
                    "duration": 0.75,
                    "durationTicks": 1440,
                    "midi": 66,
                    "name": "F#4",
                    "ticks": 288960,
                    "time": 150.5,
                    "velocity": 1
                },
                {
                    "duration": 1.5,
                    "durationTicks": 2880,
                    "midi": 50,
                    "name": "D3",
                    "ticks": 288960,
                    "time": 150.5,
                    "velocity": 1
                },
                {
                    "duration": 0.25,
                    "durationTicks": 480,
                    "midi": 55,
                    "name": "G3",
                    "ticks": 290400,
                    "time": 151.25,
                    "velocity": 1
                },
                {
                    "duration": 0.25,
                    "durationTicks": 480,
                    "midi": 62,
                    "name": "D4",
                    "ticks": 290400,
                    "time": 151.25,
                    "velocity": 1
                },
                {
                    "duration": 0.25,
                    "durationTicks": 480,
                    "midi": 67,
                    "name": "G4",
                    "ticks": 290400,
                    "time": 151.25,
                    "velocity": 1
                },
                {
                    "duration": 0.25,
                    "durationTicks": 480,
                    "midi": 54,
                    "name": "F#3",
                    "ticks": 290880,
                    "time": 151.5,
                    "velocity": 1
                },
                {
                    "duration": 0.25,
                    "durationTicks": 480,
                    "midi": 62,
                    "name": "D4",
                    "ticks": 290880,
                    "time": 151.5,
                    "velocity": 1
                },
                {
                    "duration": 0.25,
                    "durationTicks": 480,
                    "midi": 66,
                    "name": "F#4",
                    "ticks": 290880,
                    "time": 151.5,
                    "velocity": 1
                },
                {
                    "duration": 0.25,
                    "durationTicks": 480,
                    "midi": 57,
                    "name": "A3",
                    "ticks": 291360,
                    "time": 151.75,
                    "velocity": 1
                },
                {
                    "duration": 0.25,
                    "durationTicks": 480,
                    "midi": 62,
                    "name": "D4",
                    "ticks": 291360,
                    "time": 151.75,
                    "velocity": 1
                },
                {
                    "duration": 0.5,
                    "durationTicks": 960,
                    "midi": 50,
                    "name": "D3",
                    "ticks": 291840,
                    "time": 152,
                    "velocity": 1
                },
                {
                    "duration": 1.25,
                    "durationTicks": 2400,
                    "midi": 50,
                    "name": "D3",
                    "ticks": 291840,
                    "time": 152,
                    "velocity": 1
                },
                {
                    "duration": 0.75,
                    "durationTicks": 1440,
                    "midi": 54,
                    "name": "F#3",
                    "ticks": 292800,
                    "time": 152.5,
                    "velocity": 1
                },
                {
                    "duration": 0.75,
                    "durationTicks": 1440,
                    "midi": 57,
                    "name": "A3",
                    "ticks": 292800,
                    "time": 152.5,
                    "velocity": 1
                },
                {
                    "duration": 0.75,
                    "durationTicks": 1440,
                    "midi": 62,
                    "name": "D4",
                    "ticks": 292800,
                    "time": 152.5,
                    "velocity": 1
                },
                {
                    "duration": 0.75,
                    "durationTicks": 1440,
                    "midi": 66,
                    "name": "F#4",
                    "ticks": 292800,
                    "time": 152.5,
                    "velocity": 1
                },
                {
                    "duration": 1.5,
                    "durationTicks": 2880,
                    "midi": 50,
                    "name": "D3",
                    "ticks": 292800,
                    "time": 152.5,
                    "velocity": 1
                },
                {
                    "duration": 0.25,
                    "durationTicks": 480,
                    "midi": 55,
                    "name": "G3",
                    "ticks": 294240,
                    "time": 153.25,
                    "velocity": 1
                },
                {
                    "duration": 0.25,
                    "durationTicks": 480,
                    "midi": 62,
                    "name": "D4",
                    "ticks": 294240,
                    "time": 153.25,
                    "velocity": 1
                },
                {
                    "duration": 0.25,
                    "durationTicks": 480,
                    "midi": 67,
                    "name": "G4",
                    "ticks": 294240,
                    "time": 153.25,
                    "velocity": 1
                },
                {
                    "duration": 0.25,
                    "durationTicks": 480,
                    "midi": 54,
                    "name": "F#3",
                    "ticks": 294720,
                    "time": 153.5,
                    "velocity": 1
                },
                {
                    "duration": 0.25,
                    "durationTicks": 480,
                    "midi": 62,
                    "name": "D4",
                    "ticks": 294720,
                    "time": 153.5,
                    "velocity": 1
                },
                {
                    "duration": 0.25,
                    "durationTicks": 480,
                    "midi": 66,
                    "name": "F#4",
                    "ticks": 294720,
                    "time": 153.5,
                    "velocity": 1
                },
                {
                    "duration": 0.25,
                    "durationTicks": 480,
                    "midi": 57,
                    "name": "A3",
                    "ticks": 295200,
                    "time": 153.75,
                    "velocity": 1
                },
                {
                    "duration": 0.25,
                    "durationTicks": 480,
                    "midi": 62,
                    "name": "D4",
                    "ticks": 295200,
                    "time": 153.75,
                    "velocity": 1
                },
                {
                    "duration": 0.75,
                    "durationTicks": 1440,
                    "midi": 50,
                    "name": "D3",
                    "ticks": 295200,
                    "time": 153.75,
                    "velocity": 1
                },
                {
                    "duration": 1.25,
                    "durationTicks": 2400,
                    "midi": 50,
                    "name": "D3",
                    "ticks": 295680,
                    "time": 154,
                    "velocity": 1
                },
                {
                    "duration": 0.75,
                    "durationTicks": 1440,
                    "midi": 54,
                    "name": "F#3",
                    "ticks": 296640,
                    "time": 154.5,
                    "velocity": 1
                },
                {
                    "duration": 0.75,
                    "durationTicks": 1440,
                    "midi": 57,
                    "name": "A3",
                    "ticks": 296640,
                    "time": 154.5,
                    "velocity": 1
                },
                {
                    "duration": 0.75,
                    "durationTicks": 1440,
                    "midi": 62,
                    "name": "D4",
                    "ticks": 296640,
                    "time": 154.5,
                    "velocity": 1
                },
                {
                    "duration": 0.75,
                    "durationTicks": 1440,
                    "midi": 66,
                    "name": "F#4",
                    "ticks": 296640,
                    "time": 154.5,
                    "velocity": 1
                },
                {
                    "duration": 1.5,
                    "durationTicks": 2880,
                    "midi": 50,
                    "name": "D3",
                    "ticks": 296640,
                    "time": 154.5,
                    "velocity": 1
                },
                {
                    "duration": 0.25,
                    "durationTicks": 480,
                    "midi": 55,
                    "name": "G3",
                    "ticks": 298080,
                    "time": 155.25,
                    "velocity": 1
                },
                {
                    "duration": 0.25,
                    "durationTicks": 480,
                    "midi": 62,
                    "name": "D4",
                    "ticks": 298080,
                    "time": 155.25,
                    "velocity": 1
                },
                {
                    "duration": 0.25,
                    "durationTicks": 480,
                    "midi": 67,
                    "name": "G4",
                    "ticks": 298080,
                    "time": 155.25,
                    "velocity": 1
                },
                {
                    "duration": 0.25,
                    "durationTicks": 480,
                    "midi": 54,
                    "name": "F#3",
                    "ticks": 298560,
                    "time": 155.5,
                    "velocity": 1
                },
                {
                    "duration": 0.25,
                    "durationTicks": 480,
                    "midi": 62,
                    "name": "D4",
                    "ticks": 298560,
                    "time": 155.5,
                    "velocity": 1
                },
                {
                    "duration": 0.25,
                    "durationTicks": 480,
                    "midi": 66,
                    "name": "F#4",
                    "ticks": 298560,
                    "time": 155.5,
                    "velocity": 1
                },
                {
                    "duration": 0.25,
                    "durationTicks": 480,
                    "midi": 57,
                    "name": "A3",
                    "ticks": 299040,
                    "time": 155.75,
                    "velocity": 1
                },
                {
                    "duration": 0.25,
                    "durationTicks": 480,
                    "midi": 62,
                    "name": "D4",
                    "ticks": 299040,
                    "time": 155.75,
                    "velocity": 1
                },
                {
                    "duration": 0.5,
                    "durationTicks": 960,
                    "midi": 50,
                    "name": "D3",
                    "ticks": 299520,
                    "time": 156,
                    "velocity": 1
                },
                {
                    "duration": 1.25,
                    "durationTicks": 2400,
                    "midi": 50,
                    "name": "D3",
                    "ticks": 299520,
                    "time": 156,
                    "velocity": 1
                },
                {
                    "duration": 0.75,
                    "durationTicks": 1440,
                    "midi": 54,
                    "name": "F#3",
                    "ticks": 300480,
                    "time": 156.5,
                    "velocity": 1
                },
                {
                    "duration": 0.75,
                    "durationTicks": 1440,
                    "midi": 57,
                    "name": "A3",
                    "ticks": 300480,
                    "time": 156.5,
                    "velocity": 1
                },
                {
                    "duration": 0.75,
                    "durationTicks": 1440,
                    "midi": 62,
                    "name": "D4",
                    "ticks": 300480,
                    "time": 156.5,
                    "velocity": 1
                },
                {
                    "duration": 0.75,
                    "durationTicks": 1440,
                    "midi": 66,
                    "name": "F#4",
                    "ticks": 300480,
                    "time": 156.5,
                    "velocity": 1
                },
                {
                    "duration": 1.5,
                    "durationTicks": 2880,
                    "midi": 50,
                    "name": "D3",
                    "ticks": 300480,
                    "time": 156.5,
                    "velocity": 1
                },
                {
                    "duration": 0.25,
                    "durationTicks": 480,
                    "midi": 55,
                    "name": "G3",
                    "ticks": 301920,
                    "time": 157.25,
                    "velocity": 1
                },
                {
                    "duration": 0.25,
                    "durationTicks": 480,
                    "midi": 62,
                    "name": "D4",
                    "ticks": 301920,
                    "time": 157.25,
                    "velocity": 1
                },
                {
                    "duration": 0.25,
                    "durationTicks": 480,
                    "midi": 67,
                    "name": "G4",
                    "ticks": 301920,
                    "time": 157.25,
                    "velocity": 1
                },
                {
                    "duration": 0.25,
                    "durationTicks": 480,
                    "midi": 54,
                    "name": "F#3",
                    "ticks": 302400,
                    "time": 157.5,
                    "velocity": 1
                },
                {
                    "duration": 0.25,
                    "durationTicks": 480,
                    "midi": 62,
                    "name": "D4",
                    "ticks": 302400,
                    "time": 157.5,
                    "velocity": 1
                },
                {
                    "duration": 0.25,
                    "durationTicks": 480,
                    "midi": 66,
                    "name": "F#4",
                    "ticks": 302400,
                    "time": 157.5,
                    "velocity": 1
                },
                {
                    "duration": 0.25,
                    "durationTicks": 480,
                    "midi": 57,
                    "name": "A3",
                    "ticks": 302880,
                    "time": 157.75,
                    "velocity": 1
                },
                {
                    "duration": 0.25,
                    "durationTicks": 480,
                    "midi": 62,
                    "name": "D4",
                    "ticks": 302880,
                    "time": 157.75,
                    "velocity": 1
                },
                {
                    "duration": 0.75,
                    "durationTicks": 1440,
                    "midi": 50,
                    "name": "D3",
                    "ticks": 302880,
                    "time": 157.75,
                    "velocity": 1
                },
                {
                    "duration": 1.25,
                    "durationTicks": 2400,
                    "midi": 50,
                    "name": "D3",
                    "ticks": 303360,
                    "time": 158,
                    "velocity": 1
                },
                {
                    "duration": 0.75,
                    "durationTicks": 1440,
                    "midi": 54,
                    "name": "F#3",
                    "ticks": 304320,
                    "time": 158.5,
                    "velocity": 1
                },
                {
                    "duration": 0.75,
                    "durationTicks": 1440,
                    "midi": 57,
                    "name": "A3",
                    "ticks": 304320,
                    "time": 158.5,
                    "velocity": 1
                },
                {
                    "duration": 0.75,
                    "durationTicks": 1440,
                    "midi": 62,
                    "name": "D4",
                    "ticks": 304320,
                    "time": 158.5,
                    "velocity": 1
                },
                {
                    "duration": 0.75,
                    "durationTicks": 1440,
                    "midi": 66,
                    "name": "F#4",
                    "ticks": 304320,
                    "time": 158.5,
                    "velocity": 1
                },
                {
                    "duration": 1.5,
                    "durationTicks": 2880,
                    "midi": 50,
                    "name": "D3",
                    "ticks": 304320,
                    "time": 158.5,
                    "velocity": 1
                },
                {
                    "duration": 0.25,
                    "durationTicks": 480,
                    "midi": 55,
                    "name": "G3",
                    "ticks": 305760,
                    "time": 159.25,
                    "velocity": 1
                },
                {
                    "duration": 0.25,
                    "durationTicks": 480,
                    "midi": 62,
                    "name": "D4",
                    "ticks": 305760,
                    "time": 159.25,
                    "velocity": 1
                },
                {
                    "duration": 0.25,
                    "durationTicks": 480,
                    "midi": 67,
                    "name": "G4",
                    "ticks": 305760,
                    "time": 159.25,
                    "velocity": 1
                },
                {
                    "duration": 0.25,
                    "durationTicks": 480,
                    "midi": 54,
                    "name": "F#3",
                    "ticks": 306240,
                    "time": 159.5,
                    "velocity": 1
                },
                {
                    "duration": 0.25,
                    "durationTicks": 480,
                    "midi": 62,
                    "name": "D4",
                    "ticks": 306240,
                    "time": 159.5,
                    "velocity": 1
                },
                {
                    "duration": 0.25,
                    "durationTicks": 480,
                    "midi": 66,
                    "name": "F#4",
                    "ticks": 306240,
                    "time": 159.5,
                    "velocity": 1
                },
                {
                    "duration": 0.25,
                    "durationTicks": 480,
                    "midi": 57,
                    "name": "A3",
                    "ticks": 306720,
                    "time": 159.75,
                    "velocity": 1
                },
                {
                    "duration": 0.25,
                    "durationTicks": 480,
                    "midi": 62,
                    "name": "D4",
                    "ticks": 306720,
                    "time": 159.75,
                    "velocity": 1
                },
                {
                    "duration": 0.5,
                    "durationTicks": 960,
                    "midi": 50,
                    "name": "D3",
                    "ticks": 307200,
                    "time": 160,
                    "velocity": 1
                },
                {
                    "duration": 1.25,
                    "durationTicks": 2400,
                    "midi": 50,
                    "name": "D3",
                    "ticks": 307200,
                    "time": 160,
                    "velocity": 1
                },
                {
                    "duration": 0.75,
                    "durationTicks": 1440,
                    "midi": 54,
                    "name": "F#3",
                    "ticks": 308160,
                    "time": 160.5,
                    "velocity": 1
                },
                {
                    "duration": 0.75,
                    "durationTicks": 1440,
                    "midi": 57,
                    "name": "A3",
                    "ticks": 308160,
                    "time": 160.5,
                    "velocity": 1
                },
                {
                    "duration": 0.75,
                    "durationTicks": 1440,
                    "midi": 62,
                    "name": "D4",
                    "ticks": 308160,
                    "time": 160.5,
                    "velocity": 1
                },
                {
                    "duration": 0.75,
                    "durationTicks": 1440,
                    "midi": 66,
                    "name": "F#4",
                    "ticks": 308160,
                    "time": 160.5,
                    "velocity": 1
                },
                {
                    "duration": 1.5,
                    "durationTicks": 2880,
                    "midi": 50,
                    "name": "D3",
                    "ticks": 308160,
                    "time": 160.5,
                    "velocity": 1
                },
                {
                    "duration": 0.25,
                    "durationTicks": 480,
                    "midi": 55,
                    "name": "G3",
                    "ticks": 309600,
                    "time": 161.25,
                    "velocity": 1
                },
                {
                    "duration": 0.25,
                    "durationTicks": 480,
                    "midi": 62,
                    "name": "D4",
                    "ticks": 309600,
                    "time": 161.25,
                    "velocity": 1
                },
                {
                    "duration": 0.25,
                    "durationTicks": 480,
                    "midi": 67,
                    "name": "G4",
                    "ticks": 309600,
                    "time": 161.25,
                    "velocity": 1
                },
                {
                    "duration": 0.25,
                    "durationTicks": 480,
                    "midi": 54,
                    "name": "F#3",
                    "ticks": 310080,
                    "time": 161.5,
                    "velocity": 1
                },
                {
                    "duration": 0.25,
                    "durationTicks": 480,
                    "midi": 62,
                    "name": "D4",
                    "ticks": 310080,
                    "time": 161.5,
                    "velocity": 1
                },
                {
                    "duration": 0.25,
                    "durationTicks": 480,
                    "midi": 66,
                    "name": "F#4",
                    "ticks": 310080,
                    "time": 161.5,
                    "velocity": 1
                },
                {
                    "duration": 0.25,
                    "durationTicks": 480,
                    "midi": 57,
                    "name": "A3",
                    "ticks": 310560,
                    "time": 161.75,
                    "velocity": 1
                },
                {
                    "duration": 0.25,
                    "durationTicks": 480,
                    "midi": 62,
                    "name": "D4",
                    "ticks": 310560,
                    "time": 161.75,
                    "velocity": 1
                },
                {
                    "duration": 0.75,
                    "durationTicks": 1440,
                    "midi": 50,
                    "name": "D3",
                    "ticks": 310560,
                    "time": 161.75,
                    "velocity": 1
                },
                {
                    "duration": 1.25,
                    "durationTicks": 2400,
                    "midi": 50,
                    "name": "D3",
                    "ticks": 311040,
                    "time": 162,
                    "velocity": 1
                },
                {
                    "duration": 0.75,
                    "durationTicks": 1440,
                    "midi": 54,
                    "name": "F#3",
                    "ticks": 312000,
                    "time": 162.5,
                    "velocity": 1
                },
                {
                    "duration": 0.75,
                    "durationTicks": 1440,
                    "midi": 57,
                    "name": "A3",
                    "ticks": 312000,
                    "time": 162.5,
                    "velocity": 1
                },
                {
                    "duration": 0.75,
                    "durationTicks": 1440,
                    "midi": 62,
                    "name": "D4",
                    "ticks": 312000,
                    "time": 162.5,
                    "velocity": 1
                },
                {
                    "duration": 0.75,
                    "durationTicks": 1440,
                    "midi": 66,
                    "name": "F#4",
                    "ticks": 312000,
                    "time": 162.5,
                    "velocity": 1
                },
                {
                    "duration": 1.5,
                    "durationTicks": 2880,
                    "midi": 50,
                    "name": "D3",
                    "ticks": 312000,
                    "time": 162.5,
                    "velocity": 1
                },
                {
                    "duration": 0.25,
                    "durationTicks": 480,
                    "midi": 55,
                    "name": "G3",
                    "ticks": 313440,
                    "time": 163.25,
                    "velocity": 1
                },
                {
                    "duration": 0.25,
                    "durationTicks": 480,
                    "midi": 62,
                    "name": "D4",
                    "ticks": 313440,
                    "time": 163.25,
                    "velocity": 1
                },
                {
                    "duration": 0.25,
                    "durationTicks": 480,
                    "midi": 67,
                    "name": "G4",
                    "ticks": 313440,
                    "time": 163.25,
                    "velocity": 1
                },
                {
                    "duration": 0.25,
                    "durationTicks": 480,
                    "midi": 54,
                    "name": "F#3",
                    "ticks": 313920,
                    "time": 163.5,
                    "velocity": 1
                },
                {
                    "duration": 0.25,
                    "durationTicks": 480,
                    "midi": 62,
                    "name": "D4",
                    "ticks": 313920,
                    "time": 163.5,
                    "velocity": 1
                },
                {
                    "duration": 0.25,
                    "durationTicks": 480,
                    "midi": 66,
                    "name": "F#4",
                    "ticks": 313920,
                    "time": 163.5,
                    "velocity": 1
                },
                {
                    "duration": 0.25,
                    "durationTicks": 480,
                    "midi": 57,
                    "name": "A3",
                    "ticks": 314400,
                    "time": 163.75,
                    "velocity": 1
                },
                {
                    "duration": 0.25,
                    "durationTicks": 480,
                    "midi": 62,
                    "name": "D4",
                    "ticks": 314400,
                    "time": 163.75,
                    "velocity": 1
                },
                {
                    "duration": 0.5,
                    "durationTicks": 960,
                    "midi": 50,
                    "name": "D3",
                    "ticks": 314880,
                    "time": 164,
                    "velocity": 1
                },
                {
                    "duration": 1.25,
                    "durationTicks": 2400,
                    "midi": 50,
                    "name": "D3",
                    "ticks": 314880,
                    "time": 164,
                    "velocity": 1
                },
                {
                    "duration": 0.75,
                    "durationTicks": 1440,
                    "midi": 54,
                    "name": "F#3",
                    "ticks": 315840,
                    "time": 164.5,
                    "velocity": 1
                },
                {
                    "duration": 0.75,
                    "durationTicks": 1440,
                    "midi": 57,
                    "name": "A3",
                    "ticks": 315840,
                    "time": 164.5,
                    "velocity": 1
                },
                {
                    "duration": 0.75,
                    "durationTicks": 1440,
                    "midi": 62,
                    "name": "D4",
                    "ticks": 315840,
                    "time": 164.5,
                    "velocity": 1
                },
                {
                    "duration": 0.75,
                    "durationTicks": 1440,
                    "midi": 66,
                    "name": "F#4",
                    "ticks": 315840,
                    "time": 164.5,
                    "velocity": 1
                },
                {
                    "duration": 1.5,
                    "durationTicks": 2880,
                    "midi": 50,
                    "name": "D3",
                    "ticks": 315840,
                    "time": 164.5,
                    "velocity": 1
                },
                {
                    "duration": 0.25,
                    "durationTicks": 480,
                    "midi": 55,
                    "name": "G3",
                    "ticks": 317280,
                    "time": 165.25,
                    "velocity": 1
                },
                {
                    "duration": 0.25,
                    "durationTicks": 480,
                    "midi": 62,
                    "name": "D4",
                    "ticks": 317280,
                    "time": 165.25,
                    "velocity": 1
                },
                {
                    "duration": 0.25,
                    "durationTicks": 480,
                    "midi": 67,
                    "name": "G4",
                    "ticks": 317280,
                    "time": 165.25,
                    "velocity": 1
                },
                {
                    "duration": 0.25,
                    "durationTicks": 480,
                    "midi": 54,
                    "name": "F#3",
                    "ticks": 317760,
                    "time": 165.5,
                    "velocity": 1
                },
                {
                    "duration": 0.25,
                    "durationTicks": 480,
                    "midi": 62,
                    "name": "D4",
                    "ticks": 317760,
                    "time": 165.5,
                    "velocity": 1
                },
                {
                    "duration": 0.25,
                    "durationTicks": 480,
                    "midi": 66,
                    "name": "F#4",
                    "ticks": 317760,
                    "time": 165.5,
                    "velocity": 1
                },
                {
                    "duration": 0.25,
                    "durationTicks": 480,
                    "midi": 57,
                    "name": "A3",
                    "ticks": 318240,
                    "time": 165.75,
                    "velocity": 1
                },
                {
                    "duration": 0.25,
                    "durationTicks": 480,
                    "midi": 62,
                    "name": "D4",
                    "ticks": 318240,
                    "time": 165.75,
                    "velocity": 1
                },
                {
                    "duration": 0.75,
                    "durationTicks": 1440,
                    "midi": 50,
                    "name": "D3",
                    "ticks": 318240,
                    "time": 165.75,
                    "velocity": 1
                },
                {
                    "duration": 1.25,
                    "durationTicks": 2400,
                    "midi": 50,
                    "name": "D3",
                    "ticks": 318720,
                    "time": 166,
                    "velocity": 1
                },
                {
                    "duration": 0.75,
                    "durationTicks": 1440,
                    "midi": 54,
                    "name": "F#3",
                    "ticks": 319680,
                    "time": 166.5,
                    "velocity": 1
                },
                {
                    "duration": 0.75,
                    "durationTicks": 1440,
                    "midi": 57,
                    "name": "A3",
                    "ticks": 319680,
                    "time": 166.5,
                    "velocity": 1
                },
                {
                    "duration": 0.75,
                    "durationTicks": 1440,
                    "midi": 62,
                    "name": "D4",
                    "ticks": 319680,
                    "time": 166.5,
                    "velocity": 1
                },
                {
                    "duration": 0.75,
                    "durationTicks": 1440,
                    "midi": 66,
                    "name": "F#4",
                    "ticks": 319680,
                    "time": 166.5,
                    "velocity": 1
                },
                {
                    "duration": 1.5,
                    "durationTicks": 2880,
                    "midi": 50,
                    "name": "D3",
                    "ticks": 319680,
                    "time": 166.5,
                    "velocity": 1
                },
                {
                    "duration": 0.25,
                    "durationTicks": 480,
                    "midi": 55,
                    "name": "G3",
                    "ticks": 321120,
                    "time": 167.25,
                    "velocity": 1
                },
                {
                    "duration": 0.25,
                    "durationTicks": 480,
                    "midi": 62,
                    "name": "D4",
                    "ticks": 321120,
                    "time": 167.25,
                    "velocity": 1
                },
                {
                    "duration": 0.25,
                    "durationTicks": 480,
                    "midi": 67,
                    "name": "G4",
                    "ticks": 321120,
                    "time": 167.25,
                    "velocity": 1
                },
                {
                    "duration": 0.25,
                    "durationTicks": 480,
                    "midi": 54,
                    "name": "F#3",
                    "ticks": 321600,
                    "time": 167.5,
                    "velocity": 1
                },
                {
                    "duration": 0.25,
                    "durationTicks": 480,
                    "midi": 62,
                    "name": "D4",
                    "ticks": 321600,
                    "time": 167.5,
                    "velocity": 1
                },
                {
                    "duration": 0.25,
                    "durationTicks": 480,
                    "midi": 66,
                    "name": "F#4",
                    "ticks": 321600,
                    "time": 167.5,
                    "velocity": 1
                },
                {
                    "duration": 0.25,
                    "durationTicks": 480,
                    "midi": 57,
                    "name": "A3",
                    "ticks": 322080,
                    "time": 167.75,
                    "velocity": 1
                },
                {
                    "duration": 0.25,
                    "durationTicks": 480,
                    "midi": 62,
                    "name": "D4",
                    "ticks": 322080,
                    "time": 167.75,
                    "velocity": 1
                },
                {
                    "duration": 0.5,
                    "durationTicks": 960,
                    "midi": 50,
                    "name": "D3",
                    "ticks": 322560,
                    "time": 168,
                    "velocity": 1
                },
                {
                    "duration": 1.25,
                    "durationTicks": 2400,
                    "midi": 50,
                    "name": "D3",
                    "ticks": 322560,
                    "time": 168,
                    "velocity": 1
                },
                {
                    "duration": 0.75,
                    "durationTicks": 1440,
                    "midi": 54,
                    "name": "F#3",
                    "ticks": 323520,
                    "time": 168.5,
                    "velocity": 1
                },
                {
                    "duration": 0.75,
                    "durationTicks": 1440,
                    "midi": 57,
                    "name": "A3",
                    "ticks": 323520,
                    "time": 168.5,
                    "velocity": 1
                },
                {
                    "duration": 0.75,
                    "durationTicks": 1440,
                    "midi": 62,
                    "name": "D4",
                    "ticks": 323520,
                    "time": 168.5,
                    "velocity": 1
                },
                {
                    "duration": 0.75,
                    "durationTicks": 1440,
                    "midi": 66,
                    "name": "F#4",
                    "ticks": 323520,
                    "time": 168.5,
                    "velocity": 1
                },
                {
                    "duration": 1.5,
                    "durationTicks": 2880,
                    "midi": 50,
                    "name": "D3",
                    "ticks": 323520,
                    "time": 168.5,
                    "velocity": 1
                },
                {
                    "duration": 0.25,
                    "durationTicks": 480,
                    "midi": 55,
                    "name": "G3",
                    "ticks": 324960,
                    "time": 169.25,
                    "velocity": 1
                },
                {
                    "duration": 0.25,
                    "durationTicks": 480,
                    "midi": 62,
                    "name": "D4",
                    "ticks": 324960,
                    "time": 169.25,
                    "velocity": 1
                },
                {
                    "duration": 0.25,
                    "durationTicks": 480,
                    "midi": 67,
                    "name": "G4",
                    "ticks": 324960,
                    "time": 169.25,
                    "velocity": 1
                },
                {
                    "duration": 0.25,
                    "durationTicks": 480,
                    "midi": 54,
                    "name": "F#3",
                    "ticks": 325440,
                    "time": 169.5,
                    "velocity": 1
                },
                {
                    "duration": 0.25,
                    "durationTicks": 480,
                    "midi": 62,
                    "name": "D4",
                    "ticks": 325440,
                    "time": 169.5,
                    "velocity": 1
                },
                {
                    "duration": 0.25,
                    "durationTicks": 480,
                    "midi": 66,
                    "name": "F#4",
                    "ticks": 325440,
                    "time": 169.5,
                    "velocity": 1
                },
                {
                    "duration": 0.25,
                    "durationTicks": 480,
                    "midi": 57,
                    "name": "A3",
                    "ticks": 325920,
                    "time": 169.75,
                    "velocity": 1
                },
                {
                    "duration": 0.25,
                    "durationTicks": 480,
                    "midi": 62,
                    "name": "D4",
                    "ticks": 325920,
                    "time": 169.75,
                    "velocity": 1
                },
                {
                    "duration": 0.75,
                    "durationTicks": 1440,
                    "midi": 50,
                    "name": "D3",
                    "ticks": 325920,
                    "time": 169.75,
                    "velocity": 1
                },
                {
                    "duration": 1.25,
                    "durationTicks": 2400,
                    "midi": 50,
                    "name": "D3",
                    "ticks": 326400,
                    "time": 170,
                    "velocity": 1
                },
                {
                    "duration": 0.75,
                    "durationTicks": 1440,
                    "midi": 54,
                    "name": "F#3",
                    "ticks": 327360,
                    "time": 170.5,
                    "velocity": 1
                },
                {
                    "duration": 0.75,
                    "durationTicks": 1440,
                    "midi": 57,
                    "name": "A3",
                    "ticks": 327360,
                    "time": 170.5,
                    "velocity": 1
                },
                {
                    "duration": 0.75,
                    "durationTicks": 1440,
                    "midi": 62,
                    "name": "D4",
                    "ticks": 327360,
                    "time": 170.5,
                    "velocity": 1
                },
                {
                    "duration": 0.75,
                    "durationTicks": 1440,
                    "midi": 66,
                    "name": "F#4",
                    "ticks": 327360,
                    "time": 170.5,
                    "velocity": 1
                },
                {
                    "duration": 1.5,
                    "durationTicks": 2880,
                    "midi": 50,
                    "name": "D3",
                    "ticks": 327360,
                    "time": 170.5,
                    "velocity": 1
                },
                {
                    "duration": 0.25,
                    "durationTicks": 480,
                    "midi": 55,
                    "name": "G3",
                    "ticks": 328800,
                    "time": 171.25,
                    "velocity": 1
                },
                {
                    "duration": 0.25,
                    "durationTicks": 480,
                    "midi": 62,
                    "name": "D4",
                    "ticks": 328800,
                    "time": 171.25,
                    "velocity": 1
                },
                {
                    "duration": 0.25,
                    "durationTicks": 480,
                    "midi": 67,
                    "name": "G4",
                    "ticks": 328800,
                    "time": 171.25,
                    "velocity": 1
                },
                {
                    "duration": 0.25,
                    "durationTicks": 480,
                    "midi": 54,
                    "name": "F#3",
                    "ticks": 329280,
                    "time": 171.5,
                    "velocity": 1
                },
                {
                    "duration": 0.25,
                    "durationTicks": 480,
                    "midi": 62,
                    "name": "D4",
                    "ticks": 329280,
                    "time": 171.5,
                    "velocity": 1
                },
                {
                    "duration": 0.25,
                    "durationTicks": 480,
                    "midi": 66,
                    "name": "F#4",
                    "ticks": 329280,
                    "time": 171.5,
                    "velocity": 1
                },
                {
                    "duration": 0.25,
                    "durationTicks": 480,
                    "midi": 57,
                    "name": "A3",
                    "ticks": 329760,
                    "time": 171.75,
                    "velocity": 1
                },
                {
                    "duration": 0.25,
                    "durationTicks": 480,
                    "midi": 62,
                    "name": "D4",
                    "ticks": 329760,
                    "time": 171.75,
                    "velocity": 1
                },
                {
                    "duration": 0.5,
                    "durationTicks": 960,
                    "midi": 50,
                    "name": "D3",
                    "ticks": 330240,
                    "time": 172,
                    "velocity": 1
                },
                {
                    "duration": 1.25,
                    "durationTicks": 2400,
                    "midi": 50,
                    "name": "D3",
                    "ticks": 330240,
                    "time": 172,
                    "velocity": 1
                },
                {
                    "duration": 0.75,
                    "durationTicks": 1440,
                    "midi": 54,
                    "name": "F#3",
                    "ticks": 331200,
                    "time": 172.5,
                    "velocity": 1
                },
                {
                    "duration": 0.75,
                    "durationTicks": 1440,
                    "midi": 57,
                    "name": "A3",
                    "ticks": 331200,
                    "time": 172.5,
                    "velocity": 1
                },
                {
                    "duration": 0.75,
                    "durationTicks": 1440,
                    "midi": 62,
                    "name": "D4",
                    "ticks": 331200,
                    "time": 172.5,
                    "velocity": 1
                },
                {
                    "duration": 0.75,
                    "durationTicks": 1440,
                    "midi": 66,
                    "name": "F#4",
                    "ticks": 331200,
                    "time": 172.5,
                    "velocity": 1
                },
                {
                    "duration": 1.5,
                    "durationTicks": 2880,
                    "midi": 50,
                    "name": "D3",
                    "ticks": 331200,
                    "time": 172.5,
                    "velocity": 1
                },
                {
                    "duration": 0.25,
                    "durationTicks": 480,
                    "midi": 55,
                    "name": "G3",
                    "ticks": 332640,
                    "time": 173.25,
                    "velocity": 1
                },
                {
                    "duration": 0.25,
                    "durationTicks": 480,
                    "midi": 62,
                    "name": "D4",
                    "ticks": 332640,
                    "time": 173.25,
                    "velocity": 1
                },
                {
                    "duration": 0.25,
                    "durationTicks": 480,
                    "midi": 67,
                    "name": "G4",
                    "ticks": 332640,
                    "time": 173.25,
                    "velocity": 1
                },
                {
                    "duration": 0.25,
                    "durationTicks": 480,
                    "midi": 54,
                    "name": "F#3",
                    "ticks": 333120,
                    "time": 173.5,
                    "velocity": 1
                },
                {
                    "duration": 0.25,
                    "durationTicks": 480,
                    "midi": 62,
                    "name": "D4",
                    "ticks": 333120,
                    "time": 173.5,
                    "velocity": 1
                },
                {
                    "duration": 0.25,
                    "durationTicks": 480,
                    "midi": 66,
                    "name": "F#4",
                    "ticks": 333120,
                    "time": 173.5,
                    "velocity": 1
                },
                {
                    "duration": 0.25,
                    "durationTicks": 480,
                    "midi": 57,
                    "name": "A3",
                    "ticks": 333600,
                    "time": 173.75,
                    "velocity": 1
                },
                {
                    "duration": 0.25,
                    "durationTicks": 480,
                    "midi": 62,
                    "name": "D4",
                    "ticks": 333600,
                    "time": 173.75,
                    "velocity": 1
                }
            ],
            "endOfTrackTicks": 334080
        },
        {
            "channel": 4,
            "controlChanges": {
                "7": [
                    {
                        "number": 7,
                        "ticks": 0,
                        "time": 0,
                        "value": 0.8031496062992126
                    }
                ],
                "10": [
                    {
                        "number": 10,
                        "ticks": 0,
                        "time": 0,
                        "value": 0.5039370078740157
                    }
                ]
            },
            "pitchBends": [],
            "instrument": {
                "family": "guitar",
                "number": 30,
                "name": "distortion guitar"
            },
            "name": "Guitar 4",
            "notes": [
                {
                    "duration": 0.0625,
                    "durationTicks": 120,
                    "midi": 58,
                    "name": "A#3",
                    "ticks": 158400,
                    "time": 82.5,
                    "velocity": 1
                },
                {
                    "duration": 0.0625,
                    "durationTicks": 120,
                    "midi": 53,
                    "name": "F3",
                    "ticks": 158400,
                    "time": 82.5,
                    "velocity": 1
                },
                {
                    "duration": 0.0625,
                    "durationTicks": 120,
                    "midi": 58,
                    "name": "A#3",
                    "ticks": 158880,
                    "time": 82.75,
                    "velocity": 1
                },
                {
                    "duration": 0.0625,
                    "durationTicks": 120,
                    "midi": 53,
                    "name": "F3",
                    "ticks": 158880,
                    "time": 82.75,
                    "velocity": 1
                },
                {
                    "duration": 0.0625,
                    "durationTicks": 120,
                    "midi": 58,
                    "name": "A#3",
                    "ticks": 159360,
                    "time": 83,
                    "velocity": 1
                },
                {
                    "duration": 0.0625,
                    "durationTicks": 120,
                    "midi": 53,
                    "name": "F3",
                    "ticks": 159360,
                    "time": 83,
                    "velocity": 1
                },
                {
                    "duration": 0.0625,
                    "durationTicks": 120,
                    "midi": 58,
                    "name": "A#3",
                    "ticks": 159840,
                    "time": 83.25,
                    "velocity": 1
                },
                {
                    "duration": 0.0625,
                    "durationTicks": 120,
                    "midi": 53,
                    "name": "F3",
                    "ticks": 159840,
                    "time": 83.25,
                    "velocity": 1
                },
                {
                    "duration": 0.0625,
                    "durationTicks": 120,
                    "midi": 58,
                    "name": "A#3",
                    "ticks": 160320,
                    "time": 83.5,
                    "velocity": 1
                },
                {
                    "duration": 0.0625,
                    "durationTicks": 120,
                    "midi": 53,
                    "name": "F3",
                    "ticks": 160320,
                    "time": 83.5,
                    "velocity": 1
                },
                {
                    "duration": 0.0625,
                    "durationTicks": 120,
                    "midi": 58,
                    "name": "A#3",
                    "ticks": 160800,
                    "time": 83.75,
                    "velocity": 1
                },
                {
                    "duration": 0.0625,
                    "durationTicks": 120,
                    "midi": 53,
                    "name": "F3",
                    "ticks": 160800,
                    "time": 83.75,
                    "velocity": 1
                },
                {
                    "duration": 0.25,
                    "durationTicks": 480,
                    "midi": 40,
                    "name": "E2",
                    "ticks": 160800,
                    "time": 83.75,
                    "velocity": 1
                },
                {
                    "duration": 0.5,
                    "durationTicks": 960,
                    "midi": 48,
                    "name": "C3",
                    "ticks": 161280,
                    "time": 84,
                    "velocity": 1
                },
                {
                    "duration": 0.5,
                    "durationTicks": 960,
                    "midi": 41,
                    "name": "F2",
                    "ticks": 161280,
                    "time": 84,
                    "velocity": 1
                },
                {
                    "duration": 0.5,
                    "durationTicks": 960,
                    "midi": 53,
                    "name": "F3",
                    "ticks": 161280,
                    "time": 84,
                    "velocity": 1
                },
                {
                    "duration": 0.5,
                    "durationTicks": 960,
                    "midi": 57,
                    "name": "A3",
                    "ticks": 161280,
                    "time": 84,
                    "velocity": 1
                },
                {
                    "duration": 0.03125,
                    "durationTicks": 60,
                    "midi": 57,
                    "name": "A3",
                    "ticks": 162240,
                    "time": 84.5,
                    "velocity": 1
                },
                {
                    "duration": 0.0625,
                    "durationTicks": 120,
                    "midi": 41,
                    "name": "F2",
                    "ticks": 162240,
                    "time": 84.5,
                    "velocity": 1
                },
                {
                    "duration": 0.03125,
                    "durationTicks": 60,
                    "midi": 57,
                    "name": "A3",
                    "ticks": 162720,
                    "time": 84.75,
                    "velocity": 1
                },
                {
                    "duration": 0.25,
                    "durationTicks": 480,
                    "midi": 40,
                    "name": "E2",
                    "ticks": 162720,
                    "time": 84.75,
                    "velocity": 1
                },
                {
                    "duration": 0.5,
                    "durationTicks": 960,
                    "midi": 60,
                    "name": "C4",
                    "ticks": 163200,
                    "time": 85,
                    "velocity": 1
                },
                {
                    "duration": 0.5,
                    "durationTicks": 960,
                    "midi": 55,
                    "name": "G3",
                    "ticks": 163200,
                    "time": 85,
                    "velocity": 1
                },
                {
                    "duration": 0.5,
                    "durationTicks": 960,
                    "midi": 48,
                    "name": "C3",
                    "ticks": 163200,
                    "time": 85,
                    "velocity": 1
                },
                {
                    "duration": 0.5,
                    "durationTicks": 960,
                    "midi": 64,
                    "name": "E4",
                    "ticks": 163200,
                    "time": 85,
                    "velocity": 1
                },
                {
                    "duration": 0.03125,
                    "durationTicks": 60,
                    "midi": 64,
                    "name": "E4",
                    "ticks": 164160,
                    "time": 85.5,
                    "velocity": 1
                },
                {
                    "duration": 0.0625,
                    "durationTicks": 120,
                    "midi": 48,
                    "name": "C3",
                    "ticks": 164160,
                    "time": 85.5,
                    "velocity": 1
                },
                {
                    "duration": 0.03125,
                    "durationTicks": 60,
                    "midi": 64,
                    "name": "E4",
                    "ticks": 164640,
                    "time": 85.75,
                    "velocity": 1
                },
                {
                    "duration": 0.25,
                    "durationTicks": 480,
                    "midi": 45,
                    "name": "A2",
                    "ticks": 164640,
                    "time": 85.75,
                    "velocity": 1
                },
                {
                    "duration": 0.5,
                    "durationTicks": 960,
                    "midi": 46,
                    "name": "A#2",
                    "ticks": 165120,
                    "time": 86,
                    "velocity": 1
                },
                {
                    "duration": 0.5,
                    "durationTicks": 960,
                    "midi": 58,
                    "name": "A#3",
                    "ticks": 165120,
                    "time": 86,
                    "velocity": 1
                },
                {
                    "duration": 0.5,
                    "durationTicks": 960,
                    "midi": 53,
                    "name": "F3",
                    "ticks": 165120,
                    "time": 86,
                    "velocity": 1
                },
                {
                    "duration": 0.5,
                    "durationTicks": 960,
                    "midi": 62,
                    "name": "D4",
                    "ticks": 165120,
                    "time": 86,
                    "velocity": 1
                },
                {
                    "duration": 0.03125,
                    "durationTicks": 60,
                    "midi": 62,
                    "name": "D4",
                    "ticks": 166080,
                    "time": 86.5,
                    "velocity": 1
                },
                {
                    "duration": 0.0625,
                    "durationTicks": 120,
                    "midi": 46,
                    "name": "A#2",
                    "ticks": 166080,
                    "time": 86.5,
                    "velocity": 1
                },
                {
                    "duration": 0.03125,
                    "durationTicks": 60,
                    "midi": 62,
                    "name": "D4",
                    "ticks": 166560,
                    "time": 86.75,
                    "velocity": 1
                },
                {
                    "duration": 0.25,
                    "durationTicks": 480,
                    "midi": 40,
                    "name": "E2",
                    "ticks": 166560,
                    "time": 86.75,
                    "velocity": 1
                },
                {
                    "duration": 0.5,
                    "durationTicks": 960,
                    "midi": 48,
                    "name": "C3",
                    "ticks": 167040,
                    "time": 87,
                    "velocity": 1
                },
                {
                    "duration": 0.5,
                    "durationTicks": 960,
                    "midi": 41,
                    "name": "F2",
                    "ticks": 167040,
                    "time": 87,
                    "velocity": 1
                },
                {
                    "duration": 0.5,
                    "durationTicks": 960,
                    "midi": 53,
                    "name": "F3",
                    "ticks": 167040,
                    "time": 87,
                    "velocity": 1
                },
                {
                    "duration": 0.5,
                    "durationTicks": 960,
                    "midi": 57,
                    "name": "A3",
                    "ticks": 167040,
                    "time": 87,
                    "velocity": 1
                },
                {
                    "duration": 0.03125,
                    "durationTicks": 60,
                    "midi": 57,
                    "name": "A3",
                    "ticks": 168000,
                    "time": 87.5,
                    "velocity": 1
                },
                {
                    "duration": 0.0625,
                    "durationTicks": 120,
                    "midi": 41,
                    "name": "F2",
                    "ticks": 168000,
                    "time": 87.5,
                    "velocity": 1
                },
                {
                    "duration": 0.03125,
                    "durationTicks": 60,
                    "midi": 57,
                    "name": "A3",
                    "ticks": 168480,
                    "time": 87.75,
                    "velocity": 1
                },
                {
                    "duration": 0.0625,
                    "durationTicks": 120,
                    "midi": 41,
                    "name": "F2",
                    "ticks": 168480,
                    "time": 87.75,
                    "velocity": 1
                },
                {
                    "duration": 0.5,
                    "durationTicks": 960,
                    "midi": 48,
                    "name": "C3",
                    "ticks": 168960,
                    "time": 88,
                    "velocity": 1
                },
                {
                    "duration": 0.5,
                    "durationTicks": 960,
                    "midi": 41,
                    "name": "F2",
                    "ticks": 168960,
                    "time": 88,
                    "velocity": 1
                },
                {
                    "duration": 0.5,
                    "durationTicks": 960,
                    "midi": 53,
                    "name": "F3",
                    "ticks": 168960,
                    "time": 88,
                    "velocity": 1
                },
                {
                    "duration": 0.5,
                    "durationTicks": 960,
                    "midi": 57,
                    "name": "A3",
                    "ticks": 168960,
                    "time": 88,
                    "velocity": 1
                },
                {
                    "duration": 0.03125,
                    "durationTicks": 60,
                    "midi": 57,
                    "name": "A3",
                    "ticks": 169920,
                    "time": 88.5,
                    "velocity": 1
                },
                {
                    "duration": 0.0625,
                    "durationTicks": 120,
                    "midi": 41,
                    "name": "F2",
                    "ticks": 169920,
                    "time": 88.5,
                    "velocity": 1
                },
                {
                    "duration": 0.03125,
                    "durationTicks": 60,
                    "midi": 57,
                    "name": "A3",
                    "ticks": 170400,
                    "time": 88.75,
                    "velocity": 1
                },
                {
                    "duration": 0.25,
                    "durationTicks": 480,
                    "midi": 40,
                    "name": "E2",
                    "ticks": 170400,
                    "time": 88.75,
                    "velocity": 1
                },
                {
                    "duration": 0.5,
                    "durationTicks": 960,
                    "midi": 60,
                    "name": "C4",
                    "ticks": 170880,
                    "time": 89,
                    "velocity": 1
                },
                {
                    "duration": 0.5,
                    "durationTicks": 960,
                    "midi": 55,
                    "name": "G3",
                    "ticks": 170880,
                    "time": 89,
                    "velocity": 1
                },
                {
                    "duration": 0.5,
                    "durationTicks": 960,
                    "midi": 48,
                    "name": "C3",
                    "ticks": 170880,
                    "time": 89,
                    "velocity": 1
                },
                {
                    "duration": 0.5,
                    "durationTicks": 960,
                    "midi": 64,
                    "name": "E4",
                    "ticks": 170880,
                    "time": 89,
                    "velocity": 1
                },
                {
                    "duration": 0.03125,
                    "durationTicks": 60,
                    "midi": 64,
                    "name": "E4",
                    "ticks": 171840,
                    "time": 89.5,
                    "velocity": 1
                },
                {
                    "duration": 0.0625,
                    "durationTicks": 120,
                    "midi": 48,
                    "name": "C3",
                    "ticks": 171840,
                    "time": 89.5,
                    "velocity": 1
                },
                {
                    "duration": 0.03125,
                    "durationTicks": 60,
                    "midi": 64,
                    "name": "E4",
                    "ticks": 172320,
                    "time": 89.75,
                    "velocity": 1
                },
                {
                    "duration": 0.25,
                    "durationTicks": 480,
                    "midi": 45,
                    "name": "A2",
                    "ticks": 172320,
                    "time": 89.75,
                    "velocity": 1
                },
                {
                    "duration": 0.5,
                    "durationTicks": 960,
                    "midi": 46,
                    "name": "A#2",
                    "ticks": 172800,
                    "time": 90,
                    "velocity": 1
                },
                {
                    "duration": 0.5,
                    "durationTicks": 960,
                    "midi": 58,
                    "name": "A#3",
                    "ticks": 172800,
                    "time": 90,
                    "velocity": 1
                },
                {
                    "duration": 0.5,
                    "durationTicks": 960,
                    "midi": 53,
                    "name": "F3",
                    "ticks": 172800,
                    "time": 90,
                    "velocity": 1
                },
                {
                    "duration": 0.5,
                    "durationTicks": 960,
                    "midi": 62,
                    "name": "D4",
                    "ticks": 172800,
                    "time": 90,
                    "velocity": 1
                },
                {
                    "duration": 0.03125,
                    "durationTicks": 60,
                    "midi": 62,
                    "name": "D4",
                    "ticks": 173760,
                    "time": 90.5,
                    "velocity": 1
                },
                {
                    "duration": 0.0625,
                    "durationTicks": 120,
                    "midi": 46,
                    "name": "A#2",
                    "ticks": 173760,
                    "time": 90.5,
                    "velocity": 1
                },
                {
                    "duration": 0.03125,
                    "durationTicks": 60,
                    "midi": 62,
                    "name": "D4",
                    "ticks": 174240,
                    "time": 90.75,
                    "velocity": 1
                },
                {
                    "duration": 0.25,
                    "durationTicks": 480,
                    "midi": 40,
                    "name": "E2",
                    "ticks": 174240,
                    "time": 90.75,
                    "velocity": 1
                },
                {
                    "duration": 0.5,
                    "durationTicks": 960,
                    "midi": 48,
                    "name": "C3",
                    "ticks": 174720,
                    "time": 91,
                    "velocity": 1
                },
                {
                    "duration": 0.5,
                    "durationTicks": 960,
                    "midi": 41,
                    "name": "F2",
                    "ticks": 174720,
                    "time": 91,
                    "velocity": 1
                },
                {
                    "duration": 0.5,
                    "durationTicks": 960,
                    "midi": 53,
                    "name": "F3",
                    "ticks": 174720,
                    "time": 91,
                    "velocity": 1
                },
                {
                    "duration": 0.5,
                    "durationTicks": 960,
                    "midi": 57,
                    "name": "A3",
                    "ticks": 174720,
                    "time": 91,
                    "velocity": 1
                },
                {
                    "duration": 0.03125,
                    "durationTicks": 60,
                    "midi": 57,
                    "name": "A3",
                    "ticks": 175680,
                    "time": 91.5,
                    "velocity": 1
                },
                {
                    "duration": 0.0625,
                    "durationTicks": 120,
                    "midi": 41,
                    "name": "F2",
                    "ticks": 175680,
                    "time": 91.5,
                    "velocity": 1
                },
                {
                    "duration": 0.03125,
                    "durationTicks": 60,
                    "midi": 57,
                    "name": "A3",
                    "ticks": 176160,
                    "time": 91.75,
                    "velocity": 1
                },
                {
                    "duration": 0.0625,
                    "durationTicks": 120,
                    "midi": 41,
                    "name": "F2",
                    "ticks": 176160,
                    "time": 91.75,
                    "velocity": 1
                },
                {
                    "duration": 0.5,
                    "durationTicks": 960,
                    "midi": 55,
                    "name": "G3",
                    "ticks": 176640,
                    "time": 92,
                    "velocity": 1
                },
                {
                    "duration": 0.5,
                    "durationTicks": 960,
                    "midi": 43,
                    "name": "G2",
                    "ticks": 176640,
                    "time": 92,
                    "velocity": 1
                },
                {
                    "duration": 0.5,
                    "durationTicks": 960,
                    "midi": 50,
                    "name": "D3",
                    "ticks": 176640,
                    "time": 92,
                    "velocity": 1
                },
                {
                    "duration": 0.5,
                    "durationTicks": 960,
                    "midi": 58,
                    "name": "A#3",
                    "ticks": 176640,
                    "time": 92,
                    "velocity": 1
                },
                {
                    "duration": 0.5,
                    "durationTicks": 960,
                    "midi": 58,
                    "name": "A#3",
                    "ticks": 177600,
                    "time": 92.5,
                    "velocity": 1
                },
                {
                    "duration": 0.5,
                    "durationTicks": 960,
                    "midi": 55,
                    "name": "G3",
                    "ticks": 177600,
                    "time": 92.5,
                    "velocity": 1
                },
                {
                    "duration": 0.5,
                    "durationTicks": 960,
                    "midi": 50,
                    "name": "D3",
                    "ticks": 177600,
                    "time": 92.5,
                    "velocity": 1
                },
                {
                    "duration": 0.5,
                    "durationTicks": 960,
                    "midi": 43,
                    "name": "G2",
                    "ticks": 177600,
                    "time": 92.5,
                    "velocity": 1
                },
                {
                    "duration": 0.5,
                    "durationTicks": 960,
                    "midi": 60,
                    "name": "C4",
                    "ticks": 178560,
                    "time": 93,
                    "velocity": 1
                },
                {
                    "duration": 0.5,
                    "durationTicks": 960,
                    "midi": 48,
                    "name": "C3",
                    "ticks": 178560,
                    "time": 93,
                    "velocity": 1
                },
                {
                    "duration": 0.5,
                    "durationTicks": 960,
                    "midi": 55,
                    "name": "G3",
                    "ticks": 178560,
                    "time": 93,
                    "velocity": 1
                },
                {
                    "duration": 0.5,
                    "durationTicks": 960,
                    "midi": 52,
                    "name": "E3",
                    "ticks": 178560,
                    "time": 93,
                    "velocity": 1
                },
                {
                    "duration": 0.5,
                    "durationTicks": 960,
                    "midi": 60,
                    "name": "C4",
                    "ticks": 179520,
                    "time": 93.5,
                    "velocity": 1
                },
                {
                    "duration": 0.5,
                    "durationTicks": 960,
                    "midi": 48,
                    "name": "C3",
                    "ticks": 179520,
                    "time": 93.5,
                    "velocity": 1
                },
                {
                    "duration": 0.5,
                    "durationTicks": 960,
                    "midi": 55,
                    "name": "G3",
                    "ticks": 179520,
                    "time": 93.5,
                    "velocity": 1
                },
                {
                    "duration": 0.5,
                    "durationTicks": 960,
                    "midi": 52,
                    "name": "E3",
                    "ticks": 179520,
                    "time": 93.5,
                    "velocity": 1
                },
                {
                    "duration": 0.5,
                    "durationTicks": 960,
                    "midi": 53,
                    "name": "F3",
                    "ticks": 180480,
                    "time": 94,
                    "velocity": 1
                },
                {
                    "duration": 0.5,
                    "durationTicks": 960,
                    "midi": 60,
                    "name": "C4",
                    "ticks": 180480,
                    "time": 94,
                    "velocity": 1
                },
                {
                    "duration": 0.5,
                    "durationTicks": 960,
                    "midi": 65,
                    "name": "F4",
                    "ticks": 180480,
                    "time": 94,
                    "velocity": 1
                },
                {
                    "duration": 0.5,
                    "durationTicks": 960,
                    "midi": 45,
                    "name": "A2",
                    "ticks": 180480,
                    "time": 94,
                    "velocity": 1
                },
                {
                    "duration": 0.5,
                    "durationTicks": 960,
                    "midi": 53,
                    "name": "F3",
                    "ticks": 181440,
                    "time": 94.5,
                    "velocity": 1
                },
                {
                    "duration": 0.5,
                    "durationTicks": 960,
                    "midi": 60,
                    "name": "C4",
                    "ticks": 181440,
                    "time": 94.5,
                    "velocity": 1
                },
                {
                    "duration": 0.5,
                    "durationTicks": 960,
                    "midi": 65,
                    "name": "F4",
                    "ticks": 181440,
                    "time": 94.5,
                    "velocity": 1
                },
                {
                    "duration": 0.5,
                    "durationTicks": 960,
                    "midi": 45,
                    "name": "A2",
                    "ticks": 181440,
                    "time": 94.5,
                    "velocity": 1
                },
                {
                    "duration": 0.5,
                    "durationTicks": 960,
                    "midi": 50,
                    "name": "D3",
                    "ticks": 182400,
                    "time": 95,
                    "velocity": 1
                },
                {
                    "duration": 0.5,
                    "durationTicks": 960,
                    "midi": 57,
                    "name": "A3",
                    "ticks": 182400,
                    "time": 95,
                    "velocity": 1
                },
                {
                    "duration": 0.5,
                    "durationTicks": 960,
                    "midi": 62,
                    "name": "D4",
                    "ticks": 182400,
                    "time": 95,
                    "velocity": 1
                },
                {
                    "duration": 0.5,
                    "durationTicks": 960,
                    "midi": 53,
                    "name": "F3",
                    "ticks": 182400,
                    "time": 95,
                    "velocity": 1
                },
                {
                    "duration": 0.5,
                    "durationTicks": 960,
                    "midi": 50,
                    "name": "D3",
                    "ticks": 183360,
                    "time": 95.5,
                    "velocity": 1
                },
                {
                    "duration": 0.5,
                    "durationTicks": 960,
                    "midi": 62,
                    "name": "D4",
                    "ticks": 183360,
                    "time": 95.5,
                    "velocity": 1
                },
                {
                    "duration": 0.5,
                    "durationTicks": 960,
                    "midi": 57,
                    "name": "A3",
                    "ticks": 183360,
                    "time": 95.5,
                    "velocity": 1
                },
                {
                    "duration": 0.5,
                    "durationTicks": 960,
                    "midi": 53,
                    "name": "F3",
                    "ticks": 183360,
                    "time": 95.5,
                    "velocity": 1
                },
                {
                    "duration": 0.5,
                    "durationTicks": 960,
                    "midi": 62,
                    "name": "D4",
                    "ticks": 184320,
                    "time": 96,
                    "velocity": 1
                },
                {
                    "duration": 0.5,
                    "durationTicks": 960,
                    "midi": 46,
                    "name": "A#2",
                    "ticks": 184320,
                    "time": 96,
                    "velocity": 1
                },
                {
                    "duration": 0.5,
                    "durationTicks": 960,
                    "midi": 53,
                    "name": "F3",
                    "ticks": 184320,
                    "time": 96,
                    "velocity": 1
                },
                {
                    "duration": 0.5,
                    "durationTicks": 960,
                    "midi": 58,
                    "name": "A#3",
                    "ticks": 184320,
                    "time": 96,
                    "velocity": 1
                },
                {
                    "duration": 0.5,
                    "durationTicks": 960,
                    "midi": 62,
                    "name": "D4",
                    "ticks": 185280,
                    "time": 96.5,
                    "velocity": 1
                },
                {
                    "duration": 0.5,
                    "durationTicks": 960,
                    "midi": 53,
                    "name": "F3",
                    "ticks": 185280,
                    "time": 96.5,
                    "velocity": 1
                },
                {
                    "duration": 0.5,
                    "durationTicks": 960,
                    "midi": 58,
                    "name": "A#3",
                    "ticks": 185280,
                    "time": 96.5,
                    "velocity": 1
                },
                {
                    "duration": 0.5,
                    "durationTicks": 960,
                    "midi": 46,
                    "name": "A#2",
                    "ticks": 185280,
                    "time": 96.5,
                    "velocity": 1
                },
                {
                    "duration": 0.5,
                    "durationTicks": 960,
                    "midi": 61,
                    "name": "C#4",
                    "ticks": 186240,
                    "time": 97,
                    "velocity": 1
                },
                {
                    "duration": 0.5,
                    "durationTicks": 960,
                    "midi": 45,
                    "name": "A2",
                    "ticks": 186240,
                    "time": 97,
                    "velocity": 1
                },
                {
                    "duration": 0.5,
                    "durationTicks": 960,
                    "midi": 52,
                    "name": "E3",
                    "ticks": 186240,
                    "time": 97,
                    "velocity": 1
                },
                {
                    "duration": 0.5,
                    "durationTicks": 960,
                    "midi": 57,
                    "name": "A3",
                    "ticks": 186240,
                    "time": 97,
                    "velocity": 1
                },
                {
                    "duration": 0.5,
                    "durationTicks": 960,
                    "midi": 61,
                    "name": "C#4",
                    "ticks": 187200,
                    "time": 97.5,
                    "velocity": 1
                },
                {
                    "duration": 0.5,
                    "durationTicks": 960,
                    "midi": 52,
                    "name": "E3",
                    "ticks": 187200,
                    "time": 97.5,
                    "velocity": 1
                },
                {
                    "duration": 0.5,
                    "durationTicks": 960,
                    "midi": 57,
                    "name": "A3",
                    "ticks": 187200,
                    "time": 97.5,
                    "velocity": 1
                },
                {
                    "duration": 0.5,
                    "durationTicks": 960,
                    "midi": 45,
                    "name": "A2",
                    "ticks": 187200,
                    "time": 97.5,
                    "velocity": 1
                },
                {
                    "duration": 2,
                    "durationTicks": 3840,
                    "midi": 50,
                    "name": "D3",
                    "ticks": 188160,
                    "time": 98,
                    "velocity": 1
                },
                {
                    "duration": 2,
                    "durationTicks": 3840,
                    "midi": 62,
                    "name": "D4",
                    "ticks": 188160,
                    "time": 98,
                    "velocity": 1
                },
                {
                    "duration": 2,
                    "durationTicks": 3840,
                    "midi": 57,
                    "name": "A3",
                    "ticks": 188160,
                    "time": 98,
                    "velocity": 1
                },
                {
                    "duration": 2,
                    "durationTicks": 3840,
                    "midi": 66,
                    "name": "F#4",
                    "ticks": 188160,
                    "time": 98,
                    "velocity": 1
                },
                {
                    "duration": 1.0625,
                    "durationTicks": 2040,
                    "midi": 50,
                    "name": "D3",
                    "ticks": 193800,
                    "time": 100.9375,
                    "velocity": 1
                },
                {
                    "duration": 1.03125,
                    "durationTicks": 1980,
                    "midi": 57,
                    "name": "A3",
                    "ticks": 193860,
                    "time": 100.96875,
                    "velocity": 1
                },
                {
                    "duration": 0.3333333333333286,
                    "durationTicks": 640,
                    "midi": 67,
                    "name": "G4",
                    "ticks": 193920,
                    "time": 101,
                    "velocity": 1
                },
                {
                    "duration": 0.65625,
                    "durationTicks": 1260,
                    "midi": 62,
                    "name": "D4",
                    "ticks": 193920,
                    "time": 101,
                    "velocity": 1
                },
                {
                    "duration": 0.3333333333333428,
                    "durationTicks": 640,
                    "midi": 66,
                    "name": "F#4",
                    "ticks": 194560,
                    "time": 101.33333333333333,
                    "velocity": 1
                },
                {
                    "duration": 0.3333333333333286,
                    "durationTicks": 640,
                    "midi": 62,
                    "name": "D4",
                    "ticks": 195200,
                    "time": 101.66666666666667,
                    "velocity": 1
                },
                {
                    "duration": 2,
                    "durationTicks": 3840,
                    "midi": 50,
                    "name": "D3",
                    "ticks": 195840,
                    "time": 102,
                    "velocity": 1
                },
                {
                    "duration": 2,
                    "durationTicks": 3840,
                    "midi": 57,
                    "name": "A3",
                    "ticks": 195840,
                    "time": 102,
                    "velocity": 1
                },
                {
                    "duration": 0.375,
                    "durationTicks": 720,
                    "midi": 59,
                    "name": "B3",
                    "ticks": 201600,
                    "time": 105,
                    "velocity": 1
                },
                {
                    "duration": 0.375,
                    "durationTicks": 720,
                    "midi": 54,
                    "name": "F#3",
                    "ticks": 201600,
                    "time": 105,
                    "velocity": 1
                },
                {
                    "duration": 0.125,
                    "durationTicks": 240,
                    "midi": 59,
                    "name": "B3",
                    "ticks": 202320,
                    "time": 105.375,
                    "velocity": 1
                },
                {
                    "duration": 0.125,
                    "durationTicks": 240,
                    "midi": 54,
                    "name": "F#3",
                    "ticks": 202320,
                    "time": 105.375,
                    "velocity": 1
                },
                {
                    "duration": 0.25,
                    "durationTicks": 480,
                    "midi": 57,
                    "name": "A3",
                    "ticks": 203040,
                    "time": 105.75,
                    "velocity": 1
                },
                {
                    "duration": 0.25,
                    "durationTicks": 480,
                    "midi": 52,
                    "name": "E3",
                    "ticks": 203040,
                    "time": 105.75,
                    "velocity": 1
                },
                {
                    "duration": 0.25,
                    "durationTicks": 480,
                    "midi": 45,
                    "name": "A2",
                    "ticks": 203040,
                    "time": 105.75,
                    "velocity": 1
                },
                {
                    "duration": 2,
                    "durationTicks": 3840,
                    "midi": 62,
                    "name": "D4",
                    "ticks": 203520,
                    "time": 106,
                    "velocity": 1
                },
                {
                    "duration": 2,
                    "durationTicks": 3840,
                    "midi": 50,
                    "name": "D3",
                    "ticks": 203520,
                    "time": 106,
                    "velocity": 1
                },
                {
                    "duration": 2,
                    "durationTicks": 3840,
                    "midi": 57,
                    "name": "A3",
                    "ticks": 203520,
                    "time": 106,
                    "velocity": 1
                },
                {
                    "duration": 2,
                    "durationTicks": 3840,
                    "midi": 66,
                    "name": "F#4",
                    "ticks": 203520,
                    "time": 106,
                    "velocity": 1
                },
                {
                    "duration": 0.0625,
                    "durationTicks": 120,
                    "midi": 58,
                    "name": "A#3",
                    "ticks": 258240,
                    "time": 134.5,
                    "velocity": 1
                },
                {
                    "duration": 0.0625,
                    "durationTicks": 120,
                    "midi": 53,
                    "name": "F3",
                    "ticks": 258240,
                    "time": 134.5,
                    "velocity": 1
                },
                {
                    "duration": 0.0625,
                    "durationTicks": 120,
                    "midi": 58,
                    "name": "A#3",
                    "ticks": 258720,
                    "time": 134.75,
                    "velocity": 1
                },
                {
                    "duration": 0.0625,
                    "durationTicks": 120,
                    "midi": 53,
                    "name": "F3",
                    "ticks": 258720,
                    "time": 134.75,
                    "velocity": 1
                },
                {
                    "duration": 0.0625,
                    "durationTicks": 120,
                    "midi": 58,
                    "name": "A#3",
                    "ticks": 259200,
                    "time": 135,
                    "velocity": 1
                },
                {
                    "duration": 0.0625,
                    "durationTicks": 120,
                    "midi": 53,
                    "name": "F3",
                    "ticks": 259200,
                    "time": 135,
                    "velocity": 1
                },
                {
                    "duration": 0.0625,
                    "durationTicks": 120,
                    "midi": 58,
                    "name": "A#3",
                    "ticks": 259680,
                    "time": 135.25,
                    "velocity": 1
                },
                {
                    "duration": 0.0625,
                    "durationTicks": 120,
                    "midi": 53,
                    "name": "F3",
                    "ticks": 259680,
                    "time": 135.25,
                    "velocity": 1
                },
                {
                    "duration": 0.0625,
                    "durationTicks": 120,
                    "midi": 58,
                    "name": "A#3",
                    "ticks": 260160,
                    "time": 135.5,
                    "velocity": 1
                },
                {
                    "duration": 0.0625,
                    "durationTicks": 120,
                    "midi": 53,
                    "name": "F3",
                    "ticks": 260160,
                    "time": 135.5,
                    "velocity": 1
                },
                {
                    "duration": 0.0625,
                    "durationTicks": 120,
                    "midi": 58,
                    "name": "A#3",
                    "ticks": 260640,
                    "time": 135.75,
                    "velocity": 1
                },
                {
                    "duration": 0.0625,
                    "durationTicks": 120,
                    "midi": 53,
                    "name": "F3",
                    "ticks": 260640,
                    "time": 135.75,
                    "velocity": 1
                },
                {
                    "duration": 0.25,
                    "durationTicks": 480,
                    "midi": 40,
                    "name": "E2",
                    "ticks": 260640,
                    "time": 135.75,
                    "velocity": 1
                },
                {
                    "duration": 0.5,
                    "durationTicks": 960,
                    "midi": 48,
                    "name": "C3",
                    "ticks": 261120,
                    "time": 136,
                    "velocity": 1
                },
                {
                    "duration": 0.5,
                    "durationTicks": 960,
                    "midi": 41,
                    "name": "F2",
                    "ticks": 261120,
                    "time": 136,
                    "velocity": 1
                },
                {
                    "duration": 0.5,
                    "durationTicks": 960,
                    "midi": 53,
                    "name": "F3",
                    "ticks": 261120,
                    "time": 136,
                    "velocity": 1
                },
                {
                    "duration": 0.5,
                    "durationTicks": 960,
                    "midi": 57,
                    "name": "A3",
                    "ticks": 261120,
                    "time": 136,
                    "velocity": 1
                },
                {
                    "duration": 0.03125,
                    "durationTicks": 60,
                    "midi": 57,
                    "name": "A3",
                    "ticks": 262080,
                    "time": 136.5,
                    "velocity": 1
                },
                {
                    "duration": 0.0625,
                    "durationTicks": 120,
                    "midi": 41,
                    "name": "F2",
                    "ticks": 262080,
                    "time": 136.5,
                    "velocity": 1
                },
                {
                    "duration": 0.03125,
                    "durationTicks": 60,
                    "midi": 57,
                    "name": "A3",
                    "ticks": 262560,
                    "time": 136.75,
                    "velocity": 1
                },
                {
                    "duration": 0.25,
                    "durationTicks": 480,
                    "midi": 40,
                    "name": "E2",
                    "ticks": 262560,
                    "time": 136.75,
                    "velocity": 1
                },
                {
                    "duration": 0.5,
                    "durationTicks": 960,
                    "midi": 60,
                    "name": "C4",
                    "ticks": 263040,
                    "time": 137,
                    "velocity": 1
                },
                {
                    "duration": 0.5,
                    "durationTicks": 960,
                    "midi": 55,
                    "name": "G3",
                    "ticks": 263040,
                    "time": 137,
                    "velocity": 1
                },
                {
                    "duration": 0.5,
                    "durationTicks": 960,
                    "midi": 48,
                    "name": "C3",
                    "ticks": 263040,
                    "time": 137,
                    "velocity": 1
                },
                {
                    "duration": 0.5,
                    "durationTicks": 960,
                    "midi": 64,
                    "name": "E4",
                    "ticks": 263040,
                    "time": 137,
                    "velocity": 1
                },
                {
                    "duration": 0.03125,
                    "durationTicks": 60,
                    "midi": 64,
                    "name": "E4",
                    "ticks": 264000,
                    "time": 137.5,
                    "velocity": 1
                },
                {
                    "duration": 0.0625,
                    "durationTicks": 120,
                    "midi": 48,
                    "name": "C3",
                    "ticks": 264000,
                    "time": 137.5,
                    "velocity": 1
                },
                {
                    "duration": 0.03125,
                    "durationTicks": 60,
                    "midi": 64,
                    "name": "E4",
                    "ticks": 264480,
                    "time": 137.75,
                    "velocity": 1
                },
                {
                    "duration": 0.25,
                    "durationTicks": 480,
                    "midi": 45,
                    "name": "A2",
                    "ticks": 264480,
                    "time": 137.75,
                    "velocity": 1
                },
                {
                    "duration": 0.5,
                    "durationTicks": 960,
                    "midi": 46,
                    "name": "A#2",
                    "ticks": 264960,
                    "time": 138,
                    "velocity": 1
                },
                {
                    "duration": 0.5,
                    "durationTicks": 960,
                    "midi": 58,
                    "name": "A#3",
                    "ticks": 264960,
                    "time": 138,
                    "velocity": 1
                },
                {
                    "duration": 0.5,
                    "durationTicks": 960,
                    "midi": 53,
                    "name": "F3",
                    "ticks": 264960,
                    "time": 138,
                    "velocity": 1
                },
                {
                    "duration": 0.5,
                    "durationTicks": 960,
                    "midi": 62,
                    "name": "D4",
                    "ticks": 264960,
                    "time": 138,
                    "velocity": 1
                },
                {
                    "duration": 0.03125,
                    "durationTicks": 60,
                    "midi": 62,
                    "name": "D4",
                    "ticks": 265920,
                    "time": 138.5,
                    "velocity": 1
                },
                {
                    "duration": 0.0625,
                    "durationTicks": 120,
                    "midi": 46,
                    "name": "A#2",
                    "ticks": 265920,
                    "time": 138.5,
                    "velocity": 1
                },
                {
                    "duration": 0.03125,
                    "durationTicks": 60,
                    "midi": 62,
                    "name": "D4",
                    "ticks": 266400,
                    "time": 138.75,
                    "velocity": 1
                },
                {
                    "duration": 0.25,
                    "durationTicks": 480,
                    "midi": 40,
                    "name": "E2",
                    "ticks": 266400,
                    "time": 138.75,
                    "velocity": 1
                },
                {
                    "duration": 0.5,
                    "durationTicks": 960,
                    "midi": 48,
                    "name": "C3",
                    "ticks": 266880,
                    "time": 139,
                    "velocity": 1
                },
                {
                    "duration": 0.5,
                    "durationTicks": 960,
                    "midi": 41,
                    "name": "F2",
                    "ticks": 266880,
                    "time": 139,
                    "velocity": 1
                },
                {
                    "duration": 0.5,
                    "durationTicks": 960,
                    "midi": 53,
                    "name": "F3",
                    "ticks": 266880,
                    "time": 139,
                    "velocity": 1
                },
                {
                    "duration": 0.5,
                    "durationTicks": 960,
                    "midi": 57,
                    "name": "A3",
                    "ticks": 266880,
                    "time": 139,
                    "velocity": 1
                },
                {
                    "duration": 0.03125,
                    "durationTicks": 60,
                    "midi": 57,
                    "name": "A3",
                    "ticks": 267840,
                    "time": 139.5,
                    "velocity": 1
                },
                {
                    "duration": 0.0625,
                    "durationTicks": 120,
                    "midi": 41,
                    "name": "F2",
                    "ticks": 267840,
                    "time": 139.5,
                    "velocity": 1
                },
                {
                    "duration": 0.03125,
                    "durationTicks": 60,
                    "midi": 57,
                    "name": "A3",
                    "ticks": 268320,
                    "time": 139.75,
                    "velocity": 1
                },
                {
                    "duration": 0.0625,
                    "durationTicks": 120,
                    "midi": 41,
                    "name": "F2",
                    "ticks": 268320,
                    "time": 139.75,
                    "velocity": 1
                },
                {
                    "duration": 0.5,
                    "durationTicks": 960,
                    "midi": 48,
                    "name": "C3",
                    "ticks": 268800,
                    "time": 140,
                    "velocity": 1
                },
                {
                    "duration": 0.5,
                    "durationTicks": 960,
                    "midi": 41,
                    "name": "F2",
                    "ticks": 268800,
                    "time": 140,
                    "velocity": 1
                },
                {
                    "duration": 0.5,
                    "durationTicks": 960,
                    "midi": 53,
                    "name": "F3",
                    "ticks": 268800,
                    "time": 140,
                    "velocity": 1
                },
                {
                    "duration": 0.5,
                    "durationTicks": 960,
                    "midi": 57,
                    "name": "A3",
                    "ticks": 268800,
                    "time": 140,
                    "velocity": 1
                },
                {
                    "duration": 0.03125,
                    "durationTicks": 60,
                    "midi": 57,
                    "name": "A3",
                    "ticks": 269760,
                    "time": 140.5,
                    "velocity": 1
                },
                {
                    "duration": 0.0625,
                    "durationTicks": 120,
                    "midi": 41,
                    "name": "F2",
                    "ticks": 269760,
                    "time": 140.5,
                    "velocity": 1
                },
                {
                    "duration": 0.03125,
                    "durationTicks": 60,
                    "midi": 57,
                    "name": "A3",
                    "ticks": 270240,
                    "time": 140.75,
                    "velocity": 1
                },
                {
                    "duration": 0.25,
                    "durationTicks": 480,
                    "midi": 40,
                    "name": "E2",
                    "ticks": 270240,
                    "time": 140.75,
                    "velocity": 1
                },
                {
                    "duration": 0.5,
                    "durationTicks": 960,
                    "midi": 60,
                    "name": "C4",
                    "ticks": 270720,
                    "time": 141,
                    "velocity": 1
                },
                {
                    "duration": 0.5,
                    "durationTicks": 960,
                    "midi": 55,
                    "name": "G3",
                    "ticks": 270720,
                    "time": 141,
                    "velocity": 1
                },
                {
                    "duration": 0.5,
                    "durationTicks": 960,
                    "midi": 48,
                    "name": "C3",
                    "ticks": 270720,
                    "time": 141,
                    "velocity": 1
                },
                {
                    "duration": 0.5,
                    "durationTicks": 960,
                    "midi": 64,
                    "name": "E4",
                    "ticks": 270720,
                    "time": 141,
                    "velocity": 1
                },
                {
                    "duration": 0.03125,
                    "durationTicks": 60,
                    "midi": 64,
                    "name": "E4",
                    "ticks": 271680,
                    "time": 141.5,
                    "velocity": 1
                },
                {
                    "duration": 0.0625,
                    "durationTicks": 120,
                    "midi": 48,
                    "name": "C3",
                    "ticks": 271680,
                    "time": 141.5,
                    "velocity": 1
                },
                {
                    "duration": 0.03125,
                    "durationTicks": 60,
                    "midi": 64,
                    "name": "E4",
                    "ticks": 272160,
                    "time": 141.75,
                    "velocity": 1
                },
                {
                    "duration": 0.25,
                    "durationTicks": 480,
                    "midi": 45,
                    "name": "A2",
                    "ticks": 272160,
                    "time": 141.75,
                    "velocity": 1
                },
                {
                    "duration": 0.5,
                    "durationTicks": 960,
                    "midi": 46,
                    "name": "A#2",
                    "ticks": 272640,
                    "time": 142,
                    "velocity": 1
                },
                {
                    "duration": 0.5,
                    "durationTicks": 960,
                    "midi": 58,
                    "name": "A#3",
                    "ticks": 272640,
                    "time": 142,
                    "velocity": 1
                },
                {
                    "duration": 0.5,
                    "durationTicks": 960,
                    "midi": 53,
                    "name": "F3",
                    "ticks": 272640,
                    "time": 142,
                    "velocity": 1
                },
                {
                    "duration": 0.5,
                    "durationTicks": 960,
                    "midi": 62,
                    "name": "D4",
                    "ticks": 272640,
                    "time": 142,
                    "velocity": 1
                },
                {
                    "duration": 0.03125,
                    "durationTicks": 60,
                    "midi": 62,
                    "name": "D4",
                    "ticks": 273600,
                    "time": 142.5,
                    "velocity": 1
                },
                {
                    "duration": 0.0625,
                    "durationTicks": 120,
                    "midi": 46,
                    "name": "A#2",
                    "ticks": 273600,
                    "time": 142.5,
                    "velocity": 1
                },
                {
                    "duration": 0.03125,
                    "durationTicks": 60,
                    "midi": 62,
                    "name": "D4",
                    "ticks": 274080,
                    "time": 142.75,
                    "velocity": 1
                },
                {
                    "duration": 0.25,
                    "durationTicks": 480,
                    "midi": 40,
                    "name": "E2",
                    "ticks": 274080,
                    "time": 142.75,
                    "velocity": 1
                },
                {
                    "duration": 0.5,
                    "durationTicks": 960,
                    "midi": 48,
                    "name": "C3",
                    "ticks": 274560,
                    "time": 143,
                    "velocity": 1
                },
                {
                    "duration": 0.5,
                    "durationTicks": 960,
                    "midi": 41,
                    "name": "F2",
                    "ticks": 274560,
                    "time": 143,
                    "velocity": 1
                },
                {
                    "duration": 0.5,
                    "durationTicks": 960,
                    "midi": 53,
                    "name": "F3",
                    "ticks": 274560,
                    "time": 143,
                    "velocity": 1
                },
                {
                    "duration": 0.5,
                    "durationTicks": 960,
                    "midi": 57,
                    "name": "A3",
                    "ticks": 274560,
                    "time": 143,
                    "velocity": 1
                },
                {
                    "duration": 0.03125,
                    "durationTicks": 60,
                    "midi": 57,
                    "name": "A3",
                    "ticks": 275520,
                    "time": 143.5,
                    "velocity": 1
                },
                {
                    "duration": 0.0625,
                    "durationTicks": 120,
                    "midi": 41,
                    "name": "F2",
                    "ticks": 275520,
                    "time": 143.5,
                    "velocity": 1
                },
                {
                    "duration": 0.03125,
                    "durationTicks": 60,
                    "midi": 57,
                    "name": "A3",
                    "ticks": 276000,
                    "time": 143.75,
                    "velocity": 1
                },
                {
                    "duration": 0.0625,
                    "durationTicks": 120,
                    "midi": 41,
                    "name": "F2",
                    "ticks": 276000,
                    "time": 143.75,
                    "velocity": 1
                },
                {
                    "duration": 0.5,
                    "durationTicks": 960,
                    "midi": 55,
                    "name": "G3",
                    "ticks": 276480,
                    "time": 144,
                    "velocity": 1
                },
                {
                    "duration": 0.5,
                    "durationTicks": 960,
                    "midi": 43,
                    "name": "G2",
                    "ticks": 276480,
                    "time": 144,
                    "velocity": 1
                },
                {
                    "duration": 0.5,
                    "durationTicks": 960,
                    "midi": 50,
                    "name": "D3",
                    "ticks": 276480,
                    "time": 144,
                    "velocity": 1
                },
                {
                    "duration": 0.5,
                    "durationTicks": 960,
                    "midi": 58,
                    "name": "A#3",
                    "ticks": 276480,
                    "time": 144,
                    "velocity": 1
                },
                {
                    "duration": 0.5,
                    "durationTicks": 960,
                    "midi": 58,
                    "name": "A#3",
                    "ticks": 277440,
                    "time": 144.5,
                    "velocity": 1
                },
                {
                    "duration": 0.5,
                    "durationTicks": 960,
                    "midi": 55,
                    "name": "G3",
                    "ticks": 277440,
                    "time": 144.5,
                    "velocity": 1
                },
                {
                    "duration": 0.5,
                    "durationTicks": 960,
                    "midi": 50,
                    "name": "D3",
                    "ticks": 277440,
                    "time": 144.5,
                    "velocity": 1
                },
                {
                    "duration": 0.5,
                    "durationTicks": 960,
                    "midi": 43,
                    "name": "G2",
                    "ticks": 277440,
                    "time": 144.5,
                    "velocity": 1
                },
                {
                    "duration": 0.5,
                    "durationTicks": 960,
                    "midi": 60,
                    "name": "C4",
                    "ticks": 278400,
                    "time": 145,
                    "velocity": 1
                },
                {
                    "duration": 0.5,
                    "durationTicks": 960,
                    "midi": 48,
                    "name": "C3",
                    "ticks": 278400,
                    "time": 145,
                    "velocity": 1
                },
                {
                    "duration": 0.5,
                    "durationTicks": 960,
                    "midi": 55,
                    "name": "G3",
                    "ticks": 278400,
                    "time": 145,
                    "velocity": 1
                },
                {
                    "duration": 0.5,
                    "durationTicks": 960,
                    "midi": 52,
                    "name": "E3",
                    "ticks": 278400,
                    "time": 145,
                    "velocity": 1
                },
                {
                    "duration": 0.5,
                    "durationTicks": 960,
                    "midi": 60,
                    "name": "C4",
                    "ticks": 279360,
                    "time": 145.5,
                    "velocity": 1
                },
                {
                    "duration": 0.5,
                    "durationTicks": 960,
                    "midi": 48,
                    "name": "C3",
                    "ticks": 279360,
                    "time": 145.5,
                    "velocity": 1
                },
                {
                    "duration": 0.5,
                    "durationTicks": 960,
                    "midi": 55,
                    "name": "G3",
                    "ticks": 279360,
                    "time": 145.5,
                    "velocity": 1
                },
                {
                    "duration": 0.5,
                    "durationTicks": 960,
                    "midi": 52,
                    "name": "E3",
                    "ticks": 279360,
                    "time": 145.5,
                    "velocity": 1
                },
                {
                    "duration": 0.5,
                    "durationTicks": 960,
                    "midi": 53,
                    "name": "F3",
                    "ticks": 280320,
                    "time": 146,
                    "velocity": 1
                },
                {
                    "duration": 0.5,
                    "durationTicks": 960,
                    "midi": 60,
                    "name": "C4",
                    "ticks": 280320,
                    "time": 146,
                    "velocity": 1
                },
                {
                    "duration": 0.5,
                    "durationTicks": 960,
                    "midi": 65,
                    "name": "F4",
                    "ticks": 280320,
                    "time": 146,
                    "velocity": 1
                },
                {
                    "duration": 0.5,
                    "durationTicks": 960,
                    "midi": 45,
                    "name": "A2",
                    "ticks": 280320,
                    "time": 146,
                    "velocity": 1
                },
                {
                    "duration": 0.5,
                    "durationTicks": 960,
                    "midi": 53,
                    "name": "F3",
                    "ticks": 281280,
                    "time": 146.5,
                    "velocity": 1
                },
                {
                    "duration": 0.5,
                    "durationTicks": 960,
                    "midi": 60,
                    "name": "C4",
                    "ticks": 281280,
                    "time": 146.5,
                    "velocity": 1
                },
                {
                    "duration": 0.5,
                    "durationTicks": 960,
                    "midi": 65,
                    "name": "F4",
                    "ticks": 281280,
                    "time": 146.5,
                    "velocity": 1
                },
                {
                    "duration": 0.5,
                    "durationTicks": 960,
                    "midi": 45,
                    "name": "A2",
                    "ticks": 281280,
                    "time": 146.5,
                    "velocity": 1
                },
                {
                    "duration": 0.5,
                    "durationTicks": 960,
                    "midi": 50,
                    "name": "D3",
                    "ticks": 282240,
                    "time": 147,
                    "velocity": 1
                },
                {
                    "duration": 0.5,
                    "durationTicks": 960,
                    "midi": 57,
                    "name": "A3",
                    "ticks": 282240,
                    "time": 147,
                    "velocity": 1
                },
                {
                    "duration": 0.5,
                    "durationTicks": 960,
                    "midi": 62,
                    "name": "D4",
                    "ticks": 282240,
                    "time": 147,
                    "velocity": 1
                },
                {
                    "duration": 0.5,
                    "durationTicks": 960,
                    "midi": 53,
                    "name": "F3",
                    "ticks": 282240,
                    "time": 147,
                    "velocity": 1
                },
                {
                    "duration": 0.5,
                    "durationTicks": 960,
                    "midi": 50,
                    "name": "D3",
                    "ticks": 283200,
                    "time": 147.5,
                    "velocity": 1
                },
                {
                    "duration": 0.5,
                    "durationTicks": 960,
                    "midi": 62,
                    "name": "D4",
                    "ticks": 283200,
                    "time": 147.5,
                    "velocity": 1
                },
                {
                    "duration": 0.5,
                    "durationTicks": 960,
                    "midi": 57,
                    "name": "A3",
                    "ticks": 283200,
                    "time": 147.5,
                    "velocity": 1
                },
                {
                    "duration": 0.5,
                    "durationTicks": 960,
                    "midi": 53,
                    "name": "F3",
                    "ticks": 283200,
                    "time": 147.5,
                    "velocity": 1
                },
                {
                    "duration": 0.5,
                    "durationTicks": 960,
                    "midi": 62,
                    "name": "D4",
                    "ticks": 284160,
                    "time": 148,
                    "velocity": 1
                },
                {
                    "duration": 0.5,
                    "durationTicks": 960,
                    "midi": 46,
                    "name": "A#2",
                    "ticks": 284160,
                    "time": 148,
                    "velocity": 1
                },
                {
                    "duration": 0.5,
                    "durationTicks": 960,
                    "midi": 53,
                    "name": "F3",
                    "ticks": 284160,
                    "time": 148,
                    "velocity": 1
                },
                {
                    "duration": 0.5,
                    "durationTicks": 960,
                    "midi": 58,
                    "name": "A#3",
                    "ticks": 284160,
                    "time": 148,
                    "velocity": 1
                },
                {
                    "duration": 0.5,
                    "durationTicks": 960,
                    "midi": 62,
                    "name": "D4",
                    "ticks": 285120,
                    "time": 148.5,
                    "velocity": 1
                },
                {
                    "duration": 0.5,
                    "durationTicks": 960,
                    "midi": 53,
                    "name": "F3",
                    "ticks": 285120,
                    "time": 148.5,
                    "velocity": 1
                },
                {
                    "duration": 0.5,
                    "durationTicks": 960,
                    "midi": 58,
                    "name": "A#3",
                    "ticks": 285120,
                    "time": 148.5,
                    "velocity": 1
                },
                {
                    "duration": 0.5,
                    "durationTicks": 960,
                    "midi": 46,
                    "name": "A#2",
                    "ticks": 285120,
                    "time": 148.5,
                    "velocity": 1
                },
                {
                    "duration": 0.5,
                    "durationTicks": 960,
                    "midi": 61,
                    "name": "C#4",
                    "ticks": 286080,
                    "time": 149,
                    "velocity": 1
                },
                {
                    "duration": 0.5,
                    "durationTicks": 960,
                    "midi": 45,
                    "name": "A2",
                    "ticks": 286080,
                    "time": 149,
                    "velocity": 1
                },
                {
                    "duration": 0.5,
                    "durationTicks": 960,
                    "midi": 52,
                    "name": "E3",
                    "ticks": 286080,
                    "time": 149,
                    "velocity": 1
                },
                {
                    "duration": 0.5,
                    "durationTicks": 960,
                    "midi": 57,
                    "name": "A3",
                    "ticks": 286080,
                    "time": 149,
                    "velocity": 1
                },
                {
                    "duration": 0.5,
                    "durationTicks": 960,
                    "midi": 61,
                    "name": "C#4",
                    "ticks": 287040,
                    "time": 149.5,
                    "velocity": 1
                },
                {
                    "duration": 0.5,
                    "durationTicks": 960,
                    "midi": 52,
                    "name": "E3",
                    "ticks": 287040,
                    "time": 149.5,
                    "velocity": 1
                },
                {
                    "duration": 0.5,
                    "durationTicks": 960,
                    "midi": 57,
                    "name": "A3",
                    "ticks": 287040,
                    "time": 149.5,
                    "velocity": 1
                },
                {
                    "duration": 0.5,
                    "durationTicks": 960,
                    "midi": 45,
                    "name": "A2",
                    "ticks": 287040,
                    "time": 149.5,
                    "velocity": 1
                },
                {
                    "duration": 2,
                    "durationTicks": 3840,
                    "midi": 50,
                    "name": "D3",
                    "ticks": 288000,
                    "time": 150,
                    "velocity": 1
                },
                {
                    "duration": 2,
                    "durationTicks": 3840,
                    "midi": 62,
                    "name": "D4",
                    "ticks": 288000,
                    "time": 150,
                    "velocity": 1
                },
                {
                    "duration": 2,
                    "durationTicks": 3840,
                    "midi": 57,
                    "name": "A3",
                    "ticks": 288000,
                    "time": 150,
                    "velocity": 1
                },
                {
                    "duration": 2,
                    "durationTicks": 3840,
                    "midi": 66,
                    "name": "F#4",
                    "ticks": 288000,
                    "time": 150,
                    "velocity": 1
                },
                {
                    "duration": 1.0625,
                    "durationTicks": 2040,
                    "midi": 50,
                    "name": "D3",
                    "ticks": 293640,
                    "time": 152.9375,
                    "velocity": 1
                },
                {
                    "duration": 1.03125,
                    "durationTicks": 1980,
                    "midi": 57,
                    "name": "A3",
                    "ticks": 293700,
                    "time": 152.96875,
                    "velocity": 1
                },
                {
                    "duration": 0.3333333333333428,
                    "durationTicks": 640,
                    "midi": 67,
                    "name": "G4",
                    "ticks": 293760,
                    "time": 153,
                    "velocity": 1
                },
                {
                    "duration": 0.65625,
                    "durationTicks": 1260,
                    "midi": 62,
                    "name": "D4",
                    "ticks": 293760,
                    "time": 153,
                    "velocity": 1
                },
                {
                    "duration": 0.3333333333333144,
                    "durationTicks": 640,
                    "midi": 66,
                    "name": "F#4",
                    "ticks": 294400,
                    "time": 153.33333333333334,
                    "velocity": 1
                },
                {
                    "duration": 0.3333333333333428,
                    "durationTicks": 640,
                    "midi": 62,
                    "name": "D4",
                    "ticks": 295040,
                    "time": 153.66666666666666,
                    "velocity": 1
                },
                {
                    "duration": 2,
                    "durationTicks": 3840,
                    "midi": 50,
                    "name": "D3",
                    "ticks": 295680,
                    "time": 154,
                    "velocity": 1
                },
                {
                    "duration": 2,
                    "durationTicks": 3840,
                    "midi": 57,
                    "name": "A3",
                    "ticks": 295680,
                    "time": 154,
                    "velocity": 1
                },
                {
                    "duration": 0.375,
                    "durationTicks": 720,
                    "midi": 59,
                    "name": "B3",
                    "ticks": 301440,
                    "time": 157,
                    "velocity": 1
                },
                {
                    "duration": 0.375,
                    "durationTicks": 720,
                    "midi": 54,
                    "name": "F#3",
                    "ticks": 301440,
                    "time": 157,
                    "velocity": 1
                },
                {
                    "duration": 0.125,
                    "durationTicks": 240,
                    "midi": 59,
                    "name": "B3",
                    "ticks": 302160,
                    "time": 157.375,
                    "velocity": 1
                },
                {
                    "duration": 0.125,
                    "durationTicks": 240,
                    "midi": 54,
                    "name": "F#3",
                    "ticks": 302160,
                    "time": 157.375,
                    "velocity": 1
                },
                {
                    "duration": 0.25,
                    "durationTicks": 480,
                    "midi": 57,
                    "name": "A3",
                    "ticks": 302880,
                    "time": 157.75,
                    "velocity": 1
                },
                {
                    "duration": 0.25,
                    "durationTicks": 480,
                    "midi": 52,
                    "name": "E3",
                    "ticks": 302880,
                    "time": 157.75,
                    "velocity": 1
                },
                {
                    "duration": 0.25,
                    "durationTicks": 480,
                    "midi": 45,
                    "name": "A2",
                    "ticks": 302880,
                    "time": 157.75,
                    "velocity": 1
                },
                {
                    "duration": 2,
                    "durationTicks": 3840,
                    "midi": 62,
                    "name": "D4",
                    "ticks": 303360,
                    "time": 158,
                    "velocity": 1
                },
                {
                    "duration": 2,
                    "durationTicks": 3840,
                    "midi": 50,
                    "name": "D3",
                    "ticks": 303360,
                    "time": 158,
                    "velocity": 1
                },
                {
                    "duration": 2,
                    "durationTicks": 3840,
                    "midi": 57,
                    "name": "A3",
                    "ticks": 303360,
                    "time": 158,
                    "velocity": 1
                },
                {
                    "duration": 2,
                    "durationTicks": 3840,
                    "midi": 66,
                    "name": "F#4",
                    "ticks": 303360,
                    "time": 158,
                    "velocity": 1
                },
                {
                    "duration": 1.0625,
                    "durationTicks": 2040,
                    "midi": 50,
                    "name": "D3",
                    "ticks": 309000,
                    "time": 160.9375,
                    "velocity": 1
                },
                {
                    "duration": 0.3333333333333428,
                    "durationTicks": 640,
                    "midi": 57,
                    "name": "A3",
                    "ticks": 309120,
                    "time": 161,
                    "velocity": 1
                },
                {
                    "duration": 0.3333333333333428,
                    "durationTicks": 640,
                    "midi": 67,
                    "name": "G4",
                    "ticks": 309120,
                    "time": 161,
                    "velocity": 1
                },
                {
                    "duration": 0.65625,
                    "durationTicks": 1260,
                    "midi": 62,
                    "name": "D4",
                    "ticks": 309120,
                    "time": 161,
                    "velocity": 1
                },
                {
                    "duration": 0.3333333333333144,
                    "durationTicks": 640,
                    "midi": 66,
                    "name": "F#4",
                    "ticks": 309760,
                    "time": 161.33333333333334,
                    "velocity": 1
                },
                {
                    "duration": 0.3333333333333428,
                    "durationTicks": 640,
                    "midi": 62,
                    "name": "D4",
                    "ticks": 310400,
                    "time": 161.66666666666666,
                    "velocity": 1
                },
                {
                    "duration": 2,
                    "durationTicks": 3840,
                    "midi": 50,
                    "name": "D3",
                    "ticks": 311040,
                    "time": 162,
                    "velocity": 1
                },
                {
                    "duration": 2,
                    "durationTicks": 3840,
                    "midi": 57,
                    "name": "A3",
                    "ticks": 311040,
                    "time": 162,
                    "velocity": 1
                },
                {
                    "duration": 0.375,
                    "durationTicks": 720,
                    "midi": 59,
                    "name": "B3",
                    "ticks": 316800,
                    "time": 165,
                    "velocity": 1
                },
                {
                    "duration": 0.375,
                    "durationTicks": 720,
                    "midi": 54,
                    "name": "F#3",
                    "ticks": 316800,
                    "time": 165,
                    "velocity": 1
                },
                {
                    "duration": 0.125,
                    "durationTicks": 240,
                    "midi": 59,
                    "name": "B3",
                    "ticks": 317520,
                    "time": 165.375,
                    "velocity": 1
                },
                {
                    "duration": 0.125,
                    "durationTicks": 240,
                    "midi": 54,
                    "name": "F#3",
                    "ticks": 317520,
                    "time": 165.375,
                    "velocity": 1
                },
                {
                    "duration": 0.25,
                    "durationTicks": 480,
                    "midi": 57,
                    "name": "A3",
                    "ticks": 318240,
                    "time": 165.75,
                    "velocity": 1
                },
                {
                    "duration": 0.25,
                    "durationTicks": 480,
                    "midi": 52,
                    "name": "E3",
                    "ticks": 318240,
                    "time": 165.75,
                    "velocity": 1
                },
                {
                    "duration": 0.25,
                    "durationTicks": 480,
                    "midi": 45,
                    "name": "A2",
                    "ticks": 318240,
                    "time": 165.75,
                    "velocity": 1
                },
                {
                    "duration": 2,
                    "durationTicks": 3840,
                    "midi": 66,
                    "name": "F#4",
                    "ticks": 318720,
                    "time": 166,
                    "velocity": 1
                },
                {
                    "duration": 2,
                    "durationTicks": 3840,
                    "midi": 57,
                    "name": "A3",
                    "ticks": 318720,
                    "time": 166,
                    "velocity": 1
                },
                {
                    "duration": 2,
                    "durationTicks": 3840,
                    "midi": 62,
                    "name": "D4",
                    "ticks": 318720,
                    "time": 166,
                    "velocity": 1
                },
                {
                    "duration": 2,
                    "durationTicks": 3840,
                    "midi": 50,
                    "name": "D3",
                    "ticks": 318720,
                    "time": 166,
                    "velocity": 1
                }
            ],
            "endOfTrackTicks": 322560
        },
        {
            "channel": 5,
            "controlChanges": {
                "7": [
                    {
                        "number": 7,
                        "ticks": 0,
                        "time": 0,
                        "value": 0.7480314960629921
                    }
                ],
                "10": [
                    {
                        "number": 10,
                        "ticks": 0,
                        "time": 0,
                        "value": 0.8976377952755905
                    }
                ]
            },
            "pitchBends": [],
            "instrument": {
                "family": "chromatic percussion",
                "number": 8,
                "name": "celesta"
            },
            "name": "Celesta",
            "notes": [
                {
                    "duration": 1.015625,
                    "durationTicks": 1950,
                    "midi": 77,
                    "name": "F5",
                    "ticks": 61410,
                    "time": 31.984375,
                    "velocity": 1
                },
                {
                    "duration": 0.25,
                    "durationTicks": 480,
                    "midi": 93,
                    "name": "A6",
                    "ticks": 61440,
                    "time": 32,
                    "velocity": 1
                },
                {
                    "duration": 0.25,
                    "durationTicks": 480,
                    "midi": 84,
                    "name": "C6",
                    "ticks": 61920,
                    "time": 32.25,
                    "velocity": 1
                },
                {
                    "duration": 0.25,
                    "durationTicks": 480,
                    "midi": 96,
                    "name": "C7",
                    "ticks": 62400,
                    "time": 32.5,
                    "velocity": 1
                },
                {
                    "duration": 0.25,
                    "durationTicks": 480,
                    "midi": 84,
                    "name": "C6",
                    "ticks": 62880,
                    "time": 32.75,
                    "velocity": 1
                },
                {
                    "duration": 0.25,
                    "durationTicks": 480,
                    "midi": 91,
                    "name": "G6",
                    "ticks": 63360,
                    "time": 33,
                    "velocity": 1
                },
                {
                    "duration": 1,
                    "durationTicks": 1920,
                    "midi": 76,
                    "name": "E5",
                    "ticks": 63360,
                    "time": 33,
                    "velocity": 1
                },
                {
                    "duration": 0.25,
                    "durationTicks": 480,
                    "midi": 84,
                    "name": "C6",
                    "ticks": 63840,
                    "time": 33.25,
                    "velocity": 1
                },
                {
                    "duration": 0.25,
                    "durationTicks": 480,
                    "midi": 96,
                    "name": "C7",
                    "ticks": 64320,
                    "time": 33.5,
                    "velocity": 1
                },
                {
                    "duration": 0.25,
                    "durationTicks": 480,
                    "midi": 84,
                    "name": "C6",
                    "ticks": 64800,
                    "time": 33.75,
                    "velocity": 1
                },
                {
                    "duration": 0.25,
                    "durationTicks": 480,
                    "midi": 94,
                    "name": "A#6",
                    "ticks": 65280,
                    "time": 34,
                    "velocity": 1
                },
                {
                    "duration": 1,
                    "durationTicks": 1920,
                    "midi": 74,
                    "name": "D5",
                    "ticks": 65280,
                    "time": 34,
                    "velocity": 1
                },
                {
                    "duration": 0.25,
                    "durationTicks": 480,
                    "midi": 84,
                    "name": "C6",
                    "ticks": 65760,
                    "time": 34.25,
                    "velocity": 1
                },
                {
                    "duration": 0.25,
                    "durationTicks": 480,
                    "midi": 93,
                    "name": "A6",
                    "ticks": 65760,
                    "time": 34.25,
                    "velocity": 1
                },
                {
                    "duration": 0.25,
                    "durationTicks": 480,
                    "midi": 91,
                    "name": "G6",
                    "ticks": 66240,
                    "time": 34.5,
                    "velocity": 1
                },
                {
                    "duration": 0.25,
                    "durationTicks": 480,
                    "midi": 84,
                    "name": "C6",
                    "ticks": 66720,
                    "time": 34.75,
                    "velocity": 1
                },
                {
                    "duration": 0.25,
                    "durationTicks": 480,
                    "midi": 93,
                    "name": "A6",
                    "ticks": 67200,
                    "time": 35,
                    "velocity": 1
                },
                {
                    "duration": 0.984375,
                    "durationTicks": 1890,
                    "midi": 77,
                    "name": "F5",
                    "ticks": 67200,
                    "time": 35,
                    "velocity": 1
                },
                {
                    "duration": 0.25,
                    "durationTicks": 480,
                    "midi": 84,
                    "name": "C6",
                    "ticks": 67680,
                    "time": 35.25,
                    "velocity": 1
                },
                {
                    "duration": 0.25,
                    "durationTicks": 480,
                    "midi": 89,
                    "name": "F6",
                    "ticks": 68160,
                    "time": 35.5,
                    "velocity": 1
                },
                {
                    "duration": 0.25,
                    "durationTicks": 480,
                    "midi": 84,
                    "name": "C6",
                    "ticks": 68640,
                    "time": 35.75,
                    "velocity": 1
                },
                {
                    "duration": 1.015625,
                    "durationTicks": 1950,
                    "midi": 77,
                    "name": "F5",
                    "ticks": 69090,
                    "time": 35.984375,
                    "velocity": 1
                },
                {
                    "duration": 0.25,
                    "durationTicks": 480,
                    "midi": 93,
                    "name": "A6",
                    "ticks": 69120,
                    "time": 36,
                    "velocity": 1
                },
                {
                    "duration": 0.25,
                    "durationTicks": 480,
                    "midi": 84,
                    "name": "C6",
                    "ticks": 69600,
                    "time": 36.25,
                    "velocity": 1
                },
                {
                    "duration": 0.25,
                    "durationTicks": 480,
                    "midi": 96,
                    "name": "C7",
                    "ticks": 70080,
                    "time": 36.5,
                    "velocity": 1
                },
                {
                    "duration": 0.25,
                    "durationTicks": 480,
                    "midi": 84,
                    "name": "C6",
                    "ticks": 70560,
                    "time": 36.75,
                    "velocity": 1
                },
                {
                    "duration": 0.25,
                    "durationTicks": 480,
                    "midi": 91,
                    "name": "G6",
                    "ticks": 71040,
                    "time": 37,
                    "velocity": 1
                },
                {
                    "duration": 1,
                    "durationTicks": 1920,
                    "midi": 76,
                    "name": "E5",
                    "ticks": 71040,
                    "time": 37,
                    "velocity": 1
                },
                {
                    "duration": 0.25,
                    "durationTicks": 480,
                    "midi": 84,
                    "name": "C6",
                    "ticks": 71520,
                    "time": 37.25,
                    "velocity": 1
                },
                {
                    "duration": 0.25,
                    "durationTicks": 480,
                    "midi": 96,
                    "name": "C7",
                    "ticks": 72000,
                    "time": 37.5,
                    "velocity": 1
                },
                {
                    "duration": 0.25,
                    "durationTicks": 480,
                    "midi": 84,
                    "name": "C6",
                    "ticks": 72480,
                    "time": 37.75,
                    "velocity": 1
                },
                {
                    "duration": 0.25,
                    "durationTicks": 480,
                    "midi": 94,
                    "name": "A#6",
                    "ticks": 72960,
                    "time": 38,
                    "velocity": 1
                },
                {
                    "duration": 1,
                    "durationTicks": 1920,
                    "midi": 74,
                    "name": "D5",
                    "ticks": 72960,
                    "time": 38,
                    "velocity": 1
                },
                {
                    "duration": 0.25,
                    "durationTicks": 480,
                    "midi": 84,
                    "name": "C6",
                    "ticks": 73440,
                    "time": 38.25,
                    "velocity": 1
                },
                {
                    "duration": 0.25,
                    "durationTicks": 480,
                    "midi": 93,
                    "name": "A6",
                    "ticks": 73440,
                    "time": 38.25,
                    "velocity": 1
                },
                {
                    "duration": 0.25,
                    "durationTicks": 480,
                    "midi": 91,
                    "name": "G6",
                    "ticks": 73920,
                    "time": 38.5,
                    "velocity": 1
                },
                {
                    "duration": 0.25,
                    "durationTicks": 480,
                    "midi": 84,
                    "name": "C6",
                    "ticks": 74400,
                    "time": 38.75,
                    "velocity": 1
                },
                {
                    "duration": 0.25,
                    "durationTicks": 480,
                    "midi": 93,
                    "name": "A6",
                    "ticks": 74880,
                    "time": 39,
                    "velocity": 1
                },
                {
                    "duration": 1,
                    "durationTicks": 1920,
                    "midi": 77,
                    "name": "F5",
                    "ticks": 74880,
                    "time": 39,
                    "velocity": 1
                },
                {
                    "duration": 0.25,
                    "durationTicks": 480,
                    "midi": 84,
                    "name": "C6",
                    "ticks": 75360,
                    "time": 39.25,
                    "velocity": 1
                },
                {
                    "duration": 0.25,
                    "durationTicks": 480,
                    "midi": 89,
                    "name": "F6",
                    "ticks": 75840,
                    "time": 39.5,
                    "velocity": 1
                },
                {
                    "duration": 0.25,
                    "durationTicks": 480,
                    "midi": 84,
                    "name": "C6",
                    "ticks": 76320,
                    "time": 39.75,
                    "velocity": 1
                },
                {
                    "duration": 0.25,
                    "durationTicks": 480,
                    "midi": 91,
                    "name": "G6",
                    "ticks": 76800,
                    "time": 40,
                    "velocity": 1
                },
                {
                    "duration": 1,
                    "durationTicks": 1920,
                    "midi": 79,
                    "name": "G5",
                    "ticks": 76800,
                    "time": 40,
                    "velocity": 1
                },
                {
                    "duration": 0.25,
                    "durationTicks": 480,
                    "midi": 94,
                    "name": "A#6",
                    "ticks": 77280,
                    "time": 40.25,
                    "velocity": 1
                },
                {
                    "duration": 0.25,
                    "durationTicks": 480,
                    "midi": 93,
                    "name": "A6",
                    "ticks": 77760,
                    "time": 40.5,
                    "velocity": 1
                },
                {
                    "duration": 0.25,
                    "durationTicks": 480,
                    "midi": 91,
                    "name": "G6",
                    "ticks": 78240,
                    "time": 40.75,
                    "velocity": 1
                },
                {
                    "duration": 0.25,
                    "durationTicks": 480,
                    "midi": 88,
                    "name": "E6",
                    "ticks": 78720,
                    "time": 41,
                    "velocity": 1
                },
                {
                    "duration": 1,
                    "durationTicks": 1920,
                    "midi": 79,
                    "name": "G5",
                    "ticks": 78720,
                    "time": 41,
                    "velocity": 1
                },
                {
                    "duration": 0.25,
                    "durationTicks": 480,
                    "midi": 89,
                    "name": "F6",
                    "ticks": 79200,
                    "time": 41.25,
                    "velocity": 1
                },
                {
                    "duration": 0.25,
                    "durationTicks": 480,
                    "midi": 91,
                    "name": "G6",
                    "ticks": 79680,
                    "time": 41.5,
                    "velocity": 1
                },
                {
                    "duration": 0.25,
                    "durationTicks": 480,
                    "midi": 96,
                    "name": "C7",
                    "ticks": 80160,
                    "time": 41.75,
                    "velocity": 1
                },
                {
                    "duration": 0.25,
                    "durationTicks": 480,
                    "midi": 93,
                    "name": "A6",
                    "ticks": 80640,
                    "time": 42,
                    "velocity": 1
                },
                {
                    "duration": 0.5,
                    "durationTicks": 960,
                    "midi": 77,
                    "name": "F5",
                    "ticks": 80640,
                    "time": 42,
                    "velocity": 1
                },
                {
                    "duration": 0.25,
                    "durationTicks": 480,
                    "midi": 96,
                    "name": "C7",
                    "ticks": 81120,
                    "time": 42.25,
                    "velocity": 1
                },
                {
                    "duration": 0.25,
                    "durationTicks": 480,
                    "midi": 91,
                    "name": "G6",
                    "ticks": 81600,
                    "time": 42.5,
                    "velocity": 1
                },
                {
                    "duration": 0.5,
                    "durationTicks": 960,
                    "midi": 76,
                    "name": "E5",
                    "ticks": 81600,
                    "time": 42.5,
                    "velocity": 1
                },
                {
                    "duration": 0.25,
                    "durationTicks": 480,
                    "midi": 96,
                    "name": "C7",
                    "ticks": 82080,
                    "time": 42.75,
                    "velocity": 1
                },
                {
                    "duration": 0.25,
                    "durationTicks": 480,
                    "midi": 89,
                    "name": "F6",
                    "ticks": 82560,
                    "time": 43,
                    "velocity": 1
                },
                {
                    "duration": 1,
                    "durationTicks": 1920,
                    "midi": 74,
                    "name": "D5",
                    "ticks": 82560,
                    "time": 43,
                    "velocity": 1
                },
                {
                    "duration": 0.25,
                    "durationTicks": 480,
                    "midi": 81,
                    "name": "A5",
                    "ticks": 83040,
                    "time": 43.25,
                    "velocity": 1
                },
                {
                    "duration": 0.25,
                    "durationTicks": 480,
                    "midi": 93,
                    "name": "A6",
                    "ticks": 83520,
                    "time": 43.5,
                    "velocity": 1
                },
                {
                    "duration": 1.015625,
                    "durationTicks": 1950,
                    "midi": 77,
                    "name": "F5",
                    "ticks": 84450,
                    "time": 43.984375,
                    "velocity": 1
                },
                {
                    "duration": 0.25,
                    "durationTicks": 480,
                    "midi": 94,
                    "name": "A#6",
                    "ticks": 84480,
                    "time": 44,
                    "velocity": 1
                },
                {
                    "duration": 0.25,
                    "durationTicks": 480,
                    "midi": 86,
                    "name": "D6",
                    "ticks": 84960,
                    "time": 44.25,
                    "velocity": 1
                },
                {
                    "duration": 0.25,
                    "durationTicks": 480,
                    "midi": 89,
                    "name": "F6",
                    "ticks": 85440,
                    "time": 44.5,
                    "velocity": 1
                },
                {
                    "duration": 0.25,
                    "durationTicks": 480,
                    "midi": 86,
                    "name": "D6",
                    "ticks": 85920,
                    "time": 44.75,
                    "velocity": 1
                },
                {
                    "duration": 0.25,
                    "durationTicks": 480,
                    "midi": 93,
                    "name": "A6",
                    "ticks": 86400,
                    "time": 45,
                    "velocity": 1
                },
                {
                    "duration": 1,
                    "durationTicks": 1920,
                    "midi": 76,
                    "name": "E5",
                    "ticks": 86400,
                    "time": 45,
                    "velocity": 1
                },
                {
                    "duration": 0.25,
                    "durationTicks": 480,
                    "midi": 85,
                    "name": "C#6",
                    "ticks": 86880,
                    "time": 45.25,
                    "velocity": 1
                },
                {
                    "duration": 0.5,
                    "durationTicks": 960,
                    "midi": 91,
                    "name": "G6",
                    "ticks": 87360,
                    "time": 45.5,
                    "velocity": 1
                },
                {
                    "duration": 0.5,
                    "durationTicks": 960,
                    "midi": 88,
                    "name": "E6",
                    "ticks": 87360,
                    "time": 45.5,
                    "velocity": 1
                },
                {
                    "duration": 0.25,
                    "durationTicks": 480,
                    "midi": 81,
                    "name": "A5",
                    "ticks": 88320,
                    "time": 46,
                    "velocity": 1
                },
                {
                    "duration": 0.25,
                    "durationTicks": 480,
                    "midi": 86,
                    "name": "D6",
                    "ticks": 88800,
                    "time": 46.25,
                    "velocity": 1
                },
                {
                    "duration": 0.25,
                    "durationTicks": 480,
                    "midi": 90,
                    "name": "F#6",
                    "ticks": 89280,
                    "time": 46.5,
                    "velocity": 1
                },
                {
                    "duration": 0.25,
                    "durationTicks": 480,
                    "midi": 86,
                    "name": "D6",
                    "ticks": 89760,
                    "time": 46.75,
                    "velocity": 1
                },
                {
                    "duration": 0.25,
                    "durationTicks": 480,
                    "midi": 83,
                    "name": "B5",
                    "ticks": 90240,
                    "time": 47,
                    "velocity": 1
                },
                {
                    "duration": 0.25,
                    "durationTicks": 480,
                    "midi": 86,
                    "name": "D6",
                    "ticks": 90720,
                    "time": 47.25,
                    "velocity": 1
                },
                {
                    "duration": 0.25,
                    "durationTicks": 480,
                    "midi": 90,
                    "name": "F#6",
                    "ticks": 91200,
                    "time": 47.5,
                    "velocity": 1
                },
                {
                    "duration": 0.25,
                    "durationTicks": 480,
                    "midi": 86,
                    "name": "D6",
                    "ticks": 91680,
                    "time": 47.75,
                    "velocity": 1
                },
                {
                    "duration": 0.25,
                    "durationTicks": 480,
                    "midi": 81,
                    "name": "A5",
                    "ticks": 92160,
                    "time": 48,
                    "velocity": 1
                },
                {
                    "duration": 0.25,
                    "durationTicks": 480,
                    "midi": 86,
                    "name": "D6",
                    "ticks": 92640,
                    "time": 48.25,
                    "velocity": 1
                },
                {
                    "duration": 0.25,
                    "durationTicks": 480,
                    "midi": 90,
                    "name": "F#6",
                    "ticks": 93120,
                    "time": 48.5,
                    "velocity": 1
                },
                {
                    "duration": 0.25,
                    "durationTicks": 480,
                    "midi": 86,
                    "name": "D6",
                    "ticks": 93600,
                    "time": 48.75,
                    "velocity": 1
                },
                {
                    "duration": 0.25,
                    "durationTicks": 480,
                    "midi": 83,
                    "name": "B5",
                    "ticks": 94080,
                    "time": 49,
                    "velocity": 1
                },
                {
                    "duration": 0.25,
                    "durationTicks": 480,
                    "midi": 86,
                    "name": "D6",
                    "ticks": 94560,
                    "time": 49.25,
                    "velocity": 1
                },
                {
                    "duration": 0.25,
                    "durationTicks": 480,
                    "midi": 90,
                    "name": "F#6",
                    "ticks": 95040,
                    "time": 49.5,
                    "velocity": 1
                },
                {
                    "duration": 0.25,
                    "durationTicks": 480,
                    "midi": 86,
                    "name": "D6",
                    "ticks": 95520,
                    "time": 49.75,
                    "velocity": 1
                },
                {
                    "duration": 0.25,
                    "durationTicks": 480,
                    "midi": 81,
                    "name": "A5",
                    "ticks": 96000,
                    "time": 50,
                    "velocity": 1
                },
                {
                    "duration": 0.25,
                    "durationTicks": 480,
                    "midi": 86,
                    "name": "D6",
                    "ticks": 96480,
                    "time": 50.25,
                    "velocity": 1
                },
                {
                    "duration": 0.25,
                    "durationTicks": 480,
                    "midi": 90,
                    "name": "F#6",
                    "ticks": 96960,
                    "time": 50.5,
                    "velocity": 1
                },
                {
                    "duration": 0.25,
                    "durationTicks": 480,
                    "midi": 86,
                    "name": "D6",
                    "ticks": 97440,
                    "time": 50.75,
                    "velocity": 1
                },
                {
                    "duration": 0.25,
                    "durationTicks": 480,
                    "midi": 83,
                    "name": "B5",
                    "ticks": 97920,
                    "time": 51,
                    "velocity": 1
                },
                {
                    "duration": 0.25,
                    "durationTicks": 480,
                    "midi": 86,
                    "name": "D6",
                    "ticks": 98400,
                    "time": 51.25,
                    "velocity": 1
                },
                {
                    "duration": 0.25,
                    "durationTicks": 480,
                    "midi": 90,
                    "name": "F#6",
                    "ticks": 98880,
                    "time": 51.5,
                    "velocity": 1
                },
                {
                    "duration": 0.25,
                    "durationTicks": 480,
                    "midi": 86,
                    "name": "D6",
                    "ticks": 99360,
                    "time": 51.75,
                    "velocity": 1
                },
                {
                    "duration": 0.25,
                    "durationTicks": 480,
                    "midi": 81,
                    "name": "A5",
                    "ticks": 99840,
                    "time": 52,
                    "velocity": 1
                },
                {
                    "duration": 0.25,
                    "durationTicks": 480,
                    "midi": 86,
                    "name": "D6",
                    "ticks": 100320,
                    "time": 52.25,
                    "velocity": 1
                },
                {
                    "duration": 0.25,
                    "durationTicks": 480,
                    "midi": 90,
                    "name": "F#6",
                    "ticks": 100800,
                    "time": 52.5,
                    "velocity": 1
                },
                {
                    "duration": 0.25,
                    "durationTicks": 480,
                    "midi": 86,
                    "name": "D6",
                    "ticks": 101280,
                    "time": 52.75,
                    "velocity": 1
                },
                {
                    "duration": 0.25,
                    "durationTicks": 480,
                    "midi": 83,
                    "name": "B5",
                    "ticks": 101760,
                    "time": 53,
                    "velocity": 1
                },
                {
                    "duration": 0.25,
                    "durationTicks": 480,
                    "midi": 86,
                    "name": "D6",
                    "ticks": 102240,
                    "time": 53.25,
                    "velocity": 1
                },
                {
                    "duration": 0.25,
                    "durationTicks": 480,
                    "midi": 90,
                    "name": "F#6",
                    "ticks": 102720,
                    "time": 53.5,
                    "velocity": 1
                },
                {
                    "duration": 0.25,
                    "durationTicks": 480,
                    "midi": 86,
                    "name": "D6",
                    "ticks": 103200,
                    "time": 53.75,
                    "velocity": 1
                }
            ],
            "endOfTrackTicks": 103680
        },
        {
            "channel": 6,
            "controlChanges": {
                "7": [
                    {
                        "number": 7,
                        "ticks": 0,
                        "time": 0,
                        "value": 0.7480314960629921
                    }
                ],
                "10": [
                    {
                        "number": 10,
                        "ticks": 0,
                        "time": 0,
                        "value": 0.5039370078740157
                    }
                ]
            },
            "pitchBends": [],
            "instrument": {
                "family": "bass",
                "number": 33,
                "name": "electric bass (finger)"
            },
            "name": "Bass",
            "notes": [
                {
                    "duration": 0.5,
                    "durationTicks": 960,
                    "midi": 50,
                    "name": "D3",
                    "ticks": 87360,
                    "time": 45.5,
                    "velocity": 1
                },
                {
                    "duration": 0.5,
                    "durationTicks": 960,
                    "midi": 38,
                    "name": "D2",
                    "ticks": 88320,
                    "time": 46,
                    "velocity": 1
                },
                {
                    "duration": 0.25,
                    "durationTicks": 480,
                    "midi": 38,
                    "name": "D2",
                    "ticks": 89760,
                    "time": 46.75,
                    "velocity": 1
                },
                {
                    "duration": 0.5,
                    "durationTicks": 960,
                    "midi": 35,
                    "name": "B1",
                    "ticks": 90240,
                    "time": 47,
                    "velocity": 1
                },
                {
                    "duration": 0.25,
                    "durationTicks": 480,
                    "midi": 35,
                    "name": "B1",
                    "ticks": 91680,
                    "time": 47.75,
                    "velocity": 1
                },
                {
                    "duration": 0.5,
                    "durationTicks": 960,
                    "midi": 38,
                    "name": "D2",
                    "ticks": 92160,
                    "time": 48,
                    "velocity": 1
                },
                {
                    "duration": 0.25,
                    "durationTicks": 480,
                    "midi": 38,
                    "name": "D2",
                    "ticks": 93600,
                    "time": 48.75,
                    "velocity": 1
                },
                {
                    "duration": 0.5,
                    "durationTicks": 960,
                    "midi": 35,
                    "name": "B1",
                    "ticks": 94080,
                    "time": 49,
                    "velocity": 1
                },
                {
                    "duration": 0.25,
                    "durationTicks": 480,
                    "midi": 35,
                    "name": "B1",
                    "ticks": 95520,
                    "time": 49.75,
                    "velocity": 1
                },
                {
                    "duration": 0.5,
                    "durationTicks": 960,
                    "midi": 38,
                    "name": "D2",
                    "ticks": 96000,
                    "time": 50,
                    "velocity": 1
                },
                {
                    "duration": 0.25,
                    "durationTicks": 480,
                    "midi": 38,
                    "name": "D2",
                    "ticks": 97440,
                    "time": 50.75,
                    "velocity": 1
                },
                {
                    "duration": 0.5,
                    "durationTicks": 960,
                    "midi": 35,
                    "name": "B1",
                    "ticks": 97920,
                    "time": 51,
                    "velocity": 1
                },
                {
                    "duration": 0.25,
                    "durationTicks": 480,
                    "midi": 35,
                    "name": "B1",
                    "ticks": 99360,
                    "time": 51.75,
                    "velocity": 1
                },
                {
                    "duration": 0.5,
                    "durationTicks": 960,
                    "midi": 38,
                    "name": "D2",
                    "ticks": 99840,
                    "time": 52,
                    "velocity": 1
                },
                {
                    "duration": 0.25,
                    "durationTicks": 480,
                    "midi": 38,
                    "name": "D2",
                    "ticks": 101280,
                    "time": 52.75,
                    "velocity": 1
                },
                {
                    "duration": 0.5,
                    "durationTicks": 960,
                    "midi": 47,
                    "name": "B2",
                    "ticks": 101760,
                    "time": 53,
                    "velocity": 1
                },
                {
                    "duration": 0.25,
                    "durationTicks": 480,
                    "midi": 47,
                    "name": "B2",
                    "ticks": 102720,
                    "time": 53.5,
                    "velocity": 1
                },
                {
                    "duration": 0.25,
                    "durationTicks": 480,
                    "midi": 45,
                    "name": "A2",
                    "ticks": 103200,
                    "time": 53.75,
                    "velocity": 1
                },
                {
                    "duration": 0.5,
                    "durationTicks": 960,
                    "midi": 38,
                    "name": "D2",
                    "ticks": 103680,
                    "time": 54,
                    "velocity": 1
                },
                {
                    "duration": 0.25,
                    "durationTicks": 480,
                    "midi": 38,
                    "name": "D2",
                    "ticks": 105120,
                    "time": 54.75,
                    "velocity": 1
                },
                {
                    "duration": 0.5,
                    "durationTicks": 960,
                    "midi": 35,
                    "name": "B1",
                    "ticks": 105600,
                    "time": 55,
                    "velocity": 1
                },
                {
                    "duration": 0.25,
                    "durationTicks": 480,
                    "midi": 35,
                    "name": "B1",
                    "ticks": 107040,
                    "time": 55.75,
                    "velocity": 1
                },
                {
                    "duration": 0.5,
                    "durationTicks": 960,
                    "midi": 38,
                    "name": "D2",
                    "ticks": 107520,
                    "time": 56,
                    "velocity": 1
                },
                {
                    "duration": 0.25,
                    "durationTicks": 480,
                    "midi": 38,
                    "name": "D2",
                    "ticks": 108960,
                    "time": 56.75,
                    "velocity": 1
                },
                {
                    "duration": 0.5,
                    "durationTicks": 960,
                    "midi": 35,
                    "name": "B1",
                    "ticks": 109440,
                    "time": 57,
                    "velocity": 1
                },
                {
                    "duration": 0.25,
                    "durationTicks": 480,
                    "midi": 35,
                    "name": "B1",
                    "ticks": 110880,
                    "time": 57.75,
                    "velocity": 1
                },
                {
                    "duration": 0.5,
                    "durationTicks": 960,
                    "midi": 38,
                    "name": "D2",
                    "ticks": 111360,
                    "time": 58,
                    "velocity": 1
                },
                {
                    "duration": 0.25,
                    "durationTicks": 480,
                    "midi": 38,
                    "name": "D2",
                    "ticks": 112800,
                    "time": 58.75,
                    "velocity": 1
                },
                {
                    "duration": 0.5,
                    "durationTicks": 960,
                    "midi": 35,
                    "name": "B1",
                    "ticks": 113280,
                    "time": 59,
                    "velocity": 1
                },
                {
                    "duration": 0.25,
                    "durationTicks": 480,
                    "midi": 35,
                    "name": "B1",
                    "ticks": 114720,
                    "time": 59.75,
                    "velocity": 1
                },
                {
                    "duration": 0.5,
                    "durationTicks": 960,
                    "midi": 38,
                    "name": "D2",
                    "ticks": 115200,
                    "time": 60,
                    "velocity": 1
                },
                {
                    "duration": 0.25,
                    "durationTicks": 480,
                    "midi": 38,
                    "name": "D2",
                    "ticks": 116640,
                    "time": 60.75,
                    "velocity": 1
                },
                {
                    "duration": 0.5,
                    "durationTicks": 960,
                    "midi": 35,
                    "name": "B1",
                    "ticks": 117120,
                    "time": 61,
                    "velocity": 1
                },
                {
                    "duration": 0.25,
                    "durationTicks": 480,
                    "midi": 35,
                    "name": "B1",
                    "ticks": 118560,
                    "time": 61.75,
                    "velocity": 1
                },
                {
                    "duration": 0.5,
                    "durationTicks": 960,
                    "midi": 40,
                    "name": "E2",
                    "ticks": 119040,
                    "time": 62,
                    "velocity": 1
                },
                {
                    "duration": 0.25,
                    "durationTicks": 480,
                    "midi": 40,
                    "name": "E2",
                    "ticks": 120480,
                    "time": 62.75,
                    "velocity": 1
                },
                {
                    "duration": 0.25,
                    "durationTicks": 480,
                    "midi": 40,
                    "name": "E2",
                    "ticks": 120960,
                    "time": 63,
                    "velocity": 1
                },
                {
                    "duration": 0.25,
                    "durationTicks": 480,
                    "midi": 42,
                    "name": "F#2",
                    "ticks": 121440,
                    "time": 63.25,
                    "velocity": 1
                },
                {
                    "duration": 0.5,
                    "durationTicks": 960,
                    "midi": 43,
                    "name": "G2",
                    "ticks": 121920,
                    "time": 63.5,
                    "velocity": 1
                },
                {
                    "duration": 0.75,
                    "durationTicks": 1440,
                    "midi": 33,
                    "name": "A1",
                    "ticks": 122880,
                    "time": 64,
                    "velocity": 1
                },
                {
                    "duration": 0.25,
                    "durationTicks": 480,
                    "midi": 33,
                    "name": "A1",
                    "ticks": 124320,
                    "time": 64.75,
                    "velocity": 1
                },
                {
                    "duration": 0.25,
                    "durationTicks": 480,
                    "midi": 33,
                    "name": "A1",
                    "ticks": 124800,
                    "time": 65,
                    "velocity": 1
                },
                {
                    "duration": 0.25,
                    "durationTicks": 480,
                    "midi": 35,
                    "name": "B1",
                    "ticks": 125280,
                    "time": 65.25,
                    "velocity": 1
                },
                {
                    "duration": 0.5,
                    "durationTicks": 960,
                    "midi": 37,
                    "name": "C#2",
                    "ticks": 125760,
                    "time": 65.5,
                    "velocity": 1
                },
                {
                    "duration": 0.5,
                    "durationTicks": 960,
                    "midi": 38,
                    "name": "D2",
                    "ticks": 126720,
                    "time": 66,
                    "velocity": 1
                },
                {
                    "duration": 0.25,
                    "durationTicks": 480,
                    "midi": 38,
                    "name": "D2",
                    "ticks": 128160,
                    "time": 66.75,
                    "velocity": 1
                },
                {
                    "duration": 0.5,
                    "durationTicks": 960,
                    "midi": 35,
                    "name": "B1",
                    "ticks": 128640,
                    "time": 67,
                    "velocity": 1
                },
                {
                    "duration": 0.25,
                    "durationTicks": 480,
                    "midi": 35,
                    "name": "B1",
                    "ticks": 130080,
                    "time": 67.75,
                    "velocity": 1
                },
                {
                    "duration": 0.5,
                    "durationTicks": 960,
                    "midi": 38,
                    "name": "D2",
                    "ticks": 130560,
                    "time": 68,
                    "velocity": 1
                },
                {
                    "duration": 0.25,
                    "durationTicks": 480,
                    "midi": 38,
                    "name": "D2",
                    "ticks": 132000,
                    "time": 68.75,
                    "velocity": 1
                },
                {
                    "duration": 0.5,
                    "durationTicks": 960,
                    "midi": 47,
                    "name": "B2",
                    "ticks": 132480,
                    "time": 69,
                    "velocity": 1
                },
                {
                    "duration": 0.25,
                    "durationTicks": 480,
                    "midi": 47,
                    "name": "B2",
                    "ticks": 133440,
                    "time": 69.5,
                    "velocity": 1
                },
                {
                    "duration": 0.25,
                    "durationTicks": 480,
                    "midi": 45,
                    "name": "A2",
                    "ticks": 133920,
                    "time": 69.75,
                    "velocity": 1
                },
                {
                    "duration": 0.5,
                    "durationTicks": 960,
                    "midi": 38,
                    "name": "D2",
                    "ticks": 134400,
                    "time": 70,
                    "velocity": 1
                },
                {
                    "duration": 0.25,
                    "durationTicks": 480,
                    "midi": 38,
                    "name": "D2",
                    "ticks": 135840,
                    "time": 70.75,
                    "velocity": 1
                },
                {
                    "duration": 0.5,
                    "durationTicks": 960,
                    "midi": 35,
                    "name": "B1",
                    "ticks": 136320,
                    "time": 71,
                    "velocity": 1
                },
                {
                    "duration": 0.25,
                    "durationTicks": 480,
                    "midi": 35,
                    "name": "B1",
                    "ticks": 137760,
                    "time": 71.75,
                    "velocity": 1
                },
                {
                    "duration": 0.5,
                    "durationTicks": 960,
                    "midi": 38,
                    "name": "D2",
                    "ticks": 138240,
                    "time": 72,
                    "velocity": 1
                },
                {
                    "duration": 0.25,
                    "durationTicks": 480,
                    "midi": 38,
                    "name": "D2",
                    "ticks": 139680,
                    "time": 72.75,
                    "velocity": 1
                },
                {
                    "duration": 0.5,
                    "durationTicks": 960,
                    "midi": 35,
                    "name": "B1",
                    "ticks": 140160,
                    "time": 73,
                    "velocity": 1
                },
                {
                    "duration": 0.25,
                    "durationTicks": 480,
                    "midi": 35,
                    "name": "B1",
                    "ticks": 141600,
                    "time": 73.75,
                    "velocity": 1
                },
                {
                    "duration": 0.5,
                    "durationTicks": 960,
                    "midi": 38,
                    "name": "D2",
                    "ticks": 142080,
                    "time": 74,
                    "velocity": 1
                },
                {
                    "duration": 0.25,
                    "durationTicks": 480,
                    "midi": 38,
                    "name": "D2",
                    "ticks": 143520,
                    "time": 74.75,
                    "velocity": 1
                },
                {
                    "duration": 0.5,
                    "durationTicks": 960,
                    "midi": 35,
                    "name": "B1",
                    "ticks": 144000,
                    "time": 75,
                    "velocity": 1
                },
                {
                    "duration": 0.25,
                    "durationTicks": 480,
                    "midi": 35,
                    "name": "B1",
                    "ticks": 145440,
                    "time": 75.75,
                    "velocity": 1
                },
                {
                    "duration": 0.5,
                    "durationTicks": 960,
                    "midi": 38,
                    "name": "D2",
                    "ticks": 145920,
                    "time": 76,
                    "velocity": 1
                },
                {
                    "duration": 0.25,
                    "durationTicks": 480,
                    "midi": 38,
                    "name": "D2",
                    "ticks": 147360,
                    "time": 76.75,
                    "velocity": 1
                },
                {
                    "duration": 0.5,
                    "durationTicks": 960,
                    "midi": 35,
                    "name": "B1",
                    "ticks": 147840,
                    "time": 77,
                    "velocity": 1
                },
                {
                    "duration": 0.25,
                    "durationTicks": 480,
                    "midi": 35,
                    "name": "B1",
                    "ticks": 149280,
                    "time": 77.75,
                    "velocity": 1
                },
                {
                    "duration": 0.5,
                    "durationTicks": 960,
                    "midi": 40,
                    "name": "E2",
                    "ticks": 149760,
                    "time": 78,
                    "velocity": 1
                },
                {
                    "duration": 0.25,
                    "durationTicks": 480,
                    "midi": 40,
                    "name": "E2",
                    "ticks": 151200,
                    "time": 78.75,
                    "velocity": 1
                },
                {
                    "duration": 0.25,
                    "durationTicks": 480,
                    "midi": 40,
                    "name": "E2",
                    "ticks": 151680,
                    "time": 79,
                    "velocity": 1
                },
                {
                    "duration": 0.25,
                    "durationTicks": 480,
                    "midi": 42,
                    "name": "F#2",
                    "ticks": 152160,
                    "time": 79.25,
                    "velocity": 1
                },
                {
                    "duration": 0.5,
                    "durationTicks": 960,
                    "midi": 43,
                    "name": "G2",
                    "ticks": 152640,
                    "time": 79.5,
                    "velocity": 1
                },
                {
                    "duration": 0.75,
                    "durationTicks": 1440,
                    "midi": 33,
                    "name": "A1",
                    "ticks": 153600,
                    "time": 80,
                    "velocity": 1
                },
                {
                    "duration": 0.25,
                    "durationTicks": 480,
                    "midi": 33,
                    "name": "A1",
                    "ticks": 155040,
                    "time": 80.75,
                    "velocity": 1
                },
                {
                    "duration": 0.25,
                    "durationTicks": 480,
                    "midi": 33,
                    "name": "A1",
                    "ticks": 155520,
                    "time": 81,
                    "velocity": 1
                },
                {
                    "duration": 0.25,
                    "durationTicks": 480,
                    "midi": 35,
                    "name": "B1",
                    "ticks": 156000,
                    "time": 81.25,
                    "velocity": 1
                },
                {
                    "duration": 0.25,
                    "durationTicks": 480,
                    "midi": 37,
                    "name": "C#2",
                    "ticks": 156480,
                    "time": 81.5,
                    "velocity": 1
                },
                {
                    "duration": 0.25,
                    "durationTicks": 480,
                    "midi": 33,
                    "name": "A1",
                    "ticks": 156960,
                    "time": 81.75,
                    "velocity": 1
                },
                {
                    "duration": 1.75,
                    "durationTicks": 3360,
                    "midi": 34,
                    "name": "A#1",
                    "ticks": 157440,
                    "time": 82,
                    "velocity": 1
                },
                {
                    "duration": 0.75,
                    "durationTicks": 1440,
                    "midi": 46,
                    "name": "A#2",
                    "ticks": 158880,
                    "time": 82.75,
                    "velocity": 1
                },
                {
                    "duration": 0.25,
                    "durationTicks": 480,
                    "midi": 46,
                    "name": "A#2",
                    "ticks": 160320,
                    "time": 83.5,
                    "velocity": 1
                },
                {
                    "duration": 0.25,
                    "durationTicks": 480,
                    "midi": 33,
                    "name": "A1",
                    "ticks": 160800,
                    "time": 83.75,
                    "velocity": 1
                },
                {
                    "duration": 0.5,
                    "durationTicks": 960,
                    "midi": 41,
                    "name": "F2",
                    "ticks": 161280,
                    "time": 84,
                    "velocity": 1
                },
                {
                    "duration": 0.25,
                    "durationTicks": 480,
                    "midi": 41,
                    "name": "F2",
                    "ticks": 162720,
                    "time": 84.75,
                    "velocity": 1
                },
                {
                    "duration": 0.5,
                    "durationTicks": 960,
                    "midi": 36,
                    "name": "C2",
                    "ticks": 163200,
                    "time": 85,
                    "velocity": 1
                },
                {
                    "duration": 0.25,
                    "durationTicks": 480,
                    "midi": 36,
                    "name": "C2",
                    "ticks": 164640,
                    "time": 85.75,
                    "velocity": 1
                },
                {
                    "duration": 0.5,
                    "durationTicks": 960,
                    "midi": 34,
                    "name": "A#1",
                    "ticks": 165120,
                    "time": 86,
                    "velocity": 1
                },
                {
                    "duration": 0.25,
                    "durationTicks": 480,
                    "midi": 34,
                    "name": "A#1",
                    "ticks": 166560,
                    "time": 86.75,
                    "velocity": 1
                },
                {
                    "duration": 0.5,
                    "durationTicks": 960,
                    "midi": 41,
                    "name": "F2",
                    "ticks": 167040,
                    "time": 87,
                    "velocity": 1
                },
                {
                    "duration": 0.5,
                    "durationTicks": 960,
                    "midi": 41,
                    "name": "F2",
                    "ticks": 168960,
                    "time": 88,
                    "velocity": 1
                },
                {
                    "duration": 0.25,
                    "durationTicks": 480,
                    "midi": 41,
                    "name": "F2",
                    "ticks": 170400,
                    "time": 88.75,
                    "velocity": 1
                },
                {
                    "duration": 0.5,
                    "durationTicks": 960,
                    "midi": 36,
                    "name": "C2",
                    "ticks": 170880,
                    "time": 89,
                    "velocity": 1
                },
                {
                    "duration": 0.25,
                    "durationTicks": 480,
                    "midi": 36,
                    "name": "C2",
                    "ticks": 172320,
                    "time": 89.75,
                    "velocity": 1
                },
                {
                    "duration": 0.5,
                    "durationTicks": 960,
                    "midi": 34,
                    "name": "A#1",
                    "ticks": 172800,
                    "time": 90,
                    "velocity": 1
                },
                {
                    "duration": 0.25,
                    "durationTicks": 480,
                    "midi": 34,
                    "name": "A#1",
                    "ticks": 174240,
                    "time": 90.75,
                    "velocity": 1
                },
                {
                    "duration": 0.5,
                    "durationTicks": 960,
                    "midi": 41,
                    "name": "F2",
                    "ticks": 174720,
                    "time": 91,
                    "velocity": 1
                },
                {
                    "duration": 0.25,
                    "durationTicks": 480,
                    "midi": 41,
                    "name": "F2",
                    "ticks": 175680,
                    "time": 91.5,
                    "velocity": 1
                },
                {
                    "duration": 0.25,
                    "durationTicks": 480,
                    "midi": 36,
                    "name": "C2",
                    "ticks": 176160,
                    "time": 91.75,
                    "velocity": 1
                },
                {
                    "duration": 0.5,
                    "durationTicks": 960,
                    "midi": 34,
                    "name": "A#1",
                    "ticks": 176640,
                    "time": 92,
                    "velocity": 1
                },
                {
                    "duration": 0.5,
                    "durationTicks": 960,
                    "midi": 34,
                    "name": "A#1",
                    "ticks": 177600,
                    "time": 92.5,
                    "velocity": 1
                },
                {
                    "duration": 0.5,
                    "durationTicks": 960,
                    "midi": 36,
                    "name": "C2",
                    "ticks": 178560,
                    "time": 93,
                    "velocity": 1
                },
                {
                    "duration": 0.5,
                    "durationTicks": 960,
                    "midi": 36,
                    "name": "C2",
                    "ticks": 179520,
                    "time": 93.5,
                    "velocity": 1
                },
                {
                    "duration": 0.5,
                    "durationTicks": 960,
                    "midi": 41,
                    "name": "F2",
                    "ticks": 180480,
                    "time": 94,
                    "velocity": 1
                },
                {
                    "duration": 0.5,
                    "durationTicks": 960,
                    "midi": 40,
                    "name": "E2",
                    "ticks": 181440,
                    "time": 94.5,
                    "velocity": 1
                },
                {
                    "duration": 0.5,
                    "durationTicks": 960,
                    "midi": 38,
                    "name": "D2",
                    "ticks": 182400,
                    "time": 95,
                    "velocity": 1
                },
                {
                    "duration": 0.5,
                    "durationTicks": 960,
                    "midi": 36,
                    "name": "C2",
                    "ticks": 183360,
                    "time": 95.5,
                    "velocity": 1
                },
                {
                    "duration": 0.5,
                    "durationTicks": 960,
                    "midi": 34,
                    "name": "A#1",
                    "ticks": 184320,
                    "time": 96,
                    "velocity": 1
                },
                {
                    "duration": 0.5,
                    "durationTicks": 960,
                    "midi": 41,
                    "name": "F2",
                    "ticks": 185280,
                    "time": 96.5,
                    "velocity": 1
                },
                {
                    "duration": 0.5,
                    "durationTicks": 960,
                    "midi": 33,
                    "name": "A1",
                    "ticks": 186240,
                    "time": 97,
                    "velocity": 1
                },
                {
                    "duration": 0.5,
                    "durationTicks": 960,
                    "midi": 40,
                    "name": "E2",
                    "ticks": 187200,
                    "time": 97.5,
                    "velocity": 1
                },
                {
                    "duration": 0.5,
                    "durationTicks": 960,
                    "midi": 38,
                    "name": "D2",
                    "ticks": 188160,
                    "time": 98,
                    "velocity": 1
                },
                {
                    "duration": 0.25,
                    "durationTicks": 480,
                    "midi": 38,
                    "name": "D2",
                    "ticks": 189600,
                    "time": 98.75,
                    "velocity": 1
                },
                {
                    "duration": 0.5,
                    "durationTicks": 960,
                    "midi": 35,
                    "name": "B1",
                    "ticks": 190080,
                    "time": 99,
                    "velocity": 1
                },
                {
                    "duration": 0.25,
                    "durationTicks": 480,
                    "midi": 35,
                    "name": "B1",
                    "ticks": 191520,
                    "time": 99.75,
                    "velocity": 1
                },
                {
                    "duration": 0.5,
                    "durationTicks": 960,
                    "midi": 38,
                    "name": "D2",
                    "ticks": 192000,
                    "time": 100,
                    "velocity": 1
                },
                {
                    "duration": 0.25,
                    "durationTicks": 480,
                    "midi": 38,
                    "name": "D2",
                    "ticks": 193440,
                    "time": 100.75,
                    "velocity": 1
                },
                {
                    "duration": 0.5,
                    "durationTicks": 960,
                    "midi": 35,
                    "name": "B1",
                    "ticks": 193920,
                    "time": 101,
                    "velocity": 1
                },
                {
                    "duration": 0.25,
                    "durationTicks": 480,
                    "midi": 35,
                    "name": "B1",
                    "ticks": 195360,
                    "time": 101.75,
                    "velocity": 1
                },
                {
                    "duration": 0.5,
                    "durationTicks": 960,
                    "midi": 38,
                    "name": "D2",
                    "ticks": 195840,
                    "time": 102,
                    "velocity": 1
                },
                {
                    "duration": 0.25,
                    "durationTicks": 480,
                    "midi": 38,
                    "name": "D2",
                    "ticks": 197280,
                    "time": 102.75,
                    "velocity": 1
                },
                {
                    "duration": 0.5,
                    "durationTicks": 960,
                    "midi": 35,
                    "name": "B1",
                    "ticks": 197760,
                    "time": 103,
                    "velocity": 1
                },
                {
                    "duration": 0.25,
                    "durationTicks": 480,
                    "midi": 35,
                    "name": "B1",
                    "ticks": 199200,
                    "time": 103.75,
                    "velocity": 1
                },
                {
                    "duration": 0.5,
                    "durationTicks": 960,
                    "midi": 38,
                    "name": "D2",
                    "ticks": 199680,
                    "time": 104,
                    "velocity": 1
                },
                {
                    "duration": 0.25,
                    "durationTicks": 480,
                    "midi": 38,
                    "name": "D2",
                    "ticks": 201120,
                    "time": 104.75,
                    "velocity": 1
                },
                {
                    "duration": 0.5,
                    "durationTicks": 960,
                    "midi": 47,
                    "name": "B2",
                    "ticks": 201600,
                    "time": 105,
                    "velocity": 1
                },
                {
                    "duration": 0.25,
                    "durationTicks": 480,
                    "midi": 47,
                    "name": "B2",
                    "ticks": 202560,
                    "time": 105.5,
                    "velocity": 1
                },
                {
                    "duration": 0.25,
                    "durationTicks": 480,
                    "midi": 45,
                    "name": "A2",
                    "ticks": 203040,
                    "time": 105.75,
                    "velocity": 1
                },
                {
                    "duration": 0.5,
                    "durationTicks": 960,
                    "midi": 38,
                    "name": "D2",
                    "ticks": 234240,
                    "time": 122,
                    "velocity": 1
                },
                {
                    "duration": 0.25,
                    "durationTicks": 480,
                    "midi": 38,
                    "name": "D2",
                    "ticks": 235680,
                    "time": 122.75,
                    "velocity": 1
                },
                {
                    "duration": 0.5,
                    "durationTicks": 960,
                    "midi": 35,
                    "name": "B1",
                    "ticks": 236160,
                    "time": 123,
                    "velocity": 1
                },
                {
                    "duration": 0.25,
                    "durationTicks": 480,
                    "midi": 35,
                    "name": "B1",
                    "ticks": 237600,
                    "time": 123.75,
                    "velocity": 1
                },
                {
                    "duration": 0.5,
                    "durationTicks": 960,
                    "midi": 38,
                    "name": "D2",
                    "ticks": 238080,
                    "time": 124,
                    "velocity": 1
                },
                {
                    "duration": 0.25,
                    "durationTicks": 480,
                    "midi": 38,
                    "name": "D2",
                    "ticks": 239520,
                    "time": 124.75,
                    "velocity": 1
                },
                {
                    "duration": 0.5,
                    "durationTicks": 960,
                    "midi": 35,
                    "name": "B1",
                    "ticks": 240000,
                    "time": 125,
                    "velocity": 1
                },
                {
                    "duration": 0.25,
                    "durationTicks": 480,
                    "midi": 35,
                    "name": "B1",
                    "ticks": 241440,
                    "time": 125.75,
                    "velocity": 1
                },
                {
                    "duration": 0.5,
                    "durationTicks": 960,
                    "midi": 38,
                    "name": "D2",
                    "ticks": 241920,
                    "time": 126,
                    "velocity": 1
                },
                {
                    "duration": 0.25,
                    "durationTicks": 480,
                    "midi": 38,
                    "name": "D2",
                    "ticks": 243360,
                    "time": 126.75,
                    "velocity": 1
                },
                {
                    "duration": 0.5,
                    "durationTicks": 960,
                    "midi": 35,
                    "name": "B1",
                    "ticks": 243840,
                    "time": 127,
                    "velocity": 1
                },
                {
                    "duration": 0.25,
                    "durationTicks": 480,
                    "midi": 35,
                    "name": "B1",
                    "ticks": 245280,
                    "time": 127.75,
                    "velocity": 1
                },
                {
                    "duration": 0.5,
                    "durationTicks": 960,
                    "midi": 38,
                    "name": "D2",
                    "ticks": 245760,
                    "time": 128,
                    "velocity": 1
                },
                {
                    "duration": 0.25,
                    "durationTicks": 480,
                    "midi": 38,
                    "name": "D2",
                    "ticks": 247200,
                    "time": 128.75,
                    "velocity": 1
                },
                {
                    "duration": 0.5,
                    "durationTicks": 960,
                    "midi": 35,
                    "name": "B1",
                    "ticks": 247680,
                    "time": 129,
                    "velocity": 1
                },
                {
                    "duration": 0.25,
                    "durationTicks": 480,
                    "midi": 35,
                    "name": "B1",
                    "ticks": 249120,
                    "time": 129.75,
                    "velocity": 1
                },
                {
                    "duration": 0.5,
                    "durationTicks": 960,
                    "midi": 40,
                    "name": "E2",
                    "ticks": 249600,
                    "time": 130,
                    "velocity": 1
                },
                {
                    "duration": 0.25,
                    "durationTicks": 480,
                    "midi": 40,
                    "name": "E2",
                    "ticks": 251040,
                    "time": 130.75,
                    "velocity": 1
                },
                {
                    "duration": 0.25,
                    "durationTicks": 480,
                    "midi": 40,
                    "name": "E2",
                    "ticks": 251520,
                    "time": 131,
                    "velocity": 1
                },
                {
                    "duration": 0.25,
                    "durationTicks": 480,
                    "midi": 42,
                    "name": "F#2",
                    "ticks": 252000,
                    "time": 131.25,
                    "velocity": 1
                },
                {
                    "duration": 0.5,
                    "durationTicks": 960,
                    "midi": 43,
                    "name": "G2",
                    "ticks": 252480,
                    "time": 131.5,
                    "velocity": 1
                },
                {
                    "duration": 0.75,
                    "durationTicks": 1440,
                    "midi": 33,
                    "name": "A1",
                    "ticks": 253440,
                    "time": 132,
                    "velocity": 1
                },
                {
                    "duration": 0.25,
                    "durationTicks": 480,
                    "midi": 33,
                    "name": "A1",
                    "ticks": 254880,
                    "time": 132.75,
                    "velocity": 1
                },
                {
                    "duration": 0.25,
                    "durationTicks": 480,
                    "midi": 33,
                    "name": "A1",
                    "ticks": 255360,
                    "time": 133,
                    "velocity": 1
                },
                {
                    "duration": 0.25,
                    "durationTicks": 480,
                    "midi": 35,
                    "name": "B1",
                    "ticks": 255840,
                    "time": 133.25,
                    "velocity": 1
                },
                {
                    "duration": 0.25,
                    "durationTicks": 480,
                    "midi": 37,
                    "name": "C#2",
                    "ticks": 256320,
                    "time": 133.5,
                    "velocity": 1
                },
                {
                    "duration": 0.25,
                    "durationTicks": 480,
                    "midi": 33,
                    "name": "A1",
                    "ticks": 256800,
                    "time": 133.75,
                    "velocity": 1
                },
                {
                    "duration": 1.75,
                    "durationTicks": 3360,
                    "midi": 34,
                    "name": "A#1",
                    "ticks": 257280,
                    "time": 134,
                    "velocity": 1
                },
                {
                    "duration": 0.75,
                    "durationTicks": 1440,
                    "midi": 46,
                    "name": "A#2",
                    "ticks": 258720,
                    "time": 134.75,
                    "velocity": 1
                },
                {
                    "duration": 0.25,
                    "durationTicks": 480,
                    "midi": 46,
                    "name": "A#2",
                    "ticks": 260160,
                    "time": 135.5,
                    "velocity": 1
                },
                {
                    "duration": 0.25,
                    "durationTicks": 480,
                    "midi": 33,
                    "name": "A1",
                    "ticks": 260640,
                    "time": 135.75,
                    "velocity": 1
                },
                {
                    "duration": 0.5,
                    "durationTicks": 960,
                    "midi": 41,
                    "name": "F2",
                    "ticks": 261120,
                    "time": 136,
                    "velocity": 1
                },
                {
                    "duration": 0.25,
                    "durationTicks": 480,
                    "midi": 41,
                    "name": "F2",
                    "ticks": 262560,
                    "time": 136.75,
                    "velocity": 1
                },
                {
                    "duration": 0.5,
                    "durationTicks": 960,
                    "midi": 36,
                    "name": "C2",
                    "ticks": 263040,
                    "time": 137,
                    "velocity": 1
                },
                {
                    "duration": 0.25,
                    "durationTicks": 480,
                    "midi": 36,
                    "name": "C2",
                    "ticks": 264480,
                    "time": 137.75,
                    "velocity": 1
                },
                {
                    "duration": 0.5,
                    "durationTicks": 960,
                    "midi": 34,
                    "name": "A#1",
                    "ticks": 264960,
                    "time": 138,
                    "velocity": 1
                },
                {
                    "duration": 0.25,
                    "durationTicks": 480,
                    "midi": 34,
                    "name": "A#1",
                    "ticks": 266400,
                    "time": 138.75,
                    "velocity": 1
                },
                {
                    "duration": 0.5,
                    "durationTicks": 960,
                    "midi": 41,
                    "name": "F2",
                    "ticks": 266880,
                    "time": 139,
                    "velocity": 1
                },
                {
                    "duration": 0.25,
                    "durationTicks": 480,
                    "midi": 41,
                    "name": "F2",
                    "ticks": 268320,
                    "time": 139.75,
                    "velocity": 1
                },
                {
                    "duration": 0.5,
                    "durationTicks": 960,
                    "midi": 41,
                    "name": "F2",
                    "ticks": 268800,
                    "time": 140,
                    "velocity": 1
                },
                {
                    "duration": 0.25,
                    "durationTicks": 480,
                    "midi": 41,
                    "name": "F2",
                    "ticks": 270240,
                    "time": 140.75,
                    "velocity": 1
                },
                {
                    "duration": 0.5,
                    "durationTicks": 960,
                    "midi": 36,
                    "name": "C2",
                    "ticks": 270720,
                    "time": 141,
                    "velocity": 1
                },
                {
                    "duration": 0.25,
                    "durationTicks": 480,
                    "midi": 36,
                    "name": "C2",
                    "ticks": 272160,
                    "time": 141.75,
                    "velocity": 1
                },
                {
                    "duration": 0.5,
                    "durationTicks": 960,
                    "midi": 34,
                    "name": "A#1",
                    "ticks": 272640,
                    "time": 142,
                    "velocity": 1
                },
                {
                    "duration": 0.25,
                    "durationTicks": 480,
                    "midi": 34,
                    "name": "A#1",
                    "ticks": 274080,
                    "time": 142.75,
                    "velocity": 1
                },
                {
                    "duration": 0.5,
                    "durationTicks": 960,
                    "midi": 41,
                    "name": "F2",
                    "ticks": 274560,
                    "time": 143,
                    "velocity": 1
                },
                {
                    "duration": 0.25,
                    "durationTicks": 480,
                    "midi": 41,
                    "name": "F2",
                    "ticks": 275520,
                    "time": 143.5,
                    "velocity": 1
                },
                {
                    "duration": 0.25,
                    "durationTicks": 480,
                    "midi": 36,
                    "name": "C2",
                    "ticks": 276000,
                    "time": 143.75,
                    "velocity": 1
                },
                {
                    "duration": 0.5,
                    "durationTicks": 960,
                    "midi": 34,
                    "name": "A#1",
                    "ticks": 276480,
                    "time": 144,
                    "velocity": 1
                },
                {
                    "duration": 0.5,
                    "durationTicks": 960,
                    "midi": 34,
                    "name": "A#1",
                    "ticks": 277440,
                    "time": 144.5,
                    "velocity": 1
                },
                {
                    "duration": 0.5,
                    "durationTicks": 960,
                    "midi": 36,
                    "name": "C2",
                    "ticks": 278400,
                    "time": 145,
                    "velocity": 1
                },
                {
                    "duration": 0.5,
                    "durationTicks": 960,
                    "midi": 36,
                    "name": "C2",
                    "ticks": 279360,
                    "time": 145.5,
                    "velocity": 1
                },
                {
                    "duration": 0.5,
                    "durationTicks": 960,
                    "midi": 41,
                    "name": "F2",
                    "ticks": 280320,
                    "time": 146,
                    "velocity": 1
                },
                {
                    "duration": 0.5,
                    "durationTicks": 960,
                    "midi": 40,
                    "name": "E2",
                    "ticks": 281280,
                    "time": 146.5,
                    "velocity": 1
                },
                {
                    "duration": 0.5,
                    "durationTicks": 960,
                    "midi": 38,
                    "name": "D2",
                    "ticks": 282240,
                    "time": 147,
                    "velocity": 1
                },
                {
                    "duration": 0.5,
                    "durationTicks": 960,
                    "midi": 36,
                    "name": "C2",
                    "ticks": 283200,
                    "time": 147.5,
                    "velocity": 1
                },
                {
                    "duration": 0.5,
                    "durationTicks": 960,
                    "midi": 34,
                    "name": "A#1",
                    "ticks": 284160,
                    "time": 148,
                    "velocity": 1
                },
                {
                    "duration": 0.5,
                    "durationTicks": 960,
                    "midi": 41,
                    "name": "F2",
                    "ticks": 285120,
                    "time": 148.5,
                    "velocity": 1
                },
                {
                    "duration": 0.5,
                    "durationTicks": 960,
                    "midi": 33,
                    "name": "A1",
                    "ticks": 286080,
                    "time": 149,
                    "velocity": 1
                },
                {
                    "duration": 0.5,
                    "durationTicks": 960,
                    "midi": 40,
                    "name": "E2",
                    "ticks": 287040,
                    "time": 149.5,
                    "velocity": 1
                },
                {
                    "duration": 0.5,
                    "durationTicks": 960,
                    "midi": 38,
                    "name": "D2",
                    "ticks": 288000,
                    "time": 150,
                    "velocity": 1
                },
                {
                    "duration": 0.25,
                    "durationTicks": 480,
                    "midi": 38,
                    "name": "D2",
                    "ticks": 289440,
                    "time": 150.75,
                    "velocity": 1
                },
                {
                    "duration": 0.5,
                    "durationTicks": 960,
                    "midi": 35,
                    "name": "B1",
                    "ticks": 289920,
                    "time": 151,
                    "velocity": 1
                },
                {
                    "duration": 0.25,
                    "durationTicks": 480,
                    "midi": 35,
                    "name": "B1",
                    "ticks": 291360,
                    "time": 151.75,
                    "velocity": 1
                },
                {
                    "duration": 0.5,
                    "durationTicks": 960,
                    "midi": 38,
                    "name": "D2",
                    "ticks": 291840,
                    "time": 152,
                    "velocity": 1
                },
                {
                    "duration": 0.25,
                    "durationTicks": 480,
                    "midi": 38,
                    "name": "D2",
                    "ticks": 293280,
                    "time": 152.75,
                    "velocity": 1
                },
                {
                    "duration": 0.5,
                    "durationTicks": 960,
                    "midi": 35,
                    "name": "B1",
                    "ticks": 293760,
                    "time": 153,
                    "velocity": 1
                },
                {
                    "duration": 0.25,
                    "durationTicks": 480,
                    "midi": 35,
                    "name": "B1",
                    "ticks": 295200,
                    "time": 153.75,
                    "velocity": 1
                },
                {
                    "duration": 0.5,
                    "durationTicks": 960,
                    "midi": 38,
                    "name": "D2",
                    "ticks": 295680,
                    "time": 154,
                    "velocity": 1
                },
                {
                    "duration": 0.25,
                    "durationTicks": 480,
                    "midi": 38,
                    "name": "D2",
                    "ticks": 297120,
                    "time": 154.75,
                    "velocity": 1
                },
                {
                    "duration": 0.5,
                    "durationTicks": 960,
                    "midi": 35,
                    "name": "B1",
                    "ticks": 297600,
                    "time": 155,
                    "velocity": 1
                },
                {
                    "duration": 0.25,
                    "durationTicks": 480,
                    "midi": 35,
                    "name": "B1",
                    "ticks": 299040,
                    "time": 155.75,
                    "velocity": 1
                },
                {
                    "duration": 0.5,
                    "durationTicks": 960,
                    "midi": 38,
                    "name": "D2",
                    "ticks": 299520,
                    "time": 156,
                    "velocity": 1
                },
                {
                    "duration": 0.25,
                    "durationTicks": 480,
                    "midi": 38,
                    "name": "D2",
                    "ticks": 300960,
                    "time": 156.75,
                    "velocity": 1
                },
                {
                    "duration": 0.5,
                    "durationTicks": 960,
                    "midi": 35,
                    "name": "B1",
                    "ticks": 301440,
                    "time": 157,
                    "velocity": 1
                },
                {
                    "duration": 0.25,
                    "durationTicks": 480,
                    "midi": 35,
                    "name": "B1",
                    "ticks": 302880,
                    "time": 157.75,
                    "velocity": 1
                },
                {
                    "duration": 0.5,
                    "durationTicks": 960,
                    "midi": 38,
                    "name": "D2",
                    "ticks": 303360,
                    "time": 158,
                    "velocity": 1
                },
                {
                    "duration": 0.25,
                    "durationTicks": 480,
                    "midi": 38,
                    "name": "D2",
                    "ticks": 304800,
                    "time": 158.75,
                    "velocity": 1
                },
                {
                    "duration": 0.5,
                    "durationTicks": 960,
                    "midi": 35,
                    "name": "B1",
                    "ticks": 305280,
                    "time": 159,
                    "velocity": 1
                },
                {
                    "duration": 0.25,
                    "durationTicks": 480,
                    "midi": 35,
                    "name": "B1",
                    "ticks": 306720,
                    "time": 159.75,
                    "velocity": 1
                },
                {
                    "duration": 0.5,
                    "durationTicks": 960,
                    "midi": 38,
                    "name": "D2",
                    "ticks": 307200,
                    "time": 160,
                    "velocity": 1
                },
                {
                    "duration": 0.25,
                    "durationTicks": 480,
                    "midi": 38,
                    "name": "D2",
                    "ticks": 308640,
                    "time": 160.75,
                    "velocity": 1
                },
                {
                    "duration": 0.5,
                    "durationTicks": 960,
                    "midi": 35,
                    "name": "B1",
                    "ticks": 309120,
                    "time": 161,
                    "velocity": 1
                },
                {
                    "duration": 0.25,
                    "durationTicks": 480,
                    "midi": 35,
                    "name": "B1",
                    "ticks": 310560,
                    "time": 161.75,
                    "velocity": 1
                },
                {
                    "duration": 0.5,
                    "durationTicks": 960,
                    "midi": 38,
                    "name": "D2",
                    "ticks": 311040,
                    "time": 162,
                    "velocity": 1
                },
                {
                    "duration": 0.25,
                    "durationTicks": 480,
                    "midi": 38,
                    "name": "D2",
                    "ticks": 312480,
                    "time": 162.75,
                    "velocity": 1
                },
                {
                    "duration": 0.5,
                    "durationTicks": 960,
                    "midi": 35,
                    "name": "B1",
                    "ticks": 312960,
                    "time": 163,
                    "velocity": 1
                },
                {
                    "duration": 0.25,
                    "durationTicks": 480,
                    "midi": 35,
                    "name": "B1",
                    "ticks": 314400,
                    "time": 163.75,
                    "velocity": 1
                },
                {
                    "duration": 0.5,
                    "durationTicks": 960,
                    "midi": 38,
                    "name": "D2",
                    "ticks": 314880,
                    "time": 164,
                    "velocity": 1
                },
                {
                    "duration": 0.25,
                    "durationTicks": 480,
                    "midi": 38,
                    "name": "D2",
                    "ticks": 316320,
                    "time": 164.75,
                    "velocity": 1
                },
                {
                    "duration": 0.5,
                    "durationTicks": 960,
                    "midi": 35,
                    "name": "B1",
                    "ticks": 316800,
                    "time": 165,
                    "velocity": 1
                },
                {
                    "duration": 0.25,
                    "durationTicks": 480,
                    "midi": 35,
                    "name": "B1",
                    "ticks": 318240,
                    "time": 165.75,
                    "velocity": 1
                },
                {
                    "duration": 0.5,
                    "durationTicks": 960,
                    "midi": 38,
                    "name": "D2",
                    "ticks": 318720,
                    "time": 166,
                    "velocity": 1
                },
                {
                    "duration": 0.25,
                    "durationTicks": 480,
                    "midi": 38,
                    "name": "D2",
                    "ticks": 320160,
                    "time": 166.75,
                    "velocity": 1
                },
                {
                    "duration": 0.5,
                    "durationTicks": 960,
                    "midi": 35,
                    "name": "B1",
                    "ticks": 320640,
                    "time": 167,
                    "velocity": 1
                },
                {
                    "duration": 0.25,
                    "durationTicks": 480,
                    "midi": 35,
                    "name": "B1",
                    "ticks": 322080,
                    "time": 167.75,
                    "velocity": 1
                },
                {
                    "duration": 0.5,
                    "durationTicks": 960,
                    "midi": 38,
                    "name": "D2",
                    "ticks": 322560,
                    "time": 168,
                    "velocity": 1
                },
                {
                    "duration": 0.25,
                    "durationTicks": 480,
                    "midi": 38,
                    "name": "D2",
                    "ticks": 324000,
                    "time": 168.75,
                    "velocity": 1
                },
                {
                    "duration": 0.5,
                    "durationTicks": 960,
                    "midi": 35,
                    "name": "B1",
                    "ticks": 324480,
                    "time": 169,
                    "velocity": 1
                },
                {
                    "duration": 0.25,
                    "durationTicks": 480,
                    "midi": 35,
                    "name": "B1",
                    "ticks": 325920,
                    "time": 169.75,
                    "velocity": 1
                },
                {
                    "duration": 0.5,
                    "durationTicks": 960,
                    "midi": 38,
                    "name": "D2",
                    "ticks": 326400,
                    "time": 170,
                    "velocity": 1
                },
                {
                    "duration": 0.25,
                    "durationTicks": 480,
                    "midi": 38,
                    "name": "D2",
                    "ticks": 327840,
                    "time": 170.75,
                    "velocity": 1
                },
                {
                    "duration": 0.5,
                    "durationTicks": 960,
                    "midi": 35,
                    "name": "B1",
                    "ticks": 328320,
                    "time": 171,
                    "velocity": 1
                },
                {
                    "duration": 0.25,
                    "durationTicks": 480,
                    "midi": 35,
                    "name": "B1",
                    "ticks": 329760,
                    "time": 171.75,
                    "velocity": 1
                },
                {
                    "duration": 0.5,
                    "durationTicks": 960,
                    "midi": 38,
                    "name": "D2",
                    "ticks": 330240,
                    "time": 172,
                    "velocity": 1
                },
                {
                    "duration": 0.25,
                    "durationTicks": 480,
                    "midi": 38,
                    "name": "D2",
                    "ticks": 331680,
                    "time": 172.75,
                    "velocity": 1
                },
                {
                    "duration": 0.5,
                    "durationTicks": 960,
                    "midi": 47,
                    "name": "B2",
                    "ticks": 332160,
                    "time": 173,
                    "velocity": 1
                },
                {
                    "duration": 0.25,
                    "durationTicks": 480,
                    "midi": 47,
                    "name": "B2",
                    "ticks": 333120,
                    "time": 173.5,
                    "velocity": 1
                },
                {
                    "duration": 0.25,
                    "durationTicks": 480,
                    "midi": 45,
                    "name": "A2",
                    "ticks": 333600,
                    "time": 173.75,
                    "velocity": 1
                }
            ],
            "endOfTrackTicks": 334080
        },
        {
            "channel": 0,
            "controlChanges": {
                "7": [
                    {
                        "number": 7,
                        "ticks": 0,
                        "time": 0,
                        "value": 0.905511811023622
                    }
                ]
            },
            "pitchBends": [],
            "instrument": {
                "family": "piano",
                "number": 0,
                "name": "acoustic grand piano"
            },
            "name": "Lead (square)",
            "notes": [],
            "endOfTrackTicks": 288960
        },
        {
            "channel": 7,
            "controlChanges": {
                "10": [
                    {
                        "number": 10,
                        "ticks": 0,
                        "time": 0,
                        "value": 0.5039370078740157
                    }
                ]
            },
            "pitchBends": [],
            "instrument": {
                "family": "synth lead",
                "number": 80,
                "name": "lead 1 (square)"
            },
            "name": "",
            "notes": [
                {
                    "duration": 0.25,
                    "durationTicks": 480,
                    "midi": 65,
                    "name": "F4",
                    "ticks": 160320,
                    "time": 83.5,
                    "velocity": 1
                },
                {
                    "duration": 0.25,
                    "durationTicks": 480,
                    "midi": 67,
                    "name": "G4",
                    "ticks": 160800,
                    "time": 83.75,
                    "velocity": 1
                },
                {
                    "duration": 0.5,
                    "durationTicks": 960,
                    "midi": 69,
                    "name": "A4",
                    "ticks": 161280,
                    "time": 84,
                    "velocity": 1
                },
                {
                    "duration": 0.5,
                    "durationTicks": 960,
                    "midi": 72,
                    "name": "C5",
                    "ticks": 162240,
                    "time": 84.5,
                    "velocity": 1
                },
                {
                    "duration": 0.5,
                    "durationTicks": 960,
                    "midi": 72,
                    "name": "C5",
                    "ticks": 163200,
                    "time": 85,
                    "velocity": 1
                },
                {
                    "duration": 0.25,
                    "durationTicks": 480,
                    "midi": 70,
                    "name": "A#4",
                    "ticks": 164160,
                    "time": 85.5,
                    "velocity": 1
                },
                {
                    "duration": 0.25,
                    "durationTicks": 480,
                    "midi": 69,
                    "name": "A4",
                    "ticks": 164640,
                    "time": 85.75,
                    "velocity": 1
                },
                {
                    "duration": 0.25,
                    "durationTicks": 480,
                    "midi": 70,
                    "name": "A#4",
                    "ticks": 165120,
                    "time": 86,
                    "velocity": 1
                },
                {
                    "duration": 0.25,
                    "durationTicks": 480,
                    "midi": 69,
                    "name": "A4",
                    "ticks": 165600,
                    "time": 86.25,
                    "velocity": 1
                },
                {
                    "duration": 0.5,
                    "durationTicks": 960,
                    "midi": 69,
                    "name": "A4",
                    "ticks": 166080,
                    "time": 86.5,
                    "velocity": 1
                },
                {
                    "duration": 0.5,
                    "durationTicks": 960,
                    "midi": 69,
                    "name": "A4",
                    "ticks": 167040,
                    "time": 87,
                    "velocity": 1
                },
                {
                    "duration": 0.25,
                    "durationTicks": 480,
                    "midi": 67,
                    "name": "G4",
                    "ticks": 168000,
                    "time": 87.5,
                    "velocity": 1
                },
                {
                    "duration": 0.25,
                    "durationTicks": 480,
                    "midi": 65,
                    "name": "F4",
                    "ticks": 168480,
                    "time": 87.75,
                    "velocity": 1
                },
                {
                    "duration": 0.5,
                    "durationTicks": 960,
                    "midi": 65,
                    "name": "F4",
                    "ticks": 168960,
                    "time": 88,
                    "velocity": 1
                },
                {
                    "duration": 0.5,
                    "durationTicks": 960,
                    "midi": 69,
                    "name": "A4",
                    "ticks": 169920,
                    "time": 88.5,
                    "velocity": 1
                },
                {
                    "duration": 0.25,
                    "durationTicks": 480,
                    "midi": 70,
                    "name": "A#4",
                    "ticks": 170880,
                    "time": 89,
                    "velocity": 1
                },
                {
                    "duration": 0.25,
                    "durationTicks": 480,
                    "midi": 69,
                    "name": "A4",
                    "ticks": 171360,
                    "time": 89.25,
                    "velocity": 1
                },
                {
                    "duration": 0.25,
                    "durationTicks": 480,
                    "midi": 67,
                    "name": "G4",
                    "ticks": 171840,
                    "time": 89.5,
                    "velocity": 1
                },
                {
                    "duration": 0.25,
                    "durationTicks": 480,
                    "midi": 65,
                    "name": "F4",
                    "ticks": 172320,
                    "time": 89.75,
                    "velocity": 1
                },
                {
                    "duration": 0.25,
                    "durationTicks": 480,
                    "midi": 65,
                    "name": "F4",
                    "ticks": 172800,
                    "time": 90,
                    "velocity": 1
                },
                {
                    "duration": 0.25,
                    "durationTicks": 480,
                    "midi": 67,
                    "name": "G4",
                    "ticks": 173280,
                    "time": 90.25,
                    "velocity": 1
                },
                {
                    "duration": 0.5,
                    "durationTicks": 960,
                    "midi": 69,
                    "name": "A4",
                    "ticks": 173760,
                    "time": 90.5,
                    "velocity": 1
                },
                {
                    "duration": 0.5,
                    "durationTicks": 960,
                    "midi": 69,
                    "name": "A4",
                    "ticks": 174720,
                    "time": 91,
                    "velocity": 1
                },
                {
                    "duration": 0.25,
                    "durationTicks": 480,
                    "midi": 70,
                    "name": "A#4",
                    "ticks": 175680,
                    "time": 91.5,
                    "velocity": 1
                },
                {
                    "duration": 0.25,
                    "durationTicks": 480,
                    "midi": 72,
                    "name": "C5",
                    "ticks": 176160,
                    "time": 91.75,
                    "velocity": 1
                },
                {
                    "duration": 0.25,
                    "durationTicks": 480,
                    "midi": 74,
                    "name": "D5",
                    "ticks": 176640,
                    "time": 92,
                    "velocity": 1
                },
                {
                    "duration": 0.25,
                    "durationTicks": 480,
                    "midi": 74,
                    "name": "D5",
                    "ticks": 177120,
                    "time": 92.25,
                    "velocity": 1
                },
                {
                    "duration": 0.5,
                    "durationTicks": 960,
                    "midi": 72,
                    "name": "C5",
                    "ticks": 177600,
                    "time": 92.5,
                    "velocity": 1
                },
                {
                    "duration": 0.5,
                    "durationTicks": 960,
                    "midi": 72,
                    "name": "C5",
                    "ticks": 178560,
                    "time": 93,
                    "velocity": 1
                },
                {
                    "duration": 0.25,
                    "durationTicks": 480,
                    "midi": 69,
                    "name": "A4",
                    "ticks": 179520,
                    "time": 93.5,
                    "velocity": 1
                },
                {
                    "duration": 0.25,
                    "durationTicks": 480,
                    "midi": 70,
                    "name": "A#4",
                    "ticks": 180000,
                    "time": 93.75,
                    "velocity": 1
                },
                {
                    "duration": 0.25,
                    "durationTicks": 480,
                    "midi": 72,
                    "name": "C5",
                    "ticks": 180480,
                    "time": 94,
                    "velocity": 1
                },
                {
                    "duration": 0.25,
                    "durationTicks": 480,
                    "midi": 72,
                    "name": "C5",
                    "ticks": 180960,
                    "time": 94.25,
                    "velocity": 1
                },
                {
                    "duration": 0.5,
                    "durationTicks": 960,
                    "midi": 70,
                    "name": "A#4",
                    "ticks": 181440,
                    "time": 94.5,
                    "velocity": 1
                },
                {
                    "duration": 0.5,
                    "durationTicks": 960,
                    "midi": 69,
                    "name": "A4",
                    "ticks": 182400,
                    "time": 95,
                    "velocity": 1
                },
                {
                    "duration": 0.25,
                    "durationTicks": 480,
                    "midi": 67,
                    "name": "G4",
                    "ticks": 183360,
                    "time": 95.5,
                    "velocity": 1
                },
                {
                    "duration": 0.25,
                    "durationTicks": 480,
                    "midi": 65,
                    "name": "F4",
                    "ticks": 183840,
                    "time": 95.75,
                    "velocity": 1
                },
                {
                    "duration": 0.25,
                    "durationTicks": 480,
                    "midi": 65,
                    "name": "F4",
                    "ticks": 184320,
                    "time": 96,
                    "velocity": 1
                },
                {
                    "duration": 0.25,
                    "durationTicks": 480,
                    "midi": 67,
                    "name": "G4",
                    "ticks": 184800,
                    "time": 96.25,
                    "velocity": 1
                },
                {
                    "duration": 0.25,
                    "durationTicks": 480,
                    "midi": 69,
                    "name": "A4",
                    "ticks": 185280,
                    "time": 96.5,
                    "velocity": 1
                },
                {
                    "duration": 0.5,
                    "durationTicks": 960,
                    "midi": 67,
                    "name": "G4",
                    "ticks": 185760,
                    "time": 96.75,
                    "velocity": 1
                },
                {
                    "duration": 0.25,
                    "durationTicks": 480,
                    "midi": 67,
                    "name": "G4",
                    "ticks": 186720,
                    "time": 97.25,
                    "velocity": 1
                },
                {
                    "duration": 0.25,
                    "durationTicks": 480,
                    "midi": 69,
                    "name": "A4",
                    "ticks": 187200,
                    "time": 97.5,
                    "velocity": 1
                },
                {
                    "duration": 0.75,
                    "durationTicks": 1440,
                    "midi": 69,
                    "name": "A4",
                    "ticks": 187680,
                    "time": 97.75,
                    "velocity": 1
                },
                {
                    "duration": 0.25,
                    "durationTicks": 480,
                    "midi": 65,
                    "name": "F4",
                    "ticks": 260160,
                    "time": 135.5,
                    "velocity": 1
                },
                {
                    "duration": 0.25,
                    "durationTicks": 480,
                    "midi": 67,
                    "name": "G4",
                    "ticks": 260640,
                    "time": 135.75,
                    "velocity": 1
                },
                {
                    "duration": 0.5,
                    "durationTicks": 960,
                    "midi": 69,
                    "name": "A4",
                    "ticks": 261120,
                    "time": 136,
                    "velocity": 1
                },
                {
                    "duration": 0.5,
                    "durationTicks": 960,
                    "midi": 72,
                    "name": "C5",
                    "ticks": 262080,
                    "time": 136.5,
                    "velocity": 1
                },
                {
                    "duration": 0.5,
                    "durationTicks": 960,
                    "midi": 72,
                    "name": "C5",
                    "ticks": 263040,
                    "time": 137,
                    "velocity": 1
                },
                {
                    "duration": 0.25,
                    "durationTicks": 480,
                    "midi": 70,
                    "name": "A#4",
                    "ticks": 264000,
                    "time": 137.5,
                    "velocity": 1
                },
                {
                    "duration": 0.25,
                    "durationTicks": 480,
                    "midi": 69,
                    "name": "A4",
                    "ticks": 264480,
                    "time": 137.75,
                    "velocity": 1
                },
                {
                    "duration": 0.25,
                    "durationTicks": 480,
                    "midi": 70,
                    "name": "A#4",
                    "ticks": 264960,
                    "time": 138,
                    "velocity": 1
                },
                {
                    "duration": 0.25,
                    "durationTicks": 480,
                    "midi": 69,
                    "name": "A4",
                    "ticks": 265440,
                    "time": 138.25,
                    "velocity": 1
                },
                {
                    "duration": 0.5,
                    "durationTicks": 960,
                    "midi": 69,
                    "name": "A4",
                    "ticks": 265920,
                    "time": 138.5,
                    "velocity": 1
                },
                {
                    "duration": 0.5,
                    "durationTicks": 960,
                    "midi": 69,
                    "name": "A4",
                    "ticks": 266880,
                    "time": 139,
                    "velocity": 1
                },
                {
                    "duration": 0.25,
                    "durationTicks": 480,
                    "midi": 67,
                    "name": "G4",
                    "ticks": 267840,
                    "time": 139.5,
                    "velocity": 1
                },
                {
                    "duration": 0.25,
                    "durationTicks": 480,
                    "midi": 65,
                    "name": "F4",
                    "ticks": 268320,
                    "time": 139.75,
                    "velocity": 1
                },
                {
                    "duration": 0.5,
                    "durationTicks": 960,
                    "midi": 65,
                    "name": "F4",
                    "ticks": 268800,
                    "time": 140,
                    "velocity": 1
                },
                {
                    "duration": 0.5,
                    "durationTicks": 960,
                    "midi": 69,
                    "name": "A4",
                    "ticks": 269760,
                    "time": 140.5,
                    "velocity": 1
                },
                {
                    "duration": 0.25,
                    "durationTicks": 480,
                    "midi": 70,
                    "name": "A#4",
                    "ticks": 270720,
                    "time": 141,
                    "velocity": 1
                },
                {
                    "duration": 0.25,
                    "durationTicks": 480,
                    "midi": 69,
                    "name": "A4",
                    "ticks": 271200,
                    "time": 141.25,
                    "velocity": 1
                },
                {
                    "duration": 0.25,
                    "durationTicks": 480,
                    "midi": 67,
                    "name": "G4",
                    "ticks": 271680,
                    "time": 141.5,
                    "velocity": 1
                },
                {
                    "duration": 0.25,
                    "durationTicks": 480,
                    "midi": 65,
                    "name": "F4",
                    "ticks": 272160,
                    "time": 141.75,
                    "velocity": 1
                },
                {
                    "duration": 0.25,
                    "durationTicks": 480,
                    "midi": 65,
                    "name": "F4",
                    "ticks": 272640,
                    "time": 142,
                    "velocity": 1
                },
                {
                    "duration": 0.25,
                    "durationTicks": 480,
                    "midi": 67,
                    "name": "G4",
                    "ticks": 273120,
                    "time": 142.25,
                    "velocity": 1
                },
                {
                    "duration": 0.5,
                    "durationTicks": 960,
                    "midi": 69,
                    "name": "A4",
                    "ticks": 273600,
                    "time": 142.5,
                    "velocity": 1
                },
                {
                    "duration": 0.5,
                    "durationTicks": 960,
                    "midi": 69,
                    "name": "A4",
                    "ticks": 274560,
                    "time": 143,
                    "velocity": 1
                },
                {
                    "duration": 0.25,
                    "durationTicks": 480,
                    "midi": 70,
                    "name": "A#4",
                    "ticks": 275520,
                    "time": 143.5,
                    "velocity": 1
                },
                {
                    "duration": 0.25,
                    "durationTicks": 480,
                    "midi": 72,
                    "name": "C5",
                    "ticks": 276000,
                    "time": 143.75,
                    "velocity": 1
                },
                {
                    "duration": 0.25,
                    "durationTicks": 480,
                    "midi": 74,
                    "name": "D5",
                    "ticks": 276480,
                    "time": 144,
                    "velocity": 1
                },
                {
                    "duration": 0.25,
                    "durationTicks": 480,
                    "midi": 74,
                    "name": "D5",
                    "ticks": 276960,
                    "time": 144.25,
                    "velocity": 1
                },
                {
                    "duration": 0.5,
                    "durationTicks": 960,
                    "midi": 72,
                    "name": "C5",
                    "ticks": 277440,
                    "time": 144.5,
                    "velocity": 1
                },
                {
                    "duration": 0.5,
                    "durationTicks": 960,
                    "midi": 72,
                    "name": "C5",
                    "ticks": 278400,
                    "time": 145,
                    "velocity": 1
                },
                {
                    "duration": 0.25,
                    "durationTicks": 480,
                    "midi": 69,
                    "name": "A4",
                    "ticks": 279360,
                    "time": 145.5,
                    "velocity": 1
                },
                {
                    "duration": 0.25,
                    "durationTicks": 480,
                    "midi": 70,
                    "name": "A#4",
                    "ticks": 279840,
                    "time": 145.75,
                    "velocity": 1
                },
                {
                    "duration": 0.25,
                    "durationTicks": 480,
                    "midi": 72,
                    "name": "C5",
                    "ticks": 280320,
                    "time": 146,
                    "velocity": 1
                },
                {
                    "duration": 0.25,
                    "durationTicks": 480,
                    "midi": 72,
                    "name": "C5",
                    "ticks": 280800,
                    "time": 146.25,
                    "velocity": 1
                },
                {
                    "duration": 0.5,
                    "durationTicks": 960,
                    "midi": 70,
                    "name": "A#4",
                    "ticks": 281280,
                    "time": 146.5,
                    "velocity": 1
                },
                {
                    "duration": 0.5,
                    "durationTicks": 960,
                    "midi": 69,
                    "name": "A4",
                    "ticks": 282240,
                    "time": 147,
                    "velocity": 1
                },
                {
                    "duration": 0.25,
                    "durationTicks": 480,
                    "midi": 67,
                    "name": "G4",
                    "ticks": 283200,
                    "time": 147.5,
                    "velocity": 1
                },
                {
                    "duration": 0.25,
                    "durationTicks": 480,
                    "midi": 65,
                    "name": "F4",
                    "ticks": 283680,
                    "time": 147.75,
                    "velocity": 1
                },
                {
                    "duration": 0.25,
                    "durationTicks": 480,
                    "midi": 65,
                    "name": "F4",
                    "ticks": 284160,
                    "time": 148,
                    "velocity": 1
                },
                {
                    "duration": 0.25,
                    "durationTicks": 480,
                    "midi": 67,
                    "name": "G4",
                    "ticks": 284640,
                    "time": 148.25,
                    "velocity": 1
                },
                {
                    "duration": 0.25,
                    "durationTicks": 480,
                    "midi": 69,
                    "name": "A4",
                    "ticks": 285120,
                    "time": 148.5,
                    "velocity": 1
                },
                {
                    "duration": 0.5,
                    "durationTicks": 960,
                    "midi": 67,
                    "name": "G4",
                    "ticks": 285600,
                    "time": 148.75,
                    "velocity": 1
                },
                {
                    "duration": 0.25,
                    "durationTicks": 480,
                    "midi": 67,
                    "name": "G4",
                    "ticks": 286560,
                    "time": 149.25,
                    "velocity": 1
                },
                {
                    "duration": 0.25,
                    "durationTicks": 480,
                    "midi": 69,
                    "name": "A4",
                    "ticks": 287040,
                    "time": 149.5,
                    "velocity": 1
                },
                {
                    "duration": 0.75,
                    "durationTicks": 1440,
                    "midi": 69,
                    "name": "A4",
                    "ticks": 287520,
                    "time": 149.75,
                    "velocity": 1
                }
            ]
        },
        {
            "channel": 9,
            "controlChanges": {
                "7": [
                    {
                        "number": 7,
                        "ticks": 0,
                        "time": 0,
                        "value": 0.8031496062992126
                    }
                ],
                "10": [
                    {
                        "number": 10,
                        "ticks": 0,
                        "time": 0,
                        "value": 0.5039370078740157
                    }
                ]
            },
            "pitchBends": [],
            "instrument": {
                "family": "drums",
                "number": 0,
                "name": "standard kit"
            },
            "name": "Drums 1",
            "notes": [
                {
                    "duration": 0.25,
                    "durationTicks": 480,
                    "midi": 36,
                    "name": "C2",
                    "ticks": 61440,
                    "time": 32,
                    "velocity": 1
                },
                {
                    "duration": 0.25,
                    "durationTicks": 480,
                    "midi": 36,
                    "name": "C2",
                    "ticks": 62880,
                    "time": 32.75,
                    "velocity": 1
                },
                {
                    "duration": 0.25,
                    "durationTicks": 480,
                    "midi": 36,
                    "name": "C2",
                    "ticks": 63360,
                    "time": 33,
                    "velocity": 1
                },
                {
                    "duration": 0.25,
                    "durationTicks": 480,
                    "midi": 36,
                    "name": "C2",
                    "ticks": 65280,
                    "time": 34,
                    "velocity": 1
                },
                {
                    "duration": 0.25,
                    "durationTicks": 480,
                    "midi": 36,
                    "name": "C2",
                    "ticks": 66720,
                    "time": 34.75,
                    "velocity": 1
                },
                {
                    "duration": 0.25,
                    "durationTicks": 480,
                    "midi": 36,
                    "name": "C2",
                    "ticks": 67200,
                    "time": 35,
                    "velocity": 1
                },
                {
                    "duration": 0.25,
                    "durationTicks": 480,
                    "midi": 36,
                    "name": "C2",
                    "ticks": 69120,
                    "time": 36,
                    "velocity": 1
                },
                {
                    "duration": 0.25,
                    "durationTicks": 480,
                    "midi": 36,
                    "name": "C2",
                    "ticks": 70560,
                    "time": 36.75,
                    "velocity": 1
                },
                {
                    "duration": 0.25,
                    "durationTicks": 480,
                    "midi": 36,
                    "name": "C2",
                    "ticks": 71040,
                    "time": 37,
                    "velocity": 1
                },
                {
                    "duration": 0.25,
                    "durationTicks": 480,
                    "midi": 36,
                    "name": "C2",
                    "ticks": 72960,
                    "time": 38,
                    "velocity": 1
                },
                {
                    "duration": 0.25,
                    "durationTicks": 480,
                    "midi": 36,
                    "name": "C2",
                    "ticks": 74400,
                    "time": 38.75,
                    "velocity": 1
                },
                {
                    "duration": 0.25,
                    "durationTicks": 480,
                    "midi": 36,
                    "name": "C2",
                    "ticks": 74880,
                    "time": 39,
                    "velocity": 1
                },
                {
                    "duration": 0.25,
                    "durationTicks": 480,
                    "midi": 36,
                    "name": "C2",
                    "ticks": 76800,
                    "time": 40,
                    "velocity": 1
                },
                {
                    "duration": 0.25,
                    "durationTicks": 480,
                    "midi": 36,
                    "name": "C2",
                    "ticks": 78240,
                    "time": 40.75,
                    "velocity": 1
                },
                {
                    "duration": 0.25,
                    "durationTicks": 480,
                    "midi": 36,
                    "name": "C2",
                    "ticks": 78720,
                    "time": 41,
                    "velocity": 1
                },
                {
                    "duration": 0.25,
                    "durationTicks": 480,
                    "midi": 36,
                    "name": "C2",
                    "ticks": 80640,
                    "time": 42,
                    "velocity": 1
                },
                {
                    "duration": 0.25,
                    "durationTicks": 480,
                    "midi": 36,
                    "name": "C2",
                    "ticks": 82080,
                    "time": 42.75,
                    "velocity": 1
                },
                {
                    "duration": 0.25,
                    "durationTicks": 480,
                    "midi": 36,
                    "name": "C2",
                    "ticks": 82560,
                    "time": 43,
                    "velocity": 1
                },
                {
                    "duration": 0.25,
                    "durationTicks": 480,
                    "midi": 36,
                    "name": "C2",
                    "ticks": 84480,
                    "time": 44,
                    "velocity": 1
                },
                {
                    "duration": 0.25,
                    "durationTicks": 480,
                    "midi": 36,
                    "name": "C2",
                    "ticks": 85920,
                    "time": 44.75,
                    "velocity": 1
                },
                {
                    "duration": 0.25,
                    "durationTicks": 480,
                    "midi": 36,
                    "name": "C2",
                    "ticks": 86400,
                    "time": 45,
                    "velocity": 1
                },
                {
                    "duration": 0.25,
                    "durationTicks": 480,
                    "midi": 57,
                    "name": "A3",
                    "ticks": 88320,
                    "time": 46,
                    "velocity": 1
                },
                {
                    "duration": 0.25,
                    "durationTicks": 480,
                    "midi": 36,
                    "name": "C2",
                    "ticks": 88320,
                    "time": 46,
                    "velocity": 1
                },
                {
                    "duration": 0.25,
                    "durationTicks": 480,
                    "midi": 59,
                    "name": "B3",
                    "ticks": 89280,
                    "time": 46.5,
                    "velocity": 1
                },
                {
                    "duration": 0.25,
                    "durationTicks": 480,
                    "midi": 40,
                    "name": "E2",
                    "ticks": 89280,
                    "time": 46.5,
                    "velocity": 1
                },
                {
                    "duration": 0.25,
                    "durationTicks": 480,
                    "midi": 36,
                    "name": "C2",
                    "ticks": 89760,
                    "time": 46.75,
                    "velocity": 1
                },
                {
                    "duration": 0.25,
                    "durationTicks": 480,
                    "midi": 59,
                    "name": "B3",
                    "ticks": 90240,
                    "time": 47,
                    "velocity": 1
                },
                {
                    "duration": 0.25,
                    "durationTicks": 480,
                    "midi": 36,
                    "name": "C2",
                    "ticks": 90240,
                    "time": 47,
                    "velocity": 1
                },
                {
                    "duration": 0.25,
                    "durationTicks": 480,
                    "midi": 59,
                    "name": "B3",
                    "ticks": 91200,
                    "time": 47.5,
                    "velocity": 1
                },
                {
                    "duration": 0.25,
                    "durationTicks": 480,
                    "midi": 40,
                    "name": "E2",
                    "ticks": 91200,
                    "time": 47.5,
                    "velocity": 1
                },
                {
                    "duration": 0.25,
                    "durationTicks": 480,
                    "midi": 59,
                    "name": "B3",
                    "ticks": 92160,
                    "time": 48,
                    "velocity": 1
                },
                {
                    "duration": 0.25,
                    "durationTicks": 480,
                    "midi": 36,
                    "name": "C2",
                    "ticks": 92160,
                    "time": 48,
                    "velocity": 1
                },
                {
                    "duration": 0.25,
                    "durationTicks": 480,
                    "midi": 59,
                    "name": "B3",
                    "ticks": 93120,
                    "time": 48.5,
                    "velocity": 1
                },
                {
                    "duration": 0.25,
                    "durationTicks": 480,
                    "midi": 40,
                    "name": "E2",
                    "ticks": 93120,
                    "time": 48.5,
                    "velocity": 1
                },
                {
                    "duration": 0.25,
                    "durationTicks": 480,
                    "midi": 36,
                    "name": "C2",
                    "ticks": 93600,
                    "time": 48.75,
                    "velocity": 1
                },
                {
                    "duration": 0.25,
                    "durationTicks": 480,
                    "midi": 59,
                    "name": "B3",
                    "ticks": 94080,
                    "time": 49,
                    "velocity": 1
                },
                {
                    "duration": 0.25,
                    "durationTicks": 480,
                    "midi": 36,
                    "name": "C2",
                    "ticks": 94080,
                    "time": 49,
                    "velocity": 1
                },
                {
                    "duration": 0.25,
                    "durationTicks": 480,
                    "midi": 59,
                    "name": "B3",
                    "ticks": 95040,
                    "time": 49.5,
                    "velocity": 1
                },
                {
                    "duration": 0.25,
                    "durationTicks": 480,
                    "midi": 40,
                    "name": "E2",
                    "ticks": 95040,
                    "time": 49.5,
                    "velocity": 1
                },
                {
                    "duration": 0.25,
                    "durationTicks": 480,
                    "midi": 59,
                    "name": "B3",
                    "ticks": 96000,
                    "time": 50,
                    "velocity": 1
                },
                {
                    "duration": 0.25,
                    "durationTicks": 480,
                    "midi": 36,
                    "name": "C2",
                    "ticks": 96000,
                    "time": 50,
                    "velocity": 1
                },
                {
                    "duration": 0.25,
                    "durationTicks": 480,
                    "midi": 59,
                    "name": "B3",
                    "ticks": 96960,
                    "time": 50.5,
                    "velocity": 1
                },
                {
                    "duration": 0.25,
                    "durationTicks": 480,
                    "midi": 40,
                    "name": "E2",
                    "ticks": 96960,
                    "time": 50.5,
                    "velocity": 1
                },
                {
                    "duration": 0.25,
                    "durationTicks": 480,
                    "midi": 36,
                    "name": "C2",
                    "ticks": 97440,
                    "time": 50.75,
                    "velocity": 1
                },
                {
                    "duration": 0.25,
                    "durationTicks": 480,
                    "midi": 59,
                    "name": "B3",
                    "ticks": 97920,
                    "time": 51,
                    "velocity": 1
                },
                {
                    "duration": 0.25,
                    "durationTicks": 480,
                    "midi": 36,
                    "name": "C2",
                    "ticks": 97920,
                    "time": 51,
                    "velocity": 1
                },
                {
                    "duration": 0.25,
                    "durationTicks": 480,
                    "midi": 59,
                    "name": "B3",
                    "ticks": 98880,
                    "time": 51.5,
                    "velocity": 1
                },
                {
                    "duration": 0.25,
                    "durationTicks": 480,
                    "midi": 40,
                    "name": "E2",
                    "ticks": 98880,
                    "time": 51.5,
                    "velocity": 1
                },
                {
                    "duration": 0.25,
                    "durationTicks": 480,
                    "midi": 59,
                    "name": "B3",
                    "ticks": 99840,
                    "time": 52,
                    "velocity": 1
                },
                {
                    "duration": 0.25,
                    "durationTicks": 480,
                    "midi": 36,
                    "name": "C2",
                    "ticks": 99840,
                    "time": 52,
                    "velocity": 1
                },
                {
                    "duration": 0.25,
                    "durationTicks": 480,
                    "midi": 59,
                    "name": "B3",
                    "ticks": 100800,
                    "time": 52.5,
                    "velocity": 1
                },
                {
                    "duration": 0.25,
                    "durationTicks": 480,
                    "midi": 40,
                    "name": "E2",
                    "ticks": 100800,
                    "time": 52.5,
                    "velocity": 1
                },
                {
                    "duration": 0.25,
                    "durationTicks": 480,
                    "midi": 36,
                    "name": "C2",
                    "ticks": 101280,
                    "time": 52.75,
                    "velocity": 1
                },
                {
                    "duration": 0.25,
                    "durationTicks": 480,
                    "midi": 59,
                    "name": "B3",
                    "ticks": 101760,
                    "time": 53,
                    "velocity": 1
                },
                {
                    "duration": 0.25,
                    "durationTicks": 480,
                    "midi": 36,
                    "name": "C2",
                    "ticks": 101760,
                    "time": 53,
                    "velocity": 1
                },
                {
                    "duration": 0.125,
                    "durationTicks": 240,
                    "midi": 36,
                    "name": "C2",
                    "ticks": 102240,
                    "time": 53.25,
                    "velocity": 1
                },
                {
                    "duration": 0.125,
                    "durationTicks": 240,
                    "midi": 36,
                    "name": "C2",
                    "ticks": 102480,
                    "time": 53.375,
                    "velocity": 1
                },
                {
                    "duration": 0.25,
                    "durationTicks": 480,
                    "midi": 40,
                    "name": "E2",
                    "ticks": 102720,
                    "time": 53.5,
                    "velocity": 1
                },
                {
                    "duration": 0.25,
                    "durationTicks": 480,
                    "midi": 59,
                    "name": "B3",
                    "ticks": 102720,
                    "time": 53.5,
                    "velocity": 1
                },
                {
                    "duration": 0.5,
                    "durationTicks": 960,
                    "midi": 57,
                    "name": "A3",
                    "ticks": 102720,
                    "time": 53.5,
                    "velocity": 1
                },
                {
                    "duration": 0.25,
                    "durationTicks": 480,
                    "midi": 59,
                    "name": "B3",
                    "ticks": 103680,
                    "time": 54,
                    "velocity": 1
                },
                {
                    "duration": 0.25,
                    "durationTicks": 480,
                    "midi": 36,
                    "name": "C2",
                    "ticks": 103680,
                    "time": 54,
                    "velocity": 1
                },
                {
                    "duration": 0.25,
                    "durationTicks": 480,
                    "midi": 57,
                    "name": "A3",
                    "ticks": 103680,
                    "time": 54,
                    "velocity": 1
                },
                {
                    "duration": 0.25,
                    "durationTicks": 480,
                    "midi": 59,
                    "name": "B3",
                    "ticks": 104640,
                    "time": 54.5,
                    "velocity": 1
                },
                {
                    "duration": 0.25,
                    "durationTicks": 480,
                    "midi": 40,
                    "name": "E2",
                    "ticks": 104640,
                    "time": 54.5,
                    "velocity": 1
                },
                {
                    "duration": 0.25,
                    "durationTicks": 480,
                    "midi": 36,
                    "name": "C2",
                    "ticks": 105120,
                    "time": 54.75,
                    "velocity": 1
                },
                {
                    "duration": 0.25,
                    "durationTicks": 480,
                    "midi": 59,
                    "name": "B3",
                    "ticks": 105600,
                    "time": 55,
                    "velocity": 1
                },
                {
                    "duration": 0.25,
                    "durationTicks": 480,
                    "midi": 36,
                    "name": "C2",
                    "ticks": 105600,
                    "time": 55,
                    "velocity": 1
                },
                {
                    "duration": 0.25,
                    "durationTicks": 480,
                    "midi": 59,
                    "name": "B3",
                    "ticks": 106560,
                    "time": 55.5,
                    "velocity": 1
                },
                {
                    "duration": 0.25,
                    "durationTicks": 480,
                    "midi": 40,
                    "name": "E2",
                    "ticks": 106560,
                    "time": 55.5,
                    "velocity": 1
                },
                {
                    "duration": 0.25,
                    "durationTicks": 480,
                    "midi": 59,
                    "name": "B3",
                    "ticks": 107520,
                    "time": 56,
                    "velocity": 1
                },
                {
                    "duration": 0.25,
                    "durationTicks": 480,
                    "midi": 36,
                    "name": "C2",
                    "ticks": 107520,
                    "time": 56,
                    "velocity": 1
                },
                {
                    "duration": 0.25,
                    "durationTicks": 480,
                    "midi": 59,
                    "name": "B3",
                    "ticks": 108480,
                    "time": 56.5,
                    "velocity": 1
                },
                {
                    "duration": 0.25,
                    "durationTicks": 480,
                    "midi": 40,
                    "name": "E2",
                    "ticks": 108480,
                    "time": 56.5,
                    "velocity": 1
                },
                {
                    "duration": 0.25,
                    "durationTicks": 480,
                    "midi": 36,
                    "name": "C2",
                    "ticks": 108960,
                    "time": 56.75,
                    "velocity": 1
                },
                {
                    "duration": 0.25,
                    "durationTicks": 480,
                    "midi": 59,
                    "name": "B3",
                    "ticks": 109440,
                    "time": 57,
                    "velocity": 1
                },
                {
                    "duration": 0.25,
                    "durationTicks": 480,
                    "midi": 36,
                    "name": "C2",
                    "ticks": 109440,
                    "time": 57,
                    "velocity": 1
                },
                {
                    "duration": 0.25,
                    "durationTicks": 480,
                    "midi": 59,
                    "name": "B3",
                    "ticks": 110400,
                    "time": 57.5,
                    "velocity": 1
                },
                {
                    "duration": 0.25,
                    "durationTicks": 480,
                    "midi": 40,
                    "name": "E2",
                    "ticks": 110400,
                    "time": 57.5,
                    "velocity": 1
                },
                {
                    "duration": 0.25,
                    "durationTicks": 480,
                    "midi": 59,
                    "name": "B3",
                    "ticks": 111360,
                    "time": 58,
                    "velocity": 1
                },
                {
                    "duration": 0.25,
                    "durationTicks": 480,
                    "midi": 36,
                    "name": "C2",
                    "ticks": 111360,
                    "time": 58,
                    "velocity": 1
                },
                {
                    "duration": 0.25,
                    "durationTicks": 480,
                    "midi": 59,
                    "name": "B3",
                    "ticks": 112320,
                    "time": 58.5,
                    "velocity": 1
                },
                {
                    "duration": 0.25,
                    "durationTicks": 480,
                    "midi": 40,
                    "name": "E2",
                    "ticks": 112320,
                    "time": 58.5,
                    "velocity": 1
                },
                {
                    "duration": 0.25,
                    "durationTicks": 480,
                    "midi": 36,
                    "name": "C2",
                    "ticks": 112800,
                    "time": 58.75,
                    "velocity": 1
                },
                {
                    "duration": 0.25,
                    "durationTicks": 480,
                    "midi": 59,
                    "name": "B3",
                    "ticks": 113280,
                    "time": 59,
                    "velocity": 1
                },
                {
                    "duration": 0.25,
                    "durationTicks": 480,
                    "midi": 36,
                    "name": "C2",
                    "ticks": 113280,
                    "time": 59,
                    "velocity": 1
                },
                {
                    "duration": 0.25,
                    "durationTicks": 480,
                    "midi": 59,
                    "name": "B3",
                    "ticks": 114240,
                    "time": 59.5,
                    "velocity": 1
                },
                {
                    "duration": 0.25,
                    "durationTicks": 480,
                    "midi": 40,
                    "name": "E2",
                    "ticks": 114240,
                    "time": 59.5,
                    "velocity": 1
                },
                {
                    "duration": 0.25,
                    "durationTicks": 480,
                    "midi": 59,
                    "name": "B3",
                    "ticks": 115200,
                    "time": 60,
                    "velocity": 1
                },
                {
                    "duration": 0.25,
                    "durationTicks": 480,
                    "midi": 36,
                    "name": "C2",
                    "ticks": 115200,
                    "time": 60,
                    "velocity": 1
                },
                {
                    "duration": 0.25,
                    "durationTicks": 480,
                    "midi": 59,
                    "name": "B3",
                    "ticks": 116160,
                    "time": 60.5,
                    "velocity": 1
                },
                {
                    "duration": 0.25,
                    "durationTicks": 480,
                    "midi": 40,
                    "name": "E2",
                    "ticks": 116160,
                    "time": 60.5,
                    "velocity": 1
                },
                {
                    "duration": 0.25,
                    "durationTicks": 480,
                    "midi": 36,
                    "name": "C2",
                    "ticks": 116640,
                    "time": 60.75,
                    "velocity": 1
                },
                {
                    "duration": 0.25,
                    "durationTicks": 480,
                    "midi": 59,
                    "name": "B3",
                    "ticks": 117120,
                    "time": 61,
                    "velocity": 1
                },
                {
                    "duration": 0.25,
                    "durationTicks": 480,
                    "midi": 36,
                    "name": "C2",
                    "ticks": 117120,
                    "time": 61,
                    "velocity": 1
                },
                {
                    "duration": 0.25,
                    "durationTicks": 480,
                    "midi": 59,
                    "name": "B3",
                    "ticks": 118080,
                    "time": 61.5,
                    "velocity": 1
                },
                {
                    "duration": 0.25,
                    "durationTicks": 480,
                    "midi": 40,
                    "name": "E2",
                    "ticks": 118080,
                    "time": 61.5,
                    "velocity": 1
                },
                {
                    "duration": 0.25,
                    "durationTicks": 480,
                    "midi": 59,
                    "name": "B3",
                    "ticks": 119040,
                    "time": 62,
                    "velocity": 1
                },
                {
                    "duration": 0.25,
                    "durationTicks": 480,
                    "midi": 36,
                    "name": "C2",
                    "ticks": 119040,
                    "time": 62,
                    "velocity": 1
                },
                {
                    "duration": 0.25,
                    "durationTicks": 480,
                    "midi": 59,
                    "name": "B3",
                    "ticks": 120000,
                    "time": 62.5,
                    "velocity": 1
                },
                {
                    "duration": 0.25,
                    "durationTicks": 480,
                    "midi": 40,
                    "name": "E2",
                    "ticks": 120000,
                    "time": 62.5,
                    "velocity": 1
                },
                {
                    "duration": 0.25,
                    "durationTicks": 480,
                    "midi": 36,
                    "name": "C2",
                    "ticks": 120480,
                    "time": 62.75,
                    "velocity": 1
                },
                {
                    "duration": 0.25,
                    "durationTicks": 480,
                    "midi": 59,
                    "name": "B3",
                    "ticks": 120960,
                    "time": 63,
                    "velocity": 1
                },
                {
                    "duration": 0.25,
                    "durationTicks": 480,
                    "midi": 36,
                    "name": "C2",
                    "ticks": 120960,
                    "time": 63,
                    "velocity": 1
                },
                {
                    "duration": 0.25,
                    "durationTicks": 480,
                    "midi": 59,
                    "name": "B3",
                    "ticks": 121920,
                    "time": 63.5,
                    "velocity": 1
                },
                {
                    "duration": 0.25,
                    "durationTicks": 480,
                    "midi": 40,
                    "name": "E2",
                    "ticks": 121920,
                    "time": 63.5,
                    "velocity": 1
                },
                {
                    "duration": 0.25,
                    "durationTicks": 480,
                    "midi": 59,
                    "name": "B3",
                    "ticks": 122880,
                    "time": 64,
                    "velocity": 1
                },
                {
                    "duration": 0.25,
                    "durationTicks": 480,
                    "midi": 36,
                    "name": "C2",
                    "ticks": 122880,
                    "time": 64,
                    "velocity": 1
                },
                {
                    "duration": 0.25,
                    "durationTicks": 480,
                    "midi": 59,
                    "name": "B3",
                    "ticks": 123840,
                    "time": 64.5,
                    "velocity": 1
                },
                {
                    "duration": 0.25,
                    "durationTicks": 480,
                    "midi": 40,
                    "name": "E2",
                    "ticks": 123840,
                    "time": 64.5,
                    "velocity": 1
                },
                {
                    "duration": 0.25,
                    "durationTicks": 480,
                    "midi": 36,
                    "name": "C2",
                    "ticks": 124320,
                    "time": 64.75,
                    "velocity": 1
                },
                {
                    "duration": 0.25,
                    "durationTicks": 480,
                    "midi": 59,
                    "name": "B3",
                    "ticks": 124800,
                    "time": 65,
                    "velocity": 1
                },
                {
                    "duration": 0.25,
                    "durationTicks": 480,
                    "midi": 36,
                    "name": "C2",
                    "ticks": 124800,
                    "time": 65,
                    "velocity": 1
                },
                {
                    "duration": 0.25,
                    "durationTicks": 480,
                    "midi": 59,
                    "name": "B3",
                    "ticks": 125760,
                    "time": 65.5,
                    "velocity": 1
                },
                {
                    "duration": 0.25,
                    "durationTicks": 480,
                    "midi": 40,
                    "name": "E2",
                    "ticks": 125760,
                    "time": 65.5,
                    "velocity": 1
                },
                {
                    "duration": 0.25,
                    "durationTicks": 480,
                    "midi": 59,
                    "name": "B3",
                    "ticks": 126720,
                    "time": 66,
                    "velocity": 1
                },
                {
                    "duration": 0.25,
                    "durationTicks": 480,
                    "midi": 36,
                    "name": "C2",
                    "ticks": 126720,
                    "time": 66,
                    "velocity": 1
                },
                {
                    "duration": 0.25,
                    "durationTicks": 480,
                    "midi": 59,
                    "name": "B3",
                    "ticks": 127680,
                    "time": 66.5,
                    "velocity": 1
                },
                {
                    "duration": 0.25,
                    "durationTicks": 480,
                    "midi": 40,
                    "name": "E2",
                    "ticks": 127680,
                    "time": 66.5,
                    "velocity": 1
                },
                {
                    "duration": 0.25,
                    "durationTicks": 480,
                    "midi": 36,
                    "name": "C2",
                    "ticks": 128160,
                    "time": 66.75,
                    "velocity": 1
                },
                {
                    "duration": 0.25,
                    "durationTicks": 480,
                    "midi": 59,
                    "name": "B3",
                    "ticks": 128640,
                    "time": 67,
                    "velocity": 1
                },
                {
                    "duration": 0.25,
                    "durationTicks": 480,
                    "midi": 36,
                    "name": "C2",
                    "ticks": 128640,
                    "time": 67,
                    "velocity": 1
                },
                {
                    "duration": 0.25,
                    "durationTicks": 480,
                    "midi": 59,
                    "name": "B3",
                    "ticks": 129600,
                    "time": 67.5,
                    "velocity": 1
                },
                {
                    "duration": 0.25,
                    "durationTicks": 480,
                    "midi": 40,
                    "name": "E2",
                    "ticks": 129600,
                    "time": 67.5,
                    "velocity": 1
                },
                {
                    "duration": 0.25,
                    "durationTicks": 480,
                    "midi": 59,
                    "name": "B3",
                    "ticks": 130560,
                    "time": 68,
                    "velocity": 1
                },
                {
                    "duration": 0.25,
                    "durationTicks": 480,
                    "midi": 36,
                    "name": "C2",
                    "ticks": 130560,
                    "time": 68,
                    "velocity": 1
                },
                {
                    "duration": 0.25,
                    "durationTicks": 480,
                    "midi": 59,
                    "name": "B3",
                    "ticks": 131520,
                    "time": 68.5,
                    "velocity": 1
                },
                {
                    "duration": 0.25,
                    "durationTicks": 480,
                    "midi": 40,
                    "name": "E2",
                    "ticks": 131520,
                    "time": 68.5,
                    "velocity": 1
                },
                {
                    "duration": 0.25,
                    "durationTicks": 480,
                    "midi": 36,
                    "name": "C2",
                    "ticks": 132000,
                    "time": 68.75,
                    "velocity": 1
                },
                {
                    "duration": 0.25,
                    "durationTicks": 480,
                    "midi": 59,
                    "name": "B3",
                    "ticks": 132480,
                    "time": 69,
                    "velocity": 1
                },
                {
                    "duration": 0.25,
                    "durationTicks": 480,
                    "midi": 36,
                    "name": "C2",
                    "ticks": 132480,
                    "time": 69,
                    "velocity": 1
                },
                {
                    "duration": 0.125,
                    "durationTicks": 240,
                    "midi": 36,
                    "name": "C2",
                    "ticks": 132960,
                    "time": 69.25,
                    "velocity": 1
                },
                {
                    "duration": 0.125,
                    "durationTicks": 240,
                    "midi": 36,
                    "name": "C2",
                    "ticks": 133200,
                    "time": 69.375,
                    "velocity": 1
                },
                {
                    "duration": 0.25,
                    "durationTicks": 480,
                    "midi": 40,
                    "name": "E2",
                    "ticks": 133440,
                    "time": 69.5,
                    "velocity": 1
                },
                {
                    "duration": 0.25,
                    "durationTicks": 480,
                    "midi": 59,
                    "name": "B3",
                    "ticks": 133440,
                    "time": 69.5,
                    "velocity": 1
                },
                {
                    "duration": 0.5,
                    "durationTicks": 960,
                    "midi": 57,
                    "name": "A3",
                    "ticks": 133440,
                    "time": 69.5,
                    "velocity": 1
                },
                {
                    "duration": 0.25,
                    "durationTicks": 480,
                    "midi": 59,
                    "name": "B3",
                    "ticks": 134400,
                    "time": 70,
                    "velocity": 1
                },
                {
                    "duration": 0.25,
                    "durationTicks": 480,
                    "midi": 36,
                    "name": "C2",
                    "ticks": 134400,
                    "time": 70,
                    "velocity": 1
                },
                {
                    "duration": 0.25,
                    "durationTicks": 480,
                    "midi": 57,
                    "name": "A3",
                    "ticks": 134400,
                    "time": 70,
                    "velocity": 1
                },
                {
                    "duration": 0.25,
                    "durationTicks": 480,
                    "midi": 59,
                    "name": "B3",
                    "ticks": 135360,
                    "time": 70.5,
                    "velocity": 1
                },
                {
                    "duration": 0.25,
                    "durationTicks": 480,
                    "midi": 40,
                    "name": "E2",
                    "ticks": 135360,
                    "time": 70.5,
                    "velocity": 1
                },
                {
                    "duration": 0.25,
                    "durationTicks": 480,
                    "midi": 36,
                    "name": "C2",
                    "ticks": 135840,
                    "time": 70.75,
                    "velocity": 1
                },
                {
                    "duration": 0.25,
                    "durationTicks": 480,
                    "midi": 59,
                    "name": "B3",
                    "ticks": 136320,
                    "time": 71,
                    "velocity": 1
                },
                {
                    "duration": 0.25,
                    "durationTicks": 480,
                    "midi": 36,
                    "name": "C2",
                    "ticks": 136320,
                    "time": 71,
                    "velocity": 1
                },
                {
                    "duration": 0.25,
                    "durationTicks": 480,
                    "midi": 59,
                    "name": "B3",
                    "ticks": 137280,
                    "time": 71.5,
                    "velocity": 1
                },
                {
                    "duration": 0.25,
                    "durationTicks": 480,
                    "midi": 40,
                    "name": "E2",
                    "ticks": 137280,
                    "time": 71.5,
                    "velocity": 1
                },
                {
                    "duration": 0.25,
                    "durationTicks": 480,
                    "midi": 59,
                    "name": "B3",
                    "ticks": 138240,
                    "time": 72,
                    "velocity": 1
                },
                {
                    "duration": 0.25,
                    "durationTicks": 480,
                    "midi": 36,
                    "name": "C2",
                    "ticks": 138240,
                    "time": 72,
                    "velocity": 1
                },
                {
                    "duration": 0.25,
                    "durationTicks": 480,
                    "midi": 59,
                    "name": "B3",
                    "ticks": 139200,
                    "time": 72.5,
                    "velocity": 1
                },
                {
                    "duration": 0.25,
                    "durationTicks": 480,
                    "midi": 40,
                    "name": "E2",
                    "ticks": 139200,
                    "time": 72.5,
                    "velocity": 1
                },
                {
                    "duration": 0.25,
                    "durationTicks": 480,
                    "midi": 36,
                    "name": "C2",
                    "ticks": 139680,
                    "time": 72.75,
                    "velocity": 1
                },
                {
                    "duration": 0.25,
                    "durationTicks": 480,
                    "midi": 59,
                    "name": "B3",
                    "ticks": 140160,
                    "time": 73,
                    "velocity": 1
                },
                {
                    "duration": 0.25,
                    "durationTicks": 480,
                    "midi": 36,
                    "name": "C2",
                    "ticks": 140160,
                    "time": 73,
                    "velocity": 1
                },
                {
                    "duration": 0.25,
                    "durationTicks": 480,
                    "midi": 59,
                    "name": "B3",
                    "ticks": 141120,
                    "time": 73.5,
                    "velocity": 1
                },
                {
                    "duration": 0.25,
                    "durationTicks": 480,
                    "midi": 40,
                    "name": "E2",
                    "ticks": 141120,
                    "time": 73.5,
                    "velocity": 1
                },
                {
                    "duration": 0.25,
                    "durationTicks": 480,
                    "midi": 59,
                    "name": "B3",
                    "ticks": 142080,
                    "time": 74,
                    "velocity": 1
                },
                {
                    "duration": 0.25,
                    "durationTicks": 480,
                    "midi": 36,
                    "name": "C2",
                    "ticks": 142080,
                    "time": 74,
                    "velocity": 1
                },
                {
                    "duration": 0.25,
                    "durationTicks": 480,
                    "midi": 59,
                    "name": "B3",
                    "ticks": 143040,
                    "time": 74.5,
                    "velocity": 1
                },
                {
                    "duration": 0.25,
                    "durationTicks": 480,
                    "midi": 40,
                    "name": "E2",
                    "ticks": 143040,
                    "time": 74.5,
                    "velocity": 1
                },
                {
                    "duration": 0.25,
                    "durationTicks": 480,
                    "midi": 36,
                    "name": "C2",
                    "ticks": 143520,
                    "time": 74.75,
                    "velocity": 1
                },
                {
                    "duration": 0.25,
                    "durationTicks": 480,
                    "midi": 59,
                    "name": "B3",
                    "ticks": 144000,
                    "time": 75,
                    "velocity": 1
                },
                {
                    "duration": 0.25,
                    "durationTicks": 480,
                    "midi": 36,
                    "name": "C2",
                    "ticks": 144000,
                    "time": 75,
                    "velocity": 1
                },
                {
                    "duration": 0.25,
                    "durationTicks": 480,
                    "midi": 59,
                    "name": "B3",
                    "ticks": 144960,
                    "time": 75.5,
                    "velocity": 1
                },
                {
                    "duration": 0.25,
                    "durationTicks": 480,
                    "midi": 40,
                    "name": "E2",
                    "ticks": 144960,
                    "time": 75.5,
                    "velocity": 1
                },
                {
                    "duration": 0.25,
                    "durationTicks": 480,
                    "midi": 59,
                    "name": "B3",
                    "ticks": 145920,
                    "time": 76,
                    "velocity": 1
                },
                {
                    "duration": 0.25,
                    "durationTicks": 480,
                    "midi": 36,
                    "name": "C2",
                    "ticks": 145920,
                    "time": 76,
                    "velocity": 1
                },
                {
                    "duration": 0.25,
                    "durationTicks": 480,
                    "midi": 59,
                    "name": "B3",
                    "ticks": 146880,
                    "time": 76.5,
                    "velocity": 1
                },
                {
                    "duration": 0.25,
                    "durationTicks": 480,
                    "midi": 40,
                    "name": "E2",
                    "ticks": 146880,
                    "time": 76.5,
                    "velocity": 1
                },
                {
                    "duration": 0.25,
                    "durationTicks": 480,
                    "midi": 36,
                    "name": "C2",
                    "ticks": 147360,
                    "time": 76.75,
                    "velocity": 1
                },
                {
                    "duration": 0.25,
                    "durationTicks": 480,
                    "midi": 59,
                    "name": "B3",
                    "ticks": 147840,
                    "time": 77,
                    "velocity": 1
                },
                {
                    "duration": 0.25,
                    "durationTicks": 480,
                    "midi": 36,
                    "name": "C2",
                    "ticks": 147840,
                    "time": 77,
                    "velocity": 1
                },
                {
                    "duration": 0.25,
                    "durationTicks": 480,
                    "midi": 59,
                    "name": "B3",
                    "ticks": 148800,
                    "time": 77.5,
                    "velocity": 1
                },
                {
                    "duration": 0.25,
                    "durationTicks": 480,
                    "midi": 40,
                    "name": "E2",
                    "ticks": 148800,
                    "time": 77.5,
                    "velocity": 1
                },
                {
                    "duration": 0.25,
                    "durationTicks": 480,
                    "midi": 59,
                    "name": "B3",
                    "ticks": 149760,
                    "time": 78,
                    "velocity": 1
                },
                {
                    "duration": 0.25,
                    "durationTicks": 480,
                    "midi": 36,
                    "name": "C2",
                    "ticks": 149760,
                    "time": 78,
                    "velocity": 1
                },
                {
                    "duration": 0.25,
                    "durationTicks": 480,
                    "midi": 59,
                    "name": "B3",
                    "ticks": 150720,
                    "time": 78.5,
                    "velocity": 1
                },
                {
                    "duration": 0.25,
                    "durationTicks": 480,
                    "midi": 40,
                    "name": "E2",
                    "ticks": 150720,
                    "time": 78.5,
                    "velocity": 1
                },
                {
                    "duration": 0.25,
                    "durationTicks": 480,
                    "midi": 36,
                    "name": "C2",
                    "ticks": 151200,
                    "time": 78.75,
                    "velocity": 1
                },
                {
                    "duration": 0.25,
                    "durationTicks": 480,
                    "midi": 59,
                    "name": "B3",
                    "ticks": 151680,
                    "time": 79,
                    "velocity": 1
                },
                {
                    "duration": 0.25,
                    "durationTicks": 480,
                    "midi": 36,
                    "name": "C2",
                    "ticks": 151680,
                    "time": 79,
                    "velocity": 1
                },
                {
                    "duration": 0.25,
                    "durationTicks": 480,
                    "midi": 59,
                    "name": "B3",
                    "ticks": 152640,
                    "time": 79.5,
                    "velocity": 1
                },
                {
                    "duration": 0.25,
                    "durationTicks": 480,
                    "midi": 40,
                    "name": "E2",
                    "ticks": 152640,
                    "time": 79.5,
                    "velocity": 1
                },
                {
                    "duration": 0.25,
                    "durationTicks": 480,
                    "midi": 59,
                    "name": "B3",
                    "ticks": 153600,
                    "time": 80,
                    "velocity": 1
                },
                {
                    "duration": 0.25,
                    "durationTicks": 480,
                    "midi": 36,
                    "name": "C2",
                    "ticks": 153600,
                    "time": 80,
                    "velocity": 1
                },
                {
                    "duration": 0.25,
                    "durationTicks": 480,
                    "midi": 59,
                    "name": "B3",
                    "ticks": 154560,
                    "time": 80.5,
                    "velocity": 1
                },
                {
                    "duration": 0.25,
                    "durationTicks": 480,
                    "midi": 40,
                    "name": "E2",
                    "ticks": 154560,
                    "time": 80.5,
                    "velocity": 1
                },
                {
                    "duration": 0.25,
                    "durationTicks": 480,
                    "midi": 36,
                    "name": "C2",
                    "ticks": 155040,
                    "time": 80.75,
                    "velocity": 1
                },
                {
                    "duration": 0.25,
                    "durationTicks": 480,
                    "midi": 59,
                    "name": "B3",
                    "ticks": 155520,
                    "time": 81,
                    "velocity": 1
                },
                {
                    "duration": 0.25,
                    "durationTicks": 480,
                    "midi": 36,
                    "name": "C2",
                    "ticks": 155520,
                    "time": 81,
                    "velocity": 1
                },
                {
                    "duration": 0.25,
                    "durationTicks": 480,
                    "midi": 59,
                    "name": "B3",
                    "ticks": 156480,
                    "time": 81.5,
                    "velocity": 1
                },
                {
                    "duration": 0.25,
                    "durationTicks": 480,
                    "midi": 40,
                    "name": "E2",
                    "ticks": 156480,
                    "time": 81.5,
                    "velocity": 1
                },
                {
                    "duration": 0.25,
                    "durationTicks": 480,
                    "midi": 59,
                    "name": "B3",
                    "ticks": 157440,
                    "time": 82,
                    "velocity": 1
                },
                {
                    "duration": 0.25,
                    "durationTicks": 480,
                    "midi": 36,
                    "name": "C2",
                    "ticks": 157440,
                    "time": 82,
                    "velocity": 1
                },
                {
                    "duration": 0.25,
                    "durationTicks": 480,
                    "midi": 59,
                    "name": "B3",
                    "ticks": 158400,
                    "time": 82.5,
                    "velocity": 1
                },
                {
                    "duration": 0.25,
                    "durationTicks": 480,
                    "midi": 40,
                    "name": "E2",
                    "ticks": 158400,
                    "time": 82.5,
                    "velocity": 1
                },
                {
                    "duration": 0.25,
                    "durationTicks": 480,
                    "midi": 36,
                    "name": "C2",
                    "ticks": 158880,
                    "time": 82.75,
                    "velocity": 1
                },
                {
                    "duration": 0.25,
                    "durationTicks": 480,
                    "midi": 59,
                    "name": "B3",
                    "ticks": 159360,
                    "time": 83,
                    "velocity": 1
                },
                {
                    "duration": 0.25,
                    "durationTicks": 480,
                    "midi": 36,
                    "name": "C2",
                    "ticks": 159360,
                    "time": 83,
                    "velocity": 1
                },
                {
                    "duration": 0.25,
                    "durationTicks": 480,
                    "midi": 59,
                    "name": "B3",
                    "ticks": 160320,
                    "time": 83.5,
                    "velocity": 1
                },
                {
                    "duration": 0.25,
                    "durationTicks": 480,
                    "midi": 40,
                    "name": "E2",
                    "ticks": 160320,
                    "time": 83.5,
                    "velocity": 1
                },
                {
                    "duration": 0.25,
                    "durationTicks": 480,
                    "midi": 36,
                    "name": "C2",
                    "ticks": 161280,
                    "time": 84,
                    "velocity": 1
                },
                {
                    "duration": 0.25,
                    "durationTicks": 480,
                    "midi": 57,
                    "name": "A3",
                    "ticks": 161280,
                    "time": 84,
                    "velocity": 1
                },
                {
                    "duration": 0.25,
                    "durationTicks": 480,
                    "midi": 36,
                    "name": "C2",
                    "ticks": 161760,
                    "time": 84.25,
                    "velocity": 1
                },
                {
                    "duration": 0.25,
                    "durationTicks": 480,
                    "midi": 40,
                    "name": "E2",
                    "ticks": 162240,
                    "time": 84.5,
                    "velocity": 1
                },
                {
                    "duration": 0.25,
                    "durationTicks": 480,
                    "midi": 59,
                    "name": "B3",
                    "ticks": 162240,
                    "time": 84.5,
                    "velocity": 1
                },
                {
                    "duration": 0.25,
                    "durationTicks": 480,
                    "midi": 36,
                    "name": "C2",
                    "ticks": 162720,
                    "time": 84.75,
                    "velocity": 1
                },
                {
                    "duration": 0.25,
                    "durationTicks": 480,
                    "midi": 36,
                    "name": "C2",
                    "ticks": 163200,
                    "time": 85,
                    "velocity": 1
                },
                {
                    "duration": 0.25,
                    "durationTicks": 480,
                    "midi": 59,
                    "name": "B3",
                    "ticks": 163200,
                    "time": 85,
                    "velocity": 1
                },
                {
                    "duration": 0.25,
                    "durationTicks": 480,
                    "midi": 36,
                    "name": "C2",
                    "ticks": 163680,
                    "time": 85.25,
                    "velocity": 1
                },
                {
                    "duration": 0.25,
                    "durationTicks": 480,
                    "midi": 40,
                    "name": "E2",
                    "ticks": 164160,
                    "time": 85.5,
                    "velocity": 1
                },
                {
                    "duration": 0.25,
                    "durationTicks": 480,
                    "midi": 59,
                    "name": "B3",
                    "ticks": 164160,
                    "time": 85.5,
                    "velocity": 1
                },
                {
                    "duration": 0.25,
                    "durationTicks": 480,
                    "midi": 36,
                    "name": "C2",
                    "ticks": 164640,
                    "time": 85.75,
                    "velocity": 1
                },
                {
                    "duration": 0.25,
                    "durationTicks": 480,
                    "midi": 36,
                    "name": "C2",
                    "ticks": 165120,
                    "time": 86,
                    "velocity": 1
                },
                {
                    "duration": 0.25,
                    "durationTicks": 480,
                    "midi": 59,
                    "name": "B3",
                    "ticks": 165120,
                    "time": 86,
                    "velocity": 1
                },
                {
                    "duration": 0.25,
                    "durationTicks": 480,
                    "midi": 36,
                    "name": "C2",
                    "ticks": 165600,
                    "time": 86.25,
                    "velocity": 1
                },
                {
                    "duration": 0.25,
                    "durationTicks": 480,
                    "midi": 40,
                    "name": "E2",
                    "ticks": 166080,
                    "time": 86.5,
                    "velocity": 1
                },
                {
                    "duration": 0.25,
                    "durationTicks": 480,
                    "midi": 59,
                    "name": "B3",
                    "ticks": 166080,
                    "time": 86.5,
                    "velocity": 1
                },
                {
                    "duration": 0.25,
                    "durationTicks": 480,
                    "midi": 36,
                    "name": "C2",
                    "ticks": 166560,
                    "time": 86.75,
                    "velocity": 1
                },
                {
                    "duration": 0.25,
                    "durationTicks": 480,
                    "midi": 36,
                    "name": "C2",
                    "ticks": 167040,
                    "time": 87,
                    "velocity": 1
                },
                {
                    "duration": 0.25,
                    "durationTicks": 480,
                    "midi": 59,
                    "name": "B3",
                    "ticks": 167040,
                    "time": 87,
                    "velocity": 1
                },
                {
                    "duration": 0.25,
                    "durationTicks": 480,
                    "midi": 36,
                    "name": "C2",
                    "ticks": 167520,
                    "time": 87.25,
                    "velocity": 1
                },
                {
                    "duration": 0.25,
                    "durationTicks": 480,
                    "midi": 40,
                    "name": "E2",
                    "ticks": 168000,
                    "time": 87.5,
                    "velocity": 1
                },
                {
                    "duration": 0.25,
                    "durationTicks": 480,
                    "midi": 59,
                    "name": "B3",
                    "ticks": 168000,
                    "time": 87.5,
                    "velocity": 1
                },
                {
                    "duration": 0.25,
                    "durationTicks": 480,
                    "midi": 36,
                    "name": "C2",
                    "ticks": 168480,
                    "time": 87.75,
                    "velocity": 1
                },
                {
                    "duration": 0.25,
                    "durationTicks": 480,
                    "midi": 36,
                    "name": "C2",
                    "ticks": 168960,
                    "time": 88,
                    "velocity": 1
                },
                {
                    "duration": 0.25,
                    "durationTicks": 480,
                    "midi": 59,
                    "name": "B3",
                    "ticks": 168960,
                    "time": 88,
                    "velocity": 1
                },
                {
                    "duration": 0.25,
                    "durationTicks": 480,
                    "midi": 36,
                    "name": "C2",
                    "ticks": 169440,
                    "time": 88.25,
                    "velocity": 1
                },
                {
                    "duration": 0.25,
                    "durationTicks": 480,
                    "midi": 40,
                    "name": "E2",
                    "ticks": 169920,
                    "time": 88.5,
                    "velocity": 1
                },
                {
                    "duration": 0.25,
                    "durationTicks": 480,
                    "midi": 59,
                    "name": "B3",
                    "ticks": 169920,
                    "time": 88.5,
                    "velocity": 1
                },
                {
                    "duration": 0.25,
                    "durationTicks": 480,
                    "midi": 36,
                    "name": "C2",
                    "ticks": 170400,
                    "time": 88.75,
                    "velocity": 1
                },
                {
                    "duration": 0.25,
                    "durationTicks": 480,
                    "midi": 36,
                    "name": "C2",
                    "ticks": 170880,
                    "time": 89,
                    "velocity": 1
                },
                {
                    "duration": 0.25,
                    "durationTicks": 480,
                    "midi": 59,
                    "name": "B3",
                    "ticks": 170880,
                    "time": 89,
                    "velocity": 1
                },
                {
                    "duration": 0.25,
                    "durationTicks": 480,
                    "midi": 36,
                    "name": "C2",
                    "ticks": 171360,
                    "time": 89.25,
                    "velocity": 1
                },
                {
                    "duration": 0.25,
                    "durationTicks": 480,
                    "midi": 40,
                    "name": "E2",
                    "ticks": 171840,
                    "time": 89.5,
                    "velocity": 1
                },
                {
                    "duration": 0.25,
                    "durationTicks": 480,
                    "midi": 59,
                    "name": "B3",
                    "ticks": 171840,
                    "time": 89.5,
                    "velocity": 1
                },
                {
                    "duration": 0.25,
                    "durationTicks": 480,
                    "midi": 36,
                    "name": "C2",
                    "ticks": 172320,
                    "time": 89.75,
                    "velocity": 1
                },
                {
                    "duration": 0.25,
                    "durationTicks": 480,
                    "midi": 36,
                    "name": "C2",
                    "ticks": 172800,
                    "time": 90,
                    "velocity": 1
                },
                {
                    "duration": 0.25,
                    "durationTicks": 480,
                    "midi": 59,
                    "name": "B3",
                    "ticks": 172800,
                    "time": 90,
                    "velocity": 1
                },
                {
                    "duration": 0.25,
                    "durationTicks": 480,
                    "midi": 36,
                    "name": "C2",
                    "ticks": 173280,
                    "time": 90.25,
                    "velocity": 1
                },
                {
                    "duration": 0.25,
                    "durationTicks": 480,
                    "midi": 40,
                    "name": "E2",
                    "ticks": 173760,
                    "time": 90.5,
                    "velocity": 1
                },
                {
                    "duration": 0.25,
                    "durationTicks": 480,
                    "midi": 59,
                    "name": "B3",
                    "ticks": 173760,
                    "time": 90.5,
                    "velocity": 1
                },
                {
                    "duration": 0.25,
                    "durationTicks": 480,
                    "midi": 36,
                    "name": "C2",
                    "ticks": 174240,
                    "time": 90.75,
                    "velocity": 1
                },
                {
                    "duration": 0.25,
                    "durationTicks": 480,
                    "midi": 36,
                    "name": "C2",
                    "ticks": 174720,
                    "time": 91,
                    "velocity": 1
                },
                {
                    "duration": 0.25,
                    "durationTicks": 480,
                    "midi": 59,
                    "name": "B3",
                    "ticks": 174720,
                    "time": 91,
                    "velocity": 1
                },
                {
                    "duration": 0.25,
                    "durationTicks": 480,
                    "midi": 36,
                    "name": "C2",
                    "ticks": 175200,
                    "time": 91.25,
                    "velocity": 1
                },
                {
                    "duration": 0.25,
                    "durationTicks": 480,
                    "midi": 38,
                    "name": "D2",
                    "ticks": 175680,
                    "time": 91.5,
                    "velocity": 1
                },
                {
                    "duration": 0.25,
                    "durationTicks": 480,
                    "midi": 59,
                    "name": "B3",
                    "ticks": 175680,
                    "time": 91.5,
                    "velocity": 1
                },
                {
                    "duration": 0.25,
                    "durationTicks": 480,
                    "midi": 40,
                    "name": "E2",
                    "ticks": 175740,
                    "time": 91.53125,
                    "velocity": 1
                },
                {
                    "duration": 0.125,
                    "durationTicks": 240,
                    "midi": 36,
                    "name": "C2",
                    "ticks": 176160,
                    "time": 91.75,
                    "velocity": 1
                },
                {
                    "duration": 0.125,
                    "durationTicks": 240,
                    "midi": 40,
                    "name": "E2",
                    "ticks": 176400,
                    "time": 91.875,
                    "velocity": 1
                },
                {
                    "duration": 0.25,
                    "durationTicks": 480,
                    "midi": 36,
                    "name": "C2",
                    "ticks": 176640,
                    "time": 92,
                    "velocity": 1
                },
                {
                    "duration": 0.25,
                    "durationTicks": 480,
                    "midi": 57,
                    "name": "A3",
                    "ticks": 176640,
                    "time": 92,
                    "velocity": 1
                },
                {
                    "duration": 0.25,
                    "durationTicks": 480,
                    "midi": 36,
                    "name": "C2",
                    "ticks": 177120,
                    "time": 92.25,
                    "velocity": 1
                },
                {
                    "duration": 0.25,
                    "durationTicks": 480,
                    "midi": 59,
                    "name": "B3",
                    "ticks": 177600,
                    "time": 92.5,
                    "velocity": 1
                },
                {
                    "duration": 0.25,
                    "durationTicks": 480,
                    "midi": 40,
                    "name": "E2",
                    "ticks": 177600,
                    "time": 92.5,
                    "velocity": 1
                },
                {
                    "duration": 0.25,
                    "durationTicks": 480,
                    "midi": 36,
                    "name": "C2",
                    "ticks": 178080,
                    "time": 92.75,
                    "velocity": 1
                },
                {
                    "duration": 0.25,
                    "durationTicks": 480,
                    "midi": 59,
                    "name": "B3",
                    "ticks": 178560,
                    "time": 93,
                    "velocity": 1
                },
                {
                    "duration": 0.25,
                    "durationTicks": 480,
                    "midi": 36,
                    "name": "C2",
                    "ticks": 178560,
                    "time": 93,
                    "velocity": 1
                },
                {
                    "duration": 0.25,
                    "durationTicks": 480,
                    "midi": 36,
                    "name": "C2",
                    "ticks": 179040,
                    "time": 93.25,
                    "velocity": 1
                },
                {
                    "duration": 0.25,
                    "durationTicks": 480,
                    "midi": 59,
                    "name": "B3",
                    "ticks": 179520,
                    "time": 93.5,
                    "velocity": 1
                },
                {
                    "duration": 0.25,
                    "durationTicks": 480,
                    "midi": 40,
                    "name": "E2",
                    "ticks": 179520,
                    "time": 93.5,
                    "velocity": 1
                },
                {
                    "duration": 0.25,
                    "durationTicks": 480,
                    "midi": 36,
                    "name": "C2",
                    "ticks": 180000,
                    "time": 93.75,
                    "velocity": 1
                },
                {
                    "duration": 0.25,
                    "durationTicks": 480,
                    "midi": 59,
                    "name": "B3",
                    "ticks": 180480,
                    "time": 94,
                    "velocity": 1
                },
                {
                    "duration": 0.25,
                    "durationTicks": 480,
                    "midi": 36,
                    "name": "C2",
                    "ticks": 180480,
                    "time": 94,
                    "velocity": 1
                },
                {
                    "duration": 0.25,
                    "durationTicks": 480,
                    "midi": 36,
                    "name": "C2",
                    "ticks": 180960,
                    "time": 94.25,
                    "velocity": 1
                },
                {
                    "duration": 0.25,
                    "durationTicks": 480,
                    "midi": 59,
                    "name": "B3",
                    "ticks": 181440,
                    "time": 94.5,
                    "velocity": 1
                },
                {
                    "duration": 0.25,
                    "durationTicks": 480,
                    "midi": 40,
                    "name": "E2",
                    "ticks": 181440,
                    "time": 94.5,
                    "velocity": 1
                },
                {
                    "duration": 0.25,
                    "durationTicks": 480,
                    "midi": 36,
                    "name": "C2",
                    "ticks": 181920,
                    "time": 94.75,
                    "velocity": 1
                },
                {
                    "duration": 0.25,
                    "durationTicks": 480,
                    "midi": 59,
                    "name": "B3",
                    "ticks": 182400,
                    "time": 95,
                    "velocity": 1
                },
                {
                    "duration": 0.25,
                    "durationTicks": 480,
                    "midi": 36,
                    "name": "C2",
                    "ticks": 182400,
                    "time": 95,
                    "velocity": 1
                },
                {
                    "duration": 0.25,
                    "durationTicks": 480,
                    "midi": 36,
                    "name": "C2",
                    "ticks": 182880,
                    "time": 95.25,
                    "velocity": 1
                },
                {
                    "duration": 0.25,
                    "durationTicks": 480,
                    "midi": 59,
                    "name": "B3",
                    "ticks": 183360,
                    "time": 95.5,
                    "velocity": 1
                },
                {
                    "duration": 0.25,
                    "durationTicks": 480,
                    "midi": 40,
                    "name": "E2",
                    "ticks": 183360,
                    "time": 95.5,
                    "velocity": 1
                },
                {
                    "duration": 0.25,
                    "durationTicks": 480,
                    "midi": 36,
                    "name": "C2",
                    "ticks": 183840,
                    "time": 95.75,
                    "velocity": 1
                },
                {
                    "duration": 0.25,
                    "durationTicks": 480,
                    "midi": 59,
                    "name": "B3",
                    "ticks": 184320,
                    "time": 96,
                    "velocity": 1
                },
                {
                    "duration": 0.25,
                    "durationTicks": 480,
                    "midi": 36,
                    "name": "C2",
                    "ticks": 184320,
                    "time": 96,
                    "velocity": 1
                },
                {
                    "duration": 0.25,
                    "durationTicks": 480,
                    "midi": 36,
                    "name": "C2",
                    "ticks": 184800,
                    "time": 96.25,
                    "velocity": 1
                },
                {
                    "duration": 0.25,
                    "durationTicks": 480,
                    "midi": 59,
                    "name": "B3",
                    "ticks": 185280,
                    "time": 96.5,
                    "velocity": 1
                },
                {
                    "duration": 0.25,
                    "durationTicks": 480,
                    "midi": 40,
                    "name": "E2",
                    "ticks": 185280,
                    "time": 96.5,
                    "velocity": 1
                },
                {
                    "duration": 0.25,
                    "durationTicks": 480,
                    "midi": 36,
                    "name": "C2",
                    "ticks": 185760,
                    "time": 96.75,
                    "velocity": 1
                },
                {
                    "duration": 0.125,
                    "durationTicks": 240,
                    "midi": 40,
                    "name": "E2",
                    "ticks": 186240,
                    "time": 97,
                    "velocity": 1
                },
                {
                    "duration": 0.25,
                    "durationTicks": 480,
                    "midi": 59,
                    "name": "B3",
                    "ticks": 186240,
                    "time": 97,
                    "velocity": 1
                },
                {
                    "duration": 0.125,
                    "durationTicks": 240,
                    "midi": 40,
                    "name": "E2",
                    "ticks": 186480,
                    "time": 97.125,
                    "velocity": 1
                },
                {
                    "duration": 0.25,
                    "durationTicks": 480,
                    "midi": 36,
                    "name": "C2",
                    "ticks": 186720,
                    "time": 97.25,
                    "velocity": 1
                },
                {
                    "duration": 0.25,
                    "durationTicks": 480,
                    "midi": 59,
                    "name": "B3",
                    "ticks": 187200,
                    "time": 97.5,
                    "velocity": 1
                },
                {
                    "duration": 0.25,
                    "durationTicks": 480,
                    "midi": 40,
                    "name": "E2",
                    "ticks": 187200,
                    "time": 97.5,
                    "velocity": 1
                },
                {
                    "duration": 0.125,
                    "durationTicks": 240,
                    "midi": 40,
                    "name": "E2",
                    "ticks": 187680,
                    "time": 97.75,
                    "velocity": 1
                },
                {
                    "duration": 0.125,
                    "durationTicks": 240,
                    "midi": 36,
                    "name": "C2",
                    "ticks": 187680,
                    "time": 97.75,
                    "velocity": 1
                },
                {
                    "duration": 0.125,
                    "durationTicks": 240,
                    "midi": 40,
                    "name": "E2",
                    "ticks": 187920,
                    "time": 97.875,
                    "velocity": 1
                },
                {
                    "duration": 0.25,
                    "durationTicks": 480,
                    "midi": 36,
                    "name": "C2",
                    "ticks": 188160,
                    "time": 98,
                    "velocity": 1
                },
                {
                    "duration": 0.25,
                    "durationTicks": 480,
                    "midi": 57,
                    "name": "A3",
                    "ticks": 188160,
                    "time": 98,
                    "velocity": 1
                },
                {
                    "duration": 0.25,
                    "durationTicks": 480,
                    "midi": 40,
                    "name": "E2",
                    "ticks": 189120,
                    "time": 98.5,
                    "velocity": 1
                },
                {
                    "duration": 0.25,
                    "durationTicks": 480,
                    "midi": 59,
                    "name": "B3",
                    "ticks": 189120,
                    "time": 98.5,
                    "velocity": 1
                },
                {
                    "duration": 0.25,
                    "durationTicks": 480,
                    "midi": 36,
                    "name": "C2",
                    "ticks": 189600,
                    "time": 98.75,
                    "velocity": 1
                },
                {
                    "duration": 0.25,
                    "durationTicks": 480,
                    "midi": 36,
                    "name": "C2",
                    "ticks": 190080,
                    "time": 99,
                    "velocity": 1
                },
                {
                    "duration": 0.25,
                    "durationTicks": 480,
                    "midi": 59,
                    "name": "B3",
                    "ticks": 190080,
                    "time": 99,
                    "velocity": 1
                },
                {
                    "duration": 0.25,
                    "durationTicks": 480,
                    "midi": 40,
                    "name": "E2",
                    "ticks": 191040,
                    "time": 99.5,
                    "velocity": 1
                },
                {
                    "duration": 0.25,
                    "durationTicks": 480,
                    "midi": 59,
                    "name": "B3",
                    "ticks": 191040,
                    "time": 99.5,
                    "velocity": 1
                },
                {
                    "duration": 0.25,
                    "durationTicks": 480,
                    "midi": 59,
                    "name": "B3",
                    "ticks": 192000,
                    "time": 100,
                    "velocity": 1
                },
                {
                    "duration": 0.25,
                    "durationTicks": 480,
                    "midi": 36,
                    "name": "C2",
                    "ticks": 192000,
                    "time": 100,
                    "velocity": 1
                },
                {
                    "duration": 0.25,
                    "durationTicks": 480,
                    "midi": 59,
                    "name": "B3",
                    "ticks": 192960,
                    "time": 100.5,
                    "velocity": 1
                },
                {
                    "duration": 0.25,
                    "durationTicks": 480,
                    "midi": 40,
                    "name": "E2",
                    "ticks": 192960,
                    "time": 100.5,
                    "velocity": 1
                },
                {
                    "duration": 0.25,
                    "durationTicks": 480,
                    "midi": 36,
                    "name": "C2",
                    "ticks": 193440,
                    "time": 100.75,
                    "velocity": 1
                },
                {
                    "duration": 0.25,
                    "durationTicks": 480,
                    "midi": 59,
                    "name": "B3",
                    "ticks": 193920,
                    "time": 101,
                    "velocity": 1
                },
                {
                    "duration": 0.25,
                    "durationTicks": 480,
                    "midi": 36,
                    "name": "C2",
                    "ticks": 193920,
                    "time": 101,
                    "velocity": 1
                },
                {
                    "duration": 0.25,
                    "durationTicks": 480,
                    "midi": 59,
                    "name": "B3",
                    "ticks": 194880,
                    "time": 101.5,
                    "velocity": 1
                },
                {
                    "duration": 0.25,
                    "durationTicks": 480,
                    "midi": 40,
                    "name": "E2",
                    "ticks": 194880,
                    "time": 101.5,
                    "velocity": 1
                },
                {
                    "duration": 0.25,
                    "durationTicks": 480,
                    "midi": 59,
                    "name": "B3",
                    "ticks": 195840,
                    "time": 102,
                    "velocity": 1
                },
                {
                    "duration": 0.25,
                    "durationTicks": 480,
                    "midi": 36,
                    "name": "C2",
                    "ticks": 195840,
                    "time": 102,
                    "velocity": 1
                },
                {
                    "duration": 0.25,
                    "durationTicks": 480,
                    "midi": 59,
                    "name": "B3",
                    "ticks": 196800,
                    "time": 102.5,
                    "velocity": 1
                },
                {
                    "duration": 0.25,
                    "durationTicks": 480,
                    "midi": 40,
                    "name": "E2",
                    "ticks": 196800,
                    "time": 102.5,
                    "velocity": 1
                },
                {
                    "duration": 0.25,
                    "durationTicks": 480,
                    "midi": 36,
                    "name": "C2",
                    "ticks": 197280,
                    "time": 102.75,
                    "velocity": 1
                },
                {
                    "duration": 0.25,
                    "durationTicks": 480,
                    "midi": 59,
                    "name": "B3",
                    "ticks": 197760,
                    "time": 103,
                    "velocity": 1
                },
                {
                    "duration": 0.25,
                    "durationTicks": 480,
                    "midi": 36,
                    "name": "C2",
                    "ticks": 197760,
                    "time": 103,
                    "velocity": 1
                },
                {
                    "duration": 0.25,
                    "durationTicks": 480,
                    "midi": 59,
                    "name": "B3",
                    "ticks": 198720,
                    "time": 103.5,
                    "velocity": 1
                },
                {
                    "duration": 0.25,
                    "durationTicks": 480,
                    "midi": 40,
                    "name": "E2",
                    "ticks": 198720,
                    "time": 103.5,
                    "velocity": 1
                },
                {
                    "duration": 0.25,
                    "durationTicks": 480,
                    "midi": 59,
                    "name": "B3",
                    "ticks": 199680,
                    "time": 104,
                    "velocity": 1
                },
                {
                    "duration": 0.25,
                    "durationTicks": 480,
                    "midi": 36,
                    "name": "C2",
                    "ticks": 199680,
                    "time": 104,
                    "velocity": 1
                },
                {
                    "duration": 0.25,
                    "durationTicks": 480,
                    "midi": 59,
                    "name": "B3",
                    "ticks": 200640,
                    "time": 104.5,
                    "velocity": 1
                },
                {
                    "duration": 0.25,
                    "durationTicks": 480,
                    "midi": 40,
                    "name": "E2",
                    "ticks": 200640,
                    "time": 104.5,
                    "velocity": 1
                },
                {
                    "duration": 0.25,
                    "durationTicks": 480,
                    "midi": 36,
                    "name": "C2",
                    "ticks": 201120,
                    "time": 104.75,
                    "velocity": 1
                },
                {
                    "duration": 0.25,
                    "durationTicks": 480,
                    "midi": 59,
                    "name": "B3",
                    "ticks": 201600,
                    "time": 105,
                    "velocity": 1
                },
                {
                    "duration": 0.25,
                    "durationTicks": 480,
                    "midi": 36,
                    "name": "C2",
                    "ticks": 201600,
                    "time": 105,
                    "velocity": 1
                },
                {
                    "duration": 0.25,
                    "durationTicks": 480,
                    "midi": 59,
                    "name": "B3",
                    "ticks": 202560,
                    "time": 105.5,
                    "velocity": 1
                },
                {
                    "duration": 0.25,
                    "durationTicks": 480,
                    "midi": 40,
                    "name": "E2",
                    "ticks": 202560,
                    "time": 105.5,
                    "velocity": 1
                },
                {
                    "duration": 0.25,
                    "durationTicks": 480,
                    "midi": 36,
                    "name": "C2",
                    "ticks": 232800,
                    "time": 121.25,
                    "velocity": 1
                },
                {
                    "duration": 0.125,
                    "durationTicks": 240,
                    "midi": 38,
                    "name": "D2",
                    "ticks": 233280,
                    "time": 121.5,
                    "velocity": 1
                },
                {
                    "duration": 0.125,
                    "durationTicks": 240,
                    "midi": 40,
                    "name": "E2",
                    "ticks": 233310,
                    "time": 121.515625,
                    "velocity": 1
                },
                {
                    "duration": 0.125,
                    "durationTicks": 240,
                    "midi": 38,
                    "name": "D2",
                    "ticks": 234000,
                    "time": 121.875,
                    "velocity": 1
                },
                {
                    "duration": 0.125,
                    "durationTicks": 240,
                    "midi": 40,
                    "name": "E2",
                    "ticks": 234000,
                    "time": 121.875,
                    "velocity": 1
                },
                {
                    "duration": 0.25,
                    "durationTicks": 480,
                    "midi": 57,
                    "name": "A3",
                    "ticks": 234240,
                    "time": 122,
                    "velocity": 1
                },
                {
                    "duration": 0.25,
                    "durationTicks": 480,
                    "midi": 36,
                    "name": "C2",
                    "ticks": 234240,
                    "time": 122,
                    "velocity": 1
                },
                {
                    "duration": 0.25,
                    "durationTicks": 480,
                    "midi": 59,
                    "name": "B3",
                    "ticks": 235200,
                    "time": 122.5,
                    "velocity": 1
                },
                {
                    "duration": 0.25,
                    "durationTicks": 480,
                    "midi": 40,
                    "name": "E2",
                    "ticks": 235200,
                    "time": 122.5,
                    "velocity": 1
                },
                {
                    "duration": 0.25,
                    "durationTicks": 480,
                    "midi": 36,
                    "name": "C2",
                    "ticks": 235680,
                    "time": 122.75,
                    "velocity": 1
                },
                {
                    "duration": 0.25,
                    "durationTicks": 480,
                    "midi": 59,
                    "name": "B3",
                    "ticks": 236160,
                    "time": 123,
                    "velocity": 1
                },
                {
                    "duration": 0.25,
                    "durationTicks": 480,
                    "midi": 36,
                    "name": "C2",
                    "ticks": 236160,
                    "time": 123,
                    "velocity": 1
                },
                {
                    "duration": 0.25,
                    "durationTicks": 480,
                    "midi": 59,
                    "name": "B3",
                    "ticks": 237120,
                    "time": 123.5,
                    "velocity": 1
                },
                {
                    "duration": 0.25,
                    "durationTicks": 480,
                    "midi": 40,
                    "name": "E2",
                    "ticks": 237120,
                    "time": 123.5,
                    "velocity": 1
                },
                {
                    "duration": 0.25,
                    "durationTicks": 480,
                    "midi": 59,
                    "name": "B3",
                    "ticks": 238080,
                    "time": 124,
                    "velocity": 1
                },
                {
                    "duration": 0.25,
                    "durationTicks": 480,
                    "midi": 36,
                    "name": "C2",
                    "ticks": 238080,
                    "time": 124,
                    "velocity": 1
                },
                {
                    "duration": 0.25,
                    "durationTicks": 480,
                    "midi": 59,
                    "name": "B3",
                    "ticks": 239040,
                    "time": 124.5,
                    "velocity": 1
                },
                {
                    "duration": 0.25,
                    "durationTicks": 480,
                    "midi": 40,
                    "name": "E2",
                    "ticks": 239040,
                    "time": 124.5,
                    "velocity": 1
                },
                {
                    "duration": 0.25,
                    "durationTicks": 480,
                    "midi": 36,
                    "name": "C2",
                    "ticks": 239520,
                    "time": 124.75,
                    "velocity": 1
                },
                {
                    "duration": 0.25,
                    "durationTicks": 480,
                    "midi": 59,
                    "name": "B3",
                    "ticks": 240000,
                    "time": 125,
                    "velocity": 1
                },
                {
                    "duration": 0.25,
                    "durationTicks": 480,
                    "midi": 36,
                    "name": "C2",
                    "ticks": 240000,
                    "time": 125,
                    "velocity": 1
                },
                {
                    "duration": 0.25,
                    "durationTicks": 480,
                    "midi": 59,
                    "name": "B3",
                    "ticks": 240960,
                    "time": 125.5,
                    "velocity": 1
                },
                {
                    "duration": 0.25,
                    "durationTicks": 480,
                    "midi": 40,
                    "name": "E2",
                    "ticks": 240960,
                    "time": 125.5,
                    "velocity": 1
                },
                {
                    "duration": 0.25,
                    "durationTicks": 480,
                    "midi": 59,
                    "name": "B3",
                    "ticks": 241920,
                    "time": 126,
                    "velocity": 1
                },
                {
                    "duration": 0.25,
                    "durationTicks": 480,
                    "midi": 36,
                    "name": "C2",
                    "ticks": 241920,
                    "time": 126,
                    "velocity": 1
                },
                {
                    "duration": 0.25,
                    "durationTicks": 480,
                    "midi": 59,
                    "name": "B3",
                    "ticks": 242880,
                    "time": 126.5,
                    "velocity": 1
                },
                {
                    "duration": 0.25,
                    "durationTicks": 480,
                    "midi": 40,
                    "name": "E2",
                    "ticks": 242880,
                    "time": 126.5,
                    "velocity": 1
                },
                {
                    "duration": 0.25,
                    "durationTicks": 480,
                    "midi": 36,
                    "name": "C2",
                    "ticks": 243360,
                    "time": 126.75,
                    "velocity": 1
                },
                {
                    "duration": 0.25,
                    "durationTicks": 480,
                    "midi": 59,
                    "name": "B3",
                    "ticks": 243840,
                    "time": 127,
                    "velocity": 1
                },
                {
                    "duration": 0.25,
                    "durationTicks": 480,
                    "midi": 36,
                    "name": "C2",
                    "ticks": 243840,
                    "time": 127,
                    "velocity": 1
                },
                {
                    "duration": 0.25,
                    "durationTicks": 480,
                    "midi": 59,
                    "name": "B3",
                    "ticks": 244800,
                    "time": 127.5,
                    "velocity": 1
                },
                {
                    "duration": 0.25,
                    "durationTicks": 480,
                    "midi": 40,
                    "name": "E2",
                    "ticks": 244800,
                    "time": 127.5,
                    "velocity": 1
                },
                {
                    "duration": 0.25,
                    "durationTicks": 480,
                    "midi": 59,
                    "name": "B3",
                    "ticks": 245760,
                    "time": 128,
                    "velocity": 1
                },
                {
                    "duration": 0.25,
                    "durationTicks": 480,
                    "midi": 36,
                    "name": "C2",
                    "ticks": 245760,
                    "time": 128,
                    "velocity": 1
                },
                {
                    "duration": 0.25,
                    "durationTicks": 480,
                    "midi": 59,
                    "name": "B3",
                    "ticks": 246720,
                    "time": 128.5,
                    "velocity": 1
                },
                {
                    "duration": 0.25,
                    "durationTicks": 480,
                    "midi": 40,
                    "name": "E2",
                    "ticks": 246720,
                    "time": 128.5,
                    "velocity": 1
                },
                {
                    "duration": 0.25,
                    "durationTicks": 480,
                    "midi": 36,
                    "name": "C2",
                    "ticks": 247200,
                    "time": 128.75,
                    "velocity": 1
                },
                {
                    "duration": 0.25,
                    "durationTicks": 480,
                    "midi": 59,
                    "name": "B3",
                    "ticks": 247680,
                    "time": 129,
                    "velocity": 1
                },
                {
                    "duration": 0.25,
                    "durationTicks": 480,
                    "midi": 36,
                    "name": "C2",
                    "ticks": 247680,
                    "time": 129,
                    "velocity": 1
                },
                {
                    "duration": 0.25,
                    "durationTicks": 480,
                    "midi": 59,
                    "name": "B3",
                    "ticks": 248640,
                    "time": 129.5,
                    "velocity": 1
                },
                {
                    "duration": 0.25,
                    "durationTicks": 480,
                    "midi": 40,
                    "name": "E2",
                    "ticks": 248640,
                    "time": 129.5,
                    "velocity": 1
                },
                {
                    "duration": 0.25,
                    "durationTicks": 480,
                    "midi": 59,
                    "name": "B3",
                    "ticks": 249600,
                    "time": 130,
                    "velocity": 1
                },
                {
                    "duration": 0.25,
                    "durationTicks": 480,
                    "midi": 36,
                    "name": "C2",
                    "ticks": 249600,
                    "time": 130,
                    "velocity": 1
                },
                {
                    "duration": 0.25,
                    "durationTicks": 480,
                    "midi": 59,
                    "name": "B3",
                    "ticks": 250560,
                    "time": 130.5,
                    "velocity": 1
                },
                {
                    "duration": 0.25,
                    "durationTicks": 480,
                    "midi": 40,
                    "name": "E2",
                    "ticks": 250560,
                    "time": 130.5,
                    "velocity": 1
                },
                {
                    "duration": 0.25,
                    "durationTicks": 480,
                    "midi": 36,
                    "name": "C2",
                    "ticks": 251040,
                    "time": 130.75,
                    "velocity": 1
                },
                {
                    "duration": 0.25,
                    "durationTicks": 480,
                    "midi": 59,
                    "name": "B3",
                    "ticks": 251520,
                    "time": 131,
                    "velocity": 1
                },
                {
                    "duration": 0.25,
                    "durationTicks": 480,
                    "midi": 36,
                    "name": "C2",
                    "ticks": 251520,
                    "time": 131,
                    "velocity": 1
                },
                {
                    "duration": 0.25,
                    "durationTicks": 480,
                    "midi": 59,
                    "name": "B3",
                    "ticks": 252480,
                    "time": 131.5,
                    "velocity": 1
                },
                {
                    "duration": 0.25,
                    "durationTicks": 480,
                    "midi": 40,
                    "name": "E2",
                    "ticks": 252480,
                    "time": 131.5,
                    "velocity": 1
                },
                {
                    "duration": 0.25,
                    "durationTicks": 480,
                    "midi": 59,
                    "name": "B3",
                    "ticks": 253440,
                    "time": 132,
                    "velocity": 1
                },
                {
                    "duration": 0.25,
                    "durationTicks": 480,
                    "midi": 36,
                    "name": "C2",
                    "ticks": 253440,
                    "time": 132,
                    "velocity": 1
                },
                {
                    "duration": 0.25,
                    "durationTicks": 480,
                    "midi": 59,
                    "name": "B3",
                    "ticks": 254400,
                    "time": 132.5,
                    "velocity": 1
                },
                {
                    "duration": 0.25,
                    "durationTicks": 480,
                    "midi": 40,
                    "name": "E2",
                    "ticks": 254400,
                    "time": 132.5,
                    "velocity": 1
                },
                {
                    "duration": 0.25,
                    "durationTicks": 480,
                    "midi": 36,
                    "name": "C2",
                    "ticks": 254880,
                    "time": 132.75,
                    "velocity": 1
                },
                {
                    "duration": 0.25,
                    "durationTicks": 480,
                    "midi": 59,
                    "name": "B3",
                    "ticks": 255360,
                    "time": 133,
                    "velocity": 1
                },
                {
                    "duration": 0.25,
                    "durationTicks": 480,
                    "midi": 36,
                    "name": "C2",
                    "ticks": 255360,
                    "time": 133,
                    "velocity": 1
                },
                {
                    "duration": 0.25,
                    "durationTicks": 480,
                    "midi": 59,
                    "name": "B3",
                    "ticks": 256320,
                    "time": 133.5,
                    "velocity": 1
                },
                {
                    "duration": 0.25,
                    "durationTicks": 480,
                    "midi": 40,
                    "name": "E2",
                    "ticks": 256320,
                    "time": 133.5,
                    "velocity": 1
                },
                {
                    "duration": 0.25,
                    "durationTicks": 480,
                    "midi": 59,
                    "name": "B3",
                    "ticks": 257280,
                    "time": 134,
                    "velocity": 1
                },
                {
                    "duration": 0.25,
                    "durationTicks": 480,
                    "midi": 36,
                    "name": "C2",
                    "ticks": 257280,
                    "time": 134,
                    "velocity": 1
                },
                {
                    "duration": 0.25,
                    "durationTicks": 480,
                    "midi": 59,
                    "name": "B3",
                    "ticks": 258240,
                    "time": 134.5,
                    "velocity": 1
                },
                {
                    "duration": 0.25,
                    "durationTicks": 480,
                    "midi": 40,
                    "name": "E2",
                    "ticks": 258240,
                    "time": 134.5,
                    "velocity": 1
                },
                {
                    "duration": 0.25,
                    "durationTicks": 480,
                    "midi": 36,
                    "name": "C2",
                    "ticks": 258720,
                    "time": 134.75,
                    "velocity": 1
                },
                {
                    "duration": 0.25,
                    "durationTicks": 480,
                    "midi": 59,
                    "name": "B3",
                    "ticks": 259200,
                    "time": 135,
                    "velocity": 1
                },
                {
                    "duration": 0.25,
                    "durationTicks": 480,
                    "midi": 36,
                    "name": "C2",
                    "ticks": 259200,
                    "time": 135,
                    "velocity": 1
                },
                {
                    "duration": 0.25,
                    "durationTicks": 480,
                    "midi": 59,
                    "name": "B3",
                    "ticks": 260160,
                    "time": 135.5,
                    "velocity": 1
                },
                {
                    "duration": 0.25,
                    "durationTicks": 480,
                    "midi": 40,
                    "name": "E2",
                    "ticks": 260160,
                    "time": 135.5,
                    "velocity": 1
                },
                {
                    "duration": 0.25,
                    "durationTicks": 480,
                    "midi": 36,
                    "name": "C2",
                    "ticks": 261120,
                    "time": 136,
                    "velocity": 1
                },
                {
                    "duration": 0.25,
                    "durationTicks": 480,
                    "midi": 57,
                    "name": "A3",
                    "ticks": 261120,
                    "time": 136,
                    "velocity": 1
                },
                {
                    "duration": 0.25,
                    "durationTicks": 480,
                    "midi": 36,
                    "name": "C2",
                    "ticks": 261600,
                    "time": 136.25,
                    "velocity": 1
                },
                {
                    "duration": 0.25,
                    "durationTicks": 480,
                    "midi": 40,
                    "name": "E2",
                    "ticks": 262080,
                    "time": 136.5,
                    "velocity": 1
                },
                {
                    "duration": 0.25,
                    "durationTicks": 480,
                    "midi": 59,
                    "name": "B3",
                    "ticks": 262080,
                    "time": 136.5,
                    "velocity": 1
                },
                {
                    "duration": 0.25,
                    "durationTicks": 480,
                    "midi": 36,
                    "name": "C2",
                    "ticks": 262560,
                    "time": 136.75,
                    "velocity": 1
                },
                {
                    "duration": 0.25,
                    "durationTicks": 480,
                    "midi": 59,
                    "name": "B3",
                    "ticks": 263040,
                    "time": 137,
                    "velocity": 1
                },
                {
                    "duration": 0.25,
                    "durationTicks": 480,
                    "midi": 36,
                    "name": "C2",
                    "ticks": 263040,
                    "time": 137,
                    "velocity": 1
                },
                {
                    "duration": 0.25,
                    "durationTicks": 480,
                    "midi": 36,
                    "name": "C2",
                    "ticks": 263520,
                    "time": 137.25,
                    "velocity": 1
                },
                {
                    "duration": 0.25,
                    "durationTicks": 480,
                    "midi": 40,
                    "name": "E2",
                    "ticks": 264000,
                    "time": 137.5,
                    "velocity": 1
                },
                {
                    "duration": 0.25,
                    "durationTicks": 480,
                    "midi": 59,
                    "name": "B3",
                    "ticks": 264000,
                    "time": 137.5,
                    "velocity": 1
                },
                {
                    "duration": 0.25,
                    "durationTicks": 480,
                    "midi": 36,
                    "name": "C2",
                    "ticks": 264480,
                    "time": 137.75,
                    "velocity": 1
                },
                {
                    "duration": 0.25,
                    "durationTicks": 480,
                    "midi": 36,
                    "name": "C2",
                    "ticks": 264960,
                    "time": 138,
                    "velocity": 1
                },
                {
                    "duration": 0.25,
                    "durationTicks": 480,
                    "midi": 59,
                    "name": "B3",
                    "ticks": 264960,
                    "time": 138,
                    "velocity": 1
                },
                {
                    "duration": 0.25,
                    "durationTicks": 480,
                    "midi": 36,
                    "name": "C2",
                    "ticks": 265440,
                    "time": 138.25,
                    "velocity": 1
                },
                {
                    "duration": 0.25,
                    "durationTicks": 480,
                    "midi": 40,
                    "name": "E2",
                    "ticks": 265920,
                    "time": 138.5,
                    "velocity": 1
                },
                {
                    "duration": 0.25,
                    "durationTicks": 480,
                    "midi": 59,
                    "name": "B3",
                    "ticks": 265920,
                    "time": 138.5,
                    "velocity": 1
                },
                {
                    "duration": 0.25,
                    "durationTicks": 480,
                    "midi": 36,
                    "name": "C2",
                    "ticks": 266400,
                    "time": 138.75,
                    "velocity": 1
                },
                {
                    "duration": 0.25,
                    "durationTicks": 480,
                    "midi": 36,
                    "name": "C2",
                    "ticks": 266880,
                    "time": 139,
                    "velocity": 1
                },
                {
                    "duration": 0.25,
                    "durationTicks": 480,
                    "midi": 59,
                    "name": "B3",
                    "ticks": 266880,
                    "time": 139,
                    "velocity": 1
                },
                {
                    "duration": 0.25,
                    "durationTicks": 480,
                    "midi": 36,
                    "name": "C2",
                    "ticks": 267360,
                    "time": 139.25,
                    "velocity": 1
                },
                {
                    "duration": 0.25,
                    "durationTicks": 480,
                    "midi": 40,
                    "name": "E2",
                    "ticks": 267840,
                    "time": 139.5,
                    "velocity": 1
                },
                {
                    "duration": 0.25,
                    "durationTicks": 480,
                    "midi": 59,
                    "name": "B3",
                    "ticks": 267840,
                    "time": 139.5,
                    "velocity": 1
                },
                {
                    "duration": 0.25,
                    "durationTicks": 480,
                    "midi": 36,
                    "name": "C2",
                    "ticks": 268320,
                    "time": 139.75,
                    "velocity": 1
                },
                {
                    "duration": 0.25,
                    "durationTicks": 480,
                    "midi": 36,
                    "name": "C2",
                    "ticks": 268800,
                    "time": 140,
                    "velocity": 1
                },
                {
                    "duration": 0.25,
                    "durationTicks": 480,
                    "midi": 59,
                    "name": "B3",
                    "ticks": 268800,
                    "time": 140,
                    "velocity": 1
                },
                {
                    "duration": 0.25,
                    "durationTicks": 480,
                    "midi": 36,
                    "name": "C2",
                    "ticks": 269280,
                    "time": 140.25,
                    "velocity": 1
                },
                {
                    "duration": 0.25,
                    "durationTicks": 480,
                    "midi": 40,
                    "name": "E2",
                    "ticks": 269760,
                    "time": 140.5,
                    "velocity": 1
                },
                {
                    "duration": 0.25,
                    "durationTicks": 480,
                    "midi": 59,
                    "name": "B3",
                    "ticks": 269760,
                    "time": 140.5,
                    "velocity": 1
                },
                {
                    "duration": 0.25,
                    "durationTicks": 480,
                    "midi": 36,
                    "name": "C2",
                    "ticks": 270240,
                    "time": 140.75,
                    "velocity": 1
                },
                {
                    "duration": 0.25,
                    "durationTicks": 480,
                    "midi": 36,
                    "name": "C2",
                    "ticks": 270720,
                    "time": 141,
                    "velocity": 1
                },
                {
                    "duration": 0.25,
                    "durationTicks": 480,
                    "midi": 59,
                    "name": "B3",
                    "ticks": 270720,
                    "time": 141,
                    "velocity": 1
                },
                {
                    "duration": 0.25,
                    "durationTicks": 480,
                    "midi": 36,
                    "name": "C2",
                    "ticks": 271200,
                    "time": 141.25,
                    "velocity": 1
                },
                {
                    "duration": 0.25,
                    "durationTicks": 480,
                    "midi": 40,
                    "name": "E2",
                    "ticks": 271680,
                    "time": 141.5,
                    "velocity": 1
                },
                {
                    "duration": 0.25,
                    "durationTicks": 480,
                    "midi": 59,
                    "name": "B3",
                    "ticks": 271680,
                    "time": 141.5,
                    "velocity": 1
                },
                {
                    "duration": 0.25,
                    "durationTicks": 480,
                    "midi": 36,
                    "name": "C2",
                    "ticks": 272160,
                    "time": 141.75,
                    "velocity": 1
                },
                {
                    "duration": 0.25,
                    "durationTicks": 480,
                    "midi": 36,
                    "name": "C2",
                    "ticks": 272640,
                    "time": 142,
                    "velocity": 1
                },
                {
                    "duration": 0.25,
                    "durationTicks": 480,
                    "midi": 59,
                    "name": "B3",
                    "ticks": 272640,
                    "time": 142,
                    "velocity": 1
                },
                {
                    "duration": 0.25,
                    "durationTicks": 480,
                    "midi": 36,
                    "name": "C2",
                    "ticks": 273120,
                    "time": 142.25,
                    "velocity": 1
                },
                {
                    "duration": 0.25,
                    "durationTicks": 480,
                    "midi": 40,
                    "name": "E2",
                    "ticks": 273600,
                    "time": 142.5,
                    "velocity": 1
                },
                {
                    "duration": 0.25,
                    "durationTicks": 480,
                    "midi": 59,
                    "name": "B3",
                    "ticks": 273600,
                    "time": 142.5,
                    "velocity": 1
                },
                {
                    "duration": 0.25,
                    "durationTicks": 480,
                    "midi": 36,
                    "name": "C2",
                    "ticks": 274080,
                    "time": 142.75,
                    "velocity": 1
                },
                {
                    "duration": 0.25,
                    "durationTicks": 480,
                    "midi": 36,
                    "name": "C2",
                    "ticks": 274560,
                    "time": 143,
                    "velocity": 1
                },
                {
                    "duration": 0.25,
                    "durationTicks": 480,
                    "midi": 59,
                    "name": "B3",
                    "ticks": 274560,
                    "time": 143,
                    "velocity": 1
                },
                {
                    "duration": 0.25,
                    "durationTicks": 480,
                    "midi": 36,
                    "name": "C2",
                    "ticks": 275040,
                    "time": 143.25,
                    "velocity": 1
                },
                {
                    "duration": 0.125,
                    "durationTicks": 240,
                    "midi": 38,
                    "name": "D2",
                    "ticks": 275520,
                    "time": 143.5,
                    "velocity": 1
                },
                {
                    "duration": 0.25,
                    "durationTicks": 480,
                    "midi": 59,
                    "name": "B3",
                    "ticks": 275520,
                    "time": 143.5,
                    "velocity": 1
                },
                {
                    "duration": 0.125,
                    "durationTicks": 240,
                    "midi": 40,
                    "name": "E2",
                    "ticks": 275550,
                    "time": 143.515625,
                    "velocity": 1
                },
                {
                    "duration": 0.125,
                    "durationTicks": 240,
                    "midi": 36,
                    "name": "C2",
                    "ticks": 276000,
                    "time": 143.75,
                    "velocity": 1
                },
                {
                    "duration": 0.125,
                    "durationTicks": 240,
                    "midi": 40,
                    "name": "E2",
                    "ticks": 276240,
                    "time": 143.875,
                    "velocity": 1
                },
                {
                    "duration": 0.25,
                    "durationTicks": 480,
                    "midi": 36,
                    "name": "C2",
                    "ticks": 276480,
                    "time": 144,
                    "velocity": 1
                },
                {
                    "duration": 0.25,
                    "durationTicks": 480,
                    "midi": 57,
                    "name": "A3",
                    "ticks": 276480,
                    "time": 144,
                    "velocity": 1
                },
                {
                    "duration": 0.25,
                    "durationTicks": 480,
                    "midi": 36,
                    "name": "C2",
                    "ticks": 276960,
                    "time": 144.25,
                    "velocity": 1
                },
                {
                    "duration": 0.25,
                    "durationTicks": 480,
                    "midi": 59,
                    "name": "B3",
                    "ticks": 277440,
                    "time": 144.5,
                    "velocity": 1
                },
                {
                    "duration": 0.25,
                    "durationTicks": 480,
                    "midi": 40,
                    "name": "E2",
                    "ticks": 277440,
                    "time": 144.5,
                    "velocity": 1
                },
                {
                    "duration": 0.25,
                    "durationTicks": 480,
                    "midi": 36,
                    "name": "C2",
                    "ticks": 277920,
                    "time": 144.75,
                    "velocity": 1
                },
                {
                    "duration": 0.25,
                    "durationTicks": 480,
                    "midi": 59,
                    "name": "B3",
                    "ticks": 278400,
                    "time": 145,
                    "velocity": 1
                },
                {
                    "duration": 0.25,
                    "durationTicks": 480,
                    "midi": 36,
                    "name": "C2",
                    "ticks": 278400,
                    "time": 145,
                    "velocity": 1
                },
                {
                    "duration": 0.25,
                    "durationTicks": 480,
                    "midi": 36,
                    "name": "C2",
                    "ticks": 278880,
                    "time": 145.25,
                    "velocity": 1
                },
                {
                    "duration": 0.25,
                    "durationTicks": 480,
                    "midi": 59,
                    "name": "B3",
                    "ticks": 279360,
                    "time": 145.5,
                    "velocity": 1
                },
                {
                    "duration": 0.25,
                    "durationTicks": 480,
                    "midi": 40,
                    "name": "E2",
                    "ticks": 279360,
                    "time": 145.5,
                    "velocity": 1
                },
                {
                    "duration": 0.25,
                    "durationTicks": 480,
                    "midi": 36,
                    "name": "C2",
                    "ticks": 279840,
                    "time": 145.75,
                    "velocity": 1
                },
                {
                    "duration": 0.25,
                    "durationTicks": 480,
                    "midi": 59,
                    "name": "B3",
                    "ticks": 280320,
                    "time": 146,
                    "velocity": 1
                },
                {
                    "duration": 0.25,
                    "durationTicks": 480,
                    "midi": 36,
                    "name": "C2",
                    "ticks": 280320,
                    "time": 146,
                    "velocity": 1
                },
                {
                    "duration": 0.25,
                    "durationTicks": 480,
                    "midi": 36,
                    "name": "C2",
                    "ticks": 280800,
                    "time": 146.25,
                    "velocity": 1
                },
                {
                    "duration": 0.25,
                    "durationTicks": 480,
                    "midi": 59,
                    "name": "B3",
                    "ticks": 281280,
                    "time": 146.5,
                    "velocity": 1
                },
                {
                    "duration": 0.25,
                    "durationTicks": 480,
                    "midi": 40,
                    "name": "E2",
                    "ticks": 281280,
                    "time": 146.5,
                    "velocity": 1
                },
                {
                    "duration": 0.25,
                    "durationTicks": 480,
                    "midi": 36,
                    "name": "C2",
                    "ticks": 281760,
                    "time": 146.75,
                    "velocity": 1
                },
                {
                    "duration": 0.25,
                    "durationTicks": 480,
                    "midi": 59,
                    "name": "B3",
                    "ticks": 282240,
                    "time": 147,
                    "velocity": 1
                },
                {
                    "duration": 0.25,
                    "durationTicks": 480,
                    "midi": 36,
                    "name": "C2",
                    "ticks": 282240,
                    "time": 147,
                    "velocity": 1
                },
                {
                    "duration": 0.25,
                    "durationTicks": 480,
                    "midi": 36,
                    "name": "C2",
                    "ticks": 282720,
                    "time": 147.25,
                    "velocity": 1
                },
                {
                    "duration": 0.25,
                    "durationTicks": 480,
                    "midi": 59,
                    "name": "B3",
                    "ticks": 283200,
                    "time": 147.5,
                    "velocity": 1
                },
                {
                    "duration": 0.25,
                    "durationTicks": 480,
                    "midi": 40,
                    "name": "E2",
                    "ticks": 283200,
                    "time": 147.5,
                    "velocity": 1
                },
                {
                    "duration": 0.25,
                    "durationTicks": 480,
                    "midi": 36,
                    "name": "C2",
                    "ticks": 283680,
                    "time": 147.75,
                    "velocity": 1
                },
                {
                    "duration": 0.25,
                    "durationTicks": 480,
                    "midi": 59,
                    "name": "B3",
                    "ticks": 284160,
                    "time": 148,
                    "velocity": 1
                },
                {
                    "duration": 0.25,
                    "durationTicks": 480,
                    "midi": 36,
                    "name": "C2",
                    "ticks": 284160,
                    "time": 148,
                    "velocity": 1
                },
                {
                    "duration": 0.25,
                    "durationTicks": 480,
                    "midi": 36,
                    "name": "C2",
                    "ticks": 284640,
                    "time": 148.25,
                    "velocity": 1
                },
                {
                    "duration": 0.25,
                    "durationTicks": 480,
                    "midi": 59,
                    "name": "B3",
                    "ticks": 285120,
                    "time": 148.5,
                    "velocity": 1
                },
                {
                    "duration": 0.25,
                    "durationTicks": 480,
                    "midi": 40,
                    "name": "E2",
                    "ticks": 285120,
                    "time": 148.5,
                    "velocity": 1
                },
                {
                    "duration": 0.25,
                    "durationTicks": 480,
                    "midi": 36,
                    "name": "C2",
                    "ticks": 285600,
                    "time": 148.75,
                    "velocity": 1
                },
                {
                    "duration": 0.125,
                    "durationTicks": 240,
                    "midi": 40,
                    "name": "E2",
                    "ticks": 286080,
                    "time": 149,
                    "velocity": 1
                },
                {
                    "duration": 0.25,
                    "durationTicks": 480,
                    "midi": 59,
                    "name": "B3",
                    "ticks": 286080,
                    "time": 149,
                    "velocity": 1
                },
                {
                    "duration": 0.125,
                    "durationTicks": 240,
                    "midi": 40,
                    "name": "E2",
                    "ticks": 286320,
                    "time": 149.125,
                    "velocity": 1
                },
                {
                    "duration": 0.25,
                    "durationTicks": 480,
                    "midi": 36,
                    "name": "C2",
                    "ticks": 286560,
                    "time": 149.25,
                    "velocity": 1
                },
                {
                    "duration": 0.25,
                    "durationTicks": 480,
                    "midi": 59,
                    "name": "B3",
                    "ticks": 287040,
                    "time": 149.5,
                    "velocity": 1
                },
                {
                    "duration": 0.25,
                    "durationTicks": 480,
                    "midi": 40,
                    "name": "E2",
                    "ticks": 287040,
                    "time": 149.5,
                    "velocity": 1
                },
                {
                    "duration": 0.125,
                    "durationTicks": 240,
                    "midi": 36,
                    "name": "C2",
                    "ticks": 287520,
                    "time": 149.75,
                    "velocity": 1
                },
                {
                    "duration": 0.125,
                    "durationTicks": 240,
                    "midi": 40,
                    "name": "E2",
                    "ticks": 287760,
                    "time": 149.875,
                    "velocity": 1
                },
                {
                    "duration": 0.25,
                    "durationTicks": 480,
                    "midi": 36,
                    "name": "C2",
                    "ticks": 288000,
                    "time": 150,
                    "velocity": 1
                },
                {
                    "duration": 0.25,
                    "durationTicks": 480,
                    "midi": 57,
                    "name": "A3",
                    "ticks": 288000,
                    "time": 150,
                    "velocity": 1
                },
                {
                    "duration": 0.25,
                    "durationTicks": 480,
                    "midi": 40,
                    "name": "E2",
                    "ticks": 288960,
                    "time": 150.5,
                    "velocity": 1
                },
                {
                    "duration": 0.25,
                    "durationTicks": 480,
                    "midi": 59,
                    "name": "B3",
                    "ticks": 288960,
                    "time": 150.5,
                    "velocity": 1
                },
                {
                    "duration": 0.25,
                    "durationTicks": 480,
                    "midi": 36,
                    "name": "C2",
                    "ticks": 289440,
                    "time": 150.75,
                    "velocity": 1
                },
                {
                    "duration": 0.25,
                    "durationTicks": 480,
                    "midi": 36,
                    "name": "C2",
                    "ticks": 289920,
                    "time": 151,
                    "velocity": 1
                },
                {
                    "duration": 0.25,
                    "durationTicks": 480,
                    "midi": 59,
                    "name": "B3",
                    "ticks": 289920,
                    "time": 151,
                    "velocity": 1
                },
                {
                    "duration": 0.25,
                    "durationTicks": 480,
                    "midi": 40,
                    "name": "E2",
                    "ticks": 290880,
                    "time": 151.5,
                    "velocity": 1
                },
                {
                    "duration": 0.25,
                    "durationTicks": 480,
                    "midi": 59,
                    "name": "B3",
                    "ticks": 290880,
                    "time": 151.5,
                    "velocity": 1
                },
                {
                    "duration": 0.25,
                    "durationTicks": 480,
                    "midi": 59,
                    "name": "B3",
                    "ticks": 291840,
                    "time": 152,
                    "velocity": 1
                },
                {
                    "duration": 0.25,
                    "durationTicks": 480,
                    "midi": 36,
                    "name": "C2",
                    "ticks": 291840,
                    "time": 152,
                    "velocity": 1
                },
                {
                    "duration": 0.25,
                    "durationTicks": 480,
                    "midi": 59,
                    "name": "B3",
                    "ticks": 292800,
                    "time": 152.5,
                    "velocity": 1
                },
                {
                    "duration": 0.25,
                    "durationTicks": 480,
                    "midi": 40,
                    "name": "E2",
                    "ticks": 292800,
                    "time": 152.5,
                    "velocity": 1
                },
                {
                    "duration": 0.25,
                    "durationTicks": 480,
                    "midi": 36,
                    "name": "C2",
                    "ticks": 293280,
                    "time": 152.75,
                    "velocity": 1
                },
                {
                    "duration": 0.25,
                    "durationTicks": 480,
                    "midi": 59,
                    "name": "B3",
                    "ticks": 293760,
                    "time": 153,
                    "velocity": 1
                },
                {
                    "duration": 0.25,
                    "durationTicks": 480,
                    "midi": 36,
                    "name": "C2",
                    "ticks": 293760,
                    "time": 153,
                    "velocity": 1
                },
                {
                    "duration": 0.25,
                    "durationTicks": 480,
                    "midi": 59,
                    "name": "B3",
                    "ticks": 294720,
                    "time": 153.5,
                    "velocity": 1
                },
                {
                    "duration": 0.25,
                    "durationTicks": 480,
                    "midi": 40,
                    "name": "E2",
                    "ticks": 294720,
                    "time": 153.5,
                    "velocity": 1
                },
                {
                    "duration": 0.25,
                    "durationTicks": 480,
                    "midi": 59,
                    "name": "B3",
                    "ticks": 295680,
                    "time": 154,
                    "velocity": 1
                },
                {
                    "duration": 0.25,
                    "durationTicks": 480,
                    "midi": 36,
                    "name": "C2",
                    "ticks": 295680,
                    "time": 154,
                    "velocity": 1
                },
                {
                    "duration": 0.25,
                    "durationTicks": 480,
                    "midi": 59,
                    "name": "B3",
                    "ticks": 296640,
                    "time": 154.5,
                    "velocity": 1
                },
                {
                    "duration": 0.25,
                    "durationTicks": 480,
                    "midi": 40,
                    "name": "E2",
                    "ticks": 296640,
                    "time": 154.5,
                    "velocity": 1
                },
                {
                    "duration": 0.25,
                    "durationTicks": 480,
                    "midi": 36,
                    "name": "C2",
                    "ticks": 297120,
                    "time": 154.75,
                    "velocity": 1
                },
                {
                    "duration": 0.25,
                    "durationTicks": 480,
                    "midi": 59,
                    "name": "B3",
                    "ticks": 297600,
                    "time": 155,
                    "velocity": 1
                },
                {
                    "duration": 0.25,
                    "durationTicks": 480,
                    "midi": 36,
                    "name": "C2",
                    "ticks": 297600,
                    "time": 155,
                    "velocity": 1
                },
                {
                    "duration": 0.25,
                    "durationTicks": 480,
                    "midi": 59,
                    "name": "B3",
                    "ticks": 298560,
                    "time": 155.5,
                    "velocity": 1
                },
                {
                    "duration": 0.25,
                    "durationTicks": 480,
                    "midi": 40,
                    "name": "E2",
                    "ticks": 298560,
                    "time": 155.5,
                    "velocity": 1
                },
                {
                    "duration": 0.25,
                    "durationTicks": 480,
                    "midi": 59,
                    "name": "B3",
                    "ticks": 299520,
                    "time": 156,
                    "velocity": 1
                },
                {
                    "duration": 0.25,
                    "durationTicks": 480,
                    "midi": 36,
                    "name": "C2",
                    "ticks": 299520,
                    "time": 156,
                    "velocity": 1
                },
                {
                    "duration": 0.25,
                    "durationTicks": 480,
                    "midi": 59,
                    "name": "B3",
                    "ticks": 300480,
                    "time": 156.5,
                    "velocity": 1
                },
                {
                    "duration": 0.25,
                    "durationTicks": 480,
                    "midi": 40,
                    "name": "E2",
                    "ticks": 300480,
                    "time": 156.5,
                    "velocity": 1
                },
                {
                    "duration": 0.25,
                    "durationTicks": 480,
                    "midi": 36,
                    "name": "C2",
                    "ticks": 300960,
                    "time": 156.75,
                    "velocity": 1
                },
                {
                    "duration": 0.25,
                    "durationTicks": 480,
                    "midi": 59,
                    "name": "B3",
                    "ticks": 301440,
                    "time": 157,
                    "velocity": 1
                },
                {
                    "duration": 0.25,
                    "durationTicks": 480,
                    "midi": 36,
                    "name": "C2",
                    "ticks": 301440,
                    "time": 157,
                    "velocity": 1
                },
                {
                    "duration": 0.125,
                    "durationTicks": 240,
                    "midi": 36,
                    "name": "C2",
                    "ticks": 301920,
                    "time": 157.25,
                    "velocity": 1
                },
                {
                    "duration": 0.125,
                    "durationTicks": 240,
                    "midi": 36,
                    "name": "C2",
                    "ticks": 302160,
                    "time": 157.375,
                    "velocity": 1
                },
                {
                    "duration": 0.25,
                    "durationTicks": 480,
                    "midi": 59,
                    "name": "B3",
                    "ticks": 302400,
                    "time": 157.5,
                    "velocity": 1
                },
                {
                    "duration": 0.25,
                    "durationTicks": 480,
                    "midi": 40,
                    "name": "E2",
                    "ticks": 302400,
                    "time": 157.5,
                    "velocity": 1
                },
                {
                    "duration": 0.5,
                    "durationTicks": 960,
                    "midi": 57,
                    "name": "A3",
                    "ticks": 302400,
                    "time": 157.5,
                    "velocity": 1
                },
                {
                    "duration": 0.25,
                    "durationTicks": 480,
                    "midi": 59,
                    "name": "B3",
                    "ticks": 303360,
                    "time": 158,
                    "velocity": 1
                },
                {
                    "duration": 0.25,
                    "durationTicks": 480,
                    "midi": 36,
                    "name": "C2",
                    "ticks": 303360,
                    "time": 158,
                    "velocity": 1
                },
                {
                    "duration": 0.25,
                    "durationTicks": 480,
                    "midi": 57,
                    "name": "A3",
                    "ticks": 303360,
                    "time": 158,
                    "velocity": 1
                },
                {
                    "duration": 0.25,
                    "durationTicks": 480,
                    "midi": 59,
                    "name": "B3",
                    "ticks": 304320,
                    "time": 158.5,
                    "velocity": 1
                },
                {
                    "duration": 0.25,
                    "durationTicks": 480,
                    "midi": 40,
                    "name": "E2",
                    "ticks": 304320,
                    "time": 158.5,
                    "velocity": 1
                },
                {
                    "duration": 0.25,
                    "durationTicks": 480,
                    "midi": 36,
                    "name": "C2",
                    "ticks": 304800,
                    "time": 158.75,
                    "velocity": 1
                },
                {
                    "duration": 0.25,
                    "durationTicks": 480,
                    "midi": 59,
                    "name": "B3",
                    "ticks": 305280,
                    "time": 159,
                    "velocity": 1
                },
                {
                    "duration": 0.25,
                    "durationTicks": 480,
                    "midi": 36,
                    "name": "C2",
                    "ticks": 305280,
                    "time": 159,
                    "velocity": 1
                },
                {
                    "duration": 0.25,
                    "durationTicks": 480,
                    "midi": 59,
                    "name": "B3",
                    "ticks": 306240,
                    "time": 159.5,
                    "velocity": 1
                },
                {
                    "duration": 0.25,
                    "durationTicks": 480,
                    "midi": 40,
                    "name": "E2",
                    "ticks": 306240,
                    "time": 159.5,
                    "velocity": 1
                },
                {
                    "duration": 0.25,
                    "durationTicks": 480,
                    "midi": 59,
                    "name": "B3",
                    "ticks": 307200,
                    "time": 160,
                    "velocity": 1
                },
                {
                    "duration": 0.25,
                    "durationTicks": 480,
                    "midi": 36,
                    "name": "C2",
                    "ticks": 307200,
                    "time": 160,
                    "velocity": 1
                },
                {
                    "duration": 0.25,
                    "durationTicks": 480,
                    "midi": 59,
                    "name": "B3",
                    "ticks": 308160,
                    "time": 160.5,
                    "velocity": 1
                },
                {
                    "duration": 0.25,
                    "durationTicks": 480,
                    "midi": 40,
                    "name": "E2",
                    "ticks": 308160,
                    "time": 160.5,
                    "velocity": 1
                },
                {
                    "duration": 0.25,
                    "durationTicks": 480,
                    "midi": 36,
                    "name": "C2",
                    "ticks": 308640,
                    "time": 160.75,
                    "velocity": 1
                },
                {
                    "duration": 0.25,
                    "durationTicks": 480,
                    "midi": 59,
                    "name": "B3",
                    "ticks": 309120,
                    "time": 161,
                    "velocity": 1
                },
                {
                    "duration": 0.25,
                    "durationTicks": 480,
                    "midi": 36,
                    "name": "C2",
                    "ticks": 309120,
                    "time": 161,
                    "velocity": 1
                },
                {
                    "duration": 0.25,
                    "durationTicks": 480,
                    "midi": 59,
                    "name": "B3",
                    "ticks": 310080,
                    "time": 161.5,
                    "velocity": 1
                },
                {
                    "duration": 0.25,
                    "durationTicks": 480,
                    "midi": 40,
                    "name": "E2",
                    "ticks": 310080,
                    "time": 161.5,
                    "velocity": 1
                },
                {
                    "duration": 0.25,
                    "durationTicks": 480,
                    "midi": 59,
                    "name": "B3",
                    "ticks": 311040,
                    "time": 162,
                    "velocity": 1
                },
                {
                    "duration": 0.25,
                    "durationTicks": 480,
                    "midi": 36,
                    "name": "C2",
                    "ticks": 311040,
                    "time": 162,
                    "velocity": 1
                },
                {
                    "duration": 0.25,
                    "durationTicks": 480,
                    "midi": 59,
                    "name": "B3",
                    "ticks": 312000,
                    "time": 162.5,
                    "velocity": 1
                },
                {
                    "duration": 0.25,
                    "durationTicks": 480,
                    "midi": 40,
                    "name": "E2",
                    "ticks": 312000,
                    "time": 162.5,
                    "velocity": 1
                },
                {
                    "duration": 0.25,
                    "durationTicks": 480,
                    "midi": 36,
                    "name": "C2",
                    "ticks": 312480,
                    "time": 162.75,
                    "velocity": 1
                },
                {
                    "duration": 0.25,
                    "durationTicks": 480,
                    "midi": 59,
                    "name": "B3",
                    "ticks": 312960,
                    "time": 163,
                    "velocity": 1
                },
                {
                    "duration": 0.25,
                    "durationTicks": 480,
                    "midi": 36,
                    "name": "C2",
                    "ticks": 312960,
                    "time": 163,
                    "velocity": 1
                },
                {
                    "duration": 0.25,
                    "durationTicks": 480,
                    "midi": 59,
                    "name": "B3",
                    "ticks": 313920,
                    "time": 163.5,
                    "velocity": 1
                },
                {
                    "duration": 0.25,
                    "durationTicks": 480,
                    "midi": 40,
                    "name": "E2",
                    "ticks": 313920,
                    "time": 163.5,
                    "velocity": 1
                },
                {
                    "duration": 0.25,
                    "durationTicks": 480,
                    "midi": 59,
                    "name": "B3",
                    "ticks": 314880,
                    "time": 164,
                    "velocity": 1
                },
                {
                    "duration": 0.25,
                    "durationTicks": 480,
                    "midi": 36,
                    "name": "C2",
                    "ticks": 314880,
                    "time": 164,
                    "velocity": 1
                },
                {
                    "duration": 0.25,
                    "durationTicks": 480,
                    "midi": 59,
                    "name": "B3",
                    "ticks": 315840,
                    "time": 164.5,
                    "velocity": 1
                },
                {
                    "duration": 0.25,
                    "durationTicks": 480,
                    "midi": 40,
                    "name": "E2",
                    "ticks": 315840,
                    "time": 164.5,
                    "velocity": 1
                },
                {
                    "duration": 0.25,
                    "durationTicks": 480,
                    "midi": 36,
                    "name": "C2",
                    "ticks": 316320,
                    "time": 164.75,
                    "velocity": 1
                },
                {
                    "duration": 0.25,
                    "durationTicks": 480,
                    "midi": 59,
                    "name": "B3",
                    "ticks": 316800,
                    "time": 165,
                    "velocity": 1
                },
                {
                    "duration": 0.25,
                    "durationTicks": 480,
                    "midi": 36,
                    "name": "C2",
                    "ticks": 316800,
                    "time": 165,
                    "velocity": 1
                },
                {
                    "duration": 0.25,
                    "durationTicks": 480,
                    "midi": 57,
                    "name": "A3",
                    "ticks": 317760,
                    "time": 165.5,
                    "velocity": 1
                },
                {
                    "duration": 0.25,
                    "durationTicks": 480,
                    "midi": 40,
                    "name": "E2",
                    "ticks": 317760,
                    "time": 165.5,
                    "velocity": 1
                },
                {
                    "duration": 0.25,
                    "durationTicks": 480,
                    "midi": 57,
                    "name": "A3",
                    "ticks": 318720,
                    "time": 166,
                    "velocity": 1
                },
                {
                    "duration": 0.25,
                    "durationTicks": 480,
                    "midi": 36,
                    "name": "C2",
                    "ticks": 318720,
                    "time": 166,
                    "velocity": 1
                },
                {
                    "duration": 0.25,
                    "durationTicks": 480,
                    "midi": 59,
                    "name": "B3",
                    "ticks": 319680,
                    "time": 166.5,
                    "velocity": 1
                },
                {
                    "duration": 0.25,
                    "durationTicks": 480,
                    "midi": 40,
                    "name": "E2",
                    "ticks": 319680,
                    "time": 166.5,
                    "velocity": 1
                },
                {
                    "duration": 0.25,
                    "durationTicks": 480,
                    "midi": 36,
                    "name": "C2",
                    "ticks": 320160,
                    "time": 166.75,
                    "velocity": 1
                },
                {
                    "duration": 0.25,
                    "durationTicks": 480,
                    "midi": 59,
                    "name": "B3",
                    "ticks": 320640,
                    "time": 167,
                    "velocity": 1
                },
                {
                    "duration": 0.25,
                    "durationTicks": 480,
                    "midi": 36,
                    "name": "C2",
                    "ticks": 320640,
                    "time": 167,
                    "velocity": 1
                },
                {
                    "duration": 0.25,
                    "durationTicks": 480,
                    "midi": 59,
                    "name": "B3",
                    "ticks": 321600,
                    "time": 167.5,
                    "velocity": 1
                },
                {
                    "duration": 0.25,
                    "durationTicks": 480,
                    "midi": 40,
                    "name": "E2",
                    "ticks": 321600,
                    "time": 167.5,
                    "velocity": 1
                },
                {
                    "duration": 0.25,
                    "durationTicks": 480,
                    "midi": 59,
                    "name": "B3",
                    "ticks": 322560,
                    "time": 168,
                    "velocity": 1
                },
                {
                    "duration": 0.25,
                    "durationTicks": 480,
                    "midi": 36,
                    "name": "C2",
                    "ticks": 322560,
                    "time": 168,
                    "velocity": 1
                },
                {
                    "duration": 0.25,
                    "durationTicks": 480,
                    "midi": 59,
                    "name": "B3",
                    "ticks": 323520,
                    "time": 168.5,
                    "velocity": 1
                },
                {
                    "duration": 0.25,
                    "durationTicks": 480,
                    "midi": 40,
                    "name": "E2",
                    "ticks": 323520,
                    "time": 168.5,
                    "velocity": 1
                },
                {
                    "duration": 0.25,
                    "durationTicks": 480,
                    "midi": 36,
                    "name": "C2",
                    "ticks": 324000,
                    "time": 168.75,
                    "velocity": 1
                },
                {
                    "duration": 0.25,
                    "durationTicks": 480,
                    "midi": 59,
                    "name": "B3",
                    "ticks": 324480,
                    "time": 169,
                    "velocity": 1
                },
                {
                    "duration": 0.25,
                    "durationTicks": 480,
                    "midi": 36,
                    "name": "C2",
                    "ticks": 324480,
                    "time": 169,
                    "velocity": 1
                },
                {
                    "duration": 0.25,
                    "durationTicks": 480,
                    "midi": 59,
                    "name": "B3",
                    "ticks": 325440,
                    "time": 169.5,
                    "velocity": 1
                },
                {
                    "duration": 0.25,
                    "durationTicks": 480,
                    "midi": 40,
                    "name": "E2",
                    "ticks": 325440,
                    "time": 169.5,
                    "velocity": 1
                },
                {
                    "duration": 0.25,
                    "durationTicks": 480,
                    "midi": 59,
                    "name": "B3",
                    "ticks": 326400,
                    "time": 170,
                    "velocity": 1
                },
                {
                    "duration": 0.25,
                    "durationTicks": 480,
                    "midi": 36,
                    "name": "C2",
                    "ticks": 326400,
                    "time": 170,
                    "velocity": 1
                },
                {
                    "duration": 0.25,
                    "durationTicks": 480,
                    "midi": 59,
                    "name": "B3",
                    "ticks": 327360,
                    "time": 170.5,
                    "velocity": 1
                },
                {
                    "duration": 0.25,
                    "durationTicks": 480,
                    "midi": 40,
                    "name": "E2",
                    "ticks": 327360,
                    "time": 170.5,
                    "velocity": 1
                },
                {
                    "duration": 0.25,
                    "durationTicks": 480,
                    "midi": 36,
                    "name": "C2",
                    "ticks": 327840,
                    "time": 170.75,
                    "velocity": 1
                },
                {
                    "duration": 0.25,
                    "durationTicks": 480,
                    "midi": 59,
                    "name": "B3",
                    "ticks": 328320,
                    "time": 171,
                    "velocity": 1
                },
                {
                    "duration": 0.25,
                    "durationTicks": 480,
                    "midi": 36,
                    "name": "C2",
                    "ticks": 328320,
                    "time": 171,
                    "velocity": 1
                },
                {
                    "duration": 0.25,
                    "durationTicks": 480,
                    "midi": 59,
                    "name": "B3",
                    "ticks": 329280,
                    "time": 171.5,
                    "velocity": 1
                },
                {
                    "duration": 0.25,
                    "durationTicks": 480,
                    "midi": 40,
                    "name": "E2",
                    "ticks": 329280,
                    "time": 171.5,
                    "velocity": 1
                },
                {
                    "duration": 0.25,
                    "durationTicks": 480,
                    "midi": 59,
                    "name": "B3",
                    "ticks": 330240,
                    "time": 172,
                    "velocity": 1
                },
                {
                    "duration": 0.25,
                    "durationTicks": 480,
                    "midi": 36,
                    "name": "C2",
                    "ticks": 330240,
                    "time": 172,
                    "velocity": 1
                },
                {
                    "duration": 0.25,
                    "durationTicks": 480,
                    "midi": 59,
                    "name": "B3",
                    "ticks": 331200,
                    "time": 172.5,
                    "velocity": 1
                },
                {
                    "duration": 0.25,
                    "durationTicks": 480,
                    "midi": 40,
                    "name": "E2",
                    "ticks": 331200,
                    "time": 172.5,
                    "velocity": 1
                },
                {
                    "duration": 0.25,
                    "durationTicks": 480,
                    "midi": 36,
                    "name": "C2",
                    "ticks": 331680,
                    "time": 172.75,
                    "velocity": 1
                },
                {
                    "duration": 0.25,
                    "durationTicks": 480,
                    "midi": 59,
                    "name": "B3",
                    "ticks": 332160,
                    "time": 173,
                    "velocity": 1
                },
                {
                    "duration": 0.25,
                    "durationTicks": 480,
                    "midi": 36,
                    "name": "C2",
                    "ticks": 332160,
                    "time": 173,
                    "velocity": 1
                }
            ],
            "endOfTrackTicks": 332640
        },
        {
            "channel": 9,
            "controlChanges": {
                "7": [
                    {
                        "number": 7,
                        "ticks": 0,
                        "time": 0,
                        "value": 0.8031496062992126
                    }
                ],
                "10": [
                    {
                        "number": 10,
                        "ticks": 0,
                        "time": 0,
                        "value": 0.5039370078740157
                    }
                ]
            },
            "pitchBends": [],
            "instrument": {
                "family": "drums",
                "number": 0,
                "name": "standard kit"
            },
            "name": "Drums 2",
            "notes": [
                {
                    "duration": 0.25,
                    "durationTicks": 480,
                    "midi": 69,
                    "name": "A4",
                    "ticks": 34560,
                    "time": 18,
                    "velocity": 1
                },
                {
                    "duration": 0.25,
                    "durationTicks": 480,
                    "midi": 70,
                    "name": "A#4",
                    "ticks": 34560,
                    "time": 18,
                    "velocity": 1
                },
                {
                    "duration": 0.25,
                    "durationTicks": 480,
                    "midi": 69,
                    "name": "A4",
                    "ticks": 35040,
                    "time": 18.25,
                    "velocity": 1
                },
                {
                    "duration": 0.25,
                    "durationTicks": 480,
                    "midi": 69,
                    "name": "A4",
                    "ticks": 35520,
                    "time": 18.5,
                    "velocity": 1
                },
                {
                    "duration": 0.25,
                    "durationTicks": 480,
                    "midi": 69,
                    "name": "A4",
                    "ticks": 36000,
                    "time": 18.75,
                    "velocity": 1
                },
                {
                    "duration": 0.0625,
                    "durationTicks": 120,
                    "midi": 69,
                    "name": "A4",
                    "ticks": 36480,
                    "time": 19,
                    "velocity": 1
                },
                {
                    "duration": 0.25,
                    "durationTicks": 480,
                    "midi": 70,
                    "name": "A#4",
                    "ticks": 36480,
                    "time": 19,
                    "velocity": 1
                },
                {
                    "duration": 0.0625,
                    "durationTicks": 120,
                    "midi": 69,
                    "name": "A4",
                    "ticks": 36600,
                    "time": 19.0625,
                    "velocity": 1
                },
                {
                    "duration": 0.0625,
                    "durationTicks": 120,
                    "midi": 69,
                    "name": "A4",
                    "ticks": 36720,
                    "time": 19.125,
                    "velocity": 1
                },
                {
                    "duration": 0.25,
                    "durationTicks": 480,
                    "midi": 69,
                    "name": "A4",
                    "ticks": 36960,
                    "time": 19.25,
                    "velocity": 1
                },
                {
                    "duration": 0.25,
                    "durationTicks": 480,
                    "midi": 69,
                    "name": "A4",
                    "ticks": 37440,
                    "time": 19.5,
                    "velocity": 1
                },
                {
                    "duration": 0.25,
                    "durationTicks": 480,
                    "midi": 69,
                    "name": "A4",
                    "ticks": 37920,
                    "time": 19.75,
                    "velocity": 1
                },
                {
                    "duration": 0.25,
                    "durationTicks": 480,
                    "midi": 69,
                    "name": "A4",
                    "ticks": 38400,
                    "time": 20,
                    "velocity": 1
                },
                {
                    "duration": 0.25,
                    "durationTicks": 480,
                    "midi": 70,
                    "name": "A#4",
                    "ticks": 38400,
                    "time": 20,
                    "velocity": 1
                },
                {
                    "duration": 0.25,
                    "durationTicks": 480,
                    "midi": 69,
                    "name": "A4",
                    "ticks": 38880,
                    "time": 20.25,
                    "velocity": 1
                },
                {
                    "duration": 0.25,
                    "durationTicks": 480,
                    "midi": 69,
                    "name": "A4",
                    "ticks": 39360,
                    "time": 20.5,
                    "velocity": 1
                },
                {
                    "duration": 0.25,
                    "durationTicks": 480,
                    "midi": 69,
                    "name": "A4",
                    "ticks": 39840,
                    "time": 20.75,
                    "velocity": 1
                },
                {
                    "duration": 0.0625,
                    "durationTicks": 120,
                    "midi": 69,
                    "name": "A4",
                    "ticks": 40320,
                    "time": 21,
                    "velocity": 1
                },
                {
                    "duration": 0.25,
                    "durationTicks": 480,
                    "midi": 70,
                    "name": "A#4",
                    "ticks": 40320,
                    "time": 21,
                    "velocity": 1
                },
                {
                    "duration": 0.0625,
                    "durationTicks": 120,
                    "midi": 69,
                    "name": "A4",
                    "ticks": 40440,
                    "time": 21.0625,
                    "velocity": 1
                },
                {
                    "duration": 0.0625,
                    "durationTicks": 120,
                    "midi": 69,
                    "name": "A4",
                    "ticks": 40560,
                    "time": 21.125,
                    "velocity": 1
                },
                {
                    "duration": 0.25,
                    "durationTicks": 480,
                    "midi": 69,
                    "name": "A4",
                    "ticks": 40800,
                    "time": 21.25,
                    "velocity": 1
                },
                {
                    "duration": 0.25,
                    "durationTicks": 480,
                    "midi": 69,
                    "name": "A4",
                    "ticks": 41280,
                    "time": 21.5,
                    "velocity": 1
                },
                {
                    "duration": 0.25,
                    "durationTicks": 480,
                    "midi": 69,
                    "name": "A4",
                    "ticks": 41760,
                    "time": 21.75,
                    "velocity": 1
                },
                {
                    "duration": 0.25,
                    "durationTicks": 480,
                    "midi": 69,
                    "name": "A4",
                    "ticks": 42240,
                    "time": 22,
                    "velocity": 1
                },
                {
                    "duration": 0.25,
                    "durationTicks": 480,
                    "midi": 70,
                    "name": "A#4",
                    "ticks": 42240,
                    "time": 22,
                    "velocity": 1
                },
                {
                    "duration": 0.25,
                    "durationTicks": 480,
                    "midi": 69,
                    "name": "A4",
                    "ticks": 42720,
                    "time": 22.25,
                    "velocity": 1
                },
                {
                    "duration": 0.25,
                    "durationTicks": 480,
                    "midi": 69,
                    "name": "A4",
                    "ticks": 43200,
                    "time": 22.5,
                    "velocity": 1
                },
                {
                    "duration": 0.25,
                    "durationTicks": 480,
                    "midi": 69,
                    "name": "A4",
                    "ticks": 43680,
                    "time": 22.75,
                    "velocity": 1
                },
                {
                    "duration": 0.0625,
                    "durationTicks": 120,
                    "midi": 69,
                    "name": "A4",
                    "ticks": 44160,
                    "time": 23,
                    "velocity": 1
                },
                {
                    "duration": 0.25,
                    "durationTicks": 480,
                    "midi": 70,
                    "name": "A#4",
                    "ticks": 44160,
                    "time": 23,
                    "velocity": 1
                },
                {
                    "duration": 0.0625,
                    "durationTicks": 120,
                    "midi": 69,
                    "name": "A4",
                    "ticks": 44280,
                    "time": 23.0625,
                    "velocity": 1
                },
                {
                    "duration": 0.0625,
                    "durationTicks": 120,
                    "midi": 69,
                    "name": "A4",
                    "ticks": 44400,
                    "time": 23.125,
                    "velocity": 1
                },
                {
                    "duration": 0.25,
                    "durationTicks": 480,
                    "midi": 69,
                    "name": "A4",
                    "ticks": 44640,
                    "time": 23.25,
                    "velocity": 1
                },
                {
                    "duration": 0.25,
                    "durationTicks": 480,
                    "midi": 69,
                    "name": "A4",
                    "ticks": 45120,
                    "time": 23.5,
                    "velocity": 1
                },
                {
                    "duration": 0.25,
                    "durationTicks": 480,
                    "midi": 69,
                    "name": "A4",
                    "ticks": 45600,
                    "time": 23.75,
                    "velocity": 1
                },
                {
                    "duration": 0.25,
                    "durationTicks": 480,
                    "midi": 69,
                    "name": "A4",
                    "ticks": 46080,
                    "time": 24,
                    "velocity": 1
                },
                {
                    "duration": 0.25,
                    "durationTicks": 480,
                    "midi": 70,
                    "name": "A#4",
                    "ticks": 46080,
                    "time": 24,
                    "velocity": 1
                },
                {
                    "duration": 0.25,
                    "durationTicks": 480,
                    "midi": 69,
                    "name": "A4",
                    "ticks": 46560,
                    "time": 24.25,
                    "velocity": 1
                },
                {
                    "duration": 0.25,
                    "durationTicks": 480,
                    "midi": 69,
                    "name": "A4",
                    "ticks": 47040,
                    "time": 24.5,
                    "velocity": 1
                },
                {
                    "duration": 0.25,
                    "durationTicks": 480,
                    "midi": 69,
                    "name": "A4",
                    "ticks": 47520,
                    "time": 24.75,
                    "velocity": 1
                },
                {
                    "duration": 0.0625,
                    "durationTicks": 120,
                    "midi": 69,
                    "name": "A4",
                    "ticks": 48000,
                    "time": 25,
                    "velocity": 1
                },
                {
                    "duration": 0.25,
                    "durationTicks": 480,
                    "midi": 70,
                    "name": "A#4",
                    "ticks": 48000,
                    "time": 25,
                    "velocity": 1
                },
                {
                    "duration": 0.0625,
                    "durationTicks": 120,
                    "midi": 69,
                    "name": "A4",
                    "ticks": 48120,
                    "time": 25.0625,
                    "velocity": 1
                },
                {
                    "duration": 0.0625,
                    "durationTicks": 120,
                    "midi": 69,
                    "name": "A4",
                    "ticks": 48240,
                    "time": 25.125,
                    "velocity": 1
                },
                {
                    "duration": 0.25,
                    "durationTicks": 480,
                    "midi": 69,
                    "name": "A4",
                    "ticks": 48480,
                    "time": 25.25,
                    "velocity": 1
                },
                {
                    "duration": 0.25,
                    "durationTicks": 480,
                    "midi": 69,
                    "name": "A4",
                    "ticks": 48960,
                    "time": 25.5,
                    "velocity": 1
                },
                {
                    "duration": 0.25,
                    "durationTicks": 480,
                    "midi": 69,
                    "name": "A4",
                    "ticks": 49440,
                    "time": 25.75,
                    "velocity": 1
                },
                {
                    "duration": 0.25,
                    "durationTicks": 480,
                    "midi": 69,
                    "name": "A4",
                    "ticks": 49920,
                    "time": 26,
                    "velocity": 1
                },
                {
                    "duration": 0.25,
                    "durationTicks": 480,
                    "midi": 70,
                    "name": "A#4",
                    "ticks": 49920,
                    "time": 26,
                    "velocity": 1
                },
                {
                    "duration": 0.25,
                    "durationTicks": 480,
                    "midi": 69,
                    "name": "A4",
                    "ticks": 50400,
                    "time": 26.25,
                    "velocity": 1
                },
                {
                    "duration": 0.25,
                    "durationTicks": 480,
                    "midi": 69,
                    "name": "A4",
                    "ticks": 50880,
                    "time": 26.5,
                    "velocity": 1
                },
                {
                    "duration": 0.25,
                    "durationTicks": 480,
                    "midi": 69,
                    "name": "A4",
                    "ticks": 51360,
                    "time": 26.75,
                    "velocity": 1
                },
                {
                    "duration": 0.0625,
                    "durationTicks": 120,
                    "midi": 69,
                    "name": "A4",
                    "ticks": 51840,
                    "time": 27,
                    "velocity": 1
                },
                {
                    "duration": 0.25,
                    "durationTicks": 480,
                    "midi": 70,
                    "name": "A#4",
                    "ticks": 51840,
                    "time": 27,
                    "velocity": 1
                },
                {
                    "duration": 0.0625,
                    "durationTicks": 120,
                    "midi": 69,
                    "name": "A4",
                    "ticks": 51960,
                    "time": 27.0625,
                    "velocity": 1
                },
                {
                    "duration": 0.0625,
                    "durationTicks": 120,
                    "midi": 69,
                    "name": "A4",
                    "ticks": 52080,
                    "time": 27.125,
                    "velocity": 1
                },
                {
                    "duration": 0.25,
                    "durationTicks": 480,
                    "midi": 69,
                    "name": "A4",
                    "ticks": 52320,
                    "time": 27.25,
                    "velocity": 1
                },
                {
                    "duration": 0.25,
                    "durationTicks": 480,
                    "midi": 69,
                    "name": "A4",
                    "ticks": 52800,
                    "time": 27.5,
                    "velocity": 1
                },
                {
                    "duration": 0.25,
                    "durationTicks": 480,
                    "midi": 69,
                    "name": "A4",
                    "ticks": 53280,
                    "time": 27.75,
                    "velocity": 1
                },
                {
                    "duration": 0.25,
                    "durationTicks": 480,
                    "midi": 69,
                    "name": "A4",
                    "ticks": 53760,
                    "time": 28,
                    "velocity": 1
                },
                {
                    "duration": 0.25,
                    "durationTicks": 480,
                    "midi": 70,
                    "name": "A#4",
                    "ticks": 53760,
                    "time": 28,
                    "velocity": 1
                },
                {
                    "duration": 0.25,
                    "durationTicks": 480,
                    "midi": 69,
                    "name": "A4",
                    "ticks": 54240,
                    "time": 28.25,
                    "velocity": 1
                },
                {
                    "duration": 0.25,
                    "durationTicks": 480,
                    "midi": 69,
                    "name": "A4",
                    "ticks": 54720,
                    "time": 28.5,
                    "velocity": 1
                },
                {
                    "duration": 0.25,
                    "durationTicks": 480,
                    "midi": 69,
                    "name": "A4",
                    "ticks": 55200,
                    "time": 28.75,
                    "velocity": 1
                },
                {
                    "duration": 0.0625,
                    "durationTicks": 120,
                    "midi": 69,
                    "name": "A4",
                    "ticks": 55680,
                    "time": 29,
                    "velocity": 1
                },
                {
                    "duration": 0.25,
                    "durationTicks": 480,
                    "midi": 70,
                    "name": "A#4",
                    "ticks": 55680,
                    "time": 29,
                    "velocity": 1
                },
                {
                    "duration": 0.0625,
                    "durationTicks": 120,
                    "midi": 69,
                    "name": "A4",
                    "ticks": 55800,
                    "time": 29.0625,
                    "velocity": 1
                },
                {
                    "duration": 0.0625,
                    "durationTicks": 120,
                    "midi": 69,
                    "name": "A4",
                    "ticks": 55920,
                    "time": 29.125,
                    "velocity": 1
                },
                {
                    "duration": 0.25,
                    "durationTicks": 480,
                    "midi": 69,
                    "name": "A4",
                    "ticks": 56160,
                    "time": 29.25,
                    "velocity": 1
                },
                {
                    "duration": 0.25,
                    "durationTicks": 480,
                    "midi": 69,
                    "name": "A4",
                    "ticks": 56640,
                    "time": 29.5,
                    "velocity": 1
                },
                {
                    "duration": 0.25,
                    "durationTicks": 480,
                    "midi": 69,
                    "name": "A4",
                    "ticks": 57120,
                    "time": 29.75,
                    "velocity": 1
                },
                {
                    "duration": 0.25,
                    "durationTicks": 480,
                    "midi": 69,
                    "name": "A4",
                    "ticks": 57600,
                    "time": 30,
                    "velocity": 1
                },
                {
                    "duration": 0.25,
                    "durationTicks": 480,
                    "midi": 70,
                    "name": "A#4",
                    "ticks": 57600,
                    "time": 30,
                    "velocity": 1
                },
                {
                    "duration": 0.25,
                    "durationTicks": 480,
                    "midi": 69,
                    "name": "A4",
                    "ticks": 58080,
                    "time": 30.25,
                    "velocity": 1
                },
                {
                    "duration": 0.25,
                    "durationTicks": 480,
                    "midi": 69,
                    "name": "A4",
                    "ticks": 58560,
                    "time": 30.5,
                    "velocity": 1
                },
                {
                    "duration": 0.25,
                    "durationTicks": 480,
                    "midi": 69,
                    "name": "A4",
                    "ticks": 59040,
                    "time": 30.75,
                    "velocity": 1
                },
                {
                    "duration": 0.25,
                    "durationTicks": 480,
                    "midi": 69,
                    "name": "A4",
                    "ticks": 61440,
                    "time": 32,
                    "velocity": 1
                },
                {
                    "duration": 0.25,
                    "durationTicks": 480,
                    "midi": 70,
                    "name": "A#4",
                    "ticks": 61440,
                    "time": 32,
                    "velocity": 1
                },
                {
                    "duration": 0.25,
                    "durationTicks": 480,
                    "midi": 69,
                    "name": "A4",
                    "ticks": 61920,
                    "time": 32.25,
                    "velocity": 1
                },
                {
                    "duration": 0.25,
                    "durationTicks": 480,
                    "midi": 54,
                    "name": "F#3",
                    "ticks": 62400,
                    "time": 32.5,
                    "velocity": 1
                },
                {
                    "duration": 0.25,
                    "durationTicks": 480,
                    "midi": 69,
                    "name": "A4",
                    "ticks": 62400,
                    "time": 32.5,
                    "velocity": 1
                },
                {
                    "duration": 0.25,
                    "durationTicks": 480,
                    "midi": 69,
                    "name": "A4",
                    "ticks": 62880,
                    "time": 32.75,
                    "velocity": 1
                },
                {
                    "duration": 0.0625,
                    "durationTicks": 120,
                    "midi": 69,
                    "name": "A4",
                    "ticks": 63360,
                    "time": 33,
                    "velocity": 1
                },
                {
                    "duration": 0.25,
                    "durationTicks": 480,
                    "midi": 70,
                    "name": "A#4",
                    "ticks": 63360,
                    "time": 33,
                    "velocity": 1
                },
                {
                    "duration": 0.0625,
                    "durationTicks": 120,
                    "midi": 69,
                    "name": "A4",
                    "ticks": 63480,
                    "time": 33.0625,
                    "velocity": 1
                },
                {
                    "duration": 0.0625,
                    "durationTicks": 120,
                    "midi": 69,
                    "name": "A4",
                    "ticks": 63600,
                    "time": 33.125,
                    "velocity": 1
                },
                {
                    "duration": 0.25,
                    "durationTicks": 480,
                    "midi": 69,
                    "name": "A4",
                    "ticks": 63840,
                    "time": 33.25,
                    "velocity": 1
                },
                {
                    "duration": 0.25,
                    "durationTicks": 480,
                    "midi": 54,
                    "name": "F#3",
                    "ticks": 64320,
                    "time": 33.5,
                    "velocity": 1
                },
                {
                    "duration": 0.25,
                    "durationTicks": 480,
                    "midi": 69,
                    "name": "A4",
                    "ticks": 64320,
                    "time": 33.5,
                    "velocity": 1
                },
                {
                    "duration": 0.25,
                    "durationTicks": 480,
                    "midi": 69,
                    "name": "A4",
                    "ticks": 64800,
                    "time": 33.75,
                    "velocity": 1
                },
                {
                    "duration": 0.25,
                    "durationTicks": 480,
                    "midi": 69,
                    "name": "A4",
                    "ticks": 65280,
                    "time": 34,
                    "velocity": 1
                },
                {
                    "duration": 0.25,
                    "durationTicks": 480,
                    "midi": 70,
                    "name": "A#4",
                    "ticks": 65280,
                    "time": 34,
                    "velocity": 1
                },
                {
                    "duration": 0.25,
                    "durationTicks": 480,
                    "midi": 69,
                    "name": "A4",
                    "ticks": 65760,
                    "time": 34.25,
                    "velocity": 1
                },
                {
                    "duration": 0.25,
                    "durationTicks": 480,
                    "midi": 54,
                    "name": "F#3",
                    "ticks": 66240,
                    "time": 34.5,
                    "velocity": 1
                },
                {
                    "duration": 0.25,
                    "durationTicks": 480,
                    "midi": 69,
                    "name": "A4",
                    "ticks": 66240,
                    "time": 34.5,
                    "velocity": 1
                },
                {
                    "duration": 0.25,
                    "durationTicks": 480,
                    "midi": 69,
                    "name": "A4",
                    "ticks": 66720,
                    "time": 34.75,
                    "velocity": 1
                },
                {
                    "duration": 0.0625,
                    "durationTicks": 120,
                    "midi": 69,
                    "name": "A4",
                    "ticks": 67200,
                    "time": 35,
                    "velocity": 1
                },
                {
                    "duration": 0.25,
                    "durationTicks": 480,
                    "midi": 70,
                    "name": "A#4",
                    "ticks": 67200,
                    "time": 35,
                    "velocity": 1
                },
                {
                    "duration": 0.0625,
                    "durationTicks": 120,
                    "midi": 69,
                    "name": "A4",
                    "ticks": 67320,
                    "time": 35.0625,
                    "velocity": 1
                },
                {
                    "duration": 0.0625,
                    "durationTicks": 120,
                    "midi": 69,
                    "name": "A4",
                    "ticks": 67440,
                    "time": 35.125,
                    "velocity": 1
                },
                {
                    "duration": 0.25,
                    "durationTicks": 480,
                    "midi": 69,
                    "name": "A4",
                    "ticks": 67680,
                    "time": 35.25,
                    "velocity": 1
                },
                {
                    "duration": 0.25,
                    "durationTicks": 480,
                    "midi": 54,
                    "name": "F#3",
                    "ticks": 68160,
                    "time": 35.5,
                    "velocity": 1
                },
                {
                    "duration": 0.25,
                    "durationTicks": 480,
                    "midi": 69,
                    "name": "A4",
                    "ticks": 68160,
                    "time": 35.5,
                    "velocity": 1
                },
                {
                    "duration": 0.25,
                    "durationTicks": 480,
                    "midi": 69,
                    "name": "A4",
                    "ticks": 68640,
                    "time": 35.75,
                    "velocity": 1
                },
                {
                    "duration": 0.25,
                    "durationTicks": 480,
                    "midi": 69,
                    "name": "A4",
                    "ticks": 69120,
                    "time": 36,
                    "velocity": 1
                },
                {
                    "duration": 0.25,
                    "durationTicks": 480,
                    "midi": 70,
                    "name": "A#4",
                    "ticks": 69120,
                    "time": 36,
                    "velocity": 1
                },
                {
                    "duration": 0.25,
                    "durationTicks": 480,
                    "midi": 69,
                    "name": "A4",
                    "ticks": 69600,
                    "time": 36.25,
                    "velocity": 1
                },
                {
                    "duration": 0.25,
                    "durationTicks": 480,
                    "midi": 54,
                    "name": "F#3",
                    "ticks": 70080,
                    "time": 36.5,
                    "velocity": 1
                },
                {
                    "duration": 0.25,
                    "durationTicks": 480,
                    "midi": 69,
                    "name": "A4",
                    "ticks": 70080,
                    "time": 36.5,
                    "velocity": 1
                },
                {
                    "duration": 0.25,
                    "durationTicks": 480,
                    "midi": 69,
                    "name": "A4",
                    "ticks": 70560,
                    "time": 36.75,
                    "velocity": 1
                },
                {
                    "duration": 0.0625,
                    "durationTicks": 120,
                    "midi": 69,
                    "name": "A4",
                    "ticks": 71040,
                    "time": 37,
                    "velocity": 1
                },
                {
                    "duration": 0.25,
                    "durationTicks": 480,
                    "midi": 70,
                    "name": "A#4",
                    "ticks": 71040,
                    "time": 37,
                    "velocity": 1
                },
                {
                    "duration": 0.0625,
                    "durationTicks": 120,
                    "midi": 69,
                    "name": "A4",
                    "ticks": 71160,
                    "time": 37.0625,
                    "velocity": 1
                },
                {
                    "duration": 0.0625,
                    "durationTicks": 120,
                    "midi": 69,
                    "name": "A4",
                    "ticks": 71280,
                    "time": 37.125,
                    "velocity": 1
                },
                {
                    "duration": 0.25,
                    "durationTicks": 480,
                    "midi": 69,
                    "name": "A4",
                    "ticks": 71520,
                    "time": 37.25,
                    "velocity": 1
                },
                {
                    "duration": 0.25,
                    "durationTicks": 480,
                    "midi": 54,
                    "name": "F#3",
                    "ticks": 72000,
                    "time": 37.5,
                    "velocity": 1
                },
                {
                    "duration": 0.25,
                    "durationTicks": 480,
                    "midi": 69,
                    "name": "A4",
                    "ticks": 72000,
                    "time": 37.5,
                    "velocity": 1
                },
                {
                    "duration": 0.25,
                    "durationTicks": 480,
                    "midi": 69,
                    "name": "A4",
                    "ticks": 72480,
                    "time": 37.75,
                    "velocity": 1
                },
                {
                    "duration": 0.25,
                    "durationTicks": 480,
                    "midi": 69,
                    "name": "A4",
                    "ticks": 72960,
                    "time": 38,
                    "velocity": 1
                },
                {
                    "duration": 0.25,
                    "durationTicks": 480,
                    "midi": 70,
                    "name": "A#4",
                    "ticks": 72960,
                    "time": 38,
                    "velocity": 1
                },
                {
                    "duration": 0.25,
                    "durationTicks": 480,
                    "midi": 69,
                    "name": "A4",
                    "ticks": 73440,
                    "time": 38.25,
                    "velocity": 1
                },
                {
                    "duration": 0.25,
                    "durationTicks": 480,
                    "midi": 54,
                    "name": "F#3",
                    "ticks": 73920,
                    "time": 38.5,
                    "velocity": 1
                },
                {
                    "duration": 0.25,
                    "durationTicks": 480,
                    "midi": 69,
                    "name": "A4",
                    "ticks": 73920,
                    "time": 38.5,
                    "velocity": 1
                },
                {
                    "duration": 0.25,
                    "durationTicks": 480,
                    "midi": 69,
                    "name": "A4",
                    "ticks": 74400,
                    "time": 38.75,
                    "velocity": 1
                },
                {
                    "duration": 0.0625,
                    "durationTicks": 120,
                    "midi": 69,
                    "name": "A4",
                    "ticks": 74880,
                    "time": 39,
                    "velocity": 1
                },
                {
                    "duration": 0.25,
                    "durationTicks": 480,
                    "midi": 70,
                    "name": "A#4",
                    "ticks": 74880,
                    "time": 39,
                    "velocity": 1
                },
                {
                    "duration": 0.0625,
                    "durationTicks": 120,
                    "midi": 69,
                    "name": "A4",
                    "ticks": 75000,
                    "time": 39.0625,
                    "velocity": 1
                },
                {
                    "duration": 0.0625,
                    "durationTicks": 120,
                    "midi": 69,
                    "name": "A4",
                    "ticks": 75120,
                    "time": 39.125,
                    "velocity": 1
                },
                {
                    "duration": 0.25,
                    "durationTicks": 480,
                    "midi": 69,
                    "name": "A4",
                    "ticks": 75360,
                    "time": 39.25,
                    "velocity": 1
                },
                {
                    "duration": 0.25,
                    "durationTicks": 480,
                    "midi": 54,
                    "name": "F#3",
                    "ticks": 75840,
                    "time": 39.5,
                    "velocity": 1
                },
                {
                    "duration": 0.25,
                    "durationTicks": 480,
                    "midi": 69,
                    "name": "A4",
                    "ticks": 75840,
                    "time": 39.5,
                    "velocity": 1
                },
                {
                    "duration": 0.25,
                    "durationTicks": 480,
                    "midi": 69,
                    "name": "A4",
                    "ticks": 76320,
                    "time": 39.75,
                    "velocity": 1
                },
                {
                    "duration": 0.25,
                    "durationTicks": 480,
                    "midi": 69,
                    "name": "A4",
                    "ticks": 76800,
                    "time": 40,
                    "velocity": 1
                },
                {
                    "duration": 0.25,
                    "durationTicks": 480,
                    "midi": 70,
                    "name": "A#4",
                    "ticks": 76800,
                    "time": 40,
                    "velocity": 1
                },
                {
                    "duration": 0.25,
                    "durationTicks": 480,
                    "midi": 69,
                    "name": "A4",
                    "ticks": 77280,
                    "time": 40.25,
                    "velocity": 1
                },
                {
                    "duration": 0.25,
                    "durationTicks": 480,
                    "midi": 54,
                    "name": "F#3",
                    "ticks": 77760,
                    "time": 40.5,
                    "velocity": 1
                },
                {
                    "duration": 0.25,
                    "durationTicks": 480,
                    "midi": 69,
                    "name": "A4",
                    "ticks": 77760,
                    "time": 40.5,
                    "velocity": 1
                },
                {
                    "duration": 0.25,
                    "durationTicks": 480,
                    "midi": 69,
                    "name": "A4",
                    "ticks": 78240,
                    "time": 40.75,
                    "velocity": 1
                },
                {
                    "duration": 0.0625,
                    "durationTicks": 120,
                    "midi": 69,
                    "name": "A4",
                    "ticks": 78720,
                    "time": 41,
                    "velocity": 1
                },
                {
                    "duration": 0.25,
                    "durationTicks": 480,
                    "midi": 70,
                    "name": "A#4",
                    "ticks": 78720,
                    "time": 41,
                    "velocity": 1
                },
                {
                    "duration": 0.0625,
                    "durationTicks": 120,
                    "midi": 69,
                    "name": "A4",
                    "ticks": 78840,
                    "time": 41.0625,
                    "velocity": 1
                },
                {
                    "duration": 0.0625,
                    "durationTicks": 120,
                    "midi": 69,
                    "name": "A4",
                    "ticks": 78960,
                    "time": 41.125,
                    "velocity": 1
                },
                {
                    "duration": 0.25,
                    "durationTicks": 480,
                    "midi": 69,
                    "name": "A4",
                    "ticks": 79200,
                    "time": 41.25,
                    "velocity": 1
                },
                {
                    "duration": 0.25,
                    "durationTicks": 480,
                    "midi": 54,
                    "name": "F#3",
                    "ticks": 79680,
                    "time": 41.5,
                    "velocity": 1
                },
                {
                    "duration": 0.25,
                    "durationTicks": 480,
                    "midi": 69,
                    "name": "A4",
                    "ticks": 79680,
                    "time": 41.5,
                    "velocity": 1
                },
                {
                    "duration": 0.25,
                    "durationTicks": 480,
                    "midi": 69,
                    "name": "A4",
                    "ticks": 80160,
                    "time": 41.75,
                    "velocity": 1
                },
                {
                    "duration": 0.25,
                    "durationTicks": 480,
                    "midi": 69,
                    "name": "A4",
                    "ticks": 80640,
                    "time": 42,
                    "velocity": 1
                },
                {
                    "duration": 0.25,
                    "durationTicks": 480,
                    "midi": 70,
                    "name": "A#4",
                    "ticks": 80640,
                    "time": 42,
                    "velocity": 1
                },
                {
                    "duration": 0.25,
                    "durationTicks": 480,
                    "midi": 69,
                    "name": "A4",
                    "ticks": 81120,
                    "time": 42.25,
                    "velocity": 1
                },
                {
                    "duration": 0.25,
                    "durationTicks": 480,
                    "midi": 54,
                    "name": "F#3",
                    "ticks": 81600,
                    "time": 42.5,
                    "velocity": 1
                },
                {
                    "duration": 0.25,
                    "durationTicks": 480,
                    "midi": 69,
                    "name": "A4",
                    "ticks": 81600,
                    "time": 42.5,
                    "velocity": 1
                },
                {
                    "duration": 0.25,
                    "durationTicks": 480,
                    "midi": 69,
                    "name": "A4",
                    "ticks": 82080,
                    "time": 42.75,
                    "velocity": 1
                },
                {
                    "duration": 0.0625,
                    "durationTicks": 120,
                    "midi": 69,
                    "name": "A4",
                    "ticks": 82560,
                    "time": 43,
                    "velocity": 1
                },
                {
                    "duration": 0.25,
                    "durationTicks": 480,
                    "midi": 70,
                    "name": "A#4",
                    "ticks": 82560,
                    "time": 43,
                    "velocity": 1
                },
                {
                    "duration": 0.0625,
                    "durationTicks": 120,
                    "midi": 69,
                    "name": "A4",
                    "ticks": 82680,
                    "time": 43.0625,
                    "velocity": 1
                },
                {
                    "duration": 0.0625,
                    "durationTicks": 120,
                    "midi": 69,
                    "name": "A4",
                    "ticks": 82800,
                    "time": 43.125,
                    "velocity": 1
                },
                {
                    "duration": 0.25,
                    "durationTicks": 480,
                    "midi": 69,
                    "name": "A4",
                    "ticks": 83040,
                    "time": 43.25,
                    "velocity": 1
                },
                {
                    "duration": 0.25,
                    "durationTicks": 480,
                    "midi": 54,
                    "name": "F#3",
                    "ticks": 83520,
                    "time": 43.5,
                    "velocity": 1
                },
                {
                    "duration": 0.25,
                    "durationTicks": 480,
                    "midi": 69,
                    "name": "A4",
                    "ticks": 83520,
                    "time": 43.5,
                    "velocity": 1
                },
                {
                    "duration": 0.25,
                    "durationTicks": 480,
                    "midi": 69,
                    "name": "A4",
                    "ticks": 84000,
                    "time": 43.75,
                    "velocity": 1
                },
                {
                    "duration": 0.25,
                    "durationTicks": 480,
                    "midi": 69,
                    "name": "A4",
                    "ticks": 84480,
                    "time": 44,
                    "velocity": 1
                },
                {
                    "duration": 0.25,
                    "durationTicks": 480,
                    "midi": 70,
                    "name": "A#4",
                    "ticks": 84480,
                    "time": 44,
                    "velocity": 1
                },
                {
                    "duration": 0.25,
                    "durationTicks": 480,
                    "midi": 69,
                    "name": "A4",
                    "ticks": 84960,
                    "time": 44.25,
                    "velocity": 1
                },
                {
                    "duration": 0.25,
                    "durationTicks": 480,
                    "midi": 54,
                    "name": "F#3",
                    "ticks": 85440,
                    "time": 44.5,
                    "velocity": 1
                },
                {
                    "duration": 0.25,
                    "durationTicks": 480,
                    "midi": 69,
                    "name": "A4",
                    "ticks": 85440,
                    "time": 44.5,
                    "velocity": 1
                },
                {
                    "duration": 0.25,
                    "durationTicks": 480,
                    "midi": 69,
                    "name": "A4",
                    "ticks": 85920,
                    "time": 44.75,
                    "velocity": 1
                },
                {
                    "duration": 0.0625,
                    "durationTicks": 120,
                    "midi": 69,
                    "name": "A4",
                    "ticks": 86400,
                    "time": 45,
                    "velocity": 1
                },
                {
                    "duration": 0.25,
                    "durationTicks": 480,
                    "midi": 70,
                    "name": "A#4",
                    "ticks": 86400,
                    "time": 45,
                    "velocity": 1
                },
                {
                    "duration": 0.0625,
                    "durationTicks": 120,
                    "midi": 69,
                    "name": "A4",
                    "ticks": 86520,
                    "time": 45.0625,
                    "velocity": 1
                },
                {
                    "duration": 0.0625,
                    "durationTicks": 120,
                    "midi": 69,
                    "name": "A4",
                    "ticks": 86640,
                    "time": 45.125,
                    "velocity": 1
                },
                {
                    "duration": 0.25,
                    "durationTicks": 480,
                    "midi": 69,
                    "name": "A4",
                    "ticks": 86880,
                    "time": 45.25,
                    "velocity": 1
                },
                {
                    "duration": 0.25,
                    "durationTicks": 480,
                    "midi": 54,
                    "name": "F#3",
                    "ticks": 87360,
                    "time": 45.5,
                    "velocity": 1
                },
                {
                    "duration": 0.25,
                    "durationTicks": 480,
                    "midi": 69,
                    "name": "A4",
                    "ticks": 87360,
                    "time": 45.5,
                    "velocity": 1
                },
                {
                    "duration": 0.25,
                    "durationTicks": 480,
                    "midi": 69,
                    "name": "A4",
                    "ticks": 87840,
                    "time": 45.75,
                    "velocity": 1
                },
                {
                    "duration": 0.25,
                    "durationTicks": 480,
                    "midi": 69,
                    "name": "A4",
                    "ticks": 88320,
                    "time": 46,
                    "velocity": 1
                },
                {
                    "duration": 0.25,
                    "durationTicks": 480,
                    "midi": 70,
                    "name": "A#4",
                    "ticks": 88320,
                    "time": 46,
                    "velocity": 1
                },
                {
                    "duration": 0.25,
                    "durationTicks": 480,
                    "midi": 69,
                    "name": "A4",
                    "ticks": 88800,
                    "time": 46.25,
                    "velocity": 1
                },
                {
                    "duration": 0.25,
                    "durationTicks": 480,
                    "midi": 69,
                    "name": "A4",
                    "ticks": 89280,
                    "time": 46.5,
                    "velocity": 1
                },
                {
                    "duration": 0.25,
                    "durationTicks": 480,
                    "midi": 69,
                    "name": "A4",
                    "ticks": 89760,
                    "time": 46.75,
                    "velocity": 1
                },
                {
                    "duration": 0.0625,
                    "durationTicks": 120,
                    "midi": 69,
                    "name": "A4",
                    "ticks": 90240,
                    "time": 47,
                    "velocity": 1
                },
                {
                    "duration": 0.25,
                    "durationTicks": 480,
                    "midi": 70,
                    "name": "A#4",
                    "ticks": 90240,
                    "time": 47,
                    "velocity": 1
                },
                {
                    "duration": 0.0625,
                    "durationTicks": 120,
                    "midi": 69,
                    "name": "A4",
                    "ticks": 90360,
                    "time": 47.0625,
                    "velocity": 1
                },
                {
                    "duration": 0.0625,
                    "durationTicks": 120,
                    "midi": 69,
                    "name": "A4",
                    "ticks": 90480,
                    "time": 47.125,
                    "velocity": 1
                },
                {
                    "duration": 0.25,
                    "durationTicks": 480,
                    "midi": 69,
                    "name": "A4",
                    "ticks": 90720,
                    "time": 47.25,
                    "velocity": 1
                },
                {
                    "duration": 0.25,
                    "durationTicks": 480,
                    "midi": 69,
                    "name": "A4",
                    "ticks": 91200,
                    "time": 47.5,
                    "velocity": 1
                },
                {
                    "duration": 0.25,
                    "durationTicks": 480,
                    "midi": 69,
                    "name": "A4",
                    "ticks": 91680,
                    "time": 47.75,
                    "velocity": 1
                },
                {
                    "duration": 0.25,
                    "durationTicks": 480,
                    "midi": 69,
                    "name": "A4",
                    "ticks": 92160,
                    "time": 48,
                    "velocity": 1
                },
                {
                    "duration": 0.25,
                    "durationTicks": 480,
                    "midi": 70,
                    "name": "A#4",
                    "ticks": 92160,
                    "time": 48,
                    "velocity": 1
                },
                {
                    "duration": 0.25,
                    "durationTicks": 480,
                    "midi": 69,
                    "name": "A4",
                    "ticks": 92640,
                    "time": 48.25,
                    "velocity": 1
                },
                {
                    "duration": 0.25,
                    "durationTicks": 480,
                    "midi": 69,
                    "name": "A4",
                    "ticks": 93120,
                    "time": 48.5,
                    "velocity": 1
                },
                {
                    "duration": 0.25,
                    "durationTicks": 480,
                    "midi": 69,
                    "name": "A4",
                    "ticks": 93600,
                    "time": 48.75,
                    "velocity": 1
                },
                {
                    "duration": 0.0625,
                    "durationTicks": 120,
                    "midi": 69,
                    "name": "A4",
                    "ticks": 94080,
                    "time": 49,
                    "velocity": 1
                },
                {
                    "duration": 0.25,
                    "durationTicks": 480,
                    "midi": 70,
                    "name": "A#4",
                    "ticks": 94080,
                    "time": 49,
                    "velocity": 1
                },
                {
                    "duration": 0.0625,
                    "durationTicks": 120,
                    "midi": 69,
                    "name": "A4",
                    "ticks": 94200,
                    "time": 49.0625,
                    "velocity": 1
                },
                {
                    "duration": 0.0625,
                    "durationTicks": 120,
                    "midi": 69,
                    "name": "A4",
                    "ticks": 94320,
                    "time": 49.125,
                    "velocity": 1
                },
                {
                    "duration": 0.25,
                    "durationTicks": 480,
                    "midi": 69,
                    "name": "A4",
                    "ticks": 94560,
                    "time": 49.25,
                    "velocity": 1
                },
                {
                    "duration": 0.25,
                    "durationTicks": 480,
                    "midi": 69,
                    "name": "A4",
                    "ticks": 95040,
                    "time": 49.5,
                    "velocity": 1
                },
                {
                    "duration": 0.25,
                    "durationTicks": 480,
                    "midi": 69,
                    "name": "A4",
                    "ticks": 95520,
                    "time": 49.75,
                    "velocity": 1
                },
                {
                    "duration": 0.25,
                    "durationTicks": 480,
                    "midi": 69,
                    "name": "A4",
                    "ticks": 96000,
                    "time": 50,
                    "velocity": 1
                },
                {
                    "duration": 0.25,
                    "durationTicks": 480,
                    "midi": 70,
                    "name": "A#4",
                    "ticks": 96000,
                    "time": 50,
                    "velocity": 1
                },
                {
                    "duration": 0.25,
                    "durationTicks": 480,
                    "midi": 69,
                    "name": "A4",
                    "ticks": 96480,
                    "time": 50.25,
                    "velocity": 1
                },
                {
                    "duration": 0.25,
                    "durationTicks": 480,
                    "midi": 69,
                    "name": "A4",
                    "ticks": 96960,
                    "time": 50.5,
                    "velocity": 1
                },
                {
                    "duration": 0.25,
                    "durationTicks": 480,
                    "midi": 69,
                    "name": "A4",
                    "ticks": 97440,
                    "time": 50.75,
                    "velocity": 1
                },
                {
                    "duration": 0.0625,
                    "durationTicks": 120,
                    "midi": 69,
                    "name": "A4",
                    "ticks": 97920,
                    "time": 51,
                    "velocity": 1
                },
                {
                    "duration": 0.25,
                    "durationTicks": 480,
                    "midi": 70,
                    "name": "A#4",
                    "ticks": 97920,
                    "time": 51,
                    "velocity": 1
                },
                {
                    "duration": 0.0625,
                    "durationTicks": 120,
                    "midi": 69,
                    "name": "A4",
                    "ticks": 98040,
                    "time": 51.0625,
                    "velocity": 1
                },
                {
                    "duration": 0.0625,
                    "durationTicks": 120,
                    "midi": 69,
                    "name": "A4",
                    "ticks": 98160,
                    "time": 51.125,
                    "velocity": 1
                },
                {
                    "duration": 0.25,
                    "durationTicks": 480,
                    "midi": 69,
                    "name": "A4",
                    "ticks": 98400,
                    "time": 51.25,
                    "velocity": 1
                },
                {
                    "duration": 0.25,
                    "durationTicks": 480,
                    "midi": 69,
                    "name": "A4",
                    "ticks": 98880,
                    "time": 51.5,
                    "velocity": 1
                },
                {
                    "duration": 0.25,
                    "durationTicks": 480,
                    "midi": 69,
                    "name": "A4",
                    "ticks": 99360,
                    "time": 51.75,
                    "velocity": 1
                },
                {
                    "duration": 0.25,
                    "durationTicks": 480,
                    "midi": 69,
                    "name": "A4",
                    "ticks": 99840,
                    "time": 52,
                    "velocity": 1
                },
                {
                    "duration": 0.25,
                    "durationTicks": 480,
                    "midi": 70,
                    "name": "A#4",
                    "ticks": 99840,
                    "time": 52,
                    "velocity": 1
                },
                {
                    "duration": 0.25,
                    "durationTicks": 480,
                    "midi": 69,
                    "name": "A4",
                    "ticks": 100320,
                    "time": 52.25,
                    "velocity": 1
                },
                {
                    "duration": 0.25,
                    "durationTicks": 480,
                    "midi": 69,
                    "name": "A4",
                    "ticks": 100800,
                    "time": 52.5,
                    "velocity": 1
                },
                {
                    "duration": 0.25,
                    "durationTicks": 480,
                    "midi": 69,
                    "name": "A4",
                    "ticks": 101280,
                    "time": 52.75,
                    "velocity": 1
                },
                {
                    "duration": 0.0625,
                    "durationTicks": 120,
                    "midi": 69,
                    "name": "A4",
                    "ticks": 101760,
                    "time": 53,
                    "velocity": 1
                },
                {
                    "duration": 0.25,
                    "durationTicks": 480,
                    "midi": 70,
                    "name": "A#4",
                    "ticks": 101760,
                    "time": 53,
                    "velocity": 1
                },
                {
                    "duration": 0.0625,
                    "durationTicks": 120,
                    "midi": 69,
                    "name": "A4",
                    "ticks": 101880,
                    "time": 53.0625,
                    "velocity": 1
                },
                {
                    "duration": 0.0625,
                    "durationTicks": 120,
                    "midi": 69,
                    "name": "A4",
                    "ticks": 102000,
                    "time": 53.125,
                    "velocity": 1
                },
                {
                    "duration": 0.25,
                    "durationTicks": 480,
                    "midi": 69,
                    "name": "A4",
                    "ticks": 102240,
                    "time": 53.25,
                    "velocity": 1
                },
                {
                    "duration": 0.25,
                    "durationTicks": 480,
                    "midi": 69,
                    "name": "A4",
                    "ticks": 102720,
                    "time": 53.5,
                    "velocity": 1
                },
                {
                    "duration": 0.25,
                    "durationTicks": 480,
                    "midi": 69,
                    "name": "A4",
                    "ticks": 103200,
                    "time": 53.75,
                    "velocity": 1
                },
                {
                    "duration": 0.25,
                    "durationTicks": 480,
                    "midi": 69,
                    "name": "A4",
                    "ticks": 103680,
                    "time": 54,
                    "velocity": 1
                },
                {
                    "duration": 0.25,
                    "durationTicks": 480,
                    "midi": 70,
                    "name": "A#4",
                    "ticks": 103680,
                    "time": 54,
                    "velocity": 1
                },
                {
                    "duration": 0.25,
                    "durationTicks": 480,
                    "midi": 69,
                    "name": "A4",
                    "ticks": 104160,
                    "time": 54.25,
                    "velocity": 1
                },
                {
                    "duration": 0.25,
                    "durationTicks": 480,
                    "midi": 69,
                    "name": "A4",
                    "ticks": 104640,
                    "time": 54.5,
                    "velocity": 1
                },
                {
                    "duration": 0.25,
                    "durationTicks": 480,
                    "midi": 69,
                    "name": "A4",
                    "ticks": 105120,
                    "time": 54.75,
                    "velocity": 1
                },
                {
                    "duration": 0.0625,
                    "durationTicks": 120,
                    "midi": 69,
                    "name": "A4",
                    "ticks": 105600,
                    "time": 55,
                    "velocity": 1
                },
                {
                    "duration": 0.25,
                    "durationTicks": 480,
                    "midi": 70,
                    "name": "A#4",
                    "ticks": 105600,
                    "time": 55,
                    "velocity": 1
                },
                {
                    "duration": 0.0625,
                    "durationTicks": 120,
                    "midi": 69,
                    "name": "A4",
                    "ticks": 105720,
                    "time": 55.0625,
                    "velocity": 1
                },
                {
                    "duration": 0.0625,
                    "durationTicks": 120,
                    "midi": 69,
                    "name": "A4",
                    "ticks": 105840,
                    "time": 55.125,
                    "velocity": 1
                },
                {
                    "duration": 0.25,
                    "durationTicks": 480,
                    "midi": 69,
                    "name": "A4",
                    "ticks": 106080,
                    "time": 55.25,
                    "velocity": 1
                },
                {
                    "duration": 0.25,
                    "durationTicks": 480,
                    "midi": 69,
                    "name": "A4",
                    "ticks": 106560,
                    "time": 55.5,
                    "velocity": 1
                },
                {
                    "duration": 0.25,
                    "durationTicks": 480,
                    "midi": 69,
                    "name": "A4",
                    "ticks": 107040,
                    "time": 55.75,
                    "velocity": 1
                },
                {
                    "duration": 0.25,
                    "durationTicks": 480,
                    "midi": 69,
                    "name": "A4",
                    "ticks": 107520,
                    "time": 56,
                    "velocity": 1
                },
                {
                    "duration": 0.25,
                    "durationTicks": 480,
                    "midi": 70,
                    "name": "A#4",
                    "ticks": 107520,
                    "time": 56,
                    "velocity": 1
                },
                {
                    "duration": 0.25,
                    "durationTicks": 480,
                    "midi": 69,
                    "name": "A4",
                    "ticks": 108000,
                    "time": 56.25,
                    "velocity": 1
                },
                {
                    "duration": 0.25,
                    "durationTicks": 480,
                    "midi": 69,
                    "name": "A4",
                    "ticks": 108480,
                    "time": 56.5,
                    "velocity": 1
                },
                {
                    "duration": 0.25,
                    "durationTicks": 480,
                    "midi": 69,
                    "name": "A4",
                    "ticks": 108960,
                    "time": 56.75,
                    "velocity": 1
                },
                {
                    "duration": 0.0625,
                    "durationTicks": 120,
                    "midi": 69,
                    "name": "A4",
                    "ticks": 109440,
                    "time": 57,
                    "velocity": 1
                },
                {
                    "duration": 0.25,
                    "durationTicks": 480,
                    "midi": 70,
                    "name": "A#4",
                    "ticks": 109440,
                    "time": 57,
                    "velocity": 1
                },
                {
                    "duration": 0.0625,
                    "durationTicks": 120,
                    "midi": 69,
                    "name": "A4",
                    "ticks": 109560,
                    "time": 57.0625,
                    "velocity": 1
                },
                {
                    "duration": 0.0625,
                    "durationTicks": 120,
                    "midi": 69,
                    "name": "A4",
                    "ticks": 109680,
                    "time": 57.125,
                    "velocity": 1
                },
                {
                    "duration": 0.25,
                    "durationTicks": 480,
                    "midi": 69,
                    "name": "A4",
                    "ticks": 109920,
                    "time": 57.25,
                    "velocity": 1
                },
                {
                    "duration": 0.25,
                    "durationTicks": 480,
                    "midi": 69,
                    "name": "A4",
                    "ticks": 110400,
                    "time": 57.5,
                    "velocity": 1
                },
                {
                    "duration": 0.25,
                    "durationTicks": 480,
                    "midi": 69,
                    "name": "A4",
                    "ticks": 110880,
                    "time": 57.75,
                    "velocity": 1
                },
                {
                    "duration": 0.25,
                    "durationTicks": 480,
                    "midi": 69,
                    "name": "A4",
                    "ticks": 111360,
                    "time": 58,
                    "velocity": 1
                },
                {
                    "duration": 0.25,
                    "durationTicks": 480,
                    "midi": 70,
                    "name": "A#4",
                    "ticks": 111360,
                    "time": 58,
                    "velocity": 1
                },
                {
                    "duration": 0.25,
                    "durationTicks": 480,
                    "midi": 69,
                    "name": "A4",
                    "ticks": 111840,
                    "time": 58.25,
                    "velocity": 1
                },
                {
                    "duration": 0.25,
                    "durationTicks": 480,
                    "midi": 69,
                    "name": "A4",
                    "ticks": 112320,
                    "time": 58.5,
                    "velocity": 1
                },
                {
                    "duration": 0.25,
                    "durationTicks": 480,
                    "midi": 69,
                    "name": "A4",
                    "ticks": 112800,
                    "time": 58.75,
                    "velocity": 1
                },
                {
                    "duration": 0.0625,
                    "durationTicks": 120,
                    "midi": 69,
                    "name": "A4",
                    "ticks": 113280,
                    "time": 59,
                    "velocity": 1
                },
                {
                    "duration": 0.25,
                    "durationTicks": 480,
                    "midi": 70,
                    "name": "A#4",
                    "ticks": 113280,
                    "time": 59,
                    "velocity": 1
                },
                {
                    "duration": 0.0625,
                    "durationTicks": 120,
                    "midi": 69,
                    "name": "A4",
                    "ticks": 113400,
                    "time": 59.0625,
                    "velocity": 1
                },
                {
                    "duration": 0.0625,
                    "durationTicks": 120,
                    "midi": 69,
                    "name": "A4",
                    "ticks": 113520,
                    "time": 59.125,
                    "velocity": 1
                },
                {
                    "duration": 0.25,
                    "durationTicks": 480,
                    "midi": 69,
                    "name": "A4",
                    "ticks": 113760,
                    "time": 59.25,
                    "velocity": 1
                },
                {
                    "duration": 0.25,
                    "durationTicks": 480,
                    "midi": 69,
                    "name": "A4",
                    "ticks": 114240,
                    "time": 59.5,
                    "velocity": 1
                },
                {
                    "duration": 0.25,
                    "durationTicks": 480,
                    "midi": 69,
                    "name": "A4",
                    "ticks": 114720,
                    "time": 59.75,
                    "velocity": 1
                },
                {
                    "duration": 0.25,
                    "durationTicks": 480,
                    "midi": 69,
                    "name": "A4",
                    "ticks": 115200,
                    "time": 60,
                    "velocity": 1
                },
                {
                    "duration": 0.25,
                    "durationTicks": 480,
                    "midi": 70,
                    "name": "A#4",
                    "ticks": 115200,
                    "time": 60,
                    "velocity": 1
                },
                {
                    "duration": 0.25,
                    "durationTicks": 480,
                    "midi": 69,
                    "name": "A4",
                    "ticks": 115680,
                    "time": 60.25,
                    "velocity": 1
                },
                {
                    "duration": 0.25,
                    "durationTicks": 480,
                    "midi": 69,
                    "name": "A4",
                    "ticks": 116160,
                    "time": 60.5,
                    "velocity": 1
                },
                {
                    "duration": 0.25,
                    "durationTicks": 480,
                    "midi": 69,
                    "name": "A4",
                    "ticks": 116640,
                    "time": 60.75,
                    "velocity": 1
                },
                {
                    "duration": 0.0625,
                    "durationTicks": 120,
                    "midi": 69,
                    "name": "A4",
                    "ticks": 117120,
                    "time": 61,
                    "velocity": 1
                },
                {
                    "duration": 0.25,
                    "durationTicks": 480,
                    "midi": 70,
                    "name": "A#4",
                    "ticks": 117120,
                    "time": 61,
                    "velocity": 1
                },
                {
                    "duration": 0.0625,
                    "durationTicks": 120,
                    "midi": 69,
                    "name": "A4",
                    "ticks": 117240,
                    "time": 61.0625,
                    "velocity": 1
                },
                {
                    "duration": 0.0625,
                    "durationTicks": 120,
                    "midi": 69,
                    "name": "A4",
                    "ticks": 117360,
                    "time": 61.125,
                    "velocity": 1
                },
                {
                    "duration": 0.25,
                    "durationTicks": 480,
                    "midi": 69,
                    "name": "A4",
                    "ticks": 117600,
                    "time": 61.25,
                    "velocity": 1
                },
                {
                    "duration": 0.25,
                    "durationTicks": 480,
                    "midi": 69,
                    "name": "A4",
                    "ticks": 118080,
                    "time": 61.5,
                    "velocity": 1
                },
                {
                    "duration": 0.25,
                    "durationTicks": 480,
                    "midi": 69,
                    "name": "A4",
                    "ticks": 118560,
                    "time": 61.75,
                    "velocity": 1
                },
                {
                    "duration": 0.25,
                    "durationTicks": 480,
                    "midi": 69,
                    "name": "A4",
                    "ticks": 119040,
                    "time": 62,
                    "velocity": 1
                },
                {
                    "duration": 0.25,
                    "durationTicks": 480,
                    "midi": 70,
                    "name": "A#4",
                    "ticks": 119040,
                    "time": 62,
                    "velocity": 1
                },
                {
                    "duration": 0.25,
                    "durationTicks": 480,
                    "midi": 69,
                    "name": "A4",
                    "ticks": 119520,
                    "time": 62.25,
                    "velocity": 1
                },
                {
                    "duration": 0.25,
                    "durationTicks": 480,
                    "midi": 69,
                    "name": "A4",
                    "ticks": 120000,
                    "time": 62.5,
                    "velocity": 1
                },
                {
                    "duration": 0.25,
                    "durationTicks": 480,
                    "midi": 69,
                    "name": "A4",
                    "ticks": 120480,
                    "time": 62.75,
                    "velocity": 1
                },
                {
                    "duration": 0.0625,
                    "durationTicks": 120,
                    "midi": 69,
                    "name": "A4",
                    "ticks": 120960,
                    "time": 63,
                    "velocity": 1
                },
                {
                    "duration": 0.25,
                    "durationTicks": 480,
                    "midi": 70,
                    "name": "A#4",
                    "ticks": 120960,
                    "time": 63,
                    "velocity": 1
                },
                {
                    "duration": 0.0625,
                    "durationTicks": 120,
                    "midi": 69,
                    "name": "A4",
                    "ticks": 121080,
                    "time": 63.0625,
                    "velocity": 1
                },
                {
                    "duration": 0.0625,
                    "durationTicks": 120,
                    "midi": 69,
                    "name": "A4",
                    "ticks": 121200,
                    "time": 63.125,
                    "velocity": 1
                },
                {
                    "duration": 0.25,
                    "durationTicks": 480,
                    "midi": 69,
                    "name": "A4",
                    "ticks": 121440,
                    "time": 63.25,
                    "velocity": 1
                },
                {
                    "duration": 0.25,
                    "durationTicks": 480,
                    "midi": 69,
                    "name": "A4",
                    "ticks": 121920,
                    "time": 63.5,
                    "velocity": 1
                },
                {
                    "duration": 0.25,
                    "durationTicks": 480,
                    "midi": 69,
                    "name": "A4",
                    "ticks": 122400,
                    "time": 63.75,
                    "velocity": 1
                },
                {
                    "duration": 0.25,
                    "durationTicks": 480,
                    "midi": 69,
                    "name": "A4",
                    "ticks": 122880,
                    "time": 64,
                    "velocity": 1
                },
                {
                    "duration": 0.25,
                    "durationTicks": 480,
                    "midi": 70,
                    "name": "A#4",
                    "ticks": 122880,
                    "time": 64,
                    "velocity": 1
                },
                {
                    "duration": 0.25,
                    "durationTicks": 480,
                    "midi": 69,
                    "name": "A4",
                    "ticks": 123360,
                    "time": 64.25,
                    "velocity": 1
                },
                {
                    "duration": 0.25,
                    "durationTicks": 480,
                    "midi": 69,
                    "name": "A4",
                    "ticks": 123840,
                    "time": 64.5,
                    "velocity": 1
                },
                {
                    "duration": 0.25,
                    "durationTicks": 480,
                    "midi": 69,
                    "name": "A4",
                    "ticks": 124320,
                    "time": 64.75,
                    "velocity": 1
                },
                {
                    "duration": 0.0625,
                    "durationTicks": 120,
                    "midi": 69,
                    "name": "A4",
                    "ticks": 124800,
                    "time": 65,
                    "velocity": 1
                },
                {
                    "duration": 0.25,
                    "durationTicks": 480,
                    "midi": 70,
                    "name": "A#4",
                    "ticks": 124800,
                    "time": 65,
                    "velocity": 1
                },
                {
                    "duration": 0.0625,
                    "durationTicks": 120,
                    "midi": 69,
                    "name": "A4",
                    "ticks": 124920,
                    "time": 65.0625,
                    "velocity": 1
                },
                {
                    "duration": 0.0625,
                    "durationTicks": 120,
                    "midi": 69,
                    "name": "A4",
                    "ticks": 125040,
                    "time": 65.125,
                    "velocity": 1
                },
                {
                    "duration": 0.25,
                    "durationTicks": 480,
                    "midi": 69,
                    "name": "A4",
                    "ticks": 125280,
                    "time": 65.25,
                    "velocity": 1
                },
                {
                    "duration": 0.25,
                    "durationTicks": 480,
                    "midi": 69,
                    "name": "A4",
                    "ticks": 125760,
                    "time": 65.5,
                    "velocity": 1
                },
                {
                    "duration": 0.25,
                    "durationTicks": 480,
                    "midi": 69,
                    "name": "A4",
                    "ticks": 126240,
                    "time": 65.75,
                    "velocity": 1
                },
                {
                    "duration": 0.25,
                    "durationTicks": 480,
                    "midi": 69,
                    "name": "A4",
                    "ticks": 126720,
                    "time": 66,
                    "velocity": 1
                },
                {
                    "duration": 0.25,
                    "durationTicks": 480,
                    "midi": 70,
                    "name": "A#4",
                    "ticks": 126720,
                    "time": 66,
                    "velocity": 1
                },
                {
                    "duration": 0.25,
                    "durationTicks": 480,
                    "midi": 69,
                    "name": "A4",
                    "ticks": 127200,
                    "time": 66.25,
                    "velocity": 1
                },
                {
                    "duration": 0.25,
                    "durationTicks": 480,
                    "midi": 69,
                    "name": "A4",
                    "ticks": 127680,
                    "time": 66.5,
                    "velocity": 1
                },
                {
                    "duration": 0.25,
                    "durationTicks": 480,
                    "midi": 69,
                    "name": "A4",
                    "ticks": 128160,
                    "time": 66.75,
                    "velocity": 1
                },
                {
                    "duration": 0.0625,
                    "durationTicks": 120,
                    "midi": 69,
                    "name": "A4",
                    "ticks": 128640,
                    "time": 67,
                    "velocity": 1
                },
                {
                    "duration": 0.25,
                    "durationTicks": 480,
                    "midi": 70,
                    "name": "A#4",
                    "ticks": 128640,
                    "time": 67,
                    "velocity": 1
                },
                {
                    "duration": 0.0625,
                    "durationTicks": 120,
                    "midi": 69,
                    "name": "A4",
                    "ticks": 128760,
                    "time": 67.0625,
                    "velocity": 1
                },
                {
                    "duration": 0.0625,
                    "durationTicks": 120,
                    "midi": 69,
                    "name": "A4",
                    "ticks": 128880,
                    "time": 67.125,
                    "velocity": 1
                },
                {
                    "duration": 0.25,
                    "durationTicks": 480,
                    "midi": 69,
                    "name": "A4",
                    "ticks": 129120,
                    "time": 67.25,
                    "velocity": 1
                },
                {
                    "duration": 0.25,
                    "durationTicks": 480,
                    "midi": 69,
                    "name": "A4",
                    "ticks": 129600,
                    "time": 67.5,
                    "velocity": 1
                },
                {
                    "duration": 0.25,
                    "durationTicks": 480,
                    "midi": 69,
                    "name": "A4",
                    "ticks": 130080,
                    "time": 67.75,
                    "velocity": 1
                },
                {
                    "duration": 0.25,
                    "durationTicks": 480,
                    "midi": 69,
                    "name": "A4",
                    "ticks": 130560,
                    "time": 68,
                    "velocity": 1
                },
                {
                    "duration": 0.25,
                    "durationTicks": 480,
                    "midi": 70,
                    "name": "A#4",
                    "ticks": 130560,
                    "time": 68,
                    "velocity": 1
                },
                {
                    "duration": 0.25,
                    "durationTicks": 480,
                    "midi": 69,
                    "name": "A4",
                    "ticks": 131040,
                    "time": 68.25,
                    "velocity": 1
                },
                {
                    "duration": 0.25,
                    "durationTicks": 480,
                    "midi": 69,
                    "name": "A4",
                    "ticks": 131520,
                    "time": 68.5,
                    "velocity": 1
                },
                {
                    "duration": 0.25,
                    "durationTicks": 480,
                    "midi": 69,
                    "name": "A4",
                    "ticks": 132000,
                    "time": 68.75,
                    "velocity": 1
                },
                {
                    "duration": 0.0625,
                    "durationTicks": 120,
                    "midi": 69,
                    "name": "A4",
                    "ticks": 132480,
                    "time": 69,
                    "velocity": 1
                },
                {
                    "duration": 0.25,
                    "durationTicks": 480,
                    "midi": 70,
                    "name": "A#4",
                    "ticks": 132480,
                    "time": 69,
                    "velocity": 1
                },
                {
                    "duration": 0.0625,
                    "durationTicks": 120,
                    "midi": 69,
                    "name": "A4",
                    "ticks": 132600,
                    "time": 69.0625,
                    "velocity": 1
                },
                {
                    "duration": 0.0625,
                    "durationTicks": 120,
                    "midi": 69,
                    "name": "A4",
                    "ticks": 132720,
                    "time": 69.125,
                    "velocity": 1
                },
                {
                    "duration": 0.25,
                    "durationTicks": 480,
                    "midi": 69,
                    "name": "A4",
                    "ticks": 132960,
                    "time": 69.25,
                    "velocity": 1
                },
                {
                    "duration": 0.25,
                    "durationTicks": 480,
                    "midi": 69,
                    "name": "A4",
                    "ticks": 133440,
                    "time": 69.5,
                    "velocity": 1
                },
                {
                    "duration": 0.25,
                    "durationTicks": 480,
                    "midi": 69,
                    "name": "A4",
                    "ticks": 133920,
                    "time": 69.75,
                    "velocity": 1
                },
                {
                    "duration": 0.25,
                    "durationTicks": 480,
                    "midi": 69,
                    "name": "A4",
                    "ticks": 134400,
                    "time": 70,
                    "velocity": 1
                },
                {
                    "duration": 0.25,
                    "durationTicks": 480,
                    "midi": 70,
                    "name": "A#4",
                    "ticks": 134400,
                    "time": 70,
                    "velocity": 1
                },
                {
                    "duration": 0.25,
                    "durationTicks": 480,
                    "midi": 69,
                    "name": "A4",
                    "ticks": 134880,
                    "time": 70.25,
                    "velocity": 1
                },
                {
                    "duration": 0.25,
                    "durationTicks": 480,
                    "midi": 69,
                    "name": "A4",
                    "ticks": 135360,
                    "time": 70.5,
                    "velocity": 1
                },
                {
                    "duration": 0.25,
                    "durationTicks": 480,
                    "midi": 69,
                    "name": "A4",
                    "ticks": 135840,
                    "time": 70.75,
                    "velocity": 1
                },
                {
                    "duration": 0.0625,
                    "durationTicks": 120,
                    "midi": 69,
                    "name": "A4",
                    "ticks": 136320,
                    "time": 71,
                    "velocity": 1
                },
                {
                    "duration": 0.25,
                    "durationTicks": 480,
                    "midi": 70,
                    "name": "A#4",
                    "ticks": 136320,
                    "time": 71,
                    "velocity": 1
                },
                {
                    "duration": 0.0625,
                    "durationTicks": 120,
                    "midi": 69,
                    "name": "A4",
                    "ticks": 136440,
                    "time": 71.0625,
                    "velocity": 1
                },
                {
                    "duration": 0.0625,
                    "durationTicks": 120,
                    "midi": 69,
                    "name": "A4",
                    "ticks": 136560,
                    "time": 71.125,
                    "velocity": 1
                },
                {
                    "duration": 0.25,
                    "durationTicks": 480,
                    "midi": 69,
                    "name": "A4",
                    "ticks": 136800,
                    "time": 71.25,
                    "velocity": 1
                },
                {
                    "duration": 0.25,
                    "durationTicks": 480,
                    "midi": 69,
                    "name": "A4",
                    "ticks": 137280,
                    "time": 71.5,
                    "velocity": 1
                },
                {
                    "duration": 0.25,
                    "durationTicks": 480,
                    "midi": 69,
                    "name": "A4",
                    "ticks": 137760,
                    "time": 71.75,
                    "velocity": 1
                },
                {
                    "duration": 0.25,
                    "durationTicks": 480,
                    "midi": 69,
                    "name": "A4",
                    "ticks": 138240,
                    "time": 72,
                    "velocity": 1
                },
                {
                    "duration": 0.25,
                    "durationTicks": 480,
                    "midi": 70,
                    "name": "A#4",
                    "ticks": 138240,
                    "time": 72,
                    "velocity": 1
                },
                {
                    "duration": 0.25,
                    "durationTicks": 480,
                    "midi": 69,
                    "name": "A4",
                    "ticks": 138720,
                    "time": 72.25,
                    "velocity": 1
                },
                {
                    "duration": 0.25,
                    "durationTicks": 480,
                    "midi": 69,
                    "name": "A4",
                    "ticks": 139200,
                    "time": 72.5,
                    "velocity": 1
                },
                {
                    "duration": 0.25,
                    "durationTicks": 480,
                    "midi": 69,
                    "name": "A4",
                    "ticks": 139680,
                    "time": 72.75,
                    "velocity": 1
                },
                {
                    "duration": 0.0625,
                    "durationTicks": 120,
                    "midi": 69,
                    "name": "A4",
                    "ticks": 140160,
                    "time": 73,
                    "velocity": 1
                },
                {
                    "duration": 0.25,
                    "durationTicks": 480,
                    "midi": 70,
                    "name": "A#4",
                    "ticks": 140160,
                    "time": 73,
                    "velocity": 1
                },
                {
                    "duration": 0.0625,
                    "durationTicks": 120,
                    "midi": 69,
                    "name": "A4",
                    "ticks": 140280,
                    "time": 73.0625,
                    "velocity": 1
                },
                {
                    "duration": 0.0625,
                    "durationTicks": 120,
                    "midi": 69,
                    "name": "A4",
                    "ticks": 140400,
                    "time": 73.125,
                    "velocity": 1
                },
                {
                    "duration": 0.25,
                    "durationTicks": 480,
                    "midi": 69,
                    "name": "A4",
                    "ticks": 140640,
                    "time": 73.25,
                    "velocity": 1
                },
                {
                    "duration": 0.25,
                    "durationTicks": 480,
                    "midi": 69,
                    "name": "A4",
                    "ticks": 141120,
                    "time": 73.5,
                    "velocity": 1
                },
                {
                    "duration": 0.25,
                    "durationTicks": 480,
                    "midi": 69,
                    "name": "A4",
                    "ticks": 141600,
                    "time": 73.75,
                    "velocity": 1
                },
                {
                    "duration": 0.25,
                    "durationTicks": 480,
                    "midi": 69,
                    "name": "A4",
                    "ticks": 142080,
                    "time": 74,
                    "velocity": 1
                },
                {
                    "duration": 0.25,
                    "durationTicks": 480,
                    "midi": 70,
                    "name": "A#4",
                    "ticks": 142080,
                    "time": 74,
                    "velocity": 1
                },
                {
                    "duration": 0.25,
                    "durationTicks": 480,
                    "midi": 69,
                    "name": "A4",
                    "ticks": 142560,
                    "time": 74.25,
                    "velocity": 1
                },
                {
                    "duration": 0.25,
                    "durationTicks": 480,
                    "midi": 69,
                    "name": "A4",
                    "ticks": 143040,
                    "time": 74.5,
                    "velocity": 1
                },
                {
                    "duration": 0.25,
                    "durationTicks": 480,
                    "midi": 69,
                    "name": "A4",
                    "ticks": 143520,
                    "time": 74.75,
                    "velocity": 1
                },
                {
                    "duration": 0.0625,
                    "durationTicks": 120,
                    "midi": 69,
                    "name": "A4",
                    "ticks": 144000,
                    "time": 75,
                    "velocity": 1
                },
                {
                    "duration": 0.25,
                    "durationTicks": 480,
                    "midi": 70,
                    "name": "A#4",
                    "ticks": 144000,
                    "time": 75,
                    "velocity": 1
                },
                {
                    "duration": 0.0625,
                    "durationTicks": 120,
                    "midi": 69,
                    "name": "A4",
                    "ticks": 144120,
                    "time": 75.0625,
                    "velocity": 1
                },
                {
                    "duration": 0.0625,
                    "durationTicks": 120,
                    "midi": 69,
                    "name": "A4",
                    "ticks": 144240,
                    "time": 75.125,
                    "velocity": 1
                },
                {
                    "duration": 0.25,
                    "durationTicks": 480,
                    "midi": 69,
                    "name": "A4",
                    "ticks": 144480,
                    "time": 75.25,
                    "velocity": 1
                },
                {
                    "duration": 0.25,
                    "durationTicks": 480,
                    "midi": 69,
                    "name": "A4",
                    "ticks": 144960,
                    "time": 75.5,
                    "velocity": 1
                },
                {
                    "duration": 0.25,
                    "durationTicks": 480,
                    "midi": 69,
                    "name": "A4",
                    "ticks": 145440,
                    "time": 75.75,
                    "velocity": 1
                },
                {
                    "duration": 0.25,
                    "durationTicks": 480,
                    "midi": 69,
                    "name": "A4",
                    "ticks": 145920,
                    "time": 76,
                    "velocity": 1
                },
                {
                    "duration": 0.25,
                    "durationTicks": 480,
                    "midi": 70,
                    "name": "A#4",
                    "ticks": 145920,
                    "time": 76,
                    "velocity": 1
                },
                {
                    "duration": 0.25,
                    "durationTicks": 480,
                    "midi": 69,
                    "name": "A4",
                    "ticks": 146400,
                    "time": 76.25,
                    "velocity": 1
                },
                {
                    "duration": 0.25,
                    "durationTicks": 480,
                    "midi": 69,
                    "name": "A4",
                    "ticks": 146880,
                    "time": 76.5,
                    "velocity": 1
                },
                {
                    "duration": 0.25,
                    "durationTicks": 480,
                    "midi": 69,
                    "name": "A4",
                    "ticks": 147360,
                    "time": 76.75,
                    "velocity": 1
                },
                {
                    "duration": 0.0625,
                    "durationTicks": 120,
                    "midi": 69,
                    "name": "A4",
                    "ticks": 147840,
                    "time": 77,
                    "velocity": 1
                },
                {
                    "duration": 0.25,
                    "durationTicks": 480,
                    "midi": 70,
                    "name": "A#4",
                    "ticks": 147840,
                    "time": 77,
                    "velocity": 1
                },
                {
                    "duration": 0.0625,
                    "durationTicks": 120,
                    "midi": 69,
                    "name": "A4",
                    "ticks": 147960,
                    "time": 77.0625,
                    "velocity": 1
                },
                {
                    "duration": 0.0625,
                    "durationTicks": 120,
                    "midi": 69,
                    "name": "A4",
                    "ticks": 148080,
                    "time": 77.125,
                    "velocity": 1
                },
                {
                    "duration": 0.25,
                    "durationTicks": 480,
                    "midi": 69,
                    "name": "A4",
                    "ticks": 148320,
                    "time": 77.25,
                    "velocity": 1
                },
                {
                    "duration": 0.25,
                    "durationTicks": 480,
                    "midi": 69,
                    "name": "A4",
                    "ticks": 148800,
                    "time": 77.5,
                    "velocity": 1
                },
                {
                    "duration": 0.25,
                    "durationTicks": 480,
                    "midi": 69,
                    "name": "A4",
                    "ticks": 149280,
                    "time": 77.75,
                    "velocity": 1
                },
                {
                    "duration": 0.25,
                    "durationTicks": 480,
                    "midi": 69,
                    "name": "A4",
                    "ticks": 149760,
                    "time": 78,
                    "velocity": 1
                },
                {
                    "duration": 0.25,
                    "durationTicks": 480,
                    "midi": 70,
                    "name": "A#4",
                    "ticks": 149760,
                    "time": 78,
                    "velocity": 1
                },
                {
                    "duration": 0.25,
                    "durationTicks": 480,
                    "midi": 69,
                    "name": "A4",
                    "ticks": 150240,
                    "time": 78.25,
                    "velocity": 1
                },
                {
                    "duration": 0.25,
                    "durationTicks": 480,
                    "midi": 69,
                    "name": "A4",
                    "ticks": 150720,
                    "time": 78.5,
                    "velocity": 1
                },
                {
                    "duration": 0.25,
                    "durationTicks": 480,
                    "midi": 69,
                    "name": "A4",
                    "ticks": 151200,
                    "time": 78.75,
                    "velocity": 1
                },
                {
                    "duration": 0.0625,
                    "durationTicks": 120,
                    "midi": 69,
                    "name": "A4",
                    "ticks": 151680,
                    "time": 79,
                    "velocity": 1
                },
                {
                    "duration": 0.25,
                    "durationTicks": 480,
                    "midi": 70,
                    "name": "A#4",
                    "ticks": 151680,
                    "time": 79,
                    "velocity": 1
                },
                {
                    "duration": 0.0625,
                    "durationTicks": 120,
                    "midi": 69,
                    "name": "A4",
                    "ticks": 151800,
                    "time": 79.0625,
                    "velocity": 1
                },
                {
                    "duration": 0.0625,
                    "durationTicks": 120,
                    "midi": 69,
                    "name": "A4",
                    "ticks": 151920,
                    "time": 79.125,
                    "velocity": 1
                },
                {
                    "duration": 0.25,
                    "durationTicks": 480,
                    "midi": 69,
                    "name": "A4",
                    "ticks": 152160,
                    "time": 79.25,
                    "velocity": 1
                },
                {
                    "duration": 0.25,
                    "durationTicks": 480,
                    "midi": 69,
                    "name": "A4",
                    "ticks": 152640,
                    "time": 79.5,
                    "velocity": 1
                },
                {
                    "duration": 0.25,
                    "durationTicks": 480,
                    "midi": 69,
                    "name": "A4",
                    "ticks": 153120,
                    "time": 79.75,
                    "velocity": 1
                },
                {
                    "duration": 0.25,
                    "durationTicks": 480,
                    "midi": 69,
                    "name": "A4",
                    "ticks": 153600,
                    "time": 80,
                    "velocity": 1
                },
                {
                    "duration": 0.25,
                    "durationTicks": 480,
                    "midi": 70,
                    "name": "A#4",
                    "ticks": 153600,
                    "time": 80,
                    "velocity": 1
                },
                {
                    "duration": 0.25,
                    "durationTicks": 480,
                    "midi": 69,
                    "name": "A4",
                    "ticks": 154080,
                    "time": 80.25,
                    "velocity": 1
                },
                {
                    "duration": 0.25,
                    "durationTicks": 480,
                    "midi": 69,
                    "name": "A4",
                    "ticks": 154560,
                    "time": 80.5,
                    "velocity": 1
                },
                {
                    "duration": 0.25,
                    "durationTicks": 480,
                    "midi": 69,
                    "name": "A4",
                    "ticks": 155040,
                    "time": 80.75,
                    "velocity": 1
                },
                {
                    "duration": 0.0625,
                    "durationTicks": 120,
                    "midi": 69,
                    "name": "A4",
                    "ticks": 155520,
                    "time": 81,
                    "velocity": 1
                },
                {
                    "duration": 0.25,
                    "durationTicks": 480,
                    "midi": 70,
                    "name": "A#4",
                    "ticks": 155520,
                    "time": 81,
                    "velocity": 1
                },
                {
                    "duration": 0.0625,
                    "durationTicks": 120,
                    "midi": 69,
                    "name": "A4",
                    "ticks": 155640,
                    "time": 81.0625,
                    "velocity": 1
                },
                {
                    "duration": 0.0625,
                    "durationTicks": 120,
                    "midi": 69,
                    "name": "A4",
                    "ticks": 155760,
                    "time": 81.125,
                    "velocity": 1
                },
                {
                    "duration": 0.25,
                    "durationTicks": 480,
                    "midi": 69,
                    "name": "A4",
                    "ticks": 156000,
                    "time": 81.25,
                    "velocity": 1
                },
                {
                    "duration": 0.25,
                    "durationTicks": 480,
                    "midi": 69,
                    "name": "A4",
                    "ticks": 156480,
                    "time": 81.5,
                    "velocity": 1
                },
                {
                    "duration": 0.25,
                    "durationTicks": 480,
                    "midi": 69,
                    "name": "A4",
                    "ticks": 156960,
                    "time": 81.75,
                    "velocity": 1
                },
                {
                    "duration": 0.25,
                    "durationTicks": 480,
                    "midi": 69,
                    "name": "A4",
                    "ticks": 157440,
                    "time": 82,
                    "velocity": 1
                },
                {
                    "duration": 0.25,
                    "durationTicks": 480,
                    "midi": 70,
                    "name": "A#4",
                    "ticks": 157440,
                    "time": 82,
                    "velocity": 1
                },
                {
                    "duration": 0.25,
                    "durationTicks": 480,
                    "midi": 69,
                    "name": "A4",
                    "ticks": 157920,
                    "time": 82.25,
                    "velocity": 1
                },
                {
                    "duration": 0.25,
                    "durationTicks": 480,
                    "midi": 69,
                    "name": "A4",
                    "ticks": 158400,
                    "time": 82.5,
                    "velocity": 1
                },
                {
                    "duration": 0.25,
                    "durationTicks": 480,
                    "midi": 69,
                    "name": "A4",
                    "ticks": 158880,
                    "time": 82.75,
                    "velocity": 1
                },
                {
                    "duration": 0.0625,
                    "durationTicks": 120,
                    "midi": 69,
                    "name": "A4",
                    "ticks": 159360,
                    "time": 83,
                    "velocity": 1
                },
                {
                    "duration": 0.25,
                    "durationTicks": 480,
                    "midi": 70,
                    "name": "A#4",
                    "ticks": 159360,
                    "time": 83,
                    "velocity": 1
                },
                {
                    "duration": 0.0625,
                    "durationTicks": 120,
                    "midi": 69,
                    "name": "A4",
                    "ticks": 159480,
                    "time": 83.0625,
                    "velocity": 1
                },
                {
                    "duration": 0.0625,
                    "durationTicks": 120,
                    "midi": 69,
                    "name": "A4",
                    "ticks": 159600,
                    "time": 83.125,
                    "velocity": 1
                },
                {
                    "duration": 0.25,
                    "durationTicks": 480,
                    "midi": 69,
                    "name": "A4",
                    "ticks": 159840,
                    "time": 83.25,
                    "velocity": 1
                },
                {
                    "duration": 0.25,
                    "durationTicks": 480,
                    "midi": 69,
                    "name": "A4",
                    "ticks": 160320,
                    "time": 83.5,
                    "velocity": 1
                },
                {
                    "duration": 0.25,
                    "durationTicks": 480,
                    "midi": 69,
                    "name": "A4",
                    "ticks": 160800,
                    "time": 83.75,
                    "velocity": 1
                },
                {
                    "duration": 0.25,
                    "durationTicks": 480,
                    "midi": 69,
                    "name": "A4",
                    "ticks": 161280,
                    "time": 84,
                    "velocity": 1
                },
                {
                    "duration": 0.25,
                    "durationTicks": 480,
                    "midi": 70,
                    "name": "A#4",
                    "ticks": 161280,
                    "time": 84,
                    "velocity": 1
                },
                {
                    "duration": 0.25,
                    "durationTicks": 480,
                    "midi": 69,
                    "name": "A4",
                    "ticks": 161760,
                    "time": 84.25,
                    "velocity": 1
                },
                {
                    "duration": 0.25,
                    "durationTicks": 480,
                    "midi": 69,
                    "name": "A4",
                    "ticks": 162240,
                    "time": 84.5,
                    "velocity": 1
                },
                {
                    "duration": 0.25,
                    "durationTicks": 480,
                    "midi": 69,
                    "name": "A4",
                    "ticks": 162720,
                    "time": 84.75,
                    "velocity": 1
                },
                {
                    "duration": 0.0625,
                    "durationTicks": 120,
                    "midi": 69,
                    "name": "A4",
                    "ticks": 163200,
                    "time": 85,
                    "velocity": 1
                },
                {
                    "duration": 0.25,
                    "durationTicks": 480,
                    "midi": 70,
                    "name": "A#4",
                    "ticks": 163200,
                    "time": 85,
                    "velocity": 1
                },
                {
                    "duration": 0.0625,
                    "durationTicks": 120,
                    "midi": 69,
                    "name": "A4",
                    "ticks": 163320,
                    "time": 85.0625,
                    "velocity": 1
                },
                {
                    "duration": 0.0625,
                    "durationTicks": 120,
                    "midi": 69,
                    "name": "A4",
                    "ticks": 163440,
                    "time": 85.125,
                    "velocity": 1
                },
                {
                    "duration": 0.25,
                    "durationTicks": 480,
                    "midi": 69,
                    "name": "A4",
                    "ticks": 163680,
                    "time": 85.25,
                    "velocity": 1
                },
                {
                    "duration": 0.25,
                    "durationTicks": 480,
                    "midi": 69,
                    "name": "A4",
                    "ticks": 164160,
                    "time": 85.5,
                    "velocity": 1
                },
                {
                    "duration": 0.25,
                    "durationTicks": 480,
                    "midi": 69,
                    "name": "A4",
                    "ticks": 164640,
                    "time": 85.75,
                    "velocity": 1
                },
                {
                    "duration": 0.25,
                    "durationTicks": 480,
                    "midi": 69,
                    "name": "A4",
                    "ticks": 165120,
                    "time": 86,
                    "velocity": 1
                },
                {
                    "duration": 0.25,
                    "durationTicks": 480,
                    "midi": 70,
                    "name": "A#4",
                    "ticks": 165120,
                    "time": 86,
                    "velocity": 1
                },
                {
                    "duration": 0.25,
                    "durationTicks": 480,
                    "midi": 69,
                    "name": "A4",
                    "ticks": 165600,
                    "time": 86.25,
                    "velocity": 1
                },
                {
                    "duration": 0.25,
                    "durationTicks": 480,
                    "midi": 69,
                    "name": "A4",
                    "ticks": 166080,
                    "time": 86.5,
                    "velocity": 1
                },
                {
                    "duration": 0.25,
                    "durationTicks": 480,
                    "midi": 69,
                    "name": "A4",
                    "ticks": 166560,
                    "time": 86.75,
                    "velocity": 1
                },
                {
                    "duration": 0.0625,
                    "durationTicks": 120,
                    "midi": 69,
                    "name": "A4",
                    "ticks": 167040,
                    "time": 87,
                    "velocity": 1
                },
                {
                    "duration": 0.25,
                    "durationTicks": 480,
                    "midi": 70,
                    "name": "A#4",
                    "ticks": 167040,
                    "time": 87,
                    "velocity": 1
                },
                {
                    "duration": 0.0625,
                    "durationTicks": 120,
                    "midi": 69,
                    "name": "A4",
                    "ticks": 167160,
                    "time": 87.0625,
                    "velocity": 1
                },
                {
                    "duration": 0.0625,
                    "durationTicks": 120,
                    "midi": 69,
                    "name": "A4",
                    "ticks": 167280,
                    "time": 87.125,
                    "velocity": 1
                },
                {
                    "duration": 0.25,
                    "durationTicks": 480,
                    "midi": 69,
                    "name": "A4",
                    "ticks": 167520,
                    "time": 87.25,
                    "velocity": 1
                },
                {
                    "duration": 0.25,
                    "durationTicks": 480,
                    "midi": 69,
                    "name": "A4",
                    "ticks": 168000,
                    "time": 87.5,
                    "velocity": 1
                },
                {
                    "duration": 0.25,
                    "durationTicks": 480,
                    "midi": 69,
                    "name": "A4",
                    "ticks": 168480,
                    "time": 87.75,
                    "velocity": 1
                },
                {
                    "duration": 0.25,
                    "durationTicks": 480,
                    "midi": 69,
                    "name": "A4",
                    "ticks": 168960,
                    "time": 88,
                    "velocity": 1
                },
                {
                    "duration": 0.25,
                    "durationTicks": 480,
                    "midi": 70,
                    "name": "A#4",
                    "ticks": 168960,
                    "time": 88,
                    "velocity": 1
                },
                {
                    "duration": 0.25,
                    "durationTicks": 480,
                    "midi": 69,
                    "name": "A4",
                    "ticks": 169440,
                    "time": 88.25,
                    "velocity": 1
                },
                {
                    "duration": 0.25,
                    "durationTicks": 480,
                    "midi": 69,
                    "name": "A4",
                    "ticks": 169920,
                    "time": 88.5,
                    "velocity": 1
                },
                {
                    "duration": 0.25,
                    "durationTicks": 480,
                    "midi": 69,
                    "name": "A4",
                    "ticks": 170400,
                    "time": 88.75,
                    "velocity": 1
                },
                {
                    "duration": 0.0625,
                    "durationTicks": 120,
                    "midi": 69,
                    "name": "A4",
                    "ticks": 170880,
                    "time": 89,
                    "velocity": 1
                },
                {
                    "duration": 0.25,
                    "durationTicks": 480,
                    "midi": 70,
                    "name": "A#4",
                    "ticks": 170880,
                    "time": 89,
                    "velocity": 1
                },
                {
                    "duration": 0.0625,
                    "durationTicks": 120,
                    "midi": 69,
                    "name": "A4",
                    "ticks": 171000,
                    "time": 89.0625,
                    "velocity": 1
                },
                {
                    "duration": 0.0625,
                    "durationTicks": 120,
                    "midi": 69,
                    "name": "A4",
                    "ticks": 171120,
                    "time": 89.125,
                    "velocity": 1
                },
                {
                    "duration": 0.25,
                    "durationTicks": 480,
                    "midi": 69,
                    "name": "A4",
                    "ticks": 171360,
                    "time": 89.25,
                    "velocity": 1
                },
                {
                    "duration": 0.25,
                    "durationTicks": 480,
                    "midi": 69,
                    "name": "A4",
                    "ticks": 171840,
                    "time": 89.5,
                    "velocity": 1
                },
                {
                    "duration": 0.25,
                    "durationTicks": 480,
                    "midi": 69,
                    "name": "A4",
                    "ticks": 172320,
                    "time": 89.75,
                    "velocity": 1
                },
                {
                    "duration": 0.25,
                    "durationTicks": 480,
                    "midi": 69,
                    "name": "A4",
                    "ticks": 172800,
                    "time": 90,
                    "velocity": 1
                },
                {
                    "duration": 0.25,
                    "durationTicks": 480,
                    "midi": 70,
                    "name": "A#4",
                    "ticks": 172800,
                    "time": 90,
                    "velocity": 1
                },
                {
                    "duration": 0.25,
                    "durationTicks": 480,
                    "midi": 69,
                    "name": "A4",
                    "ticks": 173280,
                    "time": 90.25,
                    "velocity": 1
                },
                {
                    "duration": 0.25,
                    "durationTicks": 480,
                    "midi": 69,
                    "name": "A4",
                    "ticks": 173760,
                    "time": 90.5,
                    "velocity": 1
                },
                {
                    "duration": 0.25,
                    "durationTicks": 480,
                    "midi": 69,
                    "name": "A4",
                    "ticks": 174240,
                    "time": 90.75,
                    "velocity": 1
                },
                {
                    "duration": 0.0625,
                    "durationTicks": 120,
                    "midi": 69,
                    "name": "A4",
                    "ticks": 174720,
                    "time": 91,
                    "velocity": 1
                },
                {
                    "duration": 0.25,
                    "durationTicks": 480,
                    "midi": 70,
                    "name": "A#4",
                    "ticks": 174720,
                    "time": 91,
                    "velocity": 1
                },
                {
                    "duration": 0.0625,
                    "durationTicks": 120,
                    "midi": 69,
                    "name": "A4",
                    "ticks": 174840,
                    "time": 91.0625,
                    "velocity": 1
                },
                {
                    "duration": 0.0625,
                    "durationTicks": 120,
                    "midi": 69,
                    "name": "A4",
                    "ticks": 174960,
                    "time": 91.125,
                    "velocity": 1
                },
                {
                    "duration": 0.25,
                    "durationTicks": 480,
                    "midi": 69,
                    "name": "A4",
                    "ticks": 175200,
                    "time": 91.25,
                    "velocity": 1
                },
                {
                    "duration": 0.25,
                    "durationTicks": 480,
                    "midi": 69,
                    "name": "A4",
                    "ticks": 175680,
                    "time": 91.5,
                    "velocity": 1
                },
                {
                    "duration": 0.25,
                    "durationTicks": 480,
                    "midi": 69,
                    "name": "A4",
                    "ticks": 176160,
                    "time": 91.75,
                    "velocity": 1
                },
                {
                    "duration": 0.25,
                    "durationTicks": 480,
                    "midi": 69,
                    "name": "A4",
                    "ticks": 176640,
                    "time": 92,
                    "velocity": 1
                },
                {
                    "duration": 0.25,
                    "durationTicks": 480,
                    "midi": 70,
                    "name": "A#4",
                    "ticks": 176640,
                    "time": 92,
                    "velocity": 1
                },
                {
                    "duration": 0.25,
                    "durationTicks": 480,
                    "midi": 69,
                    "name": "A4",
                    "ticks": 177120,
                    "time": 92.25,
                    "velocity": 1
                },
                {
                    "duration": 0.25,
                    "durationTicks": 480,
                    "midi": 69,
                    "name": "A4",
                    "ticks": 177600,
                    "time": 92.5,
                    "velocity": 1
                },
                {
                    "duration": 0.25,
                    "durationTicks": 480,
                    "midi": 69,
                    "name": "A4",
                    "ticks": 178080,
                    "time": 92.75,
                    "velocity": 1
                },
                {
                    "duration": 0.0625,
                    "durationTicks": 120,
                    "midi": 69,
                    "name": "A4",
                    "ticks": 178560,
                    "time": 93,
                    "velocity": 1
                },
                {
                    "duration": 0.25,
                    "durationTicks": 480,
                    "midi": 70,
                    "name": "A#4",
                    "ticks": 178560,
                    "time": 93,
                    "velocity": 1
                },
                {
                    "duration": 0.0625,
                    "durationTicks": 120,
                    "midi": 69,
                    "name": "A4",
                    "ticks": 178680,
                    "time": 93.0625,
                    "velocity": 1
                },
                {
                    "duration": 0.0625,
                    "durationTicks": 120,
                    "midi": 69,
                    "name": "A4",
                    "ticks": 178800,
                    "time": 93.125,
                    "velocity": 1
                },
                {
                    "duration": 0.25,
                    "durationTicks": 480,
                    "midi": 69,
                    "name": "A4",
                    "ticks": 179040,
                    "time": 93.25,
                    "velocity": 1
                },
                {
                    "duration": 0.25,
                    "durationTicks": 480,
                    "midi": 69,
                    "name": "A4",
                    "ticks": 179520,
                    "time": 93.5,
                    "velocity": 1
                },
                {
                    "duration": 0.25,
                    "durationTicks": 480,
                    "midi": 69,
                    "name": "A4",
                    "ticks": 180000,
                    "time": 93.75,
                    "velocity": 1
                },
                {
                    "duration": 0.25,
                    "durationTicks": 480,
                    "midi": 69,
                    "name": "A4",
                    "ticks": 180480,
                    "time": 94,
                    "velocity": 1
                },
                {
                    "duration": 0.25,
                    "durationTicks": 480,
                    "midi": 70,
                    "name": "A#4",
                    "ticks": 180480,
                    "time": 94,
                    "velocity": 1
                },
                {
                    "duration": 0.25,
                    "durationTicks": 480,
                    "midi": 69,
                    "name": "A4",
                    "ticks": 180960,
                    "time": 94.25,
                    "velocity": 1
                },
                {
                    "duration": 0.25,
                    "durationTicks": 480,
                    "midi": 69,
                    "name": "A4",
                    "ticks": 181440,
                    "time": 94.5,
                    "velocity": 1
                },
                {
                    "duration": 0.25,
                    "durationTicks": 480,
                    "midi": 69,
                    "name": "A4",
                    "ticks": 181920,
                    "time": 94.75,
                    "velocity": 1
                },
                {
                    "duration": 0.0625,
                    "durationTicks": 120,
                    "midi": 69,
                    "name": "A4",
                    "ticks": 182400,
                    "time": 95,
                    "velocity": 1
                },
                {
                    "duration": 0.25,
                    "durationTicks": 480,
                    "midi": 70,
                    "name": "A#4",
                    "ticks": 182400,
                    "time": 95,
                    "velocity": 1
                },
                {
                    "duration": 0.0625,
                    "durationTicks": 120,
                    "midi": 69,
                    "name": "A4",
                    "ticks": 182520,
                    "time": 95.0625,
                    "velocity": 1
                },
                {
                    "duration": 0.0625,
                    "durationTicks": 120,
                    "midi": 69,
                    "name": "A4",
                    "ticks": 182640,
                    "time": 95.125,
                    "velocity": 1
                },
                {
                    "duration": 0.25,
                    "durationTicks": 480,
                    "midi": 69,
                    "name": "A4",
                    "ticks": 182880,
                    "time": 95.25,
                    "velocity": 1
                },
                {
                    "duration": 0.25,
                    "durationTicks": 480,
                    "midi": 69,
                    "name": "A4",
                    "ticks": 183360,
                    "time": 95.5,
                    "velocity": 1
                },
                {
                    "duration": 0.25,
                    "durationTicks": 480,
                    "midi": 69,
                    "name": "A4",
                    "ticks": 183840,
                    "time": 95.75,
                    "velocity": 1
                },
                {
                    "duration": 0.25,
                    "durationTicks": 480,
                    "midi": 69,
                    "name": "A4",
                    "ticks": 184320,
                    "time": 96,
                    "velocity": 1
                },
                {
                    "duration": 0.25,
                    "durationTicks": 480,
                    "midi": 70,
                    "name": "A#4",
                    "ticks": 184320,
                    "time": 96,
                    "velocity": 1
                },
                {
                    "duration": 0.25,
                    "durationTicks": 480,
                    "midi": 69,
                    "name": "A4",
                    "ticks": 184800,
                    "time": 96.25,
                    "velocity": 1
                },
                {
                    "duration": 0.25,
                    "durationTicks": 480,
                    "midi": 69,
                    "name": "A4",
                    "ticks": 185280,
                    "time": 96.5,
                    "velocity": 1
                },
                {
                    "duration": 0.25,
                    "durationTicks": 480,
                    "midi": 69,
                    "name": "A4",
                    "ticks": 185760,
                    "time": 96.75,
                    "velocity": 1
                },
                {
                    "duration": 0.0625,
                    "durationTicks": 120,
                    "midi": 69,
                    "name": "A4",
                    "ticks": 186240,
                    "time": 97,
                    "velocity": 1
                },
                {
                    "duration": 0.25,
                    "durationTicks": 480,
                    "midi": 70,
                    "name": "A#4",
                    "ticks": 186240,
                    "time": 97,
                    "velocity": 1
                },
                {
                    "duration": 0.0625,
                    "durationTicks": 120,
                    "midi": 69,
                    "name": "A4",
                    "ticks": 186360,
                    "time": 97.0625,
                    "velocity": 1
                },
                {
                    "duration": 0.0625,
                    "durationTicks": 120,
                    "midi": 69,
                    "name": "A4",
                    "ticks": 186480,
                    "time": 97.125,
                    "velocity": 1
                },
                {
                    "duration": 0.25,
                    "durationTicks": 480,
                    "midi": 69,
                    "name": "A4",
                    "ticks": 186720,
                    "time": 97.25,
                    "velocity": 1
                },
                {
                    "duration": 0.25,
                    "durationTicks": 480,
                    "midi": 69,
                    "name": "A4",
                    "ticks": 187200,
                    "time": 97.5,
                    "velocity": 1
                },
                {
                    "duration": 0.25,
                    "durationTicks": 480,
                    "midi": 69,
                    "name": "A4",
                    "ticks": 187680,
                    "time": 97.75,
                    "velocity": 1
                },
                {
                    "duration": 0.25,
                    "durationTicks": 480,
                    "midi": 69,
                    "name": "A4",
                    "ticks": 188160,
                    "time": 98,
                    "velocity": 1
                },
                {
                    "duration": 0.25,
                    "durationTicks": 480,
                    "midi": 70,
                    "name": "A#4",
                    "ticks": 188160,
                    "time": 98,
                    "velocity": 1
                },
                {
                    "duration": 0.25,
                    "durationTicks": 480,
                    "midi": 69,
                    "name": "A4",
                    "ticks": 188640,
                    "time": 98.25,
                    "velocity": 1
                },
                {
                    "duration": 0.25,
                    "durationTicks": 480,
                    "midi": 69,
                    "name": "A4",
                    "ticks": 189120,
                    "time": 98.5,
                    "velocity": 1
                },
                {
                    "duration": 0.25,
                    "durationTicks": 480,
                    "midi": 69,
                    "name": "A4",
                    "ticks": 189600,
                    "time": 98.75,
                    "velocity": 1
                },
                {
                    "duration": 0.0625,
                    "durationTicks": 120,
                    "midi": 69,
                    "name": "A4",
                    "ticks": 190080,
                    "time": 99,
                    "velocity": 1
                },
                {
                    "duration": 0.25,
                    "durationTicks": 480,
                    "midi": 70,
                    "name": "A#4",
                    "ticks": 190080,
                    "time": 99,
                    "velocity": 1
                },
                {
                    "duration": 0.0625,
                    "durationTicks": 120,
                    "midi": 69,
                    "name": "A4",
                    "ticks": 190200,
                    "time": 99.0625,
                    "velocity": 1
                },
                {
                    "duration": 0.0625,
                    "durationTicks": 120,
                    "midi": 69,
                    "name": "A4",
                    "ticks": 190320,
                    "time": 99.125,
                    "velocity": 1
                },
                {
                    "duration": 0.25,
                    "durationTicks": 480,
                    "midi": 69,
                    "name": "A4",
                    "ticks": 190560,
                    "time": 99.25,
                    "velocity": 1
                },
                {
                    "duration": 0.25,
                    "durationTicks": 480,
                    "midi": 69,
                    "name": "A4",
                    "ticks": 191040,
                    "time": 99.5,
                    "velocity": 1
                },
                {
                    "duration": 0.25,
                    "durationTicks": 480,
                    "midi": 69,
                    "name": "A4",
                    "ticks": 191520,
                    "time": 99.75,
                    "velocity": 1
                },
                {
                    "duration": 0.25,
                    "durationTicks": 480,
                    "midi": 69,
                    "name": "A4",
                    "ticks": 192000,
                    "time": 100,
                    "velocity": 1
                },
                {
                    "duration": 0.25,
                    "durationTicks": 480,
                    "midi": 70,
                    "name": "A#4",
                    "ticks": 192000,
                    "time": 100,
                    "velocity": 1
                },
                {
                    "duration": 0.25,
                    "durationTicks": 480,
                    "midi": 69,
                    "name": "A4",
                    "ticks": 192480,
                    "time": 100.25,
                    "velocity": 1
                },
                {
                    "duration": 0.25,
                    "durationTicks": 480,
                    "midi": 69,
                    "name": "A4",
                    "ticks": 192960,
                    "time": 100.5,
                    "velocity": 1
                },
                {
                    "duration": 0.25,
                    "durationTicks": 480,
                    "midi": 69,
                    "name": "A4",
                    "ticks": 193440,
                    "time": 100.75,
                    "velocity": 1
                },
                {
                    "duration": 0.0625,
                    "durationTicks": 120,
                    "midi": 69,
                    "name": "A4",
                    "ticks": 193920,
                    "time": 101,
                    "velocity": 1
                },
                {
                    "duration": 0.25,
                    "durationTicks": 480,
                    "midi": 70,
                    "name": "A#4",
                    "ticks": 193920,
                    "time": 101,
                    "velocity": 1
                },
                {
                    "duration": 0.0625,
                    "durationTicks": 120,
                    "midi": 69,
                    "name": "A4",
                    "ticks": 194040,
                    "time": 101.0625,
                    "velocity": 1
                },
                {
                    "duration": 0.0625,
                    "durationTicks": 120,
                    "midi": 69,
                    "name": "A4",
                    "ticks": 194160,
                    "time": 101.125,
                    "velocity": 1
                },
                {
                    "duration": 0.25,
                    "durationTicks": 480,
                    "midi": 69,
                    "name": "A4",
                    "ticks": 194400,
                    "time": 101.25,
                    "velocity": 1
                },
                {
                    "duration": 0.25,
                    "durationTicks": 480,
                    "midi": 69,
                    "name": "A4",
                    "ticks": 194880,
                    "time": 101.5,
                    "velocity": 1
                },
                {
                    "duration": 0.25,
                    "durationTicks": 480,
                    "midi": 69,
                    "name": "A4",
                    "ticks": 195360,
                    "time": 101.75,
                    "velocity": 1
                },
                {
                    "duration": 0.25,
                    "durationTicks": 480,
                    "midi": 69,
                    "name": "A4",
                    "ticks": 195840,
                    "time": 102,
                    "velocity": 1
                },
                {
                    "duration": 0.25,
                    "durationTicks": 480,
                    "midi": 70,
                    "name": "A#4",
                    "ticks": 195840,
                    "time": 102,
                    "velocity": 1
                },
                {
                    "duration": 0.25,
                    "durationTicks": 480,
                    "midi": 69,
                    "name": "A4",
                    "ticks": 196320,
                    "time": 102.25,
                    "velocity": 1
                },
                {
                    "duration": 0.25,
                    "durationTicks": 480,
                    "midi": 69,
                    "name": "A4",
                    "ticks": 196800,
                    "time": 102.5,
                    "velocity": 1
                },
                {
                    "duration": 0.25,
                    "durationTicks": 480,
                    "midi": 69,
                    "name": "A4",
                    "ticks": 197280,
                    "time": 102.75,
                    "velocity": 1
                },
                {
                    "duration": 0.0625,
                    "durationTicks": 120,
                    "midi": 69,
                    "name": "A4",
                    "ticks": 197760,
                    "time": 103,
                    "velocity": 1
                },
                {
                    "duration": 0.25,
                    "durationTicks": 480,
                    "midi": 70,
                    "name": "A#4",
                    "ticks": 197760,
                    "time": 103,
                    "velocity": 1
                },
                {
                    "duration": 0.0625,
                    "durationTicks": 120,
                    "midi": 69,
                    "name": "A4",
                    "ticks": 197880,
                    "time": 103.0625,
                    "velocity": 1
                },
                {
                    "duration": 0.0625,
                    "durationTicks": 120,
                    "midi": 69,
                    "name": "A4",
                    "ticks": 198000,
                    "time": 103.125,
                    "velocity": 1
                },
                {
                    "duration": 0.25,
                    "durationTicks": 480,
                    "midi": 69,
                    "name": "A4",
                    "ticks": 198240,
                    "time": 103.25,
                    "velocity": 1
                },
                {
                    "duration": 0.25,
                    "durationTicks": 480,
                    "midi": 69,
                    "name": "A4",
                    "ticks": 198720,
                    "time": 103.5,
                    "velocity": 1
                },
                {
                    "duration": 0.25,
                    "durationTicks": 480,
                    "midi": 69,
                    "name": "A4",
                    "ticks": 199200,
                    "time": 103.75,
                    "velocity": 1
                },
                {
                    "duration": 0.25,
                    "durationTicks": 480,
                    "midi": 69,
                    "name": "A4",
                    "ticks": 199680,
                    "time": 104,
                    "velocity": 1
                },
                {
                    "duration": 0.25,
                    "durationTicks": 480,
                    "midi": 70,
                    "name": "A#4",
                    "ticks": 199680,
                    "time": 104,
                    "velocity": 1
                },
                {
                    "duration": 0.25,
                    "durationTicks": 480,
                    "midi": 69,
                    "name": "A4",
                    "ticks": 200160,
                    "time": 104.25,
                    "velocity": 1
                },
                {
                    "duration": 0.25,
                    "durationTicks": 480,
                    "midi": 69,
                    "name": "A4",
                    "ticks": 200640,
                    "time": 104.5,
                    "velocity": 1
                },
                {
                    "duration": 0.25,
                    "durationTicks": 480,
                    "midi": 69,
                    "name": "A4",
                    "ticks": 201120,
                    "time": 104.75,
                    "velocity": 1
                },
                {
                    "duration": 0.0625,
                    "durationTicks": 120,
                    "midi": 69,
                    "name": "A4",
                    "ticks": 201600,
                    "time": 105,
                    "velocity": 1
                },
                {
                    "duration": 0.25,
                    "durationTicks": 480,
                    "midi": 70,
                    "name": "A#4",
                    "ticks": 201600,
                    "time": 105,
                    "velocity": 1
                },
                {
                    "duration": 0.0625,
                    "durationTicks": 120,
                    "midi": 69,
                    "name": "A4",
                    "ticks": 201720,
                    "time": 105.0625,
                    "velocity": 1
                },
                {
                    "duration": 0.0625,
                    "durationTicks": 120,
                    "midi": 69,
                    "name": "A4",
                    "ticks": 201840,
                    "time": 105.125,
                    "velocity": 1
                },
                {
                    "duration": 0.25,
                    "durationTicks": 480,
                    "midi": 69,
                    "name": "A4",
                    "ticks": 202080,
                    "time": 105.25,
                    "velocity": 1
                },
                {
                    "duration": 0.25,
                    "durationTicks": 480,
                    "midi": 69,
                    "name": "A4",
                    "ticks": 202560,
                    "time": 105.5,
                    "velocity": 1
                },
                {
                    "duration": 0.25,
                    "durationTicks": 480,
                    "midi": 69,
                    "name": "A4",
                    "ticks": 203040,
                    "time": 105.75,
                    "velocity": 1
                },
                {
                    "duration": 0.25,
                    "durationTicks": 480,
                    "midi": 69,
                    "name": "A4",
                    "ticks": 203520,
                    "time": 106,
                    "velocity": 1
                },
                {
                    "duration": 0.25,
                    "durationTicks": 480,
                    "midi": 70,
                    "name": "A#4",
                    "ticks": 203520,
                    "time": 106,
                    "velocity": 1
                },
                {
                    "duration": 0.25,
                    "durationTicks": 480,
                    "midi": 69,
                    "name": "A4",
                    "ticks": 204000,
                    "time": 106.25,
                    "velocity": 1
                },
                {
                    "duration": 0.25,
                    "durationTicks": 480,
                    "midi": 69,
                    "name": "A4",
                    "ticks": 204480,
                    "time": 106.5,
                    "velocity": 1
                },
                {
                    "duration": 0.25,
                    "durationTicks": 480,
                    "midi": 69,
                    "name": "A4",
                    "ticks": 204960,
                    "time": 106.75,
                    "velocity": 1
                },
                {
                    "duration": 0.0625,
                    "durationTicks": 120,
                    "midi": 69,
                    "name": "A4",
                    "ticks": 205440,
                    "time": 107,
                    "velocity": 1
                },
                {
                    "duration": 0.25,
                    "durationTicks": 480,
                    "midi": 70,
                    "name": "A#4",
                    "ticks": 205440,
                    "time": 107,
                    "velocity": 1
                },
                {
                    "duration": 0.0625,
                    "durationTicks": 120,
                    "midi": 69,
                    "name": "A4",
                    "ticks": 205560,
                    "time": 107.0625,
                    "velocity": 1
                },
                {
                    "duration": 0.0625,
                    "durationTicks": 120,
                    "midi": 69,
                    "name": "A4",
                    "ticks": 205680,
                    "time": 107.125,
                    "velocity": 1
                },
                {
                    "duration": 0.25,
                    "durationTicks": 480,
                    "midi": 69,
                    "name": "A4",
                    "ticks": 205920,
                    "time": 107.25,
                    "velocity": 1
                },
                {
                    "duration": 0.25,
                    "durationTicks": 480,
                    "midi": 69,
                    "name": "A4",
                    "ticks": 206400,
                    "time": 107.5,
                    "velocity": 1
                },
                {
                    "duration": 0.25,
                    "durationTicks": 480,
                    "midi": 69,
                    "name": "A4",
                    "ticks": 206880,
                    "time": 107.75,
                    "velocity": 1
                },
                {
                    "duration": 0.25,
                    "durationTicks": 480,
                    "midi": 69,
                    "name": "A4",
                    "ticks": 207360,
                    "time": 108,
                    "velocity": 1
                },
                {
                    "duration": 0.25,
                    "durationTicks": 480,
                    "midi": 70,
                    "name": "A#4",
                    "ticks": 207360,
                    "time": 108,
                    "velocity": 1
                },
                {
                    "duration": 0.25,
                    "durationTicks": 480,
                    "midi": 69,
                    "name": "A4",
                    "ticks": 207840,
                    "time": 108.25,
                    "velocity": 1
                },
                {
                    "duration": 0.25,
                    "durationTicks": 480,
                    "midi": 69,
                    "name": "A4",
                    "ticks": 208320,
                    "time": 108.5,
                    "velocity": 1
                },
                {
                    "duration": 0.25,
                    "durationTicks": 480,
                    "midi": 69,
                    "name": "A4",
                    "ticks": 208800,
                    "time": 108.75,
                    "velocity": 1
                },
                {
                    "duration": 0.0625,
                    "durationTicks": 120,
                    "midi": 69,
                    "name": "A4",
                    "ticks": 209280,
                    "time": 109,
                    "velocity": 1
                },
                {
                    "duration": 0.25,
                    "durationTicks": 480,
                    "midi": 70,
                    "name": "A#4",
                    "ticks": 209280,
                    "time": 109,
                    "velocity": 1
                },
                {
                    "duration": 0.0625,
                    "durationTicks": 120,
                    "midi": 69,
                    "name": "A4",
                    "ticks": 209400,
                    "time": 109.0625,
                    "velocity": 1
                },
                {
                    "duration": 0.0625,
                    "durationTicks": 120,
                    "midi": 69,
                    "name": "A4",
                    "ticks": 209520,
                    "time": 109.125,
                    "velocity": 1
                },
                {
                    "duration": 0.25,
                    "durationTicks": 480,
                    "midi": 69,
                    "name": "A4",
                    "ticks": 209760,
                    "time": 109.25,
                    "velocity": 1
                },
                {
                    "duration": 0.25,
                    "durationTicks": 480,
                    "midi": 69,
                    "name": "A4",
                    "ticks": 210240,
                    "time": 109.5,
                    "velocity": 1
                },
                {
                    "duration": 0.25,
                    "durationTicks": 480,
                    "midi": 69,
                    "name": "A4",
                    "ticks": 210720,
                    "time": 109.75,
                    "velocity": 1
                },
                {
                    "duration": 0.25,
                    "durationTicks": 480,
                    "midi": 69,
                    "name": "A4",
                    "ticks": 211200,
                    "time": 110,
                    "velocity": 1
                },
                {
                    "duration": 0.25,
                    "durationTicks": 480,
                    "midi": 70,
                    "name": "A#4",
                    "ticks": 211200,
                    "time": 110,
                    "velocity": 1
                },
                {
                    "duration": 0.25,
                    "durationTicks": 480,
                    "midi": 69,
                    "name": "A4",
                    "ticks": 211680,
                    "time": 110.25,
                    "velocity": 1
                },
                {
                    "duration": 0.25,
                    "durationTicks": 480,
                    "midi": 69,
                    "name": "A4",
                    "ticks": 212160,
                    "time": 110.5,
                    "velocity": 1
                },
                {
                    "duration": 0.25,
                    "durationTicks": 480,
                    "midi": 69,
                    "name": "A4",
                    "ticks": 212640,
                    "time": 110.75,
                    "velocity": 1
                },
                {
                    "duration": 0.0625,
                    "durationTicks": 120,
                    "midi": 69,
                    "name": "A4",
                    "ticks": 213120,
                    "time": 111,
                    "velocity": 1
                },
                {
                    "duration": 0.25,
                    "durationTicks": 480,
                    "midi": 70,
                    "name": "A#4",
                    "ticks": 213120,
                    "time": 111,
                    "velocity": 1
                },
                {
                    "duration": 0.0625,
                    "durationTicks": 120,
                    "midi": 69,
                    "name": "A4",
                    "ticks": 213240,
                    "time": 111.0625,
                    "velocity": 1
                },
                {
                    "duration": 0.0625,
                    "durationTicks": 120,
                    "midi": 69,
                    "name": "A4",
                    "ticks": 213360,
                    "time": 111.125,
                    "velocity": 1
                },
                {
                    "duration": 0.25,
                    "durationTicks": 480,
                    "midi": 69,
                    "name": "A4",
                    "ticks": 213600,
                    "time": 111.25,
                    "velocity": 1
                },
                {
                    "duration": 0.25,
                    "durationTicks": 480,
                    "midi": 69,
                    "name": "A4",
                    "ticks": 214080,
                    "time": 111.5,
                    "velocity": 1
                },
                {
                    "duration": 0.25,
                    "durationTicks": 480,
                    "midi": 69,
                    "name": "A4",
                    "ticks": 214560,
                    "time": 111.75,
                    "velocity": 1
                },
                {
                    "duration": 0.25,
                    "durationTicks": 480,
                    "midi": 69,
                    "name": "A4",
                    "ticks": 215040,
                    "time": 112,
                    "velocity": 1
                },
                {
                    "duration": 0.25,
                    "durationTicks": 480,
                    "midi": 70,
                    "name": "A#4",
                    "ticks": 215040,
                    "time": 112,
                    "velocity": 1
                },
                {
                    "duration": 0.25,
                    "durationTicks": 480,
                    "midi": 69,
                    "name": "A4",
                    "ticks": 215520,
                    "time": 112.25,
                    "velocity": 1
                },
                {
                    "duration": 0.25,
                    "durationTicks": 480,
                    "midi": 69,
                    "name": "A4",
                    "ticks": 216000,
                    "time": 112.5,
                    "velocity": 1
                },
                {
                    "duration": 0.25,
                    "durationTicks": 480,
                    "midi": 69,
                    "name": "A4",
                    "ticks": 216480,
                    "time": 112.75,
                    "velocity": 1
                },
                {
                    "duration": 0.0625,
                    "durationTicks": 120,
                    "midi": 69,
                    "name": "A4",
                    "ticks": 216960,
                    "time": 113,
                    "velocity": 1
                },
                {
                    "duration": 0.25,
                    "durationTicks": 480,
                    "midi": 70,
                    "name": "A#4",
                    "ticks": 216960,
                    "time": 113,
                    "velocity": 1
                },
                {
                    "duration": 0.0625,
                    "durationTicks": 120,
                    "midi": 69,
                    "name": "A4",
                    "ticks": 217080,
                    "time": 113.0625,
                    "velocity": 1
                },
                {
                    "duration": 0.0625,
                    "durationTicks": 120,
                    "midi": 69,
                    "name": "A4",
                    "ticks": 217200,
                    "time": 113.125,
                    "velocity": 1
                },
                {
                    "duration": 0.25,
                    "durationTicks": 480,
                    "midi": 69,
                    "name": "A4",
                    "ticks": 217440,
                    "time": 113.25,
                    "velocity": 1
                },
                {
                    "duration": 0.25,
                    "durationTicks": 480,
                    "midi": 69,
                    "name": "A4",
                    "ticks": 217920,
                    "time": 113.5,
                    "velocity": 1
                },
                {
                    "duration": 0.25,
                    "durationTicks": 480,
                    "midi": 69,
                    "name": "A4",
                    "ticks": 218400,
                    "time": 113.75,
                    "velocity": 1
                },
                {
                    "duration": 0.25,
                    "durationTicks": 480,
                    "midi": 69,
                    "name": "A4",
                    "ticks": 218880,
                    "time": 114,
                    "velocity": 1
                },
                {
                    "duration": 0.25,
                    "durationTicks": 480,
                    "midi": 70,
                    "name": "A#4",
                    "ticks": 218880,
                    "time": 114,
                    "velocity": 1
                },
                {
                    "duration": 0.25,
                    "durationTicks": 480,
                    "midi": 69,
                    "name": "A4",
                    "ticks": 219360,
                    "time": 114.25,
                    "velocity": 1
                },
                {
                    "duration": 0.25,
                    "durationTicks": 480,
                    "midi": 69,
                    "name": "A4",
                    "ticks": 219840,
                    "time": 114.5,
                    "velocity": 1
                },
                {
                    "duration": 0.25,
                    "durationTicks": 480,
                    "midi": 69,
                    "name": "A4",
                    "ticks": 220320,
                    "time": 114.75,
                    "velocity": 1
                },
                {
                    "duration": 0.0625,
                    "durationTicks": 120,
                    "midi": 69,
                    "name": "A4",
                    "ticks": 220800,
                    "time": 115,
                    "velocity": 1
                },
                {
                    "duration": 0.25,
                    "durationTicks": 480,
                    "midi": 70,
                    "name": "A#4",
                    "ticks": 220800,
                    "time": 115,
                    "velocity": 1
                },
                {
                    "duration": 0.0625,
                    "durationTicks": 120,
                    "midi": 69,
                    "name": "A4",
                    "ticks": 220920,
                    "time": 115.0625,
                    "velocity": 1
                },
                {
                    "duration": 0.0625,
                    "durationTicks": 120,
                    "midi": 69,
                    "name": "A4",
                    "ticks": 221040,
                    "time": 115.125,
                    "velocity": 1
                },
                {
                    "duration": 0.25,
                    "durationTicks": 480,
                    "midi": 69,
                    "name": "A4",
                    "ticks": 221280,
                    "time": 115.25,
                    "velocity": 1
                },
                {
                    "duration": 0.25,
                    "durationTicks": 480,
                    "midi": 69,
                    "name": "A4",
                    "ticks": 221760,
                    "time": 115.5,
                    "velocity": 1
                },
                {
                    "duration": 0.25,
                    "durationTicks": 480,
                    "midi": 69,
                    "name": "A4",
                    "ticks": 222240,
                    "time": 115.75,
                    "velocity": 1
                },
                {
                    "duration": 0.25,
                    "durationTicks": 480,
                    "midi": 69,
                    "name": "A4",
                    "ticks": 222720,
                    "time": 116,
                    "velocity": 1
                },
                {
                    "duration": 0.25,
                    "durationTicks": 480,
                    "midi": 70,
                    "name": "A#4",
                    "ticks": 222720,
                    "time": 116,
                    "velocity": 1
                },
                {
                    "duration": 0.25,
                    "durationTicks": 480,
                    "midi": 69,
                    "name": "A4",
                    "ticks": 223200,
                    "time": 116.25,
                    "velocity": 1
                },
                {
                    "duration": 0.25,
                    "durationTicks": 480,
                    "midi": 69,
                    "name": "A4",
                    "ticks": 223680,
                    "time": 116.5,
                    "velocity": 1
                },
                {
                    "duration": 0.25,
                    "durationTicks": 480,
                    "midi": 69,
                    "name": "A4",
                    "ticks": 224160,
                    "time": 116.75,
                    "velocity": 1
                },
                {
                    "duration": 0.0625,
                    "durationTicks": 120,
                    "midi": 69,
                    "name": "A4",
                    "ticks": 224640,
                    "time": 117,
                    "velocity": 1
                },
                {
                    "duration": 0.25,
                    "durationTicks": 480,
                    "midi": 70,
                    "name": "A#4",
                    "ticks": 224640,
                    "time": 117,
                    "velocity": 1
                },
                {
                    "duration": 0.0625,
                    "durationTicks": 120,
                    "midi": 69,
                    "name": "A4",
                    "ticks": 224760,
                    "time": 117.0625,
                    "velocity": 1
                },
                {
                    "duration": 0.0625,
                    "durationTicks": 120,
                    "midi": 69,
                    "name": "A4",
                    "ticks": 224880,
                    "time": 117.125,
                    "velocity": 1
                },
                {
                    "duration": 0.25,
                    "durationTicks": 480,
                    "midi": 69,
                    "name": "A4",
                    "ticks": 225120,
                    "time": 117.25,
                    "velocity": 1
                },
                {
                    "duration": 0.25,
                    "durationTicks": 480,
                    "midi": 69,
                    "name": "A4",
                    "ticks": 225600,
                    "time": 117.5,
                    "velocity": 1
                },
                {
                    "duration": 0.25,
                    "durationTicks": 480,
                    "midi": 69,
                    "name": "A4",
                    "ticks": 226080,
                    "time": 117.75,
                    "velocity": 1
                },
                {
                    "duration": 0.25,
                    "durationTicks": 480,
                    "midi": 69,
                    "name": "A4",
                    "ticks": 226560,
                    "time": 118,
                    "velocity": 1
                },
                {
                    "duration": 0.25,
                    "durationTicks": 480,
                    "midi": 70,
                    "name": "A#4",
                    "ticks": 226560,
                    "time": 118,
                    "velocity": 1
                },
                {
                    "duration": 0.25,
                    "durationTicks": 480,
                    "midi": 69,
                    "name": "A4",
                    "ticks": 227040,
                    "time": 118.25,
                    "velocity": 1
                },
                {
                    "duration": 0.25,
                    "durationTicks": 480,
                    "midi": 69,
                    "name": "A4",
                    "ticks": 227520,
                    "time": 118.5,
                    "velocity": 1
                },
                {
                    "duration": 0.25,
                    "durationTicks": 480,
                    "midi": 69,
                    "name": "A4",
                    "ticks": 228000,
                    "time": 118.75,
                    "velocity": 1
                },
                {
                    "duration": 0.0625,
                    "durationTicks": 120,
                    "midi": 69,
                    "name": "A4",
                    "ticks": 228480,
                    "time": 119,
                    "velocity": 1
                },
                {
                    "duration": 0.25,
                    "durationTicks": 480,
                    "midi": 70,
                    "name": "A#4",
                    "ticks": 228480,
                    "time": 119,
                    "velocity": 1
                },
                {
                    "duration": 0.0625,
                    "durationTicks": 120,
                    "midi": 69,
                    "name": "A4",
                    "ticks": 228600,
                    "time": 119.0625,
                    "velocity": 1
                },
                {
                    "duration": 0.0625,
                    "durationTicks": 120,
                    "midi": 69,
                    "name": "A4",
                    "ticks": 228720,
                    "time": 119.125,
                    "velocity": 1
                },
                {
                    "duration": 0.25,
                    "durationTicks": 480,
                    "midi": 69,
                    "name": "A4",
                    "ticks": 228960,
                    "time": 119.25,
                    "velocity": 1
                },
                {
                    "duration": 0.25,
                    "durationTicks": 480,
                    "midi": 69,
                    "name": "A4",
                    "ticks": 229440,
                    "time": 119.5,
                    "velocity": 1
                },
                {
                    "duration": 0.25,
                    "durationTicks": 480,
                    "midi": 69,
                    "name": "A4",
                    "ticks": 229920,
                    "time": 119.75,
                    "velocity": 1
                },
                {
                    "duration": 0.25,
                    "durationTicks": 480,
                    "midi": 69,
                    "name": "A4",
                    "ticks": 230400,
                    "time": 120,
                    "velocity": 1
                },
                {
                    "duration": 0.25,
                    "durationTicks": 480,
                    "midi": 70,
                    "name": "A#4",
                    "ticks": 230400,
                    "time": 120,
                    "velocity": 1
                },
                {
                    "duration": 0.25,
                    "durationTicks": 480,
                    "midi": 69,
                    "name": "A4",
                    "ticks": 230880,
                    "time": 120.25,
                    "velocity": 1
                },
                {
                    "duration": 0.25,
                    "durationTicks": 480,
                    "midi": 69,
                    "name": "A4",
                    "ticks": 231360,
                    "time": 120.5,
                    "velocity": 1
                },
                {
                    "duration": 0.25,
                    "durationTicks": 480,
                    "midi": 69,
                    "name": "A4",
                    "ticks": 231840,
                    "time": 120.75,
                    "velocity": 1
                },
                {
                    "duration": 0.0625,
                    "durationTicks": 120,
                    "midi": 69,
                    "name": "A4",
                    "ticks": 232320,
                    "time": 121,
                    "velocity": 1
                },
                {
                    "duration": 0.25,
                    "durationTicks": 480,
                    "midi": 70,
                    "name": "A#4",
                    "ticks": 232320,
                    "time": 121,
                    "velocity": 1
                },
                {
                    "duration": 0.0625,
                    "durationTicks": 120,
                    "midi": 69,
                    "name": "A4",
                    "ticks": 232440,
                    "time": 121.0625,
                    "velocity": 1
                },
                {
                    "duration": 0.0625,
                    "durationTicks": 120,
                    "midi": 69,
                    "name": "A4",
                    "ticks": 232560,
                    "time": 121.125,
                    "velocity": 1
                },
                {
                    "duration": 0.25,
                    "durationTicks": 480,
                    "midi": 69,
                    "name": "A4",
                    "ticks": 232800,
                    "time": 121.25,
                    "velocity": 1
                },
                {
                    "duration": 0.25,
                    "durationTicks": 480,
                    "midi": 69,
                    "name": "A4",
                    "ticks": 233280,
                    "time": 121.5,
                    "velocity": 1
                },
                {
                    "duration": 0.25,
                    "durationTicks": 480,
                    "midi": 69,
                    "name": "A4",
                    "ticks": 233760,
                    "time": 121.75,
                    "velocity": 1
                },
                {
                    "duration": 0.25,
                    "durationTicks": 480,
                    "midi": 69,
                    "name": "A4",
                    "ticks": 234240,
                    "time": 122,
                    "velocity": 1
                },
                {
                    "duration": 0.25,
                    "durationTicks": 480,
                    "midi": 70,
                    "name": "A#4",
                    "ticks": 234240,
                    "time": 122,
                    "velocity": 1
                },
                {
                    "duration": 0.25,
                    "durationTicks": 480,
                    "midi": 69,
                    "name": "A4",
                    "ticks": 234720,
                    "time": 122.25,
                    "velocity": 1
                },
                {
                    "duration": 0.25,
                    "durationTicks": 480,
                    "midi": 69,
                    "name": "A4",
                    "ticks": 235200,
                    "time": 122.5,
                    "velocity": 1
                },
                {
                    "duration": 0.25,
                    "durationTicks": 480,
                    "midi": 69,
                    "name": "A4",
                    "ticks": 235680,
                    "time": 122.75,
                    "velocity": 1
                },
                {
                    "duration": 0.0625,
                    "durationTicks": 120,
                    "midi": 69,
                    "name": "A4",
                    "ticks": 236160,
                    "time": 123,
                    "velocity": 1
                },
                {
                    "duration": 0.25,
                    "durationTicks": 480,
                    "midi": 70,
                    "name": "A#4",
                    "ticks": 236160,
                    "time": 123,
                    "velocity": 1
                },
                {
                    "duration": 0.0625,
                    "durationTicks": 120,
                    "midi": 69,
                    "name": "A4",
                    "ticks": 236280,
                    "time": 123.0625,
                    "velocity": 1
                },
                {
                    "duration": 0.0625,
                    "durationTicks": 120,
                    "midi": 69,
                    "name": "A4",
                    "ticks": 236400,
                    "time": 123.125,
                    "velocity": 1
                },
                {
                    "duration": 0.25,
                    "durationTicks": 480,
                    "midi": 69,
                    "name": "A4",
                    "ticks": 236640,
                    "time": 123.25,
                    "velocity": 1
                },
                {
                    "duration": 0.25,
                    "durationTicks": 480,
                    "midi": 69,
                    "name": "A4",
                    "ticks": 237120,
                    "time": 123.5,
                    "velocity": 1
                },
                {
                    "duration": 0.25,
                    "durationTicks": 480,
                    "midi": 69,
                    "name": "A4",
                    "ticks": 237600,
                    "time": 123.75,
                    "velocity": 1
                },
                {
                    "duration": 0.25,
                    "durationTicks": 480,
                    "midi": 69,
                    "name": "A4",
                    "ticks": 238080,
                    "time": 124,
                    "velocity": 1
                },
                {
                    "duration": 0.25,
                    "durationTicks": 480,
                    "midi": 70,
                    "name": "A#4",
                    "ticks": 238080,
                    "time": 124,
                    "velocity": 1
                },
                {
                    "duration": 0.25,
                    "durationTicks": 480,
                    "midi": 69,
                    "name": "A4",
                    "ticks": 238560,
                    "time": 124.25,
                    "velocity": 1
                },
                {
                    "duration": 0.25,
                    "durationTicks": 480,
                    "midi": 69,
                    "name": "A4",
                    "ticks": 239040,
                    "time": 124.5,
                    "velocity": 1
                },
                {
                    "duration": 0.25,
                    "durationTicks": 480,
                    "midi": 69,
                    "name": "A4",
                    "ticks": 239520,
                    "time": 124.75,
                    "velocity": 1
                },
                {
                    "duration": 0.0625,
                    "durationTicks": 120,
                    "midi": 69,
                    "name": "A4",
                    "ticks": 240000,
                    "time": 125,
                    "velocity": 1
                },
                {
                    "duration": 0.25,
                    "durationTicks": 480,
                    "midi": 70,
                    "name": "A#4",
                    "ticks": 240000,
                    "time": 125,
                    "velocity": 1
                },
                {
                    "duration": 0.0625,
                    "durationTicks": 120,
                    "midi": 69,
                    "name": "A4",
                    "ticks": 240120,
                    "time": 125.0625,
                    "velocity": 1
                },
                {
                    "duration": 0.0625,
                    "durationTicks": 120,
                    "midi": 69,
                    "name": "A4",
                    "ticks": 240240,
                    "time": 125.125,
                    "velocity": 1
                },
                {
                    "duration": 0.25,
                    "durationTicks": 480,
                    "midi": 69,
                    "name": "A4",
                    "ticks": 240480,
                    "time": 125.25,
                    "velocity": 1
                },
                {
                    "duration": 0.25,
                    "durationTicks": 480,
                    "midi": 69,
                    "name": "A4",
                    "ticks": 240960,
                    "time": 125.5,
                    "velocity": 1
                },
                {
                    "duration": 0.25,
                    "durationTicks": 480,
                    "midi": 69,
                    "name": "A4",
                    "ticks": 241440,
                    "time": 125.75,
                    "velocity": 1
                },
                {
                    "duration": 0.25,
                    "durationTicks": 480,
                    "midi": 69,
                    "name": "A4",
                    "ticks": 241920,
                    "time": 126,
                    "velocity": 1
                },
                {
                    "duration": 0.25,
                    "durationTicks": 480,
                    "midi": 70,
                    "name": "A#4",
                    "ticks": 241920,
                    "time": 126,
                    "velocity": 1
                },
                {
                    "duration": 0.25,
                    "durationTicks": 480,
                    "midi": 69,
                    "name": "A4",
                    "ticks": 242400,
                    "time": 126.25,
                    "velocity": 1
                },
                {
                    "duration": 0.25,
                    "durationTicks": 480,
                    "midi": 69,
                    "name": "A4",
                    "ticks": 242880,
                    "time": 126.5,
                    "velocity": 1
                },
                {
                    "duration": 0.25,
                    "durationTicks": 480,
                    "midi": 69,
                    "name": "A4",
                    "ticks": 243360,
                    "time": 126.75,
                    "velocity": 1
                },
                {
                    "duration": 0.0625,
                    "durationTicks": 120,
                    "midi": 69,
                    "name": "A4",
                    "ticks": 243840,
                    "time": 127,
                    "velocity": 1
                },
                {
                    "duration": 0.25,
                    "durationTicks": 480,
                    "midi": 70,
                    "name": "A#4",
                    "ticks": 243840,
                    "time": 127,
                    "velocity": 1
                },
                {
                    "duration": 0.0625,
                    "durationTicks": 120,
                    "midi": 69,
                    "name": "A4",
                    "ticks": 243960,
                    "time": 127.0625,
                    "velocity": 1
                },
                {
                    "duration": 0.0625,
                    "durationTicks": 120,
                    "midi": 69,
                    "name": "A4",
                    "ticks": 244080,
                    "time": 127.125,
                    "velocity": 1
                },
                {
                    "duration": 0.25,
                    "durationTicks": 480,
                    "midi": 69,
                    "name": "A4",
                    "ticks": 244320,
                    "time": 127.25,
                    "velocity": 1
                },
                {
                    "duration": 0.25,
                    "durationTicks": 480,
                    "midi": 69,
                    "name": "A4",
                    "ticks": 244800,
                    "time": 127.5,
                    "velocity": 1
                },
                {
                    "duration": 0.25,
                    "durationTicks": 480,
                    "midi": 69,
                    "name": "A4",
                    "ticks": 245280,
                    "time": 127.75,
                    "velocity": 1
                },
                {
                    "duration": 0.25,
                    "durationTicks": 480,
                    "midi": 69,
                    "name": "A4",
                    "ticks": 245760,
                    "time": 128,
                    "velocity": 1
                },
                {
                    "duration": 0.25,
                    "durationTicks": 480,
                    "midi": 70,
                    "name": "A#4",
                    "ticks": 245760,
                    "time": 128,
                    "velocity": 1
                },
                {
                    "duration": 0.25,
                    "durationTicks": 480,
                    "midi": 69,
                    "name": "A4",
                    "ticks": 246240,
                    "time": 128.25,
                    "velocity": 1
                },
                {
                    "duration": 0.25,
                    "durationTicks": 480,
                    "midi": 69,
                    "name": "A4",
                    "ticks": 246720,
                    "time": 128.5,
                    "velocity": 1
                },
                {
                    "duration": 0.25,
                    "durationTicks": 480,
                    "midi": 69,
                    "name": "A4",
                    "ticks": 247200,
                    "time": 128.75,
                    "velocity": 1
                },
                {
                    "duration": 0.0625,
                    "durationTicks": 120,
                    "midi": 69,
                    "name": "A4",
                    "ticks": 247680,
                    "time": 129,
                    "velocity": 1
                },
                {
                    "duration": 0.25,
                    "durationTicks": 480,
                    "midi": 70,
                    "name": "A#4",
                    "ticks": 247680,
                    "time": 129,
                    "velocity": 1
                },
                {
                    "duration": 0.0625,
                    "durationTicks": 120,
                    "midi": 69,
                    "name": "A4",
                    "ticks": 247800,
                    "time": 129.0625,
                    "velocity": 1
                },
                {
                    "duration": 0.0625,
                    "durationTicks": 120,
                    "midi": 69,
                    "name": "A4",
                    "ticks": 247920,
                    "time": 129.125,
                    "velocity": 1
                },
                {
                    "duration": 0.25,
                    "durationTicks": 480,
                    "midi": 69,
                    "name": "A4",
                    "ticks": 248160,
                    "time": 129.25,
                    "velocity": 1
                },
                {
                    "duration": 0.25,
                    "durationTicks": 480,
                    "midi": 69,
                    "name": "A4",
                    "ticks": 248640,
                    "time": 129.5,
                    "velocity": 1
                },
                {
                    "duration": 0.25,
                    "durationTicks": 480,
                    "midi": 69,
                    "name": "A4",
                    "ticks": 249120,
                    "time": 129.75,
                    "velocity": 1
                },
                {
                    "duration": 0.25,
                    "durationTicks": 480,
                    "midi": 69,
                    "name": "A4",
                    "ticks": 249600,
                    "time": 130,
                    "velocity": 1
                },
                {
                    "duration": 0.25,
                    "durationTicks": 480,
                    "midi": 70,
                    "name": "A#4",
                    "ticks": 249600,
                    "time": 130,
                    "velocity": 1
                },
                {
                    "duration": 0.25,
                    "durationTicks": 480,
                    "midi": 69,
                    "name": "A4",
                    "ticks": 250080,
                    "time": 130.25,
                    "velocity": 1
                },
                {
                    "duration": 0.25,
                    "durationTicks": 480,
                    "midi": 69,
                    "name": "A4",
                    "ticks": 250560,
                    "time": 130.5,
                    "velocity": 1
                },
                {
                    "duration": 0.25,
                    "durationTicks": 480,
                    "midi": 69,
                    "name": "A4",
                    "ticks": 251040,
                    "time": 130.75,
                    "velocity": 1
                },
                {
                    "duration": 0.0625,
                    "durationTicks": 120,
                    "midi": 69,
                    "name": "A4",
                    "ticks": 251520,
                    "time": 131,
                    "velocity": 1
                },
                {
                    "duration": 0.25,
                    "durationTicks": 480,
                    "midi": 70,
                    "name": "A#4",
                    "ticks": 251520,
                    "time": 131,
                    "velocity": 1
                },
                {
                    "duration": 0.0625,
                    "durationTicks": 120,
                    "midi": 69,
                    "name": "A4",
                    "ticks": 251640,
                    "time": 131.0625,
                    "velocity": 1
                },
                {
                    "duration": 0.0625,
                    "durationTicks": 120,
                    "midi": 69,
                    "name": "A4",
                    "ticks": 251760,
                    "time": 131.125,
                    "velocity": 1
                },
                {
                    "duration": 0.25,
                    "durationTicks": 480,
                    "midi": 69,
                    "name": "A4",
                    "ticks": 252000,
                    "time": 131.25,
                    "velocity": 1
                },
                {
                    "duration": 0.25,
                    "durationTicks": 480,
                    "midi": 69,
                    "name": "A4",
                    "ticks": 252480,
                    "time": 131.5,
                    "velocity": 1
                },
                {
                    "duration": 0.25,
                    "durationTicks": 480,
                    "midi": 69,
                    "name": "A4",
                    "ticks": 252960,
                    "time": 131.75,
                    "velocity": 1
                },
                {
                    "duration": 0.25,
                    "durationTicks": 480,
                    "midi": 69,
                    "name": "A4",
                    "ticks": 253440,
                    "time": 132,
                    "velocity": 1
                },
                {
                    "duration": 0.25,
                    "durationTicks": 480,
                    "midi": 70,
                    "name": "A#4",
                    "ticks": 253440,
                    "time": 132,
                    "velocity": 1
                },
                {
                    "duration": 0.25,
                    "durationTicks": 480,
                    "midi": 69,
                    "name": "A4",
                    "ticks": 253920,
                    "time": 132.25,
                    "velocity": 1
                },
                {
                    "duration": 0.25,
                    "durationTicks": 480,
                    "midi": 69,
                    "name": "A4",
                    "ticks": 254400,
                    "time": 132.5,
                    "velocity": 1
                },
                {
                    "duration": 0.25,
                    "durationTicks": 480,
                    "midi": 69,
                    "name": "A4",
                    "ticks": 254880,
                    "time": 132.75,
                    "velocity": 1
                },
                {
                    "duration": 0.0625,
                    "durationTicks": 120,
                    "midi": 69,
                    "name": "A4",
                    "ticks": 255360,
                    "time": 133,
                    "velocity": 1
                },
                {
                    "duration": 0.25,
                    "durationTicks": 480,
                    "midi": 70,
                    "name": "A#4",
                    "ticks": 255360,
                    "time": 133,
                    "velocity": 1
                },
                {
                    "duration": 0.0625,
                    "durationTicks": 120,
                    "midi": 69,
                    "name": "A4",
                    "ticks": 255480,
                    "time": 133.0625,
                    "velocity": 1
                },
                {
                    "duration": 0.0625,
                    "durationTicks": 120,
                    "midi": 69,
                    "name": "A4",
                    "ticks": 255600,
                    "time": 133.125,
                    "velocity": 1
                },
                {
                    "duration": 0.25,
                    "durationTicks": 480,
                    "midi": 69,
                    "name": "A4",
                    "ticks": 255840,
                    "time": 133.25,
                    "velocity": 1
                },
                {
                    "duration": 0.25,
                    "durationTicks": 480,
                    "midi": 69,
                    "name": "A4",
                    "ticks": 256320,
                    "time": 133.5,
                    "velocity": 1
                },
                {
                    "duration": 0.25,
                    "durationTicks": 480,
                    "midi": 69,
                    "name": "A4",
                    "ticks": 256800,
                    "time": 133.75,
                    "velocity": 1
                },
                {
                    "duration": 0.25,
                    "durationTicks": 480,
                    "midi": 69,
                    "name": "A4",
                    "ticks": 257280,
                    "time": 134,
                    "velocity": 1
                },
                {
                    "duration": 0.25,
                    "durationTicks": 480,
                    "midi": 70,
                    "name": "A#4",
                    "ticks": 257280,
                    "time": 134,
                    "velocity": 1
                },
                {
                    "duration": 0.25,
                    "durationTicks": 480,
                    "midi": 69,
                    "name": "A4",
                    "ticks": 257760,
                    "time": 134.25,
                    "velocity": 1
                },
                {
                    "duration": 0.25,
                    "durationTicks": 480,
                    "midi": 69,
                    "name": "A4",
                    "ticks": 258240,
                    "time": 134.5,
                    "velocity": 1
                },
                {
                    "duration": 0.25,
                    "durationTicks": 480,
                    "midi": 69,
                    "name": "A4",
                    "ticks": 258720,
                    "time": 134.75,
                    "velocity": 1
                },
                {
                    "duration": 0.0625,
                    "durationTicks": 120,
                    "midi": 69,
                    "name": "A4",
                    "ticks": 259200,
                    "time": 135,
                    "velocity": 1
                },
                {
                    "duration": 0.25,
                    "durationTicks": 480,
                    "midi": 70,
                    "name": "A#4",
                    "ticks": 259200,
                    "time": 135,
                    "velocity": 1
                },
                {
                    "duration": 0.0625,
                    "durationTicks": 120,
                    "midi": 69,
                    "name": "A4",
                    "ticks": 259320,
                    "time": 135.0625,
                    "velocity": 1
                },
                {
                    "duration": 0.0625,
                    "durationTicks": 120,
                    "midi": 69,
                    "name": "A4",
                    "ticks": 259440,
                    "time": 135.125,
                    "velocity": 1
                },
                {
                    "duration": 0.25,
                    "durationTicks": 480,
                    "midi": 69,
                    "name": "A4",
                    "ticks": 259680,
                    "time": 135.25,
                    "velocity": 1
                },
                {
                    "duration": 0.25,
                    "durationTicks": 480,
                    "midi": 69,
                    "name": "A4",
                    "ticks": 260160,
                    "time": 135.5,
                    "velocity": 1
                },
                {
                    "duration": 0.25,
                    "durationTicks": 480,
                    "midi": 69,
                    "name": "A4",
                    "ticks": 260640,
                    "time": 135.75,
                    "velocity": 1
                },
                {
                    "duration": 0.25,
                    "durationTicks": 480,
                    "midi": 69,
                    "name": "A4",
                    "ticks": 261120,
                    "time": 136,
                    "velocity": 1
                },
                {
                    "duration": 0.25,
                    "durationTicks": 480,
                    "midi": 70,
                    "name": "A#4",
                    "ticks": 261120,
                    "time": 136,
                    "velocity": 1
                },
                {
                    "duration": 0.25,
                    "durationTicks": 480,
                    "midi": 69,
                    "name": "A4",
                    "ticks": 261600,
                    "time": 136.25,
                    "velocity": 1
                },
                {
                    "duration": 0.25,
                    "durationTicks": 480,
                    "midi": 69,
                    "name": "A4",
                    "ticks": 262080,
                    "time": 136.5,
                    "velocity": 1
                },
                {
                    "duration": 0.25,
                    "durationTicks": 480,
                    "midi": 69,
                    "name": "A4",
                    "ticks": 262560,
                    "time": 136.75,
                    "velocity": 1
                },
                {
                    "duration": 0.0625,
                    "durationTicks": 120,
                    "midi": 69,
                    "name": "A4",
                    "ticks": 263040,
                    "time": 137,
                    "velocity": 1
                },
                {
                    "duration": 0.25,
                    "durationTicks": 480,
                    "midi": 70,
                    "name": "A#4",
                    "ticks": 263040,
                    "time": 137,
                    "velocity": 1
                },
                {
                    "duration": 0.0625,
                    "durationTicks": 120,
                    "midi": 69,
                    "name": "A4",
                    "ticks": 263160,
                    "time": 137.0625,
                    "velocity": 1
                },
                {
                    "duration": 0.0625,
                    "durationTicks": 120,
                    "midi": 69,
                    "name": "A4",
                    "ticks": 263280,
                    "time": 137.125,
                    "velocity": 1
                },
                {
                    "duration": 0.25,
                    "durationTicks": 480,
                    "midi": 69,
                    "name": "A4",
                    "ticks": 263520,
                    "time": 137.25,
                    "velocity": 1
                },
                {
                    "duration": 0.25,
                    "durationTicks": 480,
                    "midi": 69,
                    "name": "A4",
                    "ticks": 264000,
                    "time": 137.5,
                    "velocity": 1
                },
                {
                    "duration": 0.25,
                    "durationTicks": 480,
                    "midi": 69,
                    "name": "A4",
                    "ticks": 264480,
                    "time": 137.75,
                    "velocity": 1
                },
                {
                    "duration": 0.25,
                    "durationTicks": 480,
                    "midi": 69,
                    "name": "A4",
                    "ticks": 264960,
                    "time": 138,
                    "velocity": 1
                },
                {
                    "duration": 0.25,
                    "durationTicks": 480,
                    "midi": 70,
                    "name": "A#4",
                    "ticks": 264960,
                    "time": 138,
                    "velocity": 1
                },
                {
                    "duration": 0.25,
                    "durationTicks": 480,
                    "midi": 69,
                    "name": "A4",
                    "ticks": 265440,
                    "time": 138.25,
                    "velocity": 1
                },
                {
                    "duration": 0.25,
                    "durationTicks": 480,
                    "midi": 69,
                    "name": "A4",
                    "ticks": 265920,
                    "time": 138.5,
                    "velocity": 1
                },
                {
                    "duration": 0.25,
                    "durationTicks": 480,
                    "midi": 69,
                    "name": "A4",
                    "ticks": 266400,
                    "time": 138.75,
                    "velocity": 1
                },
                {
                    "duration": 0.0625,
                    "durationTicks": 120,
                    "midi": 69,
                    "name": "A4",
                    "ticks": 266880,
                    "time": 139,
                    "velocity": 1
                },
                {
                    "duration": 0.25,
                    "durationTicks": 480,
                    "midi": 70,
                    "name": "A#4",
                    "ticks": 266880,
                    "time": 139,
                    "velocity": 1
                },
                {
                    "duration": 0.0625,
                    "durationTicks": 120,
                    "midi": 69,
                    "name": "A4",
                    "ticks": 267000,
                    "time": 139.0625,
                    "velocity": 1
                },
                {
                    "duration": 0.0625,
                    "durationTicks": 120,
                    "midi": 69,
                    "name": "A4",
                    "ticks": 267120,
                    "time": 139.125,
                    "velocity": 1
                },
                {
                    "duration": 0.25,
                    "durationTicks": 480,
                    "midi": 69,
                    "name": "A4",
                    "ticks": 267360,
                    "time": 139.25,
                    "velocity": 1
                },
                {
                    "duration": 0.25,
                    "durationTicks": 480,
                    "midi": 69,
                    "name": "A4",
                    "ticks": 267840,
                    "time": 139.5,
                    "velocity": 1
                },
                {
                    "duration": 0.25,
                    "durationTicks": 480,
                    "midi": 69,
                    "name": "A4",
                    "ticks": 268320,
                    "time": 139.75,
                    "velocity": 1
                },
                {
                    "duration": 0.25,
                    "durationTicks": 480,
                    "midi": 69,
                    "name": "A4",
                    "ticks": 268800,
                    "time": 140,
                    "velocity": 1
                },
                {
                    "duration": 0.25,
                    "durationTicks": 480,
                    "midi": 70,
                    "name": "A#4",
                    "ticks": 268800,
                    "time": 140,
                    "velocity": 1
                },
                {
                    "duration": 0.25,
                    "durationTicks": 480,
                    "midi": 69,
                    "name": "A4",
                    "ticks": 269280,
                    "time": 140.25,
                    "velocity": 1
                },
                {
                    "duration": 0.25,
                    "durationTicks": 480,
                    "midi": 69,
                    "name": "A4",
                    "ticks": 269760,
                    "time": 140.5,
                    "velocity": 1
                },
                {
                    "duration": 0.25,
                    "durationTicks": 480,
                    "midi": 69,
                    "name": "A4",
                    "ticks": 270240,
                    "time": 140.75,
                    "velocity": 1
                },
                {
                    "duration": 0.0625,
                    "durationTicks": 120,
                    "midi": 69,
                    "name": "A4",
                    "ticks": 270720,
                    "time": 141,
                    "velocity": 1
                },
                {
                    "duration": 0.25,
                    "durationTicks": 480,
                    "midi": 70,
                    "name": "A#4",
                    "ticks": 270720,
                    "time": 141,
                    "velocity": 1
                },
                {
                    "duration": 0.0625,
                    "durationTicks": 120,
                    "midi": 69,
                    "name": "A4",
                    "ticks": 270840,
                    "time": 141.0625,
                    "velocity": 1
                },
                {
                    "duration": 0.0625,
                    "durationTicks": 120,
                    "midi": 69,
                    "name": "A4",
                    "ticks": 270960,
                    "time": 141.125,
                    "velocity": 1
                },
                {
                    "duration": 0.25,
                    "durationTicks": 480,
                    "midi": 69,
                    "name": "A4",
                    "ticks": 271200,
                    "time": 141.25,
                    "velocity": 1
                },
                {
                    "duration": 0.25,
                    "durationTicks": 480,
                    "midi": 69,
                    "name": "A4",
                    "ticks": 271680,
                    "time": 141.5,
                    "velocity": 1
                },
                {
                    "duration": 0.25,
                    "durationTicks": 480,
                    "midi": 69,
                    "name": "A4",
                    "ticks": 272160,
                    "time": 141.75,
                    "velocity": 1
                },
                {
                    "duration": 0.25,
                    "durationTicks": 480,
                    "midi": 69,
                    "name": "A4",
                    "ticks": 272640,
                    "time": 142,
                    "velocity": 1
                },
                {
                    "duration": 0.25,
                    "durationTicks": 480,
                    "midi": 70,
                    "name": "A#4",
                    "ticks": 272640,
                    "time": 142,
                    "velocity": 1
                },
                {
                    "duration": 0.25,
                    "durationTicks": 480,
                    "midi": 69,
                    "name": "A4",
                    "ticks": 273120,
                    "time": 142.25,
                    "velocity": 1
                },
                {
                    "duration": 0.25,
                    "durationTicks": 480,
                    "midi": 69,
                    "name": "A4",
                    "ticks": 273600,
                    "time": 142.5,
                    "velocity": 1
                },
                {
                    "duration": 0.25,
                    "durationTicks": 480,
                    "midi": 69,
                    "name": "A4",
                    "ticks": 274080,
                    "time": 142.75,
                    "velocity": 1
                },
                {
                    "duration": 0.0625,
                    "durationTicks": 120,
                    "midi": 69,
                    "name": "A4",
                    "ticks": 274560,
                    "time": 143,
                    "velocity": 1
                },
                {
                    "duration": 0.25,
                    "durationTicks": 480,
                    "midi": 70,
                    "name": "A#4",
                    "ticks": 274560,
                    "time": 143,
                    "velocity": 1
                },
                {
                    "duration": 0.0625,
                    "durationTicks": 120,
                    "midi": 69,
                    "name": "A4",
                    "ticks": 274680,
                    "time": 143.0625,
                    "velocity": 1
                },
                {
                    "duration": 0.0625,
                    "durationTicks": 120,
                    "midi": 69,
                    "name": "A4",
                    "ticks": 274800,
                    "time": 143.125,
                    "velocity": 1
                },
                {
                    "duration": 0.25,
                    "durationTicks": 480,
                    "midi": 69,
                    "name": "A4",
                    "ticks": 275040,
                    "time": 143.25,
                    "velocity": 1
                },
                {
                    "duration": 0.25,
                    "durationTicks": 480,
                    "midi": 69,
                    "name": "A4",
                    "ticks": 275520,
                    "time": 143.5,
                    "velocity": 1
                },
                {
                    "duration": 0.25,
                    "durationTicks": 480,
                    "midi": 69,
                    "name": "A4",
                    "ticks": 276000,
                    "time": 143.75,
                    "velocity": 1
                },
                {
                    "duration": 0.25,
                    "durationTicks": 480,
                    "midi": 69,
                    "name": "A4",
                    "ticks": 276480,
                    "time": 144,
                    "velocity": 1
                },
                {
                    "duration": 0.25,
                    "durationTicks": 480,
                    "midi": 70,
                    "name": "A#4",
                    "ticks": 276480,
                    "time": 144,
                    "velocity": 1
                },
                {
                    "duration": 0.25,
                    "durationTicks": 480,
                    "midi": 69,
                    "name": "A4",
                    "ticks": 276960,
                    "time": 144.25,
                    "velocity": 1
                },
                {
                    "duration": 0.25,
                    "durationTicks": 480,
                    "midi": 69,
                    "name": "A4",
                    "ticks": 277440,
                    "time": 144.5,
                    "velocity": 1
                },
                {
                    "duration": 0.25,
                    "durationTicks": 480,
                    "midi": 69,
                    "name": "A4",
                    "ticks": 277920,
                    "time": 144.75,
                    "velocity": 1
                },
                {
                    "duration": 0.0625,
                    "durationTicks": 120,
                    "midi": 69,
                    "name": "A4",
                    "ticks": 278400,
                    "time": 145,
                    "velocity": 1
                },
                {
                    "duration": 0.25,
                    "durationTicks": 480,
                    "midi": 70,
                    "name": "A#4",
                    "ticks": 278400,
                    "time": 145,
                    "velocity": 1
                },
                {
                    "duration": 0.0625,
                    "durationTicks": 120,
                    "midi": 69,
                    "name": "A4",
                    "ticks": 278520,
                    "time": 145.0625,
                    "velocity": 1
                },
                {
                    "duration": 0.0625,
                    "durationTicks": 120,
                    "midi": 69,
                    "name": "A4",
                    "ticks": 278640,
                    "time": 145.125,
                    "velocity": 1
                },
                {
                    "duration": 0.25,
                    "durationTicks": 480,
                    "midi": 69,
                    "name": "A4",
                    "ticks": 278880,
                    "time": 145.25,
                    "velocity": 1
                },
                {
                    "duration": 0.25,
                    "durationTicks": 480,
                    "midi": 69,
                    "name": "A4",
                    "ticks": 279360,
                    "time": 145.5,
                    "velocity": 1
                },
                {
                    "duration": 0.25,
                    "durationTicks": 480,
                    "midi": 69,
                    "name": "A4",
                    "ticks": 279840,
                    "time": 145.75,
                    "velocity": 1
                },
                {
                    "duration": 0.25,
                    "durationTicks": 480,
                    "midi": 69,
                    "name": "A4",
                    "ticks": 280320,
                    "time": 146,
                    "velocity": 1
                },
                {
                    "duration": 0.25,
                    "durationTicks": 480,
                    "midi": 70,
                    "name": "A#4",
                    "ticks": 280320,
                    "time": 146,
                    "velocity": 1
                },
                {
                    "duration": 0.25,
                    "durationTicks": 480,
                    "midi": 69,
                    "name": "A4",
                    "ticks": 280800,
                    "time": 146.25,
                    "velocity": 1
                },
                {
                    "duration": 0.25,
                    "durationTicks": 480,
                    "midi": 69,
                    "name": "A4",
                    "ticks": 281280,
                    "time": 146.5,
                    "velocity": 1
                },
                {
                    "duration": 0.25,
                    "durationTicks": 480,
                    "midi": 69,
                    "name": "A4",
                    "ticks": 281760,
                    "time": 146.75,
                    "velocity": 1
                },
                {
                    "duration": 0.0625,
                    "durationTicks": 120,
                    "midi": 69,
                    "name": "A4",
                    "ticks": 282240,
                    "time": 147,
                    "velocity": 1
                },
                {
                    "duration": 0.25,
                    "durationTicks": 480,
                    "midi": 70,
                    "name": "A#4",
                    "ticks": 282240,
                    "time": 147,
                    "velocity": 1
                },
                {
                    "duration": 0.0625,
                    "durationTicks": 120,
                    "midi": 69,
                    "name": "A4",
                    "ticks": 282360,
                    "time": 147.0625,
                    "velocity": 1
                },
                {
                    "duration": 0.0625,
                    "durationTicks": 120,
                    "midi": 69,
                    "name": "A4",
                    "ticks": 282480,
                    "time": 147.125,
                    "velocity": 1
                },
                {
                    "duration": 0.25,
                    "durationTicks": 480,
                    "midi": 69,
                    "name": "A4",
                    "ticks": 282720,
                    "time": 147.25,
                    "velocity": 1
                },
                {
                    "duration": 0.25,
                    "durationTicks": 480,
                    "midi": 69,
                    "name": "A4",
                    "ticks": 283200,
                    "time": 147.5,
                    "velocity": 1
                },
                {
                    "duration": 0.25,
                    "durationTicks": 480,
                    "midi": 69,
                    "name": "A4",
                    "ticks": 283680,
                    "time": 147.75,
                    "velocity": 1
                },
                {
                    "duration": 0.25,
                    "durationTicks": 480,
                    "midi": 69,
                    "name": "A4",
                    "ticks": 284160,
                    "time": 148,
                    "velocity": 1
                },
                {
                    "duration": 0.25,
                    "durationTicks": 480,
                    "midi": 70,
                    "name": "A#4",
                    "ticks": 284160,
                    "time": 148,
                    "velocity": 1
                },
                {
                    "duration": 0.25,
                    "durationTicks": 480,
                    "midi": 69,
                    "name": "A4",
                    "ticks": 284640,
                    "time": 148.25,
                    "velocity": 1
                },
                {
                    "duration": 0.25,
                    "durationTicks": 480,
                    "midi": 69,
                    "name": "A4",
                    "ticks": 285120,
                    "time": 148.5,
                    "velocity": 1
                },
                {
                    "duration": 0.25,
                    "durationTicks": 480,
                    "midi": 69,
                    "name": "A4",
                    "ticks": 285600,
                    "time": 148.75,
                    "velocity": 1
                },
                {
                    "duration": 0.0625,
                    "durationTicks": 120,
                    "midi": 69,
                    "name": "A4",
                    "ticks": 286080,
                    "time": 149,
                    "velocity": 1
                },
                {
                    "duration": 0.25,
                    "durationTicks": 480,
                    "midi": 70,
                    "name": "A#4",
                    "ticks": 286080,
                    "time": 149,
                    "velocity": 1
                },
                {
                    "duration": 0.0625,
                    "durationTicks": 120,
                    "midi": 69,
                    "name": "A4",
                    "ticks": 286200,
                    "time": 149.0625,
                    "velocity": 1
                },
                {
                    "duration": 0.0625,
                    "durationTicks": 120,
                    "midi": 69,
                    "name": "A4",
                    "ticks": 286320,
                    "time": 149.125,
                    "velocity": 1
                },
                {
                    "duration": 0.25,
                    "durationTicks": 480,
                    "midi": 69,
                    "name": "A4",
                    "ticks": 286560,
                    "time": 149.25,
                    "velocity": 1
                },
                {
                    "duration": 0.25,
                    "durationTicks": 480,
                    "midi": 69,
                    "name": "A4",
                    "ticks": 287040,
                    "time": 149.5,
                    "velocity": 1
                },
                {
                    "duration": 0.25,
                    "durationTicks": 480,
                    "midi": 69,
                    "name": "A4",
                    "ticks": 287520,
                    "time": 149.75,
                    "velocity": 1
                },
                {
                    "duration": 0.25,
                    "durationTicks": 480,
                    "midi": 69,
                    "name": "A4",
                    "ticks": 288000,
                    "time": 150,
                    "velocity": 1
                },
                {
                    "duration": 0.25,
                    "durationTicks": 480,
                    "midi": 70,
                    "name": "A#4",
                    "ticks": 288000,
                    "time": 150,
                    "velocity": 1
                },
                {
                    "duration": 0.25,
                    "durationTicks": 480,
                    "midi": 69,
                    "name": "A4",
                    "ticks": 288480,
                    "time": 150.25,
                    "velocity": 1
                },
                {
                    "duration": 0.25,
                    "durationTicks": 480,
                    "midi": 69,
                    "name": "A4",
                    "ticks": 288960,
                    "time": 150.5,
                    "velocity": 1
                },
                {
                    "duration": 0.25,
                    "durationTicks": 480,
                    "midi": 69,
                    "name": "A4",
                    "ticks": 289440,
                    "time": 150.75,
                    "velocity": 1
                },
                {
                    "duration": 0.0625,
                    "durationTicks": 120,
                    "midi": 69,
                    "name": "A4",
                    "ticks": 289920,
                    "time": 151,
                    "velocity": 1
                },
                {
                    "duration": 0.25,
                    "durationTicks": 480,
                    "midi": 70,
                    "name": "A#4",
                    "ticks": 289920,
                    "time": 151,
                    "velocity": 1
                },
                {
                    "duration": 0.0625,
                    "durationTicks": 120,
                    "midi": 69,
                    "name": "A4",
                    "ticks": 290040,
                    "time": 151.0625,
                    "velocity": 1
                },
                {
                    "duration": 0.0625,
                    "durationTicks": 120,
                    "midi": 69,
                    "name": "A4",
                    "ticks": 290160,
                    "time": 151.125,
                    "velocity": 1
                },
                {
                    "duration": 0.25,
                    "durationTicks": 480,
                    "midi": 69,
                    "name": "A4",
                    "ticks": 290400,
                    "time": 151.25,
                    "velocity": 1
                },
                {
                    "duration": 0.25,
                    "durationTicks": 480,
                    "midi": 69,
                    "name": "A4",
                    "ticks": 290880,
                    "time": 151.5,
                    "velocity": 1
                },
                {
                    "duration": 0.25,
                    "durationTicks": 480,
                    "midi": 69,
                    "name": "A4",
                    "ticks": 291360,
                    "time": 151.75,
                    "velocity": 1
                },
                {
                    "duration": 0.25,
                    "durationTicks": 480,
                    "midi": 69,
                    "name": "A4",
                    "ticks": 291840,
                    "time": 152,
                    "velocity": 1
                },
                {
                    "duration": 0.25,
                    "durationTicks": 480,
                    "midi": 70,
                    "name": "A#4",
                    "ticks": 291840,
                    "time": 152,
                    "velocity": 1
                },
                {
                    "duration": 0.25,
                    "durationTicks": 480,
                    "midi": 69,
                    "name": "A4",
                    "ticks": 292320,
                    "time": 152.25,
                    "velocity": 1
                },
                {
                    "duration": 0.25,
                    "durationTicks": 480,
                    "midi": 69,
                    "name": "A4",
                    "ticks": 292800,
                    "time": 152.5,
                    "velocity": 1
                },
                {
                    "duration": 0.25,
                    "durationTicks": 480,
                    "midi": 69,
                    "name": "A4",
                    "ticks": 293280,
                    "time": 152.75,
                    "velocity": 1
                },
                {
                    "duration": 0.0625,
                    "durationTicks": 120,
                    "midi": 69,
                    "name": "A4",
                    "ticks": 293760,
                    "time": 153,
                    "velocity": 1
                },
                {
                    "duration": 0.25,
                    "durationTicks": 480,
                    "midi": 70,
                    "name": "A#4",
                    "ticks": 293760,
                    "time": 153,
                    "velocity": 1
                },
                {
                    "duration": 0.0625,
                    "durationTicks": 120,
                    "midi": 69,
                    "name": "A4",
                    "ticks": 293880,
                    "time": 153.0625,
                    "velocity": 1
                },
                {
                    "duration": 0.0625,
                    "durationTicks": 120,
                    "midi": 69,
                    "name": "A4",
                    "ticks": 294000,
                    "time": 153.125,
                    "velocity": 1
                },
                {
                    "duration": 0.25,
                    "durationTicks": 480,
                    "midi": 69,
                    "name": "A4",
                    "ticks": 294240,
                    "time": 153.25,
                    "velocity": 1
                },
                {
                    "duration": 0.25,
                    "durationTicks": 480,
                    "midi": 69,
                    "name": "A4",
                    "ticks": 294720,
                    "time": 153.5,
                    "velocity": 1
                },
                {
                    "duration": 0.25,
                    "durationTicks": 480,
                    "midi": 69,
                    "name": "A4",
                    "ticks": 295200,
                    "time": 153.75,
                    "velocity": 1
                },
                {
                    "duration": 0.25,
                    "durationTicks": 480,
                    "midi": 69,
                    "name": "A4",
                    "ticks": 295680,
                    "time": 154,
                    "velocity": 1
                },
                {
                    "duration": 0.25,
                    "durationTicks": 480,
                    "midi": 70,
                    "name": "A#4",
                    "ticks": 295680,
                    "time": 154,
                    "velocity": 1
                },
                {
                    "duration": 0.25,
                    "durationTicks": 480,
                    "midi": 69,
                    "name": "A4",
                    "ticks": 296160,
                    "time": 154.25,
                    "velocity": 1
                },
                {
                    "duration": 0.25,
                    "durationTicks": 480,
                    "midi": 69,
                    "name": "A4",
                    "ticks": 296640,
                    "time": 154.5,
                    "velocity": 1
                },
                {
                    "duration": 0.25,
                    "durationTicks": 480,
                    "midi": 69,
                    "name": "A4",
                    "ticks": 297120,
                    "time": 154.75,
                    "velocity": 1
                },
                {
                    "duration": 0.0625,
                    "durationTicks": 120,
                    "midi": 69,
                    "name": "A4",
                    "ticks": 297600,
                    "time": 155,
                    "velocity": 1
                },
                {
                    "duration": 0.25,
                    "durationTicks": 480,
                    "midi": 70,
                    "name": "A#4",
                    "ticks": 297600,
                    "time": 155,
                    "velocity": 1
                },
                {
                    "duration": 0.0625,
                    "durationTicks": 120,
                    "midi": 69,
                    "name": "A4",
                    "ticks": 297720,
                    "time": 155.0625,
                    "velocity": 1
                },
                {
                    "duration": 0.0625,
                    "durationTicks": 120,
                    "midi": 69,
                    "name": "A4",
                    "ticks": 297840,
                    "time": 155.125,
                    "velocity": 1
                },
                {
                    "duration": 0.25,
                    "durationTicks": 480,
                    "midi": 69,
                    "name": "A4",
                    "ticks": 298080,
                    "time": 155.25,
                    "velocity": 1
                },
                {
                    "duration": 0.25,
                    "durationTicks": 480,
                    "midi": 69,
                    "name": "A4",
                    "ticks": 298560,
                    "time": 155.5,
                    "velocity": 1
                },
                {
                    "duration": 0.25,
                    "durationTicks": 480,
                    "midi": 69,
                    "name": "A4",
                    "ticks": 299040,
                    "time": 155.75,
                    "velocity": 1
                },
                {
                    "duration": 0.25,
                    "durationTicks": 480,
                    "midi": 69,
                    "name": "A4",
                    "ticks": 299520,
                    "time": 156,
                    "velocity": 1
                },
                {
                    "duration": 0.25,
                    "durationTicks": 480,
                    "midi": 70,
                    "name": "A#4",
                    "ticks": 299520,
                    "time": 156,
                    "velocity": 1
                },
                {
                    "duration": 0.25,
                    "durationTicks": 480,
                    "midi": 69,
                    "name": "A4",
                    "ticks": 300000,
                    "time": 156.25,
                    "velocity": 1
                },
                {
                    "duration": 0.25,
                    "durationTicks": 480,
                    "midi": 69,
                    "name": "A4",
                    "ticks": 300480,
                    "time": 156.5,
                    "velocity": 1
                },
                {
                    "duration": 0.25,
                    "durationTicks": 480,
                    "midi": 69,
                    "name": "A4",
                    "ticks": 300960,
                    "time": 156.75,
                    "velocity": 1
                },
                {
                    "duration": 0.0625,
                    "durationTicks": 120,
                    "midi": 69,
                    "name": "A4",
                    "ticks": 301440,
                    "time": 157,
                    "velocity": 1
                },
                {
                    "duration": 0.25,
                    "durationTicks": 480,
                    "midi": 70,
                    "name": "A#4",
                    "ticks": 301440,
                    "time": 157,
                    "velocity": 1
                },
                {
                    "duration": 0.0625,
                    "durationTicks": 120,
                    "midi": 69,
                    "name": "A4",
                    "ticks": 301560,
                    "time": 157.0625,
                    "velocity": 1
                },
                {
                    "duration": 0.0625,
                    "durationTicks": 120,
                    "midi": 69,
                    "name": "A4",
                    "ticks": 301680,
                    "time": 157.125,
                    "velocity": 1
                },
                {
                    "duration": 0.25,
                    "durationTicks": 480,
                    "midi": 69,
                    "name": "A4",
                    "ticks": 301920,
                    "time": 157.25,
                    "velocity": 1
                },
                {
                    "duration": 0.25,
                    "durationTicks": 480,
                    "midi": 69,
                    "name": "A4",
                    "ticks": 302400,
                    "time": 157.5,
                    "velocity": 1
                },
                {
                    "duration": 0.25,
                    "durationTicks": 480,
                    "midi": 69,
                    "name": "A4",
                    "ticks": 302880,
                    "time": 157.75,
                    "velocity": 1
                },
                {
                    "duration": 0.25,
                    "durationTicks": 480,
                    "midi": 69,
                    "name": "A4",
                    "ticks": 303360,
                    "time": 158,
                    "velocity": 1
                },
                {
                    "duration": 0.25,
                    "durationTicks": 480,
                    "midi": 70,
                    "name": "A#4",
                    "ticks": 303360,
                    "time": 158,
                    "velocity": 1
                },
                {
                    "duration": 0.25,
                    "durationTicks": 480,
                    "midi": 69,
                    "name": "A4",
                    "ticks": 303840,
                    "time": 158.25,
                    "velocity": 1
                },
                {
                    "duration": 0.25,
                    "durationTicks": 480,
                    "midi": 69,
                    "name": "A4",
                    "ticks": 304320,
                    "time": 158.5,
                    "velocity": 1
                },
                {
                    "duration": 0.25,
                    "durationTicks": 480,
                    "midi": 69,
                    "name": "A4",
                    "ticks": 304800,
                    "time": 158.75,
                    "velocity": 1
                },
                {
                    "duration": 0.0625,
                    "durationTicks": 120,
                    "midi": 69,
                    "name": "A4",
                    "ticks": 305280,
                    "time": 159,
                    "velocity": 1
                },
                {
                    "duration": 0.25,
                    "durationTicks": 480,
                    "midi": 70,
                    "name": "A#4",
                    "ticks": 305280,
                    "time": 159,
                    "velocity": 1
                },
                {
                    "duration": 0.0625,
                    "durationTicks": 120,
                    "midi": 69,
                    "name": "A4",
                    "ticks": 305400,
                    "time": 159.0625,
                    "velocity": 1
                },
                {
                    "duration": 0.0625,
                    "durationTicks": 120,
                    "midi": 69,
                    "name": "A4",
                    "ticks": 305520,
                    "time": 159.125,
                    "velocity": 1
                },
                {
                    "duration": 0.25,
                    "durationTicks": 480,
                    "midi": 69,
                    "name": "A4",
                    "ticks": 305760,
                    "time": 159.25,
                    "velocity": 1
                },
                {
                    "duration": 0.25,
                    "durationTicks": 480,
                    "midi": 69,
                    "name": "A4",
                    "ticks": 306240,
                    "time": 159.5,
                    "velocity": 1
                },
                {
                    "duration": 0.25,
                    "durationTicks": 480,
                    "midi": 69,
                    "name": "A4",
                    "ticks": 306720,
                    "time": 159.75,
                    "velocity": 1
                },
                {
                    "duration": 0.25,
                    "durationTicks": 480,
                    "midi": 69,
                    "name": "A4",
                    "ticks": 307200,
                    "time": 160,
                    "velocity": 1
                },
                {
                    "duration": 0.25,
                    "durationTicks": 480,
                    "midi": 70,
                    "name": "A#4",
                    "ticks": 307200,
                    "time": 160,
                    "velocity": 1
                },
                {
                    "duration": 0.25,
                    "durationTicks": 480,
                    "midi": 69,
                    "name": "A4",
                    "ticks": 307680,
                    "time": 160.25,
                    "velocity": 1
                },
                {
                    "duration": 0.25,
                    "durationTicks": 480,
                    "midi": 69,
                    "name": "A4",
                    "ticks": 308160,
                    "time": 160.5,
                    "velocity": 1
                },
                {
                    "duration": 0.25,
                    "durationTicks": 480,
                    "midi": 69,
                    "name": "A4",
                    "ticks": 308640,
                    "time": 160.75,
                    "velocity": 1
                },
                {
                    "duration": 0.0625,
                    "durationTicks": 120,
                    "midi": 69,
                    "name": "A4",
                    "ticks": 309120,
                    "time": 161,
                    "velocity": 1
                },
                {
                    "duration": 0.25,
                    "durationTicks": 480,
                    "midi": 70,
                    "name": "A#4",
                    "ticks": 309120,
                    "time": 161,
                    "velocity": 1
                },
                {
                    "duration": 0.0625,
                    "durationTicks": 120,
                    "midi": 69,
                    "name": "A4",
                    "ticks": 309240,
                    "time": 161.0625,
                    "velocity": 1
                },
                {
                    "duration": 0.0625,
                    "durationTicks": 120,
                    "midi": 69,
                    "name": "A4",
                    "ticks": 309360,
                    "time": 161.125,
                    "velocity": 1
                },
                {
                    "duration": 0.25,
                    "durationTicks": 480,
                    "midi": 69,
                    "name": "A4",
                    "ticks": 309600,
                    "time": 161.25,
                    "velocity": 1
                },
                {
                    "duration": 0.25,
                    "durationTicks": 480,
                    "midi": 69,
                    "name": "A4",
                    "ticks": 310080,
                    "time": 161.5,
                    "velocity": 1
                },
                {
                    "duration": 0.25,
                    "durationTicks": 480,
                    "midi": 69,
                    "name": "A4",
                    "ticks": 310560,
                    "time": 161.75,
                    "velocity": 1
                },
                {
                    "duration": 0.25,
                    "durationTicks": 480,
                    "midi": 69,
                    "name": "A4",
                    "ticks": 311040,
                    "time": 162,
                    "velocity": 1
                },
                {
                    "duration": 0.25,
                    "durationTicks": 480,
                    "midi": 70,
                    "name": "A#4",
                    "ticks": 311040,
                    "time": 162,
                    "velocity": 1
                },
                {
                    "duration": 0.25,
                    "durationTicks": 480,
                    "midi": 69,
                    "name": "A4",
                    "ticks": 311520,
                    "time": 162.25,
                    "velocity": 1
                },
                {
                    "duration": 0.25,
                    "durationTicks": 480,
                    "midi": 69,
                    "name": "A4",
                    "ticks": 312000,
                    "time": 162.5,
                    "velocity": 1
                },
                {
                    "duration": 0.25,
                    "durationTicks": 480,
                    "midi": 69,
                    "name": "A4",
                    "ticks": 312480,
                    "time": 162.75,
                    "velocity": 1
                },
                {
                    "duration": 0.0625,
                    "durationTicks": 120,
                    "midi": 69,
                    "name": "A4",
                    "ticks": 312960,
                    "time": 163,
                    "velocity": 1
                },
                {
                    "duration": 0.25,
                    "durationTicks": 480,
                    "midi": 70,
                    "name": "A#4",
                    "ticks": 312960,
                    "time": 163,
                    "velocity": 1
                },
                {
                    "duration": 0.0625,
                    "durationTicks": 120,
                    "midi": 69,
                    "name": "A4",
                    "ticks": 313080,
                    "time": 163.0625,
                    "velocity": 1
                },
                {
                    "duration": 0.0625,
                    "durationTicks": 120,
                    "midi": 69,
                    "name": "A4",
                    "ticks": 313200,
                    "time": 163.125,
                    "velocity": 1
                },
                {
                    "duration": 0.25,
                    "durationTicks": 480,
                    "midi": 69,
                    "name": "A4",
                    "ticks": 313440,
                    "time": 163.25,
                    "velocity": 1
                },
                {
                    "duration": 0.25,
                    "durationTicks": 480,
                    "midi": 69,
                    "name": "A4",
                    "ticks": 313920,
                    "time": 163.5,
                    "velocity": 1
                },
                {
                    "duration": 0.25,
                    "durationTicks": 480,
                    "midi": 69,
                    "name": "A4",
                    "ticks": 314400,
                    "time": 163.75,
                    "velocity": 1
                },
                {
                    "duration": 0.25,
                    "durationTicks": 480,
                    "midi": 69,
                    "name": "A4",
                    "ticks": 314880,
                    "time": 164,
                    "velocity": 1
                },
                {
                    "duration": 0.25,
                    "durationTicks": 480,
                    "midi": 70,
                    "name": "A#4",
                    "ticks": 314880,
                    "time": 164,
                    "velocity": 1
                },
                {
                    "duration": 0.25,
                    "durationTicks": 480,
                    "midi": 69,
                    "name": "A4",
                    "ticks": 315360,
                    "time": 164.25,
                    "velocity": 1
                },
                {
                    "duration": 0.25,
                    "durationTicks": 480,
                    "midi": 69,
                    "name": "A4",
                    "ticks": 315840,
                    "time": 164.5,
                    "velocity": 1
                },
                {
                    "duration": 0.25,
                    "durationTicks": 480,
                    "midi": 69,
                    "name": "A4",
                    "ticks": 316320,
                    "time": 164.75,
                    "velocity": 1
                },
                {
                    "duration": 0.0625,
                    "durationTicks": 120,
                    "midi": 69,
                    "name": "A4",
                    "ticks": 316800,
                    "time": 165,
                    "velocity": 1
                },
                {
                    "duration": 0.25,
                    "durationTicks": 480,
                    "midi": 70,
                    "name": "A#4",
                    "ticks": 316800,
                    "time": 165,
                    "velocity": 1
                },
                {
                    "duration": 0.0625,
                    "durationTicks": 120,
                    "midi": 69,
                    "name": "A4",
                    "ticks": 316920,
                    "time": 165.0625,
                    "velocity": 1
                },
                {
                    "duration": 0.0625,
                    "durationTicks": 120,
                    "midi": 69,
                    "name": "A4",
                    "ticks": 317040,
                    "time": 165.125,
                    "velocity": 1
                },
                {
                    "duration": 0.25,
                    "durationTicks": 480,
                    "midi": 69,
                    "name": "A4",
                    "ticks": 317280,
                    "time": 165.25,
                    "velocity": 1
                },
                {
                    "duration": 0.25,
                    "durationTicks": 480,
                    "midi": 69,
                    "name": "A4",
                    "ticks": 317760,
                    "time": 165.5,
                    "velocity": 1
                },
                {
                    "duration": 0.25,
                    "durationTicks": 480,
                    "midi": 69,
                    "name": "A4",
                    "ticks": 318240,
                    "time": 165.75,
                    "velocity": 1
                },
                {
                    "duration": 0.25,
                    "durationTicks": 480,
                    "midi": 69,
                    "name": "A4",
                    "ticks": 318720,
                    "time": 166,
                    "velocity": 1
                },
                {
                    "duration": 0.25,
                    "durationTicks": 480,
                    "midi": 70,
                    "name": "A#4",
                    "ticks": 318720,
                    "time": 166,
                    "velocity": 1
                },
                {
                    "duration": 0.25,
                    "durationTicks": 480,
                    "midi": 69,
                    "name": "A4",
                    "ticks": 319200,
                    "time": 166.25,
                    "velocity": 1
                },
                {
                    "duration": 0.25,
                    "durationTicks": 480,
                    "midi": 69,
                    "name": "A4",
                    "ticks": 319680,
                    "time": 166.5,
                    "velocity": 1
                },
                {
                    "duration": 0.25,
                    "durationTicks": 480,
                    "midi": 69,
                    "name": "A4",
                    "ticks": 320160,
                    "time": 166.75,
                    "velocity": 1
                },
                {
                    "duration": 0.0625,
                    "durationTicks": 120,
                    "midi": 69,
                    "name": "A4",
                    "ticks": 320640,
                    "time": 167,
                    "velocity": 1
                },
                {
                    "duration": 0.25,
                    "durationTicks": 480,
                    "midi": 70,
                    "name": "A#4",
                    "ticks": 320640,
                    "time": 167,
                    "velocity": 1
                },
                {
                    "duration": 0.0625,
                    "durationTicks": 120,
                    "midi": 69,
                    "name": "A4",
                    "ticks": 320760,
                    "time": 167.0625,
                    "velocity": 1
                },
                {
                    "duration": 0.0625,
                    "durationTicks": 120,
                    "midi": 69,
                    "name": "A4",
                    "ticks": 320880,
                    "time": 167.125,
                    "velocity": 1
                },
                {
                    "duration": 0.25,
                    "durationTicks": 480,
                    "midi": 69,
                    "name": "A4",
                    "ticks": 321120,
                    "time": 167.25,
                    "velocity": 1
                },
                {
                    "duration": 0.25,
                    "durationTicks": 480,
                    "midi": 69,
                    "name": "A4",
                    "ticks": 321600,
                    "time": 167.5,
                    "velocity": 1
                },
                {
                    "duration": 0.25,
                    "durationTicks": 480,
                    "midi": 69,
                    "name": "A4",
                    "ticks": 322080,
                    "time": 167.75,
                    "velocity": 1
                },
                {
                    "duration": 0.25,
                    "durationTicks": 480,
                    "midi": 69,
                    "name": "A4",
                    "ticks": 322560,
                    "time": 168,
                    "velocity": 1
                },
                {
                    "duration": 0.25,
                    "durationTicks": 480,
                    "midi": 70,
                    "name": "A#4",
                    "ticks": 322560,
                    "time": 168,
                    "velocity": 1
                },
                {
                    "duration": 0.25,
                    "durationTicks": 480,
                    "midi": 69,
                    "name": "A4",
                    "ticks": 323040,
                    "time": 168.25,
                    "velocity": 1
                },
                {
                    "duration": 0.25,
                    "durationTicks": 480,
                    "midi": 69,
                    "name": "A4",
                    "ticks": 323520,
                    "time": 168.5,
                    "velocity": 1
                },
                {
                    "duration": 0.25,
                    "durationTicks": 480,
                    "midi": 69,
                    "name": "A4",
                    "ticks": 324000,
                    "time": 168.75,
                    "velocity": 1
                },
                {
                    "duration": 0.0625,
                    "durationTicks": 120,
                    "midi": 69,
                    "name": "A4",
                    "ticks": 324480,
                    "time": 169,
                    "velocity": 1
                },
                {
                    "duration": 0.25,
                    "durationTicks": 480,
                    "midi": 70,
                    "name": "A#4",
                    "ticks": 324480,
                    "time": 169,
                    "velocity": 1
                },
                {
                    "duration": 0.0625,
                    "durationTicks": 120,
                    "midi": 69,
                    "name": "A4",
                    "ticks": 324600,
                    "time": 169.0625,
                    "velocity": 1
                },
                {
                    "duration": 0.0625,
                    "durationTicks": 120,
                    "midi": 69,
                    "name": "A4",
                    "ticks": 324720,
                    "time": 169.125,
                    "velocity": 1
                },
                {
                    "duration": 0.25,
                    "durationTicks": 480,
                    "midi": 69,
                    "name": "A4",
                    "ticks": 324960,
                    "time": 169.25,
                    "velocity": 1
                },
                {
                    "duration": 0.25,
                    "durationTicks": 480,
                    "midi": 69,
                    "name": "A4",
                    "ticks": 325440,
                    "time": 169.5,
                    "velocity": 1
                },
                {
                    "duration": 0.25,
                    "durationTicks": 480,
                    "midi": 69,
                    "name": "A4",
                    "ticks": 325920,
                    "time": 169.75,
                    "velocity": 1
                },
                {
                    "duration": 0.25,
                    "durationTicks": 480,
                    "midi": 69,
                    "name": "A4",
                    "ticks": 326400,
                    "time": 170,
                    "velocity": 1
                },
                {
                    "duration": 0.25,
                    "durationTicks": 480,
                    "midi": 70,
                    "name": "A#4",
                    "ticks": 326400,
                    "time": 170,
                    "velocity": 1
                },
                {
                    "duration": 0.25,
                    "durationTicks": 480,
                    "midi": 69,
                    "name": "A4",
                    "ticks": 326880,
                    "time": 170.25,
                    "velocity": 1
                },
                {
                    "duration": 0.25,
                    "durationTicks": 480,
                    "midi": 69,
                    "name": "A4",
                    "ticks": 327360,
                    "time": 170.5,
                    "velocity": 1
                },
                {
                    "duration": 0.25,
                    "durationTicks": 480,
                    "midi": 69,
                    "name": "A4",
                    "ticks": 327840,
                    "time": 170.75,
                    "velocity": 1
                },
                {
                    "duration": 0.0625,
                    "durationTicks": 120,
                    "midi": 69,
                    "name": "A4",
                    "ticks": 328320,
                    "time": 171,
                    "velocity": 1
                },
                {
                    "duration": 0.25,
                    "durationTicks": 480,
                    "midi": 70,
                    "name": "A#4",
                    "ticks": 328320,
                    "time": 171,
                    "velocity": 1
                },
                {
                    "duration": 0.0625,
                    "durationTicks": 120,
                    "midi": 69,
                    "name": "A4",
                    "ticks": 328440,
                    "time": 171.0625,
                    "velocity": 1
                },
                {
                    "duration": 0.0625,
                    "durationTicks": 120,
                    "midi": 69,
                    "name": "A4",
                    "ticks": 328560,
                    "time": 171.125,
                    "velocity": 1
                },
                {
                    "duration": 0.25,
                    "durationTicks": 480,
                    "midi": 69,
                    "name": "A4",
                    "ticks": 328800,
                    "time": 171.25,
                    "velocity": 1
                },
                {
                    "duration": 0.25,
                    "durationTicks": 480,
                    "midi": 69,
                    "name": "A4",
                    "ticks": 329280,
                    "time": 171.5,
                    "velocity": 1
                },
                {
                    "duration": 0.25,
                    "durationTicks": 480,
                    "midi": 69,
                    "name": "A4",
                    "ticks": 329760,
                    "time": 171.75,
                    "velocity": 1
                },
                {
                    "duration": 0.25,
                    "durationTicks": 480,
                    "midi": 69,
                    "name": "A4",
                    "ticks": 330240,
                    "time": 172,
                    "velocity": 1
                },
                {
                    "duration": 0.25,
                    "durationTicks": 480,
                    "midi": 70,
                    "name": "A#4",
                    "ticks": 330240,
                    "time": 172,
                    "velocity": 1
                },
                {
                    "duration": 0.25,
                    "durationTicks": 480,
                    "midi": 69,
                    "name": "A4",
                    "ticks": 330720,
                    "time": 172.25,
                    "velocity": 1
                },
                {
                    "duration": 0.25,
                    "durationTicks": 480,
                    "midi": 69,
                    "name": "A4",
                    "ticks": 331200,
                    "time": 172.5,
                    "velocity": 1
                },
                {
                    "duration": 0.25,
                    "durationTicks": 480,
                    "midi": 69,
                    "name": "A4",
                    "ticks": 331680,
                    "time": 172.75,
                    "velocity": 1
                },
                {
                    "duration": 0.0625,
                    "durationTicks": 120,
                    "midi": 69,
                    "name": "A4",
                    "ticks": 332160,
                    "time": 173,
                    "velocity": 1
                },
                {
                    "duration": 0.25,
                    "durationTicks": 480,
                    "midi": 70,
                    "name": "A#4",
                    "ticks": 332160,
                    "time": 173,
                    "velocity": 1
                },
                {
                    "duration": 0.0625,
                    "durationTicks": 120,
                    "midi": 69,
                    "name": "A4",
                    "ticks": 332280,
                    "time": 173.0625,
                    "velocity": 1
                },
                {
                    "duration": 0.0625,
                    "durationTicks": 120,
                    "midi": 69,
                    "name": "A4",
                    "ticks": 332400,
                    "time": 173.125,
                    "velocity": 1
                },
                {
                    "duration": 0.25,
                    "durationTicks": 480,
                    "midi": 69,
                    "name": "A4",
                    "ticks": 332640,
                    "time": 173.25,
                    "velocity": 1
                },
                {
                    "duration": 0.25,
                    "durationTicks": 480,
                    "midi": 69,
                    "name": "A4",
                    "ticks": 333120,
                    "time": 173.5,
                    "velocity": 1
                },
                {
                    "duration": 0.25,
                    "durationTicks": 480,
                    "midi": 69,
                    "name": "A4",
                    "ticks": 333600,
                    "time": 173.75,
                    "velocity": 1
                }
            ],
            "endOfTrackTicks": 334080
        }
    ]
}